<svg width="204" height="233" viewBox="0 0 204 233" fill="none" xmlns="http://www.w3.org/2000/svg">
<g filter="url(#filter0_f_1_72)">
<ellipse cx="102.5" cy="216" rx="69.5" ry="8" fill="#0C0C17"/>
</g>
<g clip-path="url(#clip0_1_72)">
<path d="M18.7568 109.636L17.1276 92.4906L38.1996 82.6656L39.8292 99.8079L18.7568 109.636Z" fill="url(#paint0_radial_1_72)"/>
<path d="M17.1282 92.4911C16.2593 83.347 15.6947 77.3217 16.1414 73.6581L37.2134 63.8331C36.7667 67.4934 37.3313 73.5219 38.2003 82.666L17.1282 92.4911Z" fill="url(#paint1_radial_1_72)"/>
<path d="M16.1419 73.6577L15.9719 73.6278L37.0442 63.8028L37.2139 63.8327L16.1419 73.6577Z" fill="url(#paint2_radial_1_72)"/>
<path d="M15.9707 73.628C8.64542 72.3293 2.72516 64.6766 2.72516 56.5388L23.7975 46.7105C23.7975 54.8515 29.7174 62.501 37.043 63.803L15.9707 73.628Z" fill="url(#paint3_radial_1_72)"/>
<path d="M2.72567 56.5386C2.72567 51.0481 5.41878 46.7069 9.42186 44.8402L30.4942 35.0152C26.4908 36.8819 23.798 41.2231 23.798 46.7102L2.72567 56.5386Z" fill="url(#paint4_radial_1_72)"/>
<path d="M51.8576 94.5769C52.0433 94.5237 52.2243 94.454 52.4014 94.371L73.4737 84.5459C73.2963 84.629 73.1156 84.6954 72.93 84.7519L51.8576 94.5769Z" fill="url(#paint5_radial_1_72)"/>
<path d="M52.4015 94.3709C54.4313 93.4242 55.9688 90.6807 58.813 85.5822L79.885 75.7571C77.0411 80.8523 75.5033 83.5992 73.4738 84.5459L52.4015 94.3709Z" fill="url(#paint6_radial_1_72)"/>
<path d="M58.813 85.5819L75.2346 56.2297L96.3069 46.4047L79.885 75.7568L58.813 85.5819Z" fill="url(#paint7_radial_1_72)"/>
<path d="M75.2344 56.2296C77.1635 52.7752 78.7878 49.8822 80.2552 47.5771L101.327 37.752C99.8598 40.0571 98.2359 42.9502 96.3068 46.4046L75.2344 56.2296Z" fill="url(#paint8_radial_1_72)"/>
<path d="M80.2552 47.5774C74.2622 43.2528 70.1777 35.8059 70.1777 28.0037L91.2501 18.1753C91.2501 25.9809 95.3342 33.4277 101.327 37.7523L80.2552 47.5774Z" fill="url(#paint9_radial_1_72)"/>
<path d="M70.1777 28.0035C70.1777 20.5102 73.9263 14.558 79.5081 11.954L100.58 2.12895C94.9983 4.73302 91.25 10.6851 91.25 18.1752L70.1777 28.0035Z" fill="url(#paint10_radial_1_72)"/>
<path d="M98.0741 49.9656C97.7675 50.1084 97.4556 50.2413 97.1384 50.3642L118.211 40.5391C118.528 40.4162 118.84 40.2834 119.146 40.1406L98.0741 49.9656Z" fill="url(#paint11_radial_1_72)"/>
<path fill-rule="evenodd" clip-rule="evenodd" d="M101.841 59.9673C100.043 56.1874 98.5239 52.9936 97.1376 50.3642L118.21 40.5391C119.62 43.2144 121.169 46.471 123.008 50.3403C123.105 50.5446 123.203 50.7507 123.302 50.9585L123.302 50.9583L140.183 86.5649L119.11 96.3933L102.23 60.7836L102.229 60.7837C102.099 60.5086 101.969 60.2365 101.841 59.9673ZM119.11 96.3933L119.121 96.4153L119.121 96.4153C122.344 103.193 123.96 106.592 126.383 108.181L147.455 98.3564C145.031 96.7659 143.414 93.3629 140.186 86.5712L140.183 86.565L119.11 96.3933ZM126.383 108.182C127.719 109.062 129.21 109.557 130.672 109.613L130.672 109.613C131.495 109.64 132.292 109.454 133.143 109.055L154.215 99.2302C153.364 99.6254 152.567 99.8115 151.744 99.7849L151.744 99.7848C150.282 99.7316 148.791 99.2334 147.455 98.3565L126.383 108.182Z" fill="url(#paint12_radial_1_72)"/>
<path d="M133.143 109.055C135.017 108.182 137.155 106.285 140.417 103.402L161.489 93.5738C158.227 96.4602 156.089 98.3568 154.215 99.2303L133.143 109.055Z" fill="url(#paint13_radial_1_72)"/>
<path d="M140.417 103.402C146.605 97.9344 150.729 94.2874 153.886 92.7762L174.958 82.9478C171.801 84.4624 167.677 88.1094 161.489 93.5733L140.417 103.402Z" fill="url(#paint14_radial_1_72)"/>
<path d="M153.886 92.7765C151.676 89.6775 150.352 85.9075 150.352 82.0413L171.424 72.2129C171.424 76.0825 172.748 79.8524 174.958 82.9481L153.886 92.7765Z" fill="url(#paint15_radial_1_72)"/>
<path d="M150.352 82.0412C150.352 76.4046 153.199 71.9471 157.459 69.9608L178.531 60.1358C174.272 62.1221 171.424 66.5795 171.424 72.2128L150.352 82.0412Z" fill="url(#paint16_radial_1_72)"/>
<path d="M172.559 99.1934C170.333 100.233 167.723 100.595 164.935 100.1L186.007 90.2719C188.795 90.7668 191.405 90.4048 193.631 89.3684L172.559 99.1934Z" fill="url(#paint17_radial_1_72)"/>
<path d="M164.935 100.1L164.76 100.071L185.832 90.2422L186.007 90.2721L164.935 100.1Z" fill="url(#paint18_radial_1_72)"/>
<path d="M159.055 163.671L21.3428 136.401L42.4151 126.576L180.127 153.846L159.055 163.671Z" fill="url(#paint19_radial_1_72)"/>
<path d="M21.3428 136.401C20.4127 128.21 19.6601 119.156 18.756 109.636L39.8283 99.8111C40.7321 109.331 41.4847 118.382 42.4151 126.576L21.3428 136.401Z" fill="url(#paint20_radial_1_72)"/>
<path d="M18.7558 109.637L39.8292 99.8082L39.8281 99.8115L18.7558 109.637Z" fill="url(#paint21_radial_1_72)"/>
<path d="M98.8296 194.843L78.5873 190.555L99.6597 180.73L119.902 185.018L98.8296 194.843Z" fill="url(#paint22_radial_1_72)"/>
<path d="M78.5869 190.555C52.5927 185.051 39.7544 182.331 31.249 172.134L52.3214 162.309C60.8264 172.502 73.6651 175.223 99.6592 180.73L78.5869 190.555Z" fill="url(#paint23_radial_1_72)"/>
<path d="M31.25 172.134C27.5588 167.69 25.2158 160.605 23.5374 151.674L44.6094 141.849C46.2881 150.78 48.6308 157.862 52.3223 162.309L31.25 172.134Z" fill="url(#paint24_radial_1_72)"/>
<path d="M23.5365 151.674L156.663 178.684L177.735 168.859L44.6085 141.849L23.5365 151.674Z" fill="url(#paint25_radial_1_72)"/>
<path d="M148.305 196.6C147.305 197.344 146.252 197.972 145.134 198.493L166.206 188.668C167.324 188.147 168.377 187.519 169.377 186.775L148.305 196.6Z" fill="url(#paint26_radial_1_72)"/>
<path d="M145.134 198.494C136.052 202.729 122.679 199.899 98.8298 194.843L119.902 185.018C143.751 190.07 157.124 192.904 166.206 188.669L145.134 198.494Z" fill="url(#paint27_radial_1_72)"/>
<path d="M156.663 178.684C154.837 187.27 152.303 193.621 148.304 196.6L169.377 186.775C173.376 183.792 175.909 177.445 177.735 168.859L156.663 178.684Z" fill="url(#paint28_radial_1_72)"/>
<path fill-rule="evenodd" clip-rule="evenodd" d="M164.76 100.071C165.261 104.073 164.632 110.188 163.675 119.435L184.747 109.607C185.704 100.36 186.333 94.248 185.832 90.2422L164.76 100.071ZM182.959 126.915C182.664 129.769 182.385 132.584 182.11 135.346C181.462 141.869 180.843 148.096 180.128 153.845L159.056 163.67C159.77 157.925 160.388 151.705 161.036 145.189C161.311 142.422 161.592 139.603 161.887 136.743L161.888 136.743L163.676 119.435L184.748 109.606L182.959 126.915L182.959 126.915Z" fill="url(#paint29_radial_1_72)"/>
<path fill-rule="evenodd" clip-rule="evenodd" d="M157.459 69.9606C159.646 68.9409 162.206 68.5723 164.944 69.0306L186.017 59.2056C183.278 58.7472 180.718 59.1126 178.531 60.1356L157.459 69.9606ZM164.944 69.0308C173.037 70.3927 179.653 78.4872 179.653 87.1131C179.653 92.7635 176.811 97.2093 172.565 99.1904L193.631 89.3684C197.88 87.3888 200.726 82.9412 200.726 77.2881C200.726 68.6621 194.109 60.5643 186.017 59.2058L164.944 69.0308Z" fill="url(#paint30_radial_1_72)"/>
<path fill-rule="evenodd" clip-rule="evenodd" d="M79.5085 11.9536C82.2072 10.6981 85.3344 10.2198 88.6739 10.7313L88.6739 10.7313C98.9882 12.3157 107.392 22.7087 107.392 33.9386L128.465 24.1136C128.465 12.8836 120.06 2.48724 109.746 0.906197L109.746 0.906233C106.407 0.394761 103.279 0.869755 100.58 2.12859L79.5085 11.9536ZM98.074 49.965C103.644 47.3676 107.392 41.4354 107.392 33.9387L128.465 24.1137C128.465 31.6104 124.716 37.5426 119.146 40.14L98.074 49.965Z" fill="url(#paint31_radial_1_72)"/>
<path fill-rule="evenodd" clip-rule="evenodd" d="M26.0871 70.2826C28.9921 72.7763 32.8008 77.6472 38.5455 84.9942L38.597 85.0601L59.669 75.235L59.6174 75.1691C53.8728 67.8221 50.0641 62.9512 47.1591 60.4576L26.0871 70.2826ZM38.5973 85.06C43.0531 90.7663 45.2861 93.6228 47.7803 94.4632L68.8526 84.6381C66.3581 83.7945 64.1254 80.9413 59.6693 75.2349L38.5973 85.06ZM51.8574 94.5763C50.5853 94.9649 49.1677 94.9416 47.7803 94.4633L68.8526 84.6383C70.24 85.1166 71.6576 85.1399 72.9297 84.7513L51.8574 94.5763Z" fill="url(#paint32_radial_1_72)"/>
<path fill-rule="evenodd" clip-rule="evenodd" d="M15.9795 44.0164C13.592 43.6145 11.3543 43.94 9.42181 44.8402L30.4942 35.0152C32.4266 34.115 34.6643 33.7895 37.0518 34.1914L15.9795 44.0164ZM15.9798 44.0164C23.3492 45.2554 29.3505 52.9181 29.3506 61.1388L50.4229 51.3138C50.4229 43.0931 44.4216 35.427 37.0522 34.1914L15.9798 44.0164ZM26.0882 70.2829C28.1176 68.0343 29.3505 64.8523 29.3506 61.1388L50.4229 51.3138C50.4229 55.0273 49.1899 58.2092 47.1602 60.4579L26.0882 70.2829Z" fill="url(#paint33_radial_1_72)"/>
<path d="M18.7574 109.635L17.1281 92.4917C16.2592 83.3484 15.6946 77.3204 16.1413 73.6595L15.9713 73.6296C8.64602 72.328 2.72594 64.6763 2.72594 56.5378C2.72594 48.399 8.64601 42.7849 15.9798 44.0165C23.3491 45.2541 29.3503 52.9197 29.3503 61.1389C29.3503 64.8529 28.1175 68.0354 26.0879 70.2834C29.0014 72.786 32.8243 77.6782 38.5977 85.0616C43.0537 90.7679 45.2865 93.6228 47.7809 94.4638C49.1682 94.9435 50.5858 94.9659 51.858 94.578C54.1729 93.8857 55.7209 91.1238 58.813 85.5836L75.2349 56.2311C77.164 52.7766 78.7879 49.8832 80.2554 47.578C74.2625 43.2542 70.1782 35.8071 70.1782 28.0024C70.1782 16.8877 78.4278 9.16275 88.674 10.7335C98.9881 12.3146 107.393 22.7098 107.393 33.9402C107.393 41.8482 103.22 48.0173 97.1384 50.3647C98.6235 53.1825 100.261 56.6441 102.23 60.7844L119.111 96.3923C122.341 103.188 123.958 106.591 126.383 108.183C127.719 109.061 129.21 109.558 130.672 109.612C133.308 109.698 135.674 107.597 140.417 103.401C146.606 97.9351 150.729 94.2894 153.886 92.7759C151.676 89.6778 150.352 85.9093 150.352 82.0401C150.352 73.5131 156.874 67.6774 164.945 69.0327C173.037 70.3917 179.653 78.4889 179.653 87.1133C179.653 95.7281 173.047 101.54 164.935 100.099L164.76 100.069C165.261 104.073 164.631 110.187 163.675 119.433L161.887 136.742C160.896 146.339 160.073 155.487 159.055 163.671L21.3433 136.401C20.413 128.209 19.6614 119.156 18.7574 109.635ZM98.8296 194.845L78.5875 190.557C52.5933 185.05 39.7548 182.331 31.2496 172.135C27.5583 167.688 25.2155 160.606 23.5369 151.674L156.664 178.685C154.837 187.271 152.304 193.62 148.305 196.6C139.186 203.394 125.615 200.519 98.8296 194.845Z" fill="url(#paint34_radial_1_72)"/>
</g>
<defs>
<filter id="filter0_f_1_72" x="24" y="199" width="157" height="34" filterUnits="userSpaceOnUse" color-interpolation-filters="sRGB">
<feFlood flood-opacity="0" result="BackgroundImageFix"/>
<feBlend mode="normal" in="SourceGraphic" in2="BackgroundImageFix" result="shape"/>
<feGaussianBlur stdDeviation="4.5" result="effect1_foregroundBlur_1_72"/>
</filter>
<radialGradient id="paint0_radial_1_72" cx="0" cy="0" r="1" gradientUnits="userSpaceOnUse" gradientTransform="translate(33.6673 91.1421) rotate(114.777) scale(26.3103 23.7462)">
<stop stop-color="#2F6756"/>
<stop offset="0.427083" stop-color="#1B0724"/>
<stop offset="0.699054" stop-color="#2F1A51"/>
<stop offset="1" stop-color="#7C2BA3"/>
</radialGradient>
<radialGradient id="paint1_radial_1_72" cx="0" cy="0" r="1" gradientUnits="userSpaceOnUse" gradientTransform="translate(32.1703 72.8399) rotate(113.031) scale(27.5812 23.554)">
<stop stop-color="#2F6756"/>
<stop offset="0.427083" stop-color="#1B0724"/>
<stop offset="0.699054" stop-color="#2F1A51"/>
<stop offset="1" stop-color="#7C2BA3"/>
</radialGradient>
<radialGradient id="paint2_radial_1_72" cx="0" cy="0" r="1" gradientUnits="userSpaceOnUse" gradientTransform="translate(31.4482 66.9001) rotate(139.769) scale(13.5145 15.8061)">
<stop stop-color="#2F6756"/>
<stop offset="0.427083" stop-color="#1B0724"/>
<stop offset="0.699054" stop-color="#2F1A51"/>
<stop offset="1" stop-color="#7C2BA3"/>
</radialGradient>
<radialGradient id="paint3_radial_1_72" cx="0" cy="0" r="1" gradientUnits="userSpaceOnUse" gradientTransform="translate(27.7282 55.1703) rotate(124.959) scale(29.0904 32.4026)">
<stop stop-color="#2F6756"/>
<stop offset="0.427083" stop-color="#1B0724"/>
<stop offset="0.699054" stop-color="#2F1A51"/>
<stop offset="1" stop-color="#7C2BA3"/>
</radialGradient>
<radialGradient id="paint4_radial_1_72" cx="0" cy="0" r="1" gradientUnits="userSpaceOnUse" gradientTransform="translate(22.957 41.7797) rotate(125.28) scale(23.3524 26.116)">
<stop stop-color="#2F6756"/>
<stop offset="0.427083" stop-color="#1B0724"/>
<stop offset="0.699054" stop-color="#2F1A51"/>
<stop offset="1" stop-color="#7C2BA3"/>
</radialGradient>
<radialGradient id="paint5_radial_1_72" cx="0" cy="0" r="1" gradientUnits="userSpaceOnUse" gradientTransform="translate(67.6065 87.6985) rotate(139.762) scale(13.7539 16.0867)">
<stop stop-color="#2F6756"/>
<stop offset="0.427083" stop-color="#1B0724"/>
<stop offset="0.699054" stop-color="#2F1A51"/>
<stop offset="1" stop-color="#7C2BA3"/>
</radialGradient>
<radialGradient id="paint6_radial_1_72" cx="0" cy="0" r="1" gradientUnits="userSpaceOnUse" gradientTransform="translate(72.4252 81.6072) rotate(128.997) scale(21.2133 24.6078)">
<stop stop-color="#2F6756"/>
<stop offset="0.427083" stop-color="#1B0724"/>
<stop offset="0.699054" stop-color="#2F1A51"/>
<stop offset="1" stop-color="#7C2BA3"/>
</radialGradient>
<radialGradient id="paint7_radial_1_72" cx="0" cy="0" r="1" gradientUnits="userSpaceOnUse" gradientTransform="translate(86.13 58.7175) rotate(117.692) scale(39.1884 38.2482)">
<stop stop-color="#2F6756"/>
<stop offset="0.427083" stop-color="#1B0724"/>
<stop offset="0.699054" stop-color="#2F1A51"/>
<stop offset="1" stop-color="#7C2BA3"/>
</radialGradient>
<radialGradient id="paint8_radial_1_72" cx="0" cy="0" r="1" gradientUnits="userSpaceOnUse" gradientTransform="translate(94.2449 43.5592) rotate(127.754) scale(20.6993 23.7675)">
<stop stop-color="#2F6756"/>
<stop offset="0.427083" stop-color="#1B0724"/>
<stop offset="0.699054" stop-color="#2F1A51"/>
<stop offset="1" stop-color="#7C2BA3"/>
</radialGradient>
<radialGradient id="paint9_radial_1_72" cx="0" cy="0" r="1" gradientUnits="userSpaceOnUse" gradientTransform="translate(92.8724 27.416) rotate(120.156) scale(30.1179 31.0297)">
<stop stop-color="#2F6756"/>
<stop offset="0.427083" stop-color="#1B0724"/>
<stop offset="0.699054" stop-color="#2F1A51"/>
<stop offset="1" stop-color="#7C2BA3"/>
</radialGradient>
<radialGradient id="paint10_radial_1_72" cx="0" cy="0" r="1" gradientUnits="userSpaceOnUse" gradientTransform="translate(92.328 10.261) rotate(122.796) scale(27.263 29.443)">
<stop stop-color="#2F6756"/>
<stop offset="0.427083" stop-color="#1B0724"/>
<stop offset="0.699054" stop-color="#2F1A51"/>
<stop offset="1" stop-color="#7C2BA3"/>
</radialGradient>
<radialGradient id="paint11_radial_1_72" cx="0" cy="0" r="1" gradientUnits="userSpaceOnUse" gradientTransform="translate(113.173 43.3537) rotate(139.732) scale(14.0094 16.3885)">
<stop stop-color="#2F6756"/>
<stop offset="0.427083" stop-color="#1B0724"/>
<stop offset="0.699054" stop-color="#2F1A51"/>
<stop offset="1" stop-color="#7C2BA3"/>
</radialGradient>
<radialGradient id="paint12_radial_1_72" cx="0" cy="0" r="1" gradientUnits="userSpaceOnUse" gradientTransform="translate(138.722 62.2489) rotate(114.377) scale(67.1702 59.8952)">
<stop stop-color="#2F6756"/>
<stop offset="0.427083" stop-color="#1B0724"/>
<stop offset="0.699054" stop-color="#2F1A51"/>
<stop offset="1" stop-color="#7C2BA3"/>
</radialGradient>
<radialGradient id="paint13_radial_1_72" cx="0" cy="0" r="1" gradientUnits="userSpaceOnUse" gradientTransform="translate(153.795 98.4394) rotate(135.117) scale(19.4318 23.0452)">
<stop stop-color="#2F6756"/>
<stop offset="0.427083" stop-color="#1B0724"/>
<stop offset="0.699054" stop-color="#2F1A51"/>
<stop offset="1" stop-color="#7C2BA3"/>
</radialGradient>
<radialGradient id="paint14_radial_1_72" cx="0" cy="0" r="1" gradientUnits="userSpaceOnUse" gradientTransform="translate(165.583 89.3761) rotate(132.802) scale(24.6915 29.1969)">
<stop stop-color="#2F6756"/>
<stop offset="0.427083" stop-color="#1B0724"/>
<stop offset="0.699054" stop-color="#2F1A51"/>
<stop offset="1" stop-color="#7C2BA3"/>
</radialGradient>
<radialGradient id="paint15_radial_1_72" cx="0" cy="0" r="1" gradientUnits="userSpaceOnUse" gradientTransform="translate(168.279 78.6758) rotate(123.273) scale(21.7846 23.7011)">
<stop stop-color="#2F6756"/>
<stop offset="0.427083" stop-color="#1B0724"/>
<stop offset="0.699054" stop-color="#2F1A51"/>
<stop offset="1" stop-color="#7C2BA3"/>
</radialGradient>
<radialGradient id="paint16_radial_1_72" cx="0" cy="0" r="1" gradientUnits="userSpaceOnUse" gradientTransform="translate(170.883 67.0203) rotate(125.201) scale(23.7438 26.5278)">
<stop stop-color="#2F6756"/>
<stop offset="0.427083" stop-color="#1B0724"/>
<stop offset="0.699054" stop-color="#2F1A51"/>
<stop offset="1" stop-color="#7C2BA3"/>
</radialGradient>
<radialGradient id="paint17_radial_1_72" cx="0" cy="0" r="1" gradientUnits="userSpaceOnUse" gradientTransform="translate(185.842 92.8101) rotate(145.166) scale(16.9805 18.8834)">
<stop stop-color="#2F6756"/>
<stop offset="0.427083" stop-color="#1B0724"/>
<stop offset="0.699054" stop-color="#2F1A51"/>
<stop offset="1" stop-color="#7C2BA3"/>
</radialGradient>
<radialGradient id="paint18_radial_1_72" cx="0" cy="0" r="1" gradientUnits="userSpaceOnUse" gradientTransform="translate(180.24 93.3405) rotate(139.766) scale(13.5184 15.8108)">
<stop stop-color="#2F6756"/>
<stop offset="0.427083" stop-color="#1B0724"/>
<stop offset="0.699054" stop-color="#2F1A51"/>
<stop offset="1" stop-color="#7C2BA3"/>
</radialGradient>
<radialGradient id="paint19_radial_1_72" cx="0" cy="0" r="1" gradientUnits="userSpaceOnUse" gradientTransform="translate(137.028 138.235) rotate(156.926) scale(83.8305 71.6953)">
<stop stop-color="#2F6756"/>
<stop offset="0.427083" stop-color="#1B0724"/>
<stop offset="0.699054" stop-color="#2F1A51"/>
<stop offset="1" stop-color="#7C2BA3"/>
</radialGradient>
<radialGradient id="paint20_radial_1_72" cx="0" cy="0" r="1" gradientUnits="userSpaceOnUse" gradientTransform="translate(35.9933 111.311) rotate(109.524) scale(34.3852 25.6898)">
<stop stop-color="#2F6756"/>
<stop offset="0.427083" stop-color="#1B0724"/>
<stop offset="0.699054" stop-color="#2F1A51"/>
<stop offset="1" stop-color="#7C2BA3"/>
</radialGradient>
<radialGradient id="paint21_radial_1_72" cx="0" cy="0" r="1" gradientUnits="userSpaceOnUse" gradientTransform="translate(34.1093 102.897) rotate(139.62) scale(13.4368 15.7287)">
<stop stop-color="#2F6756"/>
<stop offset="0.427083" stop-color="#1B0724"/>
<stop offset="0.699054" stop-color="#2F1A51"/>
<stop offset="1" stop-color="#7C2BA3"/>
</radialGradient>
<radialGradient id="paint22_radial_1_72" cx="0" cy="0" r="1" gradientUnits="userSpaceOnUse" gradientTransform="translate(108.688 185.166) rotate(148.08) scale(23.6418 25.1661)">
<stop stop-color="#2F6756"/>
<stop offset="0.427083" stop-color="#1B0724"/>
<stop offset="0.699054" stop-color="#2F1A51"/>
<stop offset="1" stop-color="#7C2BA3"/>
</radialGradient>
<radialGradient id="paint23_radial_1_72" cx="0" cy="0" r="1" gradientUnits="userSpaceOnUse" gradientTransform="translate(81.0908 171.186) rotate(143.023) scale(41.5931 47.4059)">
<stop stop-color="#2F6756"/>
<stop offset="0.427083" stop-color="#1B0724"/>
<stop offset="0.699054" stop-color="#2F1A51"/>
<stop offset="1" stop-color="#7C2BA3"/>
</radialGradient>
<radialGradient id="paint24_radial_1_72" cx="0" cy="0" r="1" gradientUnits="userSpaceOnUse" gradientTransform="translate(44.5093 151.367) rotate(117.529) scale(30.2493 29.4075)">
<stop stop-color="#2F6756"/>
<stop offset="0.427083" stop-color="#1B0724"/>
<stop offset="0.699054" stop-color="#2F1A51"/>
<stop offset="1" stop-color="#7C2BA3"/>
</radialGradient>
<radialGradient id="paint25_radial_1_72" cx="0" cy="0" r="1" gradientUnits="userSpaceOnUse" gradientTransform="translate(135.881 153.426) rotate(156.462) scale(81.6942 70.9465)">
<stop stop-color="#2F6756"/>
<stop offset="0.427083" stop-color="#1B0724"/>
<stop offset="0.699054" stop-color="#2F1A51"/>
<stop offset="1" stop-color="#7C2BA3"/>
</radialGradient>
<radialGradient id="paint26_radial_1_72" cx="0" cy="0" r="1" gradientUnits="userSpaceOnUse" gradientTransform="translate(162.797 190.458) rotate(138.606) scale(15.6966 18.4682)">
<stop stop-color="#2F6756"/>
<stop offset="0.427083" stop-color="#1B0724"/>
<stop offset="0.699054" stop-color="#2F1A51"/>
<stop offset="1" stop-color="#7C2BA3"/>
</radialGradient>
<radialGradient id="paint27_radial_1_72" cx="0" cy="0" r="1" gradientUnits="userSpaceOnUse" gradientTransform="translate(147.918 189.901) rotate(157.195) scale(35.5006 30.0857)">
<stop stop-color="#2F6756"/>
<stop offset="0.427083" stop-color="#1B0724"/>
<stop offset="0.699054" stop-color="#2F1A51"/>
<stop offset="1" stop-color="#7C2BA3"/>
</radialGradient>
<radialGradient id="paint28_radial_1_72" cx="0" cy="0" r="1" gradientUnits="userSpaceOnUse" gradientTransform="translate(169.747 177.578) rotate(120.19) scale(28.4267 29.3075)">
<stop stop-color="#2F6756"/>
<stop offset="0.427083" stop-color="#1B0724"/>
<stop offset="0.699054" stop-color="#2F1A51"/>
<stop offset="1" stop-color="#7C2BA3"/>
</radialGradient>
<radialGradient id="paint29_radial_1_72" cx="0" cy="0" r="1" gradientUnits="userSpaceOnUse" gradientTransform="translate(178.693 113.32) rotate(101.381) scale(66.3409 30.4413)">
<stop stop-color="#2F6756"/>
<stop offset="0.427083" stop-color="#1B0724"/>
<stop offset="0.699054" stop-color="#2F1A51"/>
<stop offset="1" stop-color="#7C2BA3"/>
</radialGradient>
<radialGradient id="paint30_radial_1_72" cx="0" cy="0" r="1" gradientUnits="userSpaceOnUse" gradientTransform="translate(188.982 71.6385) rotate(120.563) scale(41.3296 42.9215)">
<stop stop-color="#2F6756"/>
<stop offset="0.427083" stop-color="#1B0724"/>
<stop offset="0.699054" stop-color="#2F1A51"/>
<stop offset="1" stop-color="#7C2BA3"/>
</radialGradient>
<radialGradient id="paint31_radial_1_72" cx="0" cy="0" r="1" gradientUnits="userSpaceOnUse" gradientTransform="translate(115.177 16.1858) rotate(118.59) scale(49.6904 49.5241)">
<stop stop-color="#2F6756"/>
<stop offset="0.427083" stop-color="#1B0724"/>
<stop offset="0.699054" stop-color="#2F1A51"/>
<stop offset="1" stop-color="#7C2BA3"/>
</radialGradient>
<radialGradient id="paint32_radial_1_72" cx="0" cy="0" r="1" gradientUnits="userSpaceOnUse" gradientTransform="translate(60.2153 71.2656) rotate(126.759) scale(38.0187 43.2357)">
<stop stop-color="#2F6756"/>
<stop offset="0.427083" stop-color="#1B0724"/>
<stop offset="0.699054" stop-color="#2F1A51"/>
<stop offset="1" stop-color="#7C2BA3"/>
</radialGradient>
<radialGradient id="paint33_radial_1_72" cx="0" cy="0" r="1" gradientUnits="userSpaceOnUse" gradientTransform="translate(39.294 45.418) rotate(121.802) scale(37.7904 40.1451)">
<stop stop-color="#2F6756"/>
<stop offset="0.427083" stop-color="#1B0724"/>
<stop offset="0.699054" stop-color="#2F1A51"/>
<stop offset="1" stop-color="#7C2BA3"/>
</radialGradient>
<radialGradient id="paint34_radial_1_72" cx="0" cy="0" r="1" gradientUnits="userSpaceOnUse" gradientTransform="translate(159.718 75.9151) rotate(122.289) scale(222.915 248.703)">
<stop stop-color="#BBC6C0"/>
<stop offset="0.497259" stop-color="#535E5D"/>
<stop offset="1" stop-color="#2C242D"/>
</radialGradient>
<clipPath id="clip0_1_72">
<rect width="198" height="199.85" fill="white" transform="matrix(-1 0 0 1 200.726 0.704102)"/>
</clipPath>
</defs>
</svg>
