<svg width="137" height="191" viewBox="0 0 137 191" fill="none" xmlns="http://www.w3.org/2000/svg">
<g opacity="0.05">
<path d="M70.9497 56.407C71.0107 56.4966 71.0412 56.5861 71.1022 56.6756C71.8035 57.9887 72.4134 59.1526 72.8708 60.0778C73.3282 61.0029 73.6636 61.6893 73.8161 62.0773C94.6429 106.693 30.8207 173.632 30.5767 173.841C29.8144 174.497 29.418 175.393 29.418 176.318C29.418 177.094 29.6924 177.87 30.2413 178.496C30.3023 178.556 30.3328 178.616 30.3938 178.675L43.9632 191.956C45.2744 193.239 47.3785 193.358 48.8421 192.164C62.6556 179.899 74.304 165.514 83.3604 149.578C91.2277 135.701 95.7102 123.107 97.5093 114.542V114.512C99.5523 107.29 99.2169 100.426 105.803 112.692C106.657 114.363 107.481 116.034 108.243 117.705L108.273 117.735L108.365 117.944C109.31 120.003 110.194 122.092 111.018 124.211C111.14 124.51 111.231 124.778 111.353 125.047C111.628 125.733 111.872 126.42 112.116 127.106C112.116 127.106 112.512 128.18 112.878 129.314C113.244 130.448 114.098 133.254 115.134 137.103C115.348 137.879 116.171 138.357 116.964 138.148C117.36 138.029 117.726 137.76 117.909 137.402C120.745 132.03 124.191 125.823 128.216 118.093C128.612 117.377 128.673 116.541 128.368 115.765C126.844 111.946 124.526 106.902 119.769 98.6055C113.701 88.0111 106.718 77.9539 100.132 67.658C94.8259 59.3615 89.703 50.9755 84.8241 42.4105C83.8788 40.7393 82.9335 39.0382 81.9882 37.3371C81.5918 36.6209 80.677 36.3523 79.9757 36.7402C79.7012 36.8596 79.4878 37.0984 79.3658 37.367L70.8277 53.5719C70.4313 54.497 70.4618 55.5416 70.9497 56.407Z" fill="white"/>
<path d="M136.328 145.368C135.931 142.145 135.352 138.952 134.65 135.759C134.59 135.43 133.522 131.223 132.699 127.97C132.516 127.164 131.693 126.686 130.9 126.895C130.473 127.015 130.138 127.283 129.924 127.641L118.764 148.83C118.55 149.218 118.459 149.666 118.428 150.084C117.94 166.766 112.878 179.867 109.646 185.508C103.06 196.967 93.5762 205.413 81.2569 210.486C64.2112 217.53 47.0131 217.41 30.2113 209.77C28.5952 209.024 27.04 208.248 25.5458 207.413C17.9225 203.235 11.3665 197.355 6.39612 190.312C2.61496 184.941 -0.312387 178.853 -2.44691 172.108C-5.83166 161.364 -5.28278 150.591 -2.84332 139.728C0.907343 123.016 8.83558 108.213 18.2885 94.0078C30.6687 75.4453 42.5915 56.6141 52.8373 36.8578C53.5081 35.5745 54.179 34.2614 54.8193 32.9483L54.8803 32.7991C55.0328 32.5007 55.2157 32.2022 55.3987 31.9038C56.1 30.919 56.8014 30.8891 57.4722 31.8739C57.9296 32.62 58.3565 33.396 58.7529 34.2017C59.0884 34.8583 61.7108 40.2002 65.004 46.9448C65.37 47.6909 66.2543 47.9894 66.9861 47.6611C67.291 47.5417 67.535 47.303 67.6874 47.0045L76.6524 29.964C77.0793 29.1284 77.0793 28.1435 76.6524 27.2781C74.9753 24.0251 73.3287 20.7125 71.7125 17.3999C69.9744 13.7292 68.3583 9.84954 66.4677 6.14896C64.4857 2.26932 61.2229 0.0609145 56.6794 0.00122775C52.1664 -0.058459 48.9036 2.06042 46.7386 5.85053C46.3422 6.56677 45.9763 7.3427 45.6104 8.08878C43.1709 13.0129 40.8229 17.9669 38.414 22.8911C36.6149 26.5618 34.7853 30.2027 32.8337 33.7541C32.3153 34.6792 31.8274 35.6044 31.2786 36.5295C23.8687 49.5711 15.91 62.3142 7.92078 75.0275C0.907341 86.2486 -6.74645 97.0817 -12.3572 109.138C-17.846 120.897 -21.7796 133.103 -23.3652 145.905C-24.8289 157.813 -23.8226 169.571 -19.7061 180.971C-17.5715 186.94 -14.7662 192.67 -11.3509 198.042C-8.17963 202.996 -4.42897 207.562 -0.129429 211.621C1.42573 213.083 3.01137 214.486 4.62751 215.828C19.3252 227.885 36.7673 234.122 59.0884 234.122C64.3942 234.481 72.2919 233.197 80.0067 230.869C97.9367 225.498 112.329 215.261 122.911 200.071C131.205 188.164 135.992 175.003 136.876 160.588C137.151 155.515 136.968 150.442 136.328 145.368Z" fill="white"/>
</g>
</svg>
