<svg width="200" height="220" viewBox="0 0 200 220" fill="none" xmlns="http://www.w3.org/2000/svg">
<g filter="url(#filter0_f_1_108)">
<ellipse cx="100.5" cy="203" rx="69.5" ry="8" fill="#0C0C17"/>
</g>
<path d="M176.119 84.492C173.024 84.146 170.094 84.5153 167.476 85.4679L191.357 76.7761C193.975 75.8236 196.905 75.4542 200 75.8003L176.119 84.492Z" fill="url(#paint0_radial_1_108)"/>
<path fill-rule="evenodd" clip-rule="evenodd" d="M155.966 102.435C155.966 94.3774 160.665 87.9471 167.477 85.4676L191.358 76.7758C184.546 79.2553 179.847 85.6858 179.847 93.7435L179.847 93.7436C179.847 104.898 188.851 115.015 200 116.345L176.119 125.037C164.97 123.707 155.966 113.59 155.966 102.435L155.966 102.435Z" fill="url(#paint1_radial_1_108)"/>
<path d="M159.2 180.554C155.196 182.011 150.697 182.535 145.947 181.915L169.827 173.223C174.577 173.844 179.077 173.319 183.081 171.862L159.2 180.554Z" fill="url(#paint2_radial_1_108)"/>
<path d="M145.946 181.915L28.5512 166.584L52.432 157.892L169.826 173.224L145.946 181.915Z" fill="url(#paint3_radial_1_108)"/>
<path d="M28.5516 166.584C12.7449 164.52 0.000578299 149.684 0.000578299 133.438L23.8815 124.746C23.8815 140.993 36.6254 155.828 52.4324 157.892L28.5516 166.584Z" fill="url(#paint4_radial_1_108)"/>
<path d="M0.000957797 133.438V104.021L23.8818 95.3291V124.746L0.000957797 133.438Z" fill="url(#paint5_radial_1_108)"/>
<path d="M-0.000436343 104.02C2.86152 104.362 5.57738 104.028 8.01367 103.142L31.8945 94.4497C29.4582 95.3366 26.742 95.67 23.8804 95.3286L-0.000436343 104.02Z" fill="url(#paint6_radial_1_108)"/>
<path d="M8.01446 103.142C14.497 100.782 18.9998 94.5062 18.9998 86.6052L42.8806 77.9134C42.8806 85.8144 38.3778 92.0906 31.8953 94.4498L8.01446 103.142Z" fill="url(#paint7_radial_1_108)"/>
<path d="M18.9998 86.6051C18.9998 75.7346 10.4766 65.9691 0.000355281 64.7976L23.8812 56.1058C34.357 57.2774 42.8806 67.0428 42.8806 77.9134L18.9998 86.6051Z" fill="url(#paint8_radial_1_108)"/>
<path d="M0.000957797 64.7979V35.3807L23.8818 26.689V56.1061L0.000957797 64.7979Z" fill="url(#paint9_radial_1_108)"/>
<path d="M0.000150331 35.3807C0.000150331 23.4403 6.88378 13.8535 16.8081 10.2414L40.6885 1.54967C30.7646 5.16174 23.881 14.7485 23.881 26.6889L0.000150331 35.3807Z" fill="url(#paint10_radial_1_108)"/>
<path fill-rule="evenodd" clip-rule="evenodd" d="M16.8087 10.2412C20.3877 8.93875 24.3624 8.41311 28.5518 8.83455L28.5521 8.83447L145.946 20.6392L145.947 20.6394L145.947 20.6393C162.569 22.3115 176.119 37.2886 176.119 54.0827V84.4918L200 75.8V45.3909C200 28.5966 186.449 13.6192 169.826 11.9475M169.826 11.9475L52.433 0.142273L52.4326 0.142358C48.2428 -0.278655 44.2686 0.246973 40.6891 1.5494L16.8087 10.2412M176.119 155.446V125.037L200 116.346V146.754V146.755C200 158.749 193.087 168.219 183.08 171.861L159.199 180.553C169.207 176.911 176.119 167.441 176.119 155.447V155.446Z" fill="url(#paint11_radial_1_108)"/>
<path d="M130.985 94.5222V74.4191L154.866 65.7269V85.83L130.985 94.5222Z" fill="url(#paint12_radial_1_108)"/>
<path d="M130.985 74.4195L116.107 62.7459L139.988 54.0541L154.866 65.7273L130.985 74.4195Z" fill="url(#paint13_radial_1_108)"/>
<path d="M116.108 62.7462L57.4163 56.3484L81.2971 47.6562L139.988 54.0545L116.108 62.7462Z" fill="url(#paint14_radial_1_108)"/>
<path d="M57.4162 56.3481L42.9437 64.6566L66.8246 55.9648L81.2971 47.6559L57.4162 56.3481Z" fill="url(#paint15_radial_1_108)"/>
<path d="M42.9443 64.6566V84.4294L66.8252 75.7376V55.9648L42.9443 64.6566Z" fill="url(#paint16_radial_1_108)"/>
<path d="M42.9439 84.4291L86.6006 134.291L110.481 125.599L66.8248 75.7373L42.9439 84.4291Z" fill="url(#paint17_radial_1_108)"/>
<path d="M86.6003 134.292L130.985 94.523L154.866 85.8308L110.481 125.6L86.6003 134.292Z" fill="url(#paint18_radial_1_108)"/>
<path fill-rule="evenodd" clip-rule="evenodd" d="M145.946 20.6394C162.568 22.311 176.119 37.2883 176.119 54.0828V84.4919C164.97 83.2452 155.966 91.2808 155.966 102.435C155.966 113.59 164.97 123.707 176.119 125.037V155.447C176.119 172.24 162.568 184.086 145.946 181.915L28.5516 166.584C12.7448 164.519 0.000495229 149.684 0.000495229 133.438V104.02C10.4765 105.271 18.9999 97.4754 18.9999 86.6049C18.9999 75.7344 10.4765 65.969 0.000495229 64.7975V35.3803C0.000495229 19.1336 12.7448 7.24463 28.5516 8.83417L145.946 20.6394ZM130.986 94.5223V74.4191L116.108 62.7456L57.4165 56.3477L42.9439 64.6565V84.4291L86.6005 134.291L130.986 94.5223Z" fill="url(#paint19_radial_1_108)"/>
<defs>
<filter id="filter0_f_1_108" x="22" y="186" width="157" height="34" filterUnits="userSpaceOnUse" color-interpolation-filters="sRGB">
<feFlood flood-opacity="0" result="BackgroundImageFix"/>
<feBlend mode="normal" in="SourceGraphic" in2="BackgroundImageFix" result="shape"/>
<feGaussianBlur stdDeviation="4.5" result="effect1_foregroundBlur_1_108"/>
</filter>
<radialGradient id="paint0_radial_1_108" cx="0" cy="0" r="1" gradientUnits="userSpaceOnUse" gradientTransform="translate(191.172 78.7513) rotate(151.225) scale(18.0227 18.0369)">
<stop stop-color="#2F6756"/>
<stop offset="0.427083" stop-color="#1B0724"/>
<stop offset="0.699054" stop-color="#2F1A51"/>
<stop offset="1" stop-color="#7C2BA3"/>
</radialGradient>
<radialGradient id="paint1_radial_1_108" cx="0" cy="0" r="1" gradientUnits="userSpaceOnUse" gradientTransform="translate(188.048 91.9437) rotate(116.581) scale(47.798 45.3683)">
<stop stop-color="#2F6756"/>
<stop offset="0.427083" stop-color="#1B0724"/>
<stop offset="0.699054" stop-color="#2F1A51"/>
<stop offset="1" stop-color="#7C2BA3"/>
</radialGradient>
<radialGradient id="paint2_radial_1_108" cx="0" cy="0" r="1" gradientUnits="userSpaceOnUse" gradientTransform="translate(173.002 175.102) rotate(153.148) scale(20.2164 19.3237)">
<stop stop-color="#2F6756"/>
<stop offset="0.427083" stop-color="#1B0724"/>
<stop offset="0.699054" stop-color="#2F1A51"/>
<stop offset="1" stop-color="#7C2BA3"/>
</radialGradient>
<radialGradient id="paint3_radial_1_108" cx="0" cy="0" r="1" gradientUnits="userSpaceOnUse" gradientTransform="translate(131.48 165.442) rotate(162.772) scale(71.8425 48.2046)">
<stop stop-color="#2F6756"/>
<stop offset="0.427083" stop-color="#1B0724"/>
<stop offset="0.699054" stop-color="#2F1A51"/>
<stop offset="1" stop-color="#7C2BA3"/>
</radialGradient>
<radialGradient id="paint4_radial_1_108" cx="0" cy="0" r="1" gradientUnits="userSpaceOnUse" gradientTransform="translate(38.2009 137.895) rotate(124.499) scale(44.9638 49.7824)">
<stop stop-color="#2F6756"/>
<stop offset="0.427083" stop-color="#1B0724"/>
<stop offset="0.699054" stop-color="#2F1A51"/>
<stop offset="1" stop-color="#7C2BA3"/>
</radialGradient>
<radialGradient id="paint5_radial_1_108" cx="0" cy="0" r="1" gradientUnits="userSpaceOnUse" gradientTransform="translate(17.3999 107.306) rotate(108.965) scale(35.6914 26.0191)">
<stop stop-color="#2F6756"/>
<stop offset="0.427083" stop-color="#1B0724"/>
<stop offset="0.699054" stop-color="#2F1A51"/>
<stop offset="1" stop-color="#7C2BA3"/>
</radialGradient>
<radialGradient id="paint6_radial_1_108" cx="0" cy="0" r="1" gradientUnits="userSpaceOnUse" gradientTransform="translate(23.2373 97.499) rotate(150.982) scale(17.7157 17.8245)">
<stop stop-color="#2F6756"/>
<stop offset="0.427083" stop-color="#1B0724"/>
<stop offset="0.699054" stop-color="#2F1A51"/>
<stop offset="1" stop-color="#7C2BA3"/>
</radialGradient>
<radialGradient id="paint7_radial_1_108" cx="0" cy="0" r="1" gradientUnits="userSpaceOnUse" gradientTransform="translate(33.417 85.8424) rotate(127.158) scale(28.0376 32.0133)">
<stop stop-color="#2F6756"/>
<stop offset="0.427083" stop-color="#1B0724"/>
<stop offset="0.699054" stop-color="#2F1A51"/>
<stop offset="1" stop-color="#7C2BA3"/>
</radialGradient>
<radialGradient id="paint8_radial_1_108" cx="0" cy="0" r="1" gradientUnits="userSpaceOnUse" gradientTransform="translate(31.2417 65.6913) rotate(127.632) scale(34.1105 39.1231)">
<stop stop-color="#2F6756"/>
<stop offset="0.427083" stop-color="#1B0724"/>
<stop offset="0.699054" stop-color="#2F1A51"/>
<stop offset="1" stop-color="#7C2BA3"/>
</radialGradient>
<radialGradient id="paint9_radial_1_108" cx="0" cy="0" r="1" gradientUnits="userSpaceOnUse" gradientTransform="translate(17.3999 38.6661) rotate(108.965) scale(35.691 26.0191)">
<stop stop-color="#2F6756"/>
<stop offset="0.427083" stop-color="#1B0724"/>
<stop offset="0.699054" stop-color="#2F1A51"/>
<stop offset="1" stop-color="#7C2BA3"/>
</radialGradient>
<radialGradient id="paint10_radial_1_108" cx="0" cy="0" r="1" gradientUnits="userSpaceOnUse" gradientTransform="translate(29.6445 12.1823) rotate(123.407) scale(35.895 39.1314)">
<stop stop-color="#2F6756"/>
<stop offset="0.427083" stop-color="#1B0724"/>
<stop offset="0.699054" stop-color="#2F1A51"/>
<stop offset="1" stop-color="#7C2BA3"/>
</radialGradient>
<radialGradient id="paint11_radial_1_108" cx="0" cy="0" r="1" gradientUnits="userSpaceOnUse" gradientTransform="translate(150.277 56.7454) rotate(119.092) scale(183.006 184.425)">
<stop stop-color="#2F6756"/>
<stop offset="0.427083" stop-color="#1B0724"/>
<stop offset="0.699054" stop-color="#2F1A51"/>
<stop offset="1" stop-color="#7C2BA3"/>
</radialGradient>
<radialGradient id="paint12_radial_1_108" cx="0" cy="0" r="1" gradientUnits="userSpaceOnUse" gradientTransform="translate(148.384 74.7768) rotate(114.456) scale(28.0182 25.0441)">
<stop stop-color="#2F6756"/>
<stop offset="0.427083" stop-color="#1B0724"/>
<stop offset="0.699054" stop-color="#2F1A51"/>
<stop offset="1" stop-color="#7C2BA3"/>
</radialGradient>
<radialGradient id="paint13_radial_1_108" cx="0" cy="0" r="1" gradientUnits="userSpaceOnUse" gradientTransform="translate(144.346 60.4547) rotate(136.224) scale(26.0724 30.8926)">
<stop stop-color="#2F6756"/>
<stop offset="0.427083" stop-color="#1B0724"/>
<stop offset="0.699054" stop-color="#2F1A51"/>
<stop offset="1" stop-color="#7C2BA3"/>
</radialGradient>
<radialGradient id="paint14_radial_1_108" cx="0" cy="0" r="1" gradientUnits="userSpaceOnUse" gradientTransform="translate(117.576 52.3988) rotate(161.569) scale(42.2748 30.0756)">
<stop stop-color="#2F6756"/>
<stop offset="0.427083" stop-color="#1B0724"/>
<stop offset="0.699054" stop-color="#2F1A51"/>
<stop offset="1" stop-color="#7C2BA3"/>
</radialGradient>
<radialGradient id="paint15_radial_1_108" cx="0" cy="0" r="1" gradientUnits="userSpaceOnUse" gradientTransform="translate(70.8869 52.999) rotate(141.051) scale(23.9534 27.7764)">
<stop stop-color="#2F6756"/>
<stop offset="0.427083" stop-color="#1B0724"/>
<stop offset="0.699054" stop-color="#2F1A51"/>
<stop offset="1" stop-color="#7C2BA3"/>
</radialGradient>
<radialGradient id="paint16_radial_1_108" cx="0" cy="0" r="1" gradientUnits="userSpaceOnUse" gradientTransform="translate(60.3432 64.9109) rotate(114.706) scale(27.7518 24.9941)">
<stop stop-color="#2F6756"/>
<stop offset="0.427083" stop-color="#1B0724"/>
<stop offset="0.699054" stop-color="#2F1A51"/>
<stop offset="1" stop-color="#7C2BA3"/>
</radialGradient>
<radialGradient id="paint17_radial_1_108" cx="0" cy="0" r="1" gradientUnits="userSpaceOnUse" gradientTransform="translate(92.1498 94.14) rotate(122.314) scale(61.3659 65.7579)">
<stop stop-color="#2F6756"/>
<stop offset="0.427083" stop-color="#1B0724"/>
<stop offset="0.699054" stop-color="#2F1A51"/>
<stop offset="1" stop-color="#7C2BA3"/>
</radialGradient>
<radialGradient id="paint18_radial_1_108" cx="0" cy="0" r="1" gradientUnits="userSpaceOnUse" gradientTransform="translate(136.337 101.061) rotate(127.686) scale(54.2383 62.2394)">
<stop stop-color="#2F6756"/>
<stop offset="0.427083" stop-color="#1B0724"/>
<stop offset="0.699054" stop-color="#2F1A51"/>
<stop offset="1" stop-color="#7C2BA3"/>
</radialGradient>
<radialGradient id="paint19_radial_1_108" cx="0" cy="0" r="1" gradientUnits="userSpaceOnUse" gradientTransform="translate(156.275 68.3837) rotate(124.567) scale(208.921 241.152)">
<stop stop-color="#BBC6C0"/>
<stop offset="0.497259" stop-color="#535E5D"/>
<stop offset="1" stop-color="#2C242D"/>
</radialGradient>
</defs>
</svg>
