<svg width="75" height="53" viewBox="0 0 75 53" fill="none" xmlns="http://www.w3.org/2000/svg">
<g opacity="0.4">
<path d="M9.51508 34.3723C10.6529 34.245 11.73 34.3808 12.6925 34.731L3.91279 31.5355C2.95045 31.1853 1.87334 31.0495 0.735352 31.1767L9.51508 34.3723Z" fill="url(#paint0_radial_11707_45286)"/>
<path fill-rule="evenodd" clip-rule="evenodd" d="M16.9247 40.9692C16.9247 38.0069 15.1971 35.6427 12.6929 34.7311L3.91314 31.5356C6.41757 32.4472 8.14495 34.8113 8.14495 37.7737L16.9247 40.9692ZM9.51508 49.2788C13.6139 48.7897 16.9243 45.0702 16.9243 40.9692L8.1446 37.7737C8.1446 41.8746 4.83433 45.5941 0.735352 46.0833L9.51508 49.2788Z" fill="url(#paint1_radial_11707_45286)"/>
<path d="M63.768 64.5535C69.5793 63.7945 74.2647 58.3403 74.2647 52.3675L65.485 49.1719C65.485 55.1448 60.7997 60.599 54.9883 61.358L63.768 64.5535Z" fill="url(#paint2_radial_11707_45286)"/>
<path d="M74.2641 52.3672V41.552L65.4844 38.3564V49.1716L74.2641 52.3672Z" fill="url(#paint3_radial_11707_45286)"/>
<path d="M74.2652 41.5518C73.213 41.6775 72.2145 41.5548 71.3188 41.2289L62.5391 38.0332C63.4348 38.3593 64.4334 38.4818 65.4854 38.3563L74.2652 41.5518Z" fill="url(#paint4_radial_11707_45286)"/>
<path d="M71.3184 41.2288C68.9352 40.3613 67.2797 38.0539 67.2797 35.1491L58.5 31.9536C58.5 34.8584 60.1554 37.1658 62.5387 38.0332L71.3184 41.2288Z" fill="url(#paint5_radial_11707_45286)"/>
<path d="M67.2797 35.1495C67.2797 31.153 70.4133 27.5627 74.2648 27.132L65.4851 23.9365C61.6337 24.3672 58.5 27.9575 58.5 31.954L67.2797 35.1495Z" fill="url(#paint6_radial_11707_45286)"/>
<path d="M74.2641 27.1317V16.3166L65.4844 13.1211V23.9362L74.2641 27.1317Z" fill="url(#paint7_radial_11707_45286)"/>
<path d="M74.2646 16.3168C74.2646 11.9269 71.7339 8.40238 68.0852 7.07441L59.3057 3.87891C62.9542 5.20688 65.4849 8.73142 65.4849 13.1213L74.2646 16.3168Z" fill="url(#paint8_radial_11707_45286)"/>
<path fill-rule="evenodd" clip-rule="evenodd" d="M68.0851 7.07471C66.7693 6.59587 65.308 6.40263 63.7678 6.55757L54.9881 3.36191C56.5285 3.20712 57.9896 3.40037 59.3055 3.8792L68.0851 7.07471ZM63.7674 6.5577L20.6076 10.8977L20.6067 10.8974C14.4963 11.5128 9.51526 17.0188 9.51526 23.1926L9.5152 23.1926V34.3724L0.735466 31.1769V19.9971L0.735524 19.9971C0.735524 13.8227 5.71759 8.31634 11.8288 7.70172L11.8297 7.70206L54.9877 3.36204L63.7674 6.5577ZM9.51508 60.4587V49.2791L0.735352 46.0836V57.2632V57.2634C0.735413 61.6731 3.27688 65.1547 6.95585 66.4938L15.7356 69.6893C12.0565 68.3502 9.51515 64.8686 9.51508 60.4589V60.4587Z" fill="url(#paint9_radial_11707_45286)"/>
<path d="M26.1088 38.0602V30.6693L17.3291 27.4736V34.8645L26.1088 38.0602Z" fill="url(#paint10_radial_11707_45286)"/>
<path d="M26.1088 30.6694L31.5786 26.3776L22.799 23.1821L17.3291 27.4737L26.1088 30.6694Z" fill="url(#paint11_radial_11707_45286)"/>
<path d="M31.5784 26.3774L53.1562 24.0252L44.3765 20.8296L22.7988 23.1819L31.5784 26.3774Z" fill="url(#paint12_radial_11707_45286)"/>
<path d="M53.1557 24.0252L58.4765 27.0798L49.6967 23.8843L44.376 20.8296L53.1557 24.0252Z" fill="url(#paint13_radial_11707_45286)"/>
<path d="M58.477 27.0798V34.3492L49.6973 31.1537V23.8843L58.477 27.0798Z" fill="url(#paint14_radial_11707_45286)"/>
<path d="M58.4765 34.3493L42.4262 52.681L33.6465 49.4855L49.6967 31.1538L58.4765 34.3493Z" fill="url(#paint15_radial_11707_45286)"/>
<path d="M42.4269 52.6813L26.1088 38.0604L17.3291 34.8647L33.6472 49.4858L42.4269 52.6813Z" fill="url(#paint16_radial_11707_45286)"/>
<path fill-rule="evenodd" clip-rule="evenodd" d="M20.6088 10.897C14.4976 11.5115 9.51562 17.0179 9.51562 23.1923V34.3722C13.6145 33.9138 16.9249 36.8681 16.9249 40.969C16.9249 45.0699 13.6145 48.7894 9.51562 49.2786V60.4584C9.51562 66.6326 14.4976 70.9876 20.6088 70.1895L63.7685 64.5529C69.5798 63.7939 74.2652 58.3397 74.2652 52.3669V41.5517C70.4137 42.0113 67.2801 39.1455 67.2801 35.149C67.2801 31.1525 70.4137 27.5622 74.2652 27.1315V16.3164C74.2652 10.3433 69.5798 5.9724 63.7685 6.55679L20.6088 10.897ZM26.1089 38.0598V30.6689L31.5787 26.3772L53.1564 24.025L58.4772 27.0797V34.3491L42.427 52.6808L26.1089 38.0598Z" fill="url(#paint17_radial_11707_45286)"/>
</g>
<defs>
<radialGradient id="paint0_radial_11707_45286" cx="0" cy="0" r="1" gradientUnits="userSpaceOnUse" gradientTransform="translate(3.98087 32.2617) rotate(28.7753) scale(6.62598 6.63121)">
<stop stop-color="#2F6756"/>
<stop offset="0.427083" stop-color="#1B0724"/>
<stop offset="0.699054" stop-color="#2F1A51"/>
<stop offset="1" stop-color="#7C2BA3"/>
</radialGradient>
<radialGradient id="paint1_radial_11707_45286" cx="0" cy="0" r="1" gradientUnits="userSpaceOnUse" gradientTransform="translate(5.1296 37.1121) rotate(63.4183) scale(17.5729 16.6798)">
<stop stop-color="#2F6756"/>
<stop offset="0.427083" stop-color="#1B0724"/>
<stop offset="0.699054" stop-color="#2F1A51"/>
<stop offset="1" stop-color="#7C2BA3"/>
</radialGradient>
<radialGradient id="paint2_radial_11707_45286" cx="0" cy="0" r="1" gradientUnits="userSpaceOnUse" gradientTransform="translate(60.2205 54.0061) rotate(55.5013) scale(16.5308 18.3024)">
<stop stop-color="#2F6756"/>
<stop offset="0.427083" stop-color="#1B0724"/>
<stop offset="0.699054" stop-color="#2F1A51"/>
<stop offset="1" stop-color="#7C2BA3"/>
</radialGradient>
<radialGradient id="paint3_radial_11707_45286" cx="0" cy="0" r="1" gradientUnits="userSpaceOnUse" gradientTransform="translate(67.8674 42.7598) rotate(71.0351) scale(13.1218 9.56585)">
<stop stop-color="#2F6756"/>
<stop offset="0.427083" stop-color="#1B0724"/>
<stop offset="0.699054" stop-color="#2F1A51"/>
<stop offset="1" stop-color="#7C2BA3"/>
</radialGradient>
<radialGradient id="paint4_radial_11707_45286" cx="0" cy="0" r="1" gradientUnits="userSpaceOnUse" gradientTransform="translate(65.7219 39.1543) rotate(29.0179) scale(6.51313 6.55313)">
<stop stop-color="#2F6756"/>
<stop offset="0.427083" stop-color="#1B0724"/>
<stop offset="0.699054" stop-color="#2F1A51"/>
<stop offset="1" stop-color="#7C2BA3"/>
</radialGradient>
<radialGradient id="paint5_radial_11707_45286" cx="0" cy="0" r="1" gradientUnits="userSpaceOnUse" gradientTransform="translate(61.9793 34.8687) rotate(52.8424) scale(10.308 11.7696)">
<stop stop-color="#2F6756"/>
<stop offset="0.427083" stop-color="#1B0724"/>
<stop offset="0.699054" stop-color="#2F1A51"/>
<stop offset="1" stop-color="#7C2BA3"/>
</radialGradient>
<radialGradient id="paint6_radial_11707_45286" cx="0" cy="0" r="1" gradientUnits="userSpaceOnUse" gradientTransform="translate(62.779 27.4606) rotate(52.3678) scale(12.5406 14.3835)">
<stop stop-color="#2F6756"/>
<stop offset="0.427083" stop-color="#1B0724"/>
<stop offset="0.699054" stop-color="#2F1A51"/>
<stop offset="1" stop-color="#7C2BA3"/>
</radialGradient>
<radialGradient id="paint7_radial_11707_45286" cx="0" cy="0" r="1" gradientUnits="userSpaceOnUse" gradientTransform="translate(67.8674 17.5244) rotate(71.0349) scale(13.1217 9.56583)">
<stop stop-color="#2F6756"/>
<stop offset="0.427083" stop-color="#1B0724"/>
<stop offset="0.699054" stop-color="#2F1A51"/>
<stop offset="1" stop-color="#7C2BA3"/>
</radialGradient>
<radialGradient id="paint8_radial_11707_45286" cx="0" cy="0" r="1" gradientUnits="userSpaceOnUse" gradientTransform="translate(63.366 7.78795) rotate(56.5935) scale(13.1967 14.3865)">
<stop stop-color="#2F6756"/>
<stop offset="0.427083" stop-color="#1B0724"/>
<stop offset="0.699054" stop-color="#2F1A51"/>
<stop offset="1" stop-color="#7C2BA3"/>
</radialGradient>
<radialGradient id="paint9_radial_11707_45286" cx="0" cy="0" r="1" gradientUnits="userSpaceOnUse" gradientTransform="translate(19.016 24.1718) rotate(60.9085) scale(67.2816 67.8032)">
<stop stop-color="#2F6756"/>
<stop offset="0.427083" stop-color="#1B0724"/>
<stop offset="0.699054" stop-color="#2F1A51"/>
<stop offset="1" stop-color="#7C2BA3"/>
</radialGradient>
<radialGradient id="paint10_radial_11707_45286" cx="0" cy="0" r="1" gradientUnits="userSpaceOnUse" gradientTransform="translate(19.7122 30.8008) rotate(65.5442) scale(10.3008 9.2074)">
<stop stop-color="#2F6756"/>
<stop offset="0.427083" stop-color="#1B0724"/>
<stop offset="0.699054" stop-color="#2F1A51"/>
<stop offset="1" stop-color="#7C2BA3"/>
</radialGradient>
<radialGradient id="paint11_radial_11707_45286" cx="0" cy="0" r="1" gradientUnits="userSpaceOnUse" gradientTransform="translate(21.1968 25.5353) rotate(43.7758) scale(9.58544 11.3576)">
<stop stop-color="#2F6756"/>
<stop offset="0.427083" stop-color="#1B0724"/>
<stop offset="0.699054" stop-color="#2F1A51"/>
<stop offset="1" stop-color="#7C2BA3"/>
</radialGradient>
<radialGradient id="paint12_radial_11707_45286" cx="0" cy="0" r="1" gradientUnits="userSpaceOnUse" gradientTransform="translate(31.0387 22.5732) rotate(18.4306) scale(15.5422 11.0572)">
<stop stop-color="#2F6756"/>
<stop offset="0.427083" stop-color="#1B0724"/>
<stop offset="0.699054" stop-color="#2F1A51"/>
<stop offset="1" stop-color="#7C2BA3"/>
</radialGradient>
<radialGradient id="paint13_radial_11707_45286" cx="0" cy="0" r="1" gradientUnits="userSpaceOnUse" gradientTransform="translate(48.2033 22.794) rotate(38.9488) scale(8.8064 10.2119)">
<stop stop-color="#2F6756"/>
<stop offset="0.427083" stop-color="#1B0724"/>
<stop offset="0.699054" stop-color="#2F1A51"/>
<stop offset="1" stop-color="#7C2BA3"/>
</radialGradient>
<radialGradient id="paint14_radial_11707_45286" cx="0" cy="0" r="1" gradientUnits="userSpaceOnUse" gradientTransform="translate(52.0803 27.1733) rotate(65.2938) scale(10.2029 9.18901)">
<stop stop-color="#2F6756"/>
<stop offset="0.427083" stop-color="#1B0724"/>
<stop offset="0.699054" stop-color="#2F1A51"/>
<stop offset="1" stop-color="#7C2BA3"/>
</radialGradient>
<radialGradient id="paint15_radial_11707_45286" cx="0" cy="0" r="1" gradientUnits="userSpaceOnUse" gradientTransform="translate(40.386 37.9195) rotate(57.6857) scale(22.561 24.1757)">
<stop stop-color="#2F6756"/>
<stop offset="0.427083" stop-color="#1B0724"/>
<stop offset="0.699054" stop-color="#2F1A51"/>
<stop offset="1" stop-color="#7C2BA3"/>
</radialGradient>
<radialGradient id="paint16_radial_11707_45286" cx="0" cy="0" r="1" gradientUnits="userSpaceOnUse" gradientTransform="translate(24.1414 40.4642) rotate(52.3139) scale(19.9405 22.8821)">
<stop stop-color="#2F6756"/>
<stop offset="0.427083" stop-color="#1B0724"/>
<stop offset="0.699054" stop-color="#2F1A51"/>
<stop offset="1" stop-color="#7C2BA3"/>
</radialGradient>
<radialGradient id="paint17_radial_11707_45286" cx="0" cy="0" r="1" gradientUnits="userSpaceOnUse" gradientTransform="translate(16.8113 28.45) rotate(55.4332) scale(76.809 88.659)">
<stop stop-color="#BBC6C0"/>
<stop offset="0.497259" stop-color="#535E5D"/>
<stop offset="1" stop-color="#2C242D"/>
</radialGradient>
</defs>
</svg>
