<svg width="75" height="53" viewBox="0 0 75 53" fill="none" xmlns="http://www.w3.org/2000/svg">
<g opacity="0.4">
<path d="M65.4849 34.3723C64.3471 34.245 63.27 34.3808 62.3075 34.731L71.0872 31.5355C72.0495 31.1853 73.1267 31.0495 74.2646 31.1767L65.4849 34.3723Z" fill="url(#paint0_radial_11707_45320)"/>
<path fill-rule="evenodd" clip-rule="evenodd" d="M58.0753 40.9692C58.0753 38.0069 59.8029 35.6427 62.3071 34.7311L71.0869 31.5356C68.5824 32.4472 66.855 34.8113 66.855 37.7737L58.0753 40.9692ZM65.4849 49.2788C61.3861 48.7897 58.0757 45.0702 58.0757 40.9692L66.8554 37.7737C66.8554 41.8746 70.1657 45.5941 74.2646 46.0833L65.4849 49.2788Z" fill="url(#paint1_radial_11707_45320)"/>
<path d="M11.232 64.5535C5.42072 63.7945 0.7353 58.3403 0.7353 52.3675L9.51504 49.1719C9.51504 55.1448 14.2003 60.599 20.0117 61.358L11.232 64.5535Z" fill="url(#paint2_radial_11707_45320)"/>
<path d="M0.73589 52.3672V41.552L9.51562 38.3564V49.1716L0.73589 52.3672Z" fill="url(#paint3_radial_11707_45320)"/>
<path d="M0.734847 41.5518C1.78704 41.6775 2.78551 41.5548 3.68121 41.2289L12.4609 38.0332C11.5652 38.3593 10.5666 38.4818 9.51458 38.3563L0.734847 41.5518Z" fill="url(#paint4_radial_11707_45320)"/>
<path d="M3.68156 41.2288C6.06483 40.3613 7.72027 38.0539 7.72027 35.1491L16.5 31.9536C16.5 34.8584 14.8446 37.1658 12.4613 38.0332L3.68156 41.2288Z" fill="url(#paint5_radial_11707_45320)"/>
<path d="M7.72027 35.1495C7.72027 31.153 4.58674 27.5627 0.735193 27.132L9.51493 23.9365C13.3663 24.3672 16.5 27.9575 16.5 31.954L7.72027 35.1495Z" fill="url(#paint6_radial_11707_45320)"/>
<path d="M0.73589 27.1317V16.3166L9.51562 13.1211V23.9362L0.73589 27.1317Z" fill="url(#paint7_radial_11707_45320)"/>
<path d="M0.735371 16.3168C0.735371 11.9269 3.26612 8.40238 6.91476 7.07441L15.6943 3.87891C12.0458 5.20688 9.51511 8.73142 9.51511 13.1213L0.735371 16.3168Z" fill="url(#paint8_radial_11707_45320)"/>
<path fill-rule="evenodd" clip-rule="evenodd" d="M6.91488 7.07471C8.23071 6.59587 9.69196 6.40263 11.2322 6.55757L20.0119 3.36191C18.4715 3.20712 17.0104 3.40037 15.6945 3.8792L6.91488 7.07471ZM11.2326 6.5577L54.3924 10.8977L54.3933 10.8974C60.5037 11.5128 65.4847 17.0188 65.4847 23.1926L65.4848 23.1926V34.3724L74.2645 31.1769V19.9971L74.2645 19.9971C74.2645 13.8227 69.2824 8.31634 63.1712 7.70172L63.1703 7.70206L20.0123 3.36204L11.2326 6.5577ZM65.4849 60.4587V49.2791L74.2646 46.0836V57.2632V57.2634C74.2646 61.6731 71.7231 65.1547 68.0442 66.4938L59.2644 69.6893C62.9435 68.3502 65.4849 64.8686 65.4849 60.4589V60.4587Z" fill="url(#paint9_radial_11707_45320)"/>
<path d="M48.8912 38.0602V30.6693L57.6709 27.4736V34.8645L48.8912 38.0602Z" fill="url(#paint10_radial_11707_45320)"/>
<path d="M48.8912 30.6694L43.4214 26.3776L52.201 23.1821L57.6709 27.4737L48.8912 30.6694Z" fill="url(#paint11_radial_11707_45320)"/>
<path d="M43.4216 26.3774L21.8438 24.0252L30.6235 20.8296L52.2012 23.1819L43.4216 26.3774Z" fill="url(#paint12_radial_11707_45320)"/>
<path d="M21.8443 24.0252L16.5235 27.0798L25.3033 23.8843L30.624 20.8296L21.8443 24.0252Z" fill="url(#paint13_radial_11707_45320)"/>
<path d="M16.523 27.0798V34.3492L25.3027 31.1537V23.8843L16.523 27.0798Z" fill="url(#paint14_radial_11707_45320)"/>
<path d="M16.5235 34.3493L32.5738 52.681L41.3535 49.4855L25.3033 31.1538L16.5235 34.3493Z" fill="url(#paint15_radial_11707_45320)"/>
<path d="M32.5731 52.6813L48.8912 38.0604L57.6709 34.8647L41.3528 49.4858L32.5731 52.6813Z" fill="url(#paint16_radial_11707_45320)"/>
<path fill-rule="evenodd" clip-rule="evenodd" d="M54.3912 10.897C60.5024 11.5115 65.4844 17.0179 65.4844 23.1923V34.3722C61.3855 33.9138 58.0751 36.8681 58.0751 40.969C58.0751 45.0699 61.3855 48.7894 65.4844 49.2786V60.4584C65.4844 66.6326 60.5024 70.9876 54.3912 70.1895L11.2315 64.5529C5.4202 63.7939 0.734802 58.3397 0.734802 52.3669V41.5517C4.58628 42.0113 7.71989 39.1455 7.71989 35.149C7.71989 31.1525 4.58628 27.5622 0.734802 27.1315V16.3164C0.734802 10.3433 5.4202 5.9724 11.2315 6.55679L54.3912 10.897ZM48.8911 38.0598V30.6689L43.4213 26.3772L21.8436 24.025L16.5228 27.0797V34.3491L32.573 52.6808L48.8911 38.0598Z" fill="url(#paint17_radial_11707_45320)"/>
</g>
<defs>
<radialGradient id="paint0_radial_11707_45320" cx="0" cy="0" r="1" gradientUnits="userSpaceOnUse" gradientTransform="translate(71.0191 32.2617) rotate(151.225) scale(6.62598 6.63121)">
<stop stop-color="#2F6756"/>
<stop offset="0.427083" stop-color="#1B0724"/>
<stop offset="0.699054" stop-color="#2F1A51"/>
<stop offset="1" stop-color="#7C2BA3"/>
</radialGradient>
<radialGradient id="paint1_radial_11707_45320" cx="0" cy="0" r="1" gradientUnits="userSpaceOnUse" gradientTransform="translate(69.8704 37.1121) rotate(116.582) scale(17.5729 16.6798)">
<stop stop-color="#2F6756"/>
<stop offset="0.427083" stop-color="#1B0724"/>
<stop offset="0.699054" stop-color="#2F1A51"/>
<stop offset="1" stop-color="#7C2BA3"/>
</radialGradient>
<radialGradient id="paint2_radial_11707_45320" cx="0" cy="0" r="1" gradientUnits="userSpaceOnUse" gradientTransform="translate(14.7795 54.0061) rotate(124.499) scale(16.5308 18.3024)">
<stop stop-color="#2F6756"/>
<stop offset="0.427083" stop-color="#1B0724"/>
<stop offset="0.699054" stop-color="#2F1A51"/>
<stop offset="1" stop-color="#7C2BA3"/>
</radialGradient>
<radialGradient id="paint3_radial_11707_45320" cx="0" cy="0" r="1" gradientUnits="userSpaceOnUse" gradientTransform="translate(7.13255 42.7598) rotate(108.965) scale(13.1218 9.56585)">
<stop stop-color="#2F6756"/>
<stop offset="0.427083" stop-color="#1B0724"/>
<stop offset="0.699054" stop-color="#2F1A51"/>
<stop offset="1" stop-color="#7C2BA3"/>
</radialGradient>
<radialGradient id="paint4_radial_11707_45320" cx="0" cy="0" r="1" gradientUnits="userSpaceOnUse" gradientTransform="translate(9.27814 39.1543) rotate(150.982) scale(6.51313 6.55313)">
<stop stop-color="#2F6756"/>
<stop offset="0.427083" stop-color="#1B0724"/>
<stop offset="0.699054" stop-color="#2F1A51"/>
<stop offset="1" stop-color="#7C2BA3"/>
</radialGradient>
<radialGradient id="paint5_radial_11707_45320" cx="0" cy="0" r="1" gradientUnits="userSpaceOnUse" gradientTransform="translate(13.0207 34.8687) rotate(127.158) scale(10.308 11.7696)">
<stop stop-color="#2F6756"/>
<stop offset="0.427083" stop-color="#1B0724"/>
<stop offset="0.699054" stop-color="#2F1A51"/>
<stop offset="1" stop-color="#7C2BA3"/>
</radialGradient>
<radialGradient id="paint6_radial_11707_45320" cx="0" cy="0" r="1" gradientUnits="userSpaceOnUse" gradientTransform="translate(12.221 27.4606) rotate(127.632) scale(12.5406 14.3835)">
<stop stop-color="#2F6756"/>
<stop offset="0.427083" stop-color="#1B0724"/>
<stop offset="0.699054" stop-color="#2F1A51"/>
<stop offset="1" stop-color="#7C2BA3"/>
</radialGradient>
<radialGradient id="paint7_radial_11707_45320" cx="0" cy="0" r="1" gradientUnits="userSpaceOnUse" gradientTransform="translate(7.13255 17.5244) rotate(108.965) scale(13.1217 9.56583)">
<stop stop-color="#2F6756"/>
<stop offset="0.427083" stop-color="#1B0724"/>
<stop offset="0.699054" stop-color="#2F1A51"/>
<stop offset="1" stop-color="#7C2BA3"/>
</radialGradient>
<radialGradient id="paint8_radial_11707_45320" cx="0" cy="0" r="1" gradientUnits="userSpaceOnUse" gradientTransform="translate(11.634 7.78795) rotate(123.407) scale(13.1967 14.3865)">
<stop stop-color="#2F6756"/>
<stop offset="0.427083" stop-color="#1B0724"/>
<stop offset="0.699054" stop-color="#2F1A51"/>
<stop offset="1" stop-color="#7C2BA3"/>
</radialGradient>
<radialGradient id="paint9_radial_11707_45320" cx="0" cy="0" r="1" gradientUnits="userSpaceOnUse" gradientTransform="translate(55.984 24.1718) rotate(119.092) scale(67.2816 67.8032)">
<stop stop-color="#2F6756"/>
<stop offset="0.427083" stop-color="#1B0724"/>
<stop offset="0.699054" stop-color="#2F1A51"/>
<stop offset="1" stop-color="#7C2BA3"/>
</radialGradient>
<radialGradient id="paint10_radial_11707_45320" cx="0" cy="0" r="1" gradientUnits="userSpaceOnUse" gradientTransform="translate(55.2878 30.8008) rotate(114.456) scale(10.3008 9.2074)">
<stop stop-color="#2F6756"/>
<stop offset="0.427083" stop-color="#1B0724"/>
<stop offset="0.699054" stop-color="#2F1A51"/>
<stop offset="1" stop-color="#7C2BA3"/>
</radialGradient>
<radialGradient id="paint11_radial_11707_45320" cx="0" cy="0" r="1" gradientUnits="userSpaceOnUse" gradientTransform="translate(53.8032 25.5353) rotate(136.224) scale(9.58544 11.3576)">
<stop stop-color="#2F6756"/>
<stop offset="0.427083" stop-color="#1B0724"/>
<stop offset="0.699054" stop-color="#2F1A51"/>
<stop offset="1" stop-color="#7C2BA3"/>
</radialGradient>
<radialGradient id="paint12_radial_11707_45320" cx="0" cy="0" r="1" gradientUnits="userSpaceOnUse" gradientTransform="translate(43.9613 22.5732) rotate(161.569) scale(15.5422 11.0572)">
<stop stop-color="#2F6756"/>
<stop offset="0.427083" stop-color="#1B0724"/>
<stop offset="0.699054" stop-color="#2F1A51"/>
<stop offset="1" stop-color="#7C2BA3"/>
</radialGradient>
<radialGradient id="paint13_radial_11707_45320" cx="0" cy="0" r="1" gradientUnits="userSpaceOnUse" gradientTransform="translate(26.7967 22.794) rotate(141.051) scale(8.8064 10.2119)">
<stop stop-color="#2F6756"/>
<stop offset="0.427083" stop-color="#1B0724"/>
<stop offset="0.699054" stop-color="#2F1A51"/>
<stop offset="1" stop-color="#7C2BA3"/>
</radialGradient>
<radialGradient id="paint14_radial_11707_45320" cx="0" cy="0" r="1" gradientUnits="userSpaceOnUse" gradientTransform="translate(22.9197 27.1733) rotate(114.706) scale(10.2029 9.18901)">
<stop stop-color="#2F6756"/>
<stop offset="0.427083" stop-color="#1B0724"/>
<stop offset="0.699054" stop-color="#2F1A51"/>
<stop offset="1" stop-color="#7C2BA3"/>
</radialGradient>
<radialGradient id="paint15_radial_11707_45320" cx="0" cy="0" r="1" gradientUnits="userSpaceOnUse" gradientTransform="translate(34.614 37.9195) rotate(122.314) scale(22.561 24.1757)">
<stop stop-color="#2F6756"/>
<stop offset="0.427083" stop-color="#1B0724"/>
<stop offset="0.699054" stop-color="#2F1A51"/>
<stop offset="1" stop-color="#7C2BA3"/>
</radialGradient>
<radialGradient id="paint16_radial_11707_45320" cx="0" cy="0" r="1" gradientUnits="userSpaceOnUse" gradientTransform="translate(50.8586 40.4642) rotate(127.686) scale(19.9405 22.8821)">
<stop stop-color="#2F6756"/>
<stop offset="0.427083" stop-color="#1B0724"/>
<stop offset="0.699054" stop-color="#2F1A51"/>
<stop offset="1" stop-color="#7C2BA3"/>
</radialGradient>
<radialGradient id="paint17_radial_11707_45320" cx="0" cy="0" r="1" gradientUnits="userSpaceOnUse" gradientTransform="translate(58.1887 28.45) rotate(124.567) scale(76.809 88.659)">
<stop stop-color="#BBC6C0"/>
<stop offset="0.497259" stop-color="#535E5D"/>
<stop offset="1" stop-color="#2C242D"/>
</radialGradient>
</defs>
</svg>
