<svg width="201" height="226" viewBox="0 0 201 226" fill="none" xmlns="http://www.w3.org/2000/svg">
<g filter="url(#filter0_f_1_126)">
<ellipse cx="101.5" cy="209" rx="69.5" ry="8" fill="#0C0C17"/>
</g>
<g clip-path="url(#clip0_1_126)">
<ellipse cx="101.729" cy="94.6531" rx="59.5129" ry="85.5497" transform="rotate(-29.1364 101.729 94.6531)" fill="url(#paint0_radial_1_126)"/>
<path d="M86.0384 187.406C100.067 189.421 113.381 187.954 125.211 183.648L151.632 174.032C139.801 178.339 126.488 179.805 112.459 177.786L86.0384 187.406Z" fill="black"/>
<path fill-rule="evenodd" clip-rule="evenodd" d="M49.7683 15.1236C60.7515 11.1264 73.0355 9.57528 86.0393 11.0139L86.04 11.0137C134.392 16.3703 174.233 60.9203 174.233 110.433C174.233 145.578 154.158 173.112 125.214 183.647L151.633 174.032C180.578 163.498 200.654 135.958 200.654 100.817C200.654 51.3043 160.812 6.75395 112.46 1.39779L112.459 1.39802C99.4554 -0.0404379 87.1722 1.51066 76.1888 5.50777L49.7683 15.1236Z" fill="url(#paint1_radial_1_126)"/>
<path d="M49.7681 15.1235C20.6363 25.7281 0.655477 53.5351 0.655477 88.3431L27.075 78.7273C27.075 43.9193 47.0568 16.1123 76.1886 5.50775L49.7681 15.1235Z" fill="black"/>
<path d="M0.65549 88.3432C0.65549 136.277 38.5432 180.579 86.0391 187.406L112.46 177.786C64.9641 170.963 27.075 126.661 27.075 78.7274L0.65549 88.3432Z" fill="black"/>
<path fill-rule="evenodd" clip-rule="evenodd" d="M86.0391 187.404C134.391 194.352 174.233 159.942 174.233 110.432C174.233 60.9219 134.391 16.3723 86.0391 11.0154C38.5433 5.75334 0.654304 40.4127 0.654304 88.3452C0.654304 136.278 38.5433 180.579 86.0391 187.404ZM89.0082 45.9254C90.1257 47.2126 90.7532 48.8543 90.7532 50.4893V56.6544C95.6894 57.2419 100.512 59.4006 104.557 62.8361C108.607 66.2765 111.673 70.8264 113.33 75.8567C113.827 77.457 113.718 79.1228 113.026 80.4951C112.334 81.8667 111.115 82.8353 109.631 83.1916C108.148 83.5482 106.521 83.2652 105.097 82.4037C103.675 81.5427 102.571 80.1731 102.021 78.5889C101.195 76.0783 99.6667 73.8059 97.6472 72.0853C95.6292 70.3661 93.2201 69.2829 90.7532 68.9848V93.6447C97.0838 94.443 103.169 97.8145 107.665 103.023C112.167 108.24 114.701 114.865 114.701 121.435C114.701 128.004 112.167 133.967 107.665 138.007C103.169 142.041 97.0838 143.821 90.7532 142.965V149.13C90.7532 150.765 90.1257 152.247 89.0082 153.25C87.8917 154.252 86.3774 154.693 84.7999 154.476C83.2233 154.259 81.7116 153.403 80.5981 152.095C79.4846 150.789 78.8597 149.139 78.8597 147.507V141.356C73.9543 140.693 69.1789 138.472 65.1877 135.003C61.2025 131.539 58.1935 126.998 56.5701 122.003C56.0836 120.416 56.1901 118.769 56.8676 117.416C57.5454 116.063 58.741 115.111 60.1965 114.767C61.6529 114.423 63.2535 114.712 64.6551 115.575C66.0568 116.439 67.1462 117.807 67.6889 119.385C68.5041 121.886 70.015 124.159 72.0138 125.89C74.014 127.623 76.4059 128.728 78.8597 129.053V104.448C72.5719 103.64 66.5555 100.281 62.1285 95.1151C57.7088 89.9576 55.229 83.4138 55.229 76.9167C55.229 70.42 57.7088 64.4901 62.1285 60.4265C66.5555 56.3564 72.5719 54.4873 78.8597 55.2368V49.0853C78.8597 47.454 79.4845 45.9628 80.5981 44.9395C81.7115 43.9158 83.2232 43.4441 84.7998 43.6284C86.3773 43.813 87.8917 44.6391 89.0082 45.9254ZM70.4807 70.1191C72.7002 68.0858 75.7137 67.1574 78.8597 67.5396V92.1448C75.7137 91.7479 72.7002 90.0737 70.4807 87.4906C68.263 84.9099 67.0182 81.6318 67.0182 78.3761C67.0182 75.1204 68.263 72.151 70.4807 70.1191ZM90.7532 130.634V105.975C93.9169 106.381 96.9544 108.071 99.1959 110.676C101.439 113.282 102.7 116.589 102.7 119.866C102.7 123.144 101.439 126.12 99.1959 128.14C96.9544 130.159 93.9169 131.055 90.7532 130.634Z" fill="url(#paint2_radial_1_126)"/>
</g>
<defs>
<filter id="filter0_f_1_126" x="23" y="192" width="157" height="34" filterUnits="userSpaceOnUse" color-interpolation-filters="sRGB">
<feFlood flood-opacity="0" result="BackgroundImageFix"/>
<feBlend mode="normal" in="SourceGraphic" in2="BackgroundImageFix" result="shape"/>
<feGaussianBlur stdDeviation="4.5" result="effect1_foregroundBlur_1_126"/>
</filter>
<radialGradient id="paint0_radial_1_126" cx="0" cy="0" r="1" gradientUnits="userSpaceOnUse" gradientTransform="translate(74.5233 62.8775) rotate(69.1188) scale(162.198 128.12)">
<stop stop-color="#2F6756"/>
<stop offset="0.427083" stop-color="#1B0724"/>
<stop offset="0.699054" stop-color="#2F1A51"/>
<stop offset="1" stop-color="#7C2BA3"/>
</radialGradient>
<radialGradient id="paint1_radial_1_126" cx="0" cy="0" r="1" gradientUnits="userSpaceOnUse" gradientTransform="translate(159.7 58.315) rotate(114.357) scale(177.704 158.36)">
<stop stop-color="#2F6756"/>
<stop offset="0.427083" stop-color="#1B0724"/>
<stop offset="0.699054" stop-color="#2F1A51"/>
<stop offset="1" stop-color="#7C2BA3"/>
</radialGradient>
<radialGradient id="paint2_radial_1_126" cx="0" cy="0" r="1" gradientUnits="userSpaceOnUse" gradientTransform="translate(154.675 71.6687) rotate(123.526) scale(211.52 240.611)">
<stop stop-color="#BBC6C0"/>
<stop offset="0.497259" stop-color="#535E5D"/>
<stop offset="1" stop-color="#2C242D"/>
</radialGradient>
<clipPath id="clip0_1_126">
<rect width="200" height="187.426" fill="white" transform="matrix(-1 0 0 1 200.654 0.871094)"/>
</clipPath>
</defs>
</svg>
