<svg width="25" height="28" viewBox="0 0 25 28" fill="none" xmlns="http://www.w3.org/2000/svg">
<path d="M11.6358 0.813587C12.1704 0.506582 12.8296 0.506582 13.3642 0.813587L23.5548 6.66516C24.0891 6.97196 24.4167 7.5378 24.4167 8.14843V19.8516C24.4167 20.4622 24.0891 21.028 23.5548 21.3348L13.3642 27.1864C12.8296 27.4934 12.1704 27.4934 11.6358 27.1864L1.44518 21.3348C0.910876 21.028 0.583333 20.4622 0.583333 19.8516V8.14843C0.583333 7.5378 0.910875 6.97196 1.44518 6.66516L11.6358 0.813587Z" fill="#10101B" stroke="url(#paint0_linear_11783_2979)" stroke-width="1.16667"/>
<path d="M13.4623 10.3721C13.4664 10.3775 13.4684 10.3829 13.4725 10.3882C13.5192 10.4667 13.5597 10.5363 13.5902 10.5916C13.6206 10.6469 13.6429 10.6879 13.6531 10.7111C15.0391 13.3784 10.7918 17.3801 10.7756 17.3926C10.7248 17.4319 10.6985 17.4854 10.6985 17.5407C10.6985 17.5871 10.7167 17.6335 10.7533 17.671C10.7573 17.6745 10.7593 17.6781 10.7634 17.6817L11.6664 18.4756C11.7537 18.5523 11.8937 18.5594 11.9911 18.4881C12.9104 17.7548 13.6856 16.8949 14.2883 15.9422C14.8118 15.1125 15.1101 14.3596 15.2298 13.8476V13.8458C15.3658 13.4141 15.3435 13.0037 15.7818 13.737C15.8386 13.8369 15.8934 13.9368 15.9441 14.0367L15.9462 14.0385L15.9523 14.051C16.0152 14.1741 16.074 14.299 16.1288 14.4257C16.1369 14.4435 16.143 14.4596 16.1511 14.4756C16.1694 14.5166 16.1856 14.5577 16.2019 14.5987C16.2019 14.5987 16.2282 14.6629 16.2526 14.7307C16.2769 14.7985 16.3338 14.9662 16.4028 15.1964C16.417 15.2428 16.4717 15.2713 16.5245 15.2588C16.5509 15.2517 16.5752 15.2356 16.5874 15.2142C16.7761 14.8931 17.0054 14.522 17.2733 14.0599C17.2997 14.0171 17.3038 13.9671 17.2835 13.9208C17.182 13.6924 17.0278 13.3909 16.7112 12.8949C16.3074 12.2615 15.8427 11.6603 15.4044 11.0448C15.0513 10.5488 14.7103 10.0474 14.3857 9.5354C14.3227 9.43549 14.2598 9.33379 14.1969 9.2321C14.1706 9.18928 14.1097 9.17322 14.063 9.19642C14.0447 9.20355 14.0305 9.21783 14.0224 9.23388L13.4542 10.2027C13.4278 10.258 13.4299 10.3204 13.4623 10.3721Z" fill="url(#paint1_linear_11783_2979)"/>
<path d="M17.8131 15.6905C17.7867 15.4978 17.7482 15.3069 17.7015 15.116C17.6974 15.0964 17.6264 14.8448 17.5716 14.6504C17.5594 14.6022 17.5046 14.5736 17.4519 14.5861C17.4235 14.5933 17.4012 14.6093 17.3869 14.6307L16.6442 15.8975C16.63 15.9206 16.6239 15.9474 16.6219 15.9724C16.5894 16.9697 16.2526 17.7529 16.0375 18.0901C15.5992 18.7752 14.9681 19.2801 14.1482 19.5834C13.0139 20.0045 11.8694 19.9973 10.7512 19.5406C10.6437 19.496 10.5402 19.4496 10.4407 19.3997C9.93343 19.1499 9.49714 18.7984 9.16637 18.3774C8.91474 18.0562 8.71993 17.6923 8.57788 17.2891C8.35263 16.6468 8.38916 16.0027 8.5515 15.3533C8.8011 14.3542 9.32871 13.4693 9.95778 12.62C10.7817 11.5103 11.5751 10.3845 12.2569 9.20345C12.3016 9.12674 12.3462 9.04824 12.3889 8.96974L12.3929 8.96082C12.4031 8.94297 12.4152 8.92513 12.4274 8.90729C12.4741 8.84842 12.5208 8.84663 12.5654 8.90551C12.5958 8.95011 12.6242 8.9965 12.6506 9.04467C12.6729 9.08392 12.8475 9.40328 13.0666 9.80649C13.091 9.85109 13.1498 9.86893 13.1985 9.8493C13.2188 9.84217 13.2351 9.82789 13.2452 9.81005L13.8418 8.79132C13.8702 8.74137 13.8702 8.68249 13.8418 8.63075C13.7302 8.43629 13.6206 8.23825 13.5131 8.04021C13.3974 7.82077 13.2898 7.58883 13.164 7.3676C13.0321 7.13567 12.815 7.00364 12.5126 7.00007C12.2123 6.99651 11.9952 7.12318 11.8511 7.34976C11.8247 7.39258 11.8004 7.43897 11.776 7.48357C11.6137 7.77795 11.4574 8.07411 11.2971 8.36849C11.1774 8.58794 11.0556 8.8056 10.9257 9.01791C10.8912 9.07321 10.8588 9.12852 10.8223 9.18383C10.3291 9.96349 9.7995 10.7253 9.26783 11.4853C8.8011 12.1562 8.29175 12.8038 7.91836 13.5246C7.5531 14.2275 7.29132 14.9572 7.1858 15.7226C7.08839 16.4345 7.15536 17.1374 7.42931 17.8189C7.57136 18.1758 7.75805 18.5183 7.98533 18.8395C8.19637 19.1356 8.44597 19.4086 8.7321 19.6512C8.8356 19.7386 8.94112 19.8225 9.04867 19.9028C10.0268 20.6236 11.1875 20.9964 12.6729 20.9964C13.026 21.0179 13.5516 20.9411 14.065 20.802C15.2582 20.4808 16.2161 19.8689 16.9202 18.9608C17.4722 18.2489 17.7908 17.4621 17.8496 16.6004C17.8679 16.2971 17.8557 15.9938 17.8131 15.6905Z" fill="url(#paint2_linear_11783_2979)"/>
<defs>
<linearGradient id="paint0_linear_11783_2979" x1="-1.48601" y1="14" x2="28.21" y2="14.6251" gradientUnits="userSpaceOnUse">
<stop stop-color="#4BF2A2"/>
<stop offset="0.522948" stop-color="#A89FE7"/>
<stop offset="0.669499" stop-color="#E1C4F4"/>
<stop offset="1" stop-color="#DD40CD"/>
<stop offset="1" stop-color="#DD40CD"/>
</linearGradient>
<linearGradient id="paint1_linear_11783_2979" x1="6.50669" y1="14" x2="19.2351" y2="14.2296" gradientUnits="userSpaceOnUse">
<stop stop-color="#4BF2A2"/>
<stop offset="0.522948" stop-color="#A89FE7"/>
<stop offset="0.669499" stop-color="#E1C4F4"/>
<stop offset="1" stop-color="#DD40CD"/>
<stop offset="1" stop-color="#DD40CD"/>
</linearGradient>
<linearGradient id="paint2_linear_11783_2979" x1="6.50669" y1="14" x2="19.2351" y2="14.2296" gradientUnits="userSpaceOnUse">
<stop stop-color="#4BF2A2"/>
<stop offset="0.522948" stop-color="#A89FE7"/>
<stop offset="0.669499" stop-color="#E1C4F4"/>
<stop offset="1" stop-color="#DD40CD"/>
<stop offset="1" stop-color="#DD40CD"/>
</linearGradient>
</defs>
</svg>
