<svg width="157" height="239" viewBox="0 0 157 239" fill="none" xmlns="http://www.w3.org/2000/svg">
<g filter="url(#filter0_f_1_249)">
<ellipse cx="78.5" cy="222" rx="69.5" ry="8" fill="#0C0C17"/>
</g>
<path d="M92.0436 140.432C92.0436 154.891 85.4991 167.898 71.2572 173.08L92.2936 165.424C106.536 160.241 113.08 147.234 113.08 132.776L92.0436 140.432Z" fill="url(#paint0_radial_1_249)"/>
<path d="M49.8435 78.4582V122.62L70.8799 114.962V70.8014L49.8435 78.4582Z" fill="url(#paint1_radial_1_249)"/>
<path d="M49.8435 122.62C49.8435 127.131 48.5749 131.429 45.9518 134.485L66.992 126.828C69.615 123.773 70.8799 119.475 70.8799 114.962L49.8435 122.62Z" fill="url(#paint2_radial_1_249)"/>
<path d="M45.952 134.485C44.6312 136.067 42.9335 137.254 40.9895 137.962L62.0259 130.306C63.9699 129.597 65.6713 128.411 66.9922 126.829L45.952 134.485Z" fill="url(#paint3_radial_1_249)"/>
<path d="M38.4294 11.0952C16.781 18.9751 2.00927 39.6825 2.00927 65.7467L23.0457 58.0899C23.0457 32.0253 37.8175 11.318 59.4658 3.43848L38.4294 11.0952Z" fill="url(#paint4_radial_1_249)"/>
<path d="M2.01044 65.7466V121.814L23.0469 114.155V58.0898L2.01044 65.7466Z" fill="url(#paint5_radial_1_249)"/>
<path d="M2.0097 121.814C2.0097 157.935 30.3853 192.4 66.1189 198.922L87.1554 191.266C51.4218 184.744 23.0461 150.279 23.0461 114.155L2.0097 121.814Z" fill="url(#paint6_radial_1_249)"/>
<path d="M66.1191 198.923C77.4022 200.982 88.0846 200.023 97.4648 196.609L118.501 188.953C109.121 192.367 98.4386 193.326 87.1555 191.266L66.1191 198.923Z" fill="url(#paint7_radial_1_249)"/>
<path d="M66.1189 74.9098C65.3913 74.8057 64.6824 74.877 64.0481 75.1083L85.0846 67.4516C85.7189 67.2202 86.4278 67.149 87.1554 67.2527L66.1189 74.9098Z" fill="url(#paint8_radial_1_249)"/>
<path d="M64.0485 75.1084C63.5971 75.2722 63.1829 75.5159 62.8247 75.8349L83.8611 68.1778C84.223 67.8591 84.6335 67.6155 85.085 67.4517L64.0485 75.1084Z" fill="url(#paint9_radial_1_249)"/>
<path fill-rule="evenodd" clip-rule="evenodd" d="M61.4555 79.006C61.4555 77.7426 61.9481 76.602 62.8249 75.8349L83.8613 68.1777C82.9845 68.9452 82.492 70.0858 82.492 71.3492L82.4922 71.3491V117.961L61.4557 125.616V79.0059L61.4555 79.006ZM61.4557 125.616C61.4557 133.531 60.0741 139.28 57.6424 143.279C56.7189 143.174 55.764 143.039 54.7766 142.872L33.7402 150.529C40.4004 151.652 45.5867 151.35 49.5642 149.902L49.6705 149.863C49.6353 149.876 49.6 149.889 49.5646 149.902L70.601 142.246C72.5786 141.526 74.2576 140.522 75.668 139.272L75.6678 139.272C79.94 135.474 82.4922 128.717 82.4922 117.961L61.4557 125.616Z" fill="url(#paint10_radial_1_249)"/>
<path d="M33.7401 150.529C33.0013 150.402 32.2812 150.466 31.6357 150.701L52.6722 143.044C53.3177 142.809 54.0378 142.746 54.7766 142.873L33.7401 150.529Z" fill="url(#paint11_radial_1_249)"/>
<path fill-rule="evenodd" clip-rule="evenodd" d="M30.5027 151.364C30.8383 151.073 31.2225 150.85 31.6364 150.7L52.6515 143.052C52.2456 143.201 51.8723 143.422 51.5386 143.704L51.5366 143.705C50.6788 144.448 50.2088 145.563 50.2088 146.813L29.1724 154.473C29.1724 153.223 29.6388 152.104 30.5007 151.365L30.5027 151.364ZM29.1724 154.473C29.1724 155.719 29.6388 156.999 30.5007 158.032L51.5371 150.376C50.679 149.342 50.2088 148.063 50.2088 146.813L29.1724 154.473ZM30.5013 158.032C31.3632 159.062 32.5236 159.76 33.7399 159.969L54.7764 152.312C53.56 152.103 52.3996 151.406 51.5377 150.376L30.5013 158.032ZM33.7407 159.969C41.4494 161.293 48.2737 161.081 53.9227 159.025L74.9629 151.368C69.3101 153.424 62.4858 153.637 54.7772 152.312L33.7407 159.969Z" fill="url(#paint12_radial_1_249)"/>
<path d="M53.9225 159.025C56.6761 158.025 59.1499 156.585 61.3102 154.674L82.3467 147.018C80.1863 148.928 77.7126 150.365 74.9627 151.369L53.9225 159.025Z" fill="url(#paint13_radial_1_249)"/>
<path d="M61.3097 154.675C67.8952 148.835 70.8093 139.295 70.8093 127.109L91.8457 119.451C91.8457 131.638 88.9317 141.179 82.3461 147.018L61.3097 154.675Z" fill="url(#paint14_radial_1_249)"/>
<path d="M70.8092 127.108V80.357L91.8456 72.7002V119.451L70.8092 127.108Z" fill="url(#paint15_radial_1_249)"/>
<path d="M70.8092 80.357C70.8092 79.0899 70.3129 77.8038 69.4286 76.7818L90.4688 69.1247C91.3493 70.147 91.8456 71.4332 91.8456 72.7003L70.8092 80.357Z" fill="url(#paint16_radial_1_249)"/>
<path d="M69.4286 76.7815C68.5481 75.7596 67.3578 75.0868 66.119 74.9096L87.1555 67.2524C88.398 67.43 89.5845 68.1028 90.4688 69.1244L69.4286 76.7815Z" fill="url(#paint17_radial_1_249)"/>
<path d="M66.119 31.9825C89.6031 35.0174 113.58 56.3456 113.58 82.8311L134.616 75.1743C134.616 48.6889 110.64 27.3603 87.1555 24.3257L66.119 31.9825Z" fill="url(#paint18_radial_1_249)"/>
<path d="M113.58 82.831V143.593L134.616 135.936V75.1742L113.58 82.831Z" fill="url(#paint19_radial_1_249)"/>
<path d="M113.58 143.593C113.58 149.622 112.688 155.693 110.804 160.868L131.84 153.212C133.724 148.037 134.616 141.966 134.616 135.936L113.58 143.593Z" fill="url(#paint20_radial_1_249)"/>
<path d="M110.803 160.868C108.953 165.973 105.953 170.592 101.431 173.051L122.467 165.394C126.989 162.935 129.989 158.316 131.84 153.212L110.803 160.868Z" fill="url(#paint21_radial_1_249)"/>
<path d="M101.431 173.051C101.241 173.155 101.039 173.248 100.834 173.323L121.871 165.667C122.076 165.592 122.277 165.499 122.468 165.394L101.431 173.051Z" fill="url(#paint22_radial_1_249)"/>
<path d="M29.1726 70.7364V119.328L50.209 111.67V63.0796L29.1726 70.7364Z" fill="url(#paint23_radial_1_249)"/>
<path d="M29.1729 119.328C29.1729 122.444 29.7699 124.944 30.6952 126.56L51.7354 118.902C50.8063 117.286 50.2093 114.787 50.2093 111.671L29.1729 119.328Z" fill="url(#paint24_radial_1_249)"/>
<path d="M30.6952 126.56C31.4415 127.896 32.4451 128.761 34.2361 129.052L55.2725 121.396C53.4816 121.105 52.4779 120.239 51.7354 118.902L30.6952 126.56Z" fill="url(#paint25_radial_1_249)"/>
<path d="M34.2364 129.052C35.1878 129.205 36.0274 129.134 36.7624 128.869L57.7988 121.213C57.0638 121.478 56.228 121.549 55.2728 121.396L34.2364 129.052Z" fill="url(#paint26_radial_1_249)"/>
<path d="M36.7622 128.869C37.4973 128.601 38.1278 128.134 38.6726 127.5L59.709 119.842C59.1642 120.478 58.5337 120.944 57.7986 121.213L36.7622 128.869Z" fill="url(#paint27_radial_1_249)"/>
<path d="M55.0076 55.1413C55.4218 54.9913 55.8397 54.8536 56.2613 54.7278L77.2977 47.0711C76.8761 47.1968 76.4582 47.3345 76.0441 47.4845L55.0076 55.1413Z" fill="url(#paint28_radial_1_249)"/>
<path d="M56.2611 54.7279C59.3655 53.8018 62.7198 53.56 66.1189 54.0182L87.1554 46.3614C83.7563 45.9032 80.4056 46.145 77.2975 47.0711L56.2611 54.7279Z" fill="url(#paint29_radial_1_249)"/>
<path d="M61.6491 165.319C61.8468 165.249 62.0521 165.193 62.2647 165.152L83.3049 157.495C83.0922 157.536 82.8832 157.592 82.6892 157.663L61.6491 165.319Z" fill="url(#paint30_radial_1_249)"/>
<path d="M62.2651 165.152C63.8695 164.846 65.3732 164.431 66.7761 163.92L87.8125 156.264C86.4096 156.775 84.9059 157.189 83.3052 157.495L62.2651 165.152Z" fill="url(#paint31_radial_1_249)"/>
<path d="M59.0894 64.2554C57.4551 64.8505 55.944 65.7538 54.6307 66.9478L75.6671 59.2907C76.9805 58.0967 78.4916 57.1937 80.1258 56.5983L59.0894 64.2554Z" fill="url(#paint32_radial_1_249)"/>
<path d="M40.989 137.962C40.9181 137.988 40.8434 138.014 40.7726 138.04L61.809 130.38C61.8799 130.358 61.9545 130.332 62.0254 130.306L40.989 137.962Z" fill="url(#paint33_radial_1_249)"/>
<path fill-rule="evenodd" clip-rule="evenodd" d="M44.9519 34.2491C30.7771 39.4078 20.0648 51.8543 20.0648 69.4315L41.1012 61.7744C41.1012 44.1994 51.8112 31.7533 65.9837 26.594L44.9519 34.2491ZM20.0651 117.884V69.4316L41.1016 61.7744V110.227L20.0651 117.884ZM20.0651 117.885C20.0651 122.011 20.83 126.526 23.0201 130.406C25.3596 134.563 29.1728 137.664 34.236 138.499L55.2725 130.839C50.2093 130.007 46.3961 126.907 44.0567 122.75C41.8665 118.867 41.1015 114.354 41.1015 110.228L20.0651 117.885ZM40.7732 138.04C38.7397 138.734 36.4972 138.891 34.2361 138.499L55.2726 130.839C57.5374 131.235 59.7761 131.078 61.8096 130.38L40.7732 138.04Z" fill="url(#paint34_radial_1_249)"/>
<path d="M44.9519 34.2495C51.5039 31.8638 58.802 31.0369 66.1189 31.9824L87.1554 24.3257C79.8385 23.3802 72.5441 24.207 65.9884 26.5927L44.9519 34.2495Z" fill="url(#paint35_radial_1_249)"/>
<path fill-rule="evenodd" clip-rule="evenodd" d="M38.4361 11.093C46.7886 8.05344 56.1703 6.92415 66.1188 8.13386L66.1194 8.13375C102.685 12.5809 132.964 46.7974 132.964 84.4634L154 76.8062C154 39.1403 123.725 4.92418 87.1558 0.476975L87.1553 0.477092C77.2042 -0.733305 67.824 0.397249 59.4661 3.43854L38.4361 11.093ZM132.964 142.921C132.964 168.965 118.487 188.957 97.4651 196.609L118.501 188.953C139.523 181.3 154 161.309 154 135.265V76.8064L132.964 84.4636L132.964 142.921Z" fill="url(#paint36_radial_1_249)"/>
<path fill-rule="evenodd" clip-rule="evenodd" d="M59.0902 64.2554C60.7397 63.6553 62.5152 63.3685 64.3441 63.4127L54.6316 66.948C51.5496 69.7837 49.8333 73.9111 49.8445 78.4583L70.8809 70.8015C70.8762 68.9035 71.1725 67.0786 71.7434 65.3903C71.9597 65.5034 72.1744 65.6212 72.3874 65.7435L93.4238 58.0864C91.4427 56.9492 89.3199 56.2074 87.1559 55.9014L87.1562 55.9013C84.7049 55.5599 82.3057 55.8058 80.1267 56.5983L59.0902 64.2554ZM72.3883 65.7436C74.3845 66.8842 76.1829 68.3965 77.6903 70.1919L77.6901 70.1919C80.8243 73.9343 82.578 78.6005 82.5631 83.1914L82.5632 83.1914V138.892C82.5632 148.622 78.9279 157.177 71.0396 161.903L61.6493 165.32C60.7613 165.644 60.0412 166.279 59.6083 167.137L59.6091 167.137C59.0755 168.185 59.0233 169.487 59.4337 170.748H59.4335C59.8476 172.01 60.6983 173.129 61.814 173.868L61.8142 173.868C62.9335 174.606 64.2243 174.897 65.3845 174.677L86.4209 167.021C85.2605 167.241 83.9695 166.95 82.8501 166.211L82.8499 166.211C81.7345 165.472 80.884 164.353 80.4699 163.088H80.4702C80.0597 161.827 80.1119 160.529 80.6455 159.48L80.6448 159.48C80.7946 159.183 80.9787 158.913 81.1925 158.674L87.813 156.264C98.6632 152.313 103.6 142.574 103.6 131.235V75.5345L103.6 75.5345C103.614 70.9437 101.861 66.2775 98.7266 62.5352L98.7267 62.5351C97.223 60.7393 95.4246 59.2274 93.4247 58.0864L72.3883 65.7436ZM65.3846 174.678C67.4704 174.282 69.4255 173.749 71.2575 173.081L92.2939 165.424C90.4619 166.088 88.5068 166.626 86.421 167.021L65.3846 174.678Z" fill="url(#paint37_radial_1_249)"/>
<path fill-rule="evenodd" clip-rule="evenodd" d="M60.2603 41.1988C62.1844 41.1555 64.1431 41.2602 66.1191 41.5215L87.1556 33.8648C81.0775 33.0611 75.1673 33.7387 69.9137 35.6498L48.8808 43.3053L49.0109 43.2582L48.8777 43.3067C37.4565 47.464 29.1733 57.4583 29.1733 70.7365L50.2098 63.0797C50.2098 53.9623 54.1152 46.3931 60.2603 41.1988ZM83.2914 47.768C78.0136 44.5197 72.1241 42.316 66.1196 41.5217L87.156 33.865C106.689 36.4488 125.009 53.9471 125.009 73.8016C125.009 73.8018 125.009 73.8019 125.009 73.8021V134.369L103.969 142.029V136.092L92.0428 140.432V84.5688L92.0427 84.5688C92.0539 77.4553 89.3301 70.2332 84.4498 64.4517L84.45 64.4516C82.0621 61.6167 79.1928 59.2306 76.0474 57.4392L76.0475 57.4392C72.8985 55.6499 69.5256 54.488 66.1192 54.0183L83.2914 47.768ZM122.781 148.536C121.293 152.629 119.237 155.338 116.95 156.588L116.948 156.588C116.419 156.861 115.971 157.245 115.632 157.722L115.633 157.722C115.293 158.2 115.062 158.763 114.939 159.371L114.939 159.371C114.83 159.983 114.845 160.629 114.98 161.274L114.958 161.282C115.107 161.932 115.364 162.568 115.723 163.156L115.756 163.144C116.107 163.726 116.585 164.248 117.114 164.678L96.0779 172.334C95.5492 171.906 95.0725 171.385 94.7219 170.804L94.4805 170.892C94.1103 170.292 93.8532 169.644 93.7053 168.981L93.9362 168.897C93.8083 168.263 93.7958 167.629 93.9021 167.028L93.9023 167.028C94.0254 166.419 94.2567 165.86 94.5962 165.378L94.5958 165.378C94.9353 164.901 95.3831 164.517 95.9129 164.244L95.9142 164.244C98.201 162.993 100.256 160.285 101.745 156.192L101.745 156.192C103.204 152.152 103.969 147.163 103.969 142.029L125.009 134.369C125.009 139.507 124.244 144.495 122.781 148.536L122.781 148.536ZM97.8461 173.308C97.2194 173.095 96.6226 172.767 96.0779 172.334L117.114 164.678C117.659 165.111 118.256 165.439 118.883 165.652C119.51 165.861 120.136 165.943 120.763 165.902L99.7266 173.558C99.0997 173.599 98.4729 173.517 97.8461 173.308ZM99.7266 173.558C100.115 173.528 100.484 173.45 100.835 173.323L121.871 165.667C121.52 165.794 121.151 165.872 120.763 165.902L99.7266 173.558Z" fill="url(#paint38_radial_1_249)"/>
<path fill-rule="evenodd" clip-rule="evenodd" d="M55.0078 55.1412C52.3959 56.0926 50.0267 57.5291 48.0081 59.3895L69.0482 51.7327C71.0668 49.8723 73.4324 48.4355 76.0442 47.4844L55.0078 55.1412ZM61.6526 113.485V69.4599L61.6529 69.4598C61.638 62.4582 64.2908 56.1029 69.0481 51.7329L48.008 59.3897C43.2545 63.7596 40.6017 70.1148 40.6165 77.1162L40.6162 77.1163V121.142C40.6162 123.933 39.8288 126.149 38.6722 127.5L59.7086 119.842C60.8653 118.492 61.6526 116.276 61.6526 113.485Z" fill="url(#paint39_radial_1_249)"/>
<path fill-rule="evenodd" clip-rule="evenodd" d="M132.962 84.4634C132.962 46.7974 102.686 12.5812 66.1182 8.13394C30.3841 3.78811 2.00948 29.6221 2.00948 65.7469V121.812C2.00948 157.937 30.3841 192.4 66.1182 198.922C102.686 205.595 132.962 180.586 132.962 142.921V84.4634ZM66.1182 74.9097C64.8778 74.7324 63.6917 75.0651 62.8259 75.8346C61.9474 76.602 61.4551 77.7426 61.4551 79.0058V125.617C61.4551 136.372 58.903 143.131 54.6321 146.927C50.3861 150.691 43.7165 152.213 33.7391 150.529C32.5243 150.323 31.3624 150.625 30.5014 151.363C29.6409 152.102 29.1718 153.221 29.1718 154.471C29.1718 155.721 29.6412 157 30.5014 158.032C31.3624 159.064 32.5243 159.761 33.7391 159.97C45.2034 161.94 54.7115 160.509 61.3088 154.674C67.8939 148.836 70.8087 139.293 70.8087 127.108V80.3569C70.8087 79.0899 70.3135 77.8038 69.4308 76.7815C68.5485 75.7598 67.3596 75.0871 66.1182 74.9097ZM66.1182 31.9824C89.6032 35.0173 113.58 56.3457 113.58 82.8311V143.593C113.58 149.621 112.687 155.694 110.805 160.867C108.953 165.971 105.954 170.592 101.431 173.049C100.912 173.339 100.339 173.513 99.7257 173.558C99.0988 173.6 98.4722 173.517 97.8458 173.307C97.2196 173.097 96.621 172.768 96.0769 172.336C95.5467 171.906 95.0709 171.382 94.7175 170.8C94.3511 170.216 94.0926 169.582 93.9433 168.932C93.8074 168.286 93.7936 167.639 93.9022 167.028C94.0246 166.42 94.2552 165.859 94.595 165.381C94.9346 164.902 95.3832 164.516 95.9134 164.244C98.1996 162.994 100.257 160.286 101.744 156.195C103.205 152.153 103.97 147.164 103.97 142.028V81.4588C103.97 61.6041 85.6531 44.1056 66.1179 41.5216C46.8233 38.9695 29.1715 51.3549 29.1715 70.7366V119.328C29.1715 122.443 29.771 124.943 30.6968 126.559C31.4404 127.896 32.4456 128.762 34.2355 129.052C36.1453 129.361 37.5858 128.77 38.6736 127.499C39.8277 126.149 40.6151 123.933 40.6151 121.142V77.1166C40.6002 70.115 43.2558 63.7596 48.0099 59.3896C50.3462 57.2362 53.149 55.6503 56.2619 54.7279C59.3676 53.8019 62.7191 53.5599 66.1179 54.0182C69.5241 54.4877 72.8975 55.6499 76.0499 57.4394C79.1951 59.2307 82.0636 61.6165 84.4512 64.4516C89.3321 70.2331 92.0563 77.4552 92.0427 84.5686V140.432C92.0427 156.748 83.7089 171.214 65.3842 174.678C64.2243 174.899 62.9322 174.606 61.8141 173.868C60.6967 173.13 59.8459 172.009 59.434 170.747C59.0223 169.486 59.0754 168.185 59.6068 167.138C60.1383 166.088 61.0957 165.374 62.2666 165.153C76.2648 162.464 82.5624 151.699 82.5624 138.892V83.1912C82.5773 78.6003 80.824 73.9342 77.689 70.1917C76.1842 68.3961 74.3858 66.8841 72.3885 65.7432C70.407 64.6058 68.2811 63.8639 66.118 63.5579C61.8274 62.9602 57.6946 64.1636 54.6319 66.9476C51.5487 69.7833 49.8311 73.9108 49.8443 78.4581V122.619C49.8443 127.131 48.5772 131.43 45.9538 134.484C44.5845 136.124 42.8089 137.342 40.7727 138.039C38.7392 138.736 36.4989 138.892 34.2356 138.498C29.1716 137.663 25.3584 134.563 23.0205 130.407C20.8287 126.525 20.0642 122.011 20.0642 117.885V69.4319C20.0642 43.7252 42.98 28.9924 66.1182 31.9824Z" fill="url(#paint40_radial_1_249)"/>
<defs>
<filter id="filter0_f_1_249" x="0" y="205" width="157" height="34" filterUnits="userSpaceOnUse" color-interpolation-filters="sRGB">
<feFlood flood-opacity="0" result="BackgroundImageFix"/>
<feBlend mode="normal" in="SourceGraphic" in2="BackgroundImageFix" result="shape"/>
<feGaussianBlur stdDeviation="4.5" result="effect1_foregroundBlur_1_249"/>
</filter>
<radialGradient id="paint0_radial_1_249" cx="0" cy="0" r="1" gradientUnits="userSpaceOnUse" gradientTransform="translate(101.728 145.443) rotate(119.642) scale(41.0732 41.8775)">
<stop stop-color="#2F6756"/>
<stop offset="0.427083" stop-color="#1B0724"/>
<stop offset="0.699054" stop-color="#2F1A51"/>
<stop offset="1" stop-color="#7C2BA3"/>
</radialGradient>
<radialGradient id="paint1_radial_1_249" cx="0" cy="0" r="1" gradientUnits="userSpaceOnUse" gradientTransform="translate(65.17 87.0872) rotate(102.551) scale(47.0199 23.6564)">
<stop stop-color="#2F6756"/>
<stop offset="0.427083" stop-color="#1B0724"/>
<stop offset="0.699054" stop-color="#2F1A51"/>
<stop offset="1" stop-color="#7C2BA3"/>
</radialGradient>
<radialGradient id="paint2_radial_1_249" cx="0" cy="0" r="1" gradientUnits="userSpaceOnUse" gradientTransform="translate(64.1137 121.098) rotate(125.001) scale(21.1092 23.525)">
<stop stop-color="#2F6756"/>
<stop offset="0.427083" stop-color="#1B0724"/>
<stop offset="0.699054" stop-color="#2F1A51"/>
<stop offset="1" stop-color="#7C2BA3"/>
</radialGradient>
<radialGradient id="paint3_radial_1_249" cx="0" cy="0" r="1" gradientUnits="userSpaceOnUse" gradientTransform="translate(59.9343 130.328) rotate(142.017) scale(16.0238 18.4363)">
<stop stop-color="#2F6756"/>
<stop offset="0.427083" stop-color="#1B0724"/>
<stop offset="0.699054" stop-color="#2F1A51"/>
<stop offset="1" stop-color="#7C2BA3"/>
</radialGradient>
<radialGradient id="paint4_radial_1_249" cx="0" cy="0" r="1" gradientUnits="userSpaceOnUse" gradientTransform="translate(43.8705 23.0211) rotate(116.825) scale(61.8422 59.0709)">
<stop stop-color="#2F6756"/>
<stop offset="0.427083" stop-color="#1B0724"/>
<stop offset="0.699054" stop-color="#2F1A51"/>
<stop offset="1" stop-color="#7C2BA3"/>
</radialGradient>
<radialGradient id="paint5_radial_1_249" cx="0" cy="0" r="1" gradientUnits="userSpaceOnUse" gradientTransform="translate(17.337 78.1173) rotate(100.261) scale(57.3585 23.8479)">
<stop stop-color="#2F6756"/>
<stop offset="0.427083" stop-color="#1B0724"/>
<stop offset="0.699054" stop-color="#2F1A51"/>
<stop offset="1" stop-color="#7C2BA3"/>
</radialGradient>
<radialGradient id="paint6_radial_1_249" cx="0" cy="0" r="1" gradientUnits="userSpaceOnUse" gradientTransform="translate(64.0444 140.796) rotate(118.848) scale(85.7164 85.9213)">
<stop stop-color="#2F6756"/>
<stop offset="0.427083" stop-color="#1B0724"/>
<stop offset="0.699054" stop-color="#2F1A51"/>
<stop offset="1" stop-color="#7C2BA3"/>
</radialGradient>
<radialGradient id="paint7_radial_1_249" cx="0" cy="0" r="1" gradientUnits="userSpaceOnUse" gradientTransform="translate(104.283 192.425) rotate(158.964) scale(27.2594 21.6618)">
<stop stop-color="#2F6756"/>
<stop offset="0.427083" stop-color="#1B0724"/>
<stop offset="0.699054" stop-color="#2F1A51"/>
<stop offset="1" stop-color="#7C2BA3"/>
</radialGradient>
<radialGradient id="paint8_radial_1_249" cx="0" cy="0" r="1" gradientUnits="userSpaceOnUse" gradientTransform="translate(80.8834 69.6897) rotate(148.052) scale(13.227 14.0866)">
<stop stop-color="#2F6756"/>
<stop offset="0.427083" stop-color="#1B0724"/>
<stop offset="0.699054" stop-color="#2F1A51"/>
<stop offset="1" stop-color="#7C2BA3"/>
</radialGradient>
<radialGradient id="paint9_radial_1_249" cx="0" cy="0" r="1" gradientUnits="userSpaceOnUse" gradientTransform="translate(79.0429 70.0864) rotate(145.521) scale(13.1162 14.518)">
<stop stop-color="#2F6756"/>
<stop offset="0.427083" stop-color="#1B0724"/>
<stop offset="0.699054" stop-color="#2F1A51"/>
<stop offset="1" stop-color="#7C2BA3"/>
</radialGradient>
<radialGradient id="paint10_radial_1_249" cx="0" cy="0" r="1" gradientUnits="userSpaceOnUse" gradientTransform="translate(70.257 94.2738) rotate(108.316) scale(77.4681 54.8179)">
<stop stop-color="#2F6756"/>
<stop offset="0.427083" stop-color="#1B0724"/>
<stop offset="0.699054" stop-color="#2F1A51"/>
<stop offset="1" stop-color="#7C2BA3"/>
</radialGradient>
<radialGradient id="paint11_radial_1_249" cx="0" cy="0" r="1" gradientUnits="userSpaceOnUse" gradientTransform="translate(48.4955 145.289) rotate(148.122) scale(13.2362 14.0795)">
<stop stop-color="#2F6756"/>
<stop offset="0.427083" stop-color="#1B0724"/>
<stop offset="0.699054" stop-color="#2F1A51"/>
<stop offset="1" stop-color="#7C2BA3"/>
</radialGradient>
<radialGradient id="paint12_radial_1_249" cx="0" cy="0" r="1" gradientUnits="userSpaceOnUse" gradientTransform="translate(62.534 148.63) rotate(144.745) scale(27.2365 30.4505)">
<stop stop-color="#2F6756"/>
<stop offset="0.427083" stop-color="#1B0724"/>
<stop offset="0.699054" stop-color="#2F1A51"/>
<stop offset="1" stop-color="#7C2BA3"/>
</radialGradient>
<radialGradient id="paint13_radial_1_249" cx="0" cy="0" r="1" gradientUnits="userSpaceOnUse" gradientTransform="translate(74.6315 150.792) rotate(142.393) scale(17.4271 19.9834)">
<stop stop-color="#2F6756"/>
<stop offset="0.427083" stop-color="#1B0724"/>
<stop offset="0.699054" stop-color="#2F1A51"/>
<stop offset="1" stop-color="#7C2BA3"/>
</radialGradient>
<radialGradient id="paint14_radial_1_249" cx="0" cy="0" r="1" gradientUnits="userSpaceOnUse" gradientTransform="translate(83.5573 130.521) rotate(115.427) scale(34.5441 31.7721)">
<stop stop-color="#2F6756"/>
<stop offset="0.427083" stop-color="#1B0724"/>
<stop offset="0.699054" stop-color="#2F1A51"/>
<stop offset="1" stop-color="#7C2BA3"/>
</radialGradient>
<radialGradient id="paint15_radial_1_249" cx="0" cy="0" r="1" gradientUnits="userSpaceOnUse" gradientTransform="translate(86.1357 89.7999) rotate(101.971) scale(49.2614 23.7085)">
<stop stop-color="#2F6756"/>
<stop offset="0.427083" stop-color="#1B0724"/>
<stop offset="0.699054" stop-color="#2F1A51"/>
<stop offset="1" stop-color="#7C2BA3"/>
</radialGradient>
<radialGradient id="paint16_radial_1_249" cx="0" cy="0" r="1" gradientUnits="userSpaceOnUse" gradientTransform="translate(85.761 72.6549) rotate(137.582) scale(14.7489 17.4206)">
<stop stop-color="#2F6756"/>
<stop offset="0.427083" stop-color="#1B0724"/>
<stop offset="0.699054" stop-color="#2F1A51"/>
<stop offset="1" stop-color="#7C2BA3"/>
</radialGradient>
<radialGradient id="paint17_radial_1_249" cx="0" cy="0" r="1" gradientUnits="userSpaceOnUse" gradientTransform="translate(83.8595 70.2473) rotate(144.487) scale(14.5297 16.2953)">
<stop stop-color="#2F6756"/>
<stop offset="0.427083" stop-color="#1B0724"/>
<stop offset="0.699054" stop-color="#2F1A51"/>
<stop offset="1" stop-color="#7C2BA3"/>
</radialGradient>
<radialGradient id="paint18_radial_1_249" cx="0" cy="0" r="1" gradientUnits="userSpaceOnUse" gradientTransform="translate(116.024 42.7131) rotate(122.702) scale(61.5801 66.4051)">
<stop stop-color="#2F6756"/>
<stop offset="0.427083" stop-color="#1B0724"/>
<stop offset="0.699054" stop-color="#2F1A51"/>
<stop offset="1" stop-color="#7C2BA3"/>
</radialGradient>
<radialGradient id="paint19_radial_1_249" cx="0" cy="0" r="1" gradientUnits="userSpaceOnUse" gradientTransform="translate(128.906 96.6772) rotate(99.5707) scale(61.4545 23.8982)">
<stop stop-color="#2F6756"/>
<stop offset="0.427083" stop-color="#1B0724"/>
<stop offset="0.699054" stop-color="#2F1A51"/>
<stop offset="1" stop-color="#7C2BA3"/>
</radialGradient>
<radialGradient id="paint20_radial_1_249" cx="0" cy="0" r="1" gradientUnits="userSpaceOnUse" gradientTransform="translate(128.153 143.772) rotate(117.644) scale(24.928 24.302)">
<stop stop-color="#2F6756"/>
<stop offset="0.427083" stop-color="#1B0724"/>
<stop offset="0.699054" stop-color="#2F1A51"/>
<stop offset="1" stop-color="#7C2BA3"/>
</radialGradient>
<radialGradient id="paint21_radial_1_249" cx="0" cy="0" r="1" gradientUnits="userSpaceOnUse" gradientTransform="translate(123.586 159.447) rotate(130.05) scale(22.9546 26.8178)">
<stop stop-color="#2F6756"/>
<stop offset="0.427083" stop-color="#1B0724"/>
<stop offset="0.699054" stop-color="#2F1A51"/>
<stop offset="1" stop-color="#7C2BA3"/>
</radialGradient>
<radialGradient id="paint22_radial_1_249" cx="0" cy="0" r="1" gradientUnits="userSpaceOnUse" gradientTransform="translate(116.596 167.886) rotate(146.244) scale(12.6384 13.8489)">
<stop stop-color="#2F6756"/>
<stop offset="0.427083" stop-color="#1B0724"/>
<stop offset="0.699054" stop-color="#2F1A51"/>
<stop offset="1" stop-color="#7C2BA3"/>
</radialGradient>
<radialGradient id="paint23_radial_1_249" cx="0" cy="0" r="1" gradientUnits="userSpaceOnUse" gradientTransform="translate(44.4991 80.7575) rotate(101.59) scale(50.8567 23.7413)">
<stop stop-color="#2F6756"/>
<stop offset="0.427083" stop-color="#1B0724"/>
<stop offset="0.699054" stop-color="#2F1A51"/>
<stop offset="1" stop-color="#7C2BA3"/>
</radialGradient>
<radialGradient id="paint24_radial_1_249" cx="0" cy="0" r="1" gradientUnits="userSpaceOnUse" gradientTransform="translate(45.6113 116.35) rotate(129.726) scale(17.1468 19.9918)">
<stop stop-color="#2F6756"/>
<stop offset="0.427083" stop-color="#1B0724"/>
<stop offset="0.699054" stop-color="#2F1A51"/>
<stop offset="1" stop-color="#7C2BA3"/>
</radialGradient>
<radialGradient id="paint25_radial_1_249" cx="0" cy="0" r="1" gradientUnits="userSpaceOnUse" gradientTransform="translate(48.6015 122.092) rotate(143.016) scale(14.9442 17.0339)">
<stop stop-color="#2F6756"/>
<stop offset="0.427083" stop-color="#1B0724"/>
<stop offset="0.699054" stop-color="#2F1A51"/>
<stop offset="1" stop-color="#7C2BA3"/>
</radialGradient>
<radialGradient id="paint26_radial_1_249" cx="0" cy="0" r="1" gradientUnits="userSpaceOnUse" gradientTransform="translate(51.4033 123.702) rotate(148.498) scale(13.4229 14.1844)">
<stop stop-color="#2F6756"/>
<stop offset="0.427083" stop-color="#1B0724"/>
<stop offset="0.699054" stop-color="#2F1A51"/>
<stop offset="1" stop-color="#7C2BA3"/>
</radialGradient>
<radialGradient id="paint27_radial_1_249" cx="0" cy="0" r="1" gradientUnits="userSpaceOnUse" gradientTransform="translate(53.4806 122.679) rotate(144.345) scale(13.7169 15.4097)">
<stop stop-color="#2F6756"/>
<stop offset="0.427083" stop-color="#1B0724"/>
<stop offset="0.699054" stop-color="#2F1A51"/>
<stop offset="1" stop-color="#7C2BA3"/>
</radialGradient>
<radialGradient id="paint28_radial_1_249" cx="0" cy="0" r="1" gradientUnits="userSpaceOnUse" gradientTransform="translate(71.2476 49.6074) rotate(146.567) scale(12.9734 14.1487)">
<stop stop-color="#2F6756"/>
<stop offset="0.427083" stop-color="#1B0724"/>
<stop offset="0.699054" stop-color="#2F1A51"/>
<stop offset="1" stop-color="#7C2BA3"/>
</radialGradient>
<radialGradient id="paint29_radial_1_249" cx="0" cy="0" r="1" gradientUnits="userSpaceOnUse" gradientTransform="translate(78.7698 48.8362) rotate(153.109) scale(16.8251 16.0984)">
<stop stop-color="#2F6756"/>
<stop offset="0.427083" stop-color="#1B0724"/>
<stop offset="0.699054" stop-color="#2F1A51"/>
<stop offset="1" stop-color="#7C2BA3"/>
</radialGradient>
<radialGradient id="paint30_radial_1_249" cx="0" cy="0" r="1" gradientUnits="userSpaceOnUse" gradientTransform="translate(77.4269 159.954) rotate(146.621) scale(12.5963 13.7263)">
<stop stop-color="#2F6756"/>
<stop offset="0.427083" stop-color="#1B0724"/>
<stop offset="0.699054" stop-color="#2F1A51"/>
<stop offset="1" stop-color="#7C2BA3"/>
</radialGradient>
<radialGradient id="paint31_radial_1_249" cx="0" cy="0" r="1" gradientUnits="userSpaceOnUse" gradientTransform="translate(80.8782 159.057) rotate(147.61) scale(14.695 15.7666)">
<stop stop-color="#2F6756"/>
<stop offset="0.427083" stop-color="#1B0724"/>
<stop offset="0.699054" stop-color="#2F1A51"/>
<stop offset="1" stop-color="#7C2BA3"/>
</radialGradient>
<radialGradient id="paint32_radial_1_249" cx="0" cy="0" r="1" gradientUnits="userSpaceOnUse" gradientTransform="translate(73.2057 59.851) rotate(143.489) scale(15.4071 17.4757)">
<stop stop-color="#2F6756"/>
<stop offset="0.427083" stop-color="#1B0724"/>
<stop offset="0.699054" stop-color="#2F1A51"/>
<stop offset="1" stop-color="#7C2BA3"/>
</radialGradient>
<radialGradient id="paint33_radial_1_249" cx="0" cy="0" r="1" gradientUnits="userSpaceOnUse" gradientTransform="translate(56.2568 132.737) rotate(146.43) scale(12.3892 13.5392)">
<stop stop-color="#2F6756"/>
<stop offset="0.427083" stop-color="#1B0724"/>
<stop offset="0.699054" stop-color="#2F1A51"/>
<stop offset="1" stop-color="#7C2BA3"/>
</radialGradient>
<radialGradient id="paint34_radial_1_249" cx="0" cy="0" r="1" gradientUnits="userSpaceOnUse" gradientTransform="translate(53.5199 61.8303) rotate(102.659) scale(101.776 51.6163)">
<stop stop-color="#2F6756"/>
<stop offset="0.427083" stop-color="#1B0724"/>
<stop offset="0.699054" stop-color="#2F1A51"/>
<stop offset="1" stop-color="#7C2BA3"/>
</radialGradient>
<radialGradient id="paint35_radial_1_249" cx="0" cy="0" r="1" gradientUnits="userSpaceOnUse" gradientTransform="translate(75.7001 27.1823) rotate(155.996) scale(22.4395 19.7793)">
<stop stop-color="#2F6756"/>
<stop offset="0.427083" stop-color="#1B0724"/>
<stop offset="0.699054" stop-color="#2F1A51"/>
<stop offset="1" stop-color="#7C2BA3"/>
</radialGradient>
<radialGradient id="paint36_radial_1_249" cx="0" cy="0" r="1" gradientUnits="userSpaceOnUse" gradientTransform="translate(122.633 61.7915) rotate(107.866) scale(182.963 126.718)">
<stop stop-color="#2F6756"/>
<stop offset="0.427083" stop-color="#1B0724"/>
<stop offset="0.699054" stop-color="#2F1A51"/>
<stop offset="1" stop-color="#7C2BA3"/>
</radialGradient>
<radialGradient id="paint37_radial_1_249" cx="0" cy="0" r="1" gradientUnits="userSpaceOnUse" gradientTransform="translate(89.0089 93.1506) rotate(103.914) scale(108.583 60.1129)">
<stop stop-color="#2F6756"/>
<stop offset="0.427083" stop-color="#1B0724"/>
<stop offset="0.699054" stop-color="#2F1A51"/>
<stop offset="1" stop-color="#7C2BA3"/>
</radialGradient>
<radialGradient id="paint38_radial_1_249" cx="0" cy="0" r="1" gradientUnits="userSpaceOnUse" gradientTransform="translate(98.9964 77.5438) rotate(110.571) scale(132.479 103.37)">
<stop stop-color="#2F6756"/>
<stop offset="0.427083" stop-color="#1B0724"/>
<stop offset="0.699054" stop-color="#2F1A51"/>
<stop offset="1" stop-color="#7C2BA3"/>
</radialGradient>
<radialGradient id="paint39_radial_1_249" cx="0" cy="0" r="1" gradientUnits="userSpaceOnUse" gradientTransform="translate(65.9004 72.6322) rotate(104.366) scale(73.1587 41.709)">
<stop stop-color="#2F6756"/>
<stop offset="0.427083" stop-color="#1B0724"/>
<stop offset="0.699054" stop-color="#2F1A51"/>
<stop offset="1" stop-color="#7C2BA3"/>
</radialGradient>
<radialGradient id="paint40_radial_1_249" cx="0" cy="0" r="1" gradientUnits="userSpaceOnUse" gradientTransform="translate(118.207 73.8392) rotate(114.8) scale(210.122 197.667)">
<stop stop-color="#BBC6C0"/>
<stop offset="0.497259" stop-color="#535E5D"/>
<stop offset="1" stop-color="#2C242D"/>
</radialGradient>
</defs>
</svg>
