<svg width="24" height="24" viewBox="0 0 24 24" fill="none" xmlns="http://www.w3.org/2000/svg">
<rect width="24" height="24" rx="12" fill="#F1F5F9"/>
<path d="M10.6663 7.99992H13.333C14.6663 7.99992 14.6663 7.33325 14.6663 6.66659C14.6663 5.33325 13.9997 5.33325 13.333 5.33325H10.6663C9.99967 5.33325 9.33301 5.33325 9.33301 6.66659C9.33301 7.99992 9.99967 7.99992 10.6663 7.99992Z" stroke="black" stroke-width="1.5" stroke-miterlimit="10" stroke-linecap="round" stroke-linejoin="round"/>
<path d="M14.6667 6.67993C16.8867 6.79993 18 7.61993 18 10.6666V14.6666C18 17.3333 17.3333 18.6666 14 18.6666H10C6.66667 18.6666 6 17.3333 6 14.6666V10.6666C6 7.6266 7.11333 6.79993 9.33333 6.67993" stroke="black" stroke-width="1.25" stroke-miterlimit="10" stroke-linecap="round" stroke-linejoin="round"/>
</svg>
