<svg width="15" height="15" viewBox="0 0 15 15" fill="none" xmlns="http://www.w3.org/2000/svg">
<path d="M15.0005 7.46709C15.0005 7.35906 14.9968 7.25286 14.9932 7.14666V1.07667L13.3159 2.75576C11.9426 1.07301 9.85341 0 7.51332 0C5.07801 0 2.9137 1.16273 1.5459 2.96267L4.29615 5.74223C4.56531 5.24418 4.948 4.81571 5.40943 4.49161C5.88917 4.11624 6.57032 3.81045 7.51149 3.81045C7.62501 3.81045 7.7129 3.82327 7.77699 3.8489C8.94337 3.94046 9.95412 4.58499 10.5492 5.51884L8.6028 7.46526C11.0692 7.45611 13.8561 7.45061 15.0005 7.46709Z" fill="#1C3AA9"/>
<path d="M7.46889 0C7.36085 0 7.25465 0.00366213 7.14845 0.00732427H1.07666L2.75574 1.68458C1.07483 3.05971 0 5.14896 0 7.48907C0 9.92439 1.16272 12.0887 2.96265 13.4565L5.7422 10.7063C5.24415 10.4371 4.81568 10.0544 4.49158 9.59296C4.11622 9.11322 3.81043 8.43207 3.81043 7.4909C3.81043 7.37737 3.82325 7.28948 3.84888 7.22539C3.94044 6.059 4.58497 5.04825 5.51881 4.45316L7.46522 6.39958C7.4579 3.9313 7.45057 1.14625 7.46889 0Z" fill="#4285F4"/>
<path d="M0.00195312 7.48901C0.00195312 7.59705 0.00561506 7.70325 0.00927718 7.80945V13.8794L1.68653 12.2022C3.05982 13.8831 5.14906 14.9561 7.48915 14.9561C9.92446 14.9561 12.0888 13.7934 13.4566 11.9934L10.7063 9.21388C10.4372 9.71193 10.0545 10.1404 9.59303 10.4645C9.1133 10.8399 8.43214 11.1457 7.49098 11.1457C7.37745 11.1457 7.28956 11.1328 7.22548 11.1072C6.05909 11.0156 5.04835 10.3711 4.45326 9.43727L6.39967 7.49084C3.93323 7.5 1.14636 7.50549 0.00195312 7.48901Z" fill="#ABABAB"/>
</svg>
