<svg width="20" height="20" viewBox="0 0 20 20" fill="none" xmlns="http://www.w3.org/2000/svg">
<path d="M20 10C20 4.47715 15.5228 0 10 0C4.47715 0 0 4.47715 0 10C0 15.5228 4.47715 20 10 20C15.5228 20 20 15.5228 20 10Z" fill="#7289DA"/>
<path d="M9.095 9.82C8.81 9.82 8.585 10.07 8.585 10.375C8.585 10.68 8.815 10.93 9.095 10.93C9.38 10.93 9.605 10.68 9.605 10.375C9.61 10.07 9.38 9.82 9.095 9.82ZM10.92 9.82C10.635 9.82 10.41 10.07 10.41 10.375C10.41 10.68 10.64 10.93 10.92 10.93C11.205 10.93 11.43 10.68 11.43 10.375C11.43 10.07 11.205 9.82 10.92 9.82Z" fill="white"/>
<path d="M13.35 5.625H6.65C6.085 5.625 5.625 6.085 5.625 6.655V13.415C5.625 13.985 6.085 14.445 6.65 14.445H12.32L12.055 13.52L12.695 14.115L13.3 14.675L14.375 15.625V6.655C14.375 6.085 13.915 5.625 13.35 5.625ZM11.42 12.155C11.42 12.155 11.24 11.94 11.09 11.75C11.745 11.565 11.995 11.155 11.995 11.155C11.79 11.29 11.595 11.385 11.42 11.45C11.17 11.555 10.93 11.625 10.695 11.665C10.215 11.755 9.775 11.73 9.4 11.66C9.115 11.605 8.87 11.525 8.665 11.445C8.55 11.4 8.425 11.345 8.3 11.275C8.285 11.265 8.27 11.26 8.255 11.25C8.245 11.245 8.24 11.24 8.235 11.235C8.145 11.185 8.095 11.15 8.095 11.15C8.095 11.15 8.335 11.55 8.97 11.74C8.82 11.93 8.635 12.155 8.635 12.155C7.53 12.12 7.11 11.395 7.11 11.395C7.11 9.785 7.83 8.48 7.83 8.48C8.55 7.94 9.235 7.955 9.235 7.955L9.285 8.015C8.385 8.275 7.97 8.67 7.97 8.67C7.97 8.67 8.08 8.61 8.265 8.525C8.8 8.29 9.225 8.225 9.4 8.21C9.43 8.205 9.455 8.2 9.485 8.2C9.79 8.16 10.135 8.15 10.495 8.19C10.97 8.245 11.48 8.385 12 8.67C12 8.67 11.605 8.295 10.755 8.035L10.825 7.955C10.825 7.955 11.51 7.94 12.23 8.48C12.23 8.48 12.95 9.785 12.95 11.395C12.95 11.395 12.525 12.12 11.42 12.155Z" fill="white"/>
</svg>
