<svg width="20" height="20" viewBox="0 0 20 20" fill="none" xmlns="http://www.w3.org/2000/svg">
<path d="M20 10C20 4.47715 15.5228 0 10 0C4.47715 0 0 4.47715 0 10C0 15.5228 4.47715 20 10 20C15.5228 20 20 15.5228 20 10Z" fill="#855DCD"/>
<path d="M18.3982 17.4366V17.5H13.8168V17.4366C13.8191 17.436 13.8221 17.4355 13.8258 17.4355H13.9276H14.4276V16.9355V16.372C14.4296 16.3715 14.432 16.3711 14.4351 16.371L14.9192 16.3555V15.8713V11.129V11.1054L14.9169 11.0818C14.7106 8.90575 12.7812 7.24193 10.5 7.24193C8.21879 7.24193 6.28937 8.90575 6.08307 11.0818L6.08084 11.1054V11.129V15.8711V16.3609L6.57058 16.371C6.57398 16.3711 6.57662 16.3715 6.57864 16.372V16.6452V16.9355V17.4355H7.07864H7.18042C7.18417 17.4355 7.18713 17.436 7.18943 17.4366V17.5H2.60179V17.4366C2.60408 17.436 2.60704 17.4355 2.61079 17.4355H2.71257H3.21257V16.9355V16.3721C3.21486 16.3714 3.21782 16.371 3.22155 16.371H3.72155V15.871V7.25806V6.75806H3.22155H3.02988L2.67898 5.62902H4.9521H5.4521V5.12902V3.5H15.5479V5.12902V5.62902H16.0479H18.321L17.9701 6.75806H17.7785H17.2785V7.25806V15.871V16.371H17.7785C17.7822 16.371 17.7851 16.3714 17.7874 16.3721V16.9355V17.4355H18.2874H18.3892C18.393 17.4355 18.3959 17.436 18.3982 17.4366Z" fill="white" stroke="white"/>
</svg>
