<svg width="20" height="21" viewBox="0 0 20 21" fill="none" xmlns="http://www.w3.org/2000/svg">
<path d="M16.6419 8.83325H3.30859V15.4999C3.30859 17.9999 4.14193 18.8333 6.64193 18.8333H13.3086C15.8086 18.8333 16.6419 17.9999 16.6419 15.4999V8.83325Z" stroke="black" stroke-width="1.5" stroke-miterlimit="10" stroke-linecap="round" stroke-linejoin="round"/>
<path d="M17.9173 6.33341V7.16675C17.9173 8.08341 17.4757 8.83341 16.2507 8.83341H3.75065C2.47565 8.83341 2.08398 8.08341 2.08398 7.16675V6.33341C2.08398 5.41675 2.47565 4.66675 3.75065 4.66675H16.2507C17.4757 4.66675 17.9173 5.41675 17.9173 6.33341Z" stroke="black" stroke-width="1.5" stroke-miterlimit="10" stroke-linecap="round" stroke-linejoin="round"/>
<path d="M9.70096 4.66662H5.10096C4.81763 4.35828 4.82596 3.88328 5.12596 3.58328L6.30929 2.39995C6.61763 2.09162 7.12596 2.09162 7.43429 2.39995L9.70096 4.66662Z" stroke="black" stroke-width="1.5" stroke-miterlimit="10" stroke-linecap="round" stroke-linejoin="round"/>
<path d="M14.891 4.66662H10.291L12.5577 2.39995C12.866 2.09162 13.3743 2.09162 13.6827 2.39995L14.866 3.58328C15.166 3.88328 15.1743 4.35828 14.891 4.66662Z" stroke="black" stroke-width="1.5" stroke-miterlimit="10" stroke-linecap="round" stroke-linejoin="round"/>
<path d="M7.44922 8.83325V13.1166C7.44922 13.7833 8.18255 14.1749 8.74089 13.8166L9.52422 13.2999C9.80755 13.1166 10.1659 13.1166 10.4409 13.2999L11.1826 13.7999C11.7326 14.1666 12.4742 13.7749 12.4742 13.1083V8.83325H7.44922Z" stroke="black" stroke-width="1.5" stroke-miterlimit="10" stroke-linecap="round" stroke-linejoin="round"/>
</svg>
