<svg width="20" height="20" viewBox="0 0 20 20" fill="none" xmlns="http://www.w3.org/2000/svg">
<rect width="20" height="20" rx="10" fill="#F1F5F9"/>
<path d="M9.99992 16.6666C13.6818 16.6666 16.6666 13.6818 16.6666 9.99992C16.6666 6.31802 13.6818 3.33325 9.99992 3.33325C6.31802 3.33325 3.33325 6.31802 3.33325 9.99992C3.33325 13.6818 6.31802 16.6666 9.99992 16.6666Z" stroke="black" stroke-linecap="round" stroke-linejoin="round"/>
<path d="M7.33324 4H7.9999C6.6999 7.89333 6.6999 12.1067 7.9999 16H7.33324" stroke="black" stroke-linecap="round" stroke-linejoin="round"/>
<path d="M12 4C13.3 7.89333 13.3 12.1067 12 16" stroke="black" stroke-linecap="round" stroke-linejoin="round"/>
<path d="M4 12.6667V12C7.89333 13.3 12.1067 13.3 16 12V12.6667" stroke="black" stroke-linecap="round" stroke-linejoin="round"/>
<path d="M4 7.9999C7.89333 6.6999 12.1067 6.6999 16 7.9999" stroke="black" stroke-linecap="round" stroke-linejoin="round"/>
</svg>
