<svg width="32" height="33" viewBox="0 0 32 33" fill="none" xmlns="http://www.w3.org/2000/svg">
<rect y="0.5" width="32" height="32" rx="16" fill="#F1F5F9"/>
<path d="M17.4421 9.4252L18.9087 12.3585C19.1087 12.7669 19.6421 13.1585 20.0921 13.2335L22.7504 13.6752C24.4504 13.9585 24.8504 15.1919 23.6254 16.4085L21.5587 18.4752C21.2087 18.8252 21.0171 19.5002 21.1254 19.9835L21.7171 22.5419C22.1837 24.5669 21.1087 25.3502 19.3171 24.2919L16.8254 22.8169C16.3754 22.5502 15.6337 22.5502 15.1754 22.8169L12.6837 24.2919C10.9004 25.3502 9.81708 24.5585 10.2837 22.5419L10.8754 19.9835C10.9837 19.5002 10.7921 18.8252 10.4421 18.4752L8.37541 16.4085C7.15875 15.1919 7.55041 13.9585 9.25041 13.6752L11.9087 13.2335C12.3504 13.1585 12.8837 12.7669 13.0837 12.3585L14.5504 9.4252C15.3504 7.83353 16.6504 7.83353 17.4421 9.4252Z" stroke="black" stroke-width="1.5" stroke-linecap="round" stroke-linejoin="round"/>
</svg>
