<svg width="24" height="25" viewBox="0 0 24 25" fill="none" xmlns="http://www.w3.org/2000/svg">
<rect y="0.5" width="24" height="24" rx="12" fill="#F1F5F9"/>
<path d="M14.26 7.97325L15.2 9.85325C15.3266 10.1132 15.6666 10.3599 15.9533 10.4132L17.6533 10.6932C18.74 10.8732 18.9933 11.6599 18.2133 12.4466L16.8866 13.7733C16.6666 13.9933 16.54 14.4266 16.6133 14.7399L16.9933 16.3799C17.2933 17.6733 16.6 18.1799 15.46 17.4999L13.8666 16.5532C13.58 16.3799 13.1 16.3799 12.8133 16.5532L11.22 17.4999C10.08 18.1732 9.38663 17.6733 9.68663 16.3799L10.0666 14.7399C10.14 14.4332 10.0133 13.9999 9.7933 13.7733L8.46664 12.4466C7.68664 11.6666 7.93997 10.8799 9.02664 10.6932L10.7266 10.4132C11.0133 10.3666 11.3533 10.1132 11.48 9.85325L12.42 7.97325C12.92 6.95325 13.7466 6.95325 14.26 7.97325Z" stroke="black" stroke-linecap="round" stroke-linejoin="round"/>
<path d="M9.33301 7.83325H5.33301" stroke="black" stroke-linecap="round" stroke-linejoin="round"/>
<path d="M7.33301 17.1667H5.33301" stroke="black" stroke-linecap="round" stroke-linejoin="round"/>
<path d="M5.99967 12.5H5.33301" stroke="black" stroke-linecap="round" stroke-linejoin="round"/>
</svg>
