<svg width="20" height="21" viewBox="0 0 20 21" fill="none" xmlns="http://www.w3.org/2000/svg">
<path d="M16.2493 10.9166C16.2493 9.76659 17.1827 8.83325 18.3327 8.83325V7.99992C18.3327 4.66659 17.4993 3.83325 14.166 3.83325H5.83268C2.49935 3.83325 1.66602 4.66659 1.66602 7.99992V8.41659C2.81602 8.41659 3.74935 9.34992 3.74935 10.4999C3.74935 11.6499 2.81602 12.5833 1.66602 12.5833V12.9999C1.66602 16.3333 2.49935 17.1666 5.83268 17.1666H14.166C17.4993 17.1666 18.3327 16.3333 18.3327 12.9999C17.1827 12.9999 16.2493 12.0666 16.2493 10.9166Z" stroke="black" stroke-width="1.5" stroke-linecap="round" stroke-linejoin="round"/>
<path d="M8.33398 3.83325L8.33399 17.1666" stroke="black" stroke-width="1.5" stroke-linecap="round" stroke-linejoin="round" stroke-dasharray="5 5"/>
</svg>
