<svg width="24" height="24" viewBox="0 0 24 24" fill="none" xmlns="http://www.w3.org/2000/svg">
<rect width="24" height="24" rx="12" fill="#F1F5F9"/>
<path d="M13.1533 6.34001L14.3266 8.68668C14.4866 9.01334 14.9133 9.32668 15.2733 9.38668L17.3999 9.74001C18.7599 9.96668 19.0799 10.9533 18.0999 11.9267L16.4466 13.58C16.1666 13.86 16.0133 14.4 16.0999 14.7867L16.5733 16.8333C16.9466 18.4533 16.0866 19.08 14.6533 18.2333L12.6599 17.0533C12.2999 16.84 11.7066 16.84 11.3399 17.0533L9.34661 18.2333C7.91994 19.08 7.05327 18.4467 7.42661 16.8333L7.89994 14.7867C7.98661 14.4 7.83327 13.86 7.55327 13.58L5.89994 11.9267C4.92661 10.9533 5.23994 9.96668 6.59994 9.74001L8.72661 9.38668C9.07994 9.32668 9.50661 9.01334 9.66661 8.68668L10.8399 6.34001C11.4799 5.06668 12.5199 5.06668 13.1533 6.34001Z" stroke="black" stroke-linecap="round" stroke-linejoin="round"/>
</svg>
