<svg width="20" height="20" viewBox="0 0 20 20" fill="none" xmlns="http://www.w3.org/2000/svg">
<path d="M0 10C0 15.5228 4.47715 20 10 20C15.5228 20 20 15.5228 20 10C20 4.47715 15.5228 0 10 0C4.47715 0 0 4.47715 0 10Z" fill="#0088CC"/>
<path d="M5.06245 9.81768C7.7468 8.64816 9.53678 7.87713 10.4324 7.50461C12.9896 6.44099 13.521 6.25623 13.8673 6.25006C13.9435 6.24878 14.1138 6.26766 14.2241 6.35718C14.3173 6.43277 14.3429 6.53488 14.3552 6.60655C14.3674 6.67821 14.3827 6.84147 14.3706 6.96904C14.232 8.42506 13.6324 11.9584 13.3273 13.5892C13.1982 14.2792 12.9441 14.5106 12.698 14.5332C12.1633 14.5825 11.7572 14.1799 11.2393 13.8404C10.4289 13.3091 9.97106 12.9784 9.18439 12.46C8.27526 11.8609 8.86461 11.5316 9.38272 10.9935C9.51832 10.8527 11.8744 8.70966 11.92 8.51526C11.9257 8.49095 11.931 8.40032 11.8771 8.35246C11.8233 8.30461 11.7438 8.32097 11.6865 8.33399C11.6052 8.35243 10.3105 9.20817 7.80243 10.9012C7.43494 11.1535 7.10208 11.2765 6.80385 11.27C6.47507 11.2629 5.84264 11.0841 5.37249 10.9313C4.79583 10.7439 4.33751 10.6448 4.37742 10.3264C4.39821 10.1606 4.62655 9.99103 5.06245 9.81768Z" fill="white"/>
</svg>
