<svg width="20" height="20" viewBox="0 0 20 20" fill="none" xmlns="http://www.w3.org/2000/svg">
<path d="M0 10C0 15.5228 4.47715 20 10 20C15.5228 20 20 15.5228 20 10C20 4.47715 15.5228 0 10 0C4.47715 0 0 4.47715 0 10Z" fill="#0F1419"/>
<mask id="path-2-inside-1_1350_8021" fill="white">
<path d="M10.9525 9.23476L14.6756 5H13.7935L10.5592 8.67622L7.97792 5H5L8.90431 10.5596L5 15H5.88214L9.2955 11.1169L12.0221 15H15L10.9525 9.23476ZM9.74387 10.6084L9.34768 10.0544L6.20027 5.65073H7.55542L10.0962 9.20598L10.4908 9.75994L13.7931 14.381H12.4379L9.74387 10.6084Z"/>
</mask>
<path d="M10.9525 9.23476L14.6756 5H13.7935L10.5592 8.67622L7.97792 5H5L8.90431 10.5596L5 15H5.88214L9.2955 11.1169L12.0221 15H15L10.9525 9.23476ZM9.74387 10.6084L9.34768 10.0544L6.20027 5.65073H7.55542L10.0962 9.20598L10.4908 9.75994L13.7931 14.381H12.4379L9.74387 10.6084Z" fill="white"/>
<path d="M10.9525 9.23476L10.2015 8.57448L9.68195 9.16539L10.134 9.80935L10.9525 9.23476ZM14.6756 5L15.4266 5.66028L16.8863 4H14.6756V5ZM13.7935 5V4H13.3413L13.0427 4.33947L13.7935 5ZM10.5592 8.67622L9.74082 9.25087L10.4709 10.2906L11.31 9.33675L10.5592 8.67622ZM7.97792 5L8.79631 4.42535L8.49765 4H7.97792V5ZM5 5V4H3.07578L4.18164 5.57471L5 5ZM8.90431 10.5596L9.6553 11.2199L10.1749 10.6289L9.72267 9.98488L8.90431 10.5596ZM5 15L4.24901 14.3397L2.78915 16H5V15ZM5.88214 15V16H6.33454L6.63322 15.6602L5.88214 15ZM9.2955 11.1169L10.1139 10.5422L9.38353 9.50207L8.54442 10.4567L9.2955 11.1169ZM12.0221 15L11.2037 15.5747L11.5024 16H12.0221V15ZM15 15V16H16.9239L15.8184 14.4254L15 15ZM9.74387 10.6084L10.5577 10.0273L10.5573 10.0267L9.74387 10.6084ZM9.34768 10.0544L8.53411 10.6359L8.5343 10.6362L9.34768 10.0544ZM6.20027 5.65073V4.65073H4.25639L5.3867 6.2322L6.20027 5.65073ZM7.55542 5.65073L8.36901 5.06929L8.06988 4.65073H7.55542V5.65073ZM10.0962 9.20598L10.9108 8.62587L10.9098 8.62454L10.0962 9.20598ZM10.4908 9.75994L9.67621 10.34L9.67715 10.3414L10.4908 9.75994ZM13.7931 14.381V15.381H15.7368L14.6067 13.7996L13.7931 14.381ZM12.4379 14.381L11.6241 14.9621L11.9232 15.381H12.4379V14.381ZM11.7035 9.89505L15.4266 5.66028L13.9246 4.33972L10.2015 8.57448L11.7035 9.89505ZM14.6756 4H13.7935V6H14.6756V4ZM13.0427 4.33947L9.80842 8.01569L11.31 9.33675L14.5443 5.66053L13.0427 4.33947ZM11.3776 8.10157L8.79631 4.42535L7.15952 5.57465L9.74082 9.25087L11.3776 8.10157ZM7.97792 4H5V6H7.97792V4ZM4.18164 5.57471L8.08595 11.1343L9.72267 9.98488L5.81836 4.42529L4.18164 5.57471ZM8.15333 9.89927L4.24901 14.3397L5.75099 15.6603L9.6553 11.2199L8.15333 9.89927ZM5 16H5.88214V14H5V16ZM6.63322 15.6602L10.0466 11.7771L8.54442 10.4567L5.13107 14.3398L6.63322 15.6602ZM8.4771 11.6915L11.2037 15.5747L12.8405 14.4253L10.1139 10.5422L8.4771 11.6915ZM12.0221 16H15V14H12.0221V16ZM15.8184 14.4254L11.7709 8.66017L10.134 9.80935L14.1816 15.5746L15.8184 14.4254ZM10.5573 10.0267L10.1611 9.4727L8.5343 10.6362L8.93049 11.1901L10.5573 10.0267ZM10.1612 9.47296L7.01383 5.06926L5.3867 6.2322L8.53411 10.6359L10.1612 9.47296ZM6.20027 6.65073H7.55542V4.65073H6.20027V6.65073ZM6.74183 6.23217L9.28264 9.78742L10.9098 8.62454L8.36901 5.06929L6.74183 6.23217ZM9.28169 9.78609L9.67621 10.34L11.3053 9.17983L10.9108 8.62587L9.28169 9.78609ZM9.67715 10.3414L12.9795 14.9624L14.6067 13.7996L11.3044 9.17852L9.67715 10.3414ZM13.7931 13.381H12.4379V15.381H13.7931V13.381ZM13.2517 13.7998L10.5577 10.0273L8.93007 11.1895L11.6241 14.9621L13.2517 13.7998Z" fill="white" mask="url(#path-2-inside-1_1350_8021)"/>
</svg>
