<svg width="19" height="36" viewBox="0 0 19 36" fill="none" xmlns="http://www.w3.org/2000/svg">
<path d="M11.3364 28.013C11.4285 27.7248 9.69714 26.9287 7.4693 26.2349C5.24145 25.5411 3.36075 25.2123 3.26862 25.5005C3.17649 25.7888 4.90783 26.5849 7.13567 27.2787C9.36352 27.9725 11.2442 28.3013 11.3364 28.013Z" fill="url(#paint0_linear_3560_12304)"/>
<path d="M15.6407 0.352539L15.6562 0.357967L15.6407 0.352539Z" fill="url(#paint1_linear_3560_12304)"/>
<path d="M15.598 0.336426L15.6166 0.342616L15.598 0.336426Z" fill="url(#paint2_linear_3560_12304)"/>
<path d="M18.7676 6.87175L18.7641 6.85398V6.84586L18.7586 6.81996L18.7547 6.80141L18.7472 6.7674C18.7441 6.75194 18.7394 6.73068 18.7359 6.71522L18.7241 6.66266C18.7206 6.64681 18.7159 6.62633 18.712 6.61048L18.6999 6.55831C18.6971 6.54594 18.6936 6.53125 18.6901 6.51734V6.50961C18.6901 6.50961 18.6901 6.50961 18.6901 6.5069L18.6842 6.48178L18.6787 6.45937V6.45473L18.6658 6.40255L18.6615 6.38593L18.6525 6.34999C18.6494 6.33723 18.6451 6.321 18.6415 6.30709V6.30052L18.6333 6.27037L18.6282 6.25105V6.24873C18.6239 6.23288 18.6184 6.21201 18.6141 6.19655L18.6 6.14437L18.5855 6.0922L18.5738 6.05045L18.5707 6.04041C18.5707 6.0377 18.5707 6.0377 18.5707 6.035C18.5707 6.035 18.5707 6.035 18.5707 6.035C18.5663 6.01992 18.5609 6.00137 18.5566 5.98707L18.5491 5.96156L18.5417 5.93528L18.526 5.88349L18.5104 5.8317L17.2927 1.85081L17.2883 1.83767L17.2825 1.81873V1.81564C17.2825 1.80907 17.2782 1.8025 17.2762 1.79593V1.79168V1.78975C17.2762 1.78317 17.2719 1.7766 17.2699 1.77042C17.2698 1.76953 17.2698 1.76861 17.2699 1.76772C17.2699 1.76772 17.2699 1.76771 17.2699 1.77003C17.2664 1.75999 17.2633 1.75032 17.2598 1.74066L17.2574 1.73409C17.2532 1.72172 17.2489 1.71013 17.2445 1.69931C17.2414 1.69042 17.2382 1.68191 17.2343 1.67302C17.2198 1.63437 17.21 1.61273 17.2096 1.61234L17.2049 1.60114C17.2049 1.60114 17.2049 1.59688 17.2022 1.59457L17.1873 1.56094C17.1868 1.55933 17.1862 1.55778 17.1854 1.5563C17.1815 1.54741 17.1771 1.53775 17.1725 1.52809V1.52461L17.1697 1.51959C17.1674 1.51418 17.1646 1.50838 17.1619 1.50297C17.161 1.50058 17.16 1.49825 17.1587 1.49601V1.49292V1.49021L17.1548 1.48287L17.1309 1.43533L17.1274 1.42876L17.118 1.41137L17.1028 1.38161C17.0851 1.34682 17.0577 1.30199 17.0374 1.26837C17.0221 1.24324 17.0068 1.21928 16.9916 1.19609L16.9896 1.193V1.19609L16.9669 1.16169L16.9387 1.12304C16.6411 0.674023 16.1993 0.33673 15.6842 0.165311L15.6627 0.157581L15.6525 0.154103L15.6439 0.151011H15.6403L15.6188 0.143667L15.6008 0.137484H15.598L15.5804 0.131686H15.5781L15.5702 0.129367L15.5632 0.127048H15.5585L15.5421 0.122024H15.5389L15.5319 0.120091H15.5264L15.5197 0.118159C15.4849 0.107724 15.4262 0.0911042 15.351 0.074485L15.3432 0.0725526H15.3392L15.3236 0.0690741H15.3208L15.3028 0.0655957L15.284 0.0617308H15.2793H15.2742H15.2711L15.2382 0.0555469L15.2155 0.0516819H15.2112L15.1905 0.0482034L15.1266 0.0389276H15.118H15.1125H15.1055H15.0988L15.0597 0.0342896L15.0205 0.0304247C14.7875 0.00773573 14.5523 0.0163166 14.3216 0.0559333L14.2879 0.0617308H14.2813L14.2421 0.0690741L14.2269 0.0721661L14.1834 0.0818285L14.1936 0.0791229L14.1544 0.0876258L14.1431 0.0907178H14.1395H14.136H14.1333H14.1298L14.0832 0.102313L14.073 0.105018L14.044 0.113134L14.0334 0.11584L14.0115 0.122797C14.0037 0.124729 13.9962 0.127048 13.9884 0.129754H13.9829C13.9673 0.134392 13.9512 0.139803 13.9348 0.145213L13.9175 0.150624H13.9136H13.9074H13.9038L13.8827 0.157968H13.8799C13.8525 0.16763 13.824 0.178065 13.795 0.18966L13.7872 0.192752H13.7848C13.757 0.203574 13.7288 0.215555 13.6998 0.22831L13.6662 0.243383C13.6305 0.259616 13.5828 0.282032 13.5487 0.300584C13.5225 0.314111 13.4911 0.331504 13.4626 0.34735L13.4359 0.362423L13.3862 0.392956L13.3772 0.39798L13.3717 0.401459L13.3459 0.417305L13.3396 0.421557L13.3349 0.424262L13.3267 0.429287L13.2875 0.454408C13.2687 0.466776 13.2539 0.477212 13.2331 0.493058C13.2277 0.49648 13.2224 0.500223 13.2175 0.504266L13.1947 0.520886H13.1924L13.1141 0.581952C12.0232 1.45517 10.9325 2.32813 9.84194 3.20083L9.79966 3.23485L9.75737 3.26924L9.72566 3.29553L9.71548 3.30364L9.67358 3.33843L9.63168 3.37321L9.59018 3.40838L9.54868 3.44355L9.50952 3.47872L9.47037 3.51428L9.43121 3.55022C9.42652 3.55448 9.42103 3.5595 9.41516 3.56414L9.39049 3.58617L9.37052 3.60395C9.33881 3.63216 9.30788 3.65999 9.27851 3.68704L9.2699 3.69477C9.25776 3.7056 9.24171 3.72028 9.23074 3.73149L9.19159 3.77014C9.17984 3.78096 9.16418 3.79604 9.15243 3.80686L9.11328 3.84551L9.07413 3.88416L9.03497 3.92281C8.92886 4.02291 9.27381 4.26215 10.0988 4.62081C11.7922 5.35515 14.8678 6.3152 16.9681 6.76122C18.1822 7.01476 18.8048 7.0422 18.7676 6.87175Z" fill="url(#paint3_radial_3560_12304)"/>
<path d="M10.5479 29.2769C10.5479 29.2769 10.5479 29.2769 10.5479 29.2794C10.5479 29.2785 10.5479 29.2777 10.5479 29.2769Z" fill="url(#paint4_linear_3560_12304)"/>
<path d="M10.9609 27.9433V27.946C10.9611 27.9469 10.9611 27.9478 10.9609 27.9487V27.9514C10.9608 27.9523 10.9608 27.9532 10.9609 27.9541C10.9609 27.9541 10.9609 27.9541 10.9609 27.9565L10.9217 28.0759C10.9217 28.0759 10.5529 29.2601 10.5486 29.274C10.4511 29.1886 10.2475 29.2176 10.2921 29.1581C10.4033 29.012 9.93113 29.0383 9.74005 29.01C9.76237 29.01 9.75572 28.9745 9.74005 28.959C9.69144 28.9106 9.63261 28.8734 9.56777 28.85C9.56182 28.8466 9.55507 28.8449 9.5482 28.8449C9.54132 28.8449 9.53457 28.8466 9.52862 28.85C9.51844 28.8585 9.51844 28.874 9.50982 28.8837C9.49534 28.8999 9.47067 28.8906 9.45031 28.8802L9.31523 28.8071C9.30818 28.8485 9.24514 28.8396 9.20794 28.8195C9.08656 28.7546 8.96284 28.6711 8.83363 28.6235C8.71146 28.5783 8.57521 28.5501 8.44913 28.5142C8.18092 28.4369 7.91585 28.353 7.64803 28.2776C6.89939 28.0237 6.39822 27.8525 5.63275 27.6546C5.31129 27.5707 4.89664 27.3841 4.57283 27.311C4.31246 27.2515 4.19852 27.0737 3.93462 27.0327C3.71692 26.9991 3.82107 27.1062 3.60807 27.1831C3.60454 27.1831 3.17932 26.9937 3.17737 26.9952C3.16464 26.9996 3.15339 27.0074 3.14487 27.0177C3.14321 27.0195 3.14188 27.0216 3.14095 27.0238C3.13959 27.026 3.13853 27.0284 3.13782 27.0308C3.13765 27.0293 3.13765 27.0277 3.13782 27.0262L3.51449 25.8161L3.54816 25.7074C3.55164 25.6991 3.55697 25.6917 3.56374 25.6857C3.57052 25.6797 3.57857 25.6752 3.58731 25.6727C3.74393 25.6062 3.95498 25.6588 4.11394 25.68C4.34417 25.7102 4.57362 25.7488 4.80189 25.7936C5.2506 25.8814 5.69461 25.9923 6.13588 26.1113C7.09517 26.369 8.04349 26.6626 8.98085 26.9922C9.3767 27.1317 9.77099 27.2774 10.1555 27.4501C10.3513 27.5379 10.5408 27.6326 10.7264 27.7365C10.8117 27.7841 10.9284 27.8293 10.9613 27.9298C10.9613 27.9298 10.9613 27.9317 10.9613 27.9329C10.9615 27.9338 10.9615 27.9347 10.9613 27.9356C10.9613 27.9356 10.9613 27.9356 10.9613 27.9387C10.9607 27.9401 10.9605 27.9418 10.9609 27.9433Z" fill="url(#paint5_radial_3560_12304)"/>
<path d="M10.5467 29.2799C10.6099 29.0769 9.00219 28.4092 6.95579 27.7885C4.90939 27.1678 3.19923 26.8293 3.13603 27.0323C3.07284 27.2353 4.68054 27.903 6.72694 28.5237C8.77334 29.1444 10.4835 29.4829 10.5467 29.2799Z" fill="url(#paint6_linear_3560_12304)"/>
<path d="M11.3144 27.7585C11.2153 27.6741 11.1053 27.6132 10.9935 27.5597L10.9933 27.5596C9.74051 26.963 8.41314 26.5375 7.08953 26.1483C7.08956 26.1483 7.0896 26.1483 7.08963 26.1483L11.3144 27.7585ZM11.3144 27.7585C11.3344 27.7194 11.3539 27.6775 11.3734 27.633C11.3897 27.5958 11.4067 27.5549 11.4242 27.513C11.4542 27.4412 11.4854 27.3663 11.5162 27.302L11.3144 27.7585ZM11.8427 26.6184L11.5162 27.3019L3.80466 25.3788C3.69713 25.3638 3.59848 25.3667 3.50873 25.3729C3.47641 25.3752 3.44664 25.3777 3.41813 25.3801C3.41771 25.3801 3.41728 25.3802 3.41685 25.3802C3.42712 25.2607 3.44735 25.136 3.47174 25.0073C3.48392 24.9431 3.49743 24.8766 3.51107 24.8094C3.53585 24.6875 3.56107 24.5633 3.57959 24.4465C3.57959 24.4465 3.57959 24.4465 3.57959 24.4465L3.93511 22.2072L4.39557 19.3085L4.39557 19.3085L4.88461 16.2281L5.32741 13.4398L5.32745 13.4396L5.652 11.4165L5.65203 11.4163L5.77615 10.636L5.77799 10.6244V10.6185C5.77858 10.6151 5.77914 10.612 5.77975 10.6086C5.78089 10.6023 5.78221 10.595 5.78424 10.5827L5.7866 10.5695L5.78831 10.5596L5.79047 10.5471L5.79179 10.5391L5.79429 10.5258L5.79587 10.5173L5.79667 10.5124L5.79704 10.5108C5.79762 10.5083 5.7988 10.503 5.7998 10.4966C5.80034 10.4931 5.80088 10.489 5.80128 10.4843C6.21131 8.20235 7.2975 6.06443 8.93578 4.40081L8.9358 4.40078C9.017 4.31829 9.07969 4.26124 9.15018 4.23495C9.22386 4.21385 9.30107 4.20722 9.37741 4.21546L9.37739 4.21571L9.38599 4.21614C10.2784 4.26049 11.1819 4.50046 12.0677 4.73572C12.1586 4.75985 12.2493 4.78394 12.3398 4.80776C13.35 5.07456 14.3511 5.3843 15.3457 5.7149C16.3764 6.05777 17.398 6.42233 18.353 6.91563C18.512 6.99785 18.5911 7.11032 18.64 7.2503C18.6821 7.37102 18.7 7.50389 18.7209 7.65978C18.7263 7.70005 18.7319 7.74186 18.7382 7.78539C18.7809 8.0821 18.8116 8.37996 18.8301 8.67895C18.8399 8.83788 18.8463 8.99707 18.8494 9.15652C18.8669 10.0569 18.7774 10.9561 18.5828 11.8359L18.5827 11.836C18.3349 12.9586 17.8787 13.9844 17.378 15.0315L17.378 15.0316L15.1638 19.6656L15.1638 19.6656L12.4962 25.2477L12.4962 25.2479L11.8427 26.6183L11.8427 26.6184ZM5.79761 10.5068C5.79736 10.5085 5.79711 10.5099 5.79689 10.5111L5.79761 10.5068Z" fill="url(#paint7_linear_3560_12304)" stroke="url(#paint8_radial_3560_12304)" stroke-width="0.297104"/>
<path d="M18.8112 7.29492C18.8112 7.30276 18.8135 7.3106 18.8151 7.31883L18.8112 7.29492Z" fill="url(#paint9_linear_3560_12304)"/>
<path d="M4.47103 18.2597C4.40674 18.5739 4.31226 18.8816 4.26208 19.1989L4.59255 17.1191C4.53297 17.4971 4.54825 17.8832 4.47103 18.2597Z" fill="url(#paint10_linear_3560_12304)"/>
<path d="M14.2073 22.0112C14.2771 21.8535 14.37 21.6432 14.4323 21.4828C14.5668 21.1531 14.7588 20.8521 14.9145 20.5332L14.2088 22.0112" fill="url(#paint11_linear_3560_12304)"/>
<path d="M12.0959 15.6615C13.9161 15.6615 15.3916 14.205 15.3916 12.4084C15.3916 10.6117 13.9161 9.15527 12.0959 9.15527C10.2758 9.15527 8.80029 10.6117 8.80029 12.4084C8.80029 14.205 10.2758 15.6615 12.0959 15.6615Z" fill="url(#paint12_radial_3560_12304)"/>
<path opacity="0.9" d="M14.4738 12.4084C14.4729 13.0111 14.2371 13.5903 13.8153 14.0261C13.3936 14.4619 12.8182 14.7208 12.2083 14.7493C11.5984 14.7778 11.0008 14.5736 10.5393 14.179C10.0777 13.7844 9.78763 13.2297 9.72908 12.6298C9.72203 12.5569 9.71851 12.4831 9.71851 12.4084C9.72653 11.7911 9.98056 11.2018 10.4256 10.7682C10.8706 10.3345 11.4708 10.0913 12.0962 10.0913C12.7215 10.0913 13.3217 10.3345 13.7667 10.7682C14.2118 11.2018 14.4658 11.7911 14.4738 12.4084Z" fill="url(#paint13_linear_3560_12304)"/>
<path d="M13.0855 10.6498C13.2767 10.6799 13.4559 10.7617 13.6031 10.8859C13.7544 11.0074 13.88 11.1571 13.9727 11.3265C14.0174 11.4114 14.0545 11.5 14.0835 11.5913C14.096 11.6373 14.1121 11.6825 14.1227 11.7285C14.1332 11.7745 14.1395 11.822 14.1462 11.8684C14.1489 11.892 14.1536 11.9148 14.1552 11.9384C14.1567 11.9619 14.1579 11.9851 14.1579 12.0087V12.1486C14.1505 12.2416 14.1358 12.3338 14.1141 12.4246C14.1135 12.4265 14.1122 12.4282 14.1105 12.4293C14.1088 12.4303 14.1067 12.4307 14.1047 12.4304C14.103 12.4301 14.1015 12.4292 14.1004 12.428C14.0993 12.4267 14.0988 12.4251 14.0988 12.4234C14.0902 12.3349 14.0855 12.2456 14.0745 12.1575L14.0522 12.0257L14.0412 11.96C14.0369 11.938 14.0299 11.9167 14.0248 11.8955L13.9899 11.7664C13.9778 11.7235 13.9598 11.6829 13.9453 11.6408L13.9218 11.5785C13.9144 11.5573 13.903 11.538 13.894 11.5179C13.874 11.4792 13.8548 11.4375 13.8349 11.398C13.7499 11.2418 13.6425 11.0986 13.5158 10.9729C13.3898 10.8458 13.2425 10.7412 13.0804 10.6637C13.0785 10.6628 13.077 10.6612 13.0763 10.6593C13.0756 10.6573 13.0756 10.6552 13.0765 10.6533C13.0772 10.6518 13.0784 10.6506 13.0799 10.6498C13.0813 10.649 13.083 10.6488 13.0847 10.649L13.0855 10.6498Z" fill="url(#paint14_linear_3560_12304)"/>
<path d="M16.6127 16.7547L16.6128 16.7547L16.6149 16.7495C16.6416 16.6841 16.6894 16.6614 16.7235 16.6596L18.4171 18.622C18.5525 19.0317 18.5992 19.465 18.554 19.8938L18.5539 19.8947L18.2176 23.2668C18.2176 23.2668 18.2176 23.2668 18.2176 23.2668C18.1876 23.5673 18.0297 23.8221 17.8203 23.977C17.6114 24.1315 17.3609 24.1808 17.1355 24.0936L13.9383 22.7803C13.9383 22.7802 13.9382 22.7802 13.9382 22.7802C13.9332 22.7781 13.9247 22.772 13.9194 22.755C13.914 22.7375 13.914 22.7129 13.9256 22.6877L13.9259 22.687L16.6127 16.7547Z" fill="url(#paint15_radial_3560_12304)" stroke="url(#paint16_linear_3560_12304)" stroke-width="0.297104"/>
<path d="M5.1541 13.7019L5.15421 13.7019C5.16781 13.6368 5.14327 13.5958 5.11868 13.577L2.65711 14.274C2.32144 14.5363 2.04545 14.8653 1.84706 15.2396L1.84666 15.2404L1.84666 15.2404L0.268344 18.1777C0.128103 18.4387 0.117447 18.7302 0.202846 18.9672C0.287979 19.2034 0.463929 19.3765 0.694578 19.4254L4.02784 20.0625C4.02786 20.0625 4.02788 20.0625 4.0279 20.0625C4.0331 20.0635 4.0431 20.0631 4.05655 20.0522C4.07032 20.0411 4.08385 20.0211 4.08854 19.9938L5.1541 13.7019ZM5.1541 13.7019L5.15315 13.7075L4.08856 19.9937L5.1541 13.7019Z" fill="url(#paint17_radial_3560_12304)" stroke="url(#paint18_linear_3560_12304)" stroke-width="0.297104"/>
<path d="M18.6561 6.38445C16.7571 5.25087 14.3883 4.54861 12.624 4.14279C11.2904 3.83668 10.1212 3.65658 9.3988 3.56305C9.40468 3.55841 9.41016 3.55338 9.41486 3.54913L9.45401 3.51319L9.49317 3.47763L9.53232 3.44246L9.57383 3.40729L9.61533 3.37212L9.65722 3.33733L9.69912 3.30255L9.7093 3.29443C10.4431 3.39724 11.4998 3.57039 12.685 3.8421C14.3875 4.23245 16.6502 4.89838 18.5347 5.95931L18.5422 5.98482C18.5465 5.99912 18.552 6.01767 18.5563 6.03274C18.5563 6.03545 18.5563 6.03545 18.5563 6.03815L18.5594 6.0482L18.5711 6.08994L18.5856 6.14212L18.5997 6.1943C18.604 6.20976 18.6095 6.23063 18.6138 6.24647V6.24879L18.6189 6.26812L18.6271 6.29826V6.30483C18.6307 6.31875 18.635 6.33498 18.6381 6.34774L18.6561 6.38445Z" fill="url(#paint19_linear_3560_12304)"/>
<path d="M4.4339 33.4349L3.58011 34.8134C3.55137 34.8598 3.5091 34.8941 3.46021 34.9107C3.41131 34.9274 3.35869 34.9255 3.31095 34.9052C3.2632 34.8849 3.22317 34.8475 3.19738 34.7992C3.1716 34.7508 3.1616 34.6943 3.16901 34.6389L3.60599 31.3416C3.58996 30.9119 3.67001 30.4844 3.83922 30.0961C4.00843 29.7079 4.26169 29.3705 4.57706 29.1134C4.89243 28.8562 5.26041 28.687 5.64911 28.6203C6.03782 28.5537 6.43552 28.5916 6.80779 28.7309C7.18005 28.8701 7.51564 29.1065 7.78549 29.4195C8.05534 29.7324 8.25132 30.1126 8.35643 30.5271C8.46155 30.9415 8.47264 31.3777 8.38875 31.7979C8.30485 32.2181 8.12851 32.6096 7.87498 32.9385L6.37344 35.8385C6.34827 35.8874 6.30866 35.9255 6.26109 35.9465C6.21352 35.9675 6.16083 35.9703 6.11166 35.9542C6.06249 35.9382 6.01977 35.9044 5.9905 35.8583C5.96122 35.8123 5.94714 35.7567 5.95057 35.7008L6.04738 34.0382C6.04807 34.028 6.04571 34.0178 6.04065 34.0092C6.03559 34.0006 6.0281 33.9941 6.01933 33.9905C6.01056 33.987 6.00097 33.9867 5.99202 33.9897C5.98307 33.9926 5.97525 33.9987 5.96973 34.0069L4.64937 35.9543C4.63647 35.9735 4.61827 35.9878 4.59744 35.995C4.5766 36.0021 4.55421 36.0018 4.53354 35.9941C4.51287 35.9864 4.49499 35.9717 4.4825 35.9521C4.47002 35.9325 4.4636 35.9091 4.46416 35.8852L4.51256 33.4602C4.51237 33.4502 4.50928 33.4406 4.50373 33.4326C4.49818 33.4247 4.49047 33.4189 4.48171 33.4161C4.47295 33.4133 4.4636 33.4136 4.45501 33.4169C4.44641 33.4203 4.43902 33.4266 4.4339 33.4349Z" fill="url(#paint20_radial_3560_12304)"/>
<defs>
<linearGradient id="paint0_linear_3560_12304" x1="7.11584" y1="27.3407" x2="7.50685" y2="26.0986" gradientUnits="userSpaceOnUse">
<stop stop-color="#4BF2A2"/>
<stop offset="0.522948" stop-color="#A89FE7"/>
<stop offset="0.669499" stop-color="#E1C4F4"/>
<stop offset="1" stop-color="#DD40CD"/>
</linearGradient>
<linearGradient id="paint1_linear_3560_12304" x1="15.6398" y1="0.355253" x2="15.6581" y2="0.356479" gradientUnits="userSpaceOnUse">
<stop stop-color="#4BF2A2"/>
<stop offset="0.522948" stop-color="#A89FE7"/>
<stop offset="0.669499" stop-color="#E1C4F4"/>
<stop offset="1" stop-color="#DD40CD"/>
</linearGradient>
<linearGradient id="paint2_linear_3560_12304" x1="15.5969" y1="0.339521" x2="15.6189" y2="0.341074" gradientUnits="userSpaceOnUse">
<stop stop-color="#4BF2A2"/>
<stop offset="0.522948" stop-color="#A89FE7"/>
<stop offset="0.669499" stop-color="#E1C4F4"/>
<stop offset="1" stop-color="#DD40CD"/>
</linearGradient>
<radialGradient id="paint3_radial_3560_12304" cx="0" cy="0" r="1" gradientUnits="userSpaceOnUse" gradientTransform="translate(10.679 2.59535) rotate(55.4024) scale(14.7192 141.163)">
<stop stop-color="#4BF2A2"/>
<stop offset="0.421875" stop-color="#564D8F"/>
<stop offset="1" stop-color="#DD40CD"/>
</radialGradient>
<linearGradient id="paint4_linear_3560_12304" x1="10.5478" y1="29.2781" x2="10.5479" y2="29.2781" gradientUnits="userSpaceOnUse">
<stop stop-color="#4BF2A2"/>
<stop offset="0.522948" stop-color="#A89FE7"/>
<stop offset="0.669499" stop-color="#E1C4F4"/>
<stop offset="1" stop-color="#DD40CD"/>
</linearGradient>
<radialGradient id="paint5_radial_3560_12304" cx="0" cy="0" r="1" gradientUnits="userSpaceOnUse" gradientTransform="translate(4.47153 26.9854) rotate(43.3294) scale(9.2168 94.3982)">
<stop stop-color="#4BF2A2"/>
<stop offset="0.421875" stop-color="#564D8F"/>
<stop offset="1" stop-color="#DD40CD"/>
</radialGradient>
<linearGradient id="paint6_linear_3560_12304" x1="6.71333" y1="28.5674" x2="6.98096" y2="27.6924" gradientUnits="userSpaceOnUse">
<stop stop-color="#4BF2A2"/>
<stop offset="0.522948" stop-color="#A89FE7"/>
<stop offset="0.669499" stop-color="#E1C4F4"/>
<stop offset="1" stop-color="#DD40CD"/>
</linearGradient>
<linearGradient id="paint7_linear_3560_12304" x1="2.32544" y1="16.0315" x2="21.0248" y2="16.3213" gradientUnits="userSpaceOnUse">
<stop stop-color="#4BF2A2"/>
<stop offset="0.522948" stop-color="#A89FE7"/>
<stop offset="0.669499" stop-color="#E1C4F4"/>
<stop offset="1" stop-color="#DD40CD"/>
</linearGradient>
<radialGradient id="paint8_radial_3560_12304" cx="0" cy="0" r="1" gradientUnits="userSpaceOnUse" gradientTransform="translate(5.94429 12.9249) rotate(72.06) scale(43.7878 263.294)">
<stop stop-color="#4BF2A2"/>
<stop offset="0.421875" stop-color="#564D8F"/>
<stop offset="1" stop-color="#DD40CD"/>
</radialGradient>
<linearGradient id="paint9_linear_3560_12304" x1="18.8109" y1="7.30688" x2="18.8156" y2="7.3069" gradientUnits="userSpaceOnUse">
<stop stop-color="#4BF2A2"/>
<stop offset="0.522948" stop-color="#A89FE7"/>
<stop offset="0.669499" stop-color="#E1C4F4"/>
<stop offset="1" stop-color="#DD40CD"/>
</linearGradient>
<linearGradient id="paint10_linear_3560_12304" x1="4.24244" y1="18.159" x2="4.63515" y2="18.1605" gradientUnits="userSpaceOnUse">
<stop stop-color="#4BF2A2"/>
<stop offset="0.522948" stop-color="#A89FE7"/>
<stop offset="0.669499" stop-color="#E1C4F4"/>
<stop offset="1" stop-color="#DD40CD"/>
</linearGradient>
<linearGradient id="paint11_linear_3560_12304" x1="14.1652" y1="21.2722" x2="15.0055" y2="21.2817" gradientUnits="userSpaceOnUse">
<stop stop-color="#4BF2A2"/>
<stop offset="0.522948" stop-color="#A89FE7"/>
<stop offset="0.669499" stop-color="#E1C4F4"/>
<stop offset="1" stop-color="#DD40CD"/>
</linearGradient>
<radialGradient id="paint12_radial_3560_12304" cx="0" cy="0" r="1" gradientUnits="userSpaceOnUse" gradientTransform="translate(9.92401 11.564) rotate(63.4895) scale(12.6542 103.711)">
<stop stop-color="#4BF2A2"/>
<stop offset="0.421875" stop-color="#564D8F"/>
<stop offset="1" stop-color="#DD40CD"/>
</radialGradient>
<linearGradient id="paint13_linear_3560_12304" x1="9.43585" y1="12.4216" x2="15.0836" y2="12.5575" gradientUnits="userSpaceOnUse">
<stop stop-color="#DD40CD"/>
<stop offset="0.522948" stop-color="#E3DFFF"/>
<stop offset="0.669499" stop-color="#E1C4F4"/>
<stop offset="1" stop-color="#4BF2A2"/>
</linearGradient>
<linearGradient id="paint14_linear_3560_12304" x1="13.0115" y1="11.5397" x2="14.2972" y2="11.5581" gradientUnits="userSpaceOnUse">
<stop stop-color="#4BF2A2"/>
<stop offset="0.522948" stop-color="#A89FE7"/>
<stop offset="0.669499" stop-color="#E1C4F4"/>
<stop offset="1" stop-color="#DD40CD"/>
</linearGradient>
<radialGradient id="paint15_radial_3560_12304" cx="0" cy="0" r="1" gradientUnits="userSpaceOnUse" gradientTransform="translate(16 19) rotate(71.5651) scale(7.90569 13.1279)">
<stop stop-color="#4BF2A2"/>
<stop offset="0.421875" stop-color="#564D8F"/>
<stop offset="1" stop-color="#DD40CD"/>
</radialGradient>
<linearGradient id="paint16_linear_3560_12304" x1="13.473" y1="20.3977" x2="19.3564" y2="20.486" gradientUnits="userSpaceOnUse">
<stop stop-color="#4BF2A2"/>
<stop offset="0.522948" stop-color="#A89FE7"/>
<stop offset="0.669499" stop-color="#E1C4F4"/>
<stop offset="1" stop-color="#DD40CD"/>
</linearGradient>
<radialGradient id="paint17_radial_3560_12304" cx="0" cy="0" r="1" gradientUnits="userSpaceOnUse" gradientTransform="translate(0.904648 15.9345) rotate(68.9569) scale(12.6638 8.25243)">
<stop stop-color="#4BF2A2"/>
<stop offset="0.421875" stop-color="#564D8F"/>
<stop offset="1" stop-color="#DD40CD"/>
</radialGradient>
<linearGradient id="paint18_linear_3560_12304" x1="-0.315409" y1="16.8159" x2="5.98827" y2="16.932" gradientUnits="userSpaceOnUse">
<stop stop-color="#4BF2A2"/>
<stop offset="0.522948" stop-color="#A89FE7"/>
<stop offset="0.669499" stop-color="#E1C4F4"/>
<stop offset="1" stop-color="#DD40CD"/>
</linearGradient>
<linearGradient id="paint19_linear_3560_12304" x1="8.84854" y1="4.83944" x2="19.795" y2="5.61257" gradientUnits="userSpaceOnUse">
<stop stop-color="#4BF2A2"/>
<stop offset="0.522948" stop-color="#A89FE7"/>
<stop offset="0.669499" stop-color="#E1C4F4"/>
<stop offset="1" stop-color="#DD40CD"/>
</linearGradient>
<radialGradient id="paint20_radial_3560_12304" cx="0" cy="0" r="1" gradientUnits="userSpaceOnUse" gradientTransform="translate(5.27774 32.2943) rotate(28.3696) scale(4.33293 4.46431)">
<stop stop-color="#4BF2A2"/>
<stop offset="0.522948" stop-color="#A89FE7"/>
<stop offset="0.669499" stop-color="#E1C4F4"/>
<stop offset="1" stop-color="#DD40CD"/>
</radialGradient>
</defs>
</svg>
