<svg width="28" height="24" viewBox="0 0 28 24" fill="none" xmlns="http://www.w3.org/2000/svg">
<path d="M27.9883 3.3324L23.3493 0.347413C23.2651 0.292758 22.5136 0.234809 21.0702 0.182129L24.5694 3.0848C26.7345 3.16382 27.8621 3.25074 27.9883 3.3324Z" fill="#7E428C"/>
<path d="M24.5695 3.0862L21.0703 0.183534C17.6921 0.0610524 11.8051 0.0149575 7.9208 0.0808076C5.90712 0.11505 4.82681 0.172339 4.72389 0.236872L0.0505371 3.16588C0.205237 3.06908 1.82538 2.98282 4.84558 2.93146C10.6711 2.83268 19.5032 2.90248 24.5695 3.0862Z" fill="#7E428C"/>
<path d="M27.9624 9.86557L28.0006 3.34641C28.0006 3.2608 26.8724 3.16795 24.57 3.08301L24.5325 9.60217C26.8348 9.6858 27.9631 9.77864 27.9631 9.86557" fill="#7E428C"/>
<path d="M24.5319 9.60337L24.5694 3.08421L23.9869 3.06445L23.9493 9.58361L24.5319 9.60402" fill="#7E428C"/>
<path d="M23.9519 9.58366L23.9895 3.0645C23.4775 3.04738 22.9338 3.03158 22.3629 3.01709L22.3253 9.53625C22.8956 9.55074 23.4399 9.56654 23.9519 9.583" fill="#894899"/>
<path d="M22.3233 9.53582L22.3609 3.01666C21.8832 3.00481 21.3867 2.99296 20.8721 2.98242L20.8346 9.50158C21.3459 9.51277 21.8424 9.52397 22.3233 9.53648" fill="#954EA6"/>
<path d="M20.8391 9.50043L20.8767 2.98127C20.4054 2.97117 19.9226 2.96195 19.428 2.95361L19.3905 9.47277L20.8391 9.49977" fill="#A054B3"/>
<path d="M19.3904 9.47382L19.428 2.95467L18.0318 2.93359L17.9943 9.45275C18.4668 9.45934 18.9322 9.46658 19.3904 9.47448" fill="#AC5ABF"/>
<path d="M17.9944 9.4513L18.0319 2.93214C17.6354 2.92599 17.234 2.92094 16.828 2.91699L16.7898 9.43615L17.9944 9.4513Z" fill="#B760CC"/>
<path d="M16.7897 9.43643L16.8279 2.91727L15.8447 2.90674L15.8065 9.4259C16.1358 9.42853 16.4635 9.43182 16.7897 9.43577" fill="#C366D9"/>
<path d="M15.8066 9.42679L15.8448 2.90764L15.0279 2.90039L14.9904 9.41955L15.8066 9.42679Z" fill="#CE6CE6"/>
<path d="M14.9903 9.41927L15.0279 2.90012L14.3521 2.89551L14.3146 9.41467L14.9903 9.41993" fill="#DA72F2"/>
<path d="M14.3145 9.41227L14.3521 2.89311L13.6944 2.88916L13.6562 9.40832L14.3145 9.41227Z" fill="#E578FF"/>
<path d="M13.6563 9.41064L13.6945 2.89148L13.0589 2.88818L13.0207 9.40734H13.6563" fill="#EA92FF"/>
<path d="M13.0206 9.40783L13.0588 2.88867H12.3299L12.2917 9.40783H13.0206Z" fill="#EC9CFF"/>
<path d="M12.2904 9.40588L12.3286 2.88672H11.3137L11.2755 9.40588H12.2904Z" fill="#EEA4FF"/>
<path d="M11.2768 9.40344L11.315 2.88428C10.7266 2.88428 10.1434 2.88428 9.56736 2.88428L9.52917 9.40344C10.1027 9.40344 10.6859 9.40344 11.2768 9.40344Z" fill="#EFABFF"/>
<path d="M9.53177 9.4049L9.56996 2.88574C9.22949 2.88574 8.89268 2.88706 8.55955 2.88969L8.52136 9.40885L9.53177 9.40424" fill="#EEA4FF"/>
<path d="M8.52133 9.40783L8.55952 2.88867L7.76984 2.89328L7.7323 9.41244L8.52133 9.40783Z" fill="#EC9CFF"/>
<path d="M7.73238 9.4132L7.76992 2.89404L6.93622 2.90129L6.89868 9.42045L7.73238 9.4132Z" fill="#EA92FF"/>
<path d="M6.89869 9.42053L6.93624 2.90137L5.93101 2.91256L5.89282 9.43172C6.22099 9.42777 6.55693 9.42382 6.89869 9.42118" fill="#E578FF"/>
<path d="M5.89273 9.43127L5.93092 2.91211C5.55895 2.91694 5.19713 2.92221 4.84544 2.92791L4.5438 2.93318L4.50562 9.45234L4.80725 9.44707L5.89273 9.43061" fill="#DA72F2"/>
<path d="M4.50564 9.45129L4.54383 2.93213C4.02601 2.94179 3.55134 2.95232 3.11982 2.96374L3.08228 9.4829C3.51379 9.47104 3.98847 9.46051 4.50629 9.45129" fill="#CE6CE6"/>
<path d="M3.07987 9.48547L3.11741 2.96631C2.72904 2.97684 2.38081 2.98804 2.06688 2.99989L2.02869 9.51905C2.34326 9.5072 2.69366 9.49622 3.07987 9.48612" fill="#C366D9"/>
<path d="M2.02853 9.51672L2.06672 2.99756C1.77803 3.00809 1.51912 3.01929 1.28998 3.03114L1.25244 9.5503C1.47942 9.53845 1.73725 9.52703 2.02594 9.51606" fill="#B760CC"/>
<path d="M1.25506 9.55138L1.2926 3.03223C1.0708 3.04408 0.87791 3.05615 0.713933 3.06844L0.676392 9.5876C0.839506 9.57509 1.03304 9.56258 1.25506 9.55138Z" fill="#AC5ABF"/>
<path d="M0.676355 9.58801L0.713896 3.06885C0.545172 3.08202 0.40795 3.09519 0.302227 3.10836L0.264038 9.62752C0.369545 9.61369 0.507415 9.60052 0.676355 9.58801Z" fill="#A054B3"/>
<path d="M0.264113 9.62804L0.302302 3.10889C0.223595 3.11644 0.145781 3.13165 0.0699295 3.15432L0.0317383 9.67348C0.107589 9.65094 0.185413 9.63594 0.264113 9.6287" fill="#954EA6"/>
<path d="M0.0316785 9.67248L0.0698697 3.15332C0.0485095 3.16122 0.0381517 3.16978 0.0381517 3.17769L0.000610352 9.69684C0.000610352 9.68828 0.0109656 9.68038 0.0316785 9.67182" fill="#894899"/>
<path d="M13.899 23.9999L24.5319 9.60244L24.3901 9.59717L13.899 23.9999Z" fill="#894899"/>
<path d="M13.899 23.9997L24.3901 9.59694C23.8678 9.57851 23.3066 9.56138 22.7143 9.54492L13.899 23.9997Z" fill="#954EA6"/>
<path d="M13.899 24L22.7118 9.54522C22.1648 9.53073 21.592 9.51691 20.9971 9.50439L13.899 24Z" fill="#A054B3"/>
<path d="M13.899 23.9997L20.9997 9.50414C20.41 9.49163 19.7996 9.47977 19.1737 9.46924L13.899 23.9997Z" fill="#AC5ABF"/>
<path d="M13.899 23.9992L19.1737 9.46874C18.5161 9.45821 17.8416 9.44833 17.1562 9.44043L13.899 23.9992Z" fill="#B760CC"/>
<path d="M13.899 23.9993L17.1561 9.44053C16.3794 9.43065 15.5949 9.42341 14.8039 9.41748L13.8977 23.9993" fill="#C366D9"/>
<path d="M13.899 24.0008L14.8052 9.41895C13.7243 9.41039 12.6355 9.40578 11.563 9.40381L13.9003 24.0008" fill="#CE6CE6"/>
<path d="M13.8991 24.0008L11.5617 9.40381C9.34674 9.40381 7.19907 9.41237 5.3252 9.44003L13.8991 24.0008Z" fill="#DA72F2"/>
<path d="M13.899 24.0002L5.32512 9.43945L4.8073 9.44801C4.08321 9.45987 3.4396 9.47391 2.87646 9.49016L13.899 24.0002Z" fill="#CE6CE6"/>
<path d="M13.8991 23.9993L2.87657 9.48926C2.37989 9.50374 1.94707 9.51911 1.57812 9.53535L13.8991 23.9993Z" fill="#C366D9"/>
<path d="M13.8991 23.9991L1.57812 9.53516C1.24887 9.55008 0.970754 9.56567 0.743774 9.58191L13.8991 23.9991Z" fill="#B760CC"/>
<path d="M13.899 23.9992L0.743712 9.58203C0.523637 9.59784 0.351462 9.6143 0.229126 9.63142L13.899 23.9992Z" fill="#AC5ABF"/>
<path d="M13.899 24.0002L0.229096 9.63232C0.152403 9.6359 0.0770692 9.65422 0.00708008 9.68632L13.899 24.0002Z" fill="#A054B3"/>
<path d="M13.899 23.9994L0.00713209 9.68555C0.00539491 9.68668 0.00396408 9.68824 0.002974 9.69008C0.00198393 9.69192 0.00146484 9.69398 0.00146484 9.69608C0.00146484 9.69818 0.00198393 9.70025 0.002974 9.70209C0.00396408 9.70393 0.00539491 9.70549 0.00713209 9.70662L13.899 23.9994Z" fill="#954EA6"/>
<path d="M0.050531 3.16534L4.72389 0.236328C4.65916 0.276497 4.97244 0.3193 5.6728 0.360786L1.47325 3.35235C0.423365 3.2898 -0.0452656 3.22526 0.0492371 3.16534" fill="url(#paint0_linear_3560_13476)"/>
<path d="M1.47327 3.35205L5.67281 0.36377C6.02062 0.383964 6.464 0.404158 7.00297 0.424352H7.07806L3.58275 3.44753L3.47077 3.44358C2.66038 3.41416 1.99497 3.38387 1.47456 3.35271" fill="url(#paint1_linear_3560_13476)"/>
<path d="M3.5815 3.44701L7.0768 0.423828C7.54673 0.440949 8.06261 0.456093 8.61474 0.469922L5.8871 3.51549C5.05923 3.49507 4.28444 3.47203 3.5802 3.44964" fill="url(#paint2_linear_3560_13476)"/>
<path d="M5.88831 3.51578L8.61594 0.470215C9.15254 0.483385 9.72343 0.495238 10.3157 0.505774L8.43858 3.56978C7.54922 3.55397 6.69093 3.53619 5.88831 3.51578Z" fill="url(#paint3_linear_3560_13476)"/>
<path d="M8.4386 3.56938L10.3157 0.505371C10.9682 0.516566 11.6472 0.526443 12.3391 0.533686L11.4724 3.61152C10.4367 3.60033 9.41664 3.5865 8.4386 3.56938Z" fill="url(#paint4_linear_3560_13476)"/>
<path d="M11.4724 3.61104L12.3391 0.533203C13.2867 0.543739 14.2589 0.550325 15.2176 0.552959L15.7911 3.64067C14.3528 3.63672 12.8945 3.62684 11.4724 3.61104Z" fill="url(#paint5_linear_3560_13476)"/>
<path d="M15.791 3.64061L15.2175 0.5529C16.9846 0.557509 18.707 0.54829 20.1524 0.523926H20.3136L23.4347 3.59583L23.1933 3.59978C21.0256 3.63666 18.4416 3.64983 15.791 3.64324" fill="url(#paint6_linear_3560_13476)"/>
<path d="M23.4348 3.59458L20.3169 0.522679C21.0451 0.509509 21.6451 0.493047 22.1137 0.474609L26.1301 3.52544C25.4272 3.55398 24.5287 3.57812 23.4348 3.59788" fill="url(#paint7_linear_3560_13476)"/>
<path fill-rule="evenodd" clip-rule="evenodd" d="M27.9496 3.3789L23.3235 0.378118C23.3571 0.367582 23.3656 0.357704 23.3494 0.347168L27.9884 3.33215C28.013 3.34795 28.0001 3.3631 27.9496 3.3789ZM26.1301 3.5243L22.1105 0.47676C22.4647 0.462294 22.7446 0.447171 22.951 0.430736L22.9493 0.429588C23.0752 0.423953 23.2003 0.407654 23.3235 0.380859L27.9496 3.38165C27.765 3.42123 27.5777 3.44566 27.3893 3.4547L27.391 3.45582C27.0855 3.47996 26.666 3.50191 26.1327 3.52167L26.1301 3.5243ZM27.3884 3.45405V3.45277L24.5045 1.48869L27.3884 3.45405Z" fill="url(#paint8_radial_3560_13476)"/>
<path d="M23.3581 0.358135C23.3589 0.222484 19.1865 0.0873227 14.0389 0.056246C8.8912 0.0251692 4.71756 0.109946 4.71676 0.245596C4.71597 0.381246 8.88833 0.516404 14.036 0.54748C19.1836 0.578557 23.3573 0.493785 23.3581 0.358135Z" fill="url(#paint9_radial_3560_13476)"/>
<path d="M13.899 24.0008L0.00512695 9.70801C0.0860368 9.79098 1.21489 9.87988 3.43118 9.96087C5.86171 10.0491 9.15895 10.111 12.5746 10.1406L13.899 24.0008Z" fill="url(#paint10_linear_3560_13476)"/>
<path d="M13.8989 24.0003L12.5746 10.1402C16.2796 10.1725 20.1238 10.1666 23.1557 10.1152C24.0558 10.1003 24.8312 10.0821 25.482 10.0605L13.8989 24.0003Z" fill="url(#paint11_linear_3560_13476)"/>
<path d="M13.8989 23.999L25.482 10.0592C27.0542 10.0085 27.8879 9.94399 27.9578 9.87354L13.8989 23.999Z" fill="url(#paint12_radial_3560_13476)"/>
<path d="M0.000647911 9.69787L0.0381892 3.17871C0.0381892 3.26497 1.1664 3.35782 3.46877 3.44211L4.05132 3.46252L4.01313 9.98168L3.43058 9.96193C1.12821 9.8783 0 9.78479 0 9.69853" fill="url(#paint13_linear_3560_13476)"/>
<path d="M4.04942 3.45947L4.01123 9.97797C4.52323 9.99509 5.06758 10.0109 5.63783 10.0254L5.63782 10.0279C6.11875 10.0398 6.61521 10.0523 7.12656 10.0628L7.12657 10.0615C7.5978 10.0716 8.07978 10.0808 8.57251 10.0891C9.02861 10.0966 9.49398 10.1036 9.96863 10.1102C10.3665 10.1155 10.768 10.1208 11.1732 10.1256L11.2108 3.60645L10.0062 3.59131C9.53437 3.58472 9.06833 3.57724 8.6107 3.56934C8.11683 3.56078 7.63266 3.55285 7.16209 3.54297C6.64846 3.53179 6.15288 3.52128 5.67602 3.50879L5.67603 3.50623C5.10513 3.49174 4.56142 3.47594 4.04942 3.45947Z" fill="url(#paint14_linear_3560_13476)"/>
<path d="M11.2108 3.60645L11.1732 10.1256L12.1566 10.1357L12.1941 3.61649L11.2108 3.60645Z" fill="url(#paint15_linear_3560_13476)"/>
<path fill-rule="evenodd" clip-rule="evenodd" d="M24.9208 3.55832L24.8833 10.0775V10.0781C25.2695 10.0676 25.6199 10.0564 25.9345 10.0445L25.972 3.52539C25.6596 3.5368 25.3092 3.54778 24.9208 3.55832ZM23.4574 10.1095L23.4574 10.1089C23.9752 10.0988 24.4499 10.0882 24.8814 10.0773L24.919 3.55811C24.4874 3.56996 24.0128 3.5805 23.4949 3.58971L23.4949 3.59033L23.1933 3.5956L22.1079 3.61206L22.1079 3.61182L21.1026 3.62301L21.0645 10.1422L22.0703 10.131H22.0703L22.0703 10.1306C22.4438 10.126 22.8043 10.1207 23.1558 10.1148L23.4574 10.1095ZM20.2689 3.63061L20.2307 10.1498V10.1504L21.0644 10.1432L21.1026 3.62402L20.2689 3.63061ZM19.4792 3.63449L19.4417 10.1537L20.2307 10.149L20.2689 3.62988L19.4792 3.63449Z" fill="url(#paint16_linear_3560_13476)"/>
<path fill-rule="evenodd" clip-rule="evenodd" d="M12.194 3.61621L12.1565 10.1347L12.9727 10.142L13.0109 3.6228L12.194 3.61621ZM13.011 3.62451L12.9728 10.1437V10.1443L13.6485 10.1489L13.6867 3.62978L13.011 3.62451ZM13.6498 10.1471L13.688 3.62793L14.3456 3.63188L14.3456 3.63281H14.9799L14.9424 10.152L14.3081 10.1487L14.3081 10.151H14.3068C14.088 10.151 13.869 10.1497 13.6498 10.1471ZM14.9443 10.1559L14.9819 3.63672H15.7107L15.7107 3.63867H16.7237L16.7237 3.64014H18.4688L18.4688 3.63889L19.4792 3.63428L19.4417 10.1534C19.1094 10.1534 18.7734 10.1547 18.4338 10.1574L18.4338 10.1593H16.6862L16.6862 10.1578H15.6713L15.6713 10.1559H14.9443Z" fill="url(#paint17_linear_3560_13476)"/>
<path fill-rule="evenodd" clip-rule="evenodd" d="M27.9689 3.3706L27.9314 9.8891C27.9521 9.8812 27.9625 9.87264 27.9625 9.86474L28.0007 3.3457C28.0006 3.35422 27.9902 3.36208 27.9689 3.3706ZM27.6991 9.93798L27.6991 9.93506C27.7777 9.92736 27.8555 9.91216 27.9313 9.88964L27.9689 3.37048C27.8931 3.39316 27.8152 3.40816 27.7365 3.41526L27.7365 3.41884C27.6308 3.43288 27.4936 3.44604 27.3249 3.45833L27.2867 9.97749C27.4557 9.96498 27.5936 9.95115 27.6991 9.93798ZM26.708 10.0108L26.708 10.009C26.4818 10.0207 26.224 10.0319 25.9346 10.0424L25.9721 3.52386C26.2608 3.51245 26.5197 3.50104 26.7488 3.48962L26.7488 3.49149C26.9701 3.48034 27.1619 3.46789 27.3249 3.45544L27.2867 9.9746C27.1236 9.98711 26.93 9.99896 26.708 10.0108Z" fill="url(#paint18_radial_3560_13476)"/>
<defs>
<linearGradient id="paint0_linear_3560_13476" x1="-0.29762" y1="1.79434" x2="6.3872" y2="2.07936" gradientUnits="userSpaceOnUse">
<stop stop-color="#4BF2A2"/>
<stop offset="0.522948" stop-color="#A89FE7"/>
<stop offset="0.669499" stop-color="#E1C4F4"/>
<stop offset="1" stop-color="#DD40CD"/>
</linearGradient>
<linearGradient id="paint1_linear_3560_13476" x1="1.14011" y1="1.90565" x2="7.78846" y2="2.19052" gradientUnits="userSpaceOnUse">
<stop stop-color="#4BF2A2"/>
<stop offset="0.522948" stop-color="#A89FE7"/>
<stop offset="0.669499" stop-color="#E1C4F4"/>
<stop offset="1" stop-color="#DD40CD"/>
</linearGradient>
<linearGradient id="paint2_linear_3560_13476" x1="3.28094" y1="1.96966" x2="9.25502" y2="2.199" gradientUnits="userSpaceOnUse">
<stop stop-color="#4BF2A2"/>
<stop offset="0.522948" stop-color="#A89FE7"/>
<stop offset="0.669499" stop-color="#E1C4F4"/>
<stop offset="1" stop-color="#DD40CD"/>
</linearGradient>
<linearGradient id="paint3_linear_3560_13476" x1="5.62514" y1="2.02" x2="10.8805" y2="2.19697" gradientUnits="userSpaceOnUse">
<stop stop-color="#4BF2A2"/>
<stop offset="0.522948" stop-color="#A89FE7"/>
<stop offset="0.669499" stop-color="#E1C4F4"/>
<stop offset="1" stop-color="#DD40CD"/>
</linearGradient>
<linearGradient id="paint4_linear_3560_13476" x1="8.20675" y1="2.05844" x2="12.8379" y2="2.19555" gradientUnits="userSpaceOnUse">
<stop stop-color="#4BF2A2"/>
<stop offset="0.522948" stop-color="#A89FE7"/>
<stop offset="0.669499" stop-color="#E1C4F4"/>
<stop offset="1" stop-color="#DD40CD"/>
</linearGradient>
<linearGradient id="paint5_linear_3560_13476" x1="11.2157" y1="2.08693" x2="16.3423" y2="2.2549" gradientUnits="userSpaceOnUse">
<stop stop-color="#4BF2A2"/>
<stop offset="0.522948" stop-color="#A89FE7"/>
<stop offset="0.669499" stop-color="#E1C4F4"/>
<stop offset="1" stop-color="#DD40CD"/>
</linearGradient>
<linearGradient id="paint6_linear_3560_13476" x1="14.7291" y1="2.0844" x2="24.4567" y2="2.6882" gradientUnits="userSpaceOnUse">
<stop stop-color="#4BF2A2"/>
<stop offset="0.522948" stop-color="#A89FE7"/>
<stop offset="0.669499" stop-color="#E1C4F4"/>
<stop offset="1" stop-color="#DD40CD"/>
</linearGradient>
<linearGradient id="paint7_linear_3560_13476" x1="19.9714" y1="2.03624" x2="26.8663" y2="2.33879" gradientUnits="userSpaceOnUse">
<stop stop-color="#4BF2A2"/>
<stop offset="0.522948" stop-color="#A89FE7"/>
<stop offset="0.669499" stop-color="#E1C4F4"/>
<stop offset="1" stop-color="#DD40CD"/>
</linearGradient>
<radialGradient id="paint8_radial_3560_13476" cx="0" cy="0" r="1" gradientUnits="userSpaceOnUse" gradientTransform="translate(25.7018 1.58383) rotate(45.6168) scale(5.66 5.93488)">
<stop stop-color="#DD40CD"/>
<stop offset="0.421875" stop-color="#564D8F"/>
<stop offset="1" stop-color="#4BF2A2"/>
</radialGradient>
<radialGradient id="paint9_radial_3560_13476" cx="0" cy="0" r="1" gradientUnits="userSpaceOnUse" gradientTransform="translate(11.973 0.235493) rotate(-0.451134) scale(23.7365 0.69253)">
<stop stop-color="#DD40CD"/>
<stop offset="0.421875" stop-color="#564D8F"/>
<stop offset="1" stop-color="#4BF2A2"/>
</radialGradient>
<linearGradient id="paint10_linear_3560_13476" x1="-0.820731" y1="16.8544" x2="15.6816" y2="17.2326" gradientUnits="userSpaceOnUse">
<stop stop-color="#DD40CD"/>
<stop offset="0.302083" stop-color="#A89FE7"/>
<stop offset="0.46875" stop-color="#E1C4F4"/>
<stop offset="1" stop-color="#41CB89"/>
</linearGradient>
<linearGradient id="paint11_linear_3560_13476" x1="11.8074" y1="17.0304" x2="27.1388" y2="17.3651" gradientUnits="userSpaceOnUse">
<stop stop-color="#4BF2A2"/>
<stop offset="0.522948" stop-color="#A89FE7"/>
<stop offset="0.669499" stop-color="#E1C4F4"/>
<stop offset="1" stop-color="#DD40CD"/>
</linearGradient>
<radialGradient id="paint12_radial_3560_13476" cx="0" cy="0" r="1" gradientUnits="userSpaceOnUse" gradientTransform="translate(22.4711 15.3717) rotate(62.2813) scale(20.3158 17.5467)">
<stop stop-color="#DD40CD"/>
<stop offset="0.421875" stop-color="#564D8F"/>
<stop offset="1" stop-color="#4BF2A2"/>
</radialGradient>
<linearGradient id="paint13_linear_3560_13476" x1="-0.240813" y1="6.58019" x2="4.57269" y2="6.64777" gradientUnits="userSpaceOnUse">
<stop stop-color="#4BF2A2"/>
<stop offset="0.522948" stop-color="#A89FE7"/>
<stop offset="0.669499" stop-color="#E1C4F4"/>
<stop offset="1" stop-color="#DD40CD"/>
</linearGradient>
<linearGradient id="paint14_linear_3560_13476" x1="3.52484" y1="6.79756" x2="13.241" y2="7.07831" gradientUnits="userSpaceOnUse">
<stop stop-color="#DD40CD"/>
<stop offset="0.302083" stop-color="#A89FE7"/>
<stop offset="0.46875" stop-color="#E1C4F4"/>
<stop offset="1" stop-color="#41CB89"/>
</linearGradient>
<linearGradient id="paint15_linear_3560_13476" x1="3.52484" y1="6.79756" x2="13.241" y2="7.07831" gradientUnits="userSpaceOnUse">
<stop stop-color="#DD40CD"/>
<stop offset="0.302083" stop-color="#A89FE7"/>
<stop offset="0.46875" stop-color="#E1C4F4"/>
<stop offset="1" stop-color="#41CB89"/>
</linearGradient>
<linearGradient id="paint16_linear_3560_13476" x1="19.0535" y1="6.83952" x2="26.8098" y2="7.01967" gradientUnits="userSpaceOnUse">
<stop stop-color="#DD40CD"/>
<stop offset="0.302083" stop-color="#A89FE7"/>
<stop offset="0.46875" stop-color="#E1C4F4"/>
<stop offset="1" stop-color="#41CB89"/>
</linearGradient>
<linearGradient id="paint17_linear_3560_13476" x1="11.7212" y1="6.88775" x2="20.4173" y2="7.11719" gradientUnits="userSpaceOnUse">
<stop stop-color="#4BF2A2"/>
<stop offset="0.522948" stop-color="#A89FE7"/>
<stop offset="0.669499" stop-color="#E1C4F4"/>
<stop offset="1" stop-color="#DD40CD"/>
</linearGradient>
<radialGradient id="paint18_radial_3560_13476" cx="0" cy="0" r="1" gradientUnits="userSpaceOnUse" gradientTransform="translate(27.1943 5.95231) rotate(80.7491) scale(8.63843 2.87505)">
<stop stop-color="#DD40CD"/>
<stop offset="0.421875" stop-color="#564D8F"/>
<stop offset="1" stop-color="#4BF2A2"/>
</radialGradient>
</defs>
</svg>
