<svg width="28" height="28" viewBox="0 0 28 28" fill="none" xmlns="http://www.w3.org/2000/svg">
<path d="M22.4958 21.3313L20.1713 23.3098C22.8167 21.0575 23.3495 16.8082 21.2006 12.6377C19.5864 9.50849 16.7814 7.06969 13.6991 5.9663L16.0236 3.98779C19.1049 5.0949 21.9109 7.52906 23.5251 10.6592C25.674 14.8269 25.1394 19.0762 22.4958 21.3313Z" fill="url(#paint0_linear_3560_8961)"/>
<path d="M22.4958 21.3313L20.1713 23.3098C22.8167 21.0575 23.3495 16.8082 21.2006 12.6377C19.5864 9.50849 16.7814 7.06969 13.6991 5.9663L16.0236 3.98779C19.1049 5.0949 21.9109 7.52906 23.5251 10.6592C25.674 14.8269 25.1394 19.0762 22.4958 21.3313Z" fill="url(#paint1_linear_3560_8961)"/>
<path d="M22.4958 21.3313L20.1713 23.3098C22.8167 21.0575 23.3495 16.8082 21.2006 12.6377C19.5864 9.50849 16.7814 7.06969 13.6991 5.9663L16.0236 3.98779C19.1049 5.0949 21.9109 7.52906 23.5251 10.6592C25.674 14.8269 25.1394 19.0762 22.4958 21.3313Z" fill="url(#paint2_linear_3560_8961)"/>
<path d="M22.4958 21.3313L20.1713 23.3098C22.8167 21.0575 23.3495 16.8082 21.2006 12.6377C19.5864 9.50849 16.7814 7.06969 13.6991 5.9663L16.0236 3.98779C19.1049 5.0949 21.9109 7.52906 23.5251 10.6592C25.674 14.8269 25.1394 19.0762 22.4958 21.3313Z" fill="url(#paint3_linear_3560_8961)"/>
<path d="M22.4958 21.3313L20.1713 23.3098C22.8167 21.0575 23.3495 16.8082 21.2006 12.6377C19.5864 9.50849 16.7814 7.06969 13.6991 5.9663L16.0236 3.98779C19.1049 5.0949 21.9109 7.52906 23.5251 10.6592C25.674 14.8269 25.1394 19.0762 22.4958 21.3313Z" fill="url(#paint4_linear_3560_8961)"/>
<path d="M16.0246 3.99065L13.7 5.97286C13.6465 5.94419 13.5872 5.92709 13.5263 5.92275C13.4661 5.91835 13.4065 5.93698 13.3601 5.97472L15.6846 3.99622C15.7074 3.97714 15.7338 3.9627 15.7623 3.95378C15.7909 3.94485 15.8209 3.94161 15.8508 3.94425C15.9118 3.94815 15.9712 3.96526 16.0246 3.99436" fill="url(#paint5_linear_3560_8961)"/>
<path d="M16.0246 3.99065L13.7 5.97286C13.6465 5.94419 13.5872 5.92709 13.5263 5.92275C13.4661 5.91835 13.4065 5.93698 13.3601 5.97472L15.6846 3.99622C15.7074 3.97714 15.7338 3.9627 15.7623 3.95378C15.7909 3.94485 15.8209 3.94161 15.8508 3.94425C15.9118 3.94815 15.9712 3.96526 16.0246 3.99436" fill="url(#paint6_linear_3560_8961)"/>
<path d="M15.603 4.18521L13.2785 6.16372C13.2773 6.12772 13.284 6.09188 13.2981 6.0586C13.3121 6.02531 13.3333 5.99534 13.3602 5.97069L15.6847 3.99219C15.6578 4.0168 15.6366 4.04676 15.6225 4.08006C15.6084 4.11335 15.6018 4.14921 15.603 4.18521Z" fill="url(#paint7_linear_3560_8961)"/>
<path d="M15.5983 4.39508L13.2738 6.37451C13.2501 6.26686 13.2377 6.21211 13.2738 6.16014L15.5983 4.18164C15.5575 4.23361 15.5699 4.28743 15.5983 4.39508Z" fill="url(#paint8_linear_3560_8961)"/>
<path d="M15.7641 5.15808L13.4396 7.13751L13.2734 6.37841L15.598 4.3999L15.7641 5.15808Z" fill="url(#paint9_linear_3560_8961)"/>
<path d="M16.1964 5.71359L13.8719 7.69302C13.6906 7.57702 13.4921 7.35337 13.4399 7.13622L15.7644 5.15771C15.8119 5.37394 16.0151 5.59759 16.1964 5.71452" fill="url(#paint10_linear_3560_8961)"/>
<path d="M22.4958 21.3313L20.1713 23.3098C22.8167 21.0575 23.3495 16.8082 21.2006 12.6377C19.5864 9.50849 16.7814 7.06969 13.6991 5.9663L16.0236 3.98779C19.1049 5.0949 21.9109 7.52906 23.5251 10.6592C25.674 14.8269 25.1394 19.0762 22.4958 21.3313Z" fill="url(#paint11_linear_3560_8961)"/>
<path d="M21.2273 19.9506L18.9028 21.9347C19.9236 21.0651 20.5978 19.8207 20.7887 18.309C21.3878 14.2091 18.2704 9.40014 13.8721 7.69818L16.1966 5.71875C20.5949 7.42256 23.7123 12.2296 23.1132 16.3295C22.9233 17.8413 22.2481 19.0866 21.2273 19.9553" fill="url(#paint12_linear_3560_8961)"/>
<path d="M14.6383 7.08621L12.3138 9.06565C12.2663 8.84849 12.0754 8.6796 11.8019 8.61278L14.1265 6.63428C14.3999 6.70017 14.5908 6.86999 14.6383 7.08621Z" fill="url(#paint13_linear_3560_8961)"/>
<path d="M17.7566 10.7178L15.4321 12.6963C14.9573 11.4964 13.8179 10.5322 12.5986 10.368L14.9231 8.38574C16.1471 8.54907 17.2866 9.51327 17.7566 10.7141" fill="url(#paint14_linear_3560_8961)"/>
<path d="M17.768 10.7725L15.4435 12.751L15.4321 12.6972L17.7566 10.7178L17.768 10.7725Z" fill="url(#paint15_linear_3560_8961)"/>
<path d="M17.6897 11.0712L15.3652 13.0507C15.405 13.0125 15.4334 12.9643 15.4471 12.9114C15.4608 12.8586 15.4594 12.8031 15.4431 12.7509L17.7676 10.7715C17.784 10.8236 17.7853 10.8792 17.7716 10.932C17.7579 10.9849 17.7296 11.033 17.6897 11.0712Z" fill="url(#paint16_linear_3560_8961)"/>
<path d="M17.6902 11.0767L15.3657 13.0552C15.3085 13.101 15.2353 13.1233 15.1616 13.1173L17.4861 11.1379C17.5597 11.1441 17.6329 11.1222 17.6902 11.0767Z" fill="url(#paint17_linear_3560_8961)"/>
<path d="M14.1265 6.63727L11.802 8.6167L11.0205 8.58051L13.345 6.60107L14.1265 6.63727Z" fill="url(#paint18_linear_3560_8961)"/>
<path d="M17.7566 10.7178L15.4321 12.6963C14.9573 11.4964 13.8179 10.5322 12.5986 10.368L14.9231 8.38574C16.1471 8.54907 17.2866 9.51327 17.7566 10.7141" fill="url(#paint19_linear_3560_8961)"/>
<path d="M14.923 8.38954L12.5985 10.369L12.3137 9.06884L14.6382 7.09033L14.923 8.38954Z" fill="url(#paint20_linear_3560_8961)"/>
<path d="M10.8942 4.12987L8.56969 6.10837C8.55119 6.00398 8.50313 5.90674 8.43096 5.82768C8.35879 5.74862 8.2654 5.69091 8.16138 5.66107L10.4859 3.68164C10.5899 3.71183 10.6832 3.76978 10.7553 3.84896C10.8275 3.92815 10.8756 4.02543 10.8942 4.12987Z" fill="url(#paint21_linear_3560_8961)"/>
<path d="M13.3451 6.60097L11.0206 8.5804C10.984 8.57704 10.9471 8.58081 10.9121 8.59148C10.8771 8.60215 10.8445 8.61952 10.8164 8.64257L13.1447 6.66407C13.2018 6.61789 13.275 6.59525 13.3489 6.60097" fill="url(#paint22_linear_3560_8961)"/>
<path d="M10.4859 3.68163L8.16135 5.66106C8.09611 5.65082 8.02924 5.66225 7.97144 5.69354L10.296 3.71504C10.3534 3.68265 10.4205 3.67083 10.4859 3.68163Z" fill="url(#paint23_linear_3560_8961)"/>
<path d="M10.2894 3.72598L7.96484 5.70448L7.97529 5.69335L10.296 3.71484C10.2918 3.71787 10.2883 3.72165 10.2856 3.72598" fill="url(#paint24_linear_3560_8961)"/>
<path d="M13.023 7.01485L10.6985 8.99428C10.6906 8.93081 10.6971 8.86643 10.7175 8.80567C10.7378 8.74491 10.7715 8.68924 10.8162 8.64256L13.1445 6.66406C13.0997 6.71049 13.066 6.76599 13.0456 6.82662C13.0253 6.88725 13.0188 6.95151 13.0268 7.01485" fill="url(#paint25_linear_3560_8961)"/>
<path d="M17.4859 11.1342L15.1614 13.1127L14.3267 13.0746L16.6512 11.0952L17.4859 11.1342Z" fill="url(#paint26_linear_3560_8961)"/>
<path d="M11.0605 4.88806L8.736 6.86657L8.56982 6.10931L10.8943 4.12988L11.0605 4.88806Z" fill="url(#paint27_linear_3560_8961)"/>
<path d="M10.9531 5.35585L8.62854 7.33528C8.74629 7.23506 8.78427 7.08936 8.73584 6.86664L11.0604 4.88721C11.1088 5.10993 11.0708 5.25841 10.9531 5.35585Z" fill="url(#paint28_linear_3560_8961)"/>
<path d="M10.9531 5.35596L8.62856 7.33539C8.60162 7.35782 8.57234 7.37741 8.5412 7.39385L10.8657 5.41628C10.8967 5.3993 10.926 5.37941 10.9531 5.35688" fill="url(#paint29_linear_3560_8961)"/>
<path d="M13.2956 8.26145L10.9711 10.2409L10.6985 8.99457L13.0221 7.01514L13.2956 8.26145Z" fill="url(#paint30_linear_3560_8961)"/>
<path d="M18.4327 17.4181L16.1082 19.3966C16.6903 18.9011 16.9305 18.128 16.7292 17.2056C16.3143 15.3106 15.077 14.6072 12.8275 14.236C11.2133 13.9474 10.8078 13.5001 10.6435 12.741C10.5571 12.3438 10.6293 12.0264 10.8695 11.8232L13.194 9.84375C12.9538 10.0479 12.8807 10.3644 12.968 10.7625C13.1342 11.5207 13.5378 11.9689 15.152 12.2566C17.4006 12.6278 18.6388 13.3293 19.0538 15.2262C19.2551 16.1477 19.0148 16.9207 18.4327 17.4172" fill="url(#paint31_linear_3560_8961)"/>
<path d="M16.6509 11.0955L14.3264 13.074C14.2371 13.064 14.1518 13.0325 14.0779 12.9825C14.004 12.9325 13.9439 12.8654 13.9029 12.7873C13.4642 11.9623 12.8717 11.6143 11.9335 11.5706C11.4379 11.5484 11.0837 11.6402 10.8672 11.8258L13.1917 9.84641C13.4082 9.66081 13.7614 9.56801 14.2581 9.59214C15.1962 9.63483 15.7887 9.98376 16.2274 10.8088C16.2686 10.8868 16.3288 10.9537 16.4026 11.0037C16.4765 11.0537 16.5617 11.0852 16.6509 11.0955Z" fill="url(#paint32_linear_3560_8961)"/>
<path d="M13.2956 8.26123L10.9711 10.2416C10.3823 10.2982 9.90947 10.4884 9.56763 10.7798L11.8921 8.8004C12.234 8.50901 12.7069 8.31877 13.2956 8.26309" fill="url(#paint33_linear_3560_8961)"/>
<path d="M10.8656 5.41602L8.54108 7.39452C7.91869 7.61878 7.34287 7.95108 6.84137 8.37542L9.16589 6.39692C9.66686 5.97186 10.2428 5.63948 10.8656 5.41602Z" fill="url(#paint34_linear_3560_8961)"/>
<path d="M10.2893 3.72607L7.96475 5.70458C7.08465 5.9663 6.27047 6.40541 5.57471 6.99357L7.89923 5.01414C8.59479 4.42592 9.40906 3.98709 10.2893 3.72607Z" fill="url(#paint35_linear_3560_8961)"/>
<path d="M18.4327 17.4181L16.1082 19.3966C16.6903 18.9011 16.9305 18.128 16.7292 17.2056C16.3143 15.3106 15.077 14.6072 12.8275 14.236C11.2133 13.9474 10.8078 13.5001 10.6435 12.741C10.5571 12.3438 10.6293 12.0264 10.8695 11.8232L13.194 9.84375C12.9538 10.0479 12.8807 10.3644 12.968 10.7625C13.1342 11.5207 13.5378 11.9689 15.152 12.2566C17.4006 12.6278 18.6388 13.3293 19.0538 15.2262C19.2551 16.1477 19.0148 16.9207 18.4327 17.4172" fill="url(#paint36_linear_3560_8961)"/>
<path d="M18.4327 17.4181L16.1082 19.3966C16.6903 18.9011 16.9305 18.128 16.7292 17.2056C16.3143 15.3106 15.077 14.6072 12.8275 14.236C11.2133 13.9474 10.8078 13.5001 10.6435 12.741C10.5571 12.3438 10.6293 12.0264 10.8695 11.8232L13.194 9.84375C12.9538 10.0479 12.8807 10.3644 12.968 10.7625C13.1342 11.5207 13.5378 11.9689 15.152 12.2566C17.4006 12.6278 18.6388 13.3293 19.0538 15.2262C19.2551 16.1477 19.0148 16.9207 18.4327 17.4172" fill="url(#paint37_linear_3560_8961)"/>
<path d="M18.4327 17.4181L16.1082 19.3966C16.6903 18.9011 16.9305 18.128 16.7292 17.2056C16.3143 15.3106 15.077 14.6072 12.8275 14.236C11.2133 13.9474 10.8078 13.5001 10.6435 12.741C10.5571 12.3438 10.6293 12.0264 10.8695 11.8232L13.194 9.84375C12.9538 10.0479 12.8807 10.3644 12.968 10.7625C13.1342 11.5207 13.5378 11.9689 15.152 12.2566C17.4006 12.6278 18.6388 13.3293 19.0538 15.2262C19.2551 16.1477 19.0148 16.9207 18.4327 17.4172" fill="url(#paint38_linear_3560_8961)"/>
<path d="M17.1023 16.3356L14.7778 18.315C15.0627 18.0719 15.1852 17.6979 15.0845 17.2376C14.8946 16.3708 14.3543 16.0238 12.835 15.686L15.1595 13.7065C16.6788 14.0453 17.2191 14.3914 17.409 15.2582C17.5097 15.7222 17.3872 16.0934 17.1023 16.3356Z" fill="url(#paint39_linear_3560_8961)"/>
<path d="M14.1976 20.6349L11.873 22.6134C7.47469 20.9106 4.3573 16.1026 4.95647 12.0017C5.14638 10.4909 5.82151 9.24648 6.84134 8.37694L9.16586 6.39844C8.14508 7.26705 7.47185 8.5115 7.28098 10.0232C6.68181 14.1231 9.79921 18.9321 14.1976 20.6349Z" fill="url(#paint40_linear_3560_8961)"/>
<path d="M18.4324 17.418L16.1079 19.3965C15.7211 19.7085 15.2488 19.9021 14.75 19.9533L17.0745 17.9748C17.5731 17.9229 18.0452 17.7293 18.4324 17.418Z" fill="url(#paint41_linear_3560_8961)"/>
<path d="M21.2273 19.9502L18.9028 21.9343C18.4017 22.3587 17.8262 22.691 17.204 22.9152L19.5286 20.9357C20.1509 20.7119 20.7264 20.3795 21.2273 19.9548" fill="url(#paint42_linear_3560_8961)"/>
<path d="M19.5284 20.9312L17.2039 22.9106C17.1725 22.927 17.1429 22.9466 17.1156 22.9691L19.4401 20.9905C19.4671 20.9675 19.4968 20.9476 19.5284 20.9312Z" fill="url(#paint43_linear_3560_8961)"/>
<path d="M15.1596 13.7066L12.8351 15.686C10.5856 15.3148 9.38915 14.5631 8.99793 12.7758C8.81562 11.9471 9.02737 11.2371 9.56767 10.7778L11.8922 8.79834C11.3519 9.2577 11.1401 9.96762 11.3225 10.7963C11.7146 12.5837 12.9111 13.3354 15.1606 13.7066" fill="url(#paint44_linear_3560_8961)"/>
<path d="M19.3339 21.4586L17.0094 23.4381C16.961 23.2163 16.999 23.0669 17.1158 22.9741L19.4403 20.9946C19.3235 21.0939 19.2855 21.2405 19.3339 21.4586Z" fill="url(#paint45_linear_3560_8961)"/>
<path d="M17.3594 19.2777L15.0349 21.2562L14.75 19.957L17.0745 17.9775L17.3594 19.2777Z" fill="url(#paint46_linear_3560_8961)"/>
<path d="M17.1023 16.3355L14.7778 18.3149C14.5262 18.5293 14.1482 18.6407 13.6839 18.6193C12.3279 18.5571 11.7278 17.94 11.3945 17.1206L13.7143 15.1421C14.0485 15.9615 14.6487 16.5786 16.0046 16.6408C16.468 16.6622 16.8469 16.548 17.0985 16.3355" fill="url(#paint47_linear_3560_8961)"/>
<path d="M13.7144 15.1422L11.3908 17.1207C11.3566 17.0305 11.2978 16.951 11.2209 16.8908C11.1439 16.8307 11.0517 16.7921 10.954 16.7792L13.2786 14.7998C13.3762 14.8127 13.4684 14.8514 13.5452 14.9117C13.6221 14.9721 13.6805 15.0518 13.7144 15.1422Z" fill="url(#paint48_linear_3560_8961)"/>
<path d="M22.4959 21.3315L20.1714 23.31C19.4751 23.898 18.6607 24.3371 17.7804 24.599L20.1049 22.6196C20.9853 22.3584 21.7998 21.9196 22.4959 21.3315Z" fill="url(#paint49_linear_3560_8961)"/>
<path d="M20.0934 22.6312L17.7689 24.6106L17.7803 24.5986L20.1048 22.6191L20.0934 22.6312Z" fill="url(#paint50_linear_3560_8961)"/>
<path d="M17.1023 16.3355L14.7778 18.3149C14.5262 18.5293 14.1482 18.6407 13.6839 18.6193C12.3279 18.5571 11.7278 17.94 11.3945 17.1206L13.7143 15.1421C14.0485 15.9615 14.6487 16.5786 16.0046 16.6408C16.468 16.6622 16.8469 16.548 17.0985 16.3355" fill="url(#paint51_linear_3560_8961)"/>
<path d="M17.241 19.6276L14.9174 21.6071C14.9619 21.5605 14.9955 21.5049 15.0159 21.4444C15.0362 21.3838 15.0428 21.3196 15.0352 21.2563L17.3597 19.2769C17.3675 19.3403 17.3609 19.4046 17.3404 19.4652C17.3199 19.5258 17.2859 19.5813 17.241 19.6276Z" fill="url(#paint52_linear_3560_8961)"/>
<path d="M20.0933 22.6313L17.7688 24.6108C17.7111 24.6422 17.6442 24.6536 17.5789 24.6433L19.9034 22.6638C19.9671 22.6738 20.0324 22.6624 20.0886 22.6313" fill="url(#paint53_linear_3560_8961)"/>
<path d="M19.5001 22.2167L17.1756 24.1962L17.0094 23.438L19.3339 21.4595L19.5001 22.2167Z" fill="url(#paint54_linear_3560_8961)"/>
<path d="M23.5251 10.662C26.2152 15.8783 24.7026 21.2236 20.1067 22.6193C20.0659 22.6713 19.9624 22.6666 19.9102 22.6638C19.8063 22.6337 19.7131 22.5759 19.641 22.4969C19.5688 22.4179 19.5207 22.3208 19.5019 22.2165L19.3357 21.4584C19.2768 21.1883 19.3461 21.0296 19.5303 20.9313C21.4883 20.2176 22.8301 18.5639 23.1149 16.3246C23.7141 12.2247 20.5967 7.41581 16.1983 5.71385C16.017 5.59785 15.8185 5.3742 15.7663 5.15705L15.5982 4.39516C15.5745 4.28751 15.5621 4.23369 15.5982 4.18172C15.5952 4.14905 15.5995 4.11613 15.6109 4.08526C15.6223 4.0544 15.6404 4.02632 15.664 4.003C15.6875 3.97967 15.7161 3.96166 15.7475 3.95021C15.779 3.93877 15.8126 3.93416 15.8461 3.93672C15.9071 3.94062 15.9664 3.95774 16.0198 3.98684C19.1059 5.09766 21.9099 7.53181 23.5251 10.662Z" fill="url(#paint55_radial_3560_8961)"/>
<path d="M19.9082 22.6639L17.5837 24.6433C17.4799 24.6132 17.3866 24.5554 17.3145 24.4764C17.2424 24.3974 17.1942 24.3003 17.1754 24.196L19.4999 22.2129C19.5187 22.3172 19.5669 22.4142 19.639 22.4933C19.7112 22.5723 19.8044 22.6301 19.9082 22.6602" fill="url(#paint56_linear_3560_8961)"/>
<path d="M17.2409 19.6274L14.9173 21.6069C14.8603 21.653 14.7871 21.6757 14.7132 21.67L17.0377 19.6905C17.0742 19.6938 17.1109 19.6898 17.1458 19.679C17.1807 19.6682 17.213 19.6506 17.2409 19.6274Z" fill="url(#paint57_linear_3560_8961)"/>
<path d="M13.2822 14.8011L10.9577 16.7796L10.0718 16.7388L12.3963 14.7603L13.2822 14.8011Z" fill="url(#paint58_linear_3560_8961)"/>
<path d="M12.3963 14.7593L10.0718 16.7378C9.9981 16.7318 9.92488 16.7541 9.86768 16.7999L12.195 14.8214C12.2523 14.7756 12.3255 14.7533 12.3992 14.7593" fill="url(#paint59_linear_3560_8961)"/>
<path d="M17.0367 19.6915L14.7131 21.67L13.9307 21.6347L16.2552 19.6553L17.0367 19.6915Z" fill="url(#paint60_linear_3560_8961)"/>
<path d="M12.1134 15.121L9.78889 17.1005C9.77299 17.0482 9.77192 16.9927 9.7858 16.9399C9.79969 16.8871 9.82799 16.839 9.8677 16.8007L12.1951 14.8213C12.1552 14.8595 12.1268 14.9076 12.1129 14.9604C12.099 15.0133 12.1001 15.0688 12.1163 15.121" fill="url(#paint61_linear_3560_8961)"/>
<path d="M15.7435 19.2025L13.419 21.182L13.1341 19.8828L15.4586 17.9033L15.7435 19.2025Z" fill="url(#paint62_linear_3560_8961)"/>
<path d="M12.1256 15.1759L9.8011 17.1553L9.78876 17.1006L12.1133 15.1221L12.1256 15.1759Z" fill="url(#paint63_linear_3560_8961)"/>
<path d="M16.2554 19.6541L13.9309 21.6335C13.6584 21.5676 13.4665 21.3978 13.4191 21.1816L15.7436 19.2021C15.7911 19.4184 15.9829 19.5882 16.2554 19.6541Z" fill="url(#paint64_linear_3560_8961)"/>
<path d="M15.4586 17.9032L13.1341 19.8817C11.3546 19.5318 10.3063 18.5185 9.80115 17.1543L12.1257 15.1758C12.6308 16.539 13.6791 17.5524 15.4586 17.9032Z" fill="url(#paint65_linear_3560_8961)"/>
<path d="M14.6183 21.1336L12.29 23.113C12.2539 22.9506 12.0507 22.727 11.8693 22.611L14.1976 20.6353C14.379 20.7503 14.5775 20.9749 14.6183 21.1364" fill="url(#paint66_linear_3560_8961)"/>
<path d="M14.7846 21.8929L12.4601 23.8724L12.2939 23.1133L14.6184 21.1348L14.7846 21.8929Z" fill="url(#paint67_linear_3560_8961)"/>
<path d="M14.7786 22.106L12.4541 24.0855C12.4949 24.0335 12.4826 23.9797 12.4598 23.8711L14.7843 21.8926C14.8071 22.0002 14.8195 22.055 14.7786 22.106Z" fill="url(#paint68_linear_3560_8961)"/>
<path d="M14.698 22.2999L12.3735 24.2784C12.4001 24.2536 12.421 24.2236 12.4349 24.1903C12.4488 24.1571 12.4554 24.1213 12.4542 24.0854L14.7787 22.106C14.7798 22.142 14.7732 22.1779 14.7593 22.2113C14.7454 22.2447 14.7245 22.2749 14.698 22.2999Z" fill="url(#paint69_linear_3560_8961)"/>
<path d="M14.1976 20.6349L11.873 22.6134C7.47469 20.9106 4.3573 16.1026 4.95647 12.0017C5.14638 10.4909 5.82151 9.24648 6.84134 8.37694L9.16586 6.39844C8.14508 7.26705 7.47185 8.5115 7.28098 10.0232C6.68181 14.1231 9.79921 18.9321 14.1976 20.6349Z" fill="url(#paint70_linear_3560_8961)"/>
<path d="M14.6981 22.3003L12.3735 24.2788C12.3268 24.3166 12.2669 24.3352 12.2064 24.3308C12.1455 24.3263 12.0863 24.3092 12.0327 24.2807L14.3572 22.3059C14.4107 22.3346 14.47 22.3514 14.5309 22.355C14.5914 22.3603 14.6514 22.3419 14.6981 22.304" fill="url(#paint71_linear_3560_8961)"/>
<path d="M14.1976 20.6349L11.873 22.6134C7.47469 20.9106 4.3573 16.1026 4.95647 12.0017C5.14638 10.4909 5.82151 9.24648 6.84134 8.37694L9.16586 6.39844C8.14508 7.26705 7.47185 8.5115 7.28098 10.0232C6.68181 14.1231 9.79921 18.9321 14.1976 20.6349Z" fill="url(#paint72_linear_3560_8961)"/>
<path d="M14.3573 22.3057L12.0328 24.2843C8.89921 23.1753 6.14549 20.743 4.54454 17.6676C2.39474 13.4999 2.93029 9.24967 5.57481 6.99554L7.89933 5.01611C5.25291 7.26931 4.71926 11.5186 6.86906 15.6882C8.47191 18.7598 11.2247 21.1921 14.3573 22.3057Z" fill="url(#paint73_linear_3560_8961)"/>
<path fill-rule="evenodd" clip-rule="evenodd" d="M27.6746 13.587C26.0974 6.38481 19.2463 0.332368 12.3145 0.0131346C5.3799 -0.306099 1.07081 5.23223 2.64802 12.4345C4.22524 19.6367 11.0734 25.6873 18.0081 26.0074C24.9427 26.3276 29.2518 20.7893 27.6746 13.587ZM23.5193 10.662C26.2113 15.8783 24.6987 21.2273 20.1009 22.6193L20.1028 22.6202C20.0662 22.6668 19.9792 22.6657 19.9239 22.6649C19.9176 22.6649 19.9116 22.6648 19.9062 22.6648C19.8024 22.6347 19.7092 22.5769 19.637 22.4978C19.5649 22.4188 19.5167 22.3217 19.4979 22.2175L19.3318 21.4593C19.2729 21.1893 19.3422 21.0306 19.5264 20.9322C21.4863 20.2232 22.8261 18.5649 23.111 16.3256C23.7102 12.2257 20.5928 7.4186 16.1944 5.71479C16.013 5.59786 15.8098 5.37421 15.7624 5.15799L15.5962 4.39888C15.5677 4.29123 15.5554 4.23741 15.5962 4.18544C15.5932 4.15277 15.5975 4.11985 15.6089 4.08899C15.6202 4.05812 15.6383 4.03004 15.6619 4.00672C15.6855 3.98339 15.714 3.96538 15.7455 3.95394C15.7769 3.94249 15.8106 3.93789 15.844 3.94045C15.905 3.94435 15.9644 3.96146 16.0178 3.99056C19.1001 5.09396 21.9051 7.53182 23.5193 10.662ZM14.6191 21.1345L14.7853 21.8936L14.7843 21.8964L14.7853 21.901C14.8075 22.0056 14.8189 22.0595 14.7786 22.1098C14.7818 22.1425 14.7776 22.1755 14.7663 22.2065C14.755 22.2374 14.7369 22.2656 14.7133 22.2889C14.6896 22.3123 14.6611 22.3303 14.6295 22.3417C14.598 22.3531 14.5643 22.3576 14.5308 22.3548C14.4699 22.3512 14.4105 22.3344 14.357 22.3056C11.2244 21.192 8.47166 18.7597 6.87166 15.6853C4.17966 10.4689 5.69231 5.11901 10.2901 3.727C10.3262 3.68079 10.4152 3.68175 10.4705 3.68234C10.4763 3.6824 10.4817 3.68246 10.4866 3.68246C10.5906 3.71265 10.6839 3.7706 10.7561 3.84978C10.8282 3.92897 10.8763 4.02625 10.8949 4.13069L11.0611 4.88794C11.12 5.15891 11.0507 5.31668 10.8664 5.41597C8.90656 6.12961 7.56673 7.78238 7.28187 10.0217C6.6827 14.1216 9.80009 18.9296 14.1984 20.6334C14.3798 20.7484 14.583 20.973 14.6191 21.1345ZM17.0747 17.9811L17.3595 19.2803L17.3624 19.2794C17.369 19.5476 17.2484 19.7035 17.0405 19.6933L16.258 19.6571C16.2555 19.6565 16.253 19.6559 16.2505 19.6553L17.0329 19.6915C17.2408 19.7017 17.3614 19.5467 17.3548 19.2776L17.0699 17.9784C18.574 17.7798 19.3688 16.6903 19.0488 15.2278C18.846 14.3009 18.4467 13.6594 17.829 13.2024C18.4494 13.6599 18.8503 14.3022 19.0535 15.2305C19.3735 16.6931 18.5797 17.7816 17.0747 17.9811ZM13.693 11.8062C13.2414 11.5453 13.0636 11.2089 12.9678 10.7668C12.8035 10.0087 13.2176 9.54559 14.2602 9.59384C14.7153 9.61455 15.089 9.70733 15.4034 9.89156C15.0881 9.70548 14.7128 9.61187 14.2554 9.59106C13.2109 9.5428 12.7969 10.0059 12.9631 10.7641C13.0603 11.2075 13.2387 11.5449 13.693 11.8062ZM16.4319 11.0227C16.4991 11.0627 16.5746 11.0882 16.6531 11.0972L17.4877 11.1353C17.6957 11.1455 17.8172 10.9905 17.7726 10.7733L17.7612 10.7195C17.6415 10.4167 17.4795 10.129 17.2847 9.86537C17.478 10.1283 17.6384 10.415 17.7564 10.7167L17.7678 10.7706C17.8153 10.9877 17.6938 11.1418 17.483 11.1325L16.6483 11.0944C16.5717 11.0856 16.4979 11.0611 16.4319 11.0227ZM14.9272 8.38894L14.6428 7.09195C14.6103 6.94384 14.5105 6.8175 14.363 6.73142C14.5079 6.81743 14.6059 6.94264 14.6381 7.08916L14.923 8.38836C14.9244 8.38855 14.9258 8.38874 14.9272 8.38894ZM14.318 13.5387C14.5816 13.6035 14.8635 13.6599 15.1641 13.7095C15.2607 13.7311 15.3533 13.7526 15.4421 13.7743C15.351 13.752 15.2559 13.7298 15.1566 13.7077C14.8588 13.6585 14.5794 13.6027 14.318 13.5387ZM15.2993 16.5461C14.4321 16.3321 13.9915 15.804 13.7227 15.1452C13.6889 15.0547 13.6304 14.975 13.5535 14.9147C13.4904 14.865 13.4168 14.83 13.3383 14.812C13.414 14.8306 13.485 14.8649 13.5462 14.913C13.6232 14.9733 13.6819 15.0529 13.7161 15.1433C13.9848 15.8041 14.4271 16.3333 15.2993 16.5461ZM15.1895 17.8459C15.2757 17.8671 15.3639 17.8866 15.4539 17.9045L15.4538 17.9041C15.3638 17.8864 15.2757 17.867 15.1895 17.8459Z" fill="url(#paint74_linear_3560_8961)"/>
<path d="M10.4859 3.68168C10.5899 3.71187 10.6832 3.76981 10.7554 3.849C10.8275 3.92818 10.8756 4.02546 10.8942 4.1299L11.0604 4.88715C11.1193 5.15813 11.05 5.31589 10.8658 5.41519C8.90587 6.12882 7.56415 7.78159 7.28118 10.0209C6.68201 14.1208 9.79941 18.9297 14.1978 20.6326C14.3791 20.7477 14.5776 20.9722 14.6184 21.1337L14.7846 21.8928C14.8074 22.0005 14.8197 22.0552 14.7789 22.1072C14.7819 22.1398 14.7776 22.1727 14.7662 22.2035C14.7549 22.2344 14.7367 22.2624 14.7131 22.2856C14.6895 22.3089 14.661 22.3268 14.6295 22.3382C14.5981 22.3495 14.5645 22.354 14.531 22.3512C14.4701 22.3476 14.4108 22.3308 14.3573 22.3021C11.2237 21.1885 8.47002 18.7599 6.86907 15.6845C4.17897 10.4682 5.69162 5.12287 10.2875 3.72622C10.3302 3.67518 10.4337 3.67982 10.4859 3.68168Z" fill="url(#paint75_radial_3560_8961)"/>
<path d="M24.8412 23.8657L22.5167 25.8442C20.7933 27.3114 18.4469 28.1141 15.6799 27.9869C8.74909 27.6677 1.90088 21.6162 0.325567 14.4177C-0.623991 10.0848 0.558209 6.35424 3.16 4.1391L5.48451 2.15967C2.88272 4.37574 1.70053 8.10632 2.65008 12.4392C4.2273 19.6414 11.0755 25.6929 18.0101 26.0121C20.7733 26.1402 23.1197 25.3375 24.8469 23.8703" fill="url(#paint76_radial_3560_8961)"/>
<defs>
<linearGradient id="paint0_linear_3560_8961" x1="13.036" y1="13.6488" x2="26.291" y2="13.8292" gradientUnits="userSpaceOnUse">
<stop stop-color="#4BF2A2"/>
<stop offset="0.522948" stop-color="#A89FE7"/>
<stop offset="0.669499" stop-color="#E1C4F4"/>
<stop offset="1" stop-color="#DD40CD"/>
</linearGradient>
<linearGradient id="paint1_linear_3560_8961" x1="13.036" y1="13.6488" x2="26.291" y2="13.8292" gradientUnits="userSpaceOnUse">
<stop stop-color="#4BF2A2"/>
<stop offset="0.522948" stop-color="#A89FE7"/>
<stop offset="0.669499" stop-color="#E1C4F4"/>
<stop offset="1" stop-color="#DD40CD"/>
</linearGradient>
<linearGradient id="paint2_linear_3560_8961" x1="13.036" y1="13.6488" x2="26.291" y2="13.8292" gradientUnits="userSpaceOnUse">
<stop stop-color="#4BF2A2"/>
<stop offset="0.522948" stop-color="#A89FE7"/>
<stop offset="0.669499" stop-color="#E1C4F4"/>
<stop offset="1" stop-color="#DD40CD"/>
</linearGradient>
<linearGradient id="paint3_linear_3560_8961" x1="13.036" y1="13.6488" x2="26.291" y2="13.8292" gradientUnits="userSpaceOnUse">
<stop stop-color="#4BF2A2"/>
<stop offset="0.522948" stop-color="#A89FE7"/>
<stop offset="0.669499" stop-color="#E1C4F4"/>
<stop offset="1" stop-color="#DD40CD"/>
</linearGradient>
<linearGradient id="paint4_linear_3560_8961" x1="13.036" y1="13.6488" x2="26.291" y2="13.8292" gradientUnits="userSpaceOnUse">
<stop stop-color="#4BF2A2"/>
<stop offset="0.522948" stop-color="#A89FE7"/>
<stop offset="0.669499" stop-color="#E1C4F4"/>
<stop offset="1" stop-color="#DD40CD"/>
</linearGradient>
<linearGradient id="paint5_linear_3560_8961" x1="13.2017" y1="4.95904" x2="16.3651" y2="5.05686" gradientUnits="userSpaceOnUse">
<stop stop-color="#4BF2A2"/>
<stop offset="0.522948" stop-color="#A89FE7"/>
<stop offset="0.669499" stop-color="#E1C4F4"/>
<stop offset="1" stop-color="#DD40CD"/>
</linearGradient>
<linearGradient id="paint6_linear_3560_8961" x1="13.2017" y1="4.95904" x2="16.3651" y2="5.05686" gradientUnits="userSpaceOnUse">
<stop stop-color="#4BF2A2"/>
<stop offset="0.522948" stop-color="#A89FE7"/>
<stop offset="0.669499" stop-color="#E1C4F4"/>
<stop offset="1" stop-color="#DD40CD"/>
</linearGradient>
<linearGradient id="paint7_linear_3560_8961" x1="13.1353" y1="5.07795" x2="15.993" y2="5.1526" gradientUnits="userSpaceOnUse">
<stop stop-color="#4BF2A2"/>
<stop offset="0.522948" stop-color="#A89FE7"/>
<stop offset="0.669499" stop-color="#E1C4F4"/>
<stop offset="1" stop-color="#DD40CD"/>
</linearGradient>
<linearGradient id="paint8_linear_3560_8961" x1="13.1116" y1="5.27807" x2="15.8992" y2="5.34842" gradientUnits="userSpaceOnUse">
<stop stop-color="#4BF2A2"/>
<stop offset="0.522948" stop-color="#A89FE7"/>
<stop offset="0.669499" stop-color="#E1C4F4"/>
<stop offset="1" stop-color="#DD40CD"/>
</linearGradient>
<linearGradient id="paint9_linear_3560_8961" x1="13.1254" y1="5.76871" x2="16.0839" y2="5.83216" gradientUnits="userSpaceOnUse">
<stop stop-color="#4BF2A2"/>
<stop offset="0.522948" stop-color="#A89FE7"/>
<stop offset="0.669499" stop-color="#E1C4F4"/>
<stop offset="1" stop-color="#DD40CD"/>
</linearGradient>
<linearGradient id="paint10_linear_3560_8961" x1="13.276" y1="6.42537" x2="16.5497" y2="6.50928" gradientUnits="userSpaceOnUse">
<stop stop-color="#4BF2A2"/>
<stop offset="0.522948" stop-color="#A89FE7"/>
<stop offset="0.669499" stop-color="#E1C4F4"/>
<stop offset="1" stop-color="#DD40CD"/>
</linearGradient>
<linearGradient id="paint11_linear_3560_8961" x1="13.036" y1="13.6488" x2="26.291" y2="13.8292" gradientUnits="userSpaceOnUse">
<stop stop-color="#4BF2A2"/>
<stop offset="0.522948" stop-color="#A89FE7"/>
<stop offset="0.669499" stop-color="#E1C4F4"/>
<stop offset="1" stop-color="#DD40CD"/>
</linearGradient>
<linearGradient id="paint12_linear_3560_8961" x1="13.3184" y1="13.8267" x2="24.3858" y2="13.9766" gradientUnits="userSpaceOnUse">
<stop stop-color="#4BF2A2"/>
<stop offset="0.522948" stop-color="#A89FE7"/>
<stop offset="0.669499" stop-color="#E1C4F4"/>
<stop offset="1" stop-color="#DD40CD"/>
</linearGradient>
<linearGradient id="paint13_linear_3560_8961" x1="11.6333" y1="7.84996" x2="15.0014" y2="7.94259" gradientUnits="userSpaceOnUse">
<stop stop-color="#4BF2A2"/>
<stop offset="0.522948" stop-color="#A89FE7"/>
<stop offset="0.669499" stop-color="#E1C4F4"/>
<stop offset="1" stop-color="#DD40CD"/>
</linearGradient>
<linearGradient id="paint14_linear_3560_8961" x1="12.292" y1="10.541" x2="18.4168" y2="10.7138" gradientUnits="userSpaceOnUse">
<stop stop-color="#4BF2A2"/>
<stop offset="0.522948" stop-color="#A89FE7"/>
<stop offset="0.669499" stop-color="#E1C4F4"/>
<stop offset="1" stop-color="#DD40CD"/>
</linearGradient>
<linearGradient id="paint15_linear_3560_8961" x1="15.2933" y1="11.7344" x2="18.0672" y2="11.8095" gradientUnits="userSpaceOnUse">
<stop stop-color="#4BF2A2"/>
<stop offset="0.522948" stop-color="#A89FE7"/>
<stop offset="0.669499" stop-color="#E1C4F4"/>
<stop offset="1" stop-color="#DD40CD"/>
</linearGradient>
<linearGradient id="paint16_linear_3560_8961" x1="15.2216" y1="11.9111" x2="18.0906" y2="11.9828" gradientUnits="userSpaceOnUse">
<stop stop-color="#4BF2A2"/>
<stop offset="0.522948" stop-color="#A89FE7"/>
<stop offset="0.669499" stop-color="#E1C4F4"/>
<stop offset="1" stop-color="#DD40CD"/>
</linearGradient>
<linearGradient id="paint17_linear_3560_8961" x1="15.0113" y1="12.0975" x2="18.0137" y2="12.1851" gradientUnits="userSpaceOnUse">
<stop stop-color="#4BF2A2"/>
<stop offset="0.522948" stop-color="#A89FE7"/>
<stop offset="0.669499" stop-color="#E1C4F4"/>
<stop offset="1" stop-color="#DD40CD"/>
</linearGradient>
<linearGradient id="paint18_linear_3560_8961" x1="10.8359" y1="7.60889" x2="14.5221" y2="7.7428" gradientUnits="userSpaceOnUse">
<stop stop-color="#4BF2A2"/>
<stop offset="0.522948" stop-color="#A89FE7"/>
<stop offset="0.669499" stop-color="#E1C4F4"/>
<stop offset="1" stop-color="#DD40CD"/>
</linearGradient>
<linearGradient id="paint19_linear_3560_8961" x1="12.292" y1="10.541" x2="18.4168" y2="10.7138" gradientUnits="userSpaceOnUse">
<stop stop-color="#4BF2A2"/>
<stop offset="0.522948" stop-color="#A89FE7"/>
<stop offset="0.669499" stop-color="#E1C4F4"/>
<stop offset="1" stop-color="#DD40CD"/>
</linearGradient>
<linearGradient id="paint20_linear_3560_8961" x1="12.1586" y1="8.72965" x2="15.2584" y2="8.78781" gradientUnits="userSpaceOnUse">
<stop stop-color="#4BF2A2"/>
<stop offset="0.522948" stop-color="#A89FE7"/>
<stop offset="0.669499" stop-color="#E1C4F4"/>
<stop offset="1" stop-color="#DD40CD"/>
</linearGradient>
<linearGradient id="paint21_linear_3560_8961" x1="7.99894" y1="4.895" x2="11.2442" y2="4.98116" gradientUnits="userSpaceOnUse">
<stop stop-color="#4BF2A2"/>
<stop offset="0.522948" stop-color="#A89FE7"/>
<stop offset="0.669499" stop-color="#E1C4F4"/>
<stop offset="1" stop-color="#DD40CD"/>
</linearGradient>
<linearGradient id="paint22_linear_3560_8961" x1="10.6659" y1="7.62134" x2="13.6728" y2="7.70923" gradientUnits="userSpaceOnUse">
<stop stop-color="#4BF2A2"/>
<stop offset="0.522948" stop-color="#A89FE7"/>
<stop offset="0.669499" stop-color="#E1C4F4"/>
<stop offset="1" stop-color="#DD40CD"/>
</linearGradient>
<linearGradient id="paint23_linear_3560_8961" x1="7.82198" y1="4.68564" x2="10.8075" y2="4.77343" gradientUnits="userSpaceOnUse">
<stop stop-color="#4BF2A2"/>
<stop offset="0.522948" stop-color="#A89FE7"/>
<stop offset="0.669499" stop-color="#E1C4F4"/>
<stop offset="1" stop-color="#DD40CD"/>
</linearGradient>
<linearGradient id="paint24_linear_3560_8961" x1="7.82628" y1="4.70966" x2="10.5944" y2="4.78612" gradientUnits="userSpaceOnUse">
<stop stop-color="#4BF2A2"/>
<stop offset="0.522948" stop-color="#A89FE7"/>
<stop offset="0.669499" stop-color="#E1C4F4"/>
<stop offset="1" stop-color="#DD40CD"/>
</linearGradient>
<linearGradient id="paint25_linear_3560_8961" x1="10.5497" y1="7.82917" x2="13.4585" y2="7.90125" gradientUnits="userSpaceOnUse">
<stop stop-color="#4BF2A2"/>
<stop offset="0.522948" stop-color="#A89FE7"/>
<stop offset="0.669499" stop-color="#E1C4F4"/>
<stop offset="1" stop-color="#DD40CD"/>
</linearGradient>
<linearGradient id="paint26_linear_3560_8961" x1="14.1389" y1="12.104" x2="17.8881" y2="12.2424" gradientUnits="userSpaceOnUse">
<stop stop-color="#4BF2A2"/>
<stop offset="0.522948" stop-color="#A89FE7"/>
<stop offset="0.669499" stop-color="#E1C4F4"/>
<stop offset="1" stop-color="#DD40CD"/>
</linearGradient>
<linearGradient id="paint27_linear_3560_8961" x1="8.42178" y1="5.49822" x2="11.3803" y2="5.5617" gradientUnits="userSpaceOnUse">
<stop stop-color="#4BF2A2"/>
<stop offset="0.522948" stop-color="#A89FE7"/>
<stop offset="0.669499" stop-color="#E1C4F4"/>
<stop offset="1" stop-color="#DD40CD"/>
</linearGradient>
<linearGradient id="paint28_linear_3560_8961" x1="8.48277" y1="6.11124" x2="11.3954" y2="6.18003" gradientUnits="userSpaceOnUse">
<stop stop-color="#4BF2A2"/>
<stop offset="0.522948" stop-color="#A89FE7"/>
<stop offset="0.669499" stop-color="#E1C4F4"/>
<stop offset="1" stop-color="#DD40CD"/>
</linearGradient>
<linearGradient id="paint29_linear_3560_8961" x1="8.39784" y1="6.3749" x2="11.2618" y2="6.45481" gradientUnits="userSpaceOnUse">
<stop stop-color="#4BF2A2"/>
<stop offset="0.522948" stop-color="#A89FE7"/>
<stop offset="0.669499" stop-color="#E1C4F4"/>
<stop offset="1" stop-color="#DD40CD"/>
</linearGradient>
<linearGradient id="paint30_linear_3560_8961" x1="10.5442" y1="8.62801" x2="13.6293" y2="8.68656" gradientUnits="userSpaceOnUse">
<stop stop-color="#4BF2A2"/>
<stop offset="0.522948" stop-color="#A89FE7"/>
<stop offset="0.669499" stop-color="#E1C4F4"/>
<stop offset="1" stop-color="#DD40CD"/>
</linearGradient>
<linearGradient id="paint31_linear_3560_8961" x1="10.1022" y1="14.6202" x2="20.2172" y2="14.8327" gradientUnits="userSpaceOnUse">
<stop stop-color="#4BF2A2"/>
<stop offset="0.522948" stop-color="#A89FE7"/>
<stop offset="0.669499" stop-color="#E1C4F4"/>
<stop offset="1" stop-color="#DD40CD"/>
</linearGradient>
<linearGradient id="paint32_linear_3560_8961" x1="10.5234" y1="11.3312" x2="17.3861" y2="11.5997" gradientUnits="userSpaceOnUse">
<stop stop-color="#4BF2A2"/>
<stop offset="0.522948" stop-color="#A89FE7"/>
<stop offset="0.669499" stop-color="#E1C4F4"/>
<stop offset="1" stop-color="#DD40CD"/>
</linearGradient>
<linearGradient id="paint33_linear_3560_8961" x1="9.34603" y1="9.52053" x2="13.7708" y2="9.67493" gradientUnits="userSpaceOnUse">
<stop stop-color="#4BF2A2"/>
<stop offset="0.522948" stop-color="#A89FE7"/>
<stop offset="0.669499" stop-color="#E1C4F4"/>
<stop offset="1" stop-color="#DD40CD"/>
</linearGradient>
<linearGradient id="paint34_linear_3560_8961" x1="6.60217" y1="6.89572" x2="11.3795" y2="7.04887" gradientUnits="userSpaceOnUse">
<stop stop-color="#4BF2A2"/>
<stop offset="0.522948" stop-color="#A89FE7"/>
<stop offset="0.669499" stop-color="#E1C4F4"/>
<stop offset="1" stop-color="#DD40CD"/>
</linearGradient>
<linearGradient id="paint35_linear_3560_8961" x1="5.29447" y1="5.35982" x2="10.8906" y2="5.55018" gradientUnits="userSpaceOnUse">
<stop stop-color="#4BF2A2"/>
<stop offset="0.522948" stop-color="#A89FE7"/>
<stop offset="0.669499" stop-color="#E1C4F4"/>
<stop offset="1" stop-color="#DD40CD"/>
</linearGradient>
<linearGradient id="paint36_linear_3560_8961" x1="10.1022" y1="14.6202" x2="20.2172" y2="14.8327" gradientUnits="userSpaceOnUse">
<stop stop-color="#4BF2A2"/>
<stop offset="0.522948" stop-color="#A89FE7"/>
<stop offset="0.669499" stop-color="#E1C4F4"/>
<stop offset="1" stop-color="#DD40CD"/>
</linearGradient>
<linearGradient id="paint37_linear_3560_8961" x1="10.1022" y1="14.6202" x2="20.2172" y2="14.8327" gradientUnits="userSpaceOnUse">
<stop stop-color="#4BF2A2"/>
<stop offset="0.522948" stop-color="#A89FE7"/>
<stop offset="0.669499" stop-color="#E1C4F4"/>
<stop offset="1" stop-color="#DD40CD"/>
</linearGradient>
<linearGradient id="paint38_linear_3560_8961" x1="10.1022" y1="14.6202" x2="20.2172" y2="14.8327" gradientUnits="userSpaceOnUse">
<stop stop-color="#4BF2A2"/>
<stop offset="0.522948" stop-color="#A89FE7"/>
<stop offset="0.669499" stop-color="#E1C4F4"/>
<stop offset="1" stop-color="#DD40CD"/>
</linearGradient>
<linearGradient id="paint39_linear_3560_8961" x1="12.5611" y1="16.0108" x2="18.035" y2="16.1398" gradientUnits="userSpaceOnUse">
<stop stop-color="#4BF2A2"/>
<stop offset="0.522948" stop-color="#A89FE7"/>
<stop offset="0.669499" stop-color="#E1C4F4"/>
<stop offset="1" stop-color="#DD40CD"/>
</linearGradient>
<linearGradient id="paint40_linear_3560_8961" x1="4.32901" y1="14.5059" x2="15.3965" y2="14.6558" gradientUnits="userSpaceOnUse">
<stop stop-color="#4BF2A2"/>
<stop offset="0.522948" stop-color="#A89FE7"/>
<stop offset="0.669499" stop-color="#E1C4F4"/>
<stop offset="1" stop-color="#DD40CD"/>
</linearGradient>
<linearGradient id="paint41_linear_3560_8961" x1="14.5311" y1="18.6856" x2="18.902" y2="18.8353" gradientUnits="userSpaceOnUse">
<stop stop-color="#4BF2A2"/>
<stop offset="0.522948" stop-color="#A89FE7"/>
<stop offset="0.669499" stop-color="#E1C4F4"/>
<stop offset="1" stop-color="#DD40CD"/>
</linearGradient>
<linearGradient id="paint42_linear_3560_8961" x1="16.9649" y1="21.4327" x2="21.7411" y2="21.5855" gradientUnits="userSpaceOnUse">
<stop stop-color="#4BF2A2"/>
<stop offset="0.522948" stop-color="#A89FE7"/>
<stop offset="0.669499" stop-color="#E1C4F4"/>
<stop offset="1" stop-color="#DD40CD"/>
</linearGradient>
<linearGradient id="paint43_linear_3560_8961" x1="16.9722" y1="21.9501" x2="19.8373" y2="22.0301" gradientUnits="userSpaceOnUse">
<stop stop-color="#4BF2A2"/>
<stop offset="0.522948" stop-color="#A89FE7"/>
<stop offset="0.669499" stop-color="#E1C4F4"/>
<stop offset="1" stop-color="#DD40CD"/>
</linearGradient>
<linearGradient id="paint44_linear_3560_8961" x1="8.56372" y1="12.2422" x2="15.96" y2="12.3998" gradientUnits="userSpaceOnUse">
<stop stop-color="#4BF2A2"/>
<stop offset="0.522948" stop-color="#A89FE7"/>
<stop offset="0.669499" stop-color="#E1C4F4"/>
<stop offset="1" stop-color="#DD40CD"/>
</linearGradient>
<linearGradient id="paint45_linear_3560_8961" x1="16.8432" y1="22.2163" x2="19.7547" y2="22.2852" gradientUnits="userSpaceOnUse">
<stop stop-color="#4BF2A2"/>
<stop offset="0.522948" stop-color="#A89FE7"/>
<stop offset="0.669499" stop-color="#E1C4F4"/>
<stop offset="1" stop-color="#DD40CD"/>
</linearGradient>
<linearGradient id="paint46_linear_3560_8961" x1="14.5949" y1="19.6169" x2="17.6947" y2="19.675" gradientUnits="userSpaceOnUse">
<stop stop-color="#4BF2A2"/>
<stop offset="0.522948" stop-color="#A89FE7"/>
<stop offset="0.669499" stop-color="#E1C4F4"/>
<stop offset="1" stop-color="#DD40CD"/>
</linearGradient>
<linearGradient id="paint47_linear_3560_8961" x1="11.0553" y1="16.882" x2="17.8281" y2="17.1439" gradientUnits="userSpaceOnUse">
<stop stop-color="#4BF2A2"/>
<stop offset="0.522948" stop-color="#A89FE7"/>
<stop offset="0.669499" stop-color="#E1C4F4"/>
<stop offset="1" stop-color="#DD40CD"/>
</linearGradient>
<linearGradient id="paint48_linear_3560_8961" x1="10.79" y1="15.9603" x2="14.0677" y2="16.0522" gradientUnits="userSpaceOnUse">
<stop stop-color="#4BF2A2"/>
<stop offset="0.522948" stop-color="#A89FE7"/>
<stop offset="0.669499" stop-color="#E1C4F4"/>
<stop offset="1" stop-color="#DD40CD"/>
</linearGradient>
<linearGradient id="paint49_linear_3560_8961" x1="17.5001" y1="22.9653" x2="23.0974" y2="23.1557" gradientUnits="userSpaceOnUse">
<stop stop-color="#4BF2A2"/>
<stop offset="0.522948" stop-color="#A89FE7"/>
<stop offset="0.669499" stop-color="#E1C4F4"/>
<stop offset="1" stop-color="#DD40CD"/>
</linearGradient>
<linearGradient id="paint50_linear_3560_8961" x1="17.63" y1="23.6149" x2="20.4038" y2="23.6916" gradientUnits="userSpaceOnUse">
<stop stop-color="#4BF2A2"/>
<stop offset="0.522948" stop-color="#A89FE7"/>
<stop offset="0.669499" stop-color="#E1C4F4"/>
<stop offset="1" stop-color="#DD40CD"/>
</linearGradient>
<linearGradient id="paint51_linear_3560_8961" x1="11.0553" y1="16.882" x2="17.8281" y2="17.1439" gradientUnits="userSpaceOnUse">
<stop stop-color="#4BF2A2"/>
<stop offset="0.522948" stop-color="#A89FE7"/>
<stop offset="0.669499" stop-color="#E1C4F4"/>
<stop offset="1" stop-color="#DD40CD"/>
</linearGradient>
<linearGradient id="paint52_linear_3560_8961" x1="14.7721" y1="20.442" x2="17.6764" y2="20.5138" gradientUnits="userSpaceOnUse">
<stop stop-color="#4BF2A2"/>
<stop offset="0.522948" stop-color="#A89FE7"/>
<stop offset="0.669499" stop-color="#E1C4F4"/>
<stop offset="1" stop-color="#DD40CD"/>
</linearGradient>
<linearGradient id="paint53_linear_3560_8961" x1="17.4295" y1="23.6392" x2="20.4149" y2="23.727" gradientUnits="userSpaceOnUse">
<stop stop-color="#4BF2A2"/>
<stop offset="0.522948" stop-color="#A89FE7"/>
<stop offset="0.669499" stop-color="#E1C4F4"/>
<stop offset="1" stop-color="#DD40CD"/>
</linearGradient>
<linearGradient id="paint54_linear_3560_8961" x1="16.8614" y1="22.8278" x2="19.8198" y2="22.8913" gradientUnits="userSpaceOnUse">
<stop stop-color="#4BF2A2"/>
<stop offset="0.522948" stop-color="#A89FE7"/>
<stop offset="0.669499" stop-color="#E1C4F4"/>
<stop offset="1" stop-color="#DD40CD"/>
</linearGradient>
<radialGradient id="paint55_radial_3560_8961" cx="0" cy="0" r="1" gradientUnits="userSpaceOnUse" gradientTransform="translate(17.1577 10.8699) rotate(76.2894) scale(33.5531 158.529)">
<stop stop-color="#4BF2A2"/>
<stop offset="0.421875" stop-color="#564D8F"/>
<stop offset="1" stop-color="#DD40CD"/>
</radialGradient>
<linearGradient id="paint56_linear_3560_8961" x1="17.013" y1="23.4281" x2="20.2583" y2="23.5141" gradientUnits="userSpaceOnUse">
<stop stop-color="#4BF2A2"/>
<stop offset="0.522948" stop-color="#A89FE7"/>
<stop offset="0.669499" stop-color="#E1C4F4"/>
<stop offset="1" stop-color="#DD40CD"/>
</linearGradient>
<linearGradient id="paint57_linear_3560_8961" x1="14.5629" y1="20.6491" x2="17.5643" y2="20.7367" gradientUnits="userSpaceOnUse">
<stop stop-color="#4BF2A2"/>
<stop offset="0.522948" stop-color="#A89FE7"/>
<stop offset="0.669499" stop-color="#E1C4F4"/>
<stop offset="1" stop-color="#DD40CD"/>
</linearGradient>
<linearGradient id="paint58_linear_3560_8961" x1="9.88095" y1="15.7699" x2="13.6908" y2="15.9127" gradientUnits="userSpaceOnUse">
<stop stop-color="#4BF2A2"/>
<stop offset="0.522948" stop-color="#A89FE7"/>
<stop offset="0.669499" stop-color="#E1C4F4"/>
<stop offset="1" stop-color="#DD40CD"/>
</linearGradient>
<linearGradient id="paint59_linear_3560_8961" x1="9.7172" y1="15.7791" x2="12.723" y2="15.867" gradientUnits="userSpaceOnUse">
<stop stop-color="#4BF2A2"/>
<stop offset="0.522948" stop-color="#A89FE7"/>
<stop offset="0.669499" stop-color="#E1C4F4"/>
<stop offset="1" stop-color="#DD40CD"/>
</linearGradient>
<linearGradient id="paint60_linear_3560_8961" x1="13.746" y1="20.6626" x2="17.4322" y2="20.7966" gradientUnits="userSpaceOnUse">
<stop stop-color="#4BF2A2"/>
<stop offset="0.522948" stop-color="#A89FE7"/>
<stop offset="0.669499" stop-color="#E1C4F4"/>
<stop offset="1" stop-color="#DD40CD"/>
</linearGradient>
<linearGradient id="paint61_linear_3560_8961" x1="9.63234" y1="15.9609" x2="12.5051" y2="16.0328" gradientUnits="userSpaceOnUse">
<stop stop-color="#4BF2A2"/>
<stop offset="0.522948" stop-color="#A89FE7"/>
<stop offset="0.669499" stop-color="#E1C4F4"/>
<stop offset="1" stop-color="#DD40CD"/>
</linearGradient>
<linearGradient id="paint62_linear_3560_8961" x1="12.979" y1="19.5426" x2="16.0788" y2="19.6008" gradientUnits="userSpaceOnUse">
<stop stop-color="#4BF2A2"/>
<stop offset="0.522948" stop-color="#A89FE7"/>
<stop offset="0.669499" stop-color="#E1C4F4"/>
<stop offset="1" stop-color="#DD40CD"/>
</linearGradient>
<linearGradient id="paint63_linear_3560_8961" x1="9.64985" y1="16.1387" x2="12.4249" y2="16.2139" gradientUnits="userSpaceOnUse">
<stop stop-color="#4BF2A2"/>
<stop offset="0.522948" stop-color="#A89FE7"/>
<stop offset="0.669499" stop-color="#E1C4F4"/>
<stop offset="1" stop-color="#DD40CD"/>
</linearGradient>
<linearGradient id="paint64_linear_3560_8961" x1="13.2505" y1="20.4178" x2="16.6185" y2="20.5105" gradientUnits="userSpaceOnUse">
<stop stop-color="#4BF2A2"/>
<stop offset="0.522948" stop-color="#A89FE7"/>
<stop offset="0.669499" stop-color="#E1C4F4"/>
<stop offset="1" stop-color="#DD40CD"/>
</linearGradient>
<linearGradient id="paint65_linear_3560_8961" x1="9.46486" y1="17.5287" x2="16.1826" y2="17.7191" gradientUnits="userSpaceOnUse">
<stop stop-color="#4BF2A2"/>
<stop offset="0.522948" stop-color="#A89FE7"/>
<stop offset="0.669499" stop-color="#E1C4F4"/>
<stop offset="1" stop-color="#DD40CD"/>
</linearGradient>
<linearGradient id="paint66_linear_3560_8961" x1="11.7059" y1="21.8741" x2="14.9705" y2="21.9595" gradientUnits="userSpaceOnUse">
<stop stop-color="#4BF2A2"/>
<stop offset="0.522948" stop-color="#A89FE7"/>
<stop offset="0.669499" stop-color="#E1C4F4"/>
<stop offset="1" stop-color="#DD40CD"/>
</linearGradient>
<linearGradient id="paint67_linear_3560_8961" x1="12.1458" y1="22.5036" x2="15.1043" y2="22.567" gradientUnits="userSpaceOnUse">
<stop stop-color="#4BF2A2"/>
<stop offset="0.522948" stop-color="#A89FE7"/>
<stop offset="0.669499" stop-color="#E1C4F4"/>
<stop offset="1" stop-color="#DD40CD"/>
</linearGradient>
<linearGradient id="paint68_linear_3560_8961" x1="12.3143" y1="22.989" x2="15.1068" y2="23.0596" gradientUnits="userSpaceOnUse">
<stop stop-color="#4BF2A2"/>
<stop offset="0.522948" stop-color="#A89FE7"/>
<stop offset="0.669499" stop-color="#E1C4F4"/>
<stop offset="1" stop-color="#DD40CD"/>
</linearGradient>
<linearGradient id="paint69_linear_3560_8961" x1="12.2305" y1="23.1922" x2="15.087" y2="23.2667" gradientUnits="userSpaceOnUse">
<stop stop-color="#4BF2A2"/>
<stop offset="0.522948" stop-color="#A89FE7"/>
<stop offset="0.669499" stop-color="#E1C4F4"/>
<stop offset="1" stop-color="#DD40CD"/>
</linearGradient>
<linearGradient id="paint70_linear_3560_8961" x1="4.32901" y1="14.5059" x2="15.3965" y2="14.6558" gradientUnits="userSpaceOnUse">
<stop stop-color="#4BF2A2"/>
<stop offset="0.522948" stop-color="#A89FE7"/>
<stop offset="0.669499" stop-color="#E1C4F4"/>
<stop offset="1" stop-color="#DD40CD"/>
</linearGradient>
<linearGradient id="paint71_linear_3560_8961" x1="11.8742" y1="23.3159" x2="15.0387" y2="23.4138" gradientUnits="userSpaceOnUse">
<stop stop-color="#4BF2A2"/>
<stop offset="0.522948" stop-color="#A89FE7"/>
<stop offset="0.669499" stop-color="#E1C4F4"/>
<stop offset="1" stop-color="#DD40CD"/>
</linearGradient>
<linearGradient id="paint72_linear_3560_8961" x1="4.32901" y1="14.5059" x2="15.3965" y2="14.6558" gradientUnits="userSpaceOnUse">
<stop stop-color="#4BF2A2"/>
<stop offset="0.522948" stop-color="#A89FE7"/>
<stop offset="0.669499" stop-color="#E1C4F4"/>
<stop offset="1" stop-color="#DD40CD"/>
</linearGradient>
<linearGradient id="paint73_linear_3560_8961" x1="2.55182" y1="14.6502" x2="15.7914" y2="14.8307" gradientUnits="userSpaceOnUse">
<stop stop-color="#4BF2A2"/>
<stop offset="0.522948" stop-color="#A89FE7"/>
<stop offset="0.669499" stop-color="#E1C4F4"/>
<stop offset="1" stop-color="#DD40CD"/>
</linearGradient>
<linearGradient id="paint74_linear_3560_8961" x1="0.796494" y1="13.0103" x2="31.2938" y2="13.7198" gradientUnits="userSpaceOnUse">
<stop stop-color="#4BF2A2"/>
<stop offset="0.522948" stop-color="#A89FE7"/>
<stop offset="0.669499" stop-color="#E1C4F4"/>
<stop offset="1" stop-color="#DD40CD"/>
</linearGradient>
<radialGradient id="paint75_radial_3560_8961" cx="0" cy="0" r="1" gradientUnits="userSpaceOnUse" gradientTransform="translate(7.11833 10.593) rotate(76.267) scale(33.4524 158.292)">
<stop stop-color="#4BF2A2"/>
<stop offset="0.421875" stop-color="#564D8F"/>
<stop offset="1" stop-color="#DD40CD"/>
</radialGradient>
<radialGradient id="paint76_radial_3560_8961" cx="0" cy="0" r="1" gradientUnits="userSpaceOnUse" gradientTransform="translate(4.23606 11.7261) rotate(64.6649) scale(49.7591 394.876)">
<stop stop-color="#4BF2A2"/>
<stop offset="0.421875" stop-color="#564D8F"/>
<stop offset="1" stop-color="#DD40CD"/>
</radialGradient>
</defs>
</svg>
