<svg width="18" height="22" viewBox="0 0 18 22" fill="none" xmlns="http://www.w3.org/2000/svg">
  <path fill-rule="evenodd" clip-rule="evenodd"
    d="M9 22C4.02944 22 0 17.8752 0 12.787C0 9.13053 4.64761 3.59278 7.26319 0.765769C8.20785 -0.255256 9.79215 -0.255256 10.7368 0.765769C13.3524 3.59278 18 9.13053 18 12.787C18 17.8752 13.9706 22 9 22Z"
    fill="url(#paint0_radial_9688_3320)" />
  <path fill-rule="evenodd" clip-rule="evenodd"
    d="M9 19.4408C12.4826 19.4408 15.4286 16.5302 15.4286 12.787C15.4286 12.3724 15.2854 11.7125 14.8794 10.7947C14.4852 9.90335 13.9105 8.91809 13.218 7.89727C11.8881 5.93676 10.2514 4.03001 9 2.66727C7.74861 4.03001 6.11185 5.93676 4.78198 7.89727C4.08953 8.91809 3.5148 9.90335 3.12056 10.7947C2.71462 11.7125 2.57143 12.3724 2.57143 12.787C2.57143 16.5302 5.5174 19.4408 9 19.4408ZM9 22C13.9706 22 18 17.8752 18 12.787C18 9.13053 13.3524 3.59278 10.7368 0.765769C9.79215 -0.255256 8.20785 -0.255256 7.26319 0.765769C4.64761 3.59278 0 9.13053 0 12.787C0 17.8752 4.02944 22 9 22Z"
    fill="url(#paint1_radial_9688_3320)" />
  <defs>
    <radialGradient id="paint0_radial_9688_3320" cx="0" cy="0" r="1" gradientUnits="userSpaceOnUse"
      gradientTransform="translate(13.1089 6.8915) rotate(114.038) scale(21.384 18.8954)">
      <stop stop-color="#D5A1DA" />
      <stop offset="0.317744" stop-color="#8FC2A3" stop-opacity="0.57" />
      <stop offset="0.625043" stop-color="#411049" />
      <stop offset="1" stop-color="#723282" />
    </radialGradient>
    <radialGradient id="paint1_radial_9688_3320" cx="0" cy="0" r="1" gradientUnits="userSpaceOnUse"
      gradientTransform="translate(-4.49999 9.00726e-05) rotate(43.1118) scale(32.1908 24.8009)">
      <stop stop-color="#5FE0B1" stop-opacity="0.71" />
      <stop offset="1" stop-color="#DD40CD" />
    </radialGradient>
  </defs>
</svg>