<svg width="192" height="27" viewBox="0 0 192 27" fill="none" xmlns="http://www.w3.org/2000/svg">
  <path opacity="0.5" fill-rule="evenodd" clip-rule="evenodd"
    d="M112 0.5C112 0.223858 111.776 0 111.5 0C111.224 0 111 0.223858 111 0.5C111 0.776142 111.224 1 111.5 1C111.776 1 112 0.776142 112 0.5ZM0.5 2C0.776142 2 1 2.22386 1 2.5C1 2.77614 0.776142 3 0.5 3C0.223858 3 0 2.77614 0 2.5C0 2.22386 0.223858 2 0.5 2ZM10.5 22C10.7761 22 11 22.2239 11 22.5C11 22.7761 10.7761 23 10.5 23C10.2239 23 10 22.7761 10 22.5C10 22.2239 10.2239 22 10.5 22ZM16 10.5C16 10.2239 15.7761 10 15.5 10C15.2239 10 15 10.2239 15 10.5C15 10.7761 15.2239 11 15.5 11C15.7761 11 16 10.7761 16 10.5ZM11.5 12C11.7761 12 12 12.2239 12 12.5C12 12.7761 11.7761 13 11.5 13C11.2239 13 11 12.7761 11 12.5C11 12.2239 11.2239 12 11.5 12ZM32 22.5C32 22.2239 31.7761 22 31.5 22C31.2239 22 31 22.2239 31 22.5C31 22.7761 31.2239 23 31.5 23C31.7761 23 32 22.7761 32 22.5ZM61.5 2C61.7761 2 62 2.22386 62 2.5C62 2.77614 61.7761 3 61.5 3C61.2239 3 61 2.77614 61 2.5C61 2.22386 61.2239 2 61.5 2ZM171.5 8C171.776 8 172 8.22386 172 8.5C172 8.77614 171.776 9 171.5 9C171.224 9 171 8.77614 171 8.5C171 8.22386 171.224 8 171.5 8ZM182 20.5C182 20.2239 181.776 20 181.5 20C181.224 20 181 20.2239 181 20.5C181 20.7761 181.224 21 181.5 21C181.776 21 182 20.7761 182 20.5ZM191.5 12C191.776 12 192 12.2239 192 12.5C192 12.7761 191.776 13 191.5 13C191.224 13 191 12.7761 191 12.5C191 12.2239 191.224 12 191.5 12ZM162 24.5C162 24.2239 161.776 24 161.5 24C161.224 24 161 24.2239 161 24.5C161 24.7761 161.224 25 161.5 25C161.776 25 162 24.7761 162 24.5ZM161.5 3C161.776 3 162 3.22386 162 3.5C162 3.77614 161.776 4 161.5 4C161.224 4 161 3.77614 161 3.5C161 3.22386 161.224 3 161.5 3ZM132 26.5C132 26.2239 131.776 26 131.5 26C131.224 26 131 26.2239 131 26.5C131 26.7761 131.224 27 131.5 27C131.776 27 132 26.7761 132 26.5ZM70.5 23C70.7761 23 71 23.2239 71 23.5C71 23.7761 70.7761 24 70.5 24C70.2239 24 70 23.7761 70 23.5C70 23.2239 70.2239 23 70.5 23Z"
    fill="url(#paint0_linear_308_42300)" />
  <defs>
    <linearGradient id="paint0_linear_308_42300" x1="-11.4126" y1="13.5" x2="210.517" y2="50.7053"
      gradientUnits="userSpaceOnUse">
      <stop stop-color="#4BF2A2" />
      <stop offset="0.522948" stop-color="#A89FE7" />
      <stop offset="0.669499" stop-color="#E1C4F4" />
      <stop offset="1" stop-color="#DD40CD" />
      <stop offset="1" stop-color="#DD40CD" />
    </linearGradient>
  </defs>
</svg>