<svg width="14" height="17" viewBox="0 0 14 17" fill="none" xmlns="http://www.w3.org/2000/svg">
  <path fill-rule="evenodd" clip-rule="evenodd"
    d="M7 15.0225C9.70869 15.0225 12 12.7734 12 9.88085C12 9.56046 11.8886 9.05057 11.5729 8.34135C11.2663 7.65259 10.8193 6.89125 10.2807 6.10243C9.24634 4.5875 7.9733 3.1141 7 2.06107C6.0267 3.1141 4.75366 4.5875 3.71932 6.10243C3.18074 6.89125 2.73373 7.65259 2.4271 8.34135C2.11137 9.05057 2 9.56046 2 9.88085C2 12.7734 4.29131 15.0225 7 15.0225ZM7 17C10.866 17 14 13.8126 14 9.88085C14 7.05541 10.3852 2.77624 8.35085 0.591731C7.61612 -0.197244 6.38388 -0.197244 5.64915 0.591731C3.61481 2.77624 0 7.05541 0 9.88085C0 13.8126 3.13401 17 7 17Z"
    fill="#997EA4" />
</svg>