<svg width="22" height="26" viewBox="0 0 22 26" fill="none" xmlns="http://www.w3.org/2000/svg">
  <path
    d="M18.9966 1H8.33164C7.90078 1 7.48756 1.18967 7.18289 1.52728C6.87822 1.86489 6.70706 2.32279 6.70706 2.80024V3.87291C6.70707 4.31412 6.54948 4.73738 6.26873 5.05024C5.98798 5.36309 5.6069 5.54008 5.20875 5.54255C4.09252 5.54255 3.022 6.03392 2.23271 6.90856C1.44342 7.78319 1 8.96944 1 10.2064V23.1345C1 23.6292 1.17737 24.1037 1.49308 24.4536C1.8088 24.8034 2.23701 25 2.6835 25H19.3165C19.763 25 20.1912 24.8034 20.5069 24.4536C20.8226 24.1037 21 23.6292 21 23.1345V3.27594C21.0023 2.68118 20.7936 2.10924 20.4188 1.68347C20.044 1.25771 19.5332 1.01223 18.9966 1ZM10.8064 5.54255L11.3535 3.40653C11.429 3.10174 11.5924 2.83275 11.819 2.6407C12.0455 2.44866 12.3225 2.34416 12.6077 2.34318H14.4933C14.4933 3.18676 14.1908 3.99579 13.6525 4.59229C13.1142 5.1888 12.3842 5.5239 11.6229 5.5239L10.8064 5.54255Z"
    fill="url(#paint0_radial_308_42248)" stroke="#4C4C5C" stroke-width="0.3" stroke-miterlimit="10" />
  <path
    d="M18.9961 1.00002H11.2015C10.9879 0.998788 10.7761 1.04451 10.5785 1.13454C10.3809 1.22457 10.2013 1.35713 10.0503 1.52455C9.89919 1.69196 9.77957 1.89091 9.69832 2.10989C9.61707 2.32886 9.57582 2.56351 9.57693 2.80026V3.87293C9.57693 4.0922 9.53796 4.3093 9.46223 4.51187C9.38651 4.71445 9.27553 4.89851 9.13562 5.05355C8.9957 5.20859 8.8296 5.33158 8.6468 5.41549C8.46399 5.4994 8.26807 5.54257 8.0702 5.54257C6.95397 5.54257 5.88345 6.03395 5.09416 6.90858C4.30487 7.78322 3.86145 8.96947 3.86145 10.2064V23.1345C3.86145 23.6292 4.03882 24.1037 4.35453 24.4536C4.67025 24.8035 5.09846 25 5.54495 25H19.3076C19.7541 25 20.1823 24.8035 20.498 24.4536C20.8137 24.1037 20.9911 23.6292 20.9911 23.1345V3.27597C20.9934 2.68278 20.7858 2.11221 20.4129 1.6867C20.0399 1.26119 19.5313 1.01467 18.9961 1.00002ZM10.8059 5.54257L11.353 3.40655C11.4285 3.10177 11.5919 2.83277 11.8185 2.64073C12.045 2.44869 12.322 2.34418 12.6072 2.3432H14.4927C14.4927 3.18678 14.1903 3.99582 13.652 4.59232C13.1137 5.18882 12.3837 5.52393 11.6224 5.52393L10.8059 5.54257Z"
    fill="url(#paint1_linear_308_42248)" />
  <rect x="9.18188" y="10" width="1.81818" height="11" rx="0.5" fill="url(#paint2_radial_308_42248)" stroke="#4C4C5C"
    stroke-width="0.5" />
  <rect x="11.9092" y="10" width="1.81818" height="11" rx="0.5" fill="url(#paint3_radial_308_42248)" stroke="#4C4C5C"
    stroke-width="0.5" />
  <rect x="14.6363" y="10" width="1.81818" height="11" rx="0.5" fill="url(#paint4_radial_308_42248)" stroke="#4C4C5C"
    stroke-width="0.5" />
  <path
    d="M18.5927 2.34311C18.5927 3.18669 18.2903 3.99572 17.752 4.59222C17.2137 5.18872 16.4836 5.52383 15.7223 5.52383H11.623C12.3843 5.52383 13.1143 5.18872 13.6526 4.59222C14.1909 3.99572 14.4933 3.18669 14.4933 2.34311H18.5927Z"
    fill="url(#paint5_linear_308_42248)" stroke="#4C4C5C" stroke-width="0.3" stroke-miterlimit="10" />
  <path
    d="M4.96456 6.69924C4.28274 7.14696 3.52517 7.00705 3.39891 6.69924L2.98645 6.01833L5.41911 4.73111L5.91574 5.43068V5.58925C5.83213 5.83529 5.70489 6.06028 5.54152 6.25092C5.37815 6.44156 5.18197 6.594 4.96456 6.69924Z"
    fill="url(#paint6_linear_308_42248)" stroke="#4C4C5C" stroke-width="0.3" stroke-miterlimit="10" />
  <path
    d="M4.41912 6.00373C5.11773 5.67847 5.58333 5.14914 5.45908 4.82144C5.33483 4.49373 4.66777 4.49175 3.96916 4.81701C3.27056 5.14227 2.80495 5.6716 2.9292 5.99931C3.05346 6.32701 3.72052 6.32899 4.41912 6.00373Z"
    fill="url(#paint7_linear_308_42248)" stroke="#4C4C5C" stroke-width="0.3" stroke-miterlimit="10" />
  <path fill-rule="evenodd" clip-rule="evenodd"
    d="M19.3165 25C19.763 25 20.1912 24.8034 20.5069 24.4536C20.8226 24.1037 21 23.6292 21 23.1345V3.27594C21.0023 2.68118 20.7936 2.10924 20.4188 1.68347C20.044 1.25771 19.5332 1.01223 18.9966 1H8.33164C7.90078 1 7.48756 1.18967 7.18289 1.52728C6.87822 1.86489 6.70706 2.32279 6.70706 2.80024V3.87291C6.70707 4.31412 6.54948 4.73738 6.26873 5.05024C6.15166 5.18069 6.01715 5.28752 5.87123 5.36793L5.41915 4.73111L5.409 4.73648C5.20706 4.49636 4.60098 4.52283 3.96909 4.81703C3.27049 5.14229 2.80488 5.67162 2.92913 5.99932C2.95511 6.06785 3.00483 6.12214 3.07362 6.16216L3.08452 6.18016C2.77621 6.37989 2.48957 6.62393 2.23271 6.90856C1.44342 7.78319 1 8.96944 1 10.2064V23.1345C1 23.6292 1.17737 24.1037 1.49308 24.4536C1.8088 24.8034 2.23701 25 2.6835 25H5.53704L5.54508 25H19.3077L19.3165 25ZM12.1827 5.46278C11.9997 5.5031 11.8123 5.52383 11.623 5.52383L10.8064 5.54255L11.3535 3.40653C11.429 3.10174 11.5924 2.83275 11.819 2.6407C12.0259 2.46525 12.2751 2.36286 12.534 2.34574C12.5584 2.34414 12.5829 2.34329 12.6074 2.3432H14.4929C14.4929 3.18678 14.1905 3.99582 13.6522 4.59232C13.2577 5.02948 12.7601 5.32624 12.2228 5.4536C12.2095 5.45676 12.1961 5.45982 12.1827 5.46278Z"
    fill="url(#paint8_linear_308_42248)" />
  <defs>
    <radialGradient id="paint0_radial_308_42248" cx="0" cy="0" r="1" gradientUnits="userSpaceOnUse"
      gradientTransform="translate(4.40972 9.8851) rotate(67.691) scale(45.1496 325.347)">
      <stop stop-color="#33B375" />
      <stop offset="0.421875" stop-color="#564D8F" />
      <stop offset="1" stop-color="#DD40CD" />
    </radialGradient>
    <linearGradient id="paint1_linear_308_42248" x1="2.84326" y1="13" x2="23.1938" y2="13.3424"
      gradientUnits="userSpaceOnUse">
      <stop stop-color="#4BF2A2" />
      <stop offset="0.522948" stop-color="#A89FE7" />
      <stop offset="0.669499" stop-color="#E1C4F4" />
      <stop offset="1" stop-color="#DD40CD" />
      <stop offset="1" stop-color="#DD40CD" />
    </linearGradient>
    <radialGradient id="paint2_radial_308_42248" cx="0" cy="0" r="1" gradientUnits="userSpaceOnUse"
      gradientTransform="translate(9.49186 14.0724) rotate(85.3473) scale(19.208 31.8646)">
      <stop stop-color="#2A3837" />
      <stop offset="0.421875" stop-color="#3F2B44" />
      <stop offset="1" stop-color="#322837" />
    </radialGradient>
    <radialGradient id="paint3_radial_308_42248" cx="0" cy="0" r="1" gradientUnits="userSpaceOnUse"
      gradientTransform="translate(12.2192 14.0724) rotate(85.3473) scale(19.208 31.8646)">
      <stop stop-color="#2A3837" />
      <stop offset="0.421875" stop-color="#3F2B44" />
      <stop offset="1" stop-color="#322837" />
    </radialGradient>
    <radialGradient id="paint4_radial_308_42248" cx="0" cy="0" r="1" gradientUnits="userSpaceOnUse"
      gradientTransform="translate(14.9463 14.0724) rotate(85.3473) scale(19.208 31.8646)">
      <stop stop-color="#2A3837" />
      <stop offset="0.421875" stop-color="#3F2B44" />
      <stop offset="1" stop-color="#322837" />
    </radialGradient>
    <linearGradient id="paint5_linear_308_42248" x1="6.83859" y1="-2.01516" x2="19.9124" y2="-0.465612"
      gradientUnits="userSpaceOnUse">
      <stop stop-color="#161623" />
      <stop offset="0.421875" stop-color="#564D8F" />
      <stop offset="1" stop-color="#DD40CD" />
    </linearGradient>
    <linearGradient id="paint6_linear_308_42248" x1="0.975617" y1="1.64286" x2="6.52021" y2="2.03264"
      gradientUnits="userSpaceOnUse">
      <stop stop-color="#161623" />
      <stop offset="0.421875" stop-color="#564D8F" />
      <stop offset="1" stop-color="#DD40CD" />
    </linearGradient>
    <linearGradient id="paint7_linear_308_42248" x1="0.35103" y1="4.58844" x2="5.40727" y2="3.32232"
      gradientUnits="userSpaceOnUse">
      <stop stop-color="#161623" />
      <stop offset="0.421875" stop-color="#564D8F" />
      <stop offset="1" stop-color="#DD40CD" />
    </linearGradient>
    <linearGradient id="paint8_linear_308_42248" x1="11" y1="0.99999" x2="22.8212" y2="15.0641"
      gradientUnits="userSpaceOnUse">
      <stop stop-color="#161623" stop-opacity="0" />
      <stop offset="0.585" stop-color="#61C9A4" stop-opacity="0.16" />
      <stop offset="1" stop-color="#5DC2A4" />
      <stop offset="1" stop-color="#5DC2A4" stop-opacity="0.43" />
    </linearGradient>
  </defs>
</svg>