<svg width="150" height="153" viewBox="0 0 150 153" fill="none" xmlns="http://www.w3.org/2000/svg">
<path d="M91.8612 51.5031L66.2485 48.3896C58.4502 47.4416 51.3602 53.0196 50.4124 60.8484L46.4081 93.9276C45.4604 101.756 51.0139 108.871 58.8122 109.819L84.4249 112.933C92.2232 113.881 99.3133 108.303 100.261 100.474L104.265 67.395C105.213 59.5661 99.6595 52.4511 91.8612 51.5031Z" fill="url(#paint0_radial_850_16752)"/>
<path d="M89.5203 51.8482L66.4301 49.0413C58.6318 48.0933 51.5418 53.6713 50.5941 61.5002L46.9382 91.7006C45.9905 99.5294 51.5441 106.644 59.3424 107.592L82.4325 110.399C90.2308 111.347 97.3209 105.769 98.2686 97.9405L101.924 67.74C102.872 59.9112 97.3186 52.7962 89.5203 51.8482Z" fill="url(#paint1_radial_850_16752)"/>
<path d="M91.8612 51.5031L66.2485 48.3896C58.4502 47.4416 51.3602 53.0196 50.4124 60.8484L46.4081 93.9276C45.4604 101.756 51.0139 108.871 58.8122 109.819L84.4249 112.933C92.2232 113.881 99.3133 108.303 100.261 100.474L104.265 67.395C105.213 59.5661 99.6595 52.4511 91.8612 51.5031Z" stroke="#182338" stroke-width="1.13928" stroke-miterlimit="10"/>
<path d="M127.282 79.2744C126.719 81.3955 125.412 83.2414 123.601 84.472C121.791 85.7026 119.598 86.2351 117.428 85.9713C110.673 87.5958 103.624 87.5261 96.9041 85.7685C96.9974 92.8139 97.2527 98.4172 97.24 101.854C97.2003 113.309 96.6817 124.09 95.5591 134.118C95.1063 138.173 94.2692 140.205 92.9023 141.774C92.1098 142.683 91.138 143.439 89.9585 144.339C88.1689 145.711 86.4138 146.379 85.0212 146.21C82.6343 145.919 80.4603 144.689 78.9776 142.79C77.4949 140.89 76.8248 138.477 77.1149 136.08L79.5759 115.751C79.6484 115.152 79.4809 114.548 79.1102 114.073C78.7395 113.599 78.196 113.291 77.5993 113.218L64.0992 111.577C63.5025 111.505 62.9014 111.673 62.4281 112.046C61.9549 112.418 61.6483 112.964 61.5757 113.563L59.1349 133.726C58.5394 138.646 54.1818 142.308 49.2734 141.844L45.99 140.887L41.6971 139.634C40.7474 139.358 39.8954 138.817 39.2404 138.073C38.5853 137.33 38.154 136.415 37.9968 135.435C37.8299 134.389 37.9837 133.316 38.4377 132.359L41.9484 124.921C42.6392 120.284 43.4715 115.567 44.44 110.731C45.4084 105.895 46.5154 100.941 47.7531 95.8303C49.0572 90.4505 50.4452 85.2711 51.9172 80.2921C44.9726 80.3886 38.1118 78.7674 31.9405 75.5716C26.6983 72.4793 23.6948 68.2457 24.0342 65.4423C24.3243 63.046 25.5507 60.8631 27.4436 59.3738C29.3366 57.8845 31.741 57.2109 34.128 57.5011L55.3181 60.077C77.1177 76.4794 98.4384 65.3188 98.4384 65.3188L119.481 67.8768C124.381 68.4725 128.027 72.8453 127.563 77.7728C127.511 78.2803 127.417 78.7826 127.282 79.2744Z" fill="white"/>
<path d="M127.282 79.2744C126.719 81.3955 125.412 83.2414 123.601 84.472C121.791 85.7026 119.598 86.2351 117.428 85.9713C110.673 87.5958 103.624 87.5261 96.9041 85.7685C96.9974 92.8139 97.2527 98.4172 97.24 101.854C97.2003 113.309 96.6817 124.09 95.5591 134.118C95.1063 138.173 94.2692 140.205 92.9023 141.774C92.1098 142.683 91.138 143.439 89.9585 144.339C88.1689 145.711 86.4138 146.379 85.0212 146.21C82.6343 145.919 80.4603 144.689 78.9776 142.79C77.4949 140.89 76.8248 138.477 77.1149 136.08L79.5759 115.751C79.6484 115.152 79.4809 114.548 79.1102 114.073C78.7395 113.599 78.196 113.291 77.5993 113.218L64.0992 111.577C63.5025 111.505 62.9014 111.673 62.4281 112.046C61.9549 112.418 61.6483 112.964 61.5757 113.563L59.1349 133.726C58.5394 138.646 54.1818 142.308 49.2734 141.844L45.99 140.887L41.6971 139.634C40.7474 139.358 39.8954 138.817 39.2404 138.073C38.5853 137.33 38.154 136.415 37.9968 135.435C37.8299 134.389 37.9837 133.316 38.4377 132.359L41.9484 124.921C42.6392 120.284 43.4715 115.567 44.44 110.731C45.4084 105.895 46.5154 100.941 47.7531 95.8303C49.0572 90.4505 50.4452 85.2711 51.9172 80.2921C44.9726 80.3886 38.1118 78.7674 31.9405 75.5716C26.6983 72.4793 23.6948 68.2457 24.0342 65.4423C24.3243 63.046 25.5507 60.8631 27.4436 59.3738C29.3366 57.8845 31.741 57.2109 34.128 57.5011L55.3181 60.077C77.1177 76.4794 98.4384 65.3188 98.4384 65.3188L119.481 67.8768C124.381 68.4725 128.027 72.8453 127.563 77.7728C127.511 78.2803 127.417 78.7826 127.282 79.2744Z" fill="url(#paint2_linear_850_16752)" fill-opacity="0.3"/>
<path opacity="0.6" d="M77.598 113.208L64.0979 111.567C63.5012 111.495 62.9001 111.663 62.4269 112.035C61.9536 112.408 61.647 112.953 61.5745 113.552L59.1324 133.726C58.5369 138.645 54.1793 142.308 49.271 141.843L45.9875 140.887L41.6947 139.634C40.7454 139.357 39.894 138.816 39.2394 138.073C38.5848 137.33 38.1539 136.415 37.9969 135.435C37.9758 134.939 37.9627 134.481 37.9582 134.078C37.9401 132.446 38.0695 131.65 38.4384 132.354C40.0045 135.364 49.4587 137.904 53.7651 136.718C58.0715 135.533 57.4369 120.448 60.1115 112.415C62.7862 104.381 77.598 113.208 77.598 113.208Z" fill="url(#paint3_radial_850_16752)"/>
<path d="M98.425 65.3198C98.425 65.3198 77.1042 76.4804 55.3047 60.078C57.3 58.628 59.5846 57.6294 62.001 57.1509C65.5809 61.7024 70.8086 64.6478 76.5445 65.3451C82.2804 66.0423 88.0592 64.4349 92.6212 60.8732C94.8534 61.9167 96.8334 63.4338 98.425 65.3198Z" fill="white" stroke="#182338" stroke-width="1.13928" stroke-miterlimit="10"/>
<path d="M76.5456 65.3443C70.8111 64.6511 65.5829 61.7106 62.0005 57.1635C63.7629 56.8166 65.5687 56.7516 67.3511 56.971L87.4862 59.4187C89.2692 59.6328 91.0072 60.1285 92.6357 60.8876C88.074 64.4498 82.2949 66.057 76.5591 65.3587L76.5456 65.3443Z" fill="white" stroke="#182338" stroke-width="1.13928" stroke-miterlimit="10"/>
<path d="M107.147 38.8754C106.446 44.6605 103.164 52.5766 98.5941 56.1722L92.6908 60.8257L92.6292 60.8742C88.0669 64.4353 82.2882 66.0423 76.5525 65.3451C70.8169 64.6478 65.5892 61.7028 62.009 57.1519L61.9606 57.09L57.3314 51.1562C55.5415 48.863 54.3208 45.5974 53.6382 42.1833C52.9733 38.9375 52.8099 35.6081 53.1538 32.3119C53.6222 29.4758 54.5211 26.7283 55.8193 24.1655C61.7763 12.4463 73.9243 9.37203 74.9191 9.13896C76.4567 8.77761 78.0222 8.54873 79.5986 8.45482C80.8768 8.37967 82.1586 8.39085 83.4352 8.48827C86.2603 8.95722 88.9967 9.85846 91.5491 11.1606C92.4594 11.6252 103.522 17.521 106.51 30.3275C107.156 33.1272 107.371 36.01 107.147 38.8754Z" fill="white" stroke="#182338" stroke-width="1.13928" stroke-miterlimit="10"/>
<path d="M98.425 65.3198C98.425 65.3198 77.1042 76.4804 55.3047 60.078C57.3 58.628 59.5846 57.6294 62.001 57.1509C65.5809 61.7024 70.8086 64.6478 76.5445 65.3451C82.2804 66.0423 88.0592 64.4349 92.6212 60.8732C94.8534 61.9167 96.8334 63.4338 98.425 65.3198Z" fill="url(#paint4_radial_850_16752)" fill-opacity="0.3" stroke="#182338" stroke-width="1.13928" stroke-miterlimit="10"/>
<path opacity="0.3" d="M107.147 38.8754C106.446 44.6605 103.164 52.5766 98.5941 56.1722L92.6908 60.8257L92.6292 60.8742C88.0669 64.4353 82.2882 66.0423 76.5525 65.3451C70.8169 64.6478 65.5892 61.7028 62.009 57.1519L61.9606 57.09L57.3314 51.1562C55.5415 48.863 54.3208 45.5974 53.6382 42.1833C52.9733 38.9375 52.8099 35.6081 53.1538 32.3119C53.6222 29.4758 54.5211 26.7283 55.8193 24.1655C61.7763 12.4463 73.9243 9.37203 74.9191 9.13896C76.4567 8.77761 78.0222 8.54873 79.5986 8.45482C80.8768 8.37967 82.1586 8.39085 83.4352 8.48827C86.2603 8.95722 88.9967 9.85846 91.5491 11.1606C92.4594 11.6252 103.522 17.521 106.51 30.3275C107.156 33.1272 107.371 36.01 107.147 38.8754Z" fill="url(#paint5_radial_850_16752)" stroke="#182338" stroke-width="1.13928" stroke-miterlimit="10"/>
<path d="M105.011 37.6556C105.144 35.5717 104.875 33.4819 104.219 31.5006C101.178 22.2326 90.9187 17.7333 90.0865 17.3775C87.6886 16.3703 85.1771 15.6605 82.6077 15.2637C80.0165 15.0328 77.4068 15.12 74.8364 15.5236C73.9336 15.6685 62.918 17.5816 57.7464 25.8512C56.6376 27.6184 55.877 29.5828 55.5061 31.6376C55.0055 35.7737 56.3961 41.8894 59.7771 45.2673L64.1515 49.6396C67.5323 53.02 72.3983 55.2797 77.6808 55.9218C82.9634 56.564 88.2299 55.5361 92.3192 53.0637L97.6099 49.8664C101.704 47.3971 104.511 41.7917 105.011 37.6556Z" fill="#504C57" stroke="#182338" stroke-width="1.13928" stroke-miterlimit="10"/>
<path d="M103.285 37.5122C103.407 35.5737 103.157 33.6299 102.548 31.7866C99.7179 23.1632 90.1816 18.9759 89.3948 18.6434C87.1633 17.707 84.8266 17.0467 82.436 16.6769C80.0265 16.4632 77.5999 16.5445 75.2097 16.919C74.369 17.0536 64.1077 18.8343 59.3049 26.5299C58.2727 28.1744 57.5649 30.0025 57.2198 31.9149C56.7537 35.7649 58.0488 41.4539 61.1942 44.5994L65.2689 48.6602C68.4137 51.8108 72.9415 53.9096 77.8565 54.5071C82.7715 55.1046 87.6716 54.1493 91.4788 51.8489L96.4041 48.8822C100.207 46.5762 102.819 41.3622 103.285 37.5122Z" fill="url(#paint6_radial_850_16752)"/>
<path d="M95.8493 26.1073C95.1772 24.4033 101.427 31.3695 100.607 38.1459C99.7866 44.9224 95.8383 46.7345 95.8383 46.7345C95.8383 46.7345 101.558 40.5537 95.8493 26.1073Z" fill="white"/>
<path d="M61.024 93.5549C60.3621 92.3236 59.9829 90.9593 59.9142 89.5617L60.5264 84.5044C60.7885 83.3877 61.328 81.9482 62.5567 80.8929C64.5899 79.1434 66.7936 79.9258 74.6773 80.7695C78.399 81.1659 84.8999 81.7397 86.4194 83.7937C86.9302 84.501 87.2912 85.3059 87.4801 86.1587C87.5801 86.6958 87.5992 87.245 87.5366 87.7878L86.9244 92.8451C86.5243 94.1853 85.8315 95.4191 84.8966 96.4569C79.3634 102.454 64.9533 100.702 61.024 93.5549Z" fill="url(#paint7_radial_850_16752)" stroke="#182338" stroke-width="0.644816" stroke-miterlimit="10"/>
<path d="M62.9121 93.0712C62.3494 92.0256 62.0277 90.8664 61.9706 89.6791L62.4908 85.3824C62.7121 84.4339 63.1697 83.211 64.2143 82.3142C65.9417 80.8281 67.8122 81.491 74.5113 82.2085C77.6743 82.5472 83.1937 83.0348 84.4869 84.7786C84.9217 85.3791 85.2283 86.0631 85.3878 86.788C85.4706 87.2442 85.4843 87.7104 85.4284 88.1707L84.9083 92.4675C84.5674 93.6057 83.9787 94.6537 83.1848 95.5356C78.4863 100.631 66.2362 99.1418 62.9121 93.0712Z" stroke="#182338" stroke-width="0.644816" stroke-miterlimit="10"/>
<path d="M64.7842 92.5855C64.3212 91.725 64.0562 90.7712 64.0085 89.7943L64.4365 86.2579C64.6313 85.2869 65.1283 84.4029 65.8558 83.7335C67.2723 82.5101 68.817 83.0569 74.3292 83.6455C76.931 83.9261 81.4742 84.3256 82.5384 85.7615C82.8953 86.2561 83.1475 86.8189 83.2793 87.4152C83.3476 87.7904 83.3585 88.1739 83.3116 88.5525L82.8836 92.0888C82.6042 93.0256 82.1202 93.8881 81.4668 94.6135C77.6055 98.8072 67.5329 97.5828 64.7842 92.5855Z" stroke="#182338" stroke-width="0.644816" stroke-miterlimit="10"/>
<path d="M66.6639 92.1113C66.3011 91.4359 66.0936 90.6876 66.0563 89.9211L66.3936 87.1352C66.5454 86.3731 66.935 85.6792 67.506 85.1541C68.6217 84.1947 69.8305 84.6243 74.1556 85.0864C76.1967 85.304 79.7632 85.6204 80.5961 86.7454C80.8771 87.1335 81.0757 87.5755 81.1797 88.0439C81.233 88.3382 81.242 88.6389 81.2061 88.9359L80.8701 91.7117C80.65 92.447 80.2691 93.1238 79.7551 93.6925C76.726 96.984 68.821 96.023 66.6639 92.1113Z" stroke="#182338" stroke-width="0.644816" stroke-miterlimit="10"/>
<path d="M68.5448 91.6167C68.2825 91.1288 68.1313 90.5885 68.102 90.0348L68.3451 88.027C68.4573 87.4769 68.7399 86.9764 69.1524 86.5971C69.9622 85.9009 70.8404 86.2114 73.9784 86.5471C75.4608 86.7069 78.0487 86.9349 78.6525 87.7519C78.8574 88.0333 79.0016 88.3544 79.0761 88.6948C79.1147 88.9081 79.1209 89.1261 79.0943 89.3413L78.8512 91.3492C78.6906 91.8798 78.4149 92.3681 78.0439 92.7791C75.8507 95.1585 70.1007 94.4595 68.5448 91.6167Z" stroke="#182338" stroke-width="0.644816" stroke-miterlimit="10"/>
<path d="M70.4249 91.1323C70.2607 90.8278 70.1672 90.49 70.1514 90.144L70.3033 88.8891C70.3718 88.5453 70.5474 88.2322 70.8047 87.9951C71.3087 87.5623 71.8485 87.7552 73.8068 87.9653C74.7284 88.0646 76.3398 88.207 76.7148 88.7135C76.8418 88.8891 76.9316 89.0889 76.9785 89.3008C77.0024 89.4332 77.0066 89.5684 76.9908 89.7021L76.8389 90.957C76.7389 91.2887 76.5668 91.5939 76.335 91.8508C74.9681 93.3349 71.3981 92.9009 70.4249 91.1323Z" stroke="#182338" stroke-width="0.644816" stroke-miterlimit="10"/>
<path d="M82.3351 125.876C82.0658 125.179 81.9258 124.439 81.9222 123.692L82.261 120.893C82.3875 120.15 82.7054 119.453 83.1831 118.871C84.0649 117.873 85.0062 118.27 88.3613 118.614C89.9447 118.779 92.7115 118.995 93.3306 120.105C93.6985 120.769 93.8432 121.535 93.7435 122.289L93.4048 125.087C93.2218 125.812 92.9094 126.497 92.4827 127.109C90.0321 130.504 83.9046 129.759 82.3351 125.876Z" fill="#99A3A3" stroke="#182338" stroke-width="0.284819" stroke-miterlimit="10"/>
<path d="M83.1129 125.594C82.8827 124.997 82.7634 124.363 82.761 123.722L83.0508 121.328C83.1596 120.693 83.4311 120.096 83.8387 119.598C84.6039 118.746 85.4 119.085 88.2699 119.372C89.6254 119.512 91.9926 119.698 92.5212 120.653C92.7029 120.997 92.8234 121.37 92.8773 121.756C92.9062 122.01 92.9049 122.266 92.8737 122.52L92.5839 124.914C92.4273 125.534 92.1603 126.121 91.7957 126.647C89.6993 129.547 84.4492 128.909 83.1129 125.594Z" fill="#99A3A3" stroke="#182338" stroke-width="0.284819" stroke-miterlimit="10"/>
<path d="M83.8903 125.309C83.6995 124.81 83.6003 124.28 83.5976 123.745L83.8385 121.755C83.9282 121.223 84.1548 120.724 84.4958 120.307C85.1322 119.597 85.7929 119.881 88.1784 120.125C89.3062 120.24 91.2737 120.395 91.7109 121.184C91.8628 121.469 91.9636 121.778 92.0086 122.099C92.0324 122.311 92.0312 122.525 92.0048 122.737L91.7639 124.728C91.636 125.247 91.4131 125.738 91.1066 126.176C89.3649 128.597 85.0074 128.068 83.8903 125.309Z" fill="#99A3A3" stroke="#182338" stroke-width="0.284819" stroke-miterlimit="10"/>
<path d="M84.6659 125.024C84.5143 124.628 84.4353 124.209 84.4327 123.786L84.6247 122.199C84.6975 121.779 84.8772 121.384 85.1466 121.053C85.6538 120.488 86.1819 120.715 88.0823 120.901C88.9792 120.994 90.5474 121.116 90.8966 121.752C91.1054 122.129 91.1872 122.563 91.1298 122.99L90.9378 124.576C90.8343 124.987 90.6575 125.375 90.416 125.723C89.0315 127.645 85.559 127.223 84.6659 125.024Z" fill="#99A3A3" stroke="#182338" stroke-width="0.284819" stroke-miterlimit="10"/>
<path d="M85.4464 124.739C85.3328 124.445 85.2744 124.132 85.2739 123.816L85.417 122.634C85.4713 122.322 85.6046 122.028 85.8043 121.782C86.1824 121.362 86.5756 121.53 87.9915 121.674C88.659 121.755 89.8291 121.834 90.0893 122.303C90.1787 122.468 90.2385 122.648 90.2661 122.834C90.2817 122.959 90.2817 123.086 90.2661 123.211L90.123 124.393C90.0451 124.699 89.913 124.988 89.7329 125.247C88.698 126.693 86.1105 126.378 85.4464 124.739Z" fill="#99A3A3" stroke="#182338" stroke-width="0.284819" stroke-miterlimit="10"/>
<path d="M86.2265 124.454C86.1503 124.262 86.1114 124.057 86.112 123.849L86.2062 123.071C86.2399 122.864 86.3282 122.67 86.462 122.509C86.7084 122.234 86.9665 122.344 87.8999 122.429C88.3399 122.483 89.1075 122.533 89.2795 122.852C89.3384 122.963 89.3778 123.085 89.396 123.21C89.4046 123.294 89.4036 123.38 89.3931 123.464L89.2989 124.242C89.2478 124.442 89.1613 124.632 89.0434 124.802C88.3641 125.74 86.6616 125.533 86.2265 124.454Z" fill="#99A3A3" stroke="#182338" stroke-width="0.284819" stroke-miterlimit="10"/>
<path d="M44.5435 119.851C44.3418 119.113 44.2699 118.346 44.3309 117.584L44.9079 114.745C45.096 113.998 45.4661 113.31 45.985 112.742C46.9501 111.79 47.8188 112.262 51.0733 112.851C52.607 113.132 55.3005 113.556 55.8021 114.735C55.9749 115.166 56.0748 115.622 56.0979 116.085C56.1032 116.393 56.0753 116.7 56.0148 117.002L55.4378 119.84C55.1975 120.566 54.8321 121.244 54.3582 121.843C51.6727 125.146 45.7295 123.947 44.5435 119.851Z" fill="#99A3A3" stroke="#182338" stroke-width="0.284819" stroke-miterlimit="10"/>
<path d="M45.3384 119.614C45.166 118.984 45.1045 118.33 45.1566 117.679L45.6481 115.253C45.8104 114.616 46.1273 114.029 46.5703 113.544C47.3919 112.73 48.142 113.134 50.9139 113.644C52.2242 113.885 54.5167 114.248 54.9502 115.256C55.2066 115.867 55.27 116.542 55.1321 117.19L54.6409 119.614C54.4339 120.233 54.1218 120.812 53.7183 121.325C51.4204 124.13 46.3596 123.102 45.3384 119.614Z" fill="#99A3A3" stroke="#182338" stroke-width="0.284819" stroke-miterlimit="10"/>
<path d="M46.1329 119.377C45.9897 118.856 45.9386 118.313 45.9819 117.774L46.3902 115.764C46.5222 115.235 46.7844 114.747 47.1529 114.346C47.8365 113.665 48.4636 113.996 50.7551 114.43C51.8397 114.628 53.739 114.928 54.0995 115.764C54.2228 116.068 54.2935 116.391 54.3086 116.719C54.3134 116.937 54.2938 117.155 54.2503 117.369L53.8423 119.377C53.6731 119.891 53.4149 120.37 53.0796 120.794C51.1739 123.125 46.9778 122.268 46.1329 119.377Z" fill="#99A3A3" stroke="#182338" stroke-width="0.284819" stroke-miterlimit="10"/>
<path d="M46.928 119.14C46.8139 118.726 46.7733 118.295 46.8081 117.867L47.1307 116.271C47.2373 115.852 47.4462 115.466 47.7385 115.148C48.2777 114.613 48.7681 114.879 50.5947 115.213C51.4583 115.371 52.9667 115.61 53.2569 116.272C53.4241 116.675 53.4659 117.118 53.3768 117.545L53.0518 119.14C52.9168 119.548 52.7119 119.929 52.4462 120.266C50.9287 122.114 47.599 121.434 46.928 119.14Z" fill="#99A3A3" stroke="#182338" stroke-width="0.284819" stroke-miterlimit="10"/>
<path d="M47.7227 118.903C47.6375 118.597 47.6073 118.279 47.6336 117.962L47.8729 116.782C47.9508 116.47 48.105 116.184 48.3215 115.947C48.7218 115.553 49.0836 115.75 50.4361 115.998C51.074 116.114 52.1917 116.29 52.4011 116.782C52.474 116.96 52.5154 117.15 52.5236 117.342C52.5222 117.47 52.5068 117.597 52.4777 117.721L52.2384 118.901C52.1378 119.203 51.9861 119.486 51.7899 119.736C50.6831 121.104 48.2196 120.603 47.7227 118.903Z" fill="#99A3A3" stroke="#182338" stroke-width="0.284819" stroke-miterlimit="10"/>
<path d="M48.5144 118.665C48.4601 118.467 48.4413 118.26 48.4589 118.055L48.6125 117.289C48.6652 117.088 48.765 116.903 48.9037 116.749C49.163 116.493 49.3987 116.621 50.2773 116.781C50.6892 116.857 51.4134 116.973 51.5501 117.29C51.597 117.406 51.6241 117.529 51.6303 117.654C51.6307 117.738 51.6205 117.822 51.5999 117.905L51.4439 118.67C51.3801 118.866 51.2824 119.049 51.1552 119.21C50.4366 120.096 48.8374 119.769 48.5144 118.665Z" fill="#99A3A3" stroke="#182338" stroke-width="0.284819" stroke-miterlimit="10"/>
<path d="M38.4969 58.3433C38.5625 60.8191 40.5462 62.7894 42.62 63.8488C44.9305 65.0262 47.87 65.1365 49.7562 63.1348C50.2019 62.6804 50.5362 62.1281 50.7325 61.5216C50.9288 60.9151 50.9816 60.2711 50.8869 59.6406C50.7818 59.0421 49.847 59.178 49.954 59.7819C50.3091 61.7733 48.5347 63.46 46.6875 63.7143C44.5038 64.0244 42.1302 62.8444 40.7086 61.2175C39.9434 60.3924 39.4918 59.3233 39.4329 58.1973C39.4141 58.0734 39.3473 57.962 39.2471 57.8874C39.1469 57.8127 39.0213 57.7808 38.8977 57.7986C38.7755 57.8199 38.666 57.8876 38.5921 57.9877C38.5181 58.0877 38.4853 58.2124 38.5003 58.3361L38.4969 58.3433Z" fill="#182338"/>
<path d="M104.663 66.4729C104.884 67.2695 105.291 68.0017 105.85 68.6087C106.409 69.2157 107.105 69.68 107.879 69.9632C109.668 70.5777 111.613 70.5589 113.39 69.9099C114.242 69.555 114.932 68.9462 115.141 68.0216C115.155 67.8967 115.119 67.7714 115.042 67.6725C114.965 67.5736 114.852 67.5091 114.728 67.4926C114.604 67.4808 114.48 67.5174 114.383 67.5947C114.285 67.672 114.221 67.784 114.203 67.9077C114.033 68.6637 113.159 69.0541 112.488 69.2272C111.509 69.485 110.489 69.547 109.486 69.4098C107.784 69.1724 106.049 68.1007 105.598 66.3395C105.577 66.2168 105.509 66.1069 105.41 66.0327C105.31 65.9585 105.186 65.9256 105.063 65.9408C104.939 65.9603 104.828 66.0278 104.754 66.1289C104.679 66.23 104.647 66.3564 104.665 66.4808L104.663 66.4729Z" fill="#182338"/>
<path d="M44.7479 64.4358C44.7169 69.4125 44.1608 74.3722 43.0887 79.2318C43.0743 79.3561 43.1094 79.4811 43.1862 79.5796C43.2631 79.6782 43.3757 79.7422 43.4994 79.7579C43.6231 79.7704 43.7469 79.7345 43.845 79.6578C43.9431 79.581 44.008 79.4692 44.0262 79.3457C45.0983 74.4862 45.6544 69.5265 45.6854 64.5497C45.6965 64.426 45.6603 64.3027 45.5839 64.2049C45.5076 64.1071 45.397 64.0423 45.2747 64.0236C45.1505 64.0085 45.0253 64.0433 44.9266 64.1206C44.8279 64.1978 44.7636 64.3111 44.7479 64.4358Z" fill="#182338"/>
<path d="M86.9412 129.632L84.9609 145.991C84.9552 146.111 84.9949 146.229 85.072 146.32C85.1491 146.412 85.258 146.471 85.3767 146.485C85.4954 146.5 85.6152 146.469 85.712 146.398C85.8088 146.328 85.8754 146.223 85.8984 146.105L87.8787 129.746C87.8844 129.626 87.8448 129.509 87.7676 129.417C87.6905 129.325 87.5816 129.266 87.4629 129.252C87.3442 129.237 87.2244 129.268 87.1276 129.339C87.0308 129.41 86.9642 129.514 86.9412 129.632Z" fill="#182338"/>
<path d="M48.0491 123.641C47.3907 126.021 46.7397 128.402 46.0731 130.786C45.4734 132.932 44.8347 135.233 43.5102 137.058C42.9029 137.883 42.123 138.626 41.0966 138.828C40.5013 138.946 40.6363 139.885 41.2366 139.767C43.3627 139.345 44.6217 137.349 45.456 135.507C46.4934 133.224 47.06 130.743 47.7243 128.336C48.124 126.892 48.5228 125.449 48.9207 124.007C48.9643 123.89 48.962 123.761 48.9142 123.646C48.8664 123.531 48.7767 123.438 48.6633 123.387C48.5476 123.34 48.4181 123.341 48.3029 123.39C48.1878 123.438 48.0963 123.53 48.0485 123.646L48.0491 123.641Z" fill="#182338"/>
<path d="M127.282 79.2769C126.719 81.398 125.412 83.2438 123.601 84.4745C121.79 85.7051 119.598 86.2376 117.427 85.9738C110.673 87.5982 103.624 87.5286 96.9039 85.771C96.9972 92.8164 97.2525 98.4197 97.2398 101.856C97.2001 113.312 96.6815 124.093 95.5589 134.12C95.1061 138.176 94.269 140.208 92.9021 141.776C95.8869 125.669 94.1007 94.4889 93.4968 85.479C93.4785 85.205 93.5249 84.9306 93.6321 84.6779C93.7393 84.4252 93.9043 84.2015 94.1137 84.0247C94.3232 83.848 94.5711 83.7233 94.8375 83.6608C95.1039 83.5983 95.3812 83.5996 95.6469 83.6648C107.13 86.436 120.822 81.8864 127.282 79.2769Z" fill="url(#paint8_radial_850_16752)" fill-opacity="0.6"/>
<path d="M127.281 79.277C126.718 81.3981 125.411 83.2439 123.6 84.4746C121.79 85.7052 119.597 86.2377 117.427 85.9739C110.672 87.5983 103.623 87.5287 96.9031 85.7711C96.9965 92.8165 97.2517 98.4198 97.2391 101.856C97.1994 113.312 96.6807 124.093 95.5582 134.12C95.1053 138.176 94.2682 140.208 92.9013 141.776C92.1088 142.686 91.1371 143.441 89.9575 144.342C88.1679 145.714 86.4128 146.381 85.0203 146.212C82.6333 145.922 80.4594 144.692 78.9766 142.792C77.4939 140.893 76.8239 138.479 77.114 136.083L79.5749 115.753C79.6474 115.154 79.4799 114.551 79.1093 114.076C78.7386 113.601 78.1951 113.294 77.5983 113.221L64.0983 111.58C63.5015 111.507 62.9004 111.676 62.4272 112.048C61.9539 112.42 61.6473 112.966 61.5748 113.565L59.1318 133.747C58.5363 138.666 54.1787 142.328 49.2704 141.864L45.9869 140.907L41.6941 139.654C40.9672 139.442 40.2949 139.075 39.7237 138.577C39.1524 138.078 38.6959 137.462 38.3855 136.769C38.0752 136.076 37.9185 135.324 37.9264 134.564C37.9342 133.804 38.1063 133.055 38.4309 132.369L41.9416 124.931C42.6324 120.293 43.4647 115.576 44.4331 110.74C45.4015 105.905 46.5086 100.951 47.7463 95.8398C49.0503 90.4601 50.4383 85.2807 51.9103 80.3016C44.9657 80.3981 38.105 78.7769 31.9337 75.5811C26.6915 72.4888 23.688 68.2552 24.0273 65.4518C24.3174 63.0555 25.5438 60.8726 27.4368 59.3833C29.3298 57.8941 31.7342 57.2204 34.1211 57.5106L55.3113 60.0865C77.1108 76.4889 98.4315 65.3283 98.4315 65.3283L119.474 67.8863C124.374 68.482 128.02 72.8549 127.556 77.7823C127.506 78.2873 127.414 78.7873 127.281 79.277V79.277Z" stroke="#182338" stroke-width="1.13928" stroke-miterlimit="10"/>
<path d="M109.627 70.4608C109.863 74.6515 109.72 78.8552 109.2 83.0204C109.057 84.205 108.878 85.3845 108.665 86.559C108.56 87.1599 109.497 87.2738 109.603 86.6729C110.346 82.4761 110.705 78.2198 110.675 73.9576C110.667 72.7409 110.629 71.5266 110.561 70.3146C110.528 69.707 109.602 69.8491 109.628 70.4558L109.627 70.4608Z" fill="#182338"/>
<path d="M105.721 66.4768L105.391 67.1294L107.472 69.3637L111.943 69.9378L114.667 68.4149L114.729 67.3833L108.339 66.6065L105.721 66.4768Z" fill="#182338"/>
<path d="M38.939 57.7449C38.9675 57.9699 39.7179 60.4474 39.7179 60.4474L42.0474 62.9768L45.144 63.9899L48.0373 63.8323L49.9429 62.2354L50.4053 60.2389L50.1288 59.3165L38.939 57.7449Z" fill="#182338"/>
<path d="M25.2297 70.98L25.2569 71.0177C25.4239 71.2448 25.6352 71.4353 25.8781 71.5775C26.121 71.7197 26.3903 71.8106 26.6695 71.8446C26.9487 71.8786 27.2319 71.8549 27.5017 71.7752C27.7715 71.6954 28.0222 71.5611 28.2386 71.3806L28.3936 71.2514C28.643 71.0432 28.8401 70.7791 28.9692 70.4804C29.0983 70.1817 29.1557 69.8568 29.1368 69.5319L28.7094 62.3309C28.693 62.0583 28.6232 61.7916 28.5038 61.5463C28.3845 61.3009 28.2181 61.0817 28.014 60.9011L27.8013 60.7072C27.5614 60.4944 27.2756 60.3404 26.9664 60.2574C26.6571 60.1744 26.3328 60.1646 26.019 60.2288C25.7053 60.2931 25.4107 60.4296 25.1584 60.6276C24.9061 60.8256 24.703 61.0797 24.5652 61.3699C24.4141 61.688 24.3465 62.0395 24.3688 62.3912L24.8321 69.8763C24.8547 70.2753 24.9928 70.6589 25.2297 70.98Z" fill="white" stroke="#182338" stroke-width="1.13928" stroke-miterlimit="10"/>
<path d="M26.5826 69.141L26.3913 62.854C26.3761 62.3447 26.241 61.8553 26.0007 61.4392C25.7605 61.0231 25.4243 60.6962 25.029 60.4943L22.1618 59.0338C21.9687 58.9347 21.7638 58.8675 21.5529 58.8341L17.8847 58.2339C17.7673 58.216 17.6487 58.207 17.5298 58.207L14.1716 58.2474C13.8401 58.2506 13.5102 58.3347 13.2032 58.4941C12.8961 58.6536 12.6187 58.8849 12.3886 59.1734L11.9392 59.7342L11.2244 60.6247C10.9168 61.0099 10.7034 61.483 10.6081 61.9916L9.7242 66.7125C9.62061 67.2608 9.65987 67.8266 9.83688 68.3362L10.1813 69.3323C10.3488 69.8147 10.6321 70.2267 10.9982 70.5205C11.3642 70.8142 11.7981 70.9777 12.2496 70.992L14.1284 71.0444C14.464 71.0518 14.7917 71.1421 15.09 71.3094C15.3884 71.4767 15.6506 71.7172 15.8593 72.0151C16.0681 72.313 16.2187 72.6614 16.3013 73.0375C16.3838 73.4137 16.3964 73.8089 16.3383 74.1973L16.3171 74.3533C16.2371 74.9106 16.3021 75.4768 16.5037 75.978C16.7052 76.4793 17.034 76.8924 17.4471 77.1634L17.7779 77.3795C18.224 77.6736 18.7456 77.7861 19.2637 77.7C19.7817 77.6139 20.2678 77.3338 20.6482 76.9024L22.334 74.9637L25.7461 71.3835C26.019 71.101 26.236 70.7526 26.3808 70.3643C26.5257 69.976 26.5946 69.5579 26.5826 69.141Z" fill="white"/>
<path d="M26.5826 69.141L26.3913 62.854C26.3761 62.3447 26.241 61.8553 26.0007 61.4392C25.7605 61.0231 25.4243 60.6962 25.029 60.4943L22.1618 59.0338C21.9687 58.9347 21.7638 58.8675 21.5529 58.8341L17.8847 58.2339C17.7673 58.216 17.6487 58.207 17.5298 58.207L14.1716 58.2474C13.8401 58.2506 13.5102 58.3347 13.2032 58.4941C12.8961 58.6536 12.6187 58.8849 12.3886 59.1734L11.9392 59.7342L11.2244 60.6247C10.9168 61.0099 10.7034 61.483 10.6081 61.9916L9.7242 66.7125C9.62061 67.2608 9.65987 67.8266 9.83688 68.3362L10.1813 69.3323C10.3488 69.8147 10.6321 70.2267 10.9982 70.5205C11.3642 70.8142 11.7981 70.9777 12.2496 70.992L14.1284 71.0444C14.464 71.0518 14.7917 71.1421 15.09 71.3094C15.3884 71.4767 15.6506 71.7172 15.8593 72.0151C16.0681 72.313 16.2187 72.6614 16.3013 73.0375C16.3838 73.4137 16.3964 73.8089 16.3383 74.1973L16.3171 74.3533C16.2371 74.9106 16.3021 75.4768 16.5037 75.978C16.7052 76.4793 17.034 76.8924 17.4471 77.1634L17.7779 77.3795C18.224 77.6736 18.7456 77.7861 19.2637 77.7C19.7817 77.6139 20.2678 77.3338 20.6482 76.9024L22.334 74.9637L25.7461 71.3835C26.019 71.101 26.236 70.7526 26.3808 70.3643C26.5257 69.976 26.5946 69.5579 26.5826 69.141Z" fill="url(#paint9_radial_850_16752)" fill-opacity="0.6"/>
<path opacity="0.6" d="M26.5827 69.1409L26.3915 62.8539C26.3762 62.3446 26.2411 61.8552 26.0009 61.4391C25.7606 61.0229 25.4245 60.6961 25.0291 60.4942L22.162 59.0337C21.9688 58.9345 21.764 58.8673 21.553 58.834L17.8848 58.2338C17.7674 58.2159 17.6489 58.2069 17.5299 58.2069L14.1717 58.2473C13.8402 58.2505 13.5104 58.3345 13.2033 58.494C12.8963 58.6535 12.6188 58.8848 12.3887 59.1733L11.9394 59.7341C13.3833 60.3824 16.5048 60.4915 18.1249 60.6332C20.2482 60.822 24.6741 61.1889 25.0011 62.9751C25.328 64.7613 23.8824 66.124 24.327 66.4061C27.0316 68.1215 23.8851 73.4146 20.9483 74.2027C19.6935 74.5415 19.2546 77.3691 16.5256 75.1029C16.724 75.4775 17.1112 76.951 17.4551 77.1679L17.7859 77.384C18.2316 77.6752 18.7519 77.7858 19.2683 77.6989C19.7847 77.612 20.2691 77.3324 20.6483 76.9023L22.3341 74.9636L25.7463 71.3834C26.0192 71.1009 26.2361 70.7525 26.381 70.3642C26.5258 69.9759 26.5948 69.5578 26.5827 69.1409Z" fill="url(#paint10_radial_850_16752)"/>
<path d="M26.5826 69.141L26.3913 62.854C26.3761 62.3447 26.241 61.8553 26.0007 61.4392C25.7605 61.0231 25.4243 60.6962 25.029 60.4943L22.1618 59.0338C21.9687 58.9347 21.7638 58.8675 21.5529 58.8341L17.8847 58.2339C17.7673 58.216 17.6487 58.207 17.5298 58.207L14.1716 58.2474C13.8401 58.2506 13.5102 58.3347 13.2032 58.4941C12.8961 58.6536 12.6187 58.8849 12.3886 59.1734L11.9392 59.7342L11.2244 60.6247C10.9168 61.0099 10.7034 61.483 10.6081 61.9916L9.7242 66.7125C9.62061 67.2608 9.65987 67.8266 9.83688 68.3362L10.1813 69.3323C10.3488 69.8147 10.6321 70.2267 10.9982 70.5205C11.3642 70.8142 11.7981 70.9777 12.2496 70.992L14.1284 71.0444C14.464 71.0518 14.7917 71.1421 15.09 71.3094C15.3884 71.4767 15.6506 71.7172 15.8593 72.0151C16.0681 72.313 16.2187 72.6614 16.3013 73.0375C16.3838 73.4137 16.3964 73.8089 16.3383 74.1973L16.3171 74.3533C16.2371 74.9106 16.3021 75.4768 16.5037 75.978C16.7052 76.4793 17.034 76.8924 17.4471 77.1634L17.7779 77.3795C18.224 77.6736 18.7456 77.7861 19.2637 77.7C19.7817 77.6139 20.2678 77.3338 20.6482 76.9024L22.334 74.9637L25.7461 71.3835C26.019 71.101 26.236 70.7526 26.3808 70.3643C26.5257 69.976 26.5946 69.5579 26.5826 69.141V69.141Z" stroke="#182338" stroke-width="1.13928" stroke-miterlimit="10"/>
<path d="M124.419 83.9579L124.384 83.9884C124.17 84.1717 123.921 84.3093 123.652 84.3926C123.383 84.476 123.1 84.5033 122.821 84.473C122.541 84.4427 122.271 84.3554 122.026 84.2165C121.781 84.0775 121.567 83.8898 121.397 83.6649L121.276 83.5038C121.08 83.2444 120.948 82.9424 120.889 82.6222C120.831 82.3019 120.849 81.9724 120.941 81.6602L122.986 74.7436C123.063 74.4818 123.192 74.238 123.363 74.0261C123.535 73.8143 123.747 73.6385 123.986 73.509L124.237 73.3684C124.519 73.2156 124.832 73.1305 125.152 73.1199C125.472 73.1093 125.79 73.1734 126.081 73.3072C126.372 73.441 126.628 73.6409 126.829 73.891C127.03 74.1411 127.171 74.4347 127.239 74.7487C127.314 75.0928 127.301 75.4505 127.2 75.788L125.055 82.9731C124.943 83.3566 124.722 83.6989 124.419 83.9579Z" fill="white" stroke="#182338" stroke-width="1.13928" stroke-miterlimit="10"/>
<path d="M123.517 81.8594L125.125 75.7793C125.255 75.2867 125.497 74.8407 125.825 74.49C126.153 74.1392 126.555 73.8972 126.985 73.7904L130.108 73.0189C130.319 72.9662 130.534 72.9472 130.747 72.9626L134.455 73.211C134.574 73.2203 134.691 73.2384 134.807 73.2653L138.069 74.0673C138.391 74.1457 138.693 74.3024 138.956 74.5275C139.219 74.7525 139.437 75.0409 139.596 75.374L139.907 76.0223L140.401 77.052C140.614 77.497 140.715 78.0062 140.693 78.5232L140.486 83.322C140.463 83.8796 140.296 84.4217 140.009 84.8779L139.448 85.7699C139.176 86.2017 138.807 86.5387 138.384 86.7417C137.961 86.9446 137.501 87.0053 137.058 86.9167L135.216 86.5412C134.888 86.4722 134.548 86.4857 134.22 86.5809C133.891 86.6762 133.582 86.8509 133.311 87.0936C133.04 87.3363 132.815 87.6415 132.649 87.9891C132.484 88.3366 132.382 88.7187 132.351 89.1102L132.336 89.267C132.288 89.8279 132.097 90.3646 131.787 90.8071C131.477 91.2496 131.064 91.5772 130.6 91.7474L130.229 91.8827C129.728 92.0679 129.195 92.059 128.709 91.8575C128.224 91.656 127.814 91.2729 127.541 90.7663L126.338 88.4953L123.824 84.2334C123.622 83.8963 123.49 83.5077 123.437 83.0966C123.383 82.6856 123.411 82.2626 123.517 81.8594Z" fill="white"/>
<path d="M123.517 81.8594L125.125 75.7793C125.255 75.2867 125.497 74.8407 125.825 74.49C126.153 74.1392 126.555 73.8972 126.985 73.7904L130.108 73.0189C130.319 72.9662 130.534 72.9472 130.747 72.9626L134.455 73.211C134.574 73.2203 134.691 73.2384 134.807 73.2653L138.069 74.0673C138.391 74.1457 138.693 74.3024 138.956 74.5275C139.219 74.7525 139.437 75.0409 139.596 75.374L139.907 76.0223L140.401 77.052C140.614 77.497 140.715 78.0062 140.693 78.5232L140.486 83.322C140.463 83.8796 140.296 84.4217 140.009 84.8779L139.448 85.7699C139.176 86.2017 138.807 86.5387 138.384 86.7417C137.961 86.9446 137.501 87.0053 137.058 86.9167L135.216 86.5412C134.888 86.4722 134.548 86.4857 134.22 86.5809C133.891 86.6762 133.582 86.8509 133.311 87.0936C133.04 87.3363 132.815 87.6415 132.649 87.9891C132.484 88.3366 132.382 88.7187 132.351 89.1102L132.336 89.267C132.288 89.8279 132.097 90.3646 131.787 90.8071C131.477 91.2496 131.064 91.5772 130.6 91.7474L130.229 91.8827C129.728 92.0679 129.195 92.059 128.709 91.8575C128.224 91.656 127.814 91.2729 127.541 90.7663L126.338 88.4953L123.824 84.2334C123.622 83.8963 123.49 83.5077 123.437 83.0966C123.383 82.6856 123.411 82.2626 123.517 81.8594Z" fill="url(#paint11_radial_850_16752)" fill-opacity="0.6"/>
<path opacity="0.6" d="M123.517 81.8595L125.125 75.7795C125.256 75.2869 125.498 74.8409 125.826 74.4901C126.154 74.1394 126.555 73.8974 126.986 73.7905L130.109 73.019C130.32 72.9663 130.534 72.9474 130.747 72.9628L134.456 73.2112C134.574 73.2204 134.692 73.2385 134.808 73.2655L138.069 74.0674C138.391 74.1458 138.694 74.3026 138.957 74.5276C139.22 74.7527 139.438 75.041 139.596 75.3742L139.907 76.0224C138.354 76.326 135.289 75.7235 133.679 75.4936C131.569 75.1954 127.175 74.5478 126.452 76.2132C125.73 77.8787 126.83 79.5342 126.333 79.708C123.311 80.7646 125.178 86.6346 127.86 88.069C129.006 88.6839 128.794 91.5376 131.964 89.95C131.686 90.2698 130.976 91.6171 130.592 91.7502L130.221 91.8856C129.721 92.0681 129.189 92.0576 128.706 91.8557C128.223 91.6538 127.814 91.2714 127.542 90.7664L126.339 88.4954L123.825 84.2335C123.623 83.8964 123.49 83.5078 123.437 83.0968C123.384 82.6857 123.411 82.2628 123.517 81.8595Z" fill="url(#paint12_radial_850_16752)"/>
<path d="M123.517 81.8594L125.125 75.7793C125.255 75.2867 125.497 74.8407 125.825 74.49C126.153 74.1392 126.555 73.8972 126.985 73.7904L130.108 73.0189C130.319 72.9662 130.534 72.9472 130.747 72.9626L134.455 73.211C134.574 73.2203 134.691 73.2384 134.807 73.2653L138.069 74.0673C138.391 74.1457 138.693 74.3024 138.956 74.5275C139.219 74.7525 139.437 75.0409 139.596 75.374L139.907 76.0223L140.401 77.052C140.614 77.497 140.715 78.0062 140.693 78.5232L140.486 83.322C140.463 83.8796 140.296 84.4217 140.009 84.8779L139.448 85.7699C139.176 86.2017 138.807 86.5387 138.384 86.7417C137.961 86.9446 137.501 87.0053 137.058 86.9167L135.216 86.5412C134.888 86.4722 134.548 86.4857 134.22 86.5809C133.891 86.6762 133.582 86.8509 133.311 87.0936C133.04 87.3363 132.815 87.6415 132.649 87.9891C132.484 88.3366 132.382 88.7187 132.351 89.1102L132.336 89.267C132.288 89.8279 132.097 90.3646 131.787 90.8071C131.477 91.2496 131.064 91.5772 130.6 91.7474L130.229 91.8827C129.728 92.0679 129.195 92.059 128.709 91.8575C128.224 91.656 127.814 91.2729 127.541 90.7663L126.338 88.4953L123.824 84.2334C123.622 83.8963 123.49 83.5077 123.437 83.0966C123.383 82.6856 123.411 82.2626 123.517 81.8594V81.8594Z" stroke="#182338" stroke-width="1.13928" stroke-miterlimit="10"/>
<defs>
<radialGradient id="paint0_radial_850_16752" cx="0" cy="0" r="1" gradientUnits="userSpaceOnUse" gradientTransform="translate(74.4564 59.7279) rotate(56.335) scale(57.831 74.774)">
<stop stop-color="#A6FFD4"/>
<stop offset="0.48193" stop-color="#83EAE4" stop-opacity="0.31"/>
<stop offset="1" stop-color="#C037C2" stop-opacity="0.96"/>
</radialGradient>
<radialGradient id="paint1_radial_850_16752" cx="0" cy="0" r="1" gradientUnits="userSpaceOnUse" gradientTransform="translate(73.5922 59.7679) rotate(56.3344) scale(55.1215 71.2708)">
<stop stop-color="#A6FFD4"/>
<stop offset="0.48193" stop-color="#83EAE4" stop-opacity="0.31"/>
<stop offset="1" stop-color="#C037C2" stop-opacity="0.96"/>
</radialGradient>
<linearGradient id="paint2_linear_850_16752" x1="24.8039" y1="13.9532" x2="109.053" y2="169.09" gradientUnits="userSpaceOnUse">
<stop stop-color="#F4F4F4"/>
<stop offset="0.358938" stop-color="#F9F9F9"/>
<stop offset="0.48193" stop-color="#FABAFC" stop-opacity="0.28"/>
<stop offset="0.567848" stop-color="#F7F7F7" stop-opacity="0.96"/>
</linearGradient>
<radialGradient id="paint3_radial_850_16752" cx="0" cy="0" r="1" gradientUnits="userSpaceOnUse" gradientTransform="translate(56.5939 113.672) rotate(50.6757) scale(35.4974 46.4053)">
<stop stop-color="#F4F4F4"/>
<stop offset="0.48193" stop-color="#361836" stop-opacity="0.22"/>
<stop offset="1" stop-color="#C037C2" stop-opacity="0.96"/>
</radialGradient>
<radialGradient id="paint4_radial_850_16752" cx="0" cy="0" r="1" gradientUnits="userSpaceOnUse" gradientTransform="translate(74.4219 60.2954) rotate(19.9095) scale(30.9074 17.7084)">
<stop stop-color="#F4F4F4"/>
<stop offset="0.48193" stop-color="#F4F4F4"/>
<stop offset="1" stop-color="#C037C2" stop-opacity="0.96"/>
</radialGradient>
<radialGradient id="paint5_radial_850_16752" cx="0" cy="0" r="1" gradientUnits="userSpaceOnUse" gradientTransform="translate(78.9161 17.5097) rotate(54.0612) scale(55.4551 72.3604)">
<stop stop-color="#060006"/>
<stop offset="0.567708" stop-color="#BAAEBA" stop-opacity="0.566733"/>
<stop offset="1" stop-color="#C037C2" stop-opacity="0.96"/>
</radialGradient>
<radialGradient id="paint6_radial_850_16752" cx="0" cy="0" r="1" gradientUnits="userSpaceOnUse" gradientTransform="translate(70.4675 27.2864) rotate(63.176) scale(40.5948 44.4488)">
<stop stop-color="#2F6756"/>
<stop offset="0.427083" stop-color="#1B0724"/>
<stop offset="0.699054" stop-color="#2F1A51"/>
<stop offset="1" stop-color="#7C2BA3"/>
</radialGradient>
<radialGradient id="paint7_radial_850_16752" cx="0" cy="0" r="1" gradientUnits="userSpaceOnUse" gradientTransform="translate(67.7824 86.018) rotate(59.2654) scale(21.642 24.8138)">
<stop stop-color="#DDDDDD"/>
<stop offset="0.1875" stop-color="#CACACA"/>
<stop offset="0.32884" stop-color="#CB9CCC"/>
<stop offset="0.699054" stop-color="#DADADA"/>
<stop offset="1" stop-color="#EFEFEF"/>
</radialGradient>
<radialGradient id="paint8_radial_850_16752" cx="0" cy="0" r="1" gradientUnits="userSpaceOnUse" gradientTransform="translate(107.633 87.9497) rotate(74.0785) scale(68.5161 70.3452)">
<stop stop-color="#F4F4F4"/>
<stop offset="0.0001" stop-color="#DD40CD" stop-opacity="0.27"/>
<stop offset="0.48193" stop-color="#E258E4" stop-opacity="0.22"/>
<stop offset="1" stop-color="#C037C2" stop-opacity="0.96"/>
</radialGradient>
<radialGradient id="paint9_radial_850_16752" cx="0" cy="0" r="1" gradientUnits="userSpaceOnUse" gradientTransform="translate(15.7419 73.7097) rotate(-35.1037) scale(17.7138 23.8669)">
<stop stop-color="#FD2E2E" stop-opacity="0.4"/>
<stop offset="0.453125" stop-color="#D92A4A" stop-opacity="0.78"/>
<stop offset="1" stop-color="#EB2A2A"/>
</radialGradient>
<radialGradient id="paint10_radial_850_16752" cx="0" cy="0" r="1" gradientUnits="userSpaceOnUse" gradientTransform="translate(16.1858 73.8244) rotate(-36.525) scale(17.3532 23.2116)">
<stop stop-color="#F4F4F4"/>
<stop offset="0.48193" stop-color="#BAAEBA" stop-opacity="0.566733"/>
<stop offset="1" stop-color="#C037C2" stop-opacity="0.96"/>
<stop offset="1" stop-color="#98FF7E" stop-opacity="0.96"/>
</radialGradient>
<radialGradient id="paint11_radial_850_16752" cx="0" cy="0" r="1" gradientUnits="userSpaceOnUse" gradientTransform="translate(133.042 88.7707) rotate(-131.795) scale(17.7218 23.8561)">
<stop stop-color="#FD2E2E" stop-opacity="0.4"/>
<stop offset="0.453125" stop-color="#D92A4A" stop-opacity="0.78"/>
<stop offset="1" stop-color="#EB2A2A"/>
</radialGradient>
<radialGradient id="paint12_radial_850_16752" cx="0" cy="0" r="1" gradientUnits="userSpaceOnUse" gradientTransform="translate(132.585 88.7819) rotate(-130.375) scale(17.361 23.2011)">
<stop stop-color="#F4F4F4"/>
<stop offset="0.48193" stop-color="#BAAEBA" stop-opacity="0.566733"/>
<stop offset="1" stop-color="#C037C2" stop-opacity="0.96"/>
<stop offset="1" stop-color="#98FF7E" stop-opacity="0.96"/>
</radialGradient>
</defs>
</svg>
