<svg width="248" height="44" viewBox="0 0 248 44" fill="none" xmlns="http://www.w3.org/2000/svg">
    <mask id="mask0_4746_3304" style="mask-type:alpha" maskUnits="userSpaceOnUse" x="0" y="0" width="248" height="44">
        <rect x="1" y="1" width="246" height="42" rx="5" fill="#212130" stroke="#1E1E2C" stroke-width="2"/>
    </mask>
    <g mask="url(#mask0_4746_3304)">
        <path d="M61.7049 14.9434L33.2128 3.12475C32.0618 2.64727 30.7632 2.65855 29.6029 3.15605C28.4425 3.65356 27.5154 4.59656 27.0255 5.77761L25.9248 8.43103C25.4721 9.52243 24.6168 10.3948 23.5458 10.8576C22.4747 11.3204 21.275 11.3359 20.2088 10.9008C17.2267 9.66378 13.8626 9.69295 10.8565 10.9818C7.85043 12.2707 5.44862 14.7137 4.17943 17.7734L-9.08593 49.7531C-9.59361 50.977 -9.60665 52.3473 -9.12217 53.5626C-8.6377 54.7779 -7.6954 55.7386 -6.50257 56.2334L37.9333 74.6657C39.1261 75.1605 40.4718 75.1488 41.6742 74.6332C42.8767 74.1177 43.8374 73.1405 44.3451 71.9166L64.7217 22.7934C65.3381 21.3247 65.3674 19.6786 64.803 18.2101C64.2386 16.7416 63.1259 15.5683 61.7049 14.9434V14.9434ZM35.1632 17.1039L38.8166 12.4265C39.3309 11.7561 40.0437 11.2719 40.8459 11.0478C41.6481 10.8238 42.4955 10.8723 43.2584 11.186L48.2957 13.2755C47.4301 15.3622 45.7921 17.0283 43.7419 17.9074C41.6917 18.7864 39.3974 18.8062 37.3637 17.9626L35.1632 17.1039Z" fill="#242431" stroke="#212130" stroke-miterlimit="10"/>
        <path d="M61.7037 14.9431L40.88 6.30528C40.3105 6.06545 39.6979 5.94388 39.0776 5.94761C38.4573 5.95133 37.8416 6.08029 37.2662 6.32699C36.6908 6.5737 36.1671 6.93328 35.7254 7.3849C35.2836 7.83653 34.9326 8.37125 34.6927 8.95814L33.592 11.6116C33.3671 12.1539 33.0402 12.6478 32.63 13.065C32.2199 13.4822 31.7345 13.8145 31.2016 14.0429C30.6688 14.2714 30.0988 14.3916 29.5243 14.3966C28.9499 14.4015 28.3821 14.2912 27.8535 14.072C24.8715 12.835 21.5073 12.8642 18.5012 14.153C15.4951 15.4419 13.0933 17.8849 11.8241 20.9446L-1.44123 52.9243C-1.9489 54.1482 -1.96194 55.5185 -1.47747 56.7338C-0.992992 57.9491 -0.0506891 58.9098 1.14214 59.4046L37.9097 74.656C39.1025 75.1508 40.4481 75.1391 41.6506 74.6236C42.853 74.108 43.8138 73.1308 44.3214 71.9069L64.698 22.7837C65.313 21.319 65.3439 19.6776 64.7841 18.2117C64.2243 16.7458 63.1184 15.5723 61.7037 14.9431ZM35.1621 17.1036L38.8155 12.4261C39.3298 11.7558 40.0425 11.2715 40.8447 11.0475C41.6469 10.8235 42.4943 10.872 43.2573 11.1856L48.2945 13.2751C47.4289 15.3619 45.7909 17.028 43.7407 17.907C41.6906 18.786 39.3963 18.8059 37.3625 17.9623L35.1621 17.1036Z" fill="#242431" stroke="#212130" stroke-miterlimit="10"/>
        <circle cx="30.6341" cy="42.0652" r="12.3546" transform="rotate(22.529 30.6341 42.0652)" fill="#242431" stroke="#212130"/>
        <path opacity="0.9" d="M59.2478 17.818C58.3823 19.9047 56.7442 21.5709 54.694 22.4499C52.6439 23.3289 50.3496 23.3488 48.3158 22.5052L37.3642 17.9624C39.398 18.806 41.6923 18.7861 43.7425 17.9071C45.7926 17.0281 47.4307 15.362 48.2963 13.2752L59.2478 17.818Z" fill="#242431" stroke="#212130" stroke-miterlimit="10"/>
        <path d="M18.3695 13.4916C16.0886 13.8436 14.2082 12.6579 14.1868 11.7566L13.7835 9.61517L21.6033 9.12684L22.2123 11.4077L22.0496 11.7999C21.5737 12.3159 21.0029 12.7314 20.3709 13.022C19.7388 13.3125 19.0583 13.4722 18.3695 13.4916Z" fill="#242431" stroke="#212130" stroke-miterlimit="10"/>
        <path d="M17.6257 11.1664C19.8258 11.136 21.6129 10.3425 21.6172 9.39422C21.6215 8.4459 19.8414 7.70177 17.6413 7.73218C15.4412 7.76258 13.6542 8.556 13.6499 9.50432C13.6456 10.4526 15.4256 11.1968 17.6257 11.1664Z" fill="#242431" stroke="#212130" stroke-miterlimit="10"/>
        <path d="M173.119 3.06978L189.723 32.2025C190.394 33.3794 191.517 34.2347 192.845 34.5803C194.173 34.9259 195.598 34.7333 196.806 34.0451L199.519 32.4987C200.635 31.8627 201.95 31.683 203.179 31.9989C204.407 32.3148 205.448 33.1007 206.074 34.1847C207.812 37.2338 210.722 39.4497 214.163 40.3449C217.604 41.2402 221.294 40.7414 224.423 38.9583L257.122 20.3218C258.373 19.6085 259.297 18.44 259.69 17.0732C260.084 15.7065 259.914 14.2535 259.219 13.0338L233.324 -32.4012C232.628 -33.6209 231.465 -34.5072 230.088 -34.8653C228.712 -35.2234 227.236 -35.0239 225.984 -34.3106L175.756 -5.68356C174.249 -4.83252 173.127 -3.43785 172.633 -1.80035C172.14 -0.162837 172.314 1.5863 173.119 3.06978V3.06978ZM197.359 18.8941L191.105 20.4787C190.217 20.712 189.282 20.6532 188.443 20.3113C187.605 19.9694 186.909 19.3632 186.463 18.5855L183.527 13.435C185.661 12.2189 188.178 11.8787 190.525 12.4893C192.872 13.0998 194.856 14.6111 196.041 16.6906L197.359 18.8941Z" fill="#242431" stroke="#212130" stroke-miterlimit="10"/>
        <path d="M173.12 3.07093L185.255 24.3628C185.584 24.9482 186.03 25.4608 186.565 25.8708C187.1 26.2808 187.715 26.5801 188.374 26.7515C189.032 26.9228 189.722 26.9628 190.402 26.8691C191.083 26.7753 191.74 26.5498 192.337 26.2054L195.05 24.6591C195.605 24.343 196.215 24.1365 196.845 24.0514C197.475 23.9662 198.114 24.004 198.724 24.1627C199.334 24.3214 199.903 24.5978 200.4 24.9762C200.897 25.3546 201.311 25.8276 201.619 26.3681C203.357 29.4172 206.267 31.6331 209.708 32.5283C213.149 33.4235 216.839 32.9247 219.968 31.1417L252.667 12.5051C253.918 11.7919 254.842 10.6234 255.235 9.25663C255.629 7.88987 255.459 6.43685 254.764 5.2172L233.337 -32.3771C232.642 -33.5967 231.478 -34.4831 230.102 -34.8412C228.726 -35.1993 227.249 -34.9997 225.998 -34.2865L175.77 -5.65941C174.266 -4.81077 173.146 -3.42122 172.651 -1.78901C172.155 -0.156796 172.323 1.588 173.12 3.07093ZM197.36 18.8952L191.106 20.4798C190.217 20.7131 189.282 20.6543 188.444 20.3124C187.606 19.9705 186.91 19.3643 186.464 18.5867L183.528 13.4361C185.662 12.2201 188.179 11.8799 190.526 12.4904C192.872 13.101 194.857 14.6122 196.042 16.6917L197.36 18.8952Z" fill="#242431" stroke="#212130" stroke-miterlimit="10"/>
        <circle cx="217.878" cy="0.467467" r="13.474" transform="rotate(-119.681 217.878 0.467467)" fill="#242431" stroke="#212130"/>
        <path opacity="0.9" d="M177.144 2.23707C179.278 1.02101 181.795 0.680836 184.142 1.29138C186.489 1.90192 188.473 3.41316 189.658 5.49266L196.04 16.6905C194.855 14.611 192.871 13.0997 190.524 12.4892C188.177 11.8786 185.66 12.2188 183.527 13.4349L177.144 2.23707Z" fill="#242431" stroke="#212130" stroke-miterlimit="10"/>
        <path d="M209.38 33.1842C211.574 34.4012 212.4 36.6723 211.818 37.461L210.738 39.5692L203.695 34.7797L204.691 32.4146L205.092 32.186C205.844 32.0598 206.612 32.083 207.348 32.2544C208.085 32.4259 208.776 32.742 209.38 33.1842Z" fill="#242431" stroke="#212130" stroke-miterlimit="10"/>
        <path d="M208.47 35.6773C206.56 34.2379 204.496 33.7291 203.861 34.5409C203.225 35.3527 204.259 37.1777 206.169 38.6172C208.079 40.0566 210.143 40.5654 210.779 39.7536C211.414 38.9418 210.38 37.1168 208.47 35.6773Z" fill="#242431" stroke="#212130" stroke-miterlimit="10"/>
    </g>
</svg>
