<svg width="38" height="42" viewBox="0 0 38 42" fill="none" xmlns="http://www.w3.org/2000/svg">
<path opacity="0.9" d="M33.3939 1H14.197C13.4214 1 12.6776 1.31612 12.1292 1.87881C11.5808 2.44149 11.2727 3.20465 11.2727 4.0004V5.78818C11.2727 6.52353 10.9891 7.22897 10.4837 7.75039C9.97837 8.27181 9.29242 8.56681 8.57575 8.57092C6.56654 8.57092 4.63961 9.38987 3.21888 10.8476C1.79815 12.3053 1 14.2824 1 16.3439V37.8908C1 38.7154 1.31926 39.5062 1.88755 40.0893C2.45584 40.6724 3.22661 41 4.0303 41H33.9697C34.7734 41 35.5441 40.6724 36.1124 40.0893C36.6807 39.5062 37 38.7154 37 37.8908V4.79324C37.0041 3.80197 36.6284 2.84873 35.9538 2.13912C35.2792 1.42951 34.3598 1.02039 33.3939 1ZM18.6515 8.57092L19.6363 5.01088C19.7721 4.50291 20.0664 4.05458 20.4741 3.73451C20.8818 3.41444 21.3806 3.24026 21.8939 3.23863H25.2879C25.2879 4.6446 24.7435 5.99299 23.7746 6.98716C22.8056 7.98133 21.4915 8.53984 20.1212 8.53984L18.6515 8.57092Z" fill="url(#paint0_linear_2949_143)" stroke="#0C0C17" stroke-miterlimit="10"/>
<path d="M33.3931 1.00004H19.3629C18.9783 0.99798 18.5971 1.07418 18.2414 1.22423C17.8857 1.37429 17.5626 1.59522 17.2906 1.87424C17.0187 2.15327 16.8034 2.48486 16.6571 2.84981C16.5109 3.21476 16.4366 3.60585 16.4386 4.00044V5.78822C16.4386 6.15366 16.3685 6.51551 16.2322 6.85312C16.0959 7.19074 15.8961 7.49751 15.6443 7.75591C15.3924 8.01431 15.0934 8.2193 14.7644 8.35915C14.4353 8.49899 14.0827 8.57096 13.7265 8.57096C11.7173 8.57096 9.79036 9.38991 8.36964 10.8476C6.94891 12.3054 6.15076 14.2824 6.15076 16.344V37.8908C6.15076 38.7154 6.47002 39.5062 7.03831 40.0893C7.6066 40.6724 8.37737 41 9.18106 41H33.9538C34.7574 41 35.5282 40.6724 36.0965 40.0893C36.6648 39.5062 36.9841 38.7154 36.9841 37.8908V4.79328C36.9883 3.80464 36.6147 2.85368 35.9433 2.1445C35.272 1.43532 34.3564 1.02444 33.3931 1.00004ZM18.6507 8.57096L19.6356 5.01092C19.7714 4.50295 20.0656 4.05462 20.4734 3.73455C20.8811 3.41448 21.3798 3.2403 21.8932 3.23867H25.2871C25.2871 4.64464 24.7428 5.99303 23.7738 6.9872C22.8049 7.98137 21.4907 8.53988 20.1204 8.53988L18.6507 8.57096Z" fill="url(#paint1_linear_2949_143)" stroke="#0C0C17" stroke-miterlimit="10"/>
<path opacity="0.9" d="M32.6668 3.2384C32.6668 4.64437 32.1224 5.99276 31.1535 6.98693C30.1846 7.98109 28.8704 8.53961 27.5001 8.53961H20.1213C21.4916 8.53961 22.8058 7.98109 23.7747 6.98693C24.7437 5.99276 25.288 4.64437 25.288 3.2384H32.6668Z" fill="url(#paint2_linear_2949_143)" stroke="#0C0C17" stroke-miterlimit="10"/>
<path d="M8.13628 10.4988C6.90901 11.2451 5.54538 11.0119 5.3181 10.4988L4.57568 9.36399L8.95447 7.21863L9.8484 8.38458V8.64886C9.69791 9.05892 9.46887 9.4339 9.1748 9.75164C8.88074 10.0694 8.52762 10.3234 8.13628 10.4988Z" fill="#4C4C5C" stroke="#0C0C17" stroke-miterlimit="10"/>
<path d="M7.1542 9.33957C8.41169 8.79747 9.24978 7.91525 9.02612 7.36908C8.80247 6.82291 7.60177 6.8196 6.34428 7.3617C5.08679 7.9038 4.24869 8.78603 4.47235 9.3322C4.696 9.87837 5.89671 9.88167 7.1542 9.33957Z" fill="#4C4C5C" stroke="#0C0C17" stroke-miterlimit="10"/>
<path d="M26.7586 21.3291L26.7571 21.3282C26.3446 21.0826 25.8288 21.0906 25.3858 21.3213L25.378 21.3254L25.3705 21.33L22.7417 22.9439L20.9588 23.9703L20.9587 23.9701L20.951 23.975L18.3687 25.5891C18.1257 25.7327 17.8005 25.7413 17.4949 25.5854L15.4831 24.3181L15.4832 24.3181L15.4778 24.3149C15.2259 24.1649 15.0359 23.8557 15.0359 23.5015V21.0534C15.0359 20.7436 15.1832 20.4336 15.483 20.2368L17.4986 19.016C17.4989 19.0159 17.4991 19.0157 17.4994 19.0156C17.7425 18.8712 18.0684 18.8623 18.3745 19.0184L20.3863 20.2857L20.3863 20.2858L20.3917 20.289C20.6435 20.4389 20.8336 20.7482 20.8336 21.1024V22.7181V23.1608L21.2127 22.9322L22.9986 21.855L23.1195 21.7821V21.6409V19.9763C23.1195 19.5038 22.8918 19.0315 22.4419 18.7386L22.4419 18.7385L22.436 18.7348L18.6762 16.4337L18.6762 16.4336L18.6736 16.4321C18.2611 16.1865 17.7452 16.1944 17.3023 16.4252L17.2948 16.4291L17.2876 16.4334L13.4406 18.7794C12.9728 19.0272 12.75 19.5116 12.75 19.9763V24.5786C12.75 25.0511 12.9776 25.5234 13.4276 25.8163L13.4275 25.8164L13.4346 25.8208L17.2414 28.122L17.2429 28.1228C17.6554 28.3684 18.1712 28.3605 18.6142 28.1297L18.6214 28.126L18.6283 28.1218L21.2127 26.5553L21.2131 26.555L22.9986 25.4782L22.999 25.4779L25.5822 23.9121C25.5825 23.912 25.5827 23.9118 25.583 23.9117C25.8266 23.7671 26.1533 23.7584 26.46 23.9155L28.4736 25.1352L28.4753 25.1362C28.7271 25.2861 28.9171 25.5953 28.9171 25.9496V28.3976C28.9171 28.7078 28.7695 29.0181 28.4689 29.2149L26.4995 30.4361C26.2561 30.5801 25.9298 30.5886 25.6236 30.4316L23.6099 29.212L23.6083 29.211C23.3565 29.0611 23.1664 28.7518 23.1664 28.3976V26.8309V26.3881L22.7873 26.6168L21.0014 27.6939L20.8805 27.7668V27.908V29.5237C20.8805 29.9962 21.1082 30.4685 21.5581 30.7614L21.558 30.7615L21.5652 30.7659L25.372 33.0671L25.3734 33.0679C25.7859 33.3135 26.3018 33.3056 26.7447 33.0748L26.7518 33.0712L26.7586 33.0671L30.5639 30.7667C30.5642 30.7666 30.5645 30.7664 30.5648 30.7662C30.9704 30.5243 31.25 30.0505 31.25 29.5237V24.8724C31.25 24.3999 31.0224 23.9277 30.5724 23.6347L30.5725 23.6346L30.5654 23.6303L26.7586 21.3291Z" fill="#E3D1FF" stroke="#815CBF" stroke-width="0.5"/>
<defs>
<linearGradient id="paint0_linear_2949_143" x1="19" y1="1" x2="19" y2="41" gradientUnits="userSpaceOnUse">
<stop stop-color="#B193E3"/>
<stop offset="1" stop-color="#F2EBFF"/>
</linearGradient>
<linearGradient id="paint1_linear_2949_143" x1="21.5674" y1="1" x2="21.5674" y2="41" gradientUnits="userSpaceOnUse">
<stop stop-color="#B690F4"/>
<stop offset="1" stop-color="#680CFF"/>
</linearGradient>
<linearGradient id="paint2_linear_2949_143" x1="26.3941" y1="3.2384" x2="26.3941" y2="8.53961" gradientUnits="userSpaceOnUse">
<stop stop-color="#815CBF"/>
<stop offset="1" stop-color="#F8F4FF"/>
</linearGradient>
</defs>
</svg>
