<svg xmlns="http://www.w3.org/2000/svg" width="252" height="48" viewBox="0 0 252 48" fill="none">
  <g filter="url(#filter0_b_7124_111)">
    <rect width="252" height="48" rx="8" fill="#303043" />
  </g>
  <path
    d="M140.394 4H121.197C120.421 4 119.678 4.31612 119.129 4.87881C118.581 5.44149 118.273 6.20465 118.273 7.0004V8.78818C118.273 9.52353 117.989 10.229 117.484 10.7504C116.978 11.2718 116.292 11.5668 115.576 11.5709C113.567 11.5709 111.64 12.3899 110.219 13.8476C108.798 15.3053 108 17.2824 108 19.3439V40.8908C108 41.7154 108.319 42.5062 108.888 43.0893C109.456 43.6724 110.227 44 111.03 44H140.97C141.773 44 142.544 43.6724 143.112 43.0893C143.681 42.5062 144 41.7154 144 40.8908V7.79324C144.004 6.80197 143.628 5.84873 142.954 5.13912C142.279 4.42951 141.36 4.02039 140.394 4ZM125.651 11.5709L126.636 8.01088C126.772 7.50291 127.066 7.05458 127.474 6.73451C127.882 6.41444 128.381 6.24026 128.894 6.23863H132.288C132.288 7.6446 131.744 8.99299 130.775 9.98716C129.806 10.9813 128.491 11.5398 127.121 11.5398L125.651 11.5709Z"
    fill="#67677B" stroke="#4C4C5C" stroke-miterlimit="10" />
  <path
    d="M140.393 4.00004H126.363C125.978 3.99798 125.597 4.07418 125.241 4.22423C124.886 4.37429 124.563 4.59522 124.291 4.87424C124.019 5.15327 123.803 5.48486 123.657 5.84981C123.511 6.21476 123.437 6.60585 123.439 7.00044V8.78822C123.439 9.15366 123.368 9.51551 123.232 9.85312C123.096 10.1907 122.896 10.4975 122.644 10.7559C122.392 11.0143 122.093 11.2193 121.764 11.3591C121.435 11.499 121.083 11.571 120.727 11.571C118.717 11.571 116.79 12.3899 115.37 13.8476C113.949 15.3054 113.151 17.2824 113.151 19.344V40.8908C113.151 41.7154 113.47 42.5062 114.038 43.0893C114.607 43.6724 115.377 44 116.181 44H140.954C141.757 44 142.528 43.6724 143.096 43.0893C143.665 42.5062 143.984 41.7154 143.984 40.8908V7.79328C143.988 6.80464 143.615 5.85368 142.943 5.1445C142.272 4.43532 141.356 4.02444 140.393 4.00004ZM125.651 11.571L126.636 8.01092C126.771 7.50295 127.066 7.05462 127.473 6.73455C127.881 6.41448 128.38 6.2403 128.893 6.23867H132.287C132.287 7.64464 131.743 8.99303 130.774 9.9872C129.805 10.9814 128.491 11.5399 127.12 11.5399L125.651 11.571Z"
    fill="#67677B" stroke="#4C4C5C" stroke-miterlimit="10" />
  <circle cx="129" cy="27" r="7.5" stroke="#4C4C5C" />
  <path opacity="0.9"
    d="M139.667 6.2384C139.667 7.64437 139.122 8.99276 138.153 9.98693C137.185 10.9811 135.87 11.5396 134.5 11.5396H127.121C128.492 11.5396 129.806 10.9811 130.775 9.98693C131.744 8.99276 132.288 7.64437 132.288 6.2384H139.667Z"
    fill="#67677B" stroke="#4C4C5C" stroke-miterlimit="10" />
  <path
    d="M115.136 13.4988C113.909 14.2451 112.545 14.0119 112.318 13.4988L111.576 12.364L115.954 10.2186L116.848 11.3846V11.6489C116.698 12.0589 116.469 12.4339 116.175 12.7516C115.881 13.0694 115.528 13.3234 115.136 13.4988Z"
    fill="#67677B" stroke="#4C4C5C" stroke-miterlimit="10" />
  <path
    d="M114.154 12.3395C115.412 11.7974 116.25 10.9152 116.026 10.369C115.802 9.82285 114.602 9.81954 113.344 10.3616C112.087 10.9037 111.249 11.786 111.472 12.3321C111.696 12.8783 112.897 12.8816 114.154 12.3395Z"
    fill="#67677B" stroke="#4C4C5C" stroke-miterlimit="10" />
  <path
    d="M44.3939 4H25.197C24.4214 4 23.6776 4.31612 23.1292 4.87881C22.5808 5.44149 22.2727 6.20465 22.2727 7.0004V8.78818C22.2727 9.52353 21.9891 10.229 21.4837 10.7504C20.9784 11.2718 20.2924 11.5668 19.5757 11.5709C17.5665 11.5709 15.6396 12.3899 14.2189 13.8476C12.7982 15.3053 12 17.2824 12 19.3439V40.8908C12 41.7154 12.3193 42.5062 12.8876 43.0893C13.4558 43.6724 14.2266 44 15.0303 44H44.9697C45.7734 44 46.5441 43.6724 47.1124 43.0893C47.6807 42.5062 48 41.7154 48 40.8908V7.79324C48.0041 6.80197 47.6284 5.84873 46.9538 5.13912C46.2792 4.42951 45.3598 4.02039 44.3939 4ZM29.6515 11.5709L30.6363 8.01088C30.7721 7.50291 31.0664 7.05458 31.4741 6.73451C31.8818 6.41444 32.3806 6.24026 32.8939 6.23863H36.2879C36.2879 7.6446 35.7435 8.99299 34.7746 9.98716C33.8056 10.9813 32.4915 11.5398 31.1212 11.5398L29.6515 11.5709Z"
    fill="#67677B" stroke="#4C4C5C" stroke-miterlimit="10" />
  <path
    d="M44.3931 4.00004H30.3629C29.9783 3.99798 29.5971 4.07418 29.2414 4.22423C28.8857 4.37429 28.5626 4.59522 28.2906 4.87424C28.0187 5.15327 27.8034 5.48486 27.6571 5.84981C27.5109 6.21476 27.4366 6.60585 27.4386 7.00044V8.78822C27.4386 9.15366 27.3685 9.51551 27.2322 9.85312C27.0959 10.1907 26.8961 10.4975 26.6443 10.7559C26.3924 11.0143 26.0934 11.2193 25.7644 11.3591C25.4353 11.499 25.0827 11.571 24.7265 11.571C22.7173 11.571 20.7904 12.3899 19.3696 13.8476C17.9489 15.3054 17.1508 17.2824 17.1508 19.344V40.8908C17.1508 41.7154 17.47 42.5062 18.0383 43.0893C18.6066 43.6724 19.3774 44 20.1811 44H44.9538C45.7574 44 46.5282 43.6724 47.0965 43.0893C47.6648 42.5062 47.9841 41.7154 47.9841 40.8908V7.79328C47.9883 6.80464 47.6147 5.85368 46.9433 5.1445C46.272 4.43532 45.3564 4.02444 44.3931 4.00004ZM29.6507 11.571L30.6356 8.01092C30.7714 7.50295 31.0656 7.05462 31.4734 6.73455C31.8811 6.41448 32.3798 6.2403 32.8932 6.23867H36.2871C36.2871 7.64464 35.7428 8.99303 34.7738 9.9872C33.8049 10.9814 32.4907 11.5399 31.1204 11.5399L29.6507 11.571Z"
    fill="#67677B" stroke="#4C4C5C" stroke-miterlimit="10" />
  <circle cx="33" cy="27" r="7.5" stroke="#4C4C5C" />
  <path opacity="0.9"
    d="M43.6668 6.2384C43.6668 7.64437 43.1224 8.99276 42.1535 9.98693C41.1846 10.9811 39.8704 11.5396 38.5001 11.5396H31.1213C32.4916 11.5396 33.8058 10.9811 34.7747 9.98693C35.7437 8.99276 36.288 7.64437 36.288 6.2384H43.6668Z"
    fill="#67677B" stroke="#4C4C5C" stroke-miterlimit="10" />
  <path
    d="M19.1363 13.4988C17.909 14.2451 16.5454 14.0119 16.3181 13.4988L15.5757 12.364L19.9545 10.2186L20.8484 11.3846V11.6489C20.6979 12.0589 20.4689 12.4339 20.1748 12.7516C19.8807 13.0694 19.5276 13.3234 19.1363 13.4988Z"
    fill="#67677B" stroke="#4C4C5C" stroke-miterlimit="10" />
  <path
    d="M18.1542 12.3395C19.4117 11.7974 20.2498 10.9152 20.0261 10.369C19.8025 9.82285 18.6018 9.81954 17.3443 10.3616C16.0868 10.9037 15.2487 11.786 15.4723 12.3321C15.696 12.8783 16.8967 12.8816 18.1542 12.3395Z"
    fill="#67677B" stroke="#4C4C5C" stroke-miterlimit="10" />
  <path
    d="M188.394 4H169.197C168.421 4 167.678 4.31612 167.129 4.87881C166.581 5.44149 166.273 6.20465 166.273 7.0004V8.78818C166.273 9.52353 165.989 10.229 165.484 10.7504C164.978 11.2718 164.292 11.5668 163.576 11.5709C161.567 11.5709 159.64 12.3899 158.219 13.8476C156.798 15.3053 156 17.2824 156 19.3439V40.8908C156 41.7154 156.319 42.5062 156.888 43.0893C157.456 43.6724 158.227 44 159.03 44H188.97C189.773 44 190.544 43.6724 191.112 43.0893C191.681 42.5062 192 41.7154 192 40.8908V7.79324C192.004 6.80197 191.628 5.84873 190.954 5.13912C190.279 4.42951 189.36 4.02039 188.394 4ZM173.651 11.5709L174.636 8.01088C174.772 7.50291 175.066 7.05458 175.474 6.73451C175.882 6.41444 176.381 6.24026 176.894 6.23863H180.288C180.288 7.6446 179.744 8.99299 178.775 9.98716C177.806 10.9813 176.491 11.5398 175.121 11.5398L173.651 11.5709Z"
    fill="#67677B" stroke="#4C4C5C" stroke-miterlimit="10" />
  <path
    d="M188.393 4.00004H174.363C173.978 3.99798 173.597 4.07418 173.241 4.22423C172.886 4.37429 172.563 4.59522 172.291 4.87424C172.019 5.15327 171.803 5.48486 171.657 5.84981C171.511 6.21476 171.437 6.60585 171.439 7.00044V8.78822C171.439 9.15366 171.368 9.51551 171.232 9.85312C171.096 10.1907 170.896 10.4975 170.644 10.7559C170.392 11.0143 170.093 11.2193 169.764 11.3591C169.435 11.499 169.083 11.571 168.727 11.571C166.717 11.571 164.79 12.3899 163.37 13.8476C161.949 15.3054 161.151 17.2824 161.151 19.344V40.8908C161.151 41.7154 161.47 42.5062 162.038 43.0893C162.607 43.6724 163.377 44 164.181 44H188.954C189.757 44 190.528 43.6724 191.096 43.0893C191.665 42.5062 191.984 41.7154 191.984 40.8908V7.79328C191.988 6.80464 191.615 5.85368 190.943 5.1445C190.272 4.43532 189.356 4.02444 188.393 4.00004ZM173.651 11.571L174.636 8.01092C174.771 7.50295 175.066 7.05462 175.473 6.73455C175.881 6.41448 176.38 6.2403 176.893 6.23867H180.287C180.287 7.64464 179.743 8.99303 178.774 9.9872C177.805 10.9814 176.491 11.5399 175.12 11.5399L173.651 11.571Z"
    fill="#67677B" stroke="#4C4C5C" stroke-miterlimit="10" />
  <circle cx="177" cy="27" r="7.5" stroke="#4C4C5C" />
  <path opacity="0.9"
    d="M187.667 6.2384C187.667 7.64437 187.122 8.99276 186.153 9.98693C185.185 10.9811 183.87 11.5396 182.5 11.5396H175.121C176.492 11.5396 177.806 10.9811 178.775 9.98693C179.744 8.99276 180.288 7.64437 180.288 6.2384H187.667Z"
    fill="#67677B" stroke="#4C4C5C" stroke-miterlimit="10" />
  <path
    d="M163.136 13.4988C161.909 14.2451 160.545 14.0119 160.318 13.4988L159.576 12.364L163.954 10.2186L164.848 11.3846V11.6489C164.698 12.0589 164.469 12.4339 164.175 12.7516C163.881 13.0694 163.528 13.3234 163.136 13.4988Z"
    fill="#67677B" stroke="#4C4C5C" stroke-miterlimit="10" />
  <path
    d="M162.154 12.3395C163.412 11.7974 164.25 10.9152 164.026 10.369C163.802 9.82285 162.602 9.81954 161.344 10.3616C160.087 10.9037 159.249 11.786 159.472 12.3321C159.696 12.8783 160.897 12.8816 162.154 12.3395Z"
    fill="#67677B" stroke="#4C4C5C" stroke-miterlimit="10" />
  <path
    d="M92.3939 4H73.197C72.4214 4 71.6776 4.31612 71.1292 4.87881C70.5808 5.44149 70.2727 6.20465 70.2727 7.0004V8.78818C70.2727 9.52353 69.9891 10.229 69.4837 10.7504C68.9784 11.2718 68.2924 11.5668 67.5757 11.5709C65.5665 11.5709 63.6396 12.3899 62.2189 13.8476C60.7982 15.3053 60 17.2824 60 19.3439V40.8908C60 41.7154 60.3193 42.5062 60.8876 43.0893C61.4558 43.6724 62.2266 44 63.0303 44H92.9697C93.7734 44 94.5441 43.6724 95.1124 43.0893C95.6807 42.5062 96 41.7154 96 40.8908V7.79324C96.0041 6.80197 95.6284 5.84873 94.9538 5.13912C94.2792 4.42951 93.3598 4.02039 92.3939 4ZM77.6515 11.5709L78.6363 8.01088C78.7721 7.50291 79.0664 7.05458 79.4741 6.73451C79.8818 6.41444 80.3806 6.24026 80.8939 6.23863H84.2879C84.2879 7.6446 83.7435 8.99299 82.7746 9.98716C81.8056 10.9813 80.4915 11.5398 79.1212 11.5398L77.6515 11.5709Z"
    fill="#67677B" stroke="#4C4C5C" stroke-miterlimit="10" />
  <path
    d="M92.3931 4.00004H78.3629C77.9783 3.99798 77.5971 4.07418 77.2414 4.22423C76.8857 4.37429 76.5626 4.59522 76.2906 4.87424C76.0187 5.15327 75.8034 5.48486 75.6571 5.84981C75.5109 6.21476 75.4366 6.60585 75.4386 7.00044V8.78822C75.4386 9.15366 75.3685 9.51551 75.2322 9.85312C75.0959 10.1907 74.8961 10.4975 74.6443 10.7559C74.3924 11.0143 74.0934 11.2193 73.7644 11.3591C73.4353 11.499 73.0827 11.571 72.7265 11.571C70.7173 11.571 68.7904 12.3899 67.3696 13.8476C65.9489 15.3054 65.1508 17.2824 65.1508 19.344V40.8908C65.1508 41.7154 65.47 42.5062 66.0383 43.0893C66.6066 43.6724 67.3774 44 68.1811 44H92.9538C93.7574 44 94.5282 43.6724 95.0965 43.0893C95.6648 42.5062 95.9841 41.7154 95.9841 40.8908V7.79328C95.9883 6.80464 95.6147 5.85368 94.9433 5.1445C94.272 4.43532 93.3564 4.02444 92.3931 4.00004ZM77.6507 11.571L78.6356 8.01092C78.7714 7.50295 79.0656 7.05462 79.4734 6.73455C79.8811 6.41448 80.3798 6.2403 80.8932 6.23867H84.2871C84.2871 7.64464 83.7428 8.99303 82.7738 9.9872C81.8049 10.9814 80.4907 11.5399 79.1204 11.5399L77.6507 11.571Z"
    fill="#67677B" stroke="#4C4C5C" stroke-miterlimit="10" />
  <circle cx="81" cy="27" r="7.5" stroke="#4C4C5C" />
  <path opacity="0.9"
    d="M91.6668 6.2384C91.6668 7.64437 91.1224 8.99276 90.1535 9.98693C89.1846 10.9811 87.8704 11.5396 86.5001 11.5396H79.1213C80.4916 11.5396 81.8058 10.9811 82.7747 9.98693C83.7437 8.99276 84.288 7.64437 84.288 6.2384H91.6668Z"
    fill="#67677B" stroke="#4C4C5C" stroke-miterlimit="10" />
  <path
    d="M67.1363 13.4988C65.909 14.2451 64.5454 14.0119 64.3181 13.4988L63.5757 12.364L67.9545 10.2186L68.8484 11.3846V11.6489C68.6979 12.0589 68.4689 12.4339 68.1748 12.7516C67.8807 13.0694 67.5276 13.3234 67.1363 13.4988Z"
    fill="#67677B" stroke="#4C4C5C" stroke-miterlimit="10" />
  <path
    d="M66.1542 12.3395C67.4117 11.7974 68.2498 10.9152 68.0261 10.369C67.8025 9.82285 66.6018 9.81954 65.3443 10.3616C64.0868 10.9037 63.2487 11.786 63.4723 12.3321C63.696 12.8783 64.8967 12.8816 66.1542 12.3395Z"
    fill="#67677B" stroke="#4C4C5C" stroke-miterlimit="10" />
  <path
    d="M236.394 4H217.197C216.421 4 215.678 4.31612 215.129 4.87881C214.581 5.44149 214.273 6.20465 214.273 7.0004V8.78818C214.273 9.52353 213.989 10.229 213.484 10.7504C212.978 11.2718 212.292 11.5668 211.576 11.5709C209.567 11.5709 207.64 12.3899 206.219 13.8476C204.798 15.3053 204 17.2824 204 19.3439V40.8908C204 41.7154 204.319 42.5062 204.888 43.0893C205.456 43.6724 206.227 44 207.03 44H236.97C237.773 44 238.544 43.6724 239.112 43.0893C239.681 42.5062 240 41.7154 240 40.8908V7.79324C240.004 6.80197 239.628 5.84873 238.954 5.13912C238.279 4.42951 237.36 4.02039 236.394 4ZM221.651 11.5709L222.636 8.01088C222.772 7.50291 223.066 7.05458 223.474 6.73451C223.882 6.41444 224.381 6.24026 224.894 6.23863H228.288C228.288 7.6446 227.744 8.99299 226.775 9.98716C225.806 10.9813 224.491 11.5398 223.121 11.5398L221.651 11.5709Z"
    fill="#67677B" stroke="#4C4C5C" stroke-miterlimit="10" />
  <path
    d="M236.393 4.00004H222.363C221.978 3.99798 221.597 4.07418 221.241 4.22423C220.886 4.37429 220.563 4.59522 220.291 4.87424C220.019 5.15327 219.803 5.48486 219.657 5.84981C219.511 6.21476 219.437 6.60585 219.439 7.00044V8.78822C219.439 9.15366 219.368 9.51551 219.232 9.85312C219.096 10.1907 218.896 10.4975 218.644 10.7559C218.392 11.0143 218.093 11.2193 217.764 11.3591C217.435 11.499 217.083 11.571 216.727 11.571C214.717 11.571 212.79 12.3899 211.37 13.8476C209.949 15.3054 209.151 17.2824 209.151 19.344V40.8908C209.151 41.7154 209.47 42.5062 210.038 43.0893C210.607 43.6724 211.377 44 212.181 44H236.954C237.757 44 238.528 43.6724 239.096 43.0893C239.665 42.5062 239.984 41.7154 239.984 40.8908V7.79328C239.988 6.80464 239.615 5.85368 238.943 5.1445C238.272 4.43532 237.356 4.02444 236.393 4.00004ZM221.651 11.571L222.636 8.01092C222.771 7.50295 223.066 7.05462 223.473 6.73455C223.881 6.41448 224.38 6.2403 224.893 6.23867H228.287C228.287 7.64464 227.743 8.99303 226.774 9.9872C225.805 10.9814 224.491 11.5399 223.12 11.5399L221.651 11.571Z"
    fill="#67677B" stroke="#4C4C5C" stroke-miterlimit="10" />
  <circle cx="225" cy="27" r="7.5" stroke="#4C4C5C" />
  <path opacity="0.9"
    d="M235.667 6.2384C235.667 7.64437 235.122 8.99276 234.153 9.98693C233.185 10.9811 231.87 11.5396 230.5 11.5396H223.121C224.492 11.5396 225.806 10.9811 226.775 9.98693C227.744 8.99276 228.288 7.64437 228.288 6.2384H235.667Z"
    fill="#67677B" stroke="#4C4C5C" stroke-miterlimit="10" />
  <path
    d="M211.136 13.4988C209.909 14.2451 208.545 14.0119 208.318 13.4988L207.576 12.364L211.954 10.2186L212.848 11.3846V11.6489C212.698 12.0589 212.469 12.4339 212.175 12.7516C211.881 13.0694 211.528 13.3234 211.136 13.4988Z"
    fill="#67677B" stroke="#4C4C5C" stroke-miterlimit="10" />
  <path
    d="M210.154 12.3395C211.412 11.7974 212.25 10.9152 212.026 10.369C211.802 9.82285 210.602 9.81954 209.344 10.3616C208.087 10.9037 207.249 11.786 207.472 12.3321C207.696 12.8783 208.897 12.8816 210.154 12.3395Z"
    fill="#67677B" stroke="#4C4C5C" stroke-miterlimit="10" />
  <defs>
    <filter id="filter0_b_7124_111" x="-18" y="-18" width="288" height="84" filterUnits="userSpaceOnUse"
      color-interpolation-filters="sRGB">
      <feFlood flood-opacity="0" result="BackgroundImageFix" />
      <feGaussianBlur in="BackgroundImageFix" stdDeviation="9" />
      <feComposite in2="SourceAlpha" operator="in" result="effect1_backgroundBlur_7124_111" />
      <feBlend mode="normal" in="SourceGraphic" in2="effect1_backgroundBlur_7124_111" result="shape" />
    </filter>
  </defs>
</svg>