<svg width="38" height="42" viewBox="0 0 38 42" fill="none" xmlns="http://www.w3.org/2000/svg">
<path d="M33.3939 1H14.197C13.4214 1 12.6776 1.31612 12.1292 1.87881C11.5808 2.44149 11.2727 3.20465 11.2727 4.0004V5.78818C11.2727 6.52353 10.9891 7.22897 10.4837 7.75039C9.97837 8.27181 9.29242 8.56681 8.57575 8.57092C6.56654 8.57092 4.63961 9.38987 3.21888 10.8476C1.79815 12.3053 1 14.2824 1 16.3439V37.8908C1 38.7154 1.31926 39.5062 1.88755 40.0893C2.45584 40.6724 3.22661 41 4.0303 41H33.9697C34.7734 41 35.5441 40.6724 36.1124 40.0893C36.6807 39.5062 37 38.7154 37 37.8908V4.79324C37.0041 3.80197 36.6284 2.84873 35.9538 2.13912C35.2792 1.42951 34.3598 1.02039 33.3939 1ZM18.6515 8.57092L19.6363 5.01088C19.7721 4.50291 20.0664 4.05458 20.4741 3.73451C20.8818 3.41444 21.3806 3.24026 21.8939 3.23863H25.2879C25.2879 4.6446 24.7435 5.99299 23.7746 6.98716C22.8056 7.98133 21.4915 8.53984 20.1212 8.53984L18.6515 8.57092Z" fill="#67677B" stroke="#4C4C5C" stroke-miterlimit="10"/>
<path d="M33.3931 1.00004H19.3629C18.9783 0.99798 18.5971 1.07418 18.2414 1.22423C17.8857 1.37429 17.5626 1.59522 17.2906 1.87424C17.0187 2.15327 16.8034 2.48486 16.6571 2.84981C16.5109 3.21476 16.4366 3.60585 16.4386 4.00044V5.78822C16.4386 6.15366 16.3685 6.51551 16.2322 6.85312C16.0959 7.19074 15.8961 7.49751 15.6443 7.75591C15.3924 8.01431 15.0934 8.2193 14.7644 8.35915C14.4353 8.49899 14.0827 8.57096 13.7265 8.57096C11.7173 8.57096 9.79036 9.38991 8.36964 10.8476C6.94891 12.3054 6.15076 14.2824 6.15076 16.344V37.8908C6.15076 38.7154 6.47002 39.5062 7.03831 40.0893C7.6066 40.6724 8.37737 41 9.18106 41H33.9538C34.7574 41 35.5282 40.6724 36.0965 40.0893C36.6648 39.5062 36.9841 38.7154 36.9841 37.8908V4.79328C36.9883 3.80464 36.6147 2.85368 35.9433 2.1445C35.272 1.43532 34.3564 1.02444 33.3931 1.00004ZM18.6507 8.57096L19.6356 5.01092C19.7714 4.50295 20.0656 4.05462 20.4734 3.73455C20.8811 3.41448 21.3798 3.2403 21.8932 3.23867H25.2871C25.2871 4.64464 24.7428 5.99303 23.7738 6.9872C22.8049 7.98137 21.4907 8.53988 20.1204 8.53988L18.6507 8.57096Z" fill="#67677B" stroke="#4C4C5C" stroke-miterlimit="10"/>
<circle cx="22" cy="24" r="7.5" stroke="#4C4C5C"/>
<path opacity="0.9" d="M32.6668 3.2384C32.6668 4.64437 32.1224 5.99276 31.1535 6.98693C30.1846 7.98109 28.8704 8.53961 27.5001 8.53961H20.1213C21.4916 8.53961 22.8058 7.98109 23.7747 6.98693C24.7437 5.99276 25.288 4.64437 25.288 3.2384H32.6668Z" fill="#67677B" stroke="#4C4C5C" stroke-miterlimit="10"/>
<path d="M8.13628 10.4988C6.90901 11.2451 5.54538 11.0119 5.3181 10.4988L4.57568 9.36399L8.95447 7.21863L9.8484 8.38458V8.64886C9.69791 9.05892 9.46887 9.4339 9.1748 9.75164C8.88074 10.0694 8.52762 10.3234 8.13628 10.4988Z" fill="#67677B" stroke="#4C4C5C" stroke-miterlimit="10"/>
<path d="M7.1542 9.33957C8.41169 8.79747 9.24978 7.91525 9.02612 7.36908C8.80247 6.82291 7.60177 6.8196 6.34428 7.3617C5.08679 7.9038 4.24869 8.78603 4.47235 9.3322C4.696 9.87837 5.89671 9.88167 7.1542 9.33957Z" fill="#67677B" stroke="#4C4C5C" stroke-miterlimit="10"/>
</svg>
