<svg width="141" height="53" viewBox="0 0 141 53" fill="none" xmlns="http://www.w3.org/2000/svg">
    <path d="M12.996 23.564H23.184V36.884C21.84 37.34 20.436 37.7 18.972 37.964C17.532 38.228 15.888 38.36 14.04 38.36C11.496 38.36 9.324 37.856 7.524 36.848C5.748 35.84 4.392 34.352 3.456 32.384C2.544 30.416 2.088 27.992 2.088 25.112C2.088 22.424 2.604 20.096 3.636 18.128C4.692 16.16 6.216 14.636 8.208 13.556C10.2 12.476 12.636 11.936 15.516 11.936C16.884 11.936 18.228 12.08 19.548 12.368C20.868 12.656 22.068 13.04 23.148 13.52L21.348 17.876C20.556 17.468 19.656 17.132 18.648 16.868C17.64 16.604 16.584 16.472 15.48 16.472C13.896 16.472 12.516 16.832 11.34 17.552C10.188 18.272 9.288 19.292 8.64 20.612C8.016 21.908 7.704 23.444 7.704 25.22C7.704 26.9 7.932 28.388 8.388 29.684C8.844 30.98 9.564 32 10.548 32.744C11.532 33.464 12.816 33.824 14.4 33.824C14.928 33.824 15.384 33.812 15.768 33.788C16.176 33.74 16.548 33.692 16.884 33.644C17.22 33.572 17.544 33.512 17.856 33.464V28.1H12.996V23.564ZM36.9228 17.948C39.5628 17.948 41.5788 18.524 42.9708 19.676C44.3868 20.804 45.0948 22.544 45.0948 24.896V38H41.3508L40.3068 35.336H40.1628C39.6108 36.032 39.0348 36.608 38.4348 37.064C37.8588 37.52 37.1868 37.844 36.4188 38.036C35.6748 38.252 34.7508 38.36 33.6468 38.36C32.4948 38.36 31.4508 38.144 30.5148 37.712C29.6028 37.256 28.8828 36.572 28.3548 35.66C27.8268 34.724 27.5628 33.548 27.5628 32.132C27.5628 30.044 28.2948 28.508 29.7588 27.524C31.2228 26.516 33.4188 25.964 36.3468 25.868L39.7668 25.76V24.896C39.7668 23.864 39.4908 23.108 38.9388 22.628C38.4108 22.148 37.6668 21.908 36.7068 21.908C35.7468 21.908 34.8108 22.052 33.8988 22.34C32.9868 22.604 32.0748 22.94 31.1628 23.348L29.3988 19.712C30.4548 19.16 31.6188 18.728 32.8908 18.416C34.1868 18.104 35.5308 17.948 36.9228 17.948ZM37.6788 28.964C35.9508 29.012 34.7508 29.324 34.0788 29.9C33.4068 30.476 33.0708 31.232 33.0708 32.168C33.0708 32.984 33.3108 33.572 33.7908 33.932C34.2708 34.268 34.8948 34.436 35.6628 34.436C36.8148 34.436 37.7868 34.1 38.5788 33.428C39.3708 32.732 39.7668 31.76 39.7668 30.512V28.892L37.6788 28.964ZM64.3013 32.168C64.3013 33.488 63.9893 34.616 63.3653 35.552C62.7413 36.464 61.8053 37.16 60.5573 37.64C59.3093 38.12 57.7613 38.36 55.9133 38.36C54.5453 38.36 53.3693 38.264 52.3853 38.072C51.4013 37.904 50.4173 37.616 49.4333 37.208V32.78C50.4893 33.26 51.6293 33.656 52.8533 33.968C54.0773 34.28 55.1573 34.436 56.0933 34.436C57.1493 34.436 57.8933 34.28 58.3253 33.968C58.7813 33.656 59.0093 33.248 59.0093 32.744C59.0093 32.408 58.9133 32.108 58.7213 31.844C58.5533 31.58 58.1693 31.28 57.5693 30.944C56.9693 30.608 56.0333 30.176 54.7613 29.648C53.5373 29.12 52.5293 28.604 51.7373 28.1C50.9453 27.572 50.3573 26.948 49.9733 26.228C49.5893 25.484 49.3973 24.56 49.3973 23.456C49.3973 21.632 50.1053 20.264 51.5213 19.352C52.9373 18.44 54.8213 17.984 57.1733 17.984C58.3973 17.984 59.5613 18.104 60.6653 18.344C61.7693 18.584 62.9093 18.98 64.0853 19.532L62.4653 23.384C61.8173 23.096 61.1933 22.844 60.5933 22.628C59.9933 22.412 59.4053 22.244 58.8293 22.124C58.2773 22.004 57.7013 21.944 57.1013 21.944C56.3093 21.944 55.7093 22.052 55.3013 22.268C54.9173 22.484 54.7253 22.808 54.7253 23.24C54.7253 23.552 54.8213 23.84 55.0133 24.104C55.2293 24.344 55.6253 24.608 56.2013 24.896C56.8013 25.184 57.6773 25.568 58.8293 26.048C59.9573 26.504 60.9293 26.984 61.7453 27.488C62.5613 27.968 63.1853 28.58 63.6173 29.324C64.0733 30.044 64.3013 30.992 64.3013 32.168ZM88.1634 38H82.7274V16.832H75.7434V12.296H95.1474V16.832H88.1634V38ZM103.86 17.948C106.5 17.948 108.516 18.524 109.908 19.676C111.324 20.804 112.032 22.544 112.032 24.896V38H108.288L107.244 35.336H107.1C106.548 36.032 105.972 36.608 105.372 37.064C104.796 37.52 104.124 37.844 103.356 38.036C102.612 38.252 101.688 38.36 100.584 38.36C99.4323 38.36 98.3883 38.144 97.4523 37.712C96.5403 37.256 95.8203 36.572 95.2923 35.66C94.7643 34.724 94.5003 33.548 94.5003 32.132C94.5003 30.044 95.2323 28.508 96.6963 27.524C98.1603 26.516 100.356 25.964 103.284 25.868L106.704 25.76V24.896C106.704 23.864 106.428 23.108 105.876 22.628C105.348 22.148 104.604 21.908 103.644 21.908C102.684 21.908 101.748 22.052 100.836 22.34C99.9243 22.604 99.0123 22.94 98.1003 23.348L96.3363 19.712C97.3923 19.16 98.5563 18.728 99.8283 18.416C101.124 18.104 102.468 17.948 103.86 17.948ZM104.616 28.964C102.888 29.012 101.688 29.324 101.016 29.9C100.344 30.476 100.008 31.232 100.008 32.168C100.008 32.984 100.248 33.572 100.728 33.932C101.208 34.268 101.832 34.436 102.6 34.436C103.752 34.436 104.724 34.1 105.516 33.428C106.308 32.732 106.704 31.76 106.704 30.512V28.892L104.616 28.964ZM128.467 17.984C130.675 17.984 132.463 18.848 133.831 20.576C135.199 22.28 135.883 24.8 135.883 28.136C135.883 30.368 135.559 32.252 134.911 33.788C134.263 35.3 133.375 36.44 132.247 37.208C131.119 37.976 129.811 38.36 128.323 38.36C127.387 38.36 126.571 38.24 125.875 38C125.203 37.76 124.627 37.448 124.147 37.064C123.667 36.68 123.247 36.272 122.887 35.84H122.599C122.695 36.296 122.767 36.776 122.815 37.28C122.863 37.76 122.887 38.24 122.887 38.72V46.64H117.523V18.344H121.879L122.635 20.9H122.887C123.247 20.372 123.679 19.892 124.183 19.46C124.687 19.004 125.287 18.644 125.983 18.38C126.703 18.116 127.531 17.984 128.467 17.984ZM126.739 22.268C125.803 22.268 125.059 22.46 124.507 22.844C123.955 23.228 123.547 23.816 123.283 24.608C123.043 25.376 122.911 26.348 122.887 27.524V28.1C122.887 29.372 123.007 30.452 123.247 31.34C123.487 32.204 123.895 32.864 124.471 33.32C125.047 33.776 125.827 34.004 126.811 34.004C127.627 34.004 128.299 33.776 128.827 33.32C129.355 32.864 129.751 32.192 130.015 31.304C130.279 30.416 130.411 29.336 130.411 28.064C130.411 26.144 130.111 24.704 129.511 23.744C128.935 22.76 128.011 22.268 126.739 22.268Z" fill="url(#paint0_linear_5096_4632)"/>
    <path d="M12.996 23.564V23.064H12.496V23.564H12.996ZM23.184 23.564H23.684V23.064H23.184V23.564ZM23.184 36.884L23.3446 37.3575L23.684 37.2424V36.884H23.184ZM18.972 37.964L18.8833 37.4719L18.8818 37.4722L18.972 37.964ZM7.524 36.848L7.27719 37.2829L7.2797 37.2843L7.524 36.848ZM3.456 32.384L3.00232 32.5942L3.00447 32.5988L3.456 32.384ZM3.636 18.128L3.1954 17.8916L3.19319 17.8958L3.636 18.128ZM19.548 12.368L19.4414 12.8565L19.4414 12.8565L19.548 12.368ZM23.148 13.52L23.6101 13.711L23.7961 13.2609L23.3511 13.0631L23.148 13.52ZM21.348 17.876L21.119 18.3205L21.6024 18.5695L21.8101 18.067L21.348 17.876ZM18.648 16.868L18.5213 17.3517L18.5213 17.3517L18.648 16.868ZM11.34 17.552L11.0789 17.1256L11.075 17.128L11.34 17.552ZM8.64 20.612L8.19115 20.3917L8.1895 20.3951L8.64 20.612ZM8.388 29.684L7.91634 29.85L7.91634 29.85L8.388 29.684ZM10.548 32.744L10.2464 33.1429L10.2527 33.1475L10.548 32.744ZM15.768 33.788L15.7992 34.287L15.8128 34.2862L15.8264 34.2846L15.768 33.788ZM16.884 33.644L16.9547 34.139L16.9718 34.1365L16.9888 34.1329L16.884 33.644ZM17.856 33.464L17.932 33.9582L18.356 33.893V33.464H17.856ZM17.856 28.1H18.356V27.6H17.856V28.1ZM12.996 28.1H12.496V28.6H12.996V28.1ZM12.996 24.064H23.184V23.064H12.996V24.064ZM22.684 23.564V36.884H23.684V23.564H22.684ZM23.0234 36.4105C21.7039 36.8582 20.324 37.2121 18.8833 37.4719L19.0607 38.4561C20.548 38.1879 21.9761 37.8218 23.3446 37.3575L23.0234 36.4105ZM18.8818 37.4722C17.4781 37.7295 15.8652 37.86 14.04 37.86V38.86C15.9108 38.86 17.5859 38.7265 19.0622 38.4558L18.8818 37.4722ZM14.04 37.86C11.5618 37.86 9.47815 37.3693 7.7683 36.4117L7.2797 37.2843C9.16985 38.3427 11.4302 38.86 14.04 38.86V37.86ZM7.7708 36.4132C6.09013 35.4593 4.8026 34.0512 3.90753 32.1692L3.00447 32.5988C3.9814 34.6528 5.40587 36.2207 7.2772 37.2828L7.7708 36.4132ZM3.90966 32.1738C3.03646 30.2895 2.588 27.9421 2.588 25.112H1.588C1.588 28.0419 2.05154 30.5425 3.00234 32.5942L3.90966 32.1738ZM2.588 25.112C2.588 22.4881 3.09147 20.243 4.07881 18.3602L3.19319 17.8958C2.11653 19.949 1.588 22.3599 1.588 25.112H2.588ZM4.07658 18.3644C5.08572 16.4837 6.53879 15.0298 8.44631 13.9956L7.96969 13.1164C5.89321 14.2422 4.29828 15.8363 3.19542 17.8916L4.07658 18.3644ZM8.44631 13.9956C10.3479 12.9645 12.6972 12.436 15.516 12.436V11.436C12.5748 11.436 10.0521 11.9874 7.96969 13.1164L8.44631 13.9956ZM15.516 12.436C16.8486 12.436 18.1569 12.5762 19.4414 12.8565L19.6546 11.8795C18.2991 11.5838 16.9194 11.436 15.516 11.436V12.436ZM19.4414 12.8565C20.7329 13.1383 21.9 13.5125 22.9449 13.9769L23.3511 13.0631C22.236 12.5675 21.0031 12.1737 19.6546 11.8795L19.4414 12.8565ZM22.6859 13.329L20.8859 17.685L21.8101 18.067L23.6101 13.711L22.6859 13.329ZM21.577 17.4315C20.7475 17.0042 19.8123 16.6561 18.7747 16.3843L18.5213 17.3517C19.4997 17.6079 20.3645 17.9318 21.119 18.3205L21.577 17.4315ZM18.7747 16.3843C17.7229 16.1089 16.6242 15.972 15.48 15.972V16.972C16.5438 16.972 17.5571 17.0991 18.5213 17.3517L18.7747 16.3843ZM15.48 15.972C13.8178 15.972 12.3446 16.3507 11.0789 17.1256L11.6011 17.9784C12.6874 17.3133 13.9742 16.972 15.48 16.972V15.972ZM11.075 17.128C9.83742 17.9015 8.87674 18.9951 8.19117 20.3917L9.08883 20.8323C9.69926 19.5889 10.5386 18.6425 11.605 17.976L11.075 17.128ZM8.1895 20.3951C7.52618 21.7727 7.204 23.3861 7.204 25.22H8.204C8.204 23.5019 8.50582 22.0433 9.0905 20.8289L8.1895 20.3951ZM7.204 25.22C7.204 26.9444 7.43793 28.4903 7.91634 29.85L8.85966 29.518C8.42607 28.2857 8.204 26.8556 8.204 25.22H7.204ZM7.91634 29.85C8.4011 31.2277 9.17535 32.333 10.2464 33.1428L10.8496 32.3452C9.95265 31.667 9.2869 30.7323 8.85966 29.518L7.91634 29.85ZM10.2527 33.1475C11.3449 33.9467 12.7416 34.324 14.4 34.324V33.324C12.8904 33.324 11.7191 32.9813 10.8433 32.3405L10.2527 33.1475ZM14.4 34.324C14.9349 34.324 15.4018 34.3119 15.7992 34.287L15.7368 33.289C15.3662 33.3121 14.9211 33.324 14.4 33.324V34.324ZM15.8264 34.2846C16.2377 34.2362 16.6139 34.1877 16.9547 34.139L16.8133 33.149C16.4821 33.1963 16.1143 33.2438 15.7096 33.2914L15.8264 34.2846ZM16.9888 34.1329C17.3161 34.0628 17.6305 34.0046 17.932 33.9582L17.78 32.9698C17.4575 33.0194 17.1239 33.0812 16.7792 33.1551L16.9888 34.1329ZM18.356 33.464V28.1H17.356V33.464H18.356ZM17.856 27.6H12.996V28.6H17.856V27.6ZM13.496 28.1V23.564H12.496V28.1H13.496ZM42.9708 19.676L42.6519 20.0613L42.6592 20.0671L42.9708 19.676ZM45.0948 38V38.5H45.5948V38H45.0948ZM41.3508 38L40.8853 38.1824L41.0097 38.5H41.3508V38ZM40.3068 35.336L40.7723 35.1536L40.6479 34.836H40.3068V35.336ZM40.1628 35.336V34.836H39.9212L39.771 35.0253L40.1628 35.336ZM38.4348 37.064L38.1322 36.6658L38.1244 36.672L38.4348 37.064ZM36.4188 38.036L36.2975 37.5509L36.2884 37.5532L36.2794 37.5558L36.4188 38.036ZM30.5148 37.712L30.2912 38.1592L30.2982 38.1627L30.3053 38.166L30.5148 37.712ZM28.3548 35.66L27.9193 35.9057L27.9221 35.9105L28.3548 35.66ZM29.7588 27.524L30.0377 27.939L30.0423 27.9358L29.7588 27.524ZM36.3468 25.868L36.331 25.3682L36.3304 25.3683L36.3468 25.868ZM39.7668 25.76L39.7826 26.2598L40.2668 26.2445V25.76H39.7668ZM38.9388 22.628L38.6024 22.9981L38.6107 23.0053L38.9388 22.628ZM33.8988 22.34L34.0379 22.8204L34.0493 22.8168L33.8988 22.34ZM31.1628 23.348L30.7129 23.5662L30.9245 24.0024L31.367 23.8044L31.1628 23.348ZM29.3988 19.712L29.1672 19.2689L28.7371 19.4937L28.9489 19.9302L29.3988 19.712ZM32.8908 18.416L32.7738 17.9299L32.7717 17.9304L32.8908 18.416ZM37.6788 28.964L37.6927 29.4638L37.696 29.4637L37.6788 28.964ZM34.0788 29.9L33.7534 29.5204L33.7534 29.5204L34.0788 29.9ZM33.7908 33.932L33.4908 34.332L33.4973 34.3369L33.5041 34.3416L33.7908 33.932ZM38.5788 33.428L38.9023 33.8093L38.9088 33.8036L38.5788 33.428ZM39.7668 28.892H40.2668V28.3745L39.7496 28.3923L39.7668 28.892ZM36.9228 18.448C39.4986 18.448 41.383 19.011 42.652 20.0612L43.2896 19.2908C41.7746 18.037 39.627 17.448 36.9228 17.448V18.448ZM42.6592 20.0671C43.9223 21.0732 44.5948 22.6469 44.5948 24.896H45.5948C45.5948 22.4411 44.8513 20.5348 43.2823 19.2849L42.6592 20.0671ZM44.5948 24.896V38H45.5948V24.896H44.5948ZM45.0948 37.5H41.3508V38.5H45.0948V37.5ZM41.8163 37.8176L40.7723 35.1536L39.8413 35.5184L40.8853 38.1824L41.8163 37.8176ZM40.3068 34.836H40.1628V35.836H40.3068V34.836ZM39.771 35.0253C39.2405 35.6942 38.6937 36.2392 38.1322 36.6659L38.7373 37.4621C39.3759 36.9768 39.9811 36.3698 40.5545 35.6467L39.771 35.0253ZM38.1244 36.672C37.6084 37.0805 37.002 37.3748 36.2975 37.5509L36.54 38.5211C37.3715 38.3132 38.1092 37.9595 38.7451 37.456L38.1244 36.672ZM36.2794 37.5558C35.5954 37.7544 34.7219 37.86 33.6468 37.86V38.86C34.7797 38.86 35.7542 38.7496 36.5582 38.5162L36.2794 37.5558ZM33.6468 37.86C32.5586 37.86 31.5873 37.6563 30.7243 37.258L30.3053 38.166C31.3143 38.6317 32.431 38.86 33.6468 38.86V37.86ZM30.7384 37.2648C29.9169 36.854 29.2683 36.2399 28.7875 35.4095L27.9221 35.9105C28.4973 36.9041 29.2887 37.658 30.2912 38.1592L30.7384 37.2648ZM28.7903 35.4143C28.3159 34.5734 28.0628 33.4884 28.0628 32.132H27.0628C27.0628 33.6076 27.3377 34.8746 27.9193 35.9057L28.7903 35.4143ZM28.0628 32.132C28.0628 30.1753 28.7388 28.812 30.0377 27.939L29.4799 27.109C27.8508 28.204 27.0628 29.9127 27.0628 32.132H28.0628ZM30.0423 27.9358C31.3916 27.0068 33.475 26.4624 36.3632 26.3677L36.3304 25.3683C33.3625 25.4656 31.054 26.0252 29.4752 27.1122L30.0423 27.9358ZM36.3626 26.3678L39.7826 26.2598L39.751 25.2602L36.331 25.3682L36.3626 26.3678ZM40.2668 25.76V24.896H39.2668V25.76H40.2668ZM40.2668 24.896C40.2668 23.7808 39.9672 22.8597 39.2669 22.2507L38.6107 23.0053C39.0143 23.3563 39.2668 23.9472 39.2668 24.896H40.2668ZM39.2751 22.258C38.6272 21.669 37.7476 21.408 36.7068 21.408V22.408C37.586 22.408 38.1943 22.627 38.6024 22.998L39.2751 22.258ZM36.7068 21.408C35.6959 21.408 34.7091 21.5598 33.7482 21.8632L34.0493 22.8168C34.9125 22.5442 35.7977 22.408 36.7068 22.408V21.408ZM33.7598 21.8597C32.8244 22.1305 31.8906 22.4746 30.9586 22.8916L31.367 23.8044C32.2589 23.4054 33.1492 23.0775 34.0378 22.8203L33.7598 21.8597ZM31.6126 23.1298L29.8486 19.4938L28.9489 19.9302L30.7129 23.5662L31.6126 23.1298ZM29.6304 20.1551C30.6474 19.6235 31.7732 19.205 33.0099 18.9016L32.7717 17.9304C31.4644 18.251 30.2621 18.6965 29.1672 19.2689L29.6304 20.1551ZM33.0078 18.9021C34.2638 18.5997 35.5685 18.448 36.9228 18.448V17.448C35.4931 17.448 34.1097 17.6083 32.7738 17.9299L33.0078 18.9021ZM37.6649 28.4642C35.9156 28.5128 34.5636 28.8259 33.7534 29.5204L34.4042 30.2796C34.938 29.8221 35.986 29.5112 37.6927 29.4638L37.6649 28.4642ZM33.7534 29.5204C32.9635 30.1974 32.5708 31.0956 32.5708 32.168H33.5708C33.5708 31.3684 33.8501 30.7546 34.4042 30.2796L33.7534 29.5204ZM32.5708 32.168C32.5708 33.0804 32.843 33.8462 33.4908 34.332L34.0908 33.532C33.7786 33.2978 33.5708 32.8876 33.5708 32.168H32.5708ZM33.5041 34.3416C34.0907 34.7523 34.8238 34.936 35.6628 34.936V33.936C34.9658 33.936 34.4508 33.7837 34.0775 33.5224L33.5041 34.3416ZM35.6628 34.936C36.9194 34.936 38.0099 34.5664 38.9023 33.8093L38.2553 33.0467C37.5637 33.6336 36.7101 33.936 35.6628 33.936V34.936ZM38.9088 33.8036C39.8289 32.9951 40.2668 31.8748 40.2668 30.512H39.2668C39.2668 31.6452 38.9127 32.4689 38.2487 33.0524L38.9088 33.8036ZM40.2668 30.512V28.892H39.2668V30.512H40.2668ZM39.7496 28.3923L37.6616 28.4643L37.696 29.4637L39.784 29.3917L39.7496 28.3923ZM63.3653 35.552L63.778 35.8344L63.7814 35.8293L63.3653 35.552ZM60.5573 37.64L60.7368 38.1067L60.7368 38.1067L60.5573 37.64ZM52.3853 38.072L52.4811 37.5811L52.4695 37.5791L52.3853 38.072ZM49.4333 37.208H48.9333V37.542L49.2418 37.6699L49.4333 37.208ZM49.4333 32.78L49.6402 32.3248L48.9333 32.0035V32.78H49.4333ZM58.3253 33.968L58.0429 33.5552L58.0326 33.5627L58.3253 33.968ZM58.7213 31.844L58.2995 32.1124L58.3078 32.1255L58.317 32.1381L58.7213 31.844ZM54.7613 29.648L54.5633 30.1071L54.5697 30.1098L54.7613 29.648ZM51.7373 28.1L51.4599 28.5161L51.4689 28.5218L51.7373 28.1ZM49.9733 26.228L49.529 26.4573L49.5322 26.4633L49.9733 26.228ZM51.5213 19.352L51.7921 19.7724L51.7921 19.7724L51.5213 19.352ZM60.6653 18.344L60.5591 18.8326L60.5591 18.8326L60.6653 18.344ZM64.0853 19.532L64.5462 19.7258L64.7323 19.2833L64.2978 19.0794L64.0853 19.532ZM62.4653 23.384L62.2623 23.8409L62.7285 24.0481L62.9262 23.5778L62.4653 23.384ZM60.5933 22.628L60.424 23.0984L60.424 23.0984L60.5933 22.628ZM58.8293 22.124L58.7231 22.6126L58.7274 22.6135L58.8293 22.124ZM55.3013 22.268L55.0673 21.826L55.0562 21.8322L55.3013 22.268ZM55.0133 24.104L54.609 24.3981L54.6243 24.4191L54.6417 24.4385L55.0133 24.104ZM56.2013 24.896L55.9777 25.3433L55.985 25.3468L56.2013 24.896ZM58.8293 26.048L58.637 26.5096L58.6419 26.5116L58.8293 26.048ZM61.7453 27.488L61.4825 27.9135L61.4918 27.919L61.7453 27.488ZM63.6173 29.324L63.185 29.5751L63.1898 29.5834L63.1949 29.5915L63.6173 29.324ZM63.8013 32.168C63.8013 33.4068 63.5096 34.4342 62.9493 35.2746L63.7814 35.8293C64.4691 34.7978 64.8013 33.5692 64.8013 32.168H63.8013ZM62.9527 35.2697C62.397 36.0818 61.5514 36.722 60.3779 37.1733L60.7368 38.1067C62.0593 37.598 63.0857 36.8462 63.778 35.8343L62.9527 35.2697ZM60.3779 37.1733C59.2045 37.6246 57.7218 37.86 55.9133 37.86V38.86C57.8009 38.86 59.4142 38.6154 60.7368 38.1067L60.3779 37.1733ZM55.9133 37.86C54.5667 37.86 53.4245 37.7653 52.4811 37.5813L52.2896 38.5627C53.3142 38.7627 54.5239 38.86 55.9133 38.86V37.86ZM52.4695 37.5791C51.5247 37.4178 50.5766 37.1408 49.6249 36.7461L49.2418 37.6699C50.2581 38.0912 51.278 38.3902 52.3012 38.5649L52.4695 37.5791ZM49.9333 37.208V32.78H48.9333V37.208H49.9333ZM49.2264 33.2352C50.3116 33.7284 51.4797 34.1339 52.7298 34.4525L52.9768 33.4835C51.779 33.1781 50.6671 32.7916 49.6402 32.3248L49.2264 33.2352ZM52.7298 34.4525C53.9812 34.7715 55.1041 34.936 56.0933 34.936V33.936C55.2106 33.936 54.1735 33.7885 52.9768 33.4835L52.7298 34.4525ZM56.0933 34.936C57.1681 34.936 58.0506 34.7832 58.6181 34.3733L58.0326 33.5627C57.7361 33.7768 57.1306 33.936 56.0933 33.936V34.936ZM58.6077 34.3807C59.1845 33.986 59.5093 33.4309 59.5093 32.744H58.5093C58.5093 33.0651 58.3782 33.326 58.043 33.5553L58.6077 34.3807ZM59.5093 32.744C59.5093 32.3056 59.3818 31.902 59.1257 31.5499L58.317 32.1381C58.4449 32.314 58.5093 32.5104 58.5093 32.744H59.5093ZM59.1432 31.5756C58.9026 31.1975 58.4189 30.8467 57.8136 30.5077L57.325 31.3803C57.9198 31.7133 58.2041 31.9625 58.2995 32.1124L59.1432 31.5756ZM57.8136 30.5077C57.1871 30.1569 56.229 29.7158 54.953 29.1862L54.5697 30.1098C55.8377 30.6362 56.7516 31.0591 57.325 31.3803L57.8136 30.5077ZM54.9594 29.1889C53.7506 28.6674 52.7682 28.1633 52.0058 27.6782L51.4689 28.5218C52.2905 29.0447 53.3241 29.5726 54.5633 30.1071L54.9594 29.1889ZM52.0147 27.684C51.2799 27.1941 50.7537 26.6286 50.4145 25.9927L49.5322 26.4633C49.961 27.2674 50.6108 27.9499 51.46 28.516L52.0147 27.684ZM50.4177 25.9987C50.08 25.3445 49.8973 24.5047 49.8973 23.456H48.8973C48.8973 24.6153 49.0987 25.6235 49.529 26.4573L50.4177 25.9987ZM49.8973 23.456C49.8973 21.7852 50.5326 20.5836 51.7921 19.7724L51.2506 18.9316C49.6781 19.9444 48.8973 21.4788 48.8973 23.456H49.8973ZM51.7921 19.7724C53.1013 18.9291 54.8808 18.484 57.1733 18.484V17.484C54.7619 17.484 52.7734 17.9509 51.2506 18.9316L51.7921 19.7724ZM57.1733 18.484C58.3646 18.484 59.4928 18.6008 60.5591 18.8326L60.7716 17.8554C59.6299 17.6072 58.4301 17.484 57.1733 17.484V18.484ZM60.5591 18.8326C61.6215 19.0635 62.7259 19.4462 63.8729 19.9846L64.2978 19.0794C63.0928 18.5138 61.9172 18.1045 60.7716 17.8554L60.5591 18.8326ZM63.6244 19.3382L62.0044 23.1902L62.9262 23.5778L64.5462 19.7258L63.6244 19.3382ZM62.6684 22.9271C62.0106 22.6347 61.3753 22.3781 60.7627 22.1576L60.424 23.0984C61.0114 23.3099 61.6241 23.5573 62.2623 23.8409L62.6684 22.9271ZM60.7627 22.1576C60.1425 21.9343 59.532 21.7597 58.9313 21.6345L58.7274 22.6135C59.2787 22.7283 59.8442 22.8897 60.424 23.0984L60.7627 22.1576ZM58.9356 21.6354C58.3466 21.5074 57.7349 21.444 57.1013 21.444V22.444C57.6678 22.444 58.2081 22.5006 58.7231 22.6126L58.9356 21.6354ZM57.1013 21.444C56.2786 21.444 55.5819 21.5537 55.0674 21.8261L55.5353 22.7099C55.8368 22.5503 56.3401 22.444 57.1013 22.444V21.444ZM55.0562 21.8322C54.5187 22.1346 54.2253 22.6229 54.2253 23.24H55.2253C55.2253 22.9931 55.316 22.8334 55.5465 22.7038L55.0562 21.8322ZM54.2253 23.24C54.2253 23.6628 54.3579 24.0528 54.609 24.3981L55.4177 23.8099C55.2848 23.6272 55.2253 23.4412 55.2253 23.24H54.2253ZM54.6417 24.4385C54.9233 24.7514 55.3902 25.0494 55.9777 25.3432L56.425 24.4488C55.8605 24.1666 55.5354 23.9366 55.385 23.7695L54.6417 24.4385ZM55.985 25.3468C56.597 25.6405 57.4826 26.0285 58.637 26.5095L59.0217 25.5865C57.8721 25.1075 57.0057 24.7275 56.4177 24.4452L55.985 25.3468ZM58.6419 26.5116C59.7504 26.9596 60.696 27.4275 61.4826 27.9134L62.0081 27.0626C61.1627 26.5405 60.1643 26.0483 59.0167 25.5844L58.6419 26.5116ZM61.4918 27.919C62.2414 28.3599 62.8004 28.9127 63.185 29.5751L64.0497 29.0729C63.5703 28.2473 62.8813 27.5761 61.9989 27.057L61.4918 27.919ZM63.1949 29.5915C63.5844 30.2065 63.8013 31.0521 63.8013 32.168H64.8013C64.8013 30.9319 64.5622 29.8815 64.0398 29.0565L63.1949 29.5915ZM88.1634 38V38.5H88.6634V38H88.1634ZM82.7274 38H82.2274V38.5H82.7274V38ZM82.7274 16.832H83.2274V16.332H82.7274V16.832ZM75.7434 16.832H75.2434V17.332H75.7434V16.832ZM75.7434 12.296V11.796H75.2434V12.296H75.7434ZM95.1474 12.296H95.6474V11.796H95.1474V12.296ZM95.1474 16.832V17.332H95.6474V16.832H95.1474ZM88.1634 16.832V16.332H87.6634V16.832H88.1634ZM88.1634 37.5H82.7274V38.5H88.1634V37.5ZM83.2274 38V16.832H82.2274V38H83.2274ZM82.7274 16.332H75.7434V17.332H82.7274V16.332ZM76.2434 16.832V12.296H75.2434V16.832H76.2434ZM75.7434 12.796H95.1474V11.796H75.7434V12.796ZM94.6474 12.296V16.832H95.6474V12.296H94.6474ZM95.1474 16.332H88.1634V17.332H95.1474V16.332ZM87.6634 16.832V38H88.6634V16.832H87.6634ZM109.908 19.676L109.589 20.0613L109.597 20.0671L109.908 19.676ZM112.032 38V38.5H112.532V38H112.032ZM108.288 38L107.823 38.1824L107.947 38.5H108.288V38ZM107.244 35.336L107.71 35.1536L107.585 34.836H107.244V35.336ZM107.1 35.336V34.836H106.859L106.709 35.0253L107.1 35.336ZM105.372 37.064L105.07 36.6658L105.062 36.672L105.372 37.064ZM103.356 38.036L103.235 37.5509L103.226 37.5532L103.217 37.5558L103.356 38.036ZM97.4523 37.712L97.2287 38.1592L97.2357 38.1627L97.2428 38.166L97.4523 37.712ZM95.2923 35.66L94.8568 35.9057L94.8596 35.9105L95.2923 35.66ZM96.6963 27.524L96.9752 27.939L96.9798 27.9358L96.6963 27.524ZM103.284 25.868L103.269 25.3682L103.268 25.3683L103.284 25.868ZM106.704 25.76L106.72 26.2598L107.204 26.2445V25.76H106.704ZM105.876 22.628L105.54 22.9981L105.548 23.0053L105.876 22.628ZM100.836 22.34L100.975 22.8204L100.987 22.8168L100.836 22.34ZM98.1003 23.348L97.6504 23.5662L97.862 24.0024L98.3045 23.8044L98.1003 23.348ZM96.3363 19.712L96.1047 19.2689L95.6746 19.4937L95.8864 19.9302L96.3363 19.712ZM99.8283 18.416L99.7113 17.9299L99.7092 17.9304L99.8283 18.416ZM104.616 28.964L104.63 29.4638L104.634 29.4637L104.616 28.964ZM101.016 29.9L100.691 29.5204L100.691 29.5204L101.016 29.9ZM100.728 33.932L100.428 34.332L100.435 34.3369L100.442 34.3416L100.728 33.932ZM105.516 33.428L105.84 33.8093L105.846 33.8036L105.516 33.428ZM106.704 28.892H107.204V28.3745L106.687 28.3923L106.704 28.892ZM103.86 18.448C106.436 18.448 108.32 19.011 109.589 20.0612L110.227 19.2908C108.712 18.037 106.565 17.448 103.86 17.448V18.448ZM109.597 20.0671C110.86 21.0732 111.532 22.6469 111.532 24.896H112.532C112.532 22.4411 111.789 20.5348 110.22 19.2849L109.597 20.0671ZM111.532 24.896V38H112.532V24.896H111.532ZM112.032 37.5H108.288V38.5H112.032V37.5ZM108.754 37.8176L107.71 35.1536L106.779 35.5184L107.823 38.1824L108.754 37.8176ZM107.244 34.836H107.1V35.836H107.244V34.836ZM106.709 35.0253C106.178 35.6942 105.631 36.2392 105.07 36.6659L105.675 37.4621C106.313 36.9768 106.919 36.3698 107.492 35.6467L106.709 35.0253ZM105.062 36.672C104.546 37.0805 103.94 37.3748 103.235 37.5509L103.478 38.5211C104.309 38.3132 105.047 37.9595 105.683 37.456L105.062 36.672ZM103.217 37.5558C102.533 37.7544 101.659 37.86 100.584 37.86V38.86C101.717 38.86 102.692 38.7496 103.496 38.5162L103.217 37.5558ZM100.584 37.86C99.4961 37.86 98.5248 37.6563 97.6618 37.258L97.2428 38.166C98.2518 38.6317 99.3685 38.86 100.584 38.86V37.86ZM97.6759 37.2648C96.8544 36.854 96.2058 36.2399 95.725 35.4095L94.8596 35.9105C95.4348 36.9041 96.2262 37.658 97.2287 38.1592L97.6759 37.2648ZM95.7278 35.4143C95.2534 34.5734 95.0003 33.4884 95.0003 32.132H94.0003C94.0003 33.6076 94.2752 34.8746 94.8568 35.9057L95.7278 35.4143ZM95.0003 32.132C95.0003 30.1753 95.6763 28.812 96.9752 27.939L96.4174 27.109C94.7883 28.204 94.0003 29.9127 94.0003 32.132H95.0003ZM96.9798 27.9358C98.3291 27.0068 100.413 26.4624 103.301 26.3677L103.268 25.3683C100.3 25.4656 97.9915 26.0252 96.4127 27.1122L96.9798 27.9358ZM103.3 26.3678L106.72 26.2598L106.689 25.2602L103.269 25.3682L103.3 26.3678ZM107.204 25.76V24.896H106.204V25.76H107.204ZM107.204 24.896C107.204 23.7808 106.905 22.8597 106.204 22.2507L105.548 23.0053C105.952 23.3563 106.204 23.9472 106.204 24.896H107.204ZM106.213 22.258C105.565 21.669 104.685 21.408 103.644 21.408V22.408C104.524 22.408 105.132 22.627 105.54 22.998L106.213 22.258ZM103.644 21.408C102.633 21.408 101.647 21.5598 100.686 21.8632L100.987 22.8168C101.85 22.5442 102.735 22.408 103.644 22.408V21.408ZM100.697 21.8597C99.7619 22.1305 98.8281 22.4746 97.8961 22.8916L98.3045 23.8044C99.1964 23.4054 100.087 23.0775 100.975 22.8203L100.697 21.8597ZM98.5501 23.1298L96.7861 19.4938L95.8864 19.9302L97.6504 23.5662L98.5501 23.1298ZM96.5679 20.1551C97.5849 19.6235 98.7107 19.205 99.9474 18.9016L99.7092 17.9304C98.4019 18.251 97.1996 18.6965 96.1047 19.2689L96.5679 20.1551ZM99.9453 18.9021C101.201 18.5997 102.506 18.448 103.86 18.448V17.448C102.431 17.448 101.047 17.6083 99.7113 17.9299L99.9453 18.9021ZM104.602 28.4642C102.853 28.5128 101.501 28.8259 100.691 29.5204L101.342 30.2796C101.875 29.8221 102.923 29.5112 104.63 29.4638L104.602 28.4642ZM100.691 29.5204C99.901 30.1974 99.5083 31.0956 99.5083 32.168H100.508C100.508 31.3684 100.788 30.7546 101.342 30.2796L100.691 29.5204ZM99.5083 32.168C99.5083 33.0804 99.7805 33.8462 100.428 34.332L101.028 33.532C100.716 33.2978 100.508 32.8876 100.508 32.168H99.5083ZM100.442 34.3416C101.028 34.7523 101.761 34.936 102.6 34.936V33.936C101.903 33.936 101.388 33.7837 101.015 33.5224L100.442 34.3416ZM102.6 34.936C103.857 34.936 104.947 34.5664 105.84 33.8093L105.193 33.0467C104.501 33.6336 103.648 33.936 102.6 33.936V34.936ZM105.846 33.8036C106.766 32.9951 107.204 31.8748 107.204 30.512H106.204C106.204 31.6452 105.85 32.4689 105.186 33.0524L105.846 33.8036ZM107.204 30.512V28.892H106.204V30.512H107.204ZM106.687 28.3923L104.599 28.4643L104.634 29.4637L106.722 29.3917L106.687 28.3923ZM133.831 20.576L133.439 20.8864L133.441 20.889L133.831 20.576ZM134.911 33.788L135.37 33.985L135.372 33.9823L134.911 33.788ZM132.247 37.208L131.965 36.7947L131.965 36.7947L132.247 37.208ZM125.875 38L125.707 38.4709L125.712 38.4727L125.875 38ZM124.147 37.064L124.459 36.6736L124.459 36.6736L124.147 37.064ZM122.887 35.84L123.271 35.5199L123.121 35.34H122.887V35.84ZM122.599 35.84V35.34H121.983L122.11 35.943L122.599 35.84ZM122.815 37.28L122.317 37.3274L122.317 37.3298L122.815 37.28ZM122.887 46.64V47.14H123.387V46.64H122.887ZM117.523 46.64H117.023V47.14H117.523V46.64ZM117.523 18.344V17.844H117.023V18.344H117.523ZM121.879 18.344L122.358 18.2022L122.252 17.844H121.879V18.344ZM122.635 20.9L122.155 21.0418L122.261 21.4H122.635V20.9ZM122.887 20.9V21.4H123.151L123.3 21.1817L122.887 20.9ZM124.183 19.46L124.508 19.8398L124.518 19.8308L124.183 19.46ZM125.983 18.38L125.811 17.9105L125.806 17.9125L125.983 18.38ZM124.507 22.844L124.221 22.4335L124.221 22.4335L124.507 22.844ZM123.283 24.608L122.808 24.4499L122.806 24.4589L123.283 24.608ZM122.887 27.524L122.387 27.5138V27.524H122.887ZM123.247 31.34L122.764 31.4705L122.765 31.4738L123.247 31.34ZM124.471 33.32L124.781 32.928L124.781 32.928L124.471 33.32ZM128.827 33.32L128.5 32.9416L128.5 32.9416L128.827 33.32ZM130.015 31.304L129.536 31.1615L129.536 31.1615L130.015 31.304ZM129.511 23.744L129.079 23.9966L129.083 24.0028L129.087 24.009L129.511 23.744ZM128.467 18.484C130.522 18.484 132.166 19.2784 133.439 20.8864L134.223 20.2656C132.76 18.4176 130.827 17.484 128.467 17.484V18.484ZM133.441 20.889C134.709 22.4682 135.383 24.8568 135.383 28.136H136.383C136.383 24.7432 135.689 22.0918 134.221 20.263L133.441 20.889ZM135.383 28.136C135.383 30.3226 135.065 32.1362 134.45 33.5936L135.372 33.9823C136.053 32.3678 136.383 30.4134 136.383 28.136H135.383ZM134.451 33.591C133.833 35.0336 133 36.0905 131.965 36.7947L132.528 37.6213C133.75 36.7895 134.693 35.5664 135.37 33.985L134.451 33.591ZM131.965 36.7947C130.928 37.5011 129.72 37.86 128.323 37.86V38.86C129.902 38.86 131.31 38.4509 132.528 37.6213L131.965 36.7947ZM128.323 37.86C127.428 37.86 126.669 37.7451 126.038 37.5273L125.712 38.4727C126.472 38.7349 127.346 38.86 128.323 38.86V37.86ZM126.043 37.5291C125.415 37.3048 124.89 37.0179 124.459 36.6736L123.834 37.4544C124.364 37.8781 124.991 38.2152 125.707 38.4709L126.043 37.5291ZM124.459 36.6736C124.003 36.3086 123.608 35.9238 123.271 35.5199L122.503 36.1601C122.886 36.6202 123.331 37.0514 123.834 37.4544L124.459 36.6736ZM122.887 35.34H122.599V36.34H122.887V35.34ZM122.11 35.943C122.201 36.3792 122.271 36.8405 122.317 37.3274L123.313 37.2326C123.263 36.7115 123.188 36.2128 123.088 35.737L122.11 35.943ZM122.317 37.3298C122.364 37.7933 122.387 38.2567 122.387 38.72H123.387C123.387 38.2233 123.362 37.7267 123.312 37.2302L122.317 37.3298ZM122.387 38.72V46.64H123.387V38.72H122.387ZM122.887 46.14H117.523V47.14H122.887V46.14ZM118.023 46.64V18.344H117.023V46.64H118.023ZM117.523 18.844H121.879V17.844H117.523V18.844ZM121.399 18.4858L122.155 21.0418L123.114 20.7582L122.358 18.2022L121.399 18.4858ZM122.635 21.4H122.887V20.4H122.635V21.4ZM123.3 21.1817C123.634 20.6914 124.036 20.2441 124.508 19.8396L123.857 19.0804C123.321 19.5399 122.859 20.0526 122.474 20.6183L123.3 21.1817ZM124.518 19.8308C124.972 19.4204 125.517 19.0915 126.16 18.8475L125.806 17.9125C125.057 18.1965 124.402 18.5876 123.847 19.0892L124.518 19.8308ZM126.155 18.8494C126.809 18.6096 127.577 18.484 128.467 18.484V17.484C127.485 17.484 126.597 17.6224 125.811 17.9106L126.155 18.8494ZM126.739 21.768C125.74 21.768 124.884 21.9724 124.221 22.4335L124.792 23.2545C125.234 22.9476 125.866 22.768 126.739 22.768V21.768ZM124.221 22.4335C123.561 22.8927 123.098 23.5807 122.809 24.4499L123.757 24.7661C123.995 24.0513 124.348 23.5633 124.792 23.2545L124.221 22.4335ZM122.806 24.4589C122.547 25.2874 122.412 26.3103 122.387 27.5138L123.387 27.5342C123.41 26.3857 123.539 25.4646 123.76 24.7571L122.806 24.4589ZM122.387 27.524V28.1H123.387V27.524H122.387ZM122.387 28.1C122.387 29.4006 122.509 30.5272 122.764 31.4705L123.73 31.2095C123.504 30.3768 123.387 29.3434 123.387 28.1H122.387ZM122.765 31.4738C123.027 32.4169 123.485 33.1769 124.16 33.712L124.781 32.928C124.305 32.5511 123.947 31.9911 123.729 31.2062L122.765 31.4738ZM124.16 33.712C124.851 34.2584 125.752 34.504 126.811 34.504V33.504C125.901 33.504 125.243 33.2936 124.781 32.928L124.16 33.712ZM126.811 34.504C127.725 34.504 128.52 34.2458 129.154 33.6984L128.5 32.9416C128.078 33.3062 127.528 33.504 126.811 33.504V34.504ZM129.154 33.6984C129.774 33.1626 130.212 32.3967 130.494 31.4465L129.536 31.1615C129.29 31.9873 128.936 32.5654 128.5 32.9416L129.154 33.6984ZM130.494 31.4465C130.776 30.4986 130.911 29.3676 130.911 28.064H129.911C129.911 29.3044 129.782 30.3334 129.536 31.1615L130.494 31.4465ZM130.911 28.064C130.911 26.1081 130.608 24.5563 129.935 23.479L129.087 24.009C129.614 24.8517 129.911 26.1799 129.911 28.064H130.911ZM129.942 23.4914C129.265 22.334 128.164 21.768 126.739 21.768V22.768C127.858 22.768 128.605 23.186 129.079 23.9966L129.942 23.4914Z" fill="url(#paint1_linear_5096_4632)"/>
    <defs>
        <linearGradient id="paint0_linear_5096_4632" x1="-8.2028" y1="24.5" x2="155.072" y2="35.3406" gradientUnits="userSpaceOnUse">
            <stop stop-color="#4BF2A2" stop-opacity="0.16"/>
            <stop offset="0.380208" stop-color="#A89FE7" stop-opacity="0.35"/>
            <stop offset="0.669499" stop-color="#E1C4F4" stop-opacity="0.31"/>
            <stop offset="1" stop-color="#DD40CD" stop-opacity="0.31"/>
        </linearGradient>
        <linearGradient id="paint1_linear_5096_4632" x1="-8.2028" y1="24.5" x2="155.072" y2="35.3406" gradientUnits="userSpaceOnUse">
            <stop stop-color="#4BF2A2"/>
            <stop offset="0.522948" stop-color="#A89FE7"/>
            <stop offset="0.669499" stop-color="#E1C4F4"/>
            <stop offset="1" stop-color="#DD40CD"/>
        </linearGradient>
    </defs>
</svg>
