<svg width="140" height="49" viewBox="0 0 140 49" fill="none" xmlns="http://www.w3.org/2000/svg">
    <path d="M13.032 23.276H23.652V36.848C22.308 37.304 20.844 37.676 19.26 37.964C17.7 38.228 15.996 38.36 14.148 38.36C11.628 38.36 9.456 37.868 7.632 36.884C5.808 35.9 4.404 34.424 3.42 32.456C2.46 30.488 1.98 28.04 1.98 25.112C1.98 22.424 2.496 20.096 3.528 18.128C4.56 16.16 6.072 14.636 8.064 13.556C10.08 12.476 12.54 11.936 15.444 11.936C16.908 11.936 18.324 12.08 19.692 12.368C21.084 12.656 22.308 13.04 23.364 13.52L21.384 18.38C20.544 17.948 19.62 17.612 18.612 17.372C17.604 17.132 16.548 17.012 15.444 17.012C13.884 17.012 12.564 17.372 11.484 18.092C10.428 18.788 9.636 19.76 9.108 21.008C8.58 22.232 8.316 23.636 8.316 25.22C8.316 26.876 8.544 28.304 9 29.504C9.456 30.704 10.14 31.64 11.052 32.312C11.988 32.96 13.176 33.284 14.616 33.284C15.024 33.284 15.42 33.272 15.804 33.248C16.188 33.2 16.548 33.152 16.884 33.104C17.22 33.056 17.52 33.008 17.784 32.96V28.208H13.032V23.276ZM37.78 17.84C40.348 17.84 42.34 18.44 43.756 19.64C45.172 20.816 45.88 22.568 45.88 24.896V38H41.668L40.48 35.336H40.336C39.784 36.032 39.208 36.608 38.608 37.064C38.032 37.52 37.36 37.844 36.592 38.036C35.848 38.252 34.924 38.36 33.82 38.36C32.668 38.36 31.624 38.132 30.688 37.676C29.776 37.22 29.056 36.524 28.528 35.588C28 34.652 27.736 33.464 27.736 32.024C27.736 29.912 28.468 28.352 29.932 27.344C31.42 26.336 33.592 25.772 36.448 25.652L39.832 25.544V24.968C39.832 24.008 39.58 23.312 39.076 22.88C38.596 22.448 37.924 22.232 37.06 22.232C36.196 22.232 35.296 22.376 34.36 22.664C33.424 22.928 32.476 23.264 31.516 23.672L29.68 19.64C30.76 19.064 31.984 18.62 33.352 18.308C34.72 17.996 36.196 17.84 37.78 17.84ZM37.996 29.072C36.484 29.12 35.428 29.396 34.828 29.9C34.228 30.38 33.928 31.04 33.928 31.88C33.928 32.624 34.144 33.164 34.576 33.5C35.008 33.836 35.56 34.004 36.232 34.004C37.24 34.004 38.092 33.704 38.788 33.104C39.484 32.48 39.832 31.64 39.832 30.584V29L37.996 29.072ZM65.2222 32.024C65.2222 33.32 64.9222 34.448 64.3222 35.408C63.7462 36.344 62.8342 37.076 61.5862 37.604C60.3382 38.108 58.7542 38.36 56.8342 38.36C55.4422 38.36 54.2182 38.276 53.1622 38.108C52.1302 37.94 51.0862 37.64 50.0302 37.208V32.312C51.1822 32.816 52.3822 33.212 53.6302 33.5C54.9022 33.788 55.9582 33.932 56.7982 33.932C57.7102 33.932 58.3702 33.812 58.7782 33.572C59.1862 33.332 59.3902 32.996 59.3902 32.564C59.3902 32.252 59.2822 31.976 59.0662 31.736C58.8742 31.496 58.4662 31.22 57.8422 30.908C57.2422 30.596 56.3422 30.2 55.1422 29.72C53.9662 29.216 52.9942 28.7 52.2262 28.172C51.4822 27.644 50.9182 27.008 50.5342 26.264C50.1742 25.52 49.9942 24.608 49.9942 23.528C49.9942 21.656 50.7142 20.252 52.1542 19.316C53.6182 18.356 55.5502 17.876 57.9502 17.876C59.2222 17.876 60.4222 18.008 61.5502 18.272C62.6782 18.536 63.8422 18.944 65.0422 19.496L63.3142 23.6C62.6662 23.312 62.0182 23.06 61.3702 22.844C60.7462 22.628 60.1462 22.46 59.5702 22.34C58.9942 22.22 58.4542 22.16 57.9502 22.16C57.2782 22.16 56.7622 22.256 56.4022 22.448C56.0422 22.616 55.8622 22.88 55.8622 23.24C55.8622 23.504 55.9582 23.756 56.1502 23.996C56.3662 24.212 56.7622 24.452 57.3382 24.716C57.9382 24.98 58.8022 25.352 59.9302 25.832C61.0582 26.288 62.0182 26.768 62.8102 27.272C63.6022 27.776 64.2022 28.4 64.6102 29.144C65.0182 29.888 65.2222 30.848 65.2222 32.024ZM89.5447 38H83.4247V17.372H76.7647V12.296H96.2047V17.372H89.5447V38ZM105.596 17.84C108.164 17.84 110.156 18.44 111.572 19.64C112.988 20.816 113.696 22.568 113.696 24.896V38H109.484L108.296 35.336H108.152C107.6 36.032 107.024 36.608 106.424 37.064C105.848 37.52 105.176 37.844 104.408 38.036C103.664 38.252 102.74 38.36 101.636 38.36C100.484 38.36 99.4404 38.132 98.5044 37.676C97.5924 37.22 96.8724 36.524 96.3444 35.588C95.8164 34.652 95.5524 33.464 95.5524 32.024C95.5524 29.912 96.2844 28.352 97.7484 27.344C99.2364 26.336 101.408 25.772 104.264 25.652L107.648 25.544V24.968C107.648 24.008 107.396 23.312 106.892 22.88C106.412 22.448 105.74 22.232 104.876 22.232C104.012 22.232 103.112 22.376 102.176 22.664C101.24 22.928 100.292 23.264 99.3324 23.672L97.4964 19.64C98.5764 19.064 99.8004 18.62 101.168 18.308C102.536 17.996 104.012 17.84 105.596 17.84ZM105.812 29.072C104.3 29.12 103.244 29.396 102.644 29.9C102.044 30.38 101.744 31.04 101.744 31.88C101.744 32.624 101.96 33.164 102.392 33.5C102.824 33.836 103.376 34.004 104.048 34.004C105.056 34.004 105.908 33.704 106.604 33.104C107.3 32.48 107.648 31.64 107.648 30.584V29L105.812 29.072ZM130.339 17.876C132.547 17.876 134.311 18.752 135.631 20.504C136.951 22.232 137.611 24.752 137.611 28.064C137.611 30.32 137.287 32.216 136.639 33.752C135.991 35.288 135.103 36.44 133.975 37.208C132.871 37.976 131.599 38.36 130.159 38.36C129.223 38.36 128.419 38.24 127.747 38C127.099 37.76 126.535 37.46 126.055 37.1C125.599 36.716 125.215 36.332 124.903 35.948H124.651C124.723 36.404 124.783 36.884 124.831 37.388C124.879 37.892 124.903 38.432 124.903 39.008V46.64H118.819V18.236H123.751L124.615 20.756H124.903C125.239 20.228 125.647 19.748 126.127 19.316C126.631 18.884 127.231 18.536 127.927 18.272C128.623 18.008 129.427 17.876 130.339 17.876ZM128.215 22.664C127.399 22.664 126.751 22.844 126.271 23.204C125.815 23.564 125.479 24.104 125.263 24.824C125.047 25.52 124.927 26.408 124.903 27.488V28.028C124.903 29.204 124.999 30.2 125.191 31.016C125.407 31.808 125.755 32.42 126.235 32.852C126.739 33.26 127.423 33.464 128.287 33.464C128.983 33.464 129.559 33.272 130.015 32.888C130.495 32.48 130.843 31.868 131.059 31.052C131.299 30.236 131.419 29.216 131.419 27.992C131.419 26.144 131.155 24.8 130.627 23.96C130.099 23.096 129.295 22.664 128.215 22.664Z" fill="#21212C"/>
    <path d="M13.032 23.276V21.276H11.032V23.276H13.032ZM23.652 23.276H25.652V21.276H23.652V23.276ZM23.652 36.848L24.2946 38.742L25.652 38.2814V36.848H23.652ZM19.26 37.964L19.5937 39.936L19.6058 39.9339L19.6178 39.9317L19.26 37.964ZM7.632 36.884L6.68242 38.6442L7.632 36.884ZM3.42 32.456L1.62246 33.3328L1.62676 33.3417L1.63115 33.3504L3.42 32.456ZM3.528 18.128L1.75676 17.1992H1.75676L3.528 18.128ZM8.064 13.556L7.11955 11.793L7.11075 11.7978L8.064 13.556ZM19.692 12.368L19.28 14.3251L19.2868 14.3265L19.692 12.368ZM23.364 13.52L25.2162 14.2746L25.9414 12.4946L24.1916 11.6993L23.364 13.52ZM21.384 18.38L20.4693 20.1586L22.412 21.1577L23.2362 19.1346L21.384 18.38ZM11.484 18.092L12.5846 19.7619L12.5934 19.7561L11.484 18.092ZM9.108 21.008L10.9445 21.8002L10.9499 21.7873L9.108 21.008ZM9 29.504L7.13043 30.2144H7.13043L9 29.504ZM11.052 32.312L9.8656 33.9221L9.88934 33.9396L9.91358 33.9564L11.052 32.312ZM15.804 33.248L15.9288 35.2441L15.9906 35.2402L16.0521 35.2326L15.804 33.248ZM17.784 32.96L18.1418 34.9277L19.784 34.6292V32.96H17.784ZM17.784 28.208H19.784V26.208H17.784V28.208ZM13.032 28.208H11.032V30.208H13.032V28.208ZM13.032 25.276H23.652V21.276H13.032V25.276ZM21.652 23.276V36.848H25.652V23.276H21.652ZM23.0094 34.954C21.7698 35.3746 20.4022 35.7235 18.9022 35.9963L19.6178 39.9317C21.2858 39.6285 22.8462 39.2334 24.2946 38.742L23.0094 34.954ZM18.9263 35.992C17.4931 36.2346 15.9023 36.36 14.148 36.36V40.36C16.0897 40.36 17.9069 40.2214 19.5937 39.936L18.9263 35.992ZM14.148 36.36C11.8886 36.36 10.0572 35.9198 8.58158 35.1238L6.68242 38.6442C8.85483 39.8162 11.3674 40.36 14.148 40.36V36.36ZM8.58158 35.1238C7.14267 34.3475 6.02083 33.1855 5.20885 31.5616L1.63115 33.3504C2.78717 35.6625 4.47333 37.4525 6.68242 38.6442L8.58158 35.1238ZM5.21754 31.5792C4.42783 29.9602 3.98 27.8338 3.98 25.112H-0.0199999C-0.0199999 28.2462 0.492172 31.0158 1.62246 33.3328L5.21754 31.5792ZM3.98 25.112C3.98 22.6804 4.44588 20.6842 5.29924 19.0568L1.75676 17.1992C0.546118 19.5078 -0.0199999 22.1676 -0.0199999 25.112H3.98ZM5.29924 19.0568C6.14309 17.4476 7.36686 16.209 9.01725 15.3142L7.11075 11.7978C4.77714 13.063 2.97691 14.8724 1.75676 17.1992L5.29924 19.0568ZM9.00844 15.319C10.666 14.431 12.7827 13.936 15.444 13.936V9.936C12.2973 9.936 9.494 10.521 7.11956 11.793L9.00844 15.319ZM15.444 13.936C16.7761 13.936 18.0537 14.0669 19.28 14.3251L20.104 10.4109C18.5943 10.0931 17.0399 9.936 15.444 9.936V13.936ZM19.2868 14.3265C20.5646 14.5909 21.6419 14.9341 22.5364 15.3407L24.1916 11.6993C22.9741 11.1459 21.6034 10.7211 20.0972 10.4095L19.2868 14.3265ZM21.5118 12.7654L19.5318 17.6254L23.2362 19.1346L25.2162 14.2746L21.5118 12.7654ZM22.2987 16.6014C21.3024 16.089 20.2249 15.7001 19.0752 15.4264L18.1488 19.3176C19.0151 19.5239 19.7856 19.807 20.4693 20.1586L22.2987 16.6014ZM19.0752 15.4264C17.9059 15.148 16.6939 15.012 15.444 15.012V19.012C16.4021 19.012 17.3021 19.116 18.1488 19.3176L19.0752 15.4264ZM15.444 15.012C13.57 15.012 11.8445 15.448 10.3746 16.4279L12.5934 19.7561C13.2835 19.296 14.198 19.012 15.444 19.012V15.012ZM10.3834 16.4221C8.97393 17.351 7.93634 18.6444 7.26607 20.2287L10.9499 21.7873C11.3357 20.8756 11.8821 20.225 12.5846 19.7619L10.3834 16.4221ZM7.27158 20.2158C6.61733 21.7325 6.316 23.414 6.316 25.22H10.316C10.316 23.858 10.5427 22.7315 10.9444 21.8002L7.27158 20.2158ZM6.316 25.22C6.316 27.0518 6.56723 28.7323 7.13043 30.2144L10.8696 28.7936C10.5208 27.8757 10.316 26.7002 10.316 25.22H6.316ZM7.13043 30.2144C7.70426 31.7245 8.60431 32.9927 9.8656 33.9221L12.2384 30.7019C11.6757 30.2873 11.2077 29.6835 10.8696 28.7936L7.13043 30.2144ZM9.91358 33.9564C11.263 34.8906 12.8772 35.284 14.616 35.284V31.284C13.4748 31.284 12.713 31.0294 12.1904 30.6676L9.91358 33.9564ZM14.616 35.284C15.0631 35.284 15.5008 35.2709 15.9288 35.2441L15.6792 31.2519C15.3392 31.2731 14.9849 31.284 14.616 31.284V35.284ZM16.0521 35.2326C16.4461 35.1833 16.8178 35.1338 17.1668 35.0839L16.6012 31.1241C16.2782 31.1702 15.9299 31.2167 15.5559 31.2634L16.0521 35.2326ZM17.1668 35.0839C17.5217 35.0332 17.8474 34.9813 18.1418 34.9277L17.4262 30.9923C17.1926 31.0347 16.9183 31.0788 16.6012 31.1241L17.1668 35.0839ZM19.784 32.96V28.208H15.784V32.96H19.784ZM17.784 26.208H13.032V30.208H17.784V26.208ZM15.032 28.208V23.276H11.032V28.208H15.032ZM43.756 19.64L42.463 21.1658L42.4706 21.1722L42.4782 21.1786L43.756 19.64ZM45.88 38V40H47.88V38H45.88ZM41.668 38L39.8414 38.8146L40.3701 40H41.668V38ZM40.48 35.336L42.3066 34.5214L41.778 33.336H40.48V35.336ZM40.336 35.336V33.336H39.3696L38.769 34.0932L40.336 35.336ZM38.608 37.064L37.3979 35.4717L37.3821 35.4836L37.3666 35.4959L38.608 37.064ZM36.592 38.036L36.107 36.0957L36.0705 36.1048L36.0344 36.1153L36.592 38.036ZM30.688 37.676L29.7936 39.4649L29.8028 39.4695L29.8121 39.474L30.688 37.676ZM28.528 35.588L30.27 34.6054L28.528 35.588ZM29.932 27.344L28.8103 25.6882L28.8041 25.6924L28.7978 25.6967L29.932 27.344ZM36.448 25.652L36.3842 23.653L36.3742 23.6533L36.3641 23.6538L36.448 25.652ZM39.832 25.544L39.8958 27.543L41.832 27.4812V25.544H39.832ZM39.076 22.88L37.7381 24.3666L37.7561 24.3828L37.7744 24.3985L39.076 22.88ZM34.36 22.664L34.903 24.5889L34.9257 24.5825L34.9482 24.5756L34.36 22.664ZM31.516 23.672L29.6959 24.5008L30.5039 26.2753L32.2983 25.5127L31.516 23.672ZM29.68 19.64L28.7389 17.8753L27.0814 18.7593L27.8599 20.4688L29.68 19.64ZM33.352 18.308L32.9073 16.3581H32.9073L33.352 18.308ZM37.996 29.072L38.0595 31.071L38.0669 31.0708L38.0744 31.0705L37.996 29.072ZM34.828 29.9L36.0774 31.4617L36.0961 31.4468L36.1144 31.4314L34.828 29.9ZM34.576 33.5L33.3481 35.0787H33.3482L34.576 33.5ZM38.788 33.104L40.0939 34.6188L40.1086 34.6061L40.1231 34.5931L38.788 33.104ZM39.832 29H41.832V26.92L39.7537 27.0015L39.832 29ZM37.78 19.84C40.0553 19.84 41.5257 20.3714 42.463 21.1658L45.0491 18.1142C43.1544 16.5086 40.6408 15.84 37.78 15.84V19.84ZM42.4782 21.1786C43.3198 21.8775 43.88 22.9919 43.88 24.896H47.88C47.88 22.1441 47.0243 19.7545 45.0338 18.1014L42.4782 21.1786ZM43.88 24.896V38H47.88V24.896H43.88ZM45.88 36H41.668V40H45.88V36ZM43.4946 37.1854L42.3066 34.5214L38.6534 36.1506L39.8414 38.8146L43.4946 37.1854ZM40.48 33.336H40.336V37.336H40.48V33.336ZM38.769 34.0932C38.303 34.6809 37.8436 35.1329 37.3979 35.4717L39.8182 38.6563C40.5725 38.0831 41.2651 37.3831 41.903 36.5788L38.769 34.0932ZM37.3666 35.4959C37.0303 35.7621 36.621 35.9672 36.107 36.0957L37.0771 39.9763C38.0991 39.7208 39.0337 39.2779 39.8494 38.6321L37.3666 35.4959ZM36.0344 36.1153C35.5304 36.2616 34.8083 36.36 33.82 36.36V40.36C35.0397 40.36 36.1656 40.2424 37.1497 39.9567L36.0344 36.1153ZM33.82 36.36C32.9389 36.36 32.1992 36.1875 31.564 35.878L29.8121 39.474C31.0489 40.0765 32.3972 40.36 33.82 40.36V36.36ZM31.5825 35.8871C31.0468 35.6193 30.6133 35.2139 30.27 34.6054L26.7861 36.5706C27.4988 37.8341 28.5053 38.8207 29.7936 39.4649L31.5825 35.8871ZM30.27 34.6054C29.959 34.0541 29.736 33.2324 29.736 32.024H25.736C25.736 33.6956 26.041 35.2499 26.7861 36.5706L30.27 34.6054ZM29.736 32.024C29.736 30.4282 30.2515 29.5522 31.0662 28.9913L28.7978 25.6967C26.6845 27.1518 25.736 29.3958 25.736 32.024H29.736ZM31.0537 28.9998C32.1029 28.2891 33.8477 27.763 36.532 27.6502L36.3641 23.6538C33.3364 23.781 30.7371 24.3829 28.8103 25.6882L31.0537 28.9998ZM36.5118 27.651L39.8958 27.543L39.7682 23.545L36.3842 23.653L36.5118 27.651ZM41.832 25.544V24.968H37.832V25.544H41.832ZM41.832 24.968C41.832 23.6919 41.4943 22.3186 40.3776 21.3615L37.7744 24.3985C37.7353 24.3649 37.7402 24.3452 37.7625 24.4069C37.7899 24.4826 37.832 24.6548 37.832 24.968H41.832ZM40.414 21.3934C39.4576 20.5327 38.2485 20.232 37.06 20.232V24.232C37.5996 24.232 37.7344 24.3633 37.7381 24.3666L40.414 21.3934ZM37.06 20.232C35.9721 20.232 34.8734 20.4135 33.7719 20.7524L34.9482 24.5756C35.7187 24.3385 36.42 24.232 37.06 24.232V20.232ZM33.8171 20.7391C32.794 21.0277 31.7661 21.3926 30.7338 21.8313L32.2983 25.5127C33.186 25.1354 34.0541 24.8283 34.903 24.5889L33.8171 20.7391ZM33.3362 22.8432L31.5002 18.8112L27.8599 20.4688L29.6959 24.5008L33.3362 22.8432ZM30.6212 21.4047C31.5238 20.9233 32.577 20.5361 33.7968 20.2579L32.9073 16.3581C31.3911 16.7039 29.9963 17.2047 28.7389 17.8753L30.6212 21.4047ZM33.7967 20.2579C35.0016 19.9831 36.3268 19.84 37.78 19.84V15.84C36.0652 15.84 34.4385 16.0089 32.9073 16.3581L33.7967 20.2579ZM37.9326 27.073C36.3292 27.1239 34.6841 27.4089 33.5416 28.3686L36.1144 31.4314C36.1124 31.4331 36.1394 31.41 36.2158 31.3741C36.2926 31.3379 36.4089 31.2936 36.5758 31.25C36.9158 31.1611 37.4001 31.0919 38.0595 31.071L37.9326 27.073ZM33.5786 28.3383C32.4559 29.2365 31.928 30.4972 31.928 31.88H35.928C35.928 31.5828 36.0002 31.5235 36.0774 31.4617L33.5786 28.3383ZM31.928 31.88C31.928 33.0038 32.2681 34.2387 33.3481 35.0787L35.8039 31.9213C35.8391 31.9486 35.8726 31.9827 35.9004 32.0203C35.9278 32.0574 35.9417 32.087 35.947 32.1002C35.9558 32.1223 35.928 32.0655 35.928 31.88H31.928ZM33.3482 35.0787C34.2053 35.7454 35.2192 36.004 36.232 36.004V32.004C35.9008 32.004 35.8108 31.9266 35.8039 31.9213L33.3482 35.0787ZM36.232 36.004C37.6694 36.004 38.9987 35.563 40.0939 34.6188L37.4822 31.5892C37.1854 31.845 36.8106 32.004 36.232 32.004V36.004ZM40.1231 34.5931C41.2996 33.5384 41.832 32.1265 41.832 30.584H37.832C37.832 31.1535 37.6685 31.4216 37.4529 31.6149L40.1231 34.5931ZM41.832 30.584V29H37.832V30.584H41.832ZM39.7537 27.0015L37.9177 27.0735L38.0744 31.0705L39.9104 30.9985L39.7537 27.0015ZM64.3222 35.408L62.6261 34.348L62.6188 34.3598L64.3222 35.408ZM61.5862 37.604L62.3351 39.4585L62.3503 39.4523L62.3654 39.4459L61.5862 37.604ZM53.1622 38.108L52.8408 40.082L52.8479 40.0832L53.1622 38.108ZM50.0302 37.208H48.0302V38.5507L49.2729 39.0591L50.0302 37.208ZM50.0302 32.312L50.8318 30.4797L48.0302 29.254V32.312H50.0302ZM53.6302 33.5L53.1804 35.4488L53.1885 35.4506L53.6302 33.5ZM59.0662 31.736L57.5044 32.9854L57.5407 33.0308L57.5796 33.0739L59.0662 31.736ZM57.8422 30.908L56.9195 32.6824L56.9335 32.6898L56.9477 32.6969L57.8422 30.908ZM55.1422 29.72L54.3543 31.5583L54.3767 31.5679L54.3994 31.577L55.1422 29.72ZM52.2262 28.172L51.0687 29.803L51.0808 29.8116L51.0931 29.8201L52.2262 28.172ZM50.5342 26.264L48.7338 27.1351L48.7451 27.1584L48.7569 27.1813L50.5342 26.264ZM52.1542 19.316L53.2441 20.9929L53.2509 20.9885L52.1542 19.316ZM61.5502 18.272L62.0059 16.3246L62.0059 16.3246L61.5502 18.272ZM65.0422 19.496L66.8854 20.2721L67.6366 18.488L65.878 17.679L65.0422 19.496ZM63.3142 23.6L62.5019 25.4276L64.3659 26.2561L65.1574 24.3761L63.3142 23.6ZM61.3702 22.844L60.7159 24.734L60.7268 24.7377L60.7377 24.7414L61.3702 22.844ZM59.5702 22.34L59.9781 20.382L59.5702 22.34ZM56.4022 22.448L57.2479 24.2604L57.2963 24.2378L57.3433 24.2127L56.4022 22.448ZM56.1502 23.996L54.5884 25.2454L54.6576 25.3319L54.7359 25.4102L56.1502 23.996ZM57.3382 24.716L56.5048 26.5341L56.5187 26.5405L56.5327 26.5466L57.3382 24.716ZM59.9302 25.832L59.147 27.6723L59.1637 27.6794L59.1806 27.6862L59.9302 25.832ZM62.8102 27.272L61.7364 28.9593V28.9593L62.8102 27.272ZM63.2222 32.024C63.2222 33.0007 63 33.7499 62.6262 34.348L66.0182 36.468C66.8443 35.1461 67.2222 33.6393 67.2222 32.024H63.2222ZM62.6188 34.3598C62.3072 34.8662 61.7623 35.3579 60.8069 35.7621L62.3654 39.4459C63.906 38.7941 65.1851 37.8218 66.0255 36.4562L62.6188 34.3598ZM60.8372 35.7495C59.9056 36.1257 58.5984 36.36 56.8342 36.36V40.36C58.91 40.36 60.7707 40.0903 62.3351 39.4585L60.8372 35.7495ZM56.8342 36.36C55.5178 36.36 54.4029 36.2802 53.4764 36.1328L52.8479 40.0832C54.0334 40.2718 55.3665 40.36 56.8342 40.36V36.36ZM53.4835 36.134C52.6139 35.9924 51.7159 35.7367 50.7874 35.3569L49.2729 39.0591C50.4565 39.5433 51.6464 39.8876 52.8408 40.082L53.4835 36.134ZM52.0302 37.208V32.312H48.0302V37.208H52.0302ZM49.2285 34.1443C50.4961 34.6989 51.814 35.1335 53.1804 35.4488L54.0799 31.5512C52.9503 31.2905 51.8683 30.9331 50.8318 30.4797L49.2285 34.1443ZM53.1885 35.4506C54.5353 35.7556 55.7517 35.932 56.7982 35.932V31.932C56.1646 31.932 55.2691 31.8204 54.0718 31.5494L53.1885 35.4506ZM56.7982 35.932C57.7918 35.932 58.9045 35.818 59.7922 35.2959L57.7641 31.8481C57.8282 31.8104 57.8068 31.8402 57.6194 31.8743C57.4409 31.9067 57.1738 31.932 56.7982 31.932V35.932ZM59.7922 35.2959C60.7403 34.7381 61.3902 33.7831 61.3902 32.564H57.3902C57.3902 32.4514 57.4211 32.2774 57.5276 32.102C57.6289 31.9351 57.741 31.8617 57.7641 31.8481L59.7922 35.2959ZM61.3902 32.564C61.3902 31.7393 61.0866 30.9912 60.5527 30.3981L57.5796 33.0739C57.5411 33.0312 57.4878 32.957 57.4467 32.8518C57.4051 32.7455 57.3902 32.6441 57.3902 32.564H61.3902ZM60.6279 30.4866C60.1382 29.8746 59.3717 29.4367 58.7366 29.1191L56.9477 32.6969C57.2109 32.8284 57.3868 32.932 57.4955 33.0056C57.5485 33.0414 57.5731 33.0617 57.5776 33.0656C57.5839 33.071 57.5522 33.0451 57.5044 32.9854L60.6279 30.4866ZM58.7649 29.1336C58.0753 28.775 57.1018 28.3498 55.8849 27.863L54.3994 31.577C55.5825 32.0502 56.409 32.417 56.9195 32.6824L58.7649 29.1336ZM55.93 27.8817C54.8337 27.4119 53.987 26.9555 53.3592 26.5239L51.0931 29.8201C52.0013 30.4445 53.0986 31.0201 54.3543 31.5583L55.93 27.8817ZM53.3837 26.541C52.8764 26.181 52.536 25.7818 52.3114 25.3467L48.7569 27.1813C49.3004 28.2342 50.0879 29.107 51.0687 29.803L53.3837 26.541ZM52.3345 25.3929C52.1398 24.9905 51.9942 24.3952 51.9942 23.528H47.9942C47.9942 24.8208 48.2085 26.0495 48.7338 27.1351L52.3345 25.3929ZM51.9942 23.528C51.9942 22.2606 52.4299 21.5222 53.2441 20.9929L51.0642 17.6391C48.9985 18.9818 47.9942 21.0514 47.9942 23.528H51.9942ZM53.2509 20.9885C54.2889 20.3078 55.7998 19.876 57.9502 19.876V15.876C55.3005 15.876 52.9474 16.4042 51.0574 17.6435L53.2509 20.9885ZM57.9502 19.876C59.0835 19.876 60.1296 19.9936 61.0944 20.2194L62.0059 16.3246C60.7148 16.0224 59.3608 15.876 57.9502 15.876V19.876ZM61.0944 20.2194C62.075 20.4489 63.1117 20.8094 64.2063 21.313L65.878 17.679C64.5726 17.0786 63.2814 16.6231 62.0059 16.3246L61.0944 20.2194ZM63.1989 18.7199L61.4709 22.8239L65.1574 24.3761L66.8854 20.2721L63.1989 18.7199ZM64.1264 21.7724C63.4219 21.4592 62.7139 21.1837 62.0026 20.9466L60.7377 24.7414C61.3224 24.9363 61.9104 25.1648 62.5019 25.4276L64.1264 21.7724ZM62.0244 20.954C61.3294 20.7135 60.6469 20.5214 59.9781 20.382L59.1622 24.298C59.6454 24.3986 60.1629 24.5425 60.7159 24.734L62.0244 20.954ZM59.9781 20.382C59.2896 20.2386 58.6117 20.16 57.9502 20.16V24.16C58.2966 24.16 58.6987 24.2014 59.1622 24.298L59.9781 20.382ZM57.9502 20.16C57.138 20.16 56.2405 20.2675 55.461 20.6833L57.3433 24.2127C57.2999 24.2359 57.3135 24.219 57.425 24.1983C57.5343 24.1779 57.7046 24.16 57.9502 24.16V20.16ZM55.5564 20.6356C55.1294 20.8349 54.681 21.1521 54.3447 21.6453C54.0002 22.1505 53.8622 22.7108 53.8622 23.24H57.8622C57.8622 23.4092 57.8141 23.6575 57.6496 23.8987C57.4934 24.1279 57.3149 24.2291 57.2479 24.2604L55.5564 20.6356ZM53.8622 23.24C53.8622 24.0305 54.1615 24.7117 54.5884 25.2454L57.7119 22.7466C57.7278 22.7664 57.7677 22.8221 57.8031 22.915C57.8399 23.0114 57.8622 23.1234 57.8622 23.24H53.8622ZM54.7359 25.4102C55.2192 25.8934 55.8941 26.2542 56.5048 26.5341L58.1715 22.8979C57.9298 22.7871 57.7592 22.6964 57.6458 22.6276C57.5223 22.5528 57.5166 22.534 57.5644 22.5818L54.7359 25.4102ZM56.5327 26.5466C57.1439 26.8156 58.0168 27.1913 59.147 27.6723L60.7133 23.9917C59.5875 23.5126 58.7324 23.1444 58.1436 22.8854L56.5327 26.5466ZM59.1806 27.6862C60.2269 28.1092 61.0721 28.5366 61.7364 28.9593L63.8839 25.5847C62.9642 24.9994 61.8895 24.4668 60.6797 23.9778L59.1806 27.6862ZM61.7364 28.9593C62.2752 29.3022 62.6272 29.6874 62.8565 30.1057L66.3638 28.1823C65.7771 27.1126 64.9292 26.2498 63.8839 25.5847L61.7364 28.9593ZM62.8565 30.1057C63.0525 30.4631 63.2222 31.061 63.2222 32.024H67.2222C67.2222 30.635 66.9838 29.3129 66.3638 28.1823L62.8565 30.1057ZM89.5447 38V40H91.5447V38H89.5447ZM83.4247 38H81.4247V40H83.4247V38ZM83.4247 17.372H85.4247V15.372H83.4247V17.372ZM76.7647 17.372H74.7647V19.372H76.7647V17.372ZM76.7647 12.296V10.296H74.7647V12.296H76.7647ZM96.2047 12.296H98.2047V10.296H96.2047V12.296ZM96.2047 17.372V19.372H98.2047V17.372H96.2047ZM89.5447 17.372V15.372H87.5447V17.372H89.5447ZM89.5447 36H83.4247V40H89.5447V36ZM85.4247 38V17.372H81.4247V38H85.4247ZM83.4247 15.372H76.7647V19.372H83.4247V15.372ZM78.7647 17.372V12.296H74.7647V17.372H78.7647ZM76.7647 14.296H96.2047V10.296H76.7647V14.296ZM94.2047 12.296V17.372H98.2047V12.296H94.2047ZM96.2047 15.372H89.5447V19.372H96.2047V15.372ZM87.5447 17.372V38H91.5447V17.372H87.5447ZM111.572 19.64L110.279 21.1658L110.287 21.1722L110.295 21.1786L111.572 19.64ZM113.696 38V40H115.696V38H113.696ZM109.484 38L107.658 38.8146L108.186 40H109.484V38ZM108.296 35.336L110.123 34.5214L109.594 33.336H108.296V35.336ZM108.152 35.336V33.336H107.186L106.585 34.0932L108.152 35.336ZM106.424 37.064L105.214 35.4717L105.199 35.4836L105.183 35.4959L106.424 37.064ZM104.408 38.036L103.923 36.0957L103.887 36.1048L103.851 36.1153L104.408 38.036ZM98.5044 37.676L97.61 39.4649L97.6192 39.4695L97.6285 39.474L98.5044 37.676ZM96.3444 35.588L98.0864 34.6054L96.3444 35.588ZM97.7484 27.344L96.6267 25.6882L96.6205 25.6924L96.6142 25.6967L97.7484 27.344ZM104.264 25.652L104.201 23.653L104.191 23.6533L104.18 23.6538L104.264 25.652ZM107.648 25.544L107.712 27.543L109.648 27.4812V25.544H107.648ZM106.892 22.88L105.555 24.3666L105.572 24.3828L105.591 24.3985L106.892 22.88ZM102.176 22.664L102.719 24.5889L102.742 24.5825L102.765 24.5756L102.176 22.664ZM99.3324 23.672L97.5123 24.5008L98.3203 26.2753L100.115 25.5127L99.3324 23.672ZM97.4964 19.64L96.5553 17.8753L94.8978 18.7593L95.6763 20.4688L97.4964 19.64ZM101.168 18.308L100.724 16.3581L101.168 18.308ZM105.812 29.072L105.876 31.071L105.883 31.0708L105.891 31.0705L105.812 29.072ZM102.644 29.9L103.894 31.4617L103.913 31.4468L103.931 31.4314L102.644 29.9ZM102.392 33.5L101.165 35.0787L102.392 33.5ZM106.604 33.104L107.91 34.6188L107.925 34.6061L107.94 34.5931L106.604 33.104ZM107.648 29H109.648V26.92L107.57 27.0015L107.648 29ZM105.596 19.84C107.872 19.84 109.342 20.3714 110.279 21.1658L112.865 18.1142C110.971 16.5086 108.457 15.84 105.596 15.84V19.84ZM110.295 21.1786C111.136 21.8775 111.696 22.9919 111.696 24.896H115.696C115.696 22.1441 114.841 19.7545 112.85 18.1014L110.295 21.1786ZM111.696 24.896V38H115.696V24.896H111.696ZM113.696 36H109.484V40H113.696V36ZM111.311 37.1854L110.123 34.5214L106.47 36.1506L107.658 38.8146L111.311 37.1854ZM108.296 33.336H108.152V37.336H108.296V33.336ZM106.585 34.0932C106.119 34.6809 105.66 35.1329 105.214 35.4717L107.635 38.6563C108.389 38.0831 109.082 37.3831 109.719 36.5788L106.585 34.0932ZM105.183 35.4959C104.847 35.7621 104.437 35.9672 103.923 36.0957L104.894 39.9763C105.916 39.7208 106.85 39.2779 107.666 38.6321L105.183 35.4959ZM103.851 36.1153C103.347 36.2616 102.625 36.36 101.636 36.36V40.36C102.856 40.36 103.982 40.2424 104.966 39.9567L103.851 36.1153ZM101.636 36.36C100.755 36.36 100.016 36.1875 99.3804 35.878L97.6285 39.474C98.8653 40.0765 100.214 40.36 101.636 40.36V36.36ZM99.3989 35.8871C98.8632 35.6193 98.4297 35.2139 98.0864 34.6054L94.6025 36.5706C95.3152 37.8341 96.3217 38.8207 97.61 39.4649L99.3989 35.8871ZM98.0864 34.6054C97.7755 34.0541 97.5524 33.2324 97.5524 32.024H93.5524C93.5524 33.6956 93.8574 35.2499 94.6025 36.5706L98.0864 34.6054ZM97.5524 32.024C97.5524 30.4282 98.0679 29.5522 98.8826 28.9913L96.6142 25.6967C94.501 27.1518 93.5524 29.3958 93.5524 32.024H97.5524ZM98.8701 28.9998C99.9193 28.2891 101.664 27.763 104.348 27.6502L104.18 23.6538C101.153 23.781 98.5535 24.3829 96.6267 25.6882L98.8701 28.9998ZM104.328 27.651L107.712 27.543L107.585 23.545L104.201 23.653L104.328 27.651ZM109.648 25.544V24.968H105.648V25.544H109.648ZM109.648 24.968C109.648 23.6919 109.311 22.3186 108.194 21.3615L105.591 24.3985C105.552 24.3649 105.557 24.3452 105.579 24.4069C105.606 24.4826 105.648 24.6548 105.648 24.968H109.648ZM108.23 21.3934C107.274 20.5327 106.065 20.232 104.876 20.232V24.232C105.416 24.232 105.551 24.3633 105.555 24.3666L108.23 21.3934ZM104.876 20.232C103.788 20.232 102.69 20.4135 101.588 20.7524L102.765 24.5756C103.535 24.3385 104.236 24.232 104.876 24.232V20.232ZM101.634 20.7391C100.61 21.0277 99.5825 21.3926 98.5502 21.8313L100.115 25.5127C101.002 25.1354 101.87 24.8283 102.719 24.5889L101.634 20.7391ZM101.153 22.8432L99.3166 18.8112L95.6763 20.4688L97.5123 24.5008L101.153 22.8432ZM98.4376 21.4047C99.3402 20.9233 100.393 20.5361 101.613 20.2579L100.724 16.3581C99.2075 16.7039 97.8127 17.2047 96.5553 17.8753L98.4376 21.4047ZM101.613 20.2579C102.818 19.9831 104.143 19.84 105.596 19.84V15.84C103.882 15.84 102.255 16.0089 100.724 16.3581L101.613 20.2579ZM105.749 27.073C104.146 27.1239 102.501 27.4089 101.358 28.3686L103.931 31.4314C103.929 31.4331 103.956 31.41 104.032 31.3741C104.109 31.3379 104.225 31.2936 104.392 31.25C104.732 31.1611 105.217 31.0919 105.876 31.071L105.749 27.073ZM101.395 28.3383C100.272 29.2365 99.7444 30.4972 99.7444 31.88H103.744C103.744 31.5828 103.817 31.5235 103.894 31.4617L101.395 28.3383ZM99.7444 31.88C99.7444 33.0038 100.085 34.2387 101.165 35.0787L103.62 31.9213C103.655 31.9486 103.689 31.9827 103.717 32.0203C103.744 32.0574 103.758 32.087 103.763 32.1002C103.772 32.1223 103.744 32.0655 103.744 31.88H99.7444ZM101.165 35.0787C102.022 35.7454 103.036 36.004 104.048 36.004V32.004C103.717 32.004 103.627 31.9266 103.62 31.9213L101.165 35.0787ZM104.048 36.004C105.486 36.004 106.815 35.563 107.91 34.6188L105.299 31.5892C105.002 31.845 104.627 32.004 104.048 32.004V36.004ZM107.94 34.5931C109.116 33.5384 109.648 32.1265 109.648 30.584H105.648C105.648 31.1535 105.485 31.4216 105.269 31.6149L107.94 34.5931ZM109.648 30.584V29H105.648V30.584H109.648ZM107.57 27.0015L105.734 27.0735L105.891 31.0705L107.727 30.9985L107.57 27.0015ZM135.631 20.504L134.033 21.7075L134.041 21.7181L135.631 20.504ZM136.639 33.752L134.796 32.9746L136.639 33.752ZM133.975 37.208L132.849 35.5548L132.841 35.5605L132.832 35.5662L133.975 37.208ZM127.747 38L127.052 39.8755L127.063 39.8796L127.074 39.8835L127.747 38ZM126.055 37.1L124.766 38.6298L124.809 38.6662L124.855 38.7L126.055 37.1ZM124.903 35.948L126.455 34.6868L125.855 33.948H124.903V35.948ZM124.651 35.948V33.948H122.31L122.675 36.2599L124.651 35.948ZM124.831 37.388L122.84 37.5776L124.831 37.388ZM124.903 46.64V48.64H126.903V46.64H124.903ZM118.819 46.64H116.819V48.64H118.819V46.64ZM118.819 18.236V16.236H116.819V18.236H118.819ZM123.751 18.236L125.642 17.5874L125.179 16.236H123.751V18.236ZM124.615 20.756L122.723 21.4046L123.186 22.756H124.615V20.756ZM124.903 20.756V22.756H126L126.59 21.8298L124.903 20.756ZM126.127 19.316L124.825 17.7975L124.807 17.8132L124.789 17.8294L126.127 19.316ZM127.927 18.272L127.217 16.402V16.402L127.927 18.272ZM126.271 23.204L125.071 21.604L125.051 21.6189L125.031 21.6342L126.271 23.204ZM125.263 24.824L127.173 25.4168L127.175 25.4078L127.178 25.3987L125.263 24.824ZM124.903 27.488L122.903 27.4436L122.903 27.4658V27.488H124.903ZM125.191 31.016L123.244 31.4741L123.252 31.5083L123.261 31.5422L125.191 31.016ZM126.235 32.852L124.897 34.3386L124.936 34.3736L124.976 34.4065L126.235 32.852ZM130.015 32.888L131.303 34.4178L131.31 34.4119L130.015 32.888ZM131.059 31.052L129.14 30.4877L129.132 30.5138L129.125 30.5402L131.059 31.052ZM130.627 23.96L128.92 25.0029L128.927 25.0137L128.933 25.0243L130.627 23.96ZM130.339 19.876C131.923 19.876 133.094 20.4609 134.033 21.7075L137.228 19.3005C135.527 17.0431 133.17 15.876 130.339 15.876V19.876ZM134.041 21.7181C134.988 22.9571 135.611 24.9735 135.611 28.064H139.611C139.611 24.5305 138.913 21.5069 137.22 19.2899L134.041 21.7181ZM135.611 28.064C135.611 30.1417 135.31 31.755 134.796 32.9746L138.481 34.5294C139.263 32.677 139.611 30.4983 139.611 28.064H135.611ZM134.796 32.9746C134.264 34.2348 133.594 35.0473 132.849 35.5548L135.1 38.8612C136.611 37.8327 137.717 36.3412 138.481 34.5294L134.796 32.9746ZM132.832 35.5662C132.088 36.0842 131.221 36.36 130.159 36.36V40.36C131.976 40.36 133.653 39.8678 135.117 38.8498L132.832 35.5662ZM130.159 36.36C129.384 36.36 128.82 36.2596 128.419 36.1165L127.074 39.8835C128.017 40.2204 129.061 40.36 130.159 40.36V36.36ZM128.441 36.1245C127.947 35.9416 127.559 35.7283 127.255 35.5L124.855 38.7C125.51 39.1917 126.25 39.5784 127.052 39.8755L128.441 36.1245ZM127.343 35.5702C126.964 35.2514 126.673 34.9557 126.455 34.6868L123.35 37.2092C123.756 37.7083 124.233 38.1806 124.766 38.6298L127.343 35.5702ZM124.903 33.948H124.651V37.948H124.903V33.948ZM122.675 36.2599C122.74 36.6717 122.795 37.1107 122.84 37.5776L126.822 37.1984C126.77 36.6573 126.705 36.1363 126.626 35.6361L122.675 36.2599ZM122.84 37.5776C122.881 38.0107 122.903 38.4869 122.903 39.008H126.903C126.903 38.3771 126.876 37.7733 126.822 37.1984L122.84 37.5776ZM122.903 39.008V46.64H126.903V39.008H122.903ZM124.903 44.64H118.819V48.64H124.903V44.64ZM120.819 46.64V18.236H116.819V46.64H120.819ZM118.819 20.236H123.751V16.236H118.819V20.236ZM121.859 18.8846L122.723 21.4046L126.506 20.1073L125.642 17.5874L121.859 18.8846ZM124.615 22.756H124.903V18.756H124.615V22.756ZM126.59 21.8298C126.826 21.4594 127.115 21.1173 127.464 20.8026L124.789 17.8294C124.178 18.3787 123.652 18.9966 123.215 19.6822L126.59 21.8298ZM127.428 20.8345C127.737 20.5702 128.13 20.3338 128.636 20.142L127.217 16.402C126.331 16.7382 125.525 17.1978 124.825 17.7975L127.428 20.8345ZM128.636 20.142C129.061 19.9809 129.616 19.876 130.339 19.876V15.876C129.237 15.876 128.184 16.0351 127.217 16.402L128.636 20.142ZM128.215 20.664C127.119 20.664 126.002 20.9052 125.071 21.604L127.471 24.804C127.499 24.7828 127.678 24.664 128.215 24.664V20.664ZM125.031 21.6342C124.17 22.3141 123.646 23.2511 123.347 24.2493L127.178 25.3987C127.311 24.9569 127.459 24.8139 127.51 24.7738L125.031 21.6342ZM123.352 24.2312C123.062 25.1682 122.929 26.258 122.903 27.4436L126.902 27.5324C126.924 26.558 127.031 25.8718 127.173 25.4168L123.352 24.2312ZM122.903 27.488V28.028H126.903V27.488H122.903ZM122.903 28.028C122.903 29.3016 123.005 30.4614 123.244 31.4741L127.137 30.5579C126.992 29.9386 126.903 29.1064 126.903 28.028H122.903ZM123.261 31.5422C123.551 32.6048 124.063 33.5885 124.897 34.3386L127.572 31.3654C127.446 31.2515 127.262 31.0112 127.12 30.4898L123.261 31.5422ZM124.976 34.4065C125.939 35.186 127.117 35.464 128.287 35.464V31.464C127.728 31.464 127.538 31.334 127.493 31.2975L124.976 34.4065ZM128.287 35.464C129.371 35.464 130.427 35.155 131.303 34.4178L128.726 31.3582C128.69 31.389 128.594 31.464 128.287 31.464V35.464ZM131.31 34.4119C132.191 33.6632 132.706 32.6425 132.992 31.5638L129.125 30.5402C128.979 31.0935 128.798 31.2968 128.719 31.3641L131.31 34.4119ZM132.977 31.6163C133.289 30.5561 133.419 29.3309 133.419 27.992H129.419C129.419 29.1011 129.308 29.9159 129.14 30.4877L132.977 31.6163ZM133.419 27.992C133.419 26.0436 133.157 24.2272 132.32 22.8957L128.933 25.0243C129.152 25.3728 129.419 26.2444 129.419 27.992H133.419ZM132.333 22.9171C131.413 21.4122 129.935 20.664 128.215 20.664V24.664C128.654 24.664 128.784 24.7798 128.92 25.0029L132.333 22.9171Z" fill="white"/>
</svg>