<svg width="982" height="194" viewBox="0 0 982 194" fill="none" xmlns="http://www.w3.org/2000/svg">
    <path d="M-122.896 295.1C-116.98 -9.39253 -193.062 -378.205 -491.353 -707.645C-583.755 -809.727 -508.827 -972.81 -371.158 -970.147C-66.6402 -964.436 302.205 -1040.51 631.874 -1338.73C733.956 -1431.13 897.039 -1356.21 894.408 -1218.53C888.436 -914.087 964.508 -545.242 1262.73 -215.573C1355.13 -113.491 1280.21 49.5925 1142.53 46.9615C838.054 40.9799 469.242 117.062 139.801 415.353C37.5885 507.716 -125.494 432.788 -122.896 295.1Z" stroke="#282133" stroke-width="4" stroke-miterlimit="10"/>
    <path d="M-105.795 263.082C-98.9328 -29.2543 -170.482 -383.867 -455.575 -701.572C-543.802 -799.985 -471.273 -956.323 -339.082 -953.241C-46.8211 -946.365 307.866 -1017.93 625.604 -1303.01C723.985 -1391.25 880.323 -1318.72 877.241 -1186.53C870.43 -894.248 941.928 -539.58 1227.04 -221.833C1315.28 -123.452 1242.75 32.8861 1110.53 29.7945C818.182 22.965 463.58 94.4814 145.865 379.607C47.4514 467.834 -108.887 395.306 -105.795 263.082Z" stroke="#282133" stroke-width="4" stroke-miterlimit="10"/>
    <path d="M-88.7263 231.054C-80.8703 -49.2885 -147.902 -389.528 -419.859 -695.41C-504.116 -790.179 -433.791 -939.715 -306.858 -936.115C-26.5485 -928.268 313.691 -995.3 619.573 -1267.26C714.342 -1351.51 863.878 -1281.19 860.278 -1154.26C852.431 -873.947 919.463 -533.707 1191.42 -227.825C1275.68 -133.056 1205.35 16.4796 1078.62 12.937C798.273 5.08106 458.033 72.1126 152.152 344.07C57.257 428.149 -92.2689 357.791 -88.7263 231.054Z" stroke="#282133" stroke-width="4" stroke-miterlimit="10"/>
    <path d="M-71.6279 198.928C-62.7838 -69.2807 -125.302 -395.256 -384.09 -689.304C-464.28 -780.4 -396.256 -923.162 -274.974 -919.159C-6.75172 -910.24 319.093 -972.796 613.239 -1231.56C704.335 -1311.75 847.097 -1243.72 843.094 -1122.44C834.077 -854.246 896.796 -528.354 1155.56 -234.208C1235.75 -143.111 1167.72 -0.349387 1046.44 -4.35266C778.231 -13.1968 452.256 49.3211 158.208 308.109C67.0638 388.462 -75.6503 320.276 -71.6279 198.928Z" stroke="#282133" stroke-width="4" stroke-miterlimit="10"/>
    <path d="M-54.6115 166.955C-44.7657 -89.0444 -102.741 -400.852 -348.435 -683.053C-424.548 -770.51 -358.803 -906.456 -242.956 -902.058C13.044 -892.212 324.852 -950.187 607.086 -1195.87C694.5 -1271.96 830.531 -1206.26 826.067 -1090.43C816.221 -834.435 874.196 -522.627 1119.88 -240.393C1195.97 -152.979 1130.27 -16.9481 1014.44 -21.412C758.444 -31.2578 446.636 26.7177 164.435 272.411C76.9551 348.482 -59.0101 282.803 -54.6115 166.955Z" stroke="#282133" stroke-width="4" stroke-miterlimit="10"/>
    <path d="M-37.542 134.927C-26.6506 -109.135 -80.16 -406.514 -312.652 -676.873C-384.698 -760.656 -321.236 -889.894 -210.927 -884.989C33.1349 -874.097 330.515 -927.607 600.873 -1160.1C684.657 -1232.14 813.894 -1168.68 808.989 -1058.37C798.098 -814.312 851.559 -516.769 1084.1 -246.574C1156.15 -162.79 1092.68 -33.5523 982.374 -38.4577C738.312 -49.3491 440.932 4.16041 170.574 236.652C86.7902 308.698 -42.457 245.268 -37.542 134.927Z" stroke="#282133" stroke-width="4" stroke-miterlimit="10"/>
    <path d="M-20.5291 102.847C-8.64 -129.113 -57.7433 -412.224 -276.972 -670.828C-344.899 -750.994 -283.823 -873.412 -178.903 -868.027C53.0576 -856.138 336.168 -905.241 594.772 -1124.47C674.939 -1192.4 797.357 -1131.32 791.972 -1026.4C780.083 -794.44 829.186 -511.33 1048.41 -252.726C1116.34 -172.559 1055.27 -50.1413 950.345 -55.5264C718.385 -67.4156 435.274 -18.312 176.67 200.917C96.6341 268.882 -25.8489 207.786 -20.5291 102.847Z" stroke="#282133" stroke-width="4" stroke-miterlimit="10"/>
    <path d="M-3.39468 70.8382C9.4691 -149.063 -34.9995 -417.838 -241.186 -664.539C-305.074 -740.935 -246.271 -856.677 -146.838 -850.841C73.0638 -837.977 341.79 -882.283 588.54 -1088.63C664.968 -1152.51 780.678 -1093.72 774.842 -994.284C761.978 -774.383 806.512 -505.589 1012.63 -258.907C1076.51 -182.478 1017.72 -66.7687 918.285 -72.6049C698.383 -85.4687 429.59 -40.9347 182.907 165.186C106.511 229.075 -9.23086 170.271 -3.39468 70.8382Z" stroke="#282133" stroke-width="4" stroke-miterlimit="10"/>
    <path d="M13.641 38.8004C27.5448 -169.023 -12.4198 -423.5 -205.447 -658.335C-265.258 -731.091 -208.76 -840.167 -114.762 -833.936C93.0612 -820.032 347.538 -859.996 582.374 -1053.02C655.13 -1112.83 764.205 -1056.34 757.974 -962.339C744.07 -754.515 784.035 -500.039 977.094 -265.194C1036.87 -192.447 980.375 -83.3713 886.377 -89.6027C678.554 -103.506 424.077 -63.5419 189.232 129.518C116.355 189.258 7.37691 132.789 13.641 38.8004Z" stroke="#282133" stroke-width="4" stroke-miterlimit="10"/>
    <path d="M30.7104 6.77227C45.6215 -188.983 10.161 -429.162 -169.729 -652.173C-225.474 -721.257 -171.273 -823.451 -82.7718 -816.736C113.016 -801.815 353.162 -837.285 576.174 -1017.18C645.257 -1072.92 747.484 -1018.71 740.737 -930.218C725.816 -734.431 761.286 -494.284 941.176 -271.273C996.92 -202.189 942.71 -99.9621 854.219 -106.71C658.416 -121.458 418.285 -86.1605 195.273 93.7298C126.19 149.474 23.9952 95.2736 30.7104 6.77227Z" stroke="#282133" stroke-width="4" stroke-miterlimit="10"/>
    <path d="M47.7891 -25.2888C63.6979 -208.942 32.8724 -434.786 -134.008 -645.904C-185.783 -711.343 -133.777 -806.768 -50.7393 -799.56C132.914 -783.651 358.758 -814.477 569.876 -981.357C635.315 -1033.13 730.74 -981.126 723.532 -898.088C707.623 -714.435 738.449 -488.592 905.329 -277.473C957.104 -212.034 905.13 -116.599 822.06 -123.817C638.407 -139.726 412.564 -108.9 201.445 57.9802C136.034 109.657 40.5711 57.7813 47.7891 -25.2888Z" stroke="#282133" stroke-width="4" stroke-miterlimit="10"/>
    <path d="M64.8583 -57.3169C81.7744 -228.902 55.3549 -440.476 -98.2722 -639.808C-145.84 -701.569 -96.2652 -790.258 -18.682 -782.589C152.903 -765.673 364.477 -792.092 563.809 -945.719C625.57 -993.287 714.259 -943.712 706.623 -866.12C689.674 -694.544 716.126 -482.961 869.721 -283.638C917.288 -221.878 867.714 -133.188 790.121 -140.824C618.545 -157.773 406.962 -131.321 207.64 22.2733C145.879 69.8407 57.1797 20.299 64.8583 -57.3169Z" stroke="#282133" stroke-width="4" stroke-miterlimit="10"/>
    <path d="M81.8674 -89.5044C99.7908 -249.021 77.8985 -446.255 -62.5499 -633.786C-106.05 -691.874 -58.7773 -773.79 13.3285 -765.702C172.845 -747.779 370.112 -769.662 557.61 -910.12C615.698 -953.62 697.614 -906.347 689.527 -834.241C671.603 -674.725 693.519 -477.449 833.944 -289.96C877.504 -231.712 830.068 -149.844 757.962 -157.932C598.445 -175.855 401.202 -153.93 213.68 -13.5146C155.713 30.0565 73.8453 -17.3796 81.8674 -89.5044Z" stroke="#282133" stroke-width="4" stroke-miterlimit="10"/>
    <path d="M98.9628 -121.383C117.884 -268.798 100.505 -451.767 -26.8065 -627.474C-66.2393 -681.89 -21.2586 -757.064 45.416 -748.474C192.831 -729.553 375.8 -746.932 551.475 -874.253C605.89 -913.686 681.065 -868.705 672.475 -802.031C653.554 -654.615 670.965 -471.637 798.254 -295.972C837.686 -241.556 792.706 -166.381 726.064 -174.962C578.649 -193.883 395.67 -176.472 219.972 -49.1928C165.557 -9.76002 90.4148 -54.7312 98.9628 -121.383Z" stroke="#282133" stroke-width="4" stroke-miterlimit="10"/>
    <path d="M116.04 -153.443C135.959 -288.757 123.085 -457.429 8.93237 -621.27C-26.4236 -672.046 16.2462 -740.414 77.4434 -731.405C212.79 -711.477 381.462 -724.351 545.27 -838.513C596.046 -873.869 664.414 -831.2 655.405 -770.002C635.477 -634.656 648.384 -465.975 762.513 -302.175C797.869 -251.4 755.2 -183.032 694.002 -192.04C558.688 -211.959 390.007 -199.052 226.175 -84.9324C175.4 -49.5764 107.032 -92.246 116.04 -153.443Z" stroke="#282133" stroke-width="4" stroke-miterlimit="10"/>
    <path d="M133.111 -185.472C154.037 -308.717 145.666 -463.091 44.6832 -615.099C13.3945 -662.202 53.7393 -723.838 109.473 -714.337C232.718 -693.41 387.125 -701.771 539.1 -802.764C586.203 -834.053 647.839 -793.708 638.37 -737.965C617.411 -614.729 625.805 -460.313 726.798 -308.337C758.054 -261.244 717.709 -199.608 661.966 -209.077C538.73 -230.036 384.346 -221.633 232.338 -120.649C185.245 -89.3935 123.609 -129.738 133.111 -185.472Z" stroke="#282133" stroke-width="4" stroke-miterlimit="10"/>
    <path d="M150.146 -217.509C172.046 -328.696 168.245 -468.753 80.3006 -608.966C53.0793 -652.396 91.1554 -707.249 141.45 -697.46C252.636 -675.559 392.726 -679.35 532.906 -767.305C576.336 -794.526 631.189 -756.45 621.4 -706.156C599.499 -594.969 603.323 -454.87 691.245 -314.699C718.466 -271.269 680.39 -216.416 630.096 -226.205C518.909 -248.106 378.843 -244.273 238.639 -156.36C195.112 -129.168 140.095 -167.292 150.146 -217.509Z" stroke="#282133" stroke-width="4" stroke-miterlimit="10"/>
</svg>