<svg width="20" height="16" viewBox="0 0 20 16" fill="none" xmlns="http://www.w3.org/2000/svg">
  <path
    d="M8.52415 1.75821C9.62254 1.51957 10.766 1.55199 11.8478 1.85246C12.9296 2.15293 13.9145 2.71164 14.7106 3.47647C14.7168 3.48239 14.723 3.48821 14.7294 3.49394L17.0629 5.59947H13.3333V7.19985H19.1667C19.2951 7.19985 19.4167 7.17197 19.5253 7.12216C19.6036 7.08637 19.6771 7.03824 19.7427 6.97788C19.9013 6.8322 20 6.627 20 6.39966V0.798333H18.3333V4.54968L15.8799 2.33601C14.8865 1.38465 13.6588 0.689495 12.3109 0.315104C10.9586 -0.0604807 9.52933 -0.101015 8.15634 0.197284C6.78336 0.495583 5.51145 1.12299 4.45929 2.02097C3.40713 2.91895 2.60901 4.05822 2.13941 5.33249C1.98588 5.74911 2.21314 6.20636 2.64701 6.35378C3.08089 6.50121 3.55707 6.28299 3.71061 5.86637C4.08629 4.84696 4.72478 3.93553 5.56651 3.21715C6.40824 2.49877 7.42577 1.99685 8.52415 1.75821Z"
    fill="#B5B5C6" />
  <path
    d="M1.66667 11.4503V15.2017H0V9.60042C0 9.15848 0.373096 8.80023 0.833333 8.80023H6.66667V10.4006H2.93718L5.27066 12.5061C5.277 12.5118 5.28326 12.5176 5.28941 12.5235C6.08552 13.2884 7.07043 13.8471 8.15223 14.1475C9.23404 14.448 10.3775 14.4804 11.4759 14.2418C12.5743 14.0032 13.5918 13.5012 14.4335 12.7828C15.2752 12.0645 15.9137 11.153 16.2894 10.1336C16.4429 9.71701 16.9191 9.49879 17.353 9.64622C17.7869 9.79364 18.0141 10.2509 17.8606 10.6675C17.391 11.9418 16.5929 13.0811 15.5407 13.979C14.4886 14.877 13.2167 15.5044 11.8437 15.8027C10.4707 16.101 9.04139 16.0605 7.68913 15.6849C6.34117 15.3105 5.11357 14.6154 4.1201 13.664L1.66667 11.4503Z"
    fill="#B5B5C6" />
</svg>