<svg width="16" height="20" viewBox="0 0 16 20" fill="none" xmlns="http://www.w3.org/2000/svg">
<path d="M10.7719 1.77415C10.9546 1.94181 11.0149 2.24994 10.92 2.53059L9.09583 7.92693L14.0339 9.16726C14.2329 9.21725 14.3801 9.40892 14.4116 9.65914C14.4431 9.90937 14.3533 10.1731 14.1811 10.3359L5.86943 18.1939C5.67207 18.3805 5.41088 18.3935 5.2282 18.2258C5.04553 18.0582 4.98519 17.7501 5.08006 17.4694L6.90428 12.0731L1.96623 10.8327C1.76722 10.7828 1.62004 10.5911 1.58851 10.3409C1.55699 10.0906 1.6468 9.82693 1.819 9.66413L10.1307 1.80609C10.328 1.6195 10.5892 1.60649 10.7719 1.77415Z" fill="#48395F"/>
<path d="M3.36182 9.80192L7.7882 10.9137C7.93541 10.9507 8.05692 11.0662 8.12186 11.231C8.18679 11.3957 8.18892 11.5938 8.12768 11.775L6.79242 15.7249L12.6383 10.1981L8.21191 9.08627C8.0647 9.04929 7.94319 8.93376 7.87825 8.76902C7.81331 8.60428 7.81119 8.40618 7.87243 8.22504M10.92 2.53059C11.0149 2.24994 10.9546 1.94181 10.7719 1.77415C10.5892 1.60649 10.328 1.6195 10.1307 1.80609L1.819 9.66413C1.6468 9.82693 1.55699 10.0906 1.58851 10.3409C1.62004 10.5911 1.76722 10.7828 1.96623 10.8327L6.90428 12.0731L5.08006 17.4694C4.98519 17.7501 5.04553 18.0582 5.2282 18.2258C5.41088 18.3935 5.67207 18.3805 5.86943 18.1939L14.1811 10.3359C14.3533 10.1731 14.4431 9.90937 14.4116 9.65914C14.3801 9.40892 14.2329 9.21725 14.0339 9.16726L9.09583 7.92693L10.92 2.53059Z" stroke="#EDA9EB" stroke-linecap="round" stroke-linejoin="round"/>
<path fill-rule="evenodd" clip-rule="evenodd" d="M10.7719 1.77415C10.9546 1.94181 11.0149 2.24994 10.92 2.53059L9.09583 7.92693L14.0339 9.16726C14.2329 9.21725 14.3801 9.40892 14.4116 9.65915C14.4431 9.90937 14.3533 10.1731 14.1811 10.3359L5.86943 18.1939C5.67207 18.3805 5.41088 18.3935 5.2282 18.2258C5.04553 18.0582 4.98519 17.7501 5.08006 17.4694L6.90428 12.0731L1.96623 10.8327C1.76722 10.7828 1.62004 10.5911 1.58851 10.3409C1.55699 10.0906 1.6468 9.82693 1.819 9.66413L10.1307 1.80609C10.328 1.6195 10.5892 1.60649 10.7719 1.77415ZM3.36182 9.80193L7.7882 10.9137C7.93541 10.9507 8.05692 11.0662 8.12186 11.231C8.18679 11.3957 8.18891 11.5938 8.12768 11.775L6.79242 15.7249L12.6383 10.1981L8.21191 9.08627C8.0647 9.04929 7.94319 8.93376 7.87825 8.76902C7.81331 8.60428 7.81119 8.40618 7.87243 8.22504L9.20769 4.27512L3.36182 9.80193Z" fill="#48395F" stroke="#EDA9EB" stroke-linecap="round" stroke-linejoin="round"/>
</svg>
