<svg width="12" height="16" viewBox="0 0 12 16" fill="none" xmlns="http://www.w3.org/2000/svg">
  <path
    d="M8.07887 1.41932C8.21587 1.55345 8.26113 1.79995 8.18997 2.02447L6.82181 6.34155L10.5253 7.33381C10.6746 7.3738 10.785 7.52714 10.8086 7.72732C10.8323 7.9275 10.7649 8.13846 10.6358 8.2687L4.40201 14.5551C4.25399 14.7044 4.0581 14.7148 3.92109 14.5807C3.78409 14.4466 3.73883 14.2 3.80999 13.9755L5.17815 9.65845L1.47461 8.66619C1.32536 8.6262 1.21497 8.47286 1.19132 8.27268C1.16768 8.0725 1.23504 7.86154 1.36419 7.7313L7.59794 1.44487C7.74596 1.2956 7.94186 1.2852 8.07887 1.41932Z"
    fill="url(#paint0_radial_308_42086)" />
  <path fill-rule="evenodd" clip-rule="evenodd"
    d="M8.07887 1.41932C8.21587 1.55345 8.26113 1.79995 8.18997 2.02447L6.82181 6.34155L10.5253 7.33381C10.6746 7.3738 10.785 7.52714 10.8086 7.72732C10.8323 7.9275 10.7649 8.13846 10.6358 8.2687L4.40201 14.5551C4.25399 14.7044 4.0581 14.7148 3.92109 14.5807C3.78409 14.4466 3.73883 14.2 3.80998 13.9755L5.17815 9.65845L1.47461 8.66619C1.32536 8.6262 1.21497 8.47286 1.19132 8.27268C1.16768 8.0725 1.23504 7.86154 1.36419 7.7313L7.59794 1.44487C7.74596 1.2956 7.94186 1.2852 8.07887 1.41932ZM2.5213 7.84154L5.84109 8.73099C5.9515 8.76057 6.04263 8.85299 6.09133 8.98478C6.14003 9.11657 6.14163 9.27505 6.0957 9.41997L5.09425 12.5799L9.47865 8.15846L6.15887 7.26901C6.04846 7.23943 5.95733 7.14701 5.90863 7.01522C5.85992 6.88342 5.85833 6.72495 5.90426 6.58003L6.9057 3.42009L2.5213 7.84154Z"
    fill="url(#paint1_radial_308_42086)" stroke="url(#paint2_radial_308_42086)" stroke-linecap="round"
    stroke-linejoin="round" />
  <defs>
    <radialGradient id="paint0_radial_308_42086" cx="0" cy="0" r="1" gradientUnits="userSpaceOnUse"
      gradientTransform="translate(3.40116 5.43918) rotate(84.1828) scale(25.8379 153.975)">
      <stop stop-color="#96F2FE" />
      <stop offset="1" stop-color="#D4EFFF" stop-opacity="0.55" />
    </radialGradient>
    <radialGradient id="paint1_radial_308_42086" cx="0" cy="0" r="1" gradientUnits="userSpaceOnUse"
      gradientTransform="translate(3.40116 5.43918) rotate(84.1828) scale(25.8379 153.975)">
      <stop stop-color="#96F2FE" />
      <stop offset="1" stop-color="#D4EFFF" stop-opacity="0.55" />
    </radialGradient>
    <radialGradient id="paint2_radial_308_42086" cx="0" cy="0" r="1" gradientUnits="userSpaceOnUse"
      gradientTransform="translate(8.37609 8.64258) rotate(-165.001) scale(6.46999 7.75433)">
      <stop stop-color="#C2F4FF" />
      <stop offset="0.22" stop-color="#C0F4FF" stop-opacity="0.13275" />
      <stop offset="0.51" stop-color="#67FFB6" stop-opacity="0.11" />
      <stop offset="0.8" stop-color="#BFECFF" />
      <stop offset="1" stop-color="white" />
    </radialGradient>
  </defs>
</svg>