<svg width="17" height="22" viewBox="0 0 17 22" fill="none" xmlns="http://www.w3.org/2000/svg">
<path d="M9.51574 1.06322C9.77601 1.19885 9.93084 1.52514 9.89582 1.86425L9.22264 8.38463H15.3617C15.6091 8.38463 15.8342 8.55692 15.9394 8.82679C16.0446 9.09665 16.0109 9.41547 15.853 9.64495L8.22887 20.7218C8.04784 20.9848 7.74453 21.0724 7.48426 20.9368C7.22399 20.8012 7.06917 20.4749 7.10418 20.1358L7.77736 13.6154H1.6383C1.3909 13.6154 1.16577 13.4431 1.06058 13.1732C0.955384 12.9033 0.989068 12.5845 1.14702 12.355L8.77113 1.27817C8.95216 1.01515 9.25547 0.927596 9.51574 1.06322Z" fill="url(#paint0_radial_10520_22484)"/>
<path fill-rule="evenodd" clip-rule="evenodd" d="M9.51574 1.06322C9.77601 1.19885 9.93084 1.52514 9.89582 1.86425L9.22264 8.38463H15.3617C15.6091 8.38463 15.8342 8.55692 15.9394 8.82679C16.0446 9.09665 16.0109 9.41547 15.853 9.64495L8.22887 20.7218C8.04784 20.9848 7.74453 21.0724 7.48426 20.9368C7.22399 20.8012 7.06917 20.4749 7.10418 20.1358L7.77736 13.6154H1.6383C1.3909 13.6154 1.16577 13.4431 1.06058 13.1732C0.955384 12.9033 0.989068 12.5845 1.14702 12.355L8.77113 1.27817C8.95216 1.01515 9.25547 0.927596 9.51574 1.06322ZM2.99706 12.0769H8.5C8.68302 12.0769 8.85724 12.1716 8.9784 12.3369C9.09956 12.5022 9.15601 12.7222 9.13341 12.9411L8.64067 17.7138L14.0029 9.92308H8.5C8.31698 9.92308 8.14277 9.8284 8.0216 9.66309C7.90044 9.49779 7.84399 9.27775 7.86659 9.05888L8.35934 4.2862L2.99706 12.0769Z" fill="url(#paint1_radial_10520_22484)" stroke="url(#paint2_radial_10520_22484)" stroke-width="2" stroke-linecap="round" stroke-linejoin="round"/>
<defs>
<radialGradient id="paint0_radial_10520_22484" cx="0" cy="0" r="1" gradientUnits="userSpaceOnUse" gradientTransform="translate(3.55729 8.40426) rotate(69.7317) scale(37.1061 247.421)">
<stop stop-color="#33B375"/>
<stop offset="0.421875" stop-color="#564D8F"/>
<stop offset="1" stop-color="#DD40CD"/>
</radialGradient>
<radialGradient id="paint1_radial_10520_22484" cx="0" cy="0" r="1" gradientUnits="userSpaceOnUse" gradientTransform="translate(3.55729 8.40426) rotate(69.7317) scale(37.1061 247.421)">
<stop stop-color="#33B375"/>
<stop offset="0.421875" stop-color="#564D8F"/>
<stop offset="1" stop-color="#DD40CD"/>
</radialGradient>
<radialGradient id="paint2_radial_10520_22484" cx="0" cy="0" r="1" gradientUnits="userSpaceOnUse" gradientTransform="translate(12.4407 11.0083) rotate(-180) scale(10.3594 11.176)">
<stop stop-color="#A6349B"/>
<stop offset="0.53125" stop-color="white" stop-opacity="0.15"/>
<stop offset="0.864583" stop-color="#AAFF67" stop-opacity="0.11"/>
<stop offset="1" stop-color="white"/>
</radialGradient>
</defs>
</svg>
