<svg width="18" height="18" viewBox="0 0 18 18" fill="none" xmlns="http://www.w3.org/2000/svg">
  <g clip-path="url(#clip0_5890_13933)">
    <path opacity="0.80206"
      d="M9 18C13.9706 18 18 13.9706 18 9C18 4.02944 13.9706 0 9 0C4.02944 0 0 4.02944 0 9C0 13.9706 4.02944 18 9 18Z"
      fill="#303043" />
    <path
      d="M7.16973 13.05C6.96543 13.05 6.7998 12.8987 6.7998 12.712V5.28763C6.79991 5.16225 6.87599 5.04724 6.99744 4.98884C7.11889 4.93045 7.26575 4.93828 7.37894 5.00919L13.2895 8.72138C13.3898 8.78443 13.4498 8.88856 13.4498 8.99983C13.4498 9.11109 13.3898 9.21523 13.2895 9.27827L7.37894 12.9905C7.31731 13.029 7.24442 13.0497 7.16973 13.05Z"
      fill="white" />
  </g>
  <defs>
    <clipPath id="clip0_5890_13933">
      <rect width="18" height="18" fill="white" />
    </clipPath>
  </defs>
</svg>