<svg width="24" height="19" viewBox="0 0 24 19" fill="none" xmlns="http://www.w3.org/2000/svg">
    <path d="M20.3303 1.55716C18.7767 0.829717 17.1155 0.301013 15.3789 0C15.1656 0.385914 14.9164 0.904965 14.7447 1.31789C12.8985 1.04004 11.0693 1.04004 9.25715 1.31789C9.08539 0.904965 8.83051 0.385914 8.61537 0C6.8768 0.301013 5.21375 0.831646 3.66019 1.56102C0.526644 6.30004 -0.322811 10.9214 0.101917 15.4771C2.18025 17.0304 4.1944 17.9739 6.17458 18.5914C6.66349 17.918 7.09954 17.2021 7.47519 16.4476C6.75976 16.1755 6.07454 15.8399 5.42706 15.45C5.59883 15.3227 5.76684 15.1896 5.92918 15.0526C9.87824 16.9011 14.1689 16.9011 18.0708 15.0526C18.2349 15.1896 18.403 15.3227 18.5729 15.45C17.9235 15.8417 17.2364 16.1775 16.5209 16.4496C16.8966 17.2021 17.3308 17.9199 17.8215 18.5933C19.8036 17.9758 21.8196 17.0323 23.898 15.4771C24.3964 10.1959 23.0466 5.61697 20.3303 1.55716ZM8.01318 12.6754C6.82772 12.6754 5.85556 11.5677 5.85556 10.219C5.85556 8.87023 6.80695 7.76076 8.01318 7.76076C9.21942 7.76076 10.1915 8.8683 10.1708 10.219C10.1727 11.5677 9.21942 12.6754 8.01318 12.6754ZM15.9868 12.6754C14.8013 12.6754 13.8291 11.5677 13.8291 10.219C13.8291 8.87023 14.7805 7.76076 15.9868 7.76076C17.1929 7.76076 18.1651 8.8683 18.1444 10.219C18.1444 11.5677 17.1929 12.6754 15.9868 12.6754Z"
          fill="white" />
</svg>