<svg width="24" height="20" viewBox="0 0 24 20" fill="none" xmlns="http://www.w3.org/2000/svg">
    <path d="M5.9007 11.5109L0.480567 9.74931C0.480567 9.74931 -0.167199 9.48716 0.0413813 8.8927C0.0843189 8.77011 0.170934 8.6658 0.43004 8.48654C1.631 7.65153 22.6588 0.112388 22.6588 0.112388C22.6588 0.112388 23.2525 -0.0871816 23.6026 0.0455569C23.6893 0.0723052 23.7672 0.121527 23.8285 0.188186C23.8898 0.254845 23.9323 0.336549 23.9515 0.424942C23.9893 0.581065 24.0052 0.741689 23.9985 0.902172C23.9969 1.041 23.98 1.16968 23.9672 1.37146C23.8392 3.4327 20.0066 18.8163 20.0066 18.8163C20.0066 18.8163 19.7773 19.7165 18.9558 19.7473C18.7539 19.7538 18.5527 19.7197 18.3643 19.647C18.1759 19.5743 18.0041 19.4645 17.8592 19.3242C16.247 17.9409 10.6747 14.2054 9.44342 13.3838C9.41565 13.365 9.39225 13.3404 9.37482 13.3117C9.35739 13.283 9.34632 13.251 9.34237 13.2177C9.32516 13.1311 9.41954 13.0238 9.41954 13.0238C9.41954 13.0238 19.1223 4.42076 19.3805 3.51762C19.4005 3.44765 19.325 3.41313 19.2236 3.44377C18.5791 3.68027 7.40759 10.7176 6.17461 11.4943C6.08586 11.5211 5.99205 11.5268 5.9007 11.5109Z"
          fill="white" />
</svg>