<svg width="24" height="24" viewBox="0 0 24 24" fill="none" xmlns="http://www.w3.org/2000/svg">
    <path d="M6.18665 3.7334H17.8133V20.2667H16.1066V12.6934H16.0899C15.9013 10.6003 14.1422 8.96005 12 8.96005C9.85778 8.96005 8.09868 10.6003 7.91004 12.6934H7.89331V20.2667H6.18665V3.7334Z"
          fill="white" />
    <path d="M3.09332 6.08008L3.78666 8.42675H4.37331V17.9201C4.07876 17.9201 3.83999 18.1589 3.83999 18.4534V19.0934H3.73333C3.43878 19.0934 3.19998 19.3322 3.19998 19.6268V20.2667H9.17331V19.6268C9.17331 19.3322 8.93454 19.0934 8.63999 19.0934H8.53333V18.4534C8.53333 18.1589 8.29453 17.9201 7.99998 17.9201H7.35999V6.08008H3.09332Z"
          fill="white" />
    <path d="M16.2133 17.9201C15.9188 17.9201 15.68 18.1589 15.68 18.4534V19.0934H15.5733C15.2788 19.0934 15.04 19.3322 15.04 19.6268V20.2667H21.0133V19.6268C21.0133 19.3322 20.7745 19.0934 20.48 19.0934H20.3733V18.4534C20.3733 18.1589 20.1345 17.9201 19.84 17.9201V8.42675H20.4266L21.12 6.08008H16.8533V17.9201H16.2133Z"
          fill="white" />
</svg>