<svg width="24" height="17" viewBox="0 0 24 17" fill="none" xmlns="http://www.w3.org/2000/svg">
    <path fill-rule="evenodd" clip-rule="evenodd"
          d="M21.3763 0.501811C22.4096 0.7784 23.2216 1.59039 23.4982 2.62364C23.998 4.49456 24 8.40039 24 8.40039C24 8.40039 24 12.3062 23.4982 14.1772C23.2216 15.2104 22.4096 16.0224 21.3763 16.2989C19.5055 16.8008 12 16.8008 12 16.8008C12 16.8008 4.49456 16.8008 2.62364 16.2989C1.59039 16.0224 0.778399 15.2104 0.501811 14.1772C0 12.3062 0 8.40039 0 8.40039C0 8.40039 0 4.49456 0.501811 2.62364C0.778399 1.59039 1.59039 0.7784 2.62364 0.501811C4.49456 0 12 0 12 0C12 0 19.5055 0 21.3763 0.501811ZM15.8328 8.4009L9.59769 12.0005V4.80127L15.8328 8.4009Z"
          fill="white" />
</svg>