<svg width="158" height="158" viewBox="0 0 158 158" fill="none" xmlns="http://www.w3.org/2000/svg">
    <g clip-path="url(#clip0_62_2464)">
        <path fill-rule="evenodd" clip-rule="evenodd"
              d="M78.8281 68.6791C81.6504 66.545 84.2749 65.2925 86.3548 64.4581C106.277 56.5574 121.621 70.1878 131.104 86.3608C133.647 90.6927 136.08 98.1934 135.41 104.472C134.94 108.884 132.974 112.7 128.643 114.6C123.93 116.689 118.187 115.549 112.583 112.805C104.475 108.841 96.6437 101.554 92.8275 96.7033C88.4275 91.1068 82.5726 81.7427 78.0624 71.877C75.1996 74.4185 72.2049 77.9389 69.4487 82.9334C68.2157 85.1489 67.3931 87.9824 66.935 91.0857C71.5812 92.1928 76.216 94.2679 80.6176 97.3658C84.314 99.9751 91.0453 106.909 94.2663 113.723C96.5617 118.589 97.0398 123.392 93.9479 126.766C90.1021 130.951 85.553 130.936 81.234 128.84C75.151 125.892 69.5622 118.658 67.4943 114.076C65.0911 108.744 64.003 100.231 64.759 92.6821C48.8625 89.7677 33.1884 98.6086 27.6522 115.985C27.482 116.5 26.9195 116.79 26.3967 116.635C25.8696 116.462 25.5773 115.891 25.7475 115.376C31.6089 96.9917 48.1844 87.6069 65.009 90.671C65.5045 87.3692 66.383 84.3327 67.6986 81.9644C70.7383 76.4646 74.0566 72.6563 77.2088 69.9678C76.3954 68.1053 75.6357 66.2294 74.9463 64.3553C71.8454 55.9402 70.2447 47.7233 71.7139 41.7021C75.1071 27.7876 87.0052 21.221 100.02 20.4926C112.91 19.7759 126.851 24.8 134.468 33.881C134.823 34.3045 134.769 34.9424 134.345 35.2929C133.921 35.6435 133.29 35.5907 132.936 35.1671C125.687 26.5252 112.395 21.7956 100.132 22.4901C87.9937 23.1729 76.823 29.2005 73.6556 42.1699C72.2663 47.9064 73.8771 55.6665 76.8234 63.6655C77.4368 65.3312 78.1082 67.0017 78.8281 68.6791ZM66.6866 93.0965C71.0272 94.1654 75.3536 96.1082 79.4681 99.0119C82.987 101.495 89.3873 108.074 92.4598 114.585C94.3645 118.62 95.0435 122.616 92.4732 125.408C89.3427 128.829 85.623 128.743 82.1042 127.036C76.4374 124.307 71.245 117.524 69.3162 113.249C67.0556 108.241 65.9989 100.212 66.6866 93.0965ZM79.658 70.5565C82.4469 68.3928 85.0471 67.1462 87.093 66.3202C105.981 58.8258 120.389 72.0434 129.378 87.3726C131.749 91.4065 134.044 98.3925 133.421 104.262C133.026 107.936 131.454 111.182 127.836 112.774C123.613 114.647 118.484 113.47 113.464 111.017C105.639 107.192 98.0804 100.14 94.3987 95.4644C89.9983 89.8679 84.1233 80.4522 79.658 70.5565Z"
              fill="black" />
        <path fill-rule="evenodd" clip-rule="evenodd"
              d="M27.0715 114.837C27.9078 114.252 30.321 112.579 30.6926 112.336C31.7378 111.662 32.3571 111.471 33.0082 111.349C33.5326 111.257 34.0889 111.234 35.0464 110.941C35.5729 110.773 36.1334 111.089 36.2921 111.618C36.4508 112.147 36.1468 112.695 35.6203 112.863C34.7495 113.115 34.1778 113.199 33.6757 113.266C33.0987 113.352 32.6554 113.442 31.7772 114.018C31.3475 114.294 29.1238 116.091 27.9496 116.703C27.3379 117.024 26.827 117.055 26.5821 116.983C26.2313 116.88 25.863 116.63 25.5418 116.179C25.1319 115.599 24.7218 114.565 24.2362 113.416C23.7825 112.336 23.2454 111.124 22.4982 110.135C21.8645 109.307 21.0813 108.648 20.0103 108.496C19.4642 108.422 19.0816 107.93 19.1547 107.382C19.2279 106.834 19.7319 106.445 20.2781 106.518C21.8926 106.726 23.1303 107.67 24.0897 108.929C24.9382 110.044 25.563 111.405 26.0795 112.64C26.3917 113.377 26.6622 114.067 26.9252 114.589C26.9668 114.674 27.0192 114.755 27.0715 114.837Z"
              fill="black" />
    </g>
    <defs>
        <clipPath id="clip0_62_2464">
            <rect width="130" height="130" fill="white" transform="matrix(-0.239314 -0.970942 -0.970942 0.239314 157.333 126.222)" />
        </clipPath>
    </defs>
</svg>