<svg width="258" height="258" viewBox="0 0 258 258" fill="none" xmlns="http://www.w3.org/2000/svg">
    <g clip-path="url(#clip0_62_2485)">
        <path fill-rule="evenodd" clip-rule="evenodd"
              d="M197.496 62.946C197.424 81.889 187.57 102.299 172.725 120.393C150.542 147.426 117.247 169.292 89.2689 173.455C88.6914 173.534 88.1529 173.133 88.0689 172.564C87.9817 171.981 88.3767 171.452 88.9596 171.364C116.504 167.262 149.251 145.674 171.09 119.047C185.601 101.366 195.316 81.4556 195.378 62.9381C195.377 62.3502 195.853 61.8831 196.441 61.883C197.014 61.886 197.496 62.3581 197.496 62.946Z"
              fill="black" />
        <path fill-rule="evenodd" clip-rule="evenodd"
              d="M58.8077 187.591C74.8912 184.35 88.6835 179.877 105.854 182.998C106.431 183.11 106.818 183.655 106.706 184.231C106.607 184.805 106.054 185.187 105.486 185.079C86.5915 181.649 71.8564 187.613 53.5059 190.74C52.5142 190.904 52.2051 190.217 52.1447 190.047C52.0515 189.796 51.9849 189.37 52.374 188.944C52.4507 188.861 52.6247 188.719 52.8963 188.555C53.4234 188.252 54.547 187.727 55.0267 187.443C56.4045 186.611 57.7535 185.749 59.1313 184.916C63.0707 182.537 66.9727 180.123 70.6934 177.425C84.629 167.357 96.088 159.213 99.3331 141.713C99.4372 141.131 99.9852 140.758 100.567 140.862C101.135 140.969 101.517 141.522 101.41 142.09C98.0582 160.195 86.3413 168.727 71.9331 179.145C68.1596 181.869 64.208 184.324 60.2298 186.727C59.7501 187.011 59.2789 187.301 58.8077 187.591Z"
              fill="black" />
    </g>
    <defs>
        <clipPath id="clip0_62_2485">
            <rect width="186" height="186" fill="white" transform="matrix(-0.845202 -0.534447 -0.534447 0.845202 257.532 100.324)" />
        </clipPath>
    </defs>
</svg>