<svg width="16" height="16" viewBox="0 0 16 16" fill="none" xmlns="http://www.w3.org/2000/svg">
<circle cx="8" cy="8" r="7.75" stroke="#D9D9D9" stroke-width="0.5"/>
<path d="M12.75 8C12.75 10.1698 12.1998 12.1223 11.3235 13.5244C10.445 14.9299 9.26341 15.75 8 15.75C6.73659 15.75 5.55496 14.9299 4.67647 13.5244C3.80017 12.1223 3.25 10.1698 3.25 8C3.25 5.83022 3.80017 3.87772 4.67647 2.47565C5.55496 1.07005 6.73659 0.25 8 0.25C9.26341 0.25 10.445 1.07005 11.3235 2.47565C12.1998 3.87772 12.75 5.83022 12.75 8Z" stroke="#D9D9D9" stroke-width="0.5"/>
<path d="M9.75 8C9.75 10.1949 9.52735 12.1735 9.17168 13.5962C8.99336 14.3095 8.78501 14.869 8.56327 15.2441C8.33165 15.636 8.13319 15.75 8 15.75C7.86681 15.75 7.66835 15.636 7.43673 15.2441C7.21499 14.869 7.00664 14.3095 6.82832 13.5962C6.47265 12.1735 6.25 10.1949 6.25 8C6.25 5.80514 6.47265 3.82647 6.82832 2.40378C7.00664 1.69051 7.21499 1.13103 7.43673 0.755887C7.66835 0.364008 7.86681 0.25 8 0.25C8.13319 0.25 8.33165 0.364008 8.56327 0.755887C8.78501 1.13103 8.99336 1.69051 9.17168 2.40378C9.52735 3.82647 9.75 5.80514 9.75 8Z" stroke="#D9D9D9" stroke-width="0.5"/>
<path d="M15.75 8C15.75 9.26341 14.9299 10.445 13.5244 11.3235C12.1223 12.1998 10.1698 12.75 8 12.75C5.83022 12.75 3.87772 12.1998 2.47565 11.3235C1.07005 10.445 0.25 9.26341 0.25 8C0.25 6.73659 1.07005 5.55496 2.47565 4.67647C3.87772 3.80017 5.83022 3.25 8 3.25C10.1698 3.25 12.1223 3.80017 13.5244 4.67647C14.9299 5.55496 15.75 6.73659 15.75 8Z" stroke="#D9D9D9" stroke-width="0.5"/>
<path d="M15.75 8C15.75 8.13319 15.636 8.33165 15.2441 8.56327C14.869 8.78501 14.3095 8.99336 13.5962 9.17168C12.1735 9.52735 10.1949 9.75 8 9.75C5.80514 9.75 3.82647 9.52735 2.40378 9.17168C1.69051 8.99336 1.13103 8.78501 0.755887 8.56327C0.364008 8.33165 0.25 8.13319 0.25 8C0.25 7.86681 0.364008 7.66835 0.755887 7.43673C1.13103 7.21499 1.69051 7.00664 2.40378 6.82832C3.82647 6.47265 5.80514 6.25 8 6.25C10.1949 6.25 12.1735 6.47265 13.5962 6.82832C14.3095 7.00664 14.869 7.21499 15.2441 7.43673C15.636 7.66835 15.75 7.86681 15.75 8Z" stroke="#D9D9D9" stroke-width="0.5"/>
</svg>
