<svg width="55" height="34" viewBox="0 0 55 34" fill="none" xmlns="http://www.w3.org/2000/svg">
<g id="Group 4139" opacity="0.8">
<g id="Vector">
<mask id="path-1-inside-1_1_6" fill="white">
<path d="M38.6837 1.65936L41.0633 2.52792L30.1294 7.232L16.8752 11.1522L14.4317 10.783L25.3889 5.88416L38.6837 1.65936Z"/>
</mask>
<path d="M38.6837 1.65936L41.0633 2.52792L30.1294 7.232L16.8752 11.1522L14.4317 10.783L25.3889 5.88416L38.6837 1.65936Z" fill="url(#paint0_radial_1_6)" stroke="url(#paint1_linear_1_6)" stroke-width="0.198" mask="url(#path-1-inside-1_1_6)"/>
</g>
<g id="Union">
<mask id="path-2-inside-2_1_6" fill="white">
<path fill-rule="evenodd" clip-rule="evenodd" d="M5.54732 30.7215L5.54716 30.7218L5.54728 30.7215L5.54701 30.7216L5.54809 30.7197L14.4322 10.783L16.8755 11.1522L16.8756 11.152L16.8757 11.1522L16.8757 11.1523L16.8757 11.1523L23.4573 26.8741L5.54732 30.7215Z"/>
</mask>
<path fill-rule="evenodd" clip-rule="evenodd" d="M5.54732 30.7215L5.54716 30.7218L5.54728 30.7215L5.54701 30.7216L5.54809 30.7197L14.4322 10.783L16.8755 11.1522L16.8756 11.152L16.8757 11.1522L16.8757 11.1523L16.8757 11.1523L23.4573 26.8741L5.54732 30.7215Z" fill="url(#paint2_radial_1_6)"/>
<path d="M5.54716 30.7218L5.45669 30.6816L5.63283 30.7714L5.54716 30.7218ZM5.54732 30.7215L5.52653 30.6247L5.48363 30.6339L5.46165 30.6719L5.54732 30.7215ZM5.54728 30.7215L5.63775 30.7617L5.71697 30.5835L5.52635 30.6248L5.54728 30.7215ZM5.54701 30.7216L5.46132 30.672L5.34923 30.8657L5.56794 30.8184L5.54701 30.7216ZM5.54809 30.7197L5.63425 30.7696L5.63851 30.76L5.54809 30.7197ZM14.4322 10.783L14.447 10.6851L14.3724 10.6738L14.3417 10.7427L14.4322 10.783ZM16.8755 11.1522L16.8607 11.2501L16.9273 11.2602L16.9611 11.2019L16.8755 11.1522ZM16.8756 11.152L16.9668 11.1137L16.8898 10.9302L16.7899 11.1024L16.8756 11.152ZM16.8757 11.1522L16.7844 11.1906L16.8059 11.2417L16.8607 11.2501L16.8757 11.1522ZM16.8757 11.1523L16.9612 11.2022L17.0346 11.0764L16.8907 11.0544L16.8757 11.1523ZM16.8757 11.1523L16.7902 11.1024L16.7653 11.145L16.7844 11.1905L16.8757 11.1523ZM23.4573 26.8741L23.4781 26.9709L23.5947 26.9458L23.5486 26.8359L23.4573 26.8741ZM5.63283 30.7714L5.633 30.7711L5.46165 30.6719L5.46148 30.6722L5.63283 30.7714ZM5.45682 30.6813L5.45669 30.6816L5.63762 30.762L5.63775 30.7617L5.45682 30.6813ZM5.56794 30.8184L5.56821 30.8183L5.52635 30.6248L5.52608 30.6248L5.56794 30.8184ZM5.4624 30.6701L5.46132 30.672L5.63269 30.7712L5.63377 30.7693L5.4624 30.6701ZM14.3417 10.7427L5.45766 30.6794L5.63851 30.76L14.5226 10.8233L14.3417 10.7427ZM16.8902 11.0543L14.447 10.6851L14.4174 10.8809L16.8607 11.2501L16.8902 11.0543ZM16.7899 11.1024L16.7898 11.1025L16.9611 11.2019L16.9612 11.2017L16.7899 11.1024ZM16.9669 11.1139L16.9668 11.1137L16.7843 11.1904L16.7844 11.1906L16.9669 11.1139ZM16.8907 11.0544L16.8906 11.0544L16.8607 11.2501L16.8608 11.2501L16.8907 11.0544ZM16.9612 11.2022L16.9612 11.2022L16.7902 11.1024L16.7902 11.1024L16.9612 11.2022ZM23.5486 26.8359L16.967 11.1141L16.7844 11.1905L23.366 26.9123L23.5486 26.8359ZM5.56812 30.8183L23.4781 26.9709L23.4365 26.7773L5.52653 30.6247L5.56812 30.8183Z" fill="url(#paint3_linear_1_6)" mask="url(#path-2-inside-2_1_6)"/>
</g>
<g id="Vector_2">
<mask id="path-4-inside-3_1_6" fill="white">
<path d="M30.1298 7.23154L23.4574 26.8738L16.8756 11.1518L30.1298 7.23154Z"/>
</mask>
<path d="M30.1298 7.23154L23.4574 26.8738L16.8756 11.1518L30.1298 7.23154Z" fill="url(#paint4_radial_1_6)" stroke="url(#paint5_linear_1_6)" stroke-width="0.198" mask="url(#path-4-inside-3_1_6)"/>
</g>
<g id="Vector_3">
<mask id="path-5-inside-4_1_6" fill="white">
<path d="M50.1629 17.2879L30.1291 7.23191L23.4567 26.8742L50.1629 17.2879Z"/>
</mask>
<path d="M50.1629 17.2879L30.1291 7.23191L23.4567 26.8742L50.1629 17.2879Z" fill="url(#paint6_radial_1_6)" stroke="url(#paint7_linear_1_6)" stroke-width="0.198" mask="url(#path-5-inside-4_1_6)"/>
</g>
<g id="Vector_4">
<mask id="path-6-inside-5_1_6" fill="white">
<path d="M41.0634 2.52856L50.1632 17.2886L30.1294 7.23264L41.0634 2.52856Z"/>
</mask>
<path d="M41.0634 2.52856L50.1632 17.2886L30.1294 7.23264L41.0634 2.52856Z" fill="url(#paint8_radial_1_6)" stroke="url(#paint9_linear_1_6)" stroke-width="0.198" mask="url(#path-6-inside-5_1_6)"/>
</g>
<g id="Vector_5">
<mask id="path-7-inside-6_1_6" fill="white">
<path d="M59.3583 11.4125L50.1636 17.2876L41.0637 2.52757L59.3583 11.4125Z"/>
</mask>
<path d="M59.3583 11.4125L50.1636 17.2876L41.0637 2.52757L59.3583 11.4125Z" fill="url(#paint10_radial_1_6)" stroke="url(#paint11_linear_1_6)" stroke-width="0.198" mask="url(#path-7-inside-6_1_6)"/>
</g>
<g id="Vector_6">
<mask id="path-8-inside-7_1_6" fill="white">
<path d="M42.96 51.6555L5.54668 30.7213L23.457 26.8738L42.96 51.6555Z"/>
</mask>
<path d="M42.96 51.6555L5.54668 30.7213L23.457 26.8738L42.96 51.6555Z" fill="url(#paint12_radial_1_6)" stroke="url(#paint13_linear_1_6)" stroke-width="0.198" mask="url(#path-8-inside-7_1_6)"/>
</g>
<g id="Vector_7">
<mask id="path-9-inside-8_1_6" fill="white">
<path d="M50.1626 17.2878L42.9594 51.6558L23.4564 26.8741L50.1626 17.2878Z"/>
</mask>
<path d="M50.1626 17.2878L42.9594 51.6558L23.4564 26.8741L50.1626 17.2878Z" fill="url(#paint14_radial_1_6)" stroke="url(#paint15_linear_1_6)" stroke-width="0.198" mask="url(#path-9-inside-8_1_6)"/>
</g>
<g id="Vector_8">
<mask id="path-10-inside-9_1_6" fill="white">
<path d="M59.3584 11.4126L42.9604 51.6557L50.1636 17.2877L59.3584 11.4126Z"/>
</mask>
<path d="M59.3584 11.4126L42.9604 51.6557L50.1636 17.2877L59.3584 11.4126Z" fill="url(#paint16_radial_1_6)" stroke="url(#paint17_linear_1_6)" stroke-width="0.198" mask="url(#path-10-inside-9_1_6)"/>
</g>
</g>
<defs>
<radialGradient id="paint0_radial_1_6" cx="0" cy="0" r="1" gradientUnits="userSpaceOnUse" gradientTransform="translate(18.9186 9.22067) rotate(-7.41903) scale(24.3803 98.6485)">
<stop stop-color="#89EABB"/>
<stop offset="0.421875" stop-color="#9084D7"/>
<stop offset="1" stop-color="#E059D3"/>
</radialGradient>
<linearGradient id="paint1_linear_1_6" x1="-5.25765" y1="12.3688" x2="40.9051" y2="19.7558" gradientUnits="userSpaceOnUse">
<stop stop-color="#161623"/>
<stop offset="0.421875" stop-color="#564D8F"/>
<stop offset="1" stop-color="#DD40CD"/>
</linearGradient>
<radialGradient id="paint2_radial_1_6" cx="0" cy="0" r="1" gradientUnits="userSpaceOnUse" gradientTransform="translate(5.70319 21.6671) rotate(43.2027) scale(33.4546 282.957)">
<stop stop-color="#81F0BB"/>
<stop offset="0.666667" stop-color="#AAA0E8"/>
<stop offset="1" stop-color="#EAAFFF"/>
</radialGradient>
<linearGradient id="paint3_linear_1_6" x1="-19.5685" y1="-3.80181" x2="13.6467" y2="-13.2832" gradientUnits="userSpaceOnUse">
<stop stop-color="#161623"/>
<stop offset="0.421875" stop-color="#564D8F"/>
<stop offset="1" stop-color="#DD40CD"/>
</linearGradient>
<radialGradient id="paint4_radial_1_6" cx="0" cy="0" r="1" gradientUnits="userSpaceOnUse" gradientTransform="translate(26.9936 14.6647) rotate(124.179) scale(12.5399 9.52379)">
<stop stop-color="#8877F5"/>
<stop offset="1" stop-color="#7AECB5"/>
</radialGradient>
<linearGradient id="paint5_linear_1_6" x1="0.314781" y1="-7.78886" x2="25.4717" y2="-15.2497" gradientUnits="userSpaceOnUse">
<stop stop-color="#161623"/>
<stop offset="0.421875" stop-color="#564D8F"/>
<stop offset="1" stop-color="#DD40CD"/>
</linearGradient>
<radialGradient id="paint6_radial_1_6" cx="0" cy="0" r="1" gradientUnits="userSpaceOnUse" gradientTransform="translate(24.6627 15.5374) rotate(30.5288) scale(37.4847 379.706)">
<stop stop-color="#81F0BB"/>
<stop offset="0.421875" stop-color="#AAA0E8"/>
<stop offset="1" stop-color="#DD40CD"/>
</radialGradient>
<linearGradient id="paint7_linear_1_6" x1="-7.62571" y1="-3.50378" x2="44.583" y2="-16.2161" gradientUnits="userSpaceOnUse">
<stop stop-color="#161623"/>
<stop offset="0.421875" stop-color="#564D8F"/>
<stop offset="1" stop-color="#DD40CD"/>
</linearGradient>
<radialGradient id="paint8_radial_1_6" cx="0" cy="0" r="1" gradientUnits="userSpaceOnUse" gradientTransform="translate(41.0159 9.51203) rotate(44.9287) scale(23.9767 19.8367)">
<stop stop-color="#8877F5"/>
<stop offset="1" stop-color="#7AECB5"/>
</radialGradient>
<linearGradient id="paint9_linear_1_6" x1="12.1194" y1="-12.0123" x2="40.692" y2="-20.2958" gradientUnits="userSpaceOnUse">
<stop stop-color="#161623"/>
<stop offset="0.421875" stop-color="#564D8F"/>
<stop offset="1" stop-color="#DD40CD"/>
</linearGradient>
<radialGradient id="paint10_radial_1_6" cx="0" cy="0" r="1" gradientUnits="userSpaceOnUse" gradientTransform="translate(45.4269 7.64892) rotate(48.2362) scale(31.9291 233.487)">
<stop stop-color="#89EABB"/>
<stop offset="0.421875" stop-color="#9084D7"/>
<stop offset="1" stop-color="#E059D3"/>
</radialGradient>
<linearGradient id="paint11_linear_1_6" x1="24.1602" y1="-16.1669" x2="50.4039" y2="-23.8899" gradientUnits="userSpaceOnUse">
<stop stop-color="#161623"/>
<stop offset="0.421875" stop-color="#564D8F"/>
<stop offset="1" stop-color="#DD40CD"/>
</linearGradient>
<radialGradient id="paint12_radial_1_6" cx="0" cy="0" r="1" gradientUnits="userSpaceOnUse" gradientTransform="translate(14.0088 40.3304) rotate(47.2519) scale(60.8126 459.473)">
<stop stop-color="#81F0BB"/>
<stop offset="0.421875" stop-color="#AAA0E8"/>
<stop offset="1" stop-color="#DD40CD"/>
</radialGradient>
<linearGradient id="paint13_linear_1_6" x1="-27.2694" y1="-4.32707" x2="24.7856" y2="-19.5197" gradientUnits="userSpaceOnUse">
<stop stop-color="#161623"/>
<stop offset="0.421875" stop-color="#564D8F"/>
<stop offset="1" stop-color="#DD40CD"/>
</linearGradient>
<radialGradient id="paint14_radial_1_6" cx="0" cy="0" r="1" gradientUnits="userSpaceOnUse" gradientTransform="translate(35.4896 29.3961) rotate(58.4381) scale(18.8231 28.3822)">
<stop stop-color="#81F0BB"/>
<stop offset="0.421875" stop-color="#4EAE9D"/>
<stop offset="0.760417" stop-color="#9D8FEC"/>
<stop offset="1" stop-color="#F2A6EB"/>
</radialGradient>
<linearGradient id="paint15_linear_1_6" x1="-8.5384" y1="-6.14851" x2="43.2421" y2="-21.1121" gradientUnits="userSpaceOnUse">
<stop stop-color="#161623"/>
<stop offset="0.421875" stop-color="#564D8F"/>
<stop offset="1" stop-color="#DD40CD"/>
</linearGradient>
<radialGradient id="paint16_radial_1_6" cx="0" cy="0" r="1" gradientUnits="userSpaceOnUse" gradientTransform="translate(40.8588 30.5987) rotate(47.6469) scale(61.9661 462.215)">
<stop stop-color="#89EABB"/>
<stop offset="0.421875" stop-color="#9084D7"/>
<stop offset="1" stop-color="#E059D3"/>
</radialGradient>
<linearGradient id="paint17_linear_1_6" x1="-0.887694" y1="-15.1947" x2="51.3095" y2="-30.4798" gradientUnits="userSpaceOnUse">
<stop stop-color="#161623"/>
<stop offset="0.421875" stop-color="#564D8F"/>
<stop offset="1" stop-color="#DD40CD"/>
</linearGradient>
</defs>
</svg>
