<svg width="100" height="144" viewBox="0 0 100 144" fill="none" xmlns="http://www.w3.org/2000/svg">
<path d="M51.472 82.0474C74.461 82.0474 93.098 63.6805 93.098 41.0237C93.098 18.3669 74.461 0 51.472 0C28.4828 0 9.84619 18.3669 9.84619 41.0237C9.84619 63.6805 28.4828 82.0474 51.472 82.0474Z" fill="#550511"/>
<path d="M40.454 53.2173C37.879 53.2173 35.771 52.6286 34.129 51.4513C32.5045 50.2571 31.6922 48.5414 31.6922 46.3381C31.6922 45.8671 31.744 45.3121 31.8477 44.6393C32.1242 43.1255 32.5217 41.309 33.0402 39.1729C34.5092 33.3869 38.311 30.4939 44.429 30.4939C46.089 30.4939 47.592 30.763 48.906 31.3181C50.219 31.8395 51.256 32.6468 52.017 33.7233C52.777 34.7829 53.157 36.0444 53.157 37.5077C53.157 37.945 53.105 38.5001 53.002 39.1729C52.673 41.0399 52.293 42.8732 51.826 44.6393C51.066 47.5154 49.77 49.6852 47.903 51.1149C46.054 52.5277 43.565 53.2173 40.454 53.2173ZM40.921 48.676C42.131 48.676 43.151 48.3228 43.997 47.6332C44.862 46.9436 45.484 45.8839 45.847 44.4374C46.348 42.4527 46.728 40.7371 46.987 39.257C47.074 38.8197 47.126 38.3655 47.126 37.8946C47.126 35.9771 46.106 35.0184 44.049 35.0184C42.839 35.0184 41.803 35.3716 40.938 36.0612C40.092 36.7508 39.487 37.8105 39.124 39.257C38.726 40.6698 38.346 42.3854 37.948 44.4374C37.862 44.8579 37.81 45.2952 37.81 45.7662C37.793 47.7173 38.847 48.676 40.921 48.676Z" fill="white"/>
<path d="M54.661 52.9145C54.419 52.9145 54.246 52.8472 54.108 52.6958C54.004 52.5276 53.969 52.3426 54.004 52.124L58.48 31.6039C58.515 31.3684 58.636 31.1834 58.843 31.032C59.033 30.8807 59.24 30.8134 59.465 30.8134H68.089C70.491 30.8134 72.41 31.3012 73.862 32.2599C75.331 33.2354 76.074 34.6315 76.074 36.4648C76.074 36.9862 76.005 37.5413 75.884 38.1131C75.348 40.5352 74.259 42.3181 72.6 43.4786C70.975 44.6392 68.746 45.2111 65.912 45.2111H61.539L60.053 52.124C60.001 52.3594 59.897 52.5445 59.69 52.6958C59.5 52.8472 59.292 52.9145 59.068 52.9145H54.661ZM66.136 40.8548C67.052 40.8548 67.83 40.6193 68.504 40.1315C69.195 39.6437 69.645 38.9541 69.869 38.0459C69.938 37.6926 69.973 37.3731 69.973 37.104C69.973 36.4984 69.783 36.0275 69.42 35.7079C69.057 35.3715 68.418 35.2033 67.536 35.2033H63.648L62.42 40.8548H66.136Z" fill="white"/>
<path d="M90.544 39.9981C90.544 61.2219 72.854 78.4962 50.945 78.4962C29.0366 78.4962 11.3462 61.2219 11.3462 39.9981C11.3462 18.7743 29.0366 1.5 50.945 1.5C72.854 1.5 90.544 18.7743 90.544 39.9981Z" fill="url(#paint0_linear_0_1)" stroke="#550511" stroke-width="3"/>
<path d="M38.961 50.6216C36.511 50.6216 34.5058 50.0616 32.9441 48.9417C31.3988 47.8057 30.6261 46.1738 30.6261 44.0779C30.6261 43.6299 30.6754 43.102 30.7741 42.462C31.0371 41.0221 31.4152 39.2941 31.9084 37.2622C33.3058 31.7585 36.922 29.0066 42.742 29.0066C44.32 29.0066 45.751 29.2626 47 29.7906C48.249 30.2866 49.236 31.0545 49.959 32.0785C50.682 33.0864 51.044 34.2864 51.044 35.6783C51.044 36.0943 50.995 36.6223 50.896 37.2622C50.584 39.0382 50.222 40.7821 49.778 42.462C49.055 45.1979 47.822 47.2618 46.046 48.6217C44.287 49.9656 41.92 50.6216 38.961 50.6216ZM39.405 46.3018C40.556 46.3018 41.526 45.9658 42.331 45.3099C43.153 44.6539 43.745 43.6459 44.09 42.27C44.567 40.3821 44.929 38.7502 45.175 37.3422C45.257 36.9263 45.307 36.4943 45.307 36.0463C45.307 34.2224 44.337 33.3104 42.38 33.3104C41.23 33.3104 40.243 33.6464 39.421 34.3024C38.616 34.9584 38.04 35.9663 37.695 37.3422C37.317 38.6862 36.955 40.3181 36.577 42.27C36.495 42.67 36.446 43.086 36.446 43.5339C36.429 45.3899 37.432 46.3018 39.405 46.3018Z" fill="#FFF4F6"/>
<path d="M52.475 50.3335C52.245 50.3335 52.08 50.2695 51.949 50.1255C51.85 49.9655 51.817 49.7895 51.85 49.5816L56.108 30.0625C56.141 29.8385 56.256 29.6625 56.453 29.5185C56.634 29.3745 56.831 29.3105 57.045 29.3105H65.248C67.533 29.3105 69.358 29.7745 70.739 30.6865C72.136 31.6144 72.843 32.9423 72.843 34.6863C72.843 35.1822 72.778 35.7102 72.663 36.2542C72.153 38.5581 71.117 40.254 69.539 41.3579C67.994 42.4619 65.873 43.0059 63.177 43.0059H59.018L57.604 49.5816C57.555 49.8055 57.456 49.9815 57.259 50.1255C57.078 50.2695 56.881 50.3335 56.667 50.3335H52.475ZM63.391 38.8621C64.262 38.8621 65.002 38.6381 65.643 38.1741C66.3 37.7101 66.728 37.0541 66.942 36.1902C67.007 35.8542 67.04 35.5502 67.04 35.2942C67.04 34.7183 66.859 34.2703 66.514 33.9663C66.169 33.6463 65.561 33.4863 64.722 33.4863H61.023L59.856 38.8621H63.391Z" fill="#FFF4F6"/>
<path d="M22.4444 143.394H12.3912V120.062C12.3912 119.496 12.3912 118.708 12.3912 117.698C12.3912 116.648 12.4107 115.537 12.4496 114.365C12.4886 113.153 12.5276 112.102 12.5665 111.214C12.2548 111.618 11.8262 112.102 11.2807 112.668C10.7351 113.193 10.2286 113.658 9.761 114.062L4.9682 118.122L0 111.698L13.8524 100.123H22.4444V143.394Z" fill="#FF0420"/>
<path d="M62.489 121.759C62.489 125.274 62.217 128.405 61.671 131.152C61.164 133.859 60.327 136.182 59.158 138.121C57.989 140.02 56.469 141.475 54.599 142.485C52.728 143.495 50.429 144 47.702 144C44.273 144 41.467 143.111 39.285 141.333C37.103 139.556 35.486 137.01 34.4338 133.697C33.4206 130.384 32.9141 126.405 32.9141 121.759C32.9141 117.072 33.3817 113.072 34.3169 109.759C35.252 106.446 36.811 103.901 38.993 102.123C41.175 100.345 44.078 99.457 47.702 99.457C51.092 99.457 53.878 100.345 56.06 102.123C58.242 103.901 59.859 106.446 60.911 109.759C61.963 113.072 62.489 117.072 62.489 121.759ZM42.792 121.759C42.792 124.87 42.928 127.455 43.201 129.516C43.513 131.536 44.019 133.071 44.721 134.122C45.422 135.172 46.416 135.697 47.702 135.697C48.988 135.697 49.981 135.192 50.683 134.182C51.384 133.132 51.871 131.576 52.144 129.516C52.456 127.455 52.611 124.87 52.611 121.759C52.611 118.688 52.456 116.122 52.144 114.062C51.871 111.961 51.384 110.385 50.683 109.335C49.981 108.284 48.988 107.759 47.702 107.759C46.416 107.759 45.422 108.284 44.721 109.335C44.019 110.385 43.513 111.941 43.201 114.001C42.928 116.062 42.792 118.648 42.792 121.759Z" fill="#FF0420"/>
<path d="M100 121.759C100 125.274 99.727 128.405 99.182 131.152C98.675 133.859 97.837 136.182 96.668 138.121C95.499 140.02 93.98 141.475 92.109 142.485C90.239 143.495 87.94 144 85.212 144C81.783 144 78.978 143.111 76.796 141.333C74.614 139.556 72.997 137.01 71.944 133.697C70.931 130.384 70.425 126.405 70.425 121.759C70.425 117.072 70.892 113.072 71.828 109.759C72.763 106.446 74.321 103.901 76.504 102.123C78.686 100.345 81.589 99.457 85.212 99.457C88.602 99.457 91.389 100.345 93.571 102.123C95.753 103.901 97.37 106.446 98.422 109.759C99.474 113.072 100 117.072 100 121.759ZM80.303 121.759C80.303 124.87 80.439 127.455 80.712 129.516C81.024 131.536 81.53 133.071 82.232 134.122C82.933 135.172 83.927 135.697 85.212 135.697C86.498 135.697 87.492 135.192 88.193 134.182C88.895 133.132 89.382 131.576 89.655 129.516C89.966 127.455 90.122 124.87 90.122 121.759C90.122 118.688 89.966 116.122 89.655 114.062C89.382 111.961 88.895 110.385 88.193 109.335C87.492 108.284 86.498 107.759 85.212 107.759C83.927 107.759 82.933 108.284 82.232 109.335C81.53 110.385 81.024 111.941 80.712 114.001C80.439 116.062 80.303 118.648 80.303 121.759Z" fill="#FF0420"/>
<defs>
<linearGradient id="paint0_linear_0_1" x1="45.151" y1="8.2047" x2="50.641" y2="80.0195" gradientUnits="userSpaceOnUse">
<stop stop-color="#FF0420"/>
<stop offset="1" stop-color="#8A1421"/>
</linearGradient>
</defs>
</svg>
