<svg width="44" height="38" viewBox="0 0 44 38" fill="none" xmlns="http://www.w3.org/2000/svg">
<g clip-path="url(#clip0_12105_20957)">
<path d="M1 7.16667C1 3.76091 3.76091 1 7.16667 1H36.8333C40.2391 1 43 3.76091 43 7.16667V13.3329C40.2423 13.7951 38.1111 16.1354 38.1111 19C38.1111 21.8646 40.2423 24.2049 43 24.6671V30.8333C43 34.2391 40.2391 37 36.8333 37H7.16667C3.76091 37 1 34.2391 1 30.8333V24.6671C3.75767 24.2049 5.88889 21.8646 5.88889 19C5.88889 16.1354 3.75767 13.7951 1 13.3329V7.16667Z" fill="#303043" stroke="#4C4C5C" stroke-width="2"/>
<mask id="mask0_12105_20957" style="mask-type:alpha" maskUnits="userSpaceOnUse" x="0" y="0" width="44" height="38">
<path d="M1 7.16667C1 3.76091 3.76091 1 7.16667 1H36.8333C40.2391 1 43 3.76091 43 7.16667V13.3329C40.2423 13.7951 38.1111 16.1354 38.1111 19C38.1111 21.8646 40.2423 24.2049 43 24.6671V30.8333C43 34.2391 40.2391 37 36.8333 37H7.16667C3.76091 37 1 34.2391 1 30.8333V24.6671C3.75767 24.2049 5.88889 21.8646 5.88889 19C5.88889 16.1354 3.75767 13.7951 1 13.3329V7.16667Z" fill="#303043" stroke="#4C4C5C" stroke-width="2"/>
</mask>
<g mask="url(#mask0_12105_20957)">
<rect opacity="0.3" x="-16.0244" y="-26.1289" width="21.8687" height="80.0479" transform="rotate(30 -16.0244 -26.1289)" fill="white"/>
</g>
</g>
<defs>
<clipPath id="clip0_12105_20957">
<rect width="44" height="38" fill="white"/>
</clipPath>
</defs>
</svg>
