<?xml version="1.0" encoding="UTF-8"?>
<svg xmlns="http://www.w3.org/2000/svg" xmlns:xlink="http://www.w3.org/1999/xlink" viewBox="0 0 100 100">
  <g>
    <path class="cls-23"
      d="m1085.61,234.05h-4.46c-.06-.02-.12-.05-.18-.06-2.55-.1-5.08-.37-7.6-.8-3.47-.59-6.87-1.48-10.19-2.67-6.67-2.4-12.75-5.86-18.2-10.39-5.41-4.5-9.91-9.79-13.46-15.87-4.86-8.33-7.59-17.32-8.16-26.95-.02-.4-.07-.8-.11-1.21,0-1.53,0-3.05,0-4.58.02-.06.05-.12.05-.18.13-3.28.54-6.54,1.2-9.75,1.2-5.8,3.21-11.3,6.04-16.5,4.58-8.41,10.8-15.34,18.66-20.8,4.82-3.35,10.03-5.92,15.6-7.75,4.95-1.62,10.03-2.58,15.23-2.87.39-.02.78-.07,1.17-.11,1.51,0,3.01,0,4.52,0,.05.02.1.05.15.05,1.86.16,3.72.27,5.57.49,3.21.38,6.36,1.09,9.45,2.03,8.34,2.53,15.79,6.66,22.34,12.41,6,5.27,10.77,11.49,14.29,18.65,3.59,7.3,5.63,15.02,6.1,23.15.03.43.07.87.11,1.3v4.22c-.02.07-.05.15-.05.22-.06.96-.11,1.92-.18,2.88-.27,3.37-.84,6.68-1.7,9.95-2.54,9.7-7.19,18.27-13.97,25.66-5.32,5.81-11.56,10.39-18.69,13.74-7.02,3.31-14.42,5.19-22.17,5.64-.46.03-.93.07-1.39.11Zm-2.11-7.44c29.21-.07,52.79-23.55,52.8-52.8.01-29.22-23.54-52.81-52.8-52.81-29.22,0-52.79,23.54-52.8,52.78-.01,29.21,23.52,52.74,52.8,52.83Z" />
    <path class="cls-3"
      d="m1083.5,226.61c-29.27-.09-52.81-23.62-52.8-52.83.01-29.24,23.58-52.78,52.8-52.78,29.25,0,52.81,23.59,52.8,52.81-.01,29.25-23.59,52.73-52.8,52.8Zm13.77-61.8c.08,0,.17.01.25.02-.28.3-.21.55.04.85.23.26.4.58.57.88,1.86,3.27,2.63,6.8,2.43,10.55-.15,2.89-.96,5.58-2.45,8.06-.26.43-.55.84-.84,1.28,1.48,1.11,2.95,2.21,4.42,3.32.03-.02.06-.03.07-.04.08-.11.17-.23.25-.34,2.31-3.34,3.63-7.03,4.04-11.07.26-2.57.15-5.11-.41-7.63-.75-3.42-2.14-6.57-4.03-9.5-.06-.1-.12-.2-.19-.31.09-.09.16-.16.23-.23,1.33-1.27,2.64-2.56,4-3.79.52-.47.56-1.78.02-2.18-.25-.19-.46-.45-.69-.67-5.71-5.55-12.51-8.69-20.48-9.2-.23-.01-.28-.09-.28-.31,0-1.5,0-2.99,0-4.49,0-.34.03-.69-.28-.93-.04-.03-.07-.11-.07-.16,0-.39-.26-.43-.57-.46-.19-.02-.4-.08-.54-.19-.38-.29-.85-.25-1.14.13-.02.03-.05.05-.09.07-.39.25-.83.43-1.05.89-.03.06-.09.13-.15.14-.22.05-.21.22-.21.39,0,1.47,0,2.93,0,4.4,0,.59.11.47-.5.57-1.16.2-2.32.35-3.47.56-.53.1-1.05.28-1.59.44,0-.12,0-.23,0-.34,0-1.91,0-3.82,0-5.72,0-.54-.36-.9-.7-1.25-.04-.04-.13-.07-.19-.06-.27,0-.48-.08-.67-.27-.2-.19-.78-.15-.96.02-.19.19-.37.42-.61.52-.46.21-.59.57-.59,1.01,0,2.44,0,4.88,0,7.32,0,.22-.06.33-.27.43-5.88,2.85-10.52,7.05-13.86,12.66-2.32,3.9-3.64,8.12-4.07,12.63-.18,1.88-.21,3.77-.05,5.65.13,1.42.25,2.85.57,4.23,1.47,6.36,4.66,11.73,9.5,16.09,5.55,5.01,12.13,7.58,19.58,7.69,7.69.11,15.38.03,23.07.03.71,0,1.22-.49,1.22-1.2,0-3.75,0-7.49,0-11.24,0-.09-.02-.21-.08-.27-.26-.27-.51-.55-.8-.77-4.46-3.41-8.92-6.8-13.39-10.2-.69-.53-1.39-1.06-2.08-1.58,2.35-3.41,2.45-6.88.4-10.48.05-.04.12-.11.2-.17,1.35-1.22,2.7-2.43,4.05-3.65.8-.72,1.6-1.43,2.4-2.14Z" />
    <path class="cls-17"
      d="m1097.27,164.81c-.8.71-1.61,1.42-2.4,2.14-1.35,1.21-2.7,2.43-4.05,3.65-.07.07-.15.13-.2.17,2.04,3.59,1.95,7.07-.4,10.48.69.53,1.38,1.06,2.08,1.58,4.46,3.4,8.93,6.8,13.39,10.2.29.22.54.5.8.77.06.06.08.18.08.27,0,3.75,0,7.49,0,11.24,0,.71-.51,1.2-1.22,1.2-7.69,0-15.38.09-23.07-.03-7.45-.11-14.03-2.68-19.58-7.69-4.84-4.37-8.03-9.74-9.5-16.09-.32-1.38-.45-2.81-.57-4.23-.17-1.88-.13-3.77.05-5.65.42-4.51,1.74-8.73,4.07-12.63,3.35-5.62,7.99-9.82,13.86-12.66.2-.1.27-.21.27-.43,0-2.44,0-4.88,0-7.32,0-.45.13-.81.59-1.01.23-.11.42-.34.61-.52.18-.17.76-.22.96-.02.2.19.41.27.67.27.07,0,.15.02.19.06.35.35.7.71.7,1.25,0,1.91,0,3.82,0,5.72,0,.11,0,.22,0,.34.54-.15,1.06-.34,1.59-.44,1.15-.21,2.32-.36,3.47-.56.61-.1.5.02.5-.57,0-1.47,0-2.93,0-4.4,0-.17-.01-.34.21-.39.06-.01.12-.09.15-.14.21-.46.65-.64,1.05-.89.03-.02.06-.04.09-.07.29-.38.75-.42,1.14-.13.15.11.36.17.54.19.31.03.56.07.57.46,0,.06.03.13.07.16.32.25.28.59.28.93,0,1.5,0,2.99,0,4.49,0,.22.05.29.28.31,7.97.51,14.77,3.64,20.48,9.2.23.22.43.48.69.67.54.4.5,1.71-.02,2.18-1.37,1.23-2.67,2.52-4,3.79-.07.07-.14.14-.23.23.07.11.13.21.19.31,1.89,2.94,3.27,6.08,4.03,9.5.55,2.52.67,5.07.41,7.63-.41,4.03-1.73,7.73-4.04,11.07-.08.12-.16.23-.25.34-.01.01-.03.02-.07.04-1.47-1.1-2.94-2.21-4.42-3.32.29-.44.58-.85.84-1.28,1.5-2.48,2.3-5.17,2.45-8.06.2-3.75-.57-7.28-2.43-10.55-.17-.3-.35-.62-.57-.88-.25-.29-.32-.55-.04-.85.07-.11.14-.22.22-.33-.02-.02-.05-.04-.07-.06-.13.12-.26.25-.39.37Zm-26.42-11.08c-.09.05-.13.07-.17.1-3.19,1.99-5.92,4.47-8.07,7.57-2.54,3.67-4.06,7.72-4.46,12.18-.25,2.84,0,5.65.71,8.42,1.47,5.7,4.32,10.51,9.04,14.15,4.68,3.62,9.98,5.24,15.84,5.16,3.36-.05,6.72-.14,10.09-.21,2.2-.05,4.4-.09,6.59-.14.63-.01.92-.31.92-.93,0-1.09-.03-2.19.02-3.28.02-.54-.17-.9-.6-1.17,0,0-.02-.01-.02-.02-4.91-3.71-9.82-7.42-14.72-11.14-.2-.15-.37-.19-.62-.11-.91.29-1.85.56-2.81.38-.86-.16-1.71-.42-2.54-.71-3.08-1.06-5.95-4.53-5.85-8.52.06-2.24.96-4.1,2.28-5.76,1.03-1.29,2.37-2.23,4.07-2.58,1.15-.24,2.3-.54,3.48-.31.74.14,1.46.37,2.18.58.19.06.32.05.47-.1.31-.32.64-.61.96-.91,3.54-3.32,7.08-6.63,10.61-9.95.56-.52.53-.93-.08-1.37-4.06-2.98-8.58-4.73-13.64-5.01-3.3-.19-6.53.18-9.65,1.32-.26.09-.32.21-.32.47,0,3.58,0,7.17,0,10.75,0,.41-.16.67-.54.84-.21.09-.43.22-.58.4-.29.34-.77.41-1.12.13-.13-.1-.31-.19-.48-.2-.33-.03-.53-.2-.66-.48-.03-.07-.06-.16-.12-.21-.21-.18-.24-.42-.24-.68,0-2.22,0-4.44,0-6.66v-2Zm11.92,26.02c.88.04,1.78-.2,2.54-.93.52-.5.95-1.06,1.27-1.69.12-.24.2-.53.23-.8.11-1.32-.26-2.4-1.4-3.21-.81-.58-1.67-.99-2.63-.75-1.02.26-1.95.77-2.66,1.6-.05.05-.08.12-.12.17-.49.73-.62,1.56-.6,2.41,0,.13.03.28.1.4.33.57.69,1.12,1.02,1.7.47.83,1.2,1.13,2.25,1.1Z" />
    <path class="cls-5"
      d="m1097.27,164.81c.13-.12.26-.25.39-.37.02.02.05.04.07.06-.07.11-.14.22-.22.33-.08,0-.17-.01-.25-.02Z" />
    <path class="cls-3"
      d="m1070.85,153.73v2c0,2.22,0,4.44,0,6.66,0,.26.03.5.24.68.06.05.09.13.12.21.13.28.33.45.66.48.17.01.35.1.48.2.35.27.82.21,1.12-.13.15-.17.37-.3.58-.4.38-.17.54-.43.54-.84,0-3.58,0-7.17,0-10.75,0-.26.06-.38.32-.47,3.12-1.14,6.35-1.51,9.65-1.32,5.05.29,9.57,2.04,13.64,5.01.61.44.63.85.08,1.37-3.54,3.32-7.07,6.63-10.61,9.95-.32.3-.65.59-.96.91-.15.15-.28.16-.47.1-.72-.21-1.44-.43-2.18-.58-1.18-.23-2.33.07-3.48.31-1.69.35-3.04,1.28-4.07,2.58-1.33,1.66-2.23,3.52-2.28,5.76-.1,3.99,2.77,7.46,5.85,8.52.83.29,1.68.55,2.54.71.96.18,1.89-.09,2.81-.38.25-.08.42-.04.62.11,4.9,3.72,9.81,7.43,14.72,11.14,0,0,.02.01.02.02.43.27.62.62.6,1.17-.05,1.09-.01,2.19-.02,3.28,0,.62-.29.92-.92.93-2.2.05-4.4.09-6.59.14-3.36.07-6.72.17-10.09.21-5.86.08-11.16-1.54-15.84-5.16-4.72-3.65-7.57-8.45-9.04-14.15-.71-2.76-.97-5.57-.71-8.42.4-4.45,1.92-8.51,4.46-12.18,2.14-3.1,4.88-5.58,8.07-7.57.04-.03.08-.05.17-.1Z" />
    <path class="cls-5"
      d="m1082.77,179.75c-1.04.03-1.78-.27-2.25-1.1-.33-.57-.69-1.13-1.02-1.7-.07-.11-.09-.26-.1-.4-.02-.86.11-1.68.6-2.41.04-.06.07-.12.12-.17.71-.83,1.64-1.34,2.66-1.6.96-.24,1.82.17,2.63.75,1.14.81,1.51,1.89,1.4,3.21-.02.27-.1.56-.23.8-.32.64-.75,1.19-1.27,1.69-.76.72-1.66.96-2.54.93Z" />
  </g>

</svg>