<svg width="12" height="12" viewBox="0 0 12 12" fill="none" xmlns="http://www.w3.org/2000/svg">
<path d="M6 3.27273C6.30125 3.27273 6.54545 3.51694 6.54545 3.81818V6C6.54545 6.30125 6.30125 6.54545 6 6.54545C5.69875 6.54545 5.45455 6.30125 5.45455 6V3.81818C5.45455 3.51694 5.69875 3.27273 6 3.27273Z" fill="#B5B5C6"/>
<path d="M6 7.63636C5.69875 7.63636 5.45455 7.88057 5.45455 8.18182C5.45455 8.48306 5.69875 8.72727 6 8.72727H6.00546C6.3067 8.72727 6.55091 8.48306 6.55091 8.18182C6.55091 7.88057 6.3067 7.63636 6.00546 7.63636H6Z" fill="#B5B5C6"/>
<path fill-rule="evenodd" clip-rule="evenodd" d="M0 6C0 2.68629 2.68629 0 6 0C9.31371 0 12 2.68629 12 6C12 9.31371 9.31371 12 6 12C2.68629 12 0 9.31371 0 6ZM6 1.09091C3.28878 1.09091 1.09091 3.28878 1.09091 6C1.09091 8.71122 3.28878 10.9091 6 10.9091C8.71122 10.9091 10.9091 8.71122 10.9091 6C10.9091 3.28878 8.71122 1.09091 6 1.09091Z" fill="#B5B5C6"/>
</svg>
