<svg width="156" height="37" viewBox="0 0 156 37" fill="none" xmlns="http://www.w3.org/2000/svg">
<path d="M8.448 2.296C11.76 2.296 14.172 3.016 15.684 4.456C17.22 5.872 17.988 7.828 17.988 10.324C17.988 11.452 17.82 12.532 17.484 13.564C17.148 14.572 16.584 15.484 15.792 16.3C15.024 17.092 14.004 17.716 12.732 18.172C11.46 18.628 9.888 18.856 8.016 18.856H5.676V28H0.24V2.296H8.448ZM8.16 6.76H5.676V14.392H7.476C8.508 14.392 9.396 14.26 10.14 13.996C10.884 13.732 11.46 13.312 11.868 12.736C12.276 12.16 12.48 11.416 12.48 10.504C12.48 9.232 12.132 8.296 11.436 7.696C10.74 7.072 9.648 6.76 8.16 6.76ZM33.3935 7.984C33.6575 7.984 33.9695 7.996 34.3295 8.02C34.6895 8.044 34.9775 8.08 35.1935 8.128L34.7975 13.168C34.6295 13.12 34.3775 13.084 34.0415 13.06C33.7295 13.012 33.4535 12.988 33.2135 12.988C32.5175 12.988 31.8455 13.084 31.1975 13.276C30.5495 13.444 29.9615 13.72 29.4335 14.104C28.9295 14.488 28.5215 15.004 28.2095 15.652C27.9215 16.276 27.7775 17.056 27.7775 17.992V28H22.4135V8.344H26.4815L27.2735 11.656H27.5255C27.9095 10.984 28.3895 10.372 28.9655 9.82C29.5415 9.268 30.2015 8.824 30.9455 8.488C31.7135 8.152 32.5295 7.984 33.3935 7.984ZM44.1251 8.344V28H38.7611V8.344H44.1251ZM41.4611 0.639998C42.2531 0.639998 42.9371 0.831999 43.5131 1.216C44.0891 1.576 44.3771 2.26 44.3771 3.268C44.3771 4.252 44.0891 4.936 43.5131 5.32C42.9371 5.704 42.2531 5.896 41.4611 5.896C40.6451 5.896 39.9491 5.704 39.3731 5.32C38.8211 4.936 38.5451 4.252 38.5451 3.268C38.5451 2.26 38.8211 1.576 39.3731 1.216C39.9491 0.831999 40.6451 0.639998 41.4611 0.639998ZM63.4099 28H47.8939V24.832L57.0019 12.448H48.4339V8.344H63.0859V11.836L54.2299 23.896H63.4099V28ZM75.408 7.984C77.232 7.984 78.792 8.332 80.088 9.028C81.408 9.724 82.428 10.732 83.148 12.052C83.868 13.372 84.228 14.992 84.228 16.912V19.504H71.556C71.604 21.016 72.048 22.204 72.888 23.068C73.752 23.932 74.94 24.364 76.452 24.364C77.724 24.364 78.876 24.244 79.908 24.004C80.94 23.74 82.008 23.344 83.112 22.816V26.956C82.152 27.436 81.132 27.784 80.052 28C78.996 28.24 77.712 28.36 76.2 28.36C74.232 28.36 72.492 28 70.98 27.28C69.468 26.536 68.28 25.42 67.416 23.932C66.552 22.444 66.12 20.572 66.12 18.316C66.12 16.012 66.504 14.104 67.272 12.592C68.064 11.056 69.156 9.904 70.548 9.136C71.94 8.368 73.56 7.984 75.408 7.984ZM75.444 11.8C74.412 11.8 73.548 12.136 72.852 12.808C72.18 13.48 71.784 14.524 71.664 15.94H79.188C79.188 15.148 79.044 14.44 78.756 13.816C78.492 13.192 78.084 12.7 77.532 12.34C76.98 11.98 76.284 11.8 75.444 11.8ZM108.261 28H102.825V6.832H95.8411V2.296H115.245V6.832H108.261V28ZM123.958 7.948C126.598 7.948 128.614 8.524 130.006 9.676C131.422 10.804 132.13 12.544 132.13 14.896V28H128.386L127.342 25.336H127.198C126.646 26.032 126.07 26.608 125.47 27.064C124.894 27.52 124.222 27.844 123.454 28.036C122.71 28.252 121.786 28.36 120.682 28.36C119.53 28.36 118.486 28.144 117.55 27.712C116.638 27.256 115.918 26.572 115.39 25.66C114.862 24.724 114.598 23.548 114.598 22.132C114.598 20.044 115.33 18.508 116.794 17.524C118.258 16.516 120.454 15.964 123.382 15.868L126.802 15.76V14.896C126.802 13.864 126.526 13.108 125.974 12.628C125.446 12.148 124.702 11.908 123.742 11.908C122.782 11.908 121.846 12.052 120.934 12.34C120.022 12.604 119.11 12.94 118.198 13.348L116.434 9.712C117.49 9.16 118.654 8.728 119.926 8.416C121.222 8.104 122.566 7.948 123.958 7.948ZM124.714 18.964C122.986 19.012 121.786 19.324 121.114 19.9C120.442 20.476 120.106 21.232 120.106 22.168C120.106 22.984 120.346 23.572 120.826 23.932C121.306 24.268 121.93 24.436 122.698 24.436C123.85 24.436 124.822 24.1 125.614 23.428C126.406 22.732 126.802 21.76 126.802 20.512V18.892L124.714 18.964ZM148.565 7.984C150.773 7.984 152.561 8.848 153.929 10.576C155.297 12.28 155.98 14.8 155.98 18.136C155.98 20.368 155.657 22.252 155.009 23.788C154.361 25.3 153.473 26.44 152.345 27.208C151.217 27.976 149.909 28.36 148.421 28.36C147.485 28.36 146.669 28.24 145.973 28C145.301 27.76 144.725 27.448 144.245 27.064C143.765 26.68 143.345 26.272 142.985 25.84H142.697C142.793 26.296 142.865 26.776 142.913 27.28C142.961 27.76 142.985 28.24 142.985 28.72V36.64H137.621V8.344H141.977L142.733 10.9H142.985C143.345 10.372 143.777 9.892 144.281 9.46C144.785 9.004 145.385 8.644 146.081 8.38C146.801 8.116 147.629 7.984 148.565 7.984ZM146.837 12.268C145.901 12.268 145.157 12.46 144.605 12.844C144.053 13.228 143.645 13.816 143.381 14.608C143.141 15.376 143.009 16.348 142.985 17.524V18.1C142.985 19.372 143.105 20.452 143.345 21.34C143.585 22.204 143.993 22.864 144.569 23.32C145.145 23.776 145.925 24.004 146.909 24.004C147.725 24.004 148.397 23.776 148.925 23.32C149.453 22.864 149.849 22.192 150.113 21.304C150.377 20.416 150.509 19.336 150.509 18.064C150.509 16.144 150.209 14.704 149.609 13.744C149.033 12.76 148.109 12.268 146.837 12.268Z" fill="#21212C"/>
<path d="M15.684 4.456L14.3047 5.90427L14.3165 5.91548L14.3284 5.92649L15.684 4.456ZM17.484 13.564L19.3814 14.1965L19.3857 14.1832L17.484 13.564ZM15.792 16.3L14.3568 14.907L14.3562 14.9077L15.792 16.3ZM12.732 18.172L13.4069 20.0547L12.732 18.172ZM5.676 18.856V16.856H3.676V18.856H5.676ZM5.676 28V30H7.676V28H5.676ZM0.24 28H-1.76V30H0.24V28ZM0.24 2.296V0.295999H-1.76V2.296H0.24ZM5.676 6.76V4.76H3.676V6.76H5.676ZM5.676 14.392H3.676V16.392H5.676V14.392ZM10.14 13.996L9.47118 12.1111H9.47118L10.14 13.996ZM11.868 12.736L10.236 11.58L10.236 11.58L11.868 12.736ZM11.436 7.696L10.1009 9.18514L10.1154 9.19812L10.1301 9.21082L11.436 7.696ZM8.448 4.296C11.5351 4.296 13.3311 4.97707 14.3047 5.90427L17.0633 3.00772C15.0129 1.05492 11.9849 0.295999 8.448 0.295999V4.296ZM14.3284 5.92649C15.3742 6.89055 15.988 8.26849 15.988 10.324H19.988C19.988 7.38751 19.0658 4.85345 17.0396 2.98551L14.3284 5.92649ZM15.988 10.324C15.988 11.2501 15.8506 12.1206 15.5823 12.9448L19.3857 14.1832C19.7894 12.9434 19.988 11.6539 19.988 10.324H15.988ZM15.5866 12.9315C15.3522 13.6348 14.9546 14.2912 14.3568 14.907L17.2272 17.6929C18.2134 16.6768 18.9438 15.5092 19.3814 14.1965L15.5866 12.9315ZM14.3562 14.9077C13.8435 15.4364 13.1049 15.9137 12.0571 16.2893L13.4069 20.0547C14.9031 19.5183 16.2045 18.7476 17.2278 17.6923L14.3562 14.9077ZM12.0571 16.2893C11.0674 16.6441 9.74007 16.856 8.016 16.856V20.856C10.0359 20.856 11.8526 20.6119 13.4069 20.0547L12.0571 16.2893ZM8.016 16.856H5.676V20.856H8.016V16.856ZM3.676 18.856V28H7.676V18.856H3.676ZM5.676 26H0.24V30H5.676V26ZM2.24 28V2.296H-1.76V28H2.24ZM0.24 4.296H8.448V0.295999H0.24V4.296ZM8.16 4.76H5.676V8.76H8.16V4.76ZM3.676 6.76V14.392H7.676V6.76H3.676ZM5.676 16.392H7.476V12.392H5.676V16.392ZM7.476 16.392C8.66973 16.392 9.79551 16.2404 10.8088 15.8809L9.47118 12.1111C8.99649 12.2796 8.34628 12.392 7.476 12.392V16.392ZM10.8088 15.8809C11.8934 15.496 12.8259 14.8437 13.5 13.892L10.236 11.58C10.0941 11.7803 9.87464 11.968 9.47118 12.1111L10.8088 15.8809ZM13.5 13.892C14.2088 12.8914 14.48 11.7095 14.48 10.504H10.48C10.48 11.1225 10.3432 11.4286 10.236 11.58L13.5 13.892ZM14.48 10.504C14.48 8.88353 14.029 7.2908 12.7419 6.18118L10.1301 9.21082C10.235 9.3012 10.48 9.58047 10.48 10.504H14.48ZM12.7711 6.20686C11.5442 5.10692 9.86392 4.76 8.16 4.76V8.76C9.43208 8.76 9.93577 9.03708 10.1009 9.18514L12.7711 6.20686ZM34.3295 8.02L34.1964 10.0156H34.1964L34.3295 8.02ZM35.1935 8.128L37.1873 8.28466L37.3234 6.55253L35.6273 6.17562L35.1935 8.128ZM34.7975 13.168L34.248 15.091L36.5997 15.763L36.7913 13.3247L34.7975 13.168ZM34.0415 13.06L33.7374 15.0367L33.8178 15.0491L33.899 15.0549L34.0415 13.06ZM31.1975 13.276L31.6994 15.212L31.7327 15.2034L31.7656 15.1936L31.1975 13.276ZM29.4335 14.104L28.2571 12.4865L28.2391 12.4996L28.2214 12.5131L29.4335 14.104ZM28.2095 15.652L26.4075 14.7844L26.4004 14.7991L26.3935 14.8139L28.2095 15.652ZM27.7775 28V30H29.7775V28H27.7775ZM22.4135 28H20.4135V30H22.4135V28ZM22.4135 8.344V6.344H20.4135V8.344H22.4135ZM26.4815 8.344L28.4266 7.87885L28.0596 6.344H26.4815V8.344ZM27.2735 11.656L25.3283 12.1211L25.6953 13.656H27.2735V11.656ZM27.5255 11.656V13.656H28.6861L29.262 12.6483L27.5255 11.656ZM28.9655 9.82L30.3493 11.264H30.3493L28.9655 9.82ZM30.9455 8.488L30.1438 6.65568L30.133 6.66041L30.1223 6.66526L30.9455 8.488ZM33.3935 9.984C33.6004 9.984 33.8659 9.99353 34.1964 10.0156L34.4625 6.02443C34.073 5.99846 33.7146 5.984 33.3935 5.984V9.984ZM34.1964 10.0156C34.5098 10.0365 34.6846 10.0637 34.7596 10.0804L35.6273 6.17562C35.2703 6.09629 34.8692 6.05154 34.4625 6.02443L34.1964 10.0156ZM33.1996 7.97134L32.8036 13.0113L36.7913 13.3247L37.1873 8.28466L33.1996 7.97134ZM35.3469 11.245C34.9747 11.1386 34.5558 11.0916 34.184 11.0651L33.899 15.0549C34.034 15.0646 34.1323 15.0753 34.1996 15.0849C34.2723 15.0953 34.2811 15.1005 34.248 15.091L35.3469 11.245ZM34.3456 11.0833C33.9624 11.0243 33.5812 10.988 33.2135 10.988V14.988C33.3257 14.988 33.4966 14.9997 33.7374 15.0367L34.3456 11.0833ZM33.2135 10.988C32.3309 10.988 31.4672 11.1101 30.6293 11.3584L31.7656 15.1936C32.2237 15.0579 32.7041 14.988 33.2135 14.988V10.988ZM30.6955 11.34C29.811 11.5693 28.9932 11.9512 28.2571 12.4865L30.6098 15.7215C30.9298 15.4888 31.2879 15.3187 31.6994 15.212L30.6955 11.34ZM28.2214 12.5131C27.4344 13.1127 26.8377 13.8908 26.4075 14.7844L30.0115 16.5196C30.2052 16.1172 30.4245 15.8633 30.6456 15.6949L28.2214 12.5131ZM26.3935 14.8139C25.9487 15.7776 25.7775 16.8655 25.7775 17.992H29.7775C29.7775 17.2465 29.8942 16.7744 30.0254 16.4901L26.3935 14.8139ZM25.7775 17.992V28H29.7775V17.992H25.7775ZM27.7775 26H22.4135V30H27.7775V26ZM24.4135 28V8.344H20.4135V28H24.4135ZM22.4135 10.344H26.4815V6.344H22.4135V10.344ZM24.5363 8.80915L25.3283 12.1211L29.2186 11.1909L28.4266 7.87885L24.5363 8.80915ZM27.2735 13.656H27.5255V9.656H27.2735V13.656ZM29.262 12.6483C29.5478 12.1481 29.9076 11.6872 30.3493 11.264L27.5817 8.37602C26.8713 9.05676 26.2712 9.81991 25.789 10.6637L29.262 12.6483ZM30.3493 11.264C30.7574 10.8728 31.2268 10.5555 31.7686 10.3107L30.1223 6.66526C29.1762 7.09255 28.3255 7.66317 27.5817 8.37602L30.3493 11.264ZM31.7471 10.3203C32.2545 10.0983 32.7967 9.984 33.3935 9.984V5.984C32.2622 5.984 31.1724 6.20567 30.1438 6.65568L31.7471 10.3203ZM44.1251 8.344H46.1251V6.344H44.1251V8.344ZM44.1251 28V30H46.1251V28H44.1251ZM38.7611 28H36.7611V30H38.7611V28ZM38.7611 8.344V6.344H36.7611V8.344H38.7611ZM43.5131 1.216L42.4037 2.8801L42.4282 2.89641L42.4531 2.912L43.5131 1.216ZM43.5131 5.32L42.4037 3.6559V3.6559L43.5131 5.32ZM39.3731 5.32L38.231 6.96181L38.2472 6.97312L38.2637 6.9841L39.3731 5.32ZM39.3731 1.216L40.4657 2.89122L40.4741 2.8857L40.4825 2.8801L39.3731 1.216ZM42.1251 8.344V28H46.1251V8.344H42.1251ZM44.1251 26H38.7611V30H44.1251V26ZM40.7611 28V8.344H36.7611V28H40.7611ZM38.7611 10.344H44.1251V6.344H38.7611V10.344ZM41.4611 2.64C41.9169 2.64 42.2018 2.7455 42.4037 2.8801L44.6225 -0.4481C43.6724 -1.08151 42.5894 -1.36 41.4611 -1.36V2.64ZM42.4531 2.912C42.4158 2.88867 42.3794 2.85695 42.3503 2.82189C42.3224 2.78811 42.3146 2.7673 42.3179 2.77511C42.3285 2.8004 42.3771 2.94082 42.3771 3.268H46.3771C46.3771 1.92957 45.9845 0.402122 44.5731 -0.479998L42.4531 2.912ZM42.3771 3.268C42.3771 3.57576 42.3306 3.7125 42.3179 3.74288C42.313 3.75441 42.3168 3.74185 42.3362 3.71785C42.3564 3.69297 42.3809 3.67111 42.4037 3.6559L44.6225 6.9841C45.968 6.08709 46.3771 4.61585 46.3771 3.268H42.3771ZM42.4037 3.6559C42.2018 3.79049 41.9169 3.896 41.4611 3.896V7.896C42.5894 7.896 43.6724 7.6175 44.6225 6.9841L42.4037 3.6559ZM41.4611 3.896C40.968 3.896 40.6748 3.78407 40.4825 3.6559L38.2637 6.9841C39.2235 7.62393 40.3223 7.896 41.4611 7.896V3.896ZM40.5153 3.67819C40.5445 3.69853 40.5714 3.7244 40.5915 3.75033C40.6107 3.77511 40.6131 3.78625 40.6068 3.77061C40.591 3.73142 40.5451 3.58439 40.5451 3.268H36.5451C36.5451 4.58479 36.9226 6.05164 38.231 6.96181L40.5153 3.67819ZM40.5451 3.268C40.5451 2.93248 40.593 2.78168 40.6068 2.74739C40.6117 2.73531 40.6054 2.75477 40.5779 2.78954C40.549 2.82591 40.5101 2.86226 40.4657 2.89122L38.2806 -0.459223C36.9061 0.437182 36.5451 1.96152 36.5451 3.268H40.5451ZM40.4825 2.8801C40.6748 2.75193 40.968 2.64 41.4611 2.64V-1.36C40.3223 -1.36 39.2235 -1.08793 38.2637 -0.4481L40.4825 2.8801ZM63.4099 28V30H65.4099V28H63.4099ZM47.8939 28H45.8939V30H47.8939V28ZM47.8939 24.832L46.2827 23.647L45.8939 24.1757V24.832H47.8939ZM57.0019 12.448L58.613 13.633L60.9555 10.448H57.0019V12.448ZM48.4339 12.448H46.4339V14.448H48.4339V12.448ZM48.4339 8.344V6.344H46.4339V8.344H48.4339ZM63.0859 8.344H65.0859V6.344H63.0859V8.344ZM63.0859 11.836L64.6979 13.0198L65.0859 12.4915V11.836H63.0859ZM54.2299 23.896L52.6178 22.7122L50.2799 25.896H54.2299V23.896ZM63.4099 23.896H65.4099V21.896H63.4099V23.896ZM63.4099 26H47.8939V30H63.4099V26ZM49.8939 28V24.832H45.8939V28H49.8939ZM49.505 26.017L58.613 13.633L55.3907 11.263L46.2827 23.647L49.505 26.017ZM57.0019 10.448H48.4339V14.448H57.0019V10.448ZM50.4339 12.448V8.344H46.4339V12.448H50.4339ZM48.4339 10.344H63.0859V6.344H48.4339V10.344ZM61.0859 8.344V11.836H65.0859V8.344H61.0859ZM61.4738 10.6522L52.6178 22.7122L55.8419 25.0798L64.6979 13.0198L61.4738 10.6522ZM54.2299 25.896H63.4099V21.896H54.2299V25.896ZM61.4099 23.896V28H65.4099V23.896H61.4099ZM80.088 9.028L79.1417 10.79L79.1485 10.7936L79.1552 10.7971L80.088 9.028ZM83.148 12.052L81.3922 13.0097V13.0097L83.148 12.052ZM84.228 19.504V21.504H86.228V19.504H84.228ZM71.556 19.504V17.504H69.4915L69.557 19.5675L71.556 19.504ZM72.888 23.068L71.454 24.4622L71.4638 24.4723L71.4738 24.4822L72.888 23.068ZM79.908 24.004L80.361 25.952L80.3824 25.947L80.4037 25.9416L79.908 24.004ZM83.112 22.816H85.112V19.6425L82.2491 21.0117L83.112 22.816ZM83.112 26.956L84.0064 28.7449L85.112 28.1921V26.956H83.112ZM80.052 28L79.6598 26.0388L79.6342 26.044L79.6088 26.0497L80.052 28ZM70.98 27.28L70.097 29.0745L70.1085 29.0802L70.1201 29.0857L70.98 27.28ZM67.416 23.932L65.6864 24.9363L67.416 23.932ZM67.272 12.592L65.4944 11.6754L65.4888 11.6863L67.272 12.592ZM70.548 9.136L69.5818 7.38484L70.548 9.136ZM72.852 12.808L71.4628 11.3692L71.4502 11.3814L71.4378 11.3938L72.852 12.808ZM71.664 15.94L69.6711 15.7711L69.4873 17.94H71.664V15.94ZM79.188 15.94V17.94H81.188V15.94H79.188ZM78.756 13.816L76.9141 14.5953L76.9266 14.6249L76.9401 14.6541L78.756 13.816ZM77.532 12.34L78.6245 10.6648L77.532 12.34ZM75.408 9.984C76.9798 9.984 78.1984 10.2834 79.1417 10.79L81.0343 7.26601C79.3856 6.38061 77.4842 5.984 75.408 5.984V9.984ZM79.1552 10.7971C80.1242 11.3081 80.8592 12.0325 81.3922 13.0097L84.9038 11.0943C83.9968 9.43152 82.6918 8.13994 81.0208 7.25886L79.1552 10.7971ZM81.3922 13.0097C81.9136 13.9656 82.228 15.2361 82.228 16.912H86.228C86.228 14.7479 85.8224 12.7784 84.9038 11.0943L81.3922 13.0097ZM82.228 16.912V19.504H86.228V16.912H82.228ZM84.228 17.504H71.556V21.504H84.228V17.504ZM69.557 19.5675C69.6166 21.4455 70.1839 23.1557 71.454 24.4622L74.322 21.6738C73.9121 21.2523 73.5914 20.5865 73.555 19.4405L69.557 19.5675ZM71.4738 24.4822C72.7977 25.8062 74.543 26.364 76.452 26.364V22.364C75.337 22.364 74.7063 22.0578 74.3022 21.6538L71.4738 24.4822ZM76.452 26.364C77.8472 26.364 79.1544 26.2326 80.361 25.952L79.455 22.056C78.5976 22.2554 77.6008 22.364 76.452 22.364V26.364ZM80.4037 25.9416C81.5792 25.6409 82.7701 25.1965 83.9749 24.6203L82.2491 21.0117C81.2459 21.4915 80.3008 21.8391 79.4123 22.0664L80.4037 25.9416ZM81.112 22.816V26.956H85.112V22.816H81.112ZM82.2176 25.1671C81.4207 25.5656 80.57 25.8568 79.6598 26.0388L80.4442 29.9612C81.694 29.7112 82.8833 29.3064 84.0064 28.7449L82.2176 25.1671ZM79.6088 26.0497C78.7427 26.2466 77.6168 26.36 76.2 26.36V30.36C77.8073 30.36 79.2493 30.2334 80.4952 29.9503L79.6088 26.0497ZM76.2 26.36C74.4778 26.36 73.0402 26.0459 71.8399 25.4743L70.1201 29.0857C71.9438 29.9541 73.9862 30.36 76.2 30.36V26.36ZM71.863 25.4855C70.7128 24.9195 69.8159 24.0822 69.1456 22.9277L65.6864 24.9363C66.7441 26.7578 68.2232 28.1525 70.097 29.0745L71.863 25.4855ZM69.1456 22.9277C68.5056 21.8255 68.12 20.326 68.12 18.316H64.12C64.12 20.818 64.5984 23.0625 65.6864 24.9363L69.1456 22.9277ZM68.12 18.316C68.12 16.2194 68.4714 14.6469 69.0552 13.4977L65.4888 11.6863C64.5366 13.5611 64.12 15.8046 64.12 18.316H68.12ZM69.0496 13.5086C69.6764 12.293 70.4997 11.4468 71.5142 10.8872L69.5818 7.38484C67.8123 8.36115 66.4516 9.819 65.4944 11.6754L69.0496 13.5086ZM71.5142 10.8872C72.5654 10.3071 73.8426 9.984 75.408 9.984V5.984C73.2774 5.984 71.3146 6.42885 69.5818 7.38484L71.5142 10.8872ZM75.444 9.8C73.9318 9.8 72.5582 10.3116 71.4628 11.3692L74.2412 14.2468C74.5378 13.9604 74.8922 13.8 75.444 13.8V9.8ZM71.4378 11.3938C70.3011 12.5305 69.8119 14.1097 69.6711 15.7711L73.6569 16.1089C73.7561 14.9383 74.0589 14.4295 74.2662 14.2222L71.4378 11.3938ZM71.664 17.94H79.188V13.94H71.664V17.94ZM81.188 15.94C81.188 14.9026 80.9984 13.9018 80.5719 12.9779L76.9401 14.6541C77.0896 14.9782 77.188 15.3934 77.188 15.94H81.188ZM80.5979 13.0367C80.1835 12.0571 79.5197 11.2486 78.6245 10.6648L76.4395 14.0152C76.6483 14.1514 76.8005 14.3269 76.9141 14.5953L80.5979 13.0367ZM78.6245 10.6648C77.669 10.0416 76.5662 9.8 75.444 9.8V13.8C76.0018 13.8 76.291 13.9184 76.4395 14.0152L78.6245 10.6648ZM108.261 28V30H110.261V28H108.261ZM102.825 28H100.825V30H102.825V28ZM102.825 6.832H104.825V4.832H102.825V6.832ZM95.8411 6.832H93.8411V8.832H95.8411V6.832ZM95.8411 2.296V0.295999H93.8411V2.296H95.8411ZM115.245 2.296H117.245V0.295999H115.245V2.296ZM115.245 6.832V8.832H117.245V6.832H115.245ZM108.261 6.832V4.832H106.261V6.832H108.261ZM108.261 26H102.825V30H108.261V26ZM104.825 28V6.832H100.825V28H104.825ZM102.825 4.832H95.8411V8.832H102.825V4.832ZM97.8411 6.832V2.296H93.8411V6.832H97.8411ZM95.8411 4.296H115.245V0.295999H95.8411V4.296ZM113.245 2.296V6.832H117.245V2.296H113.245ZM115.245 4.832H108.261V8.832H115.245V4.832ZM106.261 6.832V28H110.261V6.832H106.261ZM130.006 9.676L128.731 11.2168L128.745 11.2287L128.76 11.2403L130.006 9.676ZM132.13 28V30H134.13V28H132.13ZM128.386 28L126.524 28.7297L127.022 30H128.386V28ZM127.342 25.336L129.204 24.6063L128.706 23.336H127.342V25.336ZM127.198 25.336V23.336H126.231L125.631 24.0932L127.198 25.336ZM125.47 27.064L124.26 25.4717L124.244 25.4836L124.229 25.4959L125.47 27.064ZM123.454 28.036L122.969 26.0957L122.932 26.1048L122.896 26.1153L123.454 28.036ZM117.55 27.712L116.656 29.5009L116.683 29.5148L116.712 29.5279L117.55 27.712ZM115.39 25.66L113.648 26.6426L113.653 26.6524L113.659 26.6621L115.39 25.66ZM116.794 17.524L117.91 19.1839L117.919 19.1777L117.928 19.1713L116.794 17.524ZM123.382 15.868L123.319 13.869L123.316 13.8691L123.382 15.868ZM126.802 15.76L126.865 17.759L128.802 17.6978V15.76H126.802ZM125.974 12.628L124.629 14.1079L124.645 14.1227L124.662 14.1372L125.974 12.628ZM120.934 12.34L121.49 14.2611L121.513 14.2544L121.536 14.2472L120.934 12.34ZM118.198 13.348L116.399 14.221L117.245 15.9654L119.015 15.1736L118.198 13.348ZM116.434 9.712L115.507 7.93955L113.787 8.8387L114.635 10.585L116.434 9.712ZM119.926 8.416L119.458 6.47153L119.449 6.47358L119.926 8.416ZM124.714 18.964L124.769 20.9633L124.783 20.9628L124.714 18.964ZM121.114 19.9L119.812 18.3815L121.114 19.9ZM120.826 23.932L119.626 25.532L119.652 25.5517L119.679 25.5705L120.826 23.932ZM125.614 23.428L126.908 24.953L126.921 24.9418L126.934 24.9303L125.614 23.428ZM126.802 18.892H128.802V16.8218L126.733 16.8932L126.802 18.892ZM123.958 9.948C126.341 9.948 127.831 10.4719 128.731 11.2168L131.281 8.13521C129.397 6.57613 126.855 5.948 123.958 5.948V9.948ZM128.76 11.2403C129.564 11.8809 130.13 12.9557 130.13 14.896H134.13C134.13 12.1323 133.28 9.72707 131.252 8.11168L128.76 11.2403ZM130.13 14.896V28H134.13V14.896H130.13ZM132.13 26H128.386V30H132.13V26ZM130.248 27.2703L129.204 24.6063L125.48 26.0657L126.524 28.7297L130.248 27.2703ZM127.342 23.336H127.198V27.336H127.342V23.336ZM125.631 24.0932C125.165 24.6809 124.705 25.1329 124.26 25.4717L126.68 28.6563C127.434 28.0831 128.127 27.3831 128.765 26.5788L125.631 24.0932ZM124.229 25.4959C123.892 25.7621 123.483 25.9672 122.969 26.0957L123.939 29.9763C124.961 29.7208 125.896 29.2779 126.711 28.6321L124.229 25.4959ZM122.896 26.1153C122.392 26.2616 121.67 26.36 120.682 26.36V30.36C121.902 30.36 123.028 30.2424 124.012 29.9567L122.896 26.1153ZM120.682 26.36C119.785 26.36 119.032 26.1933 118.388 25.8961L116.712 29.5279C117.94 30.0947 119.275 30.36 120.682 30.36V26.36ZM118.444 25.9231C117.894 25.6481 117.46 25.2435 117.121 24.6579L113.659 26.6621C114.376 27.9005 115.382 28.8639 116.656 29.5009L118.444 25.9231ZM117.132 24.6774C116.818 24.1217 116.598 23.3097 116.598 22.132H112.598C112.598 23.7863 112.905 25.3263 113.648 26.6426L117.132 24.6774ZM116.598 22.132C116.598 20.5691 117.106 19.7241 117.91 19.1839L115.678 15.8641C113.554 17.2919 112.598 19.5189 112.598 22.132H116.598ZM117.928 19.1713C118.933 18.4793 120.679 17.9577 123.447 17.8669L123.316 13.8691C120.229 13.9703 117.583 14.5527 115.66 15.8767L117.928 19.1713ZM123.445 17.867L126.865 17.759L126.739 13.761L123.319 13.869L123.445 17.867ZM128.802 15.76V14.896H124.802V15.76H128.802ZM128.802 14.896C128.802 13.5312 128.432 12.1148 127.286 11.1188L124.662 14.1372C124.664 14.1392 124.668 14.1428 124.675 14.1529C124.682 14.1638 124.698 14.1903 124.716 14.2409C124.755 14.3469 124.802 14.5511 124.802 14.896H128.802ZM127.319 11.1481C126.312 10.2322 125.025 9.908 123.742 9.908V13.908C124.379 13.908 124.58 14.0638 124.629 14.1079L127.319 11.1481ZM123.742 9.908C122.578 9.908 121.439 10.0831 120.332 10.4328L121.536 14.2472C122.253 14.0209 122.985 13.908 123.742 13.908V9.908ZM120.378 10.4189C119.372 10.7099 118.373 11.0785 117.381 11.5224L119.015 15.1736C119.846 14.8015 120.672 14.4981 121.49 14.2611L120.378 10.4189ZM119.997 12.475L118.233 8.83902L114.635 10.585L116.399 14.221L119.997 12.475ZM117.36 11.4844C118.261 11.014 119.271 10.6358 120.402 10.3584L119.449 6.47358C118.036 6.82017 116.719 7.30604 115.507 7.93955L117.36 11.4844ZM120.394 10.3604C121.53 10.0869 122.717 9.948 123.958 9.948V5.948C122.415 5.948 120.914 6.12105 119.458 6.47155L120.394 10.3604ZM124.658 16.9648C122.845 17.0151 121.037 17.3317 119.812 18.3815L122.416 21.4185C122.535 21.3163 123.127 21.0089 124.769 20.9632L124.658 16.9648ZM119.812 18.3815C118.669 19.3617 118.106 20.6864 118.106 22.168H122.106C122.106 21.7776 122.215 21.5903 122.416 21.4185L119.812 18.3815ZM118.106 22.168C118.106 23.3695 118.475 24.6686 119.626 25.532L122.026 22.332C122.053 22.3524 122.081 22.3792 122.104 22.4096C122.126 22.4394 122.136 22.4611 122.138 22.4652C122.139 22.4688 122.106 22.3874 122.106 22.168H118.106ZM119.679 25.5705C120.586 26.2051 121.646 26.436 122.698 26.436V22.436C122.214 22.436 122.026 22.3309 121.973 22.2935L119.679 25.5705ZM122.698 26.436C124.269 26.436 125.714 25.9657 126.908 24.953L124.32 21.903C123.929 22.2343 123.431 22.436 122.698 22.436V26.436ZM126.934 24.9303C128.238 23.7842 128.802 22.2192 128.802 20.512H124.802C124.802 21.3008 124.574 21.6798 124.294 21.9257L126.934 24.9303ZM128.802 20.512V18.892H124.802V20.512H128.802ZM126.733 16.8932L124.645 16.9652L124.783 20.9628L126.871 20.8908L126.733 16.8932ZM153.928 10.576L152.36 11.8174L152.369 11.8281L153.928 10.576ZM155.008 23.788L156.847 24.5759L156.851 24.5654L155.008 23.788ZM152.344 27.208L151.219 25.5548L152.344 27.208ZM145.973 28L145.3 29.8835L145.31 29.8872L145.321 29.8907L145.973 28ZM144.245 27.064L145.494 25.5023L144.245 27.064ZM142.984 25.84L144.521 24.5596L143.921 23.84H142.984V25.84ZM142.697 25.84V23.84H140.232L140.739 26.252L142.697 25.84ZM142.913 27.28L140.921 27.4696L140.922 27.479L142.913 27.28ZM142.984 36.64V38.64H144.984V36.64H142.984ZM137.62 36.64H135.62V38.64H137.62V36.64ZM137.62 8.344V6.344H135.62V8.344H137.62ZM141.977 8.344L143.894 7.77674L143.471 6.344H141.977V8.344ZM142.732 10.9L140.815 11.4673L141.238 12.9H142.732V10.9ZM142.984 10.9V12.9H144.042L144.637 12.0267L142.984 10.9ZM144.281 9.46L145.582 10.9785L145.602 10.9611L145.622 10.9431L144.281 9.46ZM146.081 8.38L145.392 6.50225L145.382 6.50607L145.371 6.51L146.081 8.38ZM144.605 12.844L143.462 11.2022V11.2022L144.605 12.844ZM143.38 14.608L141.483 13.9755L141.477 13.9934L141.472 14.0114L143.38 14.608ZM142.984 17.524L140.985 17.4832L140.984 17.5036V17.524H142.984ZM143.344 21.34L141.414 21.8618L141.417 21.8753L143.344 21.34ZM144.568 23.32L145.81 21.7519L144.568 23.32ZM148.924 23.32L147.617 21.8064L148.924 23.32ZM150.113 21.304L148.195 20.7341V20.7341L150.113 21.304ZM149.609 13.744L147.882 14.7544L147.897 14.7794L147.913 14.804L149.609 13.744ZM148.564 9.984C150.163 9.984 151.373 10.5696 152.36 11.8174L155.497 9.33459C153.748 7.1264 151.382 5.984 148.564 5.984V9.984ZM152.369 11.8281C153.336 13.0326 153.98 15.0271 153.98 18.136H157.98C157.98 14.5729 157.257 11.5274 155.488 9.32393L152.369 11.8281ZM153.98 18.136C153.98 20.1864 153.681 21.7888 153.166 23.0106L156.851 24.5654C157.632 22.7152 157.98 20.5496 157.98 18.136H153.98ZM153.17 23.0002C152.641 24.2343 151.972 25.0419 151.219 25.5548L153.47 28.8612C154.973 27.8381 156.08 26.3657 156.847 24.5758L153.17 23.0002ZM151.219 25.5548C150.453 26.0764 149.545 26.36 148.421 26.36V30.36C150.272 30.36 151.98 29.8756 153.47 28.8612L151.219 25.5548ZM148.421 26.36C147.649 26.36 147.063 26.2603 146.624 26.1093L145.321 29.8907C146.274 30.2197 147.32 30.36 148.421 30.36V26.36ZM146.645 26.1165C146.149 25.9393 145.775 25.7275 145.494 25.5023L142.995 28.6257C143.674 29.1685 144.452 29.5807 145.3 29.8835L146.645 26.1165ZM145.494 25.5023C145.109 25.1945 144.787 24.8794 144.521 24.5596L141.448 27.1204C141.902 27.6646 142.42 28.1655 142.995 28.6257L145.494 25.5023ZM142.984 23.84H142.697V27.84H142.984V23.84ZM140.739 26.252C140.819 26.6286 140.88 27.034 140.922 27.4696L144.903 27.0904C144.849 26.518 144.766 25.9634 144.654 25.428L140.739 26.252ZM140.922 27.479C140.964 27.8932 140.984 28.3068 140.984 28.72H144.984C144.984 28.1732 144.957 27.6268 144.903 27.081L140.922 27.479ZM140.984 28.72V36.64H144.984V28.72H140.984ZM142.984 34.64H137.62V38.64H142.984V34.64ZM139.62 36.64V8.344H135.62V36.64H139.62ZM137.62 10.344H141.977V6.344H137.62V10.344ZM140.059 8.91126L140.815 11.4673L144.65 10.3327L143.894 7.77674L140.059 8.91126ZM142.732 12.9H142.984V8.9H142.732V12.9ZM144.637 12.0267C144.894 11.6497 145.207 11.3004 145.582 10.9785L142.979 7.94149C142.346 8.48363 141.795 9.09429 141.332 9.77332L144.637 12.0267ZM145.622 10.9431C145.925 10.6696 146.305 10.434 146.79 10.25L145.371 6.51C144.464 6.85399 143.644 7.3384 142.939 7.97693L145.622 10.9431ZM146.769 10.2578C147.226 10.0902 147.813 9.984 148.564 9.984V5.984C147.444 5.984 146.375 6.14176 145.392 6.50225L146.769 10.2578ZM146.837 10.268C145.647 10.268 144.458 10.5098 143.462 11.2022L145.747 14.4858C145.855 14.4102 146.154 14.268 146.837 14.268V10.268ZM143.462 11.2022C142.478 11.8867 141.85 12.8749 141.483 13.9755L145.278 15.2405C145.439 14.7571 145.627 14.5693 145.747 14.4858L143.462 11.2022ZM141.472 14.0114C141.156 15.0216 141.011 16.1971 140.985 17.4832L144.984 17.5648C145.006 16.4989 145.125 15.7304 145.289 15.2045L141.472 14.0114ZM140.984 17.524V18.1H144.984V17.524H140.984ZM140.984 18.1C140.984 19.4863 141.114 20.7528 141.414 21.8618L145.275 20.8182C145.095 20.1512 144.984 19.2577 144.984 18.1H140.984ZM141.417 21.8753C141.745 23.0557 142.351 24.1156 143.327 24.8881L145.81 21.7519C145.634 21.6124 145.424 21.3523 145.272 20.8047L141.417 21.8753ZM143.327 24.8881C144.36 25.7058 145.627 26.004 146.909 26.004V22.004C146.222 22.004 145.929 21.8462 145.81 21.7519L143.327 24.8881ZM146.909 26.004C148.119 26.004 149.28 25.6553 150.232 24.8336L147.617 21.8064C147.513 21.8967 147.33 22.004 146.909 22.004V26.004ZM150.232 24.8336C151.13 24.0583 151.692 23.0109 152.03 21.8739L148.195 20.7341C148.005 21.3731 147.775 21.6697 147.617 21.8064L150.232 24.8336ZM152.03 21.8739C152.365 20.7465 152.508 19.4625 152.508 18.064H148.508C148.508 19.2095 148.388 20.0855 148.195 20.7341L152.03 21.8739ZM152.508 18.064C152.508 16.0004 152.198 14.1132 151.305 12.684L147.913 14.804C148.219 15.2948 148.508 16.2876 148.508 18.064H152.508ZM151.335 12.7336C150.352 11.0559 148.72 10.268 146.837 10.268V14.268C147.497 14.268 147.713 14.4641 147.882 14.7544L151.335 12.7336Z" fill="white"/>
</svg>
