<svg width="982" height="194" viewBox="0 0 982 194" fill="none" xmlns="http://www.w3.org/2000/svg">
<rect width="982" height="194" fill="#1E1E1E"/>
<rect width="982" height="194" rx="28" fill="#0B0B27"/>
<rect width="982" height="194" rx="28" fill="url(#paint0_radial_0_1)"/>
<rect width="982" height="194" rx="28" fill="#0C0C1A"/>
<mask id="mask0_0_1" style="mask-type:alpha" maskUnits="userSpaceOnUse" x="0" y="0" width="982" height="194">
<rect width="982" height="194" rx="28" fill="url(#paint1_radial_0_1)"/>
</mask>
<g mask="url(#mask0_0_1)">
<path fill-rule="evenodd" clip-rule="evenodd" d="M376.51 -48H374.046V-10.9787H354.338V-48H351.874V-10.9787H332.166V-48H329.702V-10.9787H309.993V-48H307.53V-10.9787H287.821V-48H285.358V-10.9787H265.649V-48H263.185V-10.9787H243.477V-48H241.013V-10.9787H221.305V-48H218.841V-10.9787H199.132V-48H196.669V-10.9787H176.96V-48H174.497V-10.9787H154.788V-48H152.324V-10.9787H132.616V-48H130.152V-10.9787H110.444V-48H107.98V-10.9787H88.2715V-48H85.8079V-10.9787H66.0993V-48H63.6358V-10.9787H39V-8.51064H63.6358V11.234H39V13.7021H63.6358V33.4468H39V35.9149H63.6358V55.6596H39V58.1277H63.6358V77.8723H39V80.3404H63.6358V100.085H39V102.553H63.6358V122.298H39V124.766H63.6358V144.511H39V146.979H63.6358V166.723H39V169.191H63.6358V188.936H39V191.404H63.6358V242H66.0993V191.404H85.8079V242H88.2715V191.404H107.98V242H110.444V191.404H130.152V242H132.616V191.404H152.324V242H154.788V191.404H174.497V242H176.96V191.404H196.669V242H199.132V191.404H218.841V242H221.305V191.404H241.013V242H243.477V191.404H263.185V242H265.649V191.404H285.358V242H287.821V191.404H307.53V242H309.993V191.404H329.702V242H332.166V191.404H351.874V242H354.338V191.404H374.046V242H376.51V191.404H411V188.936H376.51V169.191H411V166.723H376.51V146.979H411V144.511H376.51V124.766H411V122.298H376.51V102.553H411V100.085H376.51V80.3404H411V77.8723H376.51V58.1277H411V55.6596H376.51V35.9149H411V33.4468H376.51V13.7021H411V11.234H376.51V-8.51064H411V-10.9787H376.51V-48ZM66.0993 188.936H85.8079V169.191H66.0993V188.936ZM66.0993 166.723H85.8079V146.979H66.0993V166.723ZM66.0993 144.511H85.8079V124.766H66.0993V144.511ZM66.0993 122.298H85.8079V102.553H66.0993V122.298ZM66.0993 100.085H85.8079V80.3404H66.0993V100.085ZM66.0993 77.8723H85.8079V58.1277H66.0993V77.8723ZM66.0993 55.6596H85.8079V35.9149H66.0993V55.6596ZM66.0993 33.4468H85.8079V13.7021H66.0993V33.4468ZM66.0993 11.234H85.8079V-8.51064H66.0993V11.234ZM88.2715 11.234V-8.51064H107.98V11.234H88.2715ZM88.2715 33.4468V13.7021H107.98V33.4468H88.2715ZM88.2715 55.6596V35.9149H107.98V55.6596H88.2715ZM88.2715 77.8723V58.1277H107.98V77.8723H88.2715ZM88.2715 100.085V80.3404H107.98V100.085H88.2715ZM88.2715 122.298V102.553H107.98V122.298H88.2715ZM88.2715 144.511V124.766H107.98V144.511H88.2715ZM88.2715 166.723V146.979H107.98V166.723H88.2715ZM88.2715 188.936V169.191H107.98V188.936H88.2715ZM110.444 188.936H130.152V169.191H110.444V188.936ZM110.444 166.723H130.152V146.979H110.444V166.723ZM110.444 144.511H130.152V124.766H110.444V144.511ZM110.444 122.298H130.152V102.553H110.444V122.298ZM110.444 100.085H130.152V80.3404H110.444V100.085ZM110.444 77.8723H130.152V58.1277H110.444V77.8723ZM110.444 55.6596H130.152V35.9149H110.444V55.6596ZM110.444 33.4468H130.152V13.7021H110.444V33.4468ZM110.444 11.234H130.152V-8.51064H110.444V11.234ZM132.616 11.234V-8.51064H152.324V11.234H132.616ZM132.616 33.4468V13.7021H152.324V33.4468H132.616ZM132.616 55.6596V35.9149H152.324V55.6596H132.616ZM132.616 77.8723V58.1277H152.324V77.8723H132.616ZM132.616 100.085V80.3404H152.324V100.085H132.616ZM132.616 122.298V102.553H152.324V122.298H132.616ZM132.616 144.511V124.766H152.324V144.511H132.616ZM132.616 166.723V146.979H152.324V166.723H132.616ZM132.616 188.936V169.191H152.324V188.936H132.616ZM154.788 188.936H174.497V169.191H154.788V188.936ZM154.788 166.723H174.497V146.979H154.788V166.723ZM154.788 144.511H174.497V124.766H154.788V144.511ZM154.788 122.298H174.497V102.553H154.788V122.298ZM154.788 100.085H174.497V80.3404H154.788V100.085ZM154.788 77.8723H174.497V58.1277H154.788V77.8723ZM154.788 55.6596H174.497V35.9149H154.788V55.6596ZM154.788 33.4468H174.497V13.7021H154.788V33.4468ZM154.788 11.234H174.497V-8.51064H154.788V11.234ZM176.96 11.234V-8.51064H196.669V11.234H176.96ZM176.96 33.4468V13.7021H196.669V33.4468H176.96ZM176.96 55.6596V35.9149H196.669V55.6596H176.96ZM176.96 77.8723V58.1277H196.669V77.8723H176.96ZM176.96 100.085V80.3404H196.669V100.085H176.96ZM176.96 122.298V102.553H196.669V122.298H176.96ZM176.96 144.511V124.766H196.669V144.511H176.96ZM176.96 166.723V146.979H196.669V166.723H176.96ZM176.96 188.936V169.191H196.669V188.936H176.96ZM199.132 188.936H218.841V169.191H199.132V188.936ZM199.132 166.723H218.841V146.979H199.132V166.723ZM199.132 144.511H218.841V124.766H199.132V144.511ZM199.132 122.298H218.841V102.553H199.132V122.298ZM199.132 100.085H218.841V80.3404H199.132V100.085ZM199.132 77.8723H218.841V58.1277H199.132V77.8723ZM199.132 55.6596H218.841V35.9149H199.132V55.6596ZM199.132 33.4468H218.841V13.7021H199.132V33.4468ZM199.132 11.234H218.841V-8.51064H199.132V11.234ZM221.305 11.234V-8.51064H241.013V11.234H221.305ZM221.305 33.4468V13.7021H241.013V33.4468H221.305ZM221.305 55.6596V35.9149H241.013V55.6596H221.305ZM221.305 77.8723V58.1277H241.013V77.8723H221.305ZM221.305 100.085V80.3404H241.013V100.085H221.305ZM221.305 122.298V102.553H241.013V122.298H221.305ZM221.305 144.511V124.766H241.013V144.511H221.305ZM221.305 166.723V146.979H241.013V166.723H221.305ZM221.305 188.936V169.191H241.013V188.936H221.305ZM243.477 188.936H263.185V169.191H243.477V188.936ZM243.477 166.723H263.185V146.979H243.477V166.723ZM243.477 144.511H263.185V124.766H243.477V144.511ZM243.477 122.298H263.185V102.553H243.477V122.298ZM243.477 100.085H263.185V80.3404H243.477V100.085ZM243.477 77.8723H263.185V58.1277H243.477V77.8723ZM243.477 55.6596H263.185V35.9149H243.477V55.6596ZM243.477 33.4468H263.185V13.7021H243.477V33.4468ZM243.477 11.234H263.185V-8.51064H243.477V11.234ZM265.649 11.234V-8.51064H285.358V11.234H265.649ZM265.649 33.4468V13.7021H285.358V33.4468H265.649ZM265.649 55.6596V35.9149H285.358V55.6596H265.649ZM265.649 77.8723V58.1277H285.358V77.8723H265.649ZM265.649 100.085V80.3404H285.358V100.085H265.649ZM265.649 122.298V102.553H285.358V122.298H265.649ZM265.649 144.511V124.766H285.358V144.511H265.649ZM265.649 166.723V146.979H285.358V166.723H265.649ZM265.649 188.936V169.191H285.358V188.936H265.649ZM287.821 188.936H307.53V169.191H287.821V188.936ZM287.821 166.723H307.53V146.979H287.821V166.723ZM287.821 144.511H307.53V124.766H287.821V144.511ZM287.821 122.298H307.53V102.553H287.821V122.298ZM287.821 100.085H307.53V80.3404H287.821V100.085ZM287.821 77.8723H307.53V58.1277H287.821V77.8723ZM287.821 55.6596H307.53V35.9149H287.821V55.6596ZM287.821 33.4468H307.53V13.7021H287.821V33.4468ZM287.821 11.234H307.53V-8.51064H287.821V11.234ZM309.993 11.234V-8.51064H329.702V11.234H309.993ZM309.993 33.4468V13.7021H329.702V33.4468H309.993ZM309.993 55.6596V35.9149H329.702V55.6596H309.993ZM309.993 77.8723V58.1277H329.702V77.8723H309.993ZM309.993 100.085V80.3404H329.702V100.085H309.993ZM309.993 122.298V102.553H329.702V122.298H309.993ZM309.993 144.511V124.766H329.702V144.511H309.993ZM309.993 166.723V146.979H329.702V166.723H309.993ZM309.993 188.936V169.191H329.702V188.936H309.993ZM332.166 188.936H351.874V169.191H332.166V188.936ZM332.166 166.723H351.874V146.979H332.166V166.723ZM332.166 144.511H351.874V124.766H332.166V144.511ZM332.166 122.298H351.874V102.553H332.166V122.298ZM332.166 100.085H351.874V80.3404H332.166V100.085ZM332.166 77.8723H351.874V58.1277H332.166V77.8723ZM332.166 55.6596H351.874V35.9149H332.166V55.6596ZM332.166 33.4468H351.874V13.7021H332.166V33.4468ZM332.166 11.234H351.874V-8.51064H332.166V11.234ZM354.338 11.234V-8.51064H374.046V11.234H354.338ZM354.338 33.4468V13.7021H374.046V33.4468H354.338ZM354.338 55.6596V35.9149H374.046V55.6596H354.338ZM354.338 77.8723V58.1277H374.046V77.8723H354.338ZM354.338 100.085V80.3404H374.046V100.085H354.338ZM354.338 122.298V102.553H374.046V122.298H354.338ZM354.338 144.511V124.766H374.046V144.511H354.338ZM354.338 166.723V146.979H374.046V166.723H354.338ZM354.338 188.936V169.191H374.046V188.936H354.338Z" fill="url(#paint2_linear_0_1)"/>
<path fill-rule="evenodd" clip-rule="evenodd" d="M642.51 -48H640.046V-10.9787H620.338V-48H617.874V-10.9787H598.166V-48H595.702V-10.9787H575.993V-48H573.53V-10.9787H553.821V-48H551.358V-10.9787H531.649V-48H529.185V-10.9787H509.477V-48H507.013V-10.9787H487.305V-48H484.841V-10.9787H465.132V-48H462.669V-10.9787H442.96V-48H440.497V-10.9787H420.788V-48H418.324V-10.9787H398.616V-48H396.152V-10.9787H376.444V-48H373.98V-10.9787H354.272V-48H351.808V-10.9787H332.099V-48H329.636V-10.9787H305V-8.51064H329.636V11.234H305V13.7021H329.636V33.4468H305V35.9149H329.636V55.6596H305V58.1277H329.636V77.8723H305V80.3404H329.636V100.085H305V102.553H329.636V122.298H305V124.766H329.636V144.511H305V146.979H329.636V166.723H305V169.191H329.636V188.936H305V191.404H329.636V242H332.099V191.404H351.808V242H354.272V191.404H373.98V242H376.444V191.404H396.152V242H398.616V191.404H418.324V242H420.788V191.404H440.497V242H442.96V191.404H462.669V242H465.132V191.404H484.841V242H487.305V191.404H507.013V242H509.477V191.404H529.185V242H531.649V191.404H551.358V242H553.821V191.404H573.53V242H575.993V191.404H595.702V242H598.166V191.404H617.874V242H620.338V191.404H640.046V242H642.51V191.404H677V188.936H642.51V169.191H677V166.723H642.51V146.979H677V144.511H642.51V124.766H677V122.298H642.51V102.553H677V100.085H642.51V80.3404H677V77.8723H642.51V58.1277H677V55.6596H642.51V35.9149H677V33.4468H642.51V13.7021H677V11.234H642.51V-8.51064H677V-10.9787H642.51V-48ZM332.099 188.936H351.808V169.191H332.099V188.936ZM332.099 166.723H351.808V146.979H332.099V166.723ZM332.099 144.511H351.808V124.766H332.099V144.511ZM332.099 122.298H351.808V102.553H332.099V122.298ZM332.099 100.085H351.808V80.3404H332.099V100.085ZM332.099 77.8723H351.808V58.1277H332.099V77.8723ZM332.099 55.6596H351.808V35.9149H332.099V55.6596ZM332.099 33.4468H351.808V13.7021H332.099V33.4468ZM332.099 11.234H351.808V-8.51064H332.099V11.234ZM354.272 11.234V-8.51064H373.98V11.234H354.272ZM354.272 33.4468V13.7021H373.98V33.4468H354.272ZM354.272 55.6596V35.9149H373.98V55.6596H354.272ZM354.272 77.8723V58.1277H373.98V77.8723H354.272ZM354.272 100.085V80.3404H373.98V100.085H354.272ZM354.272 122.298V102.553H373.98V122.298H354.272ZM354.272 144.511V124.766H373.98V144.511H354.272ZM354.272 166.723V146.979H373.98V166.723H354.272ZM354.272 188.936V169.191H373.98V188.936H354.272ZM376.444 188.936H396.152V169.191H376.444V188.936ZM376.444 166.723H396.152V146.979H376.444V166.723ZM376.444 144.511H396.152V124.766H376.444V144.511ZM376.444 122.298H396.152V102.553H376.444V122.298ZM376.444 100.085H396.152V80.3404H376.444V100.085ZM376.444 77.8723H396.152V58.1277H376.444V77.8723ZM376.444 55.6596H396.152V35.9149H376.444V55.6596ZM376.444 33.4468H396.152V13.7021H376.444V33.4468ZM376.444 11.234H396.152V-8.51064H376.444V11.234ZM398.616 11.234V-8.51064H418.324V11.234H398.616ZM398.616 33.4468V13.7021H418.324V33.4468H398.616ZM398.616 55.6596V35.9149H418.324V55.6596H398.616ZM398.616 77.8723V58.1277H418.324V77.8723H398.616ZM398.616 100.085V80.3404H418.324V100.085H398.616ZM398.616 122.298V102.553H418.324V122.298H398.616ZM398.616 144.511V124.766H418.324V144.511H398.616ZM398.616 166.723V146.979H418.324V166.723H398.616ZM398.616 188.936V169.191H418.324V188.936H398.616ZM420.788 188.936H440.497V169.191H420.788V188.936ZM420.788 166.723H440.497V146.979H420.788V166.723ZM420.788 144.511H440.497V124.766H420.788V144.511ZM420.788 122.298H440.497V102.553H420.788V122.298ZM420.788 100.085H440.497V80.3404H420.788V100.085ZM420.788 77.8723H440.497V58.1277H420.788V77.8723ZM420.788 55.6596H440.497V35.9149H420.788V55.6596ZM420.788 33.4468H440.497V13.7021H420.788V33.4468ZM420.788 11.234H440.497V-8.51064H420.788V11.234ZM442.96 11.234V-8.51064H462.669V11.234H442.96ZM442.96 33.4468V13.7021H462.669V33.4468H442.96ZM442.96 55.6596V35.9149H462.669V55.6596H442.96ZM442.96 77.8723V58.1277H462.669V77.8723H442.96ZM442.96 100.085V80.3404H462.669V100.085H442.96ZM442.96 122.298V102.553H462.669V122.298H442.96ZM442.96 144.511V124.766H462.669V144.511H442.96ZM442.96 166.723V146.979H462.669V166.723H442.96ZM442.96 188.936V169.191H462.669V188.936H442.96ZM465.132 188.936H484.841V169.191H465.132V188.936ZM465.132 166.723H484.841V146.979H465.132V166.723ZM465.132 144.511H484.841V124.766H465.132V144.511ZM465.132 122.298H484.841V102.553H465.132V122.298ZM465.132 100.085H484.841V80.3404H465.132V100.085ZM465.132 77.8723H484.841V58.1277H465.132V77.8723ZM465.132 55.6596H484.841V35.9149H465.132V55.6596ZM465.132 33.4468H484.841V13.7021H465.132V33.4468ZM465.132 11.234H484.841V-8.51064H465.132V11.234ZM487.305 11.234V-8.51064H507.013V11.234H487.305ZM487.305 33.4468V13.7021H507.013V33.4468H487.305ZM487.305 55.6596V35.9149H507.013V55.6596H487.305ZM487.305 77.8723V58.1277H507.013V77.8723H487.305ZM487.305 100.085V80.3404H507.013V100.085H487.305ZM487.305 122.298V102.553H507.013V122.298H487.305ZM487.305 144.511V124.766H507.013V144.511H487.305ZM487.305 166.723V146.979H507.013V166.723H487.305ZM487.305 188.936V169.191H507.013V188.936H487.305ZM509.477 188.936H529.185V169.191H509.477V188.936ZM509.477 166.723H529.185V146.979H509.477V166.723ZM509.477 144.511H529.185V124.766H509.477V144.511ZM509.477 122.298H529.185V102.553H509.477V122.298ZM509.477 100.085H529.185V80.3404H509.477V100.085ZM509.477 77.8723H529.185V58.1277H509.477V77.8723ZM509.477 55.6596H529.185V35.9149H509.477V55.6596ZM509.477 33.4468H529.185V13.7021H509.477V33.4468ZM509.477 11.234H529.185V-8.51064H509.477V11.234ZM531.649 11.234V-8.51064H551.358V11.234H531.649ZM531.649 33.4468V13.7021H551.358V33.4468H531.649ZM531.649 55.6596V35.9149H551.358V55.6596H531.649ZM531.649 77.8723V58.1277H551.358V77.8723H531.649ZM531.649 100.085V80.3404H551.358V100.085H531.649ZM531.649 122.298V102.553H551.358V122.298H531.649ZM531.649 144.511V124.766H551.358V144.511H531.649ZM531.649 166.723V146.979H551.358V166.723H531.649ZM531.649 188.936V169.191H551.358V188.936H531.649ZM553.821 188.936H573.53V169.191H553.821V188.936ZM553.821 166.723H573.53V146.979H553.821V166.723ZM553.821 144.511H573.53V124.766H553.821V144.511ZM553.821 122.298H573.53V102.553H553.821V122.298ZM553.821 100.085H573.53V80.3404H553.821V100.085ZM553.821 77.8723H573.53V58.1277H553.821V77.8723ZM553.821 55.6596H573.53V35.9149H553.821V55.6596ZM553.821 33.4468H573.53V13.7021H553.821V33.4468ZM553.821 11.234H573.53V-8.51064H553.821V11.234ZM575.993 11.234V-8.51064H595.702V11.234H575.993ZM575.993 33.4468V13.7021H595.702V33.4468H575.993ZM575.993 55.6596V35.9149H595.702V55.6596H575.993ZM575.993 77.8723V58.1277H595.702V77.8723H575.993ZM575.993 100.085V80.3404H595.702V100.085H575.993ZM575.993 122.298V102.553H595.702V122.298H575.993ZM575.993 144.511V124.766H595.702V144.511H575.993ZM575.993 166.723V146.979H595.702V166.723H575.993ZM575.993 188.936V169.191H595.702V188.936H575.993ZM598.166 188.936H617.874V169.191H598.166V188.936ZM598.166 166.723H617.874V146.979H598.166V166.723ZM598.166 144.511H617.874V124.766H598.166V144.511ZM598.166 122.298H617.874V102.553H598.166V122.298ZM598.166 100.085H617.874V80.3404H598.166V100.085ZM598.166 77.8723H617.874V58.1277H598.166V77.8723ZM598.166 55.6596H617.874V35.9149H598.166V55.6596ZM598.166 33.4468H617.874V13.7021H598.166V33.4468ZM598.166 11.234H617.874V-8.51064H598.166V11.234ZM620.338 11.234V-8.51064H640.046V11.234H620.338ZM620.338 33.4468V13.7021H640.046V33.4468H620.338ZM620.338 55.6596V35.9149H640.046V55.6596H620.338ZM620.338 77.8723V58.1277H640.046V77.8723H620.338ZM620.338 100.085V80.3404H640.046V100.085H620.338ZM620.338 122.298V102.553H640.046V122.298H620.338ZM620.338 144.511V124.766H640.046V144.511H620.338ZM620.338 166.723V146.979H640.046V166.723H620.338ZM620.338 188.936V169.191H640.046V188.936H620.338Z" fill="url(#paint3_linear_0_1)"/>
<path fill-rule="evenodd" clip-rule="evenodd" d="M908.51 -48H906.046V-10.9787H886.338V-48H883.874V-10.9787H864.166V-48H861.702V-10.9787H841.993V-48H839.53V-10.9787H819.821V-48H817.358V-10.9787H797.649V-48H795.185V-10.9787H775.477V-48H773.013V-10.9787H753.305V-48H750.841V-10.9787H731.132V-48H728.669V-10.9787H708.96V-48H706.497V-10.9787H686.788V-48H684.324V-10.9787H664.616V-48H662.152V-10.9787H642.444V-48H639.98V-10.9787H620.272V-48H617.808V-10.9787H598.099V-48H595.636V-10.9787H571V-8.51064H595.636V11.234H571V13.7021H595.636V33.4468H571V35.9149H595.636V55.6596H571V58.1277H595.636V77.8723H571V80.3404H595.636V100.085H571V102.553H595.636V122.298H571V124.766H595.636V144.511H571V146.979H595.636V166.723H571V169.191H595.636V188.936H571V191.404H595.636V242H598.099V191.404H617.808V242H620.272V191.404H639.98V242H642.444V191.404H662.152V242H664.616V191.404H684.324V242H686.788V191.404H706.497V242H708.96V191.404H728.669V242H731.132V191.404H750.841V242H753.305V191.404H773.013V242H775.477V191.404H795.185V242H797.649V191.404H817.358V242H819.821V191.404H839.53V242H841.993V191.404H861.702V242H864.166V191.404H883.874V242H886.338V191.404H906.046V242H908.51V191.404H943V188.936H908.51V169.191H943V166.723H908.51V146.979H943V144.511H908.51V124.766H943V122.298H908.51V102.553H943V100.085H908.51V80.3404H943V77.8723H908.51V58.1277H943V55.6596H908.51V35.9149H943V33.4468H908.51V13.7021H943V11.234H908.51V-8.51064H943V-10.9787H908.51V-48ZM598.099 188.936H617.808V169.191H598.099V188.936ZM598.099 166.723H617.808V146.979H598.099V166.723ZM598.099 144.511H617.808V124.766H598.099V144.511ZM598.099 122.298H617.808V102.553H598.099V122.298ZM598.099 100.085H617.808V80.3404H598.099V100.085ZM598.099 77.8723H617.808V58.1277H598.099V77.8723ZM598.099 55.6596H617.808V35.9149H598.099V55.6596ZM598.099 33.4468H617.808V13.7021H598.099V33.4468ZM598.099 11.234H617.808V-8.51064H598.099V11.234ZM620.272 11.234V-8.51064H639.98V11.234H620.272ZM620.272 33.4468V13.7021H639.98V33.4468H620.272ZM620.272 55.6596V35.9149H639.98V55.6596H620.272ZM620.272 77.8723V58.1277H639.98V77.8723H620.272ZM620.272 100.085V80.3404H639.98V100.085H620.272ZM620.272 122.298V102.553H639.98V122.298H620.272ZM620.272 144.511V124.766H639.98V144.511H620.272ZM620.272 166.723V146.979H639.98V166.723H620.272ZM620.272 188.936V169.191H639.98V188.936H620.272ZM642.444 188.936H662.152V169.191H642.444V188.936ZM642.444 166.723H662.152V146.979H642.444V166.723ZM642.444 144.511H662.152V124.766H642.444V144.511ZM642.444 122.298H662.152V102.553H642.444V122.298ZM642.444 100.085H662.152V80.3404H642.444V100.085ZM642.444 77.8723H662.152V58.1277H642.444V77.8723ZM642.444 55.6596H662.152V35.9149H642.444V55.6596ZM642.444 33.4468H662.152V13.7021H642.444V33.4468ZM642.444 11.234H662.152V-8.51064H642.444V11.234ZM664.616 11.234V-8.51064H684.324V11.234H664.616ZM664.616 33.4468V13.7021H684.324V33.4468H664.616ZM664.616 55.6596V35.9149H684.324V55.6596H664.616ZM664.616 77.8723V58.1277H684.324V77.8723H664.616ZM664.616 100.085V80.3404H684.324V100.085H664.616ZM664.616 122.298V102.553H684.324V122.298H664.616ZM664.616 144.511V124.766H684.324V144.511H664.616ZM664.616 166.723V146.979H684.324V166.723H664.616ZM664.616 188.936V169.191H684.324V188.936H664.616ZM686.788 188.936H706.497V169.191H686.788V188.936ZM686.788 166.723H706.497V146.979H686.788V166.723ZM686.788 144.511H706.497V124.766H686.788V144.511ZM686.788 122.298H706.497V102.553H686.788V122.298ZM686.788 100.085H706.497V80.3404H686.788V100.085ZM686.788 77.8723H706.497V58.1277H686.788V77.8723ZM686.788 55.6596H706.497V35.9149H686.788V55.6596ZM686.788 33.4468H706.497V13.7021H686.788V33.4468ZM686.788 11.234H706.497V-8.51064H686.788V11.234ZM708.96 11.234V-8.51064H728.669V11.234H708.96ZM708.96 33.4468V13.7021H728.669V33.4468H708.96ZM708.96 55.6596V35.9149H728.669V55.6596H708.96ZM708.96 77.8723V58.1277H728.669V77.8723H708.96ZM708.96 100.085V80.3404H728.669V100.085H708.96ZM708.96 122.298V102.553H728.669V122.298H708.96ZM708.96 144.511V124.766H728.669V144.511H708.96ZM708.96 166.723V146.979H728.669V166.723H708.96ZM708.96 188.936V169.191H728.669V188.936H708.96ZM731.132 188.936H750.841V169.191H731.132V188.936ZM731.132 166.723H750.841V146.979H731.132V166.723ZM731.132 144.511H750.841V124.766H731.132V144.511ZM731.132 122.298H750.841V102.553H731.132V122.298ZM731.132 100.085H750.841V80.3404H731.132V100.085ZM731.132 77.8723H750.841V58.1277H731.132V77.8723ZM731.132 55.6596H750.841V35.9149H731.132V55.6596ZM731.132 33.4468H750.841V13.7021H731.132V33.4468ZM731.132 11.234H750.841V-8.51064H731.132V11.234ZM753.305 11.234V-8.51064H773.013V11.234H753.305ZM753.305 33.4468V13.7021H773.013V33.4468H753.305ZM753.305 55.6596V35.9149H773.013V55.6596H753.305ZM753.305 77.8723V58.1277H773.013V77.8723H753.305ZM753.305 100.085V80.3404H773.013V100.085H753.305ZM753.305 122.298V102.553H773.013V122.298H753.305ZM753.305 144.511V124.766H773.013V144.511H753.305ZM753.305 166.723V146.979H773.013V166.723H753.305ZM753.305 188.936V169.191H773.013V188.936H753.305ZM775.477 188.936H795.185V169.191H775.477V188.936ZM775.477 166.723H795.185V146.979H775.477V166.723ZM775.477 144.511H795.185V124.766H775.477V144.511ZM775.477 122.298H795.185V102.553H775.477V122.298ZM775.477 100.085H795.185V80.3404H775.477V100.085ZM775.477 77.8723H795.185V58.1277H775.477V77.8723ZM775.477 55.6596H795.185V35.9149H775.477V55.6596ZM775.477 33.4468H795.185V13.7021H775.477V33.4468ZM775.477 11.234H795.185V-8.51064H775.477V11.234ZM797.649 11.234V-8.51064H817.358V11.234H797.649ZM797.649 33.4468V13.7021H817.358V33.4468H797.649ZM797.649 55.6596V35.9149H817.358V55.6596H797.649ZM797.649 77.8723V58.1277H817.358V77.8723H797.649ZM797.649 100.085V80.3404H817.358V100.085H797.649ZM797.649 122.298V102.553H817.358V122.298H797.649ZM797.649 144.511V124.766H817.358V144.511H797.649ZM797.649 166.723V146.979H817.358V166.723H797.649ZM797.649 188.936V169.191H817.358V188.936H797.649ZM819.821 188.936H839.53V169.191H819.821V188.936ZM819.821 166.723H839.53V146.979H819.821V166.723ZM819.821 144.511H839.53V124.766H819.821V144.511ZM819.821 122.298H839.53V102.553H819.821V122.298ZM819.821 100.085H839.53V80.3404H819.821V100.085ZM819.821 77.8723H839.53V58.1277H819.821V77.8723ZM819.821 55.6596H839.53V35.9149H819.821V55.6596ZM819.821 33.4468H839.53V13.7021H819.821V33.4468ZM819.821 11.234H839.53V-8.51064H819.821V11.234ZM841.993 11.234V-8.51064H861.702V11.234H841.993ZM841.993 33.4468V13.7021H861.702V33.4468H841.993ZM841.993 55.6596V35.9149H861.702V55.6596H841.993ZM841.993 77.8723V58.1277H861.702V77.8723H841.993ZM841.993 100.085V80.3404H861.702V100.085H841.993ZM841.993 122.298V102.553H861.702V122.298H841.993ZM841.993 144.511V124.766H861.702V144.511H841.993ZM841.993 166.723V146.979H861.702V166.723H841.993ZM841.993 188.936V169.191H861.702V188.936H841.993ZM864.166 188.936H883.874V169.191H864.166V188.936ZM864.166 166.723H883.874V146.979H864.166V166.723ZM864.166 144.511H883.874V124.766H864.166V144.511ZM864.166 122.298H883.874V102.553H864.166V122.298ZM864.166 100.085H883.874V80.3404H864.166V100.085ZM864.166 77.8723H883.874V58.1277H864.166V77.8723ZM864.166 55.6596H883.874V35.9149H864.166V55.6596ZM864.166 33.4468H883.874V13.7021H864.166V33.4468ZM864.166 11.234H883.874V-8.51064H864.166V11.234ZM886.338 11.234V-8.51064H906.046V11.234H886.338ZM886.338 33.4468V13.7021H906.046V33.4468H886.338ZM886.338 55.6596V35.9149H906.046V55.6596H886.338ZM886.338 77.8723V58.1277H906.046V77.8723H886.338ZM886.338 100.085V80.3404H906.046V100.085H886.338ZM886.338 122.298V102.553H906.046V122.298H886.338ZM886.338 144.511V124.766H906.046V144.511H886.338ZM886.338 166.723V146.979H906.046V166.723H886.338ZM886.338 188.936V169.191H906.046V188.936H886.338Z" fill="url(#paint4_linear_0_1)"/>
</g>
<mask id="mask1_0_1" style="mask-type:alpha" maskUnits="userSpaceOnUse" x="423" y="113" width="135" height="81">
<path d="M423 113H558V194H423V113Z" fill="url(#paint5_linear_0_1)"/>
</mask>
<g mask="url(#mask1_0_1)">
<path d="M486.43 112.061L519.284 112.866L523.488 116.281L495.966 118.324L463.413 116.871L458.88 114.498L486.43 112.061Z" fill="url(#paint6_radial_0_1)" stroke="url(#paint7_linear_0_1)" stroke-width="0.396"/>
<mask id="path-10-inside-1_0_1" fill="white">
<path fill-rule="evenodd" clip-rule="evenodd" d="M423.001 152.029L423.001 152.029L423.001 152.029L423.001 152.028L423.005 152.025L458.191 114.36L463.361 117.066L463.362 117.065L463.362 117.066L465.947 157.232L423.001 152.029Z"/>
</mask>
<path fill-rule="evenodd" clip-rule="evenodd" d="M423.001 152.029L423.001 152.029L423.001 152.029L423.001 152.028L423.005 152.025L458.191 114.36L463.361 117.066L463.362 117.065L463.362 117.066L465.947 157.232L423.001 152.029Z" fill="url(#paint8_radial_0_1)"/>
<path d="M423.001 152.029L422.711 151.759L423.26 152.329L423.001 152.029ZM423.001 152.029L423.049 151.635L422.875 151.614L422.742 151.729L423.001 152.029ZM423.001 152.029L423.291 152.299L423.823 151.728L423.049 151.635L423.001 152.029ZM423.001 152.028L422.741 151.729L422.065 152.315L422.953 152.422L423.001 152.028ZM423.005 152.025L423.264 152.324L423.28 152.31L423.294 152.295L423.005 152.025ZM458.191 114.36L458.375 114.009L458.107 113.869L457.902 114.09L458.191 114.36ZM463.361 117.066L463.177 117.417L463.416 117.542L463.62 117.365L463.361 117.066ZM463.362 117.065L463.757 117.048L463.721 116.231L463.102 116.766L463.362 117.065ZM463.362 117.066L462.966 117.084L462.966 117.092L463.362 117.066ZM465.947 157.232L465.899 157.625L466.373 157.683L466.342 157.207L465.947 157.232ZM423.26 152.329L423.261 152.328L422.742 151.729L422.741 151.73L423.26 152.329ZM422.712 151.758L422.711 151.759L423.29 152.299L423.291 152.299L422.712 151.758ZM422.953 152.422L422.954 152.422L423.049 151.635L423.048 151.635L422.953 152.422ZM422.746 151.725L422.741 151.729L423.26 152.328L423.264 152.324L422.746 151.725ZM457.902 114.09L422.716 151.754L423.294 152.295L458.48 114.63L457.902 114.09ZM463.545 116.715L458.375 114.009L458.007 114.711L463.177 117.417L463.545 116.715ZM463.102 116.766L463.102 116.766L463.62 117.365L463.621 117.365L463.102 116.766ZM463.757 117.049L463.757 117.048L462.966 117.083L462.966 117.084L463.757 117.049ZM466.342 157.207L463.757 117.041L462.966 117.092L465.552 157.258L466.342 157.207ZM422.954 152.422L465.899 157.625L465.995 156.839L423.049 151.635L422.954 152.422Z" fill="url(#paint9_linear_0_1)" mask="url(#path-10-inside-1_0_1)"/>
<path d="M463.574 117.273L495.579 118.702L466.111 156.698L463.574 117.273Z" fill="url(#paint10_radial_0_1)" stroke="url(#paint11_linear_0_1)" stroke-width="0.396"/>
<path d="M466.354 157.029L495.985 118.822L532.483 156.206L466.354 157.029Z" fill="url(#paint12_radial_0_1)" stroke="url(#paint13_linear_0_1)" stroke-width="0.396"/>
<path d="M496.407 118.689L523.844 116.652L532.602 155.763L496.407 118.689Z" fill="url(#paint14_radial_0_1)" stroke="url(#paint15_linear_0_1)" stroke-width="0.396"/>
<path d="M524.343 117.061L557.61 150.255L533.098 156.159L524.343 117.061Z" fill="url(#paint16_radial_0_1)" stroke="url(#paint17_linear_0_1)" stroke-width="0.396"/>
<path d="M465.8 157.414L489.887 226.702L423.497 152.288L465.8 157.414Z" fill="url(#paint18_radial_0_1)" stroke="url(#paint19_linear_0_1)" stroke-width="0.396"/>
<path d="M466.222 157.427L532.595 156.601L490.446 227.109L466.222 157.427Z" fill="url(#paint20_radial_0_1)" stroke="url(#paint21_linear_0_1)" stroke-width="0.396"/>
<path d="M533.076 156.572L557.441 150.703L491.694 225.797L533.076 156.572Z" fill="url(#paint22_radial_0_1)" stroke="url(#paint23_linear_0_1)" stroke-width="0.396"/>
</g>
<rect width="982" height="194" rx="28" fill="url(#paint24_linear_0_1)"/>
<defs>
<radialGradient id="paint0_radial_0_1" cx="0" cy="0" r="1" gradientUnits="userSpaceOnUse" gradientTransform="translate(481.75 142.5) rotate(81.4947) scale(167.34 1537.41)">
<stop stop-color="#1BD67C" stop-opacity="0.14"/>
<stop offset="0.5" stop-color="#EE649E" stop-opacity="0.73"/>
<stop offset="1" stop-color="#E20606" stop-opacity="0.07"/>
</radialGradient>
<radialGradient id="paint1_radial_0_1" cx="0" cy="0" r="1" gradientUnits="userSpaceOnUse" gradientTransform="translate(481.75 142.5) rotate(81.4947) scale(167.34 1537.41)">
<stop stop-color="#1BD67C" stop-opacity="0.14"/>
<stop offset="0.5" stop-color="#EE649E" stop-opacity="0.73"/>
<stop offset="1" stop-color="#E20606" stop-opacity="0.07"/>
</radialGradient>
<linearGradient id="paint2_linear_0_1" x1="223.354" y1="-21" x2="228.212" y2="198.411" gradientUnits="userSpaceOnUse">
<stop stop-color="#1D3036"/>
<stop offset="1" stop-color="#1D3036" stop-opacity="0"/>
</linearGradient>
<linearGradient id="paint3_linear_0_1" x1="489.354" y1="-21" x2="494.212" y2="198.411" gradientUnits="userSpaceOnUse">
<stop stop-color="#1D3036"/>
<stop offset="1" stop-color="#1D3036" stop-opacity="0"/>
</linearGradient>
<linearGradient id="paint4_linear_0_1" x1="755.354" y1="-21" x2="760.212" y2="198.411" gradientUnits="userSpaceOnUse">
<stop stop-color="#1D3036"/>
<stop offset="1" stop-color="#1D3036" stop-opacity="0"/>
</linearGradient>
<linearGradient id="paint5_linear_0_1" x1="491" y1="113" x2="491" y2="194" gradientUnits="userSpaceOnUse">
<stop stop-color="#D9D9D9"/>
<stop offset="0.504673" stop-color="#D9D9D9" stop-opacity="0.304811"/>
<stop offset="0.834673" stop-color="#D9D9D9" stop-opacity="0.0763227"/>
<stop offset="1" stop-color="#D9D9D9" stop-opacity="0"/>
</linearGradient>
<radialGradient id="paint6_radial_0_1" cx="0" cy="0" r="1" gradientUnits="userSpaceOnUse" gradientTransform="translate(469.41 114.328) rotate(11.6141) scale(57.5745 232.96)">
<stop stop-color="#89EABB"/>
<stop offset="0.421875" stop-color="#9084D7"/>
<stop offset="1" stop-color="#E059D3"/>
</radialGradient>
<linearGradient id="paint7_linear_0_1" x1="413.014" y1="102.737" x2="510.379" y2="154.779" gradientUnits="userSpaceOnUse">
<stop stop-color="#161623"/>
<stop offset="0.421875" stop-color="#564D8F"/>
<stop offset="1" stop-color="#DD40CD"/>
</linearGradient>
<radialGradient id="paint8_radial_0_1" cx="0" cy="0" r="1" gradientUnits="userSpaceOnUse" gradientTransform="translate(430.322 131.936) rotate(62.2357) scale(79.0036 668.208)">
<stop stop-color="#81F0BB"/>
<stop offset="0.666667" stop-color="#AAA0E8"/>
<stop offset="1" stop-color="#EAAFFF"/>
</radialGradient>
<linearGradient id="paint9_linear_0_1" x1="393.52" y1="55.6161" x2="474.972" y2="60.0294" gradientUnits="userSpaceOnUse">
<stop stop-color="#161623"/>
<stop offset="0.421875" stop-color="#564D8F"/>
<stop offset="1" stop-color="#DD40CD"/>
</linearGradient>
<radialGradient id="paint10_radial_0_1" cx="0" cy="0" r="1" gradientUnits="userSpaceOnUse" gradientTransform="translate(483.244 132.7) rotate(143.212) scale(29.6132 22.4906)">
<stop stop-color="#8877F5"/>
<stop offset="1" stop-color="#7AECB5"/>
</radialGradient>
<linearGradient id="paint11_linear_0_1" x1="440.978" y1="62.028" x2="502.884" y2="64.7463" gradientUnits="userSpaceOnUse">
<stop stop-color="#161623"/>
<stop offset="0.421875" stop-color="#564D8F"/>
<stop offset="1" stop-color="#DD40CD"/>
</linearGradient>
<radialGradient id="paint12_radial_0_1" cx="0" cy="0" r="1" gradientUnits="userSpaceOnUse" gradientTransform="translate(477.369 132.852) rotate(49.5619) scale(88.5208 896.682)">
<stop stop-color="#81F0BB"/>
<stop offset="0.421875" stop-color="#AAA0E8"/>
<stop offset="1" stop-color="#DD40CD"/>
</radialGradient>
<linearGradient id="paint13_linear_0_1" x1="419.952" y1="65.4785" x2="546.293" y2="77.3065" gradientUnits="userSpaceOnUse">
<stop stop-color="#161623"/>
<stop offset="0.421875" stop-color="#564D8F"/>
<stop offset="1" stop-color="#DD40CD"/>
</linearGradient>
<radialGradient id="paint14_radial_0_1" cx="0" cy="0" r="1" gradientUnits="userSpaceOnUse" gradientTransform="translate(518.516 131.995) rotate(63.9618) scale(56.6215 46.8448)">
<stop stop-color="#8877F5"/>
<stop offset="1" stop-color="#7AECB5"/>
</radialGradient>
<linearGradient id="paint15_linear_0_1" x1="470.583" y1="61.69" x2="540.749" y2="65.2023" gradientUnits="userSpaceOnUse">
<stop stop-color="#161623"/>
<stop offset="0.421875" stop-color="#564D8F"/>
<stop offset="1" stop-color="#DD40CD"/>
</linearGradient>
<radialGradient id="paint16_radial_0_1" cx="0" cy="0" r="1" gradientUnits="userSpaceOnUse" gradientTransform="translate(529.798 131.234) rotate(67.2693) scale(75.4011 551.384)">
<stop stop-color="#89EABB"/>
<stop offset="0.421875" stop-color="#9084D7"/>
<stop offset="1" stop-color="#E059D3"/>
</radialGradient>
<linearGradient id="paint17_linear_0_1" x1="500.663" y1="61.6888" x2="565.197" y2="64.6588" gradientUnits="userSpaceOnUse">
<stop stop-color="#161623"/>
<stop offset="0.421875" stop-color="#564D8F"/>
<stop offset="1" stop-color="#DD40CD"/>
</linearGradient>
<radialGradient id="paint18_radial_0_1" cx="0" cy="0" r="1" gradientUnits="userSpaceOnUse" gradientTransform="translate(434.491 179.996) rotate(66.285) scale(143.61 1085.05)">
<stop stop-color="#81F0BB"/>
<stop offset="0.421875" stop-color="#AAA0E8"/>
<stop offset="1" stop-color="#DD40CD"/>
</radialGradient>
<linearGradient id="paint19_linear_0_1" x1="376.733" y1="48.513" x2="504.641" y2="54.6855" gradientUnits="userSpaceOnUse">
<stop stop-color="#161623"/>
<stop offset="0.421875" stop-color="#564D8F"/>
<stop offset="1" stop-color="#DD40CD"/>
</linearGradient>
<radialGradient id="paint20_radial_0_1" cx="0" cy="0" r="1" gradientUnits="userSpaceOnUse" gradientTransform="translate(490.866 172.129) rotate(77.4712) scale(44.4512 67.0251)">
<stop stop-color="#81F0BB"/>
<stop offset="0.421875" stop-color="#4EAE9D"/>
<stop offset="0.760417" stop-color="#9D8FEC"/>
<stop offset="1" stop-color="#F2A6EB"/>
</radialGradient>
<linearGradient id="paint21_linear_0_1" x1="419.951" y1="58.8719" x2="547.07" y2="65.3445" gradientUnits="userSpaceOnUse">
<stop stop-color="#161623"/>
<stop offset="0.421875" stop-color="#564D8F"/>
<stop offset="1" stop-color="#DD40CD"/>
</linearGradient>
<radialGradient id="paint22_radial_0_1" cx="0" cy="0" r="1" gradientUnits="userSpaceOnUse" gradientTransform="translate(501.926 178.949) rotate(66.68) scale(146.334 1091.53)">
<stop stop-color="#89EABB"/>
<stop offset="0.421875" stop-color="#9084D7"/>
<stop offset="1" stop-color="#E059D3"/>
</radialGradient>
<linearGradient id="paint23_linear_0_1" x1="443.997" y1="44.5694" x2="572.294" y2="50.645" gradientUnits="userSpaceOnUse">
<stop stop-color="#161623"/>
<stop offset="0.421875" stop-color="#564D8F"/>
<stop offset="1" stop-color="#DD40CD"/>
</linearGradient>
<linearGradient id="paint24_linear_0_1" x1="46" y1="97" x2="955.5" y2="97" gradientUnits="userSpaceOnUse">
<stop stop-color="#0C0C1A"/>
<stop offset="0.5" stop-color="#0C0C1A" stop-opacity="0.3"/>
<stop offset="1" stop-color="#0C0C1A"/>
</linearGradient>
</defs>
</svg>
