<svg width="229" height="50" viewBox="0 0 229 50" fill="none" xmlns="http://www.w3.org/2000/svg">
    <path d="M11.448 12.296C14.76 12.296 17.172 13.016 18.684 14.456C20.22 15.872 20.988 17.828 20.988 20.324C20.988 21.452 20.82 22.532 20.484 23.564C20.148 24.572 19.584 25.484 18.792 26.3C18.024 27.092 17.004 27.716 15.732 28.172C14.46 28.628 12.888 28.856 11.016 28.856H8.676V38H3.24V12.296H11.448ZM11.16 16.76H8.676V24.392H10.476C11.508 24.392 12.396 24.26 13.14 23.996C13.884 23.732 14.46 23.312 14.868 22.736C15.276 22.16 15.48 21.416 15.48 20.504C15.48 19.232 15.132 18.296 14.436 17.696C13.74 17.072 12.648 16.76 11.16 16.76ZM36.3935 17.984C36.6575 17.984 36.9695 17.996 37.3295 18.02C37.6895 18.044 37.9775 18.08 38.1935 18.128L37.7975 23.168C37.6295 23.12 37.3775 23.084 37.0415 23.06C36.7295 23.012 36.4535 22.988 36.2135 22.988C35.5175 22.988 34.8455 23.084 34.1975 23.276C33.5495 23.444 32.9615 23.72 32.4335 24.104C31.9295 24.488 31.5215 25.004 31.2095 25.652C30.9215 26.276 30.7775 27.056 30.7775 27.992V38H25.4135V18.344H29.4815L30.2735 21.656H30.5255C30.9095 20.984 31.3895 20.372 31.9655 19.82C32.5415 19.268 33.2015 18.824 33.9455 18.488C34.7135 18.152 35.5295 17.984 36.3935 17.984ZM47.1251 18.344V38H41.7611V18.344H47.1251ZM44.4611 10.64C45.2531 10.64 45.9371 10.832 46.5131 11.216C47.0891 11.576 47.3771 12.26 47.3771 13.268C47.3771 14.252 47.0891 14.936 46.5131 15.32C45.9371 15.704 45.2531 15.896 44.4611 15.896C43.6451 15.896 42.9491 15.704 42.3731 15.32C41.8211 14.936 41.5451 14.252 41.5451 13.268C41.5451 12.26 41.8211 11.576 42.3731 11.216C42.9491 10.832 43.6451 10.64 44.4611 10.64ZM66.4099 38H50.8939V34.832L60.0019 22.448H51.4339V18.344H66.0859V21.836L57.2299 33.896H66.4099V38ZM78.408 17.984C80.232 17.984 81.792 18.332 83.088 19.028C84.408 19.724 85.428 20.732 86.148 22.052C86.868 23.372 87.228 24.992 87.228 26.912V29.504H74.556C74.604 31.016 75.048 32.204 75.888 33.068C76.752 33.932 77.94 34.364 79.452 34.364C80.724 34.364 81.876 34.244 82.908 34.004C83.94 33.74 85.008 33.344 86.112 32.816V36.956C85.152 37.436 84.132 37.784 83.052 38C81.996 38.24 80.712 38.36 79.2 38.36C77.232 38.36 75.492 38 73.98 37.28C72.468 36.536 71.28 35.42 70.416 33.932C69.552 32.444 69.12 30.572 69.12 28.316C69.12 26.012 69.504 24.104 70.272 22.592C71.064 21.056 72.156 19.904 73.548 19.136C74.94 18.368 76.56 17.984 78.408 17.984ZM78.444 21.8C77.412 21.8 76.548 22.136 75.852 22.808C75.18 23.48 74.784 24.524 74.664 25.94H82.188C82.188 25.148 82.044 24.44 81.756 23.816C81.492 23.192 81.084 22.7 80.532 22.34C79.98 21.98 79.284 21.8 78.444 21.8ZM111.261 38H105.825V16.832H98.8411V12.296H118.245V16.832H111.261V38ZM126.958 17.948C129.598 17.948 131.614 18.524 133.006 19.676C134.422 20.804 135.13 22.544 135.13 24.896V38H131.386L130.342 35.336H130.198C129.646 36.032 129.07 36.608 128.47 37.064C127.894 37.52 127.222 37.844 126.454 38.036C125.71 38.252 124.786 38.36 123.682 38.36C122.53 38.36 121.486 38.144 120.55 37.712C119.638 37.256 118.918 36.572 118.39 35.66C117.862 34.724 117.598 33.548 117.598 32.132C117.598 30.044 118.33 28.508 119.794 27.524C121.258 26.516 123.454 25.964 126.382 25.868L129.802 25.76V24.896C129.802 23.864 129.526 23.108 128.974 22.628C128.446 22.148 127.702 21.908 126.742 21.908C125.782 21.908 124.846 22.052 123.934 22.34C123.022 22.604 122.11 22.94 121.198 23.348L119.434 19.712C120.49 19.16 121.654 18.728 122.926 18.416C124.222 18.104 125.566 17.948 126.958 17.948ZM127.714 28.964C125.986 29.012 124.786 29.324 124.114 29.9C123.442 30.476 123.106 31.232 123.106 32.168C123.106 32.984 123.346 33.572 123.826 33.932C124.306 34.268 124.93 34.436 125.698 34.436C126.85 34.436 127.822 34.1 128.614 33.428C129.406 32.732 129.802 31.76 129.802 30.512V28.892L127.714 28.964ZM151.565 17.984C153.773 17.984 155.561 18.848 156.929 20.576C158.297 22.28 158.98 24.8 158.98 28.136C158.98 30.368 158.657 32.252 158.009 33.788C157.361 35.3 156.473 36.44 155.345 37.208C154.217 37.976 152.909 38.36 151.421 38.36C150.485 38.36 149.669 38.24 148.973 38C148.301 37.76 147.725 37.448 147.245 37.064C146.765 36.68 146.345 36.272 145.985 35.84H145.697C145.793 36.296 145.865 36.776 145.913 37.28C145.961 37.76 145.985 38.24 145.985 38.72V46.64H140.621V18.344H144.977L145.733 20.9H145.985C146.345 20.372 146.777 19.892 147.281 19.46C147.785 19.004 148.385 18.644 149.081 18.38C149.801 18.116 150.629 17.984 151.565 17.984ZM149.837 22.268C148.901 22.268 148.157 22.46 147.605 22.844C147.053 23.228 146.645 23.816 146.381 24.608C146.141 25.376 146.009 26.348 145.985 27.524V28.1C145.985 29.372 146.105 30.452 146.345 31.34C146.585 32.204 146.993 32.864 147.569 33.32C148.145 33.776 148.925 34.004 149.909 34.004C150.725 34.004 151.397 33.776 151.925 33.32C152.453 32.864 152.849 32.192 153.113 31.304C153.377 30.416 153.509 29.336 153.509 28.064C153.509 26.144 153.209 24.704 152.609 23.744C152.033 22.76 151.109 22.268 149.837 22.268Z" fill="#212130"/>
    <path d="M18.684 14.456L17.3047 15.9043L17.3165 15.9155L17.3284 15.9265L18.684 14.456ZM20.484 23.564L22.3814 24.1965L22.3857 24.1832L20.484 23.564ZM18.792 26.3L17.3568 24.907L17.3562 24.9077L18.792 26.3ZM15.732 28.172L16.4069 30.0547L16.4069 30.0547L15.732 28.172ZM8.676 28.856V26.856H6.676V28.856H8.676ZM8.676 38V40H10.676V38H8.676ZM3.24 38H1.24V40H3.24V38ZM3.24 12.296V10.296H1.24V12.296H3.24ZM8.676 16.76V14.76H6.676V16.76H8.676ZM8.676 24.392H6.676V26.392H8.676V24.392ZM13.14 23.996L12.4712 22.1111L12.4712 22.1111L13.14 23.996ZM14.868 22.736L13.236 21.58L13.236 21.58L14.868 22.736ZM14.436 17.696L13.1009 19.1851L13.1154 19.1981L13.1301 19.2108L14.436 17.696ZM11.448 14.296C14.5351 14.296 16.3311 14.9771 17.3047 15.9043L20.0633 13.0077C18.0129 11.0549 14.9849 10.296 11.448 10.296V14.296ZM17.3284 15.9265C18.3742 16.8905 18.988 18.2685 18.988 20.324H22.988C22.988 17.3875 22.0658 14.8534 20.0396 12.9855L17.3284 15.9265ZM18.988 20.324C18.988 21.2501 18.8506 22.1205 18.5823 22.9448L22.3857 24.1832C22.7894 22.9434 22.988 21.6539 22.988 20.324H18.988ZM18.5866 22.9315C18.3522 23.6348 17.9546 24.2912 17.3568 24.907L20.2272 27.6929C21.2134 26.6768 21.9438 25.5092 22.3814 24.1965L18.5866 22.9315ZM17.3562 24.9077C16.8435 25.4364 16.1049 25.9137 15.0571 26.2893L16.4069 30.0547C17.9031 29.5183 19.2045 28.7476 20.2278 27.6923L17.3562 24.9077ZM15.0571 26.2893C14.0674 26.6441 12.7401 26.856 11.016 26.856V30.856C13.0359 30.856 14.8526 30.6119 16.4069 30.0547L15.0571 26.2893ZM11.016 26.856H8.676V30.856H11.016V26.856ZM6.676 28.856V38H10.676V28.856H6.676ZM8.676 36H3.24V40H8.676V36ZM5.24 38V12.296H1.24V38H5.24ZM3.24 14.296H11.448V10.296H3.24V14.296ZM11.16 14.76H8.676V18.76H11.16V14.76ZM6.676 16.76V24.392H10.676V16.76H6.676ZM8.676 26.392H10.476V22.392H8.676V26.392ZM10.476 26.392C11.6697 26.392 12.7955 26.2404 13.8088 25.8809L12.4712 22.1111C11.9965 22.2796 11.3463 22.392 10.476 22.392V26.392ZM13.8088 25.8809C14.8934 25.496 15.8259 24.8437 16.5001 23.892L13.236 21.58C13.0941 21.7803 12.8746 21.968 12.4712 22.1111L13.8088 25.8809ZM16.5 23.892C17.2088 22.8914 17.48 21.7095 17.48 20.504H13.48C13.48 21.1225 13.3432 21.4286 13.236 21.58L16.5 23.892ZM17.48 20.504C17.48 18.8835 17.029 17.2908 15.7419 16.1812L13.1301 19.2108C13.235 19.3012 13.48 19.5805 13.48 20.504H17.48ZM15.7711 16.2069C14.5442 15.1069 12.8639 14.76 11.16 14.76V18.76C12.4321 18.76 12.9358 19.0371 13.1009 19.1851L15.7711 16.2069ZM37.3295 18.02L37.1964 20.0156L37.1964 20.0156L37.3295 18.02ZM38.1935 18.128L40.1873 18.2847L40.3234 16.5525L38.6273 16.1756L38.1935 18.128ZM37.7975 23.168L37.248 25.091L39.5997 25.763L39.7913 23.3247L37.7975 23.168ZM37.0415 23.06L36.7374 25.0367L36.8178 25.0491L36.899 25.0549L37.0415 23.06ZM34.1975 23.276L34.6994 25.212L34.7327 25.2034L34.7656 25.1936L34.1975 23.276ZM32.4335 24.104L31.2571 22.4865L31.2391 22.4996L31.2214 22.5131L32.4335 24.104ZM31.2095 25.652L29.4075 24.7844L29.4004 24.7991L29.3935 24.8139L31.2095 25.652ZM30.7775 38V40H32.7775V38H30.7775ZM25.4135 38H23.4135V40H25.4135V38ZM25.4135 18.344V16.344H23.4135V18.344H25.4135ZM29.4815 18.344L31.4266 17.8789L31.0596 16.344H29.4815V18.344ZM30.2735 21.656L28.3283 22.1211L28.6953 23.656H30.2735V21.656ZM30.5255 21.656V23.656H31.6861L32.262 22.6483L30.5255 21.656ZM31.9655 19.82L33.3493 21.264L33.3493 21.264L31.9655 19.82ZM33.9455 18.488L33.1438 16.6557L33.133 16.6604L33.1223 16.6653L33.9455 18.488ZM36.3935 19.984C36.6004 19.984 36.8659 19.9935 37.1964 20.0156L37.4625 16.0244C37.073 15.9985 36.7146 15.984 36.3935 15.984V19.984ZM37.1964 20.0156C37.5098 20.0365 37.6846 20.0637 37.7596 20.0804L38.6273 16.1756C38.2703 16.0963 37.8692 16.0515 37.4625 16.0244L37.1964 20.0156ZM36.1996 17.9713L35.8036 23.0113L39.7913 23.3247L40.1873 18.2847L36.1996 17.9713ZM38.3469 21.245C37.9747 21.1386 37.5558 21.0916 37.184 21.0651L36.899 25.0549C37.034 25.0646 37.1323 25.0753 37.1996 25.0849C37.2723 25.0953 37.2811 25.1005 37.248 25.091L38.3469 21.245ZM37.3456 21.0833C36.9624 21.0243 36.5812 20.988 36.2135 20.988V24.988C36.3257 24.988 36.4966 24.9997 36.7374 25.0367L37.3456 21.0833ZM36.2135 20.988C35.3309 20.988 34.4672 21.1101 33.6293 21.3584L34.7656 25.1936C35.2237 25.0579 35.7041 24.988 36.2135 24.988V20.988ZM33.6955 21.34C32.811 21.5693 31.9932 21.9512 31.2571 22.4865L33.6098 25.7215C33.9298 25.4888 34.2879 25.3187 34.6994 25.212L33.6955 21.34ZM31.2214 22.5131C30.4344 23.1127 29.8377 23.8908 29.4075 24.7844L33.0115 26.5196C33.2052 26.1172 33.4245 25.8633 33.6456 25.6949L31.2214 22.5131ZM29.3935 24.8139C28.9487 25.7776 28.7775 26.8655 28.7775 27.992H32.7775C32.7775 27.2465 32.8942 26.7744 33.0254 26.4901L29.3935 24.8139ZM28.7775 27.992V38H32.7775V27.992H28.7775ZM30.7775 36H25.4135V40H30.7775V36ZM27.4135 38V18.344H23.4135V38H27.4135ZM25.4135 20.344H29.4815V16.344H25.4135V20.344ZM27.5363 18.8091L28.3283 22.1211L32.2186 21.1909L31.4266 17.8789L27.5363 18.8091ZM30.2735 23.656H30.5255V19.656H30.2735V23.656ZM32.262 22.6483C32.5478 22.1481 32.9076 21.6872 33.3493 21.264L30.5817 18.376C29.8713 19.0568 29.2712 19.8199 28.789 20.6637L32.262 22.6483ZM33.3493 21.264C33.7574 20.8728 34.2268 20.5555 34.7686 20.3107L33.1223 16.6653C32.1762 17.0925 31.3255 17.6632 30.5817 18.376L33.3493 21.264ZM34.7471 20.3203C35.2545 20.0983 35.7967 19.984 36.3935 19.984V15.984C35.2622 15.984 34.1724 16.2057 33.1438 16.6557L34.7471 20.3203ZM47.1251 18.344H49.1251V16.344H47.1251V18.344ZM47.1251 38V40H49.1251V38H47.1251ZM41.7611 38H39.7611V40H41.7611V38ZM41.7611 18.344V16.344H39.7611V18.344H41.7611ZM46.5131 11.216L45.4037 12.8801L45.4282 12.8964L45.4531 12.912L46.5131 11.216ZM46.5131 15.32L45.4037 13.6559L45.4037 13.6559L46.5131 15.32ZM42.3731 15.32L41.231 16.9618L41.2473 16.9731L41.2637 16.9841L42.3731 15.32ZM42.3731 11.216L43.4657 12.8912L43.4741 12.8857L43.4825 12.8801L42.3731 11.216ZM45.1251 18.344V38H49.1251V18.344H45.1251ZM47.1251 36H41.7611V40H47.1251V36ZM43.7611 38V18.344H39.7611V38H43.7611ZM41.7611 20.344H47.1251V16.344H41.7611V20.344ZM44.4611 12.64C44.9169 12.64 45.2018 12.7455 45.4037 12.8801L47.6225 9.5519C46.6724 8.91849 45.5894 8.64 44.4611 8.64V12.64ZM45.4531 12.912C45.4158 12.8887 45.3794 12.8569 45.3503 12.8219C45.3224 12.7881 45.3146 12.7673 45.3179 12.7751C45.3285 12.8004 45.3771 12.9408 45.3771 13.268H49.3771C49.3771 11.9296 48.9845 10.4021 47.5731 9.52L45.4531 12.912ZM45.3771 13.268C45.3771 13.5758 45.3306 13.7125 45.3179 13.7429C45.313 13.7544 45.3168 13.7419 45.3362 13.7179C45.3564 13.693 45.3809 13.6711 45.4037 13.6559L47.6225 16.9841C48.968 16.0871 49.3771 14.6158 49.3771 13.268H45.3771ZM45.4037 13.6559C45.2018 13.7905 44.9169 13.896 44.4611 13.896V17.896C45.5894 17.896 46.6724 17.6175 47.6225 16.9841L45.4037 13.6559ZM44.4611 13.896C43.968 13.896 43.6748 13.7841 43.4825 13.6559L41.2637 16.9841C42.2235 17.6239 43.3223 17.896 44.4611 17.896V13.896ZM43.5153 13.6782C43.5445 13.6985 43.5714 13.7244 43.5915 13.7503C43.6107 13.7751 43.6131 13.7862 43.6068 13.7706C43.591 13.7314 43.5451 13.5844 43.5451 13.268H39.5451C39.5451 14.5848 39.9226 16.0516 41.231 16.9618L43.5153 13.6782ZM43.5451 13.268C43.5451 12.9325 43.593 12.7817 43.6068 12.7474C43.6117 12.7353 43.6054 12.7548 43.5779 12.7895C43.549 12.8259 43.5101 12.8623 43.4657 12.8912L41.2806 9.54078C39.9061 10.4372 39.5451 11.9615 39.5451 13.268H43.5451ZM43.4825 12.8801C43.6748 12.7519 43.968 12.64 44.4611 12.64V8.64C43.3223 8.64 42.2235 8.91207 41.2637 9.5519L43.4825 12.8801ZM66.4099 38V40H68.4099V38H66.4099ZM50.8939 38H48.8939V40H50.8939V38ZM50.8939 34.832L49.2827 33.647L48.8939 34.1757V34.832H50.8939ZM60.0019 22.448L61.613 23.633L63.9555 20.448H60.0019V22.448ZM51.4339 22.448H49.4339V24.448H51.4339V22.448ZM51.4339 18.344V16.344H49.4339V18.344H51.4339ZM66.0859 18.344H68.0859V16.344H66.0859V18.344ZM66.0859 21.836L67.6979 23.0198L68.0859 22.4915V21.836H66.0859ZM57.2299 33.896L55.6178 32.7122L53.2799 35.896H57.2299V33.896ZM66.4099 33.896H68.4099V31.896H66.4099V33.896ZM66.4099 36H50.8939V40H66.4099V36ZM52.8939 38V34.832H48.8939V38H52.8939ZM52.505 36.017L61.613 23.633L58.3907 21.263L49.2827 33.647L52.505 36.017ZM60.0019 20.448H51.4339V24.448H60.0019V20.448ZM53.4339 22.448V18.344H49.4339V22.448H53.4339ZM51.4339 20.344H66.0859V16.344H51.4339V20.344ZM64.0859 18.344V21.836H68.0859V18.344H64.0859ZM64.4738 20.6522L55.6178 32.7122L58.8419 35.0798L67.6979 23.0198L64.4738 20.6522ZM57.2299 35.896H66.4099V31.896H57.2299V35.896ZM64.4099 33.896V38H68.4099V33.896H64.4099ZM83.088 19.028L82.1417 20.79L82.1485 20.7936L82.1552 20.7971L83.088 19.028ZM86.148 22.052L84.3922 23.0097L84.3922 23.0097L86.148 22.052ZM87.228 29.504V31.504H89.228V29.504H87.228ZM74.556 29.504V27.504H72.4915L72.557 29.5675L74.556 29.504ZM75.888 33.068L74.454 34.4622L74.4638 34.4723L74.4738 34.4822L75.888 33.068ZM82.908 34.004L83.361 35.952L83.3824 35.947L83.4037 35.9416L82.908 34.004ZM86.112 32.816H88.112V29.6425L85.2491 31.0117L86.112 32.816ZM86.112 36.956L87.0064 38.7449L88.112 38.1921V36.956H86.112ZM83.052 38L82.6598 36.0388L82.6342 36.044L82.6088 36.0497L83.052 38ZM73.98 37.28L73.097 39.0745L73.1085 39.0802L73.1201 39.0857L73.98 37.28ZM70.416 33.932L68.6864 34.9363L68.6864 34.9363L70.416 33.932ZM70.272 22.592L68.4944 21.6754L68.4888 21.6863L70.272 22.592ZM73.548 19.136L72.5818 17.3848L72.5818 17.3848L73.548 19.136ZM75.852 22.808L74.4628 21.3692L74.4502 21.3814L74.4378 21.3938L75.852 22.808ZM74.664 25.94L72.6711 25.7711L72.4873 27.94H74.664V25.94ZM82.188 25.94V27.94H84.188V25.94H82.188ZM81.756 23.816L79.9141 24.5953L79.9266 24.6249L79.9401 24.6541L81.756 23.816ZM80.532 22.34L81.6245 20.6648L81.6245 20.6648L80.532 22.34ZM78.408 19.984C79.9798 19.984 81.1984 20.2834 82.1417 20.79L84.0343 17.266C82.3856 16.3806 80.4842 15.984 78.408 15.984V19.984ZM82.1552 20.7971C83.1242 21.3081 83.8592 22.0325 84.3922 23.0097L87.9038 21.0943C86.9968 19.4315 85.6918 18.1399 84.0208 17.2589L82.1552 20.7971ZM84.3922 23.0097C84.9136 23.9656 85.228 25.2361 85.228 26.912H89.228C89.228 24.7479 88.8224 22.7784 87.9038 21.0943L84.3922 23.0097ZM85.228 26.912V29.504H89.228V26.912H85.228ZM87.228 27.504H74.556V31.504H87.228V27.504ZM72.557 29.5675C72.6166 31.4455 73.1839 33.1557 74.454 34.4622L77.322 31.6738C76.9121 31.2523 76.5914 30.5865 76.555 29.4405L72.557 29.5675ZM74.4738 34.4822C75.7977 35.8062 77.543 36.364 79.452 36.364V32.364C78.337 32.364 77.7063 32.0578 77.3022 31.6538L74.4738 34.4822ZM79.452 36.364C80.8472 36.364 82.1544 36.2326 83.361 35.952L82.455 32.056C81.5976 32.2554 80.6008 32.364 79.452 32.364V36.364ZM83.4037 35.9416C84.5792 35.6409 85.7701 35.1965 86.9749 34.6203L85.2491 31.0117C84.2459 31.4915 83.3008 31.8391 82.4123 32.0664L83.4037 35.9416ZM84.112 32.816V36.956H88.112V32.816H84.112ZM85.2176 35.1671C84.4207 35.5656 83.57 35.8568 82.6598 36.0388L83.4442 39.9612C84.694 39.7112 85.8833 39.3064 87.0064 38.7449L85.2176 35.1671ZM82.6088 36.0497C81.7427 36.2466 80.6168 36.36 79.2 36.36V40.36C80.8072 40.36 82.2493 40.2334 83.4952 39.9503L82.6088 36.0497ZM79.2 36.36C77.4778 36.36 76.0402 36.0459 74.8399 35.4743L73.1201 39.0857C74.9438 39.9541 76.9862 40.36 79.2 40.36V36.36ZM74.863 35.4855C73.7128 34.9195 72.8159 34.0822 72.1456 32.9277L68.6864 34.9363C69.7441 36.7578 71.2232 38.1525 73.097 39.0745L74.863 35.4855ZM72.1456 32.9277C71.5056 31.8255 71.12 30.326 71.12 28.316H67.12C67.12 30.818 67.5984 33.0625 68.6864 34.9363L72.1456 32.9277ZM71.12 28.316C71.12 26.2194 71.4714 24.6469 72.0552 23.4977L68.4888 21.6863C67.5366 23.5611 67.12 25.8046 67.12 28.316H71.12ZM72.0496 23.5086C72.6764 22.293 73.4997 21.4468 74.5142 20.8872L72.5818 17.3848C70.8123 18.3612 69.4516 19.819 68.4944 21.6754L72.0496 23.5086ZM74.5142 20.8872C75.5654 20.3071 76.8426 19.984 78.408 19.984V15.984C76.2774 15.984 74.3146 16.4288 72.5818 17.3848L74.5142 20.8872ZM78.444 19.8C76.9318 19.8 75.5582 20.3116 74.4628 21.3692L77.2412 24.2468C77.5378 23.9604 77.8922 23.8 78.444 23.8V19.8ZM74.4378 21.3938C73.3011 22.5305 72.8119 24.1097 72.6711 25.7711L76.6569 26.1089C76.7561 24.9383 77.0589 24.4295 77.2662 24.2222L74.4378 21.3938ZM74.664 27.94H82.188V23.94H74.664V27.94ZM84.188 25.94C84.188 24.9026 83.9984 23.9018 83.5719 22.9779L79.9401 24.6541C80.0896 24.9782 80.188 25.3934 80.188 25.94H84.188ZM83.5979 23.0367C83.1835 22.0571 82.5197 21.2486 81.6245 20.6648L79.4395 24.0152C79.6483 24.1514 79.8005 24.3269 79.9141 24.5953L83.5979 23.0367ZM81.6245 20.6648C80.669 20.0416 79.5662 19.8 78.444 19.8V23.8C79.0018 23.8 79.291 23.9184 79.4395 24.0152L81.6245 20.6648ZM111.261 38V40H113.261V38H111.261ZM105.825 38H103.825V40H105.825V38ZM105.825 16.832H107.825V14.832H105.825V16.832ZM98.8411 16.832H96.8411V18.832H98.8411V16.832ZM98.8411 12.296V10.296H96.8411V12.296H98.8411ZM118.245 12.296H120.245V10.296H118.245V12.296ZM118.245 16.832V18.832H120.245V16.832H118.245ZM111.261 16.832V14.832H109.261V16.832H111.261ZM111.261 36H105.825V40H111.261V36ZM107.825 38V16.832H103.825V38H107.825ZM105.825 14.832H98.8411V18.832H105.825V14.832ZM100.841 16.832V12.296H96.8411V16.832H100.841ZM98.8411 14.296H118.245V10.296H98.8411V14.296ZM116.245 12.296V16.832H120.245V12.296H116.245ZM118.245 14.832H111.261V18.832H118.245V14.832ZM109.261 16.832V38H113.261V16.832H109.261ZM133.006 19.676L131.731 21.2168L131.745 21.2287L131.76 21.2403L133.006 19.676ZM135.13 38V40H137.13V38H135.13ZM131.386 38L129.524 38.7297L130.022 40H131.386V38ZM130.342 35.336L132.204 34.6063L131.706 33.336H130.342V35.336ZM130.198 35.336V33.336H129.231L128.631 34.0932L130.198 35.336ZM128.47 37.064L127.26 35.4717L127.244 35.4836L127.229 35.4959L128.47 37.064ZM126.454 38.036L125.969 36.0957L125.932 36.1048L125.896 36.1153L126.454 38.036ZM120.55 37.712L119.656 39.5009L119.683 39.5148L119.712 39.5279L120.55 37.712ZM118.39 35.66L116.648 36.6426L116.653 36.6524L116.659 36.6621L118.39 35.66ZM119.794 27.524L120.91 29.1839L120.919 29.1777L120.928 29.1713L119.794 27.524ZM126.382 25.868L126.319 23.869L126.316 23.8691L126.382 25.868ZM129.802 25.76L129.865 27.759L131.802 27.6978V25.76H129.802ZM128.974 22.628L127.629 24.1079L127.645 24.1227L127.662 24.1372L128.974 22.628ZM123.934 22.34L124.49 24.2611L124.513 24.2544L124.536 24.2472L123.934 22.34ZM121.198 23.348L119.399 24.221L120.245 25.9654L122.015 25.1736L121.198 23.348ZM119.434 19.712L118.507 17.9395L116.787 18.8387L117.635 20.585L119.434 19.712ZM122.926 18.416L122.458 16.4715L122.449 16.4736L122.926 18.416ZM127.714 28.964L127.769 30.9633L127.783 30.9628L127.714 28.964ZM124.114 29.9L122.812 28.3815L122.812 28.3815L124.114 29.9ZM123.826 33.932L122.626 35.532L122.652 35.5517L122.679 35.5705L123.826 33.932ZM128.614 33.428L129.908 34.953L129.921 34.9418L129.934 34.9303L128.614 33.428ZM129.802 28.892H131.802V26.8218L129.733 26.8932L129.802 28.892ZM126.958 19.948C129.341 19.948 130.831 20.4719 131.731 21.2168L134.281 18.1352C132.397 16.5761 129.855 15.948 126.958 15.948V19.948ZM131.76 21.2403C132.564 21.8809 133.13 22.9557 133.13 24.896H137.13C137.13 22.1323 136.28 19.7271 134.252 18.1117L131.76 21.2403ZM133.13 24.896V38H137.13V24.896H133.13ZM135.13 36H131.386V40H135.13V36ZM133.248 37.2703L132.204 34.6063L128.48 36.0657L129.524 38.7297L133.248 37.2703ZM130.342 33.336H130.198V37.336H130.342V33.336ZM128.631 34.0932C128.165 34.6809 127.706 35.1329 127.26 35.4717L129.68 38.6563C130.434 38.0831 131.127 37.3831 131.765 36.5788L128.631 34.0932ZM127.229 35.4959C126.892 35.7621 126.483 35.9672 125.969 36.0957L126.939 39.9763C127.961 39.7208 128.896 39.2779 129.711 38.6321L127.229 35.4959ZM125.896 36.1153C125.392 36.2616 124.67 36.36 123.682 36.36V40.36C124.902 40.36 126.028 40.2424 127.012 39.9567L125.896 36.1153ZM123.682 36.36C122.785 36.36 122.032 36.1933 121.388 35.8961L119.712 39.5279C120.94 40.0947 122.275 40.36 123.682 40.36V36.36ZM121.444 35.9231C120.894 35.6481 120.46 35.2435 120.121 34.6579L116.659 36.6621C117.376 37.9005 118.382 38.8639 119.656 39.5009L121.444 35.9231ZM120.132 34.6774C119.818 34.1217 119.598 33.3097 119.598 32.132H115.598C115.598 33.7863 115.905 35.3263 116.648 36.6426L120.132 34.6774ZM119.598 32.132C119.598 30.5691 120.106 29.7241 120.91 29.1839L118.678 25.8641C116.554 27.2919 115.598 29.5189 115.598 32.132H119.598ZM120.928 29.1713C121.933 28.4793 123.679 27.9577 126.447 27.8669L126.316 23.8691C123.229 23.9703 120.583 24.5527 118.66 25.8767L120.928 29.1713ZM126.445 27.867L129.865 27.759L129.739 23.761L126.319 23.869L126.445 27.867ZM131.802 25.76V24.896H127.802V25.76H131.802ZM131.802 24.896C131.802 23.5312 131.432 22.1148 130.286 21.1188L127.662 24.1372C127.664 24.1392 127.668 24.1428 127.675 24.1529C127.682 24.1638 127.698 24.1903 127.716 24.2409C127.755 24.3469 127.802 24.5511 127.802 24.896H131.802ZM130.319 21.1481C129.312 20.2322 128.025 19.908 126.742 19.908V23.908C127.379 23.908 127.58 24.0638 127.629 24.1079L130.319 21.1481ZM126.742 19.908C125.578 19.908 124.439 20.0831 123.332 20.4328L124.536 24.2472C125.253 24.0209 125.985 23.908 126.742 23.908V19.908ZM123.378 20.4189C122.372 20.7099 121.373 21.0785 120.381 21.5224L122.015 25.1736C122.846 24.8015 123.672 24.4981 124.49 24.2611L123.378 20.4189ZM122.997 22.475L121.233 18.839L117.635 20.585L119.399 24.221L122.997 22.475ZM120.36 21.4845C121.261 21.014 122.271 20.6358 123.402 20.3584L122.449 16.4736C121.036 16.8202 119.719 17.306 118.507 17.9395L120.36 21.4845ZM123.394 20.3604C124.53 20.0869 125.717 19.948 126.958 19.948V15.948C125.415 15.948 123.914 16.121 122.458 16.4716L123.394 20.3604ZM127.658 26.9648C125.845 27.0151 124.037 27.3317 122.812 28.3815L125.416 31.4185C125.535 31.3163 126.127 31.0089 127.769 30.9632L127.658 26.9648ZM122.812 28.3815C121.669 29.3617 121.106 30.6864 121.106 32.168H125.106C125.106 31.7776 125.215 31.5903 125.416 31.4185L122.812 28.3815ZM121.106 32.168C121.106 33.3695 121.475 34.6686 122.626 35.532L125.026 32.332C125.053 32.3524 125.081 32.3792 125.104 32.4096C125.126 32.4394 125.136 32.4611 125.138 32.4652C125.139 32.4688 125.106 32.3874 125.106 32.168H121.106ZM122.679 35.5705C123.586 36.2051 124.646 36.436 125.698 36.436V32.436C125.214 32.436 125.026 32.3309 124.973 32.2935L122.679 35.5705ZM125.698 36.436C127.269 36.436 128.714 35.9657 129.908 34.953L127.32 31.903C126.929 32.2343 126.431 32.436 125.698 32.436V36.436ZM129.934 34.9303C131.238 33.7842 131.802 32.2192 131.802 30.512H127.802C127.802 31.3008 127.574 31.6798 127.294 31.9257L129.934 34.9303ZM131.802 30.512V28.892H127.802V30.512H131.802ZM129.733 26.8932L127.645 26.9652L127.783 30.9628L129.871 30.8908L129.733 26.8932ZM156.929 20.576L155.36 21.8174L155.369 21.8281L156.929 20.576ZM158.009 33.788L159.847 34.5759L159.851 34.5654L158.009 33.788ZM155.345 37.208L154.219 35.5548L154.219 35.5548L155.345 37.208ZM148.973 38L148.3 39.8835L148.31 39.8872L148.321 39.8907L148.973 38ZM147.245 37.064L148.494 35.5023L148.494 35.5023L147.245 37.064ZM145.985 35.84L147.521 34.5596L146.921 33.84H145.985V35.84ZM145.697 35.84V33.84H143.232L143.739 36.252L145.697 35.84ZM145.913 37.28L143.921 37.4696L143.922 37.479L145.913 37.28ZM145.985 46.64V48.64H147.985V46.64H145.985ZM140.621 46.64H138.621V48.64H140.621V46.64ZM140.621 18.344V16.344H138.621V18.344H140.621ZM144.977 18.344L146.894 17.7767L146.471 16.344H144.977V18.344ZM145.733 20.9L143.815 21.4673L144.238 22.9H145.733V20.9ZM145.985 20.9V22.9H147.042L147.637 22.0267L145.985 20.9ZM147.281 19.46L148.582 20.9785L148.602 20.9611L148.622 20.9431L147.281 19.46ZM149.081 18.38L148.392 16.5022L148.382 16.5061L148.371 16.51L149.081 18.38ZM147.605 22.844L146.462 21.2022L146.462 21.2022L147.605 22.844ZM146.381 24.608L144.483 23.9755L144.477 23.9934L144.472 24.0115L146.381 24.608ZM145.985 27.524L143.985 27.4832L143.985 27.5036V27.524H145.985ZM146.345 31.34L144.414 31.8618L144.417 31.8753L146.345 31.34ZM147.569 33.32L148.81 31.7519L148.81 31.7519L147.569 33.32ZM151.925 33.32L150.617 31.8064L150.617 31.8064L151.925 33.32ZM153.113 31.304L151.195 30.7341L151.195 30.7341L153.113 31.304ZM152.609 23.744L150.882 24.7544L150.897 24.7794L150.913 24.804L152.609 23.744ZM151.565 19.984C153.163 19.984 154.373 20.5696 155.36 21.8174L158.497 19.3346C156.748 17.1264 154.382 15.984 151.565 15.984V19.984ZM155.369 21.8281C156.336 23.0326 156.98 25.0271 156.98 28.136H160.98C160.98 24.5729 160.257 21.5274 158.488 19.3239L155.369 21.8281ZM156.98 28.136C156.98 30.1864 156.681 31.7888 156.166 33.0106L159.851 34.5654C160.632 32.7152 160.98 30.5496 160.98 28.136H156.98ZM156.17 33.0002C155.641 34.2343 154.972 35.0419 154.219 35.5548L156.47 38.8612C157.973 37.8381 159.08 36.3657 159.847 34.5758L156.17 33.0002ZM154.219 35.5548C153.453 36.0764 152.545 36.36 151.421 36.36V40.36C153.272 40.36 154.98 39.8756 156.47 38.8612L154.219 35.5548ZM151.421 36.36C150.649 36.36 150.063 36.2603 149.624 36.1093L148.321 39.8907C149.274 40.2197 150.32 40.36 151.421 40.36V36.36ZM149.645 36.1165C149.149 35.9393 148.775 35.7275 148.494 35.5023L145.995 38.6257C146.674 39.1685 147.452 39.5807 148.3 39.8835L149.645 36.1165ZM148.494 35.5023C148.109 35.1945 147.787 34.8794 147.521 34.5596L144.448 37.1204C144.902 37.6646 145.42 38.1655 145.995 38.6257L148.494 35.5023ZM145.985 33.84H145.697V37.84H145.985V33.84ZM143.739 36.252C143.819 36.6286 143.88 37.034 143.922 37.4696L147.903 37.0904C147.849 36.518 147.766 35.9634 147.654 35.428L143.739 36.252ZM143.922 37.479C143.964 37.8932 143.985 38.3068 143.985 38.72H147.985C147.985 38.1732 147.957 37.6268 147.903 37.081L143.922 37.479ZM143.985 38.72V46.64H147.985V38.72H143.985ZM145.985 44.64H140.621V48.64H145.985V44.64ZM142.621 46.64V18.344H138.621V46.64H142.621ZM140.621 20.344H144.977V16.344H140.621V20.344ZM143.059 18.9113L143.815 21.4673L147.65 20.3327L146.894 17.7767L143.059 18.9113ZM145.733 22.9H145.985V18.9H145.733V22.9ZM147.637 22.0267C147.894 21.6497 148.207 21.3004 148.582 20.9785L145.979 17.9415C145.346 18.4836 144.795 19.0943 144.332 19.7733L147.637 22.0267ZM148.622 20.9431C148.925 20.6696 149.305 20.434 149.79 20.25L148.371 16.51C147.464 16.854 146.644 17.3384 145.939 17.9769L148.622 20.9431ZM149.769 20.2578C150.226 20.0902 150.813 19.984 151.565 19.984V15.984C150.444 15.984 149.375 16.1418 148.392 16.5022L149.769 20.2578ZM149.837 20.268C148.647 20.268 147.458 20.5098 146.462 21.2022L148.747 24.4858C148.855 24.4102 149.154 24.268 149.837 24.268V20.268ZM146.462 21.2022C145.478 21.8867 144.85 22.8749 144.483 23.9755L148.278 25.2405C148.439 24.7571 148.627 24.5693 148.747 24.4858L146.462 21.2022ZM144.472 24.0115C144.156 25.0216 144.011 26.1971 143.985 27.4832L147.984 27.5648C148.006 26.4989 148.125 25.7304 148.289 25.2045L144.472 24.0115ZM143.985 27.524V28.1H147.985V27.524H143.985ZM143.985 28.1C143.985 29.4863 144.114 30.7528 144.414 31.8618L148.275 30.8182C148.095 30.1512 147.985 29.2577 147.985 28.1H143.985ZM144.417 31.8753C144.745 33.0557 145.351 34.1156 146.327 34.8881L148.81 31.7519C148.634 31.6124 148.424 31.3523 148.272 30.8047L144.417 31.8753ZM146.327 34.8881C147.36 35.7058 148.627 36.004 149.909 36.004V32.004C149.222 32.004 148.929 31.8462 148.81 31.7519L146.327 34.8881ZM149.909 36.004C151.119 36.004 152.28 35.6553 153.232 34.8336L150.617 31.8064C150.513 31.8967 150.33 32.004 149.909 32.004V36.004ZM153.232 34.8336C154.13 34.0583 154.692 33.0109 155.03 31.8739L151.195 30.7341C151.005 31.3731 150.775 31.6697 150.617 31.8064L153.232 34.8336ZM155.03 31.8739C155.365 30.7465 155.509 29.4625 155.509 28.064H151.509C151.509 29.2095 151.388 30.0855 151.195 30.7341L155.03 31.8739ZM155.509 28.064C155.509 26.0004 155.198 24.1132 154.304 22.684L150.913 24.804C151.219 25.2948 151.509 26.2876 151.509 28.064H155.509ZM154.335 22.7336C153.352 21.0559 151.72 20.268 149.837 20.268V24.268C150.497 24.268 150.713 24.4641 150.882 24.7544L154.335 22.7336Z" fill="white"/>
    <path d="M199.319 2.30032L212.861 2.63222L214.122 3.65608L203.264 4.46208L189.823 3.86195L188.643 3.24478L199.319 2.30032Z" fill="url(#paint0_radial_5376_4569)" stroke="url(#paint1_radial_5376_4569)" stroke-width="0.6"/>
    <path d="M187.661 3.40786L189.213 4.22028L177.096 14.7166L187.661 3.40786Z" fill="#8ADAC0" stroke="url(#paint2_radial_5376_4569)" stroke-width="0.6"/>
    <path d="M173.708 18.445L189.482 4.78081L190.492 20.4788L173.708 18.445Z" fill="url(#paint3_radial_5376_4569)" stroke="url(#paint4_radial_5376_4569)" stroke-width="0.6"/>
    <path d="M190.063 4.47283L202.676 5.03596L191.063 20.0102L190.063 4.47283Z" fill="url(#paint5_radial_5376_4569)" stroke="url(#paint6_radial_5376_4569)" stroke-width="0.6"/>
    <path d="M191.433 20.513L203.294 5.21874L217.904 20.1836L191.433 20.513Z" fill="url(#paint7_radial_5376_4569)" stroke="url(#paint8_radial_5376_4569)" stroke-width="0.6"/>
    <path d="M203.933 5.01412L214.66 4.21777L218.084 19.509L203.933 5.01412Z" fill="url(#paint9_radial_5376_4569)" stroke="url(#paint10_radial_5376_4569)" stroke-width="0.6"/>
    <path d="M215.415 4.84015L228.408 17.8055L218.834 20.1118L215.415 4.84015Z" fill="url(#paint11_radial_5376_4569)" stroke="url(#paint12_radial_5376_4569)" stroke-width="0.6"/>
    <path d="M190.593 21.0951L200.182 48.6775L173.753 19.0546L190.593 21.0951Z" fill="url(#paint13_radial_5376_4569)" stroke="url(#paint14_radial_5376_4569)" stroke-width="0.6"/>
    <path d="M191.235 21.1152L218.075 20.7813L201.031 49.2941L191.235 21.1152Z" fill="url(#paint15_radial_5376_4569)" stroke="url(#paint16_radial_5376_4569)" stroke-width="0.6"/>
    <path d="M218.801 20.7371L228.153 18.4845L202.919 47.3058L218.801 20.7371Z" fill="url(#paint17_radial_5376_4569)" stroke="url(#paint18_radial_5376_4569)" stroke-width="0.6"/>
    <defs>
        <radialGradient id="paint0_radial_5376_4569" cx="0" cy="0" r="1" gradientUnits="userSpaceOnUse" gradientTransform="translate(192.252 3.02274) rotate(11.6141) scale(23.8829 96.6358)">
            <stop stop-color="#89EABB"/>
            <stop offset="0.421875" stop-color="#9084D7"/>
            <stop offset="1" stop-color="#E059D3"/>
        </radialGradient>
        <radialGradient id="paint1_radial_5376_4569" cx="0" cy="0" r="1" gradientUnits="userSpaceOnUse" gradientTransform="translate(192.252 3.02274) rotate(11.6141) scale(23.8829 96.6358)">
            <stop stop-color="#4BF2A2"/>
            <stop offset="0.421875" stop-color="#564D8F"/>
            <stop offset="1" stop-color="#DD40CD"/>
        </radialGradient>
        <radialGradient id="paint2_radial_5376_4569" cx="0" cy="0" r="1" gradientUnits="userSpaceOnUse" gradientTransform="translate(175.854 8.821) rotate(62.1856) scale(30.748 260.377)">
            <stop stop-color="#4BF2A2"/>
            <stop offset="0.421875" stop-color="#564D8F"/>
            <stop offset="1" stop-color="#DD40CD"/>
        </radialGradient>
        <radialGradient id="paint3_radial_5376_4569" cx="0" cy="0" r="1" gradientUnits="userSpaceOnUse" gradientTransform="translate(176.037 10.3267) rotate(62.2356) scale(32.7718 277.183)">
            <stop stop-color="#81F0BB"/>
            <stop offset="0.666667" stop-color="#AAA0E8"/>
            <stop offset="1" stop-color="#EAAFFF"/>
        </radialGradient>
        <radialGradient id="paint4_radial_5376_4569" cx="0" cy="0" r="1" gradientUnits="userSpaceOnUse" gradientTransform="translate(176.037 10.3267) rotate(62.2356) scale(32.7718 277.183)">
            <stop stop-color="#4BF2A2"/>
            <stop offset="0.421875" stop-color="#564D8F"/>
            <stop offset="1" stop-color="#DD40CD"/>
        </radialGradient>
        <radialGradient id="paint5_radial_5376_4569" cx="0" cy="0" r="1" gradientUnits="userSpaceOnUse" gradientTransform="translate(197.99 10.6437) rotate(143.212) scale(12.284 9.32947)">
            <stop stop-color="#8877F5"/>
            <stop offset="1" stop-color="#7AECB5"/>
        </radialGradient>
        <radialGradient id="paint6_radial_5376_4569" cx="0" cy="0" r="1" gradientUnits="userSpaceOnUse" gradientTransform="translate(192.048 10.3267) rotate(68.2126) scale(31.2296 220.85)">
            <stop stop-color="#4BF2A2"/>
            <stop offset="0.421875" stop-color="#564D8F"/>
            <stop offset="1" stop-color="#DD40CD"/>
        </radialGradient>
        <radialGradient id="paint7_radial_5376_4569" cx="0" cy="0" r="1" gradientUnits="userSpaceOnUse" gradientTransform="translate(195.553 10.7076) rotate(49.5619) scale(36.7199 371.958)">
            <stop stop-color="#81F0BB"/>
            <stop offset="0.421875" stop-color="#AAA0E8"/>
            <stop offset="1" stop-color="#DD40CD"/>
        </radialGradient>
        <radialGradient id="paint8_radial_5376_4569" cx="0" cy="0" r="1" gradientUnits="userSpaceOnUse" gradientTransform="translate(195.553 10.7076) rotate(49.5619) scale(36.7199 371.958)">
            <stop stop-color="#4BF2A2"/>
            <stop offset="0.421875" stop-color="#564D8F"/>
            <stop offset="1" stop-color="#DD40CD"/>
        </radialGradient>
        <radialGradient id="paint9_radial_5376_4569" cx="0" cy="0" r="1" gradientUnits="userSpaceOnUse" gradientTransform="translate(212.622 10.3512) rotate(63.9618) scale(23.4875 19.432)">
            <stop stop-color="#8877F5"/>
            <stop offset="1" stop-color="#7AECB5"/>
        </radialGradient>
        <radialGradient id="paint10_radial_5376_4569" cx="0" cy="0" r="1" gradientUnits="userSpaceOnUse" gradientTransform="translate(205.884 10.0359) rotate(65.5028) scale(31.7021 245.444)">
            <stop stop-color="#4BF2A2"/>
            <stop offset="0.421875" stop-color="#564D8F"/>
            <stop offset="1" stop-color="#DD40CD"/>
        </radialGradient>
        <radialGradient id="paint11_radial_5376_4569" cx="0" cy="0" r="1" gradientUnits="userSpaceOnUse" gradientTransform="translate(217.301 10.0359) rotate(67.2693) scale(31.2776 228.723)">
            <stop stop-color="#89EABB"/>
            <stop offset="0.421875" stop-color="#9084D7"/>
            <stop offset="1" stop-color="#E059D3"/>
        </radialGradient>
        <radialGradient id="paint12_radial_5376_4569" cx="0" cy="0" r="1" gradientUnits="userSpaceOnUse" gradientTransform="translate(217.301 10.0359) rotate(67.2693) scale(31.2776 228.723)">
            <stop stop-color="#4BF2A2"/>
            <stop offset="0.421875" stop-color="#564D8F"/>
            <stop offset="1" stop-color="#DD40CD"/>
        </radialGradient>
        <radialGradient id="paint13_radial_5376_4569" cx="0" cy="0" r="1" gradientUnits="userSpaceOnUse" gradientTransform="translate(177.767 30.2629) rotate(66.285) scale(59.5718 450.098)">
            <stop stop-color="#81F0BB"/>
            <stop offset="0.421875" stop-color="#AAA0E8"/>
            <stop offset="1" stop-color="#DD40CD"/>
        </radialGradient>
        <radialGradient id="paint14_radial_5376_4569" cx="0" cy="0" r="1" gradientUnits="userSpaceOnUse" gradientTransform="translate(177.767 30.2629) rotate(66.285) scale(59.5718 450.098)">
            <stop stop-color="#4BF2A2"/>
            <stop offset="0.421875" stop-color="#564D8F"/>
            <stop offset="1" stop-color="#DD40CD"/>
        </radialGradient>
        <radialGradient id="paint15_radial_5376_4569" cx="0" cy="0" r="1" gradientUnits="userSpaceOnUse" gradientTransform="translate(201.152 27) rotate(77.4712) scale(18.4391 27.8031)">
            <stop stop-color="#81F0BB"/>
            <stop offset="0.421875" stop-color="#4EAE9D"/>
            <stop offset="0.760417" stop-color="#9D8FEC"/>
            <stop offset="1" stop-color="#F2A6EB"/>
        </radialGradient>
        <radialGradient id="paint16_radial_5376_4569" cx="0" cy="0" r="1" gradientUnits="userSpaceOnUse" gradientTransform="translate(195.553 31.4052) rotate(65.1323) scale(56.6376 443.395)">
            <stop stop-color="#4BF2A2"/>
            <stop offset="0.421875" stop-color="#564D8F"/>
            <stop offset="1" stop-color="#DD40CD"/>
        </radialGradient>
        <radialGradient id="paint17_radial_5376_4569" cx="0" cy="0" r="1" gradientUnits="userSpaceOnUse" gradientTransform="translate(205.74 29.829) rotate(66.68) scale(60.7018 452.784)">
            <stop stop-color="#89EABB"/>
            <stop offset="0.421875" stop-color="#9084D7"/>
            <stop offset="1" stop-color="#E059D3"/>
        </radialGradient>
        <radialGradient id="paint18_radial_5376_4569" cx="0" cy="0" r="1" gradientUnits="userSpaceOnUse" gradientTransform="translate(205.74 29.829) rotate(66.68) scale(60.7018 452.784)">
            <stop stop-color="#4BF2A2"/>
            <stop offset="0.421875" stop-color="#564D8F"/>
            <stop offset="1" stop-color="#DD40CD"/>
        </radialGradient>
    </defs>
</svg>
