<svg width="164" height="164" viewBox="0 0 164 164" fill="none" xmlns="http://www.w3.org/2000/svg">
  <rect x="1" y="1" width="162" height="162" rx="11" fill="#15151A" stroke="#1E1E2C" stroke-width="2" />
  <path
    d="M134.529 117.508H28.8315C23.7682 117.508 19.6641 113.405 19.6641 108.345H143.696C143.696 113.405 139.593 117.508 134.529 117.508Z"
    fill="#63AABC" stroke="#015165" stroke-width="1.4" />
  <path
    d="M98.5199 77.1627L101.031 76.5289C101.031 76.5289 98.3485 73.3102 98.1336 69.2337L94.5313 71.6849C93.6835 72.2617 93.3385 73.3416 93.6934 74.3029L94.3875 76.1794C100.923 88.4164 90.0612 102.401 90.0612 102.401H78.4627C70.6846 94.6265 78.4627 89.7042 78.4627 89.7042V86.9442H49.1905L47.1876 89.1739C46.1417 90.3379 46.4746 92.1732 47.8645 92.8926C54.7321 96.4488 72.2035 105.345 72.2035 105.345L94.1115 105.437L95.216 102.493L101.199 94.7645L106.354 91.4522L109.115 89.7042C107.008 81.8311 102.094 78.5387 98.5199 77.1627Z"
    fill="#63AABC" stroke="#015165" stroke-width="1.4" />
  <path
    d="M78.4613 86.9459L64.2859 86.9563H63.7005L51.4016 86.9668H49.1802L50.0374 85.9794L50.2046 85.7861C50.4346 85.2898 50.9312 84.9763 51.4748 84.9763H76.5848C77.1075 84.9763 77.5831 85.2636 77.8288 85.7234L78.4613 86.9459Z"
    fill="#63AABC" stroke="#015165" stroke-width="1.4" />
  <path
    d="M118.398 103.827C118.398 109.982 113.405 114.972 107.247 114.972C101.089 114.972 96.0967 109.982 96.0967 103.827C96.0967 97.6717 101.089 92.6819 107.247 92.6819C113.405 92.6819 118.398 97.6717 118.398 103.827Z"
    fill="#63AABC" stroke="#015165" stroke-width="1.4" />
  <path
    d="M69.8382 103.827C69.8382 109.982 64.8455 114.972 58.6871 114.972C52.5293 114.972 47.5371 109.982 47.5371 103.827C47.5371 97.6717 52.5293 92.6819 58.6871 92.6819C64.8455 92.6819 69.8382 97.6717 69.8382 103.827Z"
    fill="#63AABC" stroke="#015165" stroke-width="1.4" />
  <path
    d="M101.319 76.1734C101.235 76.3667 101.136 76.4921 101.015 76.5182C100.299 76.6906 99.0136 73.4463 98.8934 73.1485C98.7784 72.8559 97.5187 69.5907 98.1668 69.2302C98.2661 69.1728 98.4177 69.1885 98.5902 69.2616C99.2958 69.5489 100.472 70.7819 101.057 72.2342C101.653 73.7179 101.632 75.4472 101.319 76.1734Z"
    fill="#63AABC" stroke="#015165" stroke-width="1.4" />
  <path
    d="M101.319 76.1733C100.587 75.6822 99.5833 73.1432 99.484 72.8768C99.3847 72.6312 98.4334 70.1601 98.5902 69.2615C99.2958 69.5489 100.472 70.7818 101.057 72.2342C101.653 73.7179 101.632 75.4471 101.319 76.1733Z"
    fill="#63AABC" stroke="#015165" stroke-width="1.4" />
  <path
    d="M108.544 102.547L111.772 101.103C110.577 99.3935 108.444 98.5788 106.412 99.0573L107.873 102.322C108.03 102.522 108.295 102.612 108.544 102.547ZM109.064 104.982L110.516 108.227C112.227 107.032 113.041 104.9 112.563 102.87L109.371 104.297C109.131 104.437 109.009 104.715 109.064 104.982ZM106.568 105.55L103.389 106.971C104.584 108.681 106.718 109.496 108.749 109.017L107.34 105.871C107.197 105.588 106.867 105.453 106.568 105.55ZM102.598 105.205L105.768 103.788C106.027 103.648 106.155 103.352 106.088 103.072L104.645 99.8475C102.934 101.042 102.12 103.175 102.598 105.205Z"
    fill="#63AABC" stroke="#015165" stroke-width="1.4" />
  <path
    d="M112.252 101.949C112.387 102.251 112.49 102.559 112.564 102.87L109.371 104.297C109.131 104.437 109.01 104.715 109.065 104.982L110.517 108.227C110.255 108.41 109.972 108.571 109.67 108.706C109.368 108.841 109.06 108.944 108.749 109.017L107.341 105.871C107.197 105.587 106.867 105.453 106.568 105.55L103.389 106.971C103.206 106.71 103.046 106.427 102.911 106.125C102.775 105.824 102.672 105.516 102.599 105.205L105.769 103.788C106.027 103.648 106.156 103.352 106.089 103.072L104.646 99.8475C104.907 99.6649 105.19 99.504 105.492 99.3689C105.794 99.2339 106.102 99.1305 106.413 99.0573L107.874 102.322C108.031 102.522 108.295 102.612 108.544 102.547L111.773 101.103C111.956 101.365 112.117 101.647 112.252 101.949Z"
    fill="#63AABC" stroke="#015165" stroke-width="1.4" />
  <path
    d="M59.5851 103.069L62.8138 101.626C61.6186 99.916 59.4853 99.1014 57.4537 99.5799L58.9146 102.844C59.0716 103.044 59.3361 103.135 59.5851 103.069ZM60.1053 105.505L61.5575 108.75C63.2685 107.555 64.0829 105.422 63.6043 103.392L60.4123 104.819C60.1721 104.959 60.0504 105.238 60.1053 105.505ZM57.6092 106.073L54.4301 107.494C55.6253 109.204 57.7591 110.018 59.7902 109.54L58.382 106.393C58.2381 106.11 57.9082 105.976 57.6092 106.073ZM53.6395 105.728L56.8096 104.31C57.0683 104.17 57.1969 103.874 57.1294 103.594L55.6864 100.37C53.9759 101.565 53.161 103.697 53.6395 105.728Z"
    fill="#63AABC" stroke="#015165" stroke-width="1.4" />
  <path
    d="M63.2938 102.472C63.4289 102.773 63.5324 103.081 63.6056 103.392L60.4131 104.819C60.1728 104.96 60.0516 105.237 60.1065 105.505L61.5587 108.75C61.297 108.932 61.0144 109.093 60.7124 109.228C60.4104 109.363 60.1018 109.467 59.7914 109.54L58.3832 106.393C58.2387 106.11 57.9094 105.975 57.6099 106.073L54.4313 107.494C54.2484 107.232 54.0876 106.95 53.9525 106.648C53.8174 106.346 53.714 106.038 53.6408 105.727L56.8103 104.31C57.069 104.171 57.1976 103.875 57.1306 103.594L55.6876 100.37C55.9489 100.187 56.2319 100.027 56.5339 99.8915C56.8359 99.7564 57.1441 99.653 57.4549 99.5799L58.9158 102.844C59.0729 103.044 59.3373 103.135 59.5863 103.069L62.815 101.626C62.9979 101.887 63.1587 102.17 63.2938 102.472Z"
    fill="#63AABC" stroke="#015165" stroke-width="1.4" />
  <path
    d="M94.9801 105.15L119.751 98.8328C119.259 97.4447 118.248 95.2474 116.139 93.2C114.997 92.0924 113.832 91.3171 112.863 90.7816C112.31 90.452 108.137 88.0598 103.043 89.6955C98.8161 91.0533 96.8367 94.2584 96.4175 94.9757C95.8117 95.7902 94.7449 97.4479 94.3769 99.7591C93.9771 102.273 94.6132 104.237 94.9801 105.15Z"
    fill="#63AABC" stroke="#015165" stroke-width="1.4" />
  <path
    d="M42.9512 103.378V102.583C42.9512 95.8256 48.4316 90.3479 55.192 90.3479H59.6145C66.3745 90.3479 71.8549 95.8256 71.8549 102.583V103.725C71.8549 104.717 71.0473 105.516 70.0558 105.501C64.8571 105.419 49.8596 105.188 44.7111 105.153C43.7347 105.147 42.9512 104.354 42.9512 103.378Z"
    fill="#63AABC" stroke="#015165" stroke-width="1.4" />
  <path
    d="M89.8244 73.6135C89.4951 74.883 89.1083 74.8099 88.5124 75.1651C87.9165 75.5256 86.8398 75.1651 85.8833 75.0502C84.9268 74.93 80.6825 73.2896 80.2016 73.1747C79.9508 73.112 79.773 73.7232 79.6528 74.4076C79.5535 75.0241 79.5012 75.7032 79.5012 75.9853C79.5012 76.419 80.0344 77.3907 80.51 78.0751C80.6982 78.3415 80.8759 78.5662 81.0066 78.702C81.4875 79.1774 84.5086 80.8022 85.7003 82.3538C85.7265 82.3851 85.7526 82.4217 85.7735 82.4583C86.2596 83.174 86.5732 84.6264 86.7771 86.0996C87.0541 88.0953 87.1273 90.1433 87.1273 90.4776C87.1273 91.0784 86.5994 93.3301 86.5994 93.3301C86.5994 93.3301 88.0002 96.2244 88.0002 97.4207C88.0002 98.6171 83.735 98.3193 82.2976 97.7238C80.8655 97.1282 82.1774 94.5421 81.7018 91.1986C81.2209 87.855 78.4088 86.2355 77.6875 85.6399C76.9714 85.0391 70.5894 85.5563 69.1572 83.0486C67.7198 80.541 69.2722 71.8216 69.2722 67.7623C69.2722 63.703 72.0215 61.911 72.0215 61.911L72.9781 61.4304L78.9524 63.9433C78.9524 63.9433 80.1546 64.7792 81.7331 65.8763C82.6792 66.5398 83.7612 67.2921 84.8013 68.0182C86.8503 69.4549 88.7215 70.7819 89.056 71.064C90.2216 72.0462 90.07 72.6888 89.8244 73.6135Z"
    fill="#63AABC" stroke="#015165" stroke-width="1.4" />
  <path
    d="M86.777 86.0994C86.2491 85.9584 85.6898 85.6345 85.2978 84.971C84.7438 84.0254 85.2351 83.0537 85.7735 82.4581C86.2596 83.1738 86.5732 84.6262 86.777 86.0994Z"
    fill="#63AABC" stroke="#015165" stroke-width="1.4" />
  <path
    d="M86.777 86.0994C86.2491 85.9584 85.6898 85.6345 85.2978 84.971C84.7438 84.0254 85.2351 83.0537 85.7735 82.4581C86.2596 83.1738 86.5732 84.6262 86.777 86.0994Z"
    fill="#63AABC" stroke="#015165" stroke-width="1.4" stroke-miterlimit="10" />
  <path
    d="M80.5103 78.075C79.6896 78.3467 78.2575 77.3489 78.017 76.9884C77.7662 76.607 77.8289 75.0972 78.017 74.3397C78.2052 73.5874 79.6201 73.7592 79.6201 73.7592L79.7451 73.8898C79.6457 74.5063 79.5015 75.7032 79.5015 75.9853C79.5015 76.4189 80.0346 77.3907 80.5103 78.075Z"
    fill="#63AABC" stroke="#015165" stroke-width="1.4" />
  <path
    d="M80.5103 78.075C79.6896 78.3467 78.2575 77.3489 78.017 76.9884C77.7662 76.607 77.8289 75.0972 78.017 74.3397C78.2052 73.5874 79.6201 73.7592 79.6201 73.7592L79.7451 73.8898C79.6457 74.5063 79.5015 75.7032 79.5015 75.9853C79.5015 76.4189 80.0346 77.3907 80.5103 78.075Z"
    fill="#63AABC" stroke="#015165" stroke-width="1.4" stroke-miterlimit="10" />
  <path
    d="M89.8244 73.6135C89.4951 74.883 89.1083 74.8099 88.5124 75.1651C87.9165 75.5256 86.8398 75.1651 85.8833 75.0502C84.9268 74.93 80.6825 73.2896 80.2016 73.1747C79.9508 73.112 79.773 73.7232 79.6528 74.4076C79.5535 75.0241 79.5012 75.7032 79.5012 75.9853C79.5012 76.419 80.0344 77.3907 80.51 78.0751C80.6982 78.3415 80.8759 78.5662 81.0066 78.702C81.4875 79.1774 84.5086 80.8022 85.7003 82.3538C85.7265 82.3851 85.7526 82.4217 85.7735 82.4583C86.2596 83.174 86.5732 84.6264 86.7771 86.0996C87.0541 88.0953 87.1273 90.1433 87.1273 90.4776C87.1273 91.0784 86.5994 93.3301 86.5994 93.3301C86.5994 93.3301 88.0002 96.2244 88.0002 97.4207C88.0002 98.6171 83.735 98.3193 82.2976 97.7238C80.8655 97.1282 82.1774 94.5421 81.7018 91.1986C81.2209 87.855 78.4088 86.2355 77.6875 85.6399C76.9714 85.0391 70.5894 85.5563 69.1572 83.0486C67.7198 80.541 69.2722 71.8216 69.2722 67.7623C69.2722 63.703 72.0215 61.911 72.0215 61.911L72.9781 61.4304L78.9524 63.9433C78.9524 63.9433 80.1546 64.7792 81.7331 65.8763C82.6792 66.5398 83.7612 67.2921 84.8013 68.0182C86.8503 69.4549 88.7215 70.7819 89.056 71.064C90.2216 72.0462 90.07 72.6888 89.8244 73.6135Z"
    fill="#63AABC" stroke="#015165" stroke-width="1.4" stroke-miterlimit="10" />
  <path
    d="M72.6189 59.1719L77.8071 60.6718L81.3703 63.2338L81.1168 64.2442C81.0478 64.5195 80.7781 64.6914 80.4984 64.6428C79.2827 64.4312 76.9023 64.1517 75.2726 63.4757C73.5576 62.7647 73.2268 62.5186 72.1824 61.5176C72.011 61.3536 71.7894 60.6875 71.9033 60.4796L72.6189 59.1719Z"
    fill="#63AABC" stroke="#015165" stroke-width="1.4" />
  <path
    d="M72.6189 59.1719L77.8071 60.6718L81.3703 63.2338L81.1168 64.2442C81.0478 64.5195 80.7781 64.6914 80.4984 64.6428C79.2827 64.4312 76.9023 64.1517 75.2726 63.4757C73.5576 62.7647 73.2268 62.5186 72.1824 61.5176C72.011 61.3536 71.7894 60.6875 71.9033 60.4796L72.6189 59.1719Z"
    fill="#63AABC" stroke="#015165" stroke-width="1.4" stroke-miterlimit="10" />
  <path
    d="M72.2645 60.0271L71.5877 59.0893C70.3201 57.9358 69.8983 56.183 69.799 54.6904C69.6391 52.2852 70.593 49.8893 72.5337 48.4583C75.0395 46.6105 77.9723 46.8696 77.9723 46.8696C80.4608 47.0227 84.0805 47.7807 85.3114 50.78C85.3114 50.78 84.1071 61.4821 84.1071 61.6106C84.1071 61.7391 83.7318 62.8017 83.7318 62.8017C83.7318 62.8017 83.7073 62.855 83.6555 62.9381C83.2473 63.5958 82.4403 63.8905 81.6897 63.6998C81.3729 63.6193 81.0452 63.5368 80.9344 63.5133C80.9344 63.5133 77.0691 62.644 72.85 60.5286C72.6174 60.4121 72.4166 60.2382 72.2645 60.0271Z"
    fill="#63AABC" stroke="#015165" stroke-width="1.4" />
  <path
    d="M72.2645 60.0271L71.5877 59.0893C70.3201 57.9358 69.8983 56.183 69.799 54.6904C69.6391 52.2852 70.593 49.8893 72.5337 48.4583C75.0395 46.6105 77.9723 46.8696 77.9723 46.8696C80.4608 47.0227 84.0805 47.7807 85.3114 50.78C85.3114 50.78 84.1071 61.4821 84.1071 61.6106C84.1071 61.7391 83.7318 62.8017 83.7318 62.8017C83.7318 62.8017 83.7073 62.855 83.6555 62.9381C83.2473 63.5958 82.4403 63.8905 81.6897 63.6998C81.3729 63.6193 81.0452 63.5368 80.9344 63.5133C80.9344 63.5133 77.0691 62.644 72.85 60.5286C72.6174 60.4121 72.4166 60.2382 72.2645 60.0271Z"
    fill="#63AABC" stroke="#015165" stroke-width="1.4" stroke-miterlimit="10" />
  <path
    d="M84.7082 61.2841C84.703 61.2893 84.6977 61.2945 84.6925 61.2998C84.1175 61.9005 83.3126 62.2088 82.5965 61.7804C80.9971 60.8191 78.3261 59.4712 77.8819 59.3615C77.286 59.2152 74.1446 57.3449 74.5941 53.6827C75.0436 50.0257 78.3314 49.0539 78.3314 49.0539C80.349 48.38 82.8056 48.3016 84.3946 49.4771C84.4416 49.5137 84.4887 49.545 84.5305 49.5868C85.7902 50.5847 86.4226 52.1363 86.6055 53.4633C86.9976 56.3784 86.0724 59.8526 84.7082 61.2841Z"
    fill="#63AABC" stroke="#015165" stroke-width="1.4" />
  <path
    d="M84.7083 61.2841C84.3895 61.3624 84.0602 61.3311 83.7466 61.143C82.304 60.2758 79.8944 59.0637 79.4919 58.9645C78.9535 58.8286 76.1206 57.1412 76.5283 53.8394C76.9307 50.5376 79.8996 49.6599 79.8996 49.6599C81.3945 49.1636 83.156 49.0226 84.5306 49.5868C85.7903 50.5846 86.4228 52.1363 86.6057 53.4632C86.9977 56.3784 86.0726 59.8526 84.7083 61.2841Z"
    fill="#63AABC" stroke="#015165" stroke-width="1.4" />
  <path
    d="M71.6509 62.767L71.468 66.2046L71.2014 74.3546L70.6996 78.0273L70.4853 79.6207C70.339 80.6969 69.4504 81.5276 68.3475 81.6112L68.0078 81.6373C67.9555 81.6425 67.9033 81.6425 67.8458 81.6425C66.492 81.6895 65.2375 80.9163 64.6783 79.6938L63.4395 76.9615C63.2252 76.4965 63.1259 75.9898 63.1468 75.4778L63.5806 65.3844C63.5858 65.1336 63.6329 64.8776 63.7008 64.6321L64.5528 61.649C64.9605 60.2175 66.2934 59.2406 67.783 59.2406C67.851 59.2406 67.9294 59.2406 67.9973 59.2458C68.1541 59.2563 68.3057 59.2772 68.4521 59.3085C69.0323 59.4235 69.5654 59.6794 70.0097 60.066L71.6509 62.767Z"
    fill="#63AABC" stroke="#015165" stroke-width="1.4" />
  <path
    d="M71.6502 62.7678L71.4668 66.2054L71.2007 74.3553L70.6984 78.028C70.39 78.284 69.9985 78.446 69.5699 78.4773L69.2824 78.5035C69.2302 78.5087 69.1878 78.5087 69.1408 78.5087C67.9752 78.5452 66.899 77.8818 66.4181 76.8317L65.3461 74.4807C65.1631 74.0837 65.0795 73.6448 65.1004 73.206C64.4172 67.7335 64.8181 65.6913 65.3476 64.8685C65.563 64.5336 66.2012 63.7771 66.2456 62.6842C66.2665 62.1733 66.1505 61.8812 66.3083 61.3102C66.4881 60.6593 66.8843 60.223 67.1091 60.014C67.6333 59.5256 68.1989 59.3652 68.4508 59.3093C69.031 59.4242 69.5647 59.6802 70.009 60.0668L71.6502 62.7678Z"
    fill="#63AABC" stroke="#015165" stroke-width="1.4" />
  <path
    d="M71.4701 66.2062L71.2014 74.3572L70.4853 79.6228C70.3395 80.6979 69.4483 81.527 68.3465 81.6122L68.0088 81.6383C67.9523 81.6446 67.9022 81.6446 67.8457 81.6446C66.4914 81.6874 65.2365 80.9179 64.6782 79.6933L63.4368 76.961C63.2236 76.4992 63.1232 75.9882 63.1483 75.4778L63.5811 65.3844C63.5874 65.1321 63.6313 64.8792 63.7003 64.6326L64.5533 61.648C64.961 60.2202 66.2907 59.2416 67.783 59.2416C67.852 59.2416 67.9273 59.2416 67.9963 59.2474C68.7427 59.297 69.4514 59.5802 70.0097 60.066L71.6509 62.7691L71.4701 66.2062Z"
    fill="#63AABC" stroke="#015165" stroke-width="1.4" stroke-miterlimit="10" />
  <path
    d="M84.8026 68.0184C84.4576 68.1908 84.0552 68.3162 83.7572 68.3789C83.0255 68.5356 82.5028 68.0654 81.7762 67.4385C81.3476 67.0728 81.5097 66.3988 81.7344 65.8764C82.6805 66.5399 83.7625 67.2922 84.8026 68.0184Z"
    fill="#63AABC" stroke="#015165" stroke-width="1.4" />
  <path d="M81.8853 73.7597C81.4045 70.4005 83.03 67.5898 83.03 67.5898L81.8853 73.7597Z" fill="#63AABC" />
  <path d="M81.8853 73.7597C81.4045 70.4005 83.03 67.5898 83.03 67.5898" stroke="#015165" stroke-width="1.4"
    stroke-miterlimit="10" />
  <path
    d="M84.708 61.2841C84.7028 61.2893 84.6975 61.2945 84.6923 61.2998C84.1173 61.9005 83.3124 62.2088 82.5963 61.7804C80.9969 60.8191 79.156 59.8082 77.8816 59.3615C77.3025 59.1588 74.1444 57.3449 74.5939 53.6827C75.0434 50.0257 78.3312 49.0539 78.3312 49.0539C80.3487 48.38 82.8054 48.3016 84.3944 49.4771C84.4414 49.5137 84.4884 49.545 84.5303 49.5868C85.7899 50.5847 86.4224 52.1363 86.6053 53.4633C86.9974 56.3784 86.0722 59.8526 84.708 61.2841Z"
    fill="#63AABC" stroke="#015165" stroke-width="1.4" stroke-miterlimit="10" />
  <path
    d="M65.6957 61.7375L65.7004 61.7412C65.7652 61.9977 65.8938 62.6513 65.6235 63.402C65.4181 63.9715 65.0773 64.3372 64.8845 64.5164C64.5787 64.5979 64.4532 64.078 64.6445 63.519L65.0522 62.3263C65.2059 61.8765 65.4991 61.6085 65.6957 61.7375Z"
    fill="#63AABC" stroke="#015165" stroke-width="1.4" />
  <path
    d="M68.3407 66.6715L68.3527 66.673C68.7667 66.7347 69.0573 67.1134 69.0097 67.5288L68.8765 68.6927C68.8409 69.0052 68.6203 69.2648 68.3177 69.351C67.7893 69.501 67.276 69.0699 67.333 68.524L67.4547 67.3585C67.5002 66.9191 67.9037 66.6067 68.3407 66.6715Z"
    fill="#63AABC" stroke="#015165" stroke-width="1.4" />
  <path
    d="M68.3407 66.6715L68.3527 66.673C68.7667 66.7347 69.0573 67.1134 69.0097 67.5288L68.8765 68.6927C68.8409 69.0052 68.6203 69.2648 68.3177 69.351C67.7893 69.501 67.276 69.0699 67.333 68.524L67.4547 67.3585C67.5002 66.9191 67.9037 66.6067 68.3407 66.6715Z"
    fill="#63AABC" stroke="#015165" stroke-width="1.4" stroke-miterlimit="10" />
  <path
    d="M68.8969 62.298L68.9089 62.2996C69.3228 62.3612 69.6135 62.74 69.5659 63.1553L69.4326 64.3193C69.3971 64.6317 69.1765 64.8914 68.8739 64.9776C68.3454 65.1275 67.8321 64.6965 67.8891 64.1506L68.0109 62.985C68.0564 62.5456 68.4599 62.2332 68.8969 62.298Z"
    fill="#63AABC" stroke="#015165" stroke-width="1.4" />
  <path
    d="M68.8969 62.298L68.9089 62.2996C69.3228 62.3612 69.6135 62.74 69.5659 63.1553L69.4326 64.3193C69.3971 64.6317 69.1765 64.8914 68.8739 64.9776C68.3454 65.1275 67.8321 64.6965 67.8891 64.1506L68.0109 62.985C68.0564 62.5456 68.4599 62.2332 68.8969 62.298Z"
    fill="#63AABC" stroke="#015165" stroke-width="1.4" stroke-miterlimit="10" />
  <path
    d="M67.9264 70.9611L67.9384 70.9627C68.3524 71.0238 68.6435 71.402 68.5965 71.8179L68.4648 72.9819C68.4292 73.2938 68.2092 73.5539 67.9066 73.6407C67.3786 73.7911 66.8643 73.3612 66.9208 72.8147L67.0405 71.6492C67.0859 71.2098 67.4889 70.8968 67.9264 70.9611Z"
    fill="#63AABC" stroke="#015165" stroke-width="1.4" />
  <path
    d="M67.9264 70.9611L67.9384 70.9627C68.3524 71.0238 68.6435 71.402 68.5965 71.8179L68.4648 72.9819C68.4292 73.2938 68.2092 73.5539 67.9066 73.6407C67.3786 73.7911 66.8643 73.3612 66.9208 72.8147L67.0405 71.6492C67.0859 71.2098 67.4889 70.8968 67.9264 70.9611Z"
    fill="#63AABC" stroke="#015165" stroke-width="1.4" stroke-miterlimit="10" />
  <path
    d="M65.3129 62.4662C65.3265 62.5785 65.3417 62.8298 65.2188 63.1098C65.1117 63.3548 64.9507 63.5037 64.8639 63.5743C64.6387 63.4484 64.3214 63.2441 63.9984 62.9291C63.8217 62.7561 63.6874 62.5905 63.5614 62.4265C61.64 59.9287 61.3933 56.5094 63.0753 53.845C65.9977 49.2147 70.2863 51.1226 70.2863 51.1226L69.771 52.0886C69.771 52.0886 68.3409 52.0489 67.8062 52.1382C67.8009 52.1393 67.7947 52.1393 67.7894 52.1403C66.0264 52.4334 64.5231 53.6005 63.8327 55.2483C63.0356 57.1499 62.5202 60.0975 65.3129 62.4662Z"
    fill="#63AABC" stroke="#015165" stroke-width="1.4" />
  <path
    d="M65.3129 62.4662C65.3265 62.5785 65.3417 62.8298 65.2188 63.1098C65.1117 63.3548 64.9507 63.5037 64.8639 63.5743C64.6387 63.4484 64.3214 63.2441 63.9984 62.9291C63.8217 62.7561 63.6874 62.5905 63.5614 62.4265C61.64 59.9287 61.3933 56.5094 63.0753 53.845C65.9977 49.2147 70.2863 51.1226 70.2863 51.1226L69.771 52.0886C69.771 52.0886 68.3409 52.0489 67.8062 52.1382C67.8009 52.1393 67.7947 52.1393 67.7894 52.1403C66.0264 52.4334 64.5231 53.6005 63.8327 55.2483C63.0356 57.1499 62.5202 60.0975 65.3129 62.4662Z"
    fill="#63AABC" stroke="#015165" stroke-width="1.4" stroke-miterlimit="10" />
  <path
    d="M81.4208 50.7793C81.4208 50.7793 79.697 50.5333 78.8351 52.3795C77.9732 54.2253 79.2041 54.9645 79.2041 54.9645C79.2041 54.9645 78.5889 52.133 81.4208 50.7793Z"
    fill="#63AABC" stroke="#015165" stroke-width="1.4" />
  <path
    d="M89.7881 72.2306C89.8028 72.2369 89.8179 72.2426 89.8326 72.2489C90.1577 72.3821 90.3244 72.7891 90.2047 73.1558L89.7353 74.592C89.5911 75.035 89.1092 75.1954 88.7752 74.9122C88.5609 74.7304 88.473 74.4144 88.5567 74.127L88.9811 72.6726C89.0914 72.2943 89.4567 72.0942 89.7881 72.2306Z"
    fill="#63AABC" stroke="#015165" stroke-width="1.4" />
  <path
    d="M89.7881 72.2306C89.8028 72.2369 89.8179 72.2426 89.8326 72.2489C90.1577 72.3821 90.3244 72.7891 90.2047 73.1558L89.7353 74.592C89.5911 75.035 89.1092 75.1954 88.7752 74.9122C88.5609 74.7304 88.473 74.4144 88.5567 74.127L88.9811 72.6726C89.0914 72.2943 89.4567 72.0942 89.7881 72.2306Z"
    fill="#63AABC" stroke="#015165" stroke-width="1.4" stroke-miterlimit="10" />
  <path
    d="M90.2687 72.6211L92.2006 71.9926C92.2006 71.9926 94.3844 71.4258 94.7529 71.9926C95.1219 72.56 95.2918 73.4951 95.0649 74.0338C94.8381 74.5724 94.1293 74.6011 93.9589 74.4313C93.7885 74.261 92.7395 73.6942 92.5978 73.8927C92.4557 74.0912 91.8321 74.5447 92.1154 75.0264C92.3992 75.5081 92.9093 75.7066 92.8247 76.2734C92.7395 76.8408 92.5691 77.1809 92.3992 77.124C92.2288 77.0675 91.2644 76.6135 91.1228 76.1319C90.9811 75.6502 90.2719 75.3378 89.5913 74.8274C89.1523 74.4982 89.3801 73.7339 89.5971 73.2334C89.723 72.9419 89.9666 72.7193 90.2687 72.6211Z"
    fill="#63AABC" stroke="#015165" stroke-width="1.4" />
  <path
    d="M90.2687 72.6211L92.2006 71.9926C92.2006 71.9926 94.3844 71.4258 94.7529 71.9926C95.1219 72.56 95.2918 73.4951 95.0649 74.0338C94.8381 74.5724 94.1293 74.6011 93.9589 74.4313C93.7885 74.261 92.7395 73.6942 92.5978 73.8927C92.4557 74.0912 91.8321 74.5447 92.1154 75.0264C92.3992 75.5081 92.9093 75.7066 92.8247 76.2734C92.7395 76.8408 92.5691 77.1809 92.3992 77.124C92.2288 77.0675 91.2644 76.6135 91.1228 76.1319C90.9811 75.6502 90.2719 75.3378 89.5913 74.8274C89.1523 74.4982 89.3801 73.7339 89.5971 73.2334C89.723 72.9419 89.9666 72.7193 90.2687 72.6211Z"
    fill="#63AABC" stroke="#015165" stroke-width="1.4" stroke-miterlimit="10" />
  <path
    d="M94.3565 74.9494C94.3565 75.6886 93.757 76.2884 93.0168 76.2884C92.2772 76.2884 91.6782 75.6886 91.6782 74.9494C91.6782 74.2101 92.2772 73.6104 93.0168 73.6104C93.757 73.6104 94.3565 74.2101 94.3565 74.9494Z"
    fill="#63AABC" stroke="#015165" stroke-width="1.4" />
  <path
    d="M64.2854 86.9564H63.7L51.4011 86.9668L50.0369 85.9794L46.9007 83.7277C46.6812 83.571 46.5401 83.3254 46.5139 83.0538L46.3937 81.8208L46.3728 81.5805C46.3153 81.0267 46.7491 80.5513 47.3032 80.5513H56.2778C57.0148 80.5513 57.7204 80.8282 58.2535 81.3298L62.1633 84.9763L64.2854 86.9564Z"
    fill="#63AABC" stroke="#015165" stroke-width="1.4" />
  <path
    d="M63.7003 86.9561L51.4014 86.9666L50.0372 85.9792L46.9011 83.7275C46.6815 83.5708 46.5404 83.3252 46.5143 83.0536L46.394 81.8206C46.4881 81.4079 46.854 81.0997 47.3035 81.0997H56.2781C57.0151 81.0997 57.7207 81.3766 58.2539 81.8781L61.5782 84.9761L63.7003 86.9561Z"
    fill="#63AABC" stroke="#015165" stroke-width="1.4" />
  <path
    d="M53.2796 84.9428C53.1745 84.9428 53.0836 84.9219 53.0062 84.8806C52.9288 84.8388 52.8687 84.7793 52.8259 84.702C52.7846 84.6231 52.7637 84.5311 52.7637 84.4235V83.7783C52.7637 83.7527 52.7705 83.7328 52.7846 83.7187C52.7992 83.7041 52.8196 83.6963 52.8452 83.6963C52.8703 83.6963 52.8907 83.7041 52.9058 83.7187C52.9205 83.7328 52.9283 83.7527 52.9283 83.7783V84.4287C52.9283 84.5499 52.9586 84.6434 53.0198 84.7093C53.082 84.7751 53.1698 84.808 53.2832 84.808C53.3961 84.808 53.4845 84.7746 53.5477 84.7077C53.6115 84.6403 53.6434 84.5478 53.6434 84.4287V83.7783C53.6434 83.7527 53.6507 83.7328 53.6658 83.7187C53.6805 83.7041 53.7009 83.6963 53.7265 83.6963C53.7516 83.6963 53.7714 83.7041 53.785 83.7187C53.7991 83.7328 53.8059 83.7527 53.8059 83.7783V84.4235C53.8059 84.5275 53.7845 84.6189 53.7416 84.6973C53.6993 84.7756 53.6381 84.8362 53.5582 84.8785C53.4798 84.9214 53.3867 84.9428 53.2796 84.9428Z"
    fill="#63AABC" stroke="#015165" stroke-width="1.4" />
  <path
    d="M54.1182 84.9428C54.0925 84.9428 54.0727 84.936 54.0575 84.9219C54.0439 84.9073 54.0366 84.8869 54.0366 84.8613V84.1738C54.0366 84.0761 54.0581 83.9914 54.0999 83.9204C54.1412 83.8488 54.2002 83.794 54.2776 83.7558C54.356 83.7166 54.449 83.6963 54.5551 83.6963C54.6612 83.6963 54.7527 83.7166 54.8301 83.7558C54.9085 83.794 54.9686 83.8488 55.0104 83.9204C55.0517 83.9914 55.0726 84.0761 55.0726 84.1738V84.8613C55.0726 84.8869 55.0653 84.9073 55.0501 84.9219C55.036 84.936 55.0167 84.9428 54.9911 84.9428C54.966 84.9428 54.9456 84.936 54.9304 84.9219C54.9158 84.9073 54.9079 84.8869 54.9079 84.8613V84.1691C54.9079 84.0615 54.8771 83.9789 54.8144 83.9204C54.7532 83.8614 54.667 83.8316 54.5551 83.8316C54.4443 83.8316 54.357 83.8614 54.2948 83.9214C54.2326 83.9805 54.2013 84.0625 54.2013 84.1691V84.8613C54.2013 84.8869 54.194 84.9073 54.1788 84.9219C54.1636 84.936 54.1438 84.9428 54.1182 84.9428Z"
    fill="#63AABC" stroke="#015165" stroke-width="1.4" />
  <path
    d="M55.4453 84.9428C55.4212 84.9428 55.4013 84.936 55.3861 84.9219C55.3725 84.9073 55.3657 84.8869 55.3657 84.8613V83.7783C55.3657 83.7527 55.3725 83.7328 55.3861 83.7187C55.4013 83.7041 55.4212 83.6963 55.4453 83.6963C55.4709 83.6963 55.4913 83.7041 55.5065 83.7187C55.5217 83.7328 55.529 83.7527 55.529 83.7783V84.8613C55.529 84.8869 55.5217 84.9073 55.5065 84.9219C55.4913 84.936 55.4709 84.9428 55.4453 84.9428Z"
    fill="#63AABC" stroke="#015165" stroke-width="1.4" />
  <path
    d="M56.3093 84.943C56.2837 84.943 56.2643 84.9362 56.2502 84.9221C56.2366 84.9074 56.2298 84.8871 56.2298 84.8615V83.8459H55.854C55.8284 83.8459 55.8085 83.8406 55.7934 83.8302C55.7798 83.8187 55.7725 83.8025 55.7725 83.7821C55.7725 83.7367 55.7996 83.7142 55.854 83.7142H56.7698C56.7954 83.7142 56.8147 83.7199 56.8288 83.732C56.8424 83.7435 56.8492 83.7602 56.8492 83.7821C56.8492 83.8014 56.8424 83.8171 56.8288 83.8286C56.8147 83.8401 56.7954 83.8459 56.7698 83.8459H56.3939V84.8615C56.3939 84.8871 56.3866 84.9074 56.3715 84.9221C56.3568 84.9362 56.3359 84.943 56.3093 84.943Z"
    fill="#63AABC" stroke="#015165" stroke-width="1.4" />
  <path
    d="M57.0191 84.9428C56.9935 84.9428 56.9731 84.936 56.9584 84.9219C56.9443 84.9073 56.937 84.8864 56.937 84.8608V84.2088C56.937 84.0484 56.983 83.923 57.0745 83.8331C57.1654 83.7422 57.2914 83.6963 57.4519 83.6963C57.558 83.6963 57.6494 83.7172 57.7268 83.759C57.8052 83.7992 57.8648 83.8577 57.905 83.935C57.9468 84.0123 57.9678 84.1038 57.9678 84.2088V84.8608C57.9678 84.8864 57.9599 84.9073 57.9453 84.9219C57.9301 84.936 57.9097 84.9428 57.8846 84.9428C57.8601 84.9428 57.8407 84.936 57.8256 84.9219C57.8104 84.9073 57.8031 84.8864 57.8031 84.8608V84.5087H57.1001V84.8608C57.1001 84.8864 57.0928 84.9073 57.0776 84.9219C57.064 84.936 57.0442 84.9428 57.0191 84.9428ZM57.8031 84.3765V84.2036C57.8031 84.0834 57.7733 83.992 57.7132 83.9282C57.6531 83.864 57.5658 83.8316 57.4519 83.8316C57.3374 83.8316 57.2501 83.8629 57.1905 83.9267C57.1304 83.9888 57.1001 84.0813 57.1001 84.2036V84.3765H57.8031Z"
    fill="#63AABC" stroke="#015165" stroke-width="1.4" />
  <path
    d="M58.2876 84.943C58.262 84.943 58.2421 84.9362 58.227 84.9226C58.2134 84.9074 58.2061 84.8871 58.2061 84.862V83.9373C58.2061 83.8683 58.227 83.814 58.2683 83.7748C58.3101 83.7346 58.3676 83.7142 58.4418 83.7142H58.734C58.9028 83.7142 59.0298 83.7492 59.115 83.8197C59.2002 83.8903 59.2431 83.9942 59.2431 84.1327C59.2431 84.2643 59.1997 84.3657 59.1134 84.4362C59.0277 84.5052 58.9044 84.5402 58.7429 84.5402H58.3691V84.862C58.3691 84.8871 58.3613 84.9074 58.3467 84.9226C58.3325 84.9362 58.3132 84.943 58.2876 84.943ZM58.7429 84.408C58.85 84.408 58.9326 84.3871 58.9906 84.3443C59.0481 84.3009 59.0769 84.2298 59.0769 84.1327C59.0769 84.0324 59.0486 83.9597 58.9922 83.9148C58.9357 83.8688 58.8526 83.8459 58.7429 83.8459H58.4554C58.4287 83.8459 58.4078 83.8542 58.3916 83.8715C58.3765 83.8887 58.3691 83.9122 58.3691 83.9409V84.408H58.7429Z"
    fill="#63AABC" stroke="#015165" stroke-width="1.4" />
  <path
    d="M52.0442 84.2188C52.0526 84.2579 52.0599 84.2971 52.0646 84.3368C52.0724 84.399 52.0745 84.4617 52.0714 84.5244C52.0604 84.7015 52.0029 84.8634 51.9031 85.0102C51.7745 85.1978 51.5999 85.3237 51.3835 85.39C51.29 85.4183 51.1943 85.4345 51.1305 85.4298C50.8603 85.4298 50.6502 85.353 50.4725 85.2046C50.4526 85.1879 50.4327 85.1706 50.4139 85.1529C50.3622 85.1027 50.3167 85.0463 50.2785 84.9852C50.2373 84.9193 50.2033 84.8488 50.1771 84.7751C50.1275 84.6346 50.1155 84.4899 50.1332 84.3436C50.1526 84.1858 50.2001 84.0349 50.2665 83.8901C50.3188 83.7757 50.3857 83.6707 50.4526 83.5647C50.4725 83.5338 50.4923 83.502 50.5117 83.4701C50.6084 83.3139 50.7045 83.1566 50.7944 82.9963C50.8007 82.9848 50.8075 82.9733 50.8138 82.9618C50.8373 82.9179 50.8587 82.873 50.8807 82.828C50.8922 82.8035 50.9037 82.7795 50.9152 82.7549C50.9324 82.7183 50.9502 82.6818 50.968 82.6457C50.969 82.6431 50.9706 82.6405 50.9716 82.6379C50.9748 82.6311 50.9779 82.6248 50.9816 82.618C51.0077 82.5715 51.0469 82.5454 51.1013 82.5459C51.1561 82.547 51.1964 82.5741 51.2204 82.6217C51.234 82.6488 51.2455 82.6765 51.2581 82.7047C51.2664 82.7236 51.2748 82.7424 51.2837 82.7612C51.303 82.8019 51.3229 82.8427 51.3433 82.8829C51.3459 82.8881 51.348 82.8933 51.348 82.8991C51.348 82.9048 51.3459 82.9106 51.3433 82.9158L51.2351 83.1253C51.2335 83.1284 51.2314 83.131 51.2283 83.1326C51.2257 83.1342 51.2215 83.1352 51.2183 83.1352C51.2147 83.1352 51.2116 83.1342 51.2089 83.1321C51.2058 83.1305 51.2042 83.1279 51.2027 83.1248C51.1629 83.0417 51.1311 82.9764 51.1269 82.9681C51.1227 82.9581 51.1169 82.9487 51.1112 82.9393C51.1034 82.9268 51.095 82.9273 51.0866 82.9398C51.0845 82.943 51.0819 82.9466 51.0798 82.9503L51.0788 82.9524C51.0709 82.9686 51.0631 82.9842 51.0547 83.0004C50.9309 83.2439 50.7866 83.4759 50.6371 83.7042C50.5226 83.8792 50.4265 84.062 50.381 84.2679C50.3517 84.4016 50.3455 84.5343 50.3867 84.6665C50.4124 84.7495 50.4469 84.8248 50.4929 84.8911C50.553 84.9778 50.6324 85.0499 50.7249 85.1017C50.7432 85.1116 50.761 85.1215 50.7809 85.1304C50.9842 85.2244 51.1922 85.226 51.3987 85.1393C51.5476 85.0766 51.6626 84.9726 51.7421 84.8316C51.7813 84.7621 51.8419 84.6007 51.8477 84.3953C51.8482 84.3901 51.8498 84.3844 51.8524 84.3797L51.9867 84.119C51.9888 84.1153 51.9914 84.1127 51.9945 84.1111C51.9977 84.1096 52.0019 84.1085 52.0055 84.109C52.0092 84.1096 52.0123 84.1106 52.0149 84.1132C52.0175 84.1153 52.0196 84.119 52.0207 84.1226C52.0306 84.1629 52.0432 84.2146 52.0442 84.2188Z"
    fill="#63AABC" stroke="#015165" stroke-width="1.4" />
  <path
    d="M51.9711 83.9869C51.9706 83.9916 51.969 83.9968 51.9664 84.001C51.9376 84.0574 51.9115 84.1076 51.8875 84.1525C51.8713 84.1833 51.8561 84.2121 51.8425 84.2387C51.8404 84.2418 51.8378 84.2444 51.8347 84.2465C51.8315 84.2481 51.8279 84.2486 51.8242 84.2486C51.8206 84.2481 51.8169 84.2465 51.8143 84.2439C51.8117 84.2418 51.8096 84.2387 51.8085 84.235C51.796 84.1875 51.7861 84.153 51.7814 84.1389C51.7767 84.1253 51.7714 84.1117 51.7714 84.1117C51.7683 84.1034 51.7657 84.095 51.7625 84.0867C51.762 84.0846 51.7604 84.082 51.7594 84.0799C51.7589 84.0788 51.7584 84.0773 51.7578 84.0762C51.7479 84.0501 51.738 84.0245 51.7265 83.9989L51.7254 83.9968L51.7244 83.9963C51.715 83.9754 51.705 83.9545 51.6946 83.9341C51.6282 83.8087 51.6198 83.8464 51.6047 83.9132C51.6016 83.9268 51.5989 83.942 51.5948 83.9566V83.9571C51.5728 84.0621 51.5184 84.2178 51.4233 84.3881C51.3141 84.5845 51.1724 84.7622 51.0057 84.9126C50.9973 84.92 50.9863 84.9231 50.9754 84.9226C50.9644 84.922 50.9545 84.9179 50.9466 84.91L50.7825 84.7465C50.7783 84.7423 50.7757 84.7376 50.7736 84.7324C50.772 84.7277 50.771 84.7219 50.771 84.7162C50.771 84.711 50.7726 84.7052 50.7747 84.7C50.7773 84.6953 50.7804 84.6906 50.7846 84.6869C50.7872 84.6843 51.5597 83.8599 51.3083 83.3109C51.3041 83.3015 51.2921 83.2769 51.2749 83.2445C51.2743 83.2429 51.2733 83.2419 51.2728 83.2409C51.2702 83.2356 51.2681 83.2299 51.2681 83.2236C51.2681 83.2179 51.2696 83.2121 51.2723 83.2064L51.3752 83.0073C51.3768 83.0042 51.3794 83.0016 51.382 83C51.3846 82.9984 51.3888 82.9974 51.392 82.9974C51.3951 82.9974 51.3977 82.9979 51.4008 83C51.4035 83.0016 51.4061 83.0037 51.4076 83.0068C51.4186 83.0277 51.4306 83.0486 51.4427 83.0695C51.5012 83.1745 51.5629 83.2779 51.6272 83.3803C51.6512 83.4185 51.6763 83.4566 51.7003 83.4942C51.7573 83.5825 51.8138 83.6703 51.865 83.7612C51.9225 83.8631 51.9502 83.9258 51.9685 83.9723C51.97 83.977 51.9716 83.9822 51.9711 83.9869Z"
    fill="#63AABC" stroke="#015165" stroke-width="1.4" />
  <path
    d="M56.4167 67.3071H49.7979C49.2407 67.3071 48.7891 67.759 48.7891 68.3159V68.9151C48.7891 69.4313 48.3704 69.8492 47.854 69.8492C47.1295 69.8492 46.473 70.1434 45.9974 70.6183C45.5223 71.0932 45.2285 71.7493 45.2285 72.4739V79.7149C45.2285 80.3036 45.7057 80.7806 46.2948 80.7806H56.6232C57.2127 80.7806 57.6905 80.3031 57.6905 79.7138V68.5808C57.6905 67.8776 57.1202 67.3071 56.4167 67.3071ZM51.3325 69.8492L51.6743 68.655C51.7731 68.3086 52.0893 68.0704 52.449 68.0704H53.6213C53.6213 68.562 53.4222 69.0066 53.1002 69.3289C52.7777 69.6507 52.3329 69.8492 51.8411 69.8492H51.3325Z"
    fill="#63AABC" stroke="#015165" stroke-width="1.4" />
  <path
    d="M56.4167 67.3071H49.7979C49.2407 67.3071 48.7891 67.759 48.7891 68.3159V68.9151C48.7891 69.4313 48.3704 69.8492 47.854 69.8492C47.1295 69.8492 46.473 70.1434 45.9974 70.6183C45.5223 71.0932 45.2285 71.7493 45.2285 72.4739V79.7149C45.2285 80.3036 45.7057 80.7806 46.2948 80.7806H56.6232C57.2127 80.7806 57.6905 80.3031 57.6905 79.7138V68.5808C57.6905 67.8776 57.1202 67.3071 56.4167 67.3071ZM51.3325 69.8492L51.6743 68.655C51.7731 68.3086 52.0893 68.0704 52.449 68.0704H53.6213C53.6213 68.562 53.4222 69.0066 53.1002 69.3289C52.7777 69.6507 52.3329 69.8492 51.8411 69.8492H51.3325Z"
    fill="#63AABC" stroke="#015165" stroke-width="1.4" stroke-miterlimit="10" />
  <path
    d="M56.4177 67.3071H51.5791C51.0219 67.3071 50.5703 67.759 50.5703 68.3159V68.9151C50.5703 69.4313 50.1517 69.8492 49.6352 69.8492C48.9108 69.8492 48.2543 70.1434 47.7786 70.6183C47.3035 71.0932 47.0098 71.7493 47.0098 72.4739V79.7149C47.0098 80.3036 47.487 80.7806 48.0761 80.7806H56.6241C57.2137 80.7806 57.6915 80.3031 57.6915 79.7138V68.5808C57.6915 67.8776 57.1212 67.3071 56.4177 67.3071ZM51.3335 69.8492L51.6753 68.655C51.7741 68.3086 52.0903 68.0704 52.4499 68.0704H53.6223C53.6223 68.562 53.4232 69.0066 53.1012 69.3289C52.7787 69.6507 52.3339 69.8492 51.842 69.8492H51.3335Z"
    fill="#63AABC" stroke="#015165" stroke-width="1.4" />
  <path
    d="M56.4177 67.3071H51.5791C51.0219 67.3071 50.5703 67.759 50.5703 68.3159V68.9151C50.5703 69.4313 50.1517 69.8492 49.6352 69.8492C48.9108 69.8492 48.2543 70.1434 47.7786 70.6183C47.3035 71.0932 47.0098 71.7493 47.0098 72.4739V79.7149C47.0098 80.3036 47.487 80.7806 48.0761 80.7806H56.6241C57.2137 80.7806 57.6915 80.3031 57.6915 79.7138V68.5808C57.6915 67.8776 57.1212 67.3071 56.4177 67.3071ZM51.3335 69.8492L51.6753 68.655C51.7741 68.3086 52.0903 68.0704 52.4499 68.0704H53.6223C53.6223 68.562 53.4232 69.0066 53.1012 69.3289C52.7787 69.6507 52.3339 69.8492 51.842 69.8492H51.3335Z"
    fill="#63AABC" stroke="#015165" stroke-width="1.4" stroke-miterlimit="10" />
  <path
    d="M56.1655 68.0699C56.1655 68.5615 55.9663 69.0061 55.6444 69.3284C55.3219 69.6502 54.8771 69.8493 54.3852 69.8493H51.8418C52.3336 69.8493 52.7785 69.6502 53.101 69.3284C53.4229 69.0061 53.6221 68.5615 53.6221 68.0699H56.1655Z"
    fill="#63AABC" stroke="#015165" stroke-width="1.4" />
  <path
    d="M56.1655 68.0699C56.1655 68.5615 55.9663 69.0061 55.6444 69.3284C55.3219 69.6502 54.8771 69.8493 54.3852 69.8493H51.8418C52.3336 69.8493 52.7785 69.6502 53.101 69.3284C53.4229 69.0061 53.6221 68.5615 53.6221 68.0699H56.1655Z"
    fill="#63AABC" stroke="#015165" stroke-width="1.4" stroke-miterlimit="10" />
  <path
    d="M47.6891 70.4997C47.2668 70.7479 46.7932 70.6742 46.7158 70.5144L46.4634 70.133L47.9708 69.4146L48.2792 69.8049L48.2714 69.8948C48.1558 70.1116 48.1412 70.2343 47.6891 70.4997Z"
    fill="#63AABC" stroke="#015165" stroke-width="1.4" />
  <path
    d="M47.6891 70.4997C47.2668 70.7479 46.7932 70.6742 46.7158 70.5144L46.4634 70.133L47.9708 69.4146L48.2792 69.8049L48.2714 69.8948C48.1558 70.1116 48.1412 70.2343 47.6891 70.4997Z"
    fill="#63AABC" stroke="#015165" stroke-width="1.4" stroke-miterlimit="10" />
  <path
    d="M48.0123 69.4547C48.0897 69.6386 47.8012 69.9354 47.3678 70.1172C46.9351 70.299 46.5206 70.2974 46.4432 70.1135C46.3658 69.9291 46.6544 69.6334 47.0877 69.4516C47.5205 69.2698 47.935 69.2708 48.0123 69.4547Z"
    fill="#63AABC" stroke="#015165" stroke-width="1.4" />
  <path
    d="M48.0123 69.4547C48.0897 69.6386 47.8012 69.9354 47.3678 70.1172C46.9351 70.299 46.5206 70.2974 46.4432 70.1135C46.3658 69.9291 46.6544 69.6334 47.0877 69.4516C47.5205 69.2698 47.935 69.2708 48.0123 69.4547Z"
    fill="#63AABC" stroke="#015165" stroke-width="1.4" stroke-miterlimit="10" />
</svg>