<svg width="216" height="112" viewBox="0 0 216 112" fill="none" xmlns="http://www.w3.org/2000/svg">
  <rect width="216" height="112" rx="5.38877" fill="#161623" />
  <mask id="mask0_8363_7222" style="mask-type:alpha" maskUnits="userSpaceOnUse" x="0" y="0" width="216" height="112">
    <rect width="216" height="112" rx="5.38877" fill="#161623" />
  </mask>
  <g mask="url(#mask0_8363_7222)">
    <rect x="6.73584" y="3.16129" width="4.49064" height="4.51613" fill="#61DFFF" />
    <rect x="2.69434" y="7.2258" width="4.49064" height="4.51613" fill="#61DFFF" />
    <rect x="2.69434" y="11.7419" width="4.49064" height="4.51613" fill="#61DFFF" />
    <rect x="6.28711" y="84.4516" width="4.49064" height="4.51613" fill="#61DFFF" />
    <rect x="1.79639" y="79.9355" width="4.49064" height="4.51613" fill="#61DFFF" />
    <rect x="1.79639" y="75.4193" width="4.49064" height="4.51613" fill="#61DFFF" />
    <rect x="2.24561" y="88.5161" width="4.49064" height="4.51613" fill="#61DFFF" />
    <rect x="185.688" y="4.29033" width="4.51613" height="4.49064" transform="rotate(90 185.688 4.29033)"
      fill="#61DFFF" />
    <rect x="190.179" y="-0.225815" width="4.51613" height="4.49064" transform="rotate(90 190.179 -0.225815)"
      fill="#61DFFF" />
    <rect x="194.669" y="-0.225815" width="4.51613" height="4.49064" transform="rotate(90 194.669 -0.225815)"
      fill="#61DFFF" />
    <rect x="181.646" y="0.225815" width="4.51613" height="4.49064" transform="rotate(90 181.646 0.225815)"
      fill="#61DFFF" />
    <rect x="121.697" y="106.581" width="4.49064" height="4.51613" fill="#61DFFF" />
    <rect x="117.206" y="102.065" width="4.49064" height="4.51613" fill="#61DFFF" />
    <rect x="126.188" y="106.581" width="4.49064" height="4.51613" fill="#61DFFF" />
    <rect x="130.678" y="106.581" width="4.49064" height="4.51613" fill="#61DFFF" />
    <rect x="130.678" y="111.097" width="4.49064" height="4.51613" fill="#61DFFF" />
    <rect x="126.188" y="111.097" width="4.49064" height="4.51613" fill="#61DFFF" />
    <rect x="135.168" y="106.581" width="4.49064" height="4.51613" fill="#61DFFF" />
    <rect x="139.659" y="102.065" width="4.49064" height="4.51613" fill="#61DFFF" />
    <rect x="135.168" y="102.065" width="4.49064" height="4.51613" fill="#61DFFF" />
    <rect x="130.678" y="97.5484" width="4.49064" height="4.51613" fill="#61DFFF" />
    <rect x="126.188" y="97.5484" width="4.49064" height="4.51613" fill="#61DFFF" />
    <rect x="117.206" y="97.5484" width="4.49064" height="4.51613" fill="#61DFFF" />
    <rect x="117.655" y="110.645" width="4.49064" height="4.51613" fill="#61DFFF" />
    <rect x="198.038" y="70.4516" width="4.49064" height="4.51613" fill="#61DFFF" />
    <rect x="193.547" y="65.9355" width="4.49064" height="4.51613" fill="#61DFFF" />
    <rect x="202.528" y="70.4516" width="4.49064" height="4.51613" fill="#61DFFF" />
    <rect x="207.019" y="70.4516" width="4.49064" height="4.51613" fill="#61DFFF" />
    <rect x="207.019" y="74.9677" width="4.49064" height="4.51613" fill="#61DFFF" />
    <rect x="202.528" y="74.9677" width="4.49064" height="4.51613" fill="#61DFFF" />
    <rect x="211.509" y="70.4516" width="4.49064" height="4.51613" fill="#61DFFF" />
    <rect x="211.509" y="65.9355" width="4.49064" height="4.51613" fill="#61DFFF" />
    <rect x="207.019" y="61.4193" width="4.49064" height="4.51613" fill="#61DFFF" />
    <rect x="202.528" y="61.4193" width="4.49064" height="4.51613" fill="#61DFFF" />
    <rect x="193.547" y="61.4193" width="4.49064" height="4.51613" fill="#61DFFF" />
    <rect x="193.996" y="74.5161" width="4.49064" height="4.51613" fill="#61DFFF" />
    <rect x="193.547" y="61.4193" width="4.49064" height="4.51613" fill="#61DFFF" />
    <rect x="189.056" y="56.9032" width="4.49064" height="4.51613" fill="#61DFFF" />
    <rect x="198.038" y="61.4193" width="4.49064" height="4.51613" fill="#61DFFF" />
    <rect x="202.528" y="61.4193" width="4.49064" height="4.51613" fill="#61DFFF" />
    <rect x="202.528" y="65.9355" width="4.49064" height="4.51613" fill="#61DFFF" />
    <rect x="198.038" y="65.9355" width="4.49064" height="4.51613" fill="#61DFFF" />
    <rect x="207.019" y="61.4193" width="4.49064" height="4.51613" fill="#61DFFF" />
    <rect x="211.509" y="56.9032" width="4.49064" height="4.51613" fill="#61DFFF" />
    <rect x="207.019" y="56.9032" width="4.49064" height="4.51613" fill="#61DFFF" />
    <rect x="202.528" y="52.3871" width="4.49064" height="4.51613" fill="#61DFFF" />
    <rect x="198.038" y="52.3871" width="4.49064" height="4.51613" fill="#61DFFF" />
    <rect x="189.056" y="52.3871" width="4.49064" height="4.51613" fill="#61DFFF" />
    <rect x="189.505" y="65.4838" width="4.49064" height="4.51613" fill="#61DFFF" />
    <rect x="112.715" y="38.8387" width="4.49064" height="4.51613" transform="rotate(180 112.715 38.8387)"
      fill="#61DFFF" />
    <rect x="117.206" y="43.3549" width="4.49064" height="4.51613" transform="rotate(180 117.206 43.3549)"
      fill="#61DFFF" />
    <rect x="108.225" y="38.8387" width="4.49064" height="4.51613" transform="rotate(180 108.225 38.8387)"
      fill="#61DFFF" />
    <rect x="103.734" y="38.8387" width="4.49064" height="4.51613" transform="rotate(180 103.734 38.8387)"
      fill="#61DFFF" />
    <rect x="103.734" y="34.3226" width="4.49064" height="4.51613" transform="rotate(180 103.734 34.3226)"
      fill="#61DFFF" />
    <rect x="108.225" y="34.3226" width="4.49064" height="4.51613" transform="rotate(180 108.225 34.3226)"
      fill="#61DFFF" />
    <rect x="99.2437" y="38.8387" width="4.49064" height="4.51613" transform="rotate(180 99.2437 38.8387)"
      fill="#61DFFF" />
    <rect x="94.7529" y="43.3549" width="4.49064" height="4.51613" transform="rotate(180 94.7529 43.3549)"
      fill="#61DFFF" />
    <rect x="99.2437" y="43.3549" width="4.49064" height="4.51613" transform="rotate(180 99.2437 43.3549)"
      fill="#61DFFF" />
    <rect x="103.734" y="47.871" width="4.49064" height="4.51613" transform="rotate(180 103.734 47.871)"
      fill="#61DFFF" />
    <rect x="108.225" y="47.871" width="4.49064" height="4.51613" transform="rotate(180 108.225 47.871)"
      fill="#61DFFF" />
    <rect x="117.206" y="47.871" width="4.49064" height="4.51613" transform="rotate(180 117.206 47.871)"
      fill="#61DFFF" />
    <rect x="116.757" y="34.7742" width="4.49064" height="4.51613" transform="rotate(180 116.757 34.7742)"
      fill="#61DFFF" />
    <rect width="4.49064" height="4.51613" transform="matrix(1 0 0 -1 87.5674 111.097)" fill="#61DFFF" />
    <rect width="4.49064" height="4.51613" transform="matrix(1 0 0 -1 83.5259 107.032)" fill="#61DFFF" />
    <rect width="4.49064" height="4.51613" transform="matrix(1 0 0 -1 83.5259 102.516)" fill="#61DFFF" />
    <rect width="216" height="112" rx="5.38877" fill="url(#paint0_radial_8363_7222)" />
  </g>
  <defs>
    <radialGradient id="paint0_radial_8363_7222" cx="0" cy="0" r="1" gradientUnits="userSpaceOnUse"
      gradientTransform="translate(108 56) rotate(89.8138) scale(69.0971 143.158)">
      <stop stop-color="#161621" stop-opacity="0" />
      <stop offset="0.5" stop-color="#161621" stop-opacity="0.55" />
      <stop offset="1" stop-color="#161621" />
    </radialGradient>
  </defs>
</svg>