<svg width="212" height="212" viewBox="0 0 212 212" fill="none" xmlns="http://www.w3.org/2000/svg">
  <rect x="1" y="1" width="210" height="210" rx="11" fill="#1B1B29" stroke="#1E1E2C" stroke-width="2" />
  <rect x="16" y="16" width="180" height="180" rx="11" fill="#15151A" stroke="#1E1E2C" stroke-width="2" />
  <path
    d="M164.295 145.405H46.9962C41.3771 145.405 36.8225 140.852 36.8225 135.236H174.468C174.468 140.852 169.914 145.405 164.295 145.405Z"
    fill="#63AABC" stroke="#015165" stroke-width="1.4" />
  <path
    d="M124.333 100.632L127.12 99.9284C127.12 99.9284 124.143 96.3565 123.904 91.8325L119.907 94.5528C118.966 95.1929 118.583 96.3912 118.977 97.458L119.747 99.5406C127 113.121 114.946 128.64 114.946 128.64H102.075C93.4427 120.012 102.075 114.55 102.075 114.55V111.487H69.5896L67.3668 113.961C66.2061 115.253 66.5756 117.29 68.118 118.088C75.7393 122.035 95.1284 131.908 95.1284 131.908L119.441 132.01L120.667 128.742L127.307 120.165L133.027 116.49L136.091 114.55C133.753 105.813 128.3 102.159 124.333 100.632Z"
    fill="#63AABC" stroke="#015165" stroke-width="1.4" />
  <path
    d="M102.073 111.489L86.3418 111.5H85.6921L72.0434 111.512H69.5781L70.5294 110.416L70.715 110.202C70.9703 109.651 71.5213 109.303 72.1246 109.303H99.9906C100.571 109.303 101.098 109.622 101.371 110.132L102.073 111.489Z"
    fill="#63AABC" stroke="#015165" stroke-width="1.4" />
  <path
    d="M146.393 130.223C146.393 137.053 140.852 142.591 134.018 142.591C127.184 142.591 121.644 137.053 121.644 130.223C121.644 123.392 127.184 117.854 134.018 117.854C140.852 117.854 146.393 123.392 146.393 130.223Z"
    fill="#63AABC" stroke="#015165" stroke-width="1.4" />
  <path
    d="M92.5029 130.223C92.5029 137.053 86.9622 142.591 80.128 142.591C73.2943 142.591 67.7542 137.053 67.7542 130.223C67.7542 123.392 73.2943 117.854 80.128 117.854C86.9622 117.854 92.5029 123.392 92.5029 130.223Z"
    fill="#63AABC" stroke="#015165" stroke-width="1.4" />
  <path
    d="M127.438 99.5339C127.346 99.7484 127.235 99.8875 127.102 99.9165C126.307 100.108 124.88 96.5074 124.747 96.177C124.619 95.8523 123.221 92.2287 123.941 91.8287C124.051 91.7649 124.219 91.7823 124.411 91.8635C125.194 92.1823 126.499 93.5506 127.148 95.1624C127.81 96.8089 127.786 98.728 127.438 99.5339Z"
    fill="#63AABC" stroke="#015165" stroke-width="1.4" />
  <path
    d="M127.439 99.5338C126.627 98.9888 125.513 96.1711 125.403 95.8754C125.293 95.6029 124.237 92.8606 124.411 91.8634C125.194 92.1823 126.499 93.5505 127.149 95.1623C127.81 96.8089 127.787 98.7279 127.439 99.5338Z"
    fill="#63AABC" stroke="#015165" stroke-width="1.4" />
  <path
    d="M135.457 128.802L139.04 127.2C137.714 125.302 135.347 124.398 133.092 124.929L134.713 128.552C134.888 128.774 135.181 128.875 135.457 128.802ZM136.035 131.505L137.646 135.106C139.545 133.78 140.449 131.413 139.918 129.16L136.375 130.744C136.109 130.899 135.974 131.208 136.035 131.505ZM133.265 132.135L129.737 133.712C131.063 135.609 133.431 136.513 135.685 135.983L134.122 132.491C133.963 132.176 133.596 132.027 133.265 132.135ZM128.859 131.752L132.377 130.179C132.664 130.024 132.807 129.695 132.732 129.385L131.131 125.806C129.232 127.132 128.328 129.499 128.859 131.752Z"
    fill="#63AABC" stroke="#015165" stroke-width="1.4" />
  <path
    d="M139.572 128.139C139.722 128.474 139.837 128.815 139.918 129.16L136.375 130.744C136.109 130.899 135.974 131.208 136.035 131.505L137.647 135.106C137.356 135.308 137.043 135.487 136.708 135.637C136.372 135.786 136.03 135.902 135.686 135.982L134.123 132.491C133.962 132.176 133.597 132.027 133.265 132.135L129.737 133.712C129.534 133.422 129.356 133.108 129.206 132.773C129.056 132.438 128.941 132.097 128.86 131.752L132.378 130.179C132.664 130.024 132.807 129.695 132.733 129.384L131.131 125.806C131.421 125.604 131.735 125.425 132.07 125.275C132.406 125.125 132.748 125.011 133.093 124.929L134.714 128.552C134.888 128.774 135.182 128.875 135.458 128.802L139.041 127.2C139.244 127.49 139.422 127.804 139.572 128.139Z"
    fill="#63AABC" stroke="#015165" stroke-width="1.4" />
  <path
    d="M81.1248 129.382L84.7079 127.78C83.3815 125.882 81.014 124.978 78.7595 125.509L80.3807 129.132C80.555 129.354 80.8485 129.454 81.1248 129.382ZM81.7021 132.085L83.3137 135.686C85.2125 134.36 86.1162 131.993 85.5852 129.74L82.0428 131.324C81.7762 131.479 81.6412 131.788 81.7021 132.085ZM78.932 132.715L75.404 134.292C76.7304 136.189 79.0984 137.093 81.3524 136.562L79.7897 133.07C79.63 132.756 79.2638 132.607 78.932 132.715ZM74.5267 132.332L78.0447 130.759C78.3318 130.604 78.4745 130.275 78.3996 129.964L76.7982 126.386C74.8999 127.712 73.9956 130.079 74.5267 132.332Z"
    fill="#63AABC" stroke="#015165" stroke-width="1.4" />
  <path
    d="M85.2407 128.718C85.3907 129.053 85.5055 129.395 85.5867 129.74L82.0439 131.324C81.7773 131.479 81.6427 131.788 81.7037 132.085L83.3152 135.686C83.0248 135.888 82.7112 136.067 82.376 136.217C82.0409 136.366 81.6984 136.481 81.354 136.562L79.7912 133.07C79.6308 132.756 79.2654 132.607 78.9331 132.715L75.4055 134.292C75.2025 134.002 75.0242 133.688 74.8742 133.353C74.7243 133.018 74.6095 132.676 74.5282 132.332L78.0457 130.759C78.3328 130.604 78.4755 130.275 78.4011 129.964L76.7997 126.386C77.0897 126.184 77.4037 126.005 77.7389 125.855C78.0741 125.705 78.4161 125.591 78.761 125.509L80.3823 129.132C80.5565 129.354 80.85 129.454 81.1263 129.382L84.7094 127.78C84.9124 128.07 85.0908 128.383 85.2407 128.718Z"
    fill="#63AABC" stroke="#015165" stroke-width="1.4" />
  <path
    d="M120.404 131.69L147.894 124.68C147.347 123.14 146.226 120.701 143.885 118.429C142.618 117.2 141.325 116.34 140.25 115.745C139.637 115.38 135.005 112.725 129.352 114.54C124.661 116.047 122.465 119.604 121.999 120.4C121.327 121.304 120.143 123.143 119.735 125.708C119.291 128.498 119.997 130.677 120.404 131.69Z"
    fill="#63AABC" stroke="#015165" stroke-width="1.4" />
  <path
    d="M62.6655 129.724V128.842C62.6655 121.343 68.7474 115.264 76.2499 115.264H81.1578C88.6597 115.264 94.7416 121.343 94.7416 128.842V130.11C94.7416 131.21 93.8454 132.097 92.745 132.08C86.9758 131.989 70.3322 131.733 64.6186 131.694C63.535 131.687 62.6655 130.807 62.6655 129.724Z"
    fill="#63AABC" stroke="#015165" stroke-width="1.4" />
  <path
    d="M114.683 96.693C114.318 98.1018 113.888 98.0207 113.227 98.4149C112.566 98.815 111.371 98.4149 110.309 98.2874C109.248 98.154 104.538 96.3335 104.004 96.206C103.726 96.1364 103.529 96.8147 103.395 97.5742C103.285 98.2584 103.227 99.0121 103.227 99.3252C103.227 99.8064 103.819 100.885 104.346 101.644C104.555 101.94 104.753 102.189 104.898 102.34C105.431 102.868 108.784 104.671 110.106 106.393C110.135 106.427 110.164 106.468 110.188 106.509C110.727 107.303 111.075 108.915 111.301 110.55C111.609 112.764 111.69 115.037 111.69 115.408C111.69 116.075 111.104 118.574 111.104 118.574C111.104 118.574 112.659 121.786 112.659 123.113C112.659 124.441 107.925 124.11 106.33 123.449C104.741 122.789 106.197 119.919 105.669 116.208C105.135 112.498 102.015 110.7 101.214 110.039C100.42 109.373 93.337 109.947 91.7476 107.164C90.1525 104.381 91.8752 94.7044 91.8752 90.1995C91.8752 85.6947 94.9264 83.7061 94.9264 83.7061L95.9879 83.1727L102.618 85.9614C102.618 85.9614 103.952 86.889 105.704 88.1065C106.754 88.8429 107.954 89.6777 109.109 90.4836C111.383 92.078 113.459 93.5506 113.83 93.8637C115.124 94.9537 114.956 95.6668 114.683 96.693Z"
    fill="#63AABC" stroke="#015165" stroke-width="1.4" />
  <path
    d="M111.301 110.549C110.715 110.393 110.095 110.033 109.66 109.297C109.045 108.248 109.59 107.169 110.187 106.508C110.727 107.303 111.075 108.914 111.301 110.549Z"
    fill="#63AABC" stroke="#015165" stroke-width="1.4" />
  <path
    d="M111.301 110.549C110.715 110.393 110.095 110.033 109.66 109.297C109.045 108.248 109.59 107.169 110.187 106.508C110.727 107.303 111.075 108.914 111.301 110.549Z"
    fill="#63AABC" stroke="#015165" stroke-width="1.4" stroke-miterlimit="10" />
  <path
    d="M104.347 101.644C103.436 101.946 101.846 100.838 101.58 100.438C101.301 100.015 101.371 98.3395 101.58 97.4988C101.788 96.664 103.359 96.8547 103.359 96.8547L103.497 96.9996C103.387 97.6838 103.227 99.012 103.227 99.3251C103.227 99.8063 103.819 100.885 104.347 101.644Z"
    fill="#63AABC" stroke="#015165" stroke-width="1.4" />
  <path
    d="M104.347 101.644C103.436 101.946 101.846 100.838 101.58 100.438C101.301 100.015 101.371 98.3395 101.58 97.4988C101.788 96.664 103.359 96.8547 103.359 96.8547L103.497 96.9996C103.387 97.6838 103.227 99.012 103.227 99.3251C103.227 99.8063 103.819 100.885 104.347 101.644Z"
    fill="#63AABC" stroke="#015165" stroke-width="1.4" stroke-miterlimit="10" />
  <path
    d="M114.683 96.693C114.318 98.1018 113.888 98.0207 113.227 98.4149C112.566 98.815 111.371 98.4149 110.309 98.2874C109.248 98.154 104.538 96.3335 104.004 96.206C103.726 96.1364 103.529 96.8147 103.395 97.5742C103.285 98.2584 103.227 99.0121 103.227 99.3252C103.227 99.8064 103.819 100.885 104.346 101.644C104.555 101.94 104.753 102.189 104.898 102.34C105.431 102.868 108.784 104.671 110.106 106.393C110.135 106.427 110.164 106.468 110.188 106.509C110.727 107.303 111.075 108.915 111.301 110.55C111.609 112.764 111.69 115.037 111.69 115.408C111.69 116.075 111.104 118.574 111.104 118.574C111.104 118.574 112.659 121.786 112.659 123.113C112.659 124.441 107.925 124.11 106.33 123.449C104.741 122.789 106.197 119.919 105.669 116.208C105.135 112.498 102.015 110.7 101.214 110.039C100.42 109.373 93.337 109.947 91.7476 107.164C90.1525 104.381 91.8752 94.7044 91.8752 90.1995C91.8752 85.6947 94.9264 83.7061 94.9264 83.7061L95.9879 83.1727L102.618 85.9614C102.618 85.9614 103.952 86.889 105.704 88.1065C106.754 88.8429 107.954 89.6777 109.109 90.4836C111.383 92.078 113.459 93.5506 113.83 93.8637C115.124 94.9537 114.956 95.6668 114.683 96.693Z"
    fill="#63AABC" stroke="#015165" stroke-width="1.4" stroke-miterlimit="10" />
  <path
    d="M95.589 80.6664L101.347 82.3309L105.301 85.1741L105.02 86.2954C104.943 86.6009 104.644 86.7916 104.333 86.7377C102.984 86.5029 100.343 86.1927 98.534 85.4425C96.6308 84.6534 96.2636 84.3804 95.1047 83.2695C94.9144 83.0875 94.6685 82.3483 94.7949 82.1175L95.589 80.6664Z"
    fill="#63AABC" stroke="#015165" stroke-width="1.4" />
  <path
    d="M95.589 80.6664L101.347 82.3309L105.301 85.1741L105.02 86.2954C104.943 86.6009 104.644 86.7916 104.333 86.7377C102.984 86.5029 100.343 86.1927 98.534 85.4425C96.6308 84.6534 96.2636 84.3804 95.1047 83.2695C94.9144 83.0875 94.6685 82.3483 94.7949 82.1175L95.589 80.6664Z"
    fill="#63AABC" stroke="#015165" stroke-width="1.4" stroke-miterlimit="10" />
  <path
    d="M95.1965 81.6154L94.4453 80.5747C93.0386 79.2946 92.5705 77.3495 92.4603 75.693C92.2828 73.0238 93.3414 70.3649 95.4952 68.7769C98.276 66.7263 101.531 67.0138 101.531 67.0138C104.292 67.1837 108.309 68.025 109.675 71.3534C109.675 71.3534 108.339 83.2301 108.339 83.3727C108.339 83.5153 107.922 84.6946 107.922 84.6946C107.922 84.6946 107.895 84.7537 107.838 84.8459C107.385 85.5758 106.489 85.9028 105.656 85.6912C105.305 85.6019 104.941 85.5103 104.818 85.4842C104.818 85.4842 100.528 84.5195 95.8461 82.172C95.588 82.0427 95.3653 81.8496 95.1965 81.6154Z"
    fill="#63AABC" stroke="#015165" stroke-width="1.4" />
  <path
    d="M95.1965 81.6154L94.4453 80.5747C93.0386 79.2946 92.5705 77.3495 92.4603 75.693C92.2828 73.0238 93.3414 70.3649 95.4952 68.7769C98.276 66.7263 101.531 67.0138 101.531 67.0138C104.292 67.1837 108.309 68.025 109.675 71.3534C109.675 71.3534 108.339 83.2301 108.339 83.3727C108.339 83.5153 107.922 84.6946 107.922 84.6946C107.922 84.6946 107.895 84.7537 107.838 84.8459C107.385 85.5758 106.489 85.9028 105.656 85.6912C105.305 85.6019 104.941 85.5103 104.818 85.4842C104.818 85.4842 100.528 84.5195 95.8461 82.172C95.588 82.0427 95.3653 81.8496 95.1965 81.6154Z"
    fill="#63AABC" stroke="#015165" stroke-width="1.4" stroke-miterlimit="10" />
  <path
    d="M109.005 83.0103C108.999 83.0161 108.994 83.0219 108.988 83.0277C108.35 83.6945 107.456 84.0365 106.662 83.5611C104.887 82.4943 101.923 80.9985 101.43 80.8768C100.768 80.7144 97.2822 78.6388 97.7811 74.5746C98.2799 70.5162 101.928 69.4378 101.928 69.4378C104.168 68.6899 106.894 68.603 108.657 69.9075C108.709 69.948 108.762 69.9828 108.808 70.0292C110.206 71.1366 110.908 72.8585 111.111 74.3311C111.546 77.5663 110.519 81.4217 109.005 83.0103Z"
    fill="#63AABC" stroke="#015165" stroke-width="1.4" />
  <path
    d="M109.005 83.0103C108.651 83.0973 108.286 83.0625 107.938 82.8538C106.337 81.8914 103.663 80.5463 103.216 80.4361C102.619 80.2854 99.475 78.4127 99.9274 74.7486C100.374 71.0844 103.669 70.1104 103.669 70.1104C105.328 69.5596 107.283 69.4031 108.808 70.0292C110.206 71.1366 110.908 72.8585 111.111 74.3311C111.546 77.5663 110.519 81.4217 109.005 83.0103Z"
    fill="#63AABC" stroke="#015165" stroke-width="1.4" />
  <path
    d="M94.515 84.6561L94.312 88.471L94.0162 97.5154L93.4593 101.591L93.2215 103.36C93.0591 104.554 92.073 105.476 90.8491 105.568L90.472 105.597C90.414 105.603 90.356 105.603 90.2922 105.603C88.7899 105.655 87.3977 104.797 86.7771 103.441L85.4023 100.408C85.1645 99.8925 85.0543 99.3301 85.0775 98.7619L85.5589 87.5607C85.5647 87.2824 85.6169 86.9983 85.6924 86.7258L86.6378 83.4153C87.0903 81.8268 88.5694 80.7426 90.2226 80.7426C90.298 80.7426 90.385 80.7426 90.4604 80.7484C90.6345 80.76 90.8027 80.7832 90.9651 80.818C91.6089 80.9455 92.2006 81.2296 92.6937 81.6586L94.515 84.6561Z"
    fill="#63AABC" stroke="#015165" stroke-width="1.4" />
  <path
    d="M94.5143 84.6569L94.3107 88.4718L94.0154 97.5163L93.458 101.592C93.1157 101.876 92.6813 102.056 92.2056 102.091L91.8866 102.12C91.8286 102.125 91.7816 102.125 91.7294 102.125C90.4359 102.166 89.2415 101.43 88.7079 100.264L87.5182 97.6554C87.3152 97.2148 87.2223 96.7278 87.2455 96.2408C86.4874 90.1677 86.9323 87.9013 87.5199 86.9882C87.7589 86.6165 88.4672 85.777 88.5165 84.5641C88.5397 83.9971 88.4109 83.673 88.5861 83.0393C88.7856 82.3169 89.2253 81.8328 89.4747 81.6009C90.0565 81.0588 90.6841 80.8809 90.9637 80.8188C91.6076 80.9464 92.1998 81.2305 92.6929 81.6595L94.5143 84.6569Z"
    fill="#63AABC" stroke="#015165" stroke-width="1.4" />
  <path
    d="M94.3145 88.4727L94.0163 97.5183L93.2217 103.362C93.0598 104.555 92.0708 105.475 90.8481 105.57L90.4733 105.599C90.4107 105.606 90.355 105.606 90.2924 105.606C88.7894 105.653 87.3967 104.799 86.7772 103.44L85.3996 100.408C85.1629 99.8954 85.0515 99.3284 85.0794 98.7619L85.5597 87.5607C85.5666 87.2807 85.6154 87.0001 85.6919 86.7264L86.6386 83.4142C87.091 81.8297 88.5667 80.7437 90.2228 80.7437C90.2993 80.7437 90.3829 80.7437 90.4594 80.7501C91.2877 80.8052 92.0743 81.1194 92.6938 81.6586L94.5152 84.6584L94.3145 88.4727Z"
    fill="#63AABC" stroke="#015165" stroke-width="1.4" stroke-miterlimit="10" />
  <path
    d="M109.11 90.4838C108.727 90.6751 108.28 90.8143 107.95 90.8839C107.138 91.0578 106.557 90.536 105.751 89.8403C105.276 89.4344 105.455 88.6865 105.705 88.1068C106.755 88.8431 107.955 89.6779 109.11 90.4838Z"
    fill="#63AABC" stroke="#015165" stroke-width="1.4" />
  <path d="M105.873 96.8553C105.339 93.1273 107.143 90.0081 107.143 90.0081L105.873 96.8553Z" fill="#63AABC" />
  <path d="M105.873 96.8553C105.339 93.1273 107.143 90.0081 107.143 90.0081" stroke="#015165" stroke-width="1.4"
    stroke-miterlimit="10" />
  <path
    d="M109.005 83.0103C108.999 83.0161 108.993 83.0219 108.988 83.0277C108.35 83.6945 107.456 84.0365 106.662 83.5611C104.887 82.4943 102.844 81.3725 101.429 80.8768C100.787 80.6518 97.282 78.6388 97.7808 74.5746C98.2797 70.5162 101.928 69.4378 101.928 69.4378C104.167 68.6899 106.894 68.603 108.657 69.9075C108.709 69.948 108.761 69.9828 108.808 70.0292C110.206 71.1366 110.908 72.8585 111.111 74.3311C111.546 77.5663 110.519 81.4217 109.005 83.0103Z"
    fill="#63AABC" stroke="#015165" stroke-width="1.4" stroke-miterlimit="10" />
  <path
    d="M87.906 83.5136L87.9112 83.5176C87.9831 83.8023 88.1258 84.5276 87.8259 85.3607C87.598 85.9927 87.2198 86.3985 87.0057 86.5974C86.6664 86.6878 86.5272 86.111 86.7395 85.4906L87.1919 84.167C87.3625 83.6678 87.6879 83.3704 87.906 83.5136Z"
    fill="#63AABC" stroke="#015165" stroke-width="1.4" />
  <path
    d="M90.8412 88.989L90.8545 88.9908C91.3139 89.0592 91.6364 89.4795 91.5837 89.9404L91.4357 91.2322C91.3963 91.5789 91.1515 91.867 90.8157 91.9627C90.2292 92.1291 89.6596 91.6507 89.7228 91.0449L89.858 89.7514C89.9085 89.2638 90.3563 88.9171 90.8412 88.989Z"
    fill="#63AABC" stroke="#015165" stroke-width="1.4" />
  <path
    d="M90.8412 88.989L90.8545 88.9908C91.3139 89.0592 91.6364 89.4795 91.5837 89.9404L91.4357 91.2322C91.3963 91.5789 91.1515 91.867 90.8157 91.9627C90.2292 92.1291 89.6596 91.6507 89.7228 91.0449L89.858 89.7514C89.9085 89.2638 90.3563 88.9171 90.8412 88.989Z"
    fill="#63AABC" stroke="#015165" stroke-width="1.4" stroke-miterlimit="10" />
  <path
    d="M91.4586 84.1355L91.472 84.1373C91.9314 84.2057 92.2539 84.626 92.2011 85.0869L92.0532 86.3787C92.0137 86.7254 91.7689 87.0135 91.4331 87.1092C90.8467 87.2756 90.277 86.7973 90.3403 86.1914L90.4754 84.8979C90.5259 84.4104 90.9737 84.0637 91.4586 84.1355Z"
    fill="#63AABC" stroke="#015165" stroke-width="1.4" />
  <path
    d="M91.4586 84.1355L91.472 84.1373C91.9314 84.2057 92.2539 84.626 92.2011 85.0869L92.0532 86.3787C92.0137 86.7254 91.7689 87.0135 91.4331 87.1092C90.8467 87.2756 90.277 86.7973 90.3403 86.1914L90.4754 84.8979C90.5259 84.4104 90.9737 84.0637 91.4586 84.1355Z"
    fill="#63AABC" stroke="#015165" stroke-width="1.4" stroke-miterlimit="10" />
  <path
    d="M90.3813 93.7495L90.3946 93.7512C90.854 93.8191 91.1771 94.2388 91.1249 94.7003L90.9787 95.9921C90.9393 96.3382 90.6951 96.6269 90.3592 96.7232C89.7734 96.8901 89.2026 96.413 89.2652 95.8065L89.3981 94.5131C89.4485 94.0255 89.8957 93.6782 90.3813 93.7495Z"
    fill="#63AABC" stroke="#015165" stroke-width="1.4" />
  <path
    d="M90.3813 93.7495L90.3946 93.7512C90.854 93.8191 91.1771 94.2388 91.1249 94.7003L90.9787 95.9921C90.9393 96.3382 90.6951 96.6269 90.3592 96.7232C89.7734 96.8901 89.2026 96.413 89.2652 95.8065L89.3981 94.5131C89.4485 94.0255 89.8957 93.6782 90.3813 93.7495Z"
    fill="#63AABC" stroke="#015165" stroke-width="1.4" stroke-miterlimit="10" />
  <path
    d="M87.4815 84.3222C87.4966 84.4468 87.5134 84.7257 87.3771 85.0364C87.2582 85.3084 87.0795 85.4736 86.9832 85.5519C86.7332 85.4121 86.3811 85.1854 86.0226 84.8358C85.8266 84.6439 85.6775 84.4601 85.5377 84.2781C83.4054 81.5062 83.1316 77.7116 84.9983 74.7548C88.2414 69.6162 93.0007 71.7336 93.0007 71.7336L92.4288 72.8056C92.4288 72.8056 90.8418 72.7615 90.2484 72.8606C90.2426 72.8618 90.2356 72.8618 90.2298 72.863C88.2733 73.1882 86.605 74.4834 85.8388 76.312C84.9542 78.4224 84.3822 81.6935 87.4815 84.3222Z"
    fill="#63AABC" stroke="#015165" stroke-width="1.4" />
  <path
    d="M87.4815 84.3222C87.4966 84.4468 87.5134 84.7257 87.3771 85.0364C87.2582 85.3084 87.0795 85.4736 86.9832 85.5519C86.7332 85.4121 86.3811 85.1854 86.0226 84.8358C85.8266 84.6439 85.6775 84.4601 85.5377 84.2781C83.4054 81.5062 83.1316 77.7116 84.9983 74.7548C88.2414 69.6162 93.0007 71.7336 93.0007 71.7336L92.4288 72.8056C92.4288 72.8056 90.8418 72.7615 90.2484 72.8606C90.2426 72.8618 90.2356 72.8618 90.2298 72.863C88.2733 73.1882 86.605 74.4834 85.8388 76.312C84.9542 78.4224 84.3822 81.6935 87.4815 84.3222Z"
    fill="#63AABC" stroke="#015165" stroke-width="1.4" stroke-miterlimit="10" />
  <path
    d="M105.357 71.3527C105.357 71.3527 103.444 71.0796 102.488 73.1285C101.531 75.1768 102.897 75.9972 102.897 75.9972C102.897 75.9972 102.215 72.8548 105.357 71.3527Z"
    fill="#63AABC" stroke="#015165" stroke-width="1.4" />
  <path
    d="M114.643 95.1583C114.659 95.1652 114.676 95.1716 114.692 95.1786C115.053 95.3264 115.238 95.7781 115.105 96.1851L114.584 97.7789C114.424 98.2705 113.89 98.4485 113.519 98.1343C113.281 97.9325 113.184 97.5817 113.276 97.2629L113.747 95.6488C113.87 95.229 114.275 95.007 114.643 95.1583Z"
    fill="#63AABC" stroke="#015165" stroke-width="1.4" />
  <path
    d="M114.643 95.1583C114.659 95.1652 114.676 95.1716 114.692 95.1786C115.053 95.3264 115.238 95.7781 115.105 96.1851L114.584 97.7789C114.424 98.2705 113.89 98.4485 113.519 98.1343C113.281 97.9325 113.184 97.5817 113.276 97.2629L113.747 95.6488C113.87 95.229 114.275 95.007 114.643 95.1583Z"
    fill="#63AABC" stroke="#015165" stroke-width="1.4" stroke-miterlimit="10" />
  <path
    d="M115.176 95.5917L117.32 94.8942C117.32 94.8942 119.744 94.2652 120.153 94.8942C120.562 95.5239 120.751 96.5617 120.499 97.1594C120.247 97.7572 119.461 97.7891 119.271 97.6006C119.082 97.4116 117.918 96.7826 117.761 97.0029C117.603 97.2232 116.911 97.7264 117.226 98.261C117.541 98.7955 118.107 99.0159 118.013 99.6449C117.918 100.275 117.729 100.652 117.541 100.589C117.351 100.526 116.281 100.022 116.124 99.4878C115.967 98.9532 115.18 98.6065 114.424 98.0401C113.937 97.6748 114.19 96.8266 114.431 96.2712C114.571 95.9477 114.841 95.7007 115.176 95.5917Z"
    fill="#63AABC" stroke="#015165" stroke-width="1.4" />
  <path
    d="M115.176 95.5917L117.32 94.8942C117.32 94.8942 119.744 94.2652 120.153 94.8942C120.562 95.5239 120.751 96.5617 120.499 97.1594C120.247 97.7572 119.461 97.7891 119.271 97.6006C119.082 97.4116 117.918 96.7826 117.761 97.0029C117.603 97.2232 116.911 97.7264 117.226 98.261C117.541 98.7955 118.107 99.0159 118.013 99.6449C117.918 100.275 117.729 100.652 117.541 100.589C117.351 100.526 116.281 100.022 116.124 99.4878C115.967 98.9532 115.18 98.6065 114.424 98.0401C113.937 97.6748 114.19 96.8266 114.431 96.2712C114.571 95.9477 114.841 95.7007 115.176 95.5917Z"
    fill="#63AABC" stroke="#015165" stroke-width="1.4" stroke-miterlimit="10" />
  <path
    d="M119.713 98.1755C119.713 98.9959 119.047 99.6614 118.226 99.6614C117.405 99.6614 116.74 98.9959 116.74 98.1755C116.74 97.3551 117.405 96.6895 118.226 96.6895C119.047 96.6895 119.713 97.3551 119.713 98.1755Z"
    fill="#63AABC" stroke="#015165" stroke-width="1.4" />
  <path
    d="M86.3413 111.5H85.6916L72.0429 111.512L70.5289 110.416L67.0486 107.917C66.805 107.743 66.6483 107.471 66.6193 107.169L66.4859 105.801L66.4627 105.534C66.3989 104.92 66.8804 104.392 67.4952 104.392H77.4548C78.2727 104.392 79.0558 104.7 79.6474 105.256L83.9863 109.303L86.3413 111.5Z"
    fill="#63AABC" stroke="#015165" stroke-width="1.4" />
  <path
    d="M85.6913 111.5L72.0426 111.512L70.5286 110.416L67.0483 107.917C66.8046 107.743 66.648 107.471 66.619 107.169L66.4856 105.801C66.59 105.343 66.996 105.001 67.4949 105.001H77.4545C78.2724 105.001 79.0555 105.308 79.6471 105.865L83.3363 109.303L85.6913 111.5Z"
    fill="#63AABC" stroke="#015165" stroke-width="1.4" />
  <path
    d="M74.1272 109.266C74.0106 109.266 73.9097 109.243 73.8238 109.197C73.738 109.15 73.6713 109.084 73.6237 108.998C73.5779 108.911 73.5547 108.809 73.5547 108.689V107.973C73.5547 107.945 73.5622 107.923 73.5779 107.907C73.5941 107.891 73.6168 107.882 73.6452 107.882C73.673 107.882 73.6956 107.891 73.7125 107.907C73.7287 107.923 73.7374 107.945 73.7374 107.973V108.695C73.7374 108.83 73.771 108.934 73.8389 109.007C73.9079 109.08 74.0054 109.116 74.1313 109.116C74.2566 109.116 74.3546 109.079 74.4248 109.005C74.4955 108.93 74.5309 108.827 74.5309 108.695V107.973C74.5309 107.945 74.539 107.923 74.5559 107.907C74.5721 107.891 74.5947 107.882 74.6232 107.882C74.651 107.882 74.673 107.891 74.6881 107.907C74.7038 107.923 74.7113 107.945 74.7113 107.973V108.689C74.7113 108.805 74.6875 108.906 74.64 108.993C74.593 109.08 74.5251 109.147 74.4364 109.194C74.3494 109.242 74.2461 109.266 74.1272 109.266Z"
    fill="#63AABC" stroke="#015165" stroke-width="1.4" />
  <path
    d="M75.058 109.266C75.0296 109.266 75.0076 109.258 74.9907 109.243C74.9757 109.226 74.9675 109.204 74.9675 109.175V108.412C74.9675 108.304 74.9913 108.21 75.0377 108.131C75.0835 108.052 75.1491 107.991 75.2349 107.949C75.3219 107.905 75.4252 107.882 75.5429 107.882C75.6607 107.882 75.7622 107.905 75.8481 107.949C75.9351 107.991 76.0018 108.052 76.0482 108.131C76.094 108.21 76.1172 108.304 76.1172 108.412V109.175C76.1172 109.204 76.1091 109.226 76.0923 109.243C76.0766 109.258 76.0551 109.266 76.0267 109.266C75.9989 109.266 75.9763 109.258 75.9594 109.243C75.9432 109.226 75.9345 109.204 75.9345 109.175V108.407C75.9345 108.288 75.9003 108.196 75.8307 108.131C75.7628 108.066 75.6671 108.033 75.5429 108.033C75.42 108.033 75.3231 108.066 75.2541 108.132C75.1851 108.198 75.1502 108.289 75.1502 108.407V109.175C75.1502 109.204 75.1421 109.226 75.1253 109.243C75.1085 109.258 75.0864 109.266 75.058 109.266Z"
    fill="#63AABC" stroke="#015165" stroke-width="1.4" />
  <path
    d="M76.5304 109.266C76.5037 109.266 76.4816 109.258 76.4648 109.243C76.4497 109.226 76.4421 109.204 76.4421 109.175V107.973C76.4421 107.945 76.4497 107.923 76.4648 107.907C76.4816 107.891 76.5037 107.882 76.5304 107.882C76.5589 107.882 76.5815 107.891 76.5984 107.907C76.6152 107.923 76.6233 107.945 76.6233 107.973V109.175C76.6233 109.204 76.6152 109.226 76.5984 109.243C76.5815 109.258 76.5589 109.266 76.5304 109.266Z"
    fill="#63AABC" stroke="#015165" stroke-width="1.4" />
  <path
    d="M77.4898 109.266C77.4613 109.266 77.4399 109.258 77.4242 109.243C77.4091 109.227 77.4016 109.204 77.4016 109.175V108.048H76.9845C76.9561 108.048 76.9341 108.043 76.9172 108.031C76.9022 108.018 76.894 108 76.894 107.978C76.894 107.927 76.9242 107.902 76.9845 107.902H78.0008C78.0292 107.902 78.0507 107.909 78.0663 107.922C78.0814 107.935 78.089 107.953 78.089 107.978C78.089 107.999 78.0814 108.017 78.0663 108.029C78.0507 108.042 78.0292 108.048 78.0008 108.048H77.5837V109.175C77.5837 109.204 77.5756 109.227 77.5588 109.243C77.5425 109.258 77.5193 109.266 77.4898 109.266Z"
    fill="#63AABC" stroke="#015165" stroke-width="1.4" />
  <path
    d="M78.2769 109.266C78.2484 109.266 78.2258 109.258 78.2096 109.243C78.1939 109.226 78.1858 109.203 78.1858 109.175V108.451C78.1858 108.273 78.2368 108.134 78.3383 108.034C78.4393 107.933 78.5791 107.882 78.7571 107.882C78.8749 107.882 78.9764 107.906 79.0623 107.952C79.1493 107.997 79.2154 108.062 79.2601 108.147C79.3065 108.233 79.3297 108.335 79.3297 108.451V109.175C79.3297 109.203 79.321 109.226 79.3047 109.243C79.2879 109.258 79.2653 109.266 79.2374 109.266C79.2102 109.266 79.1887 109.258 79.1719 109.243C79.1551 109.226 79.1469 109.203 79.1469 109.175V108.784H78.3668V109.175C78.3668 109.203 78.3586 109.226 78.3418 109.243C78.3267 109.258 78.3047 109.266 78.2769 109.266ZM79.1469 108.637V108.445C79.1469 108.312 79.1139 108.211 79.0472 108.14C78.9805 108.069 78.8836 108.033 78.7571 108.033C78.6301 108.033 78.5332 108.067 78.4671 108.138C78.4004 108.207 78.3668 108.31 78.3668 108.445V108.637H79.1469Z"
    fill="#63AABC" stroke="#015165" stroke-width="1.4" />
  <path
    d="M79.6852 109.266C79.6568 109.266 79.6348 109.258 79.6179 109.243C79.6028 109.227 79.5947 109.204 79.5947 109.176V108.15C79.5947 108.073 79.6179 108.013 79.6638 107.97C79.7102 107.925 79.774 107.902 79.8563 107.902H80.1806C80.3679 107.902 80.5089 107.941 80.6034 108.019C80.698 108.098 80.7456 108.213 80.7456 108.367C80.7456 108.513 80.6974 108.625 80.6017 108.704C80.5066 108.78 80.3697 108.819 80.1904 108.819H79.7757V109.176C79.7757 109.204 79.767 109.227 79.7508 109.243C79.7351 109.258 79.7136 109.266 79.6852 109.266ZM80.1904 108.672C80.3094 108.672 80.401 108.649 80.4654 108.602C80.5292 108.553 80.5611 108.475 80.5611 108.367C80.5611 108.255 80.5298 108.175 80.4671 108.125C80.4045 108.074 80.3123 108.048 80.1904 108.048H79.8714C79.8418 108.048 79.8186 108.058 79.8006 108.077C79.7838 108.096 79.7757 108.122 79.7757 108.154V108.672H80.1904Z"
    fill="#63AABC" stroke="#015165" stroke-width="1.4" />
  <path
    d="M72.756 108.462C72.7653 108.506 72.7734 108.549 72.7786 108.593C72.7873 108.662 72.7896 108.732 72.7862 108.801C72.774 108.998 72.7102 109.178 72.5994 109.341C72.4567 109.549 72.263 109.688 72.0228 109.762C71.919 109.793 71.8128 109.811 71.7421 109.806C71.4422 109.806 71.209 109.721 71.0118 109.556C70.9897 109.538 70.9677 109.519 70.9468 109.499C70.8894 109.443 70.8389 109.381 70.7966 109.313C70.7507 109.24 70.713 109.161 70.684 109.08C70.6289 108.924 70.6156 108.763 70.6353 108.601C70.6568 108.426 70.7096 108.258 70.7832 108.098C70.8412 107.971 70.9155 107.854 70.9897 107.736C71.0118 107.702 71.0338 107.667 71.0553 107.631C71.1626 107.458 71.2693 107.284 71.3691 107.106C71.376 107.093 71.3836 107.08 71.3905 107.067C71.4167 107.019 71.4404 106.969 71.4648 106.919C71.4776 106.892 71.4903 106.865 71.5031 106.838C71.5222 106.797 71.5419 106.757 71.5617 106.717C71.5628 106.714 71.5646 106.711 71.5657 106.708C71.5692 106.7 71.5727 106.693 71.5767 106.686C71.6058 106.634 71.6493 106.605 71.7096 106.606C71.7705 106.607 71.8152 106.637 71.8418 106.69C71.8569 106.72 71.8697 106.751 71.8836 106.782C71.8929 106.803 71.9022 106.824 71.912 106.845C71.9335 106.89 71.9555 106.935 71.9781 106.98C71.981 106.986 71.9834 106.991 71.9834 106.998C71.9834 107.004 71.981 107.011 71.9781 107.016L71.8581 107.249C71.8563 107.252 71.854 107.255 71.8505 107.257C71.8476 107.259 71.843 107.26 71.8395 107.26C71.8355 107.26 71.832 107.259 71.8291 107.256C71.8256 107.255 71.8239 107.252 71.8221 107.248C71.778 107.156 71.7426 107.084 71.738 107.074C71.7334 107.063 71.727 107.053 71.7206 107.042C71.7119 107.028 71.7026 107.029 71.6933 107.043C71.691 107.046 71.6881 107.051 71.6858 107.055L71.6846 107.057C71.6759 107.075 71.6672 107.092 71.658 107.11C71.5205 107.38 71.3604 107.638 71.1945 107.891C71.0675 108.085 70.9607 108.288 70.9103 108.517C70.8778 108.665 70.8708 108.812 70.9166 108.959C70.9451 109.051 70.9833 109.135 71.0344 109.208C71.1011 109.305 71.1893 109.385 71.2919 109.442C71.3122 109.453 71.332 109.464 71.354 109.474C71.5796 109.578 71.8105 109.58 72.0396 109.484C72.205 109.414 72.3326 109.299 72.4207 109.142C72.4642 109.065 72.5315 108.886 72.5379 108.658C72.5385 108.652 72.5402 108.646 72.5431 108.641L72.6922 108.352C72.6945 108.347 72.6974 108.345 72.7009 108.343C72.7044 108.341 72.709 108.34 72.7131 108.341C72.7171 108.341 72.7206 108.342 72.7235 108.345C72.7264 108.347 72.7287 108.352 72.7299 108.356C72.7409 108.4 72.7548 108.458 72.756 108.462Z"
    fill="#63AABC" stroke="#015165" stroke-width="1.4" />
  <path
    d="M72.6753 108.205C72.6747 108.21 72.673 108.216 72.6701 108.221C72.6382 108.283 72.6092 108.339 72.5825 108.389C72.5645 108.423 72.5477 108.455 72.5326 108.484C72.5303 108.488 72.5274 108.491 72.5239 108.493C72.5204 108.495 72.5164 108.495 72.5123 108.495C72.5083 108.495 72.5042 108.493 72.5013 108.49C72.4984 108.488 72.4961 108.484 72.4949 108.48C72.481 108.428 72.47 108.389 72.4648 108.374C72.4595 108.359 72.4537 108.343 72.4537 108.343C72.4503 108.334 72.4474 108.325 72.4439 108.316C72.4433 108.313 72.4416 108.31 72.4404 108.308C72.4398 108.307 72.4392 108.305 72.4387 108.304C72.4276 108.275 72.4166 108.247 72.4039 108.218L72.4027 108.216L72.4015 108.215C72.3911 108.192 72.3801 108.169 72.3685 108.146C72.2948 108.007 72.2855 108.049 72.2687 108.123C72.2652 108.138 72.2623 108.155 72.2577 108.171V108.172C72.2333 108.288 72.173 108.461 72.0674 108.65C71.9462 108.868 71.789 109.065 71.604 109.232C71.5947 109.24 71.5825 109.244 71.5703 109.243C71.5581 109.243 71.5471 109.238 71.5384 109.229L71.3563 109.048C71.3516 109.043 71.3487 109.038 71.3464 109.032C71.3447 109.027 71.3435 109.021 71.3435 109.014C71.3435 109.008 71.3452 109.002 71.3476 108.996C71.3505 108.991 71.3539 108.986 71.3586 108.982C71.3615 108.979 72.2188 108.064 71.9398 107.455C71.9352 107.444 71.9218 107.417 71.9027 107.381C71.9021 107.379 71.9009 107.378 71.9004 107.377C71.8975 107.371 71.8951 107.365 71.8951 107.358C71.8951 107.352 71.8969 107.345 71.8998 107.339L72.0141 107.118C72.0158 107.114 72.0187 107.111 72.0216 107.11C72.0245 107.108 72.0291 107.107 72.0326 107.107C72.0361 107.107 72.039 107.107 72.0425 107.11C72.0454 107.111 72.0483 107.114 72.05 107.117C72.0622 107.14 72.0755 107.164 72.0889 107.187C72.1538 107.303 72.2223 107.418 72.2936 107.532C72.3203 107.574 72.3482 107.616 72.3748 107.658C72.4381 107.756 72.5007 107.854 72.5576 107.954C72.6214 108.068 72.6521 108.137 72.6724 108.189C72.6742 108.194 72.6759 108.2 72.6753 108.205Z"
    fill="#63AABC" stroke="#015165" stroke-width="1.4" />
  <path
    d="M77.6093 89.6944H70.264C69.6456 89.6944 69.1445 90.1959 69.1445 90.8139V91.4789C69.1445 92.0518 68.6798 92.5156 68.1067 92.5156C67.3028 92.5156 66.5742 92.842 66.0464 93.369C65.5191 93.896 65.1931 94.6242 65.1931 95.4283V103.464C65.1931 104.117 65.7227 104.647 66.3764 104.647H77.8384C78.4927 104.647 79.0229 104.117 79.0229 103.463V91.1079C79.0229 90.3275 78.39 89.6944 77.6093 89.6944ZM71.967 92.5156L72.3464 91.1902C72.456 90.8058 72.807 90.5414 73.206 90.5414H74.5071C74.5071 91.087 74.2861 91.5804 73.9288 91.9381C73.5709 92.2953 73.0773 92.5156 72.5314 92.5156H71.967Z"
    fill="#63AABC" stroke="#015165" stroke-width="1.4" />
  <path
    d="M77.6093 89.6944H70.264C69.6456 89.6944 69.1445 90.1959 69.1445 90.8139V91.4789C69.1445 92.0518 68.6798 92.5156 68.1067 92.5156C67.3028 92.5156 66.5742 92.842 66.0464 93.369C65.5191 93.896 65.1931 94.6242 65.1931 95.4283V103.464C65.1931 104.117 65.7227 104.647 66.3764 104.647H77.8384C78.4927 104.647 79.0229 104.117 79.0229 103.463V91.1079C79.0229 90.3275 78.39 89.6944 77.6093 89.6944ZM71.967 92.5156L72.3464 91.1902C72.456 90.8058 72.807 90.5414 73.206 90.5414H74.5071C74.5071 91.087 74.2861 91.5804 73.9288 91.9381C73.5709 92.2953 73.0773 92.5156 72.5314 92.5156H71.967Z"
    fill="#63AABC" stroke="#015165" stroke-width="1.4" stroke-miterlimit="10" />
  <path
    d="M77.6099 89.6944H72.2403C71.622 89.6944 71.1208 90.1959 71.1208 90.8139V91.4789C71.1208 92.0518 70.6562 92.5156 70.0831 92.5156C69.2791 92.5156 68.5506 92.842 68.0227 93.369C67.4954 93.896 67.1694 94.6242 67.1694 95.4283V103.464C67.1694 104.117 67.699 104.647 68.3528 104.647H77.839C78.4933 104.647 79.0235 104.117 79.0235 103.463V91.1079C79.0235 90.3275 78.3907 89.6944 77.6099 89.6944ZM71.9677 92.5156L72.347 91.1902C72.4567 90.8058 72.8076 90.5414 73.2067 90.5414H74.5078C74.5078 91.087 74.2867 91.5804 73.9294 91.9381C73.5715 92.2953 73.0779 92.5156 72.5321 92.5156H71.9677Z"
    fill="#63AABC" stroke="#015165" stroke-width="1.4" />
  <path
    d="M77.6099 89.6944H72.2403C71.622 89.6944 71.1208 90.1959 71.1208 90.8139V91.4789C71.1208 92.0518 70.6562 92.5156 70.0831 92.5156C69.2791 92.5156 68.5506 92.842 68.0227 93.369C67.4954 93.896 67.1694 94.6242 67.1694 95.4283V103.464C67.1694 104.117 67.699 104.647 68.3528 104.647H77.839C78.4933 104.647 79.0235 104.117 79.0235 103.463V91.1079C79.0235 90.3275 78.3907 89.6944 77.6099 89.6944ZM71.9677 92.5156L72.347 91.1902C72.4567 90.8058 72.8076 90.5414 73.2067 90.5414H74.5078C74.5078 91.087 74.2867 91.5804 73.9294 91.9381C73.5715 92.2953 73.0779 92.5156 72.5321 92.5156H71.9677Z"
    fill="#63AABC" stroke="#015165" stroke-width="1.4" stroke-miterlimit="10" />
  <path
    d="M77.3297 90.541C77.3297 91.0865 77.1087 91.5799 76.7514 91.9376C76.3935 92.2948 75.8999 92.5157 75.3541 92.5157H72.5315C73.0773 92.5157 73.571 92.2948 73.9289 91.9376C74.2862 91.5799 74.5072 91.0865 74.5072 90.541H77.3297Z"
    fill="#63AABC" stroke="#015165" stroke-width="1.4" />
  <path
    d="M77.3297 90.541C77.3297 91.0865 77.1087 91.5799 76.7514 91.9376C76.3935 92.2948 75.8999 92.5157 75.3541 92.5157H72.5315C73.0773 92.5157 73.571 92.2948 73.9289 91.9376C74.2862 91.5799 74.5072 91.0865 74.5072 90.541H77.3297Z"
    fill="#63AABC" stroke="#015165" stroke-width="1.4" stroke-miterlimit="10" />
  <path
    d="M67.9235 93.2375C67.4548 93.5129 66.9292 93.4311 66.8434 93.2537L66.5632 92.8305L68.2361 92.0333L68.5784 92.4664L68.5697 92.5661C68.4415 92.8067 68.4252 92.9429 67.9235 93.2375Z"
    fill="#63AABC" stroke="#015165" stroke-width="1.4" />
  <path
    d="M67.9235 93.2375C67.4548 93.5129 66.9292 93.4311 66.8434 93.2537L66.5632 92.8305L68.2361 92.0333L68.5784 92.4664L68.5697 92.5661C68.4415 92.8067 68.4252 92.9429 67.9235 93.2375Z"
    fill="#63AABC" stroke="#015165" stroke-width="1.4" stroke-miterlimit="10" />
  <path
    d="M68.2821 92.0778C68.368 92.2819 68.0478 92.6112 67.5669 92.813C67.0866 93.0147 66.6266 93.013 66.5408 92.8089C66.4549 92.6042 66.7751 92.2761 67.256 92.0743C67.7363 91.8726 68.1963 91.8737 68.2821 92.0778Z"
    fill="#63AABC" stroke="#015165" stroke-width="1.4" />
  <path
    d="M68.2821 92.0778C68.368 92.2819 68.0478 92.6112 67.5669 92.813C67.0866 93.0147 66.6266 93.013 66.5408 92.8089C66.4549 92.6042 66.7751 92.2761 67.256 92.0743C67.7363 91.8726 68.1963 91.8737 68.2821 92.0778Z"
    fill="#63AABC" stroke="#015165" stroke-width="1.4" stroke-miterlimit="10" />
</svg>