<svg width="212" height="53" viewBox="0 0 212 53" fill="none" xmlns="http://www.w3.org/2000/svg">
  <path d="M53.7519 51.2236H44.8328V7.82092H53.7519V51.2236Z" fill="#1D212F" />
  <path
    d="M85.98 6.9689C90.9038 6.9689 94.9259 8.69532 98.0426 12.1482C101.155 15.601 102.715 19.9912 102.715 25.3139V51.2191H93.7961V26.6725C93.7961 23.3318 92.7199 20.5696 90.5673 18.3902C88.4149 16.211 85.7558 15.1213 82.5854 15.1213C79.0161 15.1213 76.1012 16.211 73.8368 18.3902C71.5723 20.5696 70.4377 23.3318 70.4377 26.6725V51.2191H61.5186V7.8209H70.4377V19.0314C71.626 15.2961 73.5945 12.3501 76.3434 10.1975C79.0878 8.04511 82.303 6.9689 85.9845 6.9689H85.98Z"
    fill="#1D212F" />
  <path
    d="M130.522 6.9689C137.486 6.9689 143.149 9.46205 147.508 14.444C151.867 19.4305 153.651 25.4574 152.858 32.5379H116.93C117.553 36.0492 119.168 38.8966 121.773 41.0759C124.378 43.2553 127.517 44.345 131.199 44.345C134.028 44.345 136.562 43.6499 138.8 42.2641C141.037 40.8785 142.777 38.9952 144.024 36.6141L151.499 39.9279C149.575 43.6096 146.827 46.5511 143.261 48.7618C139.697 50.9726 135.589 52.0757 130.943 52.0757C124.432 52.0757 118.966 49.9233 114.549 45.6228C110.132 41.3226 107.921 35.9685 107.921 29.5693C107.921 23.1704 110.087 17.8072 114.419 13.4711C118.751 9.13925 124.114 6.97339 130.517 6.97339L130.522 6.9689ZM130.522 14.6998C127.235 14.6998 124.392 15.7042 121.984 17.7175C119.576 19.7264 117.975 22.3454 117.186 25.574H143.858C143.123 22.3454 141.549 19.7264 139.145 17.7175C136.737 15.7087 133.863 14.6998 130.522 14.6998Z"
    fill="#1D212F" />
  <path
    d="M177.517 6.9689C182.727 6.9689 186.974 8.32762 190.256 11.045C193.539 13.7625 195.185 17.6728 195.185 22.7669V51.2236H186.265V39.6724C183.602 47.9412 178.252 52.0757 170.212 52.0757C166.472 52.0757 163.36 50.9591 160.867 48.7215C158.374 46.4839 157.131 43.5557 157.131 39.9324C157.131 35.6859 158.629 32.4977 161.633 30.3765C164.633 28.2554 168.458 26.9372 173.1 26.426L181.508 25.574C184.678 25.2914 186.265 23.8744 186.265 21.3274C186.265 19.2332 185.458 17.5607 183.844 16.3186C182.229 15.0719 180.122 14.4485 177.517 14.4485C174.911 14.4485 172.602 15.1303 170.763 16.4888C168.925 17.8476 167.75 19.8297 167.239 22.4349L158.405 20.3094C159.198 16.2333 161.32 12.9912 164.777 10.5831C168.23 8.17964 172.476 6.97339 177.517 6.97339V6.9689ZM173.1 44.8515C176.781 44.8515 179.893 43.6184 182.44 41.1566C184.987 38.6948 186.261 35.8203 186.261 32.5335V30.1568C185.584 31.2914 183.938 31.9954 181.333 32.2778L173.095 33.2958C170.943 33.5827 169.23 34.215 167.956 35.206C166.683 36.1971 166.046 37.5424 166.046 39.2419C166.046 40.9414 166.683 42.3002 167.956 43.318C169.23 44.336 170.943 44.8472 173.095 44.8472L173.1 44.8515Z"
    fill="#1D212F" />
  <path d="M38.6897 51.2236H-2.50684V7.82092H6.919V42.8158H38.6897V51.2236Z" fill="#1D212F" />
  <path
    d="M203.594 6.96892C208.236 6.96892 212 3.20456 212 -1.43901C212 -6.08256 208.236 -9.84692 203.594 -9.84692C198.949 -9.84692 195.185 -6.08256 195.185 -1.43901C195.185 3.20456 198.949 6.96892 203.594 6.96892Z"
    fill="#1D212F" />
</svg>