<svg width="46" height="12" viewBox="0 0 46 12" fill="none" xmlns="http://www.w3.org/2000/svg">
  <g clip-path="url(#clip0_8363_6267)">
    <path d="M12.1021 11.7444H10.2158V3.43848H12.1021V11.7444Z" fill="#B5B5C6" />
    <path
      d="M18.9178 3.27545C19.9591 3.27545 20.8097 3.60583 21.4689 4.26661C22.127 4.92736 22.457 5.76751 22.457 6.78613V11.7436H20.5708V7.04611C20.5708 6.40681 20.3432 5.87821 19.8879 5.46114C19.4328 5.0441 18.8704 4.83556 18.1999 4.83556C17.4451 4.83556 16.8286 5.0441 16.3497 5.46114C15.8708 5.87821 15.6309 6.40681 15.6309 7.04611V11.7436H13.7446V3.4385H15.6309V5.58384C15.8822 4.86901 16.2985 4.30524 16.8798 3.8933C17.4602 3.48141 18.1402 3.27545 18.9188 3.27545H18.9178Z"
      fill="#B5B5C6" />
    <path
      d="M28.3377 3.27545C29.8105 3.27545 31.0082 3.75256 31.93 4.70596C32.8518 5.66023 33.2293 6.81358 33.0614 8.16856H25.4633C25.5951 8.84053 25.9365 9.38544 26.4875 9.80248C27.0385 10.2196 27.7023 10.4281 28.4809 10.4281C29.0793 10.4281 29.6151 10.2951 30.0884 10.0299C30.5616 9.76471 30.9295 9.4043 31.1932 8.94864L32.7741 9.5828C32.3672 10.2874 31.7859 10.8503 31.0319 11.2733C30.278 11.6964 29.4093 11.9075 28.4269 11.9075C27.0499 11.9075 25.8939 11.4956 24.9597 10.6726C24.0256 9.84969 23.5581 8.82508 23.5581 7.60048C23.5581 6.37591 24.0162 5.34958 24.9322 4.51978C25.8483 3.69079 26.9825 3.27631 28.3368 3.27631L28.3377 3.27545ZM28.3377 4.7549C27.6426 4.7549 27.0413 4.94713 26.5321 5.3324C26.0228 5.71685 25.6843 6.21804 25.5174 6.83589H31.1581C31.0026 6.21804 30.6697 5.71685 30.1614 5.3324C29.6521 4.94799 29.0442 4.7549 28.3377 4.7549Z"
      fill="#B5B5C6" />
    <path
      d="M38.2762 3.27545C39.3782 3.27545 40.2763 3.53547 40.9704 4.05549C41.6647 4.57554 42.0128 5.32385 42.0128 6.2987V11.7445H40.1264V9.5339C39.5631 11.1163 38.4318 11.9075 36.7314 11.9075C35.9405 11.9075 35.2823 11.6938 34.755 11.2656C34.2278 10.8374 33.9651 10.277 33.9651 9.58366C33.9651 8.771 34.2818 8.16088 34.9172 7.75494C35.5516 7.34904 36.3606 7.09678 37.3421 6.99894L39.1202 6.83589C39.7907 6.78181 40.1264 6.51065 40.1264 6.02323C40.1264 5.62246 39.9557 5.3024 39.6143 5.06469C39.2729 4.82611 38.8272 4.70683 38.2762 4.70683C37.7252 4.70683 37.2368 4.83729 36.848 5.09728C36.4592 5.3573 36.2108 5.73661 36.1026 6.23518L34.2344 5.82841C34.4023 5.04838 34.8508 4.42794 35.582 3.9671C36.3122 3.50715 37.2103 3.27631 38.2762 3.27631V3.27545ZM37.3421 10.525C38.1207 10.525 38.7788 10.289 39.3175 9.81793C39.8562 9.34682 40.1255 8.79673 40.1255 8.16774V7.7129C39.9823 7.93003 39.6342 8.06476 39.0833 8.1188L37.3412 8.31361C36.886 8.36851 36.5237 8.48953 36.2544 8.67916C35.985 8.86884 35.8504 9.12628 35.8504 9.45151C35.8504 9.77675 35.985 10.0368 36.2544 10.2316C36.5237 10.4264 36.886 10.5242 37.3412 10.5242L37.3421 10.525Z"
      fill="#B5B5C6" />
    <path d="M8.91672 11.7444H0.204346V3.43848H2.19775V10.1354H8.91672V11.7444Z" fill="#B5B5C6" />
    <path
      d="M43.7912 3.27544C44.7729 3.27544 45.569 2.55506 45.569 1.66642C45.569 0.777786 44.7729 0.0574036 43.7912 0.0574036C42.809 0.0574036 42.0129 0.777786 42.0129 1.66642C42.0129 2.55506 42.809 3.27544 43.7912 3.27544Z"
      fill="#B5B5C6" />
  </g>
  <defs>
    <clipPath id="clip0_8363_6267">
      <rect width="46" height="12" fill="white" />
    </clipPath>
  </defs>
</svg>