<svg width="481" height="248" viewBox="0 0 481 248" fill="none" xmlns="http://www.w3.org/2000/svg">
  <rect width="481" height="248" rx="12" fill="#161623" />
  <mask id="mask0_8363_6750" style="mask-type:alpha" maskUnits="userSpaceOnUse" x="0" y="0" width="481" height="248">
    <rect width="481" height="248" rx="12" fill="#161623" />
  </mask>
  <g mask="url(#mask0_8363_6750)">
    <rect x="15" y="7" width="10" height="10" fill="#61DFFF" />
    <rect x="6" y="16" width="10" height="10" fill="#61DFFF" />
    <rect x="6" y="26" width="10" height="10" fill="#61DFFF" />
    <rect x="14" y="187" width="10" height="10" fill="#61DFFF" />
    <rect x="4" y="177" width="10" height="10" fill="#61DFFF" />
    <rect x="4" y="167" width="10" height="10" fill="#61DFFF" />
    <rect x="5" y="196" width="10" height="10" fill="#61DFFF" />
    <rect x="413.5" y="9.5" width="10" height="10" transform="rotate(90 413.5 9.5)" fill="#61DFFF" />
    <rect x="423.5" y="-0.5" width="10" height="10" transform="rotate(90 423.5 -0.5)" fill="#61DFFF" />
    <rect x="433.5" y="-0.5" width="10" height="10" transform="rotate(90 433.5 -0.5)" fill="#61DFFF" />
    <rect x="404.5" y="0.5" width="10" height="10" transform="rotate(90 404.5 0.5)" fill="#61DFFF" />
    <rect x="271" y="236" width="10" height="10" fill="#61DFFF" />
    <rect x="261" y="226" width="10" height="10" fill="#61DFFF" />
    <rect x="281" y="236" width="10" height="10" fill="#61DFFF" />
    <rect x="291" y="236" width="10" height="10" fill="#61DFFF" />
    <rect x="291" y="246" width="10" height="10" fill="#61DFFF" />
    <rect x="281" y="246" width="10" height="10" fill="#61DFFF" />
    <rect x="301" y="236" width="10" height="10" fill="#61DFFF" />
    <rect x="311" y="226" width="10" height="10" fill="#61DFFF" />
    <rect x="301" y="226" width="10" height="10" fill="#61DFFF" />
    <rect x="291" y="216" width="10" height="10" fill="#61DFFF" />
    <rect x="281" y="216" width="10" height="10" fill="#61DFFF" />
    <rect x="261" y="216" width="10" height="10" fill="#61DFFF" />
    <rect x="262" y="245" width="10" height="10" fill="#61DFFF" />
    <rect x="441" y="156" width="10" height="10" fill="#61DFFF" />
    <rect x="431" y="146" width="10" height="10" fill="#61DFFF" />
    <rect x="451" y="156" width="10" height="10" fill="#61DFFF" />
    <rect x="461" y="156" width="10" height="10" fill="#61DFFF" />
    <rect x="461" y="166" width="10" height="10" fill="#61DFFF" />
    <rect x="451" y="166" width="10" height="10" fill="#61DFFF" />
    <rect x="471" y="156" width="10" height="10" fill="#61DFFF" />
    <rect x="471" y="146" width="10" height="10" fill="#61DFFF" />
    <rect x="461" y="136" width="10" height="10" fill="#61DFFF" />
    <rect x="451" y="136" width="10" height="10" fill="#61DFFF" />
    <rect x="431" y="136" width="10" height="10" fill="#61DFFF" />
    <rect x="432" y="165" width="10" height="10" fill="#61DFFF" />
    <rect x="431" y="136" width="10" height="10" fill="#61DFFF" />
    <rect x="421" y="126" width="10" height="10" fill="#61DFFF" />
    <rect x="441" y="136" width="10" height="10" fill="#61DFFF" />
    <rect x="451" y="136" width="10" height="10" fill="#61DFFF" />
    <rect x="451" y="146" width="10" height="10" fill="#61DFFF" />
    <rect x="441" y="146" width="10" height="10" fill="#61DFFF" />
    <rect x="461" y="136" width="10" height="10" fill="#61DFFF" />
    <rect x="471" y="126" width="10" height="10" fill="#61DFFF" />
    <rect x="461" y="126" width="10" height="10" fill="#61DFFF" />
    <rect x="451" y="116" width="10" height="10" fill="#61DFFF" />
    <rect x="441" y="116" width="10" height="10" fill="#61DFFF" />
    <rect x="421" y="116" width="10" height="10" fill="#61DFFF" />
    <rect x="422" y="145" width="10" height="10" fill="#61DFFF" />
    <rect x="251" y="86" width="10" height="10" transform="rotate(180 251 86)" fill="#61DFFF" />
    <rect x="261" y="96" width="10" height="10" transform="rotate(180 261 96)" fill="#61DFFF" />
    <rect x="241" y="86" width="10" height="10" transform="rotate(180 241 86)" fill="#61DFFF" />
    <rect x="231" y="86" width="10" height="10" transform="rotate(180 231 86)" fill="#61DFFF" />
    <rect x="231" y="76" width="10" height="10" transform="rotate(180 231 76)" fill="#61DFFF" />
    <rect x="241" y="76" width="10" height="10" transform="rotate(180 241 76)" fill="#61DFFF" />
    <rect x="221" y="86" width="10" height="10" transform="rotate(180 221 86)" fill="#61DFFF" />
    <rect x="211" y="96" width="10" height="10" transform="rotate(180 211 96)" fill="#61DFFF" />
    <rect x="221" y="96" width="10" height="10" transform="rotate(180 221 96)" fill="#61DFFF" />
    <rect x="231" y="106" width="10" height="10" transform="rotate(180 231 106)" fill="#61DFFF" />
    <rect x="241" y="106" width="10" height="10" transform="rotate(180 241 106)" fill="#61DFFF" />
    <rect x="261" y="106" width="10" height="10" transform="rotate(180 261 106)" fill="#61DFFF" />
    <rect x="260" y="77" width="10" height="10" transform="rotate(180 260 77)" fill="#61DFFF" />
    <rect width="10" height="10" transform="matrix(1 0 0 -1 195 246)" fill="#61DFFF" />
    <rect width="10" height="10" transform="matrix(1 0 0 -1 186 237)" fill="#61DFFF" />
    <rect width="10" height="10" transform="matrix(1 0 0 -1 186 227)" fill="#61DFFF" />
    <rect width="481" height="248" rx="12" fill="url(#paint0_radial_8363_6750)" />
  </g>
  <defs>
    <radialGradient id="paint0_radial_8363_6750" cx="0" cy="0" r="1" gradientUnits="userSpaceOnUse"
      gradientTransform="translate(240.5 124) rotate(89.8128) scale(153.001 318.791)">
      <stop stop-color="#161621" stop-opacity="0" />
      <stop offset="0.5" stop-color="#161621" stop-opacity="0.55" />
      <stop offset="1" stop-color="#161621" />
    </radialGradient>
  </defs>
</svg>