<svg width="199" height="48" viewBox="0 0 199 48" fill="none" xmlns="http://www.w3.org/2000/svg">
  <g filter="url(#filter0_f_10_179)">
    <path fill-rule="evenodd" clip-rule="evenodd"
      d="M66.0861 67.0252C54.3308 26.3469 77.7775 -16.1589 118.456 -27.9142C159.134 -39.6696 201.64 -16.2229 213.395 24.4554C225.151 65.1337 201.704 107.64 161.026 119.395C120.347 131.15 77.8414 107.704 66.0861 67.0252ZM119.23 -25.2359C80.0307 -13.908 57.4366 27.0522 68.7645 66.2512C80.0923 105.45 121.053 128.044 160.252 116.717C199.451 105.389 222.045 64.4285 210.717 25.2294C199.389 -13.9697 158.429 -36.5638 119.23 -25.2359Z"
      fill="url(#paint0_radial_10_179)" />
  </g>
  <circle cx="139.741" cy="45.7402" r="73.8805" transform="rotate(163.882 139.741 45.7402)"
    fill="url(#paint1_radial_10_179)" />
  <path
    d="M155.85 3.88155L172.505 10.9901L173.905 13.4956L159.487 8.95929L143.115 1.57869L141.373 -0.449307L155.85 3.88155Z"
    fill="url(#paint2_radial_10_179)" stroke="url(#paint3_radial_10_179)" stroke-width="0.3" />
  <mask id="path-4-inside-1_10_179" fill="white">
    <path fill-rule="evenodd" clip-rule="evenodd"
      d="M115.212 11.382L115.211 11.3822L115.212 11.382L115.212 11.3818L115.214 11.3811L140.926 -0.739467L143.023 1.70167L143.024 1.70151L136.154 22.8093L115.212 11.382Z" />
  </mask>
  <path fill-rule="evenodd" clip-rule="evenodd"
    d="M115.212 11.382L115.211 11.3822L115.212 11.382L115.212 11.3818L115.214 11.3811L140.926 -0.739467L143.023 1.70167L143.024 1.70151L136.154 22.8093L115.212 11.382Z"
    fill="url(#paint4_radial_10_179)" />
  <path
    d="M115.211 11.3822L115.083 11.111L115.31 11.6657L115.211 11.3822ZM115.212 11.382L115.356 11.1187L115.239 11.0551L115.114 11.0986L115.212 11.382ZM115.212 11.382L115.34 11.6532L115.875 11.4003L115.355 11.1182L115.212 11.382ZM115.212 11.3818L115.113 11.0985L114.471 11.3218L115.069 11.6456L115.212 11.3818ZM115.214 11.3811L115.312 11.6644L115.327 11.6592L115.342 11.6524L115.214 11.3811ZM140.926 -0.739467L141.154 -0.934952L141.005 -1.10823L140.799 -1.01083L140.926 -0.739467ZM143.023 1.70167L142.796 1.89715L142.929 2.05219L143.122 1.98499L143.023 1.70167ZM143.024 1.70151L143.309 1.79435L143.496 1.21938L142.925 1.41819L143.024 1.70151ZM136.154 22.8093L136.011 23.0726L136.328 23.2457L136.44 22.9021L136.154 22.8093ZM115.31 11.6657L115.31 11.6654L115.114 11.0986L115.113 11.0988L115.31 11.6657ZM115.084 11.1108L115.083 11.111L115.34 11.6535L115.34 11.6532L115.084 11.1108ZM115.069 11.6456L115.069 11.6457L115.355 11.1182L115.355 11.1181L115.069 11.6456ZM115.115 11.0977L115.113 11.0985L115.31 11.6652L115.312 11.6644L115.115 11.0977ZM140.799 -1.01083L115.086 11.1097L115.342 11.6524L141.054 -0.468105L140.799 -1.01083ZM143.251 1.50618L141.154 -0.934952L140.699 -0.543983L142.796 1.89715L143.251 1.50618ZM142.925 1.41819L142.925 1.41835L143.122 1.98499L143.123 1.98483L142.925 1.41819ZM136.44 22.9021L143.309 1.79435L142.739 1.60867L135.869 22.7164L136.44 22.9021ZM115.068 11.6454L136.011 23.0726L136.298 22.5459L115.356 11.1187L115.068 11.6454Z"
    fill="url(#paint5_radial_10_179)" mask="url(#path-4-inside-1_10_179)" />
  <path d="M143.115 1.9069L159.109 9.11709L136.42 22.4789L143.115 1.9069Z" fill="url(#paint6_radial_10_179)"
    stroke="url(#paint7_radial_10_179)" stroke-width="0.3" />
  <path d="M136.498 22.7802L159.361 9.31565L170.381 35.7847L136.498 22.7802Z" fill="url(#paint8_radial_10_179)"
    stroke="url(#paint9_radial_10_179)" stroke-width="0.3" />
  <path d="M159.696 9.33969L174.052 13.8564L170.589 35.5056L159.696 9.33969Z" fill="url(#paint10_radial_10_179)"
    stroke="url(#paint11_radial_10_179)" stroke-width="0.3" />
  <path d="M174.288 14.2846L184.477 37.8827L170.826 35.9239L174.288 14.2846Z" fill="url(#paint12_radial_10_179)"
    stroke="url(#paint13_radial_10_179)" stroke-width="0.3" />
  <path d="M136 22.8957L134.217 63.0814L115.488 11.7035L136 22.8957Z" fill="url(#paint14_radial_10_179)"
    stroke="url(#paint15_radial_10_179)" stroke-width="0.3" />
  <path d="M136.294 23.0233L170.349 36.0939L134.497 63.5244L136.294 23.0233Z" fill="url(#paint16_radial_10_179)"
    stroke="url(#paint17_radial_10_179)" stroke-width="0.3" />
  <path d="M170.695 36.2083L184.232 38.1508L135.743 62.9506L170.695 36.2083Z" fill="url(#paint18_radial_10_179)"
    stroke="url(#paint19_radial_10_179)" stroke-width="0.3" />
  <defs>
    <filter id="filter0_f_10_179" x="47.0525" y="-46.9479" width="185.376" height="185.377" filterUnits="userSpaceOnUse"
      color-interpolation-filters="sRGB">
      <feFlood flood-opacity="0" result="BackgroundImageFix" />
      <feBlend mode="normal" in="SourceGraphic" in2="BackgroundImageFix" result="shape" />
      <feGaussianBlur stdDeviation="8" result="effect1_foregroundBlur_10_179" />
    </filter>
    <radialGradient id="paint0_radial_10_179" cx="0" cy="0" r="1" gradientUnits="userSpaceOnUse"
      gradientTransform="translate(106.707 44.404) rotate(-10.5997) scale(72.4739)">
      <stop stop-color="white" />
      <stop offset="0.713542" stop-color="#4BDEF2" />
      <stop offset="0.976648" stop-color="#4BF2A2" />
      <stop offset="1" stop-color="white" />
    </radialGradient>
    <radialGradient id="paint1_radial_10_179" cx="0" cy="0" r="1" gradientUnits="userSpaceOnUse"
      gradientTransform="translate(171.105 56.195) rotate(-174.481) scale(72.4739)">
      <stop stop-color="#43225E" stop-opacity="0.04" />
      <stop offset="0.713542" stop-color="#4B7AF2" stop-opacity="0.2" />
      <stop offset="1" stop-color="#189889" stop-opacity="0.42" />
    </radialGradient>
    <radialGradient id="paint2_radial_10_179" cx="0" cy="0" r="1" gradientUnits="userSpaceOnUse"
      gradientTransform="translate(146.681 1.53268) rotate(33.3241) scale(31.7518 128.475)">
      <stop stop-color="#89EABB" />
      <stop offset="0.421875" stop-color="#9084D7" />
      <stop offset="1" stop-color="#E059D3" />
    </radialGradient>
    <radialGradient id="paint3_radial_10_179" cx="0" cy="0" r="1" gradientUnits="userSpaceOnUse"
      gradientTransform="translate(146.681 1.53268) rotate(33.3241) scale(31.7518 128.475)">
      <stop stop-color="#4BF2A2" />
      <stop offset="0.421875" stop-color="#564D8F" />
      <stop offset="1" stop-color="#DD40CD" />
    </radialGradient>
    <radialGradient id="paint4_radial_10_179" cx="0" cy="0" r="1" gradientUnits="userSpaceOnUse"
      gradientTransform="translate(123.062 2.58037) rotate(83.9456) scale(43.5694 368.509)">
      <stop stop-color="#81F0BB" />
      <stop offset="0.666667" stop-color="#AAA0E8" />
      <stop offset="1" stop-color="#EAAFFF" />
    </radialGradient>
    <radialGradient id="paint5_radial_10_179" cx="0" cy="0" r="1" gradientUnits="userSpaceOnUse"
      gradientTransform="translate(123.409 1.70751) rotate(85.4561) scale(45.8827 373.495)">
      <stop stop-color="#4BF2A2" />
      <stop offset="0.421875" stop-color="#564D8F" />
      <stop offset="1" stop-color="#DD40CD" />
    </radialGradient>
    <radialGradient id="paint6_radial_10_179" cx="0" cy="0" r="1" gradientUnits="userSpaceOnUse"
      gradientTransform="translate(150.022 13.7681) rotate(164.922) scale(16.3314 12.4033)">
      <stop stop-color="#8877F5" />
      <stop offset="1" stop-color="#7AECB5" />
    </radialGradient>
    <radialGradient id="paint7_radial_10_179" cx="0" cy="0" r="1" gradientUnits="userSpaceOnUse"
      gradientTransform="translate(142.839 10.4546) rotate(89.9226) scale(41.5191 293.615)">
      <stop stop-color="#4BF2A2" />
      <stop offset="0.421875" stop-color="#564D8F" />
      <stop offset="1" stop-color="#DD40CD" />
    </radialGradient>
    <radialGradient id="paint8_radial_10_179" cx="0" cy="0" r="1" gradientUnits="userSpaceOnUse"
      gradientTransform="translate(146.98 12.6476) rotate(71.2719) scale(48.8183 494.51)">
      <stop stop-color="#81F0BB" />
      <stop offset="0.421875" stop-color="#AAA0E8" />
      <stop offset="1" stop-color="#DD40CD" />
    </radialGradient>
    <radialGradient id="paint9_radial_10_179" cx="0" cy="0" r="1" gradientUnits="userSpaceOnUse"
      gradientTransform="translate(146.98 12.6476) rotate(71.2719) scale(48.8183 494.51)">
      <stop stop-color="#4BF2A2" />
      <stop offset="0.421875" stop-color="#564D8F" />
      <stop offset="1" stop-color="#DD40CD" />
    </radialGradient>
    <radialGradient id="paint10_radial_10_179" cx="0" cy="0" r="1" gradientUnits="userSpaceOnUse"
      gradientTransform="translate(168.238 20.6025) rotate(85.6718) scale(31.2262 25.8344)">
      <stop stop-color="#8877F5" />
      <stop offset="1" stop-color="#7AECB5" />
    </radialGradient>
    <radialGradient id="paint11_radial_10_179" cx="0" cy="0" r="1" gradientUnits="userSpaceOnUse"
      gradientTransform="translate(160.07 16.8994) rotate(87.2128) scale(42.1473 326.313)">
      <stop stop-color="#4BF2A2" />
      <stop offset="0.421875" stop-color="#564D8F" />
      <stop offset="1" stop-color="#DD40CD" />
    </radialGradient>
    <radialGradient id="paint12_radial_10_179" cx="0" cy="0" r="1" gradientUnits="userSpaceOnUse"
      gradientTransform="translate(174.173 22.5139) rotate(88.9793) scale(41.5829 304.083)">
      <stop stop-color="#89EABB" />
      <stop offset="0.421875" stop-color="#9084D7" />
      <stop offset="1" stop-color="#E059D3" />
    </radialGradient>
    <radialGradient id="paint13_radial_10_179" cx="0" cy="0" r="1" gradientUnits="userSpaceOnUse"
      gradientTransform="translate(174.173 22.5139) rotate(88.9793) scale(41.5829 304.083)">
      <stop stop-color="#4BF2A2" />
      <stop offset="0.421875" stop-color="#564D8F" />
      <stop offset="1" stop-color="#DD40CD" />
    </radialGradient>
    <radialGradient id="paint14_radial_10_179" cx="0" cy="0" r="1" gradientUnits="userSpaceOnUse"
      gradientTransform="translate(115.393 28.0558) rotate(87.995) scale(79.1995 598.396)">
      <stop stop-color="#81F0BB" />
      <stop offset="0.421875" stop-color="#AAA0E8" />
      <stop offset="1" stop-color="#DD40CD" />
    </radialGradient>
    <radialGradient id="paint15_radial_10_179" cx="0" cy="0" r="1" gradientUnits="userSpaceOnUse"
      gradientTransform="translate(115.393 28.0558) rotate(87.995) scale(79.1995 598.396)">
      <stop stop-color="#4BF2A2" />
      <stop offset="0.421875" stop-color="#564D8F" />
      <stop offset="1" stop-color="#DD40CD" />
    </radialGradient>
    <radialGradient id="paint16_radial_10_179" cx="0" cy="0" r="1" gradientUnits="userSpaceOnUse"
      gradientTransform="translate(145.883 35.5255) rotate(99.1812) scale(24.5144 36.9637)">
      <stop stop-color="#81F0BB" />
      <stop offset="0.421875" stop-color="#4EAE9D" />
      <stop offset="0.760417" stop-color="#9D8FEC" />
      <stop offset="1" stop-color="#F2A6EB" />
    </radialGradient>
    <radialGradient id="paint17_radial_10_179" cx="0" cy="0" r="1" gradientUnits="userSpaceOnUse"
      gradientTransform="translate(136.801 38.213) rotate(86.8423) scale(75.2985 589.484)">
      <stop stop-color="#4BF2A2" />
      <stop offset="0.421875" stop-color="#564D8F" />
      <stop offset="1" stop-color="#DD40CD" />
    </radialGradient>
    <radialGradient id="paint18_radial_10_179" cx="0" cy="0" r="1" gradientUnits="userSpaceOnUse"
      gradientTransform="translate(150.159 41.2759) rotate(88.39) scale(80.7017 601.967)">
      <stop stop-color="#89EABB" />
      <stop offset="0.421875" stop-color="#9084D7" />
      <stop offset="1" stop-color="#E059D3" />
    </radialGradient>
    <radialGradient id="paint19_radial_10_179" cx="0" cy="0" r="1" gradientUnits="userSpaceOnUse"
      gradientTransform="translate(150.159 41.2759) rotate(88.39) scale(80.7017 601.967)">
      <stop stop-color="#4BF2A2" />
      <stop offset="0.421875" stop-color="#564D8F" />
      <stop offset="1" stop-color="#DD40CD" />
    </radialGradient>
  </defs>
</svg>