<svg width="361" height="187" viewBox="0 0 361 187" fill="none" xmlns="http://www.w3.org/2000/svg">
<mask id="mask0_850_8965" style="mask-type:alpha" maskUnits="userSpaceOnUse" x="-2" y="0" width="363" height="187">
<path d="M360.689 16C360.689 7.16345 353.526 0 344.689 0H-2.00003V187H360.689V16Z" fill="#161623"/>
</mask>
<g mask="url(#mask0_850_8965)">
<path fill-rule="evenodd" clip-rule="evenodd" d="M-88.7137 -7.54053H-11.6974L45.3542 101.737C45.2671 99.682 45.18 97.6491 45.093 95.638L45.0867 95.4945V-7.54053H103.644V194.54H26.3457L-30.9856 83.6041C-30.8866 86.0457 -30.7876 88.4592 -30.6886 90.8446C-30.5099 95.15 -30.4195 99.1219 -30.4195 102.756V194.54H-88.7137V-7.54053ZM59.3824 119.503C59.7312 123.369 59.9959 126.827 60.1742 129.871L60.5854 136.89H48.7525L-19.7281 5.72117H-75.4587V181.278H-43.6746V102.756C-43.6746 99.3373 -43.7598 95.5519 -43.9323 91.3948C-44.108 87.1597 -44.2838 82.8367 -44.4595 78.4256C-44.6313 74.1126 -44.8886 69.9845 -45.2302 66.0403L-45.2425 65.8978L-45.2487 65.7549C-45.4195 61.8108 -45.6729 58.4538 -46 55.6618L-46.8674 48.2589H-34.3297L34.4142 181.278H90.3892V5.72117H58.3418V95.2073C58.5155 99.2207 58.6892 103.32 58.8629 107.505L59.3824 119.503ZM130.947 -7.54053H255.351V46.7113H194.245V69.4151H250.61V123.667H194.245V194.54H130.947V-7.54053ZM144.202 5.72117V181.278H180.99V110.405H237.355V82.6768H180.99V33.4496H242.096V5.72117H144.202ZM259.232 -7.54053H414.98V47.5046H369.151V194.54H305.062V47.5046H259.232V-7.54053ZM272.488 5.72117V34.2429H318.317V181.278H355.895V34.2429H401.725V5.72117H272.488Z" stroke="url(#paint0_linear_850_8965)" stroke-width="2"/>
<path d="M-2.00003 12C-2.00003 5.37259 3.37255 0 9.99997 0H360.689V187H-2.00003V12Z" fill="url(#paint1_linear_850_8965)"/>
</g>
<defs>
<linearGradient id="paint0_linear_850_8965" x1="-88.7137" y1="93.4997" x2="414.352" y2="75.7209" gradientUnits="userSpaceOnUse">
<stop stop-color="#4BF2A2" stop-opacity="0"/>
<stop offset="0.183136" stop-color="#5EE1B0" stop-opacity="0"/>
<stop offset="0.253952" stop-color="#A89FE7"/>
<stop offset="0.534394" stop-color="#CCB5EF"/>
<stop offset="0.706278" stop-color="#E1C4F4"/>
<stop offset="0.791667" stop-color="#E099E8" stop-opacity="0"/>
<stop offset="0.895917" stop-color="#DF6DDB" stop-opacity="0"/>
<stop offset="1" stop-color="#DD40CD"/>
</linearGradient>
<linearGradient id="paint1_linear_850_8965" x1="179.722" y1="2.96372e-06" x2="179.722" y2="187" gradientUnits="userSpaceOnUse">
<stop stop-color="#161621" stop-opacity="0.99"/>
<stop offset="0.0795666" stop-color="#161621" stop-opacity="0.9"/>
<stop offset="0.52109" stop-color="#161621" stop-opacity="0"/>
<stop offset="0.915974" stop-color="#161621" stop-opacity="0.91"/>
<stop offset="1" stop-color="#161621" stop-opacity="0.99"/>
</linearGradient>
</defs>
</svg>
