<svg width="323" height="60" viewBox="0 0 323 60" fill="none" xmlns="http://www.w3.org/2000/svg">
<mask id="path-1-outside-1_4240_2238" maskUnits="userSpaceOnUse" x="0" y="0" width="274" height="60" fill="black">
<rect fill="white" width="274" height="60"/>
<path fill-rule="evenodd" clip-rule="evenodd" d="M33.6965 55.1555H19.9211V23.5284L19.9227 23.4879C19.9429 22.9801 19.9631 22.4628 19.9832 21.9358L13.2405 27.3997L6 18.3126L22.9752 4.71455H33.6965V55.1555ZM20.0885 19.1426C20.3127 18.9367 20.5419 18.7232 20.776 18.5022C21.5073 17.8093 21.9804 17.3329 22.1955 17.0731C22.1562 17.9048 22.1168 18.8453 22.0775 19.8944C22.0774 19.8961 22.0773 19.8979 22.0773 19.8996C22.0753 19.9535 22.0732 20.0077 22.0712 20.0621C22.0696 20.105 22.068 20.148 22.0664 20.1911C22.0234 21.3604 21.9804 22.4864 21.9374 23.569V53.1255H31.6802V6.74453H23.6795L8.83951 18.6321L13.5496 24.5434L18.8404 20.2561C19.2377 19.9132 19.6537 19.5421 20.0885 19.1426ZM56.2941 54.3367L56.2742 54.352C54.8079 55.4739 53.0758 56 51.1829 56C49.2611 56 47.5033 55.4816 46.027 54.352L46.007 54.3367L45.9875 54.3209C44.2717 52.939 43.6177 50.8558 43.6177 48.5784C43.6177 46.2795 44.2395 44.1135 46.047 42.7896C47.5192 41.6705 49.2698 41.1568 51.1829 41.1568C53.0672 41.1568 54.7922 41.6781 56.2542 42.7896C58.0617 44.1135 58.6835 46.2795 58.6835 48.5784C58.6835 50.8558 58.0295 52.939 56.3137 54.3209L56.2941 54.3367ZM55.0542 44.421C53.9788 43.5982 52.6884 43.1868 51.1829 43.1868C49.6343 43.1868 48.3224 43.5982 47.247 44.421C46.1717 45.2005 45.634 46.5863 45.634 48.5784C45.634 50.4839 46.1717 51.8697 47.247 52.7358C48.3224 53.5586 49.6343 53.97 51.1829 53.97C52.6884 53.97 53.9788 53.5586 55.0542 52.7358C56.1295 51.8697 56.6672 50.4839 56.6672 48.5784C56.6672 46.5863 56.1295 45.2005 55.0542 44.421ZM62.4367 43.3563L62.4334 43.3456C61.2355 39.542 60.6615 35.058 60.6615 29.935C60.6615 24.7825 61.1897 20.2919 62.2912 16.5029C63.4147 12.6383 65.3112 9.52021 68.0639 7.30304C70.8803 5.03472 74.5068 4 78.7437 4C82.7921 4 86.2962 5.04798 89.0918 7.29582C91.8393 9.46169 93.795 12.5649 95.0482 16.4413C96.2944 20.2533 96.8904 24.7664 96.8904 29.935C96.8904 33.76 96.5819 37.2308 95.9485 40.3342C95.3528 43.4638 94.3539 46.2161 92.9096 48.5444C91.4773 50.8799 89.5565 52.6928 87.1678 53.9473C84.7825 55.2227 81.9438 55.8051 78.7437 55.8051C74.6909 55.8051 71.1836 54.7549 68.3866 52.5021C65.6527 50.3001 63.6962 47.2072 62.4402 43.3669L62.4367 43.3563ZM86.2282 52.1512C88.2929 51.0685 89.9489 49.5095 91.1964 47.4741C92.4868 45.3954 93.4116 42.8836 93.9708 39.9388C94.573 36.994 94.8741 33.6594 94.8741 29.935C94.8741 24.9115 94.2934 20.6242 93.132 17.0731C91.9706 13.4787 90.207 10.7504 87.8412 8.88819C85.4754 6.98272 82.4429 6.02998 78.7437 6.02998C74.8294 6.02998 71.6893 6.98272 69.3235 8.88819C66.9577 10.7937 65.2587 13.522 64.2263 17.0731C63.194 20.6242 62.6778 24.9115 62.6778 29.935C62.6778 34.9153 63.237 39.1809 64.3554 42.732C65.5167 46.2832 67.2803 49.0115 69.6461 50.9169C72.0119 52.8224 75.0444 53.7751 78.7437 53.7751C81.7117 53.7751 84.2065 53.2338 86.2282 52.1512ZM80.9729 42.8317L80.9874 42.8139C81.6203 42.0318 82.2023 40.6719 82.5618 38.5008L82.5642 38.486L82.5668 38.4713C82.9679 36.2506 83.1795 33.4151 83.1795 29.935C83.1795 26.4537 82.9677 23.6431 82.568 21.4702L82.5642 21.4493L82.5608 21.4284C82.1998 19.2072 81.6154 17.8322 80.9874 17.0562L80.9617 17.0245L80.9374 16.9919C80.4512 16.3392 79.8066 15.985 78.7437 15.985C77.6819 15.985 76.9958 16.3407 76.4609 17.0242C75.8569 17.8082 75.2892 19.1974 74.9266 21.4284L74.9256 21.4343C74.5633 23.6228 74.3723 26.4465 74.3723 29.935C74.3723 33.3761 74.5628 36.2024 74.9261 38.4389C75.2825 40.5897 75.8406 41.9953 76.4607 42.8447C76.9829 43.4743 77.6698 43.8201 78.7437 43.8201C79.8349 43.8201 80.4836 43.4652 80.9589 42.8499L80.9729 42.8317ZM74.8724 44.0962C73.9691 42.8836 73.3239 41.1081 72.9367 38.7695C72.5496 36.3877 72.356 33.4428 72.356 29.935C72.356 26.3839 72.5496 23.4391 72.9367 21.1006C73.3239 18.7187 73.9691 16.9432 74.8724 15.7739C75.8187 14.5613 77.1091 13.955 78.7437 13.955C80.3782 13.955 81.6472 14.5613 82.5505 15.7739C83.4968 16.9432 84.1635 18.7187 84.5506 21.1006C84.9808 23.4391 85.1958 26.3839 85.1958 29.935C85.1958 33.4862 84.9808 36.4526 84.5506 38.8345C84.1635 41.173 83.4968 42.9269 82.5505 44.0962C81.6472 45.2655 80.3782 45.8501 78.7437 45.8501C77.1091 45.8501 75.8187 45.2655 74.8724 44.0962ZM99.3602 43.3563L99.3569 43.3456C98.159 39.542 97.585 35.058 97.585 29.935C97.585 24.7825 98.1132 20.2919 99.2147 16.5029C100.338 12.6383 102.235 9.52021 104.987 7.30304C107.804 5.03472 111.43 4 115.667 4C119.716 4 123.22 5.04798 126.015 7.29582C128.763 9.46169 130.719 12.5649 131.972 16.4413C133.218 20.2533 133.814 24.7664 133.814 29.935C133.814 33.76 133.505 37.2308 132.872 40.3342C132.276 43.4638 131.277 46.2161 129.833 48.5444C128.401 50.8799 126.48 52.6928 124.091 53.9473C121.706 55.2227 118.867 55.8051 115.667 55.8051C111.614 55.8051 108.107 54.7549 105.31 52.5021C102.576 50.3001 100.62 47.2072 99.3637 43.3669L99.3602 43.3563ZM123.152 52.1512C125.216 51.0685 126.872 49.5095 128.12 47.4741C129.41 45.3954 130.335 42.8836 130.894 39.9388C131.497 36.994 131.798 33.6594 131.798 29.935C131.798 24.9115 131.217 20.6242 130.056 17.0731C128.894 13.4787 127.131 10.7504 124.765 8.88819C122.399 6.98272 119.366 6.02998 115.667 6.02998C111.753 6.02998 108.613 6.98272 106.247 8.88819C103.881 10.7937 102.182 13.522 101.15 17.0731C100.117 20.6242 99.6013 24.9115 99.6013 29.935C99.6013 34.9153 100.16 39.1809 101.279 42.732C102.44 46.2832 104.204 49.0115 106.57 50.9169C108.935 52.8224 111.968 53.7751 115.667 53.7751C118.635 53.7751 121.13 53.2338 123.152 52.1512ZM117.896 42.8317L117.911 42.8139C118.544 42.0318 119.126 40.6719 119.485 38.5008L119.488 38.486L119.49 38.4713C119.891 36.2506 120.103 33.4151 120.103 29.935C120.103 26.4537 119.891 23.6431 119.492 21.4702L119.488 21.4493L119.484 21.4284C119.123 19.2072 118.539 17.8322 117.911 17.0562L117.885 17.0245L117.861 16.9919C117.375 16.3392 116.73 15.985 115.667 15.985C114.605 15.985 113.919 16.3407 113.384 17.0242C112.78 17.8082 112.213 19.1974 111.85 21.4284L111.849 21.4343C111.487 23.6228 111.296 26.4465 111.296 29.935C111.296 33.3761 111.486 36.2024 111.85 38.4389C112.206 40.5897 112.764 41.9953 113.384 42.8447C113.906 43.4743 114.593 43.8201 115.667 43.8201C116.758 43.8201 117.407 43.4652 117.882 42.8499L117.896 42.8317ZM111.796 44.0962C110.893 42.8836 110.247 41.1081 109.86 38.7695C109.473 36.3877 109.28 33.4428 109.28 29.935C109.28 26.3839 109.473 23.4391 109.86 21.1006C110.247 18.7187 110.893 16.9432 111.796 15.7739C112.742 14.5613 114.033 13.955 115.667 13.955C117.302 13.955 118.571 14.5613 119.474 15.7739C120.42 16.9432 121.087 18.7187 121.474 21.1006C121.904 23.4391 122.119 26.3839 122.119 29.935C122.119 33.4862 121.904 36.4526 121.474 38.8345C121.087 41.173 120.42 42.9269 119.474 44.0962C118.571 45.2655 117.302 45.8501 115.667 45.8501C114.033 45.8501 112.742 45.2655 111.796 44.0962ZM185.304 55.1555H154.753V4.71455H185.304V16.8295H168.529V22.9681H184.143V35.0831H168.529V42.9756H185.304V55.1555ZM166.512 45.0056V33.0531H182.127V24.9981H166.512V14.7995H183.288V6.74453H156.77V53.1255H183.288V45.0056H166.512ZM212.634 55.1555H198.858V16.9594H186.341V4.71455H225.151V16.9594H212.634V55.1555ZM200.875 14.9294V53.1255H210.617V14.9294H223.135V6.74453H188.357V14.9294H200.875ZM270 55.1555H256.225V35.148H241.998V55.1555H228.222V4.71455H241.998V22.9032H256.225V4.71455H270V55.1555ZM258.241 24.9332H239.981V6.74453H230.238V53.1255H239.981V33.118H258.241V53.1255H267.984V6.74453H258.241V24.9332Z"/>
</mask>
<path fill-rule="evenodd" clip-rule="evenodd" d="M33.6965 55.1555H19.9211V23.5284L19.9227 23.4879C19.9429 22.9801 19.9631 22.4628 19.9832 21.9358L13.2405 27.3997L6 18.3126L22.9752 4.71455H33.6965V55.1555ZM20.0885 19.1426C20.3127 18.9367 20.5419 18.7232 20.776 18.5022C21.5073 17.8093 21.9804 17.3329 22.1955 17.0731C22.1562 17.9048 22.1168 18.8453 22.0775 19.8944C22.0774 19.8961 22.0773 19.8979 22.0773 19.8996C22.0753 19.9535 22.0732 20.0077 22.0712 20.0621C22.0696 20.105 22.068 20.148 22.0664 20.1911C22.0234 21.3604 21.9804 22.4864 21.9374 23.569V53.1255H31.6802V6.74453H23.6795L8.83951 18.6321L13.5496 24.5434L18.8404 20.2561C19.2377 19.9132 19.6537 19.5421 20.0885 19.1426ZM56.2941 54.3367L56.2742 54.352C54.8079 55.4739 53.0758 56 51.1829 56C49.2611 56 47.5033 55.4816 46.027 54.352L46.007 54.3367L45.9875 54.3209C44.2717 52.939 43.6177 50.8558 43.6177 48.5784C43.6177 46.2795 44.2395 44.1135 46.047 42.7896C47.5192 41.6705 49.2698 41.1568 51.1829 41.1568C53.0672 41.1568 54.7922 41.6781 56.2542 42.7896C58.0617 44.1135 58.6835 46.2795 58.6835 48.5784C58.6835 50.8558 58.0295 52.939 56.3137 54.3209L56.2941 54.3367ZM55.0542 44.421C53.9788 43.5982 52.6884 43.1868 51.1829 43.1868C49.6343 43.1868 48.3224 43.5982 47.247 44.421C46.1717 45.2005 45.634 46.5863 45.634 48.5784C45.634 50.4839 46.1717 51.8697 47.247 52.7358C48.3224 53.5586 49.6343 53.97 51.1829 53.97C52.6884 53.97 53.9788 53.5586 55.0542 52.7358C56.1295 51.8697 56.6672 50.4839 56.6672 48.5784C56.6672 46.5863 56.1295 45.2005 55.0542 44.421ZM62.4367 43.3563L62.4334 43.3456C61.2355 39.542 60.6615 35.058 60.6615 29.935C60.6615 24.7825 61.1897 20.2919 62.2912 16.5029C63.4147 12.6383 65.3112 9.52021 68.0639 7.30304C70.8803 5.03472 74.5068 4 78.7437 4C82.7921 4 86.2962 5.04798 89.0918 7.29582C91.8393 9.46169 93.795 12.5649 95.0482 16.4413C96.2944 20.2533 96.8904 24.7664 96.8904 29.935C96.8904 33.76 96.5819 37.2308 95.9485 40.3342C95.3528 43.4638 94.3539 46.2161 92.9096 48.5444C91.4773 50.8799 89.5565 52.6928 87.1678 53.9473C84.7825 55.2227 81.9438 55.8051 78.7437 55.8051C74.6909 55.8051 71.1836 54.7549 68.3866 52.5021C65.6527 50.3001 63.6962 47.2072 62.4402 43.3669L62.4367 43.3563ZM86.2282 52.1512C88.2929 51.0685 89.9489 49.5095 91.1964 47.4741C92.4868 45.3954 93.4116 42.8836 93.9708 39.9388C94.573 36.994 94.8741 33.6594 94.8741 29.935C94.8741 24.9115 94.2934 20.6242 93.132 17.0731C91.9706 13.4787 90.207 10.7504 87.8412 8.88819C85.4754 6.98272 82.4429 6.02998 78.7437 6.02998C74.8294 6.02998 71.6893 6.98272 69.3235 8.88819C66.9577 10.7937 65.2587 13.522 64.2263 17.0731C63.194 20.6242 62.6778 24.9115 62.6778 29.935C62.6778 34.9153 63.237 39.1809 64.3554 42.732C65.5167 46.2832 67.2803 49.0115 69.6461 50.9169C72.0119 52.8224 75.0444 53.7751 78.7437 53.7751C81.7117 53.7751 84.2065 53.2338 86.2282 52.1512ZM80.9729 42.8317L80.9874 42.8139C81.6203 42.0318 82.2023 40.6719 82.5618 38.5008L82.5642 38.486L82.5668 38.4713C82.9679 36.2506 83.1795 33.4151 83.1795 29.935C83.1795 26.4537 82.9677 23.6431 82.568 21.4702L82.5642 21.4493L82.5608 21.4284C82.1998 19.2072 81.6154 17.8322 80.9874 17.0562L80.9617 17.0245L80.9374 16.9919C80.4512 16.3392 79.8066 15.985 78.7437 15.985C77.6819 15.985 76.9958 16.3407 76.4609 17.0242C75.8569 17.8082 75.2892 19.1974 74.9266 21.4284L74.9256 21.4343C74.5633 23.6228 74.3723 26.4465 74.3723 29.935C74.3723 33.3761 74.5628 36.2024 74.9261 38.4389C75.2825 40.5897 75.8406 41.9953 76.4607 42.8447C76.9829 43.4743 77.6698 43.8201 78.7437 43.8201C79.8349 43.8201 80.4836 43.4652 80.9589 42.8499L80.9729 42.8317ZM74.8724 44.0962C73.9691 42.8836 73.3239 41.1081 72.9367 38.7695C72.5496 36.3877 72.356 33.4428 72.356 29.935C72.356 26.3839 72.5496 23.4391 72.9367 21.1006C73.3239 18.7187 73.9691 16.9432 74.8724 15.7739C75.8187 14.5613 77.1091 13.955 78.7437 13.955C80.3782 13.955 81.6472 14.5613 82.5505 15.7739C83.4968 16.9432 84.1635 18.7187 84.5506 21.1006C84.9808 23.4391 85.1958 26.3839 85.1958 29.935C85.1958 33.4862 84.9808 36.4526 84.5506 38.8345C84.1635 41.173 83.4968 42.9269 82.5505 44.0962C81.6472 45.2655 80.3782 45.8501 78.7437 45.8501C77.1091 45.8501 75.8187 45.2655 74.8724 44.0962ZM99.3602 43.3563L99.3569 43.3456C98.159 39.542 97.585 35.058 97.585 29.935C97.585 24.7825 98.1132 20.2919 99.2147 16.5029C100.338 12.6383 102.235 9.52021 104.987 7.30304C107.804 5.03472 111.43 4 115.667 4C119.716 4 123.22 5.04798 126.015 7.29582C128.763 9.46169 130.719 12.5649 131.972 16.4413C133.218 20.2533 133.814 24.7664 133.814 29.935C133.814 33.76 133.505 37.2308 132.872 40.3342C132.276 43.4638 131.277 46.2161 129.833 48.5444C128.401 50.8799 126.48 52.6928 124.091 53.9473C121.706 55.2227 118.867 55.8051 115.667 55.8051C111.614 55.8051 108.107 54.7549 105.31 52.5021C102.576 50.3001 100.62 47.2072 99.3637 43.3669L99.3602 43.3563ZM123.152 52.1512C125.216 51.0685 126.872 49.5095 128.12 47.4741C129.41 45.3954 130.335 42.8836 130.894 39.9388C131.497 36.994 131.798 33.6594 131.798 29.935C131.798 24.9115 131.217 20.6242 130.056 17.0731C128.894 13.4787 127.131 10.7504 124.765 8.88819C122.399 6.98272 119.366 6.02998 115.667 6.02998C111.753 6.02998 108.613 6.98272 106.247 8.88819C103.881 10.7937 102.182 13.522 101.15 17.0731C100.117 20.6242 99.6013 24.9115 99.6013 29.935C99.6013 34.9153 100.16 39.1809 101.279 42.732C102.44 46.2832 104.204 49.0115 106.57 50.9169C108.935 52.8224 111.968 53.7751 115.667 53.7751C118.635 53.7751 121.13 53.2338 123.152 52.1512ZM117.896 42.8317L117.911 42.8139C118.544 42.0318 119.126 40.6719 119.485 38.5008L119.488 38.486L119.49 38.4713C119.891 36.2506 120.103 33.4151 120.103 29.935C120.103 26.4537 119.891 23.6431 119.492 21.4702L119.488 21.4493L119.484 21.4284C119.123 19.2072 118.539 17.8322 117.911 17.0562L117.885 17.0245L117.861 16.9919C117.375 16.3392 116.73 15.985 115.667 15.985C114.605 15.985 113.919 16.3407 113.384 17.0242C112.78 17.8082 112.213 19.1974 111.85 21.4284L111.849 21.4343C111.487 23.6228 111.296 26.4465 111.296 29.935C111.296 33.3761 111.486 36.2024 111.85 38.4389C112.206 40.5897 112.764 41.9953 113.384 42.8447C113.906 43.4743 114.593 43.8201 115.667 43.8201C116.758 43.8201 117.407 43.4652 117.882 42.8499L117.896 42.8317ZM111.796 44.0962C110.893 42.8836 110.247 41.1081 109.86 38.7695C109.473 36.3877 109.28 33.4428 109.28 29.935C109.28 26.3839 109.473 23.4391 109.86 21.1006C110.247 18.7187 110.893 16.9432 111.796 15.7739C112.742 14.5613 114.033 13.955 115.667 13.955C117.302 13.955 118.571 14.5613 119.474 15.7739C120.42 16.9432 121.087 18.7187 121.474 21.1006C121.904 23.4391 122.119 26.3839 122.119 29.935C122.119 33.4862 121.904 36.4526 121.474 38.8345C121.087 41.173 120.42 42.9269 119.474 44.0962C118.571 45.2655 117.302 45.8501 115.667 45.8501C114.033 45.8501 112.742 45.2655 111.796 44.0962ZM185.304 55.1555H154.753V4.71455H185.304V16.8295H168.529V22.9681H184.143V35.0831H168.529V42.9756H185.304V55.1555ZM166.512 45.0056V33.0531H182.127V24.9981H166.512V14.7995H183.288V6.74453H156.77V53.1255H183.288V45.0056H166.512ZM212.634 55.1555H198.858V16.9594H186.341V4.71455H225.151V16.9594H212.634V55.1555ZM200.875 14.9294V53.1255H210.617V14.9294H223.135V6.74453H188.357V14.9294H200.875ZM270 55.1555H256.225V35.148H241.998V55.1555H228.222V4.71455H241.998V22.9032H256.225V4.71455H270V55.1555ZM258.241 24.9332H239.981V6.74453H230.238V53.1255H239.981V33.118H258.241V53.1255H267.984V6.74453H258.241V24.9332Z" fill="url(#paint0_radial_4240_2238)"/>
<path fill-rule="evenodd" clip-rule="evenodd" d="M33.6965 55.1555H19.9211V23.5284L19.9227 23.4879C19.9429 22.9801 19.9631 22.4628 19.9832 21.9358L13.2405 27.3997L6 18.3126L22.9752 4.71455H33.6965V55.1555ZM20.0885 19.1426C20.3127 18.9367 20.5419 18.7232 20.776 18.5022C21.5073 17.8093 21.9804 17.3329 22.1955 17.0731C22.1562 17.9048 22.1168 18.8453 22.0775 19.8944C22.0774 19.8961 22.0773 19.8979 22.0773 19.8996C22.0753 19.9535 22.0732 20.0077 22.0712 20.0621C22.0696 20.105 22.068 20.148 22.0664 20.1911C22.0234 21.3604 21.9804 22.4864 21.9374 23.569V53.1255H31.6802V6.74453H23.6795L8.83951 18.6321L13.5496 24.5434L18.8404 20.2561C19.2377 19.9132 19.6537 19.5421 20.0885 19.1426ZM56.2941 54.3367L56.2742 54.352C54.8079 55.4739 53.0758 56 51.1829 56C49.2611 56 47.5033 55.4816 46.027 54.352L46.007 54.3367L45.9875 54.3209C44.2717 52.939 43.6177 50.8558 43.6177 48.5784C43.6177 46.2795 44.2395 44.1135 46.047 42.7896C47.5192 41.6705 49.2698 41.1568 51.1829 41.1568C53.0672 41.1568 54.7922 41.6781 56.2542 42.7896C58.0617 44.1135 58.6835 46.2795 58.6835 48.5784C58.6835 50.8558 58.0295 52.939 56.3137 54.3209L56.2941 54.3367ZM55.0542 44.421C53.9788 43.5982 52.6884 43.1868 51.1829 43.1868C49.6343 43.1868 48.3224 43.5982 47.247 44.421C46.1717 45.2005 45.634 46.5863 45.634 48.5784C45.634 50.4839 46.1717 51.8697 47.247 52.7358C48.3224 53.5586 49.6343 53.97 51.1829 53.97C52.6884 53.97 53.9788 53.5586 55.0542 52.7358C56.1295 51.8697 56.6672 50.4839 56.6672 48.5784C56.6672 46.5863 56.1295 45.2005 55.0542 44.421ZM62.4367 43.3563L62.4334 43.3456C61.2355 39.542 60.6615 35.058 60.6615 29.935C60.6615 24.7825 61.1897 20.2919 62.2912 16.5029C63.4147 12.6383 65.3112 9.52021 68.0639 7.30304C70.8803 5.03472 74.5068 4 78.7437 4C82.7921 4 86.2962 5.04798 89.0918 7.29582C91.8393 9.46169 93.795 12.5649 95.0482 16.4413C96.2944 20.2533 96.8904 24.7664 96.8904 29.935C96.8904 33.76 96.5819 37.2308 95.9485 40.3342C95.3528 43.4638 94.3539 46.2161 92.9096 48.5444C91.4773 50.8799 89.5565 52.6928 87.1678 53.9473C84.7825 55.2227 81.9438 55.8051 78.7437 55.8051C74.6909 55.8051 71.1836 54.7549 68.3866 52.5021C65.6527 50.3001 63.6962 47.2072 62.4402 43.3669L62.4367 43.3563ZM86.2282 52.1512C88.2929 51.0685 89.9489 49.5095 91.1964 47.4741C92.4868 45.3954 93.4116 42.8836 93.9708 39.9388C94.573 36.994 94.8741 33.6594 94.8741 29.935C94.8741 24.9115 94.2934 20.6242 93.132 17.0731C91.9706 13.4787 90.207 10.7504 87.8412 8.88819C85.4754 6.98272 82.4429 6.02998 78.7437 6.02998C74.8294 6.02998 71.6893 6.98272 69.3235 8.88819C66.9577 10.7937 65.2587 13.522 64.2263 17.0731C63.194 20.6242 62.6778 24.9115 62.6778 29.935C62.6778 34.9153 63.237 39.1809 64.3554 42.732C65.5167 46.2832 67.2803 49.0115 69.6461 50.9169C72.0119 52.8224 75.0444 53.7751 78.7437 53.7751C81.7117 53.7751 84.2065 53.2338 86.2282 52.1512ZM80.9729 42.8317L80.9874 42.8139C81.6203 42.0318 82.2023 40.6719 82.5618 38.5008L82.5642 38.486L82.5668 38.4713C82.9679 36.2506 83.1795 33.4151 83.1795 29.935C83.1795 26.4537 82.9677 23.6431 82.568 21.4702L82.5642 21.4493L82.5608 21.4284C82.1998 19.2072 81.6154 17.8322 80.9874 17.0562L80.9617 17.0245L80.9374 16.9919C80.4512 16.3392 79.8066 15.985 78.7437 15.985C77.6819 15.985 76.9958 16.3407 76.4609 17.0242C75.8569 17.8082 75.2892 19.1974 74.9266 21.4284L74.9256 21.4343C74.5633 23.6228 74.3723 26.4465 74.3723 29.935C74.3723 33.3761 74.5628 36.2024 74.9261 38.4389C75.2825 40.5897 75.8406 41.9953 76.4607 42.8447C76.9829 43.4743 77.6698 43.8201 78.7437 43.8201C79.8349 43.8201 80.4836 43.4652 80.9589 42.8499L80.9729 42.8317ZM74.8724 44.0962C73.9691 42.8836 73.3239 41.1081 72.9367 38.7695C72.5496 36.3877 72.356 33.4428 72.356 29.935C72.356 26.3839 72.5496 23.4391 72.9367 21.1006C73.3239 18.7187 73.9691 16.9432 74.8724 15.7739C75.8187 14.5613 77.1091 13.955 78.7437 13.955C80.3782 13.955 81.6472 14.5613 82.5505 15.7739C83.4968 16.9432 84.1635 18.7187 84.5506 21.1006C84.9808 23.4391 85.1958 26.3839 85.1958 29.935C85.1958 33.4862 84.9808 36.4526 84.5506 38.8345C84.1635 41.173 83.4968 42.9269 82.5505 44.0962C81.6472 45.2655 80.3782 45.8501 78.7437 45.8501C77.1091 45.8501 75.8187 45.2655 74.8724 44.0962ZM99.3602 43.3563L99.3569 43.3456C98.159 39.542 97.585 35.058 97.585 29.935C97.585 24.7825 98.1132 20.2919 99.2147 16.5029C100.338 12.6383 102.235 9.52021 104.987 7.30304C107.804 5.03472 111.43 4 115.667 4C119.716 4 123.22 5.04798 126.015 7.29582C128.763 9.46169 130.719 12.5649 131.972 16.4413C133.218 20.2533 133.814 24.7664 133.814 29.935C133.814 33.76 133.505 37.2308 132.872 40.3342C132.276 43.4638 131.277 46.2161 129.833 48.5444C128.401 50.8799 126.48 52.6928 124.091 53.9473C121.706 55.2227 118.867 55.8051 115.667 55.8051C111.614 55.8051 108.107 54.7549 105.31 52.5021C102.576 50.3001 100.62 47.2072 99.3637 43.3669L99.3602 43.3563ZM123.152 52.1512C125.216 51.0685 126.872 49.5095 128.12 47.4741C129.41 45.3954 130.335 42.8836 130.894 39.9388C131.497 36.994 131.798 33.6594 131.798 29.935C131.798 24.9115 131.217 20.6242 130.056 17.0731C128.894 13.4787 127.131 10.7504 124.765 8.88819C122.399 6.98272 119.366 6.02998 115.667 6.02998C111.753 6.02998 108.613 6.98272 106.247 8.88819C103.881 10.7937 102.182 13.522 101.15 17.0731C100.117 20.6242 99.6013 24.9115 99.6013 29.935C99.6013 34.9153 100.16 39.1809 101.279 42.732C102.44 46.2832 104.204 49.0115 106.57 50.9169C108.935 52.8224 111.968 53.7751 115.667 53.7751C118.635 53.7751 121.13 53.2338 123.152 52.1512ZM117.896 42.8317L117.911 42.8139C118.544 42.0318 119.126 40.6719 119.485 38.5008L119.488 38.486L119.49 38.4713C119.891 36.2506 120.103 33.4151 120.103 29.935C120.103 26.4537 119.891 23.6431 119.492 21.4702L119.488 21.4493L119.484 21.4284C119.123 19.2072 118.539 17.8322 117.911 17.0562L117.885 17.0245L117.861 16.9919C117.375 16.3392 116.73 15.985 115.667 15.985C114.605 15.985 113.919 16.3407 113.384 17.0242C112.78 17.8082 112.213 19.1974 111.85 21.4284L111.849 21.4343C111.487 23.6228 111.296 26.4465 111.296 29.935C111.296 33.3761 111.486 36.2024 111.85 38.4389C112.206 40.5897 112.764 41.9953 113.384 42.8447C113.906 43.4743 114.593 43.8201 115.667 43.8201C116.758 43.8201 117.407 43.4652 117.882 42.8499L117.896 42.8317ZM111.796 44.0962C110.893 42.8836 110.247 41.1081 109.86 38.7695C109.473 36.3877 109.28 33.4428 109.28 29.935C109.28 26.3839 109.473 23.4391 109.86 21.1006C110.247 18.7187 110.893 16.9432 111.796 15.7739C112.742 14.5613 114.033 13.955 115.667 13.955C117.302 13.955 118.571 14.5613 119.474 15.7739C120.42 16.9432 121.087 18.7187 121.474 21.1006C121.904 23.4391 122.119 26.3839 122.119 29.935C122.119 33.4862 121.904 36.4526 121.474 38.8345C121.087 41.173 120.42 42.9269 119.474 44.0962C118.571 45.2655 117.302 45.8501 115.667 45.8501C114.033 45.8501 112.742 45.2655 111.796 44.0962ZM185.304 55.1555H154.753V4.71455H185.304V16.8295H168.529V22.9681H184.143V35.0831H168.529V42.9756H185.304V55.1555ZM166.512 45.0056V33.0531H182.127V24.9981H166.512V14.7995H183.288V6.74453H156.77V53.1255H183.288V45.0056H166.512ZM212.634 55.1555H198.858V16.9594H186.341V4.71455H225.151V16.9594H212.634V55.1555ZM200.875 14.9294V53.1255H210.617V14.9294H223.135V6.74453H188.357V14.9294H200.875ZM270 55.1555H256.225V35.148H241.998V55.1555H228.222V4.71455H241.998V22.9032H256.225V4.71455H270V55.1555ZM258.241 24.9332H239.981V6.74453H230.238V53.1255H239.981V33.118H258.241V53.1255H267.984V6.74453H258.241V24.9332Z" stroke="url(#paint1_radial_4240_2238)" stroke-width="8" mask="url(#path-1-outside-1_4240_2238)"/>
<path fill-rule="evenodd" clip-rule="evenodd" d="M33.6965 55.1555H19.9211V23.5284L19.9227 23.4879C19.9429 22.9801 19.9631 22.4628 19.9832 21.9358L13.2405 27.3997L6 18.3126L22.9752 4.71455H33.6965V55.1555ZM20.0885 19.1426C20.3127 18.9367 20.5419 18.7232 20.776 18.5022C21.5073 17.8093 21.9804 17.3329 22.1955 17.0731C22.1562 17.9048 22.1168 18.8453 22.0775 19.8944L22.0773 19.8996C22.0753 19.9535 22.0732 20.0077 22.0712 20.0621C22.0696 20.105 22.068 20.148 22.0664 20.1911C22.0234 21.3604 21.9804 22.4864 21.9374 23.569V53.1255H31.6802V6.74453H23.6795L8.83951 18.6321L13.5496 24.5434L18.8404 20.2561C19.2377 19.9132 19.6537 19.5421 20.0885 19.1426ZM56.2941 54.3367L56.2742 54.352C54.8079 55.4739 53.0758 56 51.1829 56C49.2611 56 47.5033 55.4816 46.027 54.352L46.007 54.3367L45.9875 54.3209C44.2717 52.939 43.6177 50.8558 43.6177 48.5784C43.6177 46.2795 44.2395 44.1135 46.047 42.7896C47.5192 41.6705 49.2698 41.1568 51.1829 41.1568C53.0672 41.1568 54.7922 41.6781 56.2542 42.7896C58.0617 44.1135 58.6835 46.2795 58.6835 48.5784C58.6835 50.8558 58.0295 52.939 56.3137 54.3209L56.2941 54.3367ZM55.0542 44.421C53.9788 43.5982 52.6884 43.1868 51.1829 43.1868C49.6343 43.1868 48.3224 43.5982 47.247 44.421C46.1717 45.2005 45.634 46.5863 45.634 48.5784C45.634 50.4839 46.1717 51.8697 47.247 52.7358C48.3224 53.5586 49.6343 53.97 51.1829 53.97C52.6884 53.97 53.9788 53.5586 55.0542 52.7358C56.1295 51.8697 56.6672 50.4839 56.6672 48.5784C56.6672 46.5863 56.1295 45.2005 55.0542 44.421ZM62.4367 43.3563L62.4334 43.3456C61.2355 39.542 60.6615 35.058 60.6615 29.935C60.6615 24.7825 61.1897 20.2919 62.2912 16.5029C63.4147 12.6383 65.3112 9.52021 68.0639 7.30304C70.8802 5.03472 74.5068 4 78.7437 4C82.7921 4 86.2962 5.04798 89.0918 7.29582C91.8393 9.46169 93.795 12.5649 95.0482 16.4413C96.2944 20.2533 96.8904 24.7664 96.8904 29.935C96.8904 33.76 96.5819 37.2308 95.9485 40.3342C95.3528 43.4638 94.3539 46.2161 92.9096 48.5444C91.4773 50.8799 89.5565 52.6928 87.1678 53.9473C84.7825 55.2227 81.9438 55.8051 78.7437 55.8051C74.6909 55.8051 71.1836 54.7549 68.3866 52.5021C65.6527 50.3001 63.6962 47.2072 62.4402 43.3669L62.4367 43.3563ZM86.2282 52.1512C88.2929 51.0685 89.9489 49.5095 91.1964 47.4741C92.4868 45.3954 93.4116 42.8836 93.9708 39.9388C94.573 36.994 94.8741 33.6594 94.8741 29.935C94.8741 24.9115 94.2934 20.6242 93.132 17.0731C91.9706 13.4787 90.207 10.7504 87.8412 8.88819C85.4754 6.98272 82.4429 6.02998 78.7437 6.02998C74.8294 6.02998 71.6893 6.98272 69.3235 8.88819C66.9577 10.7937 65.2587 13.522 64.2263 17.0731C63.194 20.6242 62.6778 24.9115 62.6778 29.935C62.6778 34.9153 63.237 39.1809 64.3554 42.732C65.5167 46.2832 67.2803 49.0115 69.6461 50.9169C72.0119 52.8224 75.0444 53.7751 78.7437 53.7751C81.7117 53.7751 84.2065 53.2338 86.2282 52.1512ZM80.9729 42.8317L80.9874 42.8139C81.6203 42.0318 82.2023 40.6719 82.5618 38.5008L82.5642 38.486L82.5668 38.4713C82.9679 36.2506 83.1795 33.4151 83.1795 29.935C83.1795 26.4537 82.9677 23.6431 82.568 21.4702L82.5642 21.4493L82.5608 21.4284C82.1998 19.2072 81.6154 17.8322 80.9874 17.0562L80.9617 17.0245L80.9374 16.9919C80.4512 16.3392 79.8066 15.985 78.7437 15.985C77.6819 15.985 76.9958 16.3407 76.4609 17.0242C75.8569 17.8082 75.2892 19.1974 74.9266 21.4284L74.9256 21.4343C74.5633 23.6228 74.3723 26.4465 74.3723 29.935C74.3723 33.3761 74.5628 36.2024 74.9261 38.4389C75.2825 40.5897 75.8406 41.9953 76.4607 42.8447C76.9829 43.4743 77.6698 43.8201 78.7437 43.8201C79.8349 43.8201 80.4835 43.4652 80.9589 42.8499L80.9729 42.8317ZM74.8724 44.0962C73.9691 42.8836 73.3239 41.1081 72.9367 38.7695C72.5496 36.3877 72.356 33.4428 72.356 29.935C72.356 26.3839 72.5496 23.4391 72.9367 21.1006C73.3239 18.7187 73.9691 16.9432 74.8724 15.7739C75.8187 14.5613 77.1091 13.955 78.7437 13.955C80.3782 13.955 81.6472 14.5613 82.5505 15.7739C83.4968 16.9432 84.1635 18.7187 84.5506 21.1006C84.9808 23.4391 85.1958 26.3839 85.1958 29.935C85.1958 33.4862 84.9808 36.4526 84.5506 38.8345C84.1635 41.173 83.4968 42.9269 82.5505 44.0962C81.6472 45.2655 80.3782 45.8501 78.7437 45.8501C77.1091 45.8501 75.8187 45.2655 74.8724 44.0962ZM99.3602 43.3563L99.3569 43.3456C98.159 39.542 97.585 35.058 97.585 29.935C97.585 24.7825 98.1132 20.2919 99.2147 16.5029C100.338 12.6383 102.235 9.52021 104.987 7.30304C107.804 5.03472 111.43 4 115.667 4C119.716 4 123.22 5.04798 126.015 7.29582C128.763 9.46169 130.719 12.5649 131.972 16.4413C133.218 20.2533 133.814 24.7664 133.814 29.935C133.814 33.76 133.505 37.2308 132.872 40.3342C132.276 43.4638 131.277 46.2161 129.833 48.5444C128.401 50.8799 126.48 52.6928 124.091 53.9473C121.706 55.2227 118.867 55.8051 115.667 55.8051C111.614 55.8051 108.107 54.7549 105.31 52.5021C102.576 50.3001 100.62 47.2072 99.3637 43.3669L99.3602 43.3563ZM123.152 52.1512C125.216 51.0685 126.872 49.5095 128.12 47.4741C129.41 45.3954 130.335 42.8836 130.894 39.9388C131.497 36.994 131.798 33.6594 131.798 29.935C131.798 24.9115 131.217 20.6242 130.056 17.0731C128.894 13.4787 127.131 10.7504 124.765 8.88819C122.399 6.98272 119.366 6.02998 115.667 6.02998C111.753 6.02998 108.613 6.98272 106.247 8.88819C103.881 10.7937 102.182 13.522 101.15 17.0731C100.117 20.6242 99.6013 24.9115 99.6013 29.935C99.6013 34.9153 100.16 39.1809 101.279 42.732C102.44 46.2832 104.204 49.0115 106.57 50.9169C108.935 52.8224 111.968 53.7751 115.667 53.7751C118.635 53.7751 121.13 53.2338 123.152 52.1512ZM117.896 42.8317L117.911 42.8139C118.544 42.0318 119.126 40.6719 119.485 38.5008L119.488 38.486L119.49 38.4713C119.891 36.2506 120.103 33.4151 120.103 29.935C120.103 26.4537 119.891 23.6431 119.492 21.4702L119.488 21.4493L119.484 21.4284C119.123 19.2072 118.539 17.8322 117.911 17.0562L117.885 17.0245L117.861 16.9919C117.375 16.3392 116.73 15.985 115.667 15.985C114.605 15.985 113.919 16.3407 113.384 17.0242C112.78 17.8082 112.213 19.1974 111.85 21.4284L111.849 21.4343C111.487 23.6228 111.296 26.4465 111.296 29.935C111.296 33.3761 111.486 36.2024 111.85 38.4389C112.206 40.5897 112.764 41.9953 113.384 42.8447C113.906 43.4743 114.593 43.8201 115.667 43.8201C116.758 43.8201 117.407 43.4652 117.882 42.8499L117.896 42.8317ZM111.796 44.0962C110.893 42.8836 110.247 41.1081 109.86 38.7695C109.473 36.3877 109.28 33.4428 109.28 29.935C109.28 26.3839 109.473 23.4391 109.86 21.1006C110.247 18.7187 110.893 16.9432 111.796 15.7739C112.742 14.5613 114.033 13.955 115.667 13.955C117.302 13.955 118.571 14.5613 119.474 15.7739C120.42 16.9432 121.087 18.7187 121.474 21.1006C121.904 23.4391 122.119 26.3839 122.119 29.935C122.119 33.4862 121.904 36.4526 121.474 38.8345C121.087 41.173 120.42 42.9269 119.474 44.0962C118.571 45.2655 117.302 45.8501 115.667 45.8501C114.033 45.8501 112.742 45.2655 111.796 44.0962ZM185.304 55.1555H154.753V4.71455H185.304V16.8295H168.529V22.9681H184.143V35.0831H168.529V42.9756H185.304V55.1555ZM166.512 45.0056V33.0531H182.127V24.9981H166.512V14.7995H183.288V6.74453H156.77V53.1255H183.288V45.0056H166.512ZM212.634 55.1555H198.858V16.9594H186.341V4.71455H225.151V16.9594H212.634V55.1555ZM200.875 14.9294V53.1255H210.617V14.9294H223.135V6.74453H188.357V14.9294H200.875ZM270 55.1555H256.225V35.148H241.998V55.1555H228.222V4.71455H241.998V22.9032H256.225V4.71455H270V55.1555ZM258.241 24.9332H239.981V6.74453H230.238V53.1255H239.981V33.118H258.241V53.1255H267.984V6.74453H258.241V24.9332Z" fill="url(#paint2_linear_4240_2238)"/>
<path d="M306.495 4L306.135 5.16213V38.8845L306.495 39.2258L322.99 29.9731L306.495 4Z" fill="url(#paint3_radial_4240_2238)"/>
<path d="M306.495 4L290 29.9731L306.495 39.226V22.8581V4Z" fill="url(#paint4_linear_4240_2238)"/>
<path d="M306.495 42.1898L306.292 42.4247V54.4373L306.495 55L323 32.9417L306.495 42.1898Z" fill="url(#paint5_radial_4240_2238)"/>
<path d="M306.495 54.9999V42.1895L290 32.9414L306.495 54.9999Z" fill="url(#paint6_linear_4240_2238)"/>
<path d="M306.495 39.2259L322.99 29.9732L306.495 22.8583V39.2259Z" fill="url(#paint7_radial_4240_2238)"/>
<path d="M290 29.9731L306.495 39.2259V22.8582L290 29.9731Z" fill="url(#paint8_radial_4240_2238)"/>
<defs>
<radialGradient id="paint0_radial_4240_2238" cx="0" cy="0" r="1" gradientUnits="userSpaceOnUse" gradientTransform="translate(51.0083 23.2511) rotate(21.8033) scale(243.664 1724.16)">
<stop stop-color="#2A3837"/>
<stop offset="0.421875" stop-color="#3F2B44"/>
<stop offset="1" stop-color="#322837"/>
</radialGradient>
<radialGradient id="paint1_radial_4240_2238" cx="0" cy="0" r="1" gradientUnits="userSpaceOnUse" gradientTransform="translate(51.0083 23.2511) rotate(21.8033) scale(243.664 1724.16)">
<stop stop-color="#2A3837"/>
<stop offset="0.421875" stop-color="#3F2B44"/>
<stop offset="1" stop-color="#322837"/>
</radialGradient>
<linearGradient id="paint2_linear_4240_2238" x1="-9.6923" y1="30" x2="299.606" y2="67.0196" gradientUnits="userSpaceOnUse">
<stop stop-color="#4BF2A2"/>
<stop offset="0.522948" stop-color="#A89FE7"/>
<stop offset="0.669499" stop-color="#E1C4F4"/>
<stop offset="1" stop-color="#DD40CD"/>
</linearGradient>
<radialGradient id="paint3_radial_4240_2238" cx="0" cy="0" r="1" gradientUnits="userSpaceOnUse" gradientTransform="translate(309.008 17.0411) rotate(76.7429) scale(62.9865 288.478)">
<stop stop-color="#4BF2A2"/>
<stop offset="0.421875" stop-color="#564D8F"/>
<stop offset="1" stop-color="#DD40CD"/>
</radialGradient>
<linearGradient id="paint4_linear_4240_2238" x1="289.02" y1="21.613" x2="308.619" y2="21.8293" gradientUnits="userSpaceOnUse">
<stop stop-color="#4BF2A2"/>
<stop offset="0.522948" stop-color="#A89FE7"/>
<stop offset="0.669499" stop-color="#E1C4F4"/>
<stop offset="1" stop-color="#DD40CD"/>
</linearGradient>
<radialGradient id="paint5_radial_4240_2238" cx="0" cy="0" r="1" gradientUnits="userSpaceOnUse" gradientTransform="translate(309.14 41.1079) rotate(69.547) scale(40.974 275.265)">
<stop stop-color="#4BF2A2"/>
<stop offset="0.421875" stop-color="#564D8F"/>
<stop offset="1" stop-color="#DD40CD"/>
</radialGradient>
<linearGradient id="paint6_linear_4240_2238" x1="289.02" y1="43.9706" x2="308.616" y2="44.3161" gradientUnits="userSpaceOnUse">
<stop stop-color="#4BF2A2"/>
<stop offset="0.522948" stop-color="#A89FE7"/>
<stop offset="0.669499" stop-color="#E1C4F4"/>
<stop offset="1" stop-color="#DD40CD"/>
</linearGradient>
<radialGradient id="paint7_radial_4240_2238" cx="0" cy="0" r="1" gradientUnits="userSpaceOnUse" gradientTransform="translate(309.307 28.9178) rotate(63.6092) scale(31.8008 259.81)">
<stop stop-color="#2A3837"/>
<stop offset="0.421875" stop-color="#3F2B44"/>
<stop offset="1" stop-color="#322837"/>
</radialGradient>
<radialGradient id="paint8_radial_4240_2238" cx="0" cy="0" r="1" gradientUnits="userSpaceOnUse" gradientTransform="translate(292.812 28.9177) rotate(63.6094) scale(31.801 259.811)">
<stop stop-color="#2A3837"/>
<stop offset="0.421875" stop-color="#3F2B44"/>
<stop offset="1" stop-color="#322837"/>
</radialGradient>
</defs>
</svg>
