<svg width="186" height="34" viewBox="0 0 186 34" fill="none" xmlns="http://www.w3.org/2000/svg">
    <mask id="path-1-outside-1_4330_3912" maskUnits="userSpaceOnUse" x="0" y="0" width="158" height="34" fill="black">
        <rect fill="white" width="158" height="34"/>
        <path fill-rule="evenodd" clip-rule="evenodd" d="M18.9888 31.5128H11.0365V13.2664L11.0374 13.243C11.049 12.9501 11.0607 12.6516 11.0723 12.3476L7.17987 15.4998L3 10.2572L12.7996 2.41224H18.9888V31.5128ZM11.1331 10.7361C11.2625 10.6173 11.3948 10.4941 11.53 10.3666C11.9521 9.96689 12.2253 9.69207 12.3494 9.54216C12.3267 10.022 12.304 10.5646 12.2813 11.1698C12.2813 11.1708 12.2812 11.1718 12.2812 11.1728C12.28 11.2039 12.2789 11.2352 12.2777 11.2666C12.2768 11.2913 12.2759 11.3161 12.2749 11.341C12.2501 12.0156 12.2253 12.6652 12.2005 13.2898V30.3417H17.8248V3.58338H13.2061L4.63921 10.4416L7.35828 13.852L10.4126 11.3785C10.6419 11.1807 10.8821 10.9666 11.1331 10.7361ZM32.0341 31.0404L32.0226 31.0492C31.1761 31.6965 30.1763 32 29.0835 32C27.9741 32 26.9593 31.7009 26.1071 31.0492L26.0955 31.0404L26.0842 31.0313C25.0937 30.234 24.7162 29.0322 24.7162 27.7183C24.7162 26.392 25.0752 25.1424 26.1186 24.3786C26.9685 23.733 27.9791 23.4366 29.0835 23.4366C30.1713 23.4366 31.1671 23.7373 32.0111 24.3786C33.0545 25.1424 33.4135 26.392 33.4135 27.7183C33.4135 29.0322 33.036 30.234 32.0455 31.0313L32.0341 31.0404ZM31.3183 25.3198C30.6975 24.8451 29.9526 24.6077 29.0835 24.6077C28.1895 24.6077 27.4322 24.8451 26.8114 25.3198C26.1906 25.7695 25.8802 26.569 25.8802 27.7183C25.8802 28.8176 26.1906 29.6171 26.8114 30.1168C27.4322 30.5915 28.1895 30.8289 29.0835 30.8289C29.9526 30.8289 30.6975 30.5915 31.3183 30.1168C31.9391 29.6171 32.2495 28.8176 32.2495 27.7183C32.2495 26.569 31.9391 25.7695 31.3183 25.3198ZM35.5802 24.7055L35.5782 24.6994C34.8867 22.505 34.5554 19.9181 34.5554 16.9625C34.5554 13.9899 34.8603 11.3992 35.4962 9.21319C36.1447 6.98364 37.2396 5.18473 38.8287 3.9056C40.4545 2.59695 42.5481 2 44.994 2C47.3311 2 49.354 2.6046 50.9678 3.90144C52.5539 5.15097 53.6829 6.94129 54.4063 9.17765C55.1258 11.3769 55.4698 13.9806 55.4698 16.9625C55.4698 19.1692 55.2918 21.1716 54.9261 22.962C54.5822 24.7676 54.0055 26.3554 53.1718 27.6987C52.3449 29.0461 51.2361 30.092 49.8571 30.8157C48.4801 31.5516 46.8413 31.8876 44.994 31.8876C42.6544 31.8876 40.6296 31.2817 39.0149 29.982C37.4367 28.7116 36.3072 26.9272 35.5822 24.7117L35.5802 24.7055ZM49.3147 29.7795C50.5066 29.1549 51.4626 28.2555 52.1827 27.0812C52.9277 25.8819 53.4616 24.4329 53.7844 22.7339C54.132 21.035 54.3058 19.1112 54.3058 16.9625C54.3058 14.0643 53.9706 11.5909 53.3002 9.54216C52.6297 7.46846 51.6116 5.89444 50.2459 4.82011C48.8801 3.7208 47.1295 3.17114 44.994 3.17114C42.7343 3.17114 40.9216 3.7208 39.5558 4.82011C38.1901 5.91942 37.2092 7.49344 36.6133 9.54216C36.0173 11.5909 35.7193 14.0643 35.7193 16.9625C35.7193 19.8357 36.0421 22.2967 36.6878 24.3454C37.3582 26.3941 38.3763 27.9681 39.7421 29.0675C41.1078 30.1668 42.8584 30.7164 44.994 30.7164C46.7073 30.7164 48.1476 30.4041 49.3147 29.7795ZM46.2809 24.4029L46.2892 24.3926C46.6546 23.9414 46.9906 23.1569 47.1981 21.9043L47.1995 21.8958L47.201 21.8873C47.4326 20.6061 47.5547 18.9703 47.5547 16.9625C47.5547 14.954 47.4324 13.3326 47.2017 12.079L47.1995 12.0669L47.1975 12.0548C46.9891 10.7734 46.6518 9.98012 46.2892 9.53241L46.2744 9.51415L46.2604 9.49531C45.9797 9.11876 45.6076 8.91443 44.994 8.91443C44.381 8.91443 43.9849 9.11963 43.6761 9.51394C43.3275 9.96626 42.9997 10.7677 42.7904 12.0548L42.7898 12.0582C42.5807 13.3208 42.4704 14.9499 42.4704 16.9625C42.4704 18.9478 42.5804 20.5783 42.7901 21.8686C42.9959 23.1094 43.318 23.9204 43.676 24.4104C43.9775 24.7736 44.374 24.9731 44.994 24.9731C45.6239 24.9731 45.9984 24.7684 46.2728 24.4134L46.2809 24.4029ZM42.7591 25.1324C42.2376 24.4329 41.8652 23.4085 41.6417 22.0593C41.4182 20.6852 41.3065 18.9863 41.3065 16.9625C41.3065 14.9138 41.4182 13.2149 41.6417 11.8657C41.8652 10.4916 42.2376 9.46721 42.7591 8.79263C43.3054 8.09307 44.0504 7.74328 44.994 7.74328C45.9376 7.74328 46.6701 8.09307 47.1916 8.79263C47.7379 9.46721 48.1228 10.4916 48.3462 11.8657C48.5946 13.2149 48.7187 14.9138 48.7187 16.9625C48.7187 19.0112 48.5946 20.7227 48.3462 22.0968C48.1228 23.446 47.7379 24.4578 47.1916 25.1324C46.6701 25.807 45.9376 26.1443 44.994 26.1443C44.0504 26.1443 43.3054 25.807 42.7591 25.1324ZM56.8956 24.7055L56.8937 24.6994C56.2022 22.505 55.8708 19.9181 55.8708 16.9625C55.8708 13.9899 56.1757 11.3992 56.8116 9.21319C57.4602 6.98364 58.555 5.18473 60.1442 3.9056C61.77 2.59695 63.8635 2 66.3094 2C68.6465 2 70.6694 2.6046 72.2833 3.90144C73.8693 5.15097 74.9984 6.94129 75.7218 9.17765C76.4412 11.3769 76.7853 13.9806 76.7853 16.9625C76.7853 19.1692 76.6072 21.1716 76.2416 22.962C75.8977 24.7676 75.321 26.3554 74.4872 27.6987C73.6604 29.0461 72.5516 30.092 71.1725 30.8157C69.7955 31.5516 68.1568 31.8876 66.3094 31.8876C63.9698 31.8876 61.9451 31.2817 60.3304 29.982C58.7521 28.7116 57.6227 26.9272 56.8976 24.7117L56.8956 24.7055ZM70.6301 29.7795C71.8221 29.1549 72.7781 28.2555 73.4982 27.0812C74.2431 25.8819 74.777 24.4329 75.0998 22.7339C75.4475 21.035 75.6213 19.1112 75.6213 16.9625C75.6213 14.0643 75.2861 11.5909 74.6156 9.54216C73.9452 7.46846 72.9271 5.89444 71.5613 4.82011C70.1956 3.7208 68.4449 3.17114 66.3094 3.17114C64.0497 3.17114 62.237 3.7208 60.8713 4.82011C59.5056 5.91942 58.5247 7.49344 57.9287 9.54216C57.3328 11.5909 57.0348 14.0643 57.0348 16.9625C57.0348 19.8357 57.3576 22.2967 58.0032 24.3454C58.6737 26.3941 59.6918 27.9681 61.0575 29.0675C62.4233 30.1668 64.1739 30.7164 66.3094 30.7164C68.0228 30.7164 69.4631 30.4041 70.6301 29.7795ZM67.5963 24.4029L67.6047 24.3926C67.9701 23.9414 68.3061 23.1569 68.5136 21.9043L68.515 21.8958L68.5165 21.8873C68.748 20.6061 68.8702 18.9703 68.8702 16.9625C68.8702 14.954 68.7479 13.3326 68.5172 12.079L68.515 12.0669L68.513 12.0548C68.3046 10.7734 67.9672 9.98012 67.6047 9.53241L67.5899 9.51415L67.5758 9.49531C67.2951 9.11876 66.923 8.91443 66.3094 8.91443C65.6965 8.91443 65.3004 9.11963 64.9916 9.51394C64.6429 9.96626 64.3152 10.7677 64.1059 12.0548L64.1053 12.0582C63.8962 13.3208 63.7859 14.9499 63.7859 16.9625C63.7859 18.9478 63.8959 20.5783 64.1056 21.8686C64.3113 23.1094 64.6335 23.9204 64.9915 24.4104C65.293 24.7736 65.6895 24.9731 66.3094 24.9731C66.9394 24.9731 67.3138 24.7684 67.5882 24.4134L67.5963 24.4029ZM64.0746 25.1324C63.5531 24.4329 63.1806 23.4085 62.9572 22.0593C62.7337 20.6852 62.6219 18.9863 62.6219 16.9625C62.6219 14.9138 62.7337 13.2149 62.9572 11.8657C63.1806 10.4916 63.5531 9.46721 64.0746 8.79263C64.6209 8.09307 65.3658 7.74328 66.3094 7.74328C67.253 7.74328 67.9856 8.09307 68.507 8.79263C69.0533 9.46721 69.4382 10.4916 69.6617 11.8657C69.91 13.2149 70.0342 14.9138 70.0342 16.9625C70.0342 19.0112 69.91 20.7227 69.6617 22.0968C69.4382 23.446 69.0533 24.4578 68.507 25.1324C67.9856 25.807 67.253 26.1443 66.3094 26.1443C65.3658 26.1443 64.6209 25.807 64.0746 25.1324ZM106.51 31.5128H88.8733V2.41224H106.51V9.40162H96.8256V12.9432H105.84V19.9325H96.8256V24.4859H106.51V31.5128ZM95.6616 25.6571V18.7614H104.676V14.1143H95.6616V8.23048H105.346V3.58338H90.0372V30.3417H105.346V25.6571H95.6616ZM122.287 31.5128H114.335V9.47658H107.109V2.41224H129.513V9.47658H122.287V31.5128ZM115.499 8.30543V30.3417H121.123V8.30543H128.349V3.58338H108.273V8.30543H115.499ZM155.404 31.5128H147.451V19.97H139.238V31.5128H131.286V2.41224H139.238V12.9057H147.451V2.41224H155.404V31.5128ZM148.615 14.0768H138.074V3.58338H132.45V30.3417H138.074V18.7989H148.615V30.3417H154.24V3.58338H148.615V14.0768Z"/>
    </mask>
    <path fill-rule="evenodd" clip-rule="evenodd" d="M18.9888 31.5128H11.0365V13.2664L11.0374 13.243C11.049 12.9501 11.0607 12.6516 11.0723 12.3476L7.17987 15.4998L3 10.2572L12.7996 2.41224H18.9888V31.5128ZM11.1331 10.7361C11.2625 10.6173 11.3948 10.4941 11.53 10.3666C11.9521 9.96689 12.2253 9.69207 12.3494 9.54216C12.3267 10.022 12.304 10.5646 12.2813 11.1698C12.2813 11.1708 12.2812 11.1718 12.2812 11.1728C12.28 11.2039 12.2789 11.2352 12.2777 11.2666C12.2768 11.2913 12.2759 11.3161 12.2749 11.341C12.2501 12.0156 12.2253 12.6652 12.2005 13.2898V30.3417H17.8248V3.58338H13.2061L4.63921 10.4416L7.35828 13.852L10.4126 11.3785C10.6419 11.1807 10.8821 10.9666 11.1331 10.7361ZM32.0341 31.0404L32.0226 31.0492C31.1761 31.6965 30.1763 32 29.0835 32C27.9741 32 26.9593 31.7009 26.1071 31.0492L26.0955 31.0404L26.0842 31.0313C25.0937 30.234 24.7162 29.0322 24.7162 27.7183C24.7162 26.392 25.0752 25.1424 26.1186 24.3786C26.9685 23.733 27.9791 23.4366 29.0835 23.4366C30.1713 23.4366 31.1671 23.7373 32.0111 24.3786C33.0545 25.1424 33.4135 26.392 33.4135 27.7183C33.4135 29.0322 33.036 30.234 32.0455 31.0313L32.0341 31.0404ZM31.3183 25.3198C30.6975 24.8451 29.9526 24.6077 29.0835 24.6077C28.1895 24.6077 27.4322 24.8451 26.8114 25.3198C26.1906 25.7695 25.8802 26.569 25.8802 27.7183C25.8802 28.8176 26.1906 29.6171 26.8114 30.1168C27.4322 30.5915 28.1895 30.8289 29.0835 30.8289C29.9526 30.8289 30.6975 30.5915 31.3183 30.1168C31.9391 29.6171 32.2495 28.8176 32.2495 27.7183C32.2495 26.569 31.9391 25.7695 31.3183 25.3198ZM35.5802 24.7055L35.5782 24.6994C34.8867 22.505 34.5554 19.9181 34.5554 16.9625C34.5554 13.9899 34.8603 11.3992 35.4962 9.21319C36.1447 6.98364 37.2396 5.18473 38.8287 3.9056C40.4545 2.59695 42.5481 2 44.994 2C47.3311 2 49.354 2.6046 50.9678 3.90144C52.5539 5.15097 53.6829 6.94129 54.4063 9.17765C55.1258 11.3769 55.4698 13.9806 55.4698 16.9625C55.4698 19.1692 55.2918 21.1716 54.9261 22.962C54.5822 24.7676 54.0055 26.3554 53.1718 27.6987C52.3449 29.0461 51.2361 30.092 49.8571 30.8157C48.4801 31.5516 46.8413 31.8876 44.994 31.8876C42.6544 31.8876 40.6296 31.2817 39.0149 29.982C37.4367 28.7116 36.3072 26.9272 35.5822 24.7117L35.5802 24.7055ZM49.3147 29.7795C50.5066 29.1549 51.4626 28.2555 52.1827 27.0812C52.9277 25.8819 53.4616 24.4329 53.7844 22.7339C54.132 21.035 54.3058 19.1112 54.3058 16.9625C54.3058 14.0643 53.9706 11.5909 53.3002 9.54216C52.6297 7.46846 51.6116 5.89444 50.2459 4.82011C48.8801 3.7208 47.1295 3.17114 44.994 3.17114C42.7343 3.17114 40.9216 3.7208 39.5558 4.82011C38.1901 5.91942 37.2092 7.49344 36.6133 9.54216C36.0173 11.5909 35.7193 14.0643 35.7193 16.9625C35.7193 19.8357 36.0421 22.2967 36.6878 24.3454C37.3582 26.3941 38.3763 27.9681 39.7421 29.0675C41.1078 30.1668 42.8584 30.7164 44.994 30.7164C46.7073 30.7164 48.1476 30.4041 49.3147 29.7795ZM46.2809 24.4029L46.2892 24.3926C46.6546 23.9414 46.9906 23.1569 47.1981 21.9043L47.1995 21.8958L47.201 21.8873C47.4326 20.6061 47.5547 18.9703 47.5547 16.9625C47.5547 14.954 47.4324 13.3326 47.2017 12.079L47.1995 12.0669L47.1975 12.0548C46.9891 10.7734 46.6518 9.98012 46.2892 9.53241L46.2744 9.51415L46.2604 9.49531C45.9797 9.11876 45.6076 8.91443 44.994 8.91443C44.381 8.91443 43.9849 9.11963 43.6761 9.51394C43.3275 9.96626 42.9997 10.7677 42.7904 12.0548L42.7898 12.0582C42.5807 13.3208 42.4704 14.9499 42.4704 16.9625C42.4704 18.9478 42.5804 20.5783 42.7901 21.8686C42.9959 23.1094 43.318 23.9204 43.676 24.4104C43.9775 24.7736 44.374 24.9731 44.994 24.9731C45.6239 24.9731 45.9984 24.7684 46.2728 24.4134L46.2809 24.4029ZM42.7591 25.1324C42.2376 24.4329 41.8652 23.4085 41.6417 22.0593C41.4182 20.6852 41.3065 18.9863 41.3065 16.9625C41.3065 14.9138 41.4182 13.2149 41.6417 11.8657C41.8652 10.4916 42.2376 9.46721 42.7591 8.79263C43.3054 8.09307 44.0504 7.74328 44.994 7.74328C45.9376 7.74328 46.6701 8.09307 47.1916 8.79263C47.7379 9.46721 48.1228 10.4916 48.3462 11.8657C48.5946 13.2149 48.7187 14.9138 48.7187 16.9625C48.7187 19.0112 48.5946 20.7227 48.3462 22.0968C48.1228 23.446 47.7379 24.4578 47.1916 25.1324C46.6701 25.807 45.9376 26.1443 44.994 26.1443C44.0504 26.1443 43.3054 25.807 42.7591 25.1324ZM56.8956 24.7055L56.8937 24.6994C56.2022 22.505 55.8708 19.9181 55.8708 16.9625C55.8708 13.9899 56.1757 11.3992 56.8116 9.21319C57.4602 6.98364 58.555 5.18473 60.1442 3.9056C61.77 2.59695 63.8635 2 66.3094 2C68.6465 2 70.6694 2.6046 72.2833 3.90144C73.8693 5.15097 74.9984 6.94129 75.7218 9.17765C76.4412 11.3769 76.7853 13.9806 76.7853 16.9625C76.7853 19.1692 76.6072 21.1716 76.2416 22.962C75.8977 24.7676 75.321 26.3554 74.4872 27.6987C73.6604 29.0461 72.5516 30.092 71.1725 30.8157C69.7955 31.5516 68.1568 31.8876 66.3094 31.8876C63.9698 31.8876 61.9451 31.2817 60.3304 29.982C58.7521 28.7116 57.6227 26.9272 56.8976 24.7117L56.8956 24.7055ZM70.6301 29.7795C71.8221 29.1549 72.7781 28.2555 73.4982 27.0812C74.2431 25.8819 74.777 24.4329 75.0998 22.7339C75.4475 21.035 75.6213 19.1112 75.6213 16.9625C75.6213 14.0643 75.2861 11.5909 74.6156 9.54216C73.9452 7.46846 72.9271 5.89444 71.5613 4.82011C70.1956 3.7208 68.4449 3.17114 66.3094 3.17114C64.0497 3.17114 62.237 3.7208 60.8713 4.82011C59.5056 5.91942 58.5247 7.49344 57.9287 9.54216C57.3328 11.5909 57.0348 14.0643 57.0348 16.9625C57.0348 19.8357 57.3576 22.2967 58.0032 24.3454C58.6737 26.3941 59.6918 27.9681 61.0575 29.0675C62.4233 30.1668 64.1739 30.7164 66.3094 30.7164C68.0228 30.7164 69.4631 30.4041 70.6301 29.7795ZM67.5963 24.4029L67.6047 24.3926C67.9701 23.9414 68.3061 23.1569 68.5136 21.9043L68.515 21.8958L68.5165 21.8873C68.748 20.6061 68.8702 18.9703 68.8702 16.9625C68.8702 14.954 68.7479 13.3326 68.5172 12.079L68.515 12.0669L68.513 12.0548C68.3046 10.7734 67.9672 9.98012 67.6047 9.53241L67.5899 9.51415L67.5758 9.49531C67.2951 9.11876 66.923 8.91443 66.3094 8.91443C65.6965 8.91443 65.3004 9.11963 64.9916 9.51394C64.6429 9.96626 64.3152 10.7677 64.1059 12.0548L64.1053 12.0582C63.8962 13.3208 63.7859 14.9499 63.7859 16.9625C63.7859 18.9478 63.8959 20.5783 64.1056 21.8686C64.3113 23.1094 64.6335 23.9204 64.9915 24.4104C65.293 24.7736 65.6895 24.9731 66.3094 24.9731C66.9394 24.9731 67.3138 24.7684 67.5882 24.4134L67.5963 24.4029ZM64.0746 25.1324C63.5531 24.4329 63.1806 23.4085 62.9572 22.0593C62.7337 20.6852 62.6219 18.9863 62.6219 16.9625C62.6219 14.9138 62.7337 13.2149 62.9572 11.8657C63.1806 10.4916 63.5531 9.46721 64.0746 8.79263C64.6209 8.09307 65.3658 7.74328 66.3094 7.74328C67.253 7.74328 67.9856 8.09307 68.507 8.79263C69.0533 9.46721 69.4382 10.4916 69.6617 11.8657C69.91 13.2149 70.0342 14.9138 70.0342 16.9625C70.0342 19.0112 69.91 20.7227 69.6617 22.0968C69.4382 23.446 69.0533 24.4578 68.507 25.1324C67.9856 25.807 67.253 26.1443 66.3094 26.1443C65.3658 26.1443 64.6209 25.807 64.0746 25.1324ZM106.51 31.5128H88.8733V2.41224H106.51V9.40162H96.8256V12.9432H105.84V19.9325H96.8256V24.4859H106.51V31.5128ZM95.6616 25.6571V18.7614H104.676V14.1143H95.6616V8.23048H105.346V3.58338H90.0372V30.3417H105.346V25.6571H95.6616ZM122.287 31.5128H114.335V9.47658H107.109V2.41224H129.513V9.47658H122.287V31.5128ZM115.499 8.30543V30.3417H121.123V8.30543H128.349V3.58338H108.273V8.30543H115.499ZM155.404 31.5128H147.451V19.97H139.238V31.5128H131.286V2.41224H139.238V12.9057H147.451V2.41224H155.404V31.5128ZM148.615 14.0768H138.074V3.58338H132.45V30.3417H138.074V18.7989H148.615V30.3417H154.24V3.58338H148.615V14.0768Z" fill="url(#paint0_radial_4330_3912)"/>
    <path fill-rule="evenodd" clip-rule="evenodd" d="M18.9888 31.5128H11.0365V13.2664L11.0374 13.243C11.049 12.9501 11.0607 12.6516 11.0723 12.3476L7.17987 15.4998L3 10.2572L12.7996 2.41224H18.9888V31.5128ZM11.1331 10.7361C11.2625 10.6173 11.3948 10.4941 11.53 10.3666C11.9521 9.96689 12.2253 9.69207 12.3494 9.54216C12.3267 10.022 12.304 10.5646 12.2813 11.1698C12.2813 11.1708 12.2812 11.1718 12.2812 11.1728C12.28 11.2039 12.2789 11.2352 12.2777 11.2666C12.2768 11.2913 12.2759 11.3161 12.2749 11.341C12.2501 12.0156 12.2253 12.6652 12.2005 13.2898V30.3417H17.8248V3.58338H13.2061L4.63921 10.4416L7.35828 13.852L10.4126 11.3785C10.6419 11.1807 10.8821 10.9666 11.1331 10.7361ZM32.0341 31.0404L32.0226 31.0492C31.1761 31.6965 30.1763 32 29.0835 32C27.9741 32 26.9593 31.7009 26.1071 31.0492L26.0955 31.0404L26.0842 31.0313C25.0937 30.234 24.7162 29.0322 24.7162 27.7183C24.7162 26.392 25.0752 25.1424 26.1186 24.3786C26.9685 23.733 27.9791 23.4366 29.0835 23.4366C30.1713 23.4366 31.1671 23.7373 32.0111 24.3786C33.0545 25.1424 33.4135 26.392 33.4135 27.7183C33.4135 29.0322 33.036 30.234 32.0455 31.0313L32.0341 31.0404ZM31.3183 25.3198C30.6975 24.8451 29.9526 24.6077 29.0835 24.6077C28.1895 24.6077 27.4322 24.8451 26.8114 25.3198C26.1906 25.7695 25.8802 26.569 25.8802 27.7183C25.8802 28.8176 26.1906 29.6171 26.8114 30.1168C27.4322 30.5915 28.1895 30.8289 29.0835 30.8289C29.9526 30.8289 30.6975 30.5915 31.3183 30.1168C31.9391 29.6171 32.2495 28.8176 32.2495 27.7183C32.2495 26.569 31.9391 25.7695 31.3183 25.3198ZM35.5802 24.7055L35.5782 24.6994C34.8867 22.505 34.5554 19.9181 34.5554 16.9625C34.5554 13.9899 34.8603 11.3992 35.4962 9.21319C36.1447 6.98364 37.2396 5.18473 38.8287 3.9056C40.4545 2.59695 42.5481 2 44.994 2C47.3311 2 49.354 2.6046 50.9678 3.90144C52.5539 5.15097 53.6829 6.94129 54.4063 9.17765C55.1258 11.3769 55.4698 13.9806 55.4698 16.9625C55.4698 19.1692 55.2918 21.1716 54.9261 22.962C54.5822 24.7676 54.0055 26.3554 53.1718 27.6987C52.3449 29.0461 51.2361 30.092 49.8571 30.8157C48.4801 31.5516 46.8413 31.8876 44.994 31.8876C42.6544 31.8876 40.6296 31.2817 39.0149 29.982C37.4367 28.7116 36.3072 26.9272 35.5822 24.7117L35.5802 24.7055ZM49.3147 29.7795C50.5066 29.1549 51.4626 28.2555 52.1827 27.0812C52.9277 25.8819 53.4616 24.4329 53.7844 22.7339C54.132 21.035 54.3058 19.1112 54.3058 16.9625C54.3058 14.0643 53.9706 11.5909 53.3002 9.54216C52.6297 7.46846 51.6116 5.89444 50.2459 4.82011C48.8801 3.7208 47.1295 3.17114 44.994 3.17114C42.7343 3.17114 40.9216 3.7208 39.5558 4.82011C38.1901 5.91942 37.2092 7.49344 36.6133 9.54216C36.0173 11.5909 35.7193 14.0643 35.7193 16.9625C35.7193 19.8357 36.0421 22.2967 36.6878 24.3454C37.3582 26.3941 38.3763 27.9681 39.7421 29.0675C41.1078 30.1668 42.8584 30.7164 44.994 30.7164C46.7073 30.7164 48.1476 30.4041 49.3147 29.7795ZM46.2809 24.4029L46.2892 24.3926C46.6546 23.9414 46.9906 23.1569 47.1981 21.9043L47.1995 21.8958L47.201 21.8873C47.4326 20.6061 47.5547 18.9703 47.5547 16.9625C47.5547 14.954 47.4324 13.3326 47.2017 12.079L47.1995 12.0669L47.1975 12.0548C46.9891 10.7734 46.6518 9.98012 46.2892 9.53241L46.2744 9.51415L46.2604 9.49531C45.9797 9.11876 45.6076 8.91443 44.994 8.91443C44.381 8.91443 43.9849 9.11963 43.6761 9.51394C43.3275 9.96626 42.9997 10.7677 42.7904 12.0548L42.7898 12.0582C42.5807 13.3208 42.4704 14.9499 42.4704 16.9625C42.4704 18.9478 42.5804 20.5783 42.7901 21.8686C42.9959 23.1094 43.318 23.9204 43.676 24.4104C43.9775 24.7736 44.374 24.9731 44.994 24.9731C45.6239 24.9731 45.9984 24.7684 46.2728 24.4134L46.2809 24.4029ZM42.7591 25.1324C42.2376 24.4329 41.8652 23.4085 41.6417 22.0593C41.4182 20.6852 41.3065 18.9863 41.3065 16.9625C41.3065 14.9138 41.4182 13.2149 41.6417 11.8657C41.8652 10.4916 42.2376 9.46721 42.7591 8.79263C43.3054 8.09307 44.0504 7.74328 44.994 7.74328C45.9376 7.74328 46.6701 8.09307 47.1916 8.79263C47.7379 9.46721 48.1228 10.4916 48.3462 11.8657C48.5946 13.2149 48.7187 14.9138 48.7187 16.9625C48.7187 19.0112 48.5946 20.7227 48.3462 22.0968C48.1228 23.446 47.7379 24.4578 47.1916 25.1324C46.6701 25.807 45.9376 26.1443 44.994 26.1443C44.0504 26.1443 43.3054 25.807 42.7591 25.1324ZM56.8956 24.7055L56.8937 24.6994C56.2022 22.505 55.8708 19.9181 55.8708 16.9625C55.8708 13.9899 56.1757 11.3992 56.8116 9.21319C57.4602 6.98364 58.555 5.18473 60.1442 3.9056C61.77 2.59695 63.8635 2 66.3094 2C68.6465 2 70.6694 2.6046 72.2833 3.90144C73.8693 5.15097 74.9984 6.94129 75.7218 9.17765C76.4412 11.3769 76.7853 13.9806 76.7853 16.9625C76.7853 19.1692 76.6072 21.1716 76.2416 22.962C75.8977 24.7676 75.321 26.3554 74.4872 27.6987C73.6604 29.0461 72.5516 30.092 71.1725 30.8157C69.7955 31.5516 68.1568 31.8876 66.3094 31.8876C63.9698 31.8876 61.9451 31.2817 60.3304 29.982C58.7521 28.7116 57.6227 26.9272 56.8976 24.7117L56.8956 24.7055ZM70.6301 29.7795C71.8221 29.1549 72.7781 28.2555 73.4982 27.0812C74.2431 25.8819 74.777 24.4329 75.0998 22.7339C75.4475 21.035 75.6213 19.1112 75.6213 16.9625C75.6213 14.0643 75.2861 11.5909 74.6156 9.54216C73.9452 7.46846 72.9271 5.89444 71.5613 4.82011C70.1956 3.7208 68.4449 3.17114 66.3094 3.17114C64.0497 3.17114 62.237 3.7208 60.8713 4.82011C59.5056 5.91942 58.5247 7.49344 57.9287 9.54216C57.3328 11.5909 57.0348 14.0643 57.0348 16.9625C57.0348 19.8357 57.3576 22.2967 58.0032 24.3454C58.6737 26.3941 59.6918 27.9681 61.0575 29.0675C62.4233 30.1668 64.1739 30.7164 66.3094 30.7164C68.0228 30.7164 69.4631 30.4041 70.6301 29.7795ZM67.5963 24.4029L67.6047 24.3926C67.9701 23.9414 68.3061 23.1569 68.5136 21.9043L68.515 21.8958L68.5165 21.8873C68.748 20.6061 68.8702 18.9703 68.8702 16.9625C68.8702 14.954 68.7479 13.3326 68.5172 12.079L68.515 12.0669L68.513 12.0548C68.3046 10.7734 67.9672 9.98012 67.6047 9.53241L67.5899 9.51415L67.5758 9.49531C67.2951 9.11876 66.923 8.91443 66.3094 8.91443C65.6965 8.91443 65.3004 9.11963 64.9916 9.51394C64.6429 9.96626 64.3152 10.7677 64.1059 12.0548L64.1053 12.0582C63.8962 13.3208 63.7859 14.9499 63.7859 16.9625C63.7859 18.9478 63.8959 20.5783 64.1056 21.8686C64.3113 23.1094 64.6335 23.9204 64.9915 24.4104C65.293 24.7736 65.6895 24.9731 66.3094 24.9731C66.9394 24.9731 67.3138 24.7684 67.5882 24.4134L67.5963 24.4029ZM64.0746 25.1324C63.5531 24.4329 63.1806 23.4085 62.9572 22.0593C62.7337 20.6852 62.6219 18.9863 62.6219 16.9625C62.6219 14.9138 62.7337 13.2149 62.9572 11.8657C63.1806 10.4916 63.5531 9.46721 64.0746 8.79263C64.6209 8.09307 65.3658 7.74328 66.3094 7.74328C67.253 7.74328 67.9856 8.09307 68.507 8.79263C69.0533 9.46721 69.4382 10.4916 69.6617 11.8657C69.91 13.2149 70.0342 14.9138 70.0342 16.9625C70.0342 19.0112 69.91 20.7227 69.6617 22.0968C69.4382 23.446 69.0533 24.4578 68.507 25.1324C67.9856 25.807 67.253 26.1443 66.3094 26.1443C65.3658 26.1443 64.6209 25.807 64.0746 25.1324ZM106.51 31.5128H88.8733V2.41224H106.51V9.40162H96.8256V12.9432H105.84V19.9325H96.8256V24.4859H106.51V31.5128ZM95.6616 25.6571V18.7614H104.676V14.1143H95.6616V8.23048H105.346V3.58338H90.0372V30.3417H105.346V25.6571H95.6616ZM122.287 31.5128H114.335V9.47658H107.109V2.41224H129.513V9.47658H122.287V31.5128ZM115.499 8.30543V30.3417H121.123V8.30543H128.349V3.58338H108.273V8.30543H115.499ZM155.404 31.5128H147.451V19.97H139.238V31.5128H131.286V2.41224H139.238V12.9057H147.451V2.41224H155.404V31.5128ZM148.615 14.0768H138.074V3.58338H132.45V30.3417H138.074V18.7989H148.615V30.3417H154.24V3.58338H148.615V14.0768Z" stroke="url(#paint1_radial_4330_3912)" stroke-width="4" mask="url(#path-1-outside-1_4330_3912)"/>
    <path fill-rule="evenodd" clip-rule="evenodd" d="M18.9888 31.5128H11.0365V13.2664L11.0374 13.243C11.049 12.9501 11.0607 12.6516 11.0723 12.3476L7.17987 15.4998L3 10.2572L12.7996 2.41224H18.9888V31.5128ZM11.1331 10.7361C11.2625 10.6173 11.3948 10.4941 11.53 10.3666C11.9521 9.96689 12.2253 9.69207 12.3494 9.54216C12.3267 10.022 12.304 10.5646 12.2813 11.1698L12.2812 11.1728C12.28 11.2039 12.2789 11.2352 12.2777 11.2666C12.2768 11.2913 12.2759 11.3161 12.2749 11.341C12.2501 12.0156 12.2253 12.6652 12.2005 13.2898V30.3417H17.8248V3.58338H13.2061L4.63921 10.4416L7.35828 13.852L10.4126 11.3785C10.6419 11.1807 10.8821 10.9666 11.1331 10.7361ZM32.0341 31.0404L32.0226 31.0492C31.1761 31.6965 30.1762 32 29.0835 32C27.9741 32 26.9593 31.7009 26.1071 31.0492L26.0955 31.0404L26.0842 31.0313C25.0937 30.234 24.7162 29.0322 24.7162 27.7183C24.7162 26.392 25.0752 25.1424 26.1186 24.3786C26.9685 23.733 27.9791 23.4366 29.0835 23.4366C30.1713 23.4366 31.1671 23.7373 32.0111 24.3786C33.0545 25.1424 33.4135 26.392 33.4135 27.7183C33.4135 29.0322 33.036 30.234 32.0454 31.0313L32.0341 31.0404ZM31.3183 25.3198C30.6975 24.8451 29.9526 24.6077 29.0835 24.6077C28.1895 24.6077 27.4322 24.8451 26.8114 25.3198C26.1906 25.7695 25.8802 26.569 25.8802 27.7183C25.8802 28.8176 26.1906 29.6171 26.8114 30.1168C27.4322 30.5915 28.1895 30.8289 29.0835 30.8289C29.9526 30.8289 30.6975 30.5915 31.3183 30.1168C31.9391 29.6171 32.2495 28.8176 32.2495 27.7183C32.2495 26.569 31.9391 25.7695 31.3183 25.3198ZM35.5802 24.7055L35.5782 24.6994C34.8867 22.505 34.5554 19.9181 34.5554 16.9625C34.5554 13.9899 34.8603 11.3992 35.4962 9.21319C36.1447 6.98364 37.2396 5.18473 38.8287 3.9056C40.4545 2.59695 42.5481 2 44.994 2C47.3311 2 49.354 2.6046 50.9678 3.90144C52.5539 5.15097 53.6829 6.94129 54.4063 9.17765C55.1258 11.3769 55.4698 13.9806 55.4698 16.9625C55.4698 19.1692 55.2918 21.1716 54.9261 22.962C54.5822 24.7676 54.0055 26.3554 53.1718 27.6987C52.3449 29.0461 51.2361 30.092 49.8571 30.8157C48.4801 31.5516 46.8413 31.8876 44.994 31.8876C42.6544 31.8876 40.6296 31.2817 39.0149 29.982C37.4367 28.7116 36.3072 26.9272 35.5822 24.7117L35.5802 24.7055ZM49.3147 29.7795C50.5066 29.1549 51.4626 28.2555 52.1827 27.0812C52.9277 25.8819 53.4616 24.4329 53.7844 22.7339C54.132 21.035 54.3058 19.1112 54.3058 16.9625C54.3058 14.0643 53.9706 11.5909 53.3001 9.54216C52.6297 7.46846 51.6116 5.89444 50.2459 4.82011C48.8801 3.7208 47.1295 3.17114 44.994 3.17114C42.7343 3.17114 40.9216 3.7208 39.5558 4.82011C38.1901 5.91942 37.2092 7.49344 36.6133 9.54216C36.0173 11.5909 35.7193 14.0643 35.7193 16.9625C35.7193 19.8357 36.0421 22.2967 36.6878 24.3454C37.3582 26.3941 38.3763 27.9681 39.7421 29.0675C41.1078 30.1668 42.8584 30.7164 44.994 30.7164C46.7073 30.7164 48.1476 30.4041 49.3147 29.7795ZM46.2809 24.4029L46.2892 24.3926C46.6546 23.9414 46.9906 23.1569 47.1981 21.9043L47.1995 21.8958L47.201 21.8873C47.4325 20.6061 47.5547 18.9703 47.5547 16.9625C47.5547 14.954 47.4324 13.3326 47.2017 12.079L47.1995 12.0669L47.1975 12.0548C46.9891 10.7734 46.6518 9.98012 46.2892 9.53241L46.2744 9.51415L46.2604 9.49531C45.9797 9.11876 45.6076 8.91443 44.994 8.91443C44.381 8.91443 43.9849 9.11963 43.6761 9.51394C43.3275 9.96626 42.9997 10.7677 42.7904 12.0548L42.7898 12.0582C42.5807 13.3208 42.4704 14.9499 42.4704 16.9625C42.4704 18.9478 42.5804 20.5783 42.7901 21.8686C42.9959 23.1094 43.318 23.9204 43.676 24.4104C43.9775 24.7736 44.374 24.9731 44.994 24.9731C45.6239 24.9731 45.9984 24.7684 46.2728 24.4134L46.2809 24.4029ZM42.7591 25.1324C42.2376 24.4329 41.8652 23.4085 41.6417 22.0593C41.4182 20.6852 41.3065 18.9863 41.3065 16.9625C41.3065 14.9138 41.4182 13.2149 41.6417 11.8657C41.8652 10.4916 42.2376 9.46721 42.7591 8.79263C43.3054 8.09307 44.0504 7.74328 44.994 7.74328C45.9376 7.74328 46.6701 8.09307 47.1916 8.79263C47.7379 9.46721 48.1228 10.4916 48.3462 11.8657C48.5946 13.2149 48.7187 14.9138 48.7187 16.9625C48.7187 19.0112 48.5946 20.7227 48.3462 22.0968C48.1228 23.446 47.7379 24.4578 47.1916 25.1324C46.6701 25.807 45.9376 26.1443 44.994 26.1443C44.0504 26.1443 43.3054 25.807 42.7591 25.1324ZM56.8956 24.7055L56.8937 24.6994C56.2022 22.505 55.8708 19.9181 55.8708 16.9625C55.8708 13.9899 56.1757 11.3992 56.8116 9.21319C57.4602 6.98364 58.555 5.18473 60.1442 3.9056C61.77 2.59695 63.8635 2 66.3094 2C68.6465 2 70.6694 2.6046 72.2833 3.90144C73.8693 5.15097 74.9984 6.94129 75.7218 9.17765C76.4412 11.3769 76.7853 13.9806 76.7853 16.9625C76.7853 19.1692 76.6072 21.1716 76.2415 22.962C75.8977 24.7676 75.321 26.3554 74.4872 27.6987C73.6604 29.0461 72.5515 30.092 71.1725 30.8157C69.7955 31.5516 68.1568 31.8876 66.3094 31.8876C63.9698 31.8876 61.9451 31.2817 60.3304 29.982C58.7521 28.7116 57.6227 26.9272 56.8976 24.7117L56.8956 24.7055ZM70.6301 29.7795C71.8221 29.1549 72.7781 28.2555 73.4982 27.0812C74.2431 25.8819 74.777 24.4329 75.0998 22.7339C75.4475 21.035 75.6213 19.1112 75.6213 16.9625C75.6213 14.0643 75.2861 11.5909 74.6156 9.54216C73.9452 7.46846 72.9271 5.89444 71.5613 4.82011C70.1956 3.7208 68.4449 3.17114 66.3094 3.17114C64.0497 3.17114 62.237 3.7208 60.8713 4.82011C59.5055 5.91942 58.5247 7.49344 57.9287 9.54216C57.3328 11.5909 57.0348 14.0643 57.0348 16.9625C57.0348 19.8357 57.3576 22.2967 58.0032 24.3454C58.6737 26.3941 59.6918 27.9681 61.0575 29.0675C62.4233 30.1668 64.1739 30.7164 66.3094 30.7164C68.0228 30.7164 69.463 30.4041 70.6301 29.7795ZM67.5963 24.4029L67.6047 24.3926C67.9701 23.9414 68.3061 23.1569 68.5135 21.9043L68.515 21.8958L68.5165 21.8873C68.748 20.6061 68.8702 18.9703 68.8702 16.9625C68.8702 14.954 68.7479 13.3326 68.5172 12.079L68.515 12.0669L68.513 12.0548C68.3046 10.7734 67.9672 9.98012 67.6047 9.53241L67.5899 9.51415L67.5758 9.49531C67.2951 9.11876 66.923 8.91443 66.3094 8.91443C65.6965 8.91443 65.3004 9.11963 64.9916 9.51394C64.6429 9.96626 64.3152 10.7677 64.1059 12.0548L64.1053 12.0582C63.8961 13.3208 63.7859 14.9499 63.7859 16.9625C63.7859 18.9478 63.8959 20.5783 64.1056 21.8686C64.3113 23.1094 64.6335 23.9204 64.9915 24.4104C65.293 24.7736 65.6895 24.9731 66.3094 24.9731C66.9394 24.9731 67.3138 24.7684 67.5882 24.4134L67.5963 24.4029ZM64.0746 25.1324C63.5531 24.4329 63.1806 23.4085 62.9571 22.0593C62.7337 20.6852 62.6219 18.9863 62.6219 16.9625C62.6219 14.9138 62.7337 13.2149 62.9571 11.8657C63.1806 10.4916 63.5531 9.46721 64.0746 8.79263C64.6209 8.09307 65.3658 7.74328 66.3094 7.74328C67.253 7.74328 67.9856 8.09307 68.507 8.79263C69.0533 9.46721 69.4382 10.4916 69.6617 11.8657C69.91 13.2149 70.0342 14.9138 70.0342 16.9625C70.0342 19.0112 69.91 20.7227 69.6617 22.0968C69.4382 23.446 69.0533 24.4578 68.507 25.1324C67.9856 25.807 67.253 26.1443 66.3094 26.1443C65.3658 26.1443 64.6209 25.807 64.0746 25.1324ZM106.51 31.5128H88.8733V2.41224H106.51V9.40162H96.8256V12.9432H105.839V19.9325H96.8256V24.4859H106.51V31.5128ZM95.6616 25.6571V18.7614H104.676V14.1143H95.6616V8.23048H105.346V3.58338H90.0372V30.3417H105.346V25.6571H95.6616ZM122.287 31.5128H114.335V9.47658H107.109V2.41224H129.513V9.47658H122.287V31.5128ZM115.499 8.30543V30.3417H121.123V8.30543H128.349V3.58338H108.273V8.30543H115.499ZM155.404 31.5128H147.451V19.97H139.238V31.5128H131.286V2.41224H139.238V12.9057H147.451V2.41224H155.404V31.5128ZM148.615 14.0768H138.074V3.58338H132.45V30.3417H138.074V18.7989H148.615V30.3417H154.24V3.58338H148.615V14.0768Z" fill="url(#paint2_linear_4330_3912)"/>
    <path d="M176.764 3.39173L185.289 16.8067L176.764 21.5857V3.39173Z" stroke="url(#paint3_radial_4330_3912)"/>
    <path d="M175.972 21.4692L167.655 16.8067L175.972 3.71903V12.8797V21.4692Z" stroke="url(#paint4_linear_4330_3912)"/>
    <path d="M176.854 24.3914L184.185 20.2863L176.854 30.0777V24.3914Z" stroke="url(#paint5_radial_4330_3912)"/>
    <path d="M168.763 20.2862L175.972 24.3252V29.92L168.763 20.2862Z" stroke="url(#paint6_linear_4330_3912)"/>
    <path opacity="0.5" d="M176.971 13.6399L184.867 17.0433L176.971 21.4692V13.6399Z" stroke="url(#paint7_radial_4330_3912)"/>
    <path opacity="0.5" d="M175.972 13.6399V21.4693L168.077 17.0433L175.972 13.6399Z" stroke="url(#paint8_radial_4330_3912)"/>
    <defs>
        <radialGradient id="paint0_radial_4330_3912" cx="0" cy="0" r="1" gradientUnits="userSpaceOnUse" gradientTransform="translate(28.9827 13.1064) rotate(21.7909) scale(140.652 994.791)">
            <stop stop-color="#2A3837"/>
            <stop offset="0.421875" stop-color="#3F2B44"/>
            <stop offset="1" stop-color="#322837"/>
        </radialGradient>
        <radialGradient id="paint1_radial_4330_3912" cx="0" cy="0" r="1" gradientUnits="userSpaceOnUse" gradientTransform="translate(28.9827 13.1064) rotate(21.7909) scale(140.652 994.791)">
            <stop stop-color="#2A3837"/>
            <stop offset="0.421875" stop-color="#3F2B44"/>
            <stop offset="1" stop-color="#322837"/>
        </radialGradient>
        <linearGradient id="paint2_linear_4330_3912" x1="-6.05896" y1="17" x2="172.492" y2="38.384" gradientUnits="userSpaceOnUse">
            <stop stop-color="#4BF2A2"/>
            <stop offset="0.522948" stop-color="#A89FE7"/>
            <stop offset="0.669499" stop-color="#E1C4F4"/>
            <stop offset="1" stop-color="#DD40CD"/>
        </linearGradient>
        <radialGradient id="paint3_radial_4330_3912" cx="0" cy="0" r="1" gradientUnits="userSpaceOnUse" gradientTransform="translate(177.923 9.52369) rotate(76.7348) scale(36.3396 166.529)">
            <stop stop-color="#4BF2A2"/>
            <stop offset="0.421875" stop-color="#564D8F"/>
            <stop offset="1" stop-color="#DD40CD"/>
        </radialGradient>
        <linearGradient id="paint4_linear_4330_3912" x1="166.383" y1="12.1613" x2="177.698" y2="12.2863" gradientUnits="userSpaceOnUse">
            <stop stop-color="#4BF2A2"/>
            <stop offset="0.522948" stop-color="#A89FE7"/>
            <stop offset="0.669499" stop-color="#E1C4F4"/>
            <stop offset="1" stop-color="#DD40CD"/>
        </linearGradient>
        <radialGradient id="paint5_radial_4330_3912" cx="0" cy="0" r="1" gradientUnits="userSpaceOnUse" gradientTransform="translate(177.999 23.4086) rotate(69.5352) scale(23.6407 158.895)">
            <stop stop-color="#4BF2A2"/>
            <stop offset="0.421875" stop-color="#564D8F"/>
            <stop offset="1" stop-color="#DD40CD"/>
        </radialGradient>
        <linearGradient id="paint6_linear_4330_3912" x1="166.383" y1="25.0598" x2="177.696" y2="25.2594" gradientUnits="userSpaceOnUse">
            <stop stop-color="#4BF2A2"/>
            <stop offset="0.522948" stop-color="#A89FE7"/>
            <stop offset="0.669499" stop-color="#E1C4F4"/>
            <stop offset="1" stop-color="#DD40CD"/>
        </linearGradient>
        <radialGradient id="paint7_radial_4330_3912" cx="0" cy="0" r="1" gradientUnits="userSpaceOnUse" gradientTransform="translate(178.095 16.3757) rotate(63.5948) scale(18.3489 149.966)">
            <stop stop-color="#2A3837"/>
            <stop offset="0.421875" stop-color="#3F2B44"/>
            <stop offset="1" stop-color="#322837"/>
        </radialGradient>
        <radialGradient id="paint8_radial_4330_3912" cx="0" cy="0" r="1" gradientUnits="userSpaceOnUse" gradientTransform="translate(168.573 16.3758) rotate(63.595) scale(18.349 149.966)">
            <stop stop-color="#4BF2A2"/>
            <stop offset="0.421875" stop-color="#564D8F"/>
            <stop offset="1" stop-color="#DD40CD"/>
        </radialGradient>
    </defs>
</svg>
