<svg width="56" height="50" viewBox="0 0 56 50" fill="none" xmlns="http://www.w3.org/2000/svg">
<g filter="url(#filter0_d_11803_851)">
<path d="M3 13.1667C3 9.76091 5.76091 7 9.16667 7H38.8333C42.2391 7 45 9.76091 45 13.1667V19.3329C42.2423 19.7951 40.1111 22.1354 40.1111 25C40.1111 27.8646 42.2423 30.2049 45 30.6671V36.8333C45 40.2391 42.2391 43 38.8333 43H9.16667C5.76091 43 3 40.2391 3 36.8333V30.6671C5.75767 30.2049 7.88889 27.8646 7.88889 25C7.88889 22.1354 5.75767 19.7951 3 19.3329V13.1667Z" fill="#212130" stroke="url(#paint0_linear_11803_851)" stroke-width="2"/>
<path d="M23.2796 15.0366L29.0849 15.1735L29.6136 15.5868L24.9707 15.9185L19.2087 15.6709L18.72 15.4248L23.2796 15.0366Z" fill="url(#paint1_radial_11803_851)" stroke="url(#paint2_radial_11803_851)" stroke-width="0.257143"/>
<mask id="path-3-inside-1_11803_851" fill="white">
<path fill-rule="evenodd" clip-rule="evenodd" d="M12.0002 21.7792L12 21.7794L12.0002 21.7792L12 21.7791L12.0011 21.7782L18.2561 15.3352L19.1752 15.7981L19.1753 15.798L19.6349 22.6694L12.0002 21.7792Z"/>
</mask>
<path fill-rule="evenodd" clip-rule="evenodd" d="M12.0002 21.7792L12 21.7794L12.0002 21.7792L12 21.7791L12.0011 21.7782L18.2561 15.3352L19.1752 15.7981L19.1753 15.798L19.6349 22.6694L12.0002 21.7792Z" fill="url(#paint3_radial_11803_851)"/>
<path d="M12 21.7794L11.8155 21.6003L12.1646 21.9769L12 21.7794ZM12.0002 21.7792L12.03 21.5238L11.9204 21.511L11.8357 21.5816L12.0002 21.7792ZM12.0002 21.7792L12.1847 21.9582L12.548 21.5839L12.0299 21.5237L12.0002 21.7792ZM12 21.7791L11.8354 21.5816L11.3749 21.9654L11.9703 22.0346L12 21.7791ZM12.0011 21.7782L12.1657 21.9757L12.1762 21.9671L12.1856 21.9573L12.0011 21.7782ZM18.2561 15.3352L18.3718 15.1056L18.2031 15.0206L18.0716 15.1561L18.2561 15.3352ZM19.1752 15.7981L19.0595 16.0278L19.2103 16.1037L19.3399 15.9955L19.1752 15.7981ZM19.1753 15.798L19.4319 15.7808L19.3982 15.277L19.0106 15.6005L19.1753 15.798ZM19.6349 22.6694L19.6052 22.9248L19.9121 22.9606L19.8915 22.6522L19.6349 22.6694ZM12.1646 21.9769L12.1648 21.9767L11.8357 21.5816L11.8354 21.5818L12.1646 21.9769ZM11.8157 21.6001L11.8155 21.6003L12.1845 21.9584L12.1847 21.9582L11.8157 21.6001ZM11.9703 22.0346L11.9705 22.0346L12.0299 21.5237L12.0297 21.5237L11.9703 22.0346ZM11.8365 21.5807L11.8354 21.5816L12.1646 21.9767L12.1657 21.9757L11.8365 21.5807ZM18.0716 15.1561L11.8166 21.5991L12.1856 21.9573L18.4406 15.5144L18.0716 15.1561ZM19.2908 15.5684L18.3718 15.1056L18.1404 15.5649L19.0595 16.0278L19.2908 15.5684ZM19.0106 15.6005L19.0104 15.6007L19.3399 15.9955L19.3401 15.9954L19.0106 15.6005ZM19.8915 22.6522L19.4319 15.7808L18.9188 15.8151L19.3784 22.6865L19.8915 22.6522ZM11.9704 22.0346L19.6052 22.9248L19.6647 22.414L12.03 21.5238L11.9704 22.0346Z" fill="url(#paint4_radial_11803_851)" mask="url(#path-3-inside-1_11803_851)"/>
<path d="M19.3136 15.9326L24.7129 16.1646L19.7417 22.3326L19.3136 15.9326Z" fill="url(#paint5_radial_11803_851)" stroke="url(#paint6_radial_11803_851)" stroke-width="0.257143"/>
<path d="M19.9061 22.5377L24.9831 16.2385L31.2364 22.402L19.9061 22.5377Z" fill="url(#paint7_radial_11803_851)" stroke="url(#paint8_radial_11803_851)" stroke-width="0.257143"/>
<path d="M25.2654 16.1553L29.8558 15.8274L31.321 22.124L25.2654 16.1553Z" fill="url(#paint9_radial_11803_851)" stroke="url(#paint10_radial_11803_851)" stroke-width="0.257143"/>
<path d="M31.6424 22.3728L30.179 16.084L35.7395 21.4231L31.6424 22.3728Z" fill="url(#paint11_radial_11803_851)" stroke="url(#paint12_radial_11803_851)" stroke-width="0.257143"/>
<path d="M19.541 22.7879L23.6464 34.1516L12.3311 21.9472L19.541 22.7879Z" fill="url(#paint13_radial_11803_851)" stroke="url(#paint14_radial_11803_851)" stroke-width="0.257143"/>
<path d="M19.8171 22.7959L31.3133 22.6583L24.0129 34.4099L19.8171 22.7959Z" fill="url(#paint15_radial_11803_851)" stroke="url(#paint16_radial_11803_851)" stroke-width="0.257143"/>
<path d="M31.6276 22.6402L35.6277 21.713L24.8337 33.5766L31.6276 22.6402Z" fill="url(#paint17_radial_11803_851)" stroke="url(#paint18_radial_11803_851)" stroke-width="0.257143"/>
</g>
<defs>
<filter id="filter0_d_11803_851" x="0" y="0" width="56" height="50" filterUnits="userSpaceOnUse" color-interpolation-filters="sRGB">
<feFlood flood-opacity="0" result="BackgroundImageFix"/>
<feColorMatrix in="SourceAlpha" type="matrix" values="0 0 0 0 0 0 0 0 0 0 0 0 0 0 0 0 0 0 127 0" result="hardAlpha"/>
<feOffset dx="4"/>
<feGaussianBlur stdDeviation="3"/>
<feComposite in2="hardAlpha" operator="out"/>
<feColorMatrix type="matrix" values="0 0 0 0 0 0 0 0 0 0 0 0 0 0 0 0 0 0 0.25 0"/>
<feBlend mode="normal" in2="BackgroundImageFix" result="effect1_dropShadow_11803_851"/>
<feBlend mode="normal" in="SourceGraphic" in2="effect1_dropShadow_11803_851" result="shape"/>
</filter>
<linearGradient id="paint0_linear_11803_851" x1="-0.615384" y1="25" x2="51.6338" y2="26.4263" gradientUnits="userSpaceOnUse">
<stop stop-color="#4BF2A2"/>
<stop offset="0.522948" stop-color="#A89FE7"/>
<stop offset="0.669499" stop-color="#E1C4F4"/>
<stop offset="1" stop-color="#DD40CD"/>
<stop offset="1" stop-color="#DD40CD"/>
</linearGradient>
<radialGradient id="paint1_radial_11803_851" cx="0" cy="0" r="1" gradientUnits="userSpaceOnUse" gradientTransform="translate(20.251 15.3297) rotate(11.1872) scale(10.2201 39.9128)">
<stop stop-color="#89EABB"/>
<stop offset="0.421875" stop-color="#9084D7"/>
<stop offset="1" stop-color="#E059D3"/>
</radialGradient>
<radialGradient id="paint2_radial_11803_851" cx="0" cy="0" r="1" gradientUnits="userSpaceOnUse" gradientTransform="translate(20.251 15.3297) rotate(11.1872) scale(10.2201 39.9128)">
<stop stop-color="#4BF2A2"/>
<stop offset="0.421875" stop-color="#564D8F"/>
<stop offset="1" stop-color="#DD40CD"/>
</radialGradient>
<radialGradient id="paint3_radial_11803_851" cx="0" cy="0" r="1" gradientUnits="userSpaceOnUse" gradientTransform="translate(13.3016 18.3419) rotate(61.3175) scale(13.6319 117.775)">
<stop stop-color="#81F0BB"/>
<stop offset="0.666667" stop-color="#AAA0E8"/>
<stop offset="1" stop-color="#EAAFFF"/>
</radialGradient>
<radialGradient id="paint4_radial_11803_851" cx="0" cy="0" r="1" gradientUnits="userSpaceOnUse" gradientTransform="translate(13.3016 18.0504) rotate(62.8618) scale(14.3437 119.469)">
<stop stop-color="#4BF2A2"/>
<stop offset="0.421875" stop-color="#564D8F"/>
<stop offset="1" stop-color="#DD40CD"/>
</radialGradient>
<radialGradient id="paint5_radial_11803_851" cx="0" cy="0" r="1" gradientUnits="userSpaceOnUse" gradientTransform="translate(22.7104 18.4727) rotate(144.263) scale(5.19423 3.89961)">
<stop stop-color="#8877F5"/>
<stop offset="1" stop-color="#7AECB5"/>
</radialGradient>
<radialGradient id="paint6_radial_11803_851" cx="0" cy="0" r="1" gradientUnits="userSpaceOnUse" gradientTransform="translate(20.1641 18.3419) rotate(67.4426) scale(12.9499 94.1331)">
<stop stop-color="#4BF2A2"/>
<stop offset="0.421875" stop-color="#564D8F"/>
<stop offset="1" stop-color="#DD40CD"/>
</radialGradient>
<radialGradient id="paint7_radial_11803_851" cx="0" cy="0" r="1" gradientUnits="userSpaceOnUse" gradientTransform="translate(21.6655 18.4988) rotate(48.471) scale(15.396 156.796)">
<stop stop-color="#81F0BB"/>
<stop offset="0.421875" stop-color="#AAA0E8"/>
<stop offset="1" stop-color="#DD40CD"/>
</radialGradient>
<radialGradient id="paint8_radial_11803_851" cx="0" cy="0" r="1" gradientUnits="userSpaceOnUse" gradientTransform="translate(21.6655 18.4988) rotate(48.471) scale(15.396 156.796)">
<stop stop-color="#4BF2A2"/>
<stop offset="0.421875" stop-color="#564D8F"/>
<stop offset="1" stop-color="#DD40CD"/>
</radialGradient>
<radialGradient id="paint9_radial_11803_851" cx="0" cy="0" r="1" gradientUnits="userSpaceOnUse" gradientTransform="translate(28.9811 18.352) rotate(63.0825) scale(9.76066 8.26458)">
<stop stop-color="#8877F5"/>
<stop offset="1" stop-color="#7AECB5"/>
</radialGradient>
<radialGradient id="paint10_radial_11803_851" cx="0" cy="0" r="1" gradientUnits="userSpaceOnUse" gradientTransform="translate(26.0935 18.222) rotate(64.661) scale(13.1636 104.475)">
<stop stop-color="#4BF2A2"/>
<stop offset="0.421875" stop-color="#564D8F"/>
<stop offset="1" stop-color="#DD40CD"/>
</radialGradient>
<radialGradient id="paint11_radial_11803_851" cx="0" cy="0" r="1" gradientUnits="userSpaceOnUse" gradientTransform="translate(30.986 18.222) rotate(66.4735) scale(12.9757 97.4444)">
<stop stop-color="#89EABB"/>
<stop offset="0.421875" stop-color="#9084D7"/>
<stop offset="1" stop-color="#E059D3"/>
</radialGradient>
<radialGradient id="paint12_radial_11803_851" cx="0" cy="0" r="1" gradientUnits="userSpaceOnUse" gradientTransform="translate(30.986 18.222) rotate(66.4735) scale(12.9757 97.4444)">
<stop stop-color="#4BF2A2"/>
<stop offset="0.421875" stop-color="#564D8F"/>
<stop offset="1" stop-color="#DD40CD"/>
</radialGradient>
<radialGradient id="paint13_radial_11803_851" cx="0" cy="0" r="1" gradientUnits="userSpaceOnUse" gradientTransform="translate(14.0428 26.5637) rotate(65.4631) scale(24.726 191.664)">
<stop stop-color="#81F0BB"/>
<stop offset="0.421875" stop-color="#AAA0E8"/>
<stop offset="1" stop-color="#DD40CD"/>
</radialGradient>
<radialGradient id="paint14_radial_11803_851" cx="0" cy="0" r="1" gradientUnits="userSpaceOnUse" gradientTransform="translate(14.0428 26.5637) rotate(65.4631) scale(24.726 191.664)">
<stop stop-color="#4BF2A2"/>
<stop offset="0.421875" stop-color="#564D8F"/>
<stop offset="1" stop-color="#DD40CD"/>
</radialGradient>
<radialGradient id="paint15_radial_11803_851" cx="0" cy="0" r="1" gradientUnits="userSpaceOnUse" gradientTransform="translate(24.0652 25.218) rotate(76.9964) scale(7.61863 11.8933)">
<stop stop-color="#81F0BB"/>
<stop offset="0.421875" stop-color="#4EAE9D"/>
<stop offset="0.760417" stop-color="#9D8FEC"/>
<stop offset="1" stop-color="#F2A6EB"/>
</radialGradient>
<radialGradient id="paint16_radial_11803_851" cx="0" cy="0" r="1" gradientUnits="userSpaceOnUse" gradientTransform="translate(21.6655 27.0347) rotate(64.2812) scale(23.5221 188.697)">
<stop stop-color="#4BF2A2"/>
<stop offset="0.421875" stop-color="#564D8F"/>
<stop offset="1" stop-color="#DD40CD"/>
</radialGradient>
<radialGradient id="paint17_radial_11803_851" cx="0" cy="0" r="1" gradientUnits="userSpaceOnUse" gradientTransform="translate(26.0313 26.3847) rotate(65.8684) scale(25.1899 192.846)">
<stop stop-color="#89EABB"/>
<stop offset="0.421875" stop-color="#9084D7"/>
<stop offset="1" stop-color="#E059D3"/>
</radialGradient>
<radialGradient id="paint18_radial_11803_851" cx="0" cy="0" r="1" gradientUnits="userSpaceOnUse" gradientTransform="translate(26.0313 26.3847) rotate(65.8684) scale(25.1899 192.846)">
<stop stop-color="#4BF2A2"/>
<stop offset="0.421875" stop-color="#564D8F"/>
<stop offset="1" stop-color="#DD40CD"/>
</radialGradient>
</defs>
</svg>
