<svg width="12" height="12" viewBox="0 0 12 12" fill="none" xmlns="http://www.w3.org/2000/svg">
  <path
    d="M11.7489 1.46323C12.0837 1.1285 12.0837 0.585786 11.7489 0.251051C11.4142 -0.0836838 10.8715 -0.0836838 10.5368 0.251051L6 4.78782L1.46323 0.251051C1.1285 -0.0836838 0.585786 -0.0836838 0.251051 0.251051C-0.0836838 0.585786 -0.0836838 1.1285 0.251051 1.46323L4.78782 6L0.251051 10.5368C-0.0836838 10.8715 -0.0836838 11.4142 0.251051 11.7489C0.585786 12.0837 1.1285 12.0837 1.46323 11.7489L6 7.21218L10.5368 11.7489C10.8715 12.0837 11.4142 12.0837 11.7489 11.7489C12.0837 11.4142 12.0837 10.8715 11.7489 10.5368L7.21218 6L11.7489 1.46323Z"
    fill="#67677B" />
</svg>