<svg width="56" height="50" viewBox="0 0 56 50" fill="none" xmlns="http://www.w3.org/2000/svg">
<g filter="url(#filter0_d_11803_822)">
<path d="M11 13.1667C11 9.76091 13.7609 7 17.1667 7H46.8333C50.2391 7 53 9.76091 53 13.1667V19.3329C50.2423 19.7951 48.1111 22.1354 48.1111 25C48.1111 27.8646 50.2423 30.2049 53 30.6671V36.8333C53 40.2391 50.2391 43 46.8333 43H17.1667C13.7609 43 11 40.2391 11 36.8333V30.6671C13.7577 30.2049 15.8889 27.8646 15.8889 25C15.8889 22.1354 13.7577 19.7951 11 19.3329V13.1667Z" fill="url(#paint0_linear_11803_822)" stroke="url(#paint1_radial_11803_822)" stroke-width="2"/>
<path d="M31.2795 15.0312L37.0868 15.1682L37.6279 15.5911L32.9708 15.9238L27.2073 15.6762L26.7007 15.421L31.2795 15.0312Z" fill="url(#paint2_radial_11803_822)" stroke="url(#paint3_radial_11803_822)" stroke-width="0.246429"/>
<mask id="path-3-inside-1_11803_822" fill="white">
<path fill-rule="evenodd" clip-rule="evenodd" d="M20.0002 21.7792L20 21.7793L20.0002 21.7792L20 21.7791L20.0009 21.7783L26.2561 15.3352L27.1752 15.7981L27.1753 15.798L27.6349 22.6694L20.0002 21.7792Z"/>
</mask>
<path fill-rule="evenodd" clip-rule="evenodd" d="M20.0002 21.7792L20 21.7793L20.0002 21.7792L20 21.7791L20.0009 21.7783L26.2561 15.3352L27.1752 15.7981L27.1753 15.798L27.6349 22.6694L20.0002 21.7792Z" fill="url(#paint4_radial_11803_822)"/>
<path d="M20 21.7793L19.8232 21.6076L20.1578 21.9686L20 21.7793ZM20.0002 21.7792L20.0287 21.5344L19.9237 21.5221L19.8424 21.5899L20.0002 21.7792ZM20.0002 21.7792L20.1769 21.9509L20.525 21.5926L20.0289 21.5344L20.0002 21.7792ZM20 21.7791L19.8422 21.5899L19.4017 21.9571L19.9713 22.0239L20 21.7791ZM20.0009 21.7783L20.1587 21.9676L20.1687 21.9593L20.1778 21.95L20.0009 21.7783ZM26.2561 15.3352L26.3669 15.1151L26.2053 15.0337L26.0793 15.1636L26.2561 15.3352ZM27.1752 15.7981L27.0643 16.0182L27.2087 16.0909L27.3329 15.9874L27.1752 15.7981ZM27.1753 15.798L27.4212 15.7815L27.3889 15.2992L27.0176 15.6087L27.1753 15.798ZM27.6349 22.6694L27.6064 22.9142L27.9006 22.9485L27.8808 22.6529L27.6349 22.6694ZM20.1578 21.9686L20.158 21.9685L19.8424 21.5899L19.8422 21.59L20.1578 21.9686ZM19.8234 21.6074L19.8232 21.6076L20.1768 21.951L20.1769 21.9509L19.8234 21.6074ZM19.9713 22.0239L19.9715 22.0239L20.0289 21.5344L20.0287 21.5344L19.9713 22.0239ZM19.8432 21.5891L19.8422 21.5899L20.1578 21.9684L20.1587 21.9676L19.8432 21.5891ZM26.0793 15.1636L19.8241 21.6067L20.1778 21.95L26.4329 15.5069L26.0793 15.1636ZM27.286 15.578L26.3669 15.1151L26.1453 15.5553L27.0643 16.0182L27.286 15.578ZM27.0176 15.6087L27.0174 15.6088L27.3329 15.9874L27.3331 15.9873L27.0176 15.6087ZM27.8808 22.6529L27.4212 15.7815L26.9294 15.8144L27.3891 22.6858L27.8808 22.6529ZM19.9717 22.0239L27.6064 22.9142L27.6635 22.4246L20.0287 21.5344L19.9717 22.0239Z" fill="url(#paint5_radial_11803_822)" mask="url(#path-3-inside-1_11803_822)"/>
<path d="M27.3079 15.927L32.7237 16.1597L27.7373 22.3467L27.3079 15.927Z" fill="url(#paint6_radial_11803_822)" stroke="url(#paint7_radial_11803_822)" stroke-width="0.246429"/>
<path d="M27.8948 22.5432L32.9826 16.2305L39.2493 22.4073L27.8948 22.5432Z" fill="url(#paint8_radial_11803_822)" stroke="url(#paint9_radial_11803_822)" stroke-width="0.246429"/>
<path d="M33.2532 16.1508L37.8599 15.8217L39.3304 22.1408L33.2532 16.1508Z" fill="url(#paint10_radial_11803_822)" stroke="url(#paint11_radial_11803_822)" stroke-width="0.246429"/>
<path d="M39.6384 22.3792L38.1697 16.0677L43.7504 21.426L39.6384 22.3792Z" fill="url(#paint12_radial_11803_822)" stroke="url(#paint13_radial_11803_822)" stroke-width="0.246429"/>
<path d="M27.5449 22.7829L31.6604 34.1746L20.3173 21.9402L27.5449 22.7829Z" fill="url(#paint14_radial_11803_822)" stroke="url(#paint15_radial_11803_822)" stroke-width="0.246429"/>
<path d="M27.8095 22.7906L39.323 22.6528L32.0116 34.4221L27.8095 22.7906Z" fill="url(#paint16_radial_11803_822)" stroke="url(#paint17_radial_11803_822)" stroke-width="0.246429"/>
<path d="M39.6242 22.6355L43.6432 21.7039L32.7982 33.6235L39.6242 22.6355Z" fill="url(#paint18_radial_11803_822)" stroke="url(#paint19_radial_11803_822)" stroke-width="0.246429"/>
</g>
<defs>
<filter id="filter0_d_11803_822" x="0" y="0" width="56" height="50" filterUnits="userSpaceOnUse" color-interpolation-filters="sRGB">
<feFlood flood-opacity="0" result="BackgroundImageFix"/>
<feColorMatrix in="SourceAlpha" type="matrix" values="0 0 0 0 0 0 0 0 0 0 0 0 0 0 0 0 0 0 127 0" result="hardAlpha"/>
<feOffset dx="-4"/>
<feGaussianBlur stdDeviation="3"/>
<feComposite in2="hardAlpha" operator="out"/>
<feColorMatrix type="matrix" values="0 0 0 0 0 0 0 0 0 0 0 0 0 0 0 0 0 0 0.25 0"/>
<feBlend mode="normal" in2="BackgroundImageFix" result="effect1_dropShadow_11803_822"/>
<feBlend mode="normal" in="SourceGraphic" in2="effect1_dropShadow_11803_822" result="shape"/>
</filter>
<linearGradient id="paint0_linear_11803_822" x1="7.38462" y1="25" x2="59.6338" y2="26.4263" gradientUnits="userSpaceOnUse">
<stop stop-color="#4BF2A2"/>
<stop offset="0.522948" stop-color="#A89FE7"/>
<stop offset="0.669499" stop-color="#E1C4F4"/>
<stop offset="1" stop-color="#DD40CD"/>
<stop offset="1" stop-color="#DD40CD"/>
</linearGradient>
<radialGradient id="paint1_radial_11803_822" cx="0" cy="0" r="1" gradientUnits="userSpaceOnUse" gradientTransform="translate(17.5014 20.0681) rotate(60.3117) scale(76.1295 672.115)">
<stop stop-color="#4BF2A2"/>
<stop offset="0.421875" stop-color="#564D8F"/>
<stop offset="1" stop-color="#DD40CD"/>
</radialGradient>
<radialGradient id="paint2_radial_11803_822" cx="0" cy="0" r="1" gradientUnits="userSpaceOnUse" gradientTransform="translate(28.251 15.3297) rotate(11.1872) scale(10.2201 39.9128)">
<stop stop-color="#2A3837"/>
<stop offset="0.421875" stop-color="#3F2B44"/>
<stop offset="1" stop-color="#322837"/>
</radialGradient>
<radialGradient id="paint3_radial_11803_822" cx="0" cy="0" r="1" gradientUnits="userSpaceOnUse" gradientTransform="translate(28.251 15.3297) rotate(11.1872) scale(10.2201 39.9128)">
<stop stop-color="#2A3837"/>
<stop offset="0.421875" stop-color="#3F2B44"/>
<stop offset="1" stop-color="#322837"/>
</radialGradient>
<radialGradient id="paint4_radial_11803_822" cx="0" cy="0" r="1" gradientUnits="userSpaceOnUse" gradientTransform="translate(21.3016 18.0504) rotate(62.8618) scale(14.3437 119.469)">
<stop stop-color="#2A3837"/>
<stop offset="0.421875" stop-color="#3F2B44"/>
<stop offset="1" stop-color="#322837"/>
</radialGradient>
<radialGradient id="paint5_radial_11803_822" cx="0" cy="0" r="1" gradientUnits="userSpaceOnUse" gradientTransform="translate(21.3016 18.0504) rotate(62.8618) scale(14.3437 119.469)">
<stop stop-color="#2A3837"/>
<stop offset="0.421875" stop-color="#3F2B44"/>
<stop offset="1" stop-color="#322837"/>
</radialGradient>
<radialGradient id="paint6_radial_11803_822" cx="0" cy="0" r="1" gradientUnits="userSpaceOnUse" gradientTransform="translate(28.1641 18.3419) rotate(67.4426) scale(12.9499 94.1331)">
<stop stop-color="#2A3837"/>
<stop offset="0.421875" stop-color="#3F2B44"/>
<stop offset="1" stop-color="#322837"/>
</radialGradient>
<radialGradient id="paint7_radial_11803_822" cx="0" cy="0" r="1" gradientUnits="userSpaceOnUse" gradientTransform="translate(28.1641 18.3419) rotate(67.4426) scale(12.9499 94.1331)">
<stop stop-color="#2A3837"/>
<stop offset="0.421875" stop-color="#3F2B44"/>
<stop offset="1" stop-color="#322837"/>
</radialGradient>
<radialGradient id="paint8_radial_11803_822" cx="0" cy="0" r="1" gradientUnits="userSpaceOnUse" gradientTransform="translate(29.6655 18.4989) rotate(48.4711) scale(15.396 156.796)">
<stop stop-color="#2A3837"/>
<stop offset="0.421875" stop-color="#3F2B44"/>
<stop offset="1" stop-color="#322837"/>
</radialGradient>
<radialGradient id="paint9_radial_11803_822" cx="0" cy="0" r="1" gradientUnits="userSpaceOnUse" gradientTransform="translate(29.6655 18.4989) rotate(48.4711) scale(15.396 156.796)">
<stop stop-color="#2A3837"/>
<stop offset="0.421875" stop-color="#3F2B44"/>
<stop offset="1" stop-color="#322837"/>
</radialGradient>
<radialGradient id="paint10_radial_11803_822" cx="0" cy="0" r="1" gradientUnits="userSpaceOnUse" gradientTransform="translate(34.0935 18.222) rotate(64.661) scale(13.1636 104.475)">
<stop stop-color="#2A3837"/>
<stop offset="0.421875" stop-color="#3F2B44"/>
<stop offset="1" stop-color="#322837"/>
</radialGradient>
<radialGradient id="paint11_radial_11803_822" cx="0" cy="0" r="1" gradientUnits="userSpaceOnUse" gradientTransform="translate(34.0935 18.222) rotate(64.661) scale(13.1636 104.475)">
<stop stop-color="#2A3837"/>
<stop offset="0.421875" stop-color="#3F2B44"/>
<stop offset="1" stop-color="#322837"/>
</radialGradient>
<radialGradient id="paint12_radial_11803_822" cx="0" cy="0" r="1" gradientUnits="userSpaceOnUse" gradientTransform="translate(38.986 18.222) rotate(66.4735) scale(12.9758 97.4444)">
<stop stop-color="#2A3837"/>
<stop offset="0.421875" stop-color="#3F2B44"/>
<stop offset="1" stop-color="#322837"/>
</radialGradient>
<radialGradient id="paint13_radial_11803_822" cx="0" cy="0" r="1" gradientUnits="userSpaceOnUse" gradientTransform="translate(38.986 18.222) rotate(66.4735) scale(12.9758 97.4444)">
<stop stop-color="#2A3837"/>
<stop offset="0.421875" stop-color="#3F2B44"/>
<stop offset="1" stop-color="#322837"/>
</radialGradient>
<radialGradient id="paint14_radial_11803_822" cx="0" cy="0" r="1" gradientUnits="userSpaceOnUse" gradientTransform="translate(22.0428 26.5637) rotate(65.4631) scale(24.726 191.664)">
<stop stop-color="#2A3837"/>
<stop offset="0.421875" stop-color="#3F2B44"/>
<stop offset="1" stop-color="#322837"/>
</radialGradient>
<radialGradient id="paint15_radial_11803_822" cx="0" cy="0" r="1" gradientUnits="userSpaceOnUse" gradientTransform="translate(22.0428 26.5637) rotate(65.4631) scale(24.726 191.664)">
<stop stop-color="#2A3837"/>
<stop offset="0.421875" stop-color="#3F2B44"/>
<stop offset="1" stop-color="#322837"/>
</radialGradient>
<radialGradient id="paint16_radial_11803_822" cx="0" cy="0" r="1" gradientUnits="userSpaceOnUse" gradientTransform="translate(29.6655 27.0347) rotate(64.2812) scale(23.5221 188.697)">
<stop stop-color="#2A3837"/>
<stop offset="0.421875" stop-color="#3F2B44"/>
<stop offset="1" stop-color="#322837"/>
</radialGradient>
<radialGradient id="paint17_radial_11803_822" cx="0" cy="0" r="1" gradientUnits="userSpaceOnUse" gradientTransform="translate(29.6655 27.0347) rotate(64.2812) scale(23.5221 188.697)">
<stop stop-color="#2A3837"/>
<stop offset="0.421875" stop-color="#3F2B44"/>
<stop offset="1" stop-color="#322837"/>
</radialGradient>
<radialGradient id="paint18_radial_11803_822" cx="0" cy="0" r="1" gradientUnits="userSpaceOnUse" gradientTransform="translate(34.0313 26.3846) rotate(65.8684) scale(25.1899 192.846)">
<stop stop-color="#2A3837"/>
<stop offset="0.421875" stop-color="#3F2B44"/>
<stop offset="1" stop-color="#322837"/>
</radialGradient>
<radialGradient id="paint19_radial_11803_822" cx="0" cy="0" r="1" gradientUnits="userSpaceOnUse" gradientTransform="translate(34.0313 26.3846) rotate(65.8684) scale(25.1899 192.846)">
<stop stop-color="#2A3837"/>
<stop offset="0.421875" stop-color="#3F2B44"/>
<stop offset="1" stop-color="#322837"/>
</radialGradient>
</defs>
</svg>
