<svg width="16" height="16" viewBox="0 0 16 16" fill="none" xmlns="http://www.w3.org/2000/svg">
<path d="M8 16C3.5888 16 0 12.4112 0 8C0 3.5888 3.5888 0 8 0C12.4112 0 16 3.5888 16 8C16 12.4112 12.4112 16 8 16ZM8 0.761905C4.00888 0.761905 0.761905 4.00888 0.761905 8C0.761905 11.9911 4.00888 15.2381 8 15.2381C11.9911 15.2381 15.2381 11.9911 15.2381 8C15.2381 4.00888 11.9911 0.761905 8 0.761905Z" fill="#997EA4"/>
<path d="M8 16C6.79261 16 5.67764 15.1346 4.86053 13.5632C4.0845 12.0709 3.65714 10.0952 3.65714 8C3.65714 5.9048 4.0845 3.9291 4.86053 2.43676C5.67764 0.865371 6.79261 0 8 0C9.20739 0 10.3224 0.865371 11.1395 2.43676C11.9155 3.9291 12.3429 5.9048 12.3429 8C12.3429 10.0952 11.9155 12.0709 11.1395 13.5632C10.3224 15.1346 9.20739 16 8 16ZM8 0.761905C7.0909 0.761905 6.216 1.48156 5.53649 2.78827C4.81589 4.17402 4.41905 6.02491 4.41905 8C4.41905 9.97509 4.81589 11.826 5.53649 13.2117C6.216 14.5184 7.0909 15.2381 8 15.2381C8.9091 15.2381 9.784 14.5184 10.4635 13.2117C11.1841 11.826 11.581 9.97509 11.581 8C11.581 6.02491 11.1841 4.17402 10.4635 2.78827C9.784 1.48156 8.9091 0.761905 8 0.761905Z" fill="#997EA4"/>
<path d="M8 16C7.7896 16 7.61905 15.8294 7.61905 15.619V0.380952C7.61905 0.170552 7.7896 0 8 0C8.21036 0 8.38095 0.170552 8.38095 0.380952V15.619C8.38095 15.8294 8.21036 16 8 16Z" fill="#997EA4"/>
<path d="M15.619 8.38095H0.380952C0.170552 8.38095 0 8.21036 0 8C0 7.7896 0.170552 7.61905 0.380952 7.61905H15.619C15.8294 7.61905 16 7.7896 16 8C16 8.21036 15.8294 8.38095 15.619 8.38095Z" fill="#997EA4"/>
<path d="M14.6286 5.10476H1.37143C1.16103 5.10476 0.990477 4.93421 0.990477 4.72381C0.990477 4.51341 1.16103 4.34286 1.37143 4.34286H14.6286C14.8389 4.34286 15.0095 4.51341 15.0095 4.72381C15.0095 4.93421 14.8389 5.10476 14.6286 5.10476Z" fill="#997EA4"/>
<path d="M14.6286 11.9619H1.37143C1.16103 11.9619 0.990477 11.7913 0.990477 11.581C0.990477 11.3706 1.16103 11.2 1.37143 11.2H14.6286C14.8389 11.2 15.0095 11.3706 15.0095 11.581C15.0095 11.7913 14.8389 11.9619 14.6286 11.9619Z" fill="#997EA4"/>
</svg>
