<svg width="199" height="48" viewBox="0 0 199 48" fill="none" xmlns="http://www.w3.org/2000/svg">
<path d="M78.7907 27.9473L83.9926 23.4936L84.8171 23.452L81.0065 27.4283L75.7517 31.7472L75.0941 31.9154L78.7907 27.9473Z" fill="url(#paint0_radial_6235_13400)" stroke="url(#paint1_radial_6235_13400)" stroke-width="0.3"/>
<mask id="path-2-inside-1_6235_13400" fill="white">
<path fill-rule="evenodd" clip-rule="evenodd" d="M74.4325 42.9941L74.4324 42.9943L74.4324 42.9942L74.4324 42.9942L74.4325 42.9934L74.6359 32.1873L75.8213 31.8841L75.8213 31.8839L75.8214 31.884L81.857 37.783L74.4325 42.9941Z"/>
</mask>
<path fill-rule="evenodd" clip-rule="evenodd" d="M74.4325 42.9941L74.4324 42.9943L74.4324 42.9942L74.4324 42.9942L74.4325 42.9934L74.6359 32.1873L75.8213 31.8841L75.8213 31.8839L75.8214 31.884L81.857 37.783L74.4325 42.9941Z" fill="url(#paint2_radial_6235_13400)"/>
<path d="M74.4324 42.9943L74.1325 42.9889L74.7301 43.0314L74.4324 42.9943ZM74.4325 42.9941L74.2601 42.7486L74.1512 42.825L74.1348 42.957L74.4325 42.9941ZM74.4324 42.9942L74.7324 42.9995L74.743 42.4082L74.2596 42.7489L74.4324 42.9942ZM74.4324 42.9942L74.1347 42.9569L74.0503 43.6305L74.6052 43.2394L74.4324 42.9942ZM74.4325 42.9934L74.7301 43.0307L74.7321 43.0149L74.7324 42.999L74.4325 42.9934ZM74.6359 32.1873L74.5615 31.8966L74.3402 31.9532L74.3359 32.1816L74.6359 32.1873ZM75.8213 31.8841L75.8956 32.1747L76.0941 32.124L76.119 31.9207L75.8213 31.8841ZM75.8213 31.8839L76.0443 31.6833L75.6039 31.1937L75.5235 31.8473L75.8213 31.8839ZM75.8214 31.884L75.5984 32.0847L75.6048 32.0918L75.6117 32.0986L75.8214 31.884ZM81.857 37.783L82.0294 38.0286L82.3251 37.821L82.0667 37.5685L81.857 37.783ZM74.7301 43.0314L74.7302 43.0313L74.1348 42.957L74.1347 42.9572L74.7301 43.0314ZM74.1325 42.9888L74.1325 42.9889L74.7324 42.9997L74.7324 42.9995L74.1325 42.9888ZM74.6052 43.2394L74.6053 43.2394L74.2596 42.7489L74.2595 42.749L74.6052 43.2394ZM74.1348 42.9561L74.1347 42.9569L74.73 43.0315L74.7301 43.0307L74.1348 42.9561ZM74.3359 32.1816L74.1325 42.9877L74.7324 42.999L74.9358 32.1929L74.3359 32.1816ZM75.747 31.5934L74.5615 31.8966L74.7102 32.4779L75.8956 32.1747L75.747 31.5934ZM75.5235 31.8473L75.5235 31.8475L76.119 31.9207L76.1191 31.9205L75.5235 31.8473ZM76.0444 31.6834L76.0443 31.6833L75.5983 32.0846L75.5984 32.0847L76.0444 31.6834ZM82.0667 37.5685L76.0311 31.6695L75.6117 32.0986L81.6473 37.9976L82.0667 37.5685ZM74.6048 43.2397L82.0294 38.0286L81.6847 37.5375L74.2601 42.7486L74.6048 43.2397Z" fill="url(#paint3_radial_6235_13400)" mask="url(#path-2-inside-1_6235_13400)"/>
<path d="M76.0458 31.8934L80.9802 27.8378L81.6785 37.3987L76.0458 31.8934Z" fill="url(#paint4_radial_6235_13400)" stroke="url(#paint5_radial_6235_13400)" stroke-width="0.3"/>
<path d="M81.9836 37.4621L81.2705 27.6993L91.8258 28.3845L81.9836 37.4621Z" fill="url(#paint6_radial_6235_13400)" stroke="url(#paint7_radial_6235_13400)" stroke-width="0.3"/>
<path d="M81.4399 27.4097L85.2054 23.4805L91.6673 28.0736L81.4399 27.4097Z" fill="url(#paint8_radial_6235_13400)" stroke="url(#paint9_radial_6235_13400)" stroke-width="0.3"/>
<path d="M85.6939 23.4594L94.9687 23.9396L92.1477 28.0468L85.6939 23.4594Z" fill="url(#paint10_radial_6235_13400)" stroke="url(#paint11_radial_6235_13400)" stroke-width="0.3"/>
<path d="M81.8665 37.9596L94.8025 45.0881L74.8437 42.8887L81.8665 37.9596Z" fill="url(#paint12_radial_6235_13400)" stroke="url(#paint13_radial_6235_13400)" stroke-width="0.3"/>
<path d="M82.1115 37.7524L92.0893 28.5497L95.3241 45.0333L82.1115 37.7524Z" fill="url(#paint14_radial_6235_13400)" stroke="url(#paint15_radial_6235_13400)" stroke-width="0.3"/>
<path d="M92.3443 28.2903L95.1003 24.2777L95.3611 43.6627L92.3443 28.2903Z" fill="url(#paint16_radial_6235_13400)" stroke="url(#paint17_radial_6235_13400)" stroke-width="0.3"/>
<g filter="url(#filter0_f_6235_13400)">
<path fill-rule="evenodd" clip-rule="evenodd" d="M66.086 67.0252C54.3307 26.3469 77.7773 -16.1589 118.456 -27.9142C159.134 -39.6696 201.64 -16.2229 213.395 24.4554C225.15 65.1337 201.704 107.64 161.025 119.395C120.347 131.15 77.8413 107.704 66.086 67.0252ZM119.23 -25.2359C80.0306 -13.908 57.4365 27.0522 68.7643 66.2512C80.0922 105.45 121.052 128.044 160.251 116.717C199.451 105.389 222.045 64.4285 210.717 25.2294C199.389 -13.9697 158.429 -36.5638 119.23 -25.2359Z" fill="url(#paint18_radial_6235_13400)"/>
</g>
<circle cx="139.741" cy="45.7403" r="73.8805" transform="rotate(163.882 139.741 45.7403)" fill="url(#paint19_radial_6235_13400)"/>
<path d="M135.85 3.88157L152.505 10.9901L153.905 13.4956L139.487 8.95931L123.115 1.57871L121.373 -0.449291L135.85 3.88157Z" fill="url(#paint20_radial_6235_13400)" stroke="url(#paint21_radial_6235_13400)" stroke-width="0.3"/>
<mask id="path-14-inside-2_6235_13400" fill="white">
<path fill-rule="evenodd" clip-rule="evenodd" d="M95.2117 11.382L95.2111 11.3822L95.2117 11.382L95.2114 11.3819L95.2136 11.3811L120.926 -0.739452L123.023 1.70168L123.024 1.70153L116.154 22.8093L95.2117 11.382Z"/>
</mask>
<path fill-rule="evenodd" clip-rule="evenodd" d="M95.2117 11.382L95.2111 11.3822L95.2117 11.382L95.2114 11.3819L95.2136 11.3811L120.926 -0.739452L123.023 1.70168L123.024 1.70153L116.154 22.8093L95.2117 11.382Z" fill="url(#paint22_radial_6235_13400)"/>
<path d="M95.2111 11.3822L95.0829 11.111L95.3095 11.6657L95.2111 11.3822ZM95.2117 11.382L95.3554 11.1187L95.2389 11.0551L95.1134 11.0986L95.2117 11.382ZM95.2117 11.382L95.3399 11.6532L95.875 11.4003L95.3546 11.1182L95.2117 11.382ZM95.2114 11.3819L95.1128 11.0985L94.4711 11.3219L95.0684 11.6456L95.2114 11.3819ZM95.2136 11.3811L95.3122 11.6644L95.3272 11.6592L95.3415 11.6524L95.2136 11.3811ZM120.926 -0.739452L121.154 -0.934937L121.005 -1.10822L120.798 -1.01081L120.926 -0.739452ZM123.023 1.70168L122.796 1.89717L122.929 2.05221L123.122 1.985L123.023 1.70168ZM123.024 1.70153L123.309 1.79437L123.496 1.2194L122.925 1.41821L123.024 1.70153ZM116.154 22.8093L116.011 23.0726L116.328 23.2457L116.44 22.9021L116.154 22.8093ZM95.3095 11.6657L95.3101 11.6655L95.1134 11.0986L95.1128 11.0988L95.3095 11.6657ZM95.0835 11.1108L95.0829 11.111L95.3393 11.6535L95.3399 11.6532L95.0835 11.1108ZM95.0684 11.6456L95.0687 11.6458L95.3546 11.1182L95.3543 11.1181L95.0684 11.6456ZM95.115 11.0977L95.1128 11.0985L95.31 11.6652L95.3122 11.6644L95.115 11.0977ZM120.798 -1.01081L95.0857 11.1097L95.3415 11.6524L121.054 -0.46809L120.798 -1.01081ZM123.251 1.5062L121.154 -0.934937L120.699 -0.543967L122.796 1.89717L123.251 1.5062ZM122.925 1.41821L122.925 1.41836L123.122 1.985L123.122 1.98485L122.925 1.41821ZM116.44 22.9021L123.309 1.79437L122.738 1.60869L115.869 22.7165L116.44 22.9021ZM95.068 11.6454L116.011 23.0726L116.298 22.5459L95.3554 11.1187L95.068 11.6454Z" fill="url(#paint23_radial_6235_13400)" mask="url(#path-14-inside-2_6235_13400)"/>
<path d="M123.115 1.90692L139.109 9.1171L116.42 22.4789L123.115 1.90692Z" fill="url(#paint24_radial_6235_13400)" stroke="url(#paint25_radial_6235_13400)" stroke-width="0.3"/>
<path d="M116.498 22.7802L139.361 9.31566L150.381 35.7848L116.498 22.7802Z" fill="url(#paint26_radial_6235_13400)" stroke="url(#paint27_radial_6235_13400)" stroke-width="0.3"/>
<path d="M139.695 9.3397L154.052 13.8564L150.589 35.5056L139.695 9.3397Z" fill="url(#paint28_radial_6235_13400)" stroke="url(#paint29_radial_6235_13400)" stroke-width="0.3"/>
<path d="M154.288 14.2847L164.477 37.8827L150.826 35.9239L154.288 14.2847Z" fill="url(#paint30_radial_6235_13400)" stroke="url(#paint31_radial_6235_13400)" stroke-width="0.3"/>
<path d="M116 22.8958L114.217 63.0814L95.4882 11.7035L116 22.8958Z" fill="url(#paint32_radial_6235_13400)" stroke="url(#paint33_radial_6235_13400)" stroke-width="0.3"/>
<path d="M116.294 23.0233L150.349 36.094L114.497 63.5245L116.294 23.0233Z" fill="url(#paint34_radial_6235_13400)" stroke="url(#paint35_radial_6235_13400)" stroke-width="0.3"/>
<path d="M150.695 36.2083L164.232 38.1508L115.742 62.9507L150.695 36.2083Z" fill="url(#paint36_radial_6235_13400)" stroke="url(#paint37_radial_6235_13400)" stroke-width="0.3"/>
<defs>
<filter id="filter0_f_6235_13400" x="47.0523" y="-46.9479" width="185.377" height="185.376" filterUnits="userSpaceOnUse" color-interpolation-filters="sRGB">
<feFlood flood-opacity="0" result="BackgroundImageFix"/>
<feBlend mode="normal" in="SourceGraphic" in2="BackgroundImageFix" result="shape"/>
<feGaussianBlur stdDeviation="8" result="effect1_foregroundBlur_6235_13400"/>
</filter>
<radialGradient id="paint0_radial_6235_13400" cx="0" cy="0" r="1" gradientUnits="userSpaceOnUse" gradientTransform="translate(76.3802 30.6091) rotate(-30.3591) scale(12.0724 48.8476)">
<stop stop-color="#89EABB"/>
<stop offset="0.421875" stop-color="#9084D7"/>
<stop offset="1" stop-color="#E059D3"/>
</radialGradient>
<radialGradient id="paint1_radial_6235_13400" cx="0" cy="0" r="1" gradientUnits="userSpaceOnUse" gradientTransform="translate(76.3802 30.6091) rotate(-30.3591) scale(12.0724 48.8476)">
<stop stop-color="#4BF2A2"/>
<stop offset="0.421875" stop-color="#564D8F"/>
<stop offset="1" stop-color="#DD40CD"/>
</radialGradient>
<radialGradient id="paint2_radial_6235_13400" cx="0" cy="0" r="1" gradientUnits="userSpaceOnUse" gradientTransform="translate(72.756 38.8351) rotate(20.2624) scale(16.5656 140.111)">
<stop stop-color="#81F0BB"/>
<stop offset="0.666667" stop-color="#AAA0E8"/>
<stop offset="1" stop-color="#EAAFFF"/>
</radialGradient>
<radialGradient id="paint3_radial_6235_13400" cx="0" cy="0" r="1" gradientUnits="userSpaceOnUse" gradientTransform="translate(72.5171 38.5696) rotate(21.7729) scale(17.4451 142.007)">
<stop stop-color="#4BF2A2"/>
<stop offset="0.421875" stop-color="#564D8F"/>
<stop offset="1" stop-color="#DD40CD"/>
</radialGradient>
<radialGradient id="paint4_radial_6235_13400" cx="0" cy="0" r="1" gradientUnits="userSpaceOnUse" gradientTransform="translate(81.1132 31.5329) rotate(101.239) scale(6.20936 4.71588)">
<stop stop-color="#8877F5"/>
<stop offset="1" stop-color="#7AECB5"/>
</radialGradient>
<radialGradient id="paint5_radial_6235_13400" cx="0" cy="0" r="1" gradientUnits="userSpaceOnUse" gradientTransform="translate(78.7732 33.4223) rotate(26.2394) scale(15.786 111.636)">
<stop stop-color="#4BF2A2"/>
<stop offset="0.421875" stop-color="#564D8F"/>
<stop offset="1" stop-color="#DD40CD"/>
</radialGradient>
<radialGradient id="paint6_radial_6235_13400" cx="0" cy="0" r="1" gradientUnits="userSpaceOnUse" gradientTransform="translate(80.2186 32.3808) rotate(7.58868) scale(18.5612 188.018)">
<stop stop-color="#81F0BB"/>
<stop offset="0.421875" stop-color="#AAA0E8"/>
<stop offset="1" stop-color="#DD40CD"/>
</radialGradient>
<radialGradient id="paint7_radial_6235_13400" cx="0" cy="0" r="1" gradientUnits="userSpaceOnUse" gradientTransform="translate(80.2186 32.3808) rotate(7.58868) scale(18.5612 188.018)">
<stop stop-color="#4BF2A2"/>
<stop offset="0.421875" stop-color="#564D8F"/>
<stop offset="1" stop-color="#DD40CD"/>
</radialGradient>
<radialGradient id="paint8_radial_6235_13400" cx="0" cy="0" r="1" gradientUnits="userSpaceOnUse" gradientTransform="translate(86.5129 26.4768) rotate(21.9886) scale(11.8725 9.82253)">
<stop stop-color="#8877F5"/>
<stop offset="1" stop-color="#7AECB5"/>
</radialGradient>
<radialGradient id="paint9_radial_6235_13400" cx="0" cy="0" r="1" gradientUnits="userSpaceOnUse" gradientTransform="translate(83.8741 28.6361) rotate(23.5296) scale(16.0248 124.068)">
<stop stop-color="#4BF2A2"/>
<stop offset="0.421875" stop-color="#564D8F"/>
<stop offset="1" stop-color="#DD40CD"/>
</radialGradient>
<radialGradient id="paint10_radial_6235_13400" cx="0" cy="0" r="1" gradientUnits="userSpaceOnUse" gradientTransform="translate(88.1648 24.7762) rotate(25.2961) scale(15.8103 115.616)">
<stop stop-color="#89EABB"/>
<stop offset="0.421875" stop-color="#9084D7"/>
<stop offset="1" stop-color="#E059D3"/>
</radialGradient>
<radialGradient id="paint11_radial_6235_13400" cx="0" cy="0" r="1" gradientUnits="userSpaceOnUse" gradientTransform="translate(88.1648 24.7762) rotate(25.2961) scale(15.8103 115.616)">
<stop stop-color="#4BF2A2"/>
<stop offset="0.421875" stop-color="#564D8F"/>
<stop offset="1" stop-color="#DD40CD"/>
</radialGradient>
<radialGradient id="paint12_radial_6235_13400" cx="0" cy="0" r="1" gradientUnits="userSpaceOnUse" gradientTransform="translate(80.1456 45.7429) rotate(24.3118) scale(30.1125 227.517)">
<stop stop-color="#81F0BB"/>
<stop offset="0.421875" stop-color="#AAA0E8"/>
<stop offset="1" stop-color="#DD40CD"/>
</radialGradient>
<radialGradient id="paint13_radial_6235_13400" cx="0" cy="0" r="1" gradientUnits="userSpaceOnUse" gradientTransform="translate(80.1456 45.7429) rotate(24.3118) scale(30.1125 227.517)">
<stop stop-color="#4BF2A2"/>
<stop offset="0.421875" stop-color="#564D8F"/>
<stop offset="1" stop-color="#DD40CD"/>
</radialGradient>
<radialGradient id="paint14_radial_6235_13400" cx="0" cy="0" r="1" gradientUnits="userSpaceOnUse" gradientTransform="translate(87.8308 36.6109) rotate(35.498) scale(9.32063 14.054)">
<stop stop-color="#81F0BB"/>
<stop offset="0.421875" stop-color="#4EAE9D"/>
<stop offset="0.760417" stop-color="#9D8FEC"/>
<stop offset="1" stop-color="#F2A6EB"/>
</radialGradient>
<radialGradient id="paint15_radial_6235_13400" cx="0" cy="0" r="1" gradientUnits="userSpaceOnUse" gradientTransform="translate(87.2157 40.1592) rotate(23.1591) scale(28.6293 224.128)">
<stop stop-color="#4BF2A2"/>
<stop offset="0.421875" stop-color="#564D8F"/>
<stop offset="1" stop-color="#DD40CD"/>
</radialGradient>
<radialGradient id="paint16_radial_6235_13400" cx="0" cy="0" r="1" gradientUnits="userSpaceOnUse" gradientTransform="translate(90.511 36.1231) rotate(24.7068) scale(30.6837 228.874)">
<stop stop-color="#89EABB"/>
<stop offset="0.421875" stop-color="#9084D7"/>
<stop offset="1" stop-color="#E059D3"/>
</radialGradient>
<radialGradient id="paint17_radial_6235_13400" cx="0" cy="0" r="1" gradientUnits="userSpaceOnUse" gradientTransform="translate(90.511 36.1231) rotate(24.7068) scale(30.6837 228.874)">
<stop stop-color="#4BF2A2"/>
<stop offset="0.421875" stop-color="#564D8F"/>
<stop offset="1" stop-color="#DD40CD"/>
</radialGradient>
<radialGradient id="paint18_radial_6235_13400" cx="0" cy="0" r="1" gradientUnits="userSpaceOnUse" gradientTransform="translate(106.707 44.404) rotate(-10.5997) scale(72.4739)">
<stop stop-color="white"/>
<stop offset="0.713542" stop-color="#4BF2A2"/>
<stop offset="0.976648" stop-color="#4BF2A2"/>
<stop offset="1" stop-color="white"/>
</radialGradient>
<radialGradient id="paint19_radial_6235_13400" cx="0" cy="0" r="1" gradientUnits="userSpaceOnUse" gradientTransform="translate(171.105 56.1951) rotate(-174.481) scale(72.4739)">
<stop stop-color="#43225E" stop-opacity="0.04"/>
<stop offset="0.713542" stop-color="#4BF2A2" stop-opacity="0.2"/>
<stop offset="1" stop-color="#4BF2A2" stop-opacity="0.42"/>
</radialGradient>
<radialGradient id="paint20_radial_6235_13400" cx="0" cy="0" r="1" gradientUnits="userSpaceOnUse" gradientTransform="translate(126.681 1.53269) rotate(33.3241) scale(31.7518 128.475)">
<stop stop-color="#89EABB"/>
<stop offset="0.421875" stop-color="#9084D7"/>
<stop offset="1" stop-color="#E059D3"/>
</radialGradient>
<radialGradient id="paint21_radial_6235_13400" cx="0" cy="0" r="1" gradientUnits="userSpaceOnUse" gradientTransform="translate(126.681 1.53269) rotate(33.3241) scale(31.7518 128.475)">
<stop stop-color="#4BF2A2"/>
<stop offset="0.421875" stop-color="#564D8F"/>
<stop offset="1" stop-color="#DD40CD"/>
</radialGradient>
<radialGradient id="paint22_radial_6235_13400" cx="0" cy="0" r="1" gradientUnits="userSpaceOnUse" gradientTransform="translate(103.062 2.58039) rotate(83.9456) scale(43.5694 368.509)">
<stop stop-color="#81F0BB"/>
<stop offset="0.666667" stop-color="#AAA0E8"/>
<stop offset="1" stop-color="#EAAFFF"/>
</radialGradient>
<radialGradient id="paint23_radial_6235_13400" cx="0" cy="0" r="1" gradientUnits="userSpaceOnUse" gradientTransform="translate(103.409 1.70752) rotate(85.4561) scale(45.8827 373.495)">
<stop stop-color="#4BF2A2"/>
<stop offset="0.421875" stop-color="#564D8F"/>
<stop offset="1" stop-color="#DD40CD"/>
</radialGradient>
<radialGradient id="paint24_radial_6235_13400" cx="0" cy="0" r="1" gradientUnits="userSpaceOnUse" gradientTransform="translate(130.022 13.7681) rotate(164.922) scale(16.3314 12.4033)">
<stop stop-color="#8877F5"/>
<stop offset="1" stop-color="#7AECB5"/>
</radialGradient>
<radialGradient id="paint25_radial_6235_13400" cx="0" cy="0" r="1" gradientUnits="userSpaceOnUse" gradientTransform="translate(122.839 10.4546) rotate(89.9226) scale(41.5191 293.615)">
<stop stop-color="#4BF2A2"/>
<stop offset="0.421875" stop-color="#564D8F"/>
<stop offset="1" stop-color="#DD40CD"/>
</radialGradient>
<radialGradient id="paint26_radial_6235_13400" cx="0" cy="0" r="1" gradientUnits="userSpaceOnUse" gradientTransform="translate(126.98 12.6476) rotate(71.2719) scale(48.8183 494.51)">
<stop stop-color="#81F0BB"/>
<stop offset="0.421875" stop-color="#AAA0E8"/>
<stop offset="1" stop-color="#DD40CD"/>
</radialGradient>
<radialGradient id="paint27_radial_6235_13400" cx="0" cy="0" r="1" gradientUnits="userSpaceOnUse" gradientTransform="translate(126.98 12.6476) rotate(71.2719) scale(48.8183 494.51)">
<stop stop-color="#4BF2A2"/>
<stop offset="0.421875" stop-color="#564D8F"/>
<stop offset="1" stop-color="#DD40CD"/>
</radialGradient>
<radialGradient id="paint28_radial_6235_13400" cx="0" cy="0" r="1" gradientUnits="userSpaceOnUse" gradientTransform="translate(148.237 20.6026) rotate(85.6718) scale(31.2262 25.8344)">
<stop stop-color="#8877F5"/>
<stop offset="1" stop-color="#7AECB5"/>
</radialGradient>
<radialGradient id="paint29_radial_6235_13400" cx="0" cy="0" r="1" gradientUnits="userSpaceOnUse" gradientTransform="translate(140.07 16.8994) rotate(87.2128) scale(42.1473 326.313)">
<stop stop-color="#4BF2A2"/>
<stop offset="0.421875" stop-color="#564D8F"/>
<stop offset="1" stop-color="#DD40CD"/>
</radialGradient>
<radialGradient id="paint30_radial_6235_13400" cx="0" cy="0" r="1" gradientUnits="userSpaceOnUse" gradientTransform="translate(154.173 22.5139) rotate(88.9793) scale(41.5829 304.083)">
<stop stop-color="#89EABB"/>
<stop offset="0.421875" stop-color="#9084D7"/>
<stop offset="1" stop-color="#E059D3"/>
</radialGradient>
<radialGradient id="paint31_radial_6235_13400" cx="0" cy="0" r="1" gradientUnits="userSpaceOnUse" gradientTransform="translate(154.173 22.5139) rotate(88.9793) scale(41.5829 304.083)">
<stop stop-color="#4BF2A2"/>
<stop offset="0.421875" stop-color="#564D8F"/>
<stop offset="1" stop-color="#DD40CD"/>
</radialGradient>
<radialGradient id="paint32_radial_6235_13400" cx="0" cy="0" r="1" gradientUnits="userSpaceOnUse" gradientTransform="translate(95.3932 28.0558) rotate(87.995) scale(79.1995 598.396)">
<stop stop-color="#81F0BB"/>
<stop offset="0.421875" stop-color="#AAA0E8"/>
<stop offset="1" stop-color="#DD40CD"/>
</radialGradient>
<radialGradient id="paint33_radial_6235_13400" cx="0" cy="0" r="1" gradientUnits="userSpaceOnUse" gradientTransform="translate(95.3932 28.0558) rotate(87.995) scale(79.1995 598.396)">
<stop stop-color="#4BF2A2"/>
<stop offset="0.421875" stop-color="#564D8F"/>
<stop offset="1" stop-color="#DD40CD"/>
</radialGradient>
<radialGradient id="paint34_radial_6235_13400" cx="0" cy="0" r="1" gradientUnits="userSpaceOnUse" gradientTransform="translate(125.883 35.5255) rotate(99.1812) scale(24.5144 36.9637)">
<stop stop-color="#81F0BB"/>
<stop offset="0.421875" stop-color="#4EAE9D"/>
<stop offset="0.760417" stop-color="#9D8FEC"/>
<stop offset="1" stop-color="#F2A6EB"/>
</radialGradient>
<radialGradient id="paint35_radial_6235_13400" cx="0" cy="0" r="1" gradientUnits="userSpaceOnUse" gradientTransform="translate(116.8 38.2131) rotate(86.8423) scale(75.2985 589.484)">
<stop stop-color="#4BF2A2"/>
<stop offset="0.421875" stop-color="#564D8F"/>
<stop offset="1" stop-color="#DD40CD"/>
</radialGradient>
<radialGradient id="paint36_radial_6235_13400" cx="0" cy="0" r="1" gradientUnits="userSpaceOnUse" gradientTransform="translate(130.158 41.276) rotate(88.39) scale(80.7017 601.967)">
<stop stop-color="#89EABB"/>
<stop offset="0.421875" stop-color="#9084D7"/>
<stop offset="1" stop-color="#E059D3"/>
</radialGradient>
<radialGradient id="paint37_radial_6235_13400" cx="0" cy="0" r="1" gradientUnits="userSpaceOnUse" gradientTransform="translate(130.158 41.276) rotate(88.39) scale(80.7017 601.967)">
<stop stop-color="#4BF2A2"/>
<stop offset="0.421875" stop-color="#564D8F"/>
<stop offset="1" stop-color="#DD40CD"/>
</radialGradient>
</defs>
</svg>
