<svg width="249" height="40" viewBox="0 0 249 40" fill="none" xmlns="http://www.w3.org/2000/svg">
<path d="M43.736 33.24C42.28 33.24 41.016 32.952 39.944 32.376C38.872 31.8 38.04 30.976 37.448 29.904C36.872 28.816 36.584 27.528 36.584 26.04V17.088C36.584 16.736 36.68 16.464 36.872 16.272C37.08 16.064 37.36 15.96 37.712 15.96C38.064 15.96 38.344 16.064 38.552 16.272C38.76 16.464 38.864 16.736 38.864 17.088V26.112C38.864 27.792 39.288 29.088 40.136 30C41 30.912 42.216 31.368 43.784 31.368C45.352 31.368 46.576 30.904 47.456 29.976C48.336 29.048 48.776 27.76 48.776 26.112V17.088C48.776 16.736 48.88 16.464 49.088 16.272C49.296 16.064 49.576 15.96 49.928 15.96C50.28 15.96 50.552 16.064 50.744 16.272C50.936 16.464 51.032 16.736 51.032 17.088V26.04C51.032 27.48 50.736 28.744 50.144 29.832C49.552 30.92 48.704 31.76 47.6 32.352C46.512 32.944 45.224 33.24 43.736 33.24ZM55.3604 33.24C55.0084 33.24 54.7284 33.144 54.5204 32.952C54.3284 32.744 54.2324 32.464 54.2324 32.112V22.584C54.2324 21.224 54.5204 20.048 55.0964 19.056C55.6724 18.064 56.4964 17.304 57.5684 16.776C58.6564 16.232 59.9364 15.96 61.4084 15.96C62.8804 15.96 64.1524 16.232 65.2244 16.776C66.3124 17.304 67.1444 18.064 67.7204 19.056C68.2964 20.048 68.5844 21.224 68.5844 22.584V32.112C68.5844 32.464 68.4804 32.744 68.2724 32.952C68.0804 33.144 67.8084 33.24 67.4564 33.24C67.1044 33.24 66.8244 33.144 66.6164 32.952C66.4084 32.744 66.3044 32.464 66.3044 32.112V22.512C66.3044 21.024 65.8724 19.872 65.0084 19.056C64.1604 18.24 62.9604 17.832 61.4084 17.832C59.8724 17.832 58.6724 18.248 57.8084 19.08C56.9444 19.896 56.5124 21.04 56.5124 22.512V32.112C56.5124 32.464 56.4084 32.744 56.2004 32.952C55.9924 33.144 55.7124 33.24 55.3604 33.24ZM73.7557 33.24C73.4197 33.24 73.1477 33.144 72.9397 32.952C72.7477 32.744 72.6517 32.464 72.6517 32.112V17.088C72.6517 16.736 72.7477 16.464 72.9397 16.272C73.1477 16.064 73.4197 15.96 73.7557 15.96C74.1077 15.96 74.3877 16.064 74.5957 16.272C74.8037 16.464 74.9077 16.736 74.9077 17.088V32.112C74.9077 32.464 74.8037 32.744 74.5957 32.952C74.3877 33.144 74.1077 33.24 73.7557 33.24ZM85.727 33.24C85.375 33.24 85.103 33.144 84.911 32.952C84.719 32.744 84.623 32.464 84.623 32.112V18.024H79.415C79.063 18.024 78.783 17.952 78.575 17.808C78.383 17.648 78.287 17.424 78.287 17.136C78.287 16.512 78.663 16.2 79.415 16.2H92.111C92.463 16.2 92.735 16.28 92.927 16.44C93.119 16.6 93.215 16.832 93.215 17.136C93.215 17.408 93.119 17.624 92.927 17.784C92.735 17.944 92.463 18.024 92.111 18.024H86.903V32.112C86.903 32.464 86.799 32.744 86.591 32.952C86.383 33.144 86.095 33.24 85.727 33.24ZM95.5563 33.24C95.2043 33.24 94.9243 33.144 94.7163 32.952C94.5243 32.744 94.4283 32.464 94.4283 32.112V23.064C94.4283 20.84 95.0603 19.104 96.3243 17.856C97.5883 16.592 99.3323 15.96 101.556 15.96C103.028 15.96 104.3 16.248 105.372 16.824C106.46 17.384 107.284 18.2 107.844 19.272C108.42 20.344 108.708 21.608 108.708 23.064V32.112C108.708 32.464 108.604 32.744 108.396 32.952C108.188 33.144 107.908 33.24 107.556 33.24C107.22 33.24 106.948 33.144 106.74 32.952C106.532 32.744 106.428 32.464 106.428 32.112V27.216H96.6843V32.112C96.6843 32.464 96.5803 32.744 96.3723 32.952C96.1803 33.144 95.9083 33.24 95.5563 33.24ZM106.428 25.392V22.992C106.428 21.328 106.012 20.056 105.18 19.176C104.348 18.28 103.14 17.832 101.556 17.832C99.9723 17.832 98.7643 18.272 97.9323 19.152C97.1003 20.016 96.6843 21.296 96.6843 22.992V25.392H106.428ZM113.161 33.24C112.809 33.24 112.529 33.144 112.321 32.952C112.129 32.744 112.033 32.464 112.033 32.112V19.296C112.033 18.336 112.321 17.584 112.897 17.04C113.473 16.48 114.273 16.2 115.297 16.2H119.353C121.689 16.2 123.449 16.688 124.633 17.664C125.817 18.64 126.409 20.088 126.409 22.008C126.409 23.832 125.809 25.232 124.609 26.208C123.425 27.168 121.713 27.648 119.473 27.648H114.289V32.112C114.289 32.464 114.185 32.744 113.977 32.952C113.785 33.144 113.513 33.24 113.161 33.24ZM119.473 25.824C120.961 25.824 122.105 25.528 122.905 24.936C123.705 24.328 124.105 23.352 124.105 22.008C124.105 20.616 123.713 19.608 122.929 18.984C122.145 18.344 120.993 18.024 119.473 18.024H115.489C115.121 18.024 114.825 18.144 114.601 18.384C114.393 18.624 114.289 18.944 114.289 19.344V25.824H119.473Z" fill="white"/>
<path d="M139.879 21.5078C140.699 21.5078 141.334 21.7832 141.783 22.334C142.236 22.8848 142.463 23.6973 142.463 24.7715C142.463 25.4902 142.355 26.0996 142.141 26.5996C141.926 27.0957 141.619 27.4727 141.221 27.7305C140.826 27.9883 140.352 28.1172 139.797 28.1172C139.414 28.1172 139.08 28.0605 138.795 27.9473C138.514 27.8301 138.279 27.6738 138.092 27.4785C137.904 27.2793 137.76 27.0605 137.658 26.8223H137.617C137.629 27.0449 137.639 27.2773 137.646 27.5195C137.654 27.7617 137.658 27.9902 137.658 28.2051V30.8184H137.061V21.6309H137.553L137.623 22.9023H137.658C137.764 22.6602 137.912 22.4316 138.104 22.2168C138.295 22.002 138.537 21.8301 138.83 21.7012C139.123 21.5723 139.473 21.5078 139.879 21.5078ZM139.803 22.0293C139.322 22.0293 138.922 22.1348 138.602 22.3457C138.285 22.5527 138.049 22.8574 137.893 23.2598C137.74 23.6582 137.662 24.1465 137.658 24.7246V24.8242C137.658 25.4453 137.734 25.9629 137.887 26.377C138.043 26.7871 138.275 27.0938 138.584 27.2969C138.896 27.5 139.283 27.6016 139.744 27.6016C140.197 27.6016 140.58 27.4902 140.893 27.2676C141.205 27.0449 141.443 26.7227 141.607 26.3008C141.771 25.8789 141.854 25.3672 141.854 24.7656C141.854 23.8711 141.682 23.1914 141.338 22.7266C140.998 22.2617 140.486 22.0293 139.803 22.0293ZM149.488 24.8066C149.488 25.2988 149.428 25.748 149.307 26.1543C149.186 26.5566 149.006 26.9043 148.768 27.1973C148.529 27.4902 148.232 27.7168 147.877 27.877C147.525 28.0371 147.115 28.1172 146.646 28.1172C146.201 28.1172 145.805 28.0391 145.457 27.8828C145.109 27.7227 144.814 27.4961 144.572 27.2031C144.334 26.9102 144.152 26.5625 144.027 26.1602C143.902 25.7539 143.84 25.3027 143.84 24.8066C143.84 24.123 143.953 23.5352 144.18 23.043C144.41 22.5469 144.738 22.168 145.164 21.9062C145.594 21.6406 146.107 21.5078 146.705 21.5078C147.322 21.5078 147.836 21.6484 148.246 21.9297C148.66 22.207 148.971 22.5938 149.178 23.0898C149.385 23.5859 149.488 24.1582 149.488 24.8066ZM144.449 24.8066C144.449 25.3652 144.529 25.8535 144.689 26.2715C144.85 26.6895 145.092 27.0156 145.416 27.25C145.744 27.4844 146.158 27.6016 146.658 27.6016C147.17 27.6016 147.59 27.4844 147.918 27.25C148.246 27.0156 148.488 26.6875 148.645 26.2656C148.801 25.8438 148.879 25.3574 148.879 24.8066C148.879 24.2715 148.805 23.7949 148.656 23.377C148.508 22.959 148.273 22.6309 147.953 22.3926C147.633 22.1504 147.215 22.0293 146.699 22.0293C145.961 22.0293 145.4 22.2754 145.018 22.7676C144.639 23.2598 144.449 23.9395 144.449 24.8066ZM156.338 28L154.984 23.7227C154.941 23.5938 154.902 23.4707 154.867 23.3535C154.832 23.2363 154.799 23.123 154.768 23.0137C154.736 22.9043 154.707 22.7988 154.68 22.6973C154.652 22.5918 154.625 22.4883 154.598 22.3867H154.568C154.541 22.4883 154.514 22.5918 154.486 22.6973C154.459 22.8027 154.43 22.9121 154.398 23.0254C154.367 23.1387 154.334 23.2539 154.299 23.3711C154.264 23.4883 154.225 23.6094 154.182 23.7344L152.781 28H152.172L150.361 21.6309H150.988L152.107 25.7031C152.174 25.9414 152.23 26.1543 152.277 26.3418C152.324 26.5293 152.365 26.6992 152.4 26.8516C152.436 27.0039 152.467 27.1484 152.494 27.2852H152.523C152.547 27.1875 152.572 27.0859 152.6 26.9805C152.627 26.8711 152.656 26.7539 152.688 26.6289C152.719 26.5039 152.756 26.3711 152.799 26.2305C152.842 26.0898 152.889 25.9375 152.939 25.7734L154.305 21.6309H154.891L156.203 25.7617C156.266 25.9609 156.322 26.1523 156.373 26.3359C156.428 26.5156 156.475 26.6836 156.514 26.8398C156.557 26.9961 156.592 27.1426 156.619 27.2793H156.654C156.67 27.1504 156.693 27.0098 156.725 26.8574C156.76 26.7012 156.801 26.5273 156.848 26.3359C156.898 26.1445 156.955 25.9336 157.018 25.7031L158.096 21.6309H158.693L156.965 28H156.338ZM162.332 21.5078C162.875 21.5078 163.326 21.6348 163.686 21.8887C164.049 22.1426 164.318 22.4902 164.494 22.9316C164.674 23.373 164.764 23.8789 164.764 24.4492V24.877H160.164C160.164 25.752 160.365 26.4238 160.768 26.8926C161.174 27.3613 161.754 27.5957 162.508 27.5957C162.902 27.5957 163.244 27.5645 163.533 27.502C163.826 27.4355 164.15 27.3242 164.506 27.168V27.7129C164.193 27.8535 163.881 27.9551 163.568 28.0176C163.256 28.084 162.896 28.1172 162.49 28.1172C161.846 28.1172 161.305 27.9844 160.867 27.7188C160.434 27.4492 160.105 27.0703 159.883 26.582C159.664 26.0938 159.555 25.5234 159.555 24.8711C159.555 24.2344 159.66 23.6621 159.871 23.1543C160.086 22.6465 160.398 22.2461 160.809 21.9531C161.223 21.6562 161.73 21.5078 162.332 21.5078ZM162.326 22.0176C161.717 22.0176 161.223 22.2207 160.844 22.627C160.469 23.0293 160.248 23.6113 160.182 24.373H164.148C164.148 23.9082 164.082 23.498 163.949 23.1426C163.816 22.7871 163.615 22.5117 163.346 22.3164C163.08 22.1172 162.74 22.0176 162.326 22.0176ZM169.053 21.5195C169.221 21.5195 169.379 21.5293 169.527 21.5488C169.676 21.5684 169.814 21.5957 169.943 21.6309L169.85 22.1758C169.721 22.1406 169.59 22.1152 169.457 22.0996C169.324 22.0801 169.182 22.0703 169.029 22.0703C168.729 22.0703 168.459 22.127 168.221 22.2402C167.986 22.3535 167.787 22.5156 167.623 22.7266C167.459 22.9375 167.334 23.1914 167.248 23.4883C167.162 23.7852 167.119 24.1172 167.119 24.4844V28H166.521V21.6309H167.031L167.09 22.832H167.125C167.223 22.5859 167.359 22.3652 167.535 22.1699C167.715 21.9707 167.932 21.8125 168.186 21.6953C168.439 21.5781 168.729 21.5195 169.053 21.5195ZM173.605 21.5078C174.148 21.5078 174.6 21.6348 174.959 21.8887C175.322 22.1426 175.592 22.4902 175.768 22.9316C175.947 23.373 176.037 23.8789 176.037 24.4492V24.877H171.438C171.438 25.752 171.639 26.4238 172.041 26.8926C172.447 27.3613 173.027 27.5957 173.781 27.5957C174.176 27.5957 174.518 27.5645 174.807 27.502C175.1 27.4355 175.424 27.3242 175.779 27.168V27.7129C175.467 27.8535 175.154 27.9551 174.842 28.0176C174.529 28.084 174.17 28.1172 173.764 28.1172C173.119 28.1172 172.578 27.9844 172.141 27.7188C171.707 27.4492 171.379 27.0703 171.156 26.582C170.938 26.0938 170.828 25.5234 170.828 24.8711C170.828 24.2344 170.934 23.6621 171.145 23.1543C171.359 22.6465 171.672 22.2461 172.082 21.9531C172.496 21.6562 173.004 21.5078 173.605 21.5078ZM173.6 22.0176C172.99 22.0176 172.496 22.2207 172.117 22.627C171.742 23.0293 171.521 23.6113 171.455 24.373H175.422C175.422 23.9082 175.355 23.498 175.223 23.1426C175.09 22.7871 174.889 22.5117 174.619 22.3164C174.354 22.1172 174.014 22.0176 173.6 22.0176ZM180.098 28.1172C179.227 28.1172 178.562 27.8438 178.105 27.2969C177.652 26.7461 177.426 25.9453 177.426 24.8945C177.426 23.793 177.666 22.9531 178.146 22.375C178.627 21.7969 179.297 21.5078 180.156 21.5078C180.523 21.5078 180.842 21.5645 181.111 21.6777C181.385 21.791 181.613 21.9453 181.797 22.1406C181.984 22.332 182.129 22.5508 182.23 22.7969H182.277C182.262 22.5898 182.25 22.3672 182.242 22.1289C182.234 21.8906 182.23 21.6719 182.23 21.4727V18.8828H182.822V28H182.342L182.266 26.834H182.23C182.125 27.0684 181.979 27.2832 181.791 27.4785C181.607 27.6738 181.377 27.8301 181.1 27.9473C180.822 28.0605 180.488 28.1172 180.098 28.1172ZM180.162 27.6016C180.912 27.6016 181.445 27.3691 181.762 26.9043C182.078 26.4355 182.236 25.7676 182.236 24.9004V24.8066C182.236 23.9082 182.078 23.2207 181.762 22.7441C181.445 22.2637 180.93 22.0234 180.215 22.0234C179.508 22.0234 178.967 22.2695 178.592 22.7617C178.221 23.2539 178.035 23.9688 178.035 24.9062C178.035 25.7891 178.209 26.459 178.557 26.916C178.908 27.373 179.443 27.6016 180.162 27.6016ZM188.641 18.8828V21.4727C188.641 21.6953 188.637 21.9395 188.629 22.2051C188.621 22.4707 188.613 22.6914 188.605 22.8672H188.641C188.793 22.4727 189.059 22.1465 189.438 21.8887C189.816 21.6309 190.289 21.502 190.855 21.502C191.684 21.502 192.322 21.7812 192.771 22.3398C193.225 22.8984 193.451 23.7168 193.451 24.7949C193.451 25.4551 193.35 26.0352 193.146 26.5352C192.943 27.0312 192.641 27.4199 192.238 27.7012C191.84 27.9785 191.34 28.1172 190.738 28.1172C190.195 28.1172 189.752 28.0039 189.408 27.7773C189.064 27.5469 188.814 27.2598 188.658 26.916H188.611L188.5 28H188.049V18.8828H188.641ZM190.791 22.0176C190.287 22.0176 189.877 22.127 189.561 22.3457C189.244 22.5605 189.012 22.875 188.863 23.2891C188.715 23.7031 188.641 24.209 188.641 24.8066V24.9004C188.641 25.7793 188.801 26.4492 189.121 26.9102C189.441 27.3711 189.961 27.6016 190.68 27.6016C191.391 27.6016 191.928 27.3594 192.291 26.875C192.658 26.3867 192.842 25.6934 192.842 24.7949C192.842 23.877 192.672 23.1855 192.332 22.7207C191.992 22.252 191.479 22.0176 190.791 22.0176ZM194.154 21.6309H194.781L196.328 25.6738C196.422 25.9121 196.504 26.1328 196.574 26.3359C196.648 26.5352 196.713 26.7188 196.768 26.8867C196.822 27.0508 196.867 27.2012 196.902 27.3379H196.938C196.996 27.1582 197.074 26.9277 197.172 26.6465C197.27 26.3613 197.381 26.0449 197.506 25.6973L199.035 21.6309H199.668L196.762 29.1953C196.621 29.5625 196.467 29.873 196.299 30.127C196.131 30.3848 195.934 30.5781 195.707 30.707C195.48 30.8398 195.207 30.9062 194.887 30.9062C194.742 30.9062 194.611 30.8945 194.494 30.8711C194.377 30.8516 194.264 30.8242 194.154 30.7891V30.2793C194.256 30.3105 194.359 30.3359 194.465 30.3555C194.574 30.3789 194.693 30.3906 194.822 30.3906C195.045 30.3906 195.236 30.3438 195.396 30.25C195.561 30.1602 195.707 30.0195 195.836 29.8281C195.965 29.6367 196.086 29.3926 196.199 29.0957L196.633 27.9648L194.154 21.6309ZM203.951 19.4336H206.371C207.508 19.4336 208.33 19.6035 208.838 19.9434C209.346 20.2832 209.6 20.8203 209.6 21.5547C209.6 22.0625 209.457 22.4824 209.172 22.8145C208.891 23.1426 208.479 23.3555 207.936 23.4531V23.5117C209.236 23.7344 209.887 24.418 209.887 25.5625C209.887 26.3281 209.627 26.9258 209.107 27.3555C208.592 27.7852 207.869 28 206.939 28H203.951V19.4336ZM204.947 23.1016H206.588C207.291 23.1016 207.797 22.9922 208.105 22.7734C208.414 22.5508 208.568 22.1777 208.568 21.6543C208.568 21.1738 208.396 20.8281 208.053 20.6172C207.709 20.4023 207.162 20.2949 206.412 20.2949H204.947V23.1016ZM204.947 23.9453V27.1504H206.734C207.426 27.1504 207.945 27.0176 208.293 26.752C208.645 26.4824 208.82 26.0625 208.82 25.4922C208.82 24.9609 208.641 24.5703 208.281 24.3203C207.926 24.0703 207.383 23.9453 206.652 23.9453H204.947ZM214.516 21.4609C214.801 21.4609 215.057 21.4844 215.283 21.5312L215.148 22.4336C214.883 22.375 214.648 22.3457 214.445 22.3457C213.926 22.3457 213.48 22.5566 213.109 22.9785C212.742 23.4004 212.559 23.9258 212.559 24.5547V28H211.586V21.5781H212.389L212.5 22.7676H212.547C212.785 22.3496 213.072 22.0273 213.408 21.8008C213.744 21.5742 214.113 21.4609 214.516 21.4609ZM217.457 28H216.484V21.5781H217.457V28ZM216.402 19.8379C216.402 19.6152 216.457 19.4531 216.566 19.3516C216.676 19.2461 216.812 19.1934 216.977 19.1934C217.133 19.1934 217.268 19.2461 217.381 19.3516C217.494 19.457 217.551 19.6191 217.551 19.8379C217.551 20.0566 217.494 20.2207 217.381 20.3301C217.268 20.4355 217.133 20.4883 216.977 20.4883C216.812 20.4883 216.676 20.4355 216.566 20.3301C216.457 20.2207 216.402 20.0566 216.402 19.8379ZM224.775 21.5781V22.1934L223.586 22.334C223.695 22.4707 223.793 22.6504 223.879 22.873C223.965 23.0918 224.008 23.3398 224.008 23.6172C224.008 24.2461 223.793 24.748 223.363 25.123C222.934 25.498 222.344 25.6855 221.594 25.6855C221.402 25.6855 221.223 25.6699 221.055 25.6387C220.641 25.8574 220.434 26.1328 220.434 26.4648C220.434 26.6406 220.506 26.7715 220.65 26.8574C220.795 26.9395 221.043 26.9805 221.395 26.9805H222.531C223.227 26.9805 223.76 27.127 224.131 27.4199C224.506 27.7129 224.693 28.1387 224.693 28.6973C224.693 29.4082 224.408 29.9492 223.838 30.3203C223.268 30.6953 222.436 30.8828 221.342 30.8828C220.502 30.8828 219.854 30.7266 219.396 30.4141C218.943 30.1016 218.717 29.6602 218.717 29.0898C218.717 28.6992 218.842 28.3613 219.092 28.0762C219.342 27.791 219.693 27.5977 220.146 27.4961C219.982 27.4219 219.844 27.3066 219.73 27.1504C219.621 26.9941 219.566 26.8125 219.566 26.6055C219.566 26.3711 219.629 26.166 219.754 25.9902C219.879 25.8145 220.076 25.6445 220.346 25.4805C220.014 25.3438 219.742 25.1113 219.531 24.7832C219.324 24.4551 219.221 24.0801 219.221 23.6582C219.221 22.9551 219.432 22.4141 219.854 22.0352C220.275 21.6523 220.873 21.4609 221.646 21.4609C221.982 21.4609 222.285 21.5 222.555 21.5781H224.775ZM219.654 29.0781C219.654 29.4258 219.801 29.6895 220.094 29.8691C220.387 30.0488 220.807 30.1387 221.354 30.1387C222.17 30.1387 222.773 30.0156 223.164 29.7695C223.559 29.5273 223.756 29.1973 223.756 28.7793C223.756 28.4316 223.648 28.1895 223.434 28.0527C223.219 27.9199 222.814 27.8535 222.221 27.8535H221.055C220.613 27.8535 220.27 27.959 220.023 28.1699C219.777 28.3809 219.654 28.6836 219.654 29.0781ZM220.182 23.6348C220.182 24.084 220.309 24.4238 220.562 24.6543C220.816 24.8848 221.17 25 221.623 25C222.572 25 223.047 24.5391 223.047 23.6172C223.047 22.6523 222.566 22.1699 221.605 22.1699C221.148 22.1699 220.797 22.293 220.551 22.5391C220.305 22.7852 220.182 23.1504 220.182 23.6348ZM230.488 28V23.8457C230.488 23.3223 230.369 22.9316 230.131 22.6738C229.893 22.416 229.52 22.2871 229.012 22.2871C228.336 22.2871 227.842 22.4707 227.529 22.8379C227.221 23.2051 227.066 23.8066 227.066 24.6426V28H226.094V18.8828H227.066V21.6426C227.066 21.9746 227.051 22.25 227.02 22.4688H227.078C227.27 22.1602 227.541 21.918 227.893 21.7422C228.248 21.5625 228.652 21.4727 229.105 21.4727C229.891 21.4727 230.479 21.6602 230.869 22.0352C231.264 22.4062 231.461 22.998 231.461 23.8105V28H230.488ZM235.539 27.3145C235.711 27.3145 235.877 27.3027 236.037 27.2793C236.197 27.252 236.324 27.2246 236.418 27.1973V27.9414C236.312 27.9922 236.156 28.0332 235.949 28.0645C235.746 28.0996 235.562 28.1172 235.398 28.1172C234.156 28.1172 233.535 27.4629 233.535 26.1543V22.334H232.615V21.8652L233.535 21.4609L233.945 20.0898H234.508V21.5781H236.371V22.334H234.508V26.1133C234.508 26.5 234.6 26.7969 234.783 27.0039C234.967 27.2109 235.219 27.3145 235.539 27.3145ZM237.854 28V19.4336H238.85V28H237.854ZM248.043 23.6348C248.043 25.0488 247.658 26.1309 246.889 26.8809C246.123 27.627 245.02 28 243.578 28H241.205V19.4336H243.83C245.162 19.4336 246.197 19.8027 246.936 20.541C247.674 21.2793 248.043 22.3105 248.043 23.6348ZM246.988 23.6699C246.988 22.5527 246.707 21.7109 246.145 21.1445C245.586 20.5781 244.754 20.2949 243.648 20.2949H242.201V27.1387H243.414C244.602 27.1387 245.494 26.8477 246.092 26.2656C246.689 25.6797 246.988 24.8145 246.988 23.6699Z" fill="#FAD7CA"/>
<path d="M26.604 23.1927C26.7234 23.7358 26.8193 24.2815 26.8865 24.8317C26.9959 25.6932 27.0263 26.5629 26.9773 27.43C26.8298 29.8893 26.0271 32.138 24.6373 34.1716C22.8607 36.77 20.4474 38.5155 17.4421 39.4353C16.1512 39.8299 14.8232 40.0535 13.9356 39.989C10.1928 39.991 7.26827 38.9247 4.80432 36.864C4.53239 36.6366 4.26598 36.3972 4.00509 36.1458C3.28592 35.4515 2.65398 34.6727 2.12314 33.8265C1.55009 32.9097 1.08063 31.9324 0.723339 30.9126C0.0304644 28.9635 -0.14012 26.9568 0.107228 24.9232C0.373139 22.7345 1.03139 20.6523 1.95205 18.6422C2.67948 17.0537 3.60884 15.5891 4.53891 14.1234C4.81419 13.6895 5.08954 13.2556 5.35973 12.8184C6.70082 10.6487 8.03389 8.47048 9.27715 6.24427C9.36512 6.08622 9.45159 5.92751 9.53654 5.76812C9.86316 5.15793 10.1692 4.53673 10.4702 3.91203C10.633 3.57304 10.7938 3.23291 10.9546 2.89275C11.1934 2.38776 11.4322 1.88271 11.6774 1.38123C11.6947 1.34576 11.7117 1.31014 11.7287 1.27454C11.7727 1.18211 11.8168 1.08979 11.866 1.00061C12.2293 0.350401 12.7746 -0.0117146 13.5337 0.000289218C14.2928 0.012293 14.8422 0.387413 15.1739 1.05062C15.3627 1.42647 15.5339 1.8126 15.705 2.19867C15.8213 2.46097 15.9376 2.72324 16.0594 2.98224C16.3277 3.54908 16.6034 4.1116 16.8867 4.66977C16.9229 4.74029 16.9418 4.81838 16.9418 4.89759C16.9418 4.97681 16.9229 5.05489 16.8867 5.12542L15.3816 8.03384C15.3604 8.07581 15.3278 8.11098 15.2874 8.13532C15.2471 8.15966 15.2007 8.17218 15.1536 8.17145C15.1065 8.17072 15.0605 8.15677 15.021 8.13119C14.9814 8.10561 14.9499 8.06945 14.93 8.02684C14.3781 6.87697 13.9406 5.96618 13.8829 5.85165C13.8188 5.71599 13.7477 5.58377 13.6697 5.45552C13.5588 5.28297 13.4409 5.28747 13.3215 5.45802C13.289 5.50589 13.26 5.55604 13.2347 5.60807L13.2222 5.63358C13.1118 5.85698 13.0001 6.07972 12.887 6.30179C11.1686 9.67986 9.16928 12.8939 7.09367 16.0654C5.50723 18.4872 4.17918 21.0185 3.54752 23.8734C3.13711 25.729 3.0478 27.569 3.61525 29.4051C3.97097 30.5565 4.46115 31.5973 5.09582 32.5156C5.92772 33.7216 7.02627 34.7211 8.30683 35.437C8.55735 35.5788 8.81741 35.7121 9.087 35.8372C11.9067 37.1451 14.7865 37.1611 17.6463 35.9607C19.7129 35.0919 21.3034 33.651 22.4072 31.6939C22.9495 30.7316 23.7984 28.4928 23.8817 25.6419C23.8835 25.5668 23.9024 25.4931 23.9369 25.4264L25.8103 21.8062C25.8337 21.761 25.8704 21.7239 25.9156 21.7C25.9607 21.6761 26.012 21.6665 26.0627 21.6725C26.1135 21.6785 26.1612 21.6997 26.1994 21.7335C26.2377 21.7672 26.2647 21.8118 26.2769 21.8612C26.4144 22.4169 26.5915 23.1351 26.604 23.1927Z" fill="white"/>
<path d="M25.5977 19.9825C25.5931 20.0507 25.5741 20.1173 25.5419 20.1777C25.1385 20.9611 24.7711 21.6553 24.4396 22.2817C24.2136 22.7087 24.0042 23.1043 23.8115 23.4752C23.7883 23.5202 23.752 23.5571 23.7074 23.5811C23.6627 23.6051 23.6119 23.6151 23.5614 23.6096C23.511 23.6042 23.4634 23.5837 23.4249 23.5508C23.3865 23.5179 23.3589 23.4741 23.3459 23.4252C23.1723 22.766 23.0298 22.2839 22.9661 22.0928C22.9023 21.9017 22.8366 21.7167 22.8366 21.7167C22.795 21.6001 22.7518 21.4836 22.7077 21.3666C22.6958 21.3346 22.6837 21.3032 22.6714 21.2711C22.665 21.2544 22.6585 21.2376 22.652 21.2205C22.5128 20.8617 22.3638 20.5056 22.205 20.1522L22.1889 20.1167L22.1859 20.1102C22.0548 19.8208 21.9176 19.5348 21.7745 19.2524C20.8528 17.5134 20.7365 18.0309 20.527 18.9627C20.4845 19.1514 20.4383 19.3571 20.3807 19.5645V19.5695C20.0762 21.0285 19.3256 23.1821 18.0066 25.5509C16.4896 28.2753 14.5344 30.7329 12.2187 32.8257C12.1023 32.9218 11.9541 32.9712 11.8031 32.9641C11.6521 32.9569 11.5092 32.8939 11.4024 32.7872L9.12613 30.518C9.07126 30.4633 9.02823 30.398 8.99971 30.3261C8.97119 30.2542 8.95778 30.1773 8.96032 30.1C8.96286 30.0227 8.98129 29.9468 9.01448 29.8769C9.04766 29.807 9.09488 29.7447 9.15322 29.6937C9.19437 29.6587 19.8981 18.2251 16.4076 10.6087C16.3534 10.4726 16.1893 10.135 15.952 9.68236C15.943 9.66686 15.934 9.65135 15.9254 9.63535C15.8841 9.56301 15.8615 9.48153 15.8598 9.39829C15.858 9.31506 15.8771 9.2327 15.9154 9.1587L17.3468 6.39232C17.3678 6.35182 17.3994 6.31781 17.4384 6.29394C17.4773 6.27008 17.522 6.25727 17.5678 6.25691C17.6135 6.25655 17.6584 6.26865 17.6977 6.2919C17.737 6.31514 17.7692 6.34866 17.7908 6.38882C17.948 6.67924 18.1072 6.9685 18.2685 7.25659C19.0838 8.71556 19.9437 10.1495 20.8343 11.5665C21.168 12.0973 21.5077 12.6247 21.8475 13.1521C22.6327 14.3707 23.418 15.5895 24.1285 16.8521C24.9253 18.2686 25.3151 19.1314 25.5685 19.7816C25.5923 19.8457 25.6023 19.9142 25.5977 19.9825Z" fill="white"/>
</svg>
