<svg width="175" height="40" viewBox="0 0 175 40" fill="none" xmlns="http://www.w3.org/2000/svg">
<path d="M43.736 33.24C42.28 33.24 41.016 32.952 39.944 32.376C38.872 31.8 38.04 30.976 37.448 29.904C36.872 28.816 36.584 27.528 36.584 26.04V17.088C36.584 16.736 36.68 16.464 36.872 16.272C37.08 16.064 37.36 15.96 37.712 15.96C38.064 15.96 38.344 16.064 38.552 16.272C38.76 16.464 38.864 16.736 38.864 17.088V26.112C38.864 27.792 39.288 29.088 40.136 30C41 30.912 42.216 31.368 43.784 31.368C45.352 31.368 46.576 30.904 47.456 29.976C48.336 29.048 48.776 27.76 48.776 26.112V17.088C48.776 16.736 48.88 16.464 49.088 16.272C49.296 16.064 49.576 15.96 49.928 15.96C50.28 15.96 50.552 16.064 50.744 16.272C50.936 16.464 51.032 16.736 51.032 17.088V26.04C51.032 27.48 50.736 28.744 50.144 29.832C49.552 30.92 48.704 31.76 47.6 32.352C46.512 32.944 45.224 33.24 43.736 33.24ZM55.3604 33.24C55.0084 33.24 54.7284 33.144 54.5204 32.952C54.3284 32.744 54.2324 32.464 54.2324 32.112V22.584C54.2324 21.224 54.5204 20.048 55.0964 19.056C55.6724 18.064 56.4964 17.304 57.5684 16.776C58.6564 16.232 59.9364 15.96 61.4084 15.96C62.8804 15.96 64.1524 16.232 65.2244 16.776C66.3124 17.304 67.1444 18.064 67.7204 19.056C68.2964 20.048 68.5844 21.224 68.5844 22.584V32.112C68.5844 32.464 68.4804 32.744 68.2724 32.952C68.0804 33.144 67.8084 33.24 67.4564 33.24C67.1044 33.24 66.8244 33.144 66.6164 32.952C66.4084 32.744 66.3044 32.464 66.3044 32.112V22.512C66.3044 21.024 65.8724 19.872 65.0084 19.056C64.1604 18.24 62.9604 17.832 61.4084 17.832C59.8724 17.832 58.6724 18.248 57.8084 19.08C56.9444 19.896 56.5124 21.04 56.5124 22.512V32.112C56.5124 32.464 56.4084 32.744 56.2004 32.952C55.9924 33.144 55.7124 33.24 55.3604 33.24ZM73.7557 33.24C73.4197 33.24 73.1477 33.144 72.9397 32.952C72.7477 32.744 72.6517 32.464 72.6517 32.112V17.088C72.6517 16.736 72.7477 16.464 72.9397 16.272C73.1477 16.064 73.4197 15.96 73.7557 15.96C74.1077 15.96 74.3877 16.064 74.5957 16.272C74.8037 16.464 74.9077 16.736 74.9077 17.088V32.112C74.9077 32.464 74.8037 32.744 74.5957 32.952C74.3877 33.144 74.1077 33.24 73.7557 33.24ZM85.727 33.24C85.375 33.24 85.103 33.144 84.911 32.952C84.719 32.744 84.623 32.464 84.623 32.112V18.024H79.415C79.063 18.024 78.783 17.952 78.575 17.808C78.383 17.648 78.287 17.424 78.287 17.136C78.287 16.512 78.663 16.2 79.415 16.2H92.111C92.463 16.2 92.735 16.28 92.927 16.44C93.119 16.6 93.215 16.832 93.215 17.136C93.215 17.408 93.119 17.624 92.927 17.784C92.735 17.944 92.463 18.024 92.111 18.024H86.903V32.112C86.903 32.464 86.799 32.744 86.591 32.952C86.383 33.144 86.095 33.24 85.727 33.24ZM95.5563 33.24C95.2043 33.24 94.9243 33.144 94.7163 32.952C94.5243 32.744 94.4283 32.464 94.4283 32.112V23.064C94.4283 20.84 95.0603 19.104 96.3243 17.856C97.5883 16.592 99.3323 15.96 101.556 15.96C103.028 15.96 104.3 16.248 105.372 16.824C106.46 17.384 107.284 18.2 107.844 19.272C108.42 20.344 108.708 21.608 108.708 23.064V32.112C108.708 32.464 108.604 32.744 108.396 32.952C108.188 33.144 107.908 33.24 107.556 33.24C107.22 33.24 106.948 33.144 106.74 32.952C106.532 32.744 106.428 32.464 106.428 32.112V27.216H96.6843V32.112C96.6843 32.464 96.5803 32.744 96.3723 32.952C96.1803 33.144 95.9083 33.24 95.5563 33.24ZM106.428 25.392V22.992C106.428 21.328 106.012 20.056 105.18 19.176C104.348 18.28 103.14 17.832 101.556 17.832C99.9723 17.832 98.7643 18.272 97.9323 19.152C97.1003 20.016 96.6843 21.296 96.6843 22.992V25.392H106.428ZM113.161 33.24C112.809 33.24 112.529 33.144 112.321 32.952C112.129 32.744 112.033 32.464 112.033 32.112V19.296C112.033 18.336 112.321 17.584 112.897 17.04C113.473 16.48 114.273 16.2 115.297 16.2H119.353C121.689 16.2 123.449 16.688 124.633 17.664C125.817 18.64 126.409 20.088 126.409 22.008C126.409 23.832 125.809 25.232 124.609 26.208C123.425 27.168 121.713 27.648 119.473 27.648H114.289V32.112C114.289 32.464 114.185 32.744 113.977 32.952C113.785 33.144 113.513 33.24 113.161 33.24ZM119.473 25.824C120.961 25.824 122.105 25.528 122.905 24.936C123.705 24.328 124.105 23.352 124.105 22.008C124.105 20.616 123.713 19.608 122.929 18.984C122.145 18.344 120.993 18.024 119.473 18.024H115.489C115.121 18.024 114.825 18.144 114.601 18.384C114.393 18.624 114.289 18.944 114.289 19.344V25.824H119.473Z" fill="white"/>
<path d="M26.604 23.1927C26.7234 23.7358 26.8193 24.2815 26.8865 24.8317C26.9959 25.6932 27.0263 26.5629 26.9773 27.43C26.8298 29.8893 26.0271 32.138 24.6373 34.1716C22.8607 36.77 20.4474 38.5155 17.4421 39.4353C16.1512 39.8299 14.8232 40.0535 13.9356 39.989C10.1928 39.991 7.26827 38.9247 4.80432 36.864C4.53239 36.6366 4.26598 36.3972 4.00509 36.1458C3.28592 35.4515 2.65398 34.6727 2.12314 33.8265C1.55009 32.9097 1.08063 31.9324 0.723339 30.9126C0.0304644 28.9635 -0.14012 26.9568 0.107228 24.9232C0.373139 22.7345 1.03139 20.6523 1.95205 18.6422C2.67948 17.0537 3.60884 15.5891 4.53891 14.1234C4.81419 13.6895 5.08954 13.2556 5.35973 12.8184C6.70082 10.6487 8.03389 8.47048 9.27715 6.24427C9.36512 6.08622 9.45159 5.92751 9.53654 5.76812C9.86316 5.15793 10.1692 4.53673 10.4702 3.91203C10.633 3.57304 10.7938 3.23291 10.9546 2.89275C11.1934 2.38776 11.4322 1.88271 11.6774 1.38123C11.6947 1.34576 11.7117 1.31014 11.7287 1.27454C11.7727 1.18211 11.8168 1.08979 11.866 1.00061C12.2293 0.350401 12.7746 -0.0117146 13.5337 0.000289218C14.2928 0.012293 14.8422 0.387413 15.1739 1.05062C15.3627 1.42647 15.5339 1.8126 15.705 2.19867C15.8213 2.46097 15.9376 2.72324 16.0594 2.98224C16.3277 3.54908 16.6034 4.1116 16.8867 4.66977C16.9229 4.74029 16.9418 4.81838 16.9418 4.89759C16.9418 4.97681 16.9229 5.05489 16.8867 5.12542L15.3816 8.03384C15.3604 8.07581 15.3278 8.11098 15.2874 8.13532C15.2471 8.15966 15.2007 8.17218 15.1536 8.17145C15.1065 8.17072 15.0605 8.15677 15.021 8.13119C14.9814 8.10561 14.9499 8.06945 14.93 8.02684C14.3781 6.87697 13.9406 5.96618 13.8829 5.85165C13.8188 5.71599 13.7477 5.58377 13.6697 5.45552C13.5588 5.28297 13.4409 5.28747 13.3215 5.45802C13.289 5.50589 13.26 5.55604 13.2347 5.60807L13.2222 5.63358C13.1118 5.85698 13.0001 6.07972 12.887 6.30179C11.1686 9.67986 9.16928 12.8939 7.09367 16.0654C5.50723 18.4872 4.17918 21.0185 3.54752 23.8734C3.13711 25.729 3.0478 27.569 3.61525 29.4051C3.97097 30.5565 4.46115 31.5973 5.09582 32.5156C5.92772 33.7216 7.02627 34.7211 8.30683 35.437C8.55735 35.5788 8.81741 35.7121 9.087 35.8372C11.9067 37.1451 14.7865 37.1611 17.6463 35.9607C19.7129 35.0919 21.3034 33.651 22.4072 31.6939C22.9495 30.7316 23.7984 28.4928 23.8817 25.6419C23.8835 25.5668 23.9024 25.4931 23.9369 25.4264L25.8103 21.8062C25.8337 21.761 25.8704 21.7239 25.9156 21.7C25.9607 21.6761 26.012 21.6665 26.0627 21.6725C26.1135 21.6785 26.1612 21.6997 26.1994 21.7335C26.2377 21.7672 26.2647 21.8118 26.2769 21.8612C26.4144 22.4169 26.5915 23.1351 26.604 23.1927Z" fill="white"/>
<path d="M25.5977 19.9825C25.5931 20.0507 25.5741 20.1173 25.5419 20.1777C25.1385 20.9611 24.7711 21.6553 24.4396 22.2817C24.2136 22.7087 24.0042 23.1043 23.8115 23.4752C23.7883 23.5202 23.752 23.5571 23.7074 23.5811C23.6627 23.6051 23.6119 23.6151 23.5614 23.6096C23.511 23.6042 23.4634 23.5837 23.4249 23.5508C23.3865 23.5179 23.3589 23.4741 23.3459 23.4252C23.1723 22.766 23.0298 22.2839 22.9661 22.0928C22.9023 21.9017 22.8366 21.7167 22.8366 21.7167C22.795 21.6001 22.7518 21.4836 22.7077 21.3666C22.6958 21.3346 22.6837 21.3031 22.6714 21.2711C22.665 21.2544 22.6585 21.2376 22.652 21.2205C22.5128 20.8617 22.3638 20.5056 22.205 20.1522L22.1889 20.1167L22.1859 20.1102C22.0548 19.8208 21.9176 19.5348 21.7745 19.2524C20.8529 17.5134 20.7365 18.0309 20.527 18.9627C20.4845 19.1514 20.4383 19.3571 20.3807 19.5645V19.5695C20.0762 21.0285 19.3256 23.1821 18.0066 25.5509C16.4896 28.2753 14.5344 30.7329 12.2187 32.8257C12.1023 32.9218 11.9541 32.9712 11.8031 32.9641C11.6521 32.9569 11.5092 32.8939 11.4024 32.7872L9.12613 30.518C9.07126 30.4633 9.02823 30.398 8.99971 30.3261C8.97119 30.2542 8.95778 30.1773 8.96032 30.1C8.96286 30.0227 8.98129 29.9468 9.01448 29.8769C9.04766 29.807 9.09488 29.7447 9.15322 29.6937C9.19437 29.6587 19.8981 18.2251 16.4076 10.6087C16.3534 10.4726 16.1893 10.135 15.952 9.68236C15.943 9.66686 15.934 9.65135 15.9254 9.63535C15.8841 9.56301 15.8615 9.48153 15.8598 9.39829C15.858 9.31506 15.8771 9.2327 15.9154 9.1587L17.3468 6.39232C17.3678 6.35182 17.3994 6.31781 17.4384 6.29394C17.4773 6.27008 17.522 6.25727 17.5678 6.25691C17.6135 6.25655 17.6584 6.26865 17.6977 6.2919C17.737 6.31514 17.7692 6.34866 17.7908 6.38882C17.948 6.67924 18.1072 6.9685 18.2685 7.25659C19.0838 8.71556 19.9437 10.1495 20.8343 11.5665C21.168 12.0973 21.5077 12.6247 21.8475 13.1521C22.6327 14.3707 23.418 15.5895 24.1285 16.8521C24.9253 18.2686 25.3151 19.1314 25.5685 19.7816C25.5923 19.8457 25.6023 19.9142 25.5977 19.9825Z" fill="white"/>
<path d="M135.232 31V19.32H138.816C139.947 19.32 140.843 19.592 141.504 20.136C142.165 20.6693 142.496 21.4 142.496 22.328C142.496 22.8507 142.379 23.304 142.144 23.688C141.909 24.072 141.589 24.3707 141.184 24.584C140.789 24.7973 140.331 24.904 139.808 24.904V24.84C140.373 24.8293 140.875 24.936 141.312 25.16C141.76 25.3733 142.112 25.6933 142.368 26.12C142.635 26.5467 142.768 27.064 142.768 27.672C142.768 28.344 142.613 28.9307 142.304 29.432C141.995 29.9333 141.557 30.3227 140.992 30.6C140.437 30.8667 139.771 31 138.992 31H135.232ZM137.184 29.336H138.864C139.451 29.336 139.909 29.1813 140.24 28.872C140.581 28.552 140.752 28.12 140.752 27.576C140.752 27.032 140.581 26.5947 140.24 26.264C139.909 25.9227 139.451 25.752 138.864 25.752H137.184V29.336ZM137.184 24.136H138.784C139.317 24.136 139.733 23.9973 140.032 23.72C140.341 23.432 140.496 23.0427 140.496 22.552C140.496 22.0613 140.341 21.6773 140.032 21.4C139.733 21.1227 139.317 20.984 138.784 20.984H137.184V24.136ZM148.41 31.16C147.663 31.16 147.012 31.016 146.458 30.728C145.903 30.44 145.471 30.04 145.162 29.528C144.863 29.0053 144.714 28.3973 144.714 27.704V25.496C144.714 24.8027 144.863 24.2 145.162 23.688C145.471 23.1653 145.903 22.76 146.458 22.472C147.012 22.184 147.663 22.04 148.41 22.04C149.146 22.04 149.786 22.184 150.33 22.472C150.884 22.76 151.311 23.1653 151.61 23.688C151.919 24.2 152.074 24.8027 152.074 25.496V27.08H146.65V27.704C146.65 28.3227 146.799 28.792 147.098 29.112C147.396 29.4213 147.839 29.576 148.426 29.576C148.874 29.576 149.236 29.5013 149.514 29.352C149.791 29.192 149.967 28.9627 150.042 28.664H152.01C151.86 29.4213 151.455 30.0293 150.794 30.488C150.143 30.936 149.348 31.16 148.41 31.16ZM150.138 25.96V25.48C150.138 24.872 149.994 24.408 149.706 24.088C149.418 23.7573 148.986 23.592 148.41 23.592C147.834 23.592 147.396 23.7573 147.098 24.088C146.799 24.4187 146.65 24.888 146.65 25.496V25.832L150.282 25.8L150.138 25.96ZM158.948 31C158.105 31 157.444 30.7653 156.964 30.296C156.494 29.8267 156.26 29.1813 156.26 28.36V24.008H153.876V22.2H156.26V19.72H158.276V22.2H161.652V24.008H158.276V28.36C158.276 28.9147 158.548 29.192 159.092 29.192H161.492V31H158.948ZM166.605 31.16C165.699 31.16 164.984 30.92 164.461 30.44C163.939 29.96 163.677 29.3147 163.677 28.504C163.677 27.64 163.965 26.9733 164.541 26.504C165.117 26.0347 165.933 25.8 166.989 25.8H169.181V25.048C169.181 24.6213 169.043 24.2907 168.765 24.056C168.488 23.8107 168.109 23.688 167.629 23.688C167.192 23.688 166.829 23.784 166.541 23.976C166.253 24.168 166.083 24.4293 166.029 24.76H164.077C164.173 23.928 164.547 23.2667 165.197 22.776C165.848 22.2853 166.68 22.04 167.693 22.04C168.771 22.04 169.619 22.312 170.237 22.856C170.867 23.3893 171.181 24.1147 171.181 25.032V31H169.245V29.464H168.925L169.245 29.032C169.245 29.6827 169.005 30.2 168.525 30.584C168.045 30.968 167.405 31.16 166.605 31.16ZM167.261 29.656C167.827 29.656 168.285 29.512 168.637 29.224C169 28.936 169.181 28.5627 169.181 28.104V27.032H167.021C166.616 27.032 166.291 27.1493 166.045 27.384C165.8 27.6187 165.677 27.928 165.677 28.312C165.677 28.728 165.816 29.0587 166.093 29.304C166.381 29.5387 166.771 29.656 167.261 29.656Z" fill="#4CE6A1"/>
</svg>
