<svg width="25" height="25" viewBox="0 0 25 25" fill="none" xmlns="http://www.w3.org/2000/svg">
    <g clip-path="url(#clip0_54_1667)">
        <mask id="mask0_54_1667" style="mask-type:luminance" maskUnits="userSpaceOnUse" x="0" y="0" width="25" height="25">
            <path d="M25 12.5C25 5.59644 19.4036 0 12.5 0C5.59644 0 0 5.59644 0 12.5C0 19.4036 5.59644 25 12.5 25C19.4036 25 25 19.4036 25 12.5Z"
                  fill="white" />
        </mask>
        <g mask="url(#mask0_54_1667)">
            <path d="M19.4999 14.1987C19.5637 14.4888 19.6149 14.7804 19.6508 15.0744C19.7093 15.5347 19.7255 15.9994 19.6993 16.4627C19.6205 17.7767 19.1916 18.9782 18.4491 20.0648C17.4998 21.453 16.2104 22.3858 14.6046 22.8772C13.9148 23.0881 13.2053 23.2075 12.7311 23.173C10.7312 23.1741 9.16864 22.6043 7.85219 21.5033C7.70691 21.3818 7.56451 21.2539 7.42508 21.1196C7.04086 20.7486 6.70318 20.3325 6.41962 19.8804C6.11342 19.3905 5.86259 18.8684 5.67163 18.3234C5.30142 17.282 5.21026 16.2099 5.34249 15.1232C5.48451 13.9539 5.83629 12.8413 6.32818 11.7673C6.71681 10.9185 7.21339 10.136 7.71036 9.35286C7.85747 9.12102 8.00457 8.88919 8.14889 8.65553C8.86551 7.49625 9.57771 6.33247 10.242 5.14297C10.2891 5.05852 10.3352 4.9737 10.3806 4.88858C10.5551 4.56251 10.7187 4.23069 10.8795 3.89685C10.9664 3.71578 11.0524 3.53403 11.1383 3.35228C11.2659 3.08245 11.3934 2.81257 11.5245 2.54464C11.5337 2.52569 11.5428 2.50665 11.5519 2.48763C11.5754 2.43824 11.599 2.38892 11.6253 2.34126C11.8194 1.99386 12.1107 1.80038 12.5163 1.8068C12.922 1.81321 13.2155 2.01363 13.3926 2.36799C13.4936 2.56881 13.585 2.77512 13.6765 2.9814C13.7386 3.1215 13.8008 3.2617 13.8658 3.40007C14.0092 3.70292 14.1565 4.00346 14.3079 4.3017C14.3272 4.33941 14.3373 4.38115 14.3373 4.42347C14.3373 4.46579 14.3272 4.50753 14.3079 4.54514L13.5037 6.09919C13.4923 6.12155 13.4749 6.14036 13.4534 6.15341C13.4318 6.16636 13.407 6.17308 13.3818 6.1727C13.3567 6.17231 13.3321 6.16483 13.311 6.1512C13.2899 6.13748 13.273 6.11819 13.2624 6.09545C12.9675 5.48103 12.7338 4.99442 12.7029 4.9332C12.6686 4.86075 12.6306 4.79013 12.589 4.72152C12.5298 4.6294 12.4667 4.63179 12.4029 4.72286C12.3856 4.74848 12.3701 4.77525 12.3566 4.80308L12.3499 4.81671C12.2908 4.93608 12.2312 5.05507 12.1708 5.17377C11.2527 6.97865 10.1844 8.69593 9.07537 10.3905C8.22777 11.6845 7.51816 13.0369 7.18067 14.5624C6.96131 15.5538 6.91362 16.537 7.21685 17.518C7.40685 18.1332 7.66881 18.6893 8.00793 19.18C8.45241 19.8243 9.03939 20.3583 9.72357 20.7409C9.85743 20.8166 9.99638 20.8878 10.1404 20.9547C11.647 21.6535 13.1858 21.662 14.7137 21.0206C15.8179 20.5565 16.6677 19.7866 17.2575 18.7409C17.5473 18.2267 18.0009 17.0306 18.0453 15.5073C18.0463 15.4671 18.0564 15.4278 18.0748 15.3921L19.0758 13.4579C19.0883 13.4337 19.1079 13.4138 19.132 13.4011C19.1561 13.3883 19.1835 13.3832 19.2107 13.3864C19.2378 13.3895 19.2633 13.401 19.2837 13.419C19.3042 13.437 19.3186 13.4608 19.3251 13.4872C19.3986 13.7841 19.4932 14.1679 19.4999 14.1987Z"
                  fill="white" />
            <path d="M18.9638 12.483C18.9614 12.5195 18.9512 12.5551 18.934 12.5874C18.7184 13.0059 18.5222 13.3768 18.345 13.7115C18.2242 13.9397 18.1124 14.151 18.0094 14.3492C17.997 14.3732 17.9776 14.393 17.9538 14.4059C17.9299 14.4186 17.9028 14.424 17.8758 14.421C17.8488 14.4181 17.8234 14.4072 17.8029 14.3896C17.7823 14.372 17.7676 14.3487 17.7607 14.3226C17.6679 13.9703 17.5918 13.7127 17.5577 13.6107C17.5236 13.5086 17.4885 13.4096 17.4885 13.4096C17.4663 13.3473 17.4432 13.2851 17.4196 13.2226C17.4133 13.2055 17.4069 13.1887 17.4002 13.1715C17.3968 13.1626 17.3934 13.1537 17.3899 13.1446C17.3155 12.9529 17.236 12.7626 17.151 12.5737L17.1425 12.5547L17.1409 12.5513C17.0708 12.3966 16.9975 12.2438 16.921 12.093C16.4286 11.1638 16.3664 11.4404 16.2545 11.9382C16.2318 12.039 16.2071 12.1489 16.1764 12.2598V12.2624C16.0136 13.0419 15.6126 14.1926 14.9078 15.4583C14.0973 16.9139 13.0526 18.227 11.8154 19.3452C11.7532 19.3967 11.6739 19.423 11.5933 19.4192C11.5126 19.4154 11.4362 19.3817 11.3792 19.3247L10.1629 18.1123C10.1336 18.083 10.1107 18.0482 10.0954 18.0098C10.0801 17.9713 10.073 17.9302 10.0744 17.8889C10.0757 17.8476 10.0855 17.807 10.1033 17.7697C10.121 17.7324 10.1463 17.6991 10.1774 17.6718C10.1994 17.6531 15.9184 11.5441 14.0535 7.47459C14.0245 7.40185 13.9369 7.22145 13.81 6.97963C13.8052 6.97138 13.8004 6.96303 13.7958 6.95449C13.7738 6.91582 13.7617 6.87235 13.7608 6.82783C13.7599 6.7834 13.77 6.73935 13.7905 6.69982L14.5553 5.22177C14.5665 5.20008 14.5834 5.18195 14.6042 5.16919C14.625 5.15642 14.6489 5.14961 14.6734 5.14942C14.6978 5.14923 14.7217 5.15566 14.7428 5.16803C14.7638 5.18051 14.781 5.19845 14.7926 5.21985C14.8765 5.37502 14.9616 5.52961 15.0477 5.68352C15.4834 6.46309 15.9428 7.22922 16.4187 7.98634C16.597 8.26999 16.7785 8.55172 16.9601 8.83355C17.3796 9.48463 17.7992 10.1358 18.1788 10.8105C18.6045 11.5673 18.8128 12.0283 18.9482 12.3757C18.9609 12.41 18.9663 12.4466 18.9638 12.483Z"
                  fill="white" />
        </g>
    </g>
    <defs>
        <clipPath id="clip0_54_1667">
            <rect width="25" height="25" fill="white" />
        </clipPath>
    </defs>
</svg>