<svg width="145" height="24" viewBox="0 0 145 24" fill="none" xmlns="http://www.w3.org/2000/svg">
<path d="M35.8789 10.5078C36.6992 10.5078 37.334 10.7832 37.7832 11.334C38.2363 11.8848 38.4629 12.6973 38.4629 13.7715C38.4629 14.4902 38.3555 15.0996 38.1406 15.5996C37.9258 16.0957 37.6191 16.4727 37.2207 16.7305C36.8262 16.9883 36.3516 17.1172 35.7969 17.1172C35.4141 17.1172 35.0801 17.0605 34.7949 16.9473C34.5137 16.8301 34.2793 16.6738 34.0918 16.4785C33.9043 16.2793 33.7598 16.0605 33.6582 15.8223H33.6172C33.6289 16.0449 33.6387 16.2773 33.6465 16.5195C33.6543 16.7617 33.6582 16.9902 33.6582 17.2051V19.8184H33.0605V10.6309H33.5527L33.623 11.9023H33.6582C33.7637 11.6602 33.9121 11.4316 34.1035 11.2168C34.2949 11.002 34.5371 10.8301 34.8301 10.7012C35.123 10.5723 35.4727 10.5078 35.8789 10.5078ZM35.8027 11.0293C35.3223 11.0293 34.9219 11.1348 34.6016 11.3457C34.2852 11.5527 34.0488 11.8574 33.8926 12.2598C33.7402 12.6582 33.6621 13.1465 33.6582 13.7246V13.8242C33.6582 14.4453 33.7344 14.9629 33.8867 15.377C34.043 15.7871 34.2754 16.0938 34.584 16.2969C34.8965 16.5 35.2832 16.6016 35.7441 16.6016C36.1973 16.6016 36.5801 16.4902 36.8926 16.2676C37.2051 16.0449 37.4434 15.7227 37.6074 15.3008C37.7715 14.8789 37.8535 14.3672 37.8535 13.7656C37.8535 12.8711 37.6816 12.1914 37.3379 11.7266C36.998 11.2617 36.4863 11.0293 35.8027 11.0293ZM45.4883 13.8066C45.4883 14.2988 45.4277 14.748 45.3066 15.1543C45.1855 15.5566 45.0059 15.9043 44.7676 16.1973C44.5293 16.4902 44.2324 16.7168 43.877 16.877C43.5254 17.0371 43.1152 17.1172 42.6465 17.1172C42.2012 17.1172 41.8047 17.0391 41.457 16.8828C41.1094 16.7227 40.8145 16.4961 40.5723 16.2031C40.334 15.9102 40.1523 15.5625 40.0273 15.1602C39.9023 14.7539 39.8398 14.3027 39.8398 13.8066C39.8398 13.123 39.9531 12.5352 40.1797 12.043C40.4102 11.5469 40.7383 11.168 41.1641 10.9062C41.5938 10.6406 42.1074 10.5078 42.7051 10.5078C43.3223 10.5078 43.8359 10.6484 44.2461 10.9297C44.6602 11.207 44.9707 11.5938 45.1777 12.0898C45.3848 12.5859 45.4883 13.1582 45.4883 13.8066ZM40.4492 13.8066C40.4492 14.3652 40.5293 14.8535 40.6895 15.2715C40.8496 15.6895 41.0918 16.0156 41.416 16.25C41.7441 16.4844 42.1582 16.6016 42.6582 16.6016C43.1699 16.6016 43.5898 16.4844 43.918 16.25C44.2461 16.0156 44.4883 15.6875 44.6445 15.2656C44.8008 14.8438 44.8789 14.3574 44.8789 13.8066C44.8789 13.2715 44.8047 12.7949 44.6562 12.377C44.5078 11.959 44.2734 11.6309 43.9531 11.3926C43.6328 11.1504 43.2148 11.0293 42.6992 11.0293C41.9609 11.0293 41.4004 11.2754 41.0176 11.7676C40.6387 12.2598 40.4492 12.9395 40.4492 13.8066ZM52.3379 17L50.9844 12.7227C50.9414 12.5938 50.9023 12.4707 50.8672 12.3535C50.832 12.2363 50.7988 12.123 50.7676 12.0137C50.7363 11.9043 50.707 11.7988 50.6797 11.6973C50.6523 11.5918 50.625 11.4883 50.5977 11.3867H50.5684C50.541 11.4883 50.5137 11.5918 50.4863 11.6973C50.459 11.8027 50.4297 11.9121 50.3984 12.0254C50.3672 12.1387 50.334 12.2539 50.2988 12.3711C50.2637 12.4883 50.2246 12.6094 50.1816 12.7344L48.7812 17H48.1719L46.3613 10.6309H46.9883L48.1074 14.7031C48.1738 14.9414 48.2305 15.1543 48.2773 15.3418C48.3242 15.5293 48.3652 15.6992 48.4004 15.8516C48.4355 16.0039 48.4668 16.1484 48.4941 16.2852H48.5234C48.5469 16.1875 48.5723 16.0859 48.5996 15.9805C48.627 15.8711 48.6562 15.7539 48.6875 15.6289C48.7188 15.5039 48.7559 15.3711 48.7988 15.2305C48.8418 15.0898 48.8887 14.9375 48.9395 14.7734L50.3047 10.6309H50.8906L52.2031 14.7617C52.2656 14.9609 52.3223 15.1523 52.373 15.3359C52.4277 15.5156 52.4746 15.6836 52.5137 15.8398C52.5566 15.9961 52.5918 16.1426 52.6191 16.2793H52.6543C52.6699 16.1504 52.6934 16.0098 52.7246 15.8574C52.7598 15.7012 52.8008 15.5273 52.8477 15.3359C52.8984 15.1445 52.9551 14.9336 53.0176 14.7031L54.0957 10.6309H54.6934L52.9648 17H52.3379ZM58.332 10.5078C58.875 10.5078 59.3262 10.6348 59.6855 10.8887C60.0488 11.1426 60.3184 11.4902 60.4941 11.9316C60.6738 12.373 60.7637 12.8789 60.7637 13.4492V13.877H56.1641C56.1641 14.752 56.3652 15.4238 56.7676 15.8926C57.1738 16.3613 57.7539 16.5957 58.5078 16.5957C58.9023 16.5957 59.2441 16.5645 59.5332 16.502C59.8262 16.4355 60.1504 16.3242 60.5059 16.168V16.7129C60.1934 16.8535 59.8809 16.9551 59.5684 17.0176C59.2559 17.084 58.8965 17.1172 58.4902 17.1172C57.8457 17.1172 57.3047 16.9844 56.8672 16.7188C56.4336 16.4492 56.1055 16.0703 55.8828 15.582C55.6641 15.0938 55.5547 14.5234 55.5547 13.8711C55.5547 13.2344 55.6602 12.6621 55.8711 12.1543C56.0859 11.6465 56.3984 11.2461 56.8086 10.9531C57.2227 10.6562 57.7305 10.5078 58.332 10.5078ZM58.3262 11.0176C57.7168 11.0176 57.2227 11.2207 56.8438 11.627C56.4688 12.0293 56.248 12.6113 56.1816 13.373H60.1484C60.1484 12.9082 60.082 12.498 59.9492 12.1426C59.8164 11.7871 59.6152 11.5117 59.3457 11.3164C59.0801 11.1172 58.7402 11.0176 58.3262 11.0176ZM65.0527 10.5195C65.2207 10.5195 65.3789 10.5293 65.5273 10.5488C65.6758 10.5684 65.8145 10.5957 65.9434 10.6309L65.8496 11.1758C65.7207 11.1406 65.5898 11.1152 65.457 11.0996C65.3242 11.0801 65.1816 11.0703 65.0293 11.0703C64.7285 11.0703 64.459 11.127 64.2207 11.2402C63.9863 11.3535 63.7871 11.5156 63.623 11.7266C63.459 11.9375 63.334 12.1914 63.248 12.4883C63.1621 12.7852 63.1191 13.1172 63.1191 13.4844V17H62.5215V10.6309H63.0312L63.0898 11.832H63.125C63.2227 11.5859 63.3594 11.3652 63.5352 11.1699C63.7148 10.9707 63.9316 10.8125 64.1855 10.6953C64.4395 10.5781 64.7285 10.5195 65.0527 10.5195ZM69.6055 10.5078C70.1484 10.5078 70.5996 10.6348 70.959 10.8887C71.3223 11.1426 71.5918 11.4902 71.7676 11.9316C71.9473 12.373 72.0371 12.8789 72.0371 13.4492V13.877H67.4375C67.4375 14.752 67.6387 15.4238 68.041 15.8926C68.4473 16.3613 69.0273 16.5957 69.7812 16.5957C70.1758 16.5957 70.5176 16.5645 70.8066 16.502C71.0996 16.4355 71.4238 16.3242 71.7793 16.168V16.7129C71.4668 16.8535 71.1543 16.9551 70.8418 17.0176C70.5293 17.084 70.1699 17.1172 69.7637 17.1172C69.1191 17.1172 68.5781 16.9844 68.1406 16.7188C67.707 16.4492 67.3789 16.0703 67.1562 15.582C66.9375 15.0938 66.8281 14.5234 66.8281 13.8711C66.8281 13.2344 66.9336 12.6621 67.1445 12.1543C67.3594 11.6465 67.6719 11.2461 68.082 10.9531C68.4961 10.6562 69.0039 10.5078 69.6055 10.5078ZM69.5996 11.0176C68.9902 11.0176 68.4961 11.2207 68.1172 11.627C67.7422 12.0293 67.5215 12.6113 67.4551 13.373H71.4219C71.4219 12.9082 71.3555 12.498 71.2227 12.1426C71.0898 11.7871 70.8887 11.5117 70.6191 11.3164C70.3535 11.1172 70.0137 11.0176 69.5996 11.0176ZM76.0977 17.1172C75.2266 17.1172 74.5625 16.8438 74.1055 16.2969C73.6523 15.7461 73.4258 14.9453 73.4258 13.8945C73.4258 12.793 73.666 11.9531 74.1465 11.375C74.627 10.7969 75.2969 10.5078 76.1562 10.5078C76.5234 10.5078 76.8418 10.5645 77.1113 10.6777C77.3848 10.791 77.6133 10.9453 77.7969 11.1406C77.9844 11.332 78.1289 11.5508 78.2305 11.7969H78.2773C78.2617 11.5898 78.25 11.3672 78.2422 11.1289C78.2344 10.8906 78.2305 10.6719 78.2305 10.4727V7.88281H78.8223V17H78.3418L78.2656 15.834H78.2305C78.125 16.0684 77.9785 16.2832 77.791 16.4785C77.6074 16.6738 77.377 16.8301 77.0996 16.9473C76.8223 17.0605 76.4883 17.1172 76.0977 17.1172ZM76.1621 16.6016C76.9121 16.6016 77.4453 16.3691 77.7617 15.9043C78.0781 15.4355 78.2363 14.7676 78.2363 13.9004V13.8066C78.2363 12.9082 78.0781 12.2207 77.7617 11.7441C77.4453 11.2637 76.9297 11.0234 76.2148 11.0234C75.5078 11.0234 74.9668 11.2695 74.5918 11.7617C74.2207 12.2539 74.0352 12.9688 74.0352 13.9062C74.0352 14.7891 74.209 15.459 74.5566 15.916C74.9082 16.373 75.4434 16.6016 76.1621 16.6016ZM84.6406 7.88281V10.4727C84.6406 10.6953 84.6367 10.9395 84.6289 11.2051C84.6211 11.4707 84.6133 11.6914 84.6055 11.8672H84.6406C84.793 11.4727 85.0586 11.1465 85.4375 10.8887C85.8164 10.6309 86.2891 10.502 86.8555 10.502C87.6836 10.502 88.3223 10.7812 88.7715 11.3398C89.2246 11.8984 89.4512 12.7168 89.4512 13.7949C89.4512 14.4551 89.3496 15.0352 89.1465 15.5352C88.9434 16.0312 88.6406 16.4199 88.2383 16.7012C87.8398 16.9785 87.3398 17.1172 86.7383 17.1172C86.1953 17.1172 85.752 17.0039 85.4082 16.7773C85.0645 16.5469 84.8145 16.2598 84.6582 15.916H84.6113L84.5 17H84.0488V7.88281H84.6406ZM86.791 11.0176C86.2871 11.0176 85.877 11.127 85.5605 11.3457C85.2441 11.5605 85.0117 11.875 84.8633 12.2891C84.7148 12.7031 84.6406 13.209 84.6406 13.8066V13.9004C84.6406 14.7793 84.8008 15.4492 85.1211 15.9102C85.4414 16.3711 85.9609 16.6016 86.6797 16.6016C87.3906 16.6016 87.9277 16.3594 88.291 15.875C88.6582 15.3867 88.8418 14.6934 88.8418 13.7949C88.8418 12.877 88.6719 12.1855 88.332 11.7207C87.9922 11.252 87.4785 11.0176 86.791 11.0176ZM90.1543 10.6309H90.7812L92.3281 14.6738C92.4219 14.9121 92.5039 15.1328 92.5742 15.3359C92.6484 15.5352 92.7129 15.7188 92.7676 15.8867C92.8223 16.0508 92.8672 16.2012 92.9023 16.3379H92.9375C92.9961 16.1582 93.0742 15.9277 93.1719 15.6465C93.2695 15.3613 93.3809 15.0449 93.5059 14.6973L95.0352 10.6309H95.668L92.7617 18.1953C92.6211 18.5625 92.4668 18.873 92.2988 19.127C92.1309 19.3848 91.9336 19.5781 91.707 19.707C91.4805 19.8398 91.207 19.9062 90.8867 19.9062C90.7422 19.9062 90.6113 19.8945 90.4941 19.8711C90.377 19.8516 90.2637 19.8242 90.1543 19.7891V19.2793C90.2559 19.3105 90.3594 19.3359 90.4648 19.3555C90.5742 19.3789 90.6934 19.3906 90.8223 19.3906C91.0449 19.3906 91.2363 19.3438 91.3965 19.25C91.5605 19.1602 91.707 19.0195 91.8359 18.8281C91.9648 18.6367 92.0859 18.3926 92.1992 18.0957L92.6328 16.9648L90.1543 10.6309ZM99.9512 8.43359H102.371C103.508 8.43359 104.33 8.60352 104.838 8.94336C105.346 9.2832 105.6 9.82031 105.6 10.5547C105.6 11.0625 105.457 11.4824 105.172 11.8145C104.891 12.1426 104.479 12.3555 103.936 12.4531V12.5117C105.236 12.7344 105.887 13.418 105.887 14.5625C105.887 15.3281 105.627 15.9258 105.107 16.3555C104.592 16.7852 103.869 17 102.939 17H99.9512V8.43359ZM100.947 12.1016H102.588C103.291 12.1016 103.797 11.9922 104.105 11.7734C104.414 11.5508 104.568 11.1777 104.568 10.6543C104.568 10.1738 104.396 9.82812 104.053 9.61719C103.709 9.40234 103.162 9.29492 102.412 9.29492H100.947V12.1016ZM100.947 12.9453V16.1504H102.734C103.426 16.1504 103.945 16.0176 104.293 15.752C104.645 15.4824 104.82 15.0625 104.82 14.4922C104.82 13.9609 104.641 13.5703 104.281 13.3203C103.926 13.0703 103.383 12.9453 102.652 12.9453H100.947ZM110.516 10.4609C110.801 10.4609 111.057 10.4844 111.283 10.5312L111.148 11.4336C110.883 11.375 110.648 11.3457 110.445 11.3457C109.926 11.3457 109.48 11.5566 109.109 11.9785C108.742 12.4004 108.559 12.9258 108.559 13.5547V17H107.586V10.5781H108.389L108.5 11.7676H108.547C108.785 11.3496 109.072 11.0273 109.408 10.8008C109.744 10.5742 110.113 10.4609 110.516 10.4609ZM113.457 17H112.484V10.5781H113.457V17ZM112.402 8.83789C112.402 8.61523 112.457 8.45312 112.566 8.35156C112.676 8.24609 112.812 8.19336 112.977 8.19336C113.133 8.19336 113.268 8.24609 113.381 8.35156C113.494 8.45703 113.551 8.61914 113.551 8.83789C113.551 9.05664 113.494 9.2207 113.381 9.33008C113.268 9.43555 113.133 9.48828 112.977 9.48828C112.812 9.48828 112.676 9.43555 112.566 9.33008C112.457 9.2207 112.402 9.05664 112.402 8.83789ZM120.775 10.5781V11.1934L119.586 11.334C119.695 11.4707 119.793 11.6504 119.879 11.873C119.965 12.0918 120.008 12.3398 120.008 12.6172C120.008 13.2461 119.793 13.748 119.363 14.123C118.934 14.498 118.344 14.6855 117.594 14.6855C117.402 14.6855 117.223 14.6699 117.055 14.6387C116.641 14.8574 116.434 15.1328 116.434 15.4648C116.434 15.6406 116.506 15.7715 116.65 15.8574C116.795 15.9395 117.043 15.9805 117.395 15.9805H118.531C119.227 15.9805 119.76 16.127 120.131 16.4199C120.506 16.7129 120.693 17.1387 120.693 17.6973C120.693 18.4082 120.408 18.9492 119.838 19.3203C119.268 19.6953 118.436 19.8828 117.342 19.8828C116.502 19.8828 115.854 19.7266 115.396 19.4141C114.943 19.1016 114.717 18.6602 114.717 18.0898C114.717 17.6992 114.842 17.3613 115.092 17.0762C115.342 16.791 115.693 16.5977 116.146 16.4961C115.982 16.4219 115.844 16.3066 115.73 16.1504C115.621 15.9941 115.566 15.8125 115.566 15.6055C115.566 15.3711 115.629 15.166 115.754 14.9902C115.879 14.8145 116.076 14.6445 116.346 14.4805C116.014 14.3438 115.742 14.1113 115.531 13.7832C115.324 13.4551 115.221 13.0801 115.221 12.6582C115.221 11.9551 115.432 11.4141 115.854 11.0352C116.275 10.6523 116.873 10.4609 117.646 10.4609C117.982 10.4609 118.285 10.5 118.555 10.5781H120.775ZM115.654 18.0781C115.654 18.4258 115.801 18.6895 116.094 18.8691C116.387 19.0488 116.807 19.1387 117.354 19.1387C118.17 19.1387 118.773 19.0156 119.164 18.7695C119.559 18.5273 119.756 18.1973 119.756 17.7793C119.756 17.4316 119.648 17.1895 119.434 17.0527C119.219 16.9199 118.814 16.8535 118.221 16.8535H117.055C116.613 16.8535 116.27 16.959 116.023 17.1699C115.777 17.3809 115.654 17.6836 115.654 18.0781ZM116.182 12.6348C116.182 13.084 116.309 13.4238 116.562 13.6543C116.816 13.8848 117.17 14 117.623 14C118.572 14 119.047 13.5391 119.047 12.6172C119.047 11.6523 118.566 11.1699 117.605 11.1699C117.148 11.1699 116.797 11.293 116.551 11.5391C116.305 11.7852 116.182 12.1504 116.182 12.6348ZM126.488 17V12.8457C126.488 12.3223 126.369 11.9316 126.131 11.6738C125.893 11.416 125.52 11.2871 125.012 11.2871C124.336 11.2871 123.842 11.4707 123.529 11.8379C123.221 12.2051 123.066 12.8066 123.066 13.6426V17H122.094V7.88281H123.066V10.6426C123.066 10.9746 123.051 11.25 123.02 11.4688H123.078C123.27 11.1602 123.541 10.918 123.893 10.7422C124.248 10.5625 124.652 10.4727 125.105 10.4727C125.891 10.4727 126.479 10.6602 126.869 11.0352C127.264 11.4062 127.461 11.998 127.461 12.8105V17H126.488ZM131.539 16.3145C131.711 16.3145 131.877 16.3027 132.037 16.2793C132.197 16.252 132.324 16.2246 132.418 16.1973V16.9414C132.312 16.9922 132.156 17.0332 131.949 17.0645C131.746 17.0996 131.562 17.1172 131.398 17.1172C130.156 17.1172 129.535 16.4629 129.535 15.1543V11.334H128.615V10.8652L129.535 10.4609L129.945 9.08984H130.508V10.5781H132.371V11.334H130.508V15.1133C130.508 15.5 130.6 15.7969 130.783 16.0039C130.967 16.2109 131.219 16.3145 131.539 16.3145ZM133.854 17V8.43359H134.85V17H133.854ZM144.043 12.6348C144.043 14.0488 143.658 15.1309 142.889 15.8809C142.123 16.627 141.02 17 139.578 17H137.205V8.43359H139.83C141.162 8.43359 142.197 8.80273 142.936 9.54102C143.674 10.2793 144.043 11.3105 144.043 12.6348ZM142.988 12.6699C142.988 11.5527 142.707 10.7109 142.145 10.1445C141.586 9.57812 140.754 9.29492 139.648 9.29492H138.201V16.1387H139.414C140.602 16.1387 141.494 15.8477 142.092 15.2656C142.689 14.6797 142.988 13.8145 142.988 12.6699Z" fill="#FAD7CA"/>
<path d="M4.8 0H0V4.8H4.8V0Z" fill="#FB8A61"/>
<path d="M14.4 0.240556C13.661 0.0902859 12.9096 0.00974704 12.1555 0H7.79999V4.8H12.0667C13.4907 4.8 14.8827 5.22227 16.0668 6.01342C17.2508 6.80456 18.1736 7.92905 18.7186 9.24468C19.2635 10.5603 19.4061 12.008 19.1283 13.4046C18.8505 14.8013 18.1648 16.0842 17.1578 17.0912C16.1509 18.0981 14.868 18.7838 13.4713 19.0617C12.0746 19.3395 10.627 19.1969 9.31134 18.6519C7.99571 18.107 6.87122 17.1841 6.08008 16.0001C5.28893 14.8161 4.86666 13.424 4.86666 12V7.8H0.0666533V12C0.0660702 12.8288 0.151152 13.6554 0.320543 14.4667C1.44777 19.8622 6.19888 23.9267 11.9111 24H12.1555C18.7111 23.9167 24 18.5761 24 12C24 6.19444 19.8772 1.35222 14.4 0.240556Z" fill="#FB8A61"/>
<path d="M11.3768 16.1881C10.7178 16.0897 10.0913 15.8372 9.54827 15.4511C8.99703 15.0602 8.54757 14.5428 8.23756 13.9423C7.92756 13.3418 7.76605 12.6758 7.7666 12V7.76779H11.9999C12.6663 7.76754 13.3232 7.92457 13.9174 8.22611C14.5116 8.52765 15.0262 8.96519 15.4193 9.50314C15.8125 10.0411 16.0732 10.6642 16.1801 11.3219C16.287 11.9796 16.2371 12.6532 16.0346 13.288C15.832 13.9228 15.4825 14.5008 15.0144 14.975C14.5463 15.4492 13.9729 15.8062 13.3408 16.017C12.7087 16.2278 12.0358 16.2864 11.3768 16.1881Z" fill="#FB8A61"/>
</svg>
