<?xml version="1.0" encoding="utf-8"?>
<svg xmlns="http://www.w3.org/2000/svg" fill="none" height="42" viewBox="0 0 38 42" width="38">
<path d="M33.3939 1H14.197C13.4214 1 12.6776 1.31612 12.1292 1.87881C11.5808 2.44149 11.2727 3.20465 11.2727 4.0004V5.78818C11.2727 6.52353 10.9891 7.22897 10.4837 7.75039C9.97837 8.27181 9.29242 8.56681 8.57575 8.57092C6.56654 8.57092 4.63961 9.38987 3.21888 10.8476C1.79815 12.3053 1 14.2824 1 16.3439V37.8908C1 38.7154 1.31926 39.5062 1.88755 40.0893C2.45584 40.6724 3.22661 41 4.0303 41H33.9697C34.7734 41 35.5441 40.6724 36.1124 40.0893C36.6807 39.5062 37 38.7154 37 37.8908V4.79324C37.0041 3.80197 36.6284 2.84873 35.9538 2.13912C35.2792 1.42951 34.3598 1.02039 33.3939 1ZM18.6515 8.57092L19.6363 5.01088C19.7721 4.50291 20.0664 4.05458 20.4741 3.73451C20.8818 3.41444 21.3806 3.24026 21.8939 3.23863H25.2879C25.2879 4.6446 24.7435 5.99299 23.7746 6.98716C22.8056 7.98133 21.4915 8.53984 20.1212 8.53984L18.6515 8.57092Z" fill="url(#paint0_linear_3167_1850)" opacity="0.9" stroke="#0C0C17" stroke-miterlimit="10"/>
<path d="M33.2424 1.00004H19.2121C18.8275 0.99798 18.4464 1.07418 18.0907 1.22423C17.735 1.37429 17.4118 1.59522 17.1399 1.87424C16.8679 2.15327 16.6526 2.48486 16.5064 2.84981C16.3601 3.21476 16.2859 3.60585 16.2879 4.00044V5.78822C16.2879 6.15366 16.2177 6.51551 16.0814 6.85312C15.9451 7.19074 15.7453 7.49751 15.4935 7.75591C15.2417 8.01431 14.9427 8.2193 14.6136 8.35915C14.2846 8.49899 13.9319 8.57096 13.5757 8.57096C11.5665 8.57096 9.63961 9.38991 8.21888 10.8476C6.79815 12.3054 6 14.2824 6 16.344V37.8908C6 38.7154 6.31926 39.5062 6.88755 40.0893C7.45584 40.6724 8.22661 41 9.0303 41H33.803C34.6067 41 35.3775 40.6724 35.9457 40.0893C36.514 39.5062 36.8333 38.7154 36.8333 37.8908V4.79328C36.8376 3.80464 36.4639 2.85368 35.7926 2.1445C35.1212 1.43532 34.2056 1.02444 33.2424 1.00004ZM18.5 8.57096L19.4848 5.01092C19.6206 4.50295 19.9149 4.05462 20.3226 3.73455C20.7303 3.41448 21.229 3.2403 21.7424 3.23867H25.1363C25.1363 4.64464 24.592 5.99303 23.6231 6.9872C22.6541 7.98137 21.34 8.53988 19.9697 8.53988L18.5 8.57096Z" fill="url(#paint1_linear_3167_1850)" stroke="#0C0C17" stroke-miterlimit="10"/>
<path d="M32.6668 3.2384C32.6668 4.64437 32.1224 5.99276 31.1535 6.98693C30.1846 7.98109 28.8704 8.53961 27.5001 8.53961H20.1213C21.4916 8.53961 22.8058 7.98109 23.7747 6.98693C24.7437 5.99276 25.288 4.64437 25.288 3.2384H32.6668Z" fill="url(#paint2_linear_3167_1850)" opacity="0.9" stroke="#0C0C17" stroke-miterlimit="10"/>
<path d="M8.13628 10.4988C6.90901 11.2451 5.54538 11.0119 5.3181 10.4988L4.57568 9.36399L8.95447 7.21863L9.8484 8.38458V8.64886C9.69791 9.05892 9.46887 9.4339 9.1748 9.75164C8.88074 10.0694 8.52762 10.3234 8.13628 10.4988Z" fill="#4C4C5C" stroke="#0C0C17" stroke-miterlimit="10"/>
<path d="M7.1542 9.33957C8.41169 8.79747 9.24978 7.91525 9.02612 7.36908C8.80247 6.82291 7.60177 6.8196 6.34428 7.3617C5.08679 7.9038 4.24869 8.78603 4.47235 9.3322C4.696 9.87837 5.89671 9.88167 7.1542 9.33957Z" fill="#4C4C5C" stroke="#0C0C17" stroke-miterlimit="10"/>
<path d="M21.8503 27.7592L24.4711 31.8724L26.892 30.4693L23.4503 25.0446L21.8503 27.7592Z" fill="#EAF2F4"/>
<path d="M29.097 28.8194L29.0952 27.6956L25.3344 21.8379L23.9382 24.2051L27.5689 30.0768L28.8822 29.3162C28.9458 29.2646 28.9978 29.2002 29.0349 29.1272C29.0719 29.0542 29.0931 28.9742 29.0971 28.8925L29.097 28.8194Z" fill="#EAF2F4"/>
<path d="M13.3367 29.8796L15.1905 30.9478L21.3593 21.0549L20.3124 21.0278C19.4204 21.0152 18.4594 21.247 18.0184 21.9671L14.5154 27.3966L13.3374 29.2073V29.8801L13.3367 29.8796Z" fill="#EAF2F4"/>
<path d="M24.9196 21.0548L22.1605 21.0648L15.9177 31.3664L18.0997 32.6228L18.693 31.6164L24.9196 21.0548Z" fill="#EAF2F4"/>
<path d="M30.2593 21.0405C30.2466 20.7558 30.1649 20.4784 30.0212 20.2322C29.8775 19.9861 29.676 19.7786 29.4343 19.6276L22.5746 15.6829C22.3298 15.5626 22.0605 15.5 21.7877 15.5C21.5148 15.5 21.2456 15.5626 21.0008 15.6829C20.9435 15.7118 14.3299 19.5475 14.3299 19.5475C14.238 19.5916 14.1501 19.6436 14.0672 19.7029C13.8525 19.8556 13.6751 20.055 13.5485 20.2861C13.4218 20.5172 13.3492 20.774 13.336 21.0372V29.2069L14.514 27.3962L14.5049 21.0928C14.5105 21.0064 14.5351 20.9223 14.577 20.8465C14.6189 20.7707 14.6771 20.7052 14.7475 20.6547C14.7786 20.6323 21.5051 16.7388 21.5265 16.7281C21.607 16.6889 21.6954 16.6683 21.7849 16.6679C21.8745 16.6674 21.963 16.6872 22.0439 16.7256L28.8148 20.6204C28.8937 20.6705 28.9593 20.7388 29.0062 20.8196C29.0531 20.9004 29.0799 20.9912 29.0843 21.0845V28.8933C29.0826 28.9743 29.0637 29.054 29.0288 29.127C28.9939 29.2001 28.9438 29.2649 28.8818 29.317L27.5685 30.0777L26.8915 30.4703L24.4705 31.8733L22.0153 33.2963C21.8796 33.3441 21.7311 33.3412 21.5973 33.288L18.6926 31.6173L18.0993 32.6236L20.7098 34.1265C20.7962 34.1755 20.8731 34.2191 20.9362 34.2546C21.0339 34.3088 21.1005 34.346 21.124 34.3574C21.3424 34.4531 21.5785 34.5017 21.8169 34.5C22.0356 34.5003 22.2524 34.4595 22.456 34.3797L29.5871 30.25C29.7883 30.0935 29.9527 29.8948 30.0688 29.6679C30.1849 29.441 30.2498 29.1914 30.259 28.9367L30.2593 21.0405Z" fill="#EAF2F4"/>
<defs>
<linearGradient gradientUnits="userSpaceOnUse" id="paint0_linear_3167_1850" x1="19" x2="19" y1="1" y2="41">
<stop stop-color="#2D415B"/>
<stop offset="1" stop-color="#F8F4FF"/>
</linearGradient>
<linearGradient gradientUnits="userSpaceOnUse" id="paint1_linear_3167_1850" x1="21.4167" x2="21.4167" y1="1" y2="41">
<stop stop-color="#28A0F0"/>
<stop offset="1" stop-color="#2D374B"/>
</linearGradient>
<linearGradient gradientUnits="userSpaceOnUse" id="paint2_linear_3167_1850" x1="26.3941" x2="26.3941" y1="3.2384" y2="8.53961">
<stop stop-color="#2D415B"/>
<stop offset="1" stop-color="#F8F4FF"/>
</linearGradient>
</defs>
</svg>