<?xml version="1.0" encoding="utf-8"?>
<svg xmlns="http://www.w3.org/2000/svg" fill="none" height="42" viewBox="0 0 38 42" width="38">
<path d="M33.3939 1H14.197C13.4214 1 12.6776 1.31612 12.1292 1.87881C11.5808 2.44149 11.2727 3.20465 11.2727 4.0004V5.78818C11.2727 6.52353 10.9891 7.22897 10.4837 7.75039C9.97837 8.27181 9.29242 8.56681 8.57575 8.57092C6.56654 8.57092 4.63961 9.38987 3.21888 10.8476C1.79815 12.3053 1 14.2824 1 16.3439V37.8908C1 38.7154 1.31926 39.5062 1.88755 40.0893C2.45584 40.6724 3.22661 41 4.0303 41H33.9697C34.7734 41 35.5441 40.6724 36.1124 40.0893C36.6807 39.5062 37 38.7154 37 37.8908V4.79324C37.0041 3.80197 36.6284 2.84873 35.9538 2.13912C35.2792 1.42951 34.3598 1.02039 33.3939 1ZM18.6515 8.57092L19.6363 5.01088C19.7721 4.50291 20.0664 4.05458 20.4741 3.73451C20.8818 3.41444 21.3806 3.24026 21.8939 3.23863H25.2879C25.2879 4.6446 24.7435 5.99299 23.7746 6.98716C22.8056 7.98133 21.4915 8.53984 20.1212 8.53984L18.6515 8.57092Z" fill="url(#paint0_linear_3167_1842)" opacity="0.9" stroke="#0C0C17" stroke-miterlimit="10"/>
<path d="M33.2424 1.00004H19.2121C18.8275 0.99798 18.4464 1.07418 18.0907 1.22423C17.735 1.37429 17.4118 1.59522 17.1399 1.87424C16.8679 2.15327 16.6526 2.48486 16.5064 2.84981C16.3601 3.21476 16.2859 3.60585 16.2879 4.00044V5.78822C16.2879 6.15366 16.2177 6.51551 16.0814 6.85312C15.9451 7.19074 15.7453 7.49751 15.4935 7.75591C15.2417 8.01431 14.9427 8.2193 14.6136 8.35915C14.2846 8.49899 13.9319 8.57096 13.5757 8.57096C11.5665 8.57096 9.63961 9.38991 8.21888 10.8476C6.79815 12.3054 6 14.2824 6 16.344V37.8908C6 38.7154 6.31926 39.5062 6.88755 40.0893C7.45584 40.6724 8.22661 41 9.0303 41H33.803C34.6067 41 35.3775 40.6724 35.9457 40.0893C36.514 39.5062 36.8333 38.7154 36.8333 37.8908V4.79328C36.8376 3.80464 36.4639 2.85368 35.7926 2.1445C35.1212 1.43532 34.2056 1.02444 33.2424 1.00004ZM18.5 8.57096L19.4848 5.01092C19.6206 4.50295 19.9149 4.05462 20.3226 3.73455C20.7303 3.41448 21.229 3.2403 21.7424 3.23867H25.1363C25.1363 4.64464 24.592 5.99303 23.6231 6.9872C22.6541 7.98137 21.34 8.53988 19.9697 8.53988L18.5 8.57096Z" fill="url(#paint1_linear_3167_1842)" stroke="#0C0C17" stroke-miterlimit="10"/>
<path d="M32.6668 3.2384C32.6668 4.64437 32.1224 5.99276 31.1535 6.98693C30.1846 7.98109 28.8704 8.53961 27.5001 8.53961H20.1213C21.4916 8.53961 22.8058 7.98109 23.7747 6.98693C24.7437 5.99276 25.288 4.64437 25.288 3.2384H32.6668Z" fill="url(#paint2_linear_3167_1842)" opacity="0.9" stroke="#0C0C17" stroke-miterlimit="10"/>
<path d="M8.13628 10.4988C6.90901 11.2451 5.54538 11.0119 5.3181 10.4988L4.57568 9.36399L8.95447 7.21863L9.8484 8.38458V8.64886C9.69791 9.05892 9.46887 9.4339 9.1748 9.75164C8.88074 10.0694 8.52762 10.3234 8.13628 10.4988Z" fill="#4C4C5C" stroke="#0C0C17" stroke-miterlimit="10"/>
<path d="M7.1542 9.33957C8.41169 8.79747 9.24978 7.91525 9.02612 7.36908C8.80247 6.82291 7.60177 6.8196 6.34428 7.3617C5.08679 7.9038 4.24869 8.78603 4.47235 9.3322C4.696 9.87837 5.89671 9.88167 7.1542 9.33957Z" fill="#4C4C5C" stroke="#0C0C17" stroke-miterlimit="10"/>
<g clip-path="url(#clip0_3167_1842)">
<path d="M18.2906 26.2512C18.8079 26.2512 19.3126 26.0787 19.7205 25.7632L16.4402 22.482C15.6495 23.5042 15.8388 24.9766 16.8607 25.7674C17.2729 26.0787 17.7734 26.2512 18.2906 26.2512Z" fill="#EAF2F4"/>
<path d="M28.0476 23.9081C28.0476 23.3906 27.8752 22.8858 27.5598 22.4778L24.2794 25.759C25.3014 26.5499 26.7691 26.3606 27.5598 25.3383C27.8752 24.9303 28.0476 24.4255 28.0476 23.9081Z" fill="#EAF2F4"/>
<path d="M29.7004 20.3323L28.2495 21.7837C29.4187 23.1845 29.2336 25.271 27.8332 26.4405C26.6051 27.4669 24.8219 27.4669 23.5939 26.4405L22 28.0349L20.4103 26.4447C19.0098 27.6142 16.9238 27.4291 15.7547 26.0282C14.7285 24.7999 14.7285 23.0162 15.7547 21.7879L15.0103 21.0433L14.3037 20.3323C13.45 21.7374 13 23.3528 13 24.9976C13 29.97 17.029 34 22 34C26.971 34 31 29.97 31 24.9976C31.0042 23.3528 30.55 21.7374 29.7004 20.3323Z" fill="#EAF2F4"/>
<path d="M28.5103 18.7885C25.0827 15.1917 19.3883 15.0571 15.7925 18.4856C15.6874 18.5865 15.5865 18.6875 15.4897 18.7885C15.2668 19.024 15.0565 19.268 14.8589 19.5246L22 26.6719L29.1411 19.5246C28.9476 19.268 28.7332 19.024 28.5103 18.7885ZM22 17.1773C24.1028 17.1773 26.0626 17.9892 27.5346 19.47L22 25.006L16.4654 19.47C17.9374 17.9892 19.8972 17.1773 22 17.1773Z" fill="#EAF2F4"/>
</g>
<defs>
<linearGradient gradientUnits="userSpaceOnUse" id="paint0_linear_3167_1842" x1="19" x2="19" y1="1" y2="41">
<stop stop-color="#74E78E"/>
<stop offset="1" stop-color="#F8F4FF"/>
</linearGradient>
<linearGradient gradientUnits="userSpaceOnUse" id="paint1_linear_3167_1842" x1="21.4167" x2="21.4167" y1="1" y2="41">
<stop stop-color="#88CA97"/>
<stop offset="1" stop-color="#2F6D3D"/>
</linearGradient>
<linearGradient gradientUnits="userSpaceOnUse" id="paint2_linear_3167_1842" x1="26.3941" x2="26.3941" y1="3.2384" y2="8.53961">
<stop stop-color="#74E78E"/>
<stop offset="1" stop-color="#F8F4FF"/>
</linearGradient>
<clipPath id="clip0_3167_1842">
<rect fill="white" height="18" transform="translate(13 16)" width="18"/>
</clipPath>
</defs>
</svg>