<?xml version="1.0" encoding="utf-8"?>
<svg xmlns="http://www.w3.org/2000/svg" fill="none" height="44" viewBox="0 0 44 44" width="44">
<path d="M1.09998 22.0785C1.09998 10.4922 10.4922 1.09998 22.0785 1.09998C33.6648 1.09998 43.0571 10.4922 43.0571 22.0785C43.0571 33.6648 33.6648 43.0571 22.0785 43.0571C10.4922 43.0571 1.09998 33.6648 1.09998 22.0785Z" fill="#F7931A"/>
<path d="M25.3305 8.0929C24.0798 11.3396 22.829 14.836 21.3281 18.3324C21.3281 18.3324 21.3281 18.8319 21.8284 18.8319H32.0846C32.0846 18.8319 32.0846 19.0817 32.3348 19.3314L17.3257 36.0643C17.0756 35.8146 17.0756 35.5648 17.0756 35.3151L22.3287 24.0766V23.0776H11.8224V22.0786L24.5801 8.0929H25.3305Z" fill="white"/>
</svg>