<?xml version="1.0" encoding="utf-8"?>
<svg xmlns="http://www.w3.org/2000/svg" fill="none" height="42" viewBox="0 0 38 42" width="38">
<path d="M33.3939 1H14.197C13.4214 1 12.6776 1.31612 12.1292 1.87881C11.5808 2.44149 11.2727 3.20465 11.2727 4.0004V5.78818C11.2727 6.52353 10.9891 7.22897 10.4837 7.75039C9.97837 8.27181 9.29242 8.56681 8.57575 8.57092C6.56654 8.57092 4.63961 9.38987 3.21888 10.8476C1.79815 12.3053 1 14.2824 1 16.3439V37.8908C1 38.7154 1.31926 39.5062 1.88755 40.0893C2.45584 40.6724 3.22661 41 4.0303 41H33.9697C34.7734 41 35.5441 40.6724 36.1124 40.0893C36.6807 39.5062 37 38.7154 37 37.8908V4.79324C37.0041 3.80197 36.6284 2.84873 35.9538 2.13912C35.2792 1.42951 34.3598 1.02039 33.3939 1V1ZM18.6515 8.57092L19.6363 5.01088C19.7721 4.50291 20.0664 4.05458 20.4741 3.73451C20.8818 3.41444 21.3806 3.24026 21.8939 3.23863H25.2879C25.2879 4.6446 24.7435 5.99299 23.7746 6.98716C22.8056 7.98133 21.4915 8.53984 20.1212 8.53984L18.6515 8.57092Z" fill="url(#paint0_linear_3786_3287)" opacity="0.9" stroke="#0C0C17" stroke-miterlimit="10"/>
<path d="M33.2424 1.00004H19.2121C18.8275 0.99798 18.4464 1.07418 18.0907 1.22423C17.735 1.37429 17.4118 1.59522 17.1399 1.87424C16.8679 2.15327 16.6526 2.48486 16.5064 2.84981C16.3601 3.21476 16.2859 3.60585 16.2879 4.00044V5.78822C16.2879 6.15366 16.2177 6.51551 16.0814 6.85312C15.9451 7.19074 15.7453 7.49751 15.4935 7.75591C15.2417 8.01431 14.9427 8.2193 14.6136 8.35915C14.2846 8.49899 13.9319 8.57096 13.5757 8.57096C11.5665 8.57096 9.63961 9.38991 8.21888 10.8476C6.79815 12.3054 6 14.2824 6 16.344V37.8908C6 38.7154 6.31926 39.5062 6.88755 40.0893C7.45584 40.6724 8.22661 41 9.0303 41H33.803C34.6067 41 35.3775 40.6724 35.9457 40.0893C36.514 39.5062 36.8333 38.7154 36.8333 37.8908V4.79328C36.8376 3.80464 36.4639 2.85368 35.7926 2.1445C35.1212 1.43532 34.2056 1.02444 33.2424 1.00004ZM18.5 8.57096L19.4848 5.01092C19.6206 4.50295 19.9149 4.05462 20.3226 3.73455C20.7303 3.41448 21.229 3.2403 21.7424 3.23867H25.1363C25.1363 4.64464 24.592 5.99303 23.6231 6.9872C22.6541 7.98137 21.34 8.53988 19.9697 8.53988L18.5 8.57096Z" fill="url(#paint1_linear_3786_3287)" stroke="#0C0C17" stroke-miterlimit="10"/>
<path d="M32.6668 3.2384C32.6668 4.64437 32.1224 5.99276 31.1535 6.98693C30.1846 7.98109 28.8704 8.53961 27.5001 8.53961H20.1213C21.4916 8.53961 22.8058 7.98109 23.7747 6.98693C24.7437 5.99276 25.288 4.64437 25.288 3.2384H32.6668Z" fill="url(#paint2_linear_3786_3287)" opacity="0.9" stroke="#0C0C17" stroke-miterlimit="10"/>
<path d="M8.13628 10.4988C6.90901 11.2451 5.54538 11.0119 5.3181 10.4988L4.57568 9.36399L8.95447 7.21863L9.8484 8.38458V8.64886C9.69791 9.05892 9.46887 9.4339 9.1748 9.75164C8.88074 10.0694 8.52762 10.3234 8.13628 10.4988Z" fill="#4C4C5C" stroke="#0C0C17" stroke-miterlimit="10"/>
<path d="M7.1542 9.33951C8.41169 8.79741 9.24978 7.91519 9.02612 7.36902C8.80247 6.82285 7.60177 6.81954 6.34428 7.36164C5.08679 7.90374 4.24869 8.78596 4.47235 9.33214C4.696 9.87831 5.89671 9.88161 7.1542 9.33951Z" fill="#4C4C5C" stroke="#0C0C17" stroke-miterlimit="10"/>
<path d="M29.5756 15C27.6857 15 26.1537 17.1304 26.1537 19.7577C26.1537 21.9038 27.1756 23.7178 28.58 24.3102V22.6586C27.802 22.142 27.2643 21.0346 27.2643 19.7577C27.2643 17.9833 28.2989 16.5446 29.5756 16.5446C30.8523 16.5446 31.8862 17.9833 31.8862 19.7595C31.8862 21.0568 31.3335 22.1741 30.5378 22.6818V21.3438C30.5378 21.1893 30.4069 21.0641 30.2454 21.0641H28.9945C28.833 21.0641 28.702 21.1893 28.702 21.3438V26.6374C27.2358 27.1784 26.1568 29.0349 26.1568 31.2423C26.1568 33.8702 27.6888 36 29.5787 36C31.4686 36 33 33.8702 33 31.2423C32.9968 29.1528 32.0277 27.3778 30.6812 26.7366V28.5237C31.3611 29.059 31.8201 30.0748 31.8201 31.2399C31.8201 32.9643 30.8139 34.3616 29.5756 34.3616C28.3372 34.3616 27.3303 32.9643 27.3303 31.2399C27.3303 29.9467 27.8958 28.8375 28.702 28.3639V29.3573C28.702 29.5117 28.833 29.6369 28.9945 29.6369H30.2454C30.4069 29.6369 30.5378 29.5117 30.5378 29.3573V24.3264C31.9589 23.7481 32.9968 21.9224 32.9968 19.7595C32.9968 17.1304 31.4648 15 29.5756 15Z" fill="#EFEFEF"/>
<path clip-rule="evenodd" d="M24.1619 21.3426C23.0563 16.778 19.3312 16.8724 19.3312 16.8724H15.5282V34.195L19.1073 34.2004C19.7794 34.2031 20.4423 34.051 21.04 33.7571C21.8448 33.3672 22.5526 32.8165 23.1154 32.1421C24.0455 31.0288 25.2682 25.9072 24.1619 21.3426ZM21.85 30.2144C21.6369 30.7975 21.2651 31.3158 20.773 31.7158C20.2809 32.1158 19.6861 32.3832 19.0501 32.4904C18.6422 32.556 18.2271 32.57 17.8155 32.5319H17.7904V18.5036H18.2168C18.8627 18.5017 19.5002 18.6449 20.0777 18.9216C21.089 19.4094 22.1626 20.4452 22.4141 22.5118C22.7323 25.1127 22.6651 27.9847 21.85 30.2144Z" fill="#EFEFEF" fill-rule="evenodd"/>
<path d="M11 16.8724H13.2641V34.1949H11V16.8724Z" fill="#EFEFEF"/>
<defs>
<linearGradient gradientUnits="userSpaceOnUse" id="paint0_linear_3786_3287" x1="19" x2="19" y1="1" y2="41">
<stop stop-color="#7A93F2"/>
<stop offset="1" stop-color="#F2EBFF"/>
</linearGradient>
<linearGradient gradientUnits="userSpaceOnUse" id="paint1_linear_3786_3287" x1="21.4167" x2="21.4167" y1="1" y2="41">
<stop stop-color="#4C5BE2"/>
<stop offset="1" stop-color="#7E98F3"/>
</linearGradient>
<linearGradient gradientUnits="userSpaceOnUse" id="paint2_linear_3786_3287" x1="26.3941" x2="26.3941" y1="3.2384" y2="8.53961">
<stop stop-color="#7A93F2"/>
<stop offset="1" stop-color="#F2EBFF"/>
</linearGradient>
</defs>
</svg>