<?xml version="1.0" encoding="utf-8"?>
<svg xmlns="http://www.w3.org/2000/svg" fill="none" height="36" viewBox="0 0 36 36" width="36">
<path d="M31.4015 5.73926C34.3994 9.12555 35.7927 13.4708 35.3222 17.97C34.8517 22.4692 32.5833 26.589 28.9245 29.5667C25.2645 32.545 20.6388 34.0316 15.9535 33.7354C11.2508 33.446 7.00669 31.4209 4.01019 28.0339C1.0137 24.6469 -0.380933 20.3023 0.0895447 15.8031C0.560023 11.3039 2.8284 7.18343 6.4872 4.20642C10.1471 1.22783 14.7728 -0.259044 19.4583 0.0370464C24.1595 0.326448 28.405 2.35155 31.4015 5.73926ZM28.5752 29.1673C32.1178 26.284 34.3161 22.2948 34.7705 17.936C35.2249 13.5772 33.8736 9.37026 30.971 6.09037C28.0683 2.81048 23.9586 0.848506 19.3987 0.568325C14.8609 0.281192 10.3807 1.72103 6.83586 4.60577C3.29327 7.48986 1.09491 11.4784 0.640536 15.8371C0.18616 20.1959 1.53738 24.4029 4.44006 27.6827C7.34275 30.9626 11.4524 32.9239 16.0102 33.2048C20.5482 33.4915 25.0285 32.0518 28.5738 29.1673" fill="black"/>
<path d="M30.9709 6.08969C33.8736 9.37029 35.2227 13.5773 34.7705 17.9353C34.3182 22.2934 32.1177 26.2833 28.5751 29.1667C25.03 32.0512 20.5496 33.491 16.0115 33.2041C11.4538 32.9204 7.34481 30.9627 4.44143 27.6821C1.53805 24.4015 0.188927 20.1995 0.641201 15.8371C1.09348 11.4748 3.29464 7.48918 6.83723 4.6058C10.3817 1.7214 14.8613 0.281583 19.3987 0.568357C23.9586 0.848538 28.0675 2.80909 30.9709 6.08969Z" fill="url(#paint0_linear_6524_4875)"/>
<path d="M35.4824 14.471L34.8978 12.243C35.3847 14.1095 35.5296 16.0513 35.3256 17.9708C35.1875 19.299 34.8909 20.6053 34.4421 21.8611C34.0184 23.0449 33.465 24.1766 32.7926 25.2357C32.2283 26.1256 31.5863 26.9624 30.8743 27.736C30.2698 28.3929 29.6194 29.0047 28.9279 29.5667C28.7944 29.6755 28.6602 29.7819 28.5254 29.8859V29.8881C27.5718 30.6233 26.5509 31.2644 25.4768 31.8026L25.4757 31.7986C25.4755 31.7987 25.476 31.7985 25.4757 31.7986C22.5231 33.2742 19.2408 33.9419 15.9548 33.7354C11.2486 33.446 7.00521 31.4209 4.00801 28.0339C2.35083 26.1771 1.15271 23.948 0.512329 21.5302L1.09693 23.7581C1.73745 26.1761 2.93554 28.4054 4.5926 30.2626C7.5898 33.6489 11.8332 35.674 16.5394 35.9634C19.8252 36.1698 23.1072 35.5022 26.0598 34.0268L26.0609 34.0312C27.1352 33.4927 28.1562 32.8514 29.11 32.116L28.5254 29.8859L29.11 32.1139C29.2453 32.0094 29.3795 31.903 29.5125 31.7947C30.204 31.2327 30.8544 30.6209 31.4588 29.9639C32.1709 29.1904 32.8131 28.3539 33.3779 27.4643C34.0496 26.4048 34.6026 25.2727 35.0265 24.089C35.4756 22.8334 35.7724 21.5276 35.9102 20.1995C36.1144 18.2795 35.9694 16.338 35.4824 14.471Z" fill="black"/>
<path d="M24.006 15.1263C24.4037 13.2386 23.0533 12.1255 21.1617 11.3208L21.9514 8.77942L20.4438 8.29165L19.675 10.766C19.2786 10.6378 18.871 10.5147 18.466 10.3927L19.2402 7.90205L17.7335 7.41434L16.9434 9.95475C16.6149 9.85595 16.2925 9.75843 15.9799 9.65748L15.9821 9.64954L13.9031 8.97584L13.3901 10.6281C13.3901 10.6281 14.5101 10.9666 14.4851 10.9817C15.0956 11.1795 15.1813 11.6076 15.1416 11.9402L14.2421 14.8353C14.2841 14.8492 14.3385 14.8688 14.3981 14.8977C14.3478 14.8815 14.2942 14.8637 14.2387 14.8463L12.978 18.902C12.8899 19.0905 12.6793 19.3683 12.2524 19.231C12.2662 19.2548 11.1566 18.876 11.1566 18.876L10.283 20.6264L12.2449 21.2613C12.6098 21.3799 12.9671 21.5025 13.319 21.619L12.5209 24.1894L14.0268 24.6771L14.817 22.134C15.2278 22.2766 15.6269 22.4095 16.0176 22.5356L15.2303 25.0667L16.7379 25.5545L17.5357 22.9889C20.1165 23.66 22.094 23.579 23.0732 21.2081C23.8621 19.2992 23.2333 18.13 21.9048 17.3098C22.9207 17.136 23.7172 16.5083 24.006 15.1263ZM20.1891 19.9394C19.593 21.8605 16.4557 20.6046 15.4337 20.2749L16.4923 16.8696C17.5143 17.2006 20.8118 17.9361 20.1891 19.9394ZM20.981 14.9079C20.4375 16.6553 17.8277 15.5862 16.9767 15.3108L17.9366 12.2222C18.7876 12.4976 21.5472 13.0852 20.981 14.9079Z" fill="white"/>
<defs>
<linearGradient gradientUnits="userSpaceOnUse" id="paint0_linear_6524_4875" x1="17.7058" x2="17.7058" y1="0.532471" y2="33.24">
<stop stop-color="#F7931A"/>
<stop offset="1" stop-color="#FFD8A8"/>
</linearGradient>
</defs>
</svg>