<?xml version="1.0" encoding="utf-8"?>
<svg xmlns="http://www.w3.org/2000/svg" fill="none" height="42" viewBox="0 0 38 42" width="38">
<path d="M33.3939 1H14.197C13.4214 1 12.6776 1.31612 12.1292 1.87881C11.5808 2.44149 11.2727 3.20465 11.2727 4.0004V5.78818C11.2727 6.52353 10.9891 7.22897 10.4837 7.75039C9.97837 8.27181 9.29242 8.56681 8.57575 8.57092C6.56654 8.57092 4.63961 9.38987 3.21888 10.8476C1.79815 12.3053 1 14.2824 1 16.3439V37.8908C1 38.7154 1.31926 39.5062 1.88755 40.0893C2.45584 40.6724 3.22661 41 4.0303 41H33.9697C34.7734 41 35.5441 40.6724 36.1124 40.0893C36.6807 39.5062 37 38.7154 37 37.8908V4.79324C37.0041 3.80197 36.6284 2.84873 35.9538 2.13912C35.2792 1.42951 34.3598 1.02039 33.3939 1ZM18.6515 8.57092L19.6363 5.01088C19.7721 4.50291 20.0664 4.05458 20.4741 3.73451C20.8818 3.41444 21.3806 3.24026 21.8939 3.23863H25.2879C25.2879 4.6446 24.7435 5.99299 23.7746 6.98716C22.8056 7.98133 21.4915 8.53984 20.1212 8.53984L18.6515 8.57092Z" fill="url(#paint0_linear_3167_1863)" opacity="0.9" stroke="#0C0C17" stroke-miterlimit="10"/>
<path d="M33.2424 1.00004H19.2121C18.8275 0.99798 18.4464 1.07418 18.0907 1.22423C17.735 1.37429 17.4118 1.59522 17.1399 1.87424C16.8679 2.15327 16.6526 2.48486 16.5064 2.84981C16.3601 3.21476 16.2859 3.60585 16.2879 4.00044V5.78822C16.2879 6.15366 16.2177 6.51551 16.0814 6.85312C15.9451 7.19074 15.7453 7.49751 15.4935 7.75591C15.2417 8.01431 14.9427 8.2193 14.6136 8.35915C14.2846 8.49899 13.9319 8.57096 13.5757 8.57096C11.5665 8.57096 9.63961 9.38991 8.21888 10.8476C6.79815 12.3054 6 14.2824 6 16.344V37.8908C6 38.7154 6.31926 39.5062 6.88755 40.0893C7.45584 40.6724 8.22661 41 9.0303 41H33.803C34.6067 41 35.3775 40.6724 35.9457 40.0893C36.514 39.5062 36.8333 38.7154 36.8333 37.8908V4.79328C36.8376 3.80464 36.4639 2.85368 35.7926 2.1445C35.1212 1.43532 34.2056 1.02444 33.2424 1.00004ZM18.5 8.57096L19.4848 5.01092C19.6206 4.50295 19.9149 4.05462 20.3226 3.73455C20.7303 3.41448 21.229 3.2403 21.7424 3.23867H25.1363C25.1363 4.64464 24.592 5.99303 23.6231 6.9872C22.6541 7.98137 21.34 8.53988 19.9697 8.53988L18.5 8.57096Z" fill="url(#paint1_linear_3167_1863)" stroke="#0C0C17" stroke-miterlimit="10"/>
<path d="M32.6668 3.2384C32.6668 4.64437 32.1224 5.99276 31.1535 6.98693C30.1846 7.98109 28.8704 8.53961 27.5001 8.53961H20.1213C21.4916 8.53961 22.8058 7.98109 23.7747 6.98693C24.7437 5.99276 25.288 4.64437 25.288 3.2384H32.6668Z" fill="url(#paint2_linear_3167_1863)" opacity="0.9" stroke="#0C0C17" stroke-miterlimit="10"/>
<path d="M8.13628 10.4988C6.90901 11.2451 5.54538 11.0119 5.3181 10.4988L4.57568 9.36399L8.95447 7.21863L9.8484 8.38458V8.64886C9.69791 9.05892 9.46887 9.4339 9.1748 9.75164C8.88074 10.0694 8.52762 10.3234 8.13628 10.4988Z" fill="#4C4C5C" stroke="#0C0C17" stroke-miterlimit="10"/>
<path d="M7.1542 9.33957C8.41169 8.79747 9.24978 7.91525 9.02612 7.36908C8.80247 6.82291 7.60177 6.8196 6.34428 7.3617C5.08679 7.9038 4.24869 8.78603 4.47235 9.3322C4.696 9.87837 5.89671 9.88167 7.1542 9.33957Z" fill="#4C4C5C" stroke="#0C0C17" stroke-miterlimit="10"/>
<path clip-rule="evenodd" d="M22 34.5C27.2467 34.5 31.5 30.2467 31.5 25C31.5 19.7533 27.2467 15.5 22 15.5C16.7533 15.5 12.5 19.7533 12.5 25C12.5 30.2467 16.7533 34.5 22 34.5ZM19.2298 27.5232C18.6636 27.5232 18.2 27.3902 17.839 27.1242C17.4818 26.8544 17.3032 26.4668 17.3032 25.969C17.3032 25.8626 17.3146 25.7372 17.3374 25.5852C17.3982 25.2432 17.4856 24.8328 17.5996 24.3502C17.9226 23.043 18.7586 22.3894 20.1038 22.3894C20.4686 22.3894 20.7992 22.4502 21.088 22.5756C21.3768 22.6934 21.6048 22.8758 21.772 23.119C21.9392 23.3584 22.0228 23.6434 22.0228 23.974C22.0228 24.0728 22.0114 24.1982 21.9886 24.3502C21.9164 24.772 21.8328 25.1862 21.7302 25.5852C21.563 26.235 21.278 26.7252 20.8676 27.0482C20.461 27.3674 19.9138 27.5232 19.2298 27.5232ZM19.3324 26.4972C19.5984 26.4972 19.8226 26.4174 20.0088 26.2616C20.1988 26.1058 20.3356 25.8664 20.4154 25.5396C20.5256 25.0912 20.6092 24.7036 20.6662 24.3692C20.6852 24.2704 20.6966 24.1678 20.6966 24.0614C20.6966 23.6282 20.4724 23.4116 20.0202 23.4116C19.7542 23.4116 19.5262 23.4914 19.3362 23.6472C19.15 23.803 19.017 24.0424 18.9372 24.3692C18.8498 24.6884 18.7662 25.076 18.6788 25.5396C18.6598 25.6346 18.6484 25.7334 18.6484 25.8398C18.6446 26.2806 18.8764 26.4972 19.3324 26.4972ZM22.2318 27.4054C22.2622 27.4396 22.3002 27.4548 22.3534 27.4548H23.3224C23.3718 27.4548 23.4174 27.4396 23.4592 27.4054C23.5048 27.3712 23.5276 27.3294 23.539 27.2762L23.8658 25.7144H24.8272C25.4504 25.7144 25.9406 25.5852 26.2978 25.323C26.6626 25.0608 26.902 24.658 27.0198 24.1108C27.0464 23.9816 27.0616 23.8562 27.0616 23.7384C27.0616 23.3242 26.8982 23.0088 26.5752 22.7884C26.256 22.5718 25.8342 22.4616 25.306 22.4616H23.4098C23.3604 22.4616 23.3148 22.4768 23.273 22.511C23.2274 22.5452 23.2008 22.587 23.1932 22.6402L22.209 27.2762C22.2014 27.3256 22.209 27.3674 22.2318 27.4054ZM25.3972 24.5668C25.249 24.677 25.078 24.7302 24.8766 24.7302H24.0596L24.3294 23.4534H25.1844C25.3782 23.4534 25.5188 23.4914 25.5986 23.5674C25.6784 23.6396 25.7202 23.746 25.7202 23.8828C25.7202 23.9436 25.7126 24.0158 25.6974 24.0956C25.648 24.3008 25.5492 24.4566 25.3972 24.5668Z" fill="#EAF2F4" fill-rule="evenodd"/>
<defs>
<linearGradient gradientUnits="userSpaceOnUse" id="paint0_linear_3167_1863" x1="19" x2="19" y1="1" y2="41">
<stop stop-color="#FF0420"/>
<stop offset="1" stop-color="#F8F4FF"/>
</linearGradient>
<linearGradient gradientUnits="userSpaceOnUse" id="paint1_linear_3167_1863" x1="21.4167" x2="21.4167" y1="1" y2="41">
<stop stop-color="#FF0420"/>
<stop offset="1" stop-color="#BB0015"/>
</linearGradient>
<linearGradient gradientUnits="userSpaceOnUse" id="paint2_linear_3167_1863" x1="26.3941" x2="26.3941" y1="3.2384" y2="8.53961">
<stop stop-color="#FF0420"/>
<stop offset="1" stop-color="#F8F4FF"/>
</linearGradient>
</defs>
</svg>