<?xml version="1.0" encoding="utf-8"?>
<svg xmlns="http://www.w3.org/2000/svg" fill="none" height="36" viewBox="0 0 36 36" width="36">
<path d="M31.4015 5.73926C34.3994 9.12555 35.7927 13.4708 35.3222 17.97C34.8517 22.4692 32.5833 26.589 28.9245 29.5667C25.2645 32.545 20.6388 34.0316 15.9535 33.7354C11.2508 33.446 7.00669 31.4208 4.01019 28.0339C1.0137 24.6469 -0.380933 20.3023 0.0895447 15.8031C0.560023 11.3039 2.8284 7.18343 6.4872 4.20642C10.1471 1.22783 14.7728 -0.259044 19.4583 0.0370464C24.1595 0.326448 28.405 2.35155 31.4015 5.73926ZM28.5752 29.1673C32.1178 26.284 34.3161 22.2948 34.7705 17.936C35.2249 13.5772 33.8736 9.37026 30.971 6.09037C28.0683 2.81048 23.9586 0.848506 19.3987 0.568325C14.8609 0.281191 10.3807 1.72103 6.83586 4.60577C3.29327 7.48986 1.09491 11.4784 0.640536 15.8371C0.18616 20.1959 1.53738 24.4028 4.44006 27.6827C7.34275 30.9626 11.4524 32.9239 16.0102 33.2048C20.5482 33.4915 25.0285 32.0518 28.5738 29.1673" fill="#0C0C17"/>
<path d="M30.9709 6.08969C33.8736 9.37029 35.2227 13.5773 34.7705 17.9353C34.3182 22.2934 32.1177 26.2833 28.5751 29.1667C25.03 32.0512 20.5496 33.491 16.0115 33.2041C11.4538 32.9204 7.34481 30.9627 4.44143 27.6821C1.53805 24.4015 0.188927 20.1995 0.641201 15.8371C1.09348 11.4748 3.29464 7.48918 6.83723 4.6058C10.3817 1.7214 14.8613 0.281583 19.3987 0.568357C23.9586 0.848538 28.0675 2.80909 30.9709 6.08969Z" fill="url(#paint0_linear_6518_5172)"/>
<path clip-rule="evenodd" d="M19.1005 10.687C18.8936 11.5045 18.3647 11.7971 17.5136 11.565C17.0474 11.3078 16.8353 10.9257 16.8775 10.4187C16.9802 9.34185 17.0912 8.26582 17.2105 7.19065C17.3759 6.80802 17.6702 6.57142 18.0933 6.48086C18.774 6.43999 19.1992 6.73214 19.3686 7.35729C19.3581 7.76812 19.3341 8.17834 19.2964 8.58793C19.2394 9.28841 19.1742 9.9881 19.1005 10.687Z" fill="#FFFEFE" fill-rule="evenodd"/>
<path clip-rule="evenodd" d="M25.8626 11.3108C25.7906 11.4401 25.6996 11.558 25.59 11.6646C24.7185 12.3437 23.8472 13.0229 22.9756 13.7021C22.4059 14.0021 21.902 13.9164 21.4639 13.4449C21.154 12.9554 21.1911 12.4989 21.5748 12.0753C21.9924 11.739 22.4054 11.3991 22.8134 11.0557C23.2855 10.6987 23.7547 10.3366 24.221 9.9695C24.5484 9.78913 24.893 9.75985 25.2546 9.88168C25.8854 10.1925 26.0881 10.6689 25.8626 11.3108Z" fill="#FFFEFE" fill-rule="evenodd"/>
<path clip-rule="evenodd" d="M13.1104 10.0924C13.4596 10.511 13.814 10.9271 14.1738 11.3405C14.5706 12.0295 14.4132 12.5653 13.7018 12.948C13.2195 13.0862 12.7959 12.9886 12.431 12.6553C11.7233 11.8596 11.024 11.0563 10.3331 10.2451C10.2259 10.0972 10.1458 9.93855 10.0929 9.76901C10.0832 9.60227 10.0954 9.43685 10.1297 9.27277C10.3459 8.75896 10.7468 8.49724 11.3325 8.48763C11.6006 8.58088 11.841 8.71979 12.0535 8.90437C12.4104 9.29701 12.7627 9.69302 13.1104 10.0924Z" fill="#FFFEFE" fill-rule="evenodd"/>
<path clip-rule="evenodd" d="M21.929 16.9427C21.9666 16.2669 21.8392 15.6195 21.5469 15.0004C20.6537 13.2867 19.1988 12.4163 17.1818 12.389C15.7162 12.4993 14.5475 13.1093 13.6756 14.219C13.4829 14.5061 13.3156 14.8069 13.1736 15.1213C13.0328 15.4651 12.9433 15.8212 12.9051 16.1896C12.8552 16.6798 12.8819 17.1664 12.9851 17.6496C13.1652 18.2907 13.4654 18.8758 13.8856 19.4053C14.2876 19.8458 14.7507 20.2169 15.2749 20.5192C16.4003 21.0503 17.5643 21.158 18.7673 20.8421C19.353 20.6679 19.88 20.3948 20.3484 20.0231C20.8475 19.6058 21.2463 19.1139 21.5448 18.547C21.774 18.0363 21.902 17.5015 21.929 16.9427ZM20.0501 17.8196C20.1813 17.5129 20.2538 17.1969 20.27 16.8626L20.2706 16.8504L20.2706 16.8504C20.2921 16.4642 20.2242 16.1008 20.0581 15.7379C19.7364 15.1317 19.3547 14.7399 18.933 14.4877C18.5146 14.2374 17.9678 14.0713 17.2339 14.0514C16.2716 14.1393 15.5713 14.5183 15.0201 15.1972C14.8991 15.3829 14.7926 15.5758 14.7003 15.7765C14.6255 15.9657 14.5783 16.1587 14.5573 16.3595C14.527 16.6591 14.5407 16.9546 14.5989 17.2513C14.7145 17.6394 14.8963 17.9957 15.1518 18.3281C15.4123 18.6057 15.7086 18.8443 16.0454 19.0455C16.789 19.3816 17.5259 19.4451 18.319 19.2424C18.6883 19.1294 19.0113 18.9605 19.2994 18.735C19.6133 18.4694 19.8604 18.1663 20.0501 17.8196Z" fill="#FFFEFE" fill-rule="evenodd"/>
<path clip-rule="evenodd" d="M28.1527 17.7033C28.0982 18.2373 27.7996 18.5606 27.2565 18.6736C26.9576 18.6696 26.6591 18.6557 26.3607 18.6323C25.4762 18.5604 24.5935 18.4728 23.7122 18.3693C22.9773 18.2126 22.6618 17.7806 22.766 17.0733C22.8856 16.6211 23.1872 16.3535 23.6706 16.2704C24.8712 16.338 26.069 16.4411 27.2644 16.5796C27.8559 16.7451 28.1521 17.1197 28.1527 17.7033Z" fill="#FFFEFD" fill-rule="evenodd"/>
<path clip-rule="evenodd" d="M12.0884 16.1085C12.0377 16.753 11.6773 17.11 11.0072 17.1794C9.84229 17.0797 8.67892 16.9642 7.51712 16.8329C6.87204 16.6316 6.58887 16.2107 6.66761 15.5703C6.81446 15.0608 7.16627 14.7902 7.72305 14.7587C8.89771 14.8427 10.0701 14.9512 11.2402 15.084C11.7755 15.2369 12.0583 15.5783 12.0884 16.1085Z" fill="#FFFEFE" fill-rule="evenodd"/>
<path clip-rule="evenodd" d="M22.8243 21.2687C23.3712 21.8864 23.9091 22.5111 24.438 23.1428C24.7455 23.4928 24.8152 23.8805 24.6475 24.3062C24.5798 24.4287 24.4939 24.5392 24.3896 24.6376C23.9892 24.9592 23.5513 25.0072 23.0756 24.7809C22.9404 24.6894 22.8175 24.586 22.7064 24.4705C22.6108 24.3332 22.498 24.2108 22.3679 24.1037C22.0035 23.6628 21.6299 23.2289 21.2473 22.8022C21.04 22.5484 20.8275 22.2971 20.6097 22.0486C20.4118 21.7236 20.3826 21.3874 20.5224 21.0402C20.7772 20.5956 21.1742 20.3732 21.7134 20.3729C21.9404 20.4766 22.1526 20.6048 22.3502 20.7575C22.5128 20.9245 22.6709 21.0949 22.8243 21.2687Z" fill="#FFFEFE" fill-rule="evenodd"/>
<path clip-rule="evenodd" d="M13.5423 20.347C13.6199 20.7342 13.5237 21.0738 13.2537 21.3658C13.0001 21.5524 12.7596 21.7507 12.5322 21.9606C12.0913 22.2899 11.6578 22.6277 11.2318 22.9741C11.0888 23.0711 10.9534 23.1767 10.8254 23.2908C10.6892 23.3716 10.5557 23.4574 10.4248 23.5486C9.84294 23.7377 9.37416 23.5919 9.01844 23.1115C8.94442 22.9937 8.89011 22.8692 8.85552 22.7382C8.82641 22.5954 8.82808 22.4527 8.86052 22.3103C8.99507 22.0572 9.17112 21.8367 9.38864 21.6486C10.0306 21.141 10.6726 20.6334 11.3146 20.1259C11.4976 19.9941 11.6778 19.8573 11.8552 19.7154C12.0059 19.627 12.1697 19.5719 12.3466 19.5499C12.9416 19.5512 13.3401 19.8169 13.5423 20.347Z" fill="#FFFEFE" fill-rule="evenodd"/>
<path clip-rule="evenodd" d="M17.8787 22.4914C17.9306 22.6401 17.953 22.793 17.9456 22.9503C17.9346 23.187 17.9154 23.4232 17.8878 23.6587C17.8768 23.7688 17.8659 23.8786 17.855 23.9887C17.816 24.3816 17.777 24.7743 17.738 25.1673C17.7239 25.3087 17.7099 25.4501 17.6959 25.5916C17.6881 25.8836 17.6269 26.1632 17.5126 26.4303C17.4428 26.5296 17.3665 26.6253 17.2842 26.7171C16.9019 26.9796 16.4895 27.0219 16.0467 26.8442C15.8856 26.772 15.7543 26.6678 15.6529 26.5313C15.5776 26.4306 15.5218 26.3219 15.4853 26.2053C15.4663 26.1101 15.455 26.0137 15.4515 25.9162C15.4836 25.5502 15.5071 25.1877 15.522 24.8283C15.5571 24.4747 15.5922 24.1211 15.6273 23.7675C15.6382 23.6575 15.6491 23.5476 15.66 23.4375C15.6832 23.1621 15.7146 22.8874 15.7543 22.6138C15.7792 22.5008 15.819 22.3936 15.8737 22.2924C16.0496 22.0161 16.308 21.8473 16.6489 21.7861C17.2415 21.7414 17.6516 21.9766 17.8787 22.4914Z" fill="#FFFEFE" fill-rule="evenodd"/>
<path d="M35.4825 14.471L34.8979 12.243C35.3848 14.1095 35.5298 16.0513 35.3257 17.9707C35.1876 19.2989 34.891 20.6053 34.4423 21.8611C34.0185 23.0449 33.4651 24.1765 32.7927 25.2356C32.2284 26.1255 31.5864 26.9623 30.8744 27.7359C30.27 28.3929 29.6195 29.0047 28.928 29.5667C28.7946 29.6754 28.6604 29.7818 28.5255 29.8858V29.888C27.5719 30.6232 26.5511 31.2644 25.4769 31.8026L25.4759 31.7985C25.4757 31.7986 25.4761 31.7984 25.4759 31.7985C22.5232 33.2742 19.241 33.9419 15.9549 33.7353C11.2487 33.4459 7.00533 31.4208 4.00813 28.0338C2.35095 26.177 1.15283 23.9479 0.512451 21.5301L1.09705 23.7581C1.73758 26.176 2.93567 28.4053 4.59273 30.2625C7.58992 33.6488 11.8333 35.6739 16.5395 35.9633C19.8254 36.1697 23.1074 35.5021 26.0599 34.0267L26.0611 34.0311C27.1353 33.4926 28.1563 32.8513 29.1101 32.116L28.5255 29.8858L29.1101 32.1138C29.2454 32.0093 29.3796 31.9029 29.5126 31.7946C30.2041 31.2326 30.8545 30.6208 31.459 29.9639C32.171 29.1903 32.8132 28.3538 33.378 27.4643C34.0497 26.4048 34.6027 25.2727 35.0267 24.0889C35.4758 22.8334 35.7726 21.5275 35.9103 20.1994C36.1145 18.2795 35.9695 16.3379 35.4825 14.471Z" fill="#0C0C17"/>
<defs>
<linearGradient gradientUnits="userSpaceOnUse" id="paint0_linear_6518_5172" x1="17.7058" x2="17.7058" y1="0.532471" y2="33.24">
<stop stop-color="#F8B045"/>
<stop offset="1" stop-color="#F08C54"/>
</linearGradient>
</defs>
</svg>