<?xml version="1.0" encoding="utf-8"?>
<svg xmlns="http://www.w3.org/2000/svg" fill="none" height="175" viewBox="0 0 157 175" width="157">
<path d="M0.228516 54.1406V120.825C0.228516 128.14 4.125 134.907 10.4824 138.599L68.2461 171.958C74.6035 175.615 82.3965 175.615 88.7539 171.958L146.518 138.599C152.875 134.941 156.771 128.174 156.771 120.825V54.1406C156.771 46.8262 152.875 40.0586 146.518 36.3672L88.7539 3.04199C82.3965 -0.615234 74.6035 -0.615234 68.2461 3.04199L10.4824 36.4014C4.125 40.0586 0.228516 46.8262 0.228516 54.1406Z" fill="url(#paint0_linear_6558_4900)"/>
<path d="M78.4316 114.98C63.2217 114.98 50.8486 102.607 50.8486 87.3975C50.8486 72.1875 63.2217 59.8145 78.4316 59.8145C93.6416 59.8145 106.015 72.1875 106.015 87.3975C106.015 102.607 93.6758 114.98 78.4316 114.98ZM78.4316 73.1103C70.5703 73.1103 64.1787 79.502 64.1787 87.3633C64.1787 95.2246 70.5703 101.616 78.4316 101.616C86.293 101.616 92.6846 95.2246 92.6846 87.3633C92.7187 79.5361 86.3271 73.1103 78.4316 73.1103Z" fill="white"/>
<path d="M72.0059 47.8515V28.2666C72.0059 24.7802 74.6035 21.7724 78.0557 21.4648C82.0205 21.123 85.3359 24.2334 85.3359 28.0957V47.9882C85.3359 51.8847 82.0205 54.9609 78.0557 54.6191C74.6035 54.3457 72.0059 51.3379 72.0059 47.8515Z" fill="white"/>
<path d="M106.322 66.2402C104.613 66.2402 102.904 65.5908 101.605 64.292C99.0078 61.6943 99.0078 57.4561 101.605 54.8584L115.687 40.7764C118.285 38.1787 122.523 38.1787 125.121 40.7764C127.719 43.374 127.719 47.6123 125.121 50.21L111.039 64.292C109.74 65.5908 108.031 66.2402 106.322 66.2402Z" fill="white"/>
<path d="M137.733 93.9941H117.978C114.491 93.9941 111.483 91.3965 111.176 87.9443C110.834 83.9795 113.944 80.6641 117.807 80.6641H137.562C141.049 80.6641 144.057 83.2617 144.364 86.7139C144.706 90.6787 141.596 93.9941 137.733 93.9941Z" fill="white"/>
<path d="M120.336 136.001C118.627 136.001 116.918 135.352 115.619 134.053L101.537 119.971C98.9395 117.373 98.9395 113.135 101.537 110.537C104.135 107.939 108.373 107.939 110.971 110.537L125.053 124.619C127.65 127.217 127.65 131.455 125.053 134.053C123.754 135.352 122.045 136.001 120.336 136.001Z" fill="white"/>
<path d="M71.6641 146.528V126.909C71.6641 123.423 74.2617 120.415 77.7139 120.107C81.6787 119.766 84.9941 122.876 84.9941 126.738V146.631C84.9941 150.527 81.6787 153.603 77.7139 153.262C74.2617 153.022 71.6641 150.015 71.6641 146.528Z" fill="white"/>
<path d="M36.4932 135.933C34.7842 135.933 33.0752 135.283 31.7764 133.984C29.1787 131.387 29.1787 127.148 31.7764 124.551L45.8584 110.469C48.4561 107.871 52.6943 107.871 55.292 110.469C57.8896 113.066 57.8896 117.305 55.292 119.902L41.21 133.984C39.9111 135.283 38.2021 135.933 36.4932 135.933Z" fill="white"/>
<path d="M39.0567 93.9941H19.3008C15.8145 93.9941 12.8067 91.3965 12.499 87.9443C12.1914 83.9795 15.2676 80.6641 19.1641 80.6641H38.9199C42.4063 80.6641 45.4141 83.2617 45.7217 86.7139C46.0635 90.6787 42.9531 93.9941 39.0567 93.9941Z" fill="white"/>
<path d="M50.6436 66.1719C48.9346 66.1719 47.2256 65.5225 45.9268 64.2236L31.8447 50.1416C29.2471 47.5439 29.2471 43.3057 31.8447 40.708C34.4424 38.1104 38.6807 38.1104 41.2783 40.708L55.3604 54.79C57.958 57.3877 57.958 61.626 55.3604 64.2236C54.0615 65.5225 52.3525 66.1719 50.6436 66.1719Z" fill="white"/>
<defs>
<linearGradient gradientUnits="userSpaceOnUse" id="paint0_linear_6558_4900" x1="78.5" x2="78.5" y1="0.299072" y2="174.701">
<stop stop-color="#FBC03E"/>
<stop offset="0.3495" stop-color="#FBBE3F"/>
<stop offset="0.5545" stop-color="#F9B543"/>
<stop offset="0.7222" stop-color="#F6A749"/>
<stop offset="0.8688" stop-color="#F29352"/>
<stop offset="1" stop-color="#ED7A5D"/>
</linearGradient>
</defs>
</svg>