<?xml version="1.0" encoding="utf-8"?>
<svg xmlns="http://www.w3.org/2000/svg" fill="none" height="99" viewBox="0 0 99 99" width="99">
<path d="M97.5086 61.4744C90.8972 87.9925 64.0389 104.131 37.5177 97.5182C11.0073 90.9068 -5.13121 64.0469 1.48323 37.5303C8.09148 11.0092 34.9499 -5.13092 61.4633 1.48043C87.9829 8.09177 104.12 34.9548 97.5086 61.4744Z" fill="url(#paint0_linear_6337_4826)"/>
<path d="M71.3123 42.4478C72.2977 35.8612 67.2827 32.3204 60.4254 29.9584L62.6498 21.036L57.2187 19.6825L55.0531 28.3697C53.6254 28.0139 52.1589 27.6783 50.7018 27.3457L52.8829 18.6012L47.4549 17.2477L45.2289 26.167C44.0471 25.8978 42.887 25.6317 41.7608 25.3518L41.767 25.3239L34.277 23.4537L32.8323 29.2545C32.8323 29.2545 36.8619 30.178 36.7768 30.2352C38.9765 30.7844 39.374 32.24 39.3075 33.394L36.7737 43.5585C36.9253 43.5972 37.1217 43.6528 37.3383 43.7395C37.1573 43.6946 36.964 43.6451 36.7644 43.5972L33.2128 57.8361C32.9436 58.5044 32.2615 59.5068 30.7239 59.1262C30.778 59.2051 26.7763 58.1409 26.7763 58.1409L24.08 64.3578L31.1477 66.1197C32.4626 66.4491 33.7511 66.7941 35.0195 67.1189L32.7719 76.1434L38.1968 77.4969L40.4228 68.5684C41.9047 68.9705 43.3433 69.3418 44.7509 69.6914L42.5327 78.5782L47.9638 79.9317L50.2114 70.9242C59.4725 72.6769 66.4366 71.9699 69.3679 63.5936C71.73 56.8492 69.2503 52.9588 64.3777 50.422C67.9262 49.6037 70.5992 47.2694 71.3123 42.4478ZM58.9033 59.8486C57.2249 66.593 45.8693 62.947 42.1878 62.0328L45.1701 50.077C48.8517 50.9959 60.6574 52.815 58.9033 59.8486ZM60.5832 42.3504C59.0518 48.4853 49.6004 45.3683 46.5345 44.6042L49.2384 33.7606C52.3043 34.5247 62.178 35.9509 60.5832 42.3504Z" fill="white"/>
<defs>
<linearGradient gradientUnits="userSpaceOnUse" id="paint0_linear_6337_4826" x1="0.000610352" x2="0.000610352" y1="-0.000854492" y2="9900.1">
<stop stop-color="#F9AA4B"/>
<stop offset="1" stop-color="#F7931A"/>
</linearGradient>
</defs>
</svg>