<svg viewBox="0 0 941.33 830.81" xmlns="http://www.w3.org/2000/svg" xmlns:xlink="http://www.w3.org/1999/xlink"><radialGradient id="a" cx="440.08" cy="573.32" gradientUnits="userSpaceOnUse" r="357.14"><stop offset=".06" stop-color="#f9eb1e"/><stop offset=".11" stop-color="#f8e420"/><stop offset=".17" stop-color="#f7d329"/><stop offset=".25" stop-color="#f5b637"/><stop offset=".34" stop-color="#f28e4a"/><stop offset=".43" stop-color="#ef5c62"/><stop offset=".51" stop-color="#ec297b"/><stop offset=".6" stop-color="#e8287b"/><stop offset=".69" stop-color="#dc267e"/><stop offset=".77" stop-color="#c92283"/><stop offset=".86" stop-color="#ae1d89"/><stop offset=".94" stop-color="#8b1692"/><stop offset="1" stop-color="#701199"/></radialGradient><radialGradient id="b" cx="1279.88" cy="406.31" gradientTransform="matrix(-1 -0 -.08485123 1 1783.62 0)" gradientUnits="userSpaceOnUse" r="109.83"><stop offset=".46" stop-color="#11e3f9"/><stop offset=".53" stop-color="#13d3f7"/><stop offset=".66" stop-color="#1ba9f3"/><stop offset=".84" stop-color="#2866ec"/><stop offset=".84" stop-color="#2963ec"/><stop offset=".88" stop-color="#3357e4"/><stop offset=".94" stop-color="#4f39d0"/><stop offset="1" stop-color="#7017ba"/></radialGradient><clipPath id="c"><path d="m410.08 446.32c-3.7 43.61 28.66 78.97 72.27 78.97s81.97-35.36 85.67-78.97-28.66-78.97-72.27-78.97-81.97 35.36-85.67 78.97z"/></clipPath><radialGradient id="d" cx="1279.28" cy="419.59" gradientTransform="matrix(-1 -0 .07396185 1 1690.33 0)" gradientUnits="userSpaceOnUse" r="109.83"><stop offset="0" stop-color="#0e839c"/><stop offset=".11" stop-color="#0e748b"/><stop offset=".31" stop-color="#0e4c62"/><stop offset=".6" stop-color="#0e0e1f"/><stop offset=".64" stop-color="#0e0414"/><stop offset=".69" stop-color="#14051f"/><stop offset=".78" stop-color="#26083d"/><stop offset=".9" stop-color="#420e6d"/><stop offset="1" stop-color="#5c1399"/></radialGradient><radialGradient id="e" cx="1280.26" cy="348.19" gradientTransform="matrix(.90132428 -.59499121 -.3665993 -.63270972 -639.82 1327.25)" gradientUnits="userSpaceOnUse" r="120.91"><stop offset="0" stop-color="#f9ea05"/><stop offset=".08" stop-color="#f8e308"/><stop offset=".19" stop-color="#f7d213"/><stop offset=".32" stop-color="#f5b524"/><stop offset=".46" stop-color="#f28d3d"/><stop offset=".61" stop-color="#ef5b5c"/><stop offset=".74" stop-color="#ec297b"/><stop offset=".79" stop-color="#e8287b"/><stop offset=".83" stop-color="#dc257c"/><stop offset=".87" stop-color="#c9207d"/><stop offset=".91" stop-color="#ae1a7f"/><stop offset=".96" stop-color="#8b1281"/><stop offset="1" stop-color="#600884"/><stop offset="1" stop-color="#5f0885"/></radialGradient><filter id="f" filterUnits="userSpaceOnUse"><feOffset dx="22.64" dy="45.28"/><feGaussianBlur result="blur" stdDeviation="45.28"/><feFlood flood-color="#38015b" flood-opacity=".7"/><feComposite in2="blur" operator="in"/><feComposite in="SourceGraphic"/></filter><path d="m285.05 657.6c25.72-14.53 44.2-34.65 55.43-60.34 5.37-12.66 8.8-27.07 10.27-43.25 1.47-16.17.71-31.88-2.25-47.11-5.88-30.21-16.95-55.06-33.2-74.57-18.31-22.17-41.85-35.94-70.6-41.26-11.71-2.14-25.58-2.51-41.57-1.13 28.87-14.27 49.97-32.93 63.27-56.01 15.1-26.21 17.11-52.85 6.03-79.93-12.54-30.64-38.25-47.22-77.12-49.72-8.83-.54-28 .69-57.48 3.7-21.75 2.37-34.88-1.98-39.41-13.04-2.28-5.61-2-10.97.85-16.16 2.86-5.19 7.85-9.21 14.96-12.13 14.75-6.03 32.67-5.04 53.76 2.95 14.91 5.62 24.38 8.8 28.39 9.52 4.01.75 8.56.08 13.65-2.01 6.1-2.5 10.27-7.06 12.53-13.7s1.93-13.51-.98-20.63c-5-12.22-14.98-23.12-29.97-32.71-14.98-9.61-26.74-12.66-35.26-9.18-2.28.94-4.29 2.2-6.01 3.8-5.43 4.9-8.77 7.61-10.04 8.11-1.52.62-3.71 1.08-6.57 1.35-23.88 2.22-42.38 5.99-55.48 11.34-30.77 12.59-53.16 32.23-67.18 58.88-6.36 11.67-9.99 23.87-10.84 36.62-.88 12.75.98 24.72 5.55 35.91 9.26 22.63 27.58 38.74 54.95 48.31 11.23 3.88 22.59 6.24 34.08 7.1 11.48.87 27.48.46 48.01-1.28 11.6-1.04 20.44-.65 26.53 1.16 6.07 1.84 10.16 5.28 12.24 10.36 2.24 5.47 1.15 11.15-3.27 17.03-4.42 5.89-11.34 10.77-20.74 14.61-10.94 4.48-22.48 6.47-34.64 5.96-12.16-.53-22.06-3.38-29.67-8.58-16.11-11.06-26.07-17.46-29.89-19.16-6.47-3.14-12.13-3.73-16.96-1.76s-8 5.66-9.52 11.02c-1.25 4.23-.58 9.45 1.96 15.67 5.3 12.97 13.2 25.29 23.69 36.95 9.06 10.08 17.09 16.38 24.12 18.93-.44.09-.9.18-1.34.27-5.13 1-13.4 2.39-24.79 4.2-5.16.86-9.62 1.66-13.4 2.39-11.46 2.24-20.03 5.83-25.71 10.79-5.69 4.95-7.88 10.74-6.6 17.34 1.66 8.5 7.48 13.6 17.46 15.3 6.92 1.03 11.63 3.27 14.11 6.7s4.84 10.82 7.05 22.14c5.62 28.86 10.83 58 15.65 87.44 4.82 29.43 7.68 49.31 8.57 59.63.62 8.97.3 15.17-1.01 18.56-1.29 3.41-4.52 6.3-9.65 8.7-5.34 2.71-9.01 5.64-10.99 8.76s-2.52 7.04-1.6 11.76c1.32 6.75 5.21 11.65 11.69 14.73 6.47 3.08 14.22 3.72 23.27 1.98 2.56-.5 7.09-1.66 13.6-3.49 10.35-2.85 19.78-5.11 28.28-6.77l14.57-2.82c12.4-2.43 26.8-4.96 43.23-7.59l21.16-3.48 24.63-3.96c18.33-3.58 35.07-9.63 50.21-18.17zm-80.74-18.92c-8.5 1.64-14.91 1.04-19.26-1.83-4.33-2.85-7.32-8.54-8.98-17.03l-30.48-156.55c-1.18-6.08-.71-10.64 1.43-13.72 2.13-3.06 6.43-5.23 12.9-6.5 24.14-4.7 43.23 2.02 57.25 20.13 12.7 16.42 22.28 41.15 28.72 74.19 11.65 59.87-2.21 93.64-41.59 101.31z"/><path d="m256.13 180.46c19.84 19.19 46.18 29.22 79 30.06 33.65.86 63.77-8.33 90.37-27.57 6.31-4.57 11.92-9.39 16.85-14.46 2.87 11.1 17.58 22.36 44.16 33.77 21.97 9.44 38.88 14.61 50.75 15.52 11.86.93 19.4-2.34 22.6-9.78 1.25-2.91 1.66-5.8 1.25-8.67-1.89-10.23-2.7-16.94-2.46-20.12s1.97-8.51 5.16-15.95l16.11-37.5c6.12-14.26 11.93-23.42 17.42-27.5 5.49-4.07 12.46-4.29 20.92-.65 8.83 3.8 13.46 9.73 13.87 17.84.46 10.07-3.04 23.82-10.54 41.23-12.9 30.04-23.02 46.63-30.35 49.76-6.3 2.83-10.08 4.67-11.34 5.54-1.28.88-2.46 2.59-3.54 5.11-3.04 7.07-1.52 13.78 4.58 20.14 5.89 6.11 17.55 12.91 34.97 20.39 25.63 11.01 44.13 17.01 55.51 18.02s18.85-2.67 22.44-11c1.56-3.65 1.84-6.9.82-9.74-3.52-9.57-5.41-15.86-5.71-18.82-.3-2.97.52-7.03 2.43-12.19l25.99-67.79c5.9-15.85 9-28.45 9.29-37.82.3-9.38-2.27-18.73-7.67-28.08-7.78-13.23-19.63-23.24-35.53-30.07-20.7-8.89-39.84-7.84-57.42 3.15-5.48 3.33-9.73 4.34-12.74 3.03-5.05-2.16-6.27-6.27-3.67-12.33.34-.76.77-1.62 1.32-2.57 1.32-2.73 2.07-4.27 2.23-4.66 1.62-3.78 1.74-7.63.34-11.51-1.39-3.89-3.98-6.65-7.77-8.27-4.16-1.8-12.51-3.61-25.01-5.48-12.52-1.85-25.75-3.24-39.71-4.16-15.88-.98-26.71-.83-32.5.5-5.8 1.33-9.79 4.51-11.97 9.56-2.11 4.93-1.19 10.26 2.78 15.98 4.63 6.64 7.03 11.59 7.18 14.88.16 3.28-1.63 9.27-5.36 17.97-6.79 15.79-13.7 30.68-20.77 44.69-5.95 11.79-10.05 19.05-12.26 21.76-2.21 2.72-5.48 4.57-9.78 5.56-.31.07-.59.13-.88.2 6.93-12.33 10.59-25.81 10.96-40.46.44-17.03-3.4-33.48-11.51-49.36-7.85-15.18-18.46-27.63-31.82-37.31-18.63-13.5-40.5-20.61-65.63-21.24-36.13-.93-67.09 9.13-92.91 30.19-24.71 19.98-37.46 46.18-38.3 78.58-.75 29.12 8.53 53 27.85 71.63zm65.04-109.24c.2-7.41 2.16-13.3 5.92-17.67 3.76-4.38 8.66-6.48 14.7-6.32 8.09.47 14.29 5.44 18.58 14.9 4.16 9.31 7.6 21.36 10.31 36.12 2.71 14.78 3.93 27.93 3.63 39.47-.4 15.52-6.71 23.11-18.93 22.81-9.61-.24-16.4-6.06-20.37-17.43-3.98-11.09-7.33-23.78-10.05-38.09-2.73-14.28-3.98-25.56-3.78-33.8z"/><path d="m685.36 432.58c-.66-.61-1.32-.88-1.98-.82-1.2.11-2.09 1.31-2.68 3.61-.11.31-.48 1.53-1.12 3.67-1.08 3.51-1.6 5.6-1.53 6.26.08.83.88 1.17 2.41 1.04l9.76-.9c1.79-.16 2.65-.64 2.58-1.43-.1-1.1-1.59-3.67-4.47-7.73-1.31-1.85-2.29-3.08-2.95-3.69z"/><path d="m550.17 792.78c-4.94-1.42-8.49-3.49-10.65-6.18s-4.62-8.06-7.37-16.16l-28.51-87.57c-24.58-75.11-44.69-121.09-60.35-137.96-11.22-12.31-23.72-19.31-37.5-21-14.58-1.78-27.17 1.53-37.75 9.92-5.03 3.82-8.47 7.92-10.33 12.33-1.85 4.42-3.57 12.47-5.14 24.19-1.49 11.02-4.76 22.07-9.77 33.16-5.02 11.07-14.27 27.56-27.75 49.44l-36.57 59.67c-10.73 17.5-18.72 28.83-23.99 33.91-5.25 5.1-12.5 8.68-21.76 10.72-5.68 1.25-9.72 2.91-12.12 4.96-2.4 2.06-3.85 5.21-4.37 9.43-1.19 9.68 2.82 16.54 12.02 20.58 9.99 4.26 26.04 7.75 48.12 10.47 38.87 4.74 59.29-.99 61.28-17.21.89-7.37-2.67-12.79-10.69-16.26-6.16-2.84-9.76-4.75-10.81-5.79-1.06-1.02-1.38-3.04-1.01-6.05.39-3.26 1.62-6.57 3.7-9.91 2.06-3.36 4.27-5.58 6.63-6.66 3.81-1.75 14.78-1.53 32.92.7 21.54 2.64 38.15 5.5 49.81 8.59 10.84 2.99 15.72 9.06 14.59 18.19-.62 5.19-4.29 8.47-10.96 9.86-5.96 1.21-10.14 2.82-12.53 4.8-2.39 2-3.84 5.03-4.32 9.13-.66 5.31.81 10.11 4.36 14.34s8.68 7.4 15.35 9.45c14.54 4.41 37.22 8.51 68.04 12.27 27.27 3.34 47.18 3.56 59.71.67 12.54-2.89 19.41-9.31 20.62-19.27 1.04-8.46-3.26-14.04-12.9-16.75zm-140.33-100.22c-.39 3.28-4.27 4.47-11.64 3.55l-40.08-4.9c-6.28-.77-9.2-2.85-8.8-6.27.34-2.73 4.22-10.68 11.65-23.89 4.44-8.04 7.02-12.64 7.71-13.81 4.4-8.73 9.03-12.79 13.95-12.2 2.72.34 5.15 2.03 7.28 5.06 2.12 3.02 5.01 8.84 8.66 17.45 8.06 18.84 11.84 30.51 11.28 35.01z"/><path d="m937.76 290.44c-1.41-1.11-4.16-1.71-8.29-1.79-18.96.13-34.33-4.43-46.11-13.68-3.67-2.89-9.66-9.17-17.96-18.83-8.68-10.31-17.24-18.77-25.66-25.39-21.19-16.63-44.91-26.11-71.23-28.42-10.67-.88-20.56.44-29.68 3.93s-16.53 8.87-22.21 16.11c-10.79 13.72-14.63 30.08-11.56 49.08.86 5.57.71 9.12-.48 10.62-1.02 1.3-3.33 1.57-6.94.84-8.54-1.81-17.05-1.6-25.53.65-8.49 2.24-14.77 5.95-18.84 11.13-6.1 7.78-7.69 18.69-4.72 32.71.91 4.4.91 7.19-.02 8.37-1.2 1.52-3.92 1.65-8.17.4-4.76-1.28-9.69-1.06-14.82.69-5.12 1.73-9.34 4.71-12.65 8.94-4.75 6.04-7.28 13.48-7.59 22.33s1.65 17.71 5.84 26.59c6.79 14.15 17.68 28.24 32.64 42.27-4.64 5.89-9.25 14.78-13.51 27.85-2.03 6.23-3.12 12.35-3.43 18.33l-6.58 16.59-11.21 19.42s15.06-21.52 23.07-4.52c6.35 16.61 17.42 31.15 28.32 42.55.12.13.22.27.34.4 3.8 4.19 6.01 6.84 6.64 7.97s1.01 2.84 1.12 5.15c.18 3.72-2.08 8.84-6.78 15.35-3.86 5.33-7.02 9.04-9.48 11.15-2.47 2.11-5.05 3.23-7.74 3.36-4.23.2-8.88-2.85-13.93-9.16-7.79-9.77-11.8-16.97-12.02-21.58-.11-2.31 1.75-6.19 5.6-11.64 2.65-3.59 3.9-7.06 3.74-10.39-.21-4.36-2.22-8.15-6.04-11.37s-8.77-5.27-14.84-6.13c-13.33-2.06-32.56-2.48-57.68-1.27-30.38 1.46-51.95 4.39-64.71 8.79-12.76 4.41-18.94 10.9-18.53 19.49.25 5.13 2.24 9.14 5.98 12.05 1.87 1.45 7.24 3.57 16.11 6.36 6.26 2.01 12.88 6.13 19.86 12.34 16.11 14.39 31.86 30.65 47.25 48.8 7.36 8.77 12.2 15.95 14.53 21.56 2.32 5.6 3.73 13.54 4.23 23.79 1.58 32.94.54 53.93-3.14 62.97-1.6 4.06-6 7.55-13.18 10.46-9.58 3.93-14.17 9.87-13.79 17.82.49 10.25 8.77 16.73 24.83 19.42 19.04 3.19 39.13 4.29 60.28 3.27 51.53-2.48 76.87-12.43 76.03-29.86-.35-7.31-5.32-13.17-14.91-17.59-5.78-2.68-9.64-5.48-11.58-8.41-1.94-2.92-3.42-8.28-4.43-16.07-1.76-12.64-3-26.38-3.71-41.26-.85-17.69.65-31.09 4.52-40.2s14.06-23.51 30.59-43.19c13.62-16.07 23.02-26.32 28.2-30.74s11.39-7.51 18.63-9.28c7.88-1.79 13.35-4.11 16.43-6.96 1.9-1.76 3.16-3.98 3.79-6.66 4.44-13.35-5.57-31.96-26.29-54.05 11.67 1.47 22.73.94 33.17-1.6 16.05-3.97 28.37-11.42 36.94-22.34 5.26-6.7 8.53-14.26 9.82-22.68 1.28-8.41.39-16.46-2.69-24.1-3.71-9.74-11.94-19.61-24.69-29.62-8.43-6.63-22.48-15.66-42.15-27.07-9.35-5.44-16.2-9.86-20.52-13.25-6.37-5.01-10.59-10.02-12.67-15.06-2.07-5.03-1.67-9.39 1.22-13.05 4.49-5.73 9.61-6.34 15.33-1.85 1.51 1.19 3.55 3.06 6.1 5.58 3.12 3.16 6.45 6.12 10.03 8.91 14.68 11.55 29.86 19.97 45.52 25.28 15.65 5.31 30.43 7.13 44.31 5.46 15.52-1.97 28.33-9.38 38.42-22.23 1.44-1.83 2.89-4.01 4.35-6.54 1.56-2.43 2.47-3.82 2.73-4.14 1.02-1.3 3.62-2.06 7.8-2.25 6.52-.3 13.36-2.17 20.53-5.63 7.17-3.44 12.5-7.39 15.97-11.82 3.22-4.09 5.03-8.51 5.39-13.19.36-4.7-.8-8.1-3.51-10.22zm-211.97 165.74c1.07 1.77 1.93 2.92 2.58 3.45.65.52 1.6.83 2.85.92 2.42.15 3.73 1.24 3.92 3.31.22 2.42-1.08 4.3-3.9 5.63s-7.55 2.3-14.19 2.91c-7.5.69-13.09.89-16.77.59-1.69-.14-3.06-.62-4.13-1.45-1.06-.82-1.65-1.88-1.77-3.17-.09-.99.09-1.79.56-2.38s1.37-1.19 2.72-1.78c1.51-.67 2.21-1.64 2.09-2.9-.2-2.22-1.67-3.41-4.39-3.56-2.92-.14-7.01.04-12.25.52-4.42.41-7.03.91-7.84 1.52-.5.38-.91 1.02-1.23 1.92s-.44 1.75-.37 2.54c.07.73.25 1.19.55 1.38s1.25.46 2.86.81c2.08.41 3.2 1.51 3.36 3.31.37 3.95-4.18 6.36-13.64 7.23-5.38.49-9.36.49-11.95-.01-2.39-.48-3.69-1.9-3.9-4.25-.1-1.03.09-1.85.55-2.46.46-.62 1.34-1.21 2.62-1.8 2.09-.96 3.62-2.18 4.61-3.67.98-1.47 2.3-4.57 3.94-9.27l5.6-16.03c2.07-5.88 3.42-10.26 4.04-13.15.62-2.88.82-5.67.61-8.36-.23-2.86-.24-4.86-.02-6 .21-1.13.82-2.29 1.82-3.45 2.08-2.53 4.89-3.97 8.44-4.29 3.35-.32 6.67.71 9.97 3.04 4.57 3.2 11.71 13.06 21.4 29.61l11.26 19.3zm104.63-179.7c-1.54 9.19-6.85 19.56-15.92 31.13-5.77 7.35-12.05 11.89-18.83 13.64-6.79 1.75-13.04.37-18.77-4.13-5.83-4.59-7.77-11.78-5.82-21.61s7.5-20.57 16.67-32.23c5.35-6.81 11.28-10.97 17.8-12.49 6.51-1.52 12.47-.15 17.88 4.09 6.21 5.22 8.53 12.43 7 21.61z"/><circle cx="439.34" cy="382.02" fill="url(#a)" r="210.33"/><path d="m439.34 600.27c-58.3 0-113.1-22.7-154.33-63.92-41.22-41.22-63.92-96.03-63.92-154.33s22.7-113.1 63.92-154.33c41.22-41.22 96.03-63.92 154.33-63.92s113.1 22.7 154.33 63.92c41.22 41.22 63.92 96.03 63.92 154.33s-22.7 113.1-63.92 154.33c-41.22 41.22-96.03 63.92-154.33 63.92zm0-420.65c-111.6 0-202.4 90.8-202.4 202.4s90.8 202.4 202.4 202.4 202.4-90.8 202.4-202.4-90.8-202.4-202.4-202.4z"/><path d="m568.2 297.01v-5.28c0-2.77-1.81-5.22-4.45-6.03l-108.14-33.36c-4.06-1.25-8.18 1.78-8.18 6.03v40.89l.14.04v68.05h6.85v-66l107.04 32.04v112.97h.86c3.31 0 5.99-2.68 5.99-5.99v-143.36z"/><path d="m410.08 446.32c-3.7 43.61 28.66 78.97 72.27 78.97s81.97-35.36 85.67-78.97-28.66-78.97-72.27-78.97-81.97 35.36-85.67 78.97z" fill="url(#b)"/><g clip-path="url(#c)"><path d="m365.33 417.02c3.23 43.61 41.2 78.97 84.82 78.97 43.61 0 76.35-35.36 73.13-78.97-3.23-43.61-41.2-78.97-84.82-78.97-43.61 0-76.35 35.36-73.13 78.97z" fill="url(#d)"/></g><path d="m299.02 376c-6.73 43.01 22.69 77.88 65.7 77.88s83.34-34.87 90.07-77.88-22.69-77.88-65.7-77.88-83.34 34.87-90.07 77.88z" fill="url(#e)" filter="url(#f)"/></svg>