<svg width="436" height="314" viewBox="0 0 436 314" fill="none" xmlns="http://www.w3.org/2000/svg">
<ellipse cx="218" cy="433" rx="541" ry="182" fill="#14141E"/>
<g opacity="0.4">
<path fill-rule="evenodd" clip-rule="evenodd" d="M292.996 252.364C292.998 252.324 293 252.283 293 252.243L293 252.235L293 252.227C293 252.187 292.998 252.146 292.996 252.106V244.914C292.976 245.217 292.884 245.518 292.721 245.814V251.213L292.721 251.213V245.814C292.562 246.101 292.342 246.382 292.063 246.655V246.655C291.78 246.933 291.444 247.202 291.058 247.461V249.566L291.058 247.461C290.652 247.736 290.201 248 289.706 248.252V248.779L289.679 248.765V248.252C289.508 248.339 289.334 248.425 289.155 248.509C279.173 243.822 250.873 240.442 217.52 240.442C184.153 240.442 155.843 243.825 145.872 248.515C143.386 247.345 142.04 246.093 142.04 244.793V252.235V252.699V259.677V259.677V260.141V267.119V267.119V267.583V275.025C142.04 278.388 151.056 281.424 165.519 283.572V276.13V275.667L165.528 275.669V276.138V283.58C167.66 283.899 169.921 284.196 172.287 284.475V284.467C174.155 284.686 176.09 284.891 178.09 285.083V277.64V277.177L178.09 277.177V277.641V285.083C179.827 285.249 181.606 285.404 183.43 285.548V278.106V277.644V277.644L183.43 277.644V278.106V285.548C185.109 285.68 186.823 285.803 188.571 285.918V285.911C190.223 286.02 191.903 286.118 193.613 286.206V286.212C195.265 286.3 196.939 286.377 198.636 286.444V279.002V278.54H198.636V278.541V279.006V286.448C200.319 286.514 202.02 286.572 203.741 286.621V279.179V278.716L203.755 278.717V279.179V286.621C205.485 286.671 207.242 286.711 209.013 286.742V286.772C210.837 286.803 212.681 286.825 214.546 286.838V286.808H217.52H220.462L220.462 286.805C222.622 286.792 224.753 286.765 226.856 286.725V286.728C229.338 286.68 231.789 286.612 234.196 286.527L234.196 279.089V286.531C237.809 286.403 241.313 286.237 244.707 286.033V278.59V278.124L244.725 278.123V278.123V278.587V286.029C252.073 285.602 259.31 284.928 266.353 284.016V276.574V276.112V276.112L266.353 276.112V276.112V276.58V284.022C269.162 283.653 271.918 283.227 274.608 282.744L274.607 282.739C276.338 282.428 277.954 282.103 279.456 281.766V274.324V273.861L279.456 273.861V274.324V281.766C280.717 281.484 281.901 281.192 283.006 280.892C283.993 280.624 284.912 280.351 285.764 280.069C286.529 279.818 287.26 279.552 287.953 279.272V279.265C288.567 279.018 289.143 278.758 289.679 278.485V271.043V270.59L289.706 270.576V270.579V271.043V278.485C290.2 278.232 290.651 277.968 291.058 277.694L291.058 270.252V277.694C291.444 277.434 291.78 277.164 292.063 276.886V276.886C292.341 276.613 292.561 276.332 292.721 276.046V268.604V268.141L292.721 268.141V268.604V276.046C292.884 275.75 292.976 275.449 292.996 275.146V267.704V267.248C292.998 267.208 293 267.167 293 267.127L293 267.119L293 267.112C293 267.071 292.998 267.031 292.996 266.99V260.262V259.806C292.998 259.766 293 259.725 293 259.685L293 259.677L293 259.67C293 259.629 292.998 259.589 292.996 259.548V252.82V252.364ZM292.721 253.72V258.655L292.721 258.656V253.72V253.257L292.721 253.257V253.72ZM289.679 263.147V263.6V263.649L289.706 263.663V263.6V263.137V263.134L289.679 263.147ZM289.679 255.705L289.706 255.691V255.694V256.158V256.221L289.679 256.207V256.158V255.705ZM292.721 261.162V260.699L292.721 260.699V261.162V266.098L292.721 266.097V261.162Z" fill="url(#paint0_radial_1453_3052)"/>
<path d="M217.52 256.586C259.206 256.586 293 251.306 293 244.793C293 238.28 259.206 233 217.52 233C175.834 233 142.04 238.28 142.04 244.793C142.04 251.306 175.834 256.586 217.52 256.586Z" fill="url(#paint1_radial_1453_3052)"/>
</g>
<path d="M256.153 158.834C255.176 158.75 254.292 159.586 254.17 160.71L247.149 208.509C247.007 209.444 247.578 210.308 248.399 210.399L273.98 213.155C278.464 213.554 282.14 208.768 281.218 203.735L276.691 179.023C276.092 175.649 274.763 172.448 272.795 169.636L256.153 158.834Z" fill="url(#paint2_radial_1453_3052)"/>
<path d="M256.153 158.834C255.176 158.75 254.292 159.586 254.17 160.71L247.149 208.509C247.007 209.444 247.578 210.308 248.399 210.399L273.98 213.155C278.464 213.554 282.14 208.768 281.218 203.735L276.691 179.023C276.092 175.649 274.763 172.448 272.795 169.636L256.153 158.834Z" stroke="url(#paint3_radial_1453_3052)"/>
<path d="M177.667 160.417C178.626 160.346 179.464 161.177 179.546 162.281L184.855 209.252C184.959 210.179 184.377 211.012 183.565 211.089L158.403 213.434C153.996 213.764 150.551 209.018 151.619 204.099L156.869 179.92C157.566 176.621 158.972 173.501 160.994 170.773L177.667 160.417Z" fill="url(#paint4_radial_1453_3052)"/>
<path d="M177.667 160.417C178.626 160.346 179.464 161.177 179.546 162.281L184.855 209.252C184.959 210.179 184.377 211.012 183.565 211.089L158.403 213.434C153.996 213.764 150.551 209.018 151.619 204.099L156.869 179.92C157.566 176.621 158.972 173.501 160.994 170.773L177.667 160.417Z" stroke="url(#paint5_radial_1453_3052)"/>
<path d="M247.672 215.34C247.738 213.097 233.719 211.001 216.358 210.659C198.998 210.317 184.87 211.858 184.804 214.101C184.738 216.344 198.757 218.44 216.118 218.782C233.478 219.124 247.606 217.583 247.672 215.34Z" fill="url(#paint6_radial_1453_3052)"/>
<path d="M221.592 9.44629L221.714 9.45327L221.592 9.44629Z" fill="url(#paint7_radial_1453_3052)"/>
<path d="M221.253 9.41992L221.399 9.4259L221.253 9.41992Z" fill="url(#paint8_radial_1453_3052)"/>
<path d="M257.358 49.4229L257.296 49.3036L257.279 49.2458L257.187 49.0727L257.121 48.9486L256.998 48.7217C256.943 48.6181 256.866 48.4764 256.809 48.3736L256.617 48.0234C256.559 47.9178 256.484 47.7817 256.423 47.6769L256.229 47.3303C256.184 47.2479 256.129 47.1506 256.075 47.0587L256.059 47.0037C256.059 47.0037 256.059 47.0037 256.053 46.9844L255.96 46.8176L255.874 46.6693L255.865 46.6362L255.665 46.2913L255.6 46.1818L255.462 45.9444C255.413 45.86 255.349 45.7533 255.295 45.6615L255.282 45.6147L255.161 45.4169L255.085 45.2898L255.08 45.2733C255.017 45.1693 254.935 45.032 254.872 44.9308L254.664 44.5883L254.453 44.2465L254.283 43.9735L254.24 43.9084C254.234 43.8891 254.234 43.8891 254.229 43.8699C254.229 43.8699 254.229 43.8699 254.229 43.8699C254.167 43.7714 254.09 43.6506 254.03 43.5576L253.924 43.3913L253.817 43.2195L253.598 42.8829L253.38 42.5464L236.486 16.7071L236.428 16.6224L236.347 16.4997L236.341 16.4776C236.328 16.4308 236.283 16.3929 236.256 16.3502L236.247 16.3199L236.243 16.3061C236.23 16.2593 236.185 16.2214 236.159 16.1814C236.155 16.1754 236.154 16.1689 236.153 16.1622C236.153 16.1622 236.153 16.1622 236.158 16.1787C236.112 16.1144 236.07 16.052 236.025 15.9905L235.994 15.9485C235.939 15.8691 235.884 15.7954 235.83 15.7275C235.79 15.6706 235.75 15.6165 235.703 15.5613C235.52 15.3159 235.406 15.182 235.402 15.18L235.346 15.1099C235.346 15.1099 235.337 15.0796 235.313 15.0688L235.137 14.86C235.13 14.8495 235.122 14.8398 235.113 14.831C235.067 14.7758 235.016 14.7159 234.963 14.6567L234.956 14.632L234.926 14.6018C234.898 14.5681 234.866 14.5325 234.836 14.4996C234.825 14.4844 234.812 14.4701 234.799 14.4566L234.793 14.4345L234.787 14.4153L234.744 14.371L234.475 14.0818L234.437 14.0422L234.334 13.9378L234.163 13.7573C233.966 13.546 233.678 13.2832 233.463 13.0858C233.302 12.9384 233.144 12.7992 232.987 12.6656L232.966 12.6476L232.973 12.6696L232.74 12.4715L232.458 12.2544C229.407 9.67076 225.553 8.18057 221.517 8.02309L221.347 8.01249L221.267 8.00874L221.199 8.0045L221.174 8.01177L221.005 8.00393L220.863 7.99707L220.844 8.00273L220.706 7.99782L220.689 8.00267L220.628 8.00231L220.573 8.00035L220.539 8.01005L220.411 8.00821L220.389 8.01468L220.335 8.01547L220.295 8.02679L220.244 8.02676C219.973 8.02438 219.519 8.02727 218.947 8.0641L218.887 8.0665L218.859 8.07459L218.74 8.08215L218.72 8.0878L218.584 8.10021L218.442 8.11148L218.408 8.12119L218.372 8.13169L218.349 8.13816L218.102 8.16202L217.931 8.18137L217.9 8.19027L217.745 8.20833L217.269 8.27403L217.208 8.29181L217.168 8.30313L217.118 8.31768L217.07 8.33142L216.781 8.37922L216.493 8.43253C214.779 8.7521 213.115 9.29859 211.547 10.0571L211.318 10.1679L211.27 10.1817L211.005 10.3148L210.902 10.3683L210.611 10.5269L210.678 10.4866L210.416 10.628L210.341 10.6735L210.316 10.6807L210.291 10.688L210.271 10.6937L210.246 10.7009L209.936 10.8797L209.869 10.92L209.679 11.0376L209.609 11.0787L209.466 11.1735C209.414 11.2035 209.366 11.2353 209.315 11.2708L209.276 11.2821C209.173 11.3475 209.07 11.4191 208.963 11.4916L208.851 11.5657L208.823 11.5738L208.778 11.5868L208.753 11.594L208.617 11.69L208.597 11.6956C208.421 11.821 208.238 11.9544 208.055 12.0968L208.005 12.135L207.988 12.1398C207.812 12.2743 207.635 12.4178 207.454 12.5685L207.244 12.7454C207.023 12.9345 206.727 13.1928 206.521 13.3953C206.362 13.5458 206.173 13.7343 206.001 13.9062L205.842 14.0685L205.549 14.3886L205.495 14.443L205.463 14.4791L205.311 14.6453L205.275 14.6885L205.247 14.7175L205.198 14.7703L204.97 15.03C204.861 15.1569 204.776 15.2619 204.66 15.4177C204.628 15.4533 204.598 15.4907 204.571 15.5298L204.443 15.6951L204.426 15.6999L203.991 16.2965C197.985 24.7679 191.978 33.2372 185.972 41.7044L185.74 42.034L185.508 42.3663L185.335 42.6189L185.279 42.6978L185.051 43.032L184.823 43.3662L184.598 43.7024L184.374 44.0386L184.166 44.3699L183.959 44.704L183.753 45.0409C183.728 45.0808 183.699 45.128 183.667 45.1731L183.536 45.3809L183.429 45.5488C183.26 45.8152 183.096 46.0773 182.942 46.3306L182.896 46.4034C182.832 46.5056 182.747 46.6433 182.692 46.7458L182.491 47.1019C182.429 47.2032 182.348 47.3429 182.287 47.4442L182.086 47.8003L181.885 48.1564L181.685 48.5126C181.132 49.4446 184.091 50.4364 190.729 51.2877C204.35 53.0219 228.321 53.5101 244.26 52.3508C253.465 51.6499 257.974 50.5601 257.358 49.4229Z" fill="url(#paint9_radial_1453_3052)"/>
<path d="M244.63 225.97C244.63 225.97 244.63 225.97 244.635 225.987C244.634 225.981 244.633 225.975 244.63 225.97Z" fill="url(#paint10_radial_1453_3052)"/>
<path d="M244.843 215.617L244.848 215.637C244.851 215.643 244.853 215.649 244.854 215.656L244.859 215.675C244.86 215.682 244.862 215.688 244.865 215.694C244.865 215.694 244.865 215.694 244.87 215.711L244.835 216.642C244.835 216.642 244.632 225.838 244.629 225.946C243.757 225.539 242.36 226.166 242.557 225.65C243.052 224.38 239.729 225.542 238.304 225.735C238.464 225.689 238.343 225.45 238.199 225.372C237.752 225.128 237.255 224.984 236.743 224.951C236.693 224.939 236.641 224.941 236.592 224.955C236.543 224.969 236.498 224.996 236.463 225.032C236.407 225.114 236.439 225.224 236.397 225.31C236.327 225.456 236.132 225.441 235.965 225.409L234.848 225.167C234.883 225.476 234.414 225.543 234.106 225.477C233.105 225.265 232.048 224.926 231.026 224.854C230.06 224.784 229.027 224.864 228.051 224.869C225.974 224.872 223.906 224.822 221.835 224.838C215.959 224.575 212.022 224.39 206.141 224.561C203.669 224.627 200.32 224.154 197.854 224.302C195.869 224.416 194.689 223.385 192.717 223.638C191.091 223.848 192.056 224.395 190.69 225.383C190.665 225.39 187.235 224.919 187.224 224.934C187.142 224.991 187.077 225.07 187.037 225.161C187.029 225.177 187.024 225.195 187.022 225.213C187.017 225.231 187.014 225.25 187.014 225.269C187.01 225.258 187.006 225.247 187.004 225.236L187.211 215.839L187.228 214.996C187.236 214.93 187.259 214.866 187.295 214.809C187.331 214.752 187.379 214.704 187.437 214.668C188.42 213.871 190.038 213.81 191.218 213.633C192.927 213.372 194.648 213.174 196.372 213.022C199.762 212.72 203.166 212.594 206.567 212.531C213.957 212.385 221.344 212.519 228.725 212.931C231.843 213.107 234.963 213.331 238.068 213.768C239.649 213.988 241.199 214.271 242.74 214.629C243.448 214.791 244.376 214.872 244.818 215.52C244.818 215.52 244.822 215.534 244.824 215.542C244.827 215.548 244.829 215.555 244.829 215.561C244.829 215.561 244.829 215.561 244.836 215.583C244.835 215.595 244.837 215.607 244.843 215.617Z" fill="url(#paint11_radial_1453_3052)"/>
<path d="M244.628 225.992C244.662 224.415 231.791 222.979 215.878 222.783C199.966 222.587 187.039 223.706 187.004 225.283C186.969 226.859 199.841 228.296 215.753 228.492C231.666 228.687 244.593 227.568 244.628 225.992Z" fill="url(#paint12_radial_1453_3052)"/>
<path d="M266.959 99.8771L266.962 99.8875C266.968 99.9062 266.961 99.9302 266.954 99.9533C266.952 99.9607 266.95 99.968 266.948 99.9751L266.959 99.8771ZM266.959 99.8771L266.964 99.8394L267.016 99.4008C266.995 99.5472 266.975 99.7108 266.958 99.8737L266.959 99.8771ZM262.562 61.794C261.805 59.6746 260.962 57.5888 260.034 55.5367C259.913 55.2697 259.796 55.0032 259.68 54.7391C258.613 52.3135 257.635 50.0888 254.7 49.5108C246.765 47.9512 238.636 47.4618 230.551 47.1473C222.743 46.8455 214.921 46.7057 207.117 46.8916C206.42 46.9088 205.719 46.9245 205.014 46.9402C198.215 47.0923 191.141 47.2505 184.547 48.8053C183.83 48.9313 183.144 49.1971 182.53 49.5871C181.834 50.0863 181.394 50.8516 180.987 51.5982C172.569 67.0508 169.156 84.7715 170.954 102.109C170.955 102.115 170.956 102.121 170.959 102.126C170.965 102.148 170.966 102.171 170.968 102.195C170.968 102.21 170.969 102.226 170.971 102.242C170.974 102.265 170.979 102.31 170.983 102.356C170.986 102.389 170.989 102.423 170.992 102.45C170.995 102.482 170.998 102.504 171 102.523C171.003 102.545 171.005 102.564 171.008 102.589C171.01 102.61 171.013 102.64 171.017 102.672C171.021 102.712 171.026 102.755 171.029 102.789C171.035 102.844 171.041 102.898 171.047 102.952C171.054 103.019 171.061 103.084 171.069 103.147L171.081 103.191L171.798 109.005L173.636 124.086L176.202 144.861L179.037 167.81L181.703 189.406L183.764 206.089C183.869 206.939 183.94 207.829 184.012 208.73C184.165 210.656 184.323 212.635 184.827 214.389C185.251 214.256 185.655 214.102 186.059 213.948C186.847 213.648 187.631 213.349 188.543 213.218C196.788 212.031 205.148 211.89 213.457 211.928C223.713 211.967 234.009 212.258 244.104 213.907C245.42 214.123 246.595 214.443 247.665 215.238C248.086 214.186 248.234 212.901 248.376 211.67C248.44 211.122 248.502 210.585 248.586 210.084L249.516 204.54L251.373 193.43L258.976 148.165L265.285 110.588C266.715 102.088 267.889 93.7333 267.345 85.0902C266.923 78.3353 265.699 71.6596 263.697 65.2C263.342 64.0558 262.964 62.9205 262.562 61.794Z" fill="url(#paint13_radial_1453_3052)"/>
<path d="M266.959 99.8771L266.962 99.8875C266.968 99.9062 266.961 99.9302 266.954 99.9533C266.952 99.9607 266.95 99.968 266.948 99.9751L266.959 99.8771ZM266.959 99.8771L266.964 99.8394L267.016 99.4008C266.995 99.5472 266.975 99.7108 266.958 99.8737L266.959 99.8771ZM262.562 61.794C261.805 59.6746 260.962 57.5888 260.034 55.5367C259.913 55.2697 259.796 55.0032 259.68 54.7391C258.613 52.3135 257.635 50.0888 254.7 49.5108C246.765 47.9512 238.636 47.4618 230.551 47.1473C222.743 46.8455 214.921 46.7057 207.117 46.8916C206.42 46.9088 205.719 46.9245 205.014 46.9402C198.215 47.0923 191.141 47.2505 184.547 48.8053C183.83 48.9313 183.144 49.1971 182.53 49.5871C181.834 50.0863 181.394 50.8516 180.987 51.5982C172.569 67.0508 169.156 84.7715 170.954 102.109C170.955 102.115 170.956 102.121 170.959 102.126C170.965 102.148 170.966 102.171 170.968 102.195C170.968 102.21 170.969 102.226 170.971 102.242C170.974 102.265 170.979 102.31 170.983 102.356C170.986 102.389 170.989 102.423 170.992 102.45C170.995 102.482 170.998 102.504 171 102.523C171.003 102.545 171.005 102.564 171.008 102.589C171.01 102.61 171.013 102.64 171.017 102.672C171.021 102.712 171.026 102.755 171.029 102.789C171.035 102.844 171.041 102.898 171.047 102.952C171.054 103.019 171.061 103.084 171.069 103.147L171.081 103.191L171.798 109.005L173.636 124.086L176.202 144.861L179.037 167.81L181.703 189.406L183.764 206.089C183.869 206.939 183.94 207.829 184.012 208.73C184.165 210.656 184.323 212.635 184.827 214.389C185.251 214.256 185.655 214.102 186.059 213.948C186.847 213.648 187.631 213.349 188.543 213.218C196.788 212.031 205.148 211.89 213.457 211.928C223.713 211.967 234.009 212.258 244.104 213.907C245.42 214.123 246.595 214.443 247.665 215.238C248.086 214.186 248.234 212.901 248.376 211.67C248.44 211.122 248.502 210.585 248.586 210.084L249.516 204.54L251.373 193.43L258.976 148.165L265.285 110.588C266.715 102.088 267.889 93.7333 267.345 85.0902C266.923 78.3353 265.699 71.6596 263.697 65.2C263.342 64.0558 262.964 62.9205 262.562 61.794Z" stroke="url(#paint14_radial_1453_3052)"/>
<path d="M258.539 52.3452C258.555 52.4013 258.588 52.4525 258.616 52.5081L258.539 52.3452Z" fill="url(#paint15_radial_1453_3052)"/>
<path d="M178.517 160.047C178.703 162.418 178.66 164.804 178.954 167.167L177.042 151.673C177.393 154.488 178.296 157.206 178.517 160.047Z" fill="url(#paint16_radial_1453_3052)"/>
<path d="M255.866 166.667C256.041 165.4 256.273 163.711 256.39 162.44C256.673 159.814 257.428 157.273 257.886 154.681L255.878 166.664" fill="url(#paint17_radial_1453_3052)"/>
<path d="M227.711 125.8C240.729 122.042 248.288 108.623 244.595 95.8263C240.901 83.03 227.353 75.7027 214.335 79.4603C201.317 83.218 193.758 96.6376 197.452 109.434C201.146 122.23 214.693 129.558 227.711 125.8Z" fill="url(#paint18_radial_1453_3052)"/>
<path opacity="0.9" d="M237.775 97.6855C239.007 101.98 238.512 106.592 236.391 110.567C234.271 114.541 230.687 117.574 226.384 119.036C222.08 120.497 217.386 120.277 213.274 118.419C209.162 116.562 205.947 113.21 204.295 109.058C204.094 108.554 203.917 108.035 203.764 107.503C202.552 103.09 203.158 98.3686 205.449 94.361C207.74 90.3535 211.533 87.3824 216.006 86.0913C220.478 84.8003 225.271 85.2932 229.346 87.4632C233.42 89.6333 236.449 93.3059 237.775 97.6855Z" fill="url(#paint19_linear_1453_3052)"/>
<path d="M221.872 98.3354C221.877 98.3423 221.879 98.3491 221.884 98.356C221.938 98.4569 221.985 98.5464 222.021 98.6175C222.057 98.6886 222.083 98.7414 222.094 98.7712C223.711 102.201 218.756 107.346 218.737 107.362C218.678 107.412 218.647 107.481 218.647 107.552C218.647 107.612 218.669 107.671 218.711 107.72C218.716 107.724 218.718 107.729 218.723 107.733L219.777 108.754C219.878 108.853 220.042 108.862 220.155 108.77C221.228 107.827 222.132 106.722 222.835 105.497C223.446 104.43 223.794 103.462 223.934 102.804L223.934 102.802C224.093 102.246 224.067 101.719 224.578 102.662C224.644 102.79 224.708 102.919 224.767 103.047L224.77 103.049L224.777 103.065C224.85 103.224 224.919 103.384 224.983 103.547C224.992 103.57 224.999 103.591 225.009 103.611C225.03 103.664 225.049 103.717 225.068 103.77C225.068 103.77 225.099 103.852 225.127 103.939C225.156 104.026 225.222 104.242 225.302 104.538C225.319 104.598 225.383 104.634 225.444 104.618C225.475 104.609 225.504 104.588 225.518 104.561C225.738 104.148 226.005 103.671 226.318 103.077C226.349 103.022 226.353 102.958 226.33 102.898C226.211 102.604 226.032 102.217 225.662 101.579C225.191 100.765 224.649 99.9915 224.138 99.2002C223.726 98.5625 223.328 97.9179 222.949 97.2596C222.876 97.1311 222.802 97.0003 222.729 96.8696C222.698 96.8145 222.627 96.7939 222.573 96.8237C222.551 96.8329 222.535 96.8512 222.525 96.8719L221.862 98.1175C221.832 98.1886 221.834 98.2689 221.872 98.3354Z" fill="url(#paint20_linear_1453_3052)"/>
<path d="M226.948 105.173C226.917 104.926 226.872 104.68 226.818 104.435C226.813 104.41 226.73 104.086 226.666 103.836C226.652 103.774 226.588 103.738 226.526 103.754C226.493 103.763 226.467 103.783 226.451 103.811L225.584 105.44C225.568 105.469 225.56 105.504 225.558 105.536C225.52 106.818 225.127 107.825 224.876 108.259C224.365 109.14 223.629 109.789 222.672 110.179C221.349 110.72 220.013 110.711 218.709 110.124C218.583 110.066 218.463 110.007 218.347 109.942C217.755 109.621 217.246 109.169 216.86 108.628C216.566 108.215 216.339 107.747 216.173 107.229C215.911 106.403 215.953 105.575 216.143 104.74C216.434 103.455 217.049 102.318 217.783 101.226C218.744 99.799 219.67 98.3515 220.466 96.833C220.518 96.7344 220.57 96.6334 220.62 96.5325L220.624 96.521C220.636 96.4981 220.65 96.4752 220.664 96.4522C220.719 96.3765 220.773 96.3742 220.825 96.4499C220.861 96.5073 220.894 96.5669 220.925 96.6289C220.951 96.6793 221.155 97.0899 221.41 97.6083C221.439 97.6657 221.507 97.6886 221.564 97.6634C221.588 97.6542 221.607 97.6359 221.619 97.6129L222.315 96.3031C222.348 96.2389 222.348 96.1632 222.315 96.0967C222.184 95.8467 222.057 95.592 221.931 95.3374C221.796 95.0553 221.671 94.7571 221.524 94.4726C221.37 94.1744 221.117 94.0047 220.764 94.0001C220.414 93.9955 220.16 94.1584 219.992 94.4497C219.961 94.5047 219.933 94.5644 219.905 94.6217C219.715 95.0002 219.533 95.381 219.346 95.7595C219.206 96.0416 219.064 96.3215 218.913 96.5945C218.872 96.6656 218.834 96.7367 218.792 96.8078C218.217 97.8102 217.599 98.7897 216.978 99.7669C216.434 100.629 215.84 101.462 215.404 102.389C214.978 103.293 214.672 104.231 214.549 105.215C214.436 106.13 214.514 107.034 214.833 107.91C214.999 108.369 215.217 108.809 215.482 109.222C215.728 109.603 216.019 109.954 216.353 110.266C216.474 110.378 216.597 110.486 216.723 110.589C217.864 111.516 219.218 111.995 220.951 111.995C221.363 112.023 221.976 111.924 222.575 111.745C223.967 111.333 225.085 110.546 225.906 109.378C226.55 108.463 226.922 107.451 226.99 106.343C227.012 105.953 226.998 105.563 226.948 105.173Z" fill="url(#paint21_linear_1453_3052)"/>
<path d="M224.485 88.0619C225.915 87.8818 227.364 88.094 228.673 88.6752C230.005 89.2281 231.211 90.0351 232.222 91.0502C232.716 91.5626 233.164 92.117 233.559 92.7071C233.743 93.0088 233.951 93.2977 234.121 93.6035C234.291 93.9092 234.434 94.2349 234.577 94.5515C234.645 94.7137 234.725 94.8664 234.785 95.0311C234.845 95.1958 234.901 95.3585 234.949 95.5265L235.237 96.523C235.375 97.2004 235.46 97.8877 235.491 98.5789C235.491 98.594 235.485 98.6085 235.475 98.6197C235.465 98.631 235.45 98.6381 235.435 98.6396C235.423 98.6411 235.41 98.6381 235.4 98.6313C235.39 98.6244 235.382 98.6141 235.379 98.6022C235.135 97.9896 234.918 97.3634 234.659 96.7584L234.228 95.8658L234.015 95.4205C233.939 95.2725 233.844 95.1356 233.764 94.9948L233.25 94.1473C233.075 93.8668 232.862 93.6149 232.672 93.3448L232.376 92.9501C232.279 92.8141 232.158 92.6999 232.053 92.5753C231.83 92.3413 231.607 92.0836 231.383 91.844C230.455 90.9066 229.392 90.1085 228.227 89.4748C227.065 88.8297 225.796 88.3887 224.477 88.1715C224.462 88.1688 224.448 88.1605 224.439 88.1482C224.43 88.1359 224.426 88.1205 224.428 88.1052C224.43 88.0932 224.436 88.0821 224.445 88.0736C224.454 88.0651 224.466 88.0596 224.478 88.058L224.485 88.0619Z" fill="url(#paint22_radial_1453_3052)"/>
<path d="M255.559 46.1826C239.646 42.0293 221.26 41.918 207.807 42.6701C197.639 43.2431 188.907 44.3741 183.548 45.1993C183.58 45.1541 183.609 45.107 183.634 45.067L183.84 44.7302L184.047 44.3961L184.255 44.0648L184.479 43.7286L184.704 43.3924L184.932 43.0582L185.16 42.7239L185.216 42.6451C190.676 41.8625 198.59 40.914 207.626 40.4023C220.604 39.6679 238.157 39.7395 253.817 43.4052L253.922 43.5715C253.983 43.6644 254.06 43.7853 254.122 43.8837C254.127 43.903 254.127 43.903 254.133 43.9223L254.176 43.9874L254.346 44.2604L254.557 44.6021L254.765 44.9446C254.827 45.0459 254.909 45.1832 254.973 45.2872L254.978 45.3037L255.054 45.4308L255.174 45.6286L255.188 45.6753C255.242 45.7672 255.306 45.8739 255.355 45.9583L255.559 46.1826Z" fill="url(#paint23_radial_1453_3052)"/>
<defs>
<radialGradient id="paint0_radial_1453_3052" cx="0" cy="0" r="1" gradientUnits="userSpaceOnUse" gradientTransform="translate(183.015 255.024) rotate(29.2682) scale(84.0536 85.0278)">
<stop stop-color="#2F6756"/>
<stop offset="0.427083" stop-color="#1B0724"/>
<stop offset="0.699054" stop-color="#2F1A51"/>
<stop offset="1" stop-color="#7C2BA3"/>
</radialGradient>
<radialGradient id="paint1_radial_1453_3052" cx="0" cy="0" r="1" gradientUnits="userSpaceOnUse" gradientTransform="translate(257.179 244.803) rotate(-180) scale(104.257 13.18)">
<stop stop-color="#A6349B"/>
<stop offset="0.53125" stop-color="white" stop-opacity="0"/>
<stop offset="0.864583" stop-color="#AAFF67" stop-opacity="0.11"/>
<stop offset="1" stop-color="white"/>
</radialGradient>
<radialGradient id="paint2_radial_1453_3052" cx="0" cy="0" r="1" gradientUnits="userSpaceOnUse" gradientTransform="translate(252.5 161) rotate(66.0096) scale(68.6393 50.848)">
<stop stop-color="#121514"/>
<stop offset="0.433192" stop-color="#16091D"/>
<stop offset="0.697219" stop-color="#281B3E"/>
<stop offset="1" stop-color="#522A65"/>
</radialGradient>
<radialGradient id="paint3_radial_1453_3052" cx="0" cy="0" r="1" gradientUnits="userSpaceOnUse" gradientTransform="translate(246.366 183.758) rotate(56.419) scale(105.168 618.255)">
<stop stop-color="#2A3837"/>
<stop offset="0.421875" stop-color="#3F2B44"/>
<stop offset="1" stop-color="#322837"/>
</radialGradient>
<radialGradient id="paint4_radial_1453_3052" cx="0" cy="0" r="1" gradientUnits="userSpaceOnUse" gradientTransform="translate(187 147) rotate(116.565) scale(90.5608 77.9883)">
<stop stop-color="#10231D"/>
<stop offset="0.503406" stop-color="#16091D"/>
<stop offset="0.746164" stop-color="#281B3E"/>
<stop offset="1" stop-color="#522A65"/>
</radialGradient>
<radialGradient id="paint5_radial_1453_3052" cx="0" cy="0" r="1" gradientUnits="userSpaceOnUse" gradientTransform="translate(152.639 187.039) rotate(52.7755) scale(93.9291 647.9)">
<stop stop-color="#2A3837"/>
<stop offset="0.421875" stop-color="#3F2B44"/>
<stop offset="1" stop-color="#322837"/>
</radialGradient>
<radialGradient id="paint6_radial_1453_3052" cx="0" cy="0" r="1" gradientUnits="userSpaceOnUse" gradientTransform="translate(204.508 216.347) rotate(-2.92227) scale(55.8722 9.33238)">
<stop stop-color="#1F3C33"/>
<stop offset="0.427083" stop-color="#16091D"/>
<stop offset="0.699054" stop-color="#281B3E"/>
<stop offset="1" stop-color="#522A65"/>
</radialGradient>
<radialGradient id="paint7_radial_1453_3052" cx="0" cy="0" r="1" gradientUnits="userSpaceOnUse" gradientTransform="translate(221.625 9.44986) rotate(16.5467) scale(0.0668383 0.0720122)">
<stop stop-color="#1F3C33"/>
<stop offset="0.427083" stop-color="#16091D"/>
<stop offset="0.699054" stop-color="#281B3E"/>
<stop offset="1" stop-color="#522A65"/>
</radialGradient>
<radialGradient id="paint8_radial_1453_3052" cx="0" cy="0" r="1" gradientUnits="userSpaceOnUse" gradientTransform="translate(221.293 9.42346) rotate(15.1918) scale(0.0791601 0.0833375)">
<stop stop-color="#1F3C33"/>
<stop offset="0.427083" stop-color="#16091D"/>
<stop offset="0.699054" stop-color="#281B3E"/>
<stop offset="1" stop-color="#522A65"/>
</radialGradient>
<radialGradient id="paint9_radial_1453_3052" cx="0" cy="0" r="1" gradientUnits="userSpaceOnUse" gradientTransform="translate(196.955 30.8583) rotate(36.2494) scale(57.7315 66.2259)">
<stop stop-color="#1F3C33"/>
<stop offset="0.427083" stop-color="#16091D"/>
<stop offset="0.699054" stop-color="#281B3E"/>
<stop offset="1" stop-color="#522A65"/>
</radialGradient>
<radialGradient id="paint10_radial_1453_3052" cx="0" cy="0" r="1" gradientUnits="userSpaceOnUse" gradientTransform="translate(244.632 225.975) rotate(73.3505) scale(0.0155434 0.000353048)">
<stop stop-color="#1F3C33"/>
<stop offset="0.427083" stop-color="#16091D"/>
<stop offset="0.699054" stop-color="#281B3E"/>
<stop offset="1" stop-color="#522A65"/>
</radialGradient>
<radialGradient id="paint11_radial_1453_3052" cx="0" cy="0" r="1" gradientUnits="userSpaceOnUse" gradientTransform="translate(201.69 219.114) rotate(24.0445) scale(37.0073 43.2605)">
<stop stop-color="#1F3C33"/>
<stop offset="0.427083" stop-color="#16091D"/>
<stop offset="0.699054" stop-color="#281B3E"/>
<stop offset="1" stop-color="#522A65"/>
</radialGradient>
<radialGradient id="paint12_radial_1453_3052" cx="0" cy="0" r="1" gradientUnits="userSpaceOnUse" gradientTransform="translate(205.086 226.81) rotate(-2.40363) scale(51.1441 6.56513)">
<stop stop-color="#1F3C33"/>
<stop offset="0.427083" stop-color="#16091D"/>
<stop offset="0.699054" stop-color="#281B3E"/>
<stop offset="1" stop-color="#522A65"/>
</radialGradient>
<radialGradient id="paint13_radial_1453_3052" cx="0" cy="0" r="1" gradientUnits="userSpaceOnUse" gradientTransform="translate(186.698 106.195) rotate(53.9935) scale(167.148 126.919)">
<stop stop-color="#1F3C33"/>
<stop offset="0.427083" stop-color="#16091D"/>
<stop offset="0.699054" stop-color="#281B3E"/>
<stop offset="1" stop-color="#522A65"/>
</radialGradient>
<radialGradient id="paint14_radial_1453_3052" cx="0" cy="0" r="1" gradientUnits="userSpaceOnUse" gradientTransform="translate(178.087 119.009) rotate(55.8887) scale(324.734 1959.24)">
<stop stop-color="#2A3837"/>
<stop offset="0.421875" stop-color="#3F2B44"/>
<stop offset="1" stop-color="#322837"/>
</radialGradient>
<radialGradient id="paint15_radial_1453_3052" cx="0" cy="0" r="1" gradientUnits="userSpaceOnUse" gradientTransform="translate(258.562 52.3968) rotate(68.7603) scale(0.158305 0.0334974)">
<stop stop-color="#1F3C33"/>
<stop offset="0.427083" stop-color="#16091D"/>
<stop offset="0.699054" stop-color="#281B3E"/>
<stop offset="1" stop-color="#522A65"/>
</radialGradient>
<radialGradient id="paint16_radial_1453_3052" cx="0" cy="0" r="1" gradientUnits="userSpaceOnUse" gradientTransform="translate(176.663 156.825) rotate(68.8983) scale(13.7074 2.8234)">
<stop stop-color="#1F3C33"/>
<stop offset="0.427083" stop-color="#16091D"/>
<stop offset="0.699054" stop-color="#281B3E"/>
<stop offset="1" stop-color="#522A65"/>
</radialGradient>
<radialGradient id="paint17_radial_1453_3052" cx="0" cy="0" r="1" gradientUnits="userSpaceOnUse" gradientTransform="translate(255.156 159.053) rotate(59.1372) scale(10.0353 5.8649)">
<stop stop-color="#1F3C33"/>
<stop offset="0.427083" stop-color="#16091D"/>
<stop offset="0.699054" stop-color="#281B3E"/>
<stop offset="1" stop-color="#522A65"/>
</radialGradient>
<radialGradient id="paint18_radial_1453_3052" cx="0" cy="0" r="1" gradientUnits="userSpaceOnUse" gradientTransform="translate(207.764 97.1345) rotate(44.7426) scale(48.9176 49.3662)">
<stop stop-color="#1F3C33"/>
<stop offset="0.427083" stop-color="#16091D"/>
<stop offset="0.699054" stop-color="#281B3E"/>
<stop offset="1" stop-color="#522A65"/>
</radialGradient>
<linearGradient id="paint19_linear_1453_3052" x1="201.769" y1="108.181" x2="242.445" y2="97.4966" gradientUnits="userSpaceOnUse">
<stop stop-color="#4BF2A2"/>
<stop offset="0.522948" stop-color="#A89FE7"/>
<stop offset="0.669499" stop-color="#E1C4F4"/>
<stop offset="1" stop-color="#DD40CD"/>
</linearGradient>
<linearGradient id="paint20_linear_1453_3052" x1="218.19" y1="102.822" x2="227.335" y2="102.96" gradientUnits="userSpaceOnUse">
<stop stop-color="#4BF2A2"/>
<stop offset="0.522948" stop-color="#A89FE7"/>
<stop offset="0.669499" stop-color="#E1C4F4"/>
<stop offset="1" stop-color="#DD40CD"/>
</linearGradient>
<linearGradient id="paint21_linear_1453_3052" x1="213.757" y1="103" x2="228.608" y2="103.243" gradientUnits="userSpaceOnUse">
<stop stop-color="#4BF2A2"/>
<stop offset="0.522948" stop-color="#A89FE7"/>
<stop offset="0.669499" stop-color="#E1C4F4"/>
<stop offset="1" stop-color="#DD40CD"/>
</linearGradient>
<radialGradient id="paint22_radial_1453_3052" cx="0" cy="0" r="1" gradientUnits="userSpaceOnUse" gradientTransform="translate(227.666 91.4573) rotate(55.4051) scale(12.3346 8.80117)">
<stop stop-color="#1F3C33"/>
<stop offset="0.427083" stop-color="#16091D"/>
<stop offset="0.699054" stop-color="#281B3E"/>
<stop offset="1" stop-color="#522A65"/>
</radialGradient>
<radialGradient id="paint23_radial_1453_3052" cx="0" cy="0" r="1" gradientUnits="userSpaceOnUse" gradientTransform="translate(202.964 45.0155) rotate(15.1207) scale(39.1412 41.1536)">
<stop stop-color="#1F3C33"/>
<stop offset="0.427083" stop-color="#16091D"/>
<stop offset="0.699054" stop-color="#281B3E"/>
<stop offset="1" stop-color="#522A65"/>
</radialGradient>
</defs>
</svg>
