<svg width="338" height="48" viewBox="0 0 338 48" fill="none" xmlns="http://www.w3.org/2000/svg">
  <path d="M10.544 39L5.04 21.08H4.912C4.93333 21.5067 4.96533 22.1467 5.008 23C5.05067 23.8533 5.09333 24.7707 5.136 25.752C5.17867 26.712 5.2 27.5867 5.2 28.376V39H0.88V16.152H7.472L12.88 33.624H12.976L18.704 16.152H25.296V39H20.784V28.184C20.784 27.4587 20.7947 26.6267 20.816 25.688C20.8587 24.7493 20.8907 23.864 20.912 23.032C20.9547 22.1787 20.9867 21.5387 21.008 21.112H20.88L14.992 39H10.544ZM35.4515 21.528V39H30.6835V21.528H35.4515ZM33.0835 14.68C33.7875 14.68 34.3955 14.8507 34.9075 15.192C35.4195 15.512 35.6755 16.12 35.6755 17.016C35.6755 17.8907 35.4195 18.4987 34.9075 18.84C34.3955 19.1813 33.7875 19.352 33.0835 19.352C32.3582 19.352 31.7395 19.1813 31.2275 18.84C30.7368 18.4987 30.4915 17.8907 30.4915 17.016C30.4915 16.12 30.7368 15.512 31.2275 15.192C31.7395 14.8507 32.3582 14.68 33.0835 14.68ZM50.3535 21.208C52.2308 21.208 53.7348 21.72 54.8655 22.744C55.9962 23.7467 56.5615 25.368 56.5615 27.608V39H51.7935V28.792C51.7935 27.5333 51.5695 26.5947 51.1215 25.976C50.6735 25.336 49.9588 25.016 48.9775 25.016C47.5268 25.016 46.5348 25.5173 46.0015 26.52C45.4682 27.5013 45.2015 28.92 45.2015 30.776V39H40.4335V21.528H44.0815L44.7215 23.768H44.9775C45.3615 23.1707 45.8308 22.6907 46.3855 22.328C46.9402 21.944 47.5588 21.6667 48.2415 21.496C48.9242 21.304 49.6282 21.208 50.3535 21.208ZM68.8248 35.512C69.3581 35.512 69.8701 35.4587 70.3608 35.352C70.8514 35.2453 71.3421 35.1173 71.8328 34.968V38.52C71.3208 38.7333 70.6808 38.9147 69.9128 39.064C69.1661 39.2347 68.3448 39.32 67.4488 39.32C66.4034 39.32 65.4648 39.1493 64.6328 38.808C63.8221 38.4667 63.1714 37.88 62.6808 37.048C62.2114 36.1947 61.9768 35.0213 61.9768 33.528V25.112H59.7048V23.096L62.3288 21.496L63.7048 17.816H66.7448V21.528H71.6408V25.112H66.7448V33.528C66.7448 34.1893 66.9368 34.6907 67.3208 35.032C67.7048 35.352 68.2061 35.512 68.8248 35.512ZM102.628 30.936C102.628 32.5147 102.276 33.944 101.572 35.224C100.89 36.4827 99.8443 37.4853 98.4363 38.232C97.0496 38.9573 95.2896 39.32 93.1563 39.32C90.1269 39.32 87.8229 38.552 86.2443 37.016C84.6656 35.4587 83.8763 33.4107 83.8763 30.872V16.152H88.7083V30.136C88.7083 32.0133 89.0923 33.336 89.8603 34.104C90.6283 34.872 91.7696 35.256 93.2843 35.256C94.3509 35.256 95.2149 35.0747 95.8763 34.712C96.5376 34.3493 97.0176 33.784 97.3162 33.016C97.6363 32.248 97.7963 31.2773 97.7963 30.104V16.152H102.628V30.936ZM117.76 21.208C119.637 21.208 121.141 21.72 122.272 22.744C123.402 23.7467 123.968 25.368 123.968 27.608V39H119.2V28.792C119.2 27.5333 118.976 26.5947 118.528 25.976C118.08 25.336 117.365 25.016 116.384 25.016C114.933 25.016 113.941 25.5173 113.408 26.52C112.874 27.5013 112.608 28.92 112.608 30.776V39H107.84V21.528H111.488L112.128 23.768H112.384C112.768 23.1707 113.237 22.6907 113.792 22.328C114.346 21.944 114.965 21.6667 115.648 21.496C116.33 21.304 117.034 21.208 117.76 21.208ZM133.639 21.528V39H128.871V21.528H133.639ZM131.271 14.68C131.975 14.68 132.583 14.8507 133.095 15.192C133.607 15.512 133.863 16.12 133.863 17.016C133.863 17.8907 133.607 18.4987 133.095 18.84C132.583 19.1813 131.975 19.352 131.271 19.352C130.546 19.352 129.927 19.1813 129.415 18.84C128.924 18.4987 128.679 17.8907 128.679 17.016C128.679 16.12 128.924 15.512 129.415 15.192C129.927 14.8507 130.546 14.68 131.271 14.68ZM145.981 35.512C146.514 35.512 147.026 35.4587 147.517 35.352C148.008 35.2453 148.498 35.1173 148.989 34.968V38.52C148.477 38.7333 147.837 38.9147 147.069 39.064C146.322 39.2347 145.501 39.32 144.605 39.32C143.56 39.32 142.621 39.1493 141.789 38.808C140.978 38.4667 140.328 37.88 139.837 37.048C139.368 36.1947 139.133 35.0213 139.133 33.528V25.112H136.861V23.096L139.485 21.496L140.861 17.816H143.901V21.528H148.797V25.112H143.901V33.528C143.901 34.1893 144.093 34.6907 144.477 35.032C144.861 35.352 145.362 35.512 145.981 35.512ZM159.664 21.176C162.011 21.176 163.803 21.688 165.04 22.712C166.299 23.7147 166.928 25.2613 166.928 27.352V39H163.6L162.672 36.632H162.544C162.053 37.2507 161.541 37.7627 161.008 38.168C160.496 38.5733 159.899 38.8613 159.216 39.032C158.555 39.224 157.733 39.32 156.752 39.32C155.728 39.32 154.8 39.128 153.968 38.744C153.157 38.3387 152.517 37.7307 152.048 36.92C151.579 36.088 151.344 35.0427 151.344 33.784C151.344 31.928 151.995 30.5627 153.296 29.688C154.597 28.792 156.549 28.3013 159.152 28.216L162.192 28.12V27.352C162.192 26.4347 161.947 25.7627 161.456 25.336C160.987 24.9093 160.325 24.696 159.472 24.696C158.619 24.696 157.787 24.824 156.976 25.08C156.165 25.3147 155.355 25.6133 154.544 25.976L152.976 22.744C153.915 22.2533 154.949 21.8693 156.08 21.592C157.232 21.3147 158.427 21.176 159.664 21.176ZM160.336 30.968C158.8 31.0107 157.733 31.288 157.136 31.8C156.539 32.312 156.24 32.984 156.24 33.816C156.24 34.5413 156.453 35.064 156.88 35.384C157.307 35.6827 157.861 35.832 158.544 35.832C159.568 35.832 160.432 35.5333 161.136 34.936C161.84 34.3173 162.192 33.4533 162.192 32.344V30.904L160.336 30.968ZM181.537 21.208C183.499 21.208 185.089 21.976 186.305 23.512C187.521 25.0267 188.128 27.2667 188.128 30.232C188.128 32.216 187.841 33.8907 187.265 35.256C186.689 36.6 185.899 37.6133 184.897 38.296C183.894 38.9787 182.731 39.32 181.409 39.32C180.577 39.32 179.851 39.2133 179.233 39C178.635 38.7867 178.123 38.5093 177.697 38.168C177.27 37.8267 176.897 37.464 176.577 37.08H176.321C176.406 37.4853 176.47 37.912 176.513 38.36C176.555 38.7867 176.577 39.2133 176.577 39.64V46.68H171.809V21.528H175.681L176.353 23.8H176.577C176.897 23.3307 177.281 22.904 177.729 22.52C178.177 22.1147 178.71 21.7947 179.329 21.56C179.969 21.3253 180.705 21.208 181.537 21.208ZM180.001 25.016C179.169 25.016 178.507 25.1867 178.017 25.528C177.526 25.8693 177.163 26.392 176.929 27.096C176.715 27.7787 176.598 28.6427 176.577 29.688V30.2C176.577 31.3307 176.683 32.2907 176.897 33.08C177.11 33.848 177.473 34.4347 177.985 34.84C178.497 35.2453 179.19 35.448 180.065 35.448C180.79 35.448 181.387 35.2453 181.857 34.84C182.326 34.4347 182.678 33.8373 182.913 33.048C183.147 32.2587 183.265 31.2987 183.265 30.168C183.265 28.4613 182.998 27.1813 182.465 26.328C181.953 25.4533 181.131 25.016 180.001 25.016ZM208.051 16.152C210.995 16.152 213.139 16.792 214.483 18.072C215.848 19.3307 216.531 21.0693 216.531 23.288C216.531 24.2907 216.382 25.2507 216.083 26.168C215.784 27.064 215.283 27.8747 214.579 28.6C213.896 29.304 212.99 29.8587 211.859 30.264C210.728 30.6693 209.331 30.872 207.667 30.872H205.587V39H200.755V16.152H208.051ZM207.795 20.12H205.587V26.904H207.187C208.104 26.904 208.894 26.7867 209.555 26.552C210.216 26.3173 210.728 25.944 211.091 25.432C211.454 24.92 211.635 24.2587 211.635 23.448C211.635 22.3173 211.326 21.4853 210.707 20.952C210.088 20.3973 209.118 20.12 207.795 20.12ZM227.633 21.176C229.979 21.176 231.771 21.688 233.009 22.712C234.267 23.7147 234.897 25.2613 234.897 27.352V39H231.569L230.641 36.632H230.513C230.022 37.2507 229.51 37.7627 228.977 38.168C228.465 38.5733 227.867 38.8613 227.185 39.032C226.523 39.224 225.702 39.32 224.721 39.32C223.697 39.32 222.769 39.128 221.937 38.744C221.126 38.3387 220.486 37.7307 220.017 36.92C219.547 36.088 219.313 35.0427 219.313 33.784C219.313 31.928 219.963 30.5627 221.265 29.688C222.566 28.792 224.518 28.3013 227.121 28.216L230.161 28.12V27.352C230.161 26.4347 229.915 25.7627 229.425 25.336C228.955 24.9093 228.294 24.696 227.441 24.696C226.587 24.696 225.755 24.824 224.945 25.08C224.134 25.3147 223.323 25.6133 222.513 25.976L220.945 22.744C221.883 22.2533 222.918 21.8693 224.049 21.592C225.201 21.3147 226.395 21.176 227.633 21.176ZM228.305 30.968C226.769 31.0107 225.702 31.288 225.105 31.8C224.507 32.312 224.209 32.984 224.209 33.816C224.209 34.5413 224.422 35.064 224.849 35.384C225.275 35.6827 225.83 35.832 226.513 35.832C227.537 35.832 228.401 35.5333 229.105 34.936C229.809 34.3173 230.161 33.4533 230.161 32.344V30.904L228.305 30.968ZM251.969 33.816C251.969 34.9893 251.692 35.992 251.137 36.824C250.583 37.6347 249.751 38.2533 248.641 38.68C247.532 39.1067 246.156 39.32 244.513 39.32C243.297 39.32 242.252 39.2347 241.377 39.064C240.503 38.9147 239.628 38.6587 238.753 38.296V34.36C239.692 34.7867 240.705 35.1387 241.793 35.416C242.881 35.6933 243.841 35.832 244.673 35.832C245.612 35.832 246.273 35.6933 246.657 35.416C247.063 35.1387 247.265 34.776 247.265 34.328C247.265 34.0293 247.18 33.7627 247.009 33.528C246.86 33.2933 246.519 33.0267 245.985 32.728C245.452 32.4293 244.62 32.0453 243.489 31.576C242.401 31.1067 241.505 30.648 240.801 30.2C240.097 29.7307 239.575 29.176 239.233 28.536C238.892 27.8747 238.721 27.0533 238.721 26.072C238.721 24.4507 239.351 23.2347 240.609 22.424C241.868 21.6133 243.543 21.208 245.633 21.208C246.721 21.208 247.756 21.3147 248.737 21.528C249.719 21.7413 250.732 22.0933 251.777 22.584L250.337 26.008C249.761 25.752 249.207 25.528 248.673 25.336C248.14 25.144 247.617 24.9947 247.105 24.888C246.615 24.7813 246.103 24.728 245.569 24.728C244.865 24.728 244.332 24.824 243.969 25.016C243.628 25.208 243.457 25.496 243.457 25.88C243.457 26.1573 243.543 26.4133 243.713 26.648C243.905 26.8613 244.257 27.096 244.769 27.352C245.303 27.608 246.081 27.9493 247.105 28.376C248.108 28.7813 248.972 29.208 249.697 29.656C250.423 30.0827 250.977 30.6267 251.361 31.288C251.767 31.928 251.969 32.7707 251.969 33.816ZM267.876 33.816C267.876 34.9893 267.598 35.992 267.044 36.824C266.489 37.6347 265.657 38.2533 264.548 38.68C263.438 39.1067 262.062 39.32 260.42 39.32C259.204 39.32 258.158 39.2347 257.284 39.064C256.409 38.9147 255.534 38.6587 254.66 38.296V34.36C255.598 34.7867 256.612 35.1387 257.7 35.416C258.788 35.6933 259.748 35.832 260.58 35.832C261.518 35.832 262.18 35.6933 262.564 35.416C262.969 35.1387 263.172 34.776 263.172 34.328C263.172 34.0293 263.086 33.7627 262.916 33.528C262.766 33.2933 262.425 33.0267 261.892 32.728C261.358 32.4293 260.526 32.0453 259.396 31.576C258.308 31.1067 257.412 30.648 256.708 30.2C256.004 29.7307 255.481 29.176 255.14 28.536C254.798 27.8747 254.628 27.0533 254.628 26.072C254.628 24.4507 255.257 23.2347 256.516 22.424C257.774 21.6133 259.449 21.208 261.54 21.208C262.628 21.208 263.662 21.3147 264.644 21.528C265.625 21.7413 266.638 22.0933 267.684 22.584L266.244 26.008C265.668 25.752 265.113 25.528 264.58 25.336C264.046 25.144 263.524 24.9947 263.012 24.888C262.521 24.7813 262.009 24.728 261.476 24.728C260.772 24.728 260.238 24.824 259.876 25.016C259.534 25.208 259.364 25.496 259.364 25.88C259.364 26.1573 259.449 26.4133 259.62 26.648C259.812 26.8613 260.164 27.096 260.676 27.352C261.209 27.608 261.988 27.9493 263.012 28.376C264.014 28.7813 264.878 29.208 265.604 29.656C266.329 30.0827 266.884 30.6267 267.268 31.288C267.673 31.928 267.876 32.7707 267.876 33.816Z" fill="#212130"/>
  <path d="M10.544 39L8.63215 39.5872L9.06608 41H10.544V39ZM5.04 21.08L6.95185 20.4928L6.51793 19.08H5.04V21.08ZM4.912 21.08V19.08H2.8095L2.9145 21.1799L4.912 21.08ZM5.008 23L3.0105 23.0999V23.0999L5.008 23ZM5.136 25.752L3.13789 25.8389L3.13797 25.8408L5.136 25.752ZM5.2 39V41H7.2V39H5.2ZM0.88 39H-1.12V41H0.88V39ZM0.88 16.152V14.152H-1.12V16.152H0.88ZM7.472 16.152L9.38257 15.5606L8.94657 14.152H7.472V16.152ZM12.88 33.624L10.9694 34.2154L11.4054 35.624H12.88V33.624ZM12.976 33.624V35.624H14.4251L14.8765 34.247L12.976 33.624ZM18.704 16.152V14.152H17.2549L16.8035 15.5289L18.704 16.152ZM25.296 16.152H27.296V14.152H25.296V16.152ZM25.296 39V41H27.296V39H25.296ZM20.784 39H18.784V41H20.784V39ZM20.816 25.688L18.8181 25.5972L18.817 25.6199L18.8165 25.6426L20.816 25.688ZM20.912 23.032L18.9145 22.9321L18.9133 22.9564L18.9127 22.9807L20.912 23.032ZM21.008 21.112L23.0055 21.2119L23.1105 19.112H21.008V21.112ZM20.88 21.112V19.112H19.4328L18.9803 20.4867L20.88 21.112ZM14.992 39V41H16.4392L16.8917 39.6253L14.992 39ZM12.4559 38.4128L6.95185 20.4928L3.12815 21.6672L8.63215 39.5872L12.4559 38.4128ZM5.04 19.08H4.912V23.08H5.04V19.08ZM2.9145 21.1799C2.93583 21.6065 2.96783 22.2465 3.0105 23.0999L7.0055 22.9001C6.96284 22.0468 6.93084 21.4068 6.9095 20.9801L2.9145 21.1799ZM3.0105 23.0999C3.05292 23.9483 3.09538 24.8612 3.13789 25.8389L7.13411 25.6651C7.09128 24.6801 7.04842 23.7584 7.0055 22.9001L3.0105 23.0999ZM3.13797 25.8408C3.17959 26.7773 3.2 27.6218 3.2 28.376H7.2C7.2 27.5515 7.17774 26.6467 7.13403 25.6632L3.13797 25.8408ZM3.2 28.376V39H7.2V28.376H3.2ZM5.2 37H0.88V41H5.2V37ZM2.88 39V16.152H-1.12V39H2.88ZM0.88 18.152H7.472V14.152H0.88V18.152ZM5.56143 16.7434L10.9694 34.2154L14.7906 33.0326L9.38257 15.5606L5.56143 16.7434ZM12.88 35.624H12.976V31.624H12.88V35.624ZM14.8765 34.247L20.6045 16.775L16.8035 15.5289L11.0755 33.0009L14.8765 34.247ZM18.704 18.152H25.296V14.152H18.704V18.152ZM23.296 16.152V39H27.296V16.152H23.296ZM25.296 37H20.784V41H25.296V37ZM22.784 39V28.184H18.784V39H22.784ZM22.784 28.184C22.784 27.4775 22.7944 26.6611 22.8155 25.7334L18.8165 25.6426C18.7949 26.5922 18.784 27.4399 18.784 28.184H22.784ZM22.8139 25.7788C22.8571 24.8286 22.8896 23.93 22.9113 23.0833L18.9127 22.9807C18.8917 23.798 18.8602 24.6701 18.8181 25.5972L22.8139 25.7788ZM22.9095 23.1319C22.9522 22.2785 22.9842 21.6385 23.0055 21.2119L19.0105 21.0121C18.9892 21.4388 18.9572 22.0788 18.9145 22.9321L22.9095 23.1319ZM21.008 19.112H20.88V23.112H21.008V19.112ZM18.9803 20.4867L13.0923 38.3747L16.8917 39.6253L22.7797 21.7373L18.9803 20.4867ZM14.992 37H10.544V41H14.992V37ZM35.4515 21.528H37.4515V19.528H35.4515V21.528ZM35.4515 39V41H37.4515V39H35.4515ZM30.6835 39H28.6835V41H30.6835V39ZM30.6835 21.528V19.528H28.6835V21.528H30.6835ZM34.9075 15.192L33.7981 16.8561L33.8226 16.8724L33.8475 16.888L34.9075 15.192ZM34.9075 18.84L33.7981 17.1759V17.1759L34.9075 18.84ZM31.2275 18.84L30.0854 20.4818L30.1016 20.4931L30.1181 20.5041L31.2275 18.84ZM31.2275 15.192L32.32 16.8672L32.3285 16.8617L32.3369 16.8561L31.2275 15.192ZM33.4515 21.528V39H37.4515V21.528H33.4515ZM35.4515 37H30.6835V41H35.4515V37ZM32.6835 39V21.528H28.6835V39H32.6835ZM30.6835 23.528H35.4515V19.528H30.6835V23.528ZM33.0835 16.68C33.4512 16.68 33.6602 16.7642 33.7981 16.8561L36.0169 13.5279C35.1308 12.9372 34.1238 12.68 33.0835 12.68V16.68ZM33.8475 16.888C33.7942 16.8547 33.7437 16.8107 33.7027 16.7611C33.6628 16.7129 33.6449 16.6753 33.6402 16.6641C33.6363 16.6547 33.6457 16.6739 33.6559 16.7336C33.6661 16.7935 33.6755 16.8856 33.6755 17.016H37.6755C37.6755 15.7896 37.3149 14.3381 35.9675 13.496L33.8475 16.888ZM33.6755 17.016C33.6755 17.1385 33.6664 17.2251 33.6567 17.2817C33.647 17.3379 33.6377 17.3578 33.6402 17.3519C33.6434 17.3444 33.6572 17.3149 33.6886 17.2761C33.7207 17.2364 33.7593 17.2018 33.7981 17.1759L36.0169 20.5041C37.2984 19.6498 37.6755 18.2545 37.6755 17.016H33.6755ZM33.7981 17.1759C33.6602 17.2678 33.4512 17.352 33.0835 17.352V21.352C34.1238 21.352 35.1308 21.0948 36.0169 20.5041L33.7981 17.1759ZM33.0835 17.352C32.681 17.352 32.4652 17.2614 32.3369 17.1759L30.1181 20.5041C31.0138 21.1013 32.0353 21.352 33.0835 21.352V17.352ZM32.3696 17.1982C32.4142 17.2292 32.4545 17.2678 32.4861 17.3086C32.5168 17.3482 32.5288 17.3762 32.5302 17.3796C32.531 17.3815 32.5208 17.3568 32.5107 17.2955C32.5005 17.2339 32.4915 17.1426 32.4915 17.016H28.4915C28.4915 18.2235 28.8383 19.6143 30.0854 20.4818L32.3696 17.1982ZM32.4915 17.016C32.4915 16.8816 32.5008 16.7849 32.5114 16.72C32.522 16.6551 32.5323 16.6311 32.5302 16.6364C32.5274 16.6433 32.5116 16.6795 32.4725 16.7288C32.4322 16.7797 32.3798 16.8283 32.32 16.8672L30.135 13.5168C28.8218 14.3732 28.4915 15.8215 28.4915 17.016H32.4915ZM32.3369 16.8561C32.4652 16.7706 32.681 16.68 33.0835 16.68V12.68C32.0353 12.68 31.0138 12.9307 30.1181 13.5279L32.3369 16.8561ZM54.8655 22.744L53.5229 24.2264L53.5307 24.2334L53.5385 24.2404L54.8655 22.744ZM56.5615 39V41H58.5615V39H56.5615ZM51.7935 39H49.7935V41H51.7935V39ZM51.1215 25.976L49.483 27.1229L49.4922 27.136L49.5016 27.149L51.1215 25.976ZM46.0015 26.52L47.7588 27.475L47.763 27.4671L47.7672 27.4592L46.0015 26.52ZM45.2015 39V41H47.2015V39H45.2015ZM40.4335 39H38.4335V41H40.4335V39ZM40.4335 21.528V19.528H38.4335V21.528H40.4335ZM44.0815 21.528L46.0045 20.9786L45.5901 19.528H44.0815V21.528ZM44.7215 23.768L42.7985 24.3174L43.2129 25.768H44.7215V23.768ZM44.9775 23.768V25.768H46.0694L46.6599 24.8495L44.9775 23.768ZM46.3855 22.328L47.48 24.0019L47.5022 23.9875L47.5239 23.9724L46.3855 22.328ZM48.2415 21.496L48.7266 23.4363L48.7549 23.4292L48.783 23.4213L48.2415 21.496ZM50.3535 23.208C51.8543 23.208 52.8401 23.608 53.5229 24.2264L56.2081 21.2616C54.6296 19.832 52.6073 19.208 50.3535 19.208V23.208ZM53.5385 24.2404C54.0692 24.711 54.5615 25.6609 54.5615 27.608H58.5615C58.5615 25.0751 57.9231 22.7824 56.1925 21.2476L53.5385 24.2404ZM54.5615 27.608V39H58.5615V27.608H54.5615ZM56.5615 37H51.7935V41H56.5615V37ZM53.7935 39V28.792H49.7935V39H53.7935ZM53.7935 28.792C53.7935 27.3607 53.5505 25.9204 52.7414 24.803L49.5016 27.149C49.5885 27.2689 49.7935 27.706 49.7935 28.792H53.7935ZM52.76 24.8291C51.8417 23.5173 50.424 23.016 48.9775 23.016V27.016C49.2556 27.016 49.3883 27.0617 49.4322 27.0814C49.4603 27.094 49.4669 27.0999 49.483 27.1229L52.76 24.8291ZM48.9775 23.016C47.0282 23.016 45.2164 23.7371 44.2358 25.5808L47.7672 27.4592C47.8532 27.2976 48.0255 27.016 48.9775 27.016V23.016ZM44.2443 25.565C43.479 26.973 43.2015 28.7815 43.2015 30.776H47.2015C47.2015 29.0585 47.4573 28.0297 47.7588 27.475L44.2443 25.565ZM43.2015 30.776V39H47.2015V30.776H43.2015ZM45.2015 37H40.4335V41H45.2015V37ZM42.4335 39V21.528H38.4335V39H42.4335ZM40.4335 23.528H44.0815V19.528H40.4335V23.528ZM42.1585 22.0774L42.7985 24.3174L46.6445 23.2186L46.0045 20.9786L42.1585 22.0774ZM44.7215 25.768H44.9775V21.768H44.7215V25.768ZM46.6599 24.8495C46.9028 24.4716 47.1773 24.1999 47.48 24.0019L45.291 20.6541C44.4844 21.1815 43.8202 21.8697 43.2951 22.6865L46.6599 24.8495ZM47.5239 23.9724C47.8719 23.7314 48.2675 23.551 48.7266 23.4363L47.7564 19.5557C46.8501 19.7823 46.0084 20.1566 45.2471 20.6836L47.5239 23.9724ZM48.783 23.4213C49.2854 23.28 49.807 23.208 50.3535 23.208V19.208C49.4493 19.208 48.5629 19.328 47.7 19.5707L48.783 23.4213ZM70.3607 35.352L69.9359 33.3976L70.3607 35.352ZM71.8327 34.968H73.8327V32.2687L71.2504 33.0547L71.8327 34.968ZM71.8327 38.52L72.602 40.3662L73.8327 39.8533V38.52H71.8327ZM69.9128 39.064L69.531 37.1008L69.4989 37.107L69.4671 37.1143L69.9128 39.064ZM64.6328 38.808L63.8566 40.6513L63.8651 40.6548L63.8736 40.6583L64.6328 38.808ZM62.6807 37.048L60.9283 38.0118L60.9428 38.0381L60.958 38.064L62.6807 37.048ZM61.9767 25.112H63.9768V23.112H61.9767V25.112ZM59.7048 25.112H57.7048V27.112H59.7048V25.112ZM59.7048 23.096L58.6635 21.3884L57.7048 21.973V23.096H59.7048ZM62.3288 21.496L63.37 23.2036L63.96 22.8438L64.2021 22.1965L62.3288 21.496ZM63.7048 17.816V15.816H62.3173L61.8314 17.1155L63.7048 17.816ZM66.7448 17.816H68.7448V15.816H66.7448V17.816ZM66.7448 21.528H64.7448V23.528H66.7448V21.528ZM71.6407 21.528H73.6407V19.528H71.6407V21.528ZM71.6407 25.112V27.112H73.6407V25.112H71.6407ZM66.7448 25.112V23.112H64.7448V25.112H66.7448ZM67.3207 35.032L65.992 36.5268L66.0159 36.548L66.0404 36.5684L67.3207 35.032ZM68.8248 37.512C69.4921 37.512 70.147 37.4452 70.7856 37.3064L69.9359 33.3976C69.5932 33.4722 69.2241 33.512 68.8248 33.512V37.512ZM70.7856 37.3064C71.3304 37.1879 71.8736 37.0461 72.4151 36.8813L71.2504 33.0547C70.8106 33.1885 70.3724 33.3027 69.9359 33.3976L70.7856 37.3064ZM69.8327 34.968V38.52H73.8327V34.968H69.8327ZM71.0635 36.6738C70.7156 36.8188 70.2157 36.9676 69.531 37.1008L70.2945 41.0272C71.1458 40.8617 71.9259 40.6479 72.602 40.3662L71.0635 36.6738ZM69.4671 37.1143C68.8888 37.2465 68.2194 37.32 67.4488 37.32V41.32C68.4701 41.32 69.4433 41.2229 70.3584 41.0137L69.4671 37.1143ZM67.4488 37.32C66.622 37.32 65.9472 37.1855 65.3919 36.9577L63.8736 40.6583C64.9824 41.1132 66.1848 41.32 67.4488 41.32V37.32ZM65.4089 36.9647C65.0336 36.8067 64.6983 36.532 64.4035 36.032L60.958 38.064C61.6445 39.228 62.6106 40.1266 63.8566 40.6513L65.4089 36.9647ZM64.4332 36.0842C64.1904 35.6427 63.9768 34.8486 63.9768 33.528H59.9767C59.9767 35.194 60.2325 36.7466 60.9283 38.0118L64.4332 36.0842ZM63.9768 33.528V25.112H59.9767V33.528H63.9768ZM61.9767 23.112H59.7048V27.112H61.9767V23.112ZM61.7048 25.112V23.096H57.7048V25.112H61.7048ZM60.746 24.8036L63.37 23.2036L61.2875 19.7884L58.6635 21.3884L60.746 24.8036ZM64.2021 22.1965L65.5781 18.5165L61.8314 17.1155L60.4554 20.7955L64.2021 22.1965ZM63.7048 19.816H66.7448V15.816H63.7048V19.816ZM64.7448 17.816V21.528H68.7448V17.816H64.7448ZM66.7448 23.528H71.6407V19.528H66.7448V23.528ZM69.6407 21.528V25.112H73.6407V21.528H69.6407ZM71.6407 23.112H66.7448V27.112H71.6407V23.112ZM64.7448 25.112V33.528H68.7448V25.112H64.7448ZM64.7448 33.528C64.7448 34.5857 65.0658 35.7035 65.992 36.5268L68.6495 33.5372C68.6747 33.5596 68.6991 33.587 68.7199 33.6174C68.7404 33.6474 68.7515 33.6718 68.7565 33.6847C68.7656 33.7085 68.7448 33.669 68.7448 33.528H64.7448ZM66.0404 36.5684C66.8631 37.254 67.853 37.512 68.8248 37.512V33.512C68.6865 33.512 68.6159 33.494 68.5928 33.4867C68.5748 33.4809 68.5846 33.4818 68.6011 33.4956L66.0404 36.5684ZM101.572 35.224L99.8198 34.2601L99.8142 34.2705L101.572 35.224ZM98.4362 38.232L99.3633 40.0042L99.3733 39.9989L98.4362 38.232ZM86.2442 37.016L84.8397 38.4398L84.8495 38.4495L86.2442 37.016ZM83.8763 16.152V14.152H81.8763V16.152H83.8763ZM88.7083 16.152H90.7083V14.152H88.7083V16.152ZM89.8603 34.104L88.446 35.5182L89.8603 34.104ZM95.8763 34.712L94.9146 32.9584L94.9146 32.9584L95.8763 34.712ZM97.3163 33.016L95.4701 32.2468L95.4609 32.2688L95.4522 32.2911L97.3163 33.016ZM97.7962 16.152V14.152H95.7962V16.152H97.7962ZM102.628 16.152H104.628V14.152H102.628V16.152ZM100.628 30.936C100.628 32.2056 100.348 33.299 99.8198 34.2602L103.325 36.1878C104.204 34.589 104.628 32.8237 104.628 30.936H100.628ZM99.8142 34.2705C99.3401 35.1446 98.6003 35.8812 97.4992 36.4651L99.3733 39.9989C101.088 39.0895 102.439 37.8207 103.33 36.1775L99.8142 34.2705ZM97.5093 36.4598C96.4935 36.9911 95.0783 37.32 93.1562 37.32V41.32C95.5008 41.32 97.6057 40.9235 99.3632 40.0042L97.5093 36.4598ZM93.1562 37.32C90.4489 37.32 88.7225 36.6368 87.639 35.5825L84.8495 38.4495C86.9233 40.4672 89.8049 41.32 93.1562 41.32V37.32ZM87.6488 35.5922C86.5072 34.4661 85.8763 32.9599 85.8763 30.872H81.8763C81.8763 33.8615 82.8239 36.4513 84.8397 38.4398L87.6488 35.5922ZM85.8763 30.872V16.152H81.8763V30.872H85.8763ZM83.8763 18.152H88.7083V14.152H83.8763V18.152ZM86.7083 16.152V30.136H90.7083V16.152H86.7083ZM86.7083 30.136C86.7083 32.1843 87.1085 34.1807 88.446 35.5182L91.2745 32.6898C91.076 32.4913 90.7083 31.8424 90.7083 30.136H86.7083ZM88.446 35.5182C89.7167 36.7888 91.4519 37.256 93.2842 37.256V33.256C92.0873 33.256 91.5398 32.9552 91.2745 32.6898L88.446 35.5182ZM93.2842 37.256C94.5558 37.256 95.7849 37.0431 96.8379 36.4656L94.9146 32.9584C94.6449 33.1063 94.146 33.256 93.2842 33.256V37.256ZM96.8379 36.4656C97.9508 35.8553 98.7281 34.9037 99.1803 33.7409L95.4522 32.2911C95.3071 32.6643 95.1244 32.8433 94.9146 32.9584L96.8379 36.4656ZM99.1624 33.7852C99.6165 32.6954 99.7962 31.441 99.7962 30.104H95.7962C95.7962 31.1137 95.656 31.8006 95.4701 32.2468L99.1624 33.7852ZM99.7962 30.104V16.152H95.7962V30.104H99.7962ZM97.7962 18.152H102.628V14.152H97.7962V18.152ZM100.628 16.152V30.936H104.628V16.152H100.628ZM122.272 22.744L120.929 24.2264L120.937 24.2334L120.945 24.2404L122.272 22.744ZM123.968 39V41H125.968V39H123.968ZM119.2 39H117.2V41H119.2V39ZM118.528 25.976L116.889 27.1229L116.898 27.136L116.908 27.149L118.528 25.976ZM113.408 26.52L115.165 27.475L115.169 27.4671L115.173 27.4592L113.408 26.52ZM112.608 39V41H114.608V39H112.608ZM107.84 39H105.84V41H107.84V39ZM107.84 21.528V19.528H105.84V21.528H107.84ZM111.488 21.528L113.411 20.9786L112.996 19.528H111.488V21.528ZM112.128 23.768L110.205 24.3174L110.619 25.768H112.128V23.768ZM112.384 23.768V25.768H113.476L114.066 24.8495L112.384 23.768ZM113.792 22.328L114.886 24.0019L114.908 23.9875L114.93 23.9724L113.792 22.328ZM115.648 21.496L116.133 23.4363L116.161 23.4292L116.189 23.4213L115.648 21.496ZM117.76 23.208C119.261 23.208 120.246 23.608 120.929 24.2264L123.614 21.2616C122.036 19.832 120.014 19.208 117.76 19.208V23.208ZM120.945 24.2404C121.475 24.711 121.968 25.6609 121.968 27.608H125.968C125.968 25.0751 125.329 22.7824 123.599 21.2476L120.945 24.2404ZM121.968 27.608V39H125.968V27.608H121.968ZM123.968 37H119.2V41H123.968V37ZM121.2 39V28.792H117.2V39H121.2ZM121.2 28.792C121.2 27.3607 120.957 25.9204 120.148 24.803L116.908 27.149C116.995 27.2689 117.2 27.706 117.2 28.792H121.2ZM120.166 24.8291C119.248 23.5173 117.83 23.016 116.384 23.016V27.016C116.662 27.016 116.795 27.0617 116.838 27.0814C116.867 27.094 116.873 27.0999 116.889 27.1229L120.166 24.8291ZM116.384 23.016C114.434 23.016 112.623 23.7371 111.642 25.5808L115.173 27.4592C115.259 27.2976 115.432 27.016 116.384 27.016V23.016ZM111.65 25.565C110.885 26.973 110.608 28.7815 110.608 30.776H114.608C114.608 29.0585 114.864 28.0297 115.165 27.475L111.65 25.565ZM110.608 30.776V39H114.608V30.776H110.608ZM112.608 37H107.84V41H112.608V37ZM109.84 39V21.528H105.84V39H109.84ZM107.84 23.528H111.488V19.528H107.84V23.528ZM109.565 22.0774L110.205 24.3174L114.051 23.2186L113.411 20.9786L109.565 22.0774ZM112.128 25.768H112.384V21.768H112.128V25.768ZM114.066 24.8495C114.309 24.4716 114.584 24.1999 114.886 24.0019L112.697 20.6541C111.891 21.1815 111.226 21.8697 110.701 22.6865L114.066 24.8495ZM114.93 23.9724C115.278 23.7314 115.674 23.551 116.133 23.4363L115.163 19.5557C114.256 19.7823 113.415 20.1566 112.653 20.6836L114.93 23.9724ZM116.189 23.4213C116.692 23.28 117.213 23.208 117.76 23.208V19.208C116.856 19.208 115.969 19.328 115.106 19.5707L116.189 23.4213ZM133.639 21.528H135.639V19.528H133.639V21.528ZM133.639 39V41H135.639V39H133.639ZM128.871 39H126.871V41H128.871V39ZM128.871 21.528V19.528H126.871V21.528H128.871ZM133.095 15.192L131.986 16.8561L132.01 16.8724L132.035 16.888L133.095 15.192ZM133.095 18.84L131.986 17.1759V17.1759L133.095 18.84ZM129.415 18.84L128.273 20.4818L128.289 20.4931L128.306 20.5041L129.415 18.84ZM129.415 15.192L130.508 16.8672L130.516 16.8617L130.524 16.8561L129.415 15.192ZM131.639 21.528V39H135.639V21.528H131.639ZM133.639 37H128.871V41H133.639V37ZM130.871 39V21.528H126.871V39H130.871ZM128.871 23.528H133.639V19.528H128.871V23.528ZM131.271 16.68C131.639 16.68 131.848 16.7642 131.986 16.8561L134.204 13.5279C133.318 12.9372 132.311 12.68 131.271 12.68V16.68ZM132.035 16.888C131.982 16.8547 131.931 16.8107 131.89 16.7611C131.85 16.7129 131.832 16.6753 131.828 16.6641C131.824 16.6547 131.833 16.6739 131.843 16.7336C131.854 16.7935 131.863 16.8856 131.863 17.016H135.863C135.863 15.7896 135.502 14.3381 134.155 13.496L132.035 16.888ZM131.863 17.016C131.863 17.1385 131.854 17.2251 131.844 17.2817C131.834 17.3379 131.825 17.3578 131.828 17.3519C131.831 17.3444 131.845 17.3149 131.876 17.2761C131.908 17.2364 131.947 17.2018 131.986 17.1759L134.204 20.5041C135.486 19.6498 135.863 18.2545 135.863 17.016H131.863ZM131.986 17.1759C131.848 17.2678 131.639 17.352 131.271 17.352V21.352C132.311 21.352 133.318 21.0948 134.204 20.5041L131.986 17.1759ZM131.271 17.352C130.868 17.352 130.653 17.2614 130.524 17.1759L128.306 20.5041C129.201 21.1013 130.223 21.352 131.271 21.352V17.352ZM130.557 17.1982C130.602 17.2292 130.642 17.2678 130.674 17.3086C130.704 17.3482 130.716 17.3762 130.718 17.3796C130.718 17.3815 130.708 17.3568 130.698 17.2955C130.688 17.2339 130.679 17.1426 130.679 17.016H126.679C126.679 18.2235 127.026 19.6143 128.273 20.4818L130.557 17.1982ZM130.679 17.016C130.679 16.8816 130.688 16.7849 130.699 16.72C130.709 16.6551 130.72 16.6311 130.718 16.6364C130.715 16.6433 130.699 16.6795 130.66 16.7288C130.62 16.7797 130.567 16.8283 130.508 16.8672L128.322 13.5168C127.009 14.3732 126.679 15.8215 126.679 17.016H130.679ZM130.524 16.8561C130.653 16.7706 130.868 16.68 131.271 16.68V12.68C130.223 12.68 129.201 12.9307 128.306 13.5279L130.524 16.8561ZM147.517 35.352L147.092 33.3976L147.517 35.352ZM148.989 34.968H150.989V32.2687L148.407 33.0547L148.989 34.968ZM148.989 38.52L149.758 40.3662L150.989 39.8533V38.52H148.989ZM147.069 39.064L146.687 37.1008L146.655 37.107L146.623 37.1143L147.069 39.064ZM141.789 38.808L141.013 40.6513L141.021 40.6548L141.03 40.6583L141.789 38.808ZM139.837 37.048L138.085 38.0118L138.099 38.0381L138.114 38.064L139.837 37.048ZM139.133 25.112H141.133V23.112H139.133V25.112ZM136.861 25.112H134.861V27.112H136.861V25.112ZM136.861 23.096L135.82 21.3884L134.861 21.973V23.096H136.861ZM139.485 21.496L140.526 23.2036L141.116 22.8438L141.358 22.1965L139.485 21.496ZM140.861 17.816V15.816H139.474L138.988 17.1155L140.861 17.816ZM143.901 17.816H145.901V15.816H143.901V17.816ZM143.901 21.528H141.901V23.528H143.901V21.528ZM148.797 21.528H150.797V19.528H148.797V21.528ZM148.797 25.112V27.112H150.797V25.112H148.797ZM143.901 25.112V23.112H141.901V25.112H143.901ZM144.477 35.032L143.148 36.5268L143.172 36.548L143.197 36.5684L144.477 35.032ZM145.981 37.512C146.648 37.512 147.303 37.4452 147.942 37.3064L147.092 33.3976C146.749 33.4722 146.38 33.512 145.981 33.512V37.512ZM147.942 37.3064C148.487 37.1879 149.03 37.0461 149.571 36.8813L148.407 33.0547C147.967 33.1885 147.529 33.3027 147.092 33.3976L147.942 37.3064ZM146.989 34.968V38.52H150.989V34.968H146.989ZM148.22 36.6738C147.872 36.8188 147.372 36.9676 146.687 37.1008L147.451 41.0272C148.302 40.8617 149.082 40.6479 149.758 40.3662L148.22 36.6738ZM146.623 37.1143C146.045 37.2465 145.376 37.32 144.605 37.32V41.32C145.626 41.32 146.6 41.2229 147.515 41.0137L146.623 37.1143ZM144.605 37.32C143.778 37.32 143.103 37.1855 142.548 36.9577L141.03 40.6583C142.139 41.1132 143.341 41.32 144.605 41.32V37.32ZM142.565 36.9647C142.19 36.8067 141.855 36.532 141.56 36.032L138.114 38.064C138.801 39.228 139.767 40.1266 141.013 40.6513L142.565 36.9647ZM141.589 36.0842C141.347 35.6427 141.133 34.8486 141.133 33.528H137.133C137.133 35.194 137.389 36.7466 138.085 38.0118L141.589 36.0842ZM141.133 33.528V25.112H137.133V33.528H141.133ZM139.133 23.112H136.861V27.112H139.133V23.112ZM138.861 25.112V23.096H134.861V25.112H138.861ZM137.902 24.8036L140.526 23.2036L138.444 19.7884L135.82 21.3884L137.902 24.8036ZM141.358 22.1965L142.734 18.5165L138.988 17.1155L137.612 20.7955L141.358 22.1965ZM140.861 19.816H143.901V15.816H140.861V19.816ZM141.901 17.816V21.528H145.901V17.816H141.901ZM143.901 23.528H148.797V19.528H143.901V23.528ZM146.797 21.528V25.112H150.797V21.528H146.797ZM148.797 23.112H143.901V27.112H148.797V23.112ZM141.901 25.112V33.528H145.901V25.112H141.901ZM141.901 33.528C141.901 34.5857 142.222 35.7035 143.148 36.5268L145.806 33.5372C145.831 33.5596 145.855 33.587 145.876 33.6174C145.897 33.6474 145.908 33.6718 145.913 33.6847C145.922 33.7085 145.901 33.669 145.901 33.528H141.901ZM143.197 36.5684C144.019 37.254 145.009 37.512 145.981 37.512V33.512C145.843 33.512 145.772 33.494 145.749 33.4867C145.731 33.4809 145.741 33.4818 145.757 33.4956L143.197 36.5684ZM165.04 22.712L163.765 24.2528L163.779 24.2647L163.794 24.2763L165.04 22.712ZM166.928 39V41H168.928V39H166.928ZM163.6 39L161.738 39.7297L162.236 41H163.6V39ZM162.672 36.632L164.534 35.9023L164.036 34.632H162.672V36.632ZM162.544 36.632V34.632H161.578L160.977 35.3892L162.544 36.632ZM161.008 38.168L159.798 36.5757L159.782 36.5876L159.767 36.5999L161.008 38.168ZM159.216 39.032L158.731 37.0917L158.694 37.1008L158.658 37.1113L159.216 39.032ZM153.968 38.744L153.074 40.5329L153.102 40.5468L153.13 40.5599L153.968 38.744ZM152.048 36.92L150.306 37.9026L150.312 37.9124L150.317 37.9221L152.048 36.92ZM153.296 29.688L154.412 31.3479L154.421 31.3417L154.43 31.3353L153.296 29.688ZM159.152 28.216L159.089 26.217L159.086 26.2171L159.152 28.216ZM162.192 28.12L162.255 30.119L164.192 30.0578V28.12H162.192ZM161.456 25.336L160.111 26.8159L160.127 26.8307L160.144 26.8452L161.456 25.336ZM156.976 25.08L157.532 27.0011L157.555 26.9944L157.578 26.9872L156.976 25.08ZM154.544 25.976L152.745 26.849L153.591 28.5934L155.361 27.8016L154.544 25.976ZM152.976 22.744L152.049 20.9715L150.329 21.8707L151.177 23.617L152.976 22.744ZM156.08 21.592L155.612 19.6475L155.604 19.6496L156.08 21.592ZM160.336 30.968L160.392 32.9673L160.405 32.9668L160.336 30.968ZM157.136 31.8L155.834 30.2815L157.136 31.8ZM156.88 35.384L155.68 36.984L155.706 37.0037L155.733 37.0225L156.88 35.384ZM161.136 34.936L162.43 36.461L162.443 36.4498L162.456 36.4383L161.136 34.936ZM162.192 30.904H164.192V28.8338L162.123 28.9052L162.192 30.904ZM159.664 23.176C161.754 23.176 163.019 23.6359 163.765 24.2528L166.315 21.1712C164.586 19.7401 162.268 19.176 159.664 19.176V23.176ZM163.794 24.2763C164.441 24.7916 164.928 25.6731 164.928 27.352H168.928C168.928 24.8496 168.157 22.6377 166.286 21.1477L163.794 24.2763ZM164.928 27.352V39H168.928V27.352H164.928ZM166.928 37H163.6V41H166.928V37ZM165.462 38.2703L164.534 35.9023L160.81 37.3617L161.738 39.7297L165.462 38.2703ZM162.672 34.632H162.544V38.632H162.672V34.632ZM160.977 35.3892C160.572 35.8995 160.177 36.2876 159.798 36.5757L162.218 39.7603C162.906 39.2377 163.534 38.6018 164.111 37.8748L160.977 35.3892ZM159.767 36.5999C159.494 36.8155 159.16 36.9845 158.731 37.0917L159.701 40.9723C160.638 40.7381 161.498 40.3312 162.249 39.7361L159.767 36.5999ZM158.658 37.1113C158.237 37.2336 157.618 37.32 156.752 37.32V41.32C157.849 41.32 158.872 41.2144 159.774 40.9527L158.658 37.1113ZM156.752 37.32C155.983 37.32 155.346 37.1772 154.806 36.9281L153.13 40.5599C154.254 41.0788 155.473 41.32 156.752 41.32V37.32ZM154.862 36.9551C154.414 36.7308 154.059 36.4022 153.779 35.9179L150.317 37.9221C150.975 39.0591 151.901 39.9466 153.074 40.5329L154.862 36.9551ZM153.79 35.9374C153.535 35.4857 153.344 34.8043 153.344 33.784H149.344C149.344 35.281 149.622 36.6903 150.306 37.9026L153.79 35.9374ZM153.344 33.784C153.344 32.4531 153.771 31.7787 154.412 31.3479L152.18 28.0281C150.219 29.3466 149.344 31.4029 149.344 33.784H153.344ZM154.43 31.3353C155.273 30.7553 156.774 30.295 159.218 30.2149L159.086 26.2171C156.324 26.3076 153.922 26.8287 152.162 28.0407L154.43 31.3353ZM159.215 30.215L162.255 30.119L162.129 26.121L159.089 26.217L159.215 30.215ZM164.192 28.12V27.352H160.192V28.12H164.192ZM164.192 27.352C164.192 26.1019 163.852 24.7695 162.768 23.8268L160.144 26.8452C160.109 26.8147 160.111 26.7952 160.129 26.8459C160.153 26.9099 160.192 27.0644 160.192 27.352H164.192ZM162.801 23.8561C161.852 22.9935 160.648 22.696 159.472 22.696V26.696C159.736 26.696 159.901 26.7294 159.994 26.7594C160.08 26.7871 160.106 26.8119 160.111 26.8159L162.801 23.8561ZM159.472 22.696C158.415 22.696 157.38 22.8551 156.374 23.1728L157.578 26.9872C158.193 26.7929 158.822 26.696 159.472 26.696V22.696ZM156.42 23.1589C155.516 23.4206 154.618 23.7518 153.727 24.1504L155.361 27.8016C156.091 27.4748 156.815 27.2087 157.532 27.0011L156.42 23.1589ZM156.343 25.103L154.775 21.871L151.177 23.617L152.745 26.849L156.343 25.103ZM153.903 24.5165C154.685 24.1073 155.567 23.7772 156.556 23.5344L155.604 19.6496C154.332 19.9615 153.144 20.3994 152.049 20.9715L153.903 24.5165ZM156.548 23.5364C157.54 23.2976 158.577 23.176 159.664 23.176V19.176C158.276 19.176 156.924 19.3317 155.612 19.6476L156.548 23.5364ZM160.28 28.9688C158.659 29.0138 156.984 29.2957 155.834 30.2815L158.438 33.3185C158.432 33.3234 158.538 33.2346 158.887 33.1436C159.23 33.0546 159.72 32.9859 160.392 32.9672L160.28 28.9688ZM155.834 30.2815C154.766 31.1977 154.24 32.4384 154.24 33.816H158.24C158.24 33.5296 158.312 33.4263 158.438 33.3185L155.834 30.2815ZM154.24 33.816C154.24 34.9268 154.582 36.1606 155.68 36.984L158.08 33.784C158.12 33.8144 158.16 33.8528 158.193 33.8963C158.225 33.9393 158.243 33.9757 158.252 33.9962C158.267 34.0325 158.24 33.9901 158.24 33.816H154.24ZM155.733 37.0225C156.586 37.6198 157.577 37.832 158.544 37.832V33.832C158.145 33.832 158.027 33.7455 158.027 33.7455L155.733 37.0225ZM158.544 37.832C159.987 37.832 161.324 37.399 162.43 36.461L159.842 33.411C159.54 33.6677 159.149 33.832 158.544 33.832V37.832ZM162.456 36.4383C163.672 35.3696 164.192 33.9126 164.192 32.344H160.192C160.192 32.9941 160.008 33.2651 159.816 33.4337L162.456 36.4383ZM164.192 32.344V30.904H160.192V32.344H164.192ZM162.123 28.9052L160.267 28.9692L160.405 32.9668L162.261 32.9028L162.123 28.9052ZM186.305 23.512L184.736 24.7534L184.745 24.7641L186.305 23.512ZM187.264 35.256L189.103 36.0439L189.107 36.0334L187.264 35.256ZM184.896 38.296L183.771 36.6428L184.896 38.296ZM179.232 39L178.56 40.8835L178.57 40.8872L178.581 40.8907L179.232 39ZM177.697 38.168L178.946 36.6063L177.697 38.168ZM176.577 37.08L178.113 35.7996L177.513 35.08H176.577V37.08ZM176.32 37.08V35.08H173.856L174.363 37.492L176.32 37.08ZM176.512 38.36L174.521 38.5496L174.522 38.559L176.512 38.36ZM176.577 46.68V48.68H178.577V46.68H176.577ZM171.809 46.68H169.809V48.68H171.809V46.68ZM171.809 21.528V19.528H169.809V21.528H171.809ZM175.68 21.528L177.598 20.9607L177.175 19.528H175.68V21.528ZM176.352 23.8L174.435 24.3673L174.858 25.8H176.352V23.8ZM176.577 23.8V25.8H177.633L178.229 24.9267L176.577 23.8ZM177.729 22.52L179.03 24.0385L179.05 24.0211L179.07 24.0031L177.729 22.52ZM179.329 21.56L178.64 19.6822L178.63 19.6861L178.619 19.69L179.329 21.56ZM178.016 25.528L176.874 23.8862L178.016 25.528ZM176.928 27.096L175.031 26.4635L175.025 26.4814L175.02 26.4995L176.928 27.096ZM176.577 29.688L174.577 29.6472L174.577 29.6676V29.688H176.577ZM176.896 33.08L174.966 33.6018L174.969 33.6153L176.896 33.08ZM177.984 34.84L179.226 33.2719L177.984 34.84ZM181.857 34.84L180.549 33.3264L181.857 34.84ZM182.913 33.048L180.995 32.4781L182.913 33.048ZM182.465 26.328L180.738 27.3384L180.753 27.3634L180.769 27.388L182.465 26.328ZM181.536 23.208C182.889 23.208 183.901 23.6976 184.736 24.7534L187.873 22.2706C186.276 20.2544 184.109 19.208 181.536 19.208V23.208ZM184.745 24.7641C185.56 25.7793 186.128 27.4938 186.128 30.232H190.128C190.128 27.0396 189.481 24.2741 187.864 22.2599L184.745 24.7641ZM186.128 30.232C186.128 32.0344 185.865 33.4274 185.422 34.4786L189.107 36.0334C189.816 34.3539 190.128 32.3976 190.128 30.232H186.128ZM185.426 34.4682C184.969 35.5343 184.399 36.2153 183.771 36.6428L186.022 39.9492C187.399 39.0114 188.408 37.6657 189.103 36.0438L185.426 34.4682ZM183.771 36.6428C183.13 37.079 182.368 37.32 181.409 37.32V41.32C183.095 41.32 184.657 40.8783 186.022 39.9492L183.771 36.6428ZM181.409 37.32C180.741 37.32 180.245 37.2337 179.884 37.1093L178.581 40.8907C179.457 41.193 180.412 41.32 181.409 41.32V37.32ZM179.905 37.1165C179.484 36.966 179.174 36.7889 178.946 36.6063L176.447 39.7297C177.072 40.2298 177.787 40.6074 178.56 40.8835L179.905 37.1165ZM178.946 36.6063C178.615 36.3412 178.339 36.0714 178.113 35.7996L175.04 38.3604C175.454 38.8566 175.925 39.3122 176.447 39.7297L178.946 36.6063ZM176.577 35.08H176.32V39.08H176.577V35.08ZM174.363 37.492C174.432 37.8179 174.485 38.17 174.522 38.5496L178.503 38.1704C178.454 37.654 178.38 37.1527 178.278 36.668L174.363 37.492ZM174.522 38.559C174.559 38.9199 174.577 39.2801 174.577 39.64H178.577C178.577 39.1465 178.552 38.6535 178.503 38.161L174.522 38.559ZM174.577 39.64V46.68H178.577V39.64H174.577ZM176.577 44.68H171.809V48.68H176.577V44.68ZM173.809 46.68V21.528H169.809V46.68H173.809ZM171.809 23.528H175.68V19.528H171.809V23.528ZM173.763 22.0953L174.435 24.3673L178.27 23.2327L177.598 20.9607L173.763 22.0953ZM176.352 25.8H176.577V21.8H176.352V25.8ZM178.229 24.9267C178.446 24.6084 178.711 24.3124 179.03 24.0385L176.427 21.0015C175.85 21.4956 175.347 22.053 174.924 22.6733L178.229 24.9267ZM179.07 24.0031C179.317 23.7803 179.63 23.5847 180.038 23.43L178.619 19.69C177.79 20.0047 177.036 20.4491 176.387 21.0369L179.07 24.0031ZM180.017 23.4378C180.394 23.2996 180.889 23.208 181.536 23.208V19.208C180.52 19.208 179.543 19.3511 178.64 19.6822L180.017 23.4378ZM180.001 23.016C178.915 23.016 177.808 23.2365 176.874 23.8862L179.159 27.1698C179.206 27.1369 179.422 27.016 180.001 27.016V23.016ZM176.874 23.8862C175.952 24.5281 175.369 25.4509 175.031 26.4635L178.826 27.7285C178.958 27.3331 179.1 27.2106 179.159 27.1698L176.874 23.8862ZM175.02 26.4995C174.731 27.4243 174.6 28.4918 174.577 29.6472L178.576 29.7288C178.595 28.7935 178.7 28.133 178.837 27.6925L175.02 26.4995ZM174.577 29.688V30.2H178.577V29.688H174.577ZM174.577 30.2C174.577 31.4449 174.693 32.5914 174.966 33.6018L178.827 32.5582C178.674 31.9899 178.577 31.2164 178.577 30.2H174.577ZM174.969 33.6153C175.271 34.6997 175.831 35.6862 176.743 36.4081L179.226 33.2719C179.114 33.1831 178.949 32.9963 178.824 32.5447L174.969 33.6153ZM176.743 36.4081C177.712 37.1751 178.892 37.448 180.064 37.448V33.448C179.488 33.448 179.281 33.3156 179.226 33.2719L176.743 36.4081ZM180.064 37.448C181.184 37.448 182.271 37.1247 183.164 36.3536L180.549 33.3264C180.503 33.366 180.396 33.448 180.064 33.448V37.448ZM183.164 36.3536C184.003 35.6289 184.521 34.6562 184.83 33.6179L180.995 32.4781C180.835 33.0184 180.649 33.2404 180.549 33.3264L183.164 36.3536ZM184.83 33.6179C185.135 32.5892 185.264 31.4252 185.264 30.168H181.264C181.264 31.1721 181.159 31.9281 180.995 32.4781L184.83 33.6179ZM185.264 30.168C185.264 28.3177 184.987 26.5905 184.16 25.268L180.769 27.388C181.009 27.7722 181.264 28.6049 181.264 30.168H185.264ZM184.191 25.3176C183.272 23.7492 181.743 23.016 180.001 23.016V27.016C180.52 27.016 180.633 27.1575 180.738 27.3384L184.191 25.3176ZM214.483 18.072L213.104 19.5203L213.115 19.5315L213.127 19.5425L214.483 18.072ZM216.083 26.168L217.98 26.8005L217.985 26.7872L216.083 26.168ZM214.579 28.6L213.144 27.207L213.143 27.2077L214.579 28.6ZM211.859 30.264L212.534 32.1467L211.859 30.264ZM205.587 30.872V28.872H203.587V30.872H205.587ZM205.587 39V41H207.587V39H205.587ZM200.755 39H198.755V41H200.755V39ZM200.755 16.152V14.152H198.755V16.152H200.755ZM205.587 20.12V18.12H203.587V20.12H205.587ZM205.587 26.904H203.587V28.904H205.587V26.904ZM209.555 26.552L208.886 24.6671V24.6671L209.555 26.552ZM211.091 25.432L209.459 24.276L211.091 25.432ZM210.707 20.952L209.372 22.4411L209.386 22.4541L209.401 22.4668L210.707 20.952ZM208.051 18.152C210.77 18.152 212.298 18.7531 213.104 19.5203L215.862 16.6237C213.98 14.8309 211.22 14.152 208.051 14.152V18.152ZM213.127 19.5425C214.002 20.3492 214.531 21.5098 214.531 23.288H218.531C218.531 20.6288 217.694 18.3121 215.839 16.6015L213.127 19.5425ZM214.531 23.288C214.531 24.0887 214.412 24.8392 214.181 25.5488L217.985 26.7872C218.351 25.6621 218.531 24.4926 218.531 23.288H214.531ZM214.186 25.5355C213.989 26.1268 213.654 26.6818 213.144 27.207L216.014 29.993C216.912 29.0675 217.58 28.0012 217.98 26.8005L214.186 25.5355ZM213.143 27.2077C212.716 27.6484 212.091 28.0564 211.184 28.3813L212.534 32.1467C213.889 31.661 215.077 30.9596 216.015 29.9923L213.143 27.2077ZM211.184 28.3813C210.336 28.6855 209.183 28.872 207.667 28.872V32.872C209.479 32.872 211.121 32.6532 212.534 32.1467L211.184 28.3813ZM207.667 28.872H205.587V32.872H207.667V28.872ZM203.587 30.872V39H207.587V30.872H203.587ZM205.587 37H200.755V41H205.587V37ZM202.755 39V16.152H198.755V39H202.755ZM200.755 18.152H208.051V14.152H200.755V18.152ZM207.795 18.12H205.587V22.12H207.795V18.12ZM203.587 20.12V26.904H207.587V20.12H203.587ZM205.587 28.904H207.187V24.904H205.587V28.904ZM207.187 28.904C208.266 28.904 209.293 28.7671 210.224 28.4369L208.886 24.6671C208.494 24.8062 207.943 24.904 207.187 24.904V28.904ZM210.224 28.4369C211.226 28.0814 212.094 27.4757 212.723 26.588L209.459 24.276C209.362 24.4123 209.207 24.5533 208.886 24.6671L210.224 28.4369ZM212.723 26.588C213.386 25.6514 213.635 24.5522 213.635 23.448H209.635C209.635 23.9651 209.521 24.1886 209.459 24.276L212.723 26.588ZM213.635 23.448C213.635 21.9689 213.223 20.4801 212.013 19.4372L209.401 22.4668C209.429 22.4905 209.635 22.6658 209.635 23.448H213.635ZM212.042 19.4629C210.893 18.4323 209.334 18.12 207.795 18.12V22.12C208.902 22.12 209.284 22.3624 209.372 22.4411L212.042 19.4629ZM233.009 22.712L231.734 24.2528L231.748 24.2647L231.763 24.2763L233.009 22.712ZM234.897 39V41H236.897V39H234.897ZM231.569 39L229.707 39.7297L230.204 41H231.569V39ZM230.641 36.632L232.503 35.9023L232.005 34.632H230.641V36.632ZM230.513 36.632V34.632H229.546L228.946 35.3892L230.513 36.632ZM228.977 38.168L227.767 36.5757L227.751 36.5876L227.735 36.5999L228.977 38.168ZM227.185 39.032L226.7 37.0917L226.663 37.1008L226.627 37.1113L227.185 39.032ZM221.937 38.744L221.042 40.5329L221.07 40.5468L221.099 40.5599L221.937 38.744ZM220.017 36.92L218.275 37.9026L218.28 37.9124L218.286 37.9221L220.017 36.92ZM221.265 29.688L222.38 31.3479L222.39 31.3417L222.399 31.3353L221.265 29.688ZM227.121 28.216L227.058 26.217L227.055 26.2171L227.121 28.216ZM230.161 28.12L230.224 30.119L232.161 30.0578V28.12H230.161ZM229.425 25.336L228.079 26.8159L228.096 26.8307L228.112 26.8452L229.425 25.336ZM224.945 25.08L225.501 27.0011L225.524 26.9944L225.547 26.9872L224.945 25.08ZM222.513 25.976L220.713 26.849L221.56 28.5934L223.329 27.8016L222.513 25.976ZM220.945 22.744L220.018 20.9715L218.298 21.8707L219.145 23.617L220.945 22.744ZM224.049 21.592L223.581 19.6475L223.572 19.6496L224.049 21.592ZM228.305 30.968L228.36 32.9673L228.374 32.9668L228.305 30.968ZM225.105 31.8L223.803 30.2815L225.105 31.8ZM224.849 35.384L223.649 36.984L223.675 37.0037L223.702 37.0225L224.849 35.384ZM229.105 34.936L230.399 36.461L230.412 36.4498L230.425 36.4383L229.105 34.936ZM230.161 30.904H232.161V28.8338L230.092 28.9052L230.161 30.904ZM227.633 23.176C229.723 23.176 230.988 23.6359 231.734 24.2528L234.284 21.1712C232.555 19.7401 230.236 19.176 227.633 19.176V23.176ZM231.763 24.2763C232.409 24.7916 232.897 25.6731 232.897 27.352H236.897C236.897 24.8496 236.125 22.6377 234.255 21.1477L231.763 24.2763ZM232.897 27.352V39H236.897V27.352H232.897ZM234.897 37H231.569V41H234.897V37ZM233.431 38.2703L232.503 35.9023L228.779 37.3617L229.707 39.7297L233.431 38.2703ZM230.641 34.632H230.513V38.632H230.641V34.632ZM228.946 35.3892C228.541 35.8995 228.146 36.2876 227.767 36.5757L230.187 39.7603C230.875 39.2377 231.503 38.6018 232.08 37.8748L228.946 35.3892ZM227.735 36.5999C227.463 36.8155 227.128 36.9845 226.7 37.0917L227.67 40.9723C228.606 40.7381 229.466 40.3312 230.218 39.7361L227.735 36.5999ZM226.627 37.1113C226.206 37.2336 225.586 37.32 224.721 37.32V41.32C225.818 41.32 226.841 41.2144 227.742 40.9527L226.627 37.1113ZM224.721 37.32C223.952 37.32 223.315 37.1772 222.775 36.9281L221.099 40.5599C222.223 41.0788 223.442 41.32 224.721 41.32V37.32ZM222.831 36.9551C222.382 36.7308 222.028 36.4022 221.748 35.9179L218.286 37.9221C218.944 39.0591 219.87 39.9466 221.042 40.5329L222.831 36.9551ZM221.759 35.9374C221.504 35.4857 221.313 34.8043 221.313 33.784H217.313C217.313 35.281 217.591 36.6903 218.275 37.9026L221.759 35.9374ZM221.313 33.784C221.313 32.4531 221.739 31.7787 222.38 31.3479L220.149 28.0281C218.187 29.3466 217.313 31.4029 217.313 33.784H221.313ZM222.399 31.3353C223.241 30.7553 224.743 30.295 227.186 30.2149L227.055 26.2171C224.293 26.3076 221.891 26.8287 220.131 28.0407L222.399 31.3353ZM227.184 30.215L230.224 30.119L230.098 26.121L227.058 26.217L227.184 30.215ZM232.161 28.12V27.352H228.161V28.12H232.161ZM232.161 27.352C232.161 26.1019 231.821 24.7695 230.737 23.8268L228.112 26.8452C228.077 26.8147 228.08 26.7952 228.098 26.8459C228.121 26.9099 228.161 27.0644 228.161 27.352H232.161ZM230.77 23.8561C229.821 22.9935 228.617 22.696 227.441 22.696V26.696C227.705 26.696 227.87 26.7294 227.963 26.7594C228.048 26.7871 228.075 26.8119 228.079 26.8159L230.77 23.8561ZM227.441 22.696C226.384 22.696 225.349 22.8551 224.342 23.1728L225.547 26.9872C226.162 26.7929 226.791 26.696 227.441 26.696V22.696ZM224.389 23.1589C223.484 23.4206 222.587 23.7518 221.696 24.1504L223.329 27.8016C224.06 27.4748 224.784 27.2087 225.501 27.0011L224.389 23.1589ZM224.312 25.103L222.744 21.871L219.145 23.617L220.713 26.849L224.312 25.103ZM221.871 24.5165C222.654 24.1073 223.536 23.7772 224.525 23.5344L223.572 19.6496C222.301 19.9615 221.113 20.3994 220.018 20.9715L221.871 24.5165ZM224.517 23.5364C225.509 23.2976 226.546 23.176 227.633 23.176V19.176C226.245 19.176 224.893 19.3317 223.581 19.6476L224.517 23.5364ZM228.249 28.9688C226.628 29.0138 224.953 29.2957 223.803 30.2815L226.406 33.3185C226.401 33.3234 226.506 33.2346 226.856 33.1436C227.198 33.0546 227.689 32.9859 228.36 32.9672L228.249 28.9688ZM223.803 30.2815C222.734 31.1977 222.209 32.4384 222.209 33.816H226.209C226.209 33.5296 226.281 33.4263 226.406 33.3185L223.803 30.2815ZM222.209 33.816C222.209 34.9268 222.551 36.1606 223.649 36.984L226.049 33.784C226.089 33.8144 226.128 33.8528 226.161 33.8963C226.194 33.9393 226.212 33.9757 226.22 33.9962C226.235 34.0325 226.209 33.9901 226.209 33.816H222.209ZM223.702 37.0225C224.555 37.6198 225.546 37.832 226.513 37.832V33.832C226.114 33.832 225.996 33.7455 225.996 33.7455L223.702 37.0225ZM226.513 37.832C227.955 37.832 229.293 37.399 230.399 36.461L227.811 33.411C227.508 33.6677 227.118 33.832 226.513 33.832V37.832ZM230.425 36.4383C231.641 35.3696 232.161 33.9126 232.161 32.344H228.161C228.161 32.9941 227.976 33.2651 227.785 33.4337L230.425 36.4383ZM232.161 32.344V30.904H228.161V32.344H232.161ZM230.092 28.9052L228.236 28.9692L228.374 32.9668L230.23 32.9028L230.092 28.9052ZM251.137 36.824L252.788 37.9534L252.795 37.9434L252.801 37.9334L251.137 36.824ZM248.641 38.68L249.359 40.5467L248.641 38.68ZM241.377 39.064L241.76 37.101L241.737 37.0965L241.714 37.0925L241.377 39.064ZM238.753 38.296H236.753V39.6318L237.987 40.1435L238.753 38.296ZM238.753 34.36L239.581 32.5393L236.753 31.254V34.36H238.753ZM246.657 35.416L245.528 33.7654L245.507 33.7797L245.486 33.7946L246.657 35.416ZM247.009 33.528L245.322 34.6017L245.355 34.6541L245.392 34.7043L247.009 33.528ZM243.489 31.576L242.697 33.4124L242.71 33.4179L242.722 33.4232L243.489 31.576ZM240.801 30.2L239.692 31.8641L239.71 31.8759L239.727 31.8873L240.801 30.2ZM239.233 28.536L237.456 29.4533L237.462 29.4653L237.469 29.4772L239.233 28.536ZM240.609 22.424L241.692 24.1054V24.1054L240.609 22.424ZM248.737 21.528L248.312 23.4824V23.4824L248.737 21.528ZM251.777 22.584L253.621 23.3593L254.365 21.5894L252.627 20.7735L251.777 22.584ZM250.337 26.008L249.525 27.8356L251.39 28.6644L252.181 26.7833L250.337 26.008ZM248.673 25.336L247.996 27.2178L248.673 25.336ZM247.105 24.888L246.68 26.8424L246.689 26.8442L246.697 26.846L247.105 24.888ZM243.969 25.016L243.033 23.2484L243.011 23.2604L242.989 23.2728L243.969 25.016ZM243.713 26.648L242.096 27.8243L242.157 27.9085L242.227 27.9859L243.713 26.648ZM244.769 27.352L243.875 29.1409L243.889 29.1481L243.904 29.155L244.769 27.352ZM247.105 28.376L246.336 30.2222L246.346 30.2262L246.356 30.2302L247.105 28.376ZM249.697 29.656L248.646 31.3576L248.665 31.3689L248.683 31.3799L249.697 29.656ZM251.361 31.288L249.632 32.2923L249.651 32.3256L249.672 32.3581L251.361 31.288ZM249.969 33.816C249.969 34.6645 249.773 35.2649 249.473 35.7146L252.801 37.9334C253.611 36.7191 253.969 35.3142 253.969 33.816H249.969ZM249.487 35.6946C249.205 36.1057 248.735 36.5011 247.923 36.8133L249.359 40.5467C250.766 40.0055 251.96 39.1636 252.788 37.9534L249.487 35.6946ZM247.923 36.8133C247.112 37.1252 245.998 37.32 244.513 37.32V41.32C246.314 41.32 247.951 41.0881 249.359 40.5467L247.923 36.8133ZM244.513 37.32C243.383 37.32 242.473 37.24 241.76 37.101L240.994 41.027C242.031 41.2293 243.212 41.32 244.513 41.32V37.32ZM241.714 37.0925C240.996 36.97 240.265 36.7577 239.519 36.4485L237.987 40.1435C238.991 40.5596 240.009 40.8594 241.041 41.0355L241.714 37.0925ZM240.753 38.296V34.36H236.753V38.296H240.753ZM237.926 36.1807C238.981 36.6604 240.107 37.0501 241.299 37.354L242.287 33.478C241.304 33.2273 240.403 32.913 239.581 32.5393L237.926 36.1807ZM241.299 37.354C242.496 37.6592 243.628 37.832 244.673 37.832V33.832C244.054 33.832 243.266 33.7275 242.287 33.478L241.299 37.354ZM244.673 37.832C245.687 37.832 246.902 37.706 247.828 37.0374L245.486 33.7946C245.597 33.7149 245.628 33.736 245.463 33.7706C245.308 33.8031 245.054 33.832 244.673 33.832V37.832ZM247.787 37.0666C248.675 36.4587 249.265 35.5075 249.265 34.328H245.265C245.265 34.238 245.289 34.1004 245.367 33.9604C245.442 33.8272 245.522 33.7695 245.528 33.7654L247.787 37.0666ZM249.265 34.328C249.265 33.6199 249.054 32.9387 248.627 32.3517L245.392 34.7043C245.356 34.6556 245.321 34.5906 245.296 34.5135C245.272 34.4371 245.265 34.3717 245.265 34.328H249.265ZM248.697 32.4543C248.257 31.7633 247.517 31.2934 246.962 30.983L245.008 34.473C245.219 34.5911 245.345 34.6771 245.41 34.728C245.441 34.7522 245.445 34.7583 245.432 34.7449C245.42 34.7328 245.375 34.6858 245.322 34.6017L248.697 32.4543ZM246.962 30.983C246.323 30.6249 245.402 30.2047 244.256 29.7288L242.722 33.4232C243.837 33.886 244.581 34.2337 245.008 34.473L246.962 30.983ZM244.281 29.7396C243.254 29.2964 242.461 28.8854 241.875 28.5127L239.727 31.8873C240.55 32.4106 241.548 32.9169 242.697 33.4124L244.281 29.7396ZM241.911 28.5359C241.436 28.2191 241.16 27.8984 240.998 27.5948L237.469 29.4772C237.989 30.4536 238.759 31.2422 239.692 31.8641L241.911 28.5359ZM241.01 27.6187C240.855 27.3167 240.721 26.832 240.721 26.072H236.721C236.721 27.2747 236.929 28.4326 237.456 29.4533L241.01 27.6187ZM240.721 26.072C240.721 25.0633 241.06 24.5129 241.692 24.1054L239.526 20.7426C237.642 21.9564 236.721 23.838 236.721 26.072H240.721ZM241.692 24.1054C242.524 23.5698 243.78 23.208 245.633 23.208V19.208C243.305 19.208 241.212 19.6568 239.526 20.7426L241.692 24.1054ZM245.633 23.208C246.59 23.208 247.482 23.3018 248.312 23.4824L249.162 19.5736C248.03 19.3276 246.852 19.208 245.633 19.208V23.208ZM248.312 23.4824C249.127 23.6595 249.998 23.9583 250.927 24.3945L252.627 20.7735C251.466 20.2284 250.31 19.8232 249.162 19.5736L248.312 23.4824ZM249.934 21.8087L248.494 25.2327L252.181 26.7833L253.621 23.3593L249.934 21.8087ZM251.15 24.1804C250.534 23.9068 249.934 23.6643 249.351 23.4542L247.996 27.2178C248.479 27.3917 248.988 27.5972 249.525 27.8356L251.15 24.1804ZM249.351 23.4542C248.737 23.2332 248.124 23.0573 247.513 22.93L246.697 26.846C247.111 26.9321 247.543 27.0548 247.996 27.2178L249.351 23.4542ZM247.53 22.9336C246.891 22.7948 246.237 22.728 245.569 22.728V26.728C245.969 26.728 246.338 26.7678 246.68 26.8424L247.53 22.9336ZM245.569 22.728C244.742 22.728 243.822 22.8309 243.033 23.2484L244.905 26.7836C244.856 26.8094 244.871 26.7908 244.996 26.7684C245.117 26.7466 245.303 26.728 245.569 26.728V22.728ZM242.989 23.2728C242.033 23.8103 241.457 24.7558 241.457 25.88H245.457C245.457 25.9931 245.429 26.1878 245.306 26.3956C245.184 26.6014 245.033 26.7126 244.95 26.7592L242.989 23.2728ZM241.457 25.88C241.457 26.6004 241.689 27.2647 242.096 27.8243L245.331 25.4717C245.357 25.5077 245.392 25.5669 245.419 25.6475C245.446 25.7291 245.457 25.8097 245.457 25.88H241.457ZM242.227 27.9859C242.681 28.4909 243.317 28.8617 243.875 29.1409L245.664 25.5631C245.458 25.4602 245.318 25.3784 245.231 25.3199C245.135 25.2558 245.145 25.2492 245.2 25.3101L242.227 27.9859ZM243.904 29.155C244.485 29.4341 245.302 29.7915 246.336 30.2222L247.874 26.5298C246.86 26.1072 246.12 25.7819 245.635 25.549L243.904 29.155ZM246.356 30.2302C247.28 30.6039 248.038 30.9822 248.646 31.3576L250.748 27.9544C249.905 27.4338 248.936 26.9587 247.855 26.5218L246.356 30.2302ZM248.683 31.3799C249.143 31.6501 249.437 31.9575 249.632 32.2923L253.091 30.2837C252.517 29.2958 251.703 28.5152 250.711 27.9321L248.683 31.3799ZM249.672 32.3581C249.811 32.5782 249.969 33.0109 249.969 33.816H253.969C253.969 32.5304 253.722 31.2778 253.051 30.2179L249.672 32.3581ZM267.043 36.824L268.694 37.9534L268.701 37.9434L268.708 37.9334L267.043 36.824ZM264.547 38.68L265.265 40.5467L264.547 38.68ZM257.284 39.064L257.667 37.101L257.643 37.0965L257.62 37.0925L257.284 39.064ZM254.659 38.296H252.66V39.6318L253.893 40.1435L254.659 38.296ZM254.659 34.36L255.487 32.5393L252.66 31.254V34.36H254.659ZM262.564 35.416L261.434 33.7654L261.413 33.7797L261.393 33.7946L262.564 35.416ZM262.915 33.528L261.228 34.6017L261.262 34.6541L261.298 34.7043L262.915 33.528ZM259.396 31.576L258.603 33.4124L258.616 33.4179L258.629 33.4232L259.396 31.576ZM256.707 30.2L255.598 31.8641L255.616 31.8759L255.634 31.8873L256.707 30.2ZM255.139 28.536L253.362 29.4533L253.368 29.4653L253.375 29.4772L255.139 28.536ZM256.516 22.424L257.598 24.1054V24.1054L256.516 22.424ZM264.643 21.528L264.219 23.4824V23.4824L264.643 21.528ZM267.684 22.584L269.527 23.3593L270.271 21.5894L268.533 20.7735L267.684 22.584ZM266.243 26.008L265.431 27.8356L267.296 28.6644L268.087 26.7833L266.243 26.008ZM264.579 25.336L263.902 27.2178L264.579 25.336ZM263.012 24.888L262.587 26.8424L262.595 26.8442L262.604 26.846L263.012 24.888ZM259.875 25.016L258.94 23.2484L258.917 23.2604L258.895 23.2728L259.875 25.016ZM259.62 26.648L258.002 27.8243L258.063 27.9085L258.133 27.9859L259.62 26.648ZM260.676 27.352L259.781 29.1409L259.796 29.1481L259.81 29.155L260.676 27.352ZM263.012 28.376L262.242 30.2222L262.252 30.2262L262.262 30.2302L263.012 28.376ZM265.604 29.656L264.553 31.3576L264.571 31.3689L264.589 31.3799L265.604 29.656ZM267.267 31.288L265.538 32.2923L265.557 32.3256L265.578 32.3581L267.267 31.288ZM265.875 33.816C265.875 34.6645 265.679 35.2649 265.379 35.7146L268.708 37.9334C269.517 36.7191 269.875 35.3142 269.875 33.816H265.875ZM265.393 35.6946C265.112 36.1057 264.641 36.5011 263.83 36.8133L265.265 40.5467C266.672 40.0055 267.866 39.1636 268.694 37.9534L265.393 35.6946ZM263.83 36.8133C263.019 37.1252 261.904 37.32 260.419 37.32V41.32C262.22 41.32 263.858 41.0881 265.265 40.5467L263.83 36.8133ZM260.419 37.32C259.289 37.32 258.379 37.24 257.667 37.101L256.9 41.027C257.938 41.2293 259.118 41.32 260.419 41.32V37.32ZM257.62 37.0925C256.902 36.97 256.171 36.7577 255.426 36.4485L253.893 40.1435C254.897 40.5596 255.915 40.8594 256.947 41.0355L257.62 37.0925ZM256.659 38.296V34.36H252.66V38.296H256.659ZM253.832 36.1807C254.887 36.6604 256.013 37.0501 257.206 37.354L258.194 33.478C257.21 33.2273 256.309 32.913 255.487 32.5393L253.832 36.1807ZM257.206 37.354C258.403 37.6592 259.534 37.832 260.579 37.832V33.832C259.961 33.832 259.172 33.7275 258.194 33.478L257.206 37.354ZM260.579 37.832C261.593 37.832 262.809 37.706 263.734 37.0374L261.393 33.7946C261.503 33.7149 261.534 33.736 261.369 33.7706C261.214 33.8031 260.96 33.832 260.579 33.832V37.832ZM263.693 37.0666C264.581 36.4587 265.172 35.5075 265.172 34.328H261.172C261.172 34.238 261.195 34.1004 261.274 33.9604C261.348 33.8272 261.428 33.7695 261.434 33.7654L263.693 37.0666ZM265.172 34.328C265.172 33.6199 264.96 32.9387 264.533 32.3517L261.298 34.7043C261.263 34.6556 261.227 34.5906 261.203 34.5135C261.178 34.4371 261.172 34.3717 261.172 34.328H265.172ZM264.603 32.4543C264.163 31.7633 263.423 31.2934 262.869 30.983L260.914 34.473C261.125 34.5911 261.251 34.6771 261.316 34.728C261.347 34.7522 261.351 34.7583 261.338 34.7449C261.326 34.7328 261.282 34.6858 261.228 34.6017L264.603 32.4543ZM262.869 30.983C262.229 30.6249 261.309 30.2047 260.162 29.7288L258.629 33.4232C259.744 33.886 260.487 34.2337 260.914 34.473L262.869 30.983ZM260.188 29.7396C259.16 29.2964 258.367 28.8854 257.781 28.5127L255.634 31.8873C256.456 32.4106 257.455 32.9169 258.603 33.4124L260.188 29.7396ZM257.817 28.5359C257.342 28.2191 257.066 27.8984 256.904 27.5948L253.375 29.4772C253.896 30.4536 254.665 31.2422 255.598 31.8641L257.817 28.5359ZM256.917 27.6187C256.761 27.3167 256.628 26.832 256.628 26.072H252.628C252.628 27.2747 252.835 28.4326 253.362 29.4533L256.917 27.6187ZM256.628 26.072C256.628 25.0633 256.966 24.5129 257.598 24.1054L255.433 20.7426C253.548 21.9564 252.628 23.838 252.628 26.072H256.628ZM257.598 24.1054C258.43 23.5698 259.687 23.208 261.539 23.208V19.208C259.211 19.208 257.118 19.6568 255.433 20.7426L257.598 24.1054ZM261.539 23.208C262.496 23.208 263.388 23.3018 264.219 23.4824L265.068 19.5736C263.936 19.3276 262.759 19.208 261.539 19.208V23.208ZM264.219 23.4824C265.033 23.6595 265.904 23.9583 266.834 24.3945L268.533 20.7735C267.372 20.2284 266.216 19.8232 265.068 19.5736L264.219 23.4824ZM265.84 21.8087L264.4 25.2327L268.087 26.7833L269.527 23.3593L265.84 21.8087ZM267.056 24.1804C266.44 23.9068 265.841 23.6643 265.257 23.4542L263.902 27.2178C264.385 27.3917 264.895 27.5972 265.431 27.8356L267.056 24.1804ZM265.257 23.4542C264.643 23.2332 264.03 23.0573 263.419 22.93L262.604 26.846C263.017 26.9321 263.449 27.0548 263.902 27.2178L265.257 23.4542ZM263.436 22.9336C262.798 22.7948 262.143 22.728 261.475 22.728V26.728C261.875 26.728 262.244 26.7678 262.587 26.8424L263.436 22.9336ZM261.475 22.728C260.648 22.728 259.728 22.8309 258.94 23.2484L260.811 26.7836C260.763 26.8094 260.777 26.7908 260.902 26.7684C261.023 26.7466 261.209 26.728 261.475 26.728V22.728ZM258.895 23.2728C257.939 23.8103 257.363 24.7558 257.363 25.88H261.363C261.363 25.9931 261.335 26.1878 261.212 26.3956C261.09 26.6014 260.939 26.7126 260.856 26.7592L258.895 23.2728ZM257.363 25.88C257.363 26.6004 257.595 27.2647 258.002 27.8243L261.237 25.4717C261.263 25.5077 261.298 25.5669 261.325 25.6475C261.352 25.7291 261.363 25.8097 261.363 25.88H257.363ZM258.133 27.9859C258.587 28.4909 259.223 28.8617 259.781 29.1409L261.57 25.5631C261.364 25.4602 261.225 25.3784 261.137 25.3199C261.041 25.2558 261.051 25.2492 261.106 25.3101L258.133 27.9859ZM259.81 29.155C260.391 29.4341 261.209 29.7915 262.242 30.2222L263.781 26.5298C262.766 26.1072 262.026 25.7819 261.541 25.549L259.81 29.155ZM262.262 30.2302C263.186 30.6039 263.945 30.9822 264.553 31.3576L266.654 27.9544C265.812 27.4338 264.842 26.9587 263.761 26.5218L262.262 30.2302ZM264.589 31.3799C265.049 31.6501 265.344 31.9575 265.538 32.2923L268.997 30.2837C268.423 29.2958 267.609 28.5152 266.618 27.9321L264.589 31.3799ZM265.578 32.3581C265.717 32.5782 265.875 33.0109 265.875 33.816H269.875C269.875 32.5304 269.628 31.2778 268.957 30.2179L265.578 32.3581Z" fill="white"/>
  <path d="M323.46 2.22533C325.005 2.24808 326.323 3.12004 326.899 4.5009L333.887 21.2657C334.463 22.6486 334.22 24.3512 333.25 25.7134L321.491 42.2103C320.522 43.5695 318.959 44.4011 317.414 44.3825L298.667 44.1156C297.122 44.0939 295.803 43.2209 295.227 41.84L288.238 25.0711C287.662 23.6892 287.907 21.9866 288.876 20.6234L300.635 4.12854C301.604 2.76836 303.167 1.93674 304.712 1.9564L323.46 2.22533Z" fill="url(#paint0_linear_1453_3052)"/>
  <path fill-rule="evenodd" clip-rule="evenodd" d="M335.719 20.3992C335.733 20.4328 335.746 20.4666 335.758 20.5004L335.758 20.4998C335.746 20.4662 335.733 20.4326 335.719 20.3992ZM336.062 23.5035C336.167 22.7523 336.144 21.9995 335.988 21.2828C336.012 21.3925 336.033 21.503 336.051 21.6141L336.052 21.615C336.137 22.1648 336.151 22.7234 336.091 23.2766L336.091 23.2764C336.083 23.3522 336.073 23.428 336.062 23.5035ZM333.68 24.9945C333.723 24.9078 333.763 24.8204 333.8 24.733L333.82 24.6862V24.6855L333.82 24.6857C334.27 23.6023 334.322 22.4209 333.94 21.3979L333.94 21.3974C333.923 21.354 333.906 21.3105 333.888 21.2671L333.889 21.2682L333.889 21.268L333.887 21.2668L326.9 4.50344L326.9 4.50283C326.854 4.39411 326.804 4.28939 326.75 4.18669L326.743 4.18067H326.743L326.733 4.16209C326.293 3.98536 325.819 3.89127 325.336 3.88882L323.464 2.22663L323.461 2.22658L325.332 3.88811L306.585 3.62125L304.714 1.95972L304.714 1.95972L306.585 3.62343C305.898 3.61829 305.219 3.76637 304.597 4.05682L304.595 4.05551C304.418 4.13755 304.245 4.22987 304.079 4.33199L302.207 2.66887L302.206 2.66943L304.077 4.3317C303.939 4.41307 303.806 4.50168 303.68 4.59753L301.809 2.9359L301.809 2.93637L303.68 4.5983C303.566 4.68208 303.455 4.77207 303.347 4.86516L303.347 4.865C303.243 4.95184 303.151 5.04281 303.057 5.13688L303.057 5.13661C302.967 5.22754 302.88 5.32261 302.796 5.42077L300.926 3.7591L300.926 3.75934L302.796 5.42154C302.713 5.51774 302.634 5.61807 302.558 5.7215L300.688 4.05947L300.687 4.05955L302.558 5.7216L302.507 5.7909L300.637 4.12918L300.637 4.1295L302.507 5.79117L290.749 22.2891L290.749 22.289C290.69 22.3717 290.633 22.4563 290.579 22.542L290.579 22.5421C290.506 22.6588 290.436 22.7785 290.372 22.8993L290.372 22.8995C290.301 23.036 290.237 23.1746 290.179 23.3133L288.306 21.6522C288.236 21.8224 288.175 21.9949 288.124 22.1689L288.124 22.1693C288.175 21.9943 288.236 21.8222 288.306 21.6539V21.6528L290.179 23.3161C290.109 23.485 290.048 23.6577 289.996 23.8333L289.996 23.8326C289.915 24.1078 289.859 24.3895 289.828 24.6746L289.828 24.6748C289.787 25.0605 289.796 25.45 289.856 25.8332L287.985 24.17C287.95 23.949 287.932 23.7258 287.931 23.5026C287.932 23.7275 287.949 23.9507 287.984 24.1699H287.985L289.856 25.8332C289.9 26.0963 289.969 26.3544 290.064 26.6038L288.191 24.9405C288.112 24.7336 288.051 24.5206 288.008 24.3036C288.059 24.5679 288.136 24.8257 288.239 25.0733L295.228 41.8382C295.458 42.3916 295.808 42.8635 296.244 43.2316L296.176 43.171C296.133 43.1337 296.091 43.0955 296.051 43.0562L296.235 43.2191L296.235 43.2192L296.244 43.2267L296.051 43.0557C295.968 42.9749 295.89 42.89 295.815 42.8013L295.815 42.8011C295.736 42.7076 295.662 42.6103 295.593 42.5094L295.591 42.5083C295.517 42.398 295.449 42.2836 295.388 42.1655L297.252 43.8219L297.259 43.8361C297.41 43.897 297.564 43.9482 297.722 43.9894C298.003 44.0616 298.298 44.1035 298.602 44.1123L298.635 44.1129L298.666 44.1132H298.667L298.668 44.1137L298.668 44.1137L298.667 44.1128L304.299 44.193L317.414 44.3775L317.415 44.3775L317.414 44.3768C317.784 44.3792 318.152 44.3375 318.509 44.2531C319.668 43.9746 320.753 43.2443 321.491 42.2053L333.25 25.7074V25.7126C333.415 25.482 333.558 25.2416 333.68 24.9945ZM295.388 42.1655L295.38 42.1587H295.381L295.38 42.1581C295.324 42.0536 295.273 41.9462 295.228 41.8364L297.099 43.4997C297.146 43.6103 297.197 43.7169 297.252 43.8214L295.387 42.1645L295.388 42.1655ZM324.867 2.50103C325.284 2.66678 325.663 2.90379 325.989 3.20182L325.982 3.19513L326.004 3.21577L325.95 3.16788C325.627 2.88395 325.26 2.65953 324.867 2.50103ZM288.876 20.6255L289.117 20.2878L288.876 20.6255L288.876 20.6255ZM288.872 20.6319C288.841 20.6745 288.812 20.7175 288.783 20.7608C288.812 20.7176 288.841 20.6747 288.872 20.6319ZM288.646 20.9778C288.666 20.9447 288.686 20.9118 288.706 20.8791L288.707 20.8796C288.686 20.9122 288.666 20.945 288.646 20.9778ZM288.395 21.4497C288.429 21.3769 288.465 21.3046 288.503 21.2329L288.5 21.2378L288.501 21.2384C288.464 21.3082 288.429 21.3786 288.395 21.4497ZM287.947 23.1094C287.964 22.9135 287.993 22.7172 288.035 22.5218C288 22.6836 287.974 22.8471 287.957 23.0116L287.957 23.0118C287.953 23.0443 287.95 23.0768 287.947 23.1094ZM317.135 46.3376C317.81 46.3472 318.489 46.2441 319.144 46.0409L319.175 46.0413C318.519 46.2465 317.833 46.3491 317.142 46.3438L317.135 46.3376ZM318.611 47.6494L319.005 47.9999L300.258 47.7331L298.388 46.0707L298.387 46.0707L300.258 47.7331C298.937 47.728 297.663 47.2464 296.67 46.3771L294.796 44.7139C294.812 44.727 294.827 44.7401 294.842 44.7531C294.239 44.2297 293.755 43.5663 293.432 42.7918L286.443 26.027C285.614 24.0359 285.965 21.5793 287.361 19.6233L299.12 3.12541C300.516 1.16634 302.766 -0.0314369 304.993 0.000628048L323.74 0.26749C325.212 0.28868 326.54 0.844265 327.511 1.79334L329.38 3.45273C329.498 3.56924 329.611 3.69051 329.719 3.81655L329.721 3.81846C329.835 3.95346 329.942 4.09433 330.042 4.24047L328.182 2.5918L328.182 2.59214L328.177 2.58799C328.327 2.80834 328.462 3.04208 328.58 3.28819C328.547 3.2183 328.512 3.14926 328.477 3.08105L328.511 3.11154L328.477 3.08082C328.387 2.91277 328.289 2.74964 328.182 2.59214L330.042 4.24447C330.151 4.40306 330.251 4.56749 330.341 4.73702L330.35 4.74429C330.43 4.89462 330.503 5.04977 330.569 5.20975L328.698 3.54651C328.663 3.46548 328.626 3.3855 328.589 3.30661C328.626 3.3853 328.662 3.46523 328.696 3.54639L328.696 3.54662L330.567 5.20963L337.556 21.9734L335.684 20.3114L335.684 20.3116L337.556 21.9748C337.582 22.0364 337.607 22.0991 337.63 22.1618L337.631 22.1623C337.765 22.523 337.863 22.8962 337.923 23.2763L337.506 22.9056L337.923 23.2773C338.01 23.8293 338.023 24.3903 337.963 24.9457L337.962 24.9449C337.918 25.3539 337.838 25.7582 337.722 26.1529L336.065 24.6821L336.065 24.6848L337.722 26.1559C337.648 26.4082 337.561 26.6565 337.46 26.8996L337.459 26.899C337.376 27.1053 337.283 27.2993 337.18 27.4943L337.182 27.4962C337.09 27.671 336.992 27.8437 336.885 28.0134L335.492 26.7763L335.491 26.7774L336.882 28.0127C336.805 28.1368 336.723 28.2589 336.638 28.3789L336.637 28.3781L324.879 44.876L323.514 43.6632L323.513 43.6637L324.879 44.8767L324.804 44.9801L324.803 44.9793C324.7 45.1279 324.58 45.2713 324.461 45.4095L323.106 44.2063L323.106 44.207L324.461 45.4125C324.341 45.5545 324.216 45.6907 324.086 45.8211L324.085 45.8202C323.951 45.9564 323.811 46.0865 323.671 46.2114L322.294 44.9876L322.292 44.9886L323.668 46.2106C323.513 46.3447 323.354 46.4723 323.191 46.5934L323.192 46.5943C323.006 46.7319 322.815 46.8591 322.621 46.9781L321.142 45.6665L321.141 45.6669L322.618 46.9787C322.376 47.1254 322.126 47.2583 321.869 47.3769L320.257 45.9454C320.257 45.9454 320.257 45.9454 320.257 45.9454L321.869 47.3781C320.973 47.7948 319.995 48.0069 319.006 47.9987L318.611 47.6494ZM319.257 46.0151L319.248 46.0077L319.247 46.008L319.256 46.0154C319.256 46.0153 319.256 46.0152 319.257 46.0151ZM322.019 44.3494L322.018 44.3486L322.018 44.3489L322.018 44.3497L322.019 44.3494ZM335.019 26.3371L335.018 26.338L335.02 26.3397L335.021 26.3388L335.019 26.3371ZM327.783 2.07971C327.719 2.0065 327.652 1.93519 327.584 1.86587C327.652 1.93517 327.719 2.00647 327.783 2.07971ZM296.574 45.7546C297.125 45.9501 297.708 46.0575 298.301 46.0689C297.695 46.0519 297.114 45.9438 296.574 45.7546ZM327.384 1.67185L327.33 1.62354H327.331C327.349 1.63947 327.367 1.65558 327.384 1.67185ZM327.384 1.67185L329.202 3.28677C329.264 3.34056 329.323 3.39642 329.381 3.45227L327.509 1.79006C327.468 1.75003 327.426 1.7105 327.384 1.67185ZM290.059 26.6037C290.076 26.6471 290.093 26.6906 290.111 26.734L288.239 25.0708C288.221 25.0283 288.203 24.9849 288.187 24.9404L290.059 26.6037ZM288.239 25.0713L290.111 26.7345L297.099 43.4993L295.228 41.8361L288.239 25.0713ZM337.003 27.3375L335.745 26.2204L335.744 26.2213L337.003 27.3375Z" fill="url(#paint1_radial_1453_3052)"/>
  <path d="M310.074 9.47186C309.846 9.03744 309.471 8.82436 308.934 8.89159C308.437 8.96089 308.081 9.26603 307.841 9.75631C307.812 9.81905 307.786 9.88272 307.76 9.94638C307.746 9.97822 307.733 10.0101 307.72 10.0418C307.578 10.3822 307.438 10.7241 307.298 11.0664C307.179 11.3565 307.06 11.6468 306.939 11.9367C306.749 12.4043 306.548 12.8707 306.334 13.33C306.286 13.4381 306.235 13.5445 306.185 13.6514C306.179 13.6643 306.172 13.6771 306.166 13.69C305.358 15.376 304.489 17.0309 303.614 18.6859C303.428 19.0382 303.238 19.3884 303.048 19.7387C302.452 20.8383 301.856 21.9381 301.395 23.1046C300.8 24.6055 300.385 26.1332 300.234 27.6982C300.093 29.1525 300.234 30.5478 300.727 31.8542C300.977 32.53 301.306 33.1737 301.708 33.7719C302.073 34.3128 302.509 34.8019 303.006 35.2262C303.185 35.3783 303.367 35.52 303.554 35.6555C305.239 36.8719 307.221 37.3456 309.744 36.9919C309.811 36.9867 309.883 36.9794 309.958 36.9691C310.544 36.8905 311.332 36.6247 312.098 36.2699C314.111 35.339 315.713 33.8836 316.877 31.8873C317.786 30.3244 318.297 28.6664 318.365 26.9224C318.386 26.3143 318.354 25.7055 318.27 25.103C318.221 24.7224 318.149 24.3479 318.062 23.9766C318.053 23.9363 317.928 23.448 317.824 23.0705C317.802 22.9898 317.733 22.9464 317.617 22.9671C317.571 22.9883 317.534 23.025 317.513 23.0705L316.291 25.7888C316.269 25.8383 316.258 25.8918 316.258 25.946C316.238 27.963 315.695 29.618 315.343 30.342C314.667 31.785 313.568 32.989 312.191 33.7947C311.334 34.3119 310.384 34.6563 309.393 34.8083C308.396 34.9479 307.379 34.8479 306.427 34.5167C306.244 34.4553 306.067 34.3863 305.897 34.3098C305.024 33.9256 304.265 33.3219 303.696 32.5576C303.24 31.936 302.89 31.2442 302.659 30.5096C302.253 29.2714 302.289 27.9682 302.541 26.6235C302.93 24.5558 303.791 22.6506 304.827 20.7949C306.184 18.3683 307.49 15.918 308.603 13.3786C308.666 13.2388 308.728 13.0944 308.795 12.9381C308.806 12.9129 308.816 12.8873 308.828 12.8614C308.844 12.8222 308.863 12.7842 308.885 12.7477C308.924 12.6815 308.965 12.6442 309.004 12.6391C309.042 12.6339 309.08 12.6577 309.119 12.7125C309.173 12.7961 309.223 12.8828 309.267 12.9721C309.308 13.0466 309.615 13.6465 310.001 14.4026C310.015 14.4307 310.037 14.4536 310.065 14.4681C310.093 14.4826 310.125 14.4879 310.156 14.4833C310.182 14.4791 310.206 14.47 310.228 14.4564C310.262 14.4344 310.289 14.4027 310.305 14.3654L311.281 12.1767C311.304 12.1262 311.316 12.0709 311.315 12.0151C311.314 11.9594 311.3 11.9046 311.274 11.855C311.077 11.4899 310.884 11.1206 310.696 10.7462C310.621 10.5942 310.548 10.4397 310.475 10.285C310.346 10.0111 310.216 9.73621 310.074 9.47186Z" fill="#0C0C17"/>
  <path d="M311.846 12.9208C311.82 12.9078 311.789 12.9034 311.76 12.908C311.735 12.9143 311.711 12.9259 311.691 12.9421C311.66 12.9627 311.636 12.9918 311.622 13.0259L310.69 15.108C310.664 15.1665 310.653 15.2305 310.659 15.2942C310.664 15.3579 310.686 15.4191 310.722 15.4721C310.805 15.62 310.876 15.7504 310.929 15.8538C310.982 15.9572 311.021 16.0359 311.04 16.0803C313.491 21.1104 306.429 30.1651 306.402 30.193C306.322 30.2791 306.278 30.3929 306.279 30.5106C306.28 30.5604 306.291 30.6096 306.311 30.6553C306.331 30.7009 306.36 30.7421 306.396 30.7764L307.958 32.1573C307.997 32.192 308.044 32.2176 308.095 32.2323C308.145 32.2469 308.198 32.2503 308.25 32.2421C308.349 32.2269 308.439 32.1796 308.508 32.1076C310.044 30.4127 311.325 28.5044 312.312 26.4425C313.17 24.652 313.647 23.0643 313.833 22.0072C313.868 21.8587 313.896 21.7125 313.921 21.578C313.989 21.2213 314.042 20.9467 314.168 20.9294C314.283 20.9118 314.457 21.1094 314.768 21.6534C314.798 21.7132 314.83 21.7715 314.862 21.8309C314.929 21.9567 315 22.0873 315.07 22.2461C315.098 22.3081 315.126 22.3704 315.154 22.4328C315.231 22.6057 315.31 22.7801 315.381 22.9557C315.385 22.9653 315.389 22.9749 315.393 22.9844C315.402 23.0075 315.412 23.0302 315.42 23.0529C315.453 23.1315 315.483 23.2091 315.512 23.2867C315.512 23.2882 315.515 23.296 315.52 23.309C315.535 23.3501 315.57 23.4424 315.605 23.5401C315.651 23.6683 315.752 23.9942 315.877 24.441C315.897 24.5175 315.967 24.56 316.085 24.5372C316.131 24.5165 316.168 24.4797 316.188 24.4338C316.307 24.1701 316.435 23.8895 316.572 23.5878C316.794 23.1024 317.04 22.5624 317.311 21.9513C317.332 21.9077 317.344 21.8603 317.346 21.812C317.348 21.7637 317.341 21.7154 317.324 21.67C317.038 21.0036 316.701 20.36 316.316 19.745C315.82 18.9217 315.274 18.1369 314.728 17.3523C314.494 17.0151 314.259 16.678 314.029 16.3379C313.41 15.4225 312.812 14.4947 312.243 13.5451C312.131 13.359 312.02 13.1698 311.91 12.9805C311.895 12.9547 311.873 12.9337 311.846 12.9208Z" fill="#0C0C17"/>
  <defs>
    <linearGradient id="paint0_linear_1453_3052" x1="285.181" y1="23.1694" x2="340.124" y2="24.5818" gradientUnits="userSpaceOnUse">
      <stop stop-color="#4BF2A2"/>
      <stop offset="0.522948" stop-color="#A89FE7"/>
      <stop offset="0.669499" stop-color="#E1C4F4"/>
      <stop offset="1" stop-color="#DD40CD"/>
    </linearGradient>
    <radialGradient id="paint1_radial_1453_3052" cx="0" cy="0" r="1" gradientUnits="userSpaceOnUse" gradientTransform="translate(294.865 17.7702) rotate(61.9242) scale(94.6821 806.747)">
      <stop stop-color="#4BF2A2"/>
      <stop offset="0.421875" stop-color="#564D8F"/>
      <stop offset="1" stop-color="#DD40CD"/>
    </radialGradient>
  </defs>
</svg>
