<svg width="21" height="26" viewBox="0 0 21 26" fill="none" xmlns="http://www.w3.org/2000/svg">
<path d="M18.8267 7.2687C18.9473 7.44463 19.0234 7.64341 19.0495 7.85027L20.9893 23.6862C21.0128 23.8554 20.9979 24.0273 20.9456 24.1909C20.8933 24.3546 20.8047 24.5063 20.6856 24.6366C20.5664 24.767 20.4192 24.8729 20.2534 24.9478C20.0875 25.0228 19.9066 25.065 19.7222 25.0718L3.62206 25.8517C3.23611 25.866 2.85846 25.7457 2.56405 25.5146C2.26963 25.2835 2.07997 24.9586 2.0327 24.6042L0.0950288 8.76832C0.0695611 8.56669 0.0963822 8.36235 0.173275 8.17219L2.68746 2.03509C2.78014 1.81041 2.94216 1.61583 3.15342 1.47548C3.36467 1.33513 3.61586 1.2552 3.87581 1.24561L13.4826 0.780556C13.7537 0.769996 14.023 0.82601 14.263 0.942899C14.5031 1.05979 14.7053 1.23338 14.8492 1.44599L18.8267 7.2687ZM11.0657 4.96403C11.0114 3.94452 10.0333 3.14299 8.94657 3.19572C8.90581 3.19572 8.86506 3.20074 8.82431 3.20526C8.37473 3.25149 7.96143 3.45521 7.66943 3.77452C7.37742 4.09382 7.22893 4.50442 7.2545 4.92184C7.30884 5.94134 8.28691 6.74288 9.37366 6.69015C9.41441 6.69015 9.45516 6.68512 9.49591 6.6806C9.94509 6.63427 10.358 6.43071 10.6499 6.11174C10.9417 5.79277 11.0903 5.38262 11.0652 4.96553" fill="#67677B"/>
</svg>
