<svg width="301" height="37" viewBox="0 0 301 37" fill="none" xmlns="http://www.w3.org/2000/svg">
<path d="M11.112 28L4.92 7.84H4.776C4.8 8.32 4.836 9.04 4.884 10C4.932 10.96 4.98 11.992 5.028 13.096C5.076 14.176 5.1 15.16 5.1 16.048V28H0.24V2.296H7.656L13.74 21.952H13.848L20.292 2.296H27.708V28H22.632V15.832C22.632 15.016 22.644 14.08 22.668 13.024C22.716 11.968 22.752 10.972 22.776 10.036C22.824 9.076 22.86 8.356 22.884 7.876H22.74L16.116 28H11.112ZM39.1329 8.344V28H33.7689V8.344H39.1329ZM36.4689 0.639998C37.2609 0.639998 37.9449 0.831999 38.5209 1.216C39.0969 1.576 39.3849 2.26 39.3849 3.268C39.3849 4.252 39.0969 4.936 38.5209 5.32C37.9449 5.704 37.2609 5.896 36.4689 5.896C35.6529 5.896 34.9569 5.704 34.3809 5.32C33.8289 4.936 33.5529 4.252 33.5529 3.268C33.5529 2.26 33.8289 1.576 34.3809 1.216C34.9569 0.831999 35.6529 0.639998 36.4689 0.639998ZM55.8977 7.984C58.0097 7.984 59.7017 8.56 60.9737 9.712C62.2457 10.84 62.8817 12.664 62.8817 15.184V28H57.5177V16.516C57.5177 15.1 57.2657 14.044 56.7617 13.348C56.2577 12.628 55.4537 12.268 54.3497 12.268C52.7177 12.268 51.6017 12.832 51.0017 13.96C50.4017 15.064 50.1017 16.66 50.1017 18.748V28H44.7377V8.344H48.8417L49.5617 10.864H49.8497C50.2817 10.192 50.8097 9.652 51.4337 9.244C52.0577 8.812 52.7537 8.5 53.5217 8.308C54.2897 8.092 55.0817 7.984 55.8977 7.984ZM76.6778 24.076C77.2778 24.076 77.8538 24.016 78.4058 23.896C78.9578 23.776 79.5098 23.632 80.0618 23.464V27.46C79.4858 27.7 78.7658 27.904 77.9018 28.072C77.0618 28.264 76.1378 28.36 75.1298 28.36C73.9538 28.36 72.8978 28.168 71.9618 27.784C71.0498 27.4 70.3178 26.74 69.7658 25.804C69.2378 24.844 68.9738 23.524 68.9738 21.844V12.376H66.4178V10.108L69.3698 8.308L70.9178 4.168H74.3378V8.344H79.8458V12.376H74.3378V21.844C74.3378 22.588 74.5538 23.152 74.9858 23.536C75.4178 23.896 75.9818 24.076 76.6778 24.076ZM114.707 18.928C114.707 20.704 114.311 22.312 113.519 23.752C112.751 25.168 111.575 26.296 109.991 27.136C108.431 27.952 106.451 28.36 104.051 28.36C100.643 28.36 98.0508 27.496 96.2748 25.768C94.4988 24.016 93.6108 21.712 93.6108 18.856V2.296H99.0468V18.028C99.0468 20.14 99.4788 21.628 100.343 22.492C101.207 23.356 102.491 23.788 104.195 23.788C105.395 23.788 106.367 23.584 107.111 23.176C107.855 22.768 108.395 22.132 108.731 21.268C109.091 20.404 109.271 19.312 109.271 17.992V2.296H114.707V18.928ZM131.73 7.984C133.842 7.984 135.534 8.56 136.806 9.712C138.078 10.84 138.714 12.664 138.714 15.184V28H133.35V16.516C133.35 15.1 133.098 14.044 132.594 13.348C132.09 12.628 131.286 12.268 130.182 12.268C128.55 12.268 127.434 12.832 126.834 13.96C126.234 15.064 125.934 16.66 125.934 18.748V28H120.57V8.344H124.674L125.394 10.864H125.682C126.114 10.192 126.642 9.652 127.266 9.244C127.89 8.812 128.586 8.5 129.354 8.308C130.122 8.092 130.914 7.984 131.73 7.984ZM149.594 8.344V28H144.23V8.344H149.594ZM146.93 0.639998C147.722 0.639998 148.406 0.831999 148.982 1.216C149.558 1.576 149.846 2.26 149.846 3.268C149.846 4.252 149.558 4.936 148.982 5.32C148.406 5.704 147.722 5.896 146.93 5.896C146.114 5.896 145.418 5.704 144.842 5.32C144.29 4.936 144.014 4.252 144.014 3.268C144.014 2.26 144.29 1.576 144.842 1.216C145.418 0.831999 146.114 0.639998 146.93 0.639998ZM163.479 24.076C164.079 24.076 164.655 24.016 165.207 23.896C165.759 23.776 166.311 23.632 166.863 23.464V27.46C166.287 27.7 165.567 27.904 164.703 28.072C163.863 28.264 162.939 28.36 161.931 28.36C160.755 28.36 159.699 28.168 158.763 27.784C157.851 27.4 157.119 26.74 156.567 25.804C156.039 24.844 155.775 23.524 155.775 21.844V12.376H153.219V10.108L156.171 8.308L157.719 4.168H161.139V8.344H166.647V12.376H161.139V21.844C161.139 22.588 161.355 23.152 161.787 23.536C162.219 23.896 162.783 24.076 163.479 24.076ZM178.872 7.948C181.512 7.948 183.528 8.524 184.92 9.676C186.336 10.804 187.044 12.544 187.044 14.896V28H183.3L182.256 25.336H182.112C181.56 26.032 180.984 26.608 180.384 27.064C179.808 27.52 179.136 27.844 178.368 28.036C177.624 28.252 176.7 28.36 175.596 28.36C174.444 28.36 173.4 28.144 172.464 27.712C171.552 27.256 170.832 26.572 170.304 25.66C169.776 24.724 169.512 23.548 169.512 22.132C169.512 20.044 170.244 18.508 171.708 17.524C173.172 16.516 175.368 15.964 178.296 15.868L181.716 15.76V14.896C181.716 13.864 181.44 13.108 180.888 12.628C180.36 12.148 179.616 11.908 178.656 11.908C177.696 11.908 176.76 12.052 175.848 12.34C174.936 12.604 174.024 12.94 173.112 13.348L171.348 9.712C172.404 9.16 173.568 8.728 174.84 8.416C176.136 8.104 177.48 7.948 178.872 7.948ZM179.628 18.964C177.9 19.012 176.7 19.324 176.028 19.9C175.356 20.476 175.02 21.232 175.02 22.168C175.02 22.984 175.26 23.572 175.74 23.932C176.22 24.268 176.844 24.436 177.612 24.436C178.764 24.436 179.736 24.1 180.528 23.428C181.32 22.732 181.716 21.76 181.716 20.512V18.892L179.628 18.964ZM203.479 7.984C205.687 7.984 207.475 8.848 208.843 10.576C210.211 12.28 210.895 14.8 210.895 18.136C210.895 20.368 210.571 22.252 209.923 23.788C209.275 25.3 208.387 26.44 207.259 27.208C206.131 27.976 204.823 28.36 203.335 28.36C202.399 28.36 201.583 28.24 200.887 28C200.215 27.76 199.639 27.448 199.159 27.064C198.679 26.68 198.259 26.272 197.899 25.84H197.611C197.707 26.296 197.779 26.776 197.827 27.28C197.875 27.76 197.899 28.24 197.899 28.72V36.64H192.535V8.344H196.891L197.647 10.9H197.899C198.259 10.372 198.691 9.892 199.195 9.46C199.699 9.004 200.299 8.644 200.995 8.38C201.715 8.116 202.543 7.984 203.479 7.984ZM201.751 12.268C200.815 12.268 200.071 12.46 199.519 12.844C198.967 13.228 198.559 13.816 198.295 14.608C198.055 15.376 197.923 16.348 197.899 17.524V18.1C197.899 19.372 198.019 20.452 198.259 21.34C198.499 22.204 198.907 22.864 199.483 23.32C200.059 23.776 200.839 24.004 201.823 24.004C202.639 24.004 203.311 23.776 203.839 23.32C204.367 22.864 204.763 22.192 205.027 21.304C205.291 20.416 205.423 19.336 205.423 18.064C205.423 16.144 205.123 14.704 204.523 13.744C203.947 12.76 203.023 12.268 201.751 12.268ZM233.307 2.296C236.619 2.296 239.031 3.016 240.543 4.456C242.079 5.872 242.847 7.828 242.847 10.324C242.847 11.452 242.679 12.532 242.343 13.564C242.007 14.572 241.443 15.484 240.651 16.3C239.883 17.092 238.863 17.716 237.591 18.172C236.319 18.628 234.747 18.856 232.875 18.856H230.535V28H225.099V2.296H233.307ZM233.019 6.76H230.535V14.392H232.335C233.367 14.392 234.255 14.26 234.999 13.996C235.743 13.732 236.319 13.312 236.727 12.736C237.135 12.16 237.339 11.416 237.339 10.504C237.339 9.232 236.991 8.296 236.295 7.696C235.599 7.072 234.507 6.76 233.019 6.76ZM255.337 7.948C257.977 7.948 259.993 8.524 261.385 9.676C262.801 10.804 263.509 12.544 263.509 14.896V28H259.765L258.721 25.336H258.577C258.025 26.032 257.449 26.608 256.849 27.064C256.273 27.52 255.601 27.844 254.833 28.036C254.089 28.252 253.165 28.36 252.061 28.36C250.909 28.36 249.865 28.144 248.929 27.712C248.017 27.256 247.297 26.572 246.769 25.66C246.241 24.724 245.977 23.548 245.977 22.132C245.977 20.044 246.709 18.508 248.173 17.524C249.637 16.516 251.833 15.964 254.761 15.868L258.181 15.76V14.896C258.181 13.864 257.905 13.108 257.353 12.628C256.825 12.148 256.081 11.908 255.121 11.908C254.161 11.908 253.225 12.052 252.313 12.34C251.401 12.604 250.489 12.94 249.577 13.348L247.813 9.712C248.869 9.16 250.033 8.728 251.305 8.416C252.601 8.104 253.945 7.948 255.337 7.948ZM256.093 18.964C254.365 19.012 253.165 19.324 252.493 19.9C251.821 20.476 251.485 21.232 251.485 22.168C251.485 22.984 251.725 23.572 252.205 23.932C252.685 24.268 253.309 24.436 254.077 24.436C255.229 24.436 256.201 24.1 256.993 23.428C257.785 22.732 258.181 21.76 258.181 20.512V18.892L256.093 18.964ZM282.715 22.168C282.715 23.488 282.403 24.616 281.779 25.552C281.155 26.464 280.219 27.16 278.971 27.64C277.723 28.12 276.175 28.36 274.327 28.36C272.959 28.36 271.783 28.264 270.799 28.072C269.815 27.904 268.831 27.616 267.847 27.208V22.78C268.903 23.26 270.043 23.656 271.267 23.968C272.491 24.28 273.571 24.436 274.507 24.436C275.563 24.436 276.307 24.28 276.739 23.968C277.195 23.656 277.423 23.248 277.423 22.744C277.423 22.408 277.327 22.108 277.135 21.844C276.967 21.58 276.583 21.28 275.983 20.944C275.383 20.608 274.447 20.176 273.175 19.648C271.951 19.12 270.943 18.604 270.151 18.1C269.359 17.572 268.771 16.948 268.387 16.228C268.003 15.484 267.811 14.56 267.811 13.456C267.811 11.632 268.519 10.264 269.935 9.352C271.351 8.44 273.235 7.984 275.587 7.984C276.811 7.984 277.975 8.104 279.079 8.344C280.183 8.584 281.323 8.98 282.499 9.532L280.879 13.384C280.231 13.096 279.607 12.844 279.007 12.628C278.407 12.412 277.819 12.244 277.243 12.124C276.691 12.004 276.115 11.944 275.515 11.944C274.723 11.944 274.123 12.052 273.715 12.268C273.331 12.484 273.139 12.808 273.139 13.24C273.139 13.552 273.235 13.84 273.427 14.104C273.643 14.344 274.039 14.608 274.615 14.896C275.215 15.184 276.091 15.568 277.243 16.048C278.371 16.504 279.343 16.984 280.159 17.488C280.975 17.968 281.599 18.58 282.031 19.324C282.487 20.044 282.715 20.992 282.715 22.168ZM300.61 22.168C300.61 23.488 300.298 24.616 299.674 25.552C299.05 26.464 298.114 27.16 296.866 27.64C295.618 28.12 294.07 28.36 292.222 28.36C290.854 28.36 289.678 28.264 288.694 28.072C287.71 27.904 286.726 27.616 285.742 27.208V22.78C286.798 23.26 287.938 23.656 289.162 23.968C290.386 24.28 291.466 24.436 292.402 24.436C293.458 24.436 294.202 24.28 294.634 23.968C295.09 23.656 295.318 23.248 295.318 22.744C295.318 22.408 295.222 22.108 295.03 21.844C294.862 21.58 294.478 21.28 293.878 20.944C293.278 20.608 292.342 20.176 291.07 19.648C289.846 19.12 288.838 18.604 288.046 18.1C287.254 17.572 286.666 16.948 286.282 16.228C285.898 15.484 285.706 14.56 285.706 13.456C285.706 11.632 286.414 10.264 287.83 9.352C289.246 8.44 291.13 7.984 293.482 7.984C294.706 7.984 295.87 8.104 296.974 8.344C298.078 8.584 299.218 8.98 300.394 9.532L298.774 13.384C298.126 13.096 297.502 12.844 296.902 12.628C296.302 12.412 295.714 12.244 295.138 12.124C294.586 12.004 294.01 11.944 293.41 11.944C292.618 11.944 292.018 12.052 291.61 12.268C291.226 12.484 291.034 12.808 291.034 13.24C291.034 13.552 291.13 13.84 291.322 14.104C291.538 14.344 291.934 14.608 292.51 14.896C293.11 15.184 293.986 15.568 295.138 16.048C296.266 16.504 297.238 16.984 298.054 17.488C298.87 17.968 299.494 18.58 299.926 19.324C300.382 20.044 300.61 20.992 300.61 22.168Z" fill="#21212C"/>
<path d="M11.112 28L9.20015 28.5872L9.63408 30H11.112V28ZM4.92 7.84L6.83185 7.25279L6.39793 5.84H4.92V7.84ZM4.776 7.84V5.84H2.6735L2.7785 7.93987L4.776 7.84ZM4.884 10L2.8865 10.0999V10.0999L4.884 10ZM5.028 13.096L3.02989 13.1829L3.02997 13.1848L5.028 13.096ZM5.1 28V30H7.1V28H5.1ZM0.24 28H-1.76V30H0.24V28ZM0.24 2.296V0.295999H-1.76V2.296H0.24ZM7.656 2.296L9.56657 1.70463L9.13057 0.295999H7.656V2.296ZM13.74 21.952L11.8294 22.5434L12.2654 23.952H13.74V21.952ZM13.848 21.952V23.952H15.2971L15.7485 22.5751L13.848 21.952ZM20.292 2.296V0.295999H18.8429L18.3915 1.67295L20.292 2.296ZM27.708 2.296H29.708V0.295999H27.708V2.296ZM27.708 28V30H29.708V28H27.708ZM22.632 28H20.632V30H22.632V28ZM22.668 13.024L20.6701 12.9332L20.669 12.9559L20.6685 12.9786L22.668 13.024ZM22.776 10.036L20.7785 9.93612L20.7773 9.96042L20.7767 9.98474L22.776 10.036ZM22.884 7.876L24.8815 7.97587L24.9865 5.876H22.884V7.876ZM22.74 7.876V5.876H21.2928L20.8403 7.25068L22.74 7.876ZM16.116 28V30H17.5632L18.0157 28.6253L16.116 28ZM13.0239 27.4128L6.83185 7.25279L3.00815 8.42721L9.20015 28.5872L13.0239 27.4128ZM4.92 5.84H4.776V9.84H4.92V5.84ZM2.7785 7.93987C2.8025 8.41987 2.8385 9.13988 2.8865 10.0999L6.88151 9.90013C6.8335 8.94012 6.79751 8.22012 6.77351 7.74012L2.7785 7.93987ZM2.8865 10.0999C2.93425 11.055 2.98205 12.0826 3.02989 13.1829L7.02611 13.0091C6.97795 11.9014 6.92975 10.865 6.88151 9.90012L2.8865 10.0999ZM3.02997 13.1848C3.07693 14.2413 3.1 15.1951 3.1 16.048H7.1C7.1 15.1249 7.07507 14.1107 7.02603 13.0072L3.02997 13.1848ZM3.1 16.048V28H7.1V16.048H3.1ZM5.1 26H0.24V30H5.1V26ZM2.24 28V2.296H-1.76V28H2.24ZM0.24 4.296H7.656V0.295999H0.24V4.296ZM5.74543 2.88737L11.8294 22.5434L15.6506 21.3606L9.56657 1.70463L5.74543 2.88737ZM13.74 23.952H13.848V19.952H13.74V23.952ZM15.7485 22.5751L22.1925 2.91905L18.3915 1.67295L11.9475 21.3289L15.7485 22.5751ZM20.292 4.296H27.708V0.295999H20.292V4.296ZM25.708 2.296V28H29.708V2.296H25.708ZM27.708 26H22.632V30H27.708V26ZM24.632 28V15.832H20.632V28H24.632ZM24.632 15.832C24.632 15.0348 24.6437 14.1144 24.6675 13.0694L20.6685 12.9786C20.6443 14.0456 20.632 14.9972 20.632 15.832H24.632ZM24.6659 13.1148C24.7145 12.0473 24.751 11.038 24.7753 10.0873L20.7767 9.98474C20.753 10.906 20.7175 11.8887 20.6701 12.9332L24.6659 13.1148ZM24.7735 10.1359C24.8215 9.17588 24.8575 8.45588 24.8815 7.97587L20.8865 7.77612C20.8625 8.25612 20.8265 8.97612 20.7785 9.93612L24.7735 10.1359ZM22.884 5.876H22.74V9.876H22.884V5.876ZM20.8403 7.25068L14.2163 27.3747L18.0157 28.6253L24.6397 8.50131L20.8403 7.25068ZM16.116 26H11.112V30H16.116V26ZM39.1329 8.344H41.1329V6.344H39.1329V8.344ZM39.1329 28V30H41.1329V28H39.1329ZM33.7689 28H31.7689V30H33.7689V28ZM33.7689 8.344V6.344H31.7689V8.344H33.7689ZM38.5209 1.216L37.4115 2.8801L37.436 2.89641L37.4609 2.912L38.5209 1.216ZM38.5209 5.32L37.4115 3.6559V3.6559L38.5209 5.32ZM34.3809 5.32L33.2388 6.96181L33.2551 6.97312L33.2715 6.9841L34.3809 5.32ZM34.3809 1.216L35.4735 2.89122L35.4819 2.8857L35.4903 2.8801L34.3809 1.216ZM37.1329 8.344V28H41.1329V8.344H37.1329ZM39.1329 26H33.7689V30H39.1329V26ZM35.7689 28V8.344H31.7689V28H35.7689ZM33.7689 10.344H39.1329V6.344H33.7689V10.344ZM36.4689 2.64C36.9247 2.64 37.2096 2.7455 37.4115 2.8801L39.6303 -0.4481C38.6802 -1.08151 37.5972 -1.36 36.4689 -1.36V2.64ZM37.4609 2.912C37.4236 2.88867 37.3872 2.85695 37.3582 2.82189C37.3302 2.78811 37.3224 2.7673 37.3257 2.77511C37.3363 2.8004 37.3849 2.94082 37.3849 3.268H41.3849C41.3849 1.92957 40.9923 0.402122 39.5809 -0.479998L37.4609 2.912ZM37.3849 3.268C37.3849 3.57576 37.3385 3.7125 37.3257 3.74288C37.3208 3.75441 37.3246 3.74185 37.344 3.71785C37.3642 3.69297 37.3887 3.67111 37.4115 3.6559L39.6303 6.9841C40.9759 6.08709 41.3849 4.61585 41.3849 3.268H37.3849ZM37.4115 3.6559C37.2096 3.79049 36.9247 3.896 36.4689 3.896V7.896C37.5972 7.896 38.6802 7.6175 39.6303 6.9841L37.4115 3.6559ZM36.4689 3.896C35.9758 3.896 35.6826 3.78407 35.4903 3.6559L33.2715 6.9841C34.2313 7.62393 35.3301 7.896 36.4689 7.896V3.896ZM35.5231 3.67819C35.5523 3.69853 35.5792 3.7244 35.5993 3.75033C35.6185 3.77511 35.6209 3.78625 35.6146 3.77061C35.5988 3.73142 35.5529 3.58439 35.5529 3.268H31.5529C31.5529 4.58479 31.9304 6.05164 33.2388 6.96181L35.5231 3.67819ZM35.5529 3.268C35.5529 2.93248 35.6008 2.78168 35.6146 2.74739C35.6195 2.73531 35.6133 2.75477 35.5857 2.78954C35.5568 2.82591 35.5179 2.86226 35.4735 2.89122L33.2884 -0.459223C31.9139 0.437182 31.5529 1.96152 31.5529 3.268H35.5529ZM35.4903 2.8801C35.6826 2.75193 35.9758 2.64 36.4689 2.64V-1.36C35.3301 -1.36 34.2313 -1.08793 33.2715 -0.4481L35.4903 2.8801ZM60.9737 9.712L59.6311 11.1944L59.6389 11.2014L59.6467 11.2084L60.9737 9.712ZM62.8817 28V30H64.8817V28H62.8817ZM57.5177 28H55.5177V30H57.5177V28ZM56.7617 13.348L55.1232 14.4949L55.1324 14.508L55.1418 14.521L56.7617 13.348ZM51.0017 13.96L52.7589 14.915L52.7632 14.9071L52.7674 14.8992L51.0017 13.96ZM50.1017 28V30H52.1017V28H50.1017ZM44.7377 28H42.7377V30H44.7377V28ZM44.7377 8.344V6.344H42.7377V8.344H44.7377ZM48.8417 8.344L50.7647 7.79456L50.3503 6.344H48.8417V8.344ZM49.5617 10.864L47.6386 11.4134L48.0531 12.864H49.5617V10.864ZM49.8497 10.864V12.864H50.9416L51.532 11.9455L49.8497 10.864ZM51.4337 9.244L52.5282 10.9179L52.5503 10.9035L52.5721 10.8884L51.4337 9.244ZM53.5217 8.308L54.0068 10.2483L54.0351 10.2412L54.0632 10.2333L53.5217 8.308ZM55.8977 9.984C57.6332 9.984 58.807 10.448 59.6311 11.1944L62.3162 8.22959C60.5964 6.672 58.3862 5.984 55.8977 5.984V9.984ZM59.6467 11.2084C60.3187 11.8043 60.8817 12.9569 60.8817 15.184H64.8817C64.8817 12.3711 64.1727 9.87571 62.3007 8.21562L59.6467 11.2084ZM60.8817 15.184V28H64.8817V15.184H60.8817ZM62.8817 26H57.5177V30H62.8817V26ZM59.5177 28V16.516H55.5177V28H59.5177ZM59.5177 16.516C59.5177 14.9273 59.2467 13.3697 58.3816 12.175L55.1418 14.521C55.2846 14.7183 55.5177 15.2727 55.5177 16.516H59.5177ZM58.4002 12.2011C57.4259 10.8093 55.9188 10.268 54.3497 10.268V14.268C54.9885 14.268 55.0895 14.4467 55.1232 14.4949L58.4002 12.2011ZM54.3497 10.268C52.2191 10.268 50.2833 11.0517 49.2359 13.0208L52.7674 14.8992C52.9201 14.6123 53.2163 14.268 54.3497 14.268V10.268ZM49.2444 13.005C48.4126 14.5356 48.1017 16.5215 48.1017 18.748H52.1017C52.1017 16.7985 52.3908 15.5924 52.7589 14.915L49.2444 13.005ZM48.1017 18.748V28H52.1017V18.748H48.1017ZM50.1017 26H44.7377V30H50.1017V26ZM46.7377 28V8.344H42.7377V28H46.7377ZM44.7377 10.344H48.8417V6.344H44.7377V10.344ZM46.9186 8.89344L47.6386 11.4134L51.4847 10.3146L50.7647 7.79456L46.9186 8.89344ZM49.5617 12.864H49.8497V8.864H49.5617V12.864ZM51.532 11.9455C51.823 11.4929 52.1561 11.1612 52.5282 10.9179L50.3392 7.57006C49.4632 8.1428 48.7404 8.89106 48.1673 9.78248L51.532 11.9455ZM52.5721 10.8884C52.9895 10.5994 53.4624 10.3844 54.0068 10.2483L53.0366 6.36771C52.045 6.61562 51.1259 7.02455 50.2953 7.59962L52.5721 10.8884ZM54.0632 10.2333C54.6509 10.068 55.2605 9.984 55.8977 9.984V5.984C54.9028 5.984 53.9284 6.116 52.9802 6.3827L54.0632 10.2333ZM78.4058 23.896L77.981 21.9416L78.4058 23.896ZM80.0618 23.464H82.0618V20.7647L79.4795 21.5507L80.0618 23.464ZM80.0618 27.46L80.8311 29.3062L82.0618 28.7933V27.46H80.0618ZM77.9018 28.072L77.5201 26.1088L77.488 26.115L77.4562 26.1223L77.9018 28.072ZM71.9618 27.784L71.1857 29.6273L71.1942 29.6308L71.2027 29.6343L71.9618 27.784ZM69.7658 25.804L68.0134 26.7678L68.0279 26.7941L68.0431 26.82L69.7658 25.804ZM68.9738 12.376H70.9738V10.376H68.9738V12.376ZM66.4178 12.376H64.4178V14.376H66.4178V12.376ZM66.4178 10.108L65.3766 8.40041L64.4178 8.98503V10.108H66.4178ZM69.3698 8.308L70.4111 10.0156L71.0011 9.65579L71.2432 9.00846L69.3698 8.308ZM70.9178 4.168V2.168H69.5304L69.0445 3.46754L70.9178 4.168ZM74.3378 4.168H76.3378V2.168H74.3378V4.168ZM74.3378 8.344H72.3378V10.344H74.3378V8.344ZM79.8458 8.344H81.8458V6.344H79.8458V8.344ZM79.8458 12.376V14.376H81.8458V12.376H79.8458ZM74.3378 12.376V10.376H72.3378V12.376H74.3378ZM74.9858 23.536L73.6571 25.0308L73.681 25.052L73.7055 25.0724L74.9858 23.536ZM76.6778 26.076C77.4119 26.076 78.1308 26.0025 78.8307 25.8504L77.981 21.9416C77.5769 22.0295 77.1438 22.076 76.6778 22.076V26.076ZM78.8307 25.8504C79.4368 25.7186 80.0414 25.5608 80.6442 25.3773L79.4795 21.5507C78.9783 21.7032 78.4788 21.8334 77.981 21.9416L78.8307 25.8504ZM78.0618 23.464V27.46H82.0618V23.464H78.0618ZM79.2926 25.6138C78.8807 25.7855 78.3008 25.957 77.5201 26.1088L78.2836 30.0352C79.2309 29.851 80.091 29.6145 80.8311 29.3062L79.2926 25.6138ZM77.4562 26.1223C76.7846 26.2758 76.0125 26.36 75.1298 26.36V30.36C76.2632 30.36 77.3391 30.2522 78.3475 30.0217L77.4562 26.1223ZM75.1298 26.36C74.1725 26.36 73.3802 26.2041 72.721 25.9337L71.2027 29.6343C72.4154 30.1319 73.7352 30.36 75.1298 30.36V26.36ZM72.738 25.9407C72.2614 25.7401 71.8448 25.392 71.4886 24.788L68.0431 26.82C68.7909 28.088 69.8383 29.0599 71.1857 29.6273L72.738 25.9407ZM71.5183 24.8402C71.2168 24.292 70.9738 23.3513 70.9738 21.844H66.9738C66.9738 23.6967 67.2589 25.396 68.0134 26.7678L71.5183 24.8402ZM70.9738 21.844V12.376H66.9738V21.844H70.9738ZM68.9738 10.376H66.4178V14.376H68.9738V10.376ZM68.4178 12.376V10.108H64.4178V12.376H68.4178ZM67.4591 11.8156L70.4111 10.0156L68.3286 6.60041L65.3766 8.40041L67.4591 11.8156ZM71.2432 9.00846L72.7912 4.86846L69.0445 3.46754L67.4965 7.60754L71.2432 9.00846ZM70.9178 6.168H74.3378V2.168H70.9178V6.168ZM72.3378 4.168V8.344H76.3378V4.168H72.3378ZM74.3378 10.344H79.8458V6.344H74.3378V10.344ZM77.8458 8.344V12.376H81.8458V8.344H77.8458ZM79.8458 10.376H74.3378V14.376H79.8458V10.376ZM72.3378 12.376V21.844H76.3378V12.376H72.3378ZM72.3378 21.844C72.3378 22.9844 72.6829 24.1648 73.6571 25.0308L76.3146 22.0412C76.3278 22.0529 76.3417 22.0685 76.3535 22.0856C76.365 22.1025 76.3686 22.1125 76.3676 22.1097C76.3647 22.1022 76.3378 22.0263 76.3378 21.844H72.3378ZM73.7055 25.0724C74.5762 25.798 75.6287 26.076 76.6778 26.076V22.076C76.5009 22.076 76.3953 22.053 76.3409 22.0357C76.2915 22.0199 76.2737 22.0058 76.2662 21.9996L73.7055 25.0724ZM113.519 23.752L111.766 22.7881L111.761 22.7985L113.519 23.752ZM109.991 27.136L110.918 28.9082L110.928 28.9029L109.991 27.136ZM96.2748 25.768L94.8702 27.1918L94.8801 27.2015L96.2748 25.768ZM93.6108 2.296V0.295999H91.6108V2.296H93.6108ZM99.0468 2.296H101.047V0.295999H99.0468V2.296ZM100.343 22.492L98.9286 23.9062L100.343 22.492ZM107.111 23.176L106.149 21.4224L107.111 23.176ZM108.731 21.268L106.885 20.4988L106.875 20.5208L106.867 20.5431L108.731 21.268ZM109.271 2.296V0.295999H107.271V2.296H109.271ZM114.707 2.296H116.707V0.295999H114.707V2.296ZM112.707 18.928C112.707 20.3949 112.383 21.667 111.766 22.7882L115.271 24.7158C116.239 22.957 116.707 21.0131 116.707 18.928H112.707ZM111.761 22.7985C111.201 23.83 110.331 24.6919 109.054 25.3691L110.928 28.9029C112.819 27.9001 114.3 26.506 115.277 24.7055L111.761 22.7985ZM109.064 25.3638C107.875 25.9858 106.24 26.36 104.051 26.36V30.36C106.662 30.36 108.987 29.9182 110.918 28.9082L109.064 25.3638ZM104.051 26.36C100.965 26.36 98.9504 25.5808 97.6695 24.3345L94.8801 27.2015C97.1512 29.4112 100.321 30.36 104.051 30.36V26.36ZM97.6793 24.3442C96.3404 23.0234 95.6108 21.2612 95.6108 18.856H91.6108C91.6108 22.1628 92.6571 25.0086 94.8702 27.1918L97.6793 24.3442ZM95.6108 18.856V2.296H91.6108V18.856H95.6108ZM93.6108 4.296H99.0468V0.295999H93.6108V4.296ZM97.0468 2.296V18.028H101.047V2.296H97.0468ZM97.0468 18.028C97.0468 20.3109 97.495 22.4727 98.9286 23.9062L101.757 21.0778C101.463 20.7833 101.047 19.9691 101.047 18.028H97.0468ZM98.9286 23.9062C100.295 25.2728 102.173 25.788 104.195 25.788V21.788C102.808 21.788 102.118 21.4392 101.757 21.0778L98.9286 23.9062ZM104.195 25.788C105.6 25.788 106.937 25.5524 108.072 24.9296L106.149 21.4224C105.797 21.6156 105.19 21.788 104.195 21.788V25.788ZM108.072 24.9296C109.268 24.274 110.105 23.2517 110.595 21.9929L106.867 20.5431C106.684 21.0123 106.442 21.262 106.149 21.4224L108.072 24.9296ZM110.577 22.0372C111.071 20.8514 111.271 19.4757 111.271 17.992H107.271C107.271 19.1483 107.111 19.9566 106.885 20.4988L110.577 22.0372ZM111.271 17.992V2.296H107.271V17.992H111.271ZM109.271 4.296H114.707V0.295999H109.271V4.296ZM112.707 2.296V18.928H116.707V2.296H112.707ZM136.806 9.712L135.463 11.1944L135.471 11.2014L135.479 11.2084L136.806 9.712ZM138.714 28V30H140.714V28H138.714ZM133.35 28H131.35V30H133.35V28ZM132.594 13.348L130.955 14.4949L130.964 14.508L130.974 14.521L132.594 13.348ZM126.834 13.96L128.591 14.915L128.595 14.9071L128.599 14.8992L126.834 13.96ZM125.934 28V30H127.934V28H125.934ZM120.57 28H118.57V30H120.57V28ZM120.57 8.344V6.344H118.57V8.344H120.57ZM124.674 8.344L126.597 7.79456L126.182 6.344H124.674V8.344ZM125.394 10.864L123.471 11.4134L123.885 12.864H125.394V10.864ZM125.682 10.864V12.864H126.774L127.364 11.9455L125.682 10.864ZM127.266 9.244L128.36 10.9179L128.382 10.9035L128.404 10.8884L127.266 9.244ZM129.354 8.308L129.839 10.2483L129.867 10.2412L129.895 10.2333L129.354 8.308ZM131.73 9.984C133.465 9.984 134.639 10.448 135.463 11.1944L138.148 8.22959C136.428 6.672 134.218 5.984 131.73 5.984V9.984ZM135.479 11.2084C136.151 11.8043 136.714 12.9569 136.714 15.184H140.714C140.714 12.3711 140.005 9.87571 138.133 8.21562L135.479 11.2084ZM136.714 15.184V28H140.714V15.184H136.714ZM138.714 26H133.35V30H138.714V26ZM135.35 28V16.516H131.35V28H135.35ZM135.35 16.516C135.35 14.9273 135.079 13.3697 134.214 12.175L130.974 14.521C131.117 14.7183 131.35 15.2727 131.35 16.516H135.35ZM134.232 12.2011C133.258 10.8093 131.751 10.268 130.182 10.268V14.268C130.821 14.268 130.921 14.4467 130.955 14.4949L134.232 12.2011ZM130.182 10.268C128.051 10.268 126.115 11.0517 125.068 13.0208L128.599 14.8992C128.752 14.6123 129.048 14.268 130.182 14.268V10.268ZM125.076 13.005C124.245 14.5356 123.934 16.5215 123.934 18.748H127.934C127.934 16.7985 128.223 15.5924 128.591 14.915L125.076 13.005ZM123.934 18.748V28H127.934V18.748H123.934ZM125.934 26H120.57V30H125.934V26ZM122.57 28V8.344H118.57V28H122.57ZM120.57 10.344H124.674V6.344H120.57V10.344ZM122.751 8.89344L123.471 11.4134L127.317 10.3146L126.597 7.79456L122.751 8.89344ZM125.394 12.864H125.682V8.864H125.394V12.864ZM127.364 11.9455C127.655 11.4929 127.988 11.1612 128.36 10.9179L126.171 7.57006C125.295 8.1428 124.572 8.89106 123.999 9.78248L127.364 11.9455ZM128.404 10.8884C128.821 10.5994 129.294 10.3844 129.839 10.2483L128.869 6.36771C127.877 6.61562 126.958 7.02455 126.127 7.59962L128.404 10.8884ZM129.895 10.2333C130.483 10.068 131.093 9.984 131.73 9.984V5.984C130.735 5.984 129.76 6.116 128.812 6.3827L129.895 10.2333ZM149.594 8.344H151.594V6.344H149.594V8.344ZM149.594 28V30H151.594V28H149.594ZM144.23 28H142.23V30H144.23V28ZM144.23 8.344V6.344H142.23V8.344H144.23ZM148.982 1.216L147.872 2.8801L147.897 2.89641L147.922 2.912L148.982 1.216ZM148.982 5.32L147.872 3.6559L147.872 3.6559L148.982 5.32ZM144.842 5.32L143.7 6.96181L143.716 6.97312L143.732 6.9841L144.842 5.32ZM144.842 1.216L145.934 2.89122L145.943 2.8857L145.951 2.8801L144.842 1.216ZM147.594 8.344V28H151.594V8.344H147.594ZM149.594 26H144.23V30H149.594V26ZM146.23 28V8.344H142.23V28H146.23ZM144.23 10.344H149.594V6.344H144.23V10.344ZM146.93 2.64C147.386 2.64 147.671 2.7455 147.872 2.8801L150.091 -0.4481C149.141 -1.08151 148.058 -1.36 146.93 -1.36V2.64ZM147.922 2.912C147.885 2.88867 147.848 2.85695 147.819 2.82189C147.791 2.78811 147.783 2.7673 147.787 2.77511C147.797 2.8004 147.846 2.94082 147.846 3.268H151.846C151.846 1.92957 151.453 0.402122 150.042 -0.479998L147.922 2.912ZM147.846 3.268C147.846 3.57576 147.799 3.7125 147.787 3.74288C147.782 3.75441 147.786 3.74185 147.805 3.71785C147.825 3.69297 147.85 3.67111 147.872 3.6559L150.091 6.9841C151.437 6.08709 151.846 4.61585 151.846 3.268H147.846ZM147.872 3.6559C147.671 3.79049 147.386 3.896 146.93 3.896V7.896C148.058 7.896 149.141 7.6175 150.091 6.9841L147.872 3.6559ZM146.93 3.896C146.437 3.896 146.144 3.78407 145.951 3.6559L143.732 6.9841C144.692 7.62393 145.791 7.896 146.93 7.896V3.896ZM145.984 3.67819C146.013 3.69853 146.04 3.7244 146.06 3.75033C146.079 3.77511 146.082 3.78625 146.076 3.77061C146.06 3.73142 146.014 3.58439 146.014 3.268H142.014C142.014 4.58479 142.391 6.05164 143.7 6.96181L145.984 3.67819ZM146.014 3.268C146.014 2.93248 146.062 2.78168 146.076 2.74739C146.08 2.73531 146.074 2.75477 146.047 2.78954C146.018 2.82591 145.979 2.86226 145.934 2.89122L143.749 -0.459223C142.375 0.437182 142.014 1.96152 142.014 3.268H146.014ZM145.951 2.8801C146.144 2.75193 146.437 2.64 146.93 2.64V-1.36C145.791 -1.36 144.692 -1.08793 143.732 -0.4481L145.951 2.8801ZM165.207 23.896L164.782 21.9416L165.207 23.896ZM166.863 23.464H168.863V20.7647L166.28 21.5507L166.863 23.464ZM166.863 27.46L167.632 29.3062L168.863 28.7933V27.46H166.863ZM164.703 28.072L164.321 26.1088L164.289 26.115L164.257 26.1223L164.703 28.072ZM158.763 27.784L157.987 29.6273L157.995 29.6308L158.004 29.6343L158.763 27.784ZM156.567 25.804L154.814 26.7678L154.829 26.7941L154.844 26.82L156.567 25.804ZM155.775 12.376H157.775V10.376H155.775V12.376ZM153.219 12.376H151.219V14.376H153.219V12.376ZM153.219 10.108L152.177 8.40041L151.219 8.98503V10.108H153.219ZM156.171 8.308L157.212 10.0156L157.802 9.65579L158.044 9.00846L156.171 8.308ZM157.719 4.168V2.168H156.331L155.845 3.46754L157.719 4.168ZM161.139 4.168H163.139V2.168H161.139V4.168ZM161.139 8.344H159.139V10.344H161.139V8.344ZM166.647 8.344H168.647V6.344H166.647V8.344ZM166.647 12.376V14.376H168.647V12.376H166.647ZM161.139 12.376V10.376H159.139V12.376H161.139ZM161.787 23.536L160.458 25.0308L160.482 25.052L160.506 25.0724L161.787 23.536ZM163.479 26.076C164.213 26.076 164.932 26.0025 165.631 25.8504L164.782 21.9416C164.378 22.0295 163.945 22.076 163.479 22.076V26.076ZM165.631 25.8504C166.238 25.7186 166.842 25.5608 167.445 25.3773L166.28 21.5507C165.779 21.7032 165.28 21.8334 164.782 21.9416L165.631 25.8504ZM164.863 23.464V27.46H168.863V23.464H164.863ZM166.093 25.6138C165.681 25.7855 165.102 25.957 164.321 26.1088L165.084 30.0352C166.032 29.851 166.892 29.6145 167.632 29.3062L166.093 25.6138ZM164.257 26.1223C163.585 26.2758 162.813 26.36 161.931 26.36V30.36C163.064 30.36 164.14 30.2522 165.148 30.0217L164.257 26.1223ZM161.931 26.36C160.973 26.36 160.181 26.2041 159.522 25.9337L158.004 29.6343C159.216 30.1319 160.536 30.36 161.931 30.36V26.36ZM159.539 25.9407C159.062 25.7401 158.646 25.392 158.289 24.788L154.844 26.82C155.592 28.088 156.639 29.0599 157.987 29.6273L159.539 25.9407ZM158.319 24.8402C158.018 24.292 157.775 23.3513 157.775 21.844H153.775C153.775 23.6967 154.06 25.396 154.814 26.7678L158.319 24.8402ZM157.775 21.844V12.376H153.775V21.844H157.775ZM155.775 10.376H153.219V14.376H155.775V10.376ZM155.219 12.376V10.108H151.219V12.376H155.219ZM154.26 11.8156L157.212 10.0156L155.129 6.60041L152.177 8.40041L154.26 11.8156ZM158.044 9.00846L159.592 4.86846L155.845 3.46754L154.297 7.60754L158.044 9.00846ZM157.719 6.168H161.139V2.168H157.719V6.168ZM159.139 4.168V8.344H163.139V4.168H159.139ZM161.139 10.344H166.647V6.344H161.139V10.344ZM164.647 8.344V12.376H168.647V8.344H164.647ZM166.647 10.376H161.139V14.376H166.647V10.376ZM159.139 12.376V21.844H163.139V12.376H159.139ZM159.139 21.844C159.139 22.9844 159.484 24.1648 160.458 25.0308L163.115 22.0412C163.129 22.0529 163.143 22.0685 163.154 22.0856C163.166 22.1025 163.169 22.1125 163.168 22.1097C163.165 22.1022 163.139 22.0263 163.139 21.844H159.139ZM160.506 25.0724C161.377 25.798 162.43 26.076 163.479 26.076V22.076C163.302 22.076 163.196 22.053 163.142 22.0357C163.092 22.0199 163.074 22.0058 163.067 21.9996L160.506 25.0724ZM184.92 9.676L183.645 11.2168L183.659 11.2287L183.674 11.2403L184.92 9.676ZM187.044 28V30H189.044V28H187.044ZM183.3 28L181.438 28.7297L181.936 30H183.3V28ZM182.256 25.336L184.118 24.6063L183.62 23.336H182.256V25.336ZM182.112 25.336V23.336H181.146L180.545 24.0932L182.112 25.336ZM180.384 27.064L179.174 25.4717L179.158 25.4836L179.143 25.4959L180.384 27.064ZM178.368 28.036L177.883 26.0957L177.846 26.1048L177.81 26.1153L178.368 28.036ZM172.464 27.712L171.57 29.5009L171.598 29.5148L171.626 29.5279L172.464 27.712ZM170.304 25.66L168.562 26.6426L168.568 26.6524L168.573 26.6621L170.304 25.66ZM171.708 17.524L172.824 19.1839L172.833 19.1777L172.842 19.1713L171.708 17.524ZM178.296 15.868L178.233 13.869L178.23 13.8691L178.296 15.868ZM181.716 15.76L181.779 17.759L183.716 17.6978V15.76H181.716ZM180.888 12.628L179.543 14.1079L179.559 14.1227L179.576 14.1372L180.888 12.628ZM175.848 12.34L176.404 14.2611L176.427 14.2544L176.45 14.2472L175.848 12.34ZM173.112 13.348L171.313 14.221L172.159 15.9654L173.929 15.1736L173.112 13.348ZM171.348 9.712L170.421 7.93955L168.701 8.8387L169.549 10.585L171.348 9.712ZM174.84 8.416L174.372 6.47153L174.364 6.47358L174.84 8.416ZM179.628 18.964L179.684 20.9633L179.697 20.9628L179.628 18.964ZM176.028 19.9L174.726 18.3815H174.726L176.028 19.9ZM175.74 23.932L174.54 25.532L174.566 25.5517L174.593 25.5705L175.74 23.932ZM180.528 23.428L181.822 24.953L181.835 24.9418L181.848 24.9303L180.528 23.428ZM181.716 18.892H183.716V16.8218L181.647 16.8932L181.716 18.892ZM178.872 9.948C181.255 9.948 182.745 10.4719 183.645 11.2168L186.195 8.13521C184.311 6.57613 181.769 5.948 178.872 5.948V9.948ZM183.674 11.2403C184.478 11.8809 185.044 12.9557 185.044 14.896H189.044C189.044 12.1323 188.194 9.72707 186.166 8.11168L183.674 11.2403ZM185.044 14.896V28H189.044V14.896H185.044ZM187.044 26H183.3V30H187.044V26ZM185.162 27.2703L184.118 24.6063L180.394 26.0657L181.438 28.7297L185.162 27.2703ZM182.256 23.336H182.112V27.336H182.256V23.336ZM180.545 24.0932C180.079 24.6809 179.62 25.1329 179.174 25.4717L181.594 28.6563C182.348 28.0831 183.041 27.3831 183.679 26.5788L180.545 24.0932ZM179.143 25.4959C178.806 25.7621 178.397 25.9672 177.883 26.0957L178.853 29.9763C179.875 29.7208 180.81 29.2779 181.625 28.6321L179.143 25.4959ZM177.81 26.1153C177.306 26.2616 176.584 26.36 175.596 26.36V30.36C176.816 30.36 177.942 30.2424 178.926 29.9567L177.81 26.1153ZM175.596 26.36C174.699 26.36 173.946 26.1933 173.302 25.8961L171.626 29.5279C172.854 30.0947 174.189 30.36 175.596 30.36V26.36ZM173.358 25.9231C172.808 25.6481 172.374 25.2435 172.035 24.6579L168.573 26.6621C169.29 27.9005 170.296 28.8639 171.57 29.5009L173.358 25.9231ZM172.046 24.6774C171.732 24.1217 171.512 23.3097 171.512 22.132H167.512C167.512 23.7863 167.82 25.3263 168.562 26.6426L172.046 24.6774ZM171.512 22.132C171.512 20.5691 172.02 19.7241 172.824 19.1839L170.592 15.8641C168.468 17.2919 167.512 19.5189 167.512 22.132H171.512ZM172.842 19.1713C173.847 18.4793 175.593 17.9577 178.362 17.8669L178.23 13.8691C175.143 13.9703 172.497 14.5527 170.574 15.8767L172.842 19.1713ZM178.359 17.867L181.779 17.759L181.653 13.761L178.233 13.869L178.359 17.867ZM183.716 15.76V14.896H179.716V15.76H183.716ZM183.716 14.896C183.716 13.5312 183.346 12.1148 182.2 11.1188L179.576 14.1372C179.578 14.1392 179.582 14.1428 179.589 14.1529C179.596 14.1638 179.612 14.1903 179.63 14.2409C179.669 14.3469 179.716 14.5511 179.716 14.896H183.716ZM182.233 11.1481C181.226 10.2322 179.939 9.908 178.656 9.908V13.908C179.293 13.908 179.494 14.0638 179.543 14.1079L182.233 11.1481ZM178.656 9.908C177.492 9.908 176.353 10.0831 175.246 10.4328L176.45 14.2472C177.167 14.0209 177.9 13.908 178.656 13.908V9.908ZM175.292 10.4189C174.286 10.7099 173.287 11.0785 172.295 11.5224L173.929 15.1736C174.761 14.8015 175.586 14.4981 176.404 14.2611L175.292 10.4189ZM174.911 12.475L173.147 8.83902L169.549 10.585L171.313 14.221L174.911 12.475ZM172.275 11.4844C173.175 11.014 174.185 10.6358 175.316 10.3584L174.364 6.47358C172.951 6.82017 171.633 7.30604 170.421 7.93955L172.275 11.4844ZM175.308 10.3604C176.444 10.0869 177.631 9.948 178.872 9.948V5.948C177.329 5.948 175.828 6.12105 174.372 6.47155L175.308 10.3604ZM179.572 16.9648C177.759 17.0151 175.951 17.3317 174.726 18.3815L177.33 21.4185C177.449 21.3163 178.041 21.0089 179.684 20.9632L179.572 16.9648ZM174.726 18.3815C173.583 19.3617 173.02 20.6864 173.02 22.168H177.02C177.02 21.7776 177.129 21.5903 177.33 21.4185L174.726 18.3815ZM173.02 22.168C173.02 23.3695 173.389 24.6686 174.54 25.532L176.94 22.332C176.967 22.3524 176.995 22.3792 177.018 22.4096C177.04 22.4394 177.05 22.4611 177.052 22.4652C177.053 22.4688 177.02 22.3874 177.02 22.168H173.02ZM174.593 25.5705C175.5 26.2051 176.56 26.436 177.612 26.436V22.436C177.128 22.436 176.94 22.3309 176.887 22.2935L174.593 25.5705ZM177.612 26.436C179.183 26.436 180.628 25.9657 181.822 24.953L179.234 21.903C178.844 22.2343 178.345 22.436 177.612 22.436V26.436ZM181.848 24.9303C183.152 23.7842 183.716 22.2192 183.716 20.512H179.716C179.716 21.3008 179.488 21.6798 179.208 21.9257L181.848 24.9303ZM183.716 20.512V18.892H179.716V20.512H183.716ZM181.647 16.8932L179.559 16.9652L179.697 20.9628L181.785 20.8908L181.647 16.8932ZM208.843 10.576L207.274 11.8174L207.283 11.8281L208.843 10.576ZM209.923 23.788L211.761 24.5759L211.765 24.5654L209.923 23.788ZM207.259 27.208L206.133 25.5548L207.259 27.208ZM200.887 28L200.214 29.8835L200.224 29.8872L200.235 29.8907L200.887 28ZM199.159 27.064L200.408 25.5023L199.159 27.064ZM197.899 25.84L199.435 24.5596L198.835 23.84H197.899V25.84ZM197.611 25.84V23.84H195.146L195.653 26.252L197.611 25.84ZM197.827 27.28L195.836 27.4696L195.836 27.479L197.827 27.28ZM197.899 36.64V38.64H199.899V36.64H197.899ZM192.535 36.64H190.535V38.64H192.535V36.64ZM192.535 8.344V6.344H190.535V8.344H192.535ZM196.891 8.344L198.808 7.77674L198.385 6.344H196.891V8.344ZM197.647 10.9L195.729 11.4673L196.152 12.9H197.647V10.9ZM197.899 10.9V12.9H198.956L199.551 12.0267L197.899 10.9ZM199.195 9.46L200.496 10.9785L200.517 10.9611L200.536 10.9431L199.195 9.46ZM200.995 8.38L200.306 6.50225L200.296 6.50607L200.285 6.51L200.995 8.38ZM199.519 12.844L198.376 11.2022V11.2022L199.519 12.844ZM198.295 14.608L196.397 13.9755L196.391 13.9934L196.386 14.0114L198.295 14.608ZM197.899 17.524L195.899 17.4832L195.899 17.5036V17.524H197.899ZM198.259 21.34L196.328 21.8618L196.332 21.8753L198.259 21.34ZM199.483 23.32L200.724 21.7519L199.483 23.32ZM203.839 23.32L202.531 21.8064L203.839 23.32ZM205.027 21.304L203.109 20.7341V20.7341L205.027 21.304ZM204.523 13.744L202.797 14.7544L202.811 14.7794L202.827 14.804L204.523 13.744ZM203.479 9.984C205.077 9.984 206.287 10.5696 207.274 11.8174L210.411 9.33459C208.663 7.1264 206.296 5.984 203.479 5.984V9.984ZM207.283 11.8281C208.25 13.0326 208.895 15.0271 208.895 18.136H212.895C212.895 14.5729 212.171 11.5274 210.402 9.32393L207.283 11.8281ZM208.895 18.136C208.895 20.1864 208.595 21.7888 208.08 23.0106L211.765 24.5654C212.546 22.7152 212.895 20.5496 212.895 18.136H208.895ZM208.084 23.0002C207.555 24.2343 206.886 25.0419 206.133 25.5548L208.384 28.8612C209.887 27.8381 210.994 26.3657 211.761 24.5758L208.084 23.0002ZM206.133 25.5548C205.367 26.0764 204.459 26.36 203.335 26.36V30.36C205.186 30.36 206.894 29.8756 208.384 28.8612L206.133 25.5548ZM203.335 26.36C202.563 26.36 201.977 26.2603 201.539 26.1093L200.235 29.8907C201.188 30.2197 202.234 30.36 203.335 30.36V26.36ZM201.559 26.1165C201.063 25.9393 200.69 25.7275 200.408 25.5023L197.909 28.6257C198.588 29.1685 199.366 29.5807 200.214 29.8835L201.559 26.1165ZM200.408 25.5023C200.023 25.1945 199.701 24.8794 199.435 24.5596L196.362 27.1204C196.816 27.6646 197.334 28.1655 197.909 28.6257L200.408 25.5023ZM197.899 23.84H197.611V27.84H197.899V23.84ZM195.653 26.252C195.733 26.6286 195.794 27.034 195.836 27.4696L199.818 27.0904C199.763 26.518 199.68 25.9634 199.568 25.428L195.653 26.252ZM195.836 27.479C195.878 27.8932 195.899 28.3068 195.899 28.72H199.899C199.899 28.1732 199.871 27.6268 199.817 27.081L195.836 27.479ZM195.899 28.72V36.64H199.899V28.72H195.899ZM197.899 34.64H192.535V38.64H197.899V34.64ZM194.535 36.64V8.344H190.535V36.64H194.535ZM192.535 10.344H196.891V6.344H192.535V10.344ZM194.973 8.91126L195.729 11.4673L199.564 10.3327L198.808 7.77674L194.973 8.91126ZM197.647 12.9H197.899V8.9H197.647V12.9ZM199.551 12.0267C199.808 11.6497 200.121 11.3004 200.496 10.9785L197.893 7.94149C197.26 8.48363 196.709 9.09429 196.246 9.77332L199.551 12.0267ZM200.536 10.9431C200.839 10.6696 201.219 10.434 201.704 10.25L200.285 6.51C199.378 6.85399 198.558 7.3384 197.853 7.97693L200.536 10.9431ZM201.683 10.2578C202.14 10.0902 202.727 9.984 203.479 9.984V5.984C202.358 5.984 201.289 6.14176 200.306 6.50225L201.683 10.2578ZM201.751 10.268C200.561 10.268 199.372 10.5098 198.376 11.2022L200.661 14.4858C200.769 14.4102 201.068 14.268 201.751 14.268V10.268ZM198.376 11.2022C197.392 11.8867 196.764 12.8749 196.397 13.9755L200.192 15.2405C200.353 14.7571 200.541 14.5693 200.661 14.4858L198.376 11.2022ZM196.386 14.0114C196.07 15.0216 195.925 16.1971 195.899 17.4832L199.898 17.5648C199.92 16.4989 200.039 15.7304 200.204 15.2045L196.386 14.0114ZM195.899 17.524V18.1H199.899V17.524H195.899ZM195.899 18.1C195.899 19.4863 196.028 20.7528 196.328 21.8618L200.189 20.8182C200.009 20.1512 199.899 19.2577 199.899 18.1H195.899ZM196.332 21.8753C196.659 23.0557 197.265 24.1156 198.241 24.8881L200.724 21.7519C200.548 21.6124 200.338 21.3523 200.186 20.8047L196.332 21.8753ZM198.241 24.8881C199.274 25.7058 200.541 26.004 201.823 26.004V22.004C201.137 22.004 200.843 21.8462 200.724 21.7519L198.241 24.8881ZM201.823 26.004C203.033 26.004 204.194 25.6553 205.146 24.8336L202.531 21.8064C202.427 21.8967 202.245 22.004 201.823 22.004V26.004ZM205.146 24.8336C206.044 24.0583 206.606 23.0109 206.944 21.8739L203.109 20.7341C202.92 21.3731 202.69 21.6697 202.531 21.8064L205.146 24.8336ZM206.944 21.8739C207.279 20.7465 207.423 19.4625 207.423 18.064H203.423C203.423 19.2095 203.302 20.0855 203.109 20.7341L206.944 21.8739ZM207.423 18.064C207.423 16.0004 207.112 14.1132 206.219 12.684L202.827 14.804C203.133 15.2948 203.423 16.2876 203.423 18.064H207.423ZM206.249 12.7336C205.266 11.0559 203.634 10.268 201.751 10.268V14.268C202.411 14.268 202.627 14.4641 202.797 14.7544L206.249 12.7336ZM240.543 4.456L239.164 5.90427L239.176 5.91548L239.188 5.92649L240.543 4.456ZM242.343 13.564L244.241 14.1965L244.245 14.1832L242.343 13.564ZM240.651 16.3L239.216 14.907L239.216 14.9077L240.651 16.3ZM237.591 18.172L238.266 20.0547L237.591 18.172ZM230.535 18.856V16.856H228.535V18.856H230.535ZM230.535 28V30H232.535V28H230.535ZM225.099 28H223.099V30H225.099V28ZM225.099 2.296V0.295999H223.099V2.296H225.099ZM230.535 6.76V4.76H228.535V6.76H230.535ZM230.535 14.392H228.535V16.392H230.535V14.392ZM234.999 13.996L234.331 12.1111L234.999 13.996ZM236.727 12.736L235.095 11.58V11.58L236.727 12.736ZM236.295 7.696L234.96 9.18514L234.975 9.19812L234.99 9.21082L236.295 7.696ZM233.307 4.296C236.395 4.296 238.191 4.97707 239.164 5.90427L241.923 3.00772C239.872 1.05492 236.844 0.295999 233.307 0.295999V4.296ZM239.188 5.92649C240.234 6.89055 240.847 8.26849 240.847 10.324H244.847C244.847 7.38751 243.925 4.85345 241.899 2.98551L239.188 5.92649ZM240.847 10.324C240.847 11.2501 240.71 12.1206 240.442 12.9448L244.245 14.1832C244.649 12.9434 244.847 11.6539 244.847 10.324H240.847ZM240.446 12.9315C240.212 13.6348 239.814 14.2912 239.216 14.907L242.087 17.6929C243.073 16.6768 243.803 15.5092 244.241 14.1965L240.446 12.9315ZM239.216 14.9077C238.703 15.4364 237.964 15.9137 236.916 16.2893L238.266 20.0547C239.763 19.5183 241.064 18.7476 242.087 17.6923L239.216 14.9077ZM236.916 16.2893C235.927 16.6441 234.599 16.856 232.875 16.856V20.856C234.895 20.856 236.712 20.6119 238.266 20.0547L236.916 16.2893ZM232.875 16.856H230.535V20.856H232.875V16.856ZM228.535 18.856V28H232.535V18.856H228.535ZM230.535 26H225.099V30H230.535V26ZM227.099 28V2.296H223.099V28H227.099ZM225.099 4.296H233.307V0.295999H225.099V4.296ZM233.019 4.76H230.535V8.76H233.019V4.76ZM228.535 6.76V14.392H232.535V6.76H228.535ZM230.535 16.392H232.335V12.392H230.535V16.392ZM232.335 16.392C233.529 16.392 234.655 16.2404 235.668 15.8809L234.331 12.1111C233.856 12.2796 233.206 12.392 232.335 12.392V16.392ZM235.668 15.8809C236.753 15.496 237.685 14.8437 238.359 13.892L235.095 11.58C234.953 11.7803 234.734 11.968 234.331 12.1111L235.668 15.8809ZM238.359 13.892C239.068 12.8914 239.339 11.7095 239.339 10.504H235.339C235.339 11.1225 235.203 11.4286 235.095 11.58L238.359 13.892ZM239.339 10.504C239.339 8.88353 238.888 7.2908 237.601 6.18118L234.99 9.21082C235.094 9.3012 235.339 9.58047 235.339 10.504H239.339ZM237.63 6.20686C236.404 5.10692 234.723 4.76 233.019 4.76V8.76C234.291 8.76 234.795 9.03708 234.96 9.18514L237.63 6.20686ZM261.385 9.676L260.11 11.2168L260.124 11.2287L260.139 11.2403L261.385 9.676ZM263.509 28V30H265.509V28H263.509ZM259.765 28L257.903 28.7297L258.401 30H259.765V28ZM258.721 25.336L260.583 24.6063L260.085 23.336H258.721V25.336ZM258.577 25.336V23.336H257.61L257.01 24.0932L258.577 25.336ZM256.849 27.064L255.639 25.4717L255.623 25.4836L255.607 25.4959L256.849 27.064ZM254.833 28.036L254.348 26.0957L254.311 26.1048L254.275 26.1153L254.833 28.036ZM248.929 27.712L248.034 29.5009L248.062 29.5148L248.091 29.5279L248.929 27.712ZM246.769 25.66L245.027 26.6426L245.032 26.6524L245.038 26.6621L246.769 25.66ZM248.173 17.524L249.289 19.1839L249.298 19.1777L249.307 19.1713L248.173 17.524ZM254.761 15.868L254.698 13.869L254.695 13.8691L254.761 15.868ZM258.181 15.76L258.244 17.759L260.181 17.6978V15.76H258.181ZM257.353 12.628L256.008 14.1079L256.024 14.1227L256.04 14.1372L257.353 12.628ZM252.313 12.34L252.869 14.2611L252.892 14.2544L252.915 14.2472L252.313 12.34ZM249.577 13.348L247.777 14.221L248.624 15.9654L250.394 15.1736L249.577 13.348ZM247.813 9.712L246.886 7.93955L245.166 8.8387L246.013 10.585L247.813 9.712ZM251.305 8.416L250.837 6.47153L250.828 6.47358L251.305 8.416ZM256.093 18.964L256.148 20.9633L256.162 20.9628L256.093 18.964ZM252.493 19.9L251.191 18.3815H251.191L252.493 19.9ZM252.205 23.932L251.005 25.532L251.031 25.5517L251.058 25.5705L252.205 23.932ZM256.993 23.428L258.287 24.953L258.3 24.9418L258.313 24.9303L256.993 23.428ZM258.181 18.892H260.181V16.8218L258.112 16.8932L258.181 18.892ZM255.337 9.948C257.72 9.948 259.21 10.4719 260.11 11.2168L262.66 8.13521C260.776 6.57613 258.234 5.948 255.337 5.948V9.948ZM260.139 11.2403C260.943 11.8809 261.509 12.9557 261.509 14.896H265.509C265.509 12.1323 264.659 9.72707 262.631 8.11168L260.139 11.2403ZM261.509 14.896V28H265.509V14.896H261.509ZM263.509 26H259.765V30H263.509V26ZM261.627 27.2703L260.583 24.6063L256.859 26.0657L257.903 28.7297L261.627 27.2703ZM258.721 23.336H258.577V27.336H258.721V23.336ZM257.01 24.0932C256.544 24.6809 256.084 25.1329 255.639 25.4717L258.059 28.6563C258.813 28.0831 259.506 27.3831 260.144 26.5788L257.01 24.0932ZM255.607 25.4959C255.271 25.7621 254.862 25.9672 254.348 26.0957L255.318 29.9763C256.34 29.7208 257.275 29.2779 258.09 28.6321L255.607 25.4959ZM254.275 26.1153C253.771 26.2616 253.049 26.36 252.061 26.36V30.36C253.281 30.36 254.406 30.2424 255.39 29.9567L254.275 26.1153ZM252.061 26.36C251.164 26.36 250.411 26.1933 249.767 25.8961L248.091 29.5279C249.319 30.0947 250.654 30.36 252.061 30.36V26.36ZM249.823 25.9231C249.273 25.6481 248.839 25.2435 248.5 24.6579L245.038 26.6621C245.755 27.9005 246.76 28.8639 248.034 29.5009L249.823 25.9231ZM248.511 24.6774C248.197 24.1217 247.977 23.3097 247.977 22.132H243.977C243.977 23.7863 244.284 25.3263 245.027 26.6426L248.511 24.6774ZM247.977 22.132C247.977 20.5691 248.485 19.7241 249.289 19.1839L247.057 15.8641C244.933 17.2919 243.977 19.5189 243.977 22.132H247.977ZM249.307 19.1713C250.312 18.4793 252.058 17.9577 254.826 17.8669L254.695 13.8691C251.608 13.9703 248.962 14.5527 247.039 15.8767L249.307 19.1713ZM254.824 17.867L258.244 17.759L258.118 13.761L254.698 13.869L254.824 17.867ZM260.181 15.76V14.896H256.181V15.76H260.181ZM260.181 14.896C260.181 13.5312 259.811 12.1148 258.665 11.1188L256.04 14.1372C256.043 14.1392 256.047 14.1428 256.053 14.1529C256.061 14.1638 256.077 14.1903 256.095 14.2409C256.134 14.3469 256.181 14.5511 256.181 14.896H260.181ZM258.698 11.1481C257.691 10.2322 256.404 9.908 255.121 9.908V13.908C255.758 13.908 255.959 14.0638 256.008 14.1079L258.698 11.1481ZM255.121 9.908C253.957 9.908 252.818 10.0831 251.711 10.4328L252.915 14.2472C253.632 14.0209 254.364 13.908 255.121 13.908V9.908ZM251.757 10.4189C250.751 10.7099 249.752 11.0785 248.76 11.5224L250.394 15.1736C251.225 14.8015 252.05 14.4981 252.869 14.2611L251.757 10.4189ZM251.376 12.475L249.612 8.83902L246.013 10.585L247.777 14.221L251.376 12.475ZM248.739 11.4844C249.639 11.014 250.65 10.6358 251.781 10.3584L250.828 6.47358C249.415 6.82017 248.098 7.30604 246.886 7.93955L248.739 11.4844ZM251.773 10.3604C252.909 10.0869 254.096 9.948 255.337 9.948V5.948C253.794 5.948 252.293 6.12105 250.837 6.47155L251.773 10.3604ZM256.037 16.9648C254.224 17.0151 252.416 17.3317 251.191 18.3815L253.794 21.4185C253.914 21.3163 254.506 21.0089 256.148 20.9632L256.037 16.9648ZM251.191 18.3815C250.048 19.3617 249.485 20.6864 249.485 22.168H253.485C253.485 21.7776 253.594 21.5903 253.794 21.4185L251.191 18.3815ZM249.485 22.168C249.485 23.3695 249.854 24.6686 251.005 25.532L253.405 22.332C253.432 22.3524 253.459 22.3792 253.483 22.4096C253.505 22.4394 253.515 22.4611 253.517 22.4652C253.518 22.4688 253.485 22.3874 253.485 22.168H249.485ZM251.058 25.5705C251.965 26.2051 253.025 26.436 254.077 26.436V22.436C253.593 22.436 253.405 22.3309 253.352 22.2935L251.058 25.5705ZM254.077 26.436C255.647 26.436 257.093 25.9657 258.287 24.953L255.699 21.903C255.308 22.2343 254.81 22.436 254.077 22.436V26.436ZM258.313 24.9303C259.617 23.7842 260.181 22.2192 260.181 20.512H256.181C256.181 21.3008 255.952 21.6798 255.673 21.9257L258.313 24.9303ZM260.181 20.512V18.892H256.181V20.512H260.181ZM258.112 16.8932L256.024 16.9652L256.162 20.9628L258.25 20.8908L258.112 16.8932ZM281.779 25.552L283.43 26.6814L283.437 26.6714L283.444 26.6614L281.779 25.552ZM278.971 27.64L279.689 29.5067L278.971 27.64ZM270.799 28.072L271.182 26.109L271.159 26.1045L271.136 26.1005L270.799 28.072ZM267.847 27.208H265.847V28.5438L267.081 29.0555L267.847 27.208ZM267.847 22.78L268.675 20.9593L265.847 19.674V22.78H267.847ZM276.739 23.968L275.61 22.3174L275.589 22.3317L275.568 22.3466L276.739 23.968ZM277.135 21.844L275.448 22.9178L275.481 22.9701L275.518 23.0203L277.135 21.844ZM273.175 19.648L272.383 21.4844L272.396 21.4899L272.409 21.4952L273.175 19.648ZM270.151 18.1L269.042 19.7641L269.06 19.7759L269.078 19.7873L270.151 18.1ZM268.387 16.228L266.61 17.1453L266.616 17.1573L266.623 17.1692L268.387 16.228ZM269.935 9.352L271.018 11.0334L269.935 9.352ZM279.079 8.344L278.655 10.2984V10.2984L279.079 8.344ZM282.499 9.532L284.343 10.3073L285.087 8.53739L283.349 7.72153L282.499 9.532ZM280.879 13.384L280.067 15.2116L281.932 16.0404L282.723 14.1593L280.879 13.384ZM279.007 12.628L278.33 14.5098V14.5098L279.007 12.628ZM277.243 12.124L276.819 14.0784L276.827 14.0802L276.836 14.082L277.243 12.124ZM273.715 12.268L272.78 10.5004L272.757 10.5124L272.735 10.5248L273.715 12.268ZM273.427 14.104L271.81 15.2803L271.871 15.3645L271.941 15.4419L273.427 14.104ZM274.615 14.896L273.721 16.6849L273.735 16.6921L273.75 16.699L274.615 14.896ZM277.243 16.048L276.474 17.8942L276.484 17.8982L276.494 17.9022L277.243 16.048ZM280.159 17.488L279.108 19.1896L279.127 19.2009L279.145 19.2119L280.159 17.488ZM282.031 19.324L280.302 20.3283L280.321 20.3616L280.342 20.3941L282.031 19.324ZM280.715 22.168C280.715 23.1631 280.484 23.8889 280.115 24.4426L283.444 26.6614C284.322 25.3431 284.715 23.8129 284.715 22.168H280.715ZM280.129 24.4226C279.778 24.9351 279.204 25.4078 278.253 25.7733L279.689 29.5067C281.235 28.9122 282.533 27.9929 283.43 26.6814L280.129 24.4226ZM278.253 25.7733C277.304 26.1385 276.017 26.36 274.327 26.36V30.36C276.334 30.36 278.143 30.1015 279.689 29.5067L278.253 25.7733ZM274.327 26.36C273.045 26.36 272.004 26.2693 271.182 26.109L270.416 30.035C271.563 30.2587 272.874 30.36 274.327 30.36V26.36ZM271.136 26.1005C270.309 25.9593 269.469 25.7151 268.613 25.3605L267.081 29.0555C268.194 29.5169 269.322 29.8487 270.463 30.0435L271.136 26.1005ZM269.847 27.208V22.78H265.847V27.208H269.847ZM267.02 24.6007C268.192 25.1337 269.445 25.5674 270.773 25.906L271.761 22.03C270.642 21.7446 269.614 21.3863 268.675 20.9593L267.02 24.6007ZM270.773 25.906C272.107 26.2459 273.358 26.436 274.507 26.436V22.436C273.784 22.436 272.876 22.3141 271.761 22.03L270.773 25.906ZM274.507 26.436C275.638 26.436 276.937 26.2927 277.91 25.5894L275.568 22.3466C275.655 22.2842 275.653 22.3184 275.447 22.3616C275.251 22.4027 274.946 22.436 274.507 22.436V26.436ZM277.869 25.6186C278.808 24.976 279.423 23.9795 279.423 22.744H275.423C275.423 22.682 275.441 22.5697 275.507 22.4524C275.568 22.3419 275.629 22.3042 275.61 22.3174L277.869 25.6186ZM279.423 22.744C279.423 21.9986 279.201 21.2841 278.753 20.6677L275.518 23.0203C275.493 22.9863 275.466 22.9369 275.447 22.8765C275.427 22.8168 275.423 22.7691 275.423 22.744H279.423ZM278.823 20.7703C278.364 20.05 277.582 19.5468 276.961 19.199L275.006 22.689C275.25 22.8257 275.404 22.9294 275.49 22.997C275.532 23.0296 275.545 23.0437 275.54 23.0382C275.535 23.0339 275.497 22.9945 275.448 22.9178L278.823 20.7703ZM276.961 19.199C276.255 18.8036 275.23 18.3354 273.942 17.8008L272.409 21.4952C273.665 22.0166 274.512 22.4124 275.006 22.689L276.961 19.199ZM273.968 17.8116C272.804 17.3097 271.899 16.8414 271.225 16.4127L269.078 19.7873C269.988 20.3666 271.099 20.9303 272.383 21.4844L273.968 17.8116ZM271.261 16.4359C270.698 16.0605 270.357 15.6704 270.152 15.2868L266.623 17.1692C267.186 18.2256 268.021 19.0835 269.042 19.7641L271.261 16.4359ZM270.165 15.3107C269.966 14.9261 269.811 14.3386 269.811 13.456H265.811C265.811 14.7813 266.041 16.0419 266.61 17.1453L270.165 15.3107ZM269.811 13.456C269.811 12.2446 270.228 11.5423 271.018 11.0334L268.852 7.67057C266.81 8.98573 265.811 11.0194 265.811 13.456H269.811ZM271.018 11.0334C272.007 10.3965 273.473 9.984 275.587 9.984V5.984C272.998 5.984 270.696 6.48348 268.852 7.67057L271.018 11.0334ZM275.587 9.984C276.68 9.984 277.701 10.0911 278.655 10.2984L279.504 6.38965C278.25 6.1169 276.942 5.984 275.587 5.984V9.984ZM278.655 10.2984C279.592 10.5022 280.59 10.8449 281.65 11.3425L283.349 7.72153C282.057 7.11506 280.775 6.66585 279.504 6.38965L278.655 10.2984ZM280.656 8.75666L279.036 12.6087L282.723 14.1593L284.343 10.3073L280.656 8.75666ZM281.692 11.5564C281.004 11.2508 280.335 10.9803 279.685 10.7462L278.33 14.5098C278.88 14.7077 279.459 14.9412 280.067 15.2116L281.692 11.5564ZM279.685 10.7462C279.004 10.5012 278.326 10.3066 277.651 10.166L276.836 14.082C277.313 14.1814 277.811 14.3228 278.33 14.5098L279.685 10.7462ZM277.668 10.1696C276.968 10.0175 276.249 9.944 275.515 9.944V13.944C275.981 13.944 276.414 13.9905 276.819 14.0784L277.668 10.1696ZM275.515 9.944C274.6 9.944 273.614 10.0589 272.78 10.5004L274.651 14.0356C274.625 14.0494 274.668 14.0218 274.826 13.9934C274.98 13.9656 275.205 13.944 275.515 13.944V9.944ZM272.735 10.5248C271.737 11.0863 271.139 12.0678 271.139 13.24H275.139C275.139 13.3291 275.116 13.5028 275.004 13.6926C274.893 13.8804 274.757 13.9766 274.696 14.0112L272.735 10.5248ZM271.139 13.24C271.139 13.9951 271.382 14.6914 271.81 15.2803L275.045 12.9277C275.06 12.9491 275.087 12.9929 275.109 13.0575C275.131 13.1231 275.139 13.1871 275.139 13.24H271.139ZM271.941 15.4419C272.419 15.9736 273.099 16.3738 273.721 16.6849L275.51 13.1071C275.272 12.9882 275.106 12.8911 274.996 12.8179C274.878 12.7391 274.871 12.7186 274.914 12.7661L271.941 15.4419ZM273.75 16.699C274.398 17.0101 275.312 17.4101 276.474 17.8942L278.013 14.2018C276.87 13.7259 276.033 13.3579 275.481 13.093L273.75 16.699ZM276.494 17.9022C277.544 18.3266 278.41 18.7582 279.108 19.1896L281.21 15.7864C280.277 15.2098 279.199 14.6814 277.993 14.1938L276.494 17.9022ZM279.145 19.2119C279.695 19.5354 280.059 19.9108 280.302 20.3283L283.761 18.3197C283.139 17.2492 282.255 16.4005 281.173 15.7641L279.145 19.2119ZM280.342 20.3941C280.532 20.6942 280.715 21.2323 280.715 22.168H284.715C284.715 20.7517 284.443 19.3938 283.721 18.2539L280.342 20.3941ZM299.674 25.552L301.325 26.6814L301.331 26.6714L301.338 26.6614L299.674 25.552ZM296.866 27.64L297.584 29.5067L296.866 27.64ZM288.694 28.072L289.077 26.109L289.054 26.1045L289.031 26.1005L288.694 28.072ZM285.742 27.208H283.742V28.5438L284.976 29.0555L285.742 27.208ZM285.742 22.78L286.57 20.9593L283.742 19.674V22.78H285.742ZM294.634 23.968L293.505 22.3174L293.484 22.3317L293.463 22.3466L294.634 23.968ZM295.03 21.844L293.343 22.9178L293.376 22.9701L293.412 23.0203L295.03 21.844ZM291.07 19.648L290.278 21.4844L290.29 21.4899L290.303 21.4952L291.07 19.648ZM288.046 18.1L286.937 19.7641L286.954 19.7759L286.972 19.7873L288.046 18.1ZM286.282 16.228L284.505 17.1453L284.511 17.1573L284.517 17.1692L286.282 16.228ZM287.83 9.352L288.913 11.0334L287.83 9.352ZM296.974 8.344L296.549 10.2984V10.2984L296.974 8.344ZM300.394 9.532L302.238 10.3073L302.982 8.53739L301.244 7.72153L300.394 9.532ZM298.774 13.384L297.962 15.2116L299.826 16.0404L300.618 14.1593L298.774 13.384ZM296.902 12.628L296.224 14.5098V14.5098L296.902 12.628ZM295.138 12.124L294.713 14.0784L294.722 14.0802L294.73 14.082L295.138 12.124ZM291.61 12.268L290.674 10.5004L290.652 10.5124L290.629 10.5248L291.61 12.268ZM291.322 14.104L289.704 15.2803L289.766 15.3645L289.835 15.4419L291.322 14.104ZM292.51 14.896L291.616 16.6849L291.63 16.6921L291.644 16.699L292.51 14.896ZM295.138 16.048L294.369 17.8942L294.379 17.8982L294.388 17.9022L295.138 16.048ZM298.054 17.488L297.003 19.1896L297.021 19.2009L297.04 19.2119L298.054 17.488ZM299.926 19.324L298.196 20.3283L298.216 20.3616L298.236 20.3941L299.926 19.324ZM298.61 22.168C298.61 23.1631 298.379 23.8889 298.01 24.4426L301.338 26.6614C302.217 25.3431 302.61 23.8129 302.61 22.168H298.61ZM298.023 24.4226C297.673 24.9351 297.098 25.4078 296.148 25.7733L297.584 29.5067C299.13 28.9122 300.427 27.9929 301.325 26.6814L298.023 24.4226ZM296.148 25.7733C295.198 26.1385 293.912 26.36 292.222 26.36V30.36C294.228 30.36 296.037 30.1015 297.584 29.5067L296.148 25.7733ZM292.222 26.36C290.94 26.36 289.899 26.2693 289.077 26.109L288.311 30.035C289.457 30.2587 290.768 30.36 292.222 30.36V26.36ZM289.031 26.1005C288.203 25.9593 287.363 25.7151 286.508 25.3605L284.976 29.0555C286.089 29.5169 287.217 29.8487 288.357 30.0435L289.031 26.1005ZM287.742 27.208V22.78H283.742V27.208H287.742ZM284.914 24.6007C286.087 25.1337 287.34 25.5674 288.668 25.906L289.656 22.03C288.536 21.7446 287.509 21.3863 286.57 20.9593L284.914 24.6007ZM288.668 25.906C290.001 26.2459 291.253 26.436 292.402 26.436V22.436C291.679 22.436 290.771 22.3141 289.656 22.03L288.668 25.906ZM292.402 26.436C293.533 26.436 294.831 26.2927 295.805 25.5894L293.463 22.3466C293.549 22.2842 293.548 22.3184 293.342 22.3616C293.145 22.4027 292.841 22.436 292.402 22.436V26.436ZM295.763 25.6186C296.703 24.976 297.318 23.9795 297.318 22.744H293.318C293.318 22.682 293.335 22.5697 293.401 22.4524C293.463 22.3419 293.524 22.3042 293.505 22.3174L295.763 25.6186ZM297.318 22.744C297.318 21.9986 297.096 21.2841 296.647 20.6677L293.412 23.0203C293.388 22.9863 293.36 22.9369 293.341 22.8765C293.322 22.8168 293.318 22.7691 293.318 22.744H297.318ZM296.717 20.7703C296.259 20.05 295.476 19.5468 294.855 19.199L292.901 22.689C293.145 22.8257 293.298 22.9294 293.385 22.997C293.426 23.0296 293.44 23.0437 293.434 23.0382C293.43 23.0339 293.391 22.9945 293.343 22.9178L296.717 20.7703ZM294.855 19.199C294.149 18.8036 293.124 18.3354 291.837 17.8008L290.303 21.4952C291.559 22.0166 292.407 22.4124 292.901 22.689L294.855 19.199ZM291.862 17.8116C290.699 17.3097 289.793 16.8414 289.12 16.4127L286.972 19.7873C287.883 20.3666 288.993 20.9303 290.278 21.4844L291.862 17.8116ZM289.155 16.4359C288.592 16.0605 288.251 15.6704 288.047 15.2868L284.517 17.1692C285.081 18.2256 285.916 19.0835 286.937 19.7641L289.155 16.4359ZM288.059 15.3107C287.861 14.9261 287.706 14.3386 287.706 13.456H283.706C283.706 14.7813 283.935 16.0419 284.505 17.1453L288.059 15.3107ZM287.706 13.456C287.706 12.2446 288.123 11.5423 288.913 11.0334L286.747 7.67057C284.705 8.98573 283.706 11.0194 283.706 13.456H287.706ZM288.913 11.0334C289.902 10.3965 291.368 9.984 293.482 9.984V5.984C290.892 5.984 288.59 6.48348 286.747 7.67057L288.913 11.0334ZM293.482 9.984C294.575 9.984 295.596 10.0911 296.549 10.2984L297.399 6.38965C296.144 6.1169 294.837 5.984 293.482 5.984V9.984ZM296.549 10.2984C297.487 10.5022 298.484 10.8449 299.544 11.3425L301.244 7.72153C299.952 7.11506 298.669 6.66585 297.399 6.38965L296.549 10.2984ZM298.55 8.75666L296.93 12.6087L300.618 14.1593L302.238 10.3073L298.55 8.75666ZM299.586 11.5564C298.899 11.2508 298.23 10.9803 297.579 10.7462L296.224 14.5098C296.774 14.7077 297.353 14.9412 297.962 15.2116L299.586 11.5564ZM297.579 10.7462C296.899 10.5012 296.221 10.3066 295.546 10.166L294.73 14.082C295.207 14.1814 295.705 14.3228 296.224 14.5098L297.579 10.7462ZM295.563 10.1696C294.863 10.0175 294.144 9.944 293.41 9.944V13.944C293.876 13.944 294.309 13.9905 294.713 14.0784L295.563 10.1696ZM293.41 9.944C292.495 9.944 291.508 10.0589 290.674 10.5004L292.546 14.0356C292.52 14.0494 292.562 14.0218 292.72 13.9934C292.875 13.9656 293.1 13.944 293.41 13.944V9.944ZM290.629 10.5248C289.631 11.0863 289.034 12.0678 289.034 13.24H293.034C293.034 13.3291 293.011 13.5028 292.899 13.6926C292.787 13.8804 292.652 13.9766 292.59 14.0112L290.629 10.5248ZM289.034 13.24C289.034 13.9951 289.276 14.6914 289.704 15.2803L292.939 12.9277C292.955 12.9491 292.982 12.9929 293.003 13.0575C293.025 13.1231 293.034 13.1871 293.034 13.24H289.034ZM289.835 15.4419C290.314 15.9736 290.993 16.3738 291.616 16.6849L293.404 13.1071C293.167 12.9882 293 12.8911 292.89 12.8179C292.772 12.7391 292.766 12.7186 292.809 12.7661L289.835 15.4419ZM291.644 16.699C292.293 17.0101 293.207 17.4101 294.369 17.8942L295.907 14.2018C294.765 13.7259 293.927 13.3579 293.375 13.093L291.644 16.699ZM294.388 17.9022C295.438 18.3266 296.304 18.7582 297.003 19.1896L299.105 15.7864C298.171 15.2098 297.094 14.6814 295.888 14.1938L294.388 17.9022ZM297.04 19.2119C297.59 19.5354 297.954 19.9108 298.196 20.3283L301.656 18.3197C301.034 17.2492 300.15 16.4005 299.068 15.7641L297.04 19.2119ZM298.236 20.3941C298.426 20.6942 298.61 21.2323 298.61 22.168H302.61C302.61 20.7517 302.338 19.3938 301.616 18.2539L298.236 20.3941Z" fill="url(#paint0_linear_3026_911)"/>
<defs>
<linearGradient id="paint0_linear_3026_911" x1="-21.1294" y1="14.5" x2="333.682" y2="66.5661" gradientUnits="userSpaceOnUse">
<stop stop-color="#4BF2A2"/>
<stop offset="0.522948" stop-color="#A89FE7"/>
<stop offset="0.669499" stop-color="#E1C4F4"/>
<stop offset="1" stop-color="#DD40CD"/>
</linearGradient>
</defs>
</svg>
