<svg width="16" height="16" viewBox="0 0 16 16" fill="none" xmlns="http://www.w3.org/2000/svg">
<path d="M15.1566 8.84341C15.6224 8.84341 16 8.4658 16 8C16 7.5342 15.6224 7.15659 15.1566 7.15659L8.84341 7.15659V0.843412C8.84341 0.377608 8.4658 -3.5547e-08 8 0C7.5342 -3.5547e-08 7.15659 0.377608 7.15659 0.843412V7.15659L0.843412 7.15659C0.377608 7.15659 -2.4883e-07 7.5342 0 8C-3.55471e-07 8.4658 0.377608 8.84341 0.843412 8.84341H7.15659V15.1566C7.15659 15.6224 7.5342 16 8 16C8.4658 16 8.84341 15.6224 8.84341 15.1566V8.84341H15.1566Z" fill="white"/>
</svg>
