<svg width="526" height="515" viewBox="0 0 526 515" fill="none" xmlns="http://www.w3.org/2000/svg">
<path d="M107.029 340.931C101.476 329.323 133.84 300.885 163.462 277.133C167.937 273.516 171.58 268.979 174.144 263.829C176.708 258.679 178.133 253.037 178.322 247.287C179.082 226.11 185.628 205.546 197.249 187.828C208.87 170.109 225.123 155.911 244.244 146.777C263.364 137.643 284.621 133.921 305.708 136.015C326.794 138.108 346.904 145.938 363.855 158.654C368.4 162.089 373.627 164.514 379.185 165.765C384.743 167.016 390.505 167.066 396.084 165.909C431.866 158.366 470.078 153.035 475.615 164.608C481.151 176.182 453.026 202.585 424.718 225.737C420.318 229.354 416.742 233.869 414.229 238.981C411.716 244.092 410.323 249.681 410.145 255.374C409.415 276.555 402.896 297.131 391.296 314.868C379.695 332.606 363.458 346.826 344.345 355.985C325.233 365.144 303.977 368.892 282.884 366.822C261.792 364.752 241.67 356.942 224.703 344.242C220.105 340.776 214.814 338.34 209.19 337.102C203.566 335.864 197.741 335.852 192.112 337.067C155.053 345.214 112.596 352.568 107.029 340.931Z" fill="url(#paint0_radial_3460_2019)"/>
<path d="M234.977 76.8317C223.609 73.7856 203.467 107.654 187.079 138.271C184.578 142.901 181.109 146.937 176.909 150.106C172.708 153.275 167.874 155.503 162.736 156.637C143.823 160.871 126.432 170.205 112.45 183.626C98.467 197.047 88.4278 214.041 83.4217 232.764C78.4155 251.487 78.6336 271.224 84.0523 289.832C89.4711 308.44 99.8834 325.208 114.159 338.317C118.01 341.827 121.067 346.12 123.124 350.908C125.181 355.696 126.192 360.868 126.088 366.078C125.306 399.515 126.921 434.766 138.255 437.803C149.589 440.84 168.613 411.125 184.681 381.79C187.196 377.228 190.656 373.255 194.83 370.138C199.004 367.021 203.796 364.832 208.885 363.717C227.807 359.508 245.214 350.196 259.216 336.792C273.219 323.387 283.281 306.403 288.311 287.682C293.341 268.962 293.146 249.222 287.748 230.604C282.349 211.987 271.953 195.205 257.689 182.079C253.801 178.526 250.724 174.177 248.667 169.328C246.611 164.479 245.623 159.244 245.772 153.98C246.882 119.293 246.374 79.8855 234.977 76.8317Z" fill="url(#paint1_radial_3460_2019)"/>
<path d="M237.396 67.8051C225.458 64.6063 204.294 100.168 187.128 132.323C184.5 137.19 180.853 141.433 176.436 144.763C172.02 148.093 166.937 150.431 161.534 151.618C141.681 156.068 123.425 165.87 108.748 179.961C94.0709 194.052 83.533 211.893 78.2776 231.549C73.0222 251.205 73.2499 271.925 78.9362 291.46C84.6225 310.995 95.5501 328.601 110.533 342.365C114.573 346.056 117.778 350.566 119.934 355.595C122.09 360.624 123.146 366.055 123.034 371.525C122.217 406.62 123.91 443.634 135.837 446.829C147.764 450.025 167.77 418.826 184.578 388.01C187.223 383.215 190.862 379.041 195.251 375.767C199.64 372.492 204.678 370.194 210.028 369.025C229.891 364.6 248.163 354.819 262.86 340.743C277.557 326.668 288.118 308.835 293.396 289.181C298.673 269.527 298.466 248.802 292.797 229.258C287.128 209.713 276.213 192.095 261.238 178.315C257.155 174.586 253.924 170.021 251.765 164.93C249.605 159.839 248.569 154.343 248.725 148.816C249.88 112.388 249.363 71.0116 237.396 67.8051Z" fill="#151520"/>
<path d="M239.209 61.0415C226.843 57.7282 204.943 94.5578 187.105 127.852C184.381 132.891 180.605 137.284 176.031 140.732C171.457 144.179 166.194 146.601 160.601 147.832C140.034 152.438 121.122 162.59 105.917 177.185C90.7125 191.78 79.7958 210.261 74.3521 230.622C68.9083 250.983 69.1455 272.446 75.0379 292.681C80.9304 312.917 92.2528 331.152 107.776 345.408C111.963 349.227 115.286 353.897 117.523 359.104C119.759 364.312 120.858 369.937 120.744 375.603C119.944 411.96 121.699 450.291 134.025 453.594C146.35 456.897 167.066 424.58 184.511 392.683C187.247 387.721 191.011 383.4 195.551 380.009C200.091 376.619 205.303 374.237 210.838 373.023C231.411 368.44 250.335 358.31 265.557 343.731C280.779 329.153 291.716 310.683 297.182 290.327C302.647 269.971 302.433 248.507 296.56 228.264C290.688 208.022 279.384 189.774 263.873 175.503C259.647 171.64 256.303 166.912 254.069 161.64C251.835 156.368 250.763 150.677 250.927 144.954C252.153 107.214 251.597 64.361 239.209 61.0415Z" fill="#151520"/>
<path d="M241.03 54.2435C228.237 50.8156 205.579 88.9204 187.147 123.363C184.331 128.576 180.424 133.121 175.693 136.688C170.962 140.255 165.518 142.76 159.731 144.032C138.455 148.797 118.891 159.299 103.162 174.398C87.4322 189.496 76.1388 208.614 70.5069 229.677C64.8751 250.74 65.1199 272.944 71.2149 293.877C77.3099 314.811 89.0222 333.676 105.081 348.423C109.412 352.374 112.849 357.204 115.163 362.59C117.477 367.976 118.614 373.794 118.498 379.655C117.641 417.292 119.457 456.947 132.21 460.364C144.963 463.781 166.391 430.355 184.439 397.349C187.268 392.215 191.162 387.745 195.859 384.238C200.555 380.732 205.947 378.269 211.673 377.015C232.954 372.273 252.53 361.792 268.275 346.71C284.02 331.628 295.334 312.522 300.988 291.465C306.642 270.408 306.421 248.204 300.348 227.264C294.275 206.324 282.583 187.447 266.54 172.682C262.175 168.686 258.722 163.796 256.416 158.345C254.111 152.893 253.008 147.009 253.182 141.094C254.413 102.036 253.84 57.6759 241.03 54.2435Z" fill="#151520"/>
<path d="M242.836 47.5018C229.622 43.961 206.203 83.3338 187.157 118.925C184.248 124.312 180.213 129.009 175.325 132.696C170.438 136.383 164.813 138.974 158.834 140.292C136.849 145.216 116.633 156.067 100.379 171.669C84.1257 187.27 72.4559 207.026 66.6365 228.791C60.8172 250.556 61.0705 273.5 67.369 295.131C73.6676 316.762 85.7707 336.255 102.365 351.494C106.841 355.575 110.393 360.565 112.784 366.13C115.176 371.695 116.351 377.706 116.231 383.762C115.331 422.609 117.205 463.598 130.408 467.136C143.611 470.674 165.731 436.126 184.378 402.022C187.302 396.718 191.324 392.1 196.177 388.476C201.029 384.852 206.599 382.306 212.515 381.009C234.507 376.11 254.736 365.281 271.008 349.698C287.28 334.114 298.972 314.37 304.815 292.611C310.658 270.851 310.429 247.907 304.152 226.268C297.876 204.629 285.792 185.123 269.212 169.867C264.693 165.738 261.117 160.683 258.728 155.047C256.338 149.411 255.192 143.327 255.366 137.207C256.673 96.8631 256.074 51.0488 242.836 47.5018Z" fill="#151520"/>
<path d="M244.65 40.7323C231.008 37.0769 206.833 77.725 187.175 114.459C184.171 120.021 180.003 124.87 174.957 128.675C169.91 132.481 164.102 135.154 157.929 136.513C135.233 141.593 114.363 152.793 97.5832 168.898C80.8037 185.002 68.7562 205.395 62.7486 227.863C56.7409 250.33 57.0027 274.015 63.5054 296.344C70.0081 318.674 82.5033 338.796 99.6346 354.525C104.262 358.741 107.934 363.897 110.405 369.648C112.877 375.399 114.09 381.612 113.963 387.87C113.049 427.935 114.974 470.257 128.582 473.903C142.19 477.549 165.041 441.89 184.295 406.685C187.311 401.212 191.46 396.445 196.465 392.703C201.469 388.961 207.215 386.33 213.318 384.986C236.02 379.934 256.904 368.76 273.703 352.676C290.502 336.592 302.575 316.214 308.61 293.754C314.645 271.293 314.413 247.609 307.937 225.271C301.462 202.934 288.992 182.797 271.88 167.046C267.213 162.784 263.521 157.566 261.054 151.748C258.586 145.93 257.403 139.648 257.583 133.331C258.933 91.6853 258.326 44.3968 244.65 40.7323Z" fill="#151520"/>
<path d="M246.463 33.9682C232.394 30.1983 207.464 72.1101 187.186 109.997C184.089 115.733 179.793 120.733 174.589 124.657C169.384 128.581 163.395 131.336 157.029 132.736C133.626 137.977 112.105 149.529 94.803 166.137C77.5008 182.745 65.0781 203.775 58.8831 226.944C52.6881 250.114 52.9575 274.537 59.6622 297.564C66.3669 320.591 79.2506 341.342 96.915 357.564C101.68 361.909 105.463 367.222 108.01 373.146C110.556 379.071 111.808 385.471 111.682 391.919C110.758 433.294 112.741 476.908 126.77 480.667C140.8 484.426 164.371 447.653 184.223 411.356C187.333 405.708 191.615 400.79 196.781 396.932C201.947 393.073 207.878 390.364 214.177 388.985C237.587 383.77 259.122 372.242 276.443 355.653C293.764 339.063 306.21 318.046 312.43 294.882C318.65 271.719 318.406 247.294 311.725 224.259C305.043 201.225 292.18 180.46 274.531 164.22C269.719 159.824 265.912 154.443 263.368 148.443C260.824 142.444 259.604 135.966 259.789 129.451C261.186 86.517 260.555 37.7442 246.463 33.9682Z" fill="#151520"/>
<path opacity="0.8" d="M99.7385 237.093C112.486 189.517 161.388 161.284 208.963 174.032C256.539 186.779 284.772 235.681 272.024 283.256C259.277 330.832 210.375 359.065 162.8 346.317C115.224 333.57 86.9907 284.668 99.7385 237.093Z" fill="#13131E"/>
<path opacity="0.46" d="M120.114 246.754C109.673 285.722 132.798 325.776 171.766 336.217C210.734 346.659 250.788 323.534 261.23 284.566C271.671 245.598 248.546 205.543 209.578 195.102C170.61 184.66 130.556 207.786 120.114 246.754Z" fill="#13131E"/>
<g opacity="0.26">
<path d="M249.815 193.334C249.815 193.334 251.168 198.385 250.66 199.45C250.152 200.515 250.585 202.355 250.585 202.355L249.608 203.367L249.539 203.618L245.051 219.806L242.907 224.337L230.104 220.698C230.104 220.698 229.694 223.28 228.723 224.288C228.535 224.49 227.971 225.096 227.221 225.913C224.252 229.111 218.039 235.694 216.618 235.661C214.837 235.631 205.878 232.838 205.878 232.838L196.886 221.88C196.886 221.88 197.03 213.551 207.096 208.632L206.712 208.431L206.915 205.262L209.756 195.84L215.205 191.246L227.422 195.549L229.334 194.3L235.632 190.185C235.632 190.185 244.612 183.674 249.815 193.334Z" fill="url(#paint2_radial_3460_2019)"/>
<path d="M230.104 220.698L227.205 225.919C224.236 229.116 218.022 235.7 216.602 235.667C214.82 235.637 205.862 232.843 205.862 232.843L196.886 221.88C196.886 221.88 197.03 213.551 207.096 208.632C207.096 208.632 217.113 200.973 223.911 207.63C230.71 214.287 230.104 220.698 230.104 220.698Z" fill="url(#paint3_radial_3460_2019)"/>
<path d="M307.309 207.354L282.863 197.39C278.774 195.723 274.108 197.687 272.441 201.776L258.406 236.21C256.739 240.299 258.703 244.966 262.792 246.633L287.237 256.597C291.327 258.263 295.993 256.3 297.66 252.21L311.695 217.777C313.362 213.687 311.398 209.021 307.309 207.354Z" fill="white"/>
<path d="M311.692 217.78L297.646 252.217C296.844 254.175 295.299 255.735 293.349 256.556C291.399 257.376 289.203 257.39 287.243 256.595L262.799 246.63C261.827 246.234 260.942 245.65 260.195 244.911C259.448 244.173 258.854 243.295 258.447 242.327C258.04 241.359 257.827 240.32 257.822 239.27C257.816 238.22 258.017 237.179 258.414 236.206L272.442 201.778C272.838 200.806 273.422 199.921 274.16 199.174C274.899 198.427 275.777 197.833 276.745 197.425C277.713 197.018 278.751 196.805 279.801 196.799C280.852 196.793 281.893 196.994 282.865 197.39L307.309 207.355C309.272 208.156 310.837 209.705 311.659 211.66C312.481 213.615 312.492 215.816 311.692 217.78Z" fill="#67677B"/>
<path d="M311.692 217.78L297.646 252.217C297.062 253.655 296.071 254.891 294.794 255.773C293.224 256.113 291.588 255.969 290.101 255.361L265.657 245.397C264.685 245 263.8 244.416 263.053 243.678C262.306 242.939 261.712 242.061 261.305 241.093C260.898 240.125 260.685 239.086 260.68 238.036C260.674 236.986 260.875 235.945 261.272 234.973L275.294 200.544C275.878 199.106 276.869 197.87 278.146 196.988C279.716 196.648 281.353 196.791 282.84 197.4L307.283 207.364C309.249 208.161 310.818 209.706 311.644 211.659C312.471 213.612 312.488 215.814 311.692 217.78Z" fill="#1E1E29"/>
<path d="M213.947 236.457C220.238 234.221 223.362 226.845 220.923 219.983C218.484 213.12 211.407 209.37 205.116 211.606C198.824 213.841 195.701 221.217 198.14 228.079C200.579 234.942 207.656 238.692 213.947 236.457Z" fill="#24242F"/>
<path d="M210.834 233.102C215.403 231.478 217.79 226.458 216.167 221.889C214.543 217.32 209.523 214.932 204.954 216.556C200.385 218.18 197.997 223.2 199.621 227.769C201.244 232.338 206.265 234.726 210.834 233.102Z" fill="url(#paint4_radial_3460_2019)"/>
<path d="M209.15 228.365C211.103 227.671 212.124 225.525 211.43 223.572C210.736 221.619 208.59 220.599 206.637 221.293C204.684 221.987 203.663 224.133 204.357 226.086C205.051 228.039 207.197 229.059 209.15 228.365Z" fill="url(#paint5_linear_3460_2019)"/>
<path d="M195.795 193.277C195.795 193.277 198 191.386 199.922 191.811C201.843 192.235 209.756 195.84 209.756 195.84L206.909 205.262L195.423 201.596L193.715 198.012L193.847 194.645L195.795 193.277Z" fill="url(#paint6_radial_3460_2019)"/>
<path d="M247.107 219.967L259.389 224.013L263.656 222.938L266.454 217.74L264.006 213.961L256.239 211.41L254.431 210.061L251.526 209.986L251.755 208.135L251.323 206.297L249.608 203.368C249.608 203.368 243.279 213.585 242.659 215.576C242.038 217.567 241.636 223.905 241.636 223.905L242.899 224.343L246.035 222.576L247.107 219.967Z" fill="url(#paint7_radial_3460_2019)"/>
<path d="M249.815 193.334C249.815 193.334 251.168 198.385 250.66 199.45C250.152 200.515 250.585 202.355 250.585 202.355L249.608 203.367L249.539 203.618L228.222 195.473L229.338 194.296L235.636 190.181C235.636 190.181 244.612 183.674 249.815 193.334Z" fill="url(#paint8_radial_3460_2019)"/>
<path d="M203.159 179.156L187.189 212.735C186.277 214.649 184.642 216.123 182.645 216.833C180.647 217.543 178.449 217.431 176.533 216.522L155.572 206.552C153.657 205.641 152.182 204.007 151.471 202.008C150.761 200.009 150.874 197.811 151.785 195.895L167.755 162.316C168.667 160.402 170.301 158.928 172.299 158.218C174.297 157.508 176.495 157.62 178.41 158.529L199.372 168.499C200.32 168.949 201.171 169.583 201.875 170.362C202.579 171.142 203.122 172.053 203.474 173.043C203.826 174.032 203.979 175.082 203.925 176.131C203.871 177.18 203.611 178.208 203.159 179.156Z" fill="#67677B"/>
<path d="M203.159 179.156L187.189 212.735C186.313 214.581 184.762 216.02 182.856 216.755C181.826 216.696 180.817 216.437 179.886 215.991L158.924 206.021C157.976 205.571 157.125 204.937 156.422 204.158C155.718 203.378 155.175 202.468 154.823 201.478C154.472 200.489 154.318 199.44 154.372 198.391C154.426 197.342 154.686 196.315 155.138 195.366L171.109 161.789C171.984 159.943 173.535 158.504 175.441 157.77C176.472 157.828 177.481 158.088 178.412 158.534L199.373 168.503C200.321 168.954 201.171 169.587 201.875 170.367C202.578 171.146 203.121 172.056 203.473 173.046C203.824 174.035 203.977 175.084 203.924 176.132C203.87 177.18 203.61 178.208 203.159 179.156Z" fill="#1E1E29"/>
</g>
<defs>
<radialGradient id="paint0_radial_3460_2019" cx="0" cy="0" r="1" gradientUnits="userSpaceOnUse" gradientTransform="translate(194.46 299.033) rotate(-25.5653) scale(282.183 129.599)">
<stop stop-color="#A6349B"/>
<stop offset="0.53125" stop-color="white" stop-opacity="0"/>
<stop offset="0.71688" stop-color="#FF85BF" stop-opacity="0.0612578"/>
<stop offset="0.864583" stop-color="#AAFF67" stop-opacity="0.11"/>
<stop offset="1" stop-color="white"/>
</radialGradient>
<radialGradient id="paint1_radial_3460_2019" cx="0" cy="0" r="1" gradientUnits="userSpaceOnUse" gradientTransform="translate(211.968 162.469) rotate(105) scale(258.091 118.534)">
<stop stop-color="#A6349B"/>
<stop offset="0.53125" stop-color="white" stop-opacity="0"/>
<stop offset="0.864583" stop-color="#AAFF67" stop-opacity="0.11"/>
<stop offset="1" stop-color="white"/>
</radialGradient>
<radialGradient id="paint2_radial_3460_2019" cx="0" cy="0" r="1" gradientUnits="userSpaceOnUse" gradientTransform="translate(239.086 205.259) rotate(160.436) scale(41.0457 23.6745)">
<stop stop-color="#A6349B"/>
<stop offset="0.53125" stop-color="white" stop-opacity="0"/>
<stop offset="0.864583" stop-color="#AAFF67" stop-opacity="0.11"/>
<stop offset="1" stop-color="white"/>
</radialGradient>
<radialGradient id="paint3_radial_3460_2019" cx="0" cy="0" r="1" gradientUnits="userSpaceOnUse" gradientTransform="translate(221.918 218.145) rotate(160.436) scale(22.4905 16.5238)">
<stop stop-color="#A6349B"/>
<stop offset="0.53125" stop-color="white" stop-opacity="0"/>
<stop offset="0.864583" stop-color="#AAFF67" stop-opacity="0.11"/>
<stop offset="1" stop-color="white"/>
</radialGradient>
<radialGradient id="paint4_radial_3460_2019" cx="0" cy="0" r="1" gradientUnits="userSpaceOnUse" gradientTransform="translate(212.243 223.291) rotate(160.436) scale(12.1271 9.81229)">
<stop stop-color="#A6349B"/>
<stop offset="0.53125" stop-color="white" stop-opacity="0"/>
<stop offset="0.864583" stop-color="#AAFF67" stop-opacity="0.11"/>
<stop offset="1" stop-color="white"/>
</radialGradient>
<linearGradient id="paint5_linear_3460_2019" x1="203.937" y1="226.235" x2="212.408" y2="223.448" gradientUnits="userSpaceOnUse">
<stop stop-color="#4BF2A2"/>
<stop offset="0.522948" stop-color="#A89FE7"/>
<stop offset="0.669499" stop-color="#E1C4F4"/>
<stop offset="1" stop-color="#DD40CD"/>
</linearGradient>
<radialGradient id="paint6_radial_3460_2019" cx="0" cy="0" r="1" gradientUnits="userSpaceOnUse" gradientTransform="translate(206.278 197.28) rotate(160.436) scale(10.9411 8.64918)">
<stop stop-color="#A6349B"/>
<stop offset="0.53125" stop-color="white" stop-opacity="0"/>
<stop offset="0.864583" stop-color="#AAFF67" stop-opacity="0.11"/>
<stop offset="1" stop-color="white"/>
</radialGradient>
<radialGradient id="paint7_radial_3460_2019" cx="0" cy="0" r="1" gradientUnits="userSpaceOnUse" gradientTransform="translate(258.218 212.599) rotate(160.436) scale(17.5765 12.9334)">
<stop stop-color="#A6349B"/>
<stop offset="0.53125" stop-color="white" stop-opacity="0"/>
<stop offset="0.864583" stop-color="#AAFF67" stop-opacity="0.11"/>
<stop offset="1" stop-color="white"/>
</radialGradient>
<radialGradient id="paint8_radial_3460_2019" cx="0" cy="0" r="1" gradientUnits="userSpaceOnUse" gradientTransform="translate(245.353 195.703) rotate(160.436) scale(14.5464 9.91033)">
<stop stop-color="#A6349B"/>
<stop offset="0.53125" stop-color="white" stop-opacity="0"/>
<stop offset="0.864583" stop-color="#AAFF67" stop-opacity="0.11"/>
<stop offset="1" stop-color="white"/>
</radialGradient>
</defs>
</svg>
