<svg width="189" height="180" viewBox="0 0 189 180" fill="none" xmlns="http://www.w3.org/2000/svg">
  <g opacity="0.26">
    <path d="M109.825 74.2037C109.825 74.2037 111.178 79.2552 110.67 80.3198C110.162 81.3843 110.595 83.2245 110.595 83.2245L109.618 84.2371L109.549 84.4879L105.061 100.676L102.917 105.207L90.1145 101.567C90.1145 101.567 89.7036 104.149 88.7332 105.157C88.5451 105.359 87.9805 105.966 87.2311 106.783C84.2623 109.98 78.0486 116.564 76.6277 116.531C74.8466 116.501 65.8881 113.707 65.8881 113.707L56.8958 102.75C56.8958 102.75 57.04 94.4207 67.1056 89.5022L66.722 89.3005L66.9245 86.1322L69.766 76.7094L75.2155 72.1158L87.4323 76.4186L89.344 75.1699L95.642 71.0547C95.642 71.0547 104.622 64.5436 109.825 74.2037Z" fill="url(#paint0_radial_3382_4738)"/>
    <path d="M90.1147 101.567L87.2152 106.789C84.2463 109.986 78.0326 116.57 76.6117 116.536C74.8306 116.506 65.8721 113.713 65.8721 113.713L56.896 102.75C56.896 102.75 57.0402 94.4207 67.1058 89.5022C67.1058 89.5022 77.1228 81.8425 83.9213 88.4998C90.7198 95.1571 90.1147 101.567 90.1147 101.567Z" fill="url(#paint1_radial_3382_4738)"/>
    <path d="M167.319 88.2237L142.874 78.2596C138.785 76.5928 134.118 78.5566 132.452 82.6459L118.416 117.08C116.75 121.169 118.713 125.835 122.803 127.502L147.248 137.466C151.337 139.133 156.004 137.169 157.671 133.08L171.706 98.6461C173.373 94.5568 171.409 89.8905 167.319 88.2237Z" fill="white"/>
    <path d="M171.702 98.6494L157.656 133.086C156.855 135.044 155.309 136.605 153.359 137.425C151.409 138.246 149.213 138.26 147.253 137.465L122.81 127.5C121.837 127.104 120.952 126.52 120.205 125.781C119.459 125.043 118.865 124.165 118.458 123.197C118.05 122.229 117.838 121.19 117.832 120.14C117.826 119.09 118.027 118.049 118.424 117.076L132.452 82.6481C132.848 81.6756 133.432 80.7906 134.171 80.0437C134.909 79.2968 135.787 78.7026 136.755 78.2952C137.723 77.8877 138.762 77.6749 139.812 77.6689C140.862 77.6629 141.903 77.8639 142.875 78.2603L167.319 88.2247C169.282 89.0262 170.847 90.5746 171.669 92.5295C172.491 94.4844 172.503 96.6857 171.702 98.6494V98.6494Z" fill="#67677B"/>
    <path d="M171.702 98.6494L157.656 133.086C157.073 134.524 156.081 135.761 154.804 136.642C153.234 136.982 151.598 136.839 150.111 136.23L125.667 126.266C124.695 125.87 123.81 125.286 123.063 124.547C122.317 123.809 121.723 122.93 121.316 121.963C120.908 120.995 120.696 119.956 120.69 118.906C120.684 117.856 120.885 116.815 121.282 115.842L135.305 81.4134C135.888 79.9753 136.879 78.7392 138.157 77.8573C139.727 77.5173 141.363 77.661 142.85 78.2692L167.293 88.2336C169.259 89.0304 170.828 90.5753 171.655 92.5285C172.481 94.4818 172.499 96.6835 171.702 98.6494Z" fill="#1E1E2C"/>
    <path d="M73.9572 117.326C80.2485 115.091 83.3716 107.715 80.9329 100.853C78.4941 93.9903 71.4171 90.2396 65.1258 92.4754C58.8345 94.7112 55.7114 102.087 58.1501 108.949C60.5888 115.812 67.6659 119.562 73.9572 117.326Z" fill="#242431"/>
    <path d="M70.8443 113.972C75.4133 112.348 77.8009 107.328 76.1772 102.759C74.5535 98.1897 69.5333 95.8021 64.9643 97.4258C60.3953 99.0495 58.0077 104.07 59.6314 108.639C61.2551 113.208 66.2753 115.595 70.8443 113.972Z" fill="url(#paint2_radial_3382_4738)"/>
    <path d="M69.161 109.235C71.1141 108.541 72.1347 106.395 71.4406 104.442C70.7466 102.489 68.6007 101.468 66.6476 102.162C64.6946 102.857 63.674 105.002 64.368 106.955C65.0621 108.908 67.208 109.929 69.161 109.235Z" fill="url(#paint3_linear_3382_4738)"/>
    <path d="M55.805 74.1472C55.805 74.1472 58.0108 72.2558 59.9322 72.6805C61.8536 73.1052 69.7665 76.7095 69.7665 76.7095L66.9196 86.1316L55.4335 82.466L53.7257 78.8821L53.8577 75.5152L55.805 74.1472Z" fill="url(#paint4_radial_3382_4738)"/>
    <path d="M107.117 100.837L119.399 104.882L123.666 103.808L126.464 98.6096L124.016 94.831L116.249 92.28L114.441 90.931L111.536 90.8558L111.765 89.0041L111.333 87.1662L109.618 84.2371C109.618 84.2371 103.29 94.4546 102.669 96.4457C102.048 98.4369 101.646 104.775 101.646 104.775L102.909 105.213L106.045 103.446L107.117 100.837Z" fill="url(#paint5_radial_3382_4738)"/>
    <path d="M109.825 74.2037C109.825 74.2037 111.178 79.2551 110.67 80.3197C110.162 81.3842 110.595 83.2244 110.595 83.2244L109.619 84.237L109.549 84.4878L88.2322 76.3423L89.348 75.1659L95.646 71.0507C95.646 71.0507 104.622 64.5435 109.825 74.2037Z" fill="url(#paint6_radial_3382_4738)"/>
    <path d="M63.1693 60.0258L47.1988 93.605C46.287 95.5191 44.6526 96.9931 42.6548 97.7031C40.657 98.413 38.459 98.301 36.5438 97.3915L15.5822 87.4221C13.6668 86.5109 12.1918 84.8763 11.4816 82.8777C10.7713 80.8791 10.884 78.6802 11.7948 76.7647L27.7653 43.1855C28.6771 41.2714 30.3114 39.7974 32.3093 39.0874C34.3071 38.3774 36.5051 38.4895 38.4203 39.399L59.3819 49.3684C60.3307 49.8191 61.1814 50.4524 61.8854 51.232C62.5893 52.0116 63.1327 52.9224 63.4844 53.9122C63.8362 54.9019 63.9894 55.9513 63.9353 57.0003C63.8812 58.0494 63.6209 59.0774 63.1693 60.0258V60.0258Z" fill="#67677B"/>
    <path d="M63.1697 60.0259L47.1992 93.605C46.3239 95.451 44.7728 96.8901 42.8666 97.6249C41.8362 97.5661 40.8272 97.3065 39.8964 96.8606L18.9348 86.8912C17.9864 86.4404 17.136 85.8072 16.4323 85.0277C15.7287 84.2482 15.1855 83.3377 14.8339 82.3482C14.4822 81.3587 14.329 80.3096 14.383 79.2609C14.4369 78.2121 14.697 77.1843 15.1483 76.2361L31.1196 42.6592C31.9945 40.813 33.5457 39.3738 35.4522 38.6393C36.4826 38.6983 37.4915 38.9579 38.4224 39.4037L59.3839 49.3731C60.3321 49.8239 61.1821 50.4571 61.8854 51.2365C62.5888 52.0158 63.1318 52.9261 63.4833 53.9153C63.8349 54.9046 63.9881 55.9533 63.9343 57.0018C63.8805 58.0502 63.6207 59.0778 63.1697 60.0259V60.0259Z" fill="#1E1E2C"/>
  </g>
  <defs>
    <radialGradient id="paint0_radial_3382_4738" cx="0" cy="0" r="1" gradientUnits="userSpaceOnUse" gradientTransform="translate(99.0965 86.1289) rotate(160.436) scale(41.0457 23.6745)">
      <stop stop-color="#A6349B"/>
      <stop offset="0.53125" stop-color="white" stop-opacity="0"/>
      <stop offset="0.864583" stop-color="#AAFF67" stop-opacity="0.11"/>
      <stop offset="1" stop-color="white"/>
    </radialGradient>
    <radialGradient id="paint1_radial_3382_4738" cx="0" cy="0" r="1" gradientUnits="userSpaceOnUse" gradientTransform="translate(81.9284 99.0146) rotate(160.436) scale(22.4905 16.5238)">
      <stop stop-color="#A6349B"/>
      <stop offset="0.53125" stop-color="white" stop-opacity="0"/>
      <stop offset="0.864583" stop-color="#AAFF67" stop-opacity="0.11"/>
      <stop offset="1" stop-color="white"/>
    </radialGradient>
    <radialGradient id="paint2_radial_3382_4738" cx="0" cy="0" r="1" gradientUnits="userSpaceOnUse" gradientTransform="translate(72.2535 104.161) rotate(160.436) scale(12.1271 9.81229)">
      <stop stop-color="#A6349B"/>
      <stop offset="0.53125" stop-color="white" stop-opacity="0"/>
      <stop offset="0.864583" stop-color="#AAFF67" stop-opacity="0.11"/>
      <stop offset="1" stop-color="white"/>
    </radialGradient>
    <linearGradient id="paint3_linear_3382_4738" x1="63.9476" y1="107.105" x2="72.4182" y2="104.318" gradientUnits="userSpaceOnUse">
      <stop stop-color="#4BF2A2"/>
      <stop offset="0.522948" stop-color="#A89FE7"/>
      <stop offset="0.669499" stop-color="#E1C4F4"/>
      <stop offset="1" stop-color="#DD40CD"/>
    </linearGradient>
    <radialGradient id="paint4_radial_3382_4738" cx="0" cy="0" r="1" gradientUnits="userSpaceOnUse" gradientTransform="translate(66.2888 78.1494) rotate(160.436) scale(10.9411 8.64918)">
      <stop stop-color="#A6349B"/>
      <stop offset="0.53125" stop-color="white" stop-opacity="0"/>
      <stop offset="0.864583" stop-color="#AAFF67" stop-opacity="0.11"/>
      <stop offset="1" stop-color="white"/>
    </radialGradient>
    <radialGradient id="paint5_radial_3382_4738" cx="0" cy="0" r="1" gradientUnits="userSpaceOnUse" gradientTransform="translate(118.228 93.469) rotate(160.436) scale(17.5765 12.9334)">
      <stop stop-color="#A6349B"/>
      <stop offset="0.53125" stop-color="white" stop-opacity="0"/>
      <stop offset="0.864583" stop-color="#AAFF67" stop-opacity="0.11"/>
      <stop offset="1" stop-color="white"/>
    </radialGradient>
    <radialGradient id="paint6_radial_3382_4738" cx="0" cy="0" r="1" gradientUnits="userSpaceOnUse" gradientTransform="translate(105.363 76.5725) rotate(160.436) scale(14.5464 9.91033)">
      <stop stop-color="#A6349B"/>
      <stop offset="0.53125" stop-color="white" stop-opacity="0"/>
      <stop offset="0.864583" stop-color="#AAFF67" stop-opacity="0.11"/>
      <stop offset="1" stop-color="white"/>
    </radialGradient>
  </defs>
</svg>
