<svg width="24" height="24" viewBox="0 0 24 24" fill="none" xmlns="http://www.w3.org/2000/svg">
<g clip-path="url(#clip0_4655_5044)">
<path d="M14.3929 10.9962L16.1554 8.00571L20.906 15.4049L20.9082 16.8244L20.8926 7.05324C20.8871 6.93538 20.8533 6.82058 20.794 6.71854C20.7348 6.61649 20.6519 6.5302 20.5523 6.46694L11.9995 1.54757C11.8973 1.49902 11.7855 1.47408 11.6724 1.47462C11.5593 1.47515 11.4477 1.50114 11.346 1.55065C11.3196 1.56388 11.294 1.57867 11.2694 1.59495L11.2396 1.61376L2.93759 6.42453L2.90527 6.43907C2.86224 6.45899 2.82118 6.48293 2.78264 6.51056C2.62694 6.62174 2.52083 6.78935 2.48692 6.97764C2.48173 7.00621 2.47819 7.03505 2.47632 7.06401L2.48932 15.0265L6.91424 8.16819C7.47129 7.25882 8.6851 6.96584 9.81185 6.98175L11.1343 7.01595L3.34208 19.5122L4.26069 20.041L12.1463 7.02844L15.6317 7.01578L7.76649 20.3562L11.0445 22.2427L11.4361 22.4679C11.6051 22.5351 11.7926 22.5388 11.9641 22.4784L20.6371 17.4523L18.9781 18.4131L14.3929 10.9962ZM15.0654 20.6812L11.7549 15.4854L13.7757 12.0564L18.1233 18.909L15.0654 20.6812Z" fill="#2D374B"/>
<path d="M11.755 15.4856L15.0655 20.6812L18.1235 18.909L13.7761 12.0566L11.755 15.4856Z" fill="#28A0F0"/>
<path d="M20.9085 16.8246L20.9063 15.405L16.1557 8.00586L14.3922 10.996L18.9782 18.4129L20.6372 17.4521C20.7176 17.387 20.7833 17.3057 20.83 17.2135C20.8768 17.1212 20.9036 17.0202 20.9087 16.9169L20.9085 16.8246Z" fill="#28A0F0"/>
<path d="M1.00098 18.1632L3.34257 19.5125L11.1348 7.01626L9.81234 6.98205C8.68558 6.96615 7.47177 7.25895 6.91472 8.1685L2.4898 15.0269L1.00183 17.3141V18.1639L1.00098 18.1632Z" fill="white"/>
<path d="M15.632 7.0166L12.1467 7.02926L4.26111 20.0418L7.01728 21.6288L7.76674 20.3576L15.632 7.0166Z" fill="white"/>
<path d="M22.3767 6.99858C22.3607 6.6389 22.2575 6.28849 22.076 5.97757C21.8944 5.66665 21.64 5.40455 21.3346 5.21387L12.6698 0.231045C12.3605 0.0790407 12.0204 0 11.6758 0C11.3311 0 10.9911 0.0790407 10.6817 0.231045C10.6094 0.267475 2.25537 5.11262 2.25537 5.11262C2.1393 5.16835 2.02828 5.23404 1.92357 5.30896C1.65231 5.50186 1.42829 5.75372 1.26832 6.04562C1.10836 6.33752 1.01663 6.66187 1 6.99431V17.314L2.48797 15.0268L2.47651 7.0646C2.48347 6.95544 2.51456 6.84918 2.56753 6.75348C2.62049 6.65777 2.69403 6.57501 2.78283 6.51114C2.82217 6.48292 11.3188 1.56475 11.3459 1.55124C11.4476 1.50172 11.5591 1.47574 11.6723 1.47521C11.7854 1.47467 11.8972 1.49961 11.9994 1.54816L20.5521 6.46787C20.6517 6.53113 20.7346 6.61742 20.7939 6.71946C20.8531 6.82151 20.8869 6.93631 20.8925 7.05417V16.9179C20.8904 17.0201 20.8665 17.1208 20.8224 17.2131C20.7783 17.3054 20.715 17.3872 20.6368 17.453L18.9778 18.4139L18.1226 18.9099L15.0646 20.6821L11.9633 22.4795C11.7918 22.54 11.6042 22.5363 11.4353 22.469L7.76617 20.3587L7.01671 21.6298L10.3142 23.5282C10.4233 23.5902 10.5205 23.6452 10.6002 23.69C10.7236 23.7584 10.8078 23.8055 10.8374 23.8199C11.1133 23.9407 11.4115 24.0021 11.7127 23.9999C11.9889 24.0003 12.2628 23.9488 12.52 23.8481L21.5277 18.6316C21.7818 18.4339 21.9895 18.1829 22.1361 17.8963C22.2828 17.6097 22.3648 17.2944 22.3763 16.9726L22.3767 6.99858Z" fill="#96BEDC"/>
</g>
<defs>
<clipPath id="clip0_4655_5044">
<rect width="24" height="24" fill="white"/>
</clipPath>
</defs>
</svg>
