<svg width="46" height="52" viewBox="0 0 46 52" fill="none" xmlns="http://www.w3.org/2000/svg">
<path d="M21.1261 1.00408C22.2857 0.331974 23.7143 0.331974 24.8739 1.00408L43.6246 11.8713C44.7845 12.5435 45.5 13.7865 45.5 15.1328V36.8672C45.5 38.2135 44.7845 39.4565 43.6246 40.1287L24.8739 50.9959C23.7143 51.668 22.2857 51.668 21.1261 50.9959L2.37537 40.1287C1.21547 39.4565 0.5 38.2135 0.5 36.8672V15.1328C0.5 13.7865 1.21547 12.5435 2.37537 11.8713L21.1261 1.00408Z" fill="#212130" stroke="#4C4C5C"/>
<mask id="mask0_4655_4978" style="mask-type:alpha" maskUnits="userSpaceOnUse" x="0" y="0" width="47" height="51">
<path d="M21.1226 0.995174C22.2841 0.334942 23.7162 0.334942 24.8777 0.995174L43.6284 11.6534C44.7891 12.3132 45.5001 13.5296 45.5001 14.8418V36.1582C45.5001 37.4704 44.7891 38.6868 43.6284 39.3466L24.8777 50.0048C23.7162 50.6651 22.2841 50.6651 21.1226 50.0048L2.37185 39.3466C1.21116 38.6868 0.500122 37.4704 0.500122 36.1582V14.8418C0.500122 13.5296 1.21116 12.3132 2.37185 11.6534L21.1226 0.995174Z" fill="#212130" stroke="#67677B"/>
</mask>
<g mask="url(#mask0_4655_4978)">
<path d="M7.21977 40.5861L5.76274 59.2008C5.41791 63.6063 8.70622 67.4576 13.1074 67.8027L27.5626 68.9364C31.9637 69.2816 35.8111 65.99 36.156 61.5845L37.613 42.9697C37.9578 38.5642 34.6695 34.713 30.2683 34.3678L15.8132 33.2341C11.412 32.8889 7.56461 36.1805 7.21977 40.5861Z" fill="#4C4C5C" stroke="#212130" stroke-miterlimit="10"/>
<path d="M5.46151 70.1633C5.88609 67.432 6.38002 64.6312 6.94612 61.7384C7.54337 58.6939 7.68773 57.9913 8.38546 55.1692L8.39395 55.1565C3.8481 54.9553 -0.0976805 53.4565 -0.694925 51.1686C-1.42096 48.3919 2.61539 43.6786 10.2932 41.5352C22.9458 50.1769 34.6359 43.3896 34.6359 43.3896L46.5129 44.2934C48.657 44.4521 49.0604 47.9003 49.6873 49.9601C49.8468 50.4974 49.9143 51.0578 49.8869 51.6176C49.873 51.9036 49.8356 52.1879 49.7751 52.4676C49.2302 54.9497 48.3598 54.6677 45.8265 54.4751C42.0741 55.5491 38.1155 55.6834 34.2991 54.8661C34.5284 58.8073 34.8128 61.9381 34.8921 63.862" fill="#4C4C5C"/>
<path d="M34.6386 43.3902C34.6386 43.3902 22.9499 50.1718 10.296 41.5358C11.3782 40.6753 12.6334 40.0592 13.9757 39.7295C16.0994 42.1883 19.1085 43.7067 22.3463 43.9532C25.5842 44.1998 28.788 43.1545 31.259 41.0456C32.5418 41.573 33.6949 42.373 34.6386 43.3902Z" fill="#4C4C5C" stroke="#212130" stroke-miterlimit="10"/>
<path d="M22.3541 43.9562C19.117 43.7081 16.1089 42.1903 13.9842 39.7331C14.9655 39.4926 15.9785 39.4085 16.986 39.4837L28.3506 40.3451C29.3576 40.4221 30.3463 40.6573 31.2802 41.0421C28.8084 43.1519 25.603 44.1969 22.364 43.9491L22.3541 43.9562Z" fill="#4C4C5C" stroke="#212130" stroke-width="2" stroke-miterlimit="10"/>
<path d="M38.8689 28.3649C38.6212 31.6233 36.9781 36.1354 34.5028 38.2618L31.3015 41.0144L31.2675 41.0427C28.7963 43.151 25.5926 44.1958 22.355 43.9492C19.1173 43.7027 16.1084 42.1848 13.9842 39.7267L13.9545 39.6941L11.206 36.4881C10.1432 35.2485 9.37608 33.4522 8.90763 31.5581C8.45141 29.7556 8.27574 27.8934 8.3868 26.0373C8.57955 24.4383 9.01479 22.8781 9.67753 21.4105C12.7274 14.7011 19.4698 12.6752 20.0218 12.5208C21.5713 12.0857 23.1784 11.8907 24.787 11.9428C26.3847 12.1342 27.9436 12.57 29.4092 13.2348C29.9329 13.4728 36.2917 16.4932 38.2915 23.5893C38.7269 25.1422 38.9216 26.7529 38.8689 28.3649Z" fill="#4C4C5C" stroke="#212130" stroke-miterlimit="10"/>
<path d="M37.639 27.7376C37.6603 26.5678 37.4565 25.4048 37.0389 24.312C35.0986 19.2007 29.2309 16.9453 28.7483 16.7597C27.3784 16.2582 25.9526 15.9252 24.5025 15.7681C23.0429 15.7043 21.5809 15.819 20.1491 16.1095C19.6452 16.2129 13.4973 17.5587 10.8083 22.3188C10.2306 23.3353 9.85341 24.4535 9.69731 25.6125C9.5204 27.9401 10.4545 31.3288 12.4373 33.1365L15.0046 35.4698C16.986 37.276 19.7769 38.4193 22.7588 38.646C25.7408 38.874 28.6704 38.1671 30.9051 36.681L33.7951 34.7586C36.027 33.2725 37.4621 30.0637 37.639 27.7376Z" fill="#212130" stroke="#212130" stroke-miterlimit="10"/>
<path d="M31.2596 21.3313C30.7171 20.3637 35.2878 24.3573 35.098 28.1724C34.9082 31.9875 32.3511 32.9664 32.3511 32.9664C32.3511 32.9664 35.8692 29.5395 31.2596 21.3313Z" fill="#303043"/>
<path d="M-2.22772 56.8313C-1.22713 42.9607 10.2974 41.5312 10.2974 41.5312C22.95 50.173 34.6401 43.3857 34.6401 43.3857C34.6401 43.3857 42.3788 42.6943 44.5229 51.4451C46.6671 60.1959 44.1932 65.6431 44.1932 65.6431L29.6796 64.4871L24.0949 55.579L33.1427 50.785L35.7822 57.3881L37.7112 53.8039" stroke="#212130" stroke-miterlimit="10"/>
<path d="M5.47984 46.7906C6.06033 47.6197 6.36309 48.6117 6.34457 49.6239C6.33042 50.3181 6.09265 51.2843 5.29303 51.4288C4.95761 51.4897 5.10055 51.9955 5.43455 51.9416C6.40543 51.7645 6.81727 50.6765 6.86822 49.8039C6.92919 48.6382 6.60217 47.4853 5.93839 46.5257C5.7445 46.2423 5.28454 46.5115 5.47984 46.7934L5.47984 46.7906Z" fill="#212130"/>
<path d="M6.83419 49.271C7.83512 49.1143 8.78473 48.7225 9.6053 48.1277C9.66466 48.0907 9.70758 48.0324 9.72522 47.9646C9.74286 47.8969 9.73388 47.825 9.70012 47.7637C9.66415 47.7031 9.6058 47.6592 9.53772 47.6415C9.46964 47.6237 9.39731 47.6335 9.3364 47.6687C8.55408 48.2371 7.64788 48.6111 6.69267 48.7596C6.6253 48.7788 6.56814 48.8237 6.53347 48.8846C6.4988 48.9455 6.48939 49.0176 6.50727 49.0854C6.52768 49.1524 6.57296 49.2089 6.63378 49.2434C6.6946 49.278 6.76633 49.2878 6.83419 49.271Z" fill="#212130"/>
</g>
</svg>
