<svg width="24" height="24" viewBox="0 0 24 24" fill="none" xmlns="http://www.w3.org/2000/svg">
<g filter="url(#filter0_i_4655_5037)">
<path d="M12 24C18.6274 24 24 18.6274 24 12C24 5.37258 18.6274 0 12 0C5.37258 0 0 5.37258 0 12C0 18.6274 5.37258 24 12 24Z" fill="url(#paint0_linear_4655_5037)"/>
</g>
<path fill-rule="evenodd" clip-rule="evenodd" d="M13.1392 5.07713C13.4046 4.86595 13.7338 4.75098 14.073 4.75098H15.635C16.625 4.75098 17.3435 5.69301 17.0816 6.64771L16.7245 7.94982L18.9813 11.7242C19.1771 12.0517 19.2408 12.4415 19.1593 12.8143L18.7373 14.7443C18.6155 15.3019 18.1877 15.7419 17.6339 15.8796L16.0077 16.2839L16.0066 16.2842C16.0078 16.2839 16.0081 16.2837 16.0077 16.2839C16.0063 16.2845 15.9965 16.289 15.9833 16.3052C13.7551 19.0508 9.95271 19.7194 7.96448 19.7498C7.36112 19.7591 6.84442 19.3916 6.61928 18.871C4.80098 14.6663 5.02452 11.8833 5.66112 10.5432C5.68954 10.4834 5.70277 10.4337 5.70686 10.3993C5.70949 10.3772 5.7079 10.3662 5.70731 10.3633L5.70767 10.3643C5.70748 10.3638 5.70735 10.3634 5.70726 10.3631C5.70717 10.3627 5.70712 10.3625 5.70711 10.3625M5.70726 10.3631C5.70728 10.3632 5.70729 10.3632 5.70731 10.3633L5.22046 9.04923C5.0001 8.45444 5.17768 7.78534 5.66398 7.3781L7.27198 6.03153C7.54196 5.80544 7.88288 5.68155 8.23503 5.68155L12.3794 5.68155L13.1392 5.07713M15.635 6.25098H14.073L13.3133 6.8554C13.0478 7.06658 12.7186 7.18155 12.3794 7.18155H8.23503L6.62703 8.52812L7.11424 9.84318C7.30162 10.349 7.17863 10.8445 7.01601 11.1869C6.63703 11.9846 6.27174 14.2744 7.98468 18.2492C9.8263 18.2119 13.0263 17.5685 14.8186 15.36C15.0199 15.1119 15.3033 14.9134 15.6447 14.8285L17.272 14.4239L17.6939 12.4939L15.4371 8.71959C15.2273 8.36869 15.1698 7.94736 15.2779 7.55309L15.635 6.25098ZM16.3583 6.44934L15.635 6.25098L16.3583 6.44934Z" fill="white"/>
<defs>
<filter id="filter0_i_4655_5037" x="-4.09414" y="0" width="28.0941" height="24" filterUnits="userSpaceOnUse" color-interpolation-filters="sRGB">
<feFlood flood-opacity="0" result="BackgroundImageFix"/>
<feBlend mode="normal" in="SourceGraphic" in2="BackgroundImageFix" result="shape"/>
<feColorMatrix in="SourceAlpha" type="matrix" values="0 0 0 0 0 0 0 0 0 0 0 0 0 0 0 0 0 0 127 0" result="hardAlpha"/>
<feOffset dx="-6.1412"/>
<feGaussianBlur stdDeviation="2.04707"/>
<feComposite in2="hardAlpha" operator="arithmetic" k2="-1" k3="1"/>
<feColorMatrix type="matrix" values="0 0 0 0 0.682353 0 0 0 0 0.45098 0 0 0 0 0.980392 0 0 0 0.56 0"/>
<feBlend mode="normal" in2="shape" result="effect1_innerShadow_4655_5037"/>
</filter>
<linearGradient id="paint0_linear_4655_5037" x1="0" y1="12" x2="24" y2="12" gradientUnits="userSpaceOnUse">
<stop stop-color="#AE73FA"/>
<stop offset="1" stop-color="#AE73FA" stop-opacity="0"/>
</linearGradient>
</defs>
</svg>
