<svg width="500" height="255" viewBox="0 0 500 255" fill="none" xmlns="http://www.w3.org/2000/svg">
<g opacity="0.3">
<rect x="194" y="9.99994" width="111" height="186" rx="42.575" fill="#10101B"/>
<g filter="url(#filter0_f_9667_23410)">
<ellipse cx="275.152" cy="42.7963" rx="1.08141" ry="0.780741" fill="white"/>
</g>
<g filter="url(#filter1_f_9667_23410)">
<ellipse cx="231.897" cy="29.519" rx="1.08141" ry="0.780741" fill="white"/>
</g>
<g filter="url(#filter2_f_9667_23410)">
<ellipse cx="223.245" cy="55.2807" rx="1.08141" ry="0.780741" fill="white"/>
</g>
<g filter="url(#filter3_f_9667_23410)">
<ellipse cx="249.199" cy="53.724" rx="1.08141" ry="0.780741" fill="white"/>
</g>
<g filter="url(#filter4_f_9667_23410)">
<ellipse cx="278.401" cy="66.9897" rx="1.08141" ry="0.780741" fill="white"/>
</g>
<g filter="url(#filter5_f_9667_23410)">
<ellipse cx="267.582" cy="23.2748" rx="1.08141" ry="0.780741" fill="white"/>
</g>
<g filter="url(#filter6_f_9667_23410)">
<ellipse cx="220.004" cy="112.279" rx="1.08141" ry="0.780741" fill="white"/>
</g>
<g filter="url(#filter7_f_9667_23410)">
<ellipse cx="281.642" cy="132.578" rx="1.08141" ry="0.780741" fill="white"/>
</g>
<g filter="url(#filter8_f_9667_23410)">
<ellipse cx="250.283" cy="138.04" rx="1.08141" ry="0.780741" fill="white"/>
</g>
<g filter="url(#filter9_f_9667_23410)">
<ellipse cx="220.004" cy="162.247" rx="1.08141" ry="0.780741" fill="white"/>
</g>
<g filter="url(#filter10_f_9667_23410)">
<ellipse cx="218.922" cy="141.169" rx="1.08141" ry="0.780741" fill="white"/>
</g>
<g filter="url(#filter11_f_9667_23410)">
<ellipse cx="265.422" cy="153.665" rx="1.08141" ry="0.780741" fill="white"/>
</g>
<g filter="url(#filter12_f_9667_23410)">
<ellipse cx="268.593" cy="114.115" rx="1.08141" ry="0.780741" fill="white"/>
</g>
<g filter="url(#filter13_f_9667_23410)">
<ellipse cx="225.681" cy="79.6693" rx="1.08141" ry="0.780741" fill="white"/>
</g>
<g filter="url(#filter14_f_9667_23410)">
<ellipse cx="280.513" cy="88.2787" rx="1.08141" ry="0.780741" fill="white"/>
</g>
<g filter="url(#filter15_f_9667_23410)">
<ellipse cx="244.752" cy="96.892" rx="1.08141" ry="0.780741" fill="white"/>
</g>
<g filter="url(#filter16_f_9667_23410)">
<ellipse cx="260.015" cy="172.394" rx="1.08141" ry="0.780741" fill="white"/>
</g>
<rect opacity="0.7" x="194" y="9.99994" width="111" height="186" rx="42.575" fill="url(#paint0_linear_9667_23410)"/>
<rect x="205.443" y="17.4374" width="88.1134" height="170.293" rx="42.575" fill="url(#paint1_linear_9667_23410)"/>
<rect opacity="0.3" x="198.389" y="14.3891" width="102.222" height="177.222" rx="38.1858" stroke="url(#paint2_linear_9667_23410)" stroke-width="8.77835"/>
</g>
<path d="M351.909 161.648V137.678L436.764 3.63635H455.652V38.9204H443.667L382.975 134.993V136.527H499.278V161.648H351.909ZM445.009 200V154.361L445.201 143.43V3.63635H473.294V200H445.009Z" fill="url(#paint3_linear_9667_23410)"/>
<path d="M250.108 203.26C234.959 203.196 222.015 199.201 211.276 191.275C200.538 183.349 192.324 171.811 186.635 156.662C180.946 141.513 178.102 123.263 178.102 101.914C178.102 80.6285 180.946 62.4431 186.635 47.3579C192.388 32.2727 200.634 20.767 211.372 12.8409C222.175 4.91473 235.087 0.95166 250.108 0.95166C265.129 0.95166 278.009 4.94668 288.748 12.9367C299.487 20.8629 307.7 32.3686 313.389 47.4538C319.142 62.4751 322.018 80.6285 322.018 101.914C322.018 123.327 319.174 141.609 313.485 156.758C307.796 171.843 299.582 183.381 288.844 191.371C278.105 199.297 265.193 203.26 250.108 203.26ZM250.108 177.66C263.403 177.66 273.79 171.172 281.269 158.196C288.812 145.22 292.583 126.459 292.583 101.914C292.583 85.6143 290.857 71.8394 287.406 60.5894C284.018 49.2755 279.128 40.7102 272.736 34.8934C266.408 29.0127 258.865 26.0724 250.108 26.0724C236.876 26.0724 226.489 32.5923 218.947 45.632C211.404 58.6718 207.601 77.4325 207.537 101.914C207.537 118.278 209.231 132.116 212.619 143.43C216.07 154.68 220.96 163.214 227.288 169.03C233.616 174.783 241.223 177.66 250.108 177.66Z" fill="url(#paint4_linear_9667_23410)"/>
<path d="M0.961914 161.648V137.678L85.8163 3.63635H104.705V38.9204H92.7197L32.0273 134.993V136.527H148.331V161.648H0.961914ZM94.0621 200V154.361L94.2538 143.43V3.63635H122.347V200H94.0621Z" fill="url(#paint5_linear_9667_23410)"/>
<g clip-path="url(#clip0_9667_23410)">
<g clip-path="url(#clip1_9667_23410)">
<path d="M257.016 105.964L224.772 115.233C214.955 118.055 209.286 128.279 212.11 138.069L224.043 179.436C226.868 189.226 237.116 194.875 246.933 192.053L279.177 182.784C288.994 179.962 294.663 169.738 291.839 159.947L279.905 118.581C277.081 108.791 266.833 103.142 257.016 105.964Z" fill="#242431"/>
<path d="M254.388 107.561L225.32 115.917C215.502 118.74 209.833 128.964 212.658 138.754L223.553 176.52C226.377 186.311 236.625 191.96 246.442 189.138L275.511 180.781C285.328 177.959 290.997 167.735 288.172 157.944L277.277 120.178C274.453 110.388 264.206 104.739 254.388 107.561Z" fill="#4C4C5C"/>
<g clip-path="url(#clip2_9667_23410)">
<path d="M249.392 0.740797C264.541 0.804716 277.485 4.79974 288.224 12.7259C298.962 20.652 307.176 32.1897 312.865 47.3388C318.554 62.488 321.399 80.7372 321.399 102.087C321.399 123.372 318.554 141.558 312.865 156.643C307.112 171.728 298.867 183.234 288.128 191.16C277.325 199.086 264.413 203.049 249.392 203.049C234.371 203.049 221.491 199.054 210.752 191.064C200.014 183.138 191.8 171.632 186.111 156.547C180.358 141.526 177.482 123.372 177.482 102.087C177.482 80.6733 180.326 62.3921 186.015 47.2429C191.704 32.1577 199.918 20.6201 210.656 12.63C221.395 4.70387 234.307 0.740798 249.392 0.740797ZM249.392 26.3409C236.097 26.3409 225.71 32.8289 218.231 45.8047C210.688 58.7806 206.917 77.5412 206.917 102.087C206.917 118.386 208.643 132.161 212.095 143.411C215.482 154.725 220.372 163.291 226.764 169.107C233.092 174.988 240.635 177.928 249.392 177.928C262.624 177.928 273.011 171.408 280.553 158.369C288.096 145.329 291.899 126.568 291.963 102.087C291.963 85.723 290.269 71.8843 286.881 60.5703C283.43 49.3203 278.54 40.787 272.212 34.9702C265.884 29.2174 258.277 26.3409 249.392 26.3409Z" fill="url(#paint6_linear_9667_23410)"/>
</g>
<path d="M202.633 175.312C196.557 172.918 192.283 170.267 188.346 166.989C186.155 165.165 184.991 162.34 185.451 159.527C186.195 154.978 187.722 152.475 190.354 150.12C191.787 148.837 193.677 148.188 195.6 148.175C199.043 148.152 200.889 148.537 203.102 149.445C205.699 142.11 209.295 138.654 217.784 134.625L271.835 118.889C282.72 118.171 288.734 119.349 292.932 123.292C298.76 119.817 302.604 117.772 305.139 116.592C308.149 115.19 311.472 116.766 313.843 119.09L316.972 122.155C319.277 124.413 320.332 127.694 319.084 130.67C317.31 134.905 313.724 140.958 306.846 144.972L306.646 145.084C302.126 147.613 301.939 147.718 298.291 147.462L280.473 144.214C293.551 174.218 304.207 206.903 304.207 206.903C305.198 208.619 302.955 219.925 297.218 222.014C288.955 223.451 284.372 220.268 282.206 213.917L275.59 191.191C273.892 185.358 271.16 186.348 262.339 189.144L262.117 189.209C254.955 191.333 251.079 192.482 252.647 197.871C254.232 203.315 257.985 216.169 259.1 220.035C260.215 223.901 258.048 233.726 251.997 234.758C245.947 235.789 239.877 236.221 238.373 235.772C232.461 232.853 233.055 228.759 234.947 218.209C228.626 198.644 226.741 184.989 223.862 159.851C220.349 164.733 215.79 169.794 211.965 172.595C208.141 175.396 206.596 175.665 202.633 175.312Z" fill="#B5B5C6"/>
<path fill-rule="evenodd" clip-rule="evenodd" d="M271.792 186.947C271.485 186.917 271.157 186.915 270.805 186.936C271.182 186.095 271.401 185.897 271.792 186.947ZM284.07 217.739C286.643 221.478 290.831 223.127 297.218 222.017C302.955 219.927 305.198 208.621 304.207 206.906C304.207 206.906 293.55 174.221 280.473 144.216L298.178 147.076C298.471 147.097 298.743 147.117 298.996 147.137C301.946 147.361 302.504 147.403 306.846 144.974C314.975 140.23 318.232 133.135 319.447 129.357C319.983 127.69 319.756 125.916 319.094 124.295L318.71 123.357C318.564 124.107 318.305 124.844 317.925 125.55C315.297 130.434 310.501 137.607 303.381 141.763L303.181 141.875C298.66 144.404 298.473 144.509 294.826 144.253L277.007 141.005C290.085 171.009 300.742 203.694 300.742 203.694C301.733 205.41 299.49 216.715 293.752 218.805C289.682 219.513 286.505 219.099 284.07 217.739Z" fill="#67677B"/>
<path d="M271.864 119.07C271.864 119.07 251.977 143.139 217.58 134.674C219.236 131.94 221.466 129.595 224.118 127.802C230.706 131.402 238.455 132.257 245.676 130.181C252.897 128.105 259.004 123.267 262.666 116.721C265.866 116.832 269.004 117.633 271.864 119.07Z" fill="#B5B5C6" stroke="#242431" stroke-width="0.891692" stroke-miterlimit="10"/>
<path d="M245.675 130.18C238.458 132.26 230.711 131.411 224.122 127.818C226.057 126.513 228.186 125.521 230.432 124.879L255.78 117.592C258.023 116.944 260.355 116.653 262.689 116.731C259.028 123.277 252.92 128.116 245.699 130.19L245.675 130.18Z" fill="#B5B5C6" stroke="#242431" stroke-width="0.891692" stroke-miterlimit="10"/>
<path d="M267.167 80.862C269.809 87.9128 270.741 98.9503 267.609 105.805L263.569 114.669L263.527 114.762C260.383 121.572 254.67 126.87 247.632 129.5C240.595 132.13 232.803 131.88 225.956 128.804L225.863 128.762L216.98 124.727C213.546 123.168 210.189 120.155 207.365 116.649C204.661 113.325 202.487 109.606 200.919 105.622C199.768 102.09 199.167 98.403 199.137 94.6888C199.026 77.6919 211.217 66.9038 212.227 66.0419C213.786 64.7082 215.457 63.5097 217.221 62.4594C218.652 61.609 220.139 60.8554 221.67 60.2039C225.212 59.0521 228.908 58.4492 232.632 58.4157C233.96 58.4041 250.247 58.5487 261.334 71.4436C263.751 74.2664 265.718 77.4429 267.167 80.862Z" fill="#B5B5C6" stroke="#242431" stroke-width="0.891692" stroke-miterlimit="10"/>
<path d="M263.975 80.7431C262.885 78.275 261.328 76.0401 259.39 74.1605C250.351 65.3542 235.824 66.3305 234.651 66.4201C231.282 66.6994 227.959 67.3874 224.756 68.4687C221.627 69.7533 218.666 71.4138 215.939 73.4134C214.983 74.1195 203.406 82.8992 202.368 95.4718C202.141 98.1608 202.435 100.867 203.232 103.445C205.121 108.486 210.374 114.666 216.292 116.516L223.949 118.913C229.868 120.767 236.834 120.448 243.316 118.025C249.797 115.603 255.264 111.276 258.511 105.996L262.712 99.1671C265.966 93.8884 265.864 85.7841 263.975 80.7431Z" fill="#504C57" stroke="#242431" stroke-width="0.891692" stroke-miterlimit="10"/>
<path d="M262.811 83.5386C261.977 81.1715 260.694 78.9867 259.033 77.103C251.283 68.2811 237.746 68.1311 236.636 68.1343C233.49 68.1509 230.359 68.5489 227.309 69.32C224.316 70.286 221.451 71.6117 218.779 73.2676C217.84 73.8535 206.453 81.168 204.594 92.7521C204.19 95.2305 204.267 97.7631 204.82 100.212C206.209 105.027 210.637 111.136 215.994 113.284L222.927 116.049C228.286 118.204 234.769 118.406 240.956 116.628C247.144 114.849 252.529 111.231 255.924 106.567L260.321 100.545C263.709 95.8766 264.2 88.3531 262.811 83.5386Z" fill="#10101B"/>
<path d="M241.356 171.591C239.941 170.462 238.797 169.031 238.008 167.404L236.183 161.08C235.932 159.619 235.851 157.634 236.788 155.757C238.338 152.646 241.372 152.461 251.239 149.471C255.897 148.058 263.971 145.447 266.829 147.121C267.798 147.703 268.637 148.478 269.295 149.396C269.687 149.984 269.987 150.627 270.186 151.305L272.011 157.629C272.209 159.425 272.004 161.244 271.409 162.951C267.816 172.886 249.676 178.101 241.356 171.591Z" fill="#67677B" stroke="#242431" stroke-width="0.504651" stroke-miterlimit="10"/>
<path d="M243.372 170.06C242.169 169.101 241.198 167.885 240.529 166.502L238.979 161.129C238.765 159.889 238.694 158.203 239.491 156.608C240.808 153.966 243.383 153.807 251.767 151.267C255.727 150.068 262.582 147.853 265.012 149.271C265.837 149.765 266.55 150.424 267.108 151.205C267.437 151.705 267.689 152.253 267.855 152.829L269.405 158.202C269.573 159.728 269.398 161.272 268.893 162.723C265.844 171.162 250.422 175.596 243.372 170.06Z" stroke="#242431" stroke-width="0.504651" stroke-miterlimit="10"/>
<path d="M245.37 168.532C244.38 167.743 243.58 166.743 243.029 165.606L241.753 161.183C241.496 159.93 241.644 158.627 242.176 157.462C243.254 155.29 245.38 155.158 252.278 153.066C255.535 152.082 261.178 150.256 263.178 151.425C263.855 151.833 264.442 152.374 264.902 153.016C265.173 153.428 265.38 153.879 265.515 154.352L266.791 158.775C266.93 160.03 266.787 161.301 266.371 162.495C263.869 169.438 251.188 173.082 245.37 168.532Z" stroke="#242431" stroke-width="0.504651" stroke-miterlimit="10"/>
<path d="M247.378 167.016C246.603 166.397 245.975 165.612 245.543 164.72L244.538 161.236C244.335 160.253 244.45 159.23 244.869 158.317C245.72 156.61 247.384 156.509 252.797 154.868C255.351 154.093 259.781 152.663 261.348 153.579C261.881 153.899 262.341 154.323 262.703 154.828C262.916 155.15 263.079 155.504 263.186 155.875L264.188 159.346C264.295 160.332 264.182 161.33 263.854 162.267C261.891 167.714 251.94 170.575 247.378 167.016Z" stroke="#242431" stroke-width="0.504651" stroke-miterlimit="10"/>
<path d="M249.381 165.476C248.82 165.028 248.366 164.463 248.051 163.819L247.327 161.308C247.183 160.597 247.269 159.858 247.571 159.199C248.188 157.961 249.397 157.885 253.325 156.695C255.18 156.134 258.394 155.095 259.53 155.761C259.918 155.992 260.253 156.3 260.514 156.667C260.668 156.902 260.786 157.158 260.863 157.427L261.587 159.937C261.664 160.65 261.581 161.37 261.344 162.047C259.921 165.987 252.682 168.068 249.381 165.476Z" stroke="#242431" stroke-width="0.504651" stroke-miterlimit="10"/>
<path d="M251.388 163.947C251.037 163.668 250.754 163.314 250.56 162.91L250.108 161.341C250.016 160.898 250.068 160.436 250.256 160.024C250.641 159.254 251.385 159.21 253.835 158.468C254.989 158.12 256.991 157.473 257.696 157.885C257.937 158.03 258.146 158.222 258.309 158.45C258.405 158.596 258.478 158.754 258.527 158.921L258.979 160.49C259.027 160.935 258.975 161.385 258.828 161.809C257.942 164.266 253.447 165.558 251.388 163.947Z" stroke="#242431" stroke-width="0.504651" stroke-miterlimit="10"/>
<path d="M286.425 124.318C286.714 129.735 286.511 135.166 285.819 140.544C285.627 142.074 285.391 143.597 285.109 145.113C284.969 145.889 286.188 146.043 286.327 145.268C287.311 139.85 287.796 134.352 287.773 128.844C287.768 127.272 287.723 125.703 287.639 124.136C287.599 123.351 286.395 123.528 286.426 124.312L286.425 124.318Z" fill="#242431"/>
<path d="M280.588 118.978L280.028 119.739L282.224 123.037L287.836 124.735L291.65 123.383L291.947 122.081C289.077 120.548 286.978 119.245 283.371 119.396L280.588 118.978Z" fill="#242431"/>
<path d="M218.286 134.901C209.797 138.93 205.699 142.11 203.102 149.445M202.239 152.227C202.509 151.236 202.795 150.311 203.102 149.445M271.446 119.002C282.331 118.285 288.734 119.349 292.932 123.292M294.787 125.283C294.179 124.55 293.566 123.888 292.932 123.292M292.932 123.292C298.162 120.174 301.799 118.094 304.327 116.712C307.743 114.845 311.907 115.83 314.716 118.526L317.323 121.029C319.74 123.351 320.81 126.774 319.507 129.863C317.596 134.394 313.806 140.91 306.846 144.972C302.131 147.61 300.599 147.284 296.898 147.024L280.473 144.214C293.551 174.218 304.207 206.903 304.207 206.903C305.198 208.619 302.955 219.925 297.218 222.014C288.955 223.451 284.372 220.268 282.206 213.917C282.206 213.917 277.288 197.024 275.59 191.191C273.892 185.358 271.16 186.348 262.339 189.144C255.035 191.31 251.062 192.427 252.647 197.871C254.232 203.315 257.985 216.169 259.1 220.035C260.215 223.901 258.048 233.726 251.997 234.758C245.947 235.789 239.877 236.221 238.373 235.772C232.461 232.853 233.055 228.759 234.947 218.209C228.626 198.644 226.741 184.989 223.862 159.851C220.349 164.733 215.79 169.794 211.965 172.595C208.141 175.396 206.596 175.665 202.633 175.312C196.557 172.918 192.283 170.267 188.346 166.989C186.155 165.165 184.991 162.34 185.451 159.527C186.195 154.978 187.722 152.475 190.354 150.12C191.787 148.837 193.677 148.188 195.6 148.175C199.043 148.152 200.889 148.537 203.102 149.445" stroke="#242431" stroke-width="0.81"/>
<path d="M310.904 114.243L310.845 114.234C310.483 114.181 310.115 114.203 309.762 114.297C309.409 114.392 309.078 114.558 308.791 114.784C308.504 115.011 308.266 115.294 308.091 115.615C307.917 115.937 307.81 116.29 307.777 116.654L307.753 116.915C307.715 117.334 307.776 117.757 307.931 118.148C308.087 118.539 308.332 118.887 308.647 119.166L315.636 125.327C315.901 125.56 316.209 125.738 316.543 125.852C316.877 125.964 317.231 126.01 317.584 125.987L317.957 125.967C318.371 125.94 318.775 125.816 319.134 125.606C319.494 125.396 319.801 125.107 320.029 124.758C320.259 124.411 320.404 124.014 320.454 123.602C320.504 123.189 320.457 122.77 320.318 122.379C320.165 121.95 319.905 121.567 319.562 121.268L312.28 114.881C311.894 114.539 311.416 114.317 310.904 114.243Z" fill="#B5B5C6" stroke="#242431" stroke-width="0.891692" stroke-miterlimit="10"/>
<path d="M311.347 117.168L317.283 122.715C317.763 123.164 318.336 123.485 318.937 123.642C319.539 123.8 320.146 123.787 320.694 123.607L324.662 122.291C324.93 122.203 325.18 122.075 325.404 121.911L329.319 119.074C329.443 118.981 329.559 118.88 329.669 118.771L332.712 115.636C333.014 115.328 333.239 114.946 333.375 114.518C333.51 114.089 335.425 111.67 335.372 111.195L335.271 110.27L335.11 108.8C335.04 108.165 334.802 107.538 334.424 106.987L330.909 101.874C330.502 101.279 329.948 100.801 329.319 100.5L328.09 99.9109C327.494 99.6262 326.857 99.5125 326.252 99.5828C325.647 99.6531 323.227 101.858 322.8 102.261L321.028 103.947C320.713 104.25 320.33 104.47 319.903 104.592C319.476 104.715 319.015 104.738 318.551 104.66C318.087 104.581 317.629 104.403 317.209 104.137C316.789 103.87 316.415 103.522 316.112 103.115L315.989 102.954C315.552 102.372 314.973 101.917 314.329 101.646C313.685 101.376 313.005 101.303 312.378 101.438L311.877 101.546C311.198 101.69 310.616 102.069 310.22 102.625C309.824 103.181 309.634 103.885 309.681 104.628L309.91 107.948L310.06 114.355C310.069 114.864 310.189 115.381 310.412 115.868C310.635 116.355 310.955 116.8 311.347 117.168Z" fill="#B5B5C6"/>
<path d="M311.347 117.168L317.283 122.715C317.763 123.164 318.336 123.485 318.937 123.642C319.539 123.8 320.146 123.787 320.694 123.607L324.662 122.291C324.93 122.203 325.18 122.075 325.404 121.911L329.319 119.074C329.443 118.981 329.56 118.88 329.669 118.771L332.712 115.636C333.014 115.328 333.239 114.946 333.375 114.518C333.51 114.089 335.553 111.623 335.499 111.148L335.398 110.224L335.238 108.753C335.167 108.118 334.929 107.491 334.551 106.94L331.037 101.827C330.629 101.233 330.075 100.754 329.446 100.453L328.217 99.8641C327.622 99.5795 326.984 99.4658 326.379 99.5361C325.775 99.6064 323.227 101.858 322.8 102.261L321.028 103.947C320.713 104.25 320.33 104.47 319.903 104.592C319.476 104.715 319.015 104.738 318.551 104.66C318.087 104.581 317.629 104.403 317.209 104.137C316.789 103.87 316.415 103.522 316.112 103.115L315.989 102.954C315.552 102.372 314.973 101.917 314.329 101.647C313.685 101.376 313.005 101.303 312.378 101.438L311.877 101.546C311.198 101.69 310.616 102.069 310.22 102.625C309.824 103.181 309.634 103.885 309.681 104.628L309.91 107.948L310.06 114.355C310.069 114.864 310.189 115.381 310.412 115.868C310.635 116.355 310.955 116.8 311.347 117.168Z" stroke="#242431" stroke-width="0.891692" stroke-miterlimit="10"/>
<path d="M323.582 115.089L322.518 116.187L320.95 117.417L320.945 117.418L318.025 116.57C317.281 116.135 315.603 115.153 314.837 114.706" stroke="#242431" stroke-width="0.893303"/>
<path d="M328.819 103.445L326.985 105.291C326.249 105.734 324.587 106.733 323.829 107.188" stroke="#242431" stroke-width="0.893303"/>
<path d="M331.079 106.595L329.245 108.441C328.508 108.884 326.846 109.883 326.089 110.338" stroke="#242431" stroke-width="0.893303"/>
<path d="M332.781 109.365L330.947 111.211C330.211 111.654 328.549 112.653 327.791 113.109" stroke="#242431" stroke-width="0.893303"/>
<path d="M279.235 118.748C279.35 119.811 279.716 120.832 280.306 121.727C280.894 122.622 281.688 123.364 282.62 123.892C284.785 125.062 287.282 125.458 289.698 125.015C290.866 124.747 291.88 124.12 292.342 122.987C292.386 122.831 292.367 122.663 292.289 122.521C292.21 122.378 292.079 122.271 291.924 122.223C291.768 122.181 291.602 122.201 291.46 122.279C291.319 122.356 291.212 122.485 291.164 122.639C290.786 123.566 289.583 123.875 288.686 123.95C287.376 124.067 286.055 123.926 284.798 123.534C282.666 122.864 280.668 121.123 280.461 118.78C280.46 118.619 280.396 118.465 280.284 118.348C280.173 118.232 280.02 118.164 279.859 118.156C279.696 118.154 279.54 118.217 279.423 118.329C279.306 118.442 279.238 118.596 279.235 118.759L279.235 118.748Z" fill="#242431"/>
<path d="M209.708 144.997C212.179 149.947 215.085 154.671 218.393 159.108C219.329 160.373 220.301 161.61 221.309 162.818C221.821 163.439 220.835 164.171 220.323 163.551C216.741 159.22 213.555 154.576 210.806 149.674C210.021 148.276 209.271 146.86 208.557 145.428C208.197 144.711 209.337 144.28 209.704 144.991L209.708 144.997Z" fill="#242431"/>
<path d="M211.651 138.75C212.174 138.672 212.383 138.717 212.498 139.168C212.558 140.702 212.48 141.503 212.062 143.106C210.741 144.866 209.849 145.761 207.857 147.192C206.351 147.813 205.483 148.017 203.848 147.742L203.701 147.236C205.535 144.696 206.368 143.215 209.03 140.928L211.651 138.75Z" fill="#242431"/>
<path d="M213.132 138.372C213.457 139.279 213.55 140.278 213.402 141.287C213.254 142.296 212.87 143.286 212.283 144.174C210.896 146.193 208.917 147.759 206.673 148.614C205.567 148.985 204.45 148.991 203.604 148.317C203.504 148.214 203.454 148.071 203.464 147.918C203.474 147.765 203.544 147.614 203.658 147.498C203.775 147.386 203.925 147.319 204.077 147.31C204.228 147.301 204.371 147.351 204.473 147.45C205.166 148.001 206.318 147.645 207.115 147.257C208.283 146.695 209.357 145.921 210.277 144.978C211.834 143.376 212.851 140.986 212.096 139.011C212.033 138.882 212.026 138.727 212.076 138.578C212.125 138.429 212.228 138.298 212.363 138.211C212.501 138.129 212.66 138.1 212.805 138.131C212.95 138.163 213.069 138.252 213.136 138.381L213.132 138.372Z" fill="#242431"/>
<path d="M189.316 150.059L189.369 150.03C189.69 149.856 190.044 149.75 190.408 149.718C190.772 149.686 191.139 149.729 191.487 149.843C191.834 149.957 192.155 150.141 192.429 150.384C192.703 150.626 192.925 150.921 193.08 151.252L193.192 151.488C193.372 151.87 193.459 152.287 193.447 152.708C193.435 153.128 193.325 153.54 193.124 153.909L188.67 162.093C188.501 162.402 188.273 162.676 187.997 162.897C187.722 163.117 187.406 163.282 187.067 163.381L186.71 163.49C186.31 163.606 185.889 163.628 185.479 163.555C185.07 163.481 184.682 163.314 184.348 163.065C184.013 162.817 183.741 162.494 183.553 162.124C183.364 161.753 183.264 161.343 183.261 160.928C183.258 160.473 183.371 160.025 183.59 159.625L188.242 151.13C188.488 150.676 188.861 150.303 189.316 150.059Z" fill="#B5B5C6" stroke="#242431" stroke-width="0.891692" stroke-miterlimit="10"/>
<path d="M189.902 152.958L186.228 160.204C185.931 160.79 185.503 161.288 184.992 161.642C184.48 161.996 183.905 162.192 183.328 162.211L179.15 162.335C178.868 162.344 178.59 162.309 178.323 162.232L173.673 160.908C173.525 160.864 173.38 160.809 173.24 160.744L169.307 158.842C168.918 158.656 168.576 158.375 168.301 158.019C168.027 157.663 165.398 156.046 165.286 155.582L165.064 154.679L164.711 153.242C164.559 152.622 164.568 151.951 164.734 151.304L166.283 145.296C166.462 144.598 166.819 143.958 167.307 143.46L168.259 142.485C168.721 142.014 169.28 141.689 169.873 141.547C170.465 141.406 173.495 142.647 174.034 142.88L176.276 143.856C176.676 144.033 177.111 144.108 177.555 144.077C177.998 144.046 178.438 143.91 178.848 143.677C179.257 143.444 179.626 143.12 179.929 142.725C180.233 142.331 180.465 141.876 180.609 141.39L180.67 141.196C180.881 140.5 181.268 139.874 181.781 139.399C182.293 138.924 182.907 138.623 183.542 138.534L184.051 138.464C184.737 138.367 185.414 138.523 185.977 138.91C186.54 139.297 186.959 139.892 187.17 140.607L188.092 143.804L190.147 149.875C190.314 150.356 190.378 150.883 190.336 151.417C190.293 151.951 190.145 152.478 189.902 152.958Z" fill="#B5B5C6"/>
<path d="M189.902 152.958L186.228 160.204C185.93 160.79 185.503 161.288 184.992 161.642C184.48 161.996 183.905 162.192 183.328 162.211L179.15 162.335C178.868 162.344 178.59 162.309 178.323 162.232L173.673 160.908C173.525 160.864 173.38 160.809 173.24 160.744L169.307 158.842C168.918 158.656 168.575 158.375 168.301 158.019C168.027 157.663 165.263 156.046 165.15 155.581L164.928 154.678L164.575 153.242C164.424 152.621 164.432 151.951 164.599 151.304L166.148 145.296C166.326 144.598 166.683 143.958 167.171 143.46L168.123 142.485C168.585 142.014 169.145 141.688 169.737 141.547C170.33 141.406 173.495 142.647 174.034 142.88L176.276 143.856C176.676 144.033 177.111 144.108 177.554 144.077C177.998 144.046 178.438 143.91 178.848 143.677C179.257 143.444 179.626 143.12 179.929 142.726C180.233 142.331 180.464 141.876 180.609 141.39L180.67 141.196C180.881 140.5 181.268 139.874 181.781 139.399C182.293 138.924 182.907 138.623 183.542 138.534L184.051 138.464C184.737 138.367 185.414 138.523 185.977 138.91C186.54 139.297 186.958 139.893 187.17 140.607L188.092 143.804L190.147 149.875C190.314 150.356 190.378 150.883 190.336 151.417C190.293 151.951 190.145 152.478 189.902 152.958Z" stroke="#242431" stroke-width="0.891692" stroke-miterlimit="10"/>
<path d="M177.696 155.199L179.072 155.865L180.966 156.484L180.971 156.483L183.424 154.685C183.974 154.022 185.214 152.524 185.78 151.842" stroke="#242431" stroke-width="0.893303"/>
<path d="M168.786 146.055L171.141 147.161C171.985 147.324 173.889 147.693 174.756 147.862" stroke="#242431" stroke-width="0.893303"/>
<path d="M167.742 149.789L170.098 150.894C170.941 151.058 172.845 151.427 173.713 151.595" stroke="#242431" stroke-width="0.893303"/>
<path d="M167.093 152.975L169.448 154.08C170.292 154.244 172.196 154.613 173.063 154.781" stroke="#242431" stroke-width="0.893303"/>
</g>
</g>
<g clip-path="url(#clip3_9667_23410)">
<path d="M249.392 0.740064C264.541 0.803984 277.485 4.79901 288.224 12.7251C298.962 20.6513 307.176 32.1889 312.865 47.3381C318.554 62.4872 321.399 80.7365 321.399 102.086C321.399 123.371 318.554 141.557 312.865 156.642C307.112 171.727 298.867 183.233 288.128 191.159C277.325 199.085 264.413 203.048 249.392 203.048C234.371 203.048 221.491 199.053 210.752 191.063C200.014 183.137 191.8 171.631 186.111 156.546C180.358 141.525 177.482 123.371 177.482 102.086C177.482 80.6726 180.326 62.3913 186.015 47.2422C191.704 32.157 199.918 20.6193 210.656 12.6293C221.395 4.70313 234.307 0.740066 249.392 0.740064ZM249.392 26.3402C236.097 26.3402 225.71 32.8281 218.231 45.804C210.688 58.7798 206.917 77.5405 206.917 102.086C206.917 118.386 208.643 132.161 212.095 143.411C215.482 154.724 220.372 163.29 226.764 169.107C233.092 174.987 240.635 177.928 249.392 177.928C262.624 177.928 273.011 171.408 280.553 158.368C288.096 145.328 291.899 126.567 291.963 102.086C291.963 85.7223 290.269 71.8835 286.881 60.5696C283.43 49.3196 278.54 40.7862 272.212 34.9695C265.884 29.2166 258.277 26.3402 249.392 26.3402Z" fill="url(#paint7_linear_9667_23410)"/>
</g>
<defs>
<filter id="filter0_f_9667_23410" x="272.385" y="40.3301" width="5.53347" height="4.93233" filterUnits="userSpaceOnUse" color-interpolation-filters="sRGB">
<feFlood flood-opacity="0" result="BackgroundImageFix"/>
<feBlend mode="normal" in="SourceGraphic" in2="BackgroundImageFix" result="shape"/>
<feGaussianBlur stdDeviation="0.842717" result="effect1_foregroundBlur_9667_23410"/>
</filter>
<filter id="filter1_f_9667_23410" x="229.13" y="27.0528" width="5.53347" height="4.93233" filterUnits="userSpaceOnUse" color-interpolation-filters="sRGB">
<feFlood flood-opacity="0" result="BackgroundImageFix"/>
<feBlend mode="normal" in="SourceGraphic" in2="BackgroundImageFix" result="shape"/>
<feGaussianBlur stdDeviation="0.842717" result="effect1_foregroundBlur_9667_23410"/>
</filter>
<filter id="filter2_f_9667_23410" x="220.479" y="52.8145" width="5.53347" height="4.93233" filterUnits="userSpaceOnUse" color-interpolation-filters="sRGB">
<feFlood flood-opacity="0" result="BackgroundImageFix"/>
<feBlend mode="normal" in="SourceGraphic" in2="BackgroundImageFix" result="shape"/>
<feGaussianBlur stdDeviation="0.842717" result="effect1_foregroundBlur_9667_23410"/>
</filter>
<filter id="filter3_f_9667_23410" x="246.432" y="51.2579" width="5.53347" height="4.93233" filterUnits="userSpaceOnUse" color-interpolation-filters="sRGB">
<feFlood flood-opacity="0" result="BackgroundImageFix"/>
<feBlend mode="normal" in="SourceGraphic" in2="BackgroundImageFix" result="shape"/>
<feGaussianBlur stdDeviation="0.842717" result="effect1_foregroundBlur_9667_23410"/>
</filter>
<filter id="filter4_f_9667_23410" x="275.634" y="64.5235" width="5.53347" height="4.93233" filterUnits="userSpaceOnUse" color-interpolation-filters="sRGB">
<feFlood flood-opacity="0" result="BackgroundImageFix"/>
<feBlend mode="normal" in="SourceGraphic" in2="BackgroundImageFix" result="shape"/>
<feGaussianBlur stdDeviation="0.842717" result="effect1_foregroundBlur_9667_23410"/>
</filter>
<filter id="filter5_f_9667_23410" x="264.816" y="20.8086" width="5.53347" height="4.93233" filterUnits="userSpaceOnUse" color-interpolation-filters="sRGB">
<feFlood flood-opacity="0" result="BackgroundImageFix"/>
<feBlend mode="normal" in="SourceGraphic" in2="BackgroundImageFix" result="shape"/>
<feGaussianBlur stdDeviation="0.842717" result="effect1_foregroundBlur_9667_23410"/>
</filter>
<filter id="filter6_f_9667_23410" x="217.237" y="109.813" width="5.53347" height="4.93233" filterUnits="userSpaceOnUse" color-interpolation-filters="sRGB">
<feFlood flood-opacity="0" result="BackgroundImageFix"/>
<feBlend mode="normal" in="SourceGraphic" in2="BackgroundImageFix" result="shape"/>
<feGaussianBlur stdDeviation="0.842717" result="effect1_foregroundBlur_9667_23410"/>
</filter>
<filter id="filter7_f_9667_23410" x="278.875" y="130.111" width="5.53347" height="4.93233" filterUnits="userSpaceOnUse" color-interpolation-filters="sRGB">
<feFlood flood-opacity="0" result="BackgroundImageFix"/>
<feBlend mode="normal" in="SourceGraphic" in2="BackgroundImageFix" result="shape"/>
<feGaussianBlur stdDeviation="0.842717" result="effect1_foregroundBlur_9667_23410"/>
</filter>
<filter id="filter8_f_9667_23410" x="247.516" y="135.574" width="5.53347" height="4.93233" filterUnits="userSpaceOnUse" color-interpolation-filters="sRGB">
<feFlood flood-opacity="0" result="BackgroundImageFix"/>
<feBlend mode="normal" in="SourceGraphic" in2="BackgroundImageFix" result="shape"/>
<feGaussianBlur stdDeviation="0.842717" result="effect1_foregroundBlur_9667_23410"/>
</filter>
<filter id="filter9_f_9667_23410" x="217.237" y="159.781" width="5.53347" height="4.93233" filterUnits="userSpaceOnUse" color-interpolation-filters="sRGB">
<feFlood flood-opacity="0" result="BackgroundImageFix"/>
<feBlend mode="normal" in="SourceGraphic" in2="BackgroundImageFix" result="shape"/>
<feGaussianBlur stdDeviation="0.842717" result="effect1_foregroundBlur_9667_23410"/>
</filter>
<filter id="filter10_f_9667_23410" x="216.155" y="138.703" width="5.53347" height="4.93233" filterUnits="userSpaceOnUse" color-interpolation-filters="sRGB">
<feFlood flood-opacity="0" result="BackgroundImageFix"/>
<feBlend mode="normal" in="SourceGraphic" in2="BackgroundImageFix" result="shape"/>
<feGaussianBlur stdDeviation="0.842717" result="effect1_foregroundBlur_9667_23410"/>
</filter>
<filter id="filter11_f_9667_23410" x="262.655" y="151.199" width="5.53347" height="4.93233" filterUnits="userSpaceOnUse" color-interpolation-filters="sRGB">
<feFlood flood-opacity="0" result="BackgroundImageFix"/>
<feBlend mode="normal" in="SourceGraphic" in2="BackgroundImageFix" result="shape"/>
<feGaussianBlur stdDeviation="0.842717" result="effect1_foregroundBlur_9667_23410"/>
</filter>
<filter id="filter12_f_9667_23410" x="265.826" y="111.648" width="5.53347" height="4.93233" filterUnits="userSpaceOnUse" color-interpolation-filters="sRGB">
<feFlood flood-opacity="0" result="BackgroundImageFix"/>
<feBlend mode="normal" in="SourceGraphic" in2="BackgroundImageFix" result="shape"/>
<feGaussianBlur stdDeviation="0.842717" result="effect1_foregroundBlur_9667_23410"/>
</filter>
<filter id="filter13_f_9667_23410" x="222.914" y="77.2032" width="5.53347" height="4.93233" filterUnits="userSpaceOnUse" color-interpolation-filters="sRGB">
<feFlood flood-opacity="0" result="BackgroundImageFix"/>
<feBlend mode="normal" in="SourceGraphic" in2="BackgroundImageFix" result="shape"/>
<feGaussianBlur stdDeviation="0.842717" result="effect1_foregroundBlur_9667_23410"/>
</filter>
<filter id="filter14_f_9667_23410" x="277.746" y="85.8126" width="5.53347" height="4.93233" filterUnits="userSpaceOnUse" color-interpolation-filters="sRGB">
<feFlood flood-opacity="0" result="BackgroundImageFix"/>
<feBlend mode="normal" in="SourceGraphic" in2="BackgroundImageFix" result="shape"/>
<feGaussianBlur stdDeviation="0.842717" result="effect1_foregroundBlur_9667_23410"/>
</filter>
<filter id="filter15_f_9667_23410" x="241.985" y="94.4258" width="5.53347" height="4.93233" filterUnits="userSpaceOnUse" color-interpolation-filters="sRGB">
<feFlood flood-opacity="0" result="BackgroundImageFix"/>
<feBlend mode="normal" in="SourceGraphic" in2="BackgroundImageFix" result="shape"/>
<feGaussianBlur stdDeviation="0.842717" result="effect1_foregroundBlur_9667_23410"/>
</filter>
<filter id="filter16_f_9667_23410" x="257.248" y="169.928" width="5.53347" height="4.93233" filterUnits="userSpaceOnUse" color-interpolation-filters="sRGB">
<feFlood flood-opacity="0" result="BackgroundImageFix"/>
<feBlend mode="normal" in="SourceGraphic" in2="BackgroundImageFix" result="shape"/>
<feGaussianBlur stdDeviation="0.842717" result="effect1_foregroundBlur_9667_23410"/>
</filter>
<linearGradient id="paint0_linear_9667_23410" x1="248.928" y1="205.92" x2="251.776" y2="13.6502" gradientUnits="userSpaceOnUse">
<stop stop-color="#4BF2A2"/>
<stop offset="0.153712" stop-color="#5FE0B1" stop-opacity="0.38"/>
<stop offset="0.351633" stop-color="#89BBCF" stop-opacity="0.1"/>
<stop offset="0.523512" stop-color="#CBB0ED" stop-opacity="0"/>
<stop offset="0.684974" stop-color="#E0A3EB" stop-opacity="0.1"/>
<stop offset="0.851645" stop-color="#DF77DE" stop-opacity="0.38"/>
<stop offset="1" stop-color="#DD40CD"/>
</linearGradient>
<linearGradient id="paint1_linear_9667_23410" x1="254.077" y1="238.571" x2="160.924" y2="205.155" gradientUnits="userSpaceOnUse">
<stop stop-color="#DF77DE" stop-opacity="0.2"/>
<stop offset="0.101628" stop-color="#E093E6" stop-opacity="0.1"/>
<stop offset="0.208367" stop-color="#E0A3EB" stop-opacity="0.05"/>
<stop offset="0.338578" stop-color="#D3ABEC" stop-opacity="0.0192342"/>
<stop offset="0.502819" stop-color="#CBB0ED" stop-opacity="0"/>
<stop offset="0.651085" stop-color="#ADB5E0" stop-opacity="0.0228121"/>
<stop offset="0.773518" stop-color="#89BBCF" stop-opacity="0.05"/>
<stop offset="0.877687" stop-color="#74CEC0" stop-opacity="0.1"/>
<stop offset="1" stop-color="#5FE0B1" stop-opacity="0.2"/>
</linearGradient>
<linearGradient id="paint2_linear_9667_23410" x1="248.928" y1="205.92" x2="248.236" y2="20.0138" gradientUnits="userSpaceOnUse">
<stop stop-color="#4BF2A2" stop-opacity="0.7"/>
<stop offset="0.153712" stop-color="#5FE0B1" stop-opacity="0.38"/>
<stop offset="0.351633" stop-color="#89BBCF" stop-opacity="0.2"/>
<stop offset="0.523512" stop-color="#CBB0ED" stop-opacity="0.2"/>
<stop offset="0.684974" stop-color="#E0A3EB" stop-opacity="0.2"/>
<stop offset="0.851645" stop-color="#DF77DE" stop-opacity="0.38"/>
<stop offset="1" stop-color="#DD40CD" stop-opacity="0.5"/>
</linearGradient>
<linearGradient id="paint3_linear_9667_23410" x1="250" y1="200" x2="250" y2="-348.5" gradientUnits="userSpaceOnUse">
<stop stop-color="#10101B"/>
<stop offset="1" stop-color="#67677B"/>
</linearGradient>
<linearGradient id="paint4_linear_9667_23410" x1="250" y1="200" x2="250" y2="-348.5" gradientUnits="userSpaceOnUse">
<stop stop-color="#10101B"/>
<stop offset="1" stop-color="#67677B"/>
</linearGradient>
<linearGradient id="paint5_linear_9667_23410" x1="250" y1="200" x2="250" y2="-348.5" gradientUnits="userSpaceOnUse">
<stop stop-color="#10101B"/>
<stop offset="1" stop-color="#67677B"/>
</linearGradient>
<linearGradient id="paint6_linear_9667_23410" x1="249" y1="219.501" x2="249" y2="-428.499" gradientUnits="userSpaceOnUse">
<stop stop-color="#10101B"/>
<stop offset="1" stop-color="#67677B"/>
</linearGradient>
<linearGradient id="paint7_linear_9667_23410" x1="249" y1="202" x2="249" y2="-244.5" gradientUnits="userSpaceOnUse">
<stop stop-color="#10101B"/>
<stop offset="1" stop-color="#67677B"/>
</linearGradient>
<clipPath id="clip0_9667_23410">
<rect width="202.5" height="121.5" fill="white" transform="translate(149 56.9999)"/>
</clipPath>
<clipPath id="clip1_9667_23410">
<rect width="176.414" height="180.591" fill="white" transform="translate(142.52 80.3933) rotate(-16.232)"/>
</clipPath>
<clipPath id="clip2_9667_23410">
<rect width="114" height="112" fill="white" transform="translate(318 255.001) rotate(180)"/>
</clipPath>
<clipPath id="clip3_9667_23410">
<rect width="114" height="104" fill="white" transform="translate(337 255) rotate(180)"/>
</clipPath>
</defs>
</svg>
