<svg width="32" height="32" viewBox="0 0 32 32" fill="none" xmlns="http://www.w3.org/2000/svg">
<path d="M0 16C0 24.8366 7.16344 32 16 32C24.8366 32 32 24.8366 32 16C32 7.16344 24.8366 0 16 0C7.16344 0 0 7.16344 0 16Z" fill="black"/>
<g clip-path="url(#clip0_1522_965)">
<path d="M20.6924 16.0144C20.7165 18.5821 22.975 19.4366 23 19.4475C22.9809 19.5078 22.6391 20.6652 21.8101 21.8608C21.0935 22.8944 20.3497 23.9242 19.1781 23.9456C18.0268 23.9665 17.6566 23.2719 16.3404 23.2719C15.0246 23.2719 14.6133 23.9242 13.5235 23.9665C12.3925 24.0087 11.5313 22.8488 10.8088 21.8189C9.33224 19.7124 8.20388 15.8662 9.71899 13.2701C10.4717 11.9808 11.8167 11.1644 13.2767 11.1434C14.3873 11.1225 15.4355 11.8807 16.1144 11.8807C16.7929 11.8807 18.0667 10.9689 19.4058 11.1028C19.9664 11.1258 21.54 11.3263 22.5505 12.7859C22.4691 12.8357 20.6728 13.8676 20.6924 16.0144ZM18.5287 9.70914C19.1291 8.99191 19.5332 7.99345 19.423 7C18.5575 7.03433 17.511 7.56914 16.8902 8.28597C16.3339 8.92077 15.8466 9.93679 15.9781 10.9106C16.9428 10.9842 17.9282 10.4268 18.5287 9.70914Z" fill="white"/>
</g>
<defs>
<clipPath id="clip0_1522_965">
<rect width="14" height="17" fill="white" transform="translate(9 7)"/>
</clipPath>
</defs>
</svg>
