<?xml version="1.0" encoding="UTF-8"?>
<svg id="Layer_1" data-name="Layer 1" xmlns="http://www.w3.org/2000/svg" viewBox="0 0 400 400">
  <defs>
    <style>
      .cls-1 {
        fill: #95bcda;
      }

      .cls-1,
      .cls-2,
      .cls-3,
      .cls-4,
      .cls-5,
      .cls-6,
      .cls-7,
      .cls-8,
      .cls-9 {
        stroke-width: 0px;
      }

      .cls-2 {
        fill: #334054;
      }

      .cls-10 {
        fill: #fff;
        font-family: SourceSansRoman-Semibold, 'Source Sans Variable';
        font-size: 60.06px;
        font-variation-settings: 'wght'600;
        font-weight: 600;
      }

      .cls-3 {
        fill: #212c41;
      }

      .cls-4 {
        fill: #1f2937;
      }

      .cls-5 {
        fill: #fbfbfc;
      }

      .cls-6 {
        fill: #313b50;
      }

      .cls-7 {
        fill: #fbfbfb;
      }

      .cls-8 {
        fill: #289fee;
      }

      .cls-9 {
        fill: #2d374b;
      }
    </style>
  </defs>
  <g>
    <path class="cls-4"
      d="m124.78,254.99c-1.92,7.06.62,11.54,7.4,14.44,4.91,2.1,9.24,5.54,14.1,7.83,1.74.82,4.24.02,6.39-.04,1.12,5.61,4.85,6.45,9.67,5.28.38,1.61.23,4.11,1.21,4.68,9.48,5.56,19.14,10.79,28.75,16.12,13.93,8.17,27.68,16.67,41.86,24.36,7.04,3.82,14.57,2.81,21.67-1.33,31.12-18.12,62.26-36.19,93.49-54.1,8.83-5.06,13.07-12.49,13.09-22.41.06-35.76.04-71.52.03-107.28,0-10.31-4.6-17.9-13.55-23.04-30.78-17.65-61.5-35.4-92.29-53.05-8.89-5.09-17.89-5.03-26.78.11-30.95,17.89-61.9,35.76-92.81,53.71-7.78,4.52-12.45,11.39-12.47,20.43-.08,38.1.13,76.2.24,114.3Z" />
    <path class="cls-9"
      d="m160.77,284.06q-5.93-2.32-9.67-5.28c1.26-2.27,3.98-6.16,5.35-8.36,25.35-40.69,50.74-81.36,76.1-122.05,1.4-2.25,2.7-4.57,4.68-7.92-7.13,0-12.61-.1-18.07.02-13.97.29-24.7,5.49-32.35,18.1-12.83,21.15-26.78,41.62-40.26,62.38-.9-3.67-2.54-7.33-2.57-11.01-.22-24.62-.1-49.24-.08-73.86,31.71-18.55,63.37-37.2,95.26-55.46,2.32-1.33,6.89-.84,9.41.59,30.66,17.3,61.21,34.81,91.54,52.68,2.76,1.63,5.41,6.09,5.45,9.27.34,27.39.06,54.78-.03,82.18-1.05.8-2.1,1.61-3.16,2.41-16.23-24.96-32.46-49.92-49.33-75.87-5.87,9.93-10.72,18.82-16.27,27.25-2.9,4.4-2.54,7.5.19,11.86,15.92,25.37,31.49,50.95,47.18,76.47-3.14,1.72-6.29,3.44-9.43,5.16-15.82-24.99-31.64-49.99-48.04-75.88-7.42,12.58-14.37,24.15-21.01,35.89-.76,1.34-.4,4.07.49,5.49,11.42,18.02,23.04,35.91,34.6,53.84-10.16,6.19-20.45,12.2-30.44,18.65-4.85,3.13-8.82,2.72-13.63-.16-12.02-7.21-24.33-13.94-36.53-20.87,10.68-18.45,21.28-36.96,32.07-55.35,16.95-28.9,34.04-57.71,51.02-86.59,1.28-2.18,2.14-4.61,3.19-6.93-1.59-1.01-3.16-2.86-4.79-2.91-9.36-.28-18.73-.28-28.09.01-1.61.05-3.16,1.92-4.74,2.95-2.07,3.3-4.18,6.57-6.21,9.9-26.77,43.94-55.09,89.46-81.85,133.41Z" />
    <path class="cls-1"
      d="m314.72,272.62c3.14-1.72,6.29-3.44,9.43-5.16,25.64-14.91,21.45-7.44,21.59-35.3-.07-2.27-.14-4.55-.22-6.82.09-27.39.37-54.79.03-82.18-.04-3.18-2.69-7.64-5.45-9.27-30.33-17.87-60.88-35.38-91.54-52.68-2.52-1.42-7.09-1.92-9.41-.59-31.89,18.25-63.54,36.91-95.26,55.46-1,3.29-2.83,6.58-2.87,9.88-.26,27.56-.19,55.12-.22,82.68-5.34,8.78-10.68,17.57-16.02,26.35-.11-38.1-.32-76.2-.24-114.3.02-9.04,4.69-15.91,12.47-20.43,30.91-17.95,61.87-35.82,92.81-53.71,8.89-5.14,17.89-5.2,26.78-.11,30.78,17.65,61.5,35.4,92.29,53.05,8.96,5.14,13.55,12.73,13.55,23.04.01,35.76.04,71.52-.03,107.28-.02,9.93-4.26,17.35-13.09,22.41-31.24,17.91-62.37,35.99-93.49,54.1-7.1,4.14-14.63,5.14-21.67,1.33-14.19-7.69-27.93-16.19-41.86-24.36,2.63-4.58,5.25-9.16,7.87-13.74,12.19,6.92,24.5,13.66,36.53,20.87,4.8,2.88,8.78,3.29,13.63.16,10-6.45,20.28-12.46,30.44-18.65,11.32-6.44,22.63-12.88,33.95-19.32Z" />
    <path class="cls-7"
      d="m200.18,289.56c-2.62,4.58-5.25,9.16-7.87,13.74-9.61-5.33-19.28-10.56-28.75-16.12-.98-.58-2.4-1.51-2.78-3.12,26.76-43.95,55.08-89.47,81.85-133.41,2.03-3.33,4.14-6.6,6.21-9.9,12.54-.02,25.08-.04,37.62-.06-1.05,2.31-1.91,4.75-3.19,6.93-16.98,28.88-34.07,57.69-51.02,86.59-10.79,18.39-21.39,36.9-32.07,55.35Z" />
    <path class="cls-5"
      d="m124.78,254.99c5.34-8.78,10.68-17.57,16.02-26.35,1.91-2.56,3.83-5.12,5.74-7.68,13.48-20.76,27.42-41.23,40.26-62.38,7.65-12.61,18.38-17.81,32.35-18.1,5.47-.11,10.94-.02,18.07-.02-1.98,3.36-3.27,5.67-4.68,7.92-25.36,40.68-50.75,81.36-76.1,122.05-1.37,2.2-4.09,6.09-5.35,8.36-2.15.06-3.09-.71-4.82-1.53-4.85-2.29-9.18-5.72-14.1-7.83-6.78-2.9-9.32-7.38-7.4-14.44Z" />
    <path class="cls-8"
      d="m345.74,232.16c-.14,27.86,4.05,20.38-21.59,35.3-15.69-25.51-31.26-51.1-47.18-76.47-2.73-4.35-3.09-7.45-.19-11.86,5.55-8.44,10.4-17.33,16.27-27.25,16.87,25.95,33.1,50.91,49.33,75.87,1.12,1.47,2.25,2.94,3.37,4.41Z" />
    <path class="cls-8"
      d="m314.72,272.62c-11.32,6.44-22.63,12.88-33.95,19.32-11.56-17.92-23.18-35.81-34.6-53.83-.9-1.42-1.25-4.14-.49-5.49,6.64-11.74,13.58-23.3,21.01-35.89,16.39,25.9,32.22,50.89,48.04,75.88Z" />
    <path class="cls-2"
      d="m146.55,220.96c-1.91,2.56-3.83,5.12-5.74,7.68.03-27.56-.04-55.12.22-82.68.03-3.3,1.87-6.59,2.87-9.88-.01,24.62-.14,49.24.08,73.86.03,3.68,1.67,7.34,2.57,11.01Z" />
    <path class="cls-3"
      d="m286.45,140.69c-12.54.02-25.08.04-37.62.06,1.58-1.03,3.13-2.9,4.74-2.95,9.36-.29,18.73-.29,28.09-.01,1.62.05,3.19,1.89,4.79,2.91Z" />
    <path class="cls-6"
      d="m345.74,232.16c-1.12-1.47-2.25-2.94-3.37-4.41,1.05-.8,2.1-1.61,3.16-2.41.07,2.27.14,4.55.22,6.82Z" />
  </g>
</svg>