<svg width="32" height="36" viewBox="0 0 32 36" fill="none" xmlns="http://www.w3.org/2000/svg">
  <path
    d="M14.6387 0.598137C15.481 0.112309 16.5188 0.112309 17.3611 0.598137L30.405 8.12159C31.2473 8.6074 31.766 9.50514 31.766 10.4765V25.5235C31.766 26.4949 31.2473 27.3926 30.405 27.8784L17.3611 35.4019C16.5188 35.8877 15.481 35.8877 14.6387 35.4019L1.5948 27.8784C0.752519 27.3926 0.233766 26.4949 0.233766 25.5235V10.4765C0.233766 9.50514 0.752519 8.6074 1.5948 8.12159L14.6387 0.598137Z"
    fill="#212130" stroke="#67677B" stroke-width="0.467532" />
  <mask id="mask0_308_42390" style="mask-type:alpha" maskUnits="userSpaceOnUse" x="0" y="0" width="32" height="36">
    <path
      d="M14.6371 0.591498C15.4803 0.114522 16.5198 0.114522 17.3629 0.591499L30.4068 7.97027C31.2495 8.44696 31.7662 9.32619 31.7662 10.2751V25.0326C31.7662 25.9815 31.2495 26.8607 30.4068 27.3374L17.3629 34.7162C16.5198 35.1932 15.4803 35.1932 14.6371 34.7162L1.59323 27.3374C0.750551 26.8607 0.233888 25.9815 0.233888 25.0326V10.2751C0.233888 9.32619 0.750551 8.44696 1.59323 7.97027L14.6371 0.591498Z"
      fill="#212130" stroke="#67677B" stroke-width="0.467532" />
  </mask>
  <g mask="url(#mask0_308_42390)">
    <path
      d="M5.02251 28.0976L4.00893 40.9848C3.76905 44.0348 6.05656 46.701 9.11823 46.94L19.1739 47.7248C22.2356 47.9638 24.912 45.685 25.1519 42.635L26.1655 29.7479C26.4054 26.6979 24.1179 24.0317 21.0562 23.7927L11.0005 23.0078C7.93883 22.7689 5.26239 25.0477 5.02251 28.0976Z"
      fill="#67677B" stroke="#212130" stroke-width="0.467532" stroke-miterlimit="10" />
    <path
      d="M3.7993 48.5749C4.09466 46.684 4.43826 44.745 4.83208 42.7423C5.24755 40.6346 5.34797 40.1481 5.83334 38.1944L5.83925 38.1856C2.67694 38.0463 -0.0679332 37.0087 -0.483405 35.4247C-0.98847 33.5024 1.81941 30.2393 7.16049 28.7554C15.9622 34.7382 24.0944 30.0393 24.0944 30.0393L32.3566 30.665C33.8482 30.7748 34.1288 33.1621 34.5649 34.5881C34.6758 34.9601 34.7228 35.348 34.7037 35.7356C34.6941 35.9336 34.6681 36.1304 34.6259 36.3241C34.2469 38.0424 33.6414 37.8472 31.8791 37.7138C29.2688 38.4574 26.515 38.5503 23.8601 37.9845C24.0196 40.713 24.2175 42.8806 24.2726 44.2125"
      fill="#67677B" />
    <path
      d="M24.0965 30.0392C24.0965 30.0392 15.9653 34.7342 7.1626 28.7554C7.91545 28.1597 8.78864 27.7331 9.72238 27.5049C11.1998 29.2072 13.293 30.2583 15.5454 30.429C17.7978 30.5997 20.0266 29.8761 21.7455 28.416C22.6379 28.7812 23.44 29.335 24.0965 30.0392Z"
      fill="#67677B" stroke="#212130" stroke-width="0.467532" stroke-miterlimit="10" />
    <path
      d="M15.5508 30.4314C13.2989 30.2597 11.2063 29.2089 9.72827 27.5078C10.4109 27.3413 11.1156 27.283 11.8165 27.3351L19.7222 27.9314C20.4228 27.9848 21.1105 28.1476 21.7602 28.414C20.0407 29.8746 17.8109 30.5981 15.5577 30.4265L15.5508 30.4314Z"
      fill="#67677B" stroke="#212130" stroke-width="0.935065" stroke-miterlimit="10" />
    <path
      d="M27.0388 19.6372C26.8665 21.893 25.7235 25.0168 24.0016 26.4889L21.7745 28.3946L21.7509 28.4142C20.0318 29.8738 17.8032 30.5971 15.5509 30.4264C13.2987 30.2557 11.2055 29.2049 9.72782 27.5031L9.70715 27.4805L7.79519 25.261C7.0558 24.4028 6.52219 23.1592 6.19631 21.8479C5.87895 20.6 5.75674 19.3108 5.834 18.0258C5.96808 16.9188 6.27086 15.8387 6.73189 14.8226C8.85356 10.1777 13.5439 8.77516 13.9278 8.66825C15.0058 8.36699 16.1237 8.23204 17.2427 8.2681C18.3542 8.40061 19.4387 8.70227 20.4582 9.16256C20.8225 9.32733 25.246 11.4183 26.6371 16.3311C26.94 17.4062 27.0755 18.5212 27.0388 19.6372Z"
      fill="#67677B" stroke="#212130" stroke-width="0.467532" stroke-miterlimit="10" />
    <path
      d="M26.1833 19.2028C26.1981 18.393 26.0563 17.5878 25.7658 16.8313C24.416 13.2927 20.3342 11.7313 19.9984 11.6028C19.0455 11.2556 18.0537 11.0251 17.0449 10.9162C16.0295 10.8721 15.0125 10.9515 14.0164 11.1526C13.6659 11.2242 9.38914 12.1559 7.51853 15.4514C7.11665 16.1551 6.85427 16.9293 6.74568 17.7317C6.62261 19.3431 7.2724 21.6891 8.65173 22.9406L10.4377 24.5559C11.816 25.8064 13.7575 26.5979 15.8319 26.7548C17.9063 26.9127 19.9443 26.4233 21.4989 25.3945L23.5093 24.0635C25.0619 23.0347 26.0602 20.8133 26.1833 19.2028Z"
      fill="#212130" stroke="#212130" stroke-width="0.467532" stroke-miterlimit="10" />
    <path
      d="M21.7456 14.7677C21.3682 14.0978 24.5478 16.8626 24.4158 19.5039C24.2837 22.1451 22.5049 22.8228 22.5049 22.8228C22.5049 22.8228 24.9522 20.4503 21.7456 14.7677Z"
      fill="#303043" />
    <path
      d="M-1.55005 39.3449C-0.853985 29.7421 7.16305 28.7525 7.16305 28.7525C15.9648 34.7352 24.097 30.0363 24.097 30.0363C24.097 30.0363 29.4804 29.5577 30.972 35.616C32.4635 41.6742 30.7426 45.4453 30.7426 45.4453L20.6462 44.645L16.7612 38.4779L23.0553 35.1589L24.8915 39.7303L26.2334 37.249"
      stroke="#212130" stroke-width="0.467532" stroke-miterlimit="10" />
    <path
      d="M3.81209 32.393C4.21591 32.967 4.42652 33.6538 4.41364 34.3546C4.4038 34.8352 4.2384 35.5041 3.68214 35.6041C3.4488 35.6463 3.54824 35.9964 3.78059 35.9591C4.45598 35.8365 4.74248 35.0833 4.77792 34.4792C4.82033 33.6722 4.59284 32.874 4.13108 32.2096C3.9962 32.0135 3.67623 32.1998 3.81209 32.395L3.81209 32.393Z"
      fill="#212130" />
    <path
      d="M4.75422 34.1106C5.45051 34.0021 6.1111 33.7308 6.68193 33.3191C6.72322 33.2935 6.75308 33.2531 6.76535 33.2062C6.77762 33.1593 6.77137 33.1095 6.74789 33.067C6.72287 33.0251 6.68228 32.9947 6.63492 32.9824C6.58756 32.9701 6.53724 32.9769 6.49487 33.0013C5.95065 33.3948 5.32026 33.6537 4.65576 33.7565C4.6089 33.7698 4.56913 33.8009 4.54502 33.8431C4.5209 33.8852 4.51436 33.9352 4.52679 33.9821C4.54099 34.0284 4.57249 34.0676 4.6148 34.0915C4.6571 34.1154 4.707 34.1222 4.75422 34.1106Z"
      fill="#212130" />
  </g>
</svg>