<svg width="641" height="58" viewBox="0 0 641 58" fill="none" xmlns="http://www.w3.org/2000/svg">
<rect width="641" height="58" rx="16" />
<path opacity="0.3" fill-rule="evenodd" clip-rule="evenodd" d="M67.2281 8.29634C67.2281 8.1327 67.1115 8.00004 66.9677 8.00004C66.8239 8.00004 66.7073 8.1327 66.7073 8.29634C66.7073 8.45998 66.8239 8.59263 66.9677 8.59263C67.1115 8.59263 67.2281 8.45998 67.2281 8.29634ZM9.15519 9.18519C9.29902 9.18519 9.41561 9.31784 9.41561 9.48148C9.41561 9.64512 9.29902 9.77778 9.15519 9.77778C9.01137 9.77778 8.89478 9.64512 8.89478 9.48148C8.89478 9.31784 9.01137 9.18519 9.15519 9.18519ZM14.3636 21.037C14.5074 21.037 14.624 21.1697 14.624 21.3333C14.624 21.4969 14.5074 21.6296 14.3636 21.6296C14.2197 21.6296 14.1031 21.4969 14.1031 21.3333C14.1031 21.1697 14.2197 21.037 14.3636 21.037ZM17.2281 14.2222C17.2281 14.0585 17.1115 13.9259 16.9677 13.9259C16.8239 13.9259 16.7073 14.0585 16.7073 14.2222C16.7073 14.3858 16.8239 14.5185 16.9677 14.5185C17.1115 14.5185 17.2281 14.3858 17.2281 14.2222ZM14.8844 15.1112C15.0283 15.1112 15.1449 15.2438 15.1449 15.4074C15.1449 15.5711 15.0283 15.7037 14.8844 15.7037C14.7406 15.7037 14.624 15.5711 14.624 15.4074C14.624 15.2438 14.7406 15.1112 14.8844 15.1112ZM25.5615 21.3333C25.5615 21.1697 25.4449 21.037 25.3011 21.037C25.1572 21.037 25.0406 21.1697 25.0406 21.3333C25.0406 21.4969 25.1572 21.6296 25.3011 21.6296C25.4449 21.6296 25.5615 21.4969 25.5615 21.3333ZM40.9261 9.18519C41.0699 9.18519 41.1865 9.31784 41.1865 9.48148C41.1865 9.64512 41.0699 9.77778 40.9261 9.77778C40.7822 9.77778 40.6656 9.64512 40.6656 9.48148C40.6656 9.31784 40.7822 9.18519 40.9261 9.18519ZM98.2178 12.7407C98.3616 12.7407 98.4782 12.8734 98.4782 13.037C98.4782 13.2007 98.3616 13.3333 98.2178 13.3333C98.074 13.3333 97.9574 13.2007 97.9574 13.037C97.9574 12.8734 98.074 12.7407 98.2178 12.7407ZM103.686 20.1481C103.686 19.9845 103.57 19.8519 103.426 19.8519C103.282 19.8519 103.166 19.9845 103.166 20.1481C103.166 20.3118 103.282 20.4444 103.426 20.4444C103.57 20.4444 103.686 20.3118 103.686 20.1481ZM108.634 15.1112C108.778 15.1112 108.895 15.2438 108.895 15.4074C108.895 15.5711 108.778 15.7037 108.634 15.7037C108.491 15.7037 108.374 15.5711 108.374 15.4074C108.374 15.2438 108.491 15.1112 108.634 15.1112ZM93.2699 22.5186C93.2699 22.3549 93.1533 22.2223 93.0094 22.2223C92.8656 22.2223 92.749 22.3549 92.749 22.5186C92.749 22.6822 92.8656 22.8149 93.0094 22.8149C93.1533 22.8149 93.2699 22.6822 93.2699 22.5186ZM93.0094 9.77782C93.1533 9.77782 93.2699 9.91048 93.2699 10.0741C93.2699 10.2378 93.1533 10.3704 93.0094 10.3704C92.8656 10.3704 92.749 10.2378 92.749 10.0741C92.749 9.91048 92.8656 9.77782 93.0094 9.77782ZM77.6447 23.7037C77.6447 23.5401 77.5281 23.4074 77.3843 23.4074C77.2405 23.4074 77.1239 23.5401 77.1239 23.7037C77.1239 23.8673 77.2405 24 77.3843 24C77.5281 24 77.6447 23.8673 77.6447 23.7037ZM45.6134 21.6296C45.7573 21.6296 45.8739 21.7623 45.8739 21.9259C45.8739 22.0896 45.7573 22.2222 45.6134 22.2222C45.4696 22.2222 45.353 22.0896 45.353 21.9259C45.353 21.7623 45.4696 21.6296 45.6134 21.6296Z" fill="url(#paint1_linear_850_8428)"/>
<path opacity="0.3" fill-rule="evenodd" clip-rule="evenodd" d="M173.236 8.29634C173.236 8.1327 173.119 8.00004 172.976 8.00004C172.832 8.00004 172.715 8.1327 172.715 8.29634C172.715 8.45998 172.832 8.59263 172.976 8.59263C173.119 8.59263 173.236 8.45998 173.236 8.29634ZM115.163 9.18519C115.307 9.18519 115.424 9.31784 115.424 9.48148C115.424 9.64512 115.307 9.77778 115.163 9.77778C115.019 9.77778 114.903 9.64512 114.903 9.48148C114.903 9.31784 115.019 9.18519 115.163 9.18519ZM120.372 21.037C120.515 21.037 120.632 21.1697 120.632 21.3333C120.632 21.4969 120.515 21.6296 120.372 21.6296C120.228 21.6296 120.111 21.4969 120.111 21.3333C120.111 21.1697 120.228 21.037 120.372 21.037ZM123.236 14.2222C123.236 14.0585 123.119 13.9259 122.976 13.9259C122.832 13.9259 122.715 14.0585 122.715 14.2222C122.715 14.3858 122.832 14.5185 122.976 14.5185C123.119 14.5185 123.236 14.3858 123.236 14.2222ZM120.892 15.1112C121.036 15.1112 121.153 15.2438 121.153 15.4074C121.153 15.5711 121.036 15.7037 120.892 15.7037C120.749 15.7037 120.632 15.5711 120.632 15.4074C120.632 15.2438 120.749 15.1112 120.892 15.1112ZM131.569 21.3333C131.569 21.1697 131.453 21.037 131.309 21.037C131.165 21.037 131.049 21.1697 131.049 21.3333C131.049 21.4969 131.165 21.6296 131.309 21.6296C131.453 21.6296 131.569 21.4969 131.569 21.3333ZM146.934 9.18519C147.078 9.18519 147.194 9.31784 147.194 9.48148C147.194 9.64512 147.078 9.77778 146.934 9.77778C146.79 9.77778 146.674 9.64512 146.674 9.48148C146.674 9.31784 146.79 9.18519 146.934 9.18519ZM204.226 12.7407C204.37 12.7407 204.486 12.8734 204.486 13.037C204.486 13.2007 204.37 13.3333 204.226 13.3333C204.082 13.3333 203.965 13.2007 203.965 13.037C203.965 12.8734 204.082 12.7407 204.226 12.7407ZM209.694 20.1481C209.694 19.9845 209.578 19.8519 209.434 19.8519C209.29 19.8519 209.173 19.9845 209.173 20.1481C209.173 20.3118 209.29 20.4444 209.434 20.4444C209.578 20.4444 209.694 20.3118 209.694 20.1481ZM214.642 15.1112C214.786 15.1112 214.903 15.2438 214.903 15.4074C214.903 15.5711 214.786 15.7037 214.642 15.7037C214.499 15.7037 214.382 15.5711 214.382 15.4074C214.382 15.2438 214.499 15.1112 214.642 15.1112ZM199.278 22.5186C199.278 22.3549 199.161 22.2223 199.017 22.2223C198.874 22.2223 198.757 22.3549 198.757 22.5186C198.757 22.6822 198.874 22.8149 199.017 22.8149C199.161 22.8149 199.278 22.6822 199.278 22.5186ZM199.017 9.77782C199.161 9.77782 199.278 9.91048 199.278 10.0741C199.278 10.2378 199.161 10.3704 199.017 10.3704C198.874 10.3704 198.757 10.2378 198.757 10.0741C198.757 9.91048 198.874 9.77782 199.017 9.77782ZM183.653 23.7037C183.653 23.5401 183.536 23.4074 183.392 23.4074C183.249 23.4074 183.132 23.5401 183.132 23.7037C183.132 23.8673 183.249 24 183.392 24C183.536 24 183.653 23.8673 183.653 23.7037ZM151.621 21.6296C151.765 21.6296 151.882 21.7623 151.882 21.9259C151.882 22.0896 151.765 22.2222 151.621 22.2222C151.478 22.2222 151.361 22.0896 151.361 21.9259C151.361 21.7623 151.478 21.6296 151.621 21.6296Z" fill="url(#paint2_linear_850_8428)"/>
<path opacity="0.3" fill-rule="evenodd" clip-rule="evenodd" d="M279.244 8.29634C279.244 8.1327 279.127 8.00004 278.983 8.00004C278.84 8.00004 278.723 8.1327 278.723 8.29634C278.723 8.45998 278.84 8.59263 278.983 8.59263C279.127 8.59263 279.244 8.45998 279.244 8.29634ZM221.171 9.18519C221.315 9.18519 221.431 9.31784 221.431 9.48148C221.431 9.64512 221.315 9.77778 221.171 9.77778C221.027 9.77778 220.911 9.64512 220.911 9.48148C220.911 9.31784 221.027 9.18519 221.171 9.18519ZM226.379 21.037C226.523 21.037 226.64 21.1697 226.64 21.3333C226.64 21.4969 226.523 21.6296 226.379 21.6296C226.235 21.6296 226.119 21.4969 226.119 21.3333C226.119 21.1697 226.235 21.037 226.379 21.037ZM229.244 14.2222C229.244 14.0585 229.127 13.9259 228.983 13.9259C228.84 13.9259 228.723 14.0585 228.723 14.2222C228.723 14.3858 228.84 14.5185 228.983 14.5185C229.127 14.5185 229.244 14.3858 229.244 14.2222ZM226.9 15.1112C227.044 15.1112 227.161 15.2438 227.161 15.4074C227.161 15.5711 227.044 15.7037 226.9 15.7037C226.756 15.7037 226.64 15.5711 226.64 15.4074C226.64 15.2438 226.756 15.1112 226.9 15.1112ZM237.577 21.3333C237.577 21.1697 237.461 21.037 237.317 21.037C237.173 21.037 237.056 21.1697 237.056 21.3333C237.056 21.4969 237.173 21.6296 237.317 21.6296C237.461 21.6296 237.577 21.4969 237.577 21.3333ZM252.942 9.18519C253.086 9.18519 253.202 9.31784 253.202 9.48148C253.202 9.64512 253.086 9.77778 252.942 9.77778C252.798 9.77778 252.681 9.64512 252.681 9.48148C252.681 9.31784 252.798 9.18519 252.942 9.18519ZM310.233 12.7407C310.377 12.7407 310.494 12.8734 310.494 13.037C310.494 13.2007 310.377 13.3333 310.233 13.3333C310.09 13.3333 309.973 13.2007 309.973 13.037C309.973 12.8734 310.09 12.7407 310.233 12.7407ZM315.702 20.1481C315.702 19.9845 315.586 19.8519 315.442 19.8519C315.298 19.8519 315.181 19.9845 315.181 20.1481C315.181 20.3118 315.298 20.4444 315.442 20.4444C315.586 20.4444 315.702 20.3118 315.702 20.1481ZM320.65 15.1112C320.794 15.1112 320.911 15.2438 320.911 15.4074C320.911 15.5711 320.794 15.7037 320.65 15.7037C320.506 15.7037 320.39 15.5711 320.39 15.4074C320.39 15.2438 320.506 15.1112 320.65 15.1112ZM305.285 22.5186C305.285 22.3549 305.169 22.2223 305.025 22.2223C304.881 22.2223 304.765 22.3549 304.765 22.5186C304.765 22.6822 304.881 22.8149 305.025 22.8149C305.169 22.8149 305.285 22.6822 305.285 22.5186ZM305.025 9.77782C305.169 9.77782 305.285 9.91048 305.285 10.0741C305.285 10.2378 305.169 10.3704 305.025 10.3704C304.881 10.3704 304.765 10.2378 304.765 10.0741C304.765 9.91048 304.881 9.77782 305.025 9.77782ZM289.66 23.7037C289.66 23.5401 289.544 23.4074 289.4 23.4074C289.256 23.4074 289.14 23.5401 289.14 23.7037C289.14 23.8673 289.256 24 289.4 24C289.544 24 289.66 23.8673 289.66 23.7037ZM257.629 21.6296C257.773 21.6296 257.89 21.7623 257.89 21.9259C257.89 22.0896 257.773 22.2222 257.629 22.2222C257.485 22.2222 257.369 22.0896 257.369 21.9259C257.369 21.7623 257.485 21.6296 257.629 21.6296Z" fill="url(#paint3_linear_850_8428)"/>
<path opacity="0.3" fill-rule="evenodd" clip-rule="evenodd" d="M592.333 8.29634C592.333 8.1327 592.217 8.00004 592.073 8.00004C591.929 8.00004 591.812 8.1327 591.812 8.29634C591.812 8.45998 591.929 8.59263 592.073 8.59263C592.217 8.59263 592.333 8.45998 592.333 8.29634ZM534.26 9.18519C534.404 9.18519 534.521 9.31784 534.521 9.48148C534.521 9.64512 534.404 9.77778 534.26 9.77778C534.117 9.77778 534 9.64512 534 9.48148C534 9.31784 534.117 9.18519 534.26 9.18519ZM539.469 21.037C539.613 21.037 539.729 21.1697 539.729 21.3333C539.729 21.4969 539.613 21.6296 539.469 21.6296C539.325 21.6296 539.208 21.4969 539.208 21.3333C539.208 21.1697 539.325 21.037 539.469 21.037ZM542.333 14.2222C542.333 14.0585 542.217 13.9259 542.073 13.9259C541.929 13.9259 541.812 14.0585 541.812 14.2222C541.812 14.3858 541.929 14.5185 542.073 14.5185C542.217 14.5185 542.333 14.3858 542.333 14.2222ZM539.99 15.1112C540.133 15.1112 540.25 15.2438 540.25 15.4074C540.25 15.5711 540.133 15.7037 539.99 15.7037C539.846 15.7037 539.729 15.5711 539.729 15.4074C539.729 15.2438 539.846 15.1112 539.99 15.1112ZM550.667 21.3333C550.667 21.1697 550.55 21.037 550.406 21.037C550.262 21.037 550.146 21.1697 550.146 21.3333C550.146 21.4969 550.262 21.6296 550.406 21.6296C550.55 21.6296 550.667 21.4969 550.667 21.3333ZM566.031 9.18519C566.175 9.18519 566.292 9.31784 566.292 9.48148C566.292 9.64512 566.175 9.77778 566.031 9.77778C565.887 9.77778 565.771 9.64512 565.771 9.48148C565.771 9.31784 565.887 9.18519 566.031 9.18519ZM623.323 12.7407C623.467 12.7407 623.583 12.8734 623.583 13.037C623.583 13.2007 623.467 13.3333 623.323 13.3333C623.179 13.3333 623.062 13.2007 623.062 13.037C623.062 12.8734 623.179 12.7407 623.323 12.7407ZM628.792 20.1481C628.792 19.9845 628.675 19.8519 628.531 19.8519C628.387 19.8519 628.271 19.9845 628.271 20.1481C628.271 20.3118 628.387 20.4444 628.531 20.4444C628.675 20.4444 628.792 20.3118 628.792 20.1481ZM633.74 15.1112C633.883 15.1112 634 15.2438 634 15.4074C634 15.5711 633.883 15.7037 633.74 15.7037C633.596 15.7037 633.479 15.5711 633.479 15.4074C633.479 15.2438 633.596 15.1112 633.74 15.1112ZM618.375 22.5186C618.375 22.3549 618.258 22.2223 618.115 22.2223C617.971 22.2223 617.854 22.3549 617.854 22.5186C617.854 22.6822 617.971 22.8149 618.115 22.8149C618.258 22.8149 618.375 22.6822 618.375 22.5186ZM618.115 9.77782C618.258 9.77782 618.375 9.91048 618.375 10.0741C618.375 10.2378 618.258 10.3704 618.115 10.3704C617.971 10.3704 617.854 10.2378 617.854 10.0741C617.854 9.91048 617.971 9.77782 618.115 9.77782ZM602.75 23.7037C602.75 23.5401 602.633 23.4074 602.49 23.4074C602.346 23.4074 602.229 23.5401 602.229 23.7037C602.229 23.8673 602.346 24 602.49 24C602.633 24 602.75 23.8673 602.75 23.7037ZM570.719 21.6296C570.862 21.6296 570.979 21.7623 570.979 21.9259C570.979 22.0896 570.862 22.2222 570.719 22.2222C570.575 22.2222 570.458 22.0896 570.458 21.9259C570.458 21.7623 570.575 21.6296 570.719 21.6296Z" fill="url(#paint4_linear_850_8428)"/>
<path opacity="0.3" fill-rule="evenodd" clip-rule="evenodd" d="M385.252 8.29634C385.252 8.1327 385.135 8.00004 384.991 8.00004C384.847 8.00004 384.731 8.1327 384.731 8.29634C384.731 8.45998 384.847 8.59263 384.991 8.59263C385.135 8.59263 385.252 8.45998 385.252 8.29634ZM327.179 9.18519C327.323 9.18519 327.439 9.31784 327.439 9.48148C327.439 9.64512 327.323 9.77778 327.179 9.77778C327.035 9.77778 326.918 9.64512 326.918 9.48148C326.918 9.31784 327.035 9.18519 327.179 9.18519ZM332.387 21.037C332.531 21.037 332.648 21.1697 332.648 21.3333C332.648 21.4969 332.531 21.6296 332.387 21.6296C332.243 21.6296 332.127 21.4969 332.127 21.3333C332.127 21.1697 332.243 21.037 332.387 21.037ZM335.252 14.2222C335.252 14.0585 335.135 13.9259 334.991 13.9259C334.847 13.9259 334.731 14.0585 334.731 14.2222C334.731 14.3858 334.847 14.5185 334.991 14.5185C335.135 14.5185 335.252 14.3858 335.252 14.2222ZM332.908 15.1112C333.052 15.1112 333.168 15.2438 333.168 15.4074C333.168 15.5711 333.052 15.7037 332.908 15.7037C332.764 15.7037 332.648 15.5711 332.648 15.4074C332.648 15.2438 332.764 15.1112 332.908 15.1112ZM343.585 21.3333C343.585 21.1697 343.468 21.037 343.325 21.037C343.181 21.037 343.064 21.1697 343.064 21.3333C343.064 21.4969 343.181 21.6296 343.325 21.6296C343.468 21.6296 343.585 21.4969 343.585 21.3333ZM358.95 9.18519C359.093 9.18519 359.21 9.31784 359.21 9.48148C359.21 9.64512 359.093 9.77778 358.95 9.77778C358.806 9.77778 358.689 9.64512 358.689 9.48148C358.689 9.31784 358.806 9.18519 358.95 9.18519ZM416.241 12.7407C416.385 12.7407 416.502 12.8734 416.502 13.037C416.502 13.2007 416.385 13.3333 416.241 13.3333C416.098 13.3333 415.981 13.2007 415.981 13.037C415.981 12.8734 416.098 12.7407 416.241 12.7407ZM421.71 20.1481C421.71 19.9845 421.593 19.8519 421.45 19.8519C421.306 19.8519 421.189 19.9845 421.189 20.1481C421.189 20.3118 421.306 20.4444 421.45 20.4444C421.593 20.4444 421.71 20.3118 421.71 20.1481ZM426.658 15.1112C426.802 15.1112 426.918 15.2438 426.918 15.4074C426.918 15.5711 426.802 15.7037 426.658 15.7037C426.514 15.7037 426.398 15.5711 426.398 15.4074C426.398 15.2438 426.514 15.1112 426.658 15.1112ZM411.293 22.5186C411.293 22.3549 411.177 22.2223 411.033 22.2223C410.889 22.2223 410.773 22.3549 410.773 22.5186C410.773 22.6822 410.889 22.8149 411.033 22.8149C411.177 22.8149 411.293 22.6822 411.293 22.5186ZM411.033 9.77782C411.177 9.77782 411.293 9.91048 411.293 10.0741C411.293 10.2378 411.177 10.3704 411.033 10.3704C410.889 10.3704 410.773 10.2378 410.773 10.0741C410.773 9.91048 410.889 9.77782 411.033 9.77782ZM395.668 23.7037C395.668 23.5401 395.552 23.4074 395.408 23.4074C395.264 23.4074 395.148 23.5401 395.148 23.7037C395.148 23.8673 395.264 24 395.408 24C395.552 24 395.668 23.8673 395.668 23.7037ZM363.637 21.6296C363.781 21.6296 363.897 21.7623 363.897 21.9259C363.897 22.0896 363.781 22.2222 363.637 22.2222C363.493 22.2222 363.377 22.0896 363.377 21.9259C363.377 21.7623 363.493 21.6296 363.637 21.6296Z" fill="url(#paint5_linear_850_8428)"/>
<path opacity="0.3" fill-rule="evenodd" clip-rule="evenodd" d="M491.26 8.29634C491.26 8.1327 491.143 8.00004 490.999 8.00004C490.855 8.00004 490.739 8.1327 490.739 8.29634C490.739 8.45998 490.855 8.59263 490.999 8.59263C491.143 8.59263 491.26 8.45998 491.26 8.29634ZM433.187 9.18519C433.331 9.18519 433.447 9.31784 433.447 9.48148C433.447 9.64512 433.331 9.77778 433.187 9.77778C433.043 9.77778 432.926 9.64512 432.926 9.48148C432.926 9.31784 433.043 9.18519 433.187 9.18519ZM438.395 21.037C438.539 21.037 438.655 21.1697 438.655 21.3333C438.655 21.4969 438.539 21.6296 438.395 21.6296C438.251 21.6296 438.135 21.4969 438.135 21.3333C438.135 21.1697 438.251 21.037 438.395 21.037ZM441.26 14.2222C441.26 14.0585 441.143 13.9259 440.999 13.9259C440.855 13.9259 440.739 14.0585 440.739 14.2222C440.739 14.3858 440.855 14.5185 440.999 14.5185C441.143 14.5185 441.26 14.3858 441.26 14.2222ZM438.916 15.1112C439.06 15.1112 439.176 15.2438 439.176 15.4074C439.176 15.5711 439.06 15.7037 438.916 15.7037C438.772 15.7037 438.656 15.5711 438.656 15.4074C438.656 15.2438 438.772 15.1112 438.916 15.1112ZM449.593 21.3333C449.593 21.1697 449.476 21.037 449.333 21.037C449.189 21.037 449.072 21.1697 449.072 21.3333C449.072 21.4969 449.189 21.6296 449.333 21.6296C449.476 21.6296 449.593 21.4969 449.593 21.3333ZM464.958 9.18519C465.101 9.18519 465.218 9.31784 465.218 9.48148C465.218 9.64512 465.101 9.77778 464.958 9.77778C464.814 9.77778 464.697 9.64512 464.697 9.48148C464.697 9.31784 464.814 9.18519 464.958 9.18519ZM522.249 12.7407C522.393 12.7407 522.51 12.8734 522.51 13.037C522.51 13.2007 522.393 13.3333 522.249 13.3333C522.105 13.3333 521.989 13.2007 521.989 13.037C521.989 12.8734 522.105 12.7407 522.249 12.7407ZM527.718 20.1481C527.718 19.9845 527.601 19.8519 527.458 19.8519C527.314 19.8519 527.197 19.9845 527.197 20.1481C527.197 20.3118 527.314 20.4444 527.458 20.4444C527.601 20.4444 527.718 20.3118 527.718 20.1481ZM532.666 15.1112C532.81 15.1112 532.926 15.2438 532.926 15.4074C532.926 15.5711 532.81 15.7037 532.666 15.7037C532.522 15.7037 532.405 15.5711 532.405 15.4074C532.405 15.2438 532.522 15.1112 532.666 15.1112ZM517.301 22.5186C517.301 22.3549 517.185 22.2223 517.041 22.2223C516.897 22.2223 516.78 22.3549 516.78 22.5186C516.78 22.6822 516.897 22.8149 517.041 22.8149C517.185 22.8149 517.301 22.6822 517.301 22.5186ZM517.041 9.77782C517.185 9.77782 517.301 9.91048 517.301 10.0741C517.301 10.2378 517.185 10.3704 517.041 10.3704C516.897 10.3704 516.78 10.2378 516.78 10.0741C516.78 9.91048 516.897 9.77782 517.041 9.77782ZM501.676 23.7037C501.676 23.5401 501.56 23.4074 501.416 23.4074C501.272 23.4074 501.155 23.5401 501.155 23.7037C501.155 23.8673 501.272 24 501.416 24C501.56 24 501.676 23.8673 501.676 23.7037ZM469.645 21.6296C469.789 21.6296 469.905 21.7623 469.905 21.9259C469.905 22.0896 469.789 22.2222 469.645 22.2222C469.501 22.2222 469.385 22.0896 469.385 21.9259C469.385 21.7623 469.501 21.6296 469.645 21.6296Z" fill="url(#paint6_linear_850_8428)"/>
<path opacity="0.3" fill-rule="evenodd" clip-rule="evenodd" d="M67.2281 34.2963C67.2281 34.1327 67.1115 34 66.9677 34C66.8239 34 66.7073 34.1327 66.7073 34.2963C66.7073 34.46 66.8239 34.5926 66.9677 34.5926C67.1115 34.5926 67.2281 34.46 67.2281 34.2963ZM9.15519 35.1852C9.29902 35.1852 9.41561 35.3178 9.41561 35.4815C9.41561 35.6451 9.29902 35.7778 9.15519 35.7778C9.01137 35.7778 8.89478 35.6451 8.89478 35.4815C8.89478 35.3178 9.01137 35.1852 9.15519 35.1852ZM14.3636 47.037C14.5074 47.037 14.624 47.1697 14.624 47.3333C14.624 47.4969 14.5074 47.6296 14.3636 47.6296C14.2197 47.6296 14.1031 47.4969 14.1031 47.3333C14.1031 47.1697 14.2197 47.037 14.3636 47.037ZM17.2281 40.2222C17.2281 40.0585 17.1115 39.9259 16.9677 39.9259C16.8239 39.9259 16.7073 40.0585 16.7073 40.2222C16.7073 40.3858 16.8239 40.5185 16.9677 40.5185C17.1115 40.5185 17.2281 40.3858 17.2281 40.2222ZM14.8844 41.1112C15.0283 41.1112 15.1449 41.2438 15.1449 41.4074C15.1449 41.5711 15.0283 41.7037 14.8844 41.7037C14.7406 41.7037 14.624 41.5711 14.624 41.4074C14.624 41.2438 14.7406 41.1112 14.8844 41.1112ZM25.5615 47.3333C25.5615 47.1697 25.4449 47.037 25.3011 47.037C25.1572 47.037 25.0406 47.1697 25.0406 47.3333C25.0406 47.4969 25.1572 47.6296 25.3011 47.6296C25.4449 47.6296 25.5615 47.4969 25.5615 47.3333ZM40.9261 35.1852C41.0699 35.1852 41.1865 35.3178 41.1865 35.4815C41.1865 35.6451 41.0699 35.7778 40.9261 35.7778C40.7822 35.7778 40.6656 35.6451 40.6656 35.4815C40.6656 35.3178 40.7822 35.1852 40.9261 35.1852ZM98.2178 38.7407C98.3616 38.7407 98.4782 38.8734 98.4782 39.037C98.4782 39.2007 98.3616 39.3333 98.2178 39.3333C98.074 39.3333 97.9574 39.2007 97.9574 39.037C97.9574 38.8734 98.074 38.7407 98.2178 38.7407ZM103.686 46.1481C103.686 45.9845 103.57 45.8519 103.426 45.8519C103.282 45.8519 103.166 45.9845 103.166 46.1481C103.166 46.3118 103.282 46.4444 103.426 46.4444C103.57 46.4444 103.686 46.3118 103.686 46.1481ZM108.634 41.1112C108.778 41.1112 108.895 41.2438 108.895 41.4074C108.895 41.5711 108.778 41.7037 108.634 41.7037C108.491 41.7037 108.374 41.5711 108.374 41.4074C108.374 41.2438 108.491 41.1112 108.634 41.1112ZM93.2699 48.5186C93.2699 48.3549 93.1533 48.2223 93.0094 48.2223C92.8656 48.2223 92.749 48.3549 92.749 48.5186C92.749 48.6822 92.8656 48.8149 93.0094 48.8149C93.1533 48.8149 93.2699 48.6822 93.2699 48.5186ZM93.0094 35.7778C93.1533 35.7778 93.2699 35.9105 93.2699 36.0741C93.2699 36.2378 93.1533 36.3704 93.0094 36.3704C92.8656 36.3704 92.749 36.2378 92.749 36.0741C92.749 35.9105 92.8656 35.7778 93.0094 35.7778ZM77.6447 49.7037C77.6447 49.5401 77.5281 49.4074 77.3843 49.4074C77.2405 49.4074 77.1239 49.5401 77.1239 49.7037C77.1239 49.8673 77.2405 50 77.3843 50C77.5281 50 77.6447 49.8673 77.6447 49.7037ZM45.6134 47.6296C45.7573 47.6296 45.8739 47.7623 45.8739 47.9259C45.8739 48.0896 45.7573 48.2222 45.6134 48.2222C45.4696 48.2222 45.353 48.0896 45.353 47.9259C45.353 47.7623 45.4696 47.6296 45.6134 47.6296Z" fill="url(#paint7_linear_850_8428)"/>
<path opacity="0.3" fill-rule="evenodd" clip-rule="evenodd" d="M173.236 34.2963C173.236 34.1327 173.119 34 172.976 34C172.832 34 172.715 34.1327 172.715 34.2963C172.715 34.46 172.832 34.5926 172.976 34.5926C173.119 34.5926 173.236 34.46 173.236 34.2963ZM115.163 35.1852C115.307 35.1852 115.424 35.3178 115.424 35.4815C115.424 35.6451 115.307 35.7778 115.163 35.7778C115.019 35.7778 114.903 35.6451 114.903 35.4815C114.903 35.3178 115.019 35.1852 115.163 35.1852ZM120.372 47.037C120.515 47.037 120.632 47.1697 120.632 47.3333C120.632 47.4969 120.515 47.6296 120.372 47.6296C120.228 47.6296 120.111 47.4969 120.111 47.3333C120.111 47.1697 120.228 47.037 120.372 47.037ZM123.236 40.2222C123.236 40.0585 123.119 39.9259 122.976 39.9259C122.832 39.9259 122.715 40.0585 122.715 40.2222C122.715 40.3858 122.832 40.5185 122.976 40.5185C123.119 40.5185 123.236 40.3858 123.236 40.2222ZM120.892 41.1112C121.036 41.1112 121.153 41.2438 121.153 41.4074C121.153 41.5711 121.036 41.7037 120.892 41.7037C120.749 41.7037 120.632 41.5711 120.632 41.4074C120.632 41.2438 120.749 41.1112 120.892 41.1112ZM131.569 47.3333C131.569 47.1697 131.453 47.037 131.309 47.037C131.165 47.037 131.049 47.1697 131.049 47.3333C131.049 47.4969 131.165 47.6296 131.309 47.6296C131.453 47.6296 131.569 47.4969 131.569 47.3333ZM146.934 35.1852C147.078 35.1852 147.194 35.3178 147.194 35.4815C147.194 35.6451 147.078 35.7778 146.934 35.7778C146.79 35.7778 146.674 35.6451 146.674 35.4815C146.674 35.3178 146.79 35.1852 146.934 35.1852ZM204.226 38.7407C204.37 38.7407 204.486 38.8734 204.486 39.037C204.486 39.2007 204.37 39.3333 204.226 39.3333C204.082 39.3333 203.965 39.2007 203.965 39.037C203.965 38.8734 204.082 38.7407 204.226 38.7407ZM209.694 46.1481C209.694 45.9845 209.578 45.8519 209.434 45.8519C209.29 45.8519 209.173 45.9845 209.173 46.1481C209.173 46.3118 209.29 46.4444 209.434 46.4444C209.578 46.4444 209.694 46.3118 209.694 46.1481ZM214.642 41.1112C214.786 41.1112 214.903 41.2438 214.903 41.4074C214.903 41.5711 214.786 41.7037 214.642 41.7037C214.499 41.7037 214.382 41.5711 214.382 41.4074C214.382 41.2438 214.499 41.1112 214.642 41.1112ZM199.278 48.5186C199.278 48.3549 199.161 48.2223 199.017 48.2223C198.874 48.2223 198.757 48.3549 198.757 48.5186C198.757 48.6822 198.874 48.8149 199.017 48.8149C199.161 48.8149 199.278 48.6822 199.278 48.5186ZM199.017 35.7778C199.161 35.7778 199.278 35.9105 199.278 36.0741C199.278 36.2378 199.161 36.3704 199.017 36.3704C198.874 36.3704 198.757 36.2378 198.757 36.0741C198.757 35.9105 198.874 35.7778 199.017 35.7778ZM183.653 49.7037C183.653 49.5401 183.536 49.4074 183.392 49.4074C183.249 49.4074 183.132 49.5401 183.132 49.7037C183.132 49.8673 183.249 50 183.392 50C183.536 50 183.653 49.8673 183.653 49.7037ZM151.621 47.6296C151.765 47.6296 151.882 47.7623 151.882 47.9259C151.882 48.0896 151.765 48.2222 151.621 48.2222C151.478 48.2222 151.361 48.0896 151.361 47.9259C151.361 47.7623 151.478 47.6296 151.621 47.6296Z" fill="url(#paint8_linear_850_8428)"/>
<path opacity="0.3" fill-rule="evenodd" clip-rule="evenodd" d="M279.244 34.2963C279.244 34.1327 279.127 34 278.983 34C278.84 34 278.723 34.1327 278.723 34.2963C278.723 34.46 278.84 34.5926 278.983 34.5926C279.127 34.5926 279.244 34.46 279.244 34.2963ZM221.171 35.1852C221.315 35.1852 221.431 35.3178 221.431 35.4815C221.431 35.6451 221.315 35.7778 221.171 35.7778C221.027 35.7778 220.911 35.6451 220.911 35.4815C220.911 35.3178 221.027 35.1852 221.171 35.1852ZM226.379 47.037C226.523 47.037 226.64 47.1697 226.64 47.3333C226.64 47.4969 226.523 47.6296 226.379 47.6296C226.235 47.6296 226.119 47.4969 226.119 47.3333C226.119 47.1697 226.235 47.037 226.379 47.037ZM229.244 40.2222C229.244 40.0585 229.127 39.9259 228.983 39.9259C228.84 39.9259 228.723 40.0585 228.723 40.2222C228.723 40.3858 228.84 40.5185 228.983 40.5185C229.127 40.5185 229.244 40.3858 229.244 40.2222ZM226.9 41.1112C227.044 41.1112 227.161 41.2438 227.161 41.4074C227.161 41.5711 227.044 41.7037 226.9 41.7037C226.756 41.7037 226.64 41.5711 226.64 41.4074C226.64 41.2438 226.756 41.1112 226.9 41.1112ZM237.577 47.3333C237.577 47.1697 237.461 47.037 237.317 47.037C237.173 47.037 237.056 47.1697 237.056 47.3333C237.056 47.4969 237.173 47.6296 237.317 47.6296C237.461 47.6296 237.577 47.4969 237.577 47.3333ZM252.942 35.1852C253.086 35.1852 253.202 35.3178 253.202 35.4815C253.202 35.6451 253.086 35.7778 252.942 35.7778C252.798 35.7778 252.681 35.6451 252.681 35.4815C252.681 35.3178 252.798 35.1852 252.942 35.1852ZM310.233 38.7407C310.377 38.7407 310.494 38.8734 310.494 39.037C310.494 39.2007 310.377 39.3333 310.233 39.3333C310.09 39.3333 309.973 39.2007 309.973 39.037C309.973 38.8734 310.09 38.7407 310.233 38.7407ZM315.702 46.1481C315.702 45.9845 315.586 45.8519 315.442 45.8519C315.298 45.8519 315.181 45.9845 315.181 46.1481C315.181 46.3118 315.298 46.4444 315.442 46.4444C315.586 46.4444 315.702 46.3118 315.702 46.1481ZM320.65 41.1112C320.794 41.1112 320.911 41.2438 320.911 41.4074C320.911 41.5711 320.794 41.7037 320.65 41.7037C320.506 41.7037 320.39 41.5711 320.39 41.4074C320.39 41.2438 320.506 41.1112 320.65 41.1112ZM305.285 48.5186C305.285 48.3549 305.169 48.2223 305.025 48.2223C304.881 48.2223 304.765 48.3549 304.765 48.5186C304.765 48.6822 304.881 48.8149 305.025 48.8149C305.169 48.8149 305.285 48.6822 305.285 48.5186ZM305.025 35.7778C305.169 35.7778 305.285 35.9105 305.285 36.0741C305.285 36.2378 305.169 36.3704 305.025 36.3704C304.881 36.3704 304.765 36.2378 304.765 36.0741C304.765 35.9105 304.881 35.7778 305.025 35.7778ZM289.66 49.7037C289.66 49.5401 289.544 49.4074 289.4 49.4074C289.256 49.4074 289.14 49.5401 289.14 49.7037C289.14 49.8673 289.256 50 289.4 50C289.544 50 289.66 49.8673 289.66 49.7037ZM257.629 47.6296C257.773 47.6296 257.89 47.7623 257.89 47.9259C257.89 48.0896 257.773 48.2222 257.629 48.2222C257.485 48.2222 257.369 48.0896 257.369 47.9259C257.369 47.7623 257.485 47.6296 257.629 47.6296Z" fill="url(#paint9_linear_850_8428)"/>
<path opacity="0.3" fill-rule="evenodd" clip-rule="evenodd" d="M592.333 34.2963C592.333 34.1327 592.217 34 592.073 34C591.929 34 591.812 34.1327 591.812 34.2963C591.812 34.46 591.929 34.5926 592.073 34.5926C592.217 34.5926 592.333 34.46 592.333 34.2963ZM534.26 35.1852C534.404 35.1852 534.521 35.3178 534.521 35.4815C534.521 35.6451 534.404 35.7778 534.26 35.7778C534.117 35.7778 534 35.6451 534 35.4815C534 35.3178 534.117 35.1852 534.26 35.1852ZM539.469 47.037C539.613 47.037 539.729 47.1697 539.729 47.3333C539.729 47.4969 539.613 47.6296 539.469 47.6296C539.325 47.6296 539.208 47.4969 539.208 47.3333C539.208 47.1697 539.325 47.037 539.469 47.037ZM542.333 40.2222C542.333 40.0585 542.217 39.9259 542.073 39.9259C541.929 39.9259 541.812 40.0585 541.812 40.2222C541.812 40.3858 541.929 40.5185 542.073 40.5185C542.217 40.5185 542.333 40.3858 542.333 40.2222ZM539.99 41.1112C540.133 41.1112 540.25 41.2438 540.25 41.4074C540.25 41.5711 540.133 41.7037 539.99 41.7037C539.846 41.7037 539.729 41.5711 539.729 41.4074C539.729 41.2438 539.846 41.1112 539.99 41.1112ZM550.667 47.3333C550.667 47.1697 550.55 47.037 550.406 47.037C550.262 47.037 550.146 47.1697 550.146 47.3333C550.146 47.4969 550.262 47.6296 550.406 47.6296C550.55 47.6296 550.667 47.4969 550.667 47.3333ZM566.031 35.1852C566.175 35.1852 566.292 35.3178 566.292 35.4815C566.292 35.6451 566.175 35.7778 566.031 35.7778C565.887 35.7778 565.771 35.6451 565.771 35.4815C565.771 35.3178 565.887 35.1852 566.031 35.1852ZM623.323 38.7407C623.467 38.7407 623.583 38.8734 623.583 39.037C623.583 39.2007 623.467 39.3333 623.323 39.3333C623.179 39.3333 623.062 39.2007 623.062 39.037C623.062 38.8734 623.179 38.7407 623.323 38.7407ZM628.792 46.1481C628.792 45.9845 628.675 45.8519 628.531 45.8519C628.387 45.8519 628.271 45.9845 628.271 46.1481C628.271 46.3118 628.387 46.4444 628.531 46.4444C628.675 46.4444 628.792 46.3118 628.792 46.1481ZM633.74 41.1112C633.883 41.1112 634 41.2438 634 41.4074C634 41.5711 633.883 41.7037 633.74 41.7037C633.596 41.7037 633.479 41.5711 633.479 41.4074C633.479 41.2438 633.596 41.1112 633.74 41.1112ZM618.375 48.5186C618.375 48.3549 618.258 48.2223 618.115 48.2223C617.971 48.2223 617.854 48.3549 617.854 48.5186C617.854 48.6822 617.971 48.8149 618.115 48.8149C618.258 48.8149 618.375 48.6822 618.375 48.5186ZM618.115 35.7778C618.258 35.7778 618.375 35.9105 618.375 36.0741C618.375 36.2378 618.258 36.3704 618.115 36.3704C617.971 36.3704 617.854 36.2378 617.854 36.0741C617.854 35.9105 617.971 35.7778 618.115 35.7778ZM602.75 49.7037C602.75 49.5401 602.633 49.4074 602.49 49.4074C602.346 49.4074 602.229 49.5401 602.229 49.7037C602.229 49.8673 602.346 50 602.49 50C602.633 50 602.75 49.8673 602.75 49.7037ZM570.719 47.6296C570.862 47.6296 570.979 47.7623 570.979 47.9259C570.979 48.0896 570.862 48.2222 570.719 48.2222C570.575 48.2222 570.458 48.0896 570.458 47.9259C570.458 47.7623 570.575 47.6296 570.719 47.6296Z" fill="url(#paint10_linear_850_8428)"/>
<path opacity="0.3" fill-rule="evenodd" clip-rule="evenodd" d="M385.252 34.2963C385.252 34.1327 385.135 34 384.991 34C384.847 34 384.731 34.1327 384.731 34.2963C384.731 34.46 384.847 34.5926 384.991 34.5926C385.135 34.5926 385.252 34.46 385.252 34.2963ZM327.179 35.1852C327.323 35.1852 327.439 35.3178 327.439 35.4815C327.439 35.6451 327.323 35.7778 327.179 35.7778C327.035 35.7778 326.918 35.6451 326.918 35.4815C326.918 35.3178 327.035 35.1852 327.179 35.1852ZM332.387 47.037C332.531 47.037 332.648 47.1697 332.648 47.3333C332.648 47.4969 332.531 47.6296 332.387 47.6296C332.243 47.6296 332.127 47.4969 332.127 47.3333C332.127 47.1697 332.243 47.037 332.387 47.037ZM335.252 40.2222C335.252 40.0585 335.135 39.9259 334.991 39.9259C334.847 39.9259 334.731 40.0585 334.731 40.2222C334.731 40.3858 334.847 40.5185 334.991 40.5185C335.135 40.5185 335.252 40.3858 335.252 40.2222ZM332.908 41.1112C333.052 41.1112 333.168 41.2438 333.168 41.4074C333.168 41.5711 333.052 41.7037 332.908 41.7037C332.764 41.7037 332.648 41.5711 332.648 41.4074C332.648 41.2438 332.764 41.1112 332.908 41.1112ZM343.585 47.3333C343.585 47.1697 343.468 47.037 343.325 47.037C343.181 47.037 343.064 47.1697 343.064 47.3333C343.064 47.4969 343.181 47.6296 343.325 47.6296C343.468 47.6296 343.585 47.4969 343.585 47.3333ZM358.95 35.1852C359.093 35.1852 359.21 35.3178 359.21 35.4815C359.21 35.6451 359.093 35.7778 358.95 35.7778C358.806 35.7778 358.689 35.6451 358.689 35.4815C358.689 35.3178 358.806 35.1852 358.95 35.1852ZM416.241 38.7407C416.385 38.7407 416.502 38.8734 416.502 39.037C416.502 39.2007 416.385 39.3333 416.241 39.3333C416.098 39.3333 415.981 39.2007 415.981 39.037C415.981 38.8734 416.098 38.7407 416.241 38.7407ZM421.71 46.1481C421.71 45.9845 421.593 45.8519 421.45 45.8519C421.306 45.8519 421.189 45.9845 421.189 46.1481C421.189 46.3118 421.306 46.4444 421.45 46.4444C421.593 46.4444 421.71 46.3118 421.71 46.1481ZM426.658 41.1112C426.802 41.1112 426.918 41.2438 426.918 41.4074C426.918 41.5711 426.802 41.7037 426.658 41.7037C426.514 41.7037 426.398 41.5711 426.398 41.4074C426.398 41.2438 426.514 41.1112 426.658 41.1112ZM411.293 48.5186C411.293 48.3549 411.177 48.2223 411.033 48.2223C410.889 48.2223 410.773 48.3549 410.773 48.5186C410.773 48.6822 410.889 48.8149 411.033 48.8149C411.177 48.8149 411.293 48.6822 411.293 48.5186ZM411.033 35.7778C411.177 35.7778 411.293 35.9105 411.293 36.0741C411.293 36.2378 411.177 36.3704 411.033 36.3704C410.889 36.3704 410.773 36.2378 410.773 36.0741C410.773 35.9105 410.889 35.7778 411.033 35.7778ZM395.668 49.7037C395.668 49.5401 395.552 49.4074 395.408 49.4074C395.264 49.4074 395.148 49.5401 395.148 49.7037C395.148 49.8673 395.264 50 395.408 50C395.552 50 395.668 49.8673 395.668 49.7037ZM363.637 47.6296C363.781 47.6296 363.897 47.7623 363.897 47.9259C363.897 48.0896 363.781 48.2222 363.637 48.2222C363.493 48.2222 363.377 48.0896 363.377 47.9259C363.377 47.7623 363.493 47.6296 363.637 47.6296Z" fill="url(#paint11_linear_850_8428)"/>
<path opacity="0.3" fill-rule="evenodd" clip-rule="evenodd" d="M491.26 34.2963C491.26 34.1327 491.143 34 490.999 34C490.855 34 490.739 34.1327 490.739 34.2963C490.739 34.46 490.855 34.5926 490.999 34.5926C491.143 34.5926 491.26 34.46 491.26 34.2963ZM433.187 35.1852C433.331 35.1852 433.447 35.3178 433.447 35.4815C433.447 35.6451 433.331 35.7778 433.187 35.7778C433.043 35.7778 432.926 35.6451 432.926 35.4815C432.926 35.3178 433.043 35.1852 433.187 35.1852ZM438.395 47.037C438.539 47.037 438.655 47.1697 438.655 47.3333C438.655 47.4969 438.539 47.6296 438.395 47.6296C438.251 47.6296 438.135 47.4969 438.135 47.3333C438.135 47.1697 438.251 47.037 438.395 47.037ZM441.26 40.2222C441.26 40.0585 441.143 39.9259 440.999 39.9259C440.855 39.9259 440.739 40.0585 440.739 40.2222C440.739 40.3858 440.855 40.5185 440.999 40.5185C441.143 40.5185 441.26 40.3858 441.26 40.2222ZM438.916 41.1112C439.06 41.1112 439.176 41.2438 439.176 41.4074C439.176 41.5711 439.06 41.7037 438.916 41.7037C438.772 41.7037 438.656 41.5711 438.656 41.4074C438.656 41.2438 438.772 41.1112 438.916 41.1112ZM449.593 47.3333C449.593 47.1697 449.476 47.037 449.333 47.037C449.189 47.037 449.072 47.1697 449.072 47.3333C449.072 47.4969 449.189 47.6296 449.333 47.6296C449.476 47.6296 449.593 47.4969 449.593 47.3333ZM464.958 35.1852C465.101 35.1852 465.218 35.3178 465.218 35.4815C465.218 35.6451 465.101 35.7778 464.958 35.7778C464.814 35.7778 464.697 35.6451 464.697 35.4815C464.697 35.3178 464.814 35.1852 464.958 35.1852ZM522.249 38.7407C522.393 38.7407 522.51 38.8734 522.51 39.037C522.51 39.2007 522.393 39.3333 522.249 39.3333C522.105 39.3333 521.989 39.2007 521.989 39.037C521.989 38.8734 522.105 38.7407 522.249 38.7407ZM527.718 46.1481C527.718 45.9845 527.601 45.8519 527.458 45.8519C527.314 45.8519 527.197 45.9845 527.197 46.1481C527.197 46.3118 527.314 46.4444 527.458 46.4444C527.601 46.4444 527.718 46.3118 527.718 46.1481ZM532.666 41.1112C532.81 41.1112 532.926 41.2438 532.926 41.4074C532.926 41.5711 532.81 41.7037 532.666 41.7037C532.522 41.7037 532.405 41.5711 532.405 41.4074C532.405 41.2438 532.522 41.1112 532.666 41.1112ZM517.301 48.5186C517.301 48.3549 517.185 48.2223 517.041 48.2223C516.897 48.2223 516.78 48.3549 516.78 48.5186C516.78 48.6822 516.897 48.8149 517.041 48.8149C517.185 48.8149 517.301 48.6822 517.301 48.5186ZM517.041 35.7778C517.185 35.7778 517.301 35.9105 517.301 36.0741C517.301 36.2378 517.185 36.3704 517.041 36.3704C516.897 36.3704 516.78 36.2378 516.78 36.0741C516.78 35.9105 516.897 35.7778 517.041 35.7778ZM501.676 49.7037C501.676 49.5401 501.56 49.4074 501.416 49.4074C501.272 49.4074 501.155 49.5401 501.155 49.7037C501.155 49.8673 501.272 50 501.416 50C501.56 50 501.676 49.8673 501.676 49.7037ZM469.645 47.6296C469.789 47.6296 469.905 47.7623 469.905 47.9259C469.905 48.0896 469.789 48.2222 469.645 48.2222C469.501 48.2222 469.385 48.0896 469.385 47.9259C469.385 47.7623 469.501 47.6296 469.645 47.6296Z" fill="url(#paint12_linear_850_8428)"/>
<defs>
<linearGradient id="paint0_linear_850_8428" x1="641" y1="29" x2="7.12334e-07" y2="29" gradientUnits="userSpaceOnUse">
<stop stop-color="#0C0C17"/>
<stop offset="1" stop-color="#161623"/>
</linearGradient>
<linearGradient id="paint1_linear_850_8428" x1="2.95072" y1="16" x2="119.262" y2="33.1378" gradientUnits="userSpaceOnUse">
<stop stop-color="#4BF2A2"/>
<stop offset="0.522948" stop-color="#A89FE7"/>
<stop offset="0.669499" stop-color="#E1C4F4"/>
<stop offset="1" stop-color="#DD40CD"/>
<stop offset="1" stop-color="#DD40CD"/>
</linearGradient>
<linearGradient id="paint2_linear_850_8428" x1="108.959" y1="16" x2="225.27" y2="33.1378" gradientUnits="userSpaceOnUse">
<stop stop-color="#4BF2A2"/>
<stop offset="0.522948" stop-color="#A89FE7"/>
<stop offset="0.669499" stop-color="#E1C4F4"/>
<stop offset="1" stop-color="#DD40CD"/>
<stop offset="1" stop-color="#DD40CD"/>
</linearGradient>
<linearGradient id="paint3_linear_850_8428" x1="214.966" y1="16" x2="331.278" y2="33.1378" gradientUnits="userSpaceOnUse">
<stop stop-color="#4BF2A2"/>
<stop offset="0.522948" stop-color="#A89FE7"/>
<stop offset="0.669499" stop-color="#E1C4F4"/>
<stop offset="1" stop-color="#DD40CD"/>
<stop offset="1" stop-color="#DD40CD"/>
</linearGradient>
<linearGradient id="paint4_linear_850_8428" x1="528.056" y1="16" x2="644.367" y2="33.1378" gradientUnits="userSpaceOnUse">
<stop stop-color="#4BF2A2"/>
<stop offset="0.522948" stop-color="#A89FE7"/>
<stop offset="0.669499" stop-color="#E1C4F4"/>
<stop offset="1" stop-color="#DD40CD"/>
<stop offset="1" stop-color="#DD40CD"/>
</linearGradient>
<linearGradient id="paint5_linear_850_8428" x1="320.974" y1="16" x2="437.286" y2="33.1378" gradientUnits="userSpaceOnUse">
<stop stop-color="#4BF2A2"/>
<stop offset="0.522948" stop-color="#A89FE7"/>
<stop offset="0.669499" stop-color="#E1C4F4"/>
<stop offset="1" stop-color="#DD40CD"/>
<stop offset="1" stop-color="#DD40CD"/>
</linearGradient>
<linearGradient id="paint6_linear_850_8428" x1="426.982" y1="16" x2="543.294" y2="33.1378" gradientUnits="userSpaceOnUse">
<stop stop-color="#4BF2A2"/>
<stop offset="0.522948" stop-color="#A89FE7"/>
<stop offset="0.669499" stop-color="#E1C4F4"/>
<stop offset="1" stop-color="#DD40CD"/>
<stop offset="1" stop-color="#DD40CD"/>
</linearGradient>
<linearGradient id="paint7_linear_850_8428" x1="2.95072" y1="42" x2="119.262" y2="59.1378" gradientUnits="userSpaceOnUse">
<stop stop-color="#4BF2A2"/>
<stop offset="0.522948" stop-color="#A89FE7"/>
<stop offset="0.669499" stop-color="#E1C4F4"/>
<stop offset="1" stop-color="#DD40CD"/>
<stop offset="1" stop-color="#DD40CD"/>
</linearGradient>
<linearGradient id="paint8_linear_850_8428" x1="108.959" y1="42" x2="225.27" y2="59.1378" gradientUnits="userSpaceOnUse">
<stop stop-color="#4BF2A2"/>
<stop offset="0.522948" stop-color="#A89FE7"/>
<stop offset="0.669499" stop-color="#E1C4F4"/>
<stop offset="1" stop-color="#DD40CD"/>
<stop offset="1" stop-color="#DD40CD"/>
</linearGradient>
<linearGradient id="paint9_linear_850_8428" x1="214.966" y1="42" x2="331.278" y2="59.1378" gradientUnits="userSpaceOnUse">
<stop stop-color="#4BF2A2"/>
<stop offset="0.522948" stop-color="#A89FE7"/>
<stop offset="0.669499" stop-color="#E1C4F4"/>
<stop offset="1" stop-color="#DD40CD"/>
<stop offset="1" stop-color="#DD40CD"/>
</linearGradient>
<linearGradient id="paint10_linear_850_8428" x1="528.056" y1="42" x2="644.367" y2="59.1378" gradientUnits="userSpaceOnUse">
<stop stop-color="#4BF2A2"/>
<stop offset="0.522948" stop-color="#A89FE7"/>
<stop offset="0.669499" stop-color="#E1C4F4"/>
<stop offset="1" stop-color="#DD40CD"/>
<stop offset="1" stop-color="#DD40CD"/>
</linearGradient>
<linearGradient id="paint11_linear_850_8428" x1="320.974" y1="42" x2="437.286" y2="59.1378" gradientUnits="userSpaceOnUse">
<stop stop-color="#4BF2A2"/>
<stop offset="0.522948" stop-color="#A89FE7"/>
<stop offset="0.669499" stop-color="#E1C4F4"/>
<stop offset="1" stop-color="#DD40CD"/>
<stop offset="1" stop-color="#DD40CD"/>
</linearGradient>
<linearGradient id="paint12_linear_850_8428" x1="426.982" y1="42" x2="543.294" y2="59.1378" gradientUnits="userSpaceOnUse">
<stop stop-color="#4BF2A2"/>
<stop offset="0.522948" stop-color="#A89FE7"/>
<stop offset="0.669499" stop-color="#E1C4F4"/>
<stop offset="1" stop-color="#DD40CD"/>
<stop offset="1" stop-color="#DD40CD"/>
</linearGradient>
</defs>
</svg>
