<?xml version="1.0" encoding="UTF-8"?>
<svg id="Layer_1" data-name="Layer 1" xmlns="http://www.w3.org/2000/svg" viewBox="0 0 400 400">
  <defs>
    <style>
      .cls-1 {
        fill: #779cf8;
      }

      .cls-1,
      .cls-2 {
        stroke-width: 0px;
      }

      .cls-2,
      .cls-3 {
        fill: #fff;
      }

      .cls-3 {
        font-family: SourceSansRoman-Semibold, 'Source Sans Variable';
        font-size: 58.28px;
        font-variation-settings: 'wght'600;
        font-weight: 600;
      }
    </style>
  </defs>
  <g>
    <path class="cls-1"
      d="m249.13,326.69c-70.83-.09-127.87-57.81-127.71-129.24.16-70.43,57.97-127.44,129.1-127.32,70.48.13,127.57,57.91,127.45,128.97-.12,70.57-57.79,127.68-128.84,127.58Zm69.49-98.97c1.19-2.25,1.96-3.56,2.59-4.93,4.82-10.39,5.03-21.42,4.15-32.49-1.42-17.88-9.12-32.31-24.15-42.58-8.82-6.03-17.51-12.24-26.29-18.34-6.5-4.52-13.04-8.98-19.56-13.47-.25,1.41.14,2.14.59,2.83,12,18.32,24.5,36.34,35.87,55.05,10.25,16.87,23.84,32.18,26.8,53.93Zm-138.71-57.75c-1.23,3.05-3.13,6.01-3.56,9.17-1.16,8.58-2.54,17.27-2.28,25.87.54,18.11,8.14,32.9,23.26,43.44,14.16,9.87,28.28,19.77,42.45,29.63,1.06.74,2.31,1.2,4.86,2.5-1.7-2.83-2.54-4.33-3.48-5.77-11.86-18.17-24.21-36.05-35.47-54.6-9.67-15.93-22.46-30.43-25.78-50.24Zm19.82,21.87c15.23-25.17,30.32-50.11,45.41-75.05-2.31.12-3.81.95-5.2,1.91-12.42,8.63-24.41,17.97-37.33,25.75-15.17,9.14-16.22,32.83-2.87,47.38Zm54.52,88.17c.27.27.55.53.82.8,1.45-.88,2.94-1.69,4.33-2.66,12.27-8.53,24.01-17.96,36.91-25.4,15.45-8.91,16.35-34.05,3.31-47.81-15.21,25.16-30.29,50.11-45.37,75.07Z" />
    <path class="cls-2"
      d="m318.62,227.72c-2.96-21.75-16.55-37.06-26.8-53.93-11.36-18.71-23.87-36.73-35.87-55.05-.45-.69-.84-1.42-.59-2.83,6.52,4.49,13.06,8.96,19.56,13.47,8.77,6.1,17.46,12.32,26.29,18.34,15.03,10.26,22.73,24.7,24.15,42.58.88,11.07.67,22.1-4.15,32.49-.64,1.37-1.4,2.68-2.59,4.93Z" />
    <path class="cls-2"
      d="m179.91,169.98c3.32,19.81,16.11,34.31,25.78,50.24,11.26,18.54,23.61,36.42,35.47,54.6.94,1.44,1.78,2.94,3.48,5.77-2.55-1.3-3.8-1.77-4.86-2.5-14.16-9.85-28.29-19.76-42.45-29.63-15.12-10.54-22.72-25.33-23.26-43.44-.26-8.6,1.13-17.29,2.28-25.87.43-3.16,2.33-6.12,3.56-9.17Z" />
    <path class="cls-2"
      d="m199.73,191.85c-13.35-14.56-12.3-38.25,2.87-47.38,12.93-7.78,24.91-17.12,37.33-25.75,1.4-.97,2.89-1.8,5.2-1.91-15.09,24.94-30.18,49.87-45.41,75.05Z" />
    <path class="cls-2"
      d="m254.25,280.02c15.08-24.95,30.17-49.91,45.37-75.07,13.05,13.76,12.14,38.9-3.31,47.81-12.9,7.44-24.64,16.87-36.91,25.4-1.39.97-2.88,1.78-4.33,2.66-.27-.27-.55-.53-.82-.8Z" />
  </g>
</svg>