<?xml version="1.0" encoding="UTF-8"?>
<svg id="Layer_1" data-name="Layer 1" xmlns="http://www.w3.org/2000/svg" viewBox="0 0 400 400">
  <defs>
    <style>
      .cls-1 {
        fill: #fefefe;
      }

      .cls-1,
      .cls-2,
      .cls-3,
      .cls-4 {
        stroke-width: 0px;
      }

      .cls-2 {
        fill: #fdfefe;
      }

      .cls-5 {
        fill: #fff;
        font-family: SourceSansRoman-Semibold, 'Source Sans Variable';
        font-size: 60.15px;
        font-variation-settings: 'wght'600;
        font-weight: 600;
      }

      .cls-3 {
        fill: #03e1ac;
      }

      .cls-4 {
        fill: #0e0333;
      }
    </style>
  </defs>
  <g>
    <path class="cls-4"
      d="m254.46,335.15h-10.1c-.14-.04-.27-.12-.41-.13-5.78-.23-11.52-.85-17.22-1.82-7.87-1.34-15.57-3.35-23.08-6.06-15.12-5.44-28.89-13.28-41.25-23.55-12.27-10.21-22.47-22.19-30.51-35.97-11.02-18.88-17.19-39.25-18.49-61.08-.05-.91-.16-1.82-.25-2.73,0-3.46,0-6.92,0-10.38.04-.14.12-.28.12-.42.3-7.44,1.22-14.81,2.73-22.1,2.72-13.13,7.27-25.6,13.68-37.38,10.37-19.05,24.47-34.76,42.27-47.14,10.92-7.59,22.72-13.43,35.36-17.55,11.22-3.66,22.73-5.85,34.52-6.51.89-.05,1.77-.16,2.66-.24,3.41,0,6.83,0,10.24,0,.12.04.23.11.35.12,4.21.37,8.44.62,12.63,1.11,7.28.85,14.41,2.47,21.41,4.59,18.9,5.73,35.79,15.09,50.63,28.12,13.6,11.93,24.4,26.03,32.39,42.26,8.14,16.55,12.75,34.04,13.82,52.46.06.98.16,1.96.24,2.94v9.56c-.04.17-.1.33-.11.5-.14,2.18-.24,4.36-.41,6.54-.61,7.63-1.91,15.14-3.84,22.54-5.75,21.99-16.29,41.4-31.65,58.16-12.06,13.16-26.2,23.54-42.35,31.14-15.92,7.49-32.67,11.76-50.24,12.77-1.05.06-2.1.16-3.15.25Zm-4.78-16.85c66.18-.16,119.62-53.37,119.64-119.65.02-66.22-53.35-119.68-119.64-119.67-66.21,0-119.62,53.35-119.64,119.61-.02,66.19,53.31,119.52,119.64,119.71Z" />
    <path class="cls-1"
      d="m249.68,318.29c-66.33-.19-119.66-53.53-119.64-119.71.02-66.26,53.44-119.6,119.64-119.61,66.29,0,119.66,53.46,119.64,119.67-.02,66.28-53.46,119.48-119.64,119.65Zm31.21-140.04c.19.02.38.03.56.05-.64.67-.48,1.26.09,1.92.51.6.9,1.31,1.3,2,4.22,7.42,5.96,15.42,5.51,23.91-.35,6.54-2.17,12.65-5.56,18.27-.58.97-1.24,1.9-1.9,2.9,3.35,2.51,6.69,5.02,10.02,7.52.08-.05.13-.06.15-.09.19-.26.37-.51.56-.78,5.24-7.56,8.23-15.94,9.15-25.08.59-5.82.33-11.58-.92-17.29-1.7-7.75-4.85-14.88-9.12-21.53-.14-.22-.28-.45-.43-.7.2-.2.37-.36.53-.51,3.01-2.87,5.97-5.81,9.07-8.58,1.18-1.06,1.27-4.03.05-4.94-.58-.43-1.04-1.02-1.56-1.53-12.94-12.58-28.35-19.68-46.41-20.84-.51-.03-.64-.2-.64-.69.02-3.39,0-6.78.01-10.17,0-.78.08-1.56-.64-2.12-.09-.07-.16-.24-.16-.37-.01-.88-.59-.97-1.29-1.04-.42-.04-.9-.18-1.23-.43-.87-.66-1.92-.58-2.57.3-.05.07-.12.12-.2.16-.89.56-1.89.97-2.37,2.01-.06.13-.2.3-.33.33-.51.12-.48.49-.48.88,0,3.32.01,6.64,0,9.97,0,1.35.25,1.06-1.14,1.3-2.62.44-5.26.79-7.87,1.26-1.21.22-2.38.64-3.61.99,0-.28,0-.53,0-.78,0-4.32,0-8.65,0-12.97,0-1.23-.81-2.04-1.59-2.84-.1-.1-.29-.15-.44-.15-.6.01-1.08-.18-1.53-.61-.46-.44-1.77-.34-2.17.06-.43.43-.85.95-1.38,1.19-1.04.47-1.33,1.29-1.33,2.3,0,5.53,0,11.06.01,16.59,0,.5-.14.75-.6.97-13.31,6.45-23.83,15.97-31.42,28.7-5.27,8.84-8.25,18.41-9.21,28.63-.4,4.27-.49,8.55-.11,12.81.29,3.21.57,6.45,1.3,9.58,3.33,14.4,10.57,26.58,21.53,36.47,12.58,11.36,27.48,17.18,44.37,17.44,17.43.26,34.86.06,52.29.06,1.61,0,2.77-1.11,2.77-2.73.01-8.49,0-16.97,0-25.46,0-.21-.05-.48-.19-.62-.58-.61-1.15-1.24-1.82-1.75-10.1-7.72-20.22-15.42-30.33-23.12-1.57-1.2-3.14-2.4-4.7-3.59,5.33-7.73,5.54-15.59.92-23.74.11-.09.28-.24.44-.39,3.06-2.75,6.12-5.51,9.18-8.26,1.81-1.62,3.63-3.24,5.45-4.85Z" />
    <path class="cls-3"
      d="m280.89,178.25c-1.82,1.62-3.64,3.23-5.45,4.85-3.06,2.75-6.12,5.51-9.18,8.26-.17.15-.34.3-.44.39,4.63,8.14,4.42,16.01-.92,23.74,1.56,1.2,3.13,2.4,4.7,3.59,10.11,7.7,20.23,15.4,30.33,23.12.66.51,1.23,1.14,1.82,1.75.13.14.19.41.19.62,0,8.49.01,16.97,0,25.46,0,1.62-1.16,2.73-2.77,2.73-17.43,0-34.86.2-52.29-.06-16.89-.25-31.79-6.08-44.37-17.44-10.96-9.89-18.2-22.07-21.53-36.47-.72-3.13-1.01-6.37-1.3-9.58-.38-4.27-.29-8.55.11-12.81.96-10.22,3.95-19.79,9.21-28.63,7.59-12.73,18.1-22.25,31.42-28.7.46-.22.61-.47.6-.97-.02-5.53-.02-11.06-.01-16.59,0-1.01.28-1.82,1.33-2.3.53-.24.94-.76,1.38-1.19.4-.39,1.71-.5,2.17-.06.44.43.93.62,1.53.61.15,0,.34.05.44.15.78.8,1.59,1.6,1.59,2.84,0,4.32,0,8.65,0,12.97,0,.25,0,.5,0,.78,1.23-.34,2.4-.77,3.61-.99,2.61-.47,5.25-.82,7.87-1.26,1.39-.24,1.13.05,1.14-1.3.02-3.32,0-6.64,0-9.97,0-.39-.03-.76.48-.88.13-.03.27-.19.33-.33.48-1.04,1.48-1.46,2.37-2.01.07-.05.15-.1.2-.16.65-.87,1.7-.96,2.57-.3.33.25.81.39,1.23.43.7.06,1.28.15,1.29,1.04,0,.13.07.29.16.37.72.56.64,1.34.64,2.12,0,3.39,0,6.78-.01,10.17,0,.49.12.66.64.69,18.07,1.16,33.47,8.26,46.41,20.84.52.51.98,1.1,1.56,1.53,1.22.91,1.13,3.88-.05,4.94-3.1,2.78-6.06,5.71-9.07,8.58-.16.16-.33.31-.53.51.15.24.29.47.43.7,4.27,6.66,7.42,13.79,9.12,21.53,1.26,5.71,1.51,11.48.92,17.29-.93,9.14-3.92,17.52-9.15,25.08-.18.26-.37.52-.56.78-.02.03-.07.05-.15.09-3.33-2.5-6.67-5-10.02-7.52.66-1,1.31-1.93,1.9-2.9,3.39-5.62,5.21-11.73,5.56-18.27.45-8.49-1.3-16.49-5.51-23.91-.39-.69-.79-1.4-1.3-2-.57-.67-.72-1.25-.09-1.92.16-.25.33-.5.49-.75-.06-.05-.11-.1-.17-.14-.3.28-.59.56-.89.84Zm-59.87-25.12c-.2.12-.3.17-.39.22-7.23,4.51-13.42,10.14-18.28,17.16-5.75,8.32-9.21,17.5-10.11,27.59-.58,6.44,0,12.81,1.61,19.08,3.34,12.92,9.8,23.81,20.49,32.07,10.6,8.19,22.61,11.88,35.9,11.69,7.62-.11,15.24-.32,22.86-.49,4.98-.11,9.96-.2,14.94-.31,1.42-.03,2.08-.7,2.08-2.11,0-2.48-.08-4.96.03-7.44.06-1.23-.38-2.03-1.35-2.65-.02-.01-.04-.03-.05-.04-11.12-8.41-22.25-16.81-33.36-25.23-.46-.35-.84-.43-1.41-.25-2.07.65-4.19,1.27-6.36.86-1.95-.37-3.88-.96-5.76-1.61-6.97-2.39-13.48-10.27-13.26-19.3.13-5.07,2.17-9.29,5.18-13.06,2.33-2.92,5.37-5.05,9.21-5.84,2.61-.53,5.21-1.21,7.89-.7,1.67.32,3.3.83,4.93,1.3.44.13.73.12,1.07-.23.7-.72,1.45-1.38,2.18-2.06,8.02-7.52,16.03-15.03,24.05-22.55,1.26-1.18,1.21-2.11-.17-3.12-9.21-6.75-19.45-10.71-30.9-11.36-7.48-.43-14.79.41-21.87,2.99-.59.21-.72.48-.72,1.07.02,8.12,0,16.25.02,24.37,0,.94-.36,1.52-1.22,1.9-.48.21-.98.51-1.32.9-.67.77-1.74.92-2.53.3-.3-.24-.71-.42-1.09-.45-.75-.06-1.2-.45-1.49-1.09-.08-.16-.14-.35-.27-.46-.48-.42-.55-.94-.55-1.54.01-5.03,0-10.06,0-15.09v-4.54Zm27.01,58.96c1.99.08,4.03-.45,5.76-2.1,1.19-1.13,2.16-2.39,2.89-3.84.28-.55.46-1.2.51-1.82.26-2.98-.59-5.44-3.17-7.27-1.84-1.3-3.77-2.24-5.96-1.69-2.31.58-4.43,1.74-6.03,3.62-.1.12-.18.26-.27.39-1.1,1.66-1.4,3.53-1.35,5.47,0,.3.07.64.22.9.75,1.29,1.57,2.54,2.31,3.84,1.07,1.88,2.72,2.57,5.09,2.49Z" />
    <path class="cls-2"
      d="m280.89,178.25c.3-.28.59-.56.89-.84.06.05.11.1.17.14-.16.25-.33.5-.49.75-.19-.02-.38-.03-.56-.05Z" />
    <path class="cls-1"
      d="m221.02,153.14v4.54c0,5.03,0,10.06,0,15.09,0,.6.07,1.12.55,1.54.13.11.19.3.27.46.3.64.74,1.03,1.49,1.09.38.03.79.22,1.09.45.79.62,1.86.47,2.53-.3.34-.39.84-.69,1.32-.9.86-.38,1.22-.97,1.22-1.9-.02-8.12,0-16.25-.02-24.37,0-.58.13-.85.72-1.07,7.08-2.58,14.39-3.42,21.87-2.99,11.45.65,21.69,4.61,30.9,11.36,1.38,1.01,1.43,1.93.17,3.12-8.01,7.52-16.03,15.03-24.05,22.55-.73.68-1.48,1.35-2.18,2.06-.34.35-.63.35-1.07.23-1.63-.47-3.27-.98-4.93-1.3-2.68-.51-5.27.17-7.89.7-3.84.78-6.88,2.91-9.21,5.84-3.01,3.77-5.05,7.98-5.18,13.06-.22,9.03,6.29,16.91,13.26,19.3,1.88.65,3.81,1.24,5.76,1.61,2.17.41,4.29-.21,6.36-.86.57-.18.94-.1,1.41.25,11.11,8.42,22.24,16.83,33.36,25.23.02.01.04.03.05.04.97.61,1.41,1.41,1.35,2.65-.11,2.48-.03,4.96-.03,7.44,0,1.41-.66,2.08-2.08,2.11-4.98.11-9.96.2-14.94.31-7.62.16-15.24.38-22.86.49-13.28.19-25.29-3.5-35.9-11.69-10.69-8.26-17.15-19.15-20.49-32.07-1.62-6.26-2.19-12.63-1.61-19.08.9-10.09,4.35-19.27,10.11-27.59,4.86-7.02,11.05-12.65,18.28-17.16.09-.06.19-.11.39-.22Z" />
    <path class="cls-2"
      d="m248.04,212.1c-2.37.08-4.02-.62-5.09-2.49-.74-1.3-1.56-2.55-2.31-3.84-.15-.26-.21-.6-.22-.9-.05-1.94.25-3.81,1.35-5.47.09-.13.17-.27.27-.39,1.61-1.88,3.72-3.04,6.03-3.62,2.18-.55,4.12.38,5.96,1.69,2.58,1.83,3.42,4.29,3.17,7.27-.05.62-.23,1.27-.51,1.82-.73,1.45-1.7,2.71-2.89,3.84-1.73,1.64-3.77,2.18-5.76,2.1Z" />
  </g>
</svg>