<svg width="1440" height="165" viewBox="0 0 1440 165" fill="none" xmlns="http://www.w3.org/2000/svg">
<path d="M714.943 760.988C814.691 599.508 979.112 432.037 1246.62 360.241C1329.5 337.984 1345.34 227.26 1272.33 182.155C1110.91 82.2906 943.414 -82.1363 871.476 -349.686C849.22 -432.562 738.495 -448.401 693.37 -375.402C593.668 -213.93 429.241 -46.4382 161.692 25.4998C78.8156 47.7565 62.9762 158.481 135.975 203.606C297.467 303.314 464.939 467.735 536.735 735.242C559.073 818.142 669.798 833.982 714.943 760.988Z" stroke="url(#paint0_radial_1461_26)" stroke-opacity="0.2" stroke-width="4" stroke-miterlimit="10"/>
<path d="M716.801 738.442C811.948 583.01 969.198 421.444 1225.83 351.338C1305.28 329.592 1320.1 223.211 1249.82 180.175C1094.42 85.0609 932.822 -72.222 862.695 -328.859C840.97 -408.303 734.589 -423.121 691.553 -352.844C596.398 -197.458 439.156 -35.8459 182.499 34.2753C103.054 56.0002 88.2361 162.382 158.534 205.423C313.96 300.59 475.532 457.821 545.633 714.472C567.378 793.922 673.759 808.74 716.801 738.442Z" stroke="url(#paint1_radial_1461_26)" stroke-opacity="0.2" stroke-width="4" stroke-miterlimit="10"/>
<path d="M718.679 715.902C809.254 566.416 959.284 410.852 1205.04 342.501C1281.18 321.324 1294.86 219.249 1227.16 178.261C1077.69 87.692 922.128 -62.3379 853.777 -308.095C832.6 -384.235 730.525 -397.91 689.537 -330.211C598.968 -180.746 448.938 -25.182 203.181 43.1691C127.041 64.3464 113.366 166.421 180.943 207.373C330.429 297.948 485.992 447.978 554.343 693.735C575.646 769.824 677.727 783.478 718.679 715.902Z" stroke="url(#paint2_radial_1461_26)" stroke-opacity="0.2" stroke-width="4" stroke-miterlimit="10"/>
<path d="M720.574 693.3C806.534 549.836 949.381 400.219 1184.24 333.618C1257.01 312.99 1269.61 215.241 1204.73 176.373C1061.23 90.448 911.698 -52.3755 845.036 -287.256C824.408 -360.026 726.659 -372.618 687.791 -307.742C601.927 -164.228 459.002 -14.7223 224.121 51.9401C151.351 72.5676 138.759 170.317 203.635 209.185C347.099 295.144 496.716 437.992 563.317 672.854C583.915 745.726 681.694 758.216 720.574 693.3Z" stroke="url(#paint3_radial_1461_26)" stroke-opacity="0.2" stroke-width="4" stroke-miterlimit="10"/>
<path d="M722.461 670.807C803.772 533.398 939.455 389.667 1163.46 324.848C1232.86 304.75 1244.35 211.341 1182.18 174.515C1044.78 93.2041 901.045 -42.4792 836.205 -266.488C816.122 -335.867 722.684 -347.403 685.899 -285.228C604.588 -147.82 468.904 -4.08924 244.896 60.7504C175.517 80.834 163.981 174.272 226.155 211.057C363.564 292.368 507.294 428.051 572.114 652.054C592.238 721.445 685.636 732.969 722.461 670.807Z" stroke="url(#paint4_radial_1461_26)" stroke-opacity="0.2" stroke-width="4" stroke-miterlimit="10"/>
<path d="M724.339 648.266C801.07 516.757 929.541 379.075 1142.63 315.999C1208.66 296.451 1219.08 207.326 1159.64 172.637C1028.13 95.9058 890.452 -32.565 827.377 -245.653C807.829 -311.687 718.704 -322.1 684.014 -262.668C607.283 -131.159 478.782 6.62507 265.724 69.5989C199.69 89.147 189.277 178.272 248.71 212.961C380.219 289.693 517.901 418.163 580.976 631.251C600.524 697.286 689.644 707.719 724.339 648.266Z" stroke="url(#paint5_radial_1461_26)" stroke-opacity="0.2" stroke-width="4" stroke-miterlimit="10"/>
<path d="M726.264 625.718C798.385 500.21 919.728 368.513 1121.9 307.114C1184.55 288.069 1193.91 203.322 1137.14 170.704C1011.63 98.583 879.937 -22.7605 818.538 -224.932C799.493 -287.587 714.746 -296.946 682.128 -240.174C610.007 -114.666 488.663 17.0309 286.492 78.4297C223.837 97.4747 214.478 182.222 271.25 214.84C396.758 286.961 528.455 408.304 589.854 610.475C608.817 673.106 693.605 682.478 726.264 625.718Z" stroke="url(#paint6_radial_1461_26)" stroke-opacity="0.2" stroke-width="4" stroke-miterlimit="10"/>
<path d="M728.101 603.165C795.638 483.644 909.712 357.89 1101.03 298.32C1160.3 279.886 1168.59 199.403 1114.54 168.875C995.021 101.337 869.237 -12.6348 809.698 -204.056C791.243 -263.328 710.781 -271.617 680.252 -217.567C612.715 -98.0458 498.6 27.6959 307.321 87.278C248.049 105.732 239.76 186.195 293.811 216.723C413.332 284.261 539.073 398.375 598.655 589.654C617.089 648.921 697.572 657.215 728.101 603.165Z" stroke="url(#paint7_radial_1461_26)" stroke-opacity="0.2" stroke-width="4" stroke-miterlimit="10"/>
<path d="M729.999 580.631C792.913 467.085 899.798 347.298 1080.22 289.498C1136.12 271.594 1143.37 195.381 1092.03 166.895C978.486 103.982 858.7 -2.90338 800.9 -183.323C782.995 -239.224 706.782 -246.475 678.297 -195.138C615.384 -81.5915 508.498 38.1951 328.058 95.989C272.177 113.9 264.927 190.112 316.264 218.598C429.81 281.511 549.597 388.397 607.39 568.836C625.382 624.742 701.534 631.974 729.999 580.631Z" stroke="url(#paint8_radial_1461_26)" stroke-opacity="0.2" stroke-width="4" stroke-miterlimit="10"/>
<path d="M731.877 558.09C790.187 450.525 889.884 336.706 1059.43 280.662C1111.96 263.307 1118.09 191.474 1069.47 165.099C961.882 106.783 848.083 7.09224 792.039 -162.453C774.684 -214.984 702.831 -221.119 676.476 -172.492C618.161 -64.9061 518.469 48.8929 348.924 104.937C296.394 122.292 290.258 194.145 338.886 220.5C446.421 278.911 560.27 378.506 616.314 548.052C633.669 600.582 705.502 606.712 731.877 558.09Z" stroke="url(#paint9_radial_1461_26)" stroke-opacity="0.2" stroke-width="4" stroke-miterlimit="10"/>
<path d="M733.761 535.529C787.46 433.965 879.888 326.089 1038.6 271.88C1087.82 255.093 1092.82 187.547 1046.89 163.275C945.324 109.576 837.448 17.1485 783.239 -141.566C766.452 -190.787 698.906 -195.779 674.635 -149.852C620.935 -48.2881 528.508 59.588 369.794 113.797C320.573 130.584 315.56 198.124 361.507 222.402C463.071 276.101 570.947 368.528 625.157 527.243C641.962 576.402 709.483 581.476 733.761 535.529Z" stroke="url(#paint10_radial_1461_26)" stroke-opacity="0.2" stroke-width="4" stroke-miterlimit="10"/>
<path d="M735.639 512.989C784.734 417.405 870.034 315.515 1017.83 263.002C1063.6 246.721 1067.59 183.524 1024.37 161.336C928.783 112.241 826.892 26.9408 774.38 -120.85C758.098 -166.625 694.902 -170.616 672.693 -127.397C623.618 -31.8076 538.298 70.0772 390.527 122.595C344.752 138.877 340.761 202.073 383.98 224.282C479.569 273.357 581.454 358.677 633.973 506.448C650.254 552.223 713.445 556.235 735.639 512.989Z" stroke="url(#paint11_radial_1461_26)" stroke-opacity="0.2" stroke-width="4" stroke-miterlimit="10"/>
<path d="M737.602 490.385C782.094 400.783 860.179 304.873 997.082 254.09C1039.49 238.359 1042.39 179.488 1001.9 159.369C912.294 114.877 816.364 36.7858 765.602 -100.111C749.87 -142.515 690.999 -145.424 670.88 -104.926C626.388 -15.3234 548.277 80.6001 411.4 131.369C368.911 147.163 366.104 206.065 406.602 226.184C496.205 270.676 592.108 348.781 642.897 485.664C658.541 528.064 717.442 530.871 737.602 490.385Z" stroke="url(#paint12_radial_1461_26)" stroke-opacity="0.2" stroke-width="4" stroke-miterlimit="10"/>
<path d="M739.415 467.914C779.297 384.313 850.2 294.351 976.229 245.324C1015.26 230.142 1017.09 175.575 979.271 157.554C895.67 117.673 805.707 46.7696 756.701 -79.2533C741.519 -118.286 686.952 -120.119 668.931 -82.2955C629.05 1.3058 558.126 91.2621 432.124 140.275C393.091 155.456 391.259 210.023 429.061 228.038C512.663 267.92 602.619 338.843 651.652 464.852C666.834 503.885 721.38 505.711 739.415 467.914Z" stroke="url(#paint13_radial_1461_26)" stroke-opacity="0.2" stroke-width="4" stroke-miterlimit="10"/>
<path d="M741.3 445.354C776.572 367.754 840.286 283.759 955.415 236.502C991.083 221.849 991.827 171.628 956.731 155.676C879.111 120.399 795.116 56.6841 747.879 -58.4385C733.227 -94.1068 683.006 -94.8506 667.054 -59.755C631.776 17.8656 568.041 101.855 452.939 149.097C417.271 163.75 416.527 213.971 451.622 229.923C529.223 265.194 613.212 328.929 660.475 444.037C675.127 479.706 725.348 480.45 741.3 445.354Z" stroke="url(#paint14_radial_1461_26)" stroke-opacity="0.2" stroke-width="4" stroke-miterlimit="10"/>
<path d="M743.177 422.813C773.845 351.194 830.371 273.166 934.605 227.658C966.903 213.556 966.591 167.646 934.19 153.798C862.571 123.13 784.523 66.5981 739.036 -37.6302C724.933 -69.9276 679.023 -69.6153 665.155 -37.2209C634.507 34.4045 577.955 112.447 473.727 157.934C441.45 172.042 441.762 217.952 474.156 231.82C545.782 262.468 623.804 319.014 669.311 423.249C683.419 455.526 729.329 455.213 743.177 422.813Z" stroke="url(#paint15_radial_1461_26)" stroke-opacity="0.2" stroke-width="4" stroke-miterlimit="10"/>
<path d="M745.076 400.279C771.16 334.647 820.458 262.574 913.879 218.841C942.805 205.288 941.39 163.697 911.741 151.837C846.109 125.753 774.016 76.4495 730.303 -16.9658C716.75 -45.8924 675.159 -44.4773 663.299 -14.8284C637.215 50.804 587.892 122.891 494.497 166.61C465.57 180.163 466.985 221.754 496.634 233.614C562.266 259.698 634.333 309.016 678.073 402.416C691.686 431.361 733.379 429.976 745.076 400.279Z" stroke="url(#paint16_radial_1461_26)" stroke-opacity="0.2" stroke-width="4" stroke-miterlimit="10"/>
<path d="M746.954 377.738C768.393 318.075 810.543 251.981 893.003 210C918.559 196.997 916.087 159.717 889.095 150.016C829.452 128.582 763.338 86.4268 721.377 3.97293C708.375 -21.5828 671.094 -19.1117 661.393 7.88041C639.939 67.5178 597.784 133.631 515.35 175.599C489.794 188.601 492.266 225.881 519.237 235.577C578.895 257.037 644.988 299.186 686.976 381.626C699.978 407.181 737.258 404.71 746.954 377.738Z" stroke="url(#paint17_radial_1461_26)" stroke-opacity="0.2" stroke-width="4" stroke-miterlimit="10"/>
<path d="M748.899 355.196C765.749 301.539 800.69 241.407 872.275 201.181C894.44 188.723 890.874 155.808 866.616 148.156C812.959 131.306 752.827 96.3651 712.601 24.7793C700.143 2.61467 667.228 6.18031 659.576 30.4388C642.726 84.0954 607.785 144.228 536.199 184.453C514.035 196.912 517.6 229.826 541.859 237.479C595.515 254.329 655.648 289.269 695.873 360.855C708.271 383.002 741.226 379.448 748.899 355.196Z" stroke="url(#paint18_radial_1461_26)" stroke-opacity="0.2" stroke-width="4" stroke-miterlimit="10"/>
<path d="M750.736 332.643C762.962 284.961 790.714 230.797 851.406 192.321C855.58 189.646 858.882 185.811 860.907 181.287C862.932 176.762 863.591 171.745 862.805 166.85C862.018 161.956 859.82 157.398 856.479 153.735C853.139 150.073 848.802 147.466 844 146.233C796.318 134.008 742.154 106.255 703.678 45.5638C701.001 41.3965 697.166 38.1007 692.644 36.0804C688.122 34.0602 683.108 33.4031 678.218 34.1899C673.328 34.9767 668.773 37.1731 665.113 40.5098C661.453 43.8466 658.845 48.1788 657.611 52.9755C645.385 100.657 617.633 154.822 556.941 193.298C552.769 195.972 549.468 199.805 547.443 204.327C545.418 208.85 544.757 213.865 545.541 218.758C546.325 223.65 548.521 228.208 551.857 231.871C555.194 235.534 559.528 238.143 564.326 239.379C612.008 251.605 666.173 279.357 704.649 340.049C707.323 344.223 711.158 347.525 715.683 349.55C720.208 351.575 725.225 352.234 730.119 351.448C735.014 350.661 739.572 348.463 743.234 345.122C746.897 341.782 749.504 337.445 750.736 332.643Z" stroke="url(#paint19_radial_1461_26)" stroke-opacity="0.2" stroke-width="4" stroke-miterlimit="10"/>
<path d="M752.615 310.103C760.236 268.402 780.8 220.205 830.612 183.505C834.039 180.958 836.648 177.466 838.117 173.457C839.586 169.448 839.852 165.097 838.882 160.939C837.912 156.781 835.748 152.997 832.657 150.052C829.565 147.107 825.681 145.129 821.48 144.362C779.78 136.74 731.582 116.176 694.882 66.3644C692.335 62.9373 688.843 60.3289 684.834 58.8597C680.825 57.3905 676.474 57.1245 672.316 58.0945C668.158 59.0645 664.374 61.2282 661.429 64.3197C658.484 67.4112 656.506 71.2957 655.739 75.4959C648.117 117.197 627.553 165.394 577.742 202.094C574.315 204.641 571.706 208.133 570.237 212.142C568.768 216.151 568.502 220.502 569.472 224.66C570.442 228.818 572.606 232.602 575.697 235.547C578.788 238.492 582.673 240.47 586.873 241.237C628.574 248.859 676.772 269.423 713.472 319.235C716.018 322.662 719.511 325.27 723.52 326.739C727.529 328.209 731.879 328.475 736.037 327.505C740.196 326.535 743.98 324.371 746.925 321.279C749.87 318.188 751.847 314.303 752.615 310.103V310.103Z" stroke="url(#paint20_radial_1461_26)" stroke-opacity="0.2" stroke-width="4" stroke-miterlimit="10"/>
<path d="M754.498 287.542C757.51 251.843 770.947 209.63 809.803 174.662C812.48 172.24 814.39 169.089 815.299 165.595C816.208 162.102 816.077 158.419 814.92 154.999C813.764 151.58 811.633 148.573 808.791 146.348C805.948 144.123 802.517 142.778 798.92 142.478C763.22 139.466 721.007 126.029 686.039 87.1729C683.617 84.4964 680.466 82.5861 676.972 81.677C673.479 80.7678 669.796 80.8995 666.376 82.0559C662.957 83.2123 659.95 85.3429 657.725 88.1856C655.501 91.0284 654.155 94.4593 653.855 98.0566C650.843 133.756 637.406 175.969 598.55 210.937C595.86 213.363 593.941 216.526 593.03 220.032C592.119 223.539 592.257 227.235 593.426 230.664C594.595 234.093 596.745 237.104 599.608 239.324C602.472 241.543 605.923 242.874 609.535 243.151C645.235 246.163 687.448 259.6 722.416 298.456C724.846 301.101 727.992 302.981 731.472 303.869C734.952 304.757 738.615 304.614 742.015 303.458C745.415 302.301 748.405 300.181 750.622 297.355C752.838 294.529 754.185 291.12 754.498 287.542V287.542Z" stroke="url(#paint21_radial_1461_26)" stroke-opacity="0.2" stroke-width="4" stroke-miterlimit="10"/>
<path d="M773.454 179.193C751.364 198.895 737.861 226.46 735.835 255.99C735.663 258.003 734.908 259.922 733.662 261.512C732.414 263.106 730.726 264.301 728.808 264.948C726.889 265.596 724.823 265.669 722.864 265.158C720.906 264.647 719.14 263.576 717.783 262.077C698.08 239.986 670.514 226.483 640.983 224.457C638.969 224.291 637.048 223.54 635.455 222.297L634.224 223.873L635.455 222.297C633.859 221.051 632.663 219.365 632.014 217.447C631.366 215.529 631.293 213.463 631.805 211.504C632.317 209.547 633.39 207.782 634.892 206.427C656.985 186.716 670.49 159.144 672.519 129.605C672.685 127.592 673.436 125.67 674.679 124.077C675.925 122.482 677.611 121.285 679.529 120.637C681.447 119.988 683.513 119.915 685.472 120.427C687.43 120.939 689.194 122.012 690.549 123.515C710.26 145.607 737.831 159.112 767.368 161.141C769.381 161.313 771.3 162.068 772.89 163.314C774.484 164.563 775.678 166.25 776.326 168.169C776.974 170.087 777.046 172.153 776.535 174.113C776.025 176.07 774.954 177.836 773.454 179.193Z" stroke="url(#paint22_radial_1461_26)" stroke-opacity="0.2" stroke-width="4"/>
<defs>
<radialGradient id="paint0_radial_1461_26" cx="0" cy="0" r="1" gradientUnits="userSpaceOnUse" gradientTransform="translate(361.354 -75.0718) rotate(80.2902) scale(2383.18 19379.1)">
<stop stop-color="#4BF2A2" stop-opacity="0.74"/>
<stop offset="0.109375" stop-color="#C74EAD" stop-opacity="0.19"/>
<stop offset="0.239583" stop-color="#519497" stop-opacity="0.24"/>
<stop offset="0.421875" stop-color="#564D8F" stop-opacity="0.18"/>
<stop offset="0.765625" stop-color="#BF43BF" stop-opacity="0.04"/>
<stop offset="1" stop-color="#DD40CD"/>
</radialGradient>
<radialGradient id="paint1_radial_1461_26" cx="0" cy="0" r="1" gradientUnits="userSpaceOnUse" gradientTransform="translate(375.104 -64.3117) rotate(80.2902) scale(2287.51 18601.1)">
<stop stop-color="#4BF2A2" stop-opacity="0.74"/>
<stop offset="0.109375" stop-color="#C74EAD" stop-opacity="0.19"/>
<stop offset="0.239583" stop-color="#519497" stop-opacity="0.24"/>
<stop offset="0.421875" stop-color="#564D8F" stop-opacity="0.18"/>
<stop offset="0.765625" stop-color="#BF43BF" stop-opacity="0.04"/>
<stop offset="1" stop-color="#DD40CD"/>
</radialGradient>
<radialGradient id="paint2_radial_1461_26" cx="0" cy="0" r="1" gradientUnits="userSpaceOnUse" gradientTransform="translate(388.757 -53.5981) rotate(80.2886) scale(2192.12 17826.2)">
<stop stop-color="#4BF2A2" stop-opacity="0.74"/>
<stop offset="0.109375" stop-color="#C74EAD" stop-opacity="0.19"/>
<stop offset="0.239583" stop-color="#519497" stop-opacity="0.24"/>
<stop offset="0.421875" stop-color="#564D8F" stop-opacity="0.18"/>
<stop offset="0.765625" stop-color="#BF43BF" stop-opacity="0.04"/>
<stop offset="1" stop-color="#DD40CD"/>
</radialGradient>
<radialGradient id="paint3_radial_1461_26" cx="0" cy="0" r="1" gradientUnits="userSpaceOnUse" gradientTransform="translate(402.595 -42.8292) rotate(80.291) scale(2096.52 17047.7)">
<stop stop-color="#4BF2A2" stop-opacity="0.74"/>
<stop offset="0.109375" stop-color="#C74EAD" stop-opacity="0.19"/>
<stop offset="0.239583" stop-color="#519497" stop-opacity="0.24"/>
<stop offset="0.421875" stop-color="#564D8F" stop-opacity="0.18"/>
<stop offset="0.765625" stop-color="#BF43BF" stop-opacity="0.04"/>
<stop offset="1" stop-color="#DD40CD"/>
</radialGradient>
<radialGradient id="paint4_radial_1461_26" cx="0" cy="0" r="1" gradientUnits="userSpaceOnUse" gradientTransform="translate(416.333 -32.1218) rotate(80.2897) scale(2000.97 16271.3)">
<stop stop-color="#4BF2A2" stop-opacity="0.74"/>
<stop offset="0.109375" stop-color="#C74EAD" stop-opacity="0.19"/>
<stop offset="0.239583" stop-color="#519497" stop-opacity="0.24"/>
<stop offset="0.421875" stop-color="#564D8F" stop-opacity="0.18"/>
<stop offset="0.765625" stop-color="#BF43BF" stop-opacity="0.04"/>
<stop offset="1" stop-color="#DD40CD"/>
</radialGradient>
<radialGradient id="paint5_radial_1461_26" cx="0" cy="0" r="1" gradientUnits="userSpaceOnUse" gradientTransform="translate(430.088 -21.3617) rotate(80.2903) scale(1905.37 15493.6)">
<stop stop-color="#4BF2A2" stop-opacity="0.74"/>
<stop offset="0.109375" stop-color="#C74EAD" stop-opacity="0.19"/>
<stop offset="0.239583" stop-color="#519497" stop-opacity="0.24"/>
<stop offset="0.421875" stop-color="#564D8F" stop-opacity="0.18"/>
<stop offset="0.765625" stop-color="#BF43BF" stop-opacity="0.04"/>
<stop offset="1" stop-color="#DD40CD"/>
</radialGradient>
<radialGradient id="paint6_radial_1461_26" cx="0" cy="0" r="1" gradientUnits="userSpaceOnUse" gradientTransform="translate(443.828 -10.6714) rotate(80.2902) scale(1809.98 14718.1)">
<stop stop-color="#4BF2A2" stop-opacity="0.74"/>
<stop offset="0.109375" stop-color="#C74EAD" stop-opacity="0.19"/>
<stop offset="0.239583" stop-color="#519497" stop-opacity="0.24"/>
<stop offset="0.421875" stop-color="#564D8F" stop-opacity="0.18"/>
<stop offset="0.765625" stop-color="#BF43BF" stop-opacity="0.04"/>
<stop offset="1" stop-color="#DD40CD"/>
</radialGradient>
<radialGradient id="paint7_radial_1461_26" cx="0" cy="0" r="1" gradientUnits="userSpaceOnUse" gradientTransform="translate(457.57 0.108869) rotate(80.2902) scale(1714.32 13940.1)">
<stop stop-color="#4BF2A2" stop-opacity="0.74"/>
<stop offset="0.109375" stop-color="#C74EAD" stop-opacity="0.19"/>
<stop offset="0.239583" stop-color="#519497" stop-opacity="0.24"/>
<stop offset="0.421875" stop-color="#564D8F" stop-opacity="0.18"/>
<stop offset="0.765625" stop-color="#BF43BF" stop-opacity="0.04"/>
<stop offset="1" stop-color="#DD40CD"/>
</radialGradient>
<radialGradient id="paint8_radial_1461_26" cx="0" cy="0" r="1" gradientUnits="userSpaceOnUse" gradientTransform="translate(471.252 10.7728) rotate(80.2902) scale(1618.99 13165)">
<stop stop-color="#4BF2A2" stop-opacity="0.74"/>
<stop offset="0.109375" stop-color="#C74EAD" stop-opacity="0.19"/>
<stop offset="0.239583" stop-color="#519497" stop-opacity="0.24"/>
<stop offset="0.421875" stop-color="#564D8F" stop-opacity="0.18"/>
<stop offset="0.765625" stop-color="#BF43BF" stop-opacity="0.04"/>
<stop offset="1" stop-color="#DD40CD"/>
</radialGradient>
<radialGradient id="paint9_radial_1461_26" cx="0" cy="0" r="1" gradientUnits="userSpaceOnUse" gradientTransform="translate(485.039 21.5726) rotate(80.2902) scale(1523.36 12387.4)">
<stop stop-color="#4BF2A2" stop-opacity="0.74"/>
<stop offset="0.109375" stop-color="#C74EAD" stop-opacity="0.19"/>
<stop offset="0.239583" stop-color="#519497" stop-opacity="0.24"/>
<stop offset="0.421875" stop-color="#564D8F" stop-opacity="0.18"/>
<stop offset="0.765625" stop-color="#BF43BF" stop-opacity="0.04"/>
<stop offset="1" stop-color="#DD40CD"/>
</radialGradient>
<radialGradient id="paint10_radial_1461_26" cx="0" cy="0" r="1" gradientUnits="userSpaceOnUse" gradientTransform="translate(498.797 32.3375) rotate(80.2893) scale(1427.83 11610.8)">
<stop stop-color="#4BF2A2" stop-opacity="0.74"/>
<stop offset="0.109375" stop-color="#C74EAD" stop-opacity="0.19"/>
<stop offset="0.239583" stop-color="#519497" stop-opacity="0.24"/>
<stop offset="0.421875" stop-color="#564D8F" stop-opacity="0.18"/>
<stop offset="0.765625" stop-color="#BF43BF" stop-opacity="0.04"/>
<stop offset="1" stop-color="#DD40CD"/>
</radialGradient>
<radialGradient id="paint11_radial_1461_26" cx="0" cy="0" r="1" gradientUnits="userSpaceOnUse" gradientTransform="translate(512.499 43.0316) rotate(80.2904) scale(1332.47 10835.1)">
<stop stop-color="#4BF2A2" stop-opacity="0.74"/>
<stop offset="0.109375" stop-color="#C74EAD" stop-opacity="0.19"/>
<stop offset="0.239583" stop-color="#519497" stop-opacity="0.24"/>
<stop offset="0.421875" stop-color="#564D8F" stop-opacity="0.18"/>
<stop offset="0.765625" stop-color="#BF43BF" stop-opacity="0.04"/>
<stop offset="1" stop-color="#DD40CD"/>
</radialGradient>
<radialGradient id="paint12_radial_1461_26" cx="0" cy="0" r="1" gradientUnits="userSpaceOnUse" gradientTransform="translate(526.274 53.7053) rotate(80.292) scale(1237.15 10059.5)">
<stop stop-color="#4BF2A2" stop-opacity="0.74"/>
<stop offset="0.109375" stop-color="#C74EAD" stop-opacity="0.19"/>
<stop offset="0.239583" stop-color="#519497" stop-opacity="0.24"/>
<stop offset="0.421875" stop-color="#564D8F" stop-opacity="0.18"/>
<stop offset="0.765625" stop-color="#BF43BF" stop-opacity="0.04"/>
<stop offset="1" stop-color="#DD40CD"/>
</radialGradient>
<radialGradient id="paint13_radial_1461_26" cx="0" cy="0" r="1" gradientUnits="userSpaceOnUse" gradientTransform="translate(539.935 64.4669) rotate(80.2902) scale(1141.74 9284.2)">
<stop stop-color="#4BF2A2" stop-opacity="0.74"/>
<stop offset="0.109375" stop-color="#C74EAD" stop-opacity="0.19"/>
<stop offset="0.239583" stop-color="#519497" stop-opacity="0.24"/>
<stop offset="0.421875" stop-color="#564D8F" stop-opacity="0.18"/>
<stop offset="0.765625" stop-color="#BF43BF" stop-opacity="0.04"/>
<stop offset="1" stop-color="#DD40CD"/>
</radialGradient>
<radialGradient id="paint14_radial_1461_26" cx="0" cy="0" r="1" gradientUnits="userSpaceOnUse" gradientTransform="translate(553.648 75.1809) rotate(80.2902) scale(1046.42 8509.09)">
<stop stop-color="#4BF2A2" stop-opacity="0.74"/>
<stop offset="0.109375" stop-color="#C74EAD" stop-opacity="0.19"/>
<stop offset="0.239583" stop-color="#519497" stop-opacity="0.24"/>
<stop offset="0.421875" stop-color="#564D8F" stop-opacity="0.18"/>
<stop offset="0.765625" stop-color="#BF43BF" stop-opacity="0.04"/>
<stop offset="1" stop-color="#DD40CD"/>
</radialGradient>
<radialGradient id="paint15_radial_1461_26" cx="0" cy="0" r="1" gradientUnits="userSpaceOnUse" gradientTransform="translate(567.341 85.885) rotate(80.2902) scale(951.204 7734.81)">
<stop stop-color="#4BF2A2" stop-opacity="0.74"/>
<stop offset="0.109375" stop-color="#C74EAD" stop-opacity="0.19"/>
<stop offset="0.239583" stop-color="#519497" stop-opacity="0.24"/>
<stop offset="0.421875" stop-color="#564D8F" stop-opacity="0.18"/>
<stop offset="0.765625" stop-color="#BF43BF" stop-opacity="0.04"/>
<stop offset="1" stop-color="#DD40CD"/>
</radialGradient>
<radialGradient id="paint16_radial_1461_26" cx="0" cy="0" r="1" gradientUnits="userSpaceOnUse" gradientTransform="translate(580.996 96.4675) rotate(80.2902) scale(856.382 6963.76)">
<stop stop-color="#4BF2A2" stop-opacity="0.74"/>
<stop offset="0.109375" stop-color="#C74EAD" stop-opacity="0.19"/>
<stop offset="0.239583" stop-color="#519497" stop-opacity="0.24"/>
<stop offset="0.421875" stop-color="#564D8F" stop-opacity="0.18"/>
<stop offset="0.765625" stop-color="#BF43BF" stop-opacity="0.04"/>
<stop offset="1" stop-color="#DD40CD"/>
</radialGradient>
<radialGradient id="paint17_radial_1461_26" cx="0" cy="0" r="1" gradientUnits="userSpaceOnUse" gradientTransform="translate(594.694 107.254) rotate(80.2902) scale(761.077 6188.77)">
<stop stop-color="#4BF2A2" stop-opacity="0.74"/>
<stop offset="0.109375" stop-color="#C74EAD" stop-opacity="0.19"/>
<stop offset="0.239583" stop-color="#519497" stop-opacity="0.24"/>
<stop offset="0.421875" stop-color="#564D8F" stop-opacity="0.18"/>
<stop offset="0.765625" stop-color="#BF43BF" stop-opacity="0.04"/>
<stop offset="1" stop-color="#DD40CD"/>
</radialGradient>
<radialGradient id="paint18_radial_1461_26" cx="0" cy="0" r="1" gradientUnits="userSpaceOnUse" gradientTransform="translate(608.399 117.932) rotate(80.2902) scale(666.235 5417.56)">
<stop stop-color="#4BF2A2" stop-opacity="0.74"/>
<stop offset="0.109375" stop-color="#C74EAD" stop-opacity="0.19"/>
<stop offset="0.239583" stop-color="#519497" stop-opacity="0.24"/>
<stop offset="0.421875" stop-color="#564D8F" stop-opacity="0.18"/>
<stop offset="0.765625" stop-color="#BF43BF" stop-opacity="0.04"/>
<stop offset="1" stop-color="#DD40CD"/>
</radialGradient>
<radialGradient id="paint19_radial_1461_26" cx="0" cy="0" r="1" gradientUnits="userSpaceOnUse" gradientTransform="translate(622 128.612) rotate(80.2904) scale(571.226 4644.96)">
<stop stop-color="#4BF2A2" stop-opacity="0.74"/>
<stop offset="0.109375" stop-color="#C74EAD" stop-opacity="0.19"/>
<stop offset="0.239583" stop-color="#519497" stop-opacity="0.24"/>
<stop offset="0.421875" stop-color="#564D8F" stop-opacity="0.18"/>
<stop offset="0.765625" stop-color="#BF43BF" stop-opacity="0.04"/>
<stop offset="1" stop-color="#DD40CD"/>
</radialGradient>
<radialGradient id="paint20_radial_1461_26" cx="0" cy="0" r="1" gradientUnits="userSpaceOnUse" gradientTransform="translate(635.544 139.172) rotate(80.2902) scale(477.112 3879.69)">
<stop stop-color="#4BF2A2" stop-opacity="0.74"/>
<stop offset="0.109375" stop-color="#C74EAD" stop-opacity="0.19"/>
<stop offset="0.239583" stop-color="#519497" stop-opacity="0.24"/>
<stop offset="0.421875" stop-color="#564D8F" stop-opacity="0.18"/>
<stop offset="0.765625" stop-color="#BF43BF" stop-opacity="0.04"/>
<stop offset="1" stop-color="#DD40CD"/>
</radialGradient>
<radialGradient id="paint21_radial_1461_26" cx="0" cy="0" r="1" gradientUnits="userSpaceOnUse" gradientTransform="translate(649.014 149.671) rotate(80.28) scale(383.327 3117.91)">
<stop stop-color="#4BF2A2" stop-opacity="0.74"/>
<stop offset="0.109375" stop-color="#C74EAD" stop-opacity="0.19"/>
<stop offset="0.239583" stop-color="#519497" stop-opacity="0.24"/>
<stop offset="0.421875" stop-color="#564D8F" stop-opacity="0.18"/>
<stop offset="0.765625" stop-color="#BF43BF" stop-opacity="0.04"/>
<stop offset="1" stop-color="#DD40CD"/>
</radialGradient>
<radialGradient id="paint22_radial_1461_26" cx="0" cy="0" r="1" gradientUnits="userSpaceOnUse" gradientTransform="translate(667.294 163.978) rotate(80.2902) scale(256.375 2084.74)">
<stop stop-color="#4BF2A2" stop-opacity="0.74"/>
<stop offset="0.109375" stop-color="#C74EAD" stop-opacity="0.19"/>
<stop offset="0.239583" stop-color="#519497" stop-opacity="0.24"/>
<stop offset="0.421875" stop-color="#564D8F" stop-opacity="0.18"/>
<stop offset="0.765625" stop-color="#BF43BF" stop-opacity="0.04"/>
<stop offset="1" stop-color="#DD40CD"/>
</radialGradient>
</defs>
</svg>
