<svg width="376" height="56" viewBox="0 0 376 56" fill="none" xmlns="http://www.w3.org/2000/svg">
  <rect x="1" y="1" width="374" height="54" rx="11" fill="#1E1E2C" stroke="url(#paint0_linear_8544_20597)"
    stroke-width="2" />
  <mask id="mask0_8544_20597" style="mask-type:alpha" maskUnits="userSpaceOnUse" x="2" y="2" width="372" height="52">
    <rect x="3" y="3" width="370" height="50" rx="9" fill="#1E1E2C" stroke="#242431" stroke-width="2" />
  </mask>
  <g mask="url(#mask0_8544_20597)">
    <g opacity="0.3" filter="url(#filter0_f_8544_20597)">
      <ellipse cx="308" cy="30.5" rx="13" ry="13.5" fill="#F5841F" />
    </g>
    <g opacity="0.1">
      <path d="M397.778 4.76494L362.827 20.0764L371.815 7.94194L397.778 4.76494Z" fill="#E17726" stroke="#E17726"
        stroke-width="0.367494" stroke-linecap="round" stroke-linejoin="round" />
      <path d="M331.389 -13.0195L353.688 17.8625L352.285 2.71359L331.389 -13.0195Z" fill="#E27625" stroke="#E27625"
        stroke-width="0.367494" stroke-linecap="round" stroke-linejoin="round" />
      <path d="M373.105 55.3782L362.058 65.9739L377.149 75.2489L386.469 59.2553L373.105 55.3782Z"
        fill="url(#paint1_linear_8544_20597)" stroke="#E27625" stroke-width="0.367494" stroke-linecap="round"
        stroke-linejoin="round" />
      <path d="M313.957 39.8273L314.003 58.3306L331.681 57.8358L327.44 43.1438L313.957 39.8273Z"
        fill="url(#paint2_linear_8544_20597)" stroke="#E27625" stroke-width="0.367494" stroke-linecap="round"
        stroke-linejoin="round" />
      <path d="M339.921 23.5856L333.376 29.7941L349.389 34.9404L353.907 15.9161L339.921 23.5856Z" fill="#E27625"
        stroke="#E27625" stroke-width="0.367494" stroke-linecap="round" stroke-linejoin="round" />
      <path d="M372.085 32.2036L363.694 18.3082L358.208 37.3033L374.649 40.8532L372.085 32.2036Z" fill="#E27625"
        stroke="#E27625" stroke-width="0.367494" stroke-linecap="round" stroke-linejoin="round" />
      <path d="M331.687 57.8325L342.882 55.3377L336.335 45.9502L331.687 57.8325Z" fill="#E27625" stroke="#E27625"
        stroke-width="0.367494" stroke-linecap="round" stroke-linejoin="round" />
      <path d="M353.642 58.2196L362.062 65.9702L364.006 53.3632L353.642 58.2196Z" fill="#E27625" stroke="#E27625"
        stroke-width="0.367494" stroke-linecap="round" stroke-linejoin="round" />
      <path d="M331.691 57.8355L339.551 64.9427L340.275 62.0111L342.886 55.3407L331.691 57.8355Z" fill="#D5BFB2"
        stroke="#D5BFB2" stroke-width="0.367494" stroke-linecap="round" stroke-linejoin="round" />
      <path d="M345.466 43.5273L338.014 38.7671L344.53 37.453L345.466 43.5273Z" fill="#233447" stroke="#233447"
        stroke-width="0.367494" stroke-linecap="round" stroke-linejoin="round" />
      <path d="M357.308 46.6972L361.155 41.9045L366.169 46.308L357.308 46.6972Z" fill="#233447" stroke="#233447"
        stroke-width="0.367494" stroke-linecap="round" stroke-linejoin="round" />
      <path d="M331.686 57.8346L336.499 45.5684L327.371 43.4191L331.686 57.8346Z" fill="#CC6228" stroke="#CC6228"
        stroke-width="0.367494" stroke-linecap="round" stroke-linejoin="round" />
      <path d="M364.059 52.9531L362.065 65.9746L373.038 55.6554L364.059 52.9531Z" fill="#CC6228" stroke="#CC6228"
        stroke-width="0.367494" stroke-linecap="round" stroke-linejoin="round" />
      <path d="M374.651 40.85L358.21 37.3001L357.309 46.6991L361.156 41.9062L366.17 46.3097L374.651 40.85Z"
        fill="#CC6228" stroke="#CC6228" stroke-width="0.367494" stroke-linecap="round" stroke-linejoin="round" />
      <path d="M338.022 38.7693L344.538 37.4552L345.473 43.5298L349.392 34.9393L333.379 29.793L338.022 38.7693Z"
        fill="#CC6228" stroke="#CC6228" stroke-width="0.367494" stroke-linecap="round" stroke-linejoin="round" />
      <path d="M333.379 29.793L336.342 45.9523L338.022 38.7693L333.379 29.793Z" fill="#E27525" stroke="#E27525"
        stroke-width="0.367494" stroke-linecap="round" stroke-linejoin="round" />
      <path d="M366.169 46.3121L364.004 53.3654L374.65 40.8525L366.169 46.3121Z" fill="#E27525" stroke="#E27525"
        stroke-width="0.367494" stroke-linecap="round" stroke-linejoin="round" />
      <path d="M349.392 34.9375L345.473 43.528L344.534 54.6604L348.712 40.7766L349.392 34.9375Z" fill="#E27525"
        stroke="#E27525" stroke-width="0.367494" stroke-linecap="round" stroke-linejoin="round" />
      <path d="M358.215 37.3015L355.921 42.6752L352.56 56.8109L357.314 46.7006L358.215 37.3015Z" fill="#E27525"
        stroke="#E27525" stroke-width="0.367494" stroke-linecap="round" stroke-linejoin="round" />
      <path d="M357.31 46.7012L352.557 56.8115L353.644 58.2215L364.007 53.3651L366.172 46.3118L357.31 46.7012Z"
        fill="#F5841F" stroke="#F5841F" stroke-width="0.367494" stroke-linecap="round" stroke-linejoin="round" />
      <path d="M338.014 38.7637L336.333 45.9467L342.88 55.3343L344.526 54.6566L345.465 43.5241L338.014 38.7637Z"
        fill="#F5841F" stroke="#F5841F" stroke-width="0.367494" stroke-linecap="round" stroke-linejoin="round" />
      <path
        d="M353.643 58.2209L352.556 56.8112L344.528 54.66L342.882 55.3375L340.27 62.008L341.163 61.5233L352.038 64.4373L352.598 65.3111L353.643 58.2209Z"
        fill="#161616" stroke="#161616" stroke-width="0.367494" stroke-linecap="round" stroke-linejoin="round" />
      <path
        d="M392.425 29.623L398.25 17.5625L397.773 4.76724L363.995 19.5707L372.084 32.2008L385.926 41.0097L390.384 37.6967L389.236 36.1717L392.151 34.518L390.781 32.5715L393.597 31.2861L392.425 29.623Z"
        fill="url(#paint3_linear_8544_20597)" stroke="#763E1A" stroke-width="0.367494" stroke-linecap="round"
        stroke-linejoin="round" />
      <path
        d="M324.577 -2.17924L323.62 11.1858L321.717 12.0249L323.542 14.5538L321.382 15.5544L323.079 18.4438L321.323 19.1907L323.527 24.2889L339.919 23.5812L353.239 16.6875L331.388 -13.0216L324.577 -2.17924Z"
        fill="url(#paint4_linear_8544_20597)" stroke="#763E1A" stroke-width="0.367494" stroke-linecap="round"
        stroke-linejoin="round" />
      <path
        d="M385.927 41.007L372.085 32.1983L374.649 40.8479L364.004 53.3606L373.033 55.6484L386.471 59.249L385.927 41.007Z"
        fill="#F5841F" stroke="#F5841F" stroke-width="0.367494" stroke-linecap="round" stroke-linejoin="round" />
      <path
        d="M339.914 23.5824L323.522 24.2899L313.959 39.8239L327.368 43.4168L336.331 45.95L333.368 29.791L339.914 23.5824Z"
        fill="#F5841F" stroke="#F5841F" stroke-width="0.367494" stroke-linecap="round" stroke-linejoin="round" />
      <path
        d="M358.211 37.3041L363.999 19.5741L371.813 7.94782L352.283 2.71484L353.237 16.6906L349.385 34.9393L348.242 40.6868L344.528 54.6622L352.556 56.8134L356.327 42.8533L358.211 37.3041Z"
        fill="#F5841F" stroke="#F5841F" stroke-width="0.367494" stroke-linecap="round" stroke-linejoin="round" />
    </g>
  </g>
  <path
    d="M65.236 33L62.8 24.81H62.744C62.7533 24.9967 62.7673 25.2627 62.786 25.608C62.8047 25.944 62.8187 26.3127 62.828 26.714C62.8467 27.106 62.856 27.4747 62.856 27.82V33H61.176V23.004H63.752L66.132 30.858H66.174L68.596 23.004H71.186V33H69.422V27.736C69.422 27.4187 69.4267 27.0733 69.436 26.7C69.4453 26.3173 69.4593 25.958 69.478 25.622C69.4967 25.2767 69.5107 25.0107 69.52 24.824H69.464L66.958 33H65.236ZM76.3494 25.272C77.0027 25.272 77.5627 25.412 78.0294 25.692C78.5054 25.9627 78.874 26.3547 79.1354 26.868C79.3967 27.372 79.5274 27.988 79.5274 28.716V29.612H74.8794C74.898 30.3027 75.066 30.8393 75.3834 31.222C75.71 31.5953 76.1674 31.782 76.7554 31.782C77.222 31.782 77.6374 31.7353 78.0014 31.642C78.3654 31.5393 78.7434 31.3947 79.1354 31.208V32.622C78.7807 32.7993 78.412 32.93 78.0294 33.014C77.6467 33.098 77.1754 33.14 76.6154 33.14C75.906 33.14 75.276 33 74.7254 32.72C74.184 32.4307 73.7594 31.9967 73.4514 31.418C73.1434 30.8393 72.9894 30.1207 72.9894 29.262C72.9894 28.394 73.1294 27.666 73.4094 27.078C73.6894 26.4807 74.0814 26.0327 74.5854 25.734C75.0987 25.426 75.6867 25.272 76.3494 25.272ZM76.3774 26.574C75.9574 26.574 75.6167 26.728 75.3554 27.036C75.1034 27.3347 74.954 27.7827 74.9074 28.38H77.7634C77.7634 28.0253 77.712 27.7127 77.6094 27.442C77.5067 27.1713 77.3527 26.9613 77.1474 26.812C76.9514 26.6533 76.6947 26.574 76.3774 26.574ZM84.0873 31.726C84.2927 31.726 84.4887 31.7073 84.6753 31.67C84.8713 31.6233 85.0533 31.572 85.2213 31.516V32.832C85.0253 32.916 84.7873 32.986 84.5073 33.042C84.2273 33.1073 83.9147 33.14 83.5693 33.14C83.14 33.14 82.7573 33.07 82.4213 32.93C82.0853 32.7807 81.8193 32.5287 81.6233 32.174C81.4367 31.8193 81.3433 31.3247 81.3433 30.69V26.742H80.3913V25.972L81.4553 25.356L82.0153 23.746H83.1913V25.412H85.1513V26.742H83.1913V30.676C83.1913 31.0307 83.2707 31.2967 83.4293 31.474C83.5973 31.642 83.8167 31.726 84.0873 31.726ZM89.6398 25.272C90.5544 25.272 91.2544 25.4867 91.7398 25.916C92.2251 26.336 92.4678 26.9987 92.4678 27.904V33H91.1658L90.8018 31.95H90.7458C90.5404 32.2207 90.3304 32.4493 90.1158 32.636C89.9011 32.8133 89.6538 32.9393 89.3738 33.014C89.0938 33.098 88.7578 33.14 88.3658 33.14C87.9458 33.14 87.5678 33.056 87.2318 32.888C86.8958 32.72 86.6298 32.4633 86.4338 32.118C86.2378 31.7633 86.1398 31.32 86.1398 30.788C86.1398 30.004 86.4104 29.416 86.9518 29.024C87.4931 28.6227 88.3051 28.4033 89.3878 28.366L90.6058 28.324V27.946C90.6058 27.4607 90.5031 27.1153 90.2978 26.91C90.0924 26.7047 89.8124 26.602 89.4578 26.602C89.1218 26.602 88.7811 26.658 88.4358 26.77C88.0998 26.882 87.7684 27.0127 87.4417 27.162L86.8678 25.93C87.2504 25.734 87.6751 25.5753 88.1418 25.454C88.6084 25.3327 89.1078 25.272 89.6398 25.272ZM89.8218 29.444C89.1591 29.472 88.6971 29.6073 88.4358 29.85C88.1744 30.0833 88.0438 30.4007 88.0438 30.802C88.0438 31.1567 88.1324 31.4133 88.3098 31.572C88.4964 31.7307 88.7391 31.81 89.0378 31.81C89.4764 31.81 89.8498 31.6653 90.1578 31.376C90.4658 31.0773 90.6198 30.6387 90.6198 30.06V29.416L89.8218 29.444ZM102.766 25.272C103.587 25.272 104.203 25.4913 104.614 25.93C105.024 26.3687 105.23 27.078 105.23 28.058V33H103.396V28.394C103.396 27.834 103.302 27.414 103.116 27.134C102.929 26.8447 102.64 26.7 102.248 26.7C101.706 26.7 101.324 26.9007 101.1 27.302C100.876 27.7033 100.764 28.2867 100.764 29.052V33H98.9157V28.394C98.9157 28.0207 98.8737 27.708 98.7897 27.456C98.7057 27.204 98.5797 27.0173 98.4117 26.896C98.2437 26.7653 98.0291 26.7 97.7677 26.7C97.3944 26.7 97.1004 26.8027 96.8857 27.008C96.6711 27.204 96.5171 27.4933 96.4237 27.876C96.3397 28.2587 96.2977 28.73 96.2977 29.29V33H94.4357V25.412H95.8637L96.1297 26.406H96.2137C96.3537 26.1447 96.5264 25.93 96.7317 25.762C96.9464 25.594 97.1891 25.4727 97.4597 25.398C97.7397 25.314 98.0291 25.272 98.3277 25.272C98.8597 25.272 99.3031 25.37 99.6577 25.566C100.022 25.7527 100.302 26.0467 100.498 26.448H100.596C100.829 26.0373 101.137 25.7387 101.52 25.552C101.912 25.3653 102.327 25.272 102.766 25.272ZM110.257 25.272C111.172 25.272 111.872 25.4867 112.357 25.916C112.842 26.336 113.085 26.9987 113.085 27.904V33H111.783L111.419 31.95H111.363C111.158 32.2207 110.948 32.4493 110.733 32.636C110.518 32.8133 110.271 32.9393 109.991 33.014C109.711 33.098 109.375 33.14 108.983 33.14C108.563 33.14 108.185 33.056 107.849 32.888C107.513 32.72 107.247 32.4633 107.051 32.118C106.855 31.7633 106.757 31.32 106.757 30.788C106.757 30.004 107.028 29.416 107.569 29.024C108.11 28.6227 108.922 28.4033 110.005 28.366L111.223 28.324V27.946C111.223 27.4607 111.12 27.1153 110.915 26.91C110.71 26.7047 110.43 26.602 110.075 26.602C109.739 26.602 109.398 26.658 109.053 26.77C108.717 26.882 108.386 27.0127 108.059 27.162L107.485 25.93C107.868 25.734 108.292 25.5753 108.759 25.454C109.226 25.3327 109.725 25.272 110.257 25.272ZM110.439 29.444C109.776 29.472 109.314 29.6073 109.053 29.85C108.792 30.0833 108.661 30.4007 108.661 30.802C108.661 31.1567 108.75 31.4133 108.927 31.572C109.114 31.7307 109.356 31.81 109.655 31.81C110.094 31.81 110.467 31.6653 110.775 31.376C111.083 31.0773 111.237 30.6387 111.237 30.06V29.416L110.439 29.444ZM120.051 30.802C120.051 31.306 119.939 31.7353 119.715 32.09C119.491 32.4353 119.16 32.6967 118.721 32.874C118.282 33.0513 117.732 33.14 117.069 33.14C116.565 33.14 116.126 33.1027 115.753 33.028C115.38 32.9533 115.02 32.8367 114.675 32.678V31.18C115.048 31.3573 115.45 31.5067 115.879 31.628C116.318 31.7493 116.714 31.81 117.069 31.81C117.489 31.81 117.792 31.7353 117.979 31.586C118.166 31.4367 118.259 31.236 118.259 30.984C118.259 30.8347 118.217 30.6993 118.133 30.578C118.058 30.4567 117.9 30.3307 117.657 30.2C117.424 30.06 117.083 29.8873 116.635 29.682C116.196 29.486 115.832 29.29 115.543 29.094C115.254 28.898 115.034 28.6647 114.885 28.394C114.736 28.114 114.661 27.764 114.661 27.344C114.661 26.6627 114.918 26.1493 115.431 25.804C115.954 25.4493 116.635 25.272 117.475 25.272C117.932 25.272 118.357 25.3187 118.749 25.412C119.15 25.496 119.552 25.636 119.953 25.832L119.407 27.134C119.183 27.0313 118.954 26.9427 118.721 26.868C118.497 26.784 118.278 26.7187 118.063 26.672C117.858 26.6253 117.652 26.602 117.447 26.602C117.12 26.602 116.873 26.6627 116.705 26.784C116.537 26.896 116.453 27.0593 116.453 27.274C116.453 27.4233 116.495 27.5587 116.579 27.68C116.663 27.792 116.822 27.9087 117.055 28.03C117.288 28.1513 117.62 28.3053 118.049 28.492C118.478 28.66 118.842 28.842 119.141 29.038C119.44 29.2247 119.664 29.458 119.813 29.738C119.972 30.018 120.051 30.3727 120.051 30.802ZM123.45 27.414C123.45 27.6567 123.44 27.9133 123.422 28.184C123.403 28.4453 123.38 28.702 123.352 28.954H123.408C123.454 28.842 123.524 28.7207 123.618 28.59C123.711 28.45 123.809 28.3147 123.912 28.184C124.024 28.044 124.131 27.918 124.234 27.806L126.208 25.412H128.308L125.55 28.688L128.476 33H126.334L124.276 29.752L123.45 30.48V33H121.602V22.36H123.45V27.414Z"
    fill="white" />
  <path d="M42.6137 14L31.6758 22.7495L33.7098 17.5931L42.6137 14Z" fill="#E17726" stroke="#E17726"
    stroke-width="0.367494" stroke-linecap="round" stroke-linejoin="round" />
  <path d="M17.3867 14L28.2272 22.8311L26.2907 17.5931L17.3867 14Z" fill="#E27625" stroke="#E27625"
    stroke-width="0.367494" stroke-linecap="round" stroke-linejoin="round" />
  <path d="M38.6739 34.2891L35.7637 39.0955L41.9953 40.9504L43.7805 34.3941L38.6739 34.2891Z"
    fill="url(#paint5_linear_8544_20597)" stroke="#E27625" stroke-width="0.367494" stroke-linecap="round"
    stroke-linejoin="round" />
  <path d="M16.2246 34.3941L17.9989 40.9504L24.2198 39.0955L21.3203 34.2891L16.2246 34.3941Z"
    fill="url(#paint6_linear_8544_20597)" stroke="#E27625" stroke-width="0.367494" stroke-linecap="round"
    stroke-linejoin="round" />
  <path d="M23.8892 26.1692L22.1582 28.9923L28.3249 29.2957L28.1194 22.1211L23.8892 26.1692Z" fill="#E27625"
    stroke="#E27625" stroke-width="0.367494" stroke-linecap="round" stroke-linejoin="round" />
  <path d="M36.1115 26.1688L31.8164 22.0391L31.6758 29.2953L37.8425 28.992L36.1115 26.1688Z" fill="#E27625"
    stroke="#E27625" stroke-width="0.367494" stroke-linecap="round" stroke-linejoin="round" />
  <path d="M24.2227 39.0941L27.9551 37.146L24.742 34.4395L24.2227 39.0941Z" fill="#E27625" stroke="#E27625"
    stroke-width="0.367494" stroke-linecap="round" stroke-linejoin="round" />
  <path d="M32.043 37.146L35.7646 39.0941L35.2561 34.4395L32.043 37.146Z" fill="#E27625" stroke="#E27625"
    stroke-width="0.367494" stroke-linecap="round" stroke-linejoin="round" />
  <path d="M35.7646 39.0947L32.043 37.1465L32.3459 39.7596L32.3134 40.8679L35.7646 39.0947Z" fill="#D5BFB2"
    stroke="#D5BFB2" stroke-width="0.367494" stroke-linecap="round" stroke-linejoin="round" />
  <path d="M24.2227 39.0947L27.6847 40.8679L27.6631 39.7596L27.9551 37.1465L24.2227 39.0947Z" fill="#D5BFB2"
    stroke="#D5BFB2" stroke-width="0.367494" stroke-linecap="round" stroke-linejoin="round" />
  <path d="M27.7485 32.7113L24.6543 31.7314L26.8397 30.6465L27.7485 32.7113Z" fill="#233447" stroke="#233447"
    stroke-width="0.367494" stroke-linecap="round" stroke-linejoin="round" />
  <path d="M32.248 32.7113L33.1569 30.6465L35.3531 31.7314L32.248 32.7113Z" fill="#233447" stroke="#233447"
    stroke-width="0.367494" stroke-linecap="round" stroke-linejoin="round" />
  <path d="M24.2236 39.0955L24.7646 34.2891L21.3242 34.3941L24.2236 39.0955Z" fill="#CC6228" stroke="#CC6228"
    stroke-width="0.367494" stroke-linecap="round" stroke-linejoin="round" />
  <path d="M35.2363 34.2891L35.7665 39.0955L38.6767 34.3941L35.2363 34.2891Z" fill="#CC6228" stroke="#CC6228"
    stroke-width="0.367494" stroke-linecap="round" stroke-linejoin="round" />
  <path d="M37.8425 28.9902L31.6758 29.2935L32.2492 32.7118L33.158 30.6468L35.3542 31.7318L37.8425 28.9902Z"
    fill="#CC6228" stroke="#CC6228" stroke-width="0.367494" stroke-linecap="round" stroke-linejoin="round" />
  <path d="M24.6574 31.7318L26.8428 30.6468L27.7516 32.7118L28.3249 29.2935L22.1582 28.9902L24.6574 31.7318Z"
    fill="#CC6228" stroke="#CC6228" stroke-width="0.367494" stroke-linecap="round" stroke-linejoin="round" />
  <path d="M22.1582 28.9902L24.7439 34.4383L24.6573 31.7318L22.1582 28.9902Z" fill="#E27525" stroke="#E27525"
    stroke-width="0.367494" stroke-linecap="round" stroke-linejoin="round" />
  <path d="M35.3532 31.7318L35.2559 34.4383L37.8416 28.9902L35.3532 31.7318Z" fill="#E27525" stroke="#E27525"
    stroke-width="0.367494" stroke-linecap="round" stroke-linejoin="round" />
  <path d="M28.3235 29.293L27.75 32.7112L28.4749 36.7475L28.6372 31.4279L28.3235 29.293Z" fill="#E27525"
    stroke="#E27525" stroke-width="0.367494" stroke-linecap="round" stroke-linejoin="round" />
  <path d="M31.676 29.293L31.373 31.4163L31.5245 36.7475L32.2494 32.7112L31.676 29.293Z" fill="#E27525" stroke="#E27525"
    stroke-width="0.367494" stroke-linecap="round" stroke-linejoin="round" />
  <path d="M32.2483 32.7124L31.5234 36.7488L32.0428 37.1454L35.256 34.4389L35.3533 31.7324L32.2483 32.7124Z"
    fill="#F5841F" stroke="#F5841F" stroke-width="0.367494" stroke-linecap="round" stroke-linejoin="round" />
  <path d="M24.6543 31.7324L24.7409 34.4389L27.954 37.1454L28.4734 36.7488L27.7485 32.7124L24.6543 31.7324Z"
    fill="#F5841F" stroke="#F5841F" stroke-width="0.367494" stroke-linecap="round" stroke-linejoin="round" />
  <path
    d="M32.3152 40.869L32.3476 39.7607L32.0663 39.504H27.9336L27.6631 39.7607L27.6847 40.869L24.2227 39.0957L25.4344 40.169L27.8902 42.0005H32.0987L34.5654 40.169L35.7663 39.0957L32.3152 40.869Z"
    fill="#C0AC9D" stroke="#C0AC9D" stroke-width="0.367494" stroke-linecap="round" stroke-linejoin="round" />
  <path
    d="M32.0437 37.1466L31.5244 36.75H28.4735L27.9543 37.1466L27.6621 39.7598L27.9326 39.5031H32.0654L32.3467 39.7598L32.0437 37.1466Z"
    fill="#161616" stroke="#161616" stroke-width="0.367494" stroke-linecap="round" stroke-linejoin="round" />
  <path
    d="M43.0781 23.3211L43.9978 18.4914L42.6129 14L32.043 22.4579L36.1108 26.1676L41.8556 27.9759L43.1214 26.3776L42.5697 25.9459L43.446 25.0827L42.7753 24.5227L43.6516 23.7994L43.0781 23.3211Z"
    fill="url(#paint7_linear_8544_20597)" stroke="#763E1A" stroke-width="0.367494" stroke-linecap="round"
    stroke-linejoin="round" />
  <path
    d="M16 18.4914L16.9304 23.3211L16.3354 23.7994L17.2225 24.5227L16.5518 25.0827L17.4281 25.9459L16.8763 26.3776L18.1421 27.9759L23.887 26.1676L27.9548 22.4579L17.3848 14L16 18.4914Z"
    fill="url(#paint8_linear_8544_20597)" stroke="#763E1A" stroke-width="0.367494" stroke-linecap="round"
    stroke-linejoin="round" />
  <path d="M41.8554 27.9761L36.1105 26.168L37.8416 28.9912L35.2559 34.4391L38.6746 34.3925H43.7811L41.8554 27.9761Z"
    fill="#F5841F" stroke="#F5841F" stroke-width="0.367494" stroke-linecap="round" stroke-linejoin="round" />
  <path d="M23.8843 26.168L18.1395 27.9761L16.2246 34.3925H21.3203L24.739 34.4391L22.1533 28.9912L23.8843 26.168Z"
    fill="#F5841F" stroke="#F5841F" stroke-width="0.367494" stroke-linecap="round" stroke-linejoin="round" />
  <path
    d="M31.6749 29.2947L32.0427 22.4584L33.7088 17.5938H26.2871L27.9532 22.4584L28.321 29.2947L28.4617 31.4412L28.4725 36.7493H31.5234L31.5342 31.4412L31.6749 29.2947Z"
    fill="#F5841F" stroke="#F5841F" stroke-width="0.367494" stroke-linecap="round" stroke-linejoin="round" />
  <defs>
    <filter id="filter0_f_8544_20597" x="251" y="-27" width="114" height="115" filterUnits="userSpaceOnUse"
      color-interpolation-filters="sRGB">
      <feFlood flood-opacity="0" result="BackgroundImageFix" />
      <feBlend mode="normal" in="SourceGraphic" in2="BackgroundImageFix" result="shape" />
      <feGaussianBlur stdDeviation="22" result="effect1_foregroundBlur_8544_20597" />
    </filter>
    <linearGradient id="paint0_linear_8544_20597" x1="-228" y1="-64.4999" x2="99" y2="17.5001"
      gradientUnits="userSpaceOnUse">
      <stop stop-color="#F5841F" stop-opacity="0.09" />
      <stop offset="1" stop-color="#242431" />
    </linearGradient>
    <linearGradient id="paint1_linear_8544_20597" x1="375.995" y1="56.1525" x2="371.298" y2="73.6813"
      gradientUnits="userSpaceOnUse">
      <stop stop-color="#E27625" />
      <stop offset="1" stop-color="#FFFAF5" />
    </linearGradient>
    <linearGradient id="paint2_linear_8544_20597" x1="324.551" y1="42.3695" x2="319.854" y2="59.8982"
      gradientUnits="userSpaceOnUse">
      <stop stop-color="#E27625" />
      <stop offset="1" stop-color="#FFFAF5" />
    </linearGradient>
    <linearGradient id="paint3_linear_8544_20597" x1="385.688" y1="1.52906" x2="375.834" y2="38.3056"
      gradientUnits="userSpaceOnUse">
      <stop stop-color="#763E1A" />
      <stop offset="0.4375" stop-color="#915E3D" />
      <stop offset="1" stop-color="#FFF1E8" />
    </linearGradient>
    <linearGradient id="paint4_linear_8544_20597" x1="343.473" y1="-9.78344" x2="333.619" y2="26.9931"
      gradientUnits="userSpaceOnUse">
      <stop stop-color="#763E1A" />
      <stop offset="0.4375" stop-color="#915E3D" />
      <stop offset="1" stop-color="#FFF1E8" />
    </linearGradient>
    <linearGradient id="paint5_linear_8544_20597" x1="39.7721" y1="34.2891" x2="39.7721" y2="40.9504"
      gradientUnits="userSpaceOnUse">
      <stop stop-color="#E27625" />
      <stop offset="1" stop-color="#FFFAF5" />
    </linearGradient>
    <linearGradient id="paint6_linear_8544_20597" x1="20.2222" y1="34.2891" x2="20.2222" y2="40.9504"
      gradientUnits="userSpaceOnUse">
      <stop stop-color="#E27625" />
      <stop offset="1" stop-color="#FFFAF5" />
    </linearGradient>
    <linearGradient id="paint7_linear_8544_20597" x1="38.0204" y1="14" x2="38.0204" y2="27.9759"
      gradientUnits="userSpaceOnUse">
      <stop stop-color="#763E1A" />
      <stop offset="0.4375" stop-color="#915E3D" />
      <stop offset="1" stop-color="#FFF1E8" />
    </linearGradient>
    <linearGradient id="paint8_linear_8544_20597" x1="21.9774" y1="14" x2="21.9774" y2="27.9759"
      gradientUnits="userSpaceOnUse">
      <stop stop-color="#763E1A" />
      <stop offset="0.4375" stop-color="#915E3D" />
      <stop offset="1" stop-color="#FFF1E8" />
    </linearGradient>
  </defs>
</svg>