<svg width="77" height="86" viewBox="0 0 77 86" fill="none" xmlns="http://www.w3.org/2000/svg">
<g opacity="0.18" clip-path="url(#clip0_12938_29561)">
<path d="M82.3226 56.7797L66.6904 82.228L76.879 75.0793L92.5111 49.6331L82.3226 56.7797Z" fill="black"/>
<path d="M66.6902 82.2273C66.0019 83.3468 65.1126 84.2814 64.0762 85.0083L74.2647 77.8596C75.2991 77.1348 76.1905 76.1981 76.8787 75.0786L66.6902 82.2273Z" fill="black"/>
<path d="M64.0765 85.0085C62.1403 86.3668 59.6963 86.9899 57.1279 86.6992L67.3165 79.5505C69.8849 79.8412 72.3289 79.2202 74.265 77.8599L64.0765 85.0085Z" fill="black"/>
<path d="M57.127 86.6991L26.1924 83.1932L36.3789 76.0466L67.3156 79.5504L57.127 86.6991Z" fill="black"/>
<path d="M26.193 83.1935C22.2955 82.7532 18.6991 80.2443 16.7549 76.6139L26.9434 69.4673C28.8879 73.0956 32.4844 75.6045 36.3795 76.0469L26.193 83.1935Z" fill="black"/>
<path d="M16.7538 76.6137L1.44922 48.0438L11.6376 40.8972L26.9424 69.4671L16.7538 76.6137Z" fill="black"/>
<path d="M1.44993 48.044C-0.483309 44.4364 -0.483309 40.2473 1.44993 37.0509L11.6383 29.9043C9.70504 33.0986 9.70504 37.2877 11.6383 40.8973L1.44993 48.044Z" fill="black"/>
<path d="M1.44922 37.0507L16.7538 11.7602L26.9424 4.61279L11.6376 29.9041L1.44922 37.0507Z" fill="black"/>
<path d="M16.7549 11.7603C17.4512 10.6097 18.3594 9.64828 19.4172 8.9062L29.6051 1.75854C28.5479 2.50062 27.64 3.46222 26.9434 4.61283L16.7549 11.7603Z" fill="black"/>
<path d="M19.417 8.90626C21.3131 7.5758 23.6908 6.95003 26.1928 7.20258L36.3793 0.0549127C33.8794 -0.197431 31.5017 0.42835 29.6049 1.75861L19.417 8.90626Z" fill="black"/>
<path d="M26.1924 7.20236L57.127 10.3241L67.3156 3.17649L36.3789 0.0546875L26.1924 7.20236Z" fill="black"/>
<path d="M57.1279 10.3244C61.0686 10.7221 64.7149 13.2069 66.6905 16.8444L76.879 9.69677C74.9035 6.05929 71.2572 3.57448 67.3165 3.17676L57.1279 10.3244Z" fill="black"/>
<path d="M66.6904 16.8444L82.3226 45.6409L92.5111 38.4943L76.879 9.69678L66.6904 16.8444Z" fill="black"/>
<path d="M58.2539 53.2924C58.171 52.6049 58.0528 51.9195 57.9077 51.2321L68.0963 44.0854C68.2414 44.7708 68.3595 45.4583 68.4425 46.1457L58.2539 53.2924Z" fill="black"/>
<path d="M57.9093 51.232C57.8948 51.1593 57.6772 50.2496 57.5093 49.5456L67.6957 42.3989C67.8657 43.103 68.0834 44.0127 68.0979 44.0854L57.9093 51.232Z" fill="black"/>
<path d="M57.5089 49.5453C57.4944 49.483 57.4592 49.4249 57.4136 49.3792L67.6021 42.2305C67.6477 42.2782 67.6809 42.3364 67.6954 42.3987L57.5089 49.5453Z" fill="black"/>
<path d="M57.414 49.3796C57.3663 49.3318 57.3083 49.3007 57.2461 49.2862L67.4347 42.1375C67.4968 42.152 67.5549 42.1852 67.6026 42.2309L57.414 49.3796Z" fill="black"/>
<path d="M57.2463 49.2859C57.1841 49.2714 57.1219 49.2776 57.0659 49.3004L67.2545 42.1518C67.3104 42.1289 67.3726 42.1227 67.4348 42.1372L57.2463 49.2859Z" fill="black"/>
<path d="M57.0657 49.3001C57.0492 49.3063 57.0326 49.3167 57.0181 49.3271L67.2066 42.1784C67.2211 42.168 67.2377 42.1597 67.2543 42.1514L57.0657 49.3001Z" fill="black"/>
<path d="M57.0179 49.3276C56.9847 49.3505 56.9557 49.3816 56.937 49.4169L67.1256 42.2703C67.1442 42.233 67.1732 42.2039 67.2064 42.179L57.0179 49.3276Z" fill="black"/>
<path d="M56.9369 49.4169L54.6421 53.6371L64.8306 46.4884L67.1254 42.2703L56.9369 49.4169Z" fill="black"/>
<path d="M54.6415 53.637C54.6001 53.7138 54.5773 53.8031 54.5752 53.8945L64.7638 46.7479C64.7658 46.6544 64.7886 46.5672 64.8301 46.4883L54.6415 53.637Z" fill="black"/>
<path d="M54.5759 53.8942C54.4744 57.4 53.4358 60.0501 52.7725 61.1633L62.961 54.0167C63.6244 52.9014 64.6629 50.2534 64.7645 46.7476L54.5759 53.8942Z" fill="black"/>
<path d="M52.7724 61.1637C51.9889 62.4784 51.0042 63.5563 49.8247 64.385L60.0112 57.2384C61.1928 56.4097 62.1774 55.3318 62.961 54.0171L52.7724 61.1637Z" fill="black"/>
<path d="M49.8237 64.3846C48.9696 64.9849 48.0119 65.4522 46.9526 65.7845L57.1412 58.6379C58.2005 58.3056 59.1582 57.8362 60.0101 57.238L49.8237 64.3846Z" fill="black"/>
<path d="M46.954 65.7844C43.4653 66.8789 39.9537 66.4719 36.5229 64.4843L46.7094 57.3376C50.1422 59.3252 53.6538 59.7323 57.1426 58.6378L46.954 65.7844Z" fill="black"/>
<path d="M36.5222 64.4845C36.1926 64.2955 35.8775 64.0961 35.5728 63.8884L45.7613 56.7397C46.066 56.9495 46.3811 57.1468 46.7086 57.3379L36.5222 64.4845Z" fill="black"/>
<path d="M35.5728 63.8889C34.0139 62.838 32.679 61.4631 31.6694 59.8701L41.858 52.7214C42.8675 54.3144 44.2025 55.6893 45.7614 56.7402L35.5728 63.8889Z" fill="black"/>
<path d="M31.6685 59.8701C30.8973 58.6572 30.3024 57.3135 29.8691 55.8513L40.0577 48.7026C40.4909 50.1648 41.0859 51.5085 41.857 52.7214L31.6685 59.8701Z" fill="black"/>
<path d="M29.8697 55.8508C29.1815 53.5205 29.2893 51.2713 29.7888 49.0448L39.9774 41.8982C39.4778 44.1226 39.37 46.3718 40.0582 48.7021L29.8697 55.8508Z" fill="black"/>
<path d="M29.79 49.0446C30.557 45.6198 32.1698 42.681 34.0976 39.9083L44.2862 32.7617C42.3583 35.5323 40.7456 38.4711 39.9786 41.898L29.79 49.0446Z" fill="black"/>
<path d="M34.0972 39.9088C36.622 36.2763 39.0557 32.5774 41.1493 28.6394L51.3379 21.4917C49.2442 25.4305 46.8106 29.1285 44.2857 32.7622L34.0972 39.9088Z" fill="black"/>
<path d="M41.1499 28.6392C41.2867 28.3802 41.4235 28.1202 41.5583 27.8591L51.7468 20.7117C51.6121 20.9727 51.4753 21.2326 51.3385 21.4916L41.1499 28.6392Z" fill="black"/>
<path d="M41.5576 27.859L41.5721 27.8293L51.7607 20.6816L51.7462 20.7115L41.5576 27.859Z" fill="black"/>
<path d="M41.5718 27.8293C41.6029 27.7682 41.6381 27.7103 41.6775 27.6555L51.8661 20.5078C51.8267 20.5626 51.7894 20.6208 51.7603 20.6817L41.5718 27.8293Z" fill="black"/>
<path d="M41.6772 27.6558C41.7104 27.6116 41.7436 27.5777 41.7747 27.5547L51.9632 20.4072C51.9321 20.4303 51.899 20.4639 51.8658 20.5082L41.6772 27.6558Z" fill="black"/>
<path d="M41.7744 27.5543C41.8864 27.4762 41.9962 27.5215 42.0999 27.6964L52.2884 20.5489C52.1848 20.374 52.0749 20.3285 51.963 20.4068L41.7744 27.5543Z" fill="black"/>
<path d="M42.1011 27.6968C42.1964 27.8646 42.2835 28.0365 42.3623 28.2116L52.5508 21.064C52.4721 20.8889 52.385 20.7171 52.2896 20.5493L42.1011 27.6968Z" fill="black"/>
<path d="M42.3608 28.2116C42.4313 28.3599 42.9641 29.5369 43.6378 31.0229L53.8263 23.8755C53.1526 22.3892 52.6199 21.2123 52.5494 21.064L42.3608 28.2116Z" fill="black"/>
<path d="M43.6387 31.0227C43.6615 31.0777 43.7009 31.1263 43.7485 31.1629L53.9371 24.0152C53.8894 23.9787 53.85 23.9301 53.8272 23.8752L43.6387 31.0227Z" fill="black"/>
<path d="M43.748 31.1628C43.7978 31.1994 43.8538 31.2224 43.9097 31.2293L54.0983 24.0816C54.0402 24.0748 53.9843 24.0517 53.9366 24.0151L43.748 31.1628Z" fill="black"/>
<path d="M43.9111 31.2293C43.9692 31.2361 44.0252 31.2266 44.0749 31.2019L54.2635 24.0542C54.2137 24.0789 54.1577 24.0885 54.0997 24.0816L43.9111 31.2293Z" fill="black"/>
<path d="M44.0732 31.2019C44.0857 31.196 44.096 31.1896 44.1064 31.1823L54.295 24.0347C54.2846 24.0419 54.2722 24.0486 54.2618 24.0542L44.0732 31.2019Z" fill="black"/>
<path d="M44.1064 31.1825C44.1396 31.1584 44.1686 31.1267 44.1873 31.0891L54.3759 23.9414C54.3572 23.9792 54.3282 24.011 54.295 24.0349L44.1064 31.1825Z" fill="black"/>
<path d="M44.188 31.089L46.0246 27.698L56.2132 20.5505L54.3765 23.9413L44.188 31.089Z" fill="black"/>
<path d="M46.0239 27.6978C46.0695 27.6155 46.0923 27.5217 46.0923 27.4241L56.2809 20.2766C56.2809 20.3742 56.256 20.4679 56.2125 20.5503L46.0239 27.6978Z" fill="black"/>
<path d="M46.0923 27.4236C46.0923 27.3262 46.0695 27.2276 46.0239 27.136L56.2125 19.9885C56.256 20.0799 56.2809 20.1786 56.2809 20.2762L46.0923 27.4236Z" fill="black"/>
<path d="M46.0256 27.1368C45.6795 26.4134 45.3436 25.6857 45.0161 24.9536L55.2047 17.8059C55.5322 18.538 55.868 19.2658 56.2142 19.9894L46.0256 27.1368Z" fill="black"/>
<path d="M45.0147 24.953C44.8675 24.6188 44.7245 24.2813 44.5835 23.9438L54.7721 16.7961C54.913 17.1338 55.056 17.4713 55.2032 17.8053L45.0147 24.953Z" fill="black"/>
<path d="M44.5844 23.943C44.375 23.446 44.1656 22.949 43.9355 22.4624L54.1241 15.3149C54.3542 15.8014 54.5636 16.2984 54.7729 16.7954L44.5844 23.943Z" fill="black"/>
<path d="M43.9354 22.4632C43.5312 21.605 42.8617 21.0741 41.9351 20.9641L52.1236 13.8164C53.0502 13.9265 53.7198 14.4573 54.124 15.3157L43.9354 22.4632Z" fill="black"/>
<path d="M41.9343 20.9637C41.3767 20.8973 40.9144 21.0084 40.5371 21.273L50.7257 14.1253C51.1009 13.861 51.5652 13.7498 52.1228 13.8161L41.9343 20.9637Z" fill="black"/>
<path d="M40.5376 21.2729C40.2889 21.4465 40.0795 21.6864 39.9033 21.9857L50.0919 14.838C50.2681 14.539 50.4774 14.2991 50.7262 14.1252L40.5376 21.2729Z" fill="black"/>
<path d="M39.9038 21.9853C39.8436 22.0887 39.7897 22.1969 39.7358 22.3051L49.9244 15.1575C49.9783 15.0493 50.0322 14.9413 50.0923 14.8376L39.9038 21.9853Z" fill="black"/>
<path d="M39.7345 22.3061C39.7138 22.3475 39.6931 22.3888 39.6724 22.4299L49.8609 15.2823C49.8816 15.2411 49.9024 15.1998 49.9231 15.1587L39.7345 22.3061Z" fill="black"/>
<path d="M39.6734 22.4301C39.3749 23.0164 39.0846 23.6079 38.7944 24.1992L48.983 17.0516C49.2732 16.4603 49.5634 15.8688 49.8619 15.2825L39.6734 22.4301Z" fill="black"/>
<path d="M38.7931 24.1999L38.791 24.2003L48.9796 17.0529L48.9816 17.0522L38.7931 24.1999Z" fill="black"/>
<path d="M38.7918 24.2009C38.597 24.5984 38.4021 24.9961 38.2031 25.3922L48.3917 18.2445C48.5886 17.8487 48.7855 17.4509 48.9804 17.0532L38.7918 24.2009Z" fill="black"/>
<path d="M38.2024 25.3923C37.8355 26.1227 37.4644 26.8482 37.0664 27.5577L47.2549 20.41C47.653 19.7008 48.024 18.9751 48.3909 18.2446L38.2024 25.3923Z" fill="black"/>
<path d="M37.0675 27.5578C36.9639 27.7431 36.8582 27.9273 36.7524 28.1105L46.941 20.963C47.0467 20.7796 47.1524 20.5954 47.2561 20.4102L37.0675 27.5578Z" fill="black"/>
<path d="M36.7514 28.1106C35.2382 30.6907 33.6171 33.1984 31.9878 35.6948L42.1764 28.5472C43.8057 26.0516 45.4267 23.5431 46.94 20.9631L36.7514 28.1106Z" fill="black"/>
<path d="M31.9888 35.6945C31.6592 36.1971 31.3254 36.6956 30.9917 37.192L41.1802 30.0451C41.514 29.5475 41.8477 29.0495 42.1773 28.5469L31.9888 35.6945Z" fill="black"/>
<path d="M30.9921 37.1925C29.8623 38.8748 28.7346 40.555 27.8516 42.4118L38.0401 35.2631C38.9232 33.4063 40.0509 31.7274 41.1806 30.0459L30.9921 37.1925Z" fill="black"/>
<path d="M27.8515 42.4109C26.7341 44.7599 25.9361 47.2314 25.6147 49.8836L35.8012 42.737C36.1246 40.0848 36.9227 37.6133 38.04 35.2622L27.8515 42.4109Z" fill="black"/>
<path d="M25.6142 49.8837C25.3137 52.349 25.521 54.835 26.3605 57.319L36.5491 50.1724C35.7095 47.6863 35.5022 45.2003 35.8007 42.7371L25.6142 49.8837Z" fill="black"/>
<path d="M26.3599 57.319C26.7931 58.6191 27.3632 59.8819 28.0576 61.0844L38.2462 53.9357C37.5517 52.7332 36.9817 51.4704 36.5484 50.1724L26.3599 57.319Z" fill="black"/>
<path d="M28.0581 61.0847C28.7028 62.1938 29.4698 63.2343 30.3425 64.1835L40.5311 57.0369C39.6583 56.0877 38.8914 55.0472 38.2467 53.936L28.0581 61.0847Z" fill="black"/>
<path d="M30.3423 64.1835C30.6594 64.5282 30.9828 64.8585 31.3124 65.1742L41.501 58.0255C41.1714 57.7098 40.848 57.3816 40.5308 57.0369L30.3423 64.1835Z" fill="black"/>
<path d="M31.3135 65.1741C34.3089 68.0381 37.8661 69.7433 42.4266 70.2459L52.6151 63.0993C48.0546 62.5946 44.4975 60.8894 41.502 58.0254L31.3135 65.1741Z" fill="black"/>
<path d="M42.4263 70.2457C43.5084 70.4451 45.1273 70.3495 46.7028 70.038L56.8913 62.8914C55.3159 63.2029 53.6969 63.2984 52.6148 63.099L42.4263 70.2457Z" fill="black"/>
<path d="M46.7017 70.0378C48.787 69.6245 50.6403 68.8581 52.2489 67.7283L62.4374 60.5796C60.8288 61.7094 58.9756 62.4779 56.8902 62.8912L46.7017 70.0378Z" fill="black"/>
<path d="M52.25 67.7288C53.4751 66.869 54.5593 65.8015 55.5004 64.52L65.6889 57.3713C64.7478 58.6528 63.6637 59.7224 62.4386 60.5801L52.25 67.7288Z" fill="black"/>
<path d="M55.5 64.5199C57.2019 62.1958 58.1845 59.527 58.3648 56.5114L68.5534 49.3647C68.373 52.3804 67.3905 55.0492 65.6886 57.3712L55.5 64.5199Z" fill="black"/>
<path d="M58.3657 56.5116C58.4258 55.4482 58.3885 54.3703 58.2559 53.2924L68.4423 46.1458C68.5771 47.2237 68.6144 48.3016 68.5543 49.365L58.3657 56.5116Z" fill="black"/>
<path d="M56.6069 47.373C56.6463 47.3024 56.6712 47.2235 56.6754 47.1383L66.8639 39.9917C66.8598 40.0748 66.8349 40.1537 66.7955 40.2243L56.6069 47.373Z" fill="black"/>
<path d="M56.6754 47.1379C56.6816 47.0548 56.6692 46.9697 56.6401 46.8866L66.8287 39.74C66.8577 39.821 66.8702 39.9061 66.8639 39.9913L56.6754 47.1379Z" fill="black"/>
<path d="M56.6391 46.8872C56.3281 46.0523 55.8514 44.937 54.875 43.0844L65.0636 35.9377C66.0399 37.7883 66.5167 38.9036 66.8276 39.7406L56.6391 46.8872Z" fill="black"/>
<path d="M54.8761 43.084C54.0076 41.435 53.0478 39.8295 52.0859 38.2262L62.2745 31.0779C63.2343 32.6829 64.1961 34.2863 65.0647 35.9374L54.8761 43.084Z" fill="black"/>
<path d="M52.0862 38.2264C51.6716 37.5306 51.2549 36.8369 50.8486 36.1412L61.0351 28.9927C61.4435 29.6901 61.8602 30.384 62.2747 31.0781L52.0862 38.2264Z" fill="black"/>
<path d="M50.8478 36.141C49.7574 34.278 48.7085 32.4005 47.7114 30.4995L57.9 23.3518C58.8971 25.2538 59.946 27.1314 61.0343 28.9925L50.8478 36.141Z" fill="black"/>
<path d="M47.7114 30.4996C47.5145 30.1241 47.3217 29.7474 47.1289 29.3696L57.3175 22.2219C57.5082 22.5999 57.703 22.9765 57.9 23.352L47.7114 30.4996Z" fill="black"/>
<path d="M47.1296 29.37C47.1027 29.3179 47.0633 29.2724 47.0156 29.2388L57.2042 22.0913C57.2519 22.1247 57.2912 22.1702 57.3182 22.2224L47.1296 29.37Z" fill="black"/>
<path d="M47.0145 29.2385C46.9668 29.2049 46.9108 29.1843 46.8569 29.1789L57.0455 22.0312C57.0994 22.0366 57.1554 22.0572 57.203 22.0911L47.0145 29.2385Z" fill="black"/>
<path d="M46.8579 29.1786C46.8019 29.1732 46.7459 29.1834 46.6982 29.2077L56.8868 22.0602C56.9345 22.0357 56.9905 22.0256 57.0464 22.031L46.8579 29.1786Z" fill="black"/>
<path d="M46.6976 29.208C46.6872 29.2136 46.6769 29.2198 46.6665 29.2269L56.8551 22.0792C56.8654 22.0724 56.8758 22.0662 56.8862 22.0605L46.6976 29.208Z" fill="black"/>
<path d="M46.6672 29.2268C46.634 29.2502 46.607 29.281 46.5884 29.3175L56.7749 22.1699C56.7956 22.1335 56.8225 22.1026 56.8557 22.0791L46.6672 29.2268Z" fill="black"/>
<path d="M46.5888 29.3173L44.8413 32.5417L55.0299 25.3949L56.7753 22.1697L46.5888 29.3173Z" fill="black"/>
<path d="M44.8405 32.5418C44.7928 32.6291 44.77 32.7288 44.7721 32.8305L54.9607 25.6831C54.9586 25.5803 54.9814 25.4812 55.0291 25.395L44.8405 32.5418Z" fill="black"/>
<path d="M44.772 32.8308C44.774 32.9347 44.801 33.0364 44.8528 33.132L55.0414 25.9837C54.9896 25.8894 54.9626 25.7862 54.9605 25.6833L44.772 32.8308Z" fill="black"/>
<path d="M44.853 33.1317C44.8572 33.14 44.8613 33.1462 44.8655 33.1545L55.054 26.0062C55.0499 25.9979 55.0457 25.9917 55.0416 25.9834L44.853 33.1317Z" fill="black"/>
<path d="M44.8657 33.1546C44.8719 33.1671 44.8802 33.1796 44.8865 33.192L55.075 26.045C55.0688 26.0321 55.0605 26.0188 55.0543 26.0063L44.8657 33.1546Z" fill="black"/>
<path d="M44.8872 33.192C45.1753 33.7797 45.3764 34.218 45.4428 34.3924L55.6313 27.2441C55.565 27.0697 55.3639 26.6329 55.0758 26.0449L44.8872 33.192Z" fill="black"/>
<path d="M45.4411 34.3927C49.7031 44.2268 36.6518 56.9001 36.6021 56.9374L46.7906 49.7908C46.8404 49.7534 59.8917 37.0802 55.6297 27.2444L45.4411 34.3927Z" fill="black"/>
<path d="M36.6026 56.9372C36.53 56.9932 36.4741 57.0638 36.4326 57.1448L46.6212 49.9982C46.6626 49.9152 46.7186 49.8445 46.7911 49.7905L36.6026 56.9372Z" fill="black"/>
<path d="M36.434 57.1451C36.3946 57.2261 36.3718 57.3175 36.3677 57.4131L46.5562 50.2644C46.5604 50.1709 46.5832 50.0795 46.6226 49.9985L36.434 57.1451Z" fill="black"/>
<path d="M36.3659 57.4126C36.3638 57.5061 36.3784 57.6037 36.4157 57.6951L46.6022 50.5485C46.5669 50.455 46.5524 50.3595 46.5545 50.2639L36.3659 57.4126Z" fill="black"/>
<path d="M36.4165 57.6949C36.4497 57.7863 36.5036 57.8736 36.5699 57.9483L46.7585 50.7996C46.69 50.7249 46.6382 50.6397 46.603 50.5483L36.4165 57.6949Z" fill="black"/>
<path d="M36.5708 57.9485L39.3423 61.0431L49.5288 53.8944L46.7594 50.7998L36.5708 57.9485Z" fill="black"/>
<path d="M39.3418 61.0432C39.4703 61.1886 39.6444 61.2841 39.8289 61.3132L50.0175 54.1666C49.833 54.1375 49.6589 54.0399 49.5283 53.8945L39.3418 61.0432Z" fill="black"/>
<path d="M39.8291 61.3136C40.0094 61.3427 40.1877 61.3032 40.3287 61.2035L50.5173 54.0569C50.3763 54.1545 50.198 54.194 50.0177 54.167L39.8291 61.3136Z" fill="black"/>
<path d="M40.3286 61.203L40.3348 61.1989L50.5234 54.0522L50.5172 54.0564L40.3286 61.203Z" fill="black"/>
<path d="M40.334 61.199C43.1573 58.931 45.5412 56.1646 47.3945 53.0077L57.5809 45.8611C55.7298 49.0159 53.3459 51.7823 50.5225 54.0524L40.334 61.199Z" fill="black"/>
<path d="M47.395 53.0072C49.0057 50.2615 49.922 47.7048 50.2951 45.9478L60.4836 38.7991C60.1105 40.5582 59.1943 43.1149 57.5815 45.8605L47.395 53.0072Z" fill="black"/>
<path d="M50.2939 45.9479V45.9417L60.4825 38.793V38.7992L50.2939 45.9479Z" fill="black"/>
<path d="M50.2939 45.9425C50.3644 45.6933 50.4204 45.4461 50.4722 45.2197L60.6608 38.071C60.6089 38.2995 60.5509 38.5467 60.4825 38.7938L50.2939 45.9425Z" fill="black"/>
<path d="M50.4727 45.219C50.5825 44.7371 50.6717 44.3467 50.8271 44.2387L61.0136 37.092C60.8602 37.2 60.7711 37.5884 60.6612 38.0703L50.4727 45.219Z" fill="black"/>
<path d="M50.8271 44.239C51.0324 44.0937 51.3537 44.4467 51.9984 45.7386L62.1869 38.5919C61.5422 37.298 61.2209 36.947 61.0136 37.0924L50.8271 44.239Z" fill="black"/>
<path d="M51.9995 45.7384C52.1736 46.106 52.3416 46.4757 52.5012 46.8496L62.6897 39.7029C62.5301 39.3291 62.3622 38.9573 62.1881 38.5918L51.9995 45.7384Z" fill="black"/>
<path d="M52.501 46.8497L52.5051 46.8581L62.6937 39.7114L62.6895 39.7031L52.501 46.8497Z" fill="black"/>
<path d="M52.5044 46.858L52.523 46.9037L62.7116 39.7571L62.693 39.7114L52.5044 46.858Z" fill="black"/>
<path d="M52.5234 46.9034C52.7183 47.3604 52.9007 47.8194 53.0707 48.2804L63.2593 41.1317C63.0893 40.6727 62.9069 40.2138 62.712 39.7568L52.5234 46.9034Z" fill="black"/>
<path d="M53.0708 48.2808L53.0957 48.3452L63.2822 41.1986L63.2594 41.1321L53.0708 48.2808Z" fill="black"/>
<path d="M53.0957 48.3449C53.0998 48.3573 53.1061 48.3719 53.1102 48.3864L63.2967 41.2377C63.2926 41.2252 63.2863 41.2107 63.2822 41.1982L53.0957 48.3449Z" fill="black"/>
<path d="M53.1094 48.3865C53.1135 48.3969 53.1177 48.4093 53.1218 48.4218L63.3083 41.2731C63.3041 41.2627 63.3 41.2482 63.2959 41.2378L53.1094 48.3865Z" fill="black"/>
<path d="M53.1221 48.4221L53.1387 48.4678L63.3251 41.3212L63.3086 41.2734L53.1221 48.4221Z" fill="black"/>
<path d="M53.1382 48.4674C53.1921 48.617 53.2439 48.7665 53.2957 48.916L63.4843 41.7694C63.4325 41.6199 63.3786 41.4703 63.3247 41.3208L53.1382 48.4674Z" fill="black"/>
<path d="M53.2969 48.9159C53.2969 48.9159 53.3757 49.1527 53.4544 49.3978L63.643 42.2491C63.5642 42.0061 63.4854 41.7693 63.4854 41.7693L53.2969 48.9159Z" fill="black"/>
<path d="M53.4536 49.3977C53.5324 49.6407 53.7065 50.2534 53.918 51.0904L64.1065 43.9438C63.8951 43.1068 63.7209 42.4941 63.6422 42.249L53.4536 49.3977Z" fill="black"/>
<path d="M53.918 51.091C53.9346 51.1533 53.9677 51.2114 54.0154 51.2571L64.2039 44.1084C64.1563 44.0627 64.1231 44.0046 64.1065 43.9443L53.918 51.091Z" fill="black"/>
<path d="M54.0151 51.2566C54.0628 51.3023 54.1209 51.3335 54.183 51.3459L64.3695 44.1993C64.3094 44.1848 64.2514 44.1536 64.2037 44.1079L54.0151 51.2566Z" fill="black"/>
<path d="M54.1831 51.3456C54.2432 51.3581 54.3054 51.3518 54.3614 51.329L64.5499 44.1824C64.494 44.2052 64.4318 44.2115 64.3696 44.199L54.1831 51.3456Z" fill="black"/>
<path d="M54.3613 51.3299C54.3779 51.3236 54.3924 51.3133 54.4069 51.3049L64.5955 44.1562C64.581 44.1666 64.5665 44.1749 64.5499 44.1833L54.3613 51.3299Z" fill="black"/>
<path d="M54.4072 51.3044C54.4404 51.2795 54.4694 51.2483 54.4881 51.213L64.6766 44.0664C64.658 44.1017 64.629 44.1329 64.5958 44.1557L54.4072 51.3044Z" fill="black"/>
<path d="M54.4888 51.2133C54.7251 50.7813 54.98 50.3223 55.2578 49.8259L65.4464 42.6772C65.1686 43.1736 64.9136 43.6347 64.6773 44.0667L54.4888 51.2133Z" fill="black"/>
<path d="M55.2583 49.8237L55.2604 49.8217L65.4469 42.675L55.2583 49.8237Z" fill="black"/>
<path d="M55.2603 49.822C55.6645 49.093 56.1143 48.2851 56.6077 47.3712L66.7962 40.2246C66.3029 41.1384 65.853 41.9464 65.4467 42.6754L55.2603 49.822Z" fill="black"/>
<path d="M66.6902 82.228C66.0019 83.3475 65.1126 84.2821 64.0762 85.009L74.2647 77.8603C75.2991 77.1355 76.1905 76.1988 76.8787 75.0793L66.6902 82.228Z" fill="black"/>
<path d="M57.127 86.6991L26.1924 83.1932L36.3789 76.0466L67.3156 79.5504L57.127 86.6991Z" fill="black"/>
<path d="M26.193 83.1935C22.2955 82.7532 18.6991 80.2443 16.7549 76.6139L26.9434 69.4673C28.8879 73.0956 32.4844 75.6045 36.3795 76.0469L26.193 83.1935Z" fill="black"/>
<path d="M16.7538 76.6137L1.44922 48.0438L11.6376 40.8972L26.9424 69.4671L16.7538 76.6137Z" fill="black"/>
<path d="M1.44993 48.044C-0.483309 44.4364 -0.483309 40.2473 1.44993 37.0509L11.6383 29.9043C9.70504 33.0986 9.70504 37.2877 11.6383 40.8973L1.44993 48.044Z" fill="black"/>
<path d="M1.44922 37.0507L16.7538 11.7602L26.9424 4.61279L11.6376 29.9041L1.44922 37.0507Z" fill="black"/>
<path d="M16.7549 11.7603C17.4512 10.6097 18.3594 9.64828 19.4172 8.9062L29.6051 1.75854C28.5479 2.50062 27.64 3.46222 26.9434 4.61283L16.7549 11.7603Z" fill="black"/>
<path fill-rule="evenodd" clip-rule="evenodd" d="M19.4155 8.90559C21.3115 7.57558 23.6888 6.95007 26.1904 7.20258L36.3769 0.0549127C33.8769 -0.197431 31.4992 0.42835 29.6025 1.75861L19.4155 8.90559ZM82.3206 56.7798C84.3085 53.546 84.3085 49.2988 82.3206 45.6413L92.5091 38.4947C94.495 42.1521 94.495 46.3994 92.5091 49.6331L76.8772 75.0792L70.7299 79.3924C72.012 79.1177 73.2065 78.6001 74.2531 77.8668L64.0746 85.0084C62.1385 86.3667 59.6945 86.9898 57.1261 86.6991L67.3146 79.5504C67.6428 79.5875 67.9689 79.6098 68.2921 79.6175L82.3206 56.7798ZM26.1922 7.20227L57.1265 10.324L57.1261 10.3243C61.0668 10.7221 64.7131 13.2069 66.6886 16.8444L76.8772 9.6967C74.9017 6.05932 71.2555 3.57455 67.315 3.17672L67.3154 3.1764L36.3787 0.0546007L26.1922 7.20227ZM82.3208 45.641L66.6887 16.8445L76.8772 9.69685L92.5094 38.4944L82.3208 45.641Z" fill="url(#paint0_radial_12938_29561)"/>
<path d="M58.2539 53.2924C58.171 52.6049 58.0528 51.9195 57.9077 51.2321L68.0963 44.0854C68.2414 44.7708 68.3595 45.4583 68.4425 46.1457L58.2539 53.2924Z" fill="black"/>
<path d="M57.9093 51.232C57.8948 51.1593 57.6772 50.2496 57.5093 49.5456L67.6957 42.3989C67.8657 43.103 68.0834 44.0127 68.0979 44.0854L57.9093 51.232Z" fill="black"/>
<path d="M57.5089 49.5453C57.4944 49.483 57.4592 49.4249 57.4136 49.3792L67.6021 42.2305C67.6477 42.2782 67.6809 42.3364 67.6954 42.3987L57.5089 49.5453Z" fill="black"/>
<path d="M57.414 49.3796C57.3663 49.3318 57.3083 49.3007 57.2461 49.2862L67.4347 42.1375C67.4968 42.152 67.5549 42.1852 67.6026 42.2309L57.414 49.3796Z" fill="black"/>
<path d="M57.2463 49.2859C57.1841 49.2714 57.1219 49.2776 57.0659 49.3004L67.2545 42.1518C67.3104 42.1289 67.3726 42.1227 67.4348 42.1372L57.2463 49.2859Z" fill="black"/>
<path d="M57.0657 49.3001C57.0492 49.3063 57.0326 49.3167 57.0181 49.3271L67.2066 42.1784C67.2211 42.168 67.2377 42.1597 67.2543 42.1514L57.0657 49.3001Z" fill="black"/>
<path d="M57.0179 49.3276C56.9847 49.3505 56.9557 49.3816 56.937 49.4169L67.1256 42.2703C67.1442 42.233 67.1732 42.2039 67.2064 42.179L57.0179 49.3276Z" fill="black"/>
<path d="M56.9369 49.4169L54.6421 53.6371L64.8306 46.4884L67.1254 42.2703L56.9369 49.4169Z" fill="black"/>
<path d="M54.6415 53.637C54.6001 53.7138 54.5773 53.8031 54.5752 53.8945L64.7638 46.7479C64.7658 46.6544 64.7886 46.5672 64.8301 46.4883L54.6415 53.637Z" fill="black"/>
<path d="M54.5759 53.8942C54.4744 57.4 53.4358 60.0501 52.7725 61.1633L62.961 54.0167C63.6244 52.9014 64.6629 50.2534 64.7645 46.7476L54.5759 53.8942Z" fill="black"/>
<path d="M52.7724 61.1637C51.9889 62.4784 51.0042 63.5563 49.8247 64.385L60.0112 57.2384C61.1928 56.4097 62.1774 55.3318 62.961 54.0171L52.7724 61.1637Z" fill="black"/>
<path d="M49.8237 64.3846C48.9696 64.9849 48.0119 65.4522 46.9526 65.7845L57.1412 58.6379C58.2005 58.3056 59.1582 57.8362 60.0101 57.238L49.8237 64.3846Z" fill="black"/>
<path d="M46.954 65.7844C43.4653 66.8789 39.9537 66.4719 36.5229 64.4843L46.7094 57.3376C50.1422 59.3252 53.6538 59.7323 57.1426 58.6378L46.954 65.7844Z" fill="black"/>
<path d="M36.5222 64.4845C36.1926 64.2955 35.8775 64.0961 35.5728 63.8884L45.7613 56.7397C46.066 56.9495 46.3811 57.1468 46.7086 57.3379L36.5222 64.4845Z" fill="black"/>
<path d="M35.5728 63.8889C34.0139 62.838 32.679 61.4631 31.6694 59.8701L41.858 52.7214C42.8675 54.3144 44.2025 55.6893 45.7614 56.7402L35.5728 63.8889Z" fill="black"/>
<path d="M31.6685 59.8701C30.8973 58.6572 30.3024 57.3135 29.8691 55.8513L40.0577 48.7026C40.4909 50.1648 41.0859 51.5085 41.857 52.7214L31.6685 59.8701Z" fill="black"/>
<path d="M29.8697 55.8508C29.1815 53.5205 29.2893 51.2713 29.7888 49.0448L39.9774 41.8982C39.4778 44.1226 39.37 46.3718 40.0582 48.7021L29.8697 55.8508Z" fill="black"/>
<path d="M29.79 49.0446C30.557 45.6198 32.1698 42.681 34.0976 39.9083L44.2862 32.7617C42.3583 35.5323 40.7456 38.4711 39.9786 41.898L29.79 49.0446Z" fill="black"/>
<path d="M34.0972 39.9088C36.622 36.2763 39.0557 32.5774 41.1493 28.6394L51.3379 21.4917C49.2442 25.4305 46.8106 29.1285 44.2857 32.7622L34.0972 39.9088Z" fill="black"/>
<path d="M41.1499 28.6392C41.2867 28.3802 41.4235 28.1202 41.5583 27.8591L51.7468 20.7117C51.6121 20.9727 51.4753 21.2326 51.3385 21.4916L41.1499 28.6392Z" fill="black"/>
<path d="M41.5576 27.859L41.5721 27.8293L51.7607 20.6816L51.7462 20.7115L41.5576 27.859Z" fill="black"/>
<path d="M41.5718 27.8293C41.6029 27.7682 41.6381 27.7103 41.6775 27.6555L51.8661 20.5078C51.8267 20.5626 51.7894 20.6208 51.7603 20.6817L41.5718 27.8293Z" fill="black"/>
<path d="M41.6772 27.6558C41.7104 27.6116 41.7436 27.5777 41.7747 27.5547L51.9632 20.4072C51.9321 20.4303 51.899 20.4639 51.8658 20.5082L41.6772 27.6558Z" fill="black"/>
<path d="M41.7744 27.5543C41.8864 27.4762 41.9962 27.5215 42.0999 27.6964L52.2884 20.5489C52.1848 20.374 52.0749 20.3285 51.963 20.4068L41.7744 27.5543Z" fill="black"/>
<path d="M42.1011 27.6968C42.1964 27.8646 42.2835 28.0365 42.3623 28.2116L52.5508 21.064C52.4721 20.8889 52.385 20.7171 52.2896 20.5493L42.1011 27.6968Z" fill="black"/>
<path d="M42.3608 28.2116C42.4313 28.3599 42.9641 29.5369 43.6378 31.0229L53.8263 23.8755C53.1526 22.3892 52.6199 21.2123 52.5494 21.064L42.3608 28.2116Z" fill="black"/>
<path d="M43.6387 31.0227C43.6615 31.0777 43.7009 31.1263 43.7485 31.1629L53.9371 24.0152C53.8894 23.9787 53.85 23.9301 53.8272 23.8752L43.6387 31.0227Z" fill="black"/>
<path d="M43.748 31.1628C43.7978 31.1994 43.8538 31.2224 43.9097 31.2293L54.0983 24.0816C54.0402 24.0748 53.9843 24.0517 53.9366 24.0151L43.748 31.1628Z" fill="black"/>
<path d="M43.9111 31.2293C43.9692 31.2361 44.0252 31.2266 44.0749 31.2019L54.2635 24.0542C54.2137 24.0789 54.1577 24.0885 54.0997 24.0816L43.9111 31.2293Z" fill="black"/>
<path d="M44.0732 31.2019C44.0857 31.196 44.096 31.1896 44.1064 31.1823L54.295 24.0347C54.2846 24.0419 54.2722 24.0486 54.2618 24.0542L44.0732 31.2019Z" fill="black"/>
<path d="M44.1064 31.1825C44.1396 31.1584 44.1686 31.1267 44.1873 31.0891L54.3759 23.9414C54.3572 23.9792 54.3282 24.011 54.295 24.0349L44.1064 31.1825Z" fill="black"/>
<path d="M44.188 31.089L46.0246 27.698L56.2132 20.5505L54.3765 23.9413L44.188 31.089Z" fill="black"/>
<path d="M46.0239 27.6978C46.0695 27.6155 46.0923 27.5217 46.0923 27.4241L56.2809 20.2766C56.2809 20.3742 56.2581 20.4679 56.2125 20.5503L46.0239 27.6978Z" fill="black"/>
<path d="M46.0923 27.4236C46.0923 27.3262 46.0695 27.2276 46.0239 27.136L56.2125 19.9885C56.2581 20.0799 56.2809 20.1786 56.2809 20.2762L46.0923 27.4236Z" fill="black"/>
<path d="M46.0256 27.1368C45.6795 26.4134 45.3436 25.6857 45.0161 24.9536L55.2047 17.8059C55.5322 18.538 55.868 19.2658 56.2142 19.9894L46.0256 27.1368Z" fill="black"/>
<path d="M45.0147 24.953C44.8675 24.6188 44.7245 24.2813 44.5835 23.9438L54.7721 16.7961C54.913 17.1338 55.056 17.4713 55.2032 17.8053L45.0147 24.953Z" fill="black"/>
<path d="M44.5844 23.943C44.375 23.446 44.1656 22.949 43.9355 22.4624L54.1241 15.3149C54.3542 15.8014 54.5636 16.2984 54.7729 16.7954L44.5844 23.943Z" fill="black"/>
<path d="M43.9354 22.4632C43.5312 21.605 42.8617 21.0741 41.9351 20.9641L52.1236 13.8164C53.0502 13.9265 53.7198 14.4573 54.124 15.3157L43.9354 22.4632Z" fill="black"/>
<path d="M41.9343 20.9637C41.3767 20.8973 40.9144 21.0084 40.5371 21.273L50.7257 14.1253C51.1009 13.861 51.5652 13.7498 52.1228 13.8161L41.9343 20.9637Z" fill="black"/>
<path d="M40.5376 21.2729C40.2889 21.4465 40.0795 21.6864 39.9033 21.9857L50.0919 14.838C50.2681 14.539 50.4774 14.2991 50.7262 14.1252L40.5376 21.2729Z" fill="black"/>
<path d="M39.9038 21.9853C39.8436 22.0887 39.7897 22.1969 39.7358 22.3051L49.9244 15.1575C49.9783 15.0493 50.0322 14.9413 50.0923 14.8376L39.9038 21.9853Z" fill="black"/>
<path d="M39.7345 22.3061C39.7138 22.3475 39.6931 22.3888 39.6724 22.4299L49.8609 15.2823C49.8816 15.2411 49.9024 15.1998 49.9231 15.1587L39.7345 22.3061Z" fill="black"/>
<path d="M39.6734 22.4301C39.3749 23.0164 39.0846 23.6079 38.7944 24.1992L48.983 17.0516C49.2732 16.4603 49.5634 15.8688 49.8619 15.2825L39.6734 22.4301Z" fill="black"/>
<path d="M38.7931 24.1999L38.791 24.2003L48.9796 17.0529L48.9816 17.0522L38.7931 24.1999Z" fill="black"/>
<path d="M38.7918 24.2009C38.597 24.5984 38.4021 24.9961 38.2031 25.3922L48.3917 18.2445C48.5907 17.8487 48.7855 17.4509 48.9804 17.0532L38.7918 24.2009Z" fill="black"/>
<path d="M38.2024 25.3923C37.8355 26.1227 37.4644 26.8482 37.0664 27.5577L47.2549 20.41C47.653 19.7008 48.024 18.9751 48.3909 18.2446L38.2024 25.3923Z" fill="black"/>
<path d="M37.0675 27.5578C36.9639 27.7431 36.8582 27.9273 36.7524 28.1105L46.941 20.963C47.0467 20.7796 47.1524 20.5954 47.2561 20.4102L37.0675 27.5578Z" fill="black"/>
<path d="M36.7514 28.1106C35.2382 30.6907 33.6171 33.1984 31.9878 35.6948L42.1764 28.5472C43.8057 26.0516 45.4267 23.5431 46.94 20.9631L36.7514 28.1106Z" fill="black"/>
<path d="M31.9888 35.6945C31.6613 36.1971 31.3254 36.6956 30.9917 37.192L41.1802 30.0451C41.514 29.5475 41.8477 29.0495 42.1773 28.5469L31.9888 35.6945Z" fill="black"/>
<path d="M30.9921 37.1925C29.8623 38.8748 28.7346 40.555 27.8516 42.4118L38.0401 35.2631C38.9232 33.4063 40.0509 31.7274 41.1806 30.0459L30.9921 37.1925Z" fill="black"/>
<path d="M27.8515 42.4109C26.7341 44.7599 25.9361 47.2314 25.6147 49.8836L35.8012 42.737C36.1246 40.0848 36.9227 37.6133 38.04 35.2622L27.8515 42.4109Z" fill="black"/>
<path d="M25.6142 49.8837C25.3137 52.349 25.521 54.835 26.3605 57.319L36.5491 50.1724C35.7095 47.6863 35.5022 45.2003 35.8007 42.7371L25.6142 49.8837Z" fill="black"/>
<path d="M26.3599 57.319C26.7931 58.6191 27.3632 59.8819 28.0576 61.0844L38.2462 53.9357C37.5517 52.7332 36.9817 51.4704 36.5484 50.1724L26.3599 57.319Z" fill="black"/>
<path d="M28.0581 61.0847C28.7028 62.1938 29.4698 63.2343 30.3425 64.1835L40.5311 57.0369C39.6583 56.0877 38.8914 55.0472 38.2467 53.936L28.0581 61.0847Z" fill="black"/>
<path d="M30.3423 64.1835C30.6594 64.5282 30.9828 64.8585 31.3124 65.1742L41.501 58.0255C41.1714 57.7098 40.848 57.3816 40.5308 57.0369L30.3423 64.1835Z" fill="black"/>
<path d="M31.3135 65.1741C34.3089 68.0381 37.8661 69.7433 42.4266 70.2459L52.6151 63.0993C48.0546 62.5946 44.4975 60.8894 41.502 58.0254L31.3135 65.1741Z" fill="black"/>
<path d="M42.4263 70.2457C43.5084 70.4451 45.1273 70.3495 46.7028 70.038L56.8913 62.8914C55.3159 63.2029 53.6969 63.2984 52.6148 63.099L42.4263 70.2457Z" fill="black"/>
<path d="M46.7017 70.0378C48.787 69.6245 50.6403 68.8581 52.2489 67.7283L62.4374 60.5796C60.8288 61.7094 58.9756 62.4779 56.8902 62.8912L46.7017 70.0378Z" fill="black"/>
<path d="M52.25 67.7288C53.4751 66.869 54.5593 65.8015 55.5004 64.52L65.6889 57.3713C64.7478 58.6528 63.6637 59.7224 62.4386 60.5801L52.25 67.7288Z" fill="black"/>
<path d="M55.5 64.5199C57.2019 62.1958 58.1845 59.527 58.3648 56.5114L68.5534 49.3647C68.373 52.3804 67.3905 55.0492 65.6886 57.3712L55.5 64.5199Z" fill="black"/>
<path d="M58.3657 56.5116C58.4258 55.4482 58.3885 54.3703 58.2559 53.2924L68.4423 46.1458C68.5771 47.2237 68.6144 48.3016 68.5543 49.365L58.3657 56.5116Z" fill="black"/>
<path d="M56.6069 47.373C56.6463 47.3024 56.6712 47.2235 56.6754 47.1383L66.8639 39.9917C66.8598 40.0748 66.8349 40.1537 66.7955 40.2243L56.6069 47.373Z" fill="black"/>
<path d="M56.6754 47.1379C56.6816 47.0548 56.6692 46.9697 56.6401 46.8866L66.8287 39.74C66.8577 39.821 66.8702 39.9061 66.8639 39.9913L56.6754 47.1379Z" fill="black"/>
<path d="M56.6391 46.8872C56.3281 46.0523 55.8514 44.937 54.875 43.0844L65.0636 35.9377C66.0399 37.7883 66.5167 38.9036 66.8276 39.7406L56.6391 46.8872Z" fill="black"/>
<path d="M54.8761 43.084C54.0076 41.435 53.0478 39.8295 52.0859 38.2262L62.2745 31.0779C63.2343 32.6829 64.1961 34.2863 65.0647 35.9374L54.8761 43.084Z" fill="black"/>
<path d="M52.0862 38.2264C51.6716 37.5306 51.2549 36.8369 50.8486 36.1412L61.0351 28.9927C61.4435 29.6901 61.8602 30.384 62.2747 31.0781L52.0862 38.2264Z" fill="black"/>
<path d="M50.8478 36.141C49.7574 34.278 48.7085 32.4005 47.7114 30.4995L57.9 23.3518C58.8971 25.2538 59.946 27.1314 61.0343 28.9925L50.8478 36.141Z" fill="black"/>
<path d="M47.7114 30.4996C47.5145 30.1241 47.3217 29.7474 47.1289 29.3696L57.3175 22.2219C57.5082 22.5999 57.703 22.9765 57.9 23.352L47.7114 30.4996Z" fill="black"/>
<path d="M47.1296 29.37C47.1027 29.3179 47.0633 29.2724 47.0156 29.2388L57.2042 22.0913C57.2519 22.125 57.2912 22.1702 57.3182 22.2224L47.1296 29.37Z" fill="black"/>
<path d="M47.0145 29.2385C46.9668 29.2049 46.9108 29.1843 46.8569 29.1789L57.0455 22.0312C57.0994 22.0366 57.1554 22.0572 57.203 22.0911L47.0145 29.2385Z" fill="black"/>
<path d="M46.8579 29.1786C46.8019 29.1732 46.7459 29.1834 46.6982 29.2077L56.8868 22.0602C56.9345 22.0357 56.9905 22.0256 57.0464 22.031L46.8579 29.1786Z" fill="black"/>
<path d="M46.6976 29.208C46.6872 29.2136 46.6769 29.2198 46.6665 29.2269L56.8551 22.0792C56.8654 22.0724 56.8758 22.0662 56.8862 22.0605L46.6976 29.208Z" fill="black"/>
<path d="M46.6672 29.2268C46.634 29.2502 46.607 29.281 46.5884 29.3175L56.7749 22.1699C56.7956 22.1335 56.8225 22.1026 56.8557 22.0791L46.6672 29.2268Z" fill="black"/>
<path d="M46.5888 29.3173L44.8413 32.5417L55.0299 25.3949L56.7753 22.1697L46.5888 29.3173Z" fill="black"/>
<path d="M44.8405 32.5418C44.7928 32.6291 44.77 32.7288 44.7721 32.8305L54.9607 25.6831C54.9586 25.5803 54.9814 25.4812 55.0291 25.395L44.8405 32.5418Z" fill="black"/>
<path d="M44.772 32.8308C44.774 32.9347 44.801 33.0364 44.8528 33.132L55.0414 25.9837C54.9896 25.8894 54.9626 25.7862 54.9605 25.6833L44.772 32.8308Z" fill="black"/>
<path d="M44.853 33.1317C44.8572 33.14 44.8613 33.1462 44.8655 33.1545L55.054 26.0062C55.0499 25.9979 55.0457 25.9917 55.0416 25.9834L44.853 33.1317Z" fill="black"/>
<path d="M44.8657 33.1546C44.8719 33.1671 44.8802 33.1796 44.8865 33.192L55.075 26.045C55.0688 26.0321 55.0605 26.0188 55.0543 26.0063L44.8657 33.1546Z" fill="black"/>
<path d="M44.8872 33.192C45.1753 33.7797 45.3764 34.218 45.4428 34.3924L55.6313 27.2441C55.565 27.0697 55.3639 26.6329 55.0758 26.0449L44.8872 33.192Z" fill="black"/>
<path d="M45.4411 34.3927C49.7031 44.2268 36.6518 56.9001 36.6021 56.9374L46.7906 49.7908C46.8404 49.7534 59.8917 37.0802 55.6297 27.2444L45.4411 34.3927Z" fill="black"/>
<path d="M36.6026 56.9372C36.53 56.9932 36.4741 57.0638 36.4326 57.1448L46.6212 49.9982C46.6626 49.9152 46.7186 49.8445 46.7911 49.7905L36.6026 56.9372Z" fill="black"/>
<path d="M36.434 57.1451C36.3946 57.2261 36.3718 57.3175 36.3677 57.4131L46.5562 50.2644C46.5604 50.1709 46.5832 50.0795 46.6226 49.9985L36.434 57.1451Z" fill="black"/>
<path d="M36.3659 57.4126C36.3638 57.5061 36.3784 57.6037 36.4157 57.6951L46.6022 50.5485C46.5669 50.455 46.5524 50.3595 46.5545 50.2639L36.3659 57.4126Z" fill="black"/>
<path d="M36.4165 57.6949C36.4497 57.7863 36.5036 57.8736 36.5699 57.9483L46.7585 50.7996C46.69 50.7249 46.6382 50.6397 46.603 50.5483L36.4165 57.6949Z" fill="black"/>
<path d="M36.5708 57.9485L39.3423 61.0431L49.5288 53.8944L46.7594 50.7998L36.5708 57.9485Z" fill="black"/>
<path d="M39.3418 61.0432C39.4703 61.1886 39.6444 61.2841 39.8289 61.3132L50.0175 54.1666C49.833 54.1375 49.6589 54.0399 49.5283 53.8945L39.3418 61.0432Z" fill="black"/>
<path d="M39.8291 61.3136C40.0094 61.3427 40.1877 61.3032 40.3287 61.2035L50.5173 54.0569C50.3763 54.1545 50.198 54.194 50.0177 54.167L39.8291 61.3136Z" fill="black"/>
<path d="M40.3286 61.203L40.3348 61.1989L50.5234 54.0522L50.5172 54.0564L40.3286 61.203Z" fill="black"/>
<path d="M40.334 61.199C43.1573 58.931 45.5412 56.1646 47.3945 53.0077L57.5809 45.8611C55.7298 49.0159 53.3459 51.7823 50.5225 54.0524L40.334 61.199Z" fill="black"/>
<path d="M47.395 53.0072C49.0057 50.2615 49.922 47.7048 50.2951 45.9478L60.4836 38.7991C60.1105 40.5582 59.1943 43.1149 57.5815 45.8605L47.395 53.0072Z" fill="black"/>
<path d="M50.2939 45.9479V45.9417L60.4825 38.793V38.7992L50.2939 45.9479Z" fill="black"/>
<path d="M50.2939 45.9425C50.3644 45.6933 50.4204 45.4461 50.4722 45.2197L60.6608 38.071C60.6089 38.2995 60.5509 38.5467 60.4825 38.7938L50.2939 45.9425Z" fill="black"/>
<path d="M50.4727 45.219C50.5825 44.7371 50.6717 44.3467 50.8271 44.2387L61.0136 37.092C60.8602 37.2 60.7711 37.5884 60.6612 38.0703L50.4727 45.219Z" fill="black"/>
<path d="M50.8271 44.239C51.0324 44.0937 51.3537 44.4467 51.9984 45.7386L62.1869 38.5919C61.5422 37.298 61.2209 36.947 61.0136 37.0924L50.8271 44.239Z" fill="black"/>
<path d="M51.9995 45.7384C52.1736 46.106 52.3416 46.4757 52.5012 46.8496L62.6897 39.7029C62.5301 39.3291 62.3622 38.9573 62.1881 38.5918L51.9995 45.7384Z" fill="black"/>
<path d="M52.501 46.8497L52.5051 46.8581L62.6937 39.7114L62.6895 39.7031L52.501 46.8497Z" fill="black"/>
<path d="M52.5044 46.858L52.523 46.9037L62.7116 39.7571L62.693 39.7114L52.5044 46.858Z" fill="black"/>
<path d="M52.5234 46.9034C52.7183 47.3604 52.9007 47.8194 53.0707 48.2804L63.2593 41.1317C63.0893 40.6727 62.9069 40.2138 62.712 39.7568L52.5234 46.9034Z" fill="black"/>
<path d="M53.0708 48.2808L53.0957 48.3452L63.2822 41.1986L63.2594 41.1321L53.0708 48.2808Z" fill="black"/>
<path d="M53.0957 48.3449C53.0998 48.3573 53.1061 48.3719 53.1102 48.3864L63.2967 41.2377C63.2926 41.2252 63.2863 41.2107 63.2822 41.1982L53.0957 48.3449Z" fill="black"/>
<path d="M53.1094 48.3865C53.1135 48.3969 53.1177 48.4093 53.1218 48.4218L63.3083 41.2731C63.3041 41.2627 63.3 41.2482 63.2959 41.2378L53.1094 48.3865Z" fill="black"/>
<path d="M53.1221 48.4221L53.1387 48.4678L63.3251 41.3212L63.3086 41.2734L53.1221 48.4221Z" fill="black"/>
<path d="M53.1382 48.4674C53.1921 48.617 53.2439 48.7665 53.2957 48.916L63.4843 41.7694C63.4325 41.6199 63.3786 41.4703 63.3247 41.3208L53.1382 48.4674Z" fill="black"/>
<path d="M53.2969 48.9159C53.2969 48.9159 53.3757 49.1527 53.4544 49.3978L63.643 42.2491C63.5642 42.0061 63.4854 41.7693 63.4854 41.7693L53.2969 48.9159Z" fill="black"/>
<path d="M53.4536 49.3977C53.5324 49.6407 53.7065 50.2534 53.918 51.0904L64.1065 43.9438C63.8951 43.1068 63.7209 42.4941 63.6422 42.249L53.4536 49.3977Z" fill="black"/>
<path d="M53.918 51.091C53.9346 51.1533 53.9677 51.2114 54.0154 51.2571L64.2039 44.1084C64.1563 44.0627 64.1231 44.0046 64.1065 43.9443L53.918 51.091Z" fill="black"/>
<path d="M54.0151 51.2566C54.0628 51.3023 54.1209 51.3335 54.183 51.3459L64.3695 44.1993C64.3094 44.1848 64.2514 44.1536 64.2037 44.1079L54.0151 51.2566Z" fill="black"/>
<path d="M54.1831 51.3456C54.2432 51.3581 54.3054 51.3518 54.3614 51.329L64.5499 44.1824C64.494 44.2052 64.4318 44.2115 64.3696 44.199L54.1831 51.3456Z" fill="black"/>
<path d="M54.3613 51.3299C54.3779 51.3236 54.3924 51.3133 54.4069 51.3049L64.5955 44.1562C64.581 44.1666 64.5665 44.1749 64.5499 44.1833L54.3613 51.3299Z" fill="black"/>
<path d="M54.4072 51.3044C54.4404 51.2795 54.4694 51.2483 54.4881 51.213L64.6766 44.0664C64.658 44.1017 64.629 44.1329 64.5958 44.1557L54.4072 51.3044Z" fill="black"/>
<path d="M54.4888 51.2133C54.7251 50.7813 54.98 50.3223 55.2578 49.8259L65.4464 42.6772C65.1686 43.1736 64.9136 43.6347 64.6773 44.0667L54.4888 51.2133Z" fill="black"/>
<path d="M55.2583 49.8237L55.2604 49.8217L65.4469 42.675L55.2583 49.8237Z" fill="black"/>
<path d="M55.2603 49.822C55.6645 49.093 56.1143 48.2851 56.6077 47.3712L66.7962 40.2246C66.3029 41.1384 65.853 41.9464 65.4467 42.6754L55.2603 49.822Z" fill="black"/>
<path fill-rule="evenodd" clip-rule="evenodd" d="M82.3227 45.6413C84.309 49.2996 84.309 53.5469 82.3227 56.7797L66.6892 82.2273C64.7148 85.4418 61.0683 87.1456 57.1274 86.6991L26.1917 83.1942C22.2951 82.7527 18.6987 80.2441 16.7546 76.6148L1.44997 48.0451C-0.483314 44.4361 -0.483324 40.247 1.44995 37.0522L16.7546 11.7608C18.6987 8.54791 22.2951 6.80966 26.1917 7.20288L57.1274 10.3247C61.0683 10.7224 64.7148 13.2073 66.6892 16.8447L82.3227 45.6413ZM58.2548 53.2934C58.1721 52.6054 58.0548 51.9192 57.9086 51.2331C57.8941 51.1604 57.6765 50.2507 57.5078 49.5467C57.4933 49.4842 57.4599 49.4254 57.413 49.3789C57.3662 49.3322 57.3078 49.2998 57.2456 49.2857C57.1834 49.2711 57.1204 49.2774 57.0654 49.3002C57.0103 49.3239 56.9651 49.3648 56.9365 49.4173L54.6428 53.6372C54.6003 53.7149 54.5775 53.8034 54.5754 53.8958C54.4736 57.4016 53.4348 60.0499 52.7713 61.1643C51.4214 63.4299 49.4775 64.9932 46.9534 65.7861C43.4639 66.8796 39.9539 66.473 36.5212 64.4855C36.1932 64.2953 35.8768 64.0968 35.5721 63.8886C34.0149 62.8374 32.6796 61.4621 31.6688 59.8691C30.8979 58.6563 30.3027 57.3124 29.8707 55.8507C29.1819 53.5201 29.2903 51.2713 29.7886 49.0453C30.5556 45.6198 32.1688 42.6813 34.0969 39.9093C36.6215 36.2763 39.0552 32.5782 41.1485 28.6395C41.2863 28.3805 41.4224 28.1205 41.5569 27.8595L41.5714 27.8296C41.6021 27.7687 41.6375 27.7107 41.6771 27.6559C41.8227 27.461 41.9664 27.4705 42.1015 27.6969C42.1967 27.8647 42.2833 28.0365 42.3615 28.2116C42.4317 28.36 42.9652 29.5369 43.6382 31.023C43.6624 31.078 43.7008 31.1265 43.7491 31.1631C43.7974 31.1996 43.8533 31.2227 43.9108 31.2296C43.9682 31.2365 44.0248 31.2269 44.0741 31.2022C44.1232 31.1773 44.163 31.1382 44.1887 31.0892L46.0253 27.6983C46.0694 27.616 46.0924 27.5222 46.0924 27.4246C46.0924 27.327 46.0694 27.2285 46.0253 27.1369C45.6794 26.4135 45.3429 25.6857 45.0156 24.9536C44.8671 24.6195 44.7253 24.282 44.5835 23.9444C44.3747 23.4475 44.1656 22.9496 43.9353 22.4631C43.5309 21.6047 42.861 21.0739 41.9356 20.9639C41.0105 20.8538 40.3459 21.2312 39.9034 21.9859C39.8435 22.0894 39.7896 22.1975 39.7362 22.3057C39.7154 22.347 39.6945 22.3895 39.6736 22.4306C39.375 23.0168 39.0842 23.6083 38.7934 24.1996C38.5979 24.5973 38.4016 24.9966 38.2037 25.3926C37.8372 26.1231 37.4647 26.8486 37.0672 27.5579C36.9639 27.7432 36.8586 27.9275 36.7515 28.1108C35.2391 30.6909 33.6182 33.1992 31.9884 35.6948C31.6601 36.1975 31.3257 36.6954 30.9914 37.1932C29.8619 38.8747 28.7337 40.5543 27.851 42.4115C26.7342 44.761 25.9359 47.2321 25.6135 49.8847C25.3136 52.3491 25.5204 54.8353 26.3605 57.3199C26.7939 58.6196 27.3633 59.8821 28.0586 61.0843C28.7028 62.1944 29.4698 63.2357 30.343 64.1844C30.6598 64.5285 30.9834 64.858 31.3137 65.1739C34.308 68.0377 37.8659 69.7436 42.4253 70.247C43.5075 70.446 45.1275 70.3506 46.703 70.0392C50.374 69.3117 53.325 67.4852 55.4995 64.5193C57.2012 62.1962 58.1848 59.5281 58.3657 56.5122C58.4251 55.4484 58.3888 54.3713 58.2548 53.2934ZM56.6077 47.3727C56.6469 47.3023 56.6705 47.2228 56.6761 47.1391C56.6823 47.0554 56.6699 46.9697 56.6402 46.8874C56.33 46.0519 55.8522 44.9364 54.8771 43.0851C54.0076 41.4353 53.0468 39.8303 52.0864 38.226C51.6709 37.5319 51.2554 36.8379 50.8475 36.1405C49.759 34.2794 48.7084 32.402 47.7126 30.5C47.5157 30.1245 47.3213 29.7478 47.1294 29.37C47.1031 29.3178 47.0637 29.2724 47.0158 29.2387C46.9679 29.205 46.9128 29.1844 46.8572 29.1791C46.8017 29.1737 46.7467 29.1839 46.6993 29.2083C46.6518 29.2327 46.613 29.2706 46.5875 29.3178L44.8407 32.543C44.794 32.6292 44.7708 32.7283 44.7729 32.831C44.775 32.9338 44.8025 33.037 44.8529 33.1314C44.8571 33.1397 44.8612 33.1459 44.8654 33.1542C44.8716 33.1667 44.8799 33.18 44.8861 33.1928C45.1756 33.7807 45.3759 34.2176 45.442 34.3921C49.7043 44.2278 36.6524 56.9006 36.6024 56.9383C36.5315 56.9933 36.4738 57.0637 36.4334 57.1451C36.393 57.2265 36.3706 57.3175 36.3675 57.4123C36.3654 57.5072 36.3799 57.6034 36.4156 57.6957C36.4504 57.7879 36.5027 57.8739 36.5696 57.9484L39.3405 61.0428C39.4707 61.1884 39.6446 61.2849 39.8285 61.3139C40.0126 61.3423 40.193 61.3014 40.3348 61.1992C43.1572 58.9312 45.5423 56.1641 47.394 53.0083C49.005 50.2628 49.9221 47.7067 50.2943 45.948V45.9418C50.3645 45.6936 50.4211 45.446 50.4729 45.2189C50.7291 44.0976 50.8714 43.4748 51.9982 45.7389C52.1733 46.1059 52.341 46.4764 52.5014 46.8504L52.5055 46.8587L52.5242 46.9046C52.7184 47.3613 52.9008 47.82 53.071 48.2807L53.0946 48.3457C53.0987 48.3582 53.105 48.3731 53.1091 48.3864C53.1132 48.3968 53.1174 48.4101 53.1215 48.4219L53.1381 48.468C53.192 48.6182 53.2449 48.7675 53.2959 48.9167C53.2959 48.9167 53.3763 49.1536 53.4543 49.3976C53.5322 49.6416 53.7065 50.255 53.9189 51.0909C53.9355 51.153 53.9687 51.2106 54.0157 51.2563C54.0628 51.302 54.1211 51.3335 54.1828 51.3468C54.2446 51.3593 54.3068 51.3531 54.3615 51.3302C54.4162 51.3065 54.4606 51.2658 54.4888 51.2135C54.7244 50.7816 54.9805 50.3217 55.257 49.8253L55.2581 49.8233C55.6636 49.0944 56.1139 48.2859 56.6077 47.3727Z" fill="url(#paint1_linear_12938_29561)"/>
</g>
<defs>
<radialGradient id="paint0_radial_12938_29561" cx="0" cy="0" r="1" gradientUnits="userSpaceOnUse" gradientTransform="translate(39.6595 27.2703) rotate(64.7622) scale(84.9626 77.7232)">
<stop stop-color="#2F6756"/>
<stop offset="0.427083" stop-color="#1B0724"/>
<stop offset="0.699054" stop-color="#2F1A51"/>
<stop offset="1" stop-color="#7C2BA3"/>
</radialGradient>
<linearGradient id="paint1_linear_12938_29561" x1="-4.98186" y1="46.9586" x2="94.5568" y2="49.4288" gradientUnits="userSpaceOnUse">
<stop stop-color="#4BF2A2"/>
<stop offset="0.522948" stop-color="#A89FE7"/>
<stop offset="0.669499" stop-color="#E1C4F4"/>
<stop offset="1" stop-color="#DD40CD"/>
<stop offset="1" stop-color="#DD40CD"/>
</linearGradient>
<clipPath id="clip0_12938_29561">
<rect width="94" height="86.7692" fill="white"/>
</clipPath>
</defs>
</svg>
