<svg width="56" height="45" viewBox="0 0 56 45" fill="none" xmlns="http://www.w3.org/2000/svg">
<g opacity="0.25">
<path d="M48.0922 25.2428C47.2566 25.1493 46.4656 25.2491 45.7587 25.5063L52.2065 23.1595C52.9133 22.9023 53.7043 22.8026 54.54 22.896L48.0922 25.2428Z" fill="url(#paint0_radial_12938_30804)"/>
<path fill-rule="evenodd" clip-rule="evenodd" d="M42.6509 30.0875C42.6509 27.9119 43.9196 26.1757 45.7587 25.5062L52.2065 23.1594C50.3673 23.8289 49.0987 25.5651 49.0987 27.7407L42.6509 30.0875ZM48.0922 36.1901C45.082 35.8309 42.6509 33.0993 42.6509 30.0875L49.0987 27.7407C49.0987 30.7524 51.5297 33.484 54.54 33.8433L48.0922 36.1901Z" fill="url(#paint1_radial_12938_30804)"/>
<path d="M8.24894 47.4078C3.98115 46.8504 0.540174 42.8448 0.540174 38.4585L6.98801 36.1116C6.98801 40.4981 10.4289 44.5036 14.6968 45.061L8.24894 47.4078Z" fill="url(#paint2_radial_12938_30804)"/>
<path d="M0.539956 38.4585V30.5157L6.98779 28.1689V36.1116L0.539956 38.4585Z" fill="url(#paint3_radial_12938_30804)"/>
<path d="M0.539726 30.5155C1.31246 30.6078 2.04574 30.5176 2.70353 30.2783L9.15137 27.9314C8.49357 28.1709 7.76018 28.2609 6.98756 28.1687L0.539726 30.5155Z" fill="url(#paint4_radial_12938_30804)"/>
<path d="M2.70381 30.2783C4.45409 29.6412 5.66984 27.9466 5.66984 25.8133L12.1177 23.4666C12.1177 25.5998 10.9019 27.2944 9.15164 27.9314L2.70381 30.2783Z" fill="url(#paint5_radial_12938_30804)"/>
<path d="M5.66984 25.8134C5.66984 22.8784 3.36858 20.2417 0.540002 19.9254L6.98784 17.5786C9.8163 17.8949 12.1177 20.5316 12.1177 23.4667L5.66984 25.8134Z" fill="url(#paint6_radial_12938_30804)"/>
<path d="M0.539956 19.9254V11.9828L6.98779 9.63599V17.5786L0.539956 19.9254Z" fill="url(#paint7_radial_12938_30804)"/>
<path d="M0.540014 11.9828C0.540014 8.75885 2.39859 6.17043 5.07816 5.19517L11.5259 2.84839C8.84643 3.82365 6.98785 6.41207 6.98785 9.63599L0.540014 11.9828Z" fill="url(#paint8_radial_12938_30804)"/>
<path fill-rule="evenodd" clip-rule="evenodd" d="M5.07862 5.19529C6.04496 4.84364 7.11811 4.70172 8.24925 4.8155L8.24957 4.81539L39.9454 8.00266C44.4334 8.45403 48.0921 12.4978 48.0922 17.0323L48.092 17.0323V25.2428L54.5398 22.896V14.6857L54.54 14.6856C54.54 10.1513 50.8815 6.10753 46.3936 5.65593L46.3936 5.65592L46.3932 5.65588L14.6972 2.46848L14.6969 2.46859C13.5657 2.35495 12.4927 2.49688 11.5263 2.84851L5.07862 5.19529ZM48.092 44.4006L48.092 36.1903L54.5398 33.8435V42.0538V42.0539C54.5398 45.2924 52.6733 47.8494 49.9715 48.8327L43.5236 51.1795C46.2256 50.1961 48.0919 47.6392 48.092 44.4007L48.092 44.4006Z" fill="url(#paint9_radial_12938_30804)"/>
<path d="M35.9062 27.951V22.5232L42.354 20.1763V25.6041L35.9062 27.951Z" fill="url(#paint10_radial_12938_30804)"/>
<path d="M35.9062 22.5233L31.8892 19.3714L38.3369 17.0247L42.354 20.1764L35.9062 22.5233Z" fill="url(#paint11_radial_12938_30804)"/>
<path d="M31.8892 19.3717L16.0425 17.6443L22.4903 15.2974L38.3369 17.0249L31.8892 19.3717Z" fill="url(#paint12_radial_12938_30804)"/>
<path d="M16.0424 17.644L12.1348 19.8873L18.5827 17.5405L22.4902 15.2971L16.0424 17.644Z" fill="url(#paint13_radial_12938_30804)"/>
<path d="M12.1352 19.8873V25.226L18.583 22.8792V17.5405L12.1352 19.8873Z" fill="url(#paint14_radial_12938_30804)"/>
<path d="M12.135 25.2259L23.9223 38.6887L30.3701 36.3419L18.5828 22.8792L12.135 25.2259Z" fill="url(#paint15_radial_12938_30804)"/>
<path d="M23.9222 38.6887L35.9062 27.9511L42.354 25.6042L30.37 36.3419L23.9222 38.6887Z" fill="url(#paint16_radial_12938_30804)"/>
<path fill-rule="evenodd" clip-rule="evenodd" d="M39.9454 8.00276C44.4335 8.45408 48.0923 12.498 48.0923 17.0325V25.2429C45.0821 24.9063 42.6509 27.0759 42.6509 30.0877C42.6509 33.0994 45.0821 35.831 48.0923 36.1902V44.4007C48.0923 48.935 44.4335 52.1333 39.9454 51.5472L8.249 47.4077C3.98116 46.8503 0.540203 42.8447 0.540203 38.4583V30.5156C3.36873 30.8532 5.67005 28.7485 5.67005 25.8134C5.67005 22.8784 3.36873 20.2417 0.540203 19.9254V11.9828C0.540203 7.59617 3.98116 4.38616 8.249 4.81534L39.9454 8.00276ZM35.9062 27.9511V22.5233L31.8891 19.3714L16.0425 17.644L12.1349 19.8874V25.226L23.9222 38.6888L35.9062 27.9511Z" fill="url(#paint17_radial_12938_30804)"/>
</g>
<defs>
<radialGradient id="paint0_radial_12938_30804" cx="0" cy="0" r="1" gradientUnits="userSpaceOnUse" gradientTransform="translate(52.1565 23.6928) rotate(151.225) scale(4.86612 4.86996)">
<stop stop-color="#2F6756"/>
<stop offset="0.427083" stop-color="#1B0724"/>
<stop offset="0.699054" stop-color="#2F1A51"/>
<stop offset="1" stop-color="#7C2BA3"/>
</radialGradient>
<radialGradient id="paint1_radial_12938_30804" cx="0" cy="0" r="1" gradientUnits="userSpaceOnUse" gradientTransform="translate(51.313 27.2547) rotate(116.581) scale(12.9054 12.2494)">
<stop stop-color="#2F6756"/>
<stop offset="0.427083" stop-color="#1B0724"/>
<stop offset="0.699054" stop-color="#2F1A51"/>
<stop offset="1" stop-color="#7C2BA3"/>
</radialGradient>
<radialGradient id="paint2_radial_12938_30804" cx="0" cy="0" r="1" gradientUnits="userSpaceOnUse" gradientTransform="translate(10.8543 39.6618) rotate(124.499) scale(12.1402 13.4413)">
<stop stop-color="#2F6756"/>
<stop offset="0.427083" stop-color="#1B0724"/>
<stop offset="0.699054" stop-color="#2F1A51"/>
<stop offset="1" stop-color="#7C2BA3"/>
</radialGradient>
<radialGradient id="paint3_radial_12938_30804" cx="0" cy="0" r="1" gradientUnits="userSpaceOnUse" gradientTransform="translate(5.23767 31.4028) rotate(108.965) scale(9.63667 7.02516)">
<stop stop-color="#2F6756"/>
<stop offset="0.427083" stop-color="#1B0724"/>
<stop offset="0.699054" stop-color="#2F1A51"/>
<stop offset="1" stop-color="#7C2BA3"/>
</radialGradient>
<radialGradient id="paint4_radial_12938_30804" cx="0" cy="0" r="1" gradientUnits="userSpaceOnUse" gradientTransform="translate(6.81392 28.7547) rotate(150.982) scale(4.78324 4.81262)">
<stop stop-color="#2F6756"/>
<stop offset="0.427083" stop-color="#1B0724"/>
<stop offset="0.699054" stop-color="#2F1A51"/>
<stop offset="1" stop-color="#7C2BA3"/>
</radialGradient>
<radialGradient id="paint5_radial_12938_30804" cx="0" cy="0" r="1" gradientUnits="userSpaceOnUse" gradientTransform="translate(9.56248 25.6074) rotate(127.158) scale(7.57016 8.64359)">
<stop stop-color="#2F6756"/>
<stop offset="0.427083" stop-color="#1B0724"/>
<stop offset="0.699054" stop-color="#2F1A51"/>
<stop offset="1" stop-color="#7C2BA3"/>
</radialGradient>
<radialGradient id="paint6_radial_12938_30804" cx="0" cy="0" r="1" gradientUnits="userSpaceOnUse" gradientTransform="translate(8.97516 20.1667) rotate(127.632) scale(9.20984 10.5632)">
<stop stop-color="#2F6756"/>
<stop offset="0.427083" stop-color="#1B0724"/>
<stop offset="0.699054" stop-color="#2F1A51"/>
<stop offset="1" stop-color="#7C2BA3"/>
</radialGradient>
<radialGradient id="paint7_radial_12938_30804" cx="0" cy="0" r="1" gradientUnits="userSpaceOnUse" gradientTransform="translate(5.23767 12.8698) rotate(108.965) scale(9.63658 7.02515)">
<stop stop-color="#2F6756"/>
<stop offset="0.427083" stop-color="#1B0724"/>
<stop offset="0.699054" stop-color="#2F1A51"/>
<stop offset="1" stop-color="#7C2BA3"/>
</radialGradient>
<radialGradient id="paint8_radial_12938_30804" cx="0" cy="0" r="1" gradientUnits="userSpaceOnUse" gradientTransform="translate(8.544 5.71919) rotate(123.407) scale(9.69165 10.5655)">
<stop stop-color="#2F6756"/>
<stop offset="0.427083" stop-color="#1B0724"/>
<stop offset="0.699054" stop-color="#2F1A51"/>
<stop offset="1" stop-color="#7C2BA3"/>
</radialGradient>
<radialGradient id="paint9_radial_12938_30804" cx="0" cy="0" r="1" gradientUnits="userSpaceOnUse" gradientTransform="translate(41.1147 17.7514) rotate(119.092) scale(49.4116 49.7946)">
<stop stop-color="#2F6756"/>
<stop offset="0.427083" stop-color="#1B0724"/>
<stop offset="0.699054" stop-color="#2F1A51"/>
<stop offset="1" stop-color="#7C2BA3"/>
</radialGradient>
<radialGradient id="paint10_radial_12938_30804" cx="0" cy="0" r="1" gradientUnits="userSpaceOnUse" gradientTransform="translate(40.6039 22.6198) rotate(114.456) scale(7.56492 6.76192)">
<stop stop-color="#2F6756"/>
<stop offset="0.427083" stop-color="#1B0724"/>
<stop offset="0.699054" stop-color="#2F1A51"/>
<stop offset="1" stop-color="#7C2BA3"/>
</radialGradient>
<radialGradient id="paint11_radial_12938_30804" cx="0" cy="0" r="1" gradientUnits="userSpaceOnUse" gradientTransform="translate(39.5135 18.7528) rotate(136.224) scale(7.03955 8.34099)">
<stop stop-color="#2F6756"/>
<stop offset="0.427083" stop-color="#1B0724"/>
<stop offset="0.699054" stop-color="#2F1A51"/>
<stop offset="1" stop-color="#7C2BA3"/>
</radialGradient>
<radialGradient id="paint12_radial_12938_30804" cx="0" cy="0" r="1" gradientUnits="userSpaceOnUse" gradientTransform="translate(32.2856 16.5779) rotate(161.569) scale(11.4142 8.12041)">
<stop stop-color="#2F6756"/>
<stop offset="0.427083" stop-color="#1B0724"/>
<stop offset="0.699054" stop-color="#2F1A51"/>
<stop offset="1" stop-color="#7C2BA3"/>
</radialGradient>
<radialGradient id="paint13_radial_12938_30804" cx="0" cy="0" r="1" gradientUnits="userSpaceOnUse" gradientTransform="translate(19.6795 16.7397) rotate(141.051) scale(6.46742 7.49962)">
<stop stop-color="#2F6756"/>
<stop offset="0.427083" stop-color="#1B0724"/>
<stop offset="0.699054" stop-color="#2F1A51"/>
<stop offset="1" stop-color="#7C2BA3"/>
</radialGradient>
<radialGradient id="paint14_radial_12938_30804" cx="0" cy="0" r="1" gradientUnits="userSpaceOnUse" gradientTransform="translate(16.8329 19.9559) rotate(114.706) scale(7.49298 6.74841)">
<stop stop-color="#2F6756"/>
<stop offset="0.427083" stop-color="#1B0724"/>
<stop offset="0.699054" stop-color="#2F1A51"/>
<stop offset="1" stop-color="#7C2BA3"/>
</radialGradient>
<radialGradient id="paint15_radial_12938_30804" cx="0" cy="0" r="1" gradientUnits="userSpaceOnUse" gradientTransform="translate(25.4206 27.8479) rotate(122.314) scale(16.5688 17.7546)">
<stop stop-color="#2F6756"/>
<stop offset="0.427083" stop-color="#1B0724"/>
<stop offset="0.699054" stop-color="#2F1A51"/>
<stop offset="1" stop-color="#7C2BA3"/>
</radialGradient>
<radialGradient id="paint16_radial_12938_30804" cx="0" cy="0" r="1" gradientUnits="userSpaceOnUse" gradientTransform="translate(37.3511 29.7165) rotate(127.686) scale(14.6443 16.8046)">
<stop stop-color="#2F6756"/>
<stop offset="0.427083" stop-color="#1B0724"/>
<stop offset="0.699054" stop-color="#2F1A51"/>
<stop offset="1" stop-color="#7C2BA3"/>
</radialGradient>
<radialGradient id="paint17_radial_12938_30804" cx="0" cy="0" r="1" gradientUnits="userSpaceOnUse" gradientTransform="translate(42.7343 20.8937) rotate(124.567) scale(56.4086 65.1111)">
<stop stop-color="#BBC6C0"/>
<stop offset="0.497259" stop-color="#535E5D"/>
<stop offset="1" stop-color="#2C242D"/>
</radialGradient>
</defs>
</svg>
