<?xml version="1.0" encoding="UTF-8"?>
<svg id="Layer_1" data-name="Layer 1" xmlns="http://www.w3.org/2000/svg" viewBox="0 0 400 400">
  <defs>
    <style>
      .cls-1 {
        fill: #8561ce;
      }

      .cls-1,
      .cls-2,
      .cls-3,
      .cls-4,
      .cls-5,
      .cls-6,
      .cls-7,
      .cls-8,
      .cls-9,
      .cls-10 {
        stroke-width: 0px;
      }

      .cls-2 {
        fill: #8248e4;
      }

      .cls-3 {
        fill: #966edd;
      }

      .cls-4 {
        fill: #7a51c6;
      }

      .cls-5 {
        fill: #7d57c4;
      }

      .cls-6 {
        fill: #fdfbfe;
      }

      .cls-7 {
        fill: #7e57cc;
      }

      .cls-8 {
        fill: #8058c7;
      }

      .cls-11 {
        fill: #fff;
        font-family: SourceSansRoman-Semibold, 'Source Sans Variable';
        font-size: 53.71px;
        font-variation-settings: 'wght'600;
        font-weight: 600;
      }

      .cls-9 {
        fill: #7b53ca;
      }

      .cls-10 {
        fill: #815acf;
      }
    </style>
  </defs>
  <g>
    <path class="cls-2"
      d="m174.26,298.7c-.12-.07-.25-.15-.37-.22-.19-.2-.39-.39-.58-.59,0,0,.04.03.05.03-.16-.15-.33-.3-.49-.44,0,0,.03.03.03.03-.29-.19-.58-.37-.87-.56-.16-.02-.28-.1-.37-.23-.59-.53-1.18-1.06-1.77-1.58-.15-.13-.3-.26-.45-.39-.16-.15-.32-.31-.48-.46v.03c-1.15-1.06-2.31-2.11-3.46-3.17h-.01c-.3-.3-.6-.58-.91-.87h0c-.2-.25-.41-.5-.61-.75,0,0-.03.03-.03.03.37-1.23-.06-1.66-1.29-1.29,0,0-.03-.04-.03-.04-1.43-1.52-2.86-3.04-4.29-4.56-.13-.14-.26-.28-.4-.42-.15-.16-.31-.32-.46-.47,0,0,.02.02.02.02-.14-.16-.27-.32-.41-.48v-.02c-.24-1.15-.14-2.56-1.96-2.45,0,0-.02-.03-.02-.03.11-2.37-1.67-3.21-3.33-4.15v-.02c-.62-.86-1.23-1.73-1.84-2.59h0c-.6-.88-1.2-1.76-1.8-2.65,0,0,.02.01.02.01-.43-.61-.87-1.21-1.3-1.82-.17-.28-.33-.56-.5-.84-.42-1.1-.69-2.29-1.28-3.29-1.29-2.18-2.73-4.27-4.11-6.39,0,0,.03,0,.03,0-.11-2.9-1.74-5.06-3.45-7.19-.09-.05-.1-.11-.04-.2-.68-2.68-1.25-5.4-2.06-8.05-1.44-4.74-3.32-9.37-4.44-14.18-1.12-4.81-1.52-9.78-2.29-14.67-.1-.64-.46-1.24-.7-1.87-.03-.59-.07-1.19-.1-1.78.12-3.95.15-7.9.37-11.84.2-3.58.43-7.17.98-10.71.66-4.23,1.56-8.43,2.55-12.59.92-3.85,2.27-7.6,3.14-11.46.64-2.85,2.82-5.19,2.61-8.28,0,0,0-.01,0-.01.56-1.21,1.11-2.42,1.67-3.63,0,0-.02.04-.02.04.18-.42.37-.85.55-1.27v-.02c.58-.48,1.33-.85,1.69-1.45,1.01-1.71,1.91-3.5,2.75-5.31.66-1.41,1.16-2.9,1.73-4.36,0,0-.02.02-.02.02.32-.57.64-1.14.96-1.7l.02-.02c.13-.17.26-.33.38-.5,0,0-.02.01-.02.01.31-.44.61-.88.92-1.32h0c.29-.44.58-.9.87-1.35h-.02c3.8-1.74,5.26-5.27,6.68-8.82h0c.42-.5.85-1,1.27-1.5.18-.23.37-.46.55-.69.13-.15.27-.31.4-.46.14-.15.27-.29.41-.44.16-.15.31-.31.47-.46.13-.14.26-.29.4-.43.16-.16.31-.33.47-.49,0,0-.03.01-.03.01,1.61-1.65,3.22-3.31,4.83-4.96,0,0-.03,0-.03,0,.62-.58,1.24-1.15,1.85-1.73,0,0-.04.02-.04.02.61-.58,1.22-1.17,1.83-1.75,0,0-.01.02-.01.02.26-.19.52-.39.78-.58,0,0,0-.04,0-.04,1.65.19,2.43-.56,2.38-2.2.13-.09.25-.19.38-.28,2.03-.49,3.75-1.37,4.47-3.53,0,0-.01.01-.01.01,1.86.7,2.41-1.18,3.58-1.84,3.28-1.84,6.5-3.78,9.73-5.69,2.02-1.19,4.01-2.44,6.06-3.57,1.2-.67,2.52-1.11,3.72-1.78.39-.22.57-.83.85-1.26,8.28-3.98,17-6.61,25.99-8.33,24.16-4.63,47.72-2.44,70.41,7.09,26.12,10.97,46.08,28.98,59.89,53.74,8.75,15.69,13.69,32.53,14.77,50.46,2,33.1-7.68,62.4-29.2,87.62-16.93,19.84-38.25,32.87-63.59,38.95-27.27,6.54-53.85,4.04-79.4-7.64-5.26-2.41-10.18-5.57-15.26-8.39-1.24-1.98-2.94-3.27-5.29-3.6,0,0,0,0,0,0-.6-.44-1.19-.88-1.79-1.32h0c-.49-.4-.97-.81-1.46-1.22,0,0,.04.04.04.03-.28-.19-.57-.38-.85-.57Zm13.66-133.52c.14-.12.28-.25.41-.37l.03-.05c.77-.54,1.54-1.08,2.32-1.63h0c1.77-.78,3.6-1.47,5.3-2.39.87-.47,1.52-1.34,2.26-2.02.06-.07.14-.11.24-.1.95-.55,1.9-1.11,2.85-1.66h0c1,0,2.1.14,2.2-1.35.94-.57,1.89-1.13,2.82-1.72,4-2.54,8.02-2.59,12.07-.12,5.79,3.52,11.63,6.96,17.36,10.58,2.59,1.64,4.19,4.09,4.43,7.27-.12,4.16-.25,8.33-.33,12.49-.01.69.27,1.38.41,2.07.9-.35,1.86-.6,2.69-1.07,3.8-2.13,7.58-4.32,11.36-6.49.49-.27.97-.55,1.46-.82h.02c.14-.16.28-.31.41-.46h0c.13-.18.36-.35.36-.52.03-5.49.14-10.98,0-16.46-.06-2.29-2.28-4.81-3.95-5.12l.02.02c-.24-1.66-1.47-1.75-2.76-1.77-10.36-6.06-20.71-12.16-31.1-18.17-3.79-2.19-7.83-2.19-11.56-.05-11.19,6.42-22.25,13.05-33.4,19.53-3.41,1.98-4.96,4.82-4.95,8.72.04,12.91.03,25.83,0,38.75-.01,4.09,1.8,7.1,5.23,9.12,10.61,6.23,21.33,12.29,31.87,18.64,4.6,2.77,8.78,2.52,13.26-.11,19.51-11.46,39.09-22.8,58.6-34.28,4.2-2.47,8.17-2.48,12.29-.03,5.26,3.12,10.51,6.27,15.85,9.25,3.94,2.2,5.88,5.48,5.92,9.89.06,6.57.07,13.14.01,19.7-.03,4.04-1.7,7.26-5.24,9.39-5.75,3.45-11.47,6.95-17.27,10.33-3.09,1.8-6.51,1.84-9.55.17-6.07-3.33-11.94-7-17.89-10.53-.18-.12-.36-.24-.54-.36l.03.05c-.28-.19-.57-.37-.85-.56l.03.02c-.17-.15-.33-.31-.5-.46l.02.05c-.3-.3-.61-.61-.91-.91l.03.02c-.44-.6-.88-1.21-1.32-1.81h.02c-.14-2.1-.35-4.21-.4-6.32-.07-3.16.03-6.32-.06-9.48-.02-.65-.54-1.28-.84-1.92-2.46-.26-4.01,1.51-5.84,2.64-1,.6-2.01,1.2-3.01,1.8h.01c-1.03-.05-2.11-.18-2.25,1.3h0c-1.27.18-2.92-.27-3.09,1.8h.01c-1.02-.05-2.09-.18-2.24,1.29,0,1.11-.01,2.23-.01,3.34,0,3.82-.22,7.67.09,11.46.17,2.01-.44,4.81,2.72,5.51,4.21,2.65,8.38,5.38,12.65,7.94,7.81,4.67,15.68,9.24,23.53,13.86,1.38,1.53,8.2,1.94,9.67.58.04-.04.03-.14.04-.21l-.02.02c.3-.16.6-.32.9-.49l-.04.04c.17-.12.34-.25.52-.37l.04-.02c.24-.08.48-.15.72-.23.97-.66,1.91-1.38,2.92-1.97,9.53-5.58,19.08-11.14,28.62-16.71,3.7-2.16,5.48-5.31,5.45-9.65-.07-12.83-.06-25.67,0-38.5.02-4.42-1.84-7.57-5.64-9.77-10.65-6.16-21.3-12.3-31.87-18.6-4.22-2.51-8.18-2.37-12.28.04-20.01,11.74-40.05,23.45-60.05,35.21-3.8,2.23-7.54,2.29-11.29.06-5.45-3.23-10.93-6.4-16.24-9.85-1.9-1.23-3.31-3.22-4.94-4.86-.14-1.28-.49-2.59-.39-3.85.75-9.34-1.92-18.9,1.78-28.04v-.02c.23-.21.44-.42.66-.63l.07-.04Z" />
    <path class="cls-10"
      d="m137.58,155.21c.21,3.09-1.98,5.42-2.61,8.28-.86,3.86-2.21,7.61-3.14,11.46-1,4.16-1.9,8.36-2.55,12.59-.55,3.54-.78,7.13-.98,10.71-.22,3.94-.26,7.9-.37,11.84-1.19-18.7,1.93-36.67,9.08-53.96.14-.33.38-.61.58-.92Z" />
    <path class="cls-10"
      d="m128.02,211.88c.24.62.6,1.22.7,1.87.76,4.89,1.16,9.87,2.29,14.67,1.12,4.81,3,9.44,4.44,14.18.8,2.65,1.38,5.36,2.06,8.05-1.64-4.39-3.48-8.73-4.89-13.2-2.61-8.31-4.13-16.85-4.6-25.56Z" />
    <path class="cls-10"
      d="m200,91.88c-.28.43-.45,1.04-.85,1.26-1.2.67-2.52,1.11-3.72,1.78-2.05,1.14-4.04,2.38-6.06,3.57-3.24,1.91-6.46,3.85-9.73,5.69-1.16.65-1.72,2.54-3.58,1.84,7.32-5.82,15.28-10.56,23.93-14.14Z" />
    <path class="cls-10" d="m155.71,125.51c-1.43,3.55-2.88,7.08-6.68,8.84,2.23-2.95,4.46-5.89,6.68-8.84Z" />
    <path class="cls-10"
      d="m145.95,139.21c-.57,1.45-1.08,2.94-1.73,4.36-.84,1.81-1.74,3.59-2.75,5.31-.36.6-1.11.98-1.68,1.45,2.05-3.7,4.11-7.41,6.16-11.11Z" />
    <path class="cls-10"
      d="m140.96,258.03c1.38,2.13,2.83,4.21,4.11,6.39.59,1,.87,2.19,1.28,3.29-1.8-3.23-3.6-6.46-5.4-9.68Z" />
    <path class="cls-10" d="m137.54,250.84c1.71,2.13,3.34,4.29,3.45,7.19-1.15-2.4-2.3-4.79-3.45-7.19Z" />
    <path class="cls-10" d="m164.48,116.09c-1.61,1.65-3.22,3.31-4.83,4.96,1.61-1.65,3.22-3.31,4.83-4.96Z" />
    <path class="cls-10" d="m178.31,301.77c2.35.34,4.05,1.63,5.29,3.6-1.76-1.2-3.53-2.4-5.29-3.6Z" />
    <path class="cls-10" d="m158.33,283.64c1.43,1.52,2.86,3.04,4.29,4.56-1.43-1.52-2.86-3.04-4.29-4.56Z" />
    <path class="cls-10" d="m176.08,106.01c-.72,2.16-2.44,3.04-4.47,3.53,1.49-1.18,2.98-2.35,4.47-3.53Z" />
    <path class="cls-10" d="m151.77,275.63c1.66.94,3.44,1.79,3.33,4.15-1.11-1.38-2.22-2.77-3.33-4.15Z" />
    <path class="cls-10" d="m165.5,291.13c1.16,1.06,2.32,2.11,3.48,3.17-1.16-1.06-2.32-2.11-3.48-3.17Z" />
    <path class="cls-10" d="m171.23,109.82c.05,1.64-.73,2.39-2.38,2.2.79-.74,1.59-1.47,2.38-2.2Z" />
    <path class="cls-10" d="m139.25,151.57c-.56,1.21-1.11,2.42-1.67,3.63.56-1.21,1.11-2.42,1.67-3.63Z" />
    <path class="cls-10" d="m155.12,279.81c1.81-.11,1.72,1.3,1.95,2.45-.65-.82-1.3-1.64-1.95-2.45Z" />
    <path class="cls-10" d="m149.93,273.01c.61.86,1.22,1.73,1.83,2.59-.61-.86-1.22-1.73-1.83-2.59Z" />
    <path class="cls-10" d="m148.14,270.36c.6.89,1.2,1.77,1.8,2.66-.6-.89-1.2-1.77-1.8-2.66Z" />
    <path class="cls-10" d="m168.08,112.62c-.61.58-1.22,1.17-1.83,1.75.61-.58,1.22-1.17,1.83-1.75Z" />
    <path class="cls-10" d="m169.9,295.12c.59.53,1.18,1.06,1.77,1.58-.59-.53-1.18-1.06-1.77-1.58Z" />
    <path class="cls-10" d="m166.3,114.35c-.62.58-1.23,1.15-1.85,1.73.62-.58,1.23-1.15,1.85-1.73Z" />
    <path class="cls-10" d="m162.65,288.24c1.23-.37,1.66.07,1.29,1.29-.43-.43-.86-.86-1.29-1.29Z" />
    <path class="cls-10" d="m146.86,268.56c.43.61.87,1.21,1.3,1.82-.43-.61-.87-1.21-1.3-1.82Z" />
    <path class="cls-10" d="m156.98,124.01c-.42.5-.85,1-1.27,1.5.42-.5.85-1,1.27-1.5Z" />
    <path class="cls-10" d="m176.52,300.45c.6.44,1.19.88,1.79,1.32-.6-.44-1.19-.88-1.79-1.32Z" />
    <path class="cls-10" d="m175.07,299.23c.49.41.97.82,1.46,1.23-.49-.41-.97-.82-1.46-1.23Z" />
    <path class="cls-10" d="m146.89,137.52c-.32.57-.64,1.14-.96,1.7.32-.57.64-1.14.96-1.7Z" />
    <path class="cls-10" d="m148.18,135.69c-.31.44-.61.88-.92,1.32.31-.44.61-.88.92-1.32Z" />
    <path class="cls-10" d="m149.05,134.34c-.29.45-.58.91-.87,1.36.29-.45.58-.91.87-1.36Z" />
    <path class="cls-10" d="m139.78,150.34c-.18.42-.37.85-.55,1.27.18-.42.37-.85.55-1.27Z" />
    <path class="cls-10" d="m164.58,290.26c.3.29.6.57.91.86-.3-.29-.6-.57-.91-.86Z" />
    <path class="cls-10" d="m163.97,289.51c.2.25.41.5.61.75-.2-.25-.41-.5-.61-.75Z" />
    <path class="cls-10" d="m173.31,297.88c.19.2.39.39.58.59-.19-.2-.39-.39-.58-.59Z" />
    <path class="cls-10" d="m174.26,298.7c.28.19.57.38.85.57-.28-.19-.57-.38-.85-.57Z" />
    <path class="cls-10" d="m168.85,112.06c-.26.19-.52.39-.78.58.26-.19.52-.39.78-.58Z" />
    <path class="cls-10" d="m172.03,296.93c.29.19.58.37.87.56-.29-.18-.58-.37-.87-.56Z" />
    <path class="cls-10" d="m157.08,282.28c.14.16.27.32.41.48-.14-.16-.27-.32-.41-.48Z" />
    <path class="cls-10" d="m157.47,282.74c.15.16.31.32.46.47-.15-.16-.31-.32-.46-.47Z" />
    <path class="cls-10" d="m159.68,121.03c-.16.16-.31.33-.47.49.16-.16.31-.33.47-.49Z" />
    <path class="cls-10" d="m147.29,137c-.13.17-.26.33-.38.5.13-.17.26-.33.38-.5Z" />
    <path class="cls-10" d="m168.96,294.27c.16.15.32.31.48.46-.16-.15-.32-.31-.48-.46Z" />
    <path class="cls-10" d="m158.82,121.95c-.16.15-.31.31-.47.46.16-.15.31-.31.47-.46Z" />
    <path class="cls-10" d="m157.94,122.86c-.13.15-.27.31-.4.46.13-.15.27-.31.4-.46Z" />
    <path class="cls-10" d="m172.87,297.46c.16.15.33.3.49.44-.16-.15-.33-.3-.49-.44Z" />
    <path class="cls-6"
      d="m198.48,158.62c-.1,0-.18.03-.24.1-2.52,1.47-5.04,2.94-7.56,4.41,0,0,0,0,0,0-.77.54-1.54,1.08-2.32,1.63,0,0-.03.05-.03.05-.14.12-.28.25-.41.37,0,0-.07.04-.06.04-.22.21-.43.42-.65.63v.02c-2.11,1.87-2.59,4.37-2.61,6.99-.05,6.62-.1,13.24.04,19.86.04,1.69.76,3.37,1.17,5.05,1.63,1.64,3.04,3.62,4.94,4.86,5.3,3.45,10.79,6.62,16.24,9.85,3.75,2.22,7.49,2.17,11.29-.06,20-11.76,40.04-23.47,60.05-35.21,4.11-2.41,8.07-2.55,12.28-.04,10.56,6.3,21.22,12.44,31.87,18.6,3.79,2.19,5.66,5.35,5.64,9.77-.06,12.83-.07,25.67,0,38.5.02,4.34-1.75,7.49-5.45,9.65-9.55,5.56-19.09,11.13-28.62,16.71-1.01.59-1.95,1.31-2.91,1.97-.24.08-.48.15-.72.23l-.04.02c-.17.12-.34.25-.52.37,0,0,.04-.04.04-.04-.3.16-.6.32-.9.49,0,0,.02-.02.02-.02-3.26.64-6.52.97-9.71-.37-7.85-4.61-15.72-9.18-23.53-13.86-4.27-2.56-8.44-5.29-12.65-7.94-1.75-2.56-2.48-5.34-2.37-8.47.14-3.94.02-7.89,0-11.83.6-.44,1.2-.87,1.8-1.31,0,0-.01.01-.01.01,1.03-.6,2.06-1.2,3.09-1.8,0,0,0,0,0,0,.75-.44,1.5-.88,2.25-1.32h-.01c1-.59,2.01-1.19,3.01-1.79,1.83-1.13,3.37-2.91,5.84-2.64-.01,4.55-.12,9.1.03,13.64.05,1.38.82,2.73,1.26,4.1,0,0-.02-.01-.02-.01.44.6.88,1.21,1.32,1.81,0,0-.03-.02-.03-.02.3.3.61.61.91.91,0,0-.02-.05-.02-.05.17.15.33.31.5.46,0,0-.03-.02-.03-.02.28.19.57.37.85.56,0,0-.03-.05-.03-.05.18.12.36.24.54.36,5.95,3.53,11.83,7.21,17.89,10.53,3.04,1.67,6.46,1.63,9.55-.17,5.8-3.38,11.52-6.87,17.27-10.33,3.54-2.13,5.2-5.35,5.24-9.39.05-6.57.05-13.14-.01-19.7-.04-4.41-1.98-7.69-5.92-9.89-5.34-2.98-10.59-6.13-15.85-9.25-4.12-2.45-8.09-2.44-12.29.03-19.5,11.48-39.09,22.81-58.6,34.28-4.48,2.63-8.66,2.88-13.26.11-10.54-6.35-21.26-12.41-31.87-18.64-3.43-2.01-5.24-5.03-5.23-9.12.04-12.92.04-25.83,0-38.75-.01-3.9,1.54-6.74,4.95-8.72,11.15-6.48,22.22-13.11,33.4-19.53,3.73-2.14,7.77-2.14,11.56.05,10.39,6.01,20.74,12.11,31.1,18.17.92.59,1.84,1.18,2.76,1.77,0,0-.02-.02-.02-.02,2.9,2.98,3.82,6.56,3.6,10.66-.2,3.8-.03,7.63-.02,11.44,0,0,0,0,0,0-.14.15-.28.3-.41.44,0,0-.02.01-.02.01-.49.27-.97.55-1.46.82-3.78,2.17-7.55,4.36-11.36,6.49-.84.47-1.79.72-2.69,1.07-.03-4.85-.06-9.71-.09-14.56-.24-3.18-1.84-5.63-4.43-7.27-5.73-3.62-11.57-7.05-17.36-10.58-4.05-2.47-8.07-2.41-12.07.12-.93.59-1.88,1.15-2.82,1.72-.73.45-1.47.9-2.2,1.34h0c-.95.56-1.9,1.11-2.85,1.66Z" />
    <path class="cls-3"
      d="m185.8,197.76c-.41-1.68-1.14-3.36-1.17-5.05-.14-6.62-.09-13.24-.04-19.86.02-2.61.5-5.12,2.6-6.99-3.7,9.15-1.03,18.71-1.78,28.04-.1,1.26.25,2.57.39,3.85Z" />
    <path class="cls-4"
      d="m257.99,239.82c-.44-1.36-1.22-2.72-1.26-4.1-.15-4.54-.04-9.09-.03-13.64.29.64.82,1.28.84,1.92.09,3.16-.01,6.32.06,9.48.05,2.11.26,4.22.4,6.33Z" />
    <path class="cls-7"
      d="m256.24,177.33c0-3.81-.18-7.64.02-11.44.22-4.1-.7-7.68-3.6-10.66,1.67.31,3.89,2.83,3.95,5.12.14,5.48.03,10.98,0,16.46,0,.17-.24.35-.36.52Z" />
    <path class="cls-5"
      d="m240.75,230.92c.01,3.95.14,7.9,0,11.83-.11,3.13.62,5.91,2.37,8.47-3.16-.7-2.56-3.5-2.72-5.51-.31-3.8-.09-7.64-.09-11.46,0-1.11,0-2.23.01-3.34.15,0,.29,0,.44.01Z" />
    <path class="cls-3"
      d="m190.68,163.13c2.52-1.47,5.04-2.94,7.56-4.41-.75.69-1.4,1.56-2.26,2.02-1.7.92-3.53,1.61-5.3,2.39Z" />
    <path class="cls-9"
      d="m240.21,171.6c.03,4.85.06,9.71.09,14.56-.14-.69-.42-1.38-.41-2.07.07-4.16.21-8.33.33-12.49Z" />
    <path class="cls-8"
      d="m279.29,273.02c3.19,1.33,6.44,1.01,9.71.37-.01.07,0,.17-.04.21-1.47,1.36-8.29.95-9.67-.58Z" />
    <path class="cls-1" d="m245.63,227.82c-1.03.6-2.06,1.2-3.09,1.8.17-2.07,1.82-1.61,3.09-1.8Z" />
    <path class="cls-1" d="m250.86,224.73c-1,.6-2.01,1.2-3.01,1.8,1-.6,2.01-1.2,3.01-1.8Z" />
    <path class="cls-7" d="m252.68,155.24c-.92-.59-1.84-1.18-2.76-1.77,1.28.02,2.52.11,2.76,1.77Z" />
    <path class="cls-3" d="m188.36,164.75c.77-.54,1.54-1.08,2.32-1.63-.77.54-1.54,1.08-2.32,1.63Z" />
    <path class="cls-3" d="m198.48,158.62c.95-.55,1.9-1.11,2.85-1.66-.95.55-1.9,1.11-2.85,1.66Z" />
    <path class="cls-3" d="m201.33,156.95c.73-.45,1.47-.9,2.2-1.34-.1,1.48-1.2,1.34-2.2,1.34Z" />
    <path class="cls-1" d="m247.87,226.51c-.75.44-1.5.88-2.25,1.32.14-1.48,1.22-1.35,2.25-1.32Z" />
    <path class="cls-1" d="m240.75,230.92c-.15,0-.29,0-.44-.01.15-1.47,1.22-1.34,2.24-1.3-.6.44-1.2.87-1.8,1.31Z" />
    <path class="cls-4" d="m259.29,241.62c-.44-.6-.88-1.21-1.32-1.81.44.6.88,1.21,1.32,1.81Z" />
    <path class="cls-7" d="m254.34,178.61c.49-.27.97-.55,1.46-.82-.49.27-.97.55-1.46.82Z" />
    <path class="cls-4" d="m260.18,242.51c-.3-.3-.61-.61-.91-.91.3.3.61.61.91.91Z" />
    <path class="cls-8" d="m290.4,272.57c.24-.08.48-.15.72-.23-.24.08-.48.15-.72.23Z" />
    <path class="cls-8" d="m288.98,273.41c.3-.16.6-.32.9-.49-.3.16-.6.32-.9.49Z" />
    <path class="cls-4" d="m261.48,243.46c-.28-.19-.57-.37-.85-.56.28.19.57.37.85.56Z" />
    <path class="cls-3" d="m187.2,165.84c.22-.21.43-.42.65-.63-.22.21-.43.42-.65.63Z" />
    <path class="cls-4" d="m262,243.78c-.18-.12-.36-.24-.54-.36.18.12.36.24.54.36Z" />
    <path class="cls-3" d="m187.92,165.17c.14-.12.28-.25.41-.37-.14.12-.28.25-.41.37Z" />
    <path class="cls-8" d="m289.85,272.96c.17-.12.34-.25.52-.37-.17.12-.34.25-.52.37Z" />
    <path class="cls-7" d="m255.83,177.78c.14-.15.28-.3.41-.44-.14.15-.28.3-.41.44Z" />
    <path class="cls-4" d="m260.66,242.93c-.17-.15-.33-.31-.5-.46.16.15.33.31.5.46Z" />
  </g>
</svg>