<svg width="21" height="21" viewBox="0 0 21 21" fill="none" xmlns="http://www.w3.org/2000/svg">
  <g>
    <path
      d="M12.8293 3.09751L14.5727 4.58138C14.5865 4.50309 14.6226 4.43016 14.6767 4.37087C14.7308 4.31157 14.8009 4.26829 14.8789 4.24591L13.1355 2.76134C13.0575 2.78398 12.9875 2.82744 12.9334 2.88683C12.8793 2.94622 12.8433 3.01918 12.8293 3.09751Z"
      fill="url(#paint0_radial_308_42427)" />
    <path
      d="M13.1357 2.76099L14.8791 4.24557C14.928 4.23789 14.9781 4.24646 15.0215 4.26993L13.2781 2.78605C13.235 2.76176 13.1847 2.7529 13.1357 2.76099Z"
      fill="url(#paint1_radial_308_42427)" />
    <path
      d="M13.283 2.79438L15.0264 4.27825L15.0185 4.2699L13.278 2.78603C13.2811 2.7883 13.2838 2.79113 13.2858 2.79438"
      fill="url(#paint2_radial_308_42427)" />
    <path
      d="M3.35618 7.99641C1.33861 11.9086 2.47309 15.9176 5.91999 16.9644C5.95061 17.0034 6.02824 16.9999 6.0674 16.9978C6.1453 16.9752 6.21522 16.9319 6.26931 16.8726C6.3234 16.8134 6.35953 16.7405 6.37364 16.6623L6.49827 16.0937C6.54242 15.8912 6.49043 15.7722 6.35227 15.6984C4.88378 15.1632 3.87749 13.9229 3.66384 12.2434C3.21446 9.16848 5.55251 5.5618 8.85127 4.28533C8.9873 4.19833 9.13614 4.03059 9.17531 3.86772L9.30136 3.29631C9.31916 3.21557 9.32842 3.1752 9.30136 3.13623C9.30361 3.11173 9.30037 3.08704 9.29186 3.06389C9.28334 3.04074 9.26976 3.01968 9.25207 3.00219C9.23437 2.98469 9.21298 2.97118 9.18939 2.9626C9.1658 2.95401 9.14058 2.95056 9.11548 2.95248C9.06973 2.95541 9.02521 2.96825 8.98516 2.99007C6.67061 3.82318 4.56758 5.6488 3.35618 7.99641Z"
      fill="#997EA4" />
    <path fill-rule="evenodd" clip-rule="evenodd"
      d="M0.244136 10.1903C1.42705 4.7886 6.56534 0.249276 11.7642 0.00985097C16.9651 -0.229574 20.197 3.92417 19.014 9.32585C17.8311 14.7275 12.695 19.2655 7.49401 19.5056C2.29305 19.7457 -0.938777 15.592 0.244136 10.1903ZM3.36058 7.99648C1.34159 11.9087 2.47607 15.9205 5.92439 16.9645L5.92296 16.9652C5.95043 17.0001 6.01569 16.9993 6.05711 16.9987C6.06188 16.9986 6.06634 16.9986 6.07038 16.9986C6.14828 16.976 6.2182 16.9326 6.27229 16.8734C6.32638 16.8141 6.36251 16.7413 6.37662 16.6631L6.50125 16.0945C6.5454 15.8919 6.49341 15.7729 6.35525 15.6991C4.88533 15.1674 3.88047 13.9236 3.66681 12.2442C3.21744 9.16925 5.55549 5.56395 8.85425 4.28609C8.99028 4.1984 9.14268 4.03066 9.17829 3.86849L9.30292 3.29916C9.32428 3.21842 9.33354 3.17805 9.30292 3.13908C9.30517 3.11458 9.30192 3.08989 9.29341 3.06674C9.2849 3.04359 9.27132 3.02253 9.25362 3.00504C9.23592 2.98755 9.21453 2.97404 9.19094 2.96545C9.16736 2.95687 9.14214 2.95341 9.11704 2.95533C9.07128 2.95826 9.02676 2.9711 8.98671 2.99292C6.67501 3.82047 4.57127 5.64886 3.36058 7.99648ZM10.0357 15.8509L9.91111 16.4202L9.91182 16.4223L9.91109 16.4257C9.89447 16.5042 9.88591 16.5446 9.91609 16.5824C9.91371 16.6069 9.91687 16.6316 9.92534 16.6548C9.93381 16.6781 9.94739 16.6992 9.96511 16.7167C9.98283 16.7342 10.0043 16.7477 10.0279 16.7563C10.0516 16.7648 10.0768 16.7682 10.102 16.7661C10.1477 16.7634 10.1922 16.7508 10.2323 16.7292C12.5817 15.894 14.6463 14.0698 15.8463 11.7639C17.8653 7.85171 16.7308 3.83926 13.2825 2.79525C13.2554 2.76059 13.1886 2.76131 13.1472 2.76176C13.1429 2.7618 13.1388 2.76185 13.1351 2.76185C13.0571 2.78449 12.9871 2.82795 12.933 2.88734C12.8789 2.94672 12.8429 3.01969 12.8289 3.09801L12.7042 3.66595C12.6601 3.86919 12.7121 3.98751 12.8502 4.06198C14.3201 4.5972 15.325 5.83679 15.5387 7.51624C15.988 10.5912 13.65 14.1972 10.3512 15.475C10.2152 15.5613 10.0628 15.7298 10.0357 15.8509ZM8.19407 13.4859L7.98042 14.4603L7.97828 14.4596C7.9733 14.6607 8.06374 14.7776 8.21971 14.77L8.80654 14.7428C8.81198 14.7415 8.81738 14.7402 8.82273 14.7387C8.81913 14.7397 8.8155 14.7406 8.81186 14.7414L8.22503 14.7686C8.06907 14.7762 7.97862 14.66 7.9836 14.4582L8.19726 13.4838C7.06918 13.3348 6.4731 12.5177 6.7131 11.4208C6.85287 10.7819 7.11717 10.3238 7.51872 9.98776C7.11538 10.3242 6.85005 10.7829 6.70991 11.4229C6.46991 12.5198 7.06528 13.3362 8.19407 13.4859ZM10.8142 8.80225C11.0918 8.61448 11.2086 8.37784 11.2742 8.07513C11.3974 7.5065 11.0869 7.15919 10.3049 7.19538C9.93605 7.21217 9.63842 7.29208 9.39131 7.45347C9.63905 7.29068 9.93765 7.21015 10.3081 7.19329C11.0915 7.1571 11.402 7.50441 11.2774 8.07304C11.2108 8.37673 11.0935 8.61411 10.8142 8.80225ZM8.69289 8.25649C8.63835 8.29258 8.57573 8.31537 8.51027 8.32291L7.88428 8.35144C7.72831 8.3591 7.63716 8.24287 7.67063 8.08L7.67917 8.03963C7.75401 7.85034 7.85088 7.66889 7.96569 7.49921C7.85193 7.66829 7.75615 7.84903 7.68236 8.03754L7.67381 8.07791C7.6382 8.24078 7.72936 8.35631 7.88746 8.34935L8.51346 8.32082C8.57764 8.31342 8.6391 8.29137 8.69289 8.25649ZM9.80466 6.29165L10.0179 5.31896C10.0406 5.21564 10.107 5.12645 10.2051 5.06254C10.1087 5.1263 10.0436 5.21467 10.0211 5.31687L9.80747 6.29127C9.80653 6.2914 9.80559 6.29152 9.80466 6.29165ZM10.3591 10.1293C10.1338 10.1884 9.88995 10.2388 9.62695 10.2822C9.50777 10.3087 9.39662 10.3354 9.29296 10.3625C9.39813 10.3349 9.51105 10.3078 9.63228 10.2808C9.89321 10.2377 10.1352 10.1878 10.3591 10.1293ZM9.5596 12.4009C10.1876 12.2351 10.51 11.8443 10.708 11.3589C10.7334 11.291 10.7773 11.2313 10.8349 11.186C10.8807 11.1501 10.9337 11.1243 10.9903 11.1104C10.9357 11.1247 10.8844 11.1499 10.84 11.1847C10.7823 11.23 10.7383 11.2897 10.7126 11.3575C10.5146 11.8443 10.191 12.2359 9.5596 12.4009Z"
      fill="url(#paint3_radial_308_42427)" />
    <path
      d="M13.1355 2.76115C13.0575 2.78379 12.9876 2.82725 12.9335 2.88664C12.8794 2.94603 12.8433 3.01899 12.8293 3.09732L12.7047 3.66526C12.6605 3.86849 12.7125 3.98681 12.8507 4.06128C14.3206 4.59651 15.3269 5.83609 15.5391 7.51554C15.9885 10.5905 13.6504 14.1972 10.3517 15.4743C10.2156 15.5606 10.0668 15.7291 10.0362 15.8502L9.91155 16.4195C9.89446 16.5002 9.8852 16.5413 9.91582 16.5803C9.91355 16.6048 9.91679 16.6294 9.92531 16.6525C9.93383 16.6757 9.94742 16.6967 9.96513 16.7141C9.98285 16.7316 10.0042 16.745 10.0278 16.7535C10.0514 16.762 10.0766 16.7654 10.1017 16.7633C10.1474 16.7606 10.1919 16.748 10.232 16.7264C12.5822 15.8912 14.6475 14.0698 15.8482 11.7633C17.8658 7.85102 16.7313 3.84204 13.2844 2.79456C13.2523 2.75628 13.1747 2.75976 13.1355 2.76115Z"
      fill="#997EA4" />
    <path
      d="M2.36906 17.8992L4.11245 19.383C5.40504 20.4834 7.1648 21.0854 9.24006 20.9901C14.4382 20.7507 19.5743 16.212 20.7558 10.8131C21.468 7.56351 20.5813 4.76558 18.63 3.10422L16.8866 1.61964C18.838 3.2817 19.7246 6.07963 19.0124 9.32927C17.8295 14.7309 12.6934 19.2696 7.4924 19.509C5.41999 19.6051 3.66022 19.003 2.36479 17.9026"
      fill="#997EA4" />
  </g>
  <defs>
    <radialGradient id="paint0_radial_308_42427" cx="0" cy="0" r="1" gradientUnits="userSpaceOnUse"
      gradientTransform="translate(13.9822 3.06327) rotate(137.73) scale(1.92025 2.50252)">
      <stop stop-color="#A6FFD4" />
      <stop offset="0.48193" stop-color="#83EAE4" stop-opacity="0.31" />
      <stop offset="1" stop-color="#C037C2" stop-opacity="0.96" />
    </radialGradient>
    <radialGradient id="paint1_radial_308_42427" cx="0" cy="0" r="1" gradientUnits="userSpaceOnUse"
      gradientTransform="translate(14.1964 3.00887) rotate(140.627) scale(1.69127 2.17159)">
      <stop stop-color="#A6FFD4" />
      <stop offset="0.48193" stop-color="#83EAE4" stop-opacity="0.31" />
      <stop offset="1" stop-color="#C037C2" stop-opacity="0.96" />
    </radialGradient>
    <radialGradient id="paint2_radial_308_42427" cx="0" cy="0" r="1" gradientUnits="userSpaceOnUse"
      gradientTransform="translate(14.2614 3.03357) rotate(138.858) scale(1.60954 2.08808)">
      <stop stop-color="#A6FFD4" />
      <stop offset="0.48193" stop-color="#83EAE4" stop-opacity="0.31" />
      <stop offset="1" stop-color="#C037C2" stop-opacity="0.96" />
    </radialGradient>
    <radialGradient id="paint3_radial_308_42427" cx="0" cy="0" r="1" gradientUnits="userSpaceOnUse"
      gradientTransform="translate(8.42583 3.23743) rotate(46.0493) scale(19.2367 25.1672)">
      <stop stop-color="#A6FFD4" />
      <stop offset="0.48193" stop-color="#83EAE4" stop-opacity="0.31" />
      <stop offset="1" stop-color="#C037C2" stop-opacity="0.96" />
    </radialGradient>
  </defs>
</svg>