<svg width="140" height="104" viewBox="0 0 140 104" fill="none" xmlns="http://www.w3.org/2000/svg">
<circle cx="96" cy="52" r="43" fill="#303043" stroke="#4C4C5C" stroke-width="2"/>
<path d="M78.7052 40.2865C88.4898 30.6936 104.354 30.6936 114.139 40.2865L115.316 41.441C115.805 41.9207 115.805 42.6983 115.316 43.1781L111.288 47.1274C111.043 47.3673 110.647 47.3673 110.402 47.1274L108.782 45.5387C101.955 38.8464 90.8883 38.8464 84.0622 45.5387L82.3267 47.2401C82.0822 47.4799 81.6856 47.4799 81.4409 47.2401L77.4127 43.2907C76.9233 42.811 76.9233 42.0334 77.4127 41.5537L78.7052 40.2865ZM122.47 48.4544L126.055 51.9693C126.544 52.449 126.544 53.2266 126.055 53.7063L109.889 69.5559C109.4 70.0355 108.606 70.0355 108.117 69.5559L96.6434 58.307C96.5211 58.187 96.3228 58.187 96.2005 58.307L84.727 69.5559C84.2378 70.0355 83.4445 70.0355 82.9553 69.5559L66.7888 53.7061C66.2996 53.2264 66.2996 52.4488 66.7888 51.9691L70.374 48.4541C70.8633 47.9745 71.6565 47.9745 72.1457 48.4541L83.6197 59.7031C83.7419 59.8231 83.9401 59.8231 84.0625 59.7031L95.5358 48.4541C96.025 47.9745 96.8183 47.9745 97.3075 48.4541L108.781 59.7031C108.904 59.8231 109.102 59.8231 109.224 59.7031L120.698 48.4544C121.187 47.9747 121.98 47.9747 122.47 48.4544Z" fill="#3396FF"/>
<g filter="url(#filter0_d_8544_20674)">
<circle cx="44" cy="52" r="44" fill="#303043"/>
<circle cx="44" cy="52" r="43" stroke="#4C4C5C" stroke-width="2"/>
</g>
<path d="M67.4501 26.3344L47.3008 42.376L51.0477 32.9221L67.4501 26.3344Z" fill="#E17726" stroke="#E17726" stroke-width="0.601754" stroke-linecap="round" stroke-linejoin="round"/>
<path d="M20.9727 26.3342L40.9426 42.5255L37.3752 32.9219L20.9727 26.3342Z" fill="#E27625" stroke="#E27625" stroke-width="0.601754" stroke-linecap="round" stroke-linejoin="round"/>
<path d="M60.1951 63.5294L54.834 72.3417L66.3137 75.7425L69.6022 63.7221L60.1951 63.5294Z" fill="url(#paint0_linear_8544_20674)" stroke="#E27625" stroke-width="0.601754" stroke-linecap="round" stroke-linejoin="round"/>
<path d="M18.8398 63.7221L22.1084 75.7425L33.5682 72.3417L28.2269 63.5294L18.8398 63.7221Z" fill="url(#paint1_linear_8544_20674)" stroke="#E27625" stroke-width="0.601754" stroke-linecap="round" stroke-linejoin="round"/>
<path d="M32.9505 48.6428L29.7617 53.8189L41.1218 54.375L40.7432 41.2209L32.9505 48.6428Z" fill="#E27625" stroke="#E27625" stroke-width="0.601754" stroke-linecap="round" stroke-linejoin="round"/>
<path d="M55.472 48.644L47.5599 41.0724L47.3008 54.3763L58.6608 53.8202L55.472 48.644Z" fill="#E27625" stroke="#E27625" stroke-width="0.601754" stroke-linecap="round" stroke-linejoin="round"/>
<path d="M33.5684 72.3409L40.4442 68.7691L34.525 63.8068L33.5684 72.3409Z" fill="#E27625" stroke="#E27625" stroke-width="0.601754" stroke-linecap="round" stroke-linejoin="round"/>
<path d="M47.9785 68.7691L54.8344 72.3409L53.8976 63.8068L47.9785 68.7691Z" fill="#E27625" stroke="#E27625" stroke-width="0.601754" stroke-linecap="round" stroke-linejoin="round"/>
<path d="M54.8344 72.3416L47.9785 68.7697L48.5365 73.5608L48.4766 75.5927L54.8344 72.3416Z" fill="#D5BFB2" stroke="#D5BFB2" stroke-width="0.601754" stroke-linecap="round" stroke-linejoin="round"/>
<path d="M33.5684 72.3416L39.946 75.5927L39.9061 73.5608L40.4442 68.7697L33.5684 72.3416Z" fill="#D5BFB2" stroke="#D5BFB2" stroke-width="0.601754" stroke-linecap="round" stroke-linejoin="round"/>
<path d="M40.0653 60.6415L34.3652 58.8449L38.3911 56.8557L40.0653 60.6415Z" fill="#233447" stroke="#233447" stroke-width="0.601754" stroke-linecap="round" stroke-linejoin="round"/>
<path d="M48.3574 60.6415L50.0316 56.8557L54.0774 58.8449L48.3574 60.6415Z" fill="#233447" stroke="#233447" stroke-width="0.601754" stroke-linecap="round" stroke-linejoin="round"/>
<path d="M33.5697 72.3417L34.5663 63.5294L28.2285 63.7221L33.5697 72.3417Z" fill="#CC6228" stroke="#CC6228" stroke-width="0.601754" stroke-linecap="round" stroke-linejoin="round"/>
<path d="M53.8574 63.5294L54.834 72.3417L60.1952 63.7221L53.8574 63.5294Z" fill="#CC6228" stroke="#CC6228" stroke-width="0.601754" stroke-linecap="round" stroke-linejoin="round"/>
<path d="M58.6608 53.8185L47.3008 54.3746L48.357 60.6417L50.0312 56.8558L54.077 58.845L58.6608 53.8185Z" fill="#CC6228" stroke="#CC6228" stroke-width="0.601754" stroke-linecap="round" stroke-linejoin="round"/>
<path d="M34.3656 58.845L38.3914 56.8558L40.0656 60.6417L41.1218 54.3746L29.7617 53.8185L34.3656 58.845Z" fill="#CC6228" stroke="#CC6228" stroke-width="0.601754" stroke-linecap="round" stroke-linejoin="round"/>
<path d="M29.7617 53.8185L34.525 63.8072L34.3655 58.845L29.7617 53.8185Z" fill="#E27525" stroke="#E27525" stroke-width="0.601754" stroke-linecap="round" stroke-linejoin="round"/>
<path d="M54.0778 58.845L53.8984 63.8072L58.6617 53.8185L54.0778 58.845Z" fill="#E27525" stroke="#E27525" stroke-width="0.601754" stroke-linecap="round" stroke-linejoin="round"/>
<path d="M41.1228 54.3752L40.0664 60.6423L41.4017 68.0427L41.7007 58.2894L41.1228 54.3752Z" fill="#E27525" stroke="#E27525" stroke-width="0.601754" stroke-linecap="round" stroke-linejoin="round"/>
<path d="M47.3003 54.3752L46.7422 58.2681L47.0212 68.0427L48.3565 60.6423L47.3003 54.3752Z" fill="#E27525" stroke="#E27525" stroke-width="0.601754" stroke-linecap="round" stroke-linejoin="round"/>
<path d="M48.3568 60.6407L47.0215 68.0411L47.9782 68.7684L53.8974 63.8062L54.0768 58.8439L48.3568 60.6407Z" fill="#F5841F" stroke="#F5841F" stroke-width="0.601754" stroke-linecap="round" stroke-linejoin="round"/>
<path d="M34.3652 58.8439L34.5248 63.8062L40.4439 68.7684L41.4006 68.0411L40.0653 60.6407L34.3652 58.8439Z" fill="#F5841F" stroke="#F5841F" stroke-width="0.601754" stroke-linecap="round" stroke-linejoin="round"/>
<path d="M48.4761 75.5931L48.5358 73.5612L48.0177 73.0906H40.4044L39.9061 73.5612L39.946 75.5931L33.5684 72.342L35.8005 74.3097L40.3246 77.6678H48.0774L52.6214 74.3097L54.8336 72.342L48.4761 75.5931Z" fill="#C0AC9D" stroke="#C0AC9D" stroke-width="0.601754" stroke-linecap="round" stroke-linejoin="round"/>
<path d="M47.9779 68.7701L47.0212 68.043H41.4009L40.4444 68.7701L39.9062 73.5613L40.4045 73.0907H48.0178L48.536 73.5613L47.9779 68.7701Z" fill="#161616" stroke="#161616" stroke-width="0.601754" stroke-linecap="round" stroke-linejoin="round"/>
<path d="M68.3071 43.424L70.0012 34.5691L67.4501 26.3344L47.9785 41.8414L55.4721 48.6429L66.055 51.9583L68.3868 49.028L67.3705 48.2365L68.9847 46.6539L67.7491 45.6272L69.3635 44.301L68.3071 43.424Z" fill="url(#paint2_linear_8544_20674)" stroke="#763E1A" stroke-width="0.601754" stroke-linecap="round" stroke-linejoin="round"/>
<path d="M18.4219 34.5689L20.1359 43.4238L19.0397 44.3008L20.674 45.627L19.4383 46.6537L21.0526 48.2364L20.0362 49.0279L22.368 51.9581L32.951 48.6427L40.4446 41.8412L20.9729 26.3342L18.4219 34.5689Z" fill="url(#paint3_linear_8544_20674)" stroke="#763E1A" stroke-width="0.601754" stroke-linecap="round" stroke-linejoin="round"/>
<path d="M66.0558 51.958L55.4729 48.6428L58.6617 53.8189L53.8984 63.8074L60.1963 63.7219H69.6033L66.0558 51.958Z" fill="#F5841F" stroke="#F5841F" stroke-width="0.601754" stroke-linecap="round" stroke-linejoin="round"/>
<path d="M32.9503 48.6428L22.3675 51.958L18.8398 63.7219H28.2269L34.5247 63.8074L29.7615 53.8189L32.9503 48.6428Z" fill="#F5841F" stroke="#F5841F" stroke-width="0.601754" stroke-linecap="round" stroke-linejoin="round"/>
<path d="M47.3002 54.375L47.9778 41.841L51.047 32.9219H37.375L40.4442 41.841L41.1218 54.375L41.3809 58.3105L41.4009 68.0425H47.0211L47.0411 58.3105L47.3002 54.375Z" fill="#F5841F" stroke="#F5841F" stroke-width="0.601754" stroke-linecap="round" stroke-linejoin="round"/>
<defs>
<filter id="filter0_d_8544_20674" x="0" y="0" width="104" height="104" filterUnits="userSpaceOnUse" color-interpolation-filters="sRGB">
<feFlood flood-opacity="0" result="BackgroundImageFix"/>
<feColorMatrix in="SourceAlpha" type="matrix" values="0 0 0 0 0 0 0 0 0 0 0 0 0 0 0 0 0 0 127 0" result="hardAlpha"/>
<feOffset dx="8"/>
<feGaussianBlur stdDeviation="4"/>
<feComposite in2="hardAlpha" operator="out"/>
<feColorMatrix type="matrix" values="0 0 0 0 0 0 0 0 0 0 0 0 0 0 0 0 0 0 0.25 0"/>
<feBlend mode="normal" in2="BackgroundImageFix" result="effect1_dropShadow_8544_20674"/>
<feBlend mode="normal" in="SourceGraphic" in2="effect1_dropShadow_8544_20674" result="shape"/>
</filter>
<linearGradient id="paint0_linear_8544_20674" x1="62.2181" y1="63.5294" x2="62.2181" y2="75.7425" gradientUnits="userSpaceOnUse">
<stop stop-color="#E27625"/>
<stop offset="1" stop-color="#FFFAF5"/>
</linearGradient>
<linearGradient id="paint1_linear_8544_20674" x1="26.204" y1="63.5294" x2="26.204" y2="75.7425" gradientUnits="userSpaceOnUse">
<stop stop-color="#E27625"/>
<stop offset="1" stop-color="#FFFAF5"/>
</linearGradient>
<linearGradient id="paint2_linear_8544_20674" x1="58.9899" y1="26.3344" x2="58.9899" y2="51.9583" gradientUnits="userSpaceOnUse">
<stop stop-color="#763E1A"/>
<stop offset="0.4375" stop-color="#915E3D"/>
<stop offset="1" stop-color="#FFF1E8"/>
</linearGradient>
<linearGradient id="paint3_linear_8544_20674" x1="29.4332" y1="26.3342" x2="29.4332" y2="51.9581" gradientUnits="userSpaceOnUse">
<stop stop-color="#763E1A"/>
<stop offset="0.4375" stop-color="#915E3D"/>
<stop offset="1" stop-color="#FFF1E8"/>
</linearGradient>
</defs>
</svg>
