<svg width="376" height="56" viewBox="0 0 376 56" fill="none" xmlns="http://www.w3.org/2000/svg">
  <rect x="1" y="1" width="374" height="54" rx="11" fill="#1E1E2C" stroke="url(#paint0_linear_8544_20665)"
    stroke-width="2" />
  <mask id="mask0_8544_20665" style="mask-type:alpha" maskUnits="userSpaceOnUse" x="2" y="2" width="372" height="52">
    <rect x="3" y="3" width="370" height="50" rx="9" fill="#1E1E2C" stroke="#242431" stroke-width="2" />
  </mask>
  <g mask="url(#mask0_8544_20665)">
    <g opacity="0.3" filter="url(#filter0_f_8544_20665)">
      <ellipse cx="310" cy="30.5" rx="13" ry="13.5" fill="#3396FF" />
    </g>
    <path opacity="0.1"
      d="M336.961 13.6864C352.044 5.2831 371.453 10.4839 380.314 25.3029L381.38 27.0863C381.823 27.8273 381.571 28.7685 380.817 29.1887L374.608 32.6483C374.23 32.8584 373.745 32.7284 373.524 32.3579L372.056 29.9037C365.875 19.5656 352.334 15.9374 341.812 21.7998L339.137 23.2901C338.76 23.5002 338.275 23.3702 338.053 22.9997L334.405 16.8988C333.962 16.1578 334.214 15.2166 334.969 14.7964L336.961 13.6864ZM387.858 37.9202L391.105 43.3499C391.548 44.0909 391.296 45.0321 390.541 45.4524L365.622 59.3365C364.868 59.7566 363.897 59.4965 363.454 58.7557L353.064 41.3788C352.953 41.1934 352.711 41.1284 352.522 41.2336L334.836 51.0875C334.082 51.5076 333.111 51.2475 332.668 50.5067L318.029 26.0225C317.586 25.2815 317.838 24.3403 318.592 23.9201L324.119 20.8409C324.873 20.4209 325.843 20.6809 326.287 21.4218L336.677 38.7989C336.787 38.9842 337.03 39.0492 337.218 38.9441L354.904 29.0899C355.658 28.6698 356.629 28.9299 357.072 29.6707L367.462 47.0479C367.573 47.2332 367.816 47.2982 368.004 47.1931L385.69 37.3394C386.445 36.9192 387.415 37.1792 387.858 37.9202Z"
      fill="#3396FF" />
  </g>
  <path
    d="M74.726 23.004L72.318 33H70.19L68.832 27.26C68.804 27.12 68.7667 26.9473 68.72 26.742C68.6827 26.5367 68.6407 26.3267 68.594 26.112C68.5473 25.888 68.51 25.6827 68.482 25.496C68.454 25.3 68.4307 25.1553 68.412 25.062C68.4027 25.1553 68.3793 25.3 68.342 25.496C68.314 25.6827 68.2767 25.888 68.23 26.112C68.1927 26.3267 68.1507 26.5413 68.104 26.756C68.0667 26.9613 68.0293 27.1387 67.992 27.288L66.648 33H64.52L62.112 23.004H63.988L65.22 28.702C65.248 28.8887 65.2853 29.094 65.332 29.318C65.3787 29.5327 65.4207 29.7567 65.458 29.99C65.5047 30.214 65.5467 30.438 65.584 30.662C65.6213 30.8767 65.6493 31.068 65.668 31.236C65.696 31.0587 65.7287 30.8627 65.766 30.648C65.8033 30.424 65.8407 30.2 65.878 29.976C65.9247 29.7427 65.9713 29.5187 66.018 29.304C66.0647 29.0893 66.1067 28.9027 66.144 28.744L67.516 23.004H69.308L70.694 28.786C70.7313 28.9447 70.7733 29.1313 70.82 29.346C70.8667 29.5513 70.9087 29.7707 70.946 30.004C70.9927 30.228 71.0347 30.4473 71.072 30.662C71.1093 30.8767 71.142 31.068 71.17 31.236C71.198 31.0027 71.2353 30.7367 71.282 30.438C71.338 30.1393 71.3987 29.836 71.464 29.528C71.5293 29.22 71.5853 28.9447 71.632 28.702L72.864 23.004H74.726ZM78.3644 25.272C79.279 25.272 79.979 25.4867 80.4644 25.916C80.9497 26.336 81.1924 26.9987 81.1924 27.904V33H79.8904L79.5264 31.95H79.4704C79.265 32.2207 79.055 32.4493 78.8404 32.636C78.6257 32.8133 78.3784 32.9393 78.0984 33.014C77.8184 33.098 77.4824 33.14 77.0904 33.14C76.6704 33.14 76.2924 33.056 75.9564 32.888C75.6204 32.72 75.3544 32.4633 75.1584 32.118C74.9624 31.7633 74.8644 31.32 74.8644 30.788C74.8644 30.004 75.135 29.416 75.6764 29.024C76.2177 28.6227 77.0297 28.4033 78.1124 28.366L79.3304 28.324V27.946C79.3304 27.4607 79.2277 27.1153 79.0224 26.91C78.817 26.7047 78.537 26.602 78.1824 26.602C77.8464 26.602 77.5057 26.658 77.1604 26.77C76.8244 26.882 76.493 27.0127 76.1664 27.162L75.5924 25.93C75.975 25.734 76.3997 25.5753 76.8664 25.454C77.333 25.3327 77.8324 25.272 78.3644 25.272ZM78.5464 29.444C77.8837 29.472 77.4217 29.6073 77.1604 29.85C76.899 30.0833 76.7684 30.4007 76.7684 30.802C76.7684 31.1567 76.857 31.4133 77.0344 31.572C77.221 31.7307 77.4637 31.81 77.7624 31.81C78.201 31.81 78.5744 31.6653 78.8824 31.376C79.1904 31.0773 79.3444 30.6387 79.3444 30.06V29.416L78.5464 29.444ZM85.0223 33H83.1603V22.36H85.0223V33ZM88.9052 33H87.0432V22.36H88.9052V33ZM93.908 25.272C94.5613 25.272 95.1213 25.412 95.588 25.692C96.064 25.9627 96.4326 26.3547 96.694 26.868C96.9553 27.372 97.086 27.988 97.086 28.716V29.612H92.438C92.4566 30.3027 92.6246 30.8393 92.942 31.222C93.2686 31.5953 93.726 31.782 94.314 31.782C94.7806 31.782 95.196 31.7353 95.56 31.642C95.924 31.5393 96.302 31.3947 96.694 31.208V32.622C96.3393 32.7993 95.9706 32.93 95.588 33.014C95.2053 33.098 94.734 33.14 94.174 33.14C93.4646 33.14 92.8346 33 92.284 32.72C91.7426 32.4307 91.318 31.9967 91.01 31.418C90.702 30.8393 90.548 30.1207 90.548 29.262C90.548 28.394 90.688 27.666 90.968 27.078C91.248 26.4807 91.64 26.0327 92.144 25.734C92.6573 25.426 93.2453 25.272 93.908 25.272ZM93.936 26.574C93.516 26.574 93.1753 26.728 92.914 27.036C92.662 27.3347 92.5126 27.7827 92.466 28.38H95.322C95.322 28.0253 95.2706 27.7127 95.168 27.442C95.0653 27.1713 94.9113 26.9613 94.706 26.812C94.51 26.6533 94.2533 26.574 93.936 26.574ZM101.646 31.726C101.851 31.726 102.047 31.7073 102.234 31.67C102.43 31.6233 102.612 31.572 102.78 31.516V32.832C102.584 32.916 102.346 32.986 102.066 33.042C101.786 33.1073 101.473 33.14 101.128 33.14C100.699 33.14 100.316 33.07 99.9799 32.93C99.6439 32.7807 99.3779 32.5287 99.1819 32.174C98.9953 31.8193 98.9019 31.3247 98.9019 30.69V26.742H97.9499V25.972L99.0139 25.356L99.5739 23.746H100.75V25.412H102.71V26.742H100.75V30.676C100.75 31.0307 100.829 31.2967 100.988 31.474C101.156 31.642 101.375 31.726 101.646 31.726ZM108.374 24.376C107.982 24.376 107.628 24.46 107.31 24.628C106.993 24.796 106.722 25.0387 106.498 25.356C106.284 25.6733 106.12 26.056 106.008 26.504C105.896 26.952 105.84 27.456 105.84 28.016C105.84 28.772 105.934 29.4207 106.12 29.962C106.307 30.494 106.592 30.9047 106.974 31.194C107.357 31.4833 107.838 31.628 108.416 31.628C108.818 31.628 109.21 31.586 109.592 31.502C109.975 31.4087 110.362 31.2873 110.754 31.138V32.664C110.372 32.832 109.975 32.9533 109.564 33.028C109.163 33.1027 108.71 33.14 108.206 33.14C107.226 33.14 106.419 32.93 105.784 32.51C105.15 32.0807 104.674 31.4833 104.356 30.718C104.048 29.9433 103.894 29.038 103.894 28.002C103.894 27.246 103.992 26.5553 104.188 25.93C104.384 25.3047 104.674 24.7633 105.056 24.306C105.439 23.8487 105.91 23.494 106.47 23.242C107.03 22.99 107.67 22.864 108.388 22.864C108.864 22.864 109.345 22.9247 109.83 23.046C110.325 23.158 110.759 23.3167 111.132 23.522L110.502 24.992C110.176 24.8333 109.835 24.6933 109.48 24.572C109.135 24.4413 108.766 24.376 108.374 24.376ZM119.079 29.192C119.079 29.8267 119 30.3867 118.841 30.872C118.682 31.3573 118.449 31.7727 118.141 32.118C117.842 32.454 117.478 32.7107 117.049 32.888C116.62 33.056 116.139 33.14 115.607 33.14C115.112 33.14 114.65 33.056 114.221 32.888C113.801 32.7107 113.437 32.454 113.129 32.118C112.83 31.7727 112.597 31.3573 112.429 30.872C112.261 30.3867 112.177 29.8267 112.177 29.192C112.177 28.352 112.312 27.6427 112.583 27.064C112.863 26.476 113.264 26.0327 113.787 25.734C114.31 25.426 114.93 25.272 115.649 25.272C116.321 25.272 116.914 25.426 117.427 25.734C117.94 26.0327 118.342 26.476 118.631 27.064C118.93 27.6427 119.079 28.352 119.079 29.192ZM114.067 29.192C114.067 29.724 114.123 30.1813 114.235 30.564C114.347 30.9373 114.515 31.222 114.739 31.418C114.972 31.614 115.271 31.712 115.635 31.712C115.999 31.712 116.293 31.614 116.517 31.418C116.75 31.222 116.918 30.9373 117.021 30.564C117.133 30.1813 117.189 29.724 117.189 29.192C117.189 28.6507 117.133 28.198 117.021 27.834C116.909 27.4607 116.736 27.1807 116.503 26.994C116.279 26.798 115.985 26.7 115.621 26.7C115.07 26.7 114.674 26.9147 114.431 27.344C114.188 27.7733 114.067 28.3893 114.067 29.192ZM124.693 25.272C125.487 25.272 126.112 25.4913 126.569 25.93C127.027 26.3687 127.255 27.078 127.255 28.058V33H125.393V28.408C125.393 27.8387 125.295 27.414 125.099 27.134C124.903 26.8447 124.595 26.7 124.175 26.7C123.55 26.7 123.125 26.924 122.901 27.372C122.677 27.8107 122.565 28.45 122.565 29.29V33H120.703V25.412H122.131L122.397 26.406H122.467C122.635 26.1447 122.831 25.93 123.055 25.762C123.279 25.594 123.531 25.4727 123.811 25.398C124.091 25.314 124.385 25.272 124.693 25.272ZM133.225 25.272C134.018 25.272 134.643 25.4913 135.101 25.93C135.558 26.3687 135.787 27.078 135.787 28.058V33H133.925V28.408C133.925 27.8387 133.827 27.414 133.631 27.134C133.435 26.8447 133.127 26.7 132.707 26.7C132.081 26.7 131.657 26.924 131.433 27.372C131.209 27.8107 131.097 28.45 131.097 29.29V33H129.235V25.412H130.663L130.929 26.406H130.999C131.167 26.1447 131.363 25.93 131.587 25.762C131.811 25.594 132.063 25.4727 132.343 25.398C132.623 25.314 132.917 25.272 133.225 25.272ZM140.748 25.272C141.401 25.272 141.961 25.412 142.428 25.692C142.904 25.9627 143.272 26.3547 143.534 26.868C143.795 27.372 143.926 27.988 143.926 28.716V29.612H139.278C139.296 30.3027 139.464 30.8393 139.782 31.222C140.108 31.5953 140.566 31.782 141.154 31.782C141.62 31.782 142.036 31.7353 142.4 31.642C142.764 31.5393 143.142 31.3947 143.534 31.208V32.622C143.179 32.7993 142.81 32.93 142.428 33.014C142.045 33.098 141.574 33.14 141.014 33.14C140.304 33.14 139.674 33 139.124 32.72C138.582 32.4307 138.158 31.9967 137.85 31.418C137.542 30.8393 137.388 30.1207 137.388 29.262C137.388 28.394 137.528 27.666 137.808 27.078C138.088 26.4807 138.48 26.0327 138.984 25.734C139.497 25.426 140.085 25.272 140.748 25.272ZM140.776 26.574C140.356 26.574 140.015 26.728 139.754 27.036C139.502 27.3347 139.352 27.7827 139.306 28.38H142.162C142.162 28.0253 142.11 27.7127 142.008 27.442C141.905 27.1713 141.751 26.9613 141.546 26.812C141.35 26.6533 141.093 26.574 140.776 26.574ZM148.542 33.14C147.842 33.14 147.235 33.0047 146.722 32.734C146.218 32.454 145.826 32.0293 145.546 31.46C145.275 30.8813 145.14 30.144 145.14 29.248C145.14 28.3147 145.289 27.5587 145.588 26.98C145.896 26.392 146.316 25.9627 146.848 25.692C147.389 25.412 148 25.272 148.682 25.272C149.111 25.272 149.512 25.3187 149.886 25.412C150.268 25.5053 150.586 25.6173 150.838 25.748L150.278 27.106C150.026 27.0033 149.774 26.9147 149.522 26.84C149.27 26.7653 149.018 26.728 148.766 26.728C148.383 26.728 148.066 26.8213 147.814 27.008C147.562 27.1947 147.366 27.4747 147.226 27.848C147.095 28.212 147.03 28.674 147.03 29.234C147.03 29.7753 147.095 30.228 147.226 30.592C147.366 30.956 147.562 31.2313 147.814 31.418C148.066 31.5953 148.374 31.684 148.738 31.684C149.102 31.684 149.438 31.6327 149.746 31.53C150.063 31.4273 150.362 31.2873 150.642 31.11V32.636C150.352 32.8133 150.044 32.9393 149.718 33.014C149.391 33.098 148.999 33.14 148.542 33.14ZM155.212 31.726C155.418 31.726 155.614 31.7073 155.8 31.67C155.996 31.6233 156.178 31.572 156.346 31.516V32.832C156.15 32.916 155.912 32.986 155.632 33.042C155.352 33.1073 155.04 33.14 154.694 33.14C154.265 33.14 153.882 33.07 153.546 32.93C153.21 32.7807 152.944 32.5287 152.748 32.174C152.562 31.8193 152.468 31.3247 152.468 30.69V26.742H151.516V25.972L152.58 25.356L153.14 23.746H154.316V25.412H156.276V26.742H154.316V30.676C154.316 31.0307 154.396 31.2967 154.554 31.474C154.722 31.642 154.942 31.726 155.212 31.726Z"
    fill="white" />
  <path
    d="M23.7322 23.3215C28.2984 18.8928 35.7016 18.8928 40.2679 23.3215L40.8174 23.8545C41.0457 24.0759 41.0457 24.4349 40.8174 24.6564L38.9375 26.4797C38.8233 26.5904 38.6382 26.5904 38.5241 26.4797L37.7678 25.7462C34.5823 22.6566 29.4176 22.6566 26.2321 25.7462L25.4223 26.5317C25.3081 26.6424 25.1231 26.6424 25.0089 26.5317L23.129 24.7084C22.9007 24.4869 22.9007 24.128 23.129 23.9065L23.7322 23.3215ZM44.1556 27.0923L45.8288 28.7149C46.0571 28.9364 46.0571 29.2954 45.8288 29.5168L38.2846 36.834C38.0563 37.0553 37.6861 37.0553 37.4578 36.834L32.1034 31.6408C32.0463 31.5854 31.9538 31.5854 31.8967 31.6408L26.5424 36.834C26.3141 37.0553 25.9439 37.0553 25.7156 36.834L18.1712 29.5168C17.9429 29.2953 17.9429 28.9363 18.1712 28.7149L19.8443 27.0921C20.0727 26.8707 20.4428 26.8707 20.6711 27.0921L26.0256 32.2853C26.0827 32.3407 26.1752 32.3407 26.2323 32.2853L31.5865 27.0921C31.8148 26.8707 32.185 26.8707 32.4133 27.0921L37.7678 32.2853C37.8249 32.3407 37.9174 32.3407 37.9745 32.2853L43.3288 27.0923C43.5572 26.8708 43.9273 26.8708 44.1556 27.0923Z"
    fill="#3396FF" />
  <defs>
    <filter id="filter0_f_8544_20665" x="253" y="-27" width="114" height="115" filterUnits="userSpaceOnUse"
      color-interpolation-filters="sRGB">
      <feFlood flood-opacity="0" result="BackgroundImageFix" />
      <feBlend mode="normal" in="SourceGraphic" in2="BackgroundImageFix" result="shape" />
      <feGaussianBlur stdDeviation="22" result="effect1_foregroundBlur_8544_20665" />
    </filter>
    <linearGradient id="paint0_linear_8544_20665" x1="-228" y1="-64.4999" x2="99" y2="17.5001"
      gradientUnits="userSpaceOnUse">
      <stop stop-color="#3396FF" />
      <stop offset="1" stop-color="#242431" />
    </linearGradient>
  </defs>
</svg>