<svg width="408" height="53" viewBox="0 0 408 53" fill="none" xmlns="http://www.w3.org/2000/svg">
<g clip-path="url(#clip0_850_15845)">
<path d="M280.1 -46.1899C278.367 -44.3232 279.167 -41.7899 281.7 -40.9899C283.167 -40.5899 284.367 -39.1232 284.234 -37.9232C284.234 -32.7232 286.1 -16.7232 287.167 -12.3232C287.834 -9.78987 289.167 0.0767956 289.967 9.6768C290.9 19.1435 291.7 27.2768 291.967 27.5435C292.1 27.6768 293.034 27.5435 293.834 27.0101C294.767 26.4768 294.9 25.5435 293.967 24.6101C293.3 23.6768 292.1 15.8101 291.3 7.01013C290.367 -1.78987 289.434 -10.7232 288.9 -12.8565C288.234 -16.1899 288.5 -16.4565 290.767 -15.7899C293.167 -14.9899 293.567 -15.6565 294.1 -19.6565C294.5 -22.9899 294.1 -24.3232 292.767 -24.3232C291.567 -24.3232 291.3 -23.3899 291.834 -21.6565C292.5 -19.7899 292.1 -18.9899 290.634 -18.9899C289.434 -18.9899 288.5 -20.0565 288.367 -21.3899C287.967 -26.8565 287.167 -32.0565 285.567 -38.8565C283.967 -45.7899 282.1 -48.1899 280.1 -46.1899Z" fill="white" fill-opacity="0.5"/>
<path d="M244.5 -27.9232C244.5 -26.9899 249.7 -4.72321 250.633 -1.25655C251.033 0.0767881 251.7 1.01012 251.967 0.743455C252.5 0.0767881 246.1 -27.1232 245.167 -28.1899C244.767 -28.4565 244.5 -28.4565 244.5 -27.9232Z" fill="white" fill-opacity="0.5"/>
<path d="M103.434 1.0102C103.434 3.54353 103.7 4.6102 104.1 3.27687C104.367 2.07687 104.367 -0.0564668 104.1 -1.3898C103.7 -2.5898 103.434 -1.52313 103.434 1.0102Z" fill="white" fill-opacity="0.5"/>
<path d="M392.234 -0.0565019C392.9 0.610165 394.367 1.01016 395.3 0.743498C396.367 0.343498 395.7 -0.189835 393.967 -0.723168C391.7 -1.2565 391.167 -1.12317 392.234 -0.0565019Z" fill="white" fill-opacity="0.5"/>
<path d="M387.567 1.94344C384.767 3.01011 385.567 4.34344 389.167 4.47677C391.167 4.61011 392.367 4.07677 392.1 3.27677C391.567 1.54344 389.7 1.01011 387.567 1.94344Z" fill="white" fill-opacity="0.5"/>
<path d="M47.4333 5.01021C47.4333 6.87688 47.7 7.54354 48.1 6.61021C48.3667 5.81021 48.3667 4.21021 48.1 3.27688C47.7 2.47688 47.4333 3.14354 47.4333 5.01021Z" fill="white" fill-opacity="0.5"/>
<path d="M252.633 4.07684C252.767 5.01017 253.3 7.14351 253.967 9.01017L255.167 12.3435L254.633 8.74351C254.367 6.74351 254.9 4.87684 255.567 4.61017C256.367 4.34351 255.967 3.81017 254.767 3.27684C253.433 2.74351 252.5 3.01017 252.633 4.07684Z" fill="white" fill-opacity="0.5"/>
<path d="M362.233 11.6769C362.233 17.1435 362.5 19.4102 362.767 16.6102C363.033 13.9435 363.033 9.41021 362.767 6.61021C362.5 3.94355 362.233 6.21021 362.233 11.6769Z" fill="white" fill-opacity="0.5"/>
<path d="M377.967 7.1435C377.967 8.61017 378.367 9.01017 378.767 7.9435C379.167 7.01017 379.033 5.81017 378.633 5.41017C378.233 4.87683 377.833 5.67683 377.967 7.1435Z" fill="white" fill-opacity="0.5"/>
<path d="M168.5 8.34351C168.5 9.41017 169.033 10.3435 169.833 10.3435C170.5 10.3435 170.767 9.41017 170.367 8.34351C169.833 7.27684 169.3 6.34351 169.033 6.34351C168.767 6.34351 168.5 7.27684 168.5 8.34351Z" fill="white" fill-opacity="0.5"/>
<path d="M46.1001 13.0102C46.1001 14.8769 46.3668 15.5435 46.7668 14.6102C47.0334 13.8102 47.0334 12.2102 46.7668 11.2769C46.3668 10.4769 46.1001 11.1435 46.1001 13.0102Z" fill="white" fill-opacity="0.5"/>
<path d="M254.767 14.6101C254.367 15.9434 254.5 17.2768 255.167 17.6768C255.967 18.2101 256.5 19.8101 256.633 21.4101C256.633 23.0101 257.033 23.6768 257.3 22.7434C257.7 21.9434 257.433 19.2768 256.767 16.8768C255.967 13.5434 255.433 13.0101 254.767 14.6101Z" fill="white" fill-opacity="0.5"/>
<path d="M315.167 16.8768C314.233 18.8768 314.233 19.6768 315.167 19.6768C316.767 19.6768 318.5 15.9434 317.433 14.8768C317.033 14.4768 316.1 15.4101 315.167 16.8768Z" fill="white" fill-opacity="0.5"/>
<path d="M195.833 18.3434C195.433 19.0101 195.7 19.6768 196.367 19.6768C197.167 19.6768 197.833 19.0101 197.833 18.3434C197.833 17.5434 197.567 17.0101 197.3 17.0101C196.9 17.0101 196.233 17.5434 195.833 18.3434Z" fill="white" fill-opacity="0.5"/>
<path d="M44.6333 21.8101C44.6333 23.2768 45.0333 23.6768 45.4333 22.6101C45.8333 21.6768 45.7 20.4768 45.3 20.0768C44.9 19.5435 44.5 20.3435 44.6333 21.8101Z" fill="white" fill-opacity="0.5"/>
<path d="M53.8334 22.3434C52.1001 23.4101 52.1001 23.6768 54.1001 23.6768C55.3001 23.6768 56.7667 23.0101 57.1667 22.3434C58.2334 20.6101 56.5001 20.6101 53.8334 22.3434Z" fill="white" fill-opacity="0.5"/>
<path d="M257.967 27.1435C257.967 28.6102 258.367 29.0102 258.767 27.9435C259.167 27.0102 259.033 25.8102 258.633 25.4102C258.233 24.8768 257.833 25.6768 257.967 27.1435Z" fill="white" fill-opacity="0.5"/>
<path d="M362.1 29.0102C362.1 31.5435 362.367 32.6102 362.767 31.2769C363.033 30.0769 363.033 27.9435 362.767 26.6102C362.367 25.4102 362.1 26.4769 362.1 29.0102Z" fill="white" fill-opacity="0.5"/>
<path d="M376.5 28.7436C376.5 30.2102 377.433 31.1436 379.167 31.1436C381.567 31.1436 381.567 30.8769 379.567 28.7436C378.367 27.4102 377.167 26.3436 376.9 26.3436C376.767 26.3436 376.5 27.4102 376.5 28.7436Z" fill="white" fill-opacity="0.5"/>
<path d="M43.1666 34.4768C41.5666 40.0768 41.3 40.2102 40.3666 37.0102C39.4333 34.4768 39.4333 34.8768 39.9666 38.6102C40.5 42.7435 39.9666 44.2102 36.5 48.2102C33.4333 51.6768 32.5 53.6768 33.1666 55.6768C33.9666 58.3435 34.1 58.4768 35.9666 56.0768C36.9 54.7435 37.8333 52.7435 37.8333 51.5435C37.8333 48.4768 41.3 45.6768 42.2333 47.9435C42.6333 48.8768 43.0333 47.8102 43.0333 45.4102C43.1666 40.3435 48.9 33.0102 52.6333 33.0102C54.2333 33.0102 54.9 32.4768 54.3666 31.5435C53.9666 30.7435 51.8333 30.3435 49.7 30.6102C47.5666 31.0102 45.7 30.6102 45.4333 29.9435C45.1666 29.1435 44.2333 31.2768 43.1666 34.4768Z" fill="white" fill-opacity="0.5"/>
<path d="M114.633 30.3434C112.367 31.1434 112.233 31.2767 114.233 32.0767C115.433 32.4767 116.767 32.3434 117.3 31.5434C118.5 29.5434 117.567 29.1434 114.633 30.3434Z" fill="white" fill-opacity="0.5"/>
<path d="M293.167 37.6768C294.9 67.9435 297.033 91.1435 298.1 92.3435C298.9 93.1435 299.033 92.3435 298.633 90.3435C298.233 88.4768 297.3 77.1435 296.367 65.0101C295.567 52.8768 294.367 39.6768 293.7 35.6768C292.633 28.6101 292.633 28.6101 293.167 37.6768Z" fill="white" fill-opacity="0.5"/>
<path d="M259.3 32.4768C259.3 33.9434 259.7 34.3434 260.1 33.2768C260.5 32.3434 260.367 31.1434 259.967 30.7434C259.567 30.2101 259.167 31.0101 259.3 32.4768Z" fill="white" fill-opacity="0.5"/>
<path d="M260.767 38.3435C260.767 40.2101 261.034 40.8768 261.434 39.9435C261.7 39.1435 261.7 37.5435 261.434 36.6101C261.034 35.8101 260.767 36.4768 260.767 38.3435Z" fill="white" fill-opacity="0.5"/>
<path d="M231.3 40.4768C231.3 41.9434 231.7 42.3434 232.1 41.2768C232.5 40.3434 232.367 39.1434 231.967 38.7434C231.567 38.2101 231.167 39.0101 231.3 40.4768Z" fill="white" fill-opacity="0.5"/>
<path d="M133.167 43.6768C133.567 44.3435 134.233 45.0101 134.633 45.0101C134.9 45.0101 135.167 44.3435 135.167 43.6768C135.167 42.8768 134.5 42.3435 133.7 42.3435C133.033 42.3435 132.767 42.8768 133.167 43.6768Z" fill="white" fill-opacity="0.5"/>
<path d="M261.967 44.4768C261.967 45.9434 262.367 46.3434 262.767 45.2768C263.167 44.3434 263.033 43.1434 262.633 42.7434C262.233 42.2101 261.833 43.0101 261.967 44.4768Z" fill="white" fill-opacity="0.5"/>
<path d="M362.233 55.6769C362.233 61.1435 362.5 63.4102 362.767 60.6102C363.033 57.9435 363.033 53.4102 362.767 50.6102C362.5 47.9435 362.233 50.2102 362.233 55.6769Z" fill="white" fill-opacity="0.5"/>
<path d="M263.3 49.8101C263.3 51.2768 263.7 51.6768 264.1 50.6101C264.5 49.6768 264.367 48.4768 263.967 48.0768C263.567 47.5435 263.167 48.3435 263.3 49.8101Z" fill="white" fill-opacity="0.5"/>
<path d="M87.9668 50.0769C86.5001 50.3435 84.5001 51.4102 83.4335 52.4769C82.5001 53.5435 80.6335 54.3435 79.4335 54.3435C78.2335 54.4769 80.5001 55.8102 84.5001 57.6769C88.5001 59.4102 91.9668 60.7435 91.9668 60.6102C92.1001 60.4769 91.8335 57.9435 91.3001 55.0102C90.6335 50.6102 89.9668 49.6769 87.9668 50.0769Z" fill="white" fill-opacity="0.5"/>
<path d="M119.167 51.6768C119.167 52.3435 119.833 53.0101 120.633 53.0101C121.3 53.0101 121.567 52.3435 121.167 51.6768C120.767 50.8768 120.1 50.3435 119.7 50.3435C119.433 50.3435 119.167 50.8768 119.167 51.6768Z" fill="white" fill-opacity="0.5"/>
</g>
<defs>
<clipPath id="clip0_850_15845">
<rect y="0.343384" width="408" height="52" rx="26" fill="white"/>
</clipPath>
</defs>
</svg>
