<svg width="166" height="166" viewBox="0 0 166 166" fill="none" xmlns="http://www.w3.org/2000/svg">
    <g clip-path="url(#clip0_54_1678)">
        <path fill-rule="evenodd" clip-rule="evenodd"
              d="M87.8483 111.542C104.44 114.564 122.393 114.896 138.013 108.565C143.696 106.262 148.529 102.823 153.509 99.3473C153.858 99.1041 153.945 98.6209 153.701 98.2694C153.455 97.9186 152.972 97.8322 152.621 98.078C147.737 101.486 143.004 104.87 137.431 107.129C122.033 113.37 104.328 112.991 87.9803 109.992L88.0062 109.737C88.2944 106.967 86.4708 103.659 83.4952 100.534C79.2305 96.0556 72.6581 91.8946 67.3923 90.1318C65.0259 89.3402 62.9077 89.0381 61.3423 89.3425C60.1215 89.5791 59.202 90.1721 58.6545 91.1281C57.4893 93.1662 58.3832 95.6995 60.6642 98.2293C65.4334 103.522 76.1569 109.036 81.3813 110.22C83.0128 110.589 84.6632 110.937 86.3279 111.257C86.2904 111.745 86.2518 112.224 86.1932 112.687C86.0224 114.007 85.6805 115.224 84.6157 116.33C82.9544 118.052 80.6057 119.025 78.0504 119.557C74.0618 120.384 69.5671 120.124 66.195 119.741C47.4156 117.607 35.0797 107.28 26.4775 95.6748C17.792 83.9528 12.8905 70.9232 9.0411 63.5509C8.84385 63.1713 8.37579 63.0263 7.99619 63.2236C7.61659 63.4208 7.46964 63.8895 7.66882 64.2685C11.5425 71.6886 16.4893 84.7978 25.2343 96.5968C34.0626 108.512 46.7422 119.09 66.0192 121.282C69.5317 121.681 74.2116 121.936 78.3647 121.074C81.2396 120.476 83.862 119.343 85.7315 117.404C87.4084 115.664 87.6651 113.722 87.8483 111.542ZM86.4522 109.703L86.4664 109.576C86.7186 107.155 84.9756 104.335 82.3732 101.604C78.2753 97.2997 71.9625 93.2961 66.8995 91.6021C65.1639 91.0202 63.5843 90.7113 62.3071 90.7819C61.2536 90.8414 60.4246 91.1536 60.0008 91.8975C59.5973 92.5983 59.6021 93.3799 59.8815 94.2004C60.2078 95.1643 60.8932 96.1695 61.8138 97.192C66.397 102.277 76.7032 107.571 81.7234 108.709C83.2828 109.061 84.8597 109.394 86.4522 109.703Z"
              fill="black" />
        <path fill-rule="evenodd" clip-rule="evenodd"
              d="M154.63 96.4561C154.67 96.7929 154.584 97.2607 154.487 97.7625C154.256 98.9582 153.809 100.298 153.623 100.938C153.505 101.35 153.744 101.778 154.154 101.897C154.566 102.015 154.995 101.778 155.113 101.366C155.339 100.582 155.933 98.7956 156.114 97.4165C156.211 96.6767 156.176 96.0335 156.002 95.6205C155.707 94.9167 154.988 94.6523 153.863 95.0506C152.533 95.5227 150.262 97.0106 147.913 96.8853C147.486 96.8617 147.12 97.1919 147.099 97.6174C147.076 98.0455 147.403 98.4103 147.831 98.4332C150.072 98.5516 152.268 97.4224 153.778 96.7566C154.065 96.6304 154.419 96.5188 154.63 96.4561Z"
              fill="black" />
    </g>
    <defs>
        <clipPath id="clip0_54_1678">
            <rect width="131.392" height="131.392" fill="white" transform="translate(0 40.8857) rotate(-18.1299)" />
        </clipPath>
    </defs>
</svg>