<svg width="34" height="28" viewBox="0 0 34 28" fill="none" xmlns="http://www.w3.org/2000/svg">
<path d="M28.7824 2.49344C26.6154 1.43636 24.2916 0.657552 21.8619 0.211496C21.8176 0.202888 21.7734 0.224401 21.7506 0.26743C21.4517 0.832526 21.1207 1.56974 20.8889 2.14919C18.2756 1.73326 15.6757 1.73326 13.116 2.14919C12.8841 1.55686 12.541 0.832526 12.2408 0.26743C12.218 0.225837 12.1738 0.204323 12.1296 0.211496C9.70121 0.656126 7.37738 1.43493 5.20899 2.49344C5.19022 2.50204 5.17413 2.5164 5.16345 2.53503C0.755638 9.53574 -0.451846 16.3644 0.140505 23.1084C0.143185 23.1413 0.160607 23.1729 0.184731 23.193C3.09288 25.4634 5.90992 26.8418 8.67465 27.7554C8.71889 27.7698 8.76577 27.7525 8.79393 27.7138C9.44793 26.7643 10.0309 25.7632 10.5308 24.7104C10.5603 24.6488 10.5321 24.5756 10.4718 24.5512C9.5471 24.1783 8.6666 23.7236 7.81962 23.2073C7.75262 23.1657 7.74726 23.0639 7.80889 23.0151C7.98713 22.8731 8.16541 22.7254 8.3356 22.5762C8.36639 22.549 8.4093 22.5432 8.4455 22.5604C14.0098 25.2612 20.0339 25.2612 25.5325 22.5604C25.5687 22.5418 25.6116 22.5475 25.6438 22.5748C25.814 22.7239 25.9922 22.8731 26.1718 23.0151C26.2334 23.0639 26.2294 23.1657 26.1624 23.2073C25.3154 23.7337 24.4349 24.1783 23.5089 24.5498C23.4486 24.5742 23.4218 24.6488 23.4513 24.7104C23.9619 25.7617 24.5448 26.7629 25.1868 27.7124C25.2136 27.7525 25.2618 27.7698 25.3061 27.7554C28.0842 26.8418 30.9012 25.4634 33.8094 23.193C33.8348 23.1729 33.8509 23.1428 33.8536 23.1098C34.5625 15.313 32.6662 8.54037 28.8266 2.53645C28.8173 2.5164 28.8012 2.50204 28.7824 2.49344ZM11.3617 19.002C9.68646 19.002 8.3061 17.3669 8.3061 15.3589C8.3061 13.3509 9.65969 11.7159 11.3617 11.7159C13.0771 11.7159 14.4441 13.3653 14.4172 15.3589C14.4172 17.3669 13.0637 19.002 11.3617 19.002ZM22.6592 19.002C20.984 19.002 19.6037 17.3669 19.6037 15.3589C19.6037 13.3509 20.9572 11.7159 22.6592 11.7159C24.3746 11.7159 25.7416 13.3653 25.7148 15.3589C25.7148 17.3669 24.3746 19.002 22.6592 19.002Z" fill="url(#paint0_linear_1491_49)"/>
<defs>
<linearGradient id="paint0_linear_1491_49" x1="4" y1="5" x2="30" y2="33.5" gradientUnits="userSpaceOnUse">
<stop stop-color="#9247AB"/>
<stop offset="1" stop-color="#C142C0"/>
</linearGradient>
</defs>
</svg>
