<svg width="35" height="33" viewBox="0 0 35 33" fill="none" xmlns="http://www.w3.org/2000/svg">
<path d="M34.9992 16.9493C34.9992 7.58835 27.1645 0 17.4996 0C7.83476 0 0 7.58835 0 16.9493C0 24.3797 4.93614 30.6922 11.805 32.9807C12.2236 32.6879 12.7066 32.3269 12.7066 31.7204C12.7066 30.7878 12.6852 28.3896 12.6852 28.3896C12.0744 28.4763 11.4578 28.5177 10.8405 28.5134C8.10878 28.5134 7.24309 26.835 6.8336 25.895C6.29781 24.671 5.60894 24.0965 4.86802 23.6369C4.41566 23.3552 4.31157 23.0223 4.83511 22.9274C7.25305 22.4885 7.87073 25.5681 9.48575 26.0596C10.6385 26.4095 12.1203 26.2583 12.8574 25.7986C12.9546 24.8586 13.6588 24.0446 14.2451 23.6161C10.1379 23.2366 7.70311 21.8621 6.43788 19.6537L6.3024 19.4061L5.98552 18.7047L5.89138 18.4534C5.49642 17.3325 5.32115 16.0485 5.32115 14.614C5.32115 12.0683 6.14473 11.1075 7.25075 9.7501C6.40497 6.84775 7.55691 4.86393 7.55691 4.86393C7.55691 4.86393 9.33497 4.50883 12.6951 6.827C14.516 6.07528 19.3726 6.01152 21.6703 6.65946C23.0795 5.76169 25.6589 4.48807 26.6999 4.84466C26.9815 5.2813 27.5885 6.55567 27.0688 9.35348C27.4217 9.96731 29.2579 11.275 29.2648 14.9706C29.2357 16.3339 29.088 17.4852 28.8147 18.4586L28.6616 18.9561C28.6616 18.9561 28.5751 19.1911 28.4802 19.4149L28.3685 19.6618C27.1499 22.2395 24.6509 23.2017 20.6126 23.602C21.9214 24.3953 22.2965 25.3909 22.2965 28.0849C22.2965 30.7789 22.2597 31.1407 22.2681 31.7605C22.2758 32.3083 22.7274 32.702 23.1346 33C30.0363 30.7271 34.9992 24.3997 34.9992 16.9493Z" fill="url(#paint0_linear_1491_53)"/>
<defs>
<linearGradient id="paint0_linear_1491_53" x1="0" y1="0" x2="31.5" y2="36.5" gradientUnits="userSpaceOnUse">
<stop stop-color="#519297"/>
<stop offset="1" stop-color="#5B4D92"/>
</linearGradient>
</defs>
</svg>
