<svg width="33" height="33" viewBox="0 0 33 33" fill="none" xmlns="http://www.w3.org/2000/svg">
<path fill-rule="evenodd" clip-rule="evenodd" d="M16.5 33C7.3873 33 0 25.6127 0 16.5C0 7.3873 7.3873 0 16.5 0C25.6127 0 33 7.3873 33 16.5C33 25.6127 25.6127 33 16.5 33ZM17.2135 12.3826C15.7357 12.9973 12.7822 14.2695 8.35304 16.1992C7.63381 16.4851 7.25705 16.765 7.22275 17.0386C7.16478 17.501 7.74387 17.6831 8.53241 17.931C8.63963 17.9647 8.75072 17.9996 8.8646 18.0367C9.64035 18.2888 10.6839 18.5838 11.2264 18.5956C11.7184 18.6062 12.2676 18.4034 12.874 17.987C17.0123 15.1935 19.1486 13.7815 19.2826 13.7511C19.3773 13.7296 19.5084 13.7026 19.5973 13.7815C19.686 13.8605 19.6774 14.01 19.6679 14.0502C19.6106 14.2947 17.3377 16.4078 16.1615 17.5013C15.7948 17.8422 15.5347 18.0841 15.4815 18.1393C15.3624 18.263 15.241 18.38 15.1243 18.4925C14.4036 19.1872 13.8632 19.7082 15.1542 20.559C15.7751 20.9681 16.2718 21.3064 16.7673 21.6439C17.3079 22.012 17.8472 22.3793 18.5449 22.8366C18.7227 22.9532 18.8926 23.0743 19.058 23.1922C19.6875 23.641 20.2531 24.0441 20.9517 23.9799C21.3577 23.9425 21.7771 23.5608 21.9901 22.4222C22.4934 19.7314 23.4828 13.9014 23.7114 11.499C23.7314 11.2885 23.7063 11.019 23.6861 10.9008C23.6657 10.7825 23.6235 10.614 23.4698 10.4894C23.2877 10.3417 23.0067 10.3105 22.8811 10.3126C22.3095 10.3228 21.4329 10.6276 17.2135 12.3826Z" fill="url(#paint0_linear_12350_3097)"/>
<defs>
<linearGradient id="paint0_linear_12350_3097" x1="16.5" y1="0" x2="16.5" y2="33" gradientUnits="userSpaceOnUse">
<stop stop-color="#0088CC"/>
<stop offset="1" stop-color="#004466"/>
</linearGradient>
</defs>
</svg>
