<svg width="35" height="25" viewBox="0 0 35 25" fill="none" xmlns="http://www.w3.org/2000/svg">
<path d="M27.7309 0H7.26905C3.25446 0 0 3.25446 0 7.26905V17.4978C0 21.5124 3.25446 24.7669 7.26905 24.7669H27.7309C31.7455 24.7669 35 21.5124 35 17.4978V7.26905C35 3.25446 31.7455 0 27.7309 0ZM22.8149 12.8811L13.2442 17.4458C12.9892 17.5674 12.6946 17.3814 12.6946 17.0989V7.68434C12.6946 7.39781 12.997 7.21211 13.2525 7.34163L22.8232 12.1916C23.1078 12.3358 23.1028 12.7438 22.8149 12.8811Z" fill="url(#paint0_linear_12350_3075)"/>
<defs>
<linearGradient id="paint0_linear_12350_3075" x1="3" y1="3.5" x2="30.5" y2="23" gradientUnits="userSpaceOnUse">
<stop stop-color="#F61C0D"/>
<stop offset="1" stop-color="#500C07"/>
</linearGradient>
</defs>
</svg>
