<svg width="162" height="48" viewBox="0 0 162 48" fill="none" xmlns="http://www.w3.org/2000/svg">
<path d="M156.236 48H5.6748C2.5464 48 0 45.4464 0 42.3204V5.6712C0 2.544 2.5464 0 5.6748 0H156.236C159.364 0 162 2.544 162 5.6712V42.3204C162 45.4464 159.364 48 156.236 48Z" fill="#A6A6A6"/>
<path d="M160.838 42.3216C160.838 44.8608 158.782 46.9176 156.238 46.9176H5.67479C3.13199 46.9176 1.06799 44.8608 1.06799 42.3216V5.66999C1.06799 3.13199 3.13199 1.06799 5.67479 1.06799H156.236C158.782 1.06799 160.837 3.13199 160.837 5.66999L160.838 42.3216Z" fill="black"/>
<path d="M36.1535 23.7408C36.1187 19.8732 39.3203 17.9916 39.4667 17.904C37.6535 15.2604 34.8431 14.8992 33.8555 14.8704C31.4951 14.622 29.2055 16.2828 28.0031 16.2828C26.7767 16.2828 24.9251 14.8944 22.9295 14.9352C20.3615 14.9748 17.9591 16.4616 16.6415 18.7704C13.9223 23.478 15.9503 30.396 18.5555 34.2012C19.8587 36.0648 21.3815 38.1456 23.3747 38.0724C25.3247 37.992 26.0531 36.8292 28.4063 36.8292C30.7379 36.8292 31.4219 38.0724 33.4547 38.0256C35.5475 37.992 36.8651 36.1536 38.1227 34.2732C39.6287 32.1372 40.2335 30.0336 40.2575 29.9256C40.2083 29.9088 36.1931 28.3764 36.1535 23.7408Z" fill="white"/>
<path d="M32.3135 12.3672C33.3623 11.0556 34.0799 9.27119 33.8807 7.46039C32.3627 7.52759 30.4643 8.51039 29.3711 9.79319C28.4039 10.9236 27.5399 12.7764 27.7631 14.5188C29.4683 14.646 31.2191 13.6584 32.3135 12.3672Z" fill="white"/>
<path d="M64.3741 37.8048H61.6489L60.1561 33.114H54.9673L53.5453 37.8048H50.8921L56.0329 21.8352H59.2081L64.3741 37.8048ZM59.7061 31.146L58.3561 26.976C58.2133 26.55 57.9457 25.5468 57.5509 23.9676H57.5029C57.3457 24.6468 57.0925 25.65 56.7445 26.976L55.4185 31.146H59.7061Z" fill="white"/>
<path d="M77.5944 31.9056C77.5944 33.864 77.0652 35.412 76.0068 36.5484C75.0588 37.56 73.8816 38.0652 72.4764 38.0652C70.9596 38.0652 69.87 37.5204 69.2064 36.4308H69.1584V42.4968H66.6V30.0804C66.6 28.8492 66.5676 27.5856 66.5052 26.2896H68.7552L68.898 28.1148H68.946C69.7992 26.7396 71.094 26.0532 72.8316 26.0532C74.19 26.0532 75.324 26.5896 76.2312 27.6636C77.1408 28.7388 77.5944 30.1524 77.5944 31.9056ZM74.988 31.9992C74.988 30.8784 74.736 29.9544 74.2296 29.2272C73.6764 28.4688 72.9336 28.0896 72.0024 28.0896C71.3712 28.0896 70.7976 28.3008 70.2852 28.7172C69.7716 29.1372 69.4356 29.6856 69.2784 30.3648C69.1992 30.6816 69.1596 30.9408 69.1596 31.1448V33.0648C69.1596 33.9024 69.4164 34.6092 69.93 35.1864C70.4436 35.7636 71.1108 36.0516 71.9316 36.0516C72.8952 36.0516 73.6452 35.6796 74.1816 34.938C74.7192 34.1952 74.988 33.216 74.988 31.9992Z" fill="white"/>
<path d="M90.8387 31.9056C90.8387 33.864 90.3095 35.412 89.2499 36.5484C88.3031 37.56 87.1259 38.0652 85.7207 38.0652C84.2039 38.0652 83.1143 37.5204 82.4519 36.4308H82.4039V42.4968H79.8455V30.0804C79.8455 28.8492 79.8131 27.5856 79.7507 26.2896H82.0007L82.1435 28.1148H82.1915C83.0435 26.7396 84.3383 26.0532 86.0771 26.0532C87.4343 26.0532 88.5683 26.5896 89.4779 27.6636C90.3839 28.7388 90.8387 30.1524 90.8387 31.9056ZM88.2323 31.9992C88.2323 30.8784 87.9791 29.9544 87.4727 29.2272C86.9195 28.4688 86.1791 28.0896 85.2467 28.0896C84.6143 28.0896 84.0419 28.3008 83.5283 28.7172C83.0147 29.1372 82.6799 29.6856 82.5227 30.3648C82.4447 30.6816 82.4039 30.9408 82.4039 31.1448V33.0648C82.4039 33.9024 82.6607 34.6092 83.1719 35.1864C83.6855 35.7624 84.3527 36.0516 85.1759 36.0516C86.1395 36.0516 86.8895 35.6796 87.4259 34.938C87.9635 34.1952 88.2323 33.216 88.2323 31.9992Z" fill="white"/>
<path d="M105.647 33.3264C105.647 34.6848 105.175 35.79 104.229 36.6432C103.188 37.5756 101.74 38.0412 99.8786 38.0412C98.1602 38.0412 96.7825 37.71 95.7397 37.0464L96.3326 34.914C97.4558 35.5932 98.6882 35.934 100.031 35.934C100.995 35.934 101.745 35.7156 102.283 35.2812C102.82 34.8468 103.087 34.2636 103.087 33.5364C103.087 32.8884 102.867 32.3424 102.424 31.8996C101.983 31.4568 101.248 31.0452 100.221 30.6648C97.4245 29.622 96.0278 28.0944 96.0278 26.0856C96.0278 24.7728 96.5174 23.6964 97.4978 22.8588C98.4746 22.02 99.7777 21.6012 101.407 21.6012C102.861 21.6012 104.068 21.8544 105.031 22.3596L104.392 24.4452C103.492 23.9556 102.474 23.7108 101.335 23.7108C100.435 23.7108 99.7322 23.9328 99.2282 24.3744C98.8022 24.7692 98.5885 25.2504 98.5885 25.8204C98.5885 26.4516 98.8321 26.9736 99.3217 27.384C99.7477 27.7632 100.522 28.1736 101.645 28.6164C103.019 29.1696 104.028 29.8164 104.677 30.558C105.324 31.2972 105.647 32.2224 105.647 33.3264Z" fill="white"/>
<path d="M114.106 28.2095H111.286V33.8003C111.286 35.2223 111.782 35.9327 112.778 35.9327C113.236 35.9327 113.615 35.8931 113.915 35.8139L113.986 37.7567C113.482 37.9451 112.818 38.0399 111.996 38.0399C110.986 38.0399 110.196 37.7315 109.626 37.1159C109.058 36.4991 108.773 35.4647 108.773 34.0115V28.2071H107.093V26.2871H108.773V24.1787L111.286 23.4203V26.2871H114.106V28.2095Z" fill="white"/>
<path d="M126.829 31.9524C126.829 33.7224 126.323 35.1756 125.312 36.312C124.253 37.482 122.846 38.0652 121.093 38.0652C119.404 38.0652 118.058 37.5048 117.055 36.384C116.052 35.2632 115.55 33.8484 115.55 32.1432C115.55 30.3588 116.066 28.8972 117.102 27.7608C118.135 26.6232 119.53 26.0544 121.283 26.0544C122.972 26.0544 124.332 26.6148 125.358 27.7368C126.34 28.8252 126.829 30.2304 126.829 31.9524ZM124.175 32.0352C124.175 30.9732 123.948 30.0624 123.488 29.3028C122.952 28.3836 122.185 27.9252 121.192 27.9252C120.163 27.9252 119.382 28.3848 118.846 29.3028C118.386 30.0636 118.159 30.9888 118.159 32.0832C118.159 33.1452 118.386 34.056 118.846 34.8144C119.399 35.7336 120.172 36.192 121.169 36.192C122.146 36.192 122.912 35.724 123.466 34.7904C123.937 34.0164 124.175 33.096 124.175 32.0352Z" fill="white"/>
<path d="M135.145 28.5396C134.892 28.4928 134.622 28.4688 134.339 28.4688C133.439 28.4688 132.743 28.8084 132.253 29.4888C131.827 30.0888 131.614 30.8472 131.614 31.7628V37.8048H129.056L129.08 29.916C129.08 28.5888 129.048 27.3804 128.984 26.2908H131.213L131.306 28.494H131.377C131.647 27.7368 132.073 27.1272 132.656 26.67C133.226 26.2584 133.842 26.0532 134.506 26.0532C134.742 26.0532 134.956 26.07 135.145 26.1V28.5396Z" fill="white"/>
<path d="M146.587 31.5024C146.587 31.9608 146.557 32.3472 146.494 32.6628H138.818C138.848 33.8004 139.219 34.6704 139.932 35.2704C140.579 35.8068 141.415 36.0756 142.442 36.0756C143.579 36.0756 144.616 35.8944 145.548 35.5308L145.949 37.3068C144.859 37.782 143.573 38.0184 142.088 38.0184C140.303 38.0184 138.901 37.4928 137.881 36.4428C136.864 35.3928 136.354 33.9828 136.354 32.214C136.354 30.4776 136.828 29.0316 137.777 27.8784C138.77 26.6472 140.113 26.0316 141.803 26.0316C143.462 26.0316 144.719 26.6472 145.572 27.8784C146.248 28.8564 146.587 30.066 146.587 31.5024ZM144.148 30.8388C144.164 30.0804 143.998 29.4252 143.651 28.872C143.208 28.1604 142.528 27.8052 141.612 27.8052C140.776 27.8052 140.095 28.152 139.576 28.848C139.15 29.4012 138.896 30.0648 138.818 30.8376H144.148V30.8388Z" fill="white"/>
<path d="M58.8601 12.0108C58.8601 13.4232 58.4365 14.4864 57.5905 15.2004C56.8069 15.8592 55.6933 16.1892 54.2509 16.1892C53.5357 16.1892 52.9237 16.158 52.4113 16.0956V8.37841C53.0797 8.27041 53.7997 8.21521 54.5773 8.21521C55.9513 8.21521 56.9869 8.51401 57.6853 9.11161C58.4677 9.78721 58.8601 10.7532 58.8601 12.0108ZM57.5341 12.0456C57.5341 11.13 57.2917 10.428 56.8069 9.93841C56.3221 9.45001 55.6141 9.20521 54.6817 9.20521C54.2857 9.20521 53.9485 9.23161 53.6689 9.28681V15.1536C53.8237 15.1776 54.1069 15.1884 54.5185 15.1884C55.4809 15.1884 56.2237 14.9208 56.7469 14.3856C57.2701 13.8504 57.5341 13.0704 57.5341 12.0456Z" fill="white"/>
<path d="M65.8907 13.2445C65.8907 14.1145 65.6423 14.8273 65.1455 15.3865C64.6247 15.9613 63.9347 16.2481 63.0731 16.2481C62.2427 16.2481 61.5815 15.9733 61.0883 15.4213C60.5963 14.8705 60.3503 14.1757 60.3503 13.3381C60.3503 12.4621 60.6035 11.7433 61.1123 11.1853C61.6211 10.6273 62.3051 10.3477 63.1667 10.3477C63.9971 10.3477 64.6643 10.6225 65.1695 11.1733C65.6495 11.7085 65.8907 12.3997 65.8907 13.2445ZM64.5863 13.2853C64.5863 12.7633 64.4735 12.3157 64.2491 11.9425C63.9851 11.4913 63.6095 11.2657 63.1211 11.2657C62.6159 11.2657 62.2319 11.4913 61.9679 11.9425C61.7423 12.3157 61.6307 12.7705 61.6307 13.3081C61.6307 13.8301 61.7435 14.2777 61.9679 14.6509C62.2403 15.1021 62.6195 15.3277 63.1091 15.3277C63.5891 15.3277 63.9659 15.0985 64.2371 14.6389C64.4699 14.2585 64.5863 13.8073 64.5863 13.2853Z" fill="white"/>
<path d="M75.3181 10.4629L73.5481 16.1197H72.3961L71.6629 13.6633C71.4769 13.0501 71.3257 12.4405 71.2081 11.8357H71.1853C71.0761 12.4573 70.9249 13.0657 70.7305 13.6633L69.9517 16.1197H68.7865L67.1221 10.4629H68.4145L69.0541 13.1521C69.2089 13.7881 69.3361 14.3941 69.4381 14.9677H69.4609C69.5545 14.4949 69.7093 13.8925 69.9277 13.1641L70.7305 10.4641H71.7553L72.5245 13.1065C72.7105 13.7509 72.8617 14.3713 72.9781 14.9689H73.0129C73.0981 14.3869 73.2265 13.7665 73.3969 13.1065L74.0833 10.4641H75.3181V10.4629Z" fill="white"/>
<path d="M81.8377 16.1197H80.5801V12.8797C80.5801 11.8813 80.2009 11.3821 79.4401 11.3821C79.0669 11.3821 78.7657 11.5189 78.5317 11.7937C78.3001 12.0685 78.1825 12.3925 78.1825 12.7633V16.1185H76.9249V12.0793C76.9249 11.5825 76.9093 11.0437 76.8793 10.4605H77.9845L78.0433 11.3449H78.0781C78.2245 11.0701 78.4429 10.8433 78.7297 10.6621C79.0705 10.4509 79.4521 10.3441 79.8697 10.3441C80.3977 10.3441 80.8369 10.5145 81.1861 10.8565C81.6205 11.2753 81.8377 11.9005 81.8377 12.7309V16.1197Z" fill="white"/>
<path d="M85.3056 16.1196H84.0492V7.86725H85.3056V16.1196Z" fill="white"/>
<path d="M92.7096 13.2445C92.7096 14.1145 92.4612 14.8273 91.9644 15.3865C91.4436 15.9613 90.7524 16.2481 89.892 16.2481C89.0604 16.2481 88.3992 15.9733 87.9072 15.4213C87.4152 14.8705 87.1692 14.1757 87.1692 13.3381C87.1692 12.4621 87.4224 11.7433 87.9312 11.1853C88.44 10.6273 89.124 10.3477 89.9844 10.3477C90.816 10.3477 91.482 10.6225 91.9884 11.1733C92.4684 11.7085 92.7096 12.3997 92.7096 13.2445ZM91.404 13.2853C91.404 12.7633 91.2912 12.3157 91.0668 11.9425C90.804 11.4913 90.4272 11.2657 89.94 11.2657C89.4336 11.2657 89.0496 11.4913 88.7868 11.9425C88.5612 12.3157 88.4496 12.7705 88.4496 13.3081C88.4496 13.8301 88.5624 14.2777 88.7868 14.6509C89.0592 15.1021 89.4384 15.3277 89.928 15.3277C90.408 15.3277 90.7836 15.0985 91.0548 14.6389C91.2888 14.2585 91.404 13.8073 91.404 13.2853Z" fill="white"/>
<path d="M98.7961 16.1197H97.6669L97.5733 15.4681H97.5385C97.1521 15.9877 96.6013 16.2481 95.8861 16.2481C95.3521 16.2481 94.9201 16.0765 94.5949 15.7357C94.2997 15.4261 94.1521 15.0409 94.1521 14.5837C94.1521 13.8925 94.4401 13.3657 95.0197 13.0009C95.5981 12.6361 96.4117 12.4573 97.4593 12.4657V12.3601C97.4593 11.6149 97.0681 11.2429 96.2845 11.2429C95.7265 11.2429 95.2345 11.3833 94.8097 11.6617L94.5541 10.8361C95.0797 10.5109 95.7289 10.3477 96.4945 10.3477C97.9729 10.3477 98.7145 11.1277 98.7145 12.6877V14.7709C98.7145 15.3361 98.7421 15.7861 98.7961 16.1197ZM97.4905 14.1757V13.3033C96.1033 13.2793 95.4097 13.6597 95.4097 14.4433C95.4097 14.7385 95.4889 14.9593 95.6509 15.1069C95.8129 15.2545 96.0193 15.3277 96.2653 15.3277C96.5413 15.3277 96.7993 15.2401 97.0345 15.0661C97.2709 14.8909 97.4161 14.6689 97.4701 14.3965C97.4833 14.3353 97.4905 14.2609 97.4905 14.1757Z" fill="white"/>
<path d="M105.942 16.1196H104.826L104.767 15.2112H104.732C104.376 15.9024 103.769 16.248 102.916 16.248C102.234 16.248 101.666 15.9804 101.216 15.4452C100.766 14.91 100.542 14.2152 100.542 13.362C100.542 12.4464 100.786 11.7048 101.275 11.1384C101.749 10.6104 102.33 10.3464 103.021 10.3464C103.781 10.3464 104.312 10.602 104.615 11.1144H104.639V7.86725H105.898V14.5956C105.898 15.1464 105.912 15.654 105.942 16.1196ZM104.639 13.734V12.7908C104.639 12.6276 104.627 12.4956 104.604 12.3948C104.533 12.0924 104.381 11.838 104.149 11.6328C103.915 11.4276 103.633 11.3244 103.308 11.3244C102.839 11.3244 102.472 11.5104 102.202 11.8836C101.934 12.2568 101.798 12.7332 101.798 13.3152C101.798 13.8744 101.927 14.328 102.185 14.6772C102.457 15.0492 102.824 15.2352 103.284 15.2352C103.697 15.2352 104.027 15.0804 104.278 14.7696C104.52 14.4828 104.639 14.1372 104.639 13.734Z" fill="white"/>
<path d="M116.698 13.2445C116.698 14.1145 116.449 14.8273 115.952 15.3865C115.432 15.9613 114.743 16.2481 113.88 16.2481C113.051 16.2481 112.39 15.9733 111.895 15.4213C111.403 14.8705 111.157 14.1757 111.157 13.3381C111.157 12.4621 111.41 11.7433 111.919 11.1853C112.428 10.6273 113.112 10.3477 113.975 10.3477C114.804 10.3477 115.472 10.6225 115.976 11.1733C116.456 11.7085 116.698 12.3997 116.698 13.2445ZM115.394 13.2853C115.394 12.7633 115.282 12.3157 115.057 11.9425C114.792 11.4913 114.418 11.2657 113.928 11.2657C113.424 11.2657 113.04 11.4913 112.775 11.9425C112.549 12.3157 112.438 12.7705 112.438 13.3081C112.438 13.8301 112.55 14.2777 112.775 14.6509C113.047 15.1021 113.426 15.3277 113.916 15.3277C114.396 15.3277 114.774 15.0985 115.045 14.6389C115.277 14.2585 115.394 13.8073 115.394 13.2853Z" fill="white"/>
<path d="M123.46 16.1197H122.203V12.8797C122.203 11.8813 121.824 11.3821 121.062 11.3821C120.689 11.3821 120.388 11.5189 120.155 11.7937C119.922 12.0685 119.806 12.3925 119.806 12.7633V16.1185H118.547V12.0793C118.547 11.5825 118.532 11.0437 118.502 10.4605H119.606L119.665 11.3449H119.7C119.848 11.0701 120.066 10.8433 120.352 10.6621C120.694 10.4509 121.074 10.3441 121.493 10.3441C122.02 10.3441 122.459 10.5145 122.808 10.8565C123.244 11.2753 123.46 11.9005 123.46 12.7309V16.1197Z" fill="white"/>
<path d="M131.923 11.4049H130.538V14.1529C130.538 14.8513 130.784 15.2005 131.272 15.2005C131.497 15.2005 131.684 15.1813 131.832 15.1417L131.864 16.0957C131.616 16.1893 131.29 16.2361 130.888 16.2361C130.391 16.2361 130.004 16.0849 129.725 15.7825C129.444 15.4801 129.305 14.9713 129.305 14.2573V11.4049H128.478V10.4629H129.305V9.42608L130.537 9.05408V10.4617H131.922V11.4049H131.923Z" fill="white"/>
<path d="M138.581 16.1196H137.322V12.9036C137.322 11.8896 136.943 11.382 136.183 11.382C135.6 11.382 135.202 11.676 134.983 12.264C134.946 12.3876 134.924 12.5388 134.924 12.7164V16.1184H133.668V7.86725H134.924V11.2764H134.948C135.344 10.656 135.912 10.3464 136.648 10.3464C137.168 10.3464 137.599 10.5168 137.941 10.8588C138.367 11.2848 138.581 11.9184 138.581 12.756V16.1196Z" fill="white"/>
<path d="M145.448 13.0236C145.448 13.2492 145.432 13.4388 145.402 13.5936H141.63C141.647 14.1528 141.827 14.5788 142.176 14.874C142.495 15.138 142.907 15.27 143.411 15.27C143.969 15.27 144.478 15.1812 144.936 15.0024L145.133 15.876C144.596 16.1088 143.965 16.2252 143.234 16.2252C142.358 16.2252 141.668 15.9672 141.169 15.4512C140.668 14.9352 140.419 14.2428 140.419 13.374C140.419 12.5208 140.651 11.8104 141.118 11.244C141.605 10.6392 142.264 10.3368 143.095 10.3368C143.909 10.3368 144.527 10.6392 144.944 11.244C145.282 11.724 145.448 12.318 145.448 13.0236ZM144.248 12.6984C144.258 12.3252 144.175 12.0036 144.005 11.7324C143.786 11.3832 143.454 11.208 143.004 11.208C142.594 11.208 142.259 11.3784 142.003 11.7204C141.794 11.9928 141.671 12.318 141.63 12.6984H144.248Z" fill="white"/>
</svg>
