<svg width="36" height="36" viewBox="0 0 36 36" fill="none" xmlns="http://www.w3.org/2000/svg">
<path d="M7.2 0H0V7.2H7.2V0Z" fill="#F4712F"/>
<path d="M21.6 0.360833C20.4916 0.135429 19.3644 0.0146206 18.2333 0H11.7V7.2H18.1C20.236 7.2 22.3241 7.83341 24.1002 9.02013C25.8762 10.2068 27.2605 11.8936 28.0779 13.867C28.8953 15.8405 29.1092 18.012 28.6925 20.107C28.2758 22.202 27.2472 24.1263 25.7368 25.6368C24.2263 27.1472 22.302 28.1758 20.207 28.5925C18.112 29.0092 15.9405 28.7953 13.967 27.9779C11.9936 27.1605 10.3068 25.7762 9.12013 24.0002C7.93341 22.2241 7.3 20.136 7.3 18V11.7H0.1V18C0.0991257 19.2432 0.226749 20.4831 0.480834 21.7C2.17167 29.7933 9.29833 35.89 17.8667 36H18.2333C28.0667 35.875 36 27.8642 36 18C36 9.29167 29.8158 2.02833 21.6 0.360833Z" fill="#F4712F"/>
<path d="M17.0653 24.2821C16.0768 24.1346 15.137 23.7559 14.3225 23.1767C13.4957 22.5903 12.8215 21.8142 12.3564 20.9135C11.8914 20.0128 11.6492 19.0137 11.65 18V11.6517H18C18.9995 11.6513 19.9849 11.8868 20.8762 12.3391C21.7674 12.7915 22.5393 13.4478 23.1291 14.2547C23.7189 15.0616 24.1098 15.9963 24.2702 16.9829C24.4305 17.9694 24.3558 18.9798 24.0519 19.932C23.7481 20.8842 23.2238 21.7512 22.5217 22.4625C21.8196 23.1738 20.9595 23.7093 20.0113 24.0255C19.0632 24.3417 18.0538 24.4296 17.0653 24.2821Z" fill="#F4712F"/>
</svg>
