<svg width="36" height="36" viewBox="0 0 36 36" fill="none" xmlns="http://www.w3.org/2000/svg">
<path d="M7.2 0H0V7.2H7.2V0Z" fill="#FB8A61"/>
<path d="M21.6 0.360833C20.4915 0.135429 19.3644 0.0146206 18.2333 0H11.7V7.2H18.1C20.236 7.2 22.3241 7.83341 24.1002 9.02013C25.8762 10.2068 27.2605 11.8936 28.0779 13.867C28.8953 15.8405 29.1092 18.012 28.6925 20.107C28.2758 22.202 27.2472 24.1263 25.7367 25.6368C24.2263 27.1472 22.302 28.1758 20.207 28.5925C18.112 29.0092 15.9405 28.7953 13.967 27.9779C11.9936 27.1605 10.3068 25.7762 9.12011 24.0002C7.93339 22.2241 7.29998 20.136 7.29998 18V11.7H0.09998V18C0.0991053 19.2432 0.226729 20.4831 0.480814 21.7C2.17165 29.7933 9.29832 35.89 17.8667 36H18.2333C28.0667 35.875 36 27.8642 36 18C36 9.29167 29.8158 2.02833 21.6 0.360833Z" fill="#FB8A61"/>
<path d="M17.0652 24.2821C16.0767 24.1346 15.1369 23.7559 14.3224 23.1767C13.4955 22.5903 12.8213 21.8142 12.3563 20.9135C11.8913 20.0128 11.6491 19.0137 11.6499 18V11.6517H17.9999C18.9994 11.6513 19.9848 11.8869 20.8761 12.3392C21.7674 12.7915 22.5393 13.4478 23.129 14.2547C23.7188 15.0616 24.1097 15.9964 24.2701 16.9829C24.4305 17.9694 24.3557 18.9798 24.0518 19.932C23.748 20.8842 23.2237 21.7512 22.5216 22.4625C21.8195 23.1738 20.9594 23.7093 20.0112 24.0255C19.0631 24.3417 18.0537 24.4296 17.0652 24.2821Z" fill="#FB8A61"/>
</svg>
