<svg width="127" height="132" viewBox="0 0 127 132" fill="none" xmlns="http://www.w3.org/2000/svg">
<path d="M46.0312 6.9014L48.1233 27.9695L38.6009 37.6066L36.5115 16.5384L46.0312 6.9014Z" fill="url(#paint0_radial_3537_6496)" stroke="#182338"/>
<path d="M48.8189 28.6885L67.2907 31.6625L57.7184 41.35L39.2467 38.376L48.8189 28.6885Z" fill="url(#paint1_radial_3537_6496)" stroke="#182338"/>
<mask id="path-3-inside-1_3537_6496" fill="white">
<path d="M98.0712 91.8214L87.6354 102.386C92.6772 97.2826 95.3309 89.7232 94.4444 80.7905C92.6079 62.2648 76.2526 44.8543 57.8962 41.9021L68.3291 31.3378C86.6797 34.29 103.041 51.7005 104.88 70.2262C105.764 79.156 103.113 86.7183 98.0712 91.8214"/>
</mask>
<path d="M98.0712 91.8214L87.6354 102.386C92.6772 97.2826 95.3309 89.7232 94.4444 80.7905C92.6079 62.2648 76.2526 44.8543 57.8962 41.9021L68.3291 31.3378C86.6797 34.29 103.041 51.7005 104.88 70.2262C105.764 79.156 103.113 86.7183 98.0712 91.8214" fill="url(#paint2_radial_3537_6496)"/>
<path d="M87.6354 102.386L86.924 101.683L88.3468 103.089L87.6354 102.386ZM94.4444 80.7905L93.4492 80.8892L93.4493 80.8893L94.4444 80.7905ZM57.8962 41.9021L57.1847 41.1995L55.8203 42.5811L57.7375 42.8895L57.8962 41.9021ZM68.3291 31.3378L68.4879 30.3505L67.9794 30.2687L67.6176 30.6352L68.3291 31.3378ZM104.88 70.2262L105.875 70.1277L105.875 70.1274L104.88 70.2262ZM97.3597 91.1187L86.924 101.683L88.3469 103.088L98.7826 92.5242L97.3597 91.1187ZM88.3468 103.089C93.6242 97.7469 96.3514 89.8808 95.4395 80.6918L93.4493 80.8893C94.3103 89.5656 91.7301 96.8183 86.9241 101.683L88.3468 103.089ZM95.4395 80.6919C93.5583 61.7157 76.8608 43.9392 58.055 40.9148L57.7375 42.8895C75.6444 45.7693 91.6574 62.8139 93.4492 80.8892L95.4395 80.6919ZM58.6078 42.6048L69.0406 32.0405L67.6176 30.6352L57.1847 41.1995L58.6078 42.6048ZM68.1702 32.3251C86.0715 35.205 102.09 52.2497 103.885 70.325L105.875 70.1274C103.991 51.1513 87.2878 33.3749 68.4879 30.3505L68.1702 32.3251ZM103.885 70.3247C104.743 78.9986 102.166 86.2542 97.3598 91.1186L98.7825 92.5242C104.06 87.1824 106.784 79.3134 105.875 70.1277L103.885 70.3247Z" fill="#182338" mask="url(#path-3-inside-1_3537_6496)"/>
<path d="M49.4675 43.0638L51.2942 61.4848L41.7744 71.1246L39.9451 52.7036L49.4675 43.0638Z" fill="url(#paint3_radial_3537_6496)" stroke="#182338"/>
<path d="M10.9972 0.596854L32.1237 3.99791L34.2393 25.3297L13.1128 21.9287L10.9972 0.596854Z" fill="#F4712F" stroke="#182338"/>
<path d="M12.8282 22.8956L33.7631 26.2658L24.1908 35.9533L3.25596 32.5832L12.8282 22.8956Z" fill="url(#paint4_radial_3537_6496)" stroke="#182338"/>
<path d="M10.0432 1.10861L12.1326 22.1768L2.61017 31.8139L0.520738 10.7457L10.0432 1.10861Z" fill="url(#paint5_radial_3537_6496)" stroke="#182338"/>
<mask id="path-9-inside-2_3537_6496" fill="white">
<path d="M86.873 80.6702L76.4373 91.2345C73.0675 94.6473 68.1038 95.9297 62.8657 95.0934C58.9501 94.4625 54.8786 92.643 51.1999 89.6234C45.673 85.0984 42.0145 78.613 41.3821 72.2246L51.8178 61.6603C52.4473 68.0488 56.103 74.537 61.6356 79.062C65.3144 82.0787 69.3858 83.9011 73.3014 84.532C78.5424 85.3742 83.5032 84.086 86.873 80.6731"/>
</mask>
<path d="M86.873 80.6702L76.4373 91.2345C73.0675 94.6473 68.1038 95.9297 62.8657 95.0934C58.9501 94.4625 54.8786 92.643 51.1999 89.6234C45.673 85.0984 42.0145 78.613 41.3821 72.2246L51.8178 61.6603C52.4473 68.0488 56.103 74.537 61.6356 79.062C65.3144 82.0787 69.3858 83.9011 73.3014 84.532C78.5424 85.3742 83.5032 84.086 86.873 80.6731" fill="url(#paint6_radial_3537_6496)"/>
<path d="M76.4373 91.2345L75.7259 90.5317L75.7257 90.5319L76.4373 91.2345ZM62.8657 95.0934L62.7066 96.0807L62.708 96.0809L62.8657 95.0934ZM51.1999 89.6234L51.8343 88.8505L51.8334 88.8497L51.1999 89.6234ZM41.3821 72.2246L40.6707 71.5218L40.3407 71.8558L40.3869 72.3231L41.3821 72.2246ZM51.8178 61.6603L52.813 61.5622L52.604 59.4414L51.1064 60.9575L51.8178 61.6603ZM61.6356 79.062L62.2697 78.2888L62.2687 78.288L61.6356 79.062ZM73.3014 84.532L73.1423 85.5193L73.1427 85.5193L73.3014 84.532ZM86.1616 79.9674L75.7259 90.5317L77.1487 91.9372L87.5845 81.3729L86.1616 79.9674ZM75.7257 90.5319C72.6291 93.668 68.014 94.9027 63.0233 94.1059L62.708 96.0809C68.1935 96.9567 73.5059 95.6266 77.1489 91.9371L75.7257 90.5319ZM63.0248 94.1061C59.2975 93.5055 55.3875 91.767 51.8343 88.8505L50.5654 90.3964C54.3698 93.5191 58.6027 95.4194 62.7066 96.0807L63.0248 94.1061ZM51.8334 88.8497C46.4867 84.4721 42.9804 78.2196 42.3772 72.1261L40.3869 72.3231C41.0485 79.0065 44.8594 85.7246 50.5664 90.3972L51.8334 88.8497ZM42.0935 72.9273L52.5292 62.363L51.1064 60.9575L40.6707 71.5218L42.0935 72.9273ZM50.8226 61.7583C51.4812 68.4418 55.2891 75.1632 61.0025 79.8361L62.2687 78.288C56.9168 73.9108 53.4134 67.6557 52.813 61.5622L50.8226 61.7583ZM61.0015 79.8353C64.8053 82.9546 69.0381 84.8579 73.1423 85.5193L73.4605 83.5447C69.7336 82.9442 65.8234 81.2029 62.2697 78.2888L61.0015 79.8353ZM73.1427 85.5193C78.6328 86.4016 83.9422 85.0647 87.5846 81.3757L86.1615 79.9705C83.0643 83.1072 78.452 84.3469 73.4601 83.5447L73.1427 85.5193Z" fill="#182338" mask="url(#path-9-inside-2_3537_6496)"/>
<path d="M69.3151 45.5944L69.3151 45.5944C73.284 46.2332 77.2867 48.1017 80.7663 50.9572L80.7663 50.9573C85.3955 54.7557 88.5116 59.7584 89.8109 64.7634C91.1109 69.7708 90.5857 74.7424 87.9965 78.5305L87.9963 78.5307C84.8572 83.1288 79.3382 85.0066 73.3781 84.0472C69.5569 83.4315 65.566 81.6497 61.9498 78.6843L61.9494 78.6839C56.51 74.2328 52.9303 67.8611 52.3125 61.6199L52.3125 61.6197L50.4189 42.5518L69.3151 45.5944Z" fill="#F4712F" stroke="#182338"/>
<path d="M13.9531 37.494L15.7654 55.7683L6.24559 65.4054L4.43068 47.1338L13.9531 37.494Z" fill="url(#paint7_radial_3537_6496)" stroke="#182338"/>
<path d="M77.79 121.363C89.7971 123.092 100.528 120.834 108.919 115.542L104.582 119.935C104.581 119.935 104.581 119.935 104.581 119.935C96.0064 128.615 83.1998 132.996 68.2349 131.039L77.79 121.363Z" fill="url(#paint8_radial_3537_6496)" stroke="#182338"/>
<mask id="path-14-inside-3_3537_6496" fill="white">
<path d="M77.6122 120.832L67.1764 131.394L66.0503 131.212L76.4831 120.65L77.6122 120.832Z"/>
</mask>
<path d="M77.6122 120.832L67.1764 131.394L66.0503 131.212L76.4831 120.65L77.6122 120.832Z" fill="url(#paint9_radial_3537_6496)"/>
<path d="M77.6122 120.832L78.3235 121.535L79.6883 120.154L77.7713 119.845L77.6122 120.832ZM67.1764 131.394L67.017 132.381L67.5256 132.463L67.8878 132.097L67.1764 131.394ZM66.0503 131.212L65.3389 130.509L63.9752 131.889L65.8908 132.199L66.0503 131.212ZM76.4831 120.65L76.6422 119.663L76.1337 119.581L75.7717 119.948L76.4831 120.65ZM76.9008 120.129L66.4651 130.691L67.8878 132.097L78.3235 121.535L76.9008 120.129ZM67.3359 130.406L66.2098 130.225L65.8908 132.199L67.017 132.381L67.3359 130.406ZM66.7617 131.914L77.1945 121.353L75.7717 119.948L65.3389 130.509L66.7617 131.914ZM76.324 121.638L77.4531 121.82L77.7713 119.845L76.6422 119.663L76.324 121.638Z" fill="#182338" mask="url(#path-14-inside-3_3537_6496)"/>
<mask id="path-16-inside-4_3537_6496" fill="white">
<path d="M76.4867 120.65L66.051 131.215C39.6614 126.634 15.859 104.17 8.16651 78.1964C7.02916 74.3877 6.25556 70.4765 5.85645 66.517L16.2922 55.9526C16.6929 59.9119 17.4665 63.823 18.6022 67.6321C26.2976 93.6056 50.1 116.052 76.4896 120.65"/>
</mask>
<path d="M76.4867 120.65L66.051 131.215C39.6614 126.634 15.859 104.17 8.16651 78.1964C7.02916 74.3877 6.25556 70.4765 5.85645 66.517L16.2922 55.9526C16.6929 59.9119 17.4665 63.823 18.6022 67.6321C26.2976 93.6056 50.1 116.052 76.4896 120.65" fill="url(#paint10_radial_3537_6496)"/>
<path d="M66.051 131.215L65.8799 132.2L66.395 132.289L66.7624 131.917L66.051 131.215ZM8.16651 78.1964L9.12534 77.9124L9.1247 77.9102L8.16651 78.1964ZM5.85645 66.517L5.14502 65.8142L4.81429 66.149L4.86149 66.6172L5.85645 66.517ZM16.2922 55.9526L17.2871 55.8519L17.0732 53.739L15.5807 55.2499L16.2922 55.9526ZM18.6022 67.6321L19.561 67.348L19.5605 67.3463L18.6022 67.6321ZM75.7753 119.947L65.3395 130.512L66.7624 131.917L77.1981 121.353L75.7753 119.947ZM66.222 130.229C40.2352 125.718 16.7183 103.55 9.12534 77.9124L7.20768 78.4804C14.9997 104.79 39.0875 127.549 65.8799 132.2L66.222 130.229ZM9.1247 77.9102C8.00548 74.1623 7.24418 70.3133 6.8514 66.4167L4.86149 66.6172C5.26694 70.6397 6.05284 74.6131 7.20832 78.4825L9.1247 77.9102ZM6.56787 67.2197L17.0036 56.6554L15.5807 55.2499L5.14502 65.8142L6.56787 67.2197ZM15.2972 56.0533C15.7043 60.0752 16.4901 64.0482 17.6439 67.9178L19.5605 67.3463C18.4428 63.5977 17.6815 59.7486 17.2871 55.8519L15.2972 56.0533ZM17.6434 67.9161C25.4385 94.2262 49.5264 116.967 76.3179 121.635L76.6612 119.665C50.6736 115.137 27.1567 92.985 19.561 67.348L17.6434 67.9161Z" fill="#182338" mask="url(#path-16-inside-4_3537_6496)"/>
<path d="M49.1038 27.7101L46.9882 6.37827L66.4345 9.51908C66.4356 9.51928 66.4368 9.51948 66.438 9.51969C69.9689 10.1419 73.4417 11.0669 76.8191 12.2848L76.8199 12.2851C102.438 21.4746 123.559 46.9385 126.221 73.7824L126.684 73.7365L126.221 73.7824C127.728 88.9671 123.044 101.705 114.289 110.093C105.534 118.479 92.6597 122.564 77.6893 120.344C77.6881 120.344 77.687 120.344 77.6858 120.344L76.5718 120.164C76.5709 120.163 76.5699 120.163 76.5689 120.163C50.3818 115.613 26.7236 93.3005 19.0783 67.496L19.0781 67.4952C17.9514 63.7164 17.1839 59.8365 16.7863 55.9087C16.7863 55.9085 16.7863 55.9084 16.7863 55.9083L14.91 36.988L36.0366 40.3891L37.939 59.5705C39.7979 78.3214 56.3243 95.9149 74.9053 98.9032C84.2162 100.401 92.3115 97.9522 97.8477 92.7303C103.384 87.5086 106.309 79.5627 105.377 70.1682C103.519 51.4202 86.9922 33.8237 68.4082 30.8354L49.1038 27.7101Z" fill="#F4712F" stroke="#182338"/>
<defs>
<radialGradient id="paint0_radial_3537_6496" cx="0" cy="0" r="1" gradientUnits="userSpaceOnUse" gradientTransform="translate(39.4252 16.1398) rotate(78.0982) scale(29.8006 14.2643)">
<stop stop-color="#CC6C4D"/>
<stop offset="0.427083" stop-color="#1B0724"/>
<stop offset="0.699054" stop-color="#2F1A51"/>
<stop offset="1" stop-color="#A3482B"/>
</radialGradient>
<radialGradient id="paint1_radial_3537_6496" cx="0" cy="0" r="1" gradientUnits="userSpaceOnUse" gradientTransform="translate(46.384 32.4693) rotate(39.7359) scale(19.0246 22.1825)">
<stop stop-color="#CC6C4D"/>
<stop offset="0.427083" stop-color="#1B0724"/>
<stop offset="0.699054" stop-color="#2F1A51"/>
<stop offset="1" stop-color="#A3482B"/>
</radialGradient>
<radialGradient id="paint2_radial_3537_6496" cx="0" cy="0" r="1" gradientUnits="userSpaceOnUse" gradientTransform="translate(70.6946 53.6672) rotate(70.0013) scale(66.9662 51.0468)">
<stop stop-color="#CC6C4D"/>
<stop offset="0.427083" stop-color="#1B0724"/>
<stop offset="0.699054" stop-color="#2F1A51"/>
<stop offset="1" stop-color="#A3482B"/>
</radialGradient>
<radialGradient id="paint3_radial_3537_6496" cx="0" cy="0" r="1" gradientUnits="userSpaceOnUse" gradientTransform="translate(42.7875 51.4711) rotate(77.3517) scale(27.4851 13.9285)">
<stop stop-color="#CC6C4D"/>
<stop offset="0.427083" stop-color="#1B0724"/>
<stop offset="0.699054" stop-color="#2F1A51"/>
<stop offset="1" stop-color="#A3482B"/>
</radialGradient>
<radialGradient id="paint4_radial_3537_6496" cx="0" cy="0" r="1" gradientUnits="userSpaceOnUse" gradientTransform="translate(11.0619 26.8009) rotate(38.3301) scale(20.175 23.2811)">
<stop stop-color="#CC6C4D"/>
<stop offset="0.427083" stop-color="#1B0724"/>
<stop offset="0.699054" stop-color="#2F1A51"/>
<stop offset="1" stop-color="#A3482B"/>
</radialGradient>
<radialGradient id="paint5_radial_3537_6496" cx="0" cy="0" r="1" gradientUnits="userSpaceOnUse" gradientTransform="translate(3.43449 10.3471) rotate(78.0982) scale(29.8006 14.2643)">
<stop stop-color="#CC6C4D"/>
<stop offset="0.427083" stop-color="#1B0724"/>
<stop offset="0.699054" stop-color="#2F1A51"/>
<stop offset="1" stop-color="#A3482B"/>
</radialGradient>
<radialGradient id="paint6_radial_3537_6496" cx="0" cy="0" r="1" gradientUnits="userSpaceOnUse" gradientTransform="translate(53.7296 72.2456) rotate(53.4733) scale(37.1232 42.1147)">
<stop stop-color="#CC6C4D"/>
<stop offset="0.427083" stop-color="#1B0724"/>
<stop offset="0.699054" stop-color="#2F1A51"/>
<stop offset="1" stop-color="#A3482B"/>
</radialGradient>
<radialGradient id="paint7_radial_3537_6496" cx="0" cy="0" r="1" gradientUnits="userSpaceOnUse" gradientTransform="translate(7.26916 45.8543) rotate(77.3052) scale(27.3542 13.9097)">
<stop stop-color="#CC6C4D"/>
<stop offset="0.427083" stop-color="#1B0724"/>
<stop offset="0.699054" stop-color="#2F1A51"/>
<stop offset="1" stop-color="#A3482B"/>
</radialGradient>
<radialGradient id="paint8_radial_3537_6496" cx="0" cy="0" r="1" gradientUnits="userSpaceOnUse" gradientTransform="translate(80.2596 116.724) rotate(40.1306) scale(30.6143 35.784)">
<stop stop-color="#CC6C4D"/>
<stop offset="0.427083" stop-color="#1B0724"/>
<stop offset="0.699054" stop-color="#2F1A51"/>
<stop offset="1" stop-color="#A3482B"/>
</radialGradient>
<radialGradient id="paint9_radial_3537_6496" cx="0" cy="0" r="1" gradientUnits="userSpaceOnUse" gradientTransform="translate(69.1885 124.027) rotate(59.4522) scale(11.0491 11.4714)">
<stop stop-color="#CC6C4D"/>
<stop offset="0.427083" stop-color="#1B0724"/>
<stop offset="0.699054" stop-color="#2F1A51"/>
<stop offset="1" stop-color="#A3482B"/>
</radialGradient>
<radialGradient id="paint10_radial_3537_6496" cx="0" cy="0" r="1" gradientUnits="userSpaceOnUse" gradientTransform="translate(25.0283 79.6064) rotate(62.7669) scale(74.9709 72.3544)">
<stop stop-color="#CC6C4D"/>
<stop offset="0.427083" stop-color="#1B0724"/>
<stop offset="0.699054" stop-color="#2F1A51"/>
<stop offset="1" stop-color="#A3482B"/>
</radialGradient>
</defs>
</svg>
