<svg width="177" height="187" viewBox="0 0 177 187" fill="none" xmlns="http://www.w3.org/2000/svg">
<g filter="url(#filter0_f_1385_4315)">
<ellipse rx="48.1785" ry="48.0014" transform="matrix(-1 0 0 1 79.1784 107.548)" fill="#F4712F"/>
<path d="M31.4998 107.548C31.4998 133.78 52.8445 155.049 79.1784 155.049C105.512 155.049 126.857 133.78 126.857 107.548C126.857 81.3152 105.512 60.0464 79.1784 60.0464C52.8445 60.0464 31.4998 81.3152 31.4998 107.548Z" stroke="#182338"/>
</g>
<g filter="url(#filter1_f_1385_4315)">
<ellipse rx="14.4596" ry="14.513" transform="matrix(-1 0 0 1 57.9117 45.5157)" fill="#F6851B" fill-opacity="0.61"/>
<path d="M43.952 45.5157C43.952 53.2566 50.2037 59.5287 57.9117 59.5287C65.6197 59.5287 71.8713 53.2566 71.8713 45.5157C71.8713 37.7748 65.6197 31.5027 57.9117 31.5027C50.2037 31.5027 43.952 37.7748 43.952 45.5157Z" stroke="#182338"/>
</g>
<path d="M79.3251 33.0744L81.4916 54.8222L71.6187 64.7823L69.4549 43.0344L79.3251 33.0744Z" fill="#803B19" stroke="#182338"/>
<path d="M82.1867 55.5415L101.318 58.6118L91.3977 68.6195L72.2667 65.5491L82.1867 55.5415Z" fill="#843D1A" stroke="#182338"/>
<mask id="path-7-inside-1_1385_4315" fill="white">
<path d="M133.099 120.604L122.313 131.488C127.524 126.231 130.267 118.442 129.351 109.239C127.453 90.1517 110.548 72.2135 91.5751 69.1719L102.358 58.2875C121.325 61.3291 138.236 79.2672 140.137 98.3543C141.05 107.555 138.31 115.346 133.099 120.604"/>
</mask>
<path d="M133.099 120.604L122.313 131.488C127.524 126.231 130.267 118.442 129.351 109.239C127.453 90.1517 110.548 72.2135 91.5751 69.1719L102.358 58.2875C121.325 61.3291 138.236 79.2672 140.137 98.3543C141.05 107.555 138.31 115.346 133.099 120.604" fill="#7F3B18"/>
<path d="M122.313 131.488L121.603 130.784L123.023 132.192L122.313 131.488ZM129.351 109.239L128.356 109.338L128.356 109.338L129.351 109.239ZM91.5751 69.1719L90.8647 68.4681L89.4945 69.8511L91.4168 70.1593L91.5751 69.1719ZM102.358 58.2875L102.517 57.3001L102.009 57.2188L101.648 57.5837L102.358 58.2875ZM140.137 98.3543L141.132 98.2555L141.132 98.2552L140.137 98.3543ZM132.389 119.9L121.603 130.784L123.023 132.192L133.81 121.308L132.389 119.9ZM123.023 132.192C128.471 126.696 131.288 118.601 130.346 109.14L128.356 109.338C129.246 118.284 126.578 125.765 121.603 130.784L123.023 132.192ZM130.346 109.14C128.403 89.6002 111.154 71.2979 91.7334 68.1845L91.4168 70.1593C109.942 73.1292 126.502 90.7031 128.356 109.338L130.346 109.14ZM92.2855 69.8757L103.069 58.9913L101.648 57.5837L90.8647 68.4681L92.2855 69.8757ZM102.2 59.2749C120.719 62.2447 137.286 79.8188 139.142 98.4534L141.132 98.2552C139.186 78.7157 121.931 60.4134 102.517 57.3001L102.2 59.2749ZM139.142 98.4531C140.03 107.396 137.364 114.881 132.389 119.9L133.81 121.308C139.257 115.812 142.071 107.713 141.132 98.2555L139.142 98.4531Z" fill="#182338" mask="url(#path-7-inside-1_1385_4315)"/>
<path d="M82.8767 70.3326L84.7689 89.3532L74.8987 99.316L73.0038 80.2955L82.8767 70.3326Z" fill="#803B19" stroke="#182338"/>
<path d="M43.0823 26.5966L64.9527 30.1062L67.1425 52.1157L45.2721 48.6061L43.0823 26.5966Z" fill="#F4712F" stroke="#182338"/>
<path d="M44.9872 49.5731L66.664 53.0516L56.7439 63.0592L35.0671 59.5807L44.9872 49.5731Z" fill="#843D1A" stroke="#182338"/>
<path d="M42.1282 27.1061L44.2919 48.8539L34.4189 58.814L32.2552 37.0662L42.1282 27.1061Z" fill="#803B19" stroke="#182338"/>
<mask id="path-13-inside-2_1385_4315" fill="white">
<path d="M121.525 109.115L110.739 119.999C107.256 123.515 102.125 124.837 96.7114 123.975C92.6643 123.325 88.4561 121.45 84.6538 118.339C78.9413 113.677 75.1598 106.995 74.5062 100.413L85.2925 89.5288C85.9431 96.1109 89.7216 102.796 95.44 107.458C99.2423 110.566 103.451 112.444 107.498 113.094C112.915 113.961 118.042 112.634 121.525 109.118"/>
</mask>
<path d="M121.525 109.115L110.739 119.999C107.256 123.515 102.125 124.837 96.7114 123.975C92.6643 123.325 88.4561 121.45 84.6538 118.339C78.9413 113.677 75.1598 106.995 74.5062 100.413L85.2925 89.5288C85.9431 96.1109 89.7216 102.796 95.44 107.458C99.2423 110.566 103.451 112.444 107.498 113.094C112.915 113.961 118.042 112.634 121.525 109.118" fill="#7F3B18"/>
<path d="M110.739 119.999L110.029 119.295L110.028 119.295L110.739 119.999ZM96.7114 123.975L96.5528 124.962L96.5542 124.963L96.7114 123.975ZM84.6538 118.339L85.287 117.565L85.2861 117.565L84.6538 118.339ZM74.5062 100.413L73.7959 99.7093L73.4646 100.044L73.5111 100.512L74.5062 100.413ZM85.2925 89.5288L86.2876 89.4304L86.0785 87.315L84.5822 88.8249L85.2925 89.5288ZM95.44 107.458L96.0729 106.684L96.0719 106.683L95.44 107.458ZM107.498 113.094L107.339 114.081L107.339 114.081L107.498 113.094ZM120.815 108.411L110.029 119.295L111.449 120.703L122.235 109.819L120.815 108.411ZM110.028 119.295C106.819 122.536 102.036 123.81 96.8686 122.987L96.5542 124.963C102.215 125.863 107.693 124.495 111.449 120.703L110.028 119.295ZM96.87 122.988C93.0107 122.368 88.9637 120.574 85.287 117.565L84.0205 119.113C87.9485 122.327 92.318 124.282 96.5528 124.962L96.87 122.988ZM85.2861 117.565C79.7538 113.049 76.1256 106.601 75.5013 100.314L73.5111 100.512C74.1941 107.39 78.1288 114.305 84.0215 119.114L85.2861 117.565ZM75.2165 101.117L86.0028 90.2327L84.5822 88.8249L73.7959 99.7093L75.2165 101.117ZM84.2973 89.6272C84.9772 96.5052 88.9089 103.423 94.8081 108.233L96.0719 106.683C90.5343 102.168 86.909 95.7165 86.2876 89.4304L84.2973 89.6272ZM94.8071 108.232C98.7346 111.443 103.104 113.401 107.339 114.081L107.656 112.106C103.797 111.486 99.7501 109.689 96.0729 106.684L94.8071 108.232ZM107.339 114.081C113.004 114.988 118.48 113.613 122.236 109.822L120.815 108.414C117.604 111.655 112.825 112.934 107.656 112.106L107.339 114.081Z" fill="#182338" mask="url(#path-13-inside-2_1385_4315)"/>
<path d="M103.38 72.9611L103.38 72.9611C107.486 73.6199 111.626 75.5465 115.224 78.4902L115.224 78.4902C120.012 82.4059 123.234 87.5629 124.578 92.7225C125.922 97.8844 125.379 103.011 122.7 106.918L122.7 106.918C119.451 111.662 113.74 113.598 107.574 112.609C103.621 111.974 99.493 110.137 95.7533 107.08L95.7529 107.08C90.1278 102.491 86.4258 95.9227 85.7868 89.4885L85.7868 89.4883L83.8277 69.8229L103.38 72.9611Z" fill="#F4712F" stroke="#182338"/>
<path d="M46.1693 64.5941L48.0465 83.4634L38.1764 93.4235L36.2964 74.5569L46.1693 64.5941Z" fill="#803B19" stroke="#182338"/>
<path d="M112.131 151.025C124.597 152.815 135.732 150.461 144.421 144.957L139.841 149.579C139.841 149.58 139.841 149.58 139.841 149.58C130.968 158.533 117.714 163.048 102.228 161.021L112.131 151.025Z" fill="#7F3B18" stroke="#182338"/>
<mask id="path-18-inside-3_1385_4315" fill="white">
<path d="M111.954 150.494L101.167 161.375L100.003 161.188L110.787 150.306L111.954 150.494Z"/>
</mask>
<path d="M111.954 150.494L101.167 161.375L100.003 161.188L110.787 150.306L111.954 150.494Z" fill="#843D1A"/>
<path d="M111.954 150.494L112.664 151.198L114.034 149.815L112.112 149.507L111.954 150.494ZM101.167 161.375L101.008 162.363L101.516 162.444L101.878 162.079L101.167 161.375ZM100.003 161.188L99.2931 160.484L97.9237 161.866L99.8444 162.175L100.003 161.188ZM110.787 150.306L110.945 149.319L110.438 149.238L110.076 149.603L110.787 150.306ZM111.243 149.79L100.457 160.671L101.878 162.079L112.664 151.198L111.243 149.79ZM101.326 160.388L100.162 160.201L99.8444 162.175L101.008 162.363L101.326 160.388ZM100.714 161.892L111.497 151.01L110.076 149.603L99.2931 160.484L100.714 161.892ZM110.628 151.294L111.795 151.481L112.112 149.507L110.945 149.319L110.628 151.294Z" fill="#182338" mask="url(#path-18-inside-3_1385_4315)"/>
<mask id="path-20-inside-4_1385_4315" fill="white">
<path d="M110.79 150.306L100.004 161.191C72.7276 156.471 48.1258 133.327 40.1749 106.566C38.9993 102.642 38.1998 98.6121 37.7872 94.5326L48.5735 83.6482C48.9877 87.7274 49.7872 91.757 50.9611 95.6816C58.915 122.442 83.5168 145.569 110.793 150.306"/>
</mask>
<path d="M110.79 150.306L100.004 161.191C72.7276 156.471 48.1258 133.327 40.1749 106.566C38.9993 102.642 38.1998 98.6121 37.7872 94.5326L48.5735 83.6482C48.9877 87.7274 49.7872 91.757 50.9611 95.6816C58.915 122.442 83.5168 145.569 110.793 150.306" fill="#7F3B18"/>
<path d="M100.004 161.191L99.8331 162.176L100.347 162.265L100.714 161.895L100.004 161.191ZM40.1749 106.566L41.1335 106.281L41.1328 106.279L40.1749 106.566ZM37.7872 94.5326L37.0769 93.8287L36.7448 94.1639L36.7923 94.6332L37.7872 94.5326ZM48.5735 83.6482L49.5683 83.5472L49.3543 81.4395L47.8632 82.9443L48.5735 83.6482ZM50.9611 95.6816L51.9197 95.3966L51.9192 95.395L50.9611 95.6816ZM110.079 149.602L99.2933 160.487L100.714 161.895L111.5 151.01L110.079 149.602ZM100.174 160.205C73.2995 155.555 48.9841 132.704 41.1335 106.281L39.2163 106.851C47.2674 133.949 72.1556 157.387 99.8331 162.176L100.174 160.205ZM41.1328 106.279C39.9755 102.416 39.1883 98.4484 38.7822 94.432L36.7923 94.6332C37.2112 98.7758 38.0232 102.868 39.2169 106.853L41.1328 106.279ZM38.4975 95.2365L49.2838 84.3521L47.8632 82.9443L37.0769 93.8287L38.4975 95.2365ZM47.5786 83.7492C47.9992 87.8913 48.811 91.983 50.0031 95.9681L51.9192 95.395C50.7634 91.531 49.9762 87.5636 49.5683 83.5472L47.5786 83.7492ZM50.0026 95.9665C58.0568 123.065 82.9452 146.484 110.622 151.292L110.964 149.321C84.0884 144.653 59.7732 121.82 51.9197 95.3966L50.0026 95.9665Z" fill="#182338" mask="url(#path-20-inside-4_1385_4315)"/>
<path d="M80.282 32.5531L82.4718 54.5626L102.437 57.7847L80.282 32.5531ZM80.282 32.5531L100.403 35.7926C100.404 35.7928 100.406 35.793 100.407 35.7932C104.057 36.4344 107.648 37.3877 111.14 38.6429L111.14 38.6432C137.626 48.1134 159.46 74.354 162.212 102.017C163.77 117.665 158.927 130.794 149.874 139.439C140.821 148.084 127.509 152.293 112.03 150.006C112.029 150.006 112.028 150.005 112.027 150.005L110.875 149.82C110.874 149.82 110.873 149.819 110.872 149.819C83.7977 145.13 59.3406 122.136 51.4371 95.5452L51.4369 95.5443C50.2721 91.6502 49.4787 87.6518 49.0677 83.6042C49.0677 83.604 49.0677 83.6039 49.0676 83.6037L47.1264 64.0904L68.9968 67.6L70.9643 87.3742C72.885 106.688 89.9617 124.808 109.158 127.885C118.777 129.427 127.138 126.906 132.856 121.53C138.574 116.154 141.597 107.971 140.634 98.2957C138.714 78.9856 121.637 60.8625 102.438 57.7848L80.282 32.5531Z" fill="#F4712F" stroke="#182338"/>
<g filter="url(#filter2_b_1385_4315)">
<circle cx="159" cy="130" r="18" fill="#4CE6A1" fill-opacity="0.2"/>
<circle cx="159" cy="130" r="17" stroke="#4CE6A1" stroke-width="2"/>
</g>
<path fill-rule="evenodd" clip-rule="evenodd" d="M165.788 126.203C166.071 126.473 166.071 126.911 165.788 127.182L157.844 134.797C157.562 135.068 157.105 135.068 156.823 134.797L153.212 131.336C152.929 131.065 152.929 130.627 153.212 130.357C153.494 130.086 153.951 130.086 154.233 130.357L157.333 133.329L164.767 126.203C165.049 125.932 165.506 125.932 165.788 126.203Z" fill="#4CE6A1"/>
<defs>
<filter id="filter0_f_1385_4315" x="0.155722" y="28.7022" width="158.045" height="157.691" filterUnits="userSpaceOnUse" color-interpolation-filters="sRGB">
<feFlood flood-opacity="0" result="BackgroundImageFix"/>
<feBlend mode="normal" in="SourceGraphic" in2="BackgroundImageFix" result="shape"/>
<feGaussianBlur stdDeviation="15.4221" result="effect1_foregroundBlur_1385_4315"/>
</filter>
<filter id="filter1_f_1385_4315" x="12.6079" y="0.158529" width="90.6076" height="90.7143" filterUnits="userSpaceOnUse" color-interpolation-filters="sRGB">
<feFlood flood-opacity="0" result="BackgroundImageFix"/>
<feBlend mode="normal" in="SourceGraphic" in2="BackgroundImageFix" result="shape"/>
<feGaussianBlur stdDeviation="15.4221" result="effect1_foregroundBlur_1385_4315"/>
</filter>
<filter id="filter2_b_1385_4315" x="133" y="104" width="52" height="52" filterUnits="userSpaceOnUse" color-interpolation-filters="sRGB">
<feFlood flood-opacity="0" result="BackgroundImageFix"/>
<feGaussianBlur in="BackgroundImage" stdDeviation="4"/>
<feComposite in2="SourceAlpha" operator="in" result="effect1_backgroundBlur_1385_4315"/>
<feBlend mode="normal" in="SourceGraphic" in2="effect1_backgroundBlur_1385_4315" result="shape"/>
</filter>
</defs>
</svg>
