<svg width="24" height="24" viewBox="0 0 24 24" fill="none" xmlns="http://www.w3.org/2000/svg">
    <path d="M10.3922 1.60769C11.2801 0.71982 12.7197 0.719779 13.6076 1.60767V1.60767C14.1819 2.18205 15.0191 2.40637 15.8037 2.19614V2.19614C17.0166 1.87115 18.2633 2.59098 18.5883 3.80386V3.80386C18.7985 4.58844 19.4114 5.20131 20.196 5.41154V5.41154C21.4089 5.73653 22.1286 6.98323 21.8036 8.1961V8.1961C21.5934 8.98069 21.8177 9.81788 22.3921 10.3922V10.3922C23.28 11.2802 23.28 12.7198 22.3921 13.6077V13.6077C21.8177 14.1821 21.5934 15.0193 21.8036 15.8039V15.8039C22.1286 17.0168 21.4089 18.2635 20.196 18.5885V18.5885C19.4114 18.7987 18.7985 19.4116 18.5883 20.1962V20.1962C18.2633 21.409 17.0166 22.1288 15.8037 21.8039V21.8039C15.0191 21.5936 14.1819 21.818 13.6076 22.3923V22.3923C12.7197 23.2802 11.2801 23.2802 10.3922 22.3923V22.3923C9.81781 21.8179 8.98061 21.5936 8.19601 21.8038V21.8038C6.98312 22.1288 5.7364 21.409 5.41139 20.1961V20.1961C5.20115 19.4116 4.5883 18.7987 3.80371 18.5885V18.5885C2.59081 18.2635 1.87105 17.0167 2.19606 15.8038V15.8038C2.40629 15.0192 2.18199 14.182 1.60764 13.6076V13.6076C0.719763 12.7198 0.719764 11.2802 1.60764 10.3924V10.3924C2.18199 9.81801 2.40629 8.98081 2.19606 8.19623V8.19623C1.87105 6.98333 2.59081 5.73653 3.80371 5.41152V5.41152C4.5883 5.20129 5.20114 4.58844 5.41139 3.80385V3.80385C5.7364 2.59096 6.98312 1.87115 8.19601 2.19615V2.19615C8.98061 2.40639 9.81781 2.18205 10.3922 1.60769V1.60769Z" fill="#4CB8E6" stroke="white"/>
    <g clip-path="url(#clip0_5100_4647)">
        <path d="M17.2266 7.66416C17.4706 7.41116 17.8734 7.40384 18.1265 7.64781C18.3584 7.87144 18.3839 8.2286 18.1986 8.48145L18.1428 8.54766L10.592 16.3781C10.361 16.6177 9.9891 16.6362 9.7364 16.4335L9.67586 16.3783L5.89884 12.463C5.65482 12.21 5.66206 11.8072 5.91502 11.5631C6.14689 11.3394 6.50474 11.3269 6.75073 11.5212L6.81487 11.5793L10.1337 15.019L17.2266 7.66416Z" fill="white"/>
    </g>
    <defs>
        <clipPath id="clip0_5100_4647">
            <rect width="12.7279" height="9.8995" fill="white" transform="translate(5.65698 7.07108)"/>
        </clipPath>
    </defs>
</svg>
