<svg width="177" height="187" viewBox="0 0 177 187" fill="none" xmlns="http://www.w3.org/2000/svg">
<g filter="url(#filter0_f_1385_4579)">
<ellipse rx="48.1785" ry="48.0014" transform="matrix(-1 0 0 1 79.1784 107.548)" fill="#F4712F"/>
<path d="M31.4998 107.548C31.4998 133.78 52.8445 155.049 79.1784 155.049C105.512 155.049 126.857 133.78 126.857 107.548C126.857 81.3152 105.512 60.0464 79.1784 60.0464C52.8445 60.0464 31.4998 81.3152 31.4998 107.548Z" stroke="#182338"/>
</g>
<g filter="url(#filter1_f_1385_4579)">
<ellipse rx="14.4596" ry="14.513" transform="matrix(-1 0 0 1 57.9117 45.5157)" fill="#F6851B" fill-opacity="0.61"/>
<path d="M43.952 45.5157C43.952 53.2566 50.2037 59.5287 57.9117 59.5287C65.6197 59.5287 71.8713 53.2566 71.8713 45.5157C71.8713 37.7748 65.6197 31.5027 57.9117 31.5027C50.2037 31.5027 43.952 37.7748 43.952 45.5157Z" stroke="#182338"/>
</g>
<path d="M79.3251 33.0744L81.4916 54.8222L71.6187 64.7823L69.4549 43.0344L79.3251 33.0744Z" fill="#803B19" stroke="#182338"/>
<path d="M82.1869 55.5415L101.318 58.6118L91.3978 68.6195L72.2668 65.5491L82.1869 55.5415Z" fill="#843D1A" stroke="#182338"/>
<mask id="path-7-inside-1_1385_4579" fill="white">
<path d="M133.099 120.604L122.313 131.488C127.524 126.231 130.267 118.442 129.351 109.239C127.452 90.1517 110.548 72.2135 91.575 69.1719L102.358 58.2875C121.325 61.3291 138.236 79.2672 140.137 98.3543C141.05 107.555 138.31 115.346 133.099 120.604Z"/>
</mask>
<path d="M133.099 120.604L122.313 131.488C127.524 126.231 130.267 118.442 129.351 109.239C127.452 90.1517 110.548 72.2135 91.575 69.1719L102.358 58.2875C121.325 61.3291 138.236 79.2672 140.137 98.3543C141.05 107.555 138.31 115.346 133.099 120.604Z" fill="#7F3B18"/>
<path d="M122.313 131.488L121.603 130.784L123.023 132.192L122.313 131.488ZM129.351 109.239L128.356 109.338L128.356 109.338L129.351 109.239ZM91.575 69.1719L90.8645 68.4681L89.4944 69.8511L91.4167 70.1593L91.575 69.1719ZM102.358 58.2875L102.517 57.3001L102.009 57.2188L101.648 57.5837L102.358 58.2875ZM140.137 98.3543L141.132 98.2555L141.132 98.2552L140.137 98.3543ZM132.389 119.9L121.603 130.784L123.023 132.192L133.81 121.308L132.389 119.9ZM123.023 132.192C128.471 126.696 131.288 118.601 130.346 109.14L128.356 109.338C129.246 118.284 126.578 125.765 121.603 130.784L123.023 132.192ZM130.346 109.14C128.403 89.6002 111.154 71.2979 91.7332 68.1845L91.4167 70.1593C109.942 73.1292 126.502 90.7031 128.356 109.338L130.346 109.14ZM92.2854 69.8757L103.069 58.9913L101.648 57.5837L90.8645 68.4681L92.2854 69.8757ZM102.2 59.2749C120.719 62.2447 137.286 79.8188 139.142 98.4534L141.132 98.2552C139.186 78.7157 121.931 60.4134 102.517 57.3001L102.2 59.2749ZM139.142 98.4531C140.03 107.396 137.364 114.881 132.389 119.9L133.81 121.308C139.257 115.812 142.071 107.713 141.132 98.2555L139.142 98.4531Z" fill="#182338" mask="url(#path-7-inside-1_1385_4579)"/>
<path d="M82.8767 70.3326L84.7689 89.3532L74.8987 99.316L73.0038 80.2955L82.8767 70.3326Z" fill="#803B19" stroke="#182338"/>
<path d="M43.0823 26.5966L64.9527 30.1062L67.1425 52.1157L45.2721 48.6061L43.0823 26.5966Z" fill="#F4712F" stroke="#182338"/>
<path d="M44.9872 49.5731L66.664 53.0516L56.7439 63.0592L35.0671 59.5807L44.9872 49.5731Z" fill="#843D1A" stroke="#182338"/>
<path d="M42.1282 27.1061L44.2919 48.8539L34.4189 58.814L32.2552 37.0662L42.1282 27.1061Z" fill="#803B19" stroke="#182338"/>
<mask id="path-13-inside-2_1385_4579" fill="white">
<path d="M121.525 109.115L110.739 119.999C107.256 123.515 102.125 124.837 96.7113 123.975C92.6642 123.325 88.456 121.45 84.6536 118.339C78.9412 113.677 75.1597 106.995 74.5061 100.413L85.2923 89.5288C85.943 96.1109 89.7214 102.796 95.4399 107.458C99.2422 110.566 103.45 112.444 107.498 113.094C112.915 113.961 118.042 112.634 121.525 109.118"/>
</mask>
<path d="M121.525 109.115L110.739 119.999C107.256 123.515 102.125 124.837 96.7113 123.975C92.6642 123.325 88.456 121.45 84.6536 118.339C78.9412 113.677 75.1597 106.995 74.5061 100.413L85.2923 89.5288C85.943 96.1109 89.7214 102.796 95.4399 107.458C99.2422 110.566 103.45 112.444 107.498 113.094C112.915 113.961 118.042 112.634 121.525 109.118" fill="#7F3B18"/>
<path d="M110.739 119.999L110.028 119.295L110.028 119.295L110.739 119.999ZM96.7113 123.975L96.5527 124.962L96.5541 124.963L96.7113 123.975ZM84.6536 118.339L85.2869 117.565L85.2859 117.565L84.6536 118.339ZM74.5061 100.413L73.7958 99.7093L73.4645 100.044L73.511 100.512L74.5061 100.413ZM85.2923 89.5288L86.2875 89.4304L86.0784 87.315L84.582 88.8249L85.2923 89.5288ZM95.4399 107.458L96.0728 106.684L96.0718 106.683L95.4399 107.458ZM107.498 113.094L107.339 114.081L107.339 114.081L107.498 113.094ZM120.815 108.411L110.028 119.295L111.449 120.703L122.235 109.819L120.815 108.411ZM110.028 119.295C106.819 122.536 102.036 123.81 96.8685 122.987L96.5541 124.963C102.214 125.863 107.693 124.495 111.449 120.703L110.028 119.295ZM96.8699 122.988C93.0105 122.368 88.9636 120.574 85.2869 117.565L84.0204 119.113C87.9484 122.327 92.3179 124.282 96.5527 124.962L96.8699 122.988ZM85.2859 117.565C79.7537 113.049 76.1254 106.601 75.5012 100.314L73.511 100.512C74.194 107.39 78.1287 114.305 84.0213 119.114L85.2859 117.565ZM75.2164 101.117L86.0026 90.2327L84.582 88.8249L73.7958 99.7093L75.2164 101.117ZM84.2972 89.6272C84.9771 96.5052 88.9087 103.423 94.808 108.233L96.0718 106.683C90.5341 102.168 86.9089 95.7165 86.2875 89.4304L84.2972 89.6272ZM94.807 108.232C98.7345 111.443 103.104 113.401 107.339 114.081L107.656 112.106C103.797 111.486 99.7499 109.689 96.0728 106.684L94.807 108.232ZM107.339 114.081C113.004 114.988 118.48 113.613 122.235 109.822L120.815 108.414C117.604 111.655 112.825 112.934 107.656 112.106L107.339 114.081Z" fill="#182338" mask="url(#path-13-inside-2_1385_4579)"/>
<path d="M103.38 72.9611L103.38 72.9611C107.486 73.6199 111.626 75.5465 115.224 78.4902L115.224 78.4902C120.012 82.4059 123.234 87.5629 124.578 92.7225C125.922 97.8844 125.38 103.011 122.7 106.918L122.7 106.918C119.452 111.662 113.74 113.598 107.574 112.609C103.621 111.974 99.4931 110.137 95.7534 107.08L95.753 107.08C90.1279 102.491 86.4259 95.9228 85.787 89.4885L85.7869 89.4883L83.8278 69.8229L103.38 72.9611Z" fill="#F4712F" stroke="#182338"/>
<path d="M46.1695 64.5941L48.0467 83.4634L38.1765 93.4235L36.2965 74.5569L46.1695 64.5941Z" fill="#803B19" stroke="#182338"/>
<path d="M112.131 151.025C124.597 152.815 135.732 150.461 144.421 144.957L139.841 149.579C139.841 149.58 139.841 149.58 139.841 149.58C130.968 158.533 117.714 163.048 102.228 161.021L112.131 151.025Z" fill="#7F3B18" stroke="#182338"/>
<mask id="path-18-inside-3_1385_4579" fill="white">
<path d="M111.954 150.494L101.167 161.375L100.003 161.188L110.787 150.306L111.954 150.494Z"/>
</mask>
<path d="M111.954 150.494L101.167 161.375L100.003 161.188L110.787 150.306L111.954 150.494Z" fill="#843D1A"/>
<path d="M111.954 150.494L112.664 151.198L114.034 149.815L112.112 149.507L111.954 150.494ZM101.167 161.375L101.008 162.363L101.516 162.444L101.878 162.079L101.167 161.375ZM100.003 161.188L99.2931 160.484L97.9237 161.866L99.8444 162.175L100.003 161.188ZM110.787 150.306L110.945 149.319L110.438 149.238L110.076 149.603L110.787 150.306ZM111.243 149.79L100.457 160.671L101.878 162.079L112.664 151.198L111.243 149.79ZM101.326 160.388L100.162 160.201L99.8444 162.175L101.008 162.363L101.326 160.388ZM100.714 161.892L111.497 151.01L110.076 149.603L99.2931 160.484L100.714 161.892ZM110.628 151.294L111.795 151.481L112.112 149.507L110.945 149.319L110.628 151.294Z" fill="#182338" mask="url(#path-18-inside-3_1385_4579)"/>
<mask id="path-20-inside-4_1385_4579" fill="white">
<path d="M110.79 150.306L100.004 161.191C72.7277 156.471 48.1259 133.327 40.175 106.566C38.9995 102.642 38.1999 98.6121 37.7874 94.5326L48.5736 83.6482C48.9878 87.7274 49.7873 91.757 50.9612 95.6816C58.9151 122.442 83.5169 145.569 110.793 150.306"/>
</mask>
<path d="M110.79 150.306L100.004 161.191C72.7277 156.471 48.1259 133.327 40.175 106.566C38.9995 102.642 38.1999 98.6121 37.7874 94.5326L48.5736 83.6482C48.9878 87.7274 49.7873 91.757 50.9612 95.6816C58.9151 122.442 83.5169 145.569 110.793 150.306" fill="#7F3B18"/>
<path d="M100.004 161.191L99.8332 162.176L100.347 162.265L100.714 161.895L100.004 161.191ZM40.175 106.566L41.1336 106.281L41.1329 106.279L40.175 106.566ZM37.7874 94.5326L37.077 93.8287L36.745 94.1639L36.7924 94.6332L37.7874 94.5326ZM48.5736 83.6482L49.5685 83.5472L49.3545 81.4395L47.8633 82.9443L48.5736 83.6482ZM50.9612 95.6816L51.9198 95.3966L51.9193 95.395L50.9612 95.6816ZM110.08 149.602L99.2934 160.487L100.714 161.895L111.5 151.01L110.08 149.602ZM100.174 160.205C73.2996 155.555 48.9843 132.704 41.1336 106.281L39.2164 106.851C47.2675 133.949 72.1558 157.387 99.8332 162.176L100.174 160.205ZM41.1329 106.279C39.9756 102.416 39.1884 98.4484 38.7823 94.432L36.7924 94.6332C37.2113 98.7758 38.0233 102.868 39.2171 106.853L41.1329 106.279ZM38.4977 95.2365L49.2839 84.3521L47.8633 82.9443L37.077 93.8287L38.4977 95.2365ZM47.5787 83.7492C47.9993 87.8913 48.8111 91.983 50.0032 95.9681L51.9193 95.395C50.7635 91.531 49.9763 87.5636 49.5685 83.5472L47.5787 83.7492ZM50.0027 95.9665C58.0569 123.065 82.9453 146.484 110.622 151.292L110.964 149.321C84.0886 144.653 59.7733 121.82 51.9198 95.3966L50.0027 95.9665Z" fill="#182338" mask="url(#path-20-inside-4_1385_4579)"/>
<path d="M80.2821 32.5531L82.4719 54.5626L102.437 57.7847L80.2821 32.5531ZM80.2821 32.5531L100.403 35.7926C100.405 35.7928 100.406 35.793 100.407 35.7932C104.057 36.4344 107.648 37.3877 111.14 38.6429L111.141 38.6432C137.626 48.1134 159.46 74.354 162.212 102.017C163.77 117.665 158.927 130.794 149.874 139.439C140.821 148.084 127.508 152.293 112.03 150.006C112.029 150.006 112.028 150.005 112.027 150.005L110.875 149.82C110.874 149.82 110.873 149.819 110.872 149.819C83.7979 145.13 59.3407 122.136 51.4373 95.5452L51.437 95.5443C50.2722 91.6502 49.4788 87.6518 49.0678 83.6042C49.0678 83.604 49.0678 83.6039 49.0678 83.6037L47.1265 64.0904L68.9969 67.6L70.9644 87.3742C72.8851 106.688 89.9618 124.808 109.159 127.885C118.777 129.427 127.139 126.906 132.856 121.53C138.574 116.154 141.597 107.971 140.634 98.2957C138.714 78.9856 121.637 60.8625 102.438 57.7848L80.2821 32.5531Z" fill="#F4712F" stroke="#182338"/>
<g filter="url(#filter2_b_1385_4579)">
<circle cx="159" cy="130" r="18" fill="#EA5365" fill-opacity="0.3"/>
<circle cx="159" cy="130" r="17" stroke="#FF919E" stroke-width="2"/>
</g>
<path d="M165.707 124.707C166.098 124.317 166.098 123.683 165.707 123.293C165.317 122.902 164.683 122.902 164.293 123.293L159 128.586L153.707 123.293C153.317 122.902 152.683 122.902 152.293 123.293C151.902 123.683 151.902 124.317 152.293 124.707L157.586 130L152.293 135.293C151.902 135.683 151.902 136.317 152.293 136.707C152.683 137.098 153.317 137.098 153.707 136.707L159 131.414L164.293 136.707C164.683 137.098 165.317 137.098 165.707 136.707C166.098 136.317 166.098 135.683 165.707 135.293L160.414 130L165.707 124.707Z" fill="#FF919E"/>
<defs>
<filter id="filter0_f_1385_4579" x="0.1556" y="28.7022" width="158.045" height="157.691" filterUnits="userSpaceOnUse" color-interpolation-filters="sRGB">
<feFlood flood-opacity="0" result="BackgroundImageFix"/>
<feBlend mode="normal" in="SourceGraphic" in2="BackgroundImageFix" result="shape"/>
<feGaussianBlur stdDeviation="15.4221" result="effect1_foregroundBlur_1385_4579"/>
</filter>
<filter id="filter1_f_1385_4579" x="12.608" y="0.158529" width="90.6075" height="90.7143" filterUnits="userSpaceOnUse" color-interpolation-filters="sRGB">
<feFlood flood-opacity="0" result="BackgroundImageFix"/>
<feBlend mode="normal" in="SourceGraphic" in2="BackgroundImageFix" result="shape"/>
<feGaussianBlur stdDeviation="15.4221" result="effect1_foregroundBlur_1385_4579"/>
</filter>
<filter id="filter2_b_1385_4579" x="133" y="104" width="52" height="52" filterUnits="userSpaceOnUse" color-interpolation-filters="sRGB">
<feFlood flood-opacity="0" result="BackgroundImageFix"/>
<feGaussianBlur in="BackgroundImage" stdDeviation="4"/>
<feComposite in2="SourceAlpha" operator="in" result="effect1_backgroundBlur_1385_4579"/>
<feBlend mode="normal" in="SourceGraphic" in2="effect1_backgroundBlur_1385_4579" result="shape"/>
</filter>
</defs>
</svg>
