<svg width="476" height="467" viewBox="0 0 476 467" fill="none" xmlns="http://www.w3.org/2000/svg">
<path d="M249.789 154.234L184.355 176.397C164.432 183.145 153.751 204.766 160.499 224.689L189.011 308.87C195.759 328.793 217.381 339.474 237.304 332.726L302.739 310.563C322.662 303.815 333.342 282.194 326.594 262.27L298.082 178.09C291.334 158.167 269.713 147.486 249.789 154.234Z" fill="url(#paint0_radial_1213_579)"/>
<path d="M244.537 157.774L185.547 177.754C165.624 184.502 154.943 206.123 161.691 226.046L187.722 302.901C194.47 322.824 216.091 333.505 236.014 326.757L295.005 306.776C314.928 300.028 325.608 278.407 318.86 258.484L292.829 181.629C286.081 161.706 264.46 151.026 244.537 157.774Z" fill="url(#paint1_radial_1213_579)"/>
<path d="M249.789 154.234L184.355 176.397C164.432 183.145 153.751 204.766 160.499 224.689L189.011 308.87C195.759 328.793 217.381 339.474 237.304 332.726L302.739 310.563C322.662 303.815 333.342 282.194 326.594 262.27L298.082 178.09C291.334 158.167 269.713 147.486 249.789 154.234Z" stroke="#182338" stroke-width="2.69737" stroke-miterlimit="10"/>
<path d="M367.366 180.011C368.456 185.763 367.431 191.715 364.479 196.771C361.527 201.826 356.848 205.645 351.303 207.523C336.868 219.249 319.769 227.241 301.515 230.794C309.872 247.628 316.956 260.807 320.892 269.086C334.019 296.678 345.21 323.204 354.074 348.616C357.661 358.892 357.986 364.749 356.495 370.102C355.632 373.207 354.157 376.148 352.349 379.68C349.611 385.05 346.144 388.688 342.587 389.893C336.488 391.958 329.82 391.516 324.047 388.665C318.274 385.813 313.871 380.785 311.806 374.687L294.283 322.952C293.766 321.428 292.666 320.171 291.222 319.458C289.779 318.745 288.112 318.635 286.588 319.151L252.098 330.833C250.573 331.349 249.316 332.45 248.603 333.893C247.89 335.336 247.78 337.004 248.296 338.528L265.676 389.842C269.916 402.36 263.622 416.211 251.235 420.777L242.203 422.277L230.392 424.234C227.78 424.67 225.098 424.354 222.659 423.325C220.219 422.296 218.122 420.596 216.611 418.421C215.001 416.098 214.134 413.34 214.125 410.513L214.017 388.564C210.332 376.612 206.897 364.305 203.654 351.556C200.411 338.806 197.366 325.612 194.455 311.889C191.394 297.443 188.767 283.381 186.574 269.704C169.918 277.975 151.482 282.019 132.893 281.478C116.666 280.111 104.528 273.407 102.111 266.273C100.046 260.175 100.488 253.506 103.339 247.733C106.191 241.961 111.219 237.557 117.317 235.492L171.453 217.156C243.019 231.362 281.616 179.843 281.616 179.843L335.376 161.634C347.894 157.394 361.745 163.689 366.311 176.076C366.772 177.356 367.125 178.672 367.366 180.011V180.011Z" fill="url(#paint2_radial_1213_579)"/>
<path d="M367.366 180.011C368.456 185.763 367.431 191.715 364.479 196.771C361.527 201.826 356.848 205.645 351.303 207.523C336.868 219.249 319.769 227.241 301.515 230.794C309.872 247.628 316.956 260.807 320.892 269.086C334.019 296.678 345.21 323.204 354.074 348.616C357.661 358.892 357.986 364.749 356.495 370.102C355.632 373.207 354.157 376.148 352.349 379.68C349.611 385.05 346.144 388.688 342.587 389.893C336.488 391.958 329.82 391.516 324.047 388.665C318.274 385.813 313.871 380.785 311.806 374.687L294.283 322.952C293.766 321.428 292.666 320.171 291.222 319.458C289.779 318.745 288.112 318.635 286.588 319.151L252.098 330.833C250.573 331.349 249.316 332.45 248.603 333.893C247.89 335.336 247.78 337.004 248.296 338.528L265.676 389.842C269.916 402.36 263.622 416.211 251.235 420.777L242.203 422.277L230.392 424.234C227.78 424.67 225.098 424.354 222.659 423.325C220.219 422.296 218.122 420.596 216.611 418.421C215.001 416.098 214.134 413.34 214.125 410.513L214.017 388.564C210.332 376.612 206.897 364.305 203.654 351.556C200.411 338.806 197.366 325.612 194.455 311.889C191.394 297.443 188.767 283.381 186.574 269.704C169.918 277.975 151.482 282.019 132.893 281.478C116.666 280.111 104.528 273.407 102.111 266.273C100.046 260.175 100.488 253.506 103.339 247.733C106.191 241.961 111.219 237.557 117.317 235.492L171.453 217.156C243.019 231.362 281.616 179.843 281.616 179.843L335.376 161.634C347.894 157.394 361.745 163.689 366.311 176.076C366.772 177.356 367.125 178.672 367.366 180.011V180.011Z" fill="url(#paint3_linear_1213_579)" fill-opacity="0.3"/>
<path opacity="0.6" d="M286.573 319.128L252.083 330.809C250.559 331.326 249.302 332.427 248.589 333.87C247.876 335.313 247.766 336.98 248.282 338.505L265.671 389.844C269.911 402.362 263.617 416.213 251.23 420.779L242.197 422.279L230.386 424.236C227.775 424.67 225.095 424.354 222.657 423.325C220.218 422.295 218.122 420.595 216.612 418.421C215.988 417.251 215.429 416.166 214.953 415.202C213.025 411.299 212.418 409.233 214.122 410.5C221.377 415.924 247.135 411.087 256.165 403.252C265.194 395.416 246.251 359.876 243.436 337.462C240.622 315.048 286.573 319.128 286.573 319.128Z" fill="url(#paint4_radial_1213_579)"/>
<path d="M281.586 179.86C281.586 179.86 242.99 231.38 171.423 217.173C174.567 211.376 178.931 206.33 184.213 202.382C198.11 209.183 214.132 210.214 228.786 205.251C243.44 200.287 255.537 189.732 262.441 175.886C269.035 175.811 275.567 177.167 281.586 179.86V179.86Z" fill="url(#paint5_radial_1213_579)" stroke="#182338" stroke-width="2.69737" stroke-miterlimit="10"/>
<path d="M228.786 205.248C214.14 210.22 198.123 209.201 184.225 202.414C188.079 199.54 192.365 197.293 196.921 195.757L248.362 178.334C252.914 176.784 257.683 175.965 262.491 175.905C255.588 189.752 243.49 200.307 228.835 205.267L228.786 205.248Z" fill="url(#paint6_radial_1213_579)" stroke="#182338" stroke-width="2.69737" stroke-miterlimit="10"/>
<path d="M272.121 106.173C277.108 120.895 278.32 143.73 271.436 157.667L262.554 175.691L262.461 175.879C255.555 189.724 243.458 200.278 228.804 205.241C214.151 210.204 198.13 209.174 184.232 202.375L184.044 202.282L166.018 193.373C159.05 189.93 152.333 183.491 146.744 176.071C141.393 169.035 137.155 161.218 134.181 152.894C132.038 145.532 131.038 137.884 131.214 130.218C132.071 95.1414 157.853 73.6858 159.986 71.9737C163.282 69.3248 166.797 66.9621 170.495 64.9114C173.494 63.251 176.602 61.794 179.797 60.5504C187.159 58.4077 194.807 57.4071 202.472 57.5835C205.207 57.647 238.721 59.0186 260.717 86.3554C265.509 92.3393 269.356 99.0229 272.121 106.173V106.173Z" fill="url(#paint7_radial_1213_579)" stroke="#182338" stroke-width="2.69737" stroke-miterlimit="10"/>
<path d="M281.586 179.86C281.586 179.86 242.99 231.38 171.423 217.173C174.567 211.376 178.931 206.33 184.213 202.382C198.11 209.183 214.132 210.214 228.786 205.251C243.44 200.287 255.537 189.732 262.441 175.886C269.035 175.811 275.567 177.167 281.586 179.86V179.86Z" fill="url(#paint8_radial_1213_579)" fill-opacity="0.3" stroke="#182338" stroke-width="2.69737" stroke-miterlimit="10"/>
<path opacity="0.3" d="M272.121 106.173C277.108 120.895 278.32 143.73 271.436 157.667L262.554 175.691L262.461 175.879C255.555 189.724 243.458 200.278 228.804 205.241C214.151 210.204 198.13 209.174 184.232 202.375L184.044 202.282L166.018 193.373C159.05 189.93 152.333 183.491 146.744 176.071C141.393 169.035 137.155 161.218 134.181 152.894C132.038 145.532 131.038 137.884 131.214 130.218C132.071 95.1414 157.853 73.6858 159.986 71.9737C163.282 69.3248 166.797 66.9621 170.495 64.9114C173.494 63.251 176.602 61.794 179.797 60.5504C187.159 58.4077 194.807 57.4071 202.472 57.5835C205.207 57.647 238.721 59.0186 260.717 86.3554C265.509 92.3393 269.356 99.0229 272.121 106.173V106.173Z" fill="url(#paint9_radial_1213_579)" stroke="#182338" stroke-width="2.69737" stroke-miterlimit="10"/>
<path d="M265.558 105.712C263.472 100.548 260.411 95.8338 256.541 91.8284C238.501 73.0621 208.536 74.1194 206.116 74.2271C199.164 74.5812 192.281 75.7817 185.619 77.8019V77.8019C179.096 80.2462 172.896 83.4772 167.156 87.4232C165.143 88.8169 140.754 106.169 137.812 132.042C137.175 137.575 137.606 143.179 139.082 148.55C142.647 159.076 153.064 172.172 165.126 176.381L180.734 181.831C192.799 186.046 207.156 185.847 220.652 181.276C234.148 176.705 245.677 168.136 252.697 157.457L261.781 143.644C268.815 132.967 269.123 116.238 265.558 105.712Z" fill="#504C57" stroke="#182338" stroke-width="2.69737" stroke-miterlimit="10"/>
<path d="M261.226 107.364C259.283 102.562 256.435 98.1772 252.836 94.45C236.05 76.9892 208.192 77.9595 205.908 78.0708C199.44 78.4024 193.036 79.5196 186.837 81.3978V81.3978C180.772 83.6732 175.007 86.6778 169.669 90.3454C167.794 91.6424 145.074 107.803 142.36 131.869C141.766 137.018 142.167 142.234 143.541 147.232V147.232C146.859 157.029 156.553 169.21 167.778 173.133L182.303 178.181C193.532 182.117 206.887 181.922 219.444 177.669C232.001 173.416 242.729 165.446 249.267 155.507L257.735 142.672C264.255 132.724 264.544 117.162 261.226 107.364Z" fill="url(#paint10_radial_1213_579)"/>
<path d="M230.108 88.5475C226.518 85.2281 249.649 94.7443 255.49 111.989C261.331 129.234 253.889 138.162 253.889 138.162C253.889 138.162 260.567 116.677 230.108 88.5475Z" fill="url(#paint11_radial_1213_579)"/>
<path d="M223.872 291.053C220.853 288.859 218.363 286.017 216.584 282.736L212.225 269.866C211.569 266.877 211.21 262.791 212.959 258.831C215.848 252.27 222.072 251.6 242.081 244.503C251.525 241.148 267.883 235.002 273.923 238.182C275.972 239.292 277.773 240.809 279.213 242.641C280.075 243.817 280.755 245.116 281.23 246.493L285.589 259.363C286.17 263.049 285.922 266.818 284.862 270.396C278.424 291.223 241.61 303.692 223.872 291.053Z" fill="url(#paint12_radial_1213_579)" stroke="#182338" stroke-width="1.52668" stroke-miterlimit="10"/>
<path d="M227.872 287.705C225.306 285.842 223.191 283.427 221.683 280.638L217.98 269.704C217.419 267.167 217.112 263.696 218.6 260.331C221.055 254.757 226.336 254.186 243.34 248.156C251.367 245.309 265.257 240.092 270.392 242.788C272.135 243.729 273.665 245.019 274.886 246.577C275.613 247.579 276.184 248.684 276.58 249.855L280.284 260.79C280.775 263.922 280.563 267.123 279.664 270.163C274.2 287.855 242.904 298.455 227.872 287.705Z" stroke="#182338" stroke-width="1.52668" stroke-miterlimit="10"/>
<path d="M231.832 284.37C229.721 282.837 227.98 280.85 226.737 278.556L223.689 269.557C223.039 266.996 223.218 264.295 224.202 261.843C226.21 257.261 230.571 256.788 244.56 251.822C251.165 249.485 262.596 245.186 266.823 247.407C268.256 248.184 269.514 249.245 270.521 250.526C271.119 251.35 271.588 252.259 271.911 253.224L274.959 262.223C275.366 264.799 275.193 267.434 274.453 269.934C269.97 284.489 244.237 293.205 231.832 284.37Z" stroke="#182338" stroke-width="1.52668" stroke-miterlimit="10"/>
<path d="M235.822 281.054C234.167 279.85 232.802 278.291 231.827 276.491L229.426 269.401C228.913 267.392 229.053 265.273 229.825 263.349C231.412 259.75 234.826 259.384 245.802 255.489C250.982 253.649 259.958 250.281 263.268 252.022C264.394 252.63 265.384 253.463 266.175 254.469C266.644 255.115 267.013 255.828 267.269 256.583L269.661 263.647C269.979 265.67 269.84 267.739 269.256 269.701C265.741 281.123 245.545 287.963 235.822 281.054Z" stroke="#182338" stroke-width="1.52668" stroke-miterlimit="10"/>
<path d="M239.793 277.687C238.597 276.817 237.608 275.693 236.898 274.395L235.168 269.286C234.804 267.833 234.908 266.302 235.466 264.913C236.618 262.301 239.097 262.031 247.061 259.206C250.825 257.874 257.336 255.426 259.737 256.692C260.557 257.132 261.276 257.737 261.848 258.469C262.188 258.937 262.454 259.454 262.638 260.003L264.369 265.112C264.594 266.574 264.492 268.068 264.07 269.485C261.521 277.746 246.831 282.722 239.793 277.687Z" stroke="#182338" stroke-width="1.52668" stroke-miterlimit="10"/>
<path d="M243.773 274.345C243.026 273.803 242.41 273.099 241.972 272.285L240.891 269.092C240.659 268.186 240.722 267.23 241.069 266.361C241.787 264.737 243.313 264.576 248.283 262.814C250.623 261.986 254.678 260.463 256.168 261.247C256.678 261.522 257.125 261.899 257.483 262.354C257.693 262.645 257.86 262.965 257.976 263.305L259.058 266.499C259.199 267.412 259.136 268.345 258.872 269.231C257.285 274.382 248.164 277.472 243.773 274.345Z" stroke="#182338" stroke-width="1.52668" stroke-miterlimit="10"/>
<path d="M312.632 344.106C311.178 342.742 309.986 341.124 309.114 339.331L306.702 332.21C306.15 330.276 306.113 328.232 306.595 326.28C307.572 322.859 310.303 322.724 318.801 319.668C322.814 318.23 329.744 315.548 332.52 317.499C334.175 318.671 335.408 320.345 336.038 322.273L338.45 329.395C338.844 331.349 338.881 333.358 338.557 335.325C336.559 346.325 320.904 351.628 312.632 344.106Z" fill="#99A3A3" stroke="#182338" stroke-width="0.674343" stroke-miterlimit="10"/>
<path d="M314.184 342.526C312.94 341.357 311.92 339.97 311.175 338.434L309.111 332.34C308.64 330.686 308.608 328.938 309.016 327.268C309.881 324.333 312.194 324.226 319.455 321.596C322.889 320.362 328.819 318.069 331.198 319.755C332.034 320.371 332.756 321.129 333.331 321.994C333.693 322.571 333.986 323.189 334.203 323.834L336.267 329.928C336.605 331.601 336.638 333.322 336.364 335.007C334.65 344.409 321.238 348.952 314.184 342.526Z" fill="#99A3A3" stroke="#182338" stroke-width="0.674343" stroke-miterlimit="10"/>
<path d="M315.733 340.941C314.696 339.962 313.845 338.803 313.221 337.52L311.506 332.455C311.108 331.072 311.079 329.609 311.421 328.212C312.139 325.769 314.062 325.687 320.103 323.512C322.958 322.482 327.888 320.577 329.854 321.968C330.55 322.478 331.151 323.106 331.629 323.824C331.931 324.307 332.176 324.824 332.357 325.364L334.073 330.429C334.363 331.826 334.392 333.265 334.157 334.672C332.747 342.512 321.614 346.282 315.733 340.941Z" fill="#99A3A3" stroke="#182338" stroke-width="0.674343" stroke-miterlimit="10"/>
<path d="M317.276 339.358C316.454 338.583 315.779 337.666 315.284 336.65L313.917 332.614C313.607 331.518 313.585 330.36 313.854 329.253C314.427 327.308 315.964 327.243 320.766 325.488C323.04 324.675 326.967 323.153 328.544 324.278C329.483 324.942 330.182 325.891 330.536 326.985L331.903 331.021C332.127 332.129 332.149 333.267 331.966 334.382C330.843 340.608 321.971 343.613 317.276 339.358Z" fill="#99A3A3" stroke="#182338" stroke-width="0.674343" stroke-miterlimit="10"/>
<path d="M318.832 337.77C318.218 337.194 317.716 336.509 317.351 335.751L316.332 332.743C316.102 331.928 316.085 331.068 316.283 330.246C316.711 328.798 317.854 328.745 321.439 327.453C323.144 326.875 326.06 325.71 327.231 326.538C327.637 326.832 327.989 327.195 328.27 327.61C328.452 327.893 328.599 328.197 328.705 328.516L329.724 331.524C329.889 332.35 329.904 333.199 329.768 334.03C328.938 338.704 322.327 340.943 318.832 337.77Z" fill="#99A3A3" stroke="#182338" stroke-width="0.674343" stroke-miterlimit="10"/>
<path d="M320.387 336.182C319.98 335.808 319.65 335.359 319.412 334.86L318.742 332.88C318.584 332.344 318.573 331.775 318.71 331.232C318.987 330.284 319.738 330.251 322.09 329.376C323.214 328.995 325.125 328.226 325.908 328.794C326.179 328.995 326.414 329.24 326.603 329.52C326.721 329.714 326.817 329.92 326.889 330.135L327.56 332.115C327.668 332.656 327.678 333.212 327.589 333.757C327.032 336.8 322.683 338.274 320.387 336.182Z" fill="#99A3A3" stroke="#182338" stroke-width="0.674343" stroke-miterlimit="10"/>
<path d="M214.431 373.366C213.093 371.826 212.033 370.064 211.301 368.16L209.418 360.667C209.01 358.653 209.109 356.569 209.706 354.603C210.937 351.196 213.58 351.326 222.118 348.976C226.145 347.875 233.138 345.777 235.71 348.031C236.624 348.866 237.392 349.848 237.982 350.935C238.351 351.669 238.638 352.441 238.84 353.237L240.723 360.73C240.981 362.753 240.881 364.807 240.428 366.796C237.756 377.846 222.023 381.844 214.431 373.366Z" fill="#99A3A3" stroke="#182338" stroke-width="0.674343" stroke-miterlimit="10"/>
<path d="M216.076 371.876C214.934 370.562 214.029 369.059 213.404 367.434L211.791 361.031C211.447 359.311 211.535 357.533 212.045 355.855C213.089 352.945 215.367 353.049 222.648 351.067C226.09 350.129 232.044 348.348 234.254 350.269C235.578 351.442 236.51 352.992 236.926 354.711L238.537 361.107C238.752 362.836 238.667 364.59 238.285 366.29C235.974 375.695 222.568 379.082 216.076 371.876Z" fill="#99A3A3" stroke="#182338" stroke-width="0.674343" stroke-miterlimit="10"/>
<path d="M217.721 370.386C216.774 369.298 216.025 368.054 215.507 366.707L214.172 361.4C213.88 359.975 213.951 358.499 214.378 357.108C215.242 354.679 217.138 354.749 223.172 353.14C226.019 352.361 230.951 350.882 232.786 352.475C233.435 353.063 233.978 353.758 234.393 354.529C234.657 355.049 234.861 355.595 235.003 356.16L236.335 361.461C236.52 362.893 236.451 364.346 236.13 365.753C234.219 373.563 223.099 376.361 217.721 370.386Z" fill="#99A3A3" stroke="#182338" stroke-width="0.674343" stroke-miterlimit="10"/>
<path d="M219.367 368.896C218.614 368.033 218.019 367.044 217.609 365.974L216.545 361.763C216.319 360.632 216.378 359.462 216.717 358.359C217.401 356.447 218.891 356.519 223.688 355.208C225.956 354.589 229.874 353.419 231.338 354.674C232.206 355.448 232.82 356.466 233.097 357.595L234.154 361.808C234.298 362.945 234.243 364.099 233.991 365.217C232.46 371.417 223.636 373.637 219.367 368.896Z" fill="#99A3A3" stroke="#182338" stroke-width="0.674343" stroke-miterlimit="10"/>
<path d="M221.012 367.406C220.454 366.769 220.013 366.039 219.712 365.248L218.927 362.132C218.755 361.293 218.797 360.425 219.047 359.606C219.558 358.194 220.659 358.248 224.211 357.28C225.885 356.82 228.787 355.951 229.86 356.89C230.242 357.234 230.56 357.642 230.802 358.095C230.946 358.403 231.056 358.727 231.129 359.059L231.914 362.175C232.019 363.018 231.979 363.872 231.794 364.701C230.7 369.272 224.174 370.92 221.012 367.406Z" fill="#99A3A3" stroke="#182338" stroke-width="0.674343" stroke-miterlimit="10"/>
<path d="M222.651 365.918C222.291 365.503 222.007 365.028 221.813 364.514L221.3 362.495C221.195 361.951 221.223 361.39 221.38 360.859C221.71 359.943 222.427 359.978 224.733 359.346C225.815 359.051 227.697 358.492 228.393 359.096C228.64 359.32 228.848 359.585 229.007 359.878C229.105 360.081 229.178 360.295 229.223 360.516L229.73 362.538C229.802 363.082 229.777 363.636 229.657 364.172C228.944 367.133 224.705 368.198 222.651 365.918Z" fill="#99A3A3" stroke="#182338" stroke-width="0.674343" stroke-miterlimit="10"/>
<path d="M128.838 232.459C131.854 238.336 138.917 240.778 145.147 240.925C152.085 241.081 159.309 237.944 161.553 230.947C162.105 229.338 162.275 227.623 162.048 225.937C161.822 224.252 161.207 222.642 160.25 221.235C159.306 219.918 157.206 221.327 158.161 222.655C161.317 227.033 158.979 233.143 154.813 235.893C149.898 239.166 142.805 239.077 137.495 236.81C134.695 235.712 132.371 233.664 130.929 231.024C130.741 230.748 130.451 230.558 130.123 230.494C129.794 230.431 129.454 230.499 129.177 230.685C128.906 230.878 128.72 231.167 128.657 231.494C128.594 231.82 128.658 232.158 128.837 232.438L128.838 232.459Z" fill="#182338"/>
<path d="M297.979 175.412C299.431 177.072 301.259 178.361 303.309 179.174C305.36 179.986 307.575 180.297 309.77 180.082C314.799 179.489 319.473 177.192 323.016 173.574C324.664 171.734 325.627 169.471 325.063 167.007C324.952 166.691 324.722 166.43 324.422 166.282C324.121 166.133 323.774 166.109 323.456 166.213C323.143 166.328 322.887 166.559 322.74 166.858C322.594 167.157 322.568 167.501 322.668 167.818C323.13 169.833 321.47 171.784 320.051 172.976C317.984 174.73 315.592 176.06 313.011 176.891C308.629 178.29 303.204 177.721 300.081 174.009C299.888 173.738 299.599 173.552 299.273 173.489C298.946 173.426 298.608 173.491 298.329 173.67C298.052 173.86 297.862 174.151 297.799 174.48C297.736 174.809 297.805 175.15 297.992 175.429L297.979 175.412Z" fill="#182338"/>
<path d="M150.963 239.873C156.633 251.877 161.015 264.447 164.035 277.374C164.144 277.69 164.373 277.95 164.672 278.098C164.972 278.245 165.317 278.269 165.634 278.164C165.947 278.051 166.205 277.821 166.353 277.523C166.501 277.225 166.529 276.881 166.43 276.563C163.41 263.636 159.028 251.066 153.359 239.062C153.243 238.752 153.013 238.497 152.716 238.35C152.418 238.204 152.077 238.176 151.76 238.272C151.442 238.38 151.18 238.609 151.031 238.909C150.882 239.209 150.858 239.555 150.963 239.873V239.873Z" fill="#182338"/>
<path d="M328.09 347.806L342.19 389.436C342.315 389.731 342.546 389.968 342.838 390.099C343.13 390.231 343.461 390.247 343.765 390.144C344.068 390.041 344.321 389.827 344.473 389.546C344.626 389.264 344.666 388.935 344.585 388.625L330.485 346.994C330.36 346.699 330.129 346.462 329.837 346.331C329.544 346.2 329.214 346.184 328.91 346.287C328.607 346.39 328.354 346.603 328.202 346.885C328.049 347.167 328.009 347.496 328.09 347.806Z" fill="#182338"/>
<path d="M227.271 378.422C228.428 384.908 229.604 391.387 230.747 397.892C231.775 403.745 232.889 410.017 231.798 415.94C231.284 418.627 230.259 421.317 228.013 422.989C226.712 423.964 228.121 426.064 229.434 425.085C234.081 421.61 234.817 415.352 234.705 409.957C234.575 403.266 233.08 396.646 231.906 390.088C231.204 386.153 230.501 382.221 229.797 378.292C229.768 377.961 229.613 377.653 229.365 377.432C229.117 377.21 228.793 377.092 228.461 377.1C228.127 377.122 227.815 377.274 227.593 377.523C227.371 377.773 227.257 378.101 227.275 378.435L227.271 378.422Z" fill="#182338"/>
<path d="M367.369 180.018C368.459 185.77 367.434 191.722 364.482 196.777C361.53 201.833 356.851 205.651 351.306 207.53C336.872 219.255 319.773 227.248 301.518 230.801C309.875 247.635 316.959 260.813 320.895 269.092C334.022 296.685 345.213 323.21 354.077 348.623C357.664 358.899 357.989 364.755 356.498 370.108C345.114 327.921 304.812 255.01 292.955 234.043C292.595 233.405 292.39 232.691 292.357 231.96C292.324 231.228 292.464 230.499 292.766 229.831C293.068 229.164 293.522 228.577 294.093 228.118C294.664 227.66 295.335 227.342 296.052 227.191C326.977 220.561 354.784 193.771 367.369 180.018Z" fill="url(#paint13_radial_1213_579)" fill-opacity="0.6"/>
<path d="M367.369 180.018C368.458 185.77 367.433 191.722 364.481 196.777C361.529 201.833 356.85 205.651 351.305 207.53C336.871 219.256 319.772 227.248 301.517 230.801C309.875 247.635 316.959 260.813 320.895 269.092C334.021 296.685 345.212 323.21 354.076 348.623C357.663 358.899 357.988 364.755 356.498 370.109C355.634 373.213 354.16 376.155 352.351 379.686C349.614 385.056 346.147 388.694 342.589 389.899C336.491 391.964 329.822 391.523 324.049 388.671C318.277 385.82 313.873 380.792 311.808 374.694L294.285 322.959C293.769 321.434 292.668 320.177 291.225 319.464C289.782 318.752 288.115 318.641 286.59 319.158L252.1 330.839C250.576 331.356 249.319 332.457 248.606 333.9C247.893 335.343 247.782 337.01 248.299 338.535L265.694 389.893C269.934 402.411 263.64 416.262 251.253 420.828L242.22 422.328L230.409 424.285C228.41 424.617 226.363 424.512 224.408 423.975C222.454 423.438 220.64 422.484 219.091 421.177C217.542 419.87 216.295 418.242 215.437 416.406C214.579 414.57 214.13 412.57 214.121 410.543L214.013 388.594C210.328 376.642 206.893 364.335 203.65 351.586C200.407 338.836 197.362 325.642 194.451 311.919C191.39 297.473 188.763 283.411 186.57 269.734C169.914 278.005 151.478 282.049 132.889 281.508C116.662 280.141 104.524 273.437 102.108 266.303C100.042 260.205 100.484 253.536 103.335 247.763C106.187 241.991 111.215 237.587 117.313 235.522L171.449 217.186C243.016 231.392 281.612 179.873 281.612 179.873L335.372 161.664C347.89 157.424 361.741 163.719 366.307 176.105C366.769 177.378 367.125 178.686 367.369 180.018V180.018Z" stroke="#182338" stroke-width="2.69737" stroke-miterlimit="10"/>
<path d="M314.567 179.255C319.973 189.06 324.479 199.334 328.032 209.951C329.054 212.966 329.985 216.009 330.825 219.08C331.264 220.647 333.659 219.836 333.22 218.269C330.171 207.316 326.125 196.665 321.134 186.451C319.709 183.535 318.215 180.659 316.652 177.823C315.871 176.4 313.801 177.813 314.563 179.243L314.567 179.255Z" fill="#182338"/>
<path d="M300.537 174.196L300.493 176.148L308.097 179.111L319.556 175.316L324.375 168.501L323.332 165.949L307.007 171.478L300.537 174.196Z" fill="#182338"/>
<path d="M129.216 230.508C129.545 231.016 134.216 236.105 134.216 236.105L142.76 239.491L151.406 238.342L158.21 234.614L160.968 228.568L159.78 223.232L158.047 221.334L129.216 230.508Z" fill="#182338"/>
<path d="M98.9041 245.053L98.9676 244.946C99.3569 244.302 99.8738 243.743 100.487 243.306C101.099 242.868 101.795 242.56 102.531 242.401C103.267 242.241 104.028 242.234 104.767 242.379C105.506 242.525 106.207 242.819 106.828 243.245L107.273 243.55C107.989 244.041 108.58 244.694 108.997 245.455C109.414 246.217 109.647 247.066 109.676 247.933L110.302 267.165C110.326 267.893 110.205 268.619 109.947 269.3C109.689 269.981 109.299 270.605 108.799 271.135L108.279 271.702C107.692 272.327 106.968 272.807 106.163 273.104C105.359 273.401 104.497 273.507 103.645 273.414C102.792 273.321 101.973 273.031 101.252 272.567C100.531 272.104 99.9273 271.479 99.4887 270.743V270.743C99.0079 269.935 98.7414 269.018 98.7145 268.079L98.1148 248.083C98.077 247.018 98.3514 245.965 98.9041 245.053V245.053Z" fill="url(#paint14_radial_1213_579)" stroke="#182338" stroke-width="2.69737" stroke-miterlimit="10"/>
<path d="M102.963 249.603L103.994 266.349C104.079 267.706 103.838 269.039 103.3 270.204C102.761 271.368 101.945 272.319 100.94 272.953L93.6541 277.542C93.1635 277.853 92.6337 278.082 92.0796 278.223L82.4464 280.724C82.1378 280.8 81.824 280.854 81.5068 280.883L72.5432 281.606C71.6586 281.68 70.7585 281.538 69.9008 281.19C69.043 280.843 68.2465 280.297 67.5624 279.588L66.2268 278.209L64.1027 276.021C63.1879 275.074 62.5031 273.87 62.1242 272.543L58.6102 260.222C58.1995 258.791 58.1655 257.279 58.5125 255.881L59.1865 253.151C59.515 251.828 60.1692 250.663 61.0732 249.793C61.9772 248.922 63.094 248.381 64.2941 248.231L69.2907 247.627C70.1835 247.524 71.0351 247.204 71.7896 246.685C72.544 246.167 73.1841 245.464 73.6677 244.621C74.1513 243.778 74.4674 242.815 74.5953 241.796C74.7232 240.777 74.6599 239.724 74.4096 238.707L74.3148 238.297C73.9649 236.837 73.9994 235.317 74.414 233.936C74.8285 232.555 75.6038 231.376 76.6388 230.554L77.4677 229.898C78.5849 229.007 79.9482 228.579 81.3506 228.68C82.7529 228.78 84.1177 229.404 85.2376 230.456L90.2075 235.188L100.183 243.854C100.98 244.537 101.644 245.408 102.125 246.404C102.606 247.399 102.893 248.493 102.963 249.603V249.603Z" fill="url(#paint15_radial_1213_579)"/>
<path d="M102.963 249.603L103.994 266.349C104.079 267.706 103.838 269.039 103.3 270.204C102.761 271.368 101.945 272.319 100.94 272.953L93.6541 277.542C93.1635 277.853 92.6337 278.082 92.0796 278.223L82.4464 280.724C82.1378 280.8 81.824 280.854 81.5068 280.883L72.5432 281.606C71.6586 281.68 70.7585 281.538 69.9008 281.19C69.043 280.843 68.2465 280.297 67.5624 279.588L66.2268 278.209L64.1027 276.021C63.1879 275.074 62.5031 273.87 62.1242 272.543L58.6102 260.222C58.1995 258.791 58.1655 257.279 58.5125 255.881L59.1865 253.151C59.515 251.828 60.1692 250.663 61.0732 249.793C61.9772 248.922 63.094 248.381 64.2941 248.231L69.2907 247.627C70.1835 247.524 71.0351 247.204 71.7896 246.685C72.544 246.167 73.1841 245.464 73.6677 244.621C74.1513 243.778 74.4674 242.815 74.5953 241.796C74.7232 240.777 74.6599 239.724 74.4096 238.707L74.3148 238.297C73.9649 236.837 73.9994 235.317 74.414 233.936C74.8285 232.555 75.6038 231.376 76.6388 230.554L77.4677 229.898C78.5849 229.007 79.9482 228.579 81.3506 228.68C82.7529 228.78 84.1177 229.404 85.2376 230.456L90.2075 235.188L100.183 243.854C100.98 244.537 101.644 245.408 102.125 246.404C102.606 247.399 102.893 248.493 102.963 249.603V249.603Z" fill="url(#paint16_radial_1213_579)" fill-opacity="0.6"/>
<path opacity="0.6" d="M102.962 249.603L103.994 266.349C104.078 267.706 103.838 269.039 103.299 270.204C102.761 271.368 101.945 272.32 100.94 272.954L93.6536 277.542C93.163 277.853 92.6332 278.082 92.0791 278.223L82.4459 280.724C82.1373 280.8 81.8235 280.854 81.5064 280.883L72.5427 281.606C71.6581 281.68 70.758 281.538 69.9003 281.19C69.0426 280.843 68.2461 280.297 67.5619 279.588L66.2264 278.209C69.9173 276.13 78.2131 275.069 82.4979 274.292C88.1126 273.265 99.8232 271.196 100.257 266.371C100.691 261.546 96.5024 258.284 97.6186 257.425C104.409 252.2 94.722 238.919 86.6986 237.552C83.2701 236.962 81.4066 229.561 74.6863 236.255C75.1233 235.211 75.7944 231.201 76.6581 230.54L77.487 229.884C78.6039 229.001 79.9642 228.578 81.3623 228.681C82.7604 228.785 84.1204 229.407 85.2371 230.456L90.207 235.188L100.182 243.854C100.979 244.537 101.643 245.408 102.124 246.404C102.606 247.399 102.892 248.493 102.962 249.603V249.603Z" fill="url(#paint17_radial_1213_579)"/>
<path d="M102.963 249.603L103.994 266.349C104.079 267.706 103.838 269.039 103.3 270.204C102.761 271.368 101.945 272.319 100.94 272.953L93.6541 277.542C93.1635 277.853 92.6337 278.082 92.0796 278.223L82.4464 280.724C82.1378 280.8 81.824 280.854 81.5068 280.883L72.5432 281.606C71.6586 281.68 70.7585 281.538 69.9008 281.19C69.043 280.843 68.2465 280.297 67.5624 279.588L66.2268 278.209L64.1027 276.021C63.1879 275.074 62.5031 273.87 62.1242 272.543L58.6102 260.222C58.1995 258.791 58.1655 257.279 58.5125 255.881L59.1865 253.151C59.515 251.828 60.1692 250.663 61.0732 249.793C61.9772 248.922 63.094 248.381 64.2941 248.231L69.2907 247.627C70.1835 247.524 71.0351 247.204 71.7896 246.685C72.544 246.167 73.1841 245.464 73.6677 244.621C74.1513 243.778 74.4674 242.815 74.5953 241.796C74.7232 240.777 74.6599 239.724 74.4096 238.707L74.3148 238.297C73.9649 236.837 73.9994 235.317 74.414 233.936C74.8285 232.555 75.6038 231.376 76.6388 230.554L77.4677 229.898C78.5849 229.007 79.9482 228.579 81.3506 228.68C82.7529 228.78 84.1177 229.404 85.2376 230.456L90.2075 235.188L100.183 243.854C100.98 244.537 101.644 245.408 102.125 246.404C102.606 247.399 102.893 248.493 102.963 249.603V249.603Z" stroke="#182338" stroke-width="2.69737" stroke-miterlimit="10"/>
<path d="M56.6534 197.962L97.2275 194.906L121.074 223.713L84.9199 268.515L47.534 229.252L56.6534 197.962Z" fill="url(#paint18_radial_1213_579)"/>
<path d="M67.7519 209.877L56.6534 197.962M67.7519 209.877L93.1107 207.967M67.7519 209.877L61.5768 229.469M56.6534 197.962L97.2275 194.906M56.6534 197.962L47.534 229.252M97.2275 194.906L93.1107 207.967M97.2275 194.906L121.074 223.713M93.1107 207.967L107.223 226.031M47.534 229.252L61.5768 229.469M47.534 229.252L84.9199 268.515M61.5768 229.469L85.1373 254.472M84.9199 268.515L85.1373 254.472M84.9199 268.515L121.074 223.713M85.1373 254.472L107.223 226.031M107.223 226.031L121.074 223.713" stroke="#182338" stroke-width="2.54306"/>
<path d="M92.9768 207.977L67.351 209.907L61.5914 229.669L85.2036 254.467L107.237 226.231L92.9768 207.977Z" fill="url(#paint19_radial_1213_579)" stroke="#182338" stroke-width="2.54306"/>
<path d="M91.7259 229.062C91.8254 229.381 91.9102 229.703 91.9772 230.029C92.0847 230.54 92.143 231.058 92.1514 231.58C92.1696 233.058 91.767 234.441 90.9862 235.724C89.9879 237.363 88.5514 238.521 86.706 239.214C85.9133 239.511 85.0896 239.707 84.5294 239.711C82.1796 239.889 80.2954 239.389 78.6555 238.273C78.4745 238.15 78.2964 238.019 78.1213 237.881C77.6384 237.5 77.2066 237.064 76.8351 236.583C76.434 236.061 76.0952 235.499 75.8249 234.906C75.3019 233.772 75.1044 232.58 75.168 231.351C75.2362 230.029 75.5556 228.752 76.043 227.506C76.4281 226.521 76.9456 225.601 77.4634 224.68C77.6167 224.407 77.77 224.135 77.9199 223.86C78.6641 222.499 79.4028 221.132 80.083 219.742C80.1311 219.643 80.1783 219.544 80.2244 219.444C80.402 219.064 80.5661 218.678 80.7269 218.29C80.8138 218.079 80.8995 217.868 80.9851 217.657C81.1122 217.344 81.2394 217.03 81.3707 216.718C81.38 216.696 81.389 216.674 81.3981 216.652C81.4216 216.595 81.4451 216.538 81.472 216.482C81.6707 216.076 81.9968 215.833 82.474 215.804C82.9511 215.776 83.313 215.974 83.5511 216.355C83.6866 216.571 83.8115 216.794 83.9363 217.017C84.0212 217.168 84.106 217.32 84.1942 217.469C84.3881 217.795 84.5867 218.119 84.7897 218.44C84.8156 218.48 84.831 218.526 84.8345 218.573C84.8381 218.621 84.8298 218.668 84.8102 218.712L83.9964 220.523C83.985 220.55 83.9661 220.572 83.9418 220.589C83.9176 220.605 83.8891 220.615 83.8594 220.617C83.8298 220.618 83.8003 220.612 83.7743 220.599C83.7484 220.585 83.727 220.565 83.7126 220.541C83.3142 219.879 82.9984 219.355 82.9571 219.289C82.9107 219.211 82.86 219.135 82.8053 219.062C82.7279 218.964 82.6541 218.972 82.5868 219.08C82.5686 219.11 82.5526 219.141 82.5391 219.174L82.5324 219.19C82.4731 219.328 82.413 219.467 82.3521 219.605C81.4255 221.708 80.3151 223.725 79.155 225.721C78.2681 227.245 77.5485 228.822 77.2806 230.56C77.1066 231.69 77.1335 232.795 77.5726 233.867C77.8478 234.539 78.2025 235.138 78.6424 235.658C79.2191 236.34 79.9539 236.886 80.7902 237.254C80.9538 237.327 81.1231 237.394 81.298 237.456C83.1273 238.105 84.9362 237.979 86.6776 237.125C87.9359 236.507 88.8695 235.57 89.4742 234.347C89.7714 233.745 90.2034 232.366 90.1272 230.656C90.1249 230.611 90.1334 230.566 90.1521 230.525L91.1651 228.27C91.1777 228.242 91.1991 228.218 91.2264 228.202C91.2536 228.185 91.2854 228.177 91.3175 228.178C91.3496 228.179 91.3805 228.19 91.4061 228.208C91.4316 228.226 91.4506 228.252 91.4605 228.281C91.5719 228.607 91.7155 229.028 91.7259 229.062Z" fill="url(#paint20_radial_1213_579)"/>
<path d="M90.9493 227.189C90.9495 227.23 90.9406 227.271 90.9231 227.308C90.7052 227.796 90.5058 228.229 90.3259 228.619C90.2033 228.886 90.0897 229.132 89.9853 229.363C89.9728 229.391 89.9517 229.415 89.9248 229.432C89.8978 229.448 89.8663 229.456 89.8344 229.455C89.8025 229.455 89.7717 229.445 89.7461 229.427C89.7204 229.409 89.7011 229.384 89.6908 229.355C89.5521 228.969 89.4408 228.687 89.3922 228.576C89.3436 228.465 89.294 228.357 89.294 228.357C89.2626 228.289 89.2303 228.222 89.1973 228.154C89.1884 228.135 89.1793 228.117 89.1702 228.098C89.1654 228.089 89.1606 228.079 89.1557 228.069C89.0522 227.861 88.9426 227.655 88.8269 227.451L88.8152 227.431L88.813 227.427C88.7176 227.26 88.6186 227.095 88.516 226.933C87.859 225.936 87.8092 226.251 87.7197 226.819C87.7016 226.934 87.6818 227.059 87.655 227.186L87.6552 227.189C87.5298 228.076 87.1557 229.4 86.4343 230.88C85.6048 232.582 84.488 234.144 83.1285 235.506C83.0597 235.569 82.9689 235.606 82.8738 235.609C82.7787 235.612 82.6861 235.581 82.6142 235.522L81.0827 234.272C81.0458 234.242 81.0159 234.205 80.9947 234.163C80.9736 234.121 80.9617 234.076 80.9598 234.03C80.9579 233.983 80.9661 233.937 80.9837 233.894C81.0014 233.85 81.0283 233.811 81.0626 233.777C81.0868 233.754 87.2916 226.407 84.7567 222.015C84.7165 221.937 84.5983 221.742 84.4289 221.483C84.4225 221.474 84.4161 221.465 84.41 221.456C84.3808 221.415 84.363 221.367 84.3581 221.317C84.3533 221.267 84.3616 221.217 84.3823 221.171L85.1562 219.448C85.1676 219.423 85.1859 219.401 85.2093 219.385C85.2326 219.369 85.2602 219.359 85.2888 219.357C85.3175 219.355 85.3463 219.36 85.372 219.372C85.3977 219.384 85.4195 219.402 85.4348 219.425C85.5466 219.592 85.6596 219.757 85.7739 219.922C86.3515 220.756 86.9561 221.573 87.5791 222.379C87.8126 222.681 88.0497 222.98 88.2868 223.28C88.8347 223.972 89.3828 224.664 89.8858 225.386C90.4499 226.195 90.7335 226.693 90.9219 227.07C90.9398 227.107 90.9491 227.148 90.9493 227.189Z" fill="url(#paint21_radial_1213_579)"/>
<path d="M358.132 159.388L358.016 159.342C357.316 159.066 356.566 158.937 355.813 158.962C355.061 158.987 354.321 159.165 353.64 159.486C352.958 159.806 352.35 160.263 351.851 160.827C351.352 161.391 350.974 162.052 350.74 162.767L350.572 163.28C350.3 164.105 350.227 164.982 350.358 165.841C350.49 166.7 350.821 167.515 351.327 168.222L362.511 183.878C363.37 185.071 364.666 185.876 366.117 186.116L366.875 186.251C367.72 186.389 368.586 186.329 369.405 186.075C370.224 185.822 370.972 185.382 371.592 184.791C372.212 184.199 372.686 183.472 372.978 182.666C373.27 181.861 373.37 180.998 373.272 180.147C373.164 179.214 372.818 178.323 372.268 177.561L360.594 161.317C359.978 160.448 359.123 159.778 358.132 159.388Z" fill="url(#paint22_radial_1213_579)" stroke="#182338" stroke-width="2.69737" stroke-miterlimit="10"/>
<path d="M358.083 165.278L367.823 179.024C368.611 180.138 369.69 181.014 370.942 181.557C372.195 182.099 373.572 182.288 374.924 182.101L384.703 180.747C385.376 180.656 386.032 180.472 386.654 180.2L397.328 175.623C397.668 175.474 397.998 175.303 398.315 175.111L407.209 169.607C408.089 169.065 408.846 168.345 409.432 167.493C410.018 166.641 410.419 165.676 410.61 164.66L410.986 162.681L411.587 159.537C411.843 158.18 411.719 156.778 411.227 155.487L406.657 143.508C406.128 142.115 405.193 140.913 403.972 140.06L401.558 138.357C400.403 137.549 399.042 137.085 397.633 137.019C396.225 136.953 394.826 137.287 393.6 137.984L388.507 140.898C387.601 141.423 386.593 141.749 385.551 141.857C384.509 141.964 383.456 141.85 382.461 141.52C381.467 141.191 380.553 140.655 379.78 139.948C379.008 139.24 378.394 138.377 377.979 137.415L377.807 137.032C377.202 135.657 376.198 134.496 374.924 133.701C373.65 132.906 372.166 132.513 370.665 132.573L369.465 132.624C367.839 132.691 366.28 133.288 365.026 134.324C363.771 135.359 362.889 136.777 362.515 138.36L360.86 145.435L357.006 158.943C356.699 160.013 356.636 161.137 356.823 162.234C357.01 163.33 357.44 164.371 358.083 165.278Z" fill="url(#paint23_radial_1213_579)"/>
<path opacity="0.6" d="M358.083 165.278L367.823 179.024C368.611 180.138 369.69 181.014 370.942 181.557C372.195 182.099 373.572 182.288 374.924 182.101L384.703 180.747C385.376 180.656 386.032 180.472 386.654 180.2L397.328 175.623C397.668 175.474 397.998 175.303 398.315 175.111L407.209 169.607C408.089 169.065 408.846 168.345 409.432 167.493C410.018 166.641 410.419 165.676 410.61 164.66L410.986 162.681L411.587 159.537C411.843 158.18 411.719 156.778 411.227 155.487L406.657 143.508C406.128 142.115 405.193 140.913 403.972 140.06L401.558 138.357C400.403 137.549 399.042 137.085 397.633 137.019C396.225 136.953 394.826 137.287 393.6 137.984L388.507 140.898C387.601 141.423 386.593 141.749 385.551 141.857C384.509 141.964 383.456 141.85 382.461 141.52C381.467 141.191 380.553 140.655 379.78 139.948C379.008 139.24 378.394 138.377 377.979 137.415L377.807 137.032C377.202 135.657 376.198 134.496 374.924 133.701C373.65 132.906 372.166 132.513 370.665 132.573L369.465 132.624C367.839 132.691 366.28 133.288 365.026 134.324C363.771 135.359 362.889 136.777 362.515 138.36L360.86 145.435L357.006 158.943C356.699 160.013 356.636 161.137 356.823 162.234C357.01 163.33 357.44 164.371 358.083 165.278Z" fill="url(#paint24_radial_1213_579)"/>
<path opacity="0.6" d="M358.083 165.278L367.822 179.024C368.61 180.138 369.69 181.014 370.942 181.557C372.194 182.099 373.571 182.288 374.923 182.101L384.703 180.747C385.375 180.656 386.032 180.472 386.653 180.2L397.328 175.623C397.667 175.474 397.997 175.303 398.315 175.111L407.208 169.607C408.089 169.065 408.846 168.345 409.432 167.493C410.017 166.641 410.418 165.676 410.609 164.66L410.986 162.681C406.179 163.562 397.685 168.354 393.152 170.651C387.206 173.655 374.851 179.975 371.356 176.51C367.861 173.044 369.721 167.666 368.12 167.752C358.381 168.281 359.012 151.372 365.695 144.872C368.548 142.09 365.569 135.061 376.181 135.724C375.102 135.207 371.905 132.537 370.669 132.607L369.469 132.658C367.843 132.725 366.284 133.322 365.029 134.358C363.775 135.393 362.893 136.811 362.519 138.394L360.859 145.435L357.005 158.943C356.698 160.013 356.636 161.137 356.822 162.233C357.009 163.33 357.44 164.371 358.083 165.278Z" fill="url(#paint25_radial_1213_579)"/>
<path d="M358.083 165.278L367.823 179.024C368.611 180.138 369.69 181.014 370.942 181.557C372.195 182.099 373.572 182.288 374.924 182.101L384.703 180.747C385.376 180.656 386.032 180.472 386.654 180.2L397.328 175.623C397.668 175.474 397.998 175.303 398.315 175.111L407.209 169.607C408.089 169.065 408.846 168.345 409.432 167.493C410.018 166.641 410.419 165.676 410.61 164.66L410.986 162.681L411.587 159.537C411.843 158.18 411.719 156.778 411.227 155.487L406.657 143.508C406.128 142.115 405.193 140.913 403.972 140.06L401.558 138.357C400.403 137.549 399.042 137.085 397.633 137.019C396.225 136.953 394.826 137.287 393.6 137.984L388.507 140.898C387.601 141.423 386.593 141.749 385.551 141.857C384.509 141.964 383.456 141.85 382.461 141.52C381.467 141.191 380.553 140.655 379.78 139.948C379.008 139.24 378.394 138.377 377.979 137.415L377.807 137.032C377.202 135.657 376.198 134.496 374.924 133.701C373.65 132.906 372.166 132.513 370.665 132.573L369.465 132.624C367.839 132.691 366.28 133.288 365.026 134.324C363.771 135.359 362.889 136.777 362.515 138.36L360.86 145.435L357.006 158.943C356.699 160.013 356.636 161.137 356.823 162.234C357.01 163.33 357.44 164.371 358.083 165.278V165.278Z" stroke="#182338" stroke-width="2.69737" stroke-miterlimit="10"/>
<path d="M78.8593 248.853L72.7526 247.326L63.3545 247.326C63.3545 250.634 71.2259 258.929 71.2259 259.539C71.2259 260.15 73.7703 264.883 75.0426 267.173L81.1493 264.119L81.9126 256.486L78.8593 248.853Z" fill="#72CAA8"/>
<path d="M78.2184 266.82L78.8154 268.032L78.8977 267.992L78.9737 267.94L78.2184 266.82ZM81.6774 262.962L80.327 262.918L81.6774 262.962ZM81.8182 258.607L83.1686 258.65L81.8182 258.607ZM72.146 246.593L72.5085 245.291L72.146 246.593ZM71.7835 247.894C73.1983 248.288 75.0535 248.897 76.576 249.593C77.3415 249.943 77.9715 250.292 78.4101 250.618C78.9082 250.987 78.9193 251.15 78.8986 251.055L81.54 250.484C81.3407 249.561 80.6164 248.89 80.021 248.448C79.3662 247.962 78.5446 247.522 77.6995 247.135C76.0006 246.359 73.9978 245.706 72.5085 245.291L71.7835 247.894ZM78.8986 251.055C78.8993 251.058 78.9 251.061 78.9007 251.064C78.9015 251.068 78.9022 251.071 78.9029 251.074C78.9036 251.078 78.9043 251.081 78.905 251.084C78.9057 251.088 78.9065 251.091 78.9072 251.094C78.9079 251.097 78.9086 251.101 78.9093 251.104C78.9101 251.108 78.9108 251.111 78.9115 251.114C78.9122 251.118 78.9129 251.121 78.9137 251.124C78.9144 251.128 78.9151 251.131 78.9159 251.134C78.9166 251.138 78.9173 251.141 78.9181 251.145C78.9188 251.148 78.9195 251.151 78.9203 251.155C78.921 251.158 78.9217 251.162 78.9225 251.165C78.9232 251.168 78.924 251.172 78.9247 251.175C78.9254 251.179 78.9262 251.182 78.9269 251.186C78.9277 251.189 78.9284 251.193 78.9292 251.196C78.9299 251.199 78.9307 251.203 78.9314 251.206C78.9322 251.21 78.9329 251.213 78.9337 251.217C78.9344 251.22 78.9352 251.224 78.9359 251.227C78.9367 251.231 78.9375 251.234 78.9382 251.238C78.939 251.241 78.9397 251.245 78.9405 251.249C78.9413 251.252 78.942 251.256 78.9428 251.259C78.9436 251.263 78.9443 251.266 78.9451 251.27C78.9459 251.273 78.9466 251.277 78.9474 251.28C78.9482 251.284 78.9489 251.288 78.9497 251.291C78.9505 251.295 78.9513 251.298 78.952 251.302C78.9528 251.306 78.9536 251.309 78.9544 251.313C78.9552 251.316 78.9559 251.32 78.9567 251.324C78.9575 251.327 78.9583 251.331 78.9591 251.335C78.9598 251.338 78.9606 251.342 78.9614 251.345C78.9622 251.349 78.963 251.353 78.9638 251.356C78.9646 251.36 78.9654 251.364 78.9662 251.367C78.967 251.371 78.9678 251.375 78.9686 251.378C78.9693 251.382 78.9701 251.386 78.9709 251.39C78.9717 251.393 78.9725 251.397 78.9733 251.401C78.9741 251.404 78.9749 251.408 78.9758 251.412C78.9766 251.416 78.9774 251.419 78.9782 251.423C78.979 251.427 78.9798 251.43 78.9806 251.434C78.9814 251.438 78.9822 251.442 78.983 251.445C78.9838 251.449 78.9846 251.453 78.9855 251.457C78.9863 251.461 78.9871 251.464 78.9879 251.468C78.9887 251.472 78.9895 251.476 78.9904 251.479C78.9912 251.483 78.992 251.487 78.9928 251.491C78.9937 251.495 78.9945 251.499 78.9953 251.502C78.9961 251.506 78.997 251.51 78.9978 251.514C78.9986 251.518 78.9994 251.522 79.0003 251.525C79.0011 251.529 79.0019 251.533 79.0028 251.537C79.0036 251.541 79.0044 251.545 79.0053 251.549C79.0061 251.552 79.0069 251.556 79.0078 251.56C79.0086 251.564 79.0095 251.568 79.0103 251.572C79.0111 251.576 79.012 251.58 79.0128 251.583C79.0137 251.587 79.0145 251.591 79.0154 251.595C79.0162 251.599 79.0171 251.603 79.0179 251.607C79.0187 251.611 79.0196 251.615 79.0204 251.619C79.0213 251.623 79.0222 251.627 79.023 251.631C79.0239 251.635 79.0247 251.639 79.0256 251.643C79.0264 251.646 79.0273 251.65 79.0281 251.654C79.029 251.658 79.0299 251.662 79.0307 251.666C79.0316 251.67 79.0324 251.674 79.0333 251.678C79.0342 251.682 79.035 251.686 79.0359 251.69C79.0368 251.694 79.0376 251.698 79.0385 251.702C79.0394 251.706 79.0402 251.71 79.0411 251.714C79.042 251.718 79.0428 251.723 79.0437 251.727C79.0446 251.731 79.0455 251.735 79.0463 251.739C79.0472 251.743 79.0481 251.747 79.049 251.751C79.0498 251.755 79.0507 251.759 79.0516 251.763C79.0525 251.767 79.0534 251.771 79.0542 251.775C79.0551 251.779 79.056 251.783 79.0569 251.788C79.0578 251.792 79.0587 251.796 79.0596 251.8C79.0604 251.804 79.0613 251.808 79.0622 251.812C79.0631 251.816 79.064 251.82 79.0649 251.825C79.0658 251.829 79.0667 251.833 79.0676 251.837C79.0685 251.841 79.0694 251.845 79.0702 251.849C79.0711 251.854 79.072 251.858 79.0729 251.862C79.0738 251.866 79.0747 251.87 79.0756 251.874C79.0765 251.879 79.0774 251.883 79.0783 251.887C79.0792 251.891 79.0801 251.895 79.0811 251.899C79.082 251.904 79.0829 251.908 79.0838 251.912C79.0847 251.916 79.0856 251.92 79.0865 251.925C79.0874 251.929 79.0883 251.933 79.0892 251.937C79.0901 251.942 79.0911 251.946 79.092 251.95C79.0929 251.954 79.0938 251.958 79.0947 251.963C79.0956 251.967 79.0965 251.971 79.0975 251.975C79.0984 251.98 79.0993 251.984 79.1002 251.988C79.1011 251.993 79.1021 251.997 79.103 252.001C79.1039 252.005 79.1048 252.01 79.1058 252.014C79.1067 252.018 79.1076 252.022 79.1085 252.027C79.1095 252.031 79.1104 252.035 79.1113 252.04C79.1122 252.044 79.1132 252.048 79.1141 252.053C79.115 252.057 79.116 252.061 79.1169 252.065C79.1178 252.07 79.1188 252.074 79.1197 252.078C79.1206 252.083 79.1216 252.087 79.1225 252.091C79.1234 252.096 79.1244 252.1 79.1253 252.105C79.1263 252.109 79.1272 252.113 79.1281 252.118C79.1291 252.122 79.13 252.126 79.131 252.131C79.1319 252.135 79.1329 252.139 79.1338 252.144C79.1347 252.148 79.1357 252.153 79.1366 252.157C79.1376 252.161 79.1385 252.166 79.1395 252.17C79.1404 252.174 79.1414 252.179 79.1423 252.183C79.1433 252.188 79.1442 252.192 79.1452 252.197C79.1461 252.201 79.1471 252.205 79.1481 252.21C79.149 252.214 79.15 252.219 79.1509 252.223C79.1519 252.228 79.1528 252.232 79.1538 252.236C79.1548 252.241 79.1557 252.245 79.1567 252.25C79.1576 252.254 79.1586 252.259 79.1596 252.263C79.1605 252.268 79.1615 252.272 79.1625 252.276C79.1634 252.281 79.1644 252.285 79.1654 252.29C79.1663 252.294 79.1673 252.299 79.1683 252.303C79.1692 252.308 79.1702 252.312 79.1712 252.317C79.1721 252.321 79.1731 252.326 79.1741 252.33C79.175 252.335 79.176 252.339 79.177 252.344C79.178 252.348 79.1789 252.353 79.1799 252.357C79.1809 252.362 79.1819 252.366 79.1829 252.371C79.1838 252.375 79.1848 252.38 79.1858 252.385C79.1868 252.389 79.1877 252.394 79.1887 252.398C79.1897 252.403 79.1907 252.407 79.1917 252.412C79.1927 252.416 79.1936 252.421 79.1946 252.425C79.1956 252.43 79.1966 252.435 79.1976 252.439C79.1986 252.444 79.1996 252.448 79.2005 252.453C79.2015 252.457 79.2025 252.462 79.2035 252.467C79.2045 252.471 79.2055 252.476 79.2065 252.48C79.2075 252.485 79.2085 252.49 79.2095 252.494C79.2105 252.499 79.2115 252.503 79.2124 252.508C79.2134 252.513 79.2144 252.517 79.2154 252.522C79.2164 252.526 79.2174 252.531 79.2184 252.536C79.2194 252.54 79.2204 252.545 79.2214 252.55C79.2224 252.554 79.2234 252.559 79.2244 252.564C79.2254 252.568 79.2264 252.573 79.2274 252.577C79.2284 252.582 79.2295 252.587 79.2305 252.591C79.2315 252.596 79.2325 252.601 79.2335 252.605C79.2345 252.61 79.2355 252.615 79.2365 252.619C79.2375 252.624 79.2385 252.629 79.2395 252.633C79.2405 252.638 79.2415 252.643 79.2426 252.647C79.2436 252.652 79.2446 252.657 79.2456 252.662C79.2466 252.666 79.2476 252.671 79.2486 252.676C79.2497 252.68 79.2507 252.685 79.2517 252.69C79.2527 252.694 79.2537 252.699 79.2547 252.704C79.2558 252.709 79.2568 252.713 79.2578 252.718C79.2588 252.723 79.2598 252.727 79.2609 252.732C79.2619 252.737 79.2629 252.742 79.2639 252.746C79.2649 252.751 79.266 252.756 79.267 252.761C79.268 252.765 79.269 252.77 79.2701 252.775C79.2711 252.78 79.2721 252.784 79.2731 252.789C79.2742 252.794 79.2752 252.799 79.2762 252.803C79.2773 252.808 79.2783 252.813 79.2793 252.818C79.2803 252.822 79.2814 252.827 79.2824 252.832C79.2834 252.837 79.2845 252.842 79.2855 252.846C79.2865 252.851 79.2876 252.856 79.2886 252.861C79.2896 252.866 79.2907 252.87 79.2917 252.875C79.2927 252.88 79.2938 252.885 79.2948 252.89C79.2959 252.894 79.2969 252.899 79.2979 252.904C79.299 252.909 79.3 252.914 79.3011 252.918C79.3021 252.923 79.3031 252.928 79.3042 252.933C79.3052 252.938 79.3063 252.942 79.3073 252.947C79.3083 252.952 79.3094 252.957 79.3104 252.962C79.3115 252.967 79.3125 252.971 79.3136 252.976C79.3146 252.981 79.3157 252.986 79.3167 252.991C79.3177 252.996 79.3188 253.001 79.3198 253.005C79.3209 253.01 79.3219 253.015 79.323 253.02C79.324 253.025 79.3251 253.03 79.3261 253.035C79.3272 253.039 79.3282 253.044 79.3293 253.049C79.3303 253.054 79.3314 253.059 79.3324 253.064C79.3335 253.069 79.3346 253.074 79.3356 253.078C79.3367 253.083 79.3377 253.088 79.3388 253.093C79.3398 253.098 79.3409 253.103 79.3419 253.108C79.343 253.113 79.3441 253.118 79.3451 253.122C79.3462 253.127 79.3472 253.132 79.3483 253.137C79.3494 253.142 79.3504 253.147 79.3515 253.152C79.3525 253.157 79.3536 253.162 79.3547 253.167C79.3557 253.172 79.3568 253.176 79.3578 253.181C79.3589 253.186 79.36 253.191 79.361 253.196C79.3621 253.201 79.3632 253.206 79.3642 253.211C79.3653 253.216 79.3664 253.221 79.3674 253.226C79.3685 253.231 79.3696 253.236 79.3706 253.241C79.3717 253.246 79.3728 253.25 79.3738 253.255C79.3749 253.26 79.376 253.265 79.377 253.27C79.3781 253.275 79.3792 253.28 79.3802 253.285C79.3813 253.29 79.3824 253.295 79.3835 253.3C79.3845 253.305 79.3856 253.31 79.3867 253.315C79.3877 253.32 79.3888 253.325 79.3899 253.33C79.391 253.335 79.392 253.34 79.3931 253.345C79.3942 253.35 79.3953 253.355 79.3963 253.36C79.3974 253.365 79.3985 253.37 79.3996 253.375C79.4006 253.38 79.4017 253.385 79.4028 253.39C79.4039 253.395 79.405 253.4 79.406 253.405C79.4071 253.41 79.4082 253.415 79.4093 253.42C79.4104 253.425 79.4114 253.43 79.4125 253.435C79.4136 253.44 79.4147 253.445 79.4158 253.45C79.4168 253.455 79.4179 253.46 79.419 253.465C79.4201 253.47 79.4212 253.475 79.4223 253.48C79.4233 253.485 79.4244 253.49 79.4255 253.495C79.4266 253.5 79.4277 253.505 79.4288 253.51C79.4299 253.515 79.4309 253.52 79.432 253.525C79.4331 253.53 79.4342 253.535 79.4353 253.54C79.4364 253.545 79.4375 253.55 79.4386 253.555C79.4396 253.56 79.4407 253.565 79.4418 253.57C79.4429 253.575 79.444 253.58 79.4451 253.585C79.4462 253.591 79.4473 253.596 79.4484 253.601C79.4495 253.606 79.4505 253.611 79.4516 253.616C79.4527 253.621 79.4538 253.626 79.4549 253.631C79.456 253.636 79.4571 253.641 79.4582 253.646C79.4593 253.651 79.4604 253.656 79.4615 253.661C79.4626 253.666 79.4637 253.671 79.4648 253.677C79.4659 253.682 79.467 253.687 79.468 253.692C79.4691 253.697 79.4702 253.702 79.4713 253.707C79.4724 253.712 79.4735 253.717 79.4746 253.722C79.4757 253.727 79.4768 253.732 79.4779 253.738C79.479 253.743 79.4801 253.748 79.4812 253.753C79.4823 253.758 79.4834 253.763 79.4845 253.768C79.4856 253.773 79.4867 253.778 79.4878 253.783C79.4889 253.788 79.49 253.794 79.4911 253.799C79.4922 253.804 79.4933 253.809 79.4944 253.814C79.4955 253.819 79.4966 253.824 79.4977 253.829C79.4988 253.834 79.4999 253.839 79.501 253.845C79.5021 253.85 79.5032 253.855 79.5043 253.86C79.5055 253.865 79.5066 253.87 79.5077 253.875C79.5088 253.88 79.5099 253.885 79.511 253.891C79.5121 253.896 79.5132 253.901 79.5143 253.906C79.5154 253.911 79.5165 253.916 79.5176 253.921C79.5187 253.926 79.5198 253.932 79.5209 253.937C79.522 253.942 79.5231 253.947 79.5243 253.952C79.5254 253.957 79.5265 253.962 79.5276 253.967C79.5287 253.973 79.5298 253.978 79.5309 253.983C79.532 253.988 79.5331 253.993 79.5342 253.998C79.5353 254.003 79.5364 254.009 79.5376 254.014C79.5387 254.019 79.5398 254.024 79.5409 254.029C79.542 254.034 79.5431 254.039 79.5442 254.045C79.5453 254.05 79.5464 254.055 79.5476 254.06C79.5487 254.065 79.5498 254.07 79.5509 254.075C79.552 254.081 79.5531 254.086 79.5542 254.091C79.5553 254.096 79.5564 254.101 79.5576 254.106C79.5587 254.111 79.5598 254.117 79.5609 254.122C79.562 254.127 79.5631 254.132 79.5642 254.137C79.5654 254.142 79.5665 254.148 79.5676 254.153C79.5687 254.158 79.5698 254.163 79.5709 254.168C79.572 254.173 79.5732 254.179 79.5743 254.184C79.5754 254.189 79.5765 254.194 79.5776 254.199C79.5787 254.204 79.5798 254.21 79.581 254.215C79.5821 254.22 79.5832 254.225 79.5843 254.23C79.5854 254.235 79.5865 254.241 79.5877 254.246C79.5888 254.251 79.5899 254.256 79.591 254.261C79.5921 254.266 79.5932 254.272 79.5944 254.277C79.5955 254.282 79.5966 254.287 79.5977 254.292C79.5988 254.297 79.6 254.303 79.6011 254.308C79.6022 254.313 79.6033 254.318 79.6044 254.323C79.6055 254.329 79.6067 254.334 79.6078 254.339C79.6089 254.344 79.61 254.349 79.6111 254.354C79.6123 254.36 79.6134 254.365 79.6145 254.37C79.6156 254.375 79.6167 254.38 79.6179 254.386C79.619 254.391 79.6201 254.396 79.6212 254.401C79.6223 254.406 79.6235 254.412 79.6246 254.417C79.6257 254.422 79.6268 254.427 79.6279 254.432C79.6291 254.437 79.6302 254.443 79.6313 254.448C79.6324 254.453 79.6335 254.458 79.6347 254.463C79.6358 254.469 79.6369 254.474 79.638 254.479C79.6391 254.484 79.6403 254.489 79.6414 254.495C79.6425 254.5 79.6436 254.505 79.6447 254.51C79.6459 254.515 79.647 254.521 79.6481 254.526C79.6492 254.531 79.6504 254.536 79.6515 254.541C79.6526 254.546 79.6537 254.552 79.6548 254.557C79.656 254.562 79.6571 254.567 79.6582 254.572C79.6593 254.578 79.6605 254.583 79.6616 254.588C79.6627 254.593 79.6638 254.598 79.6649 254.604C79.6661 254.609 79.6672 254.614 79.6683 254.619C79.6694 254.624 79.6706 254.63 79.6717 254.635C79.6728 254.64 79.6739 254.645 79.675 254.65C79.6762 254.656 79.6773 254.661 79.6784 254.666C79.6795 254.671 79.6807 254.676 79.6818 254.682C79.6829 254.687 79.684 254.692 79.6851 254.697C79.6863 254.702 79.6874 254.708 79.6885 254.713C79.6896 254.718 79.6908 254.723 79.6919 254.728C79.693 254.734 79.6941 254.739 79.6952 254.744C79.6964 254.749 79.6975 254.754 79.6986 254.76C79.6997 254.765 79.7009 254.77 79.702 254.775C79.7031 254.78 79.7042 254.786 79.7054 254.791C79.7065 254.796 79.7076 254.801 79.7087 254.806C79.7098 254.812 79.711 254.817 79.7121 254.822C79.7132 254.827 79.7143 254.832 79.7155 254.838C79.7166 254.843 79.7177 254.848 79.7188 254.853C79.7199 254.858 79.7211 254.864 79.7222 254.869C79.7233 254.874 79.7244 254.879 79.7256 254.884C79.7267 254.89 79.7278 254.895 79.7289 254.9C79.73 254.905 79.7312 254.91 79.7323 254.916C79.7334 254.921 79.7345 254.926 79.7357 254.931C79.7368 254.936 79.7379 254.942 79.739 254.947C79.7401 254.952 79.7413 254.957 79.7424 254.962C79.7435 254.968 79.7446 254.973 79.7458 254.978C79.7469 254.983 79.748 254.988 79.7491 254.994C79.7502 254.999 79.7514 255.004 79.7525 255.009C79.7536 255.014 79.7547 255.019 79.7558 255.025C79.757 255.03 79.7581 255.035 79.7592 255.04C79.7603 255.045 79.7615 255.051 79.7626 255.056C79.7637 255.061 79.7648 255.066 79.7659 255.071C79.7671 255.077 79.7682 255.082 79.7693 255.087C79.7704 255.092 79.7715 255.097 79.7727 255.103C79.7738 255.108 79.7749 255.113 79.776 255.118C79.7771 255.123 79.7783 255.128 79.7794 255.134C79.7805 255.139 79.7816 255.144 79.7827 255.149C79.7839 255.154 79.785 255.16 79.7861 255.165C79.7872 255.17 79.7883 255.175 79.7894 255.18C79.7906 255.185 79.7917 255.191 79.7928 255.196C79.7939 255.201 79.795 255.206 79.7962 255.211C79.7973 255.217 79.7984 255.222 79.7995 255.227C79.8006 255.232 79.8017 255.237 79.8029 255.242C79.804 255.248 79.8051 255.253 79.8062 255.258C79.8073 255.263 79.8084 255.268 79.8096 255.273C79.8107 255.279 79.8118 255.284 79.8129 255.289C79.814 255.294 79.8151 255.299 79.8163 255.304C79.8174 255.31 79.8185 255.315 79.8196 255.32C79.8207 255.325 79.8218 255.33 79.8229 255.335C79.8241 255.341 79.8252 255.346 79.8263 255.351C79.8274 255.356 79.8285 255.361 79.8296 255.366C79.8308 255.372 79.8319 255.377 79.833 255.382C79.8341 255.387 79.8352 255.392 79.8363 255.397C79.8374 255.403 79.8385 255.408 79.8397 255.413C79.8408 255.418 79.8419 255.423 79.843 255.428C79.8441 255.433 79.8452 255.439 79.8463 255.444C79.8474 255.449 79.8486 255.454 79.8497 255.459C79.8508 255.464 79.8519 255.469 79.853 255.475C79.8541 255.48 79.8552 255.485 79.8563 255.49C79.8574 255.495 79.8585 255.5 79.8597 255.505C79.8608 255.511 79.8619 255.516 79.863 255.521C79.8641 255.526 79.8652 255.531 79.8663 255.536C79.8674 255.541 79.8685 255.547 79.8696 255.552C79.8707 255.557 79.8718 255.562 79.873 255.567C79.8741 255.572 79.8752 255.577 79.8763 255.582C79.8774 255.588 79.8785 255.593 79.8796 255.598C79.8807 255.603 79.8818 255.608 79.8829 255.613C79.884 255.618 79.8851 255.623 79.8862 255.629C79.8873 255.634 79.8884 255.639 79.8895 255.644C79.8906 255.649 79.8917 255.654 79.8929 255.659C79.894 255.664 79.8951 255.669 79.8962 255.675C79.8973 255.68 79.8984 255.685 79.8995 255.69C79.9006 255.695 79.9017 255.7 79.9028 255.705C79.9039 255.71 79.905 255.715 79.9061 255.72C79.9072 255.726 79.9083 255.731 79.9094 255.736C79.9105 255.741 79.9116 255.746 79.9127 255.751C79.9138 255.756 79.9149 255.761 79.916 255.766C79.9171 255.771 79.9182 255.776 79.9193 255.782C79.9204 255.787 79.9215 255.792 79.9226 255.797C79.9237 255.802 79.9248 255.807 79.9259 255.812C79.9269 255.817 79.928 255.822 79.9291 255.827C79.9302 255.832 79.9313 255.837 79.9324 255.842C79.9335 255.848 79.9346 255.853 79.9357 255.858C79.9368 255.863 79.9379 255.868 79.939 255.873C79.9401 255.878 79.9412 255.883 79.9423 255.888C79.9434 255.893 79.9444 255.898 79.9455 255.903C79.9466 255.908 79.9477 255.913 79.9488 255.918C79.9499 255.923 79.951 255.928 79.9521 255.934C79.9532 255.939 79.9543 255.944 79.9553 255.949C79.9564 255.954 79.9575 255.959 79.9586 255.964C79.9597 255.969 79.9608 255.974 79.9619 255.979C79.963 255.984 79.9641 255.989 79.9651 255.994C79.9662 255.999 79.9673 256.004 79.9684 256.009C79.9695 256.014 79.9706 256.019 79.9716 256.024C79.9727 256.029 79.9738 256.034 79.9749 256.039C79.976 256.044 79.9771 256.049 79.9781 256.054C79.9792 256.059 79.9803 256.064 79.9814 256.069C79.9825 256.074 79.9836 256.079 79.9846 256.084C79.9857 256.089 79.9868 256.094 79.9879 256.099C79.989 256.104 79.99 256.109 79.9911 256.114C79.9922 256.119 79.9933 256.124 79.9943 256.129C79.9954 256.134 79.9965 256.139 79.9976 256.144C79.9987 256.149 79.9997 256.154 80.0008 256.159C80.0019 256.164 80.003 256.169 80.004 256.174C80.0051 256.179 80.0062 256.184 80.0073 256.189C80.0083 256.194 80.0094 256.199 80.0105 256.204C80.0115 256.209 80.0126 256.214 80.0137 256.219C80.0148 256.224 80.0158 256.229 80.0169 256.234C80.018 256.239 80.019 256.244 80.0201 256.249C80.0212 256.253 80.0222 256.258 80.0233 256.263C80.0244 256.268 80.0254 256.273 80.0265 256.278C80.0276 256.283 80.0286 256.288 80.0297 256.293C80.0308 256.298 80.0318 256.303 80.0329 256.308C80.034 256.313 80.035 256.318 80.0361 256.323C80.0372 256.328 80.0382 256.332 80.0393 256.337C80.0403 256.342 80.0414 256.347 80.0425 256.352C80.0435 256.357 80.0446 256.362 80.0456 256.367C80.0467 256.372 80.0478 256.377 80.0488 256.382C80.0499 256.386 80.0509 256.391 80.052 256.396C80.0531 256.401 80.0541 256.406 80.0552 256.411C80.0562 256.416 80.0573 256.421 80.0583 256.426C80.0594 256.43 80.0604 256.435 80.0615 256.44C80.0626 256.445 80.0636 256.45 80.0647 256.455C80.0657 256.46 80.0668 256.465 80.0678 256.469C80.0689 256.474 80.0699 256.479 80.071 256.484C80.072 256.489 80.0731 256.494 80.0741 256.499C80.0752 256.504 80.0762 256.508 80.0773 256.513C80.0783 256.518 80.0793 256.523 80.0804 256.528C80.0814 256.533 80.0825 256.537 80.0835 256.542C80.0846 256.547 80.0856 256.552 80.0867 256.557C80.0877 256.562 80.0887 256.566 80.0898 256.571C80.0908 256.576 80.0919 256.581 80.0929 256.586C80.094 256.591 80.095 256.595 80.096 256.6C80.0971 256.605 80.0981 256.61 80.0991 256.615C80.1002 256.619 80.1012 256.624 80.1023 256.629C80.1033 256.634 80.1043 256.639 80.1054 256.643C80.1064 256.648 80.1074 256.653 80.1085 256.658C80.1095 256.663 80.1105 256.667 80.1116 256.672C80.1126 256.677 80.1136 256.682 80.1147 256.686C80.1157 256.691 80.1167 256.696 80.1177 256.701C80.1188 256.706 80.1198 256.71 80.1208 256.715C80.1219 256.72 80.1229 256.725 80.1239 256.729C80.1249 256.734 80.126 256.739 80.127 256.744C80.128 256.748 80.129 256.753 80.1301 256.758C80.1311 256.763 80.1321 256.767 80.1331 256.772C80.1342 256.777 80.1352 256.781 80.1362 256.786C80.1372 256.791 80.1382 256.796 80.1393 256.8C80.1403 256.805 80.1413 256.81 80.1423 256.814C80.1433 256.819 80.1443 256.824 80.1454 256.829C80.1464 256.833 80.1474 256.838 80.1484 256.843C80.1494 256.847 80.1504 256.852 80.1514 256.857C80.1524 256.861 80.1535 256.866 80.1545 256.871C80.1555 256.876 80.1565 256.88 80.1575 256.885C80.1585 256.89 80.1595 256.894 80.1605 256.899C80.1615 256.904 80.1625 256.908 80.1635 256.913C80.1646 256.918 80.1656 256.922 80.1666 256.927C80.1676 256.931 80.1686 256.936 80.1696 256.941C80.1706 256.945 80.1716 256.95 80.1726 256.955C80.1736 256.959 80.1746 256.964 80.1756 256.969C80.1766 256.973 80.1776 256.978 80.1786 256.982C80.1796 256.987 80.1806 256.992 80.1816 256.996C80.1826 257.001 80.1836 257.006 80.1846 257.01C80.1855 257.015 80.1865 257.019 80.1875 257.024C80.1885 257.029 80.1895 257.033 80.1905 257.038C80.1915 257.042 80.1925 257.047 80.1935 257.051C80.1945 257.056 80.1955 257.061 80.1964 257.065C80.1974 257.07 80.1984 257.074 80.1994 257.079C80.2004 257.083 80.2014 257.088 80.2024 257.093C80.2033 257.097 80.2043 257.102 80.2053 257.106C80.2063 257.111 80.2073 257.115 80.2082 257.12C80.2092 257.124 80.2102 257.129 80.2112 257.133C80.2122 257.138 80.2131 257.143 80.2141 257.147C80.2151 257.152 80.2161 257.156 80.217 257.161C80.218 257.165 80.219 257.17 80.22 257.174C80.2209 257.179 80.2219 257.183 80.2229 257.188C80.2239 257.192 80.2248 257.197 80.2258 257.201C80.2268 257.206 80.2277 257.21 80.2287 257.215C80.2297 257.219 80.2306 257.224 80.2316 257.228C80.2326 257.232 80.2335 257.237 80.2345 257.241C80.2355 257.246 80.2364 257.25 80.2374 257.255C80.2383 257.259 80.2393 257.264 80.2403 257.268C80.2412 257.273 80.2422 257.277 80.2431 257.281C80.2441 257.286 80.2451 257.29 80.246 257.295C80.247 257.299 80.2479 257.304 80.2489 257.308C80.2498 257.312 80.2508 257.317 80.2517 257.321C80.2527 257.326 80.2536 257.33 80.2546 257.334C80.2555 257.339 80.2565 257.343 80.2574 257.348C80.2584 257.352 80.2593 257.356 80.2603 257.361C80.2612 257.365 80.2622 257.37 80.2631 257.374C80.264 257.378 80.265 257.383 80.2659 257.387C80.2669 257.391 80.2678 257.396 80.2688 257.4C80.2697 257.404 80.2706 257.409 80.2716 257.413C80.2725 257.418 80.2734 257.422 80.2744 257.426C80.2753 257.431 80.2763 257.435 80.2772 257.439C80.2781 257.444 80.2791 257.448 80.28 257.452C80.2809 257.456 80.2818 257.461 80.2828 257.465C80.2837 257.469 80.2846 257.474 80.2856 257.478C80.2865 257.482 80.2874 257.487 80.2883 257.491C80.2893 257.495 80.2902 257.499 80.2911 257.504C80.292 257.508 80.293 257.512 80.2939 257.516C80.2948 257.521 80.2957 257.525 80.2966 257.529C80.2976 257.534 80.2985 257.538 80.2994 257.542C80.3003 257.546 80.3012 257.551 80.3021 257.555C80.3031 257.559 80.304 257.563 80.3049 257.567C80.3058 257.572 80.3067 257.576 80.3076 257.58C80.3085 257.584 80.3094 257.589 80.3103 257.593C80.3113 257.597 80.3122 257.601 80.3131 257.605C80.314 257.61 80.3149 257.614 80.3158 257.618C80.3167 257.622 80.3176 257.626 80.3185 257.63C80.3194 257.635 80.3203 257.639 80.3212 257.643C80.3221 257.647 80.323 257.651 80.3239 257.655C80.3248 257.66 80.3257 257.664 80.3266 257.668C80.3275 257.672 80.3284 257.676 80.3292 257.68C80.3301 257.684 80.331 257.689 80.3319 257.693C80.3328 257.697 80.3337 257.701 80.3346 257.705C80.3355 257.709 80.3364 257.713 80.3372 257.717C80.3381 257.721 80.339 257.726 80.3399 257.73C80.3408 257.734 80.3417 257.738 80.3425 257.742C80.3434 257.746 80.3443 257.75 80.3452 257.754C80.3461 257.758 80.3469 257.762 80.3478 257.766C80.3487 257.77 80.3496 257.774 80.3504 257.778C80.3513 257.782 80.3522 257.787 80.3531 257.791C80.3539 257.795 80.3548 257.799 80.3557 257.803C80.3565 257.807 80.3574 257.811 80.3583 257.815C80.3591 257.819 80.36 257.823 80.3609 257.827C80.3617 257.831 80.3626 257.835 80.3635 257.839C80.3643 257.843 80.3652 257.847 80.366 257.851C80.3669 257.855 80.3678 257.859 80.3686 257.863C80.3695 257.867 80.3703 257.871 80.3712 257.874C80.372 257.878 80.3729 257.882 80.3737 257.886C80.3746 257.89 80.3754 257.894 80.3763 257.898C80.3771 257.902 80.378 257.906 80.3788 257.91C80.3797 257.914 80.3805 257.918 80.3814 257.922C80.3822 257.926 80.3831 257.929 80.3839 257.933C80.3847 257.937 80.3856 257.941 80.3864 257.945C80.3873 257.949 80.3881 257.953 80.3889 257.957C80.3898 257.961 80.3906 257.964 80.3914 257.968C80.3923 257.972 80.3931 257.976 80.3939 257.98C80.3948 257.984 80.3956 257.988 80.3964 257.991C80.3973 257.995 80.3981 257.999 80.3989 258.003C80.3997 258.007 80.4006 258.011 80.4014 258.014C80.4022 258.018 80.403 258.022 80.4039 258.026C80.4047 258.03 80.4055 258.033 80.4063 258.037C80.4071 258.041 80.4079 258.045 80.4088 258.049C80.4096 258.052 80.4104 258.056 80.4112 258.06C80.412 258.064 80.4128 258.067 80.4136 258.071C80.4145 258.075 80.4153 258.079 80.4161 258.082C80.4169 258.086 80.4177 258.09 80.4185 258.094C80.4193 258.097 80.4201 258.101 80.4209 258.105C80.4217 258.108 80.4225 258.112 80.4233 258.116C80.4241 258.12 80.4249 258.123 80.4257 258.127C80.4265 258.131 80.4273 258.134 80.4281 258.138C80.4289 258.142 80.4297 258.145 80.4305 258.149L83.0718 257.579C83.071 257.575 83.0702 257.571 83.0694 257.568C83.0686 257.564 83.0678 257.56 83.067 257.557C83.0663 257.553 83.0655 257.549 83.0647 257.546C83.0639 257.542 83.0631 257.538 83.0622 257.534C83.0614 257.531 83.0606 257.527 83.0598 257.523C83.059 257.52 83.0582 257.516 83.0574 257.512C83.0566 257.508 83.0558 257.505 83.055 257.501C83.0542 257.497 83.0534 257.493 83.0526 257.49C83.0517 257.486 83.0509 257.482 83.0501 257.478C83.0493 257.474 83.0485 257.471 83.0477 257.467C83.0468 257.463 83.046 257.459 83.0452 257.455C83.0444 257.452 83.0436 257.448 83.0427 257.444C83.0419 257.44 83.0411 257.436 83.0403 257.433C83.0394 257.429 83.0386 257.425 83.0378 257.421C83.0369 257.417 83.0361 257.413 83.0353 257.41C83.0345 257.406 83.0336 257.402 83.0328 257.398C83.032 257.394 83.0311 257.39 83.0303 257.386C83.0294 257.382 83.0286 257.379 83.0278 257.375C83.0269 257.371 83.0261 257.367 83.0252 257.363C83.0244 257.359 83.0236 257.355 83.0227 257.351C83.0219 257.347 83.021 257.344 83.0202 257.34C83.0193 257.336 83.0185 257.332 83.0176 257.328C83.0168 257.324 83.0159 257.32 83.0151 257.316C83.0142 257.312 83.0134 257.308 83.0125 257.304C83.0117 257.3 83.0108 257.296 83.01 257.292C83.0091 257.288 83.0082 257.284 83.0074 257.28C83.0065 257.276 83.0057 257.272 83.0048 257.268C83.0039 257.264 83.0031 257.26 83.0022 257.256C83.0014 257.252 83.0005 257.248 82.9996 257.244C82.9988 257.24 82.9979 257.236 82.997 257.232C82.9962 257.228 82.9953 257.224 82.9944 257.22C82.9935 257.216 82.9927 257.212 82.9918 257.208C82.9909 257.204 82.99 257.2 82.9892 257.196C82.9883 257.192 82.9874 257.188 82.9865 257.184C82.9857 257.18 82.9848 257.176 82.9839 257.172C82.983 257.167 82.9821 257.163 82.9813 257.159C82.9804 257.155 82.9795 257.151 82.9786 257.147C82.9777 257.143 82.9768 257.139 82.9759 257.135C82.9751 257.131 82.9742 257.126 82.9733 257.122C82.9724 257.118 82.9715 257.114 82.9706 257.11C82.9697 257.106 82.9688 257.102 82.9679 257.098C82.967 257.093 82.9661 257.089 82.9652 257.085C82.9643 257.081 82.9634 257.077 82.9625 257.073C82.9616 257.068 82.9607 257.064 82.9598 257.06C82.9589 257.056 82.958 257.052 82.9571 257.048C82.9562 257.043 82.9553 257.039 82.9544 257.035C82.9535 257.031 82.9526 257.027 82.9517 257.022C82.9508 257.018 82.9499 257.014 82.949 257.01C82.9481 257.006 82.9471 257.001 82.9462 256.997C82.9453 256.993 82.9444 256.989 82.9435 256.984C82.9426 256.98 82.9417 256.976 82.9407 256.972C82.9398 256.967 82.9389 256.963 82.938 256.959C82.9371 256.955 82.9362 256.95 82.9352 256.946C82.9343 256.942 82.9334 256.938 82.9325 256.933C82.9315 256.929 82.9306 256.925 82.9297 256.921C82.9288 256.916 82.9278 256.912 82.9269 256.908C82.926 256.903 82.9251 256.899 82.9241 256.895C82.9232 256.89 82.9223 256.886 82.9213 256.882C82.9204 256.878 82.9195 256.873 82.9185 256.869C82.9176 256.865 82.9167 256.86 82.9157 256.856C82.9148 256.852 82.9139 256.847 82.9129 256.843C82.912 256.839 82.911 256.834 82.9101 256.83C82.9092 256.825 82.9082 256.821 82.9073 256.817C82.9063 256.812 82.9054 256.808 82.9045 256.804C82.9035 256.799 82.9026 256.795 82.9016 256.791C82.9007 256.786 82.8997 256.782 82.8988 256.777C82.8978 256.773 82.8969 256.769 82.8959 256.764C82.895 256.76 82.894 256.755 82.8931 256.751C82.8921 256.747 82.8912 256.742 82.8902 256.738C82.8893 256.733 82.8883 256.729 82.8874 256.724C82.8864 256.72 82.8854 256.716 82.8845 256.711C82.8835 256.707 82.8826 256.702 82.8816 256.698C82.8807 256.693 82.8797 256.689 82.8787 256.684C82.8778 256.68 82.8768 256.676 82.8758 256.671C82.8749 256.667 82.8739 256.662 82.8729 256.658C82.872 256.653 82.871 256.649 82.87 256.644C82.8691 256.64 82.8681 256.635 82.8671 256.631C82.8662 256.626 82.8652 256.622 82.8642 256.617C82.8633 256.613 82.8623 256.608 82.8613 256.604C82.8603 256.599 82.8594 256.595 82.8584 256.59C82.8574 256.586 82.8564 256.581 82.8555 256.577C82.8545 256.572 82.8535 256.568 82.8525 256.563C82.8516 256.559 82.8506 256.554 82.8496 256.55C82.8486 256.545 82.8476 256.54 82.8467 256.536C82.8457 256.531 82.8447 256.527 82.8437 256.522C82.8427 256.518 82.8417 256.513 82.8408 256.509C82.8398 256.504 82.8388 256.499 82.8378 256.495C82.8368 256.49 82.8358 256.486 82.8348 256.481C82.8338 256.477 82.8328 256.472 82.8319 256.467C82.8309 256.463 82.8299 256.458 82.8289 256.454C82.8279 256.449 82.8269 256.444 82.8259 256.44C82.8249 256.435 82.8239 256.431 82.8229 256.426C82.8219 256.421 82.8209 256.417 82.8199 256.412C82.8189 256.408 82.8179 256.403 82.8169 256.398C82.8159 256.394 82.8149 256.389 82.8139 256.384C82.8129 256.38 82.8119 256.375 82.8109 256.37C82.8099 256.366 82.8089 256.361 82.8079 256.357C82.8069 256.352 82.8059 256.347 82.8049 256.343C82.8039 256.338 82.8029 256.333 82.8019 256.329C82.8009 256.324 82.7999 256.319 82.7989 256.315C82.7978 256.31 82.7968 256.305 82.7958 256.301C82.7948 256.296 82.7938 256.291 82.7928 256.286C82.7918 256.282 82.7908 256.277 82.7897 256.272C82.7887 256.268 82.7877 256.263 82.7867 256.258C82.7857 256.254 82.7847 256.249 82.7837 256.244C82.7826 256.239 82.7816 256.235 82.7806 256.23C82.7796 256.225 82.7786 256.221 82.7775 256.216C82.7765 256.211 82.7755 256.206 82.7745 256.202C82.7735 256.197 82.7724 256.192 82.7714 256.187C82.7704 256.183 82.7694 256.178 82.7683 256.173C82.7673 256.168 82.7663 256.164 82.7653 256.159C82.7642 256.154 82.7632 256.149 82.7622 256.145C82.7612 256.14 82.7601 256.135 82.7591 256.13C82.7581 256.126 82.757 256.121 82.756 256.116C82.755 256.111 82.7539 256.107 82.7529 256.102C82.7519 256.097 82.7509 256.092 82.7498 256.087C82.7488 256.083 82.7477 256.078 82.7467 256.073C82.7457 256.068 82.7446 256.063 82.7436 256.059C82.7426 256.054 82.7415 256.049 82.7405 256.044C82.7395 256.039 82.7384 256.035 82.7374 256.03C82.7363 256.025 82.7353 256.02 82.7343 256.015C82.7332 256.011 82.7322 256.006 82.7311 256.001C82.7301 255.996 82.7291 255.991 82.728 255.986C82.727 255.982 82.7259 255.977 82.7249 255.972C82.7238 255.967 82.7228 255.962 82.7217 255.957C82.7207 255.953 82.7197 255.948 82.7186 255.943C82.7176 255.938 82.7165 255.933 82.7155 255.928C82.7144 255.923 82.7134 255.919 82.7123 255.914C82.7113 255.909 82.7102 255.904 82.7092 255.899C82.7081 255.894 82.7071 255.889 82.706 255.885C82.705 255.88 82.7039 255.875 82.7028 255.87C82.7018 255.865 82.7007 255.86 82.6997 255.855C82.6986 255.85 82.6976 255.846 82.6965 255.841C82.6955 255.836 82.6944 255.831 82.6934 255.826C82.6923 255.821 82.6912 255.816 82.6902 255.811C82.6891 255.806 82.6881 255.801 82.687 255.797C82.6859 255.792 82.6849 255.787 82.6838 255.782C82.6828 255.777 82.6817 255.772 82.6806 255.767C82.6796 255.762 82.6785 255.757 82.6774 255.752C82.6764 255.747 82.6753 255.742 82.6743 255.737C82.6732 255.733 82.6721 255.728 82.6711 255.723C82.67 255.718 82.6689 255.713 82.6679 255.708C82.6668 255.703 82.6657 255.698 82.6647 255.693C82.6636 255.688 82.6625 255.683 82.6615 255.678C82.6604 255.673 82.6593 255.668 82.6582 255.663C82.6572 255.658 82.6561 255.653 82.655 255.648C82.654 255.644 82.6529 255.639 82.6518 255.634C82.6507 255.629 82.6497 255.624 82.6486 255.619C82.6475 255.614 82.6465 255.609 82.6454 255.604C82.6443 255.599 82.6432 255.594 82.6422 255.589C82.6411 255.584 82.64 255.579 82.6389 255.574C82.6379 255.569 82.6368 255.564 82.6357 255.559C82.6346 255.554 82.6335 255.549 82.6325 255.544C82.6314 255.539 82.6303 255.534 82.6292 255.529C82.6281 255.524 82.6271 255.519 82.626 255.514C82.6249 255.509 82.6238 255.504 82.6227 255.499C82.6217 255.494 82.6206 255.489 82.6195 255.484C82.6184 255.479 82.6173 255.474 82.6163 255.469C82.6152 255.464 82.6141 255.459 82.613 255.454C82.6119 255.449 82.6108 255.444 82.6097 255.439C82.6087 255.434 82.6076 255.429 82.6065 255.424C82.6054 255.419 82.6043 255.414 82.6032 255.409C82.6021 255.404 82.6011 255.398 82.6 255.393C82.5989 255.388 82.5978 255.383 82.5967 255.378C82.5956 255.373 82.5945 255.368 82.5934 255.363C82.5923 255.358 82.5913 255.353 82.5902 255.348C82.5891 255.343 82.588 255.338 82.5869 255.333C82.5858 255.328 82.5847 255.323 82.5836 255.318C82.5825 255.313 82.5814 255.308 82.5803 255.303C82.5792 255.297 82.5782 255.292 82.5771 255.287C82.576 255.282 82.5749 255.277 82.5738 255.272C82.5727 255.267 82.5716 255.262 82.5705 255.257C82.5694 255.252 82.5683 255.247 82.5672 255.242C82.5661 255.237 82.565 255.232 82.5639 255.226C82.5628 255.221 82.5617 255.216 82.5606 255.211C82.5595 255.206 82.5584 255.201 82.5573 255.196C82.5562 255.191 82.5551 255.186 82.554 255.181C82.5529 255.176 82.5518 255.17 82.5507 255.165C82.5496 255.16 82.5485 255.155 82.5474 255.15C82.5463 255.145 82.5452 255.14 82.5441 255.135C82.543 255.13 82.5419 255.125 82.5408 255.12C82.5397 255.114 82.5386 255.109 82.5375 255.104C82.5364 255.099 82.5353 255.094 82.5342 255.089C82.5331 255.084 82.532 255.079 82.5309 255.074C82.5298 255.068 82.5287 255.063 82.5276 255.058C82.5265 255.053 82.5254 255.048 82.5243 255.043C82.5232 255.038 82.5221 255.033 82.5209 255.027C82.5198 255.022 82.5187 255.017 82.5176 255.012C82.5165 255.007 82.5154 255.002 82.5143 254.997C82.5132 254.992 82.5121 254.986 82.511 254.981C82.5099 254.976 82.5088 254.971 82.5077 254.966C82.5066 254.961 82.5054 254.956 82.5043 254.951C82.5032 254.945 82.5021 254.94 82.501 254.935C82.4999 254.93 82.4988 254.925 82.4977 254.92C82.4966 254.915 82.4955 254.909 82.4943 254.904C82.4932 254.899 82.4921 254.894 82.491 254.889C82.4899 254.884 82.4888 254.879 82.4877 254.873C82.4866 254.868 82.4855 254.863 82.4843 254.858C82.4832 254.853 82.4821 254.848 82.481 254.842C82.4799 254.837 82.4788 254.832 82.4777 254.827C82.4766 254.822 82.4754 254.817 82.4743 254.812C82.4732 254.806 82.4721 254.801 82.471 254.796C82.4699 254.791 82.4688 254.786 82.4676 254.781C82.4665 254.775 82.4654 254.77 82.4643 254.765C82.4632 254.76 82.4621 254.755 82.461 254.75C82.4598 254.744 82.4587 254.739 82.4576 254.734C82.4565 254.729 82.4554 254.724 82.4543 254.719C82.4531 254.713 82.452 254.708 82.4509 254.703C82.4498 254.698 82.4487 254.693 82.4476 254.688C82.4464 254.682 82.4453 254.677 82.4442 254.672C82.4431 254.667 82.442 254.662 82.4409 254.657C82.4397 254.651 82.4386 254.646 82.4375 254.641C82.4364 254.636 82.4353 254.631 82.4342 254.625C82.433 254.62 82.4319 254.615 82.4308 254.61C82.4297 254.605 82.4286 254.6 82.4274 254.594C82.4263 254.589 82.4252 254.584 82.4241 254.579C82.423 254.574 82.4218 254.569 82.4207 254.563C82.4196 254.558 82.4185 254.553 82.4174 254.548C82.4162 254.543 82.4151 254.537 82.414 254.532C82.4129 254.527 82.4118 254.522 82.4106 254.517C82.4095 254.511 82.4084 254.506 82.4073 254.501C82.4062 254.496 82.405 254.491 82.4039 254.486C82.4028 254.48 82.4017 254.475 82.4006 254.47C82.3994 254.465 82.3983 254.46 82.3972 254.454C82.3961 254.449 82.395 254.444 82.3938 254.439C82.3927 254.434 82.3916 254.428 82.3905 254.423C82.3894 254.418 82.3882 254.413 82.3871 254.408C82.386 254.402 82.3849 254.397 82.3837 254.392C82.3826 254.387 82.3815 254.382 82.3804 254.376C82.3793 254.371 82.3781 254.366 82.377 254.361C82.3759 254.356 82.3748 254.35 82.3736 254.345C82.3725 254.34 82.3714 254.335 82.3703 254.33C82.3692 254.324 82.368 254.319 82.3669 254.314C82.3658 254.309 82.3647 254.304 82.3635 254.298C82.3624 254.293 82.3613 254.288 82.3602 254.283C82.3591 254.278 82.3579 254.272 82.3568 254.267C82.3557 254.262 82.3546 254.257 82.3534 254.252C82.3523 254.246 82.3512 254.241 82.3501 254.236C82.349 254.231 82.3478 254.226 82.3467 254.22C82.3456 254.215 82.3445 254.21 82.3433 254.205C82.3422 254.2 82.3411 254.195 82.34 254.189C82.3388 254.184 82.3377 254.179 82.3366 254.174C82.3355 254.169 82.3344 254.163 82.3332 254.158C82.3321 254.153 82.331 254.148 82.3299 254.143C82.3287 254.137 82.3276 254.132 82.3265 254.127C82.3254 254.122 82.3242 254.117 82.3231 254.111C82.322 254.106 82.3209 254.101 82.3198 254.096C82.3186 254.091 82.3175 254.085 82.3164 254.08C82.3153 254.075 82.3141 254.07 82.313 254.065C82.3119 254.059 82.3108 254.054 82.3097 254.049C82.3085 254.044 82.3074 254.039 82.3063 254.033C82.3052 254.028 82.304 254.023 82.3029 254.018C82.3018 254.013 82.3007 254.007 82.2996 254.002C82.2984 253.997 82.2973 253.992 82.2962 253.987C82.2951 253.981 82.2939 253.976 82.2928 253.971C82.2917 253.966 82.2906 253.961 82.2895 253.955C82.2883 253.95 82.2872 253.945 82.2861 253.94C82.285 253.935 82.2839 253.929 82.2827 253.924C82.2816 253.919 82.2805 253.914 82.2794 253.909C82.2782 253.903 82.2771 253.898 82.276 253.893C82.2749 253.888 82.2738 253.883 82.2726 253.878C82.2715 253.872 82.2704 253.867 82.2693 253.862C82.2682 253.857 82.267 253.852 82.2659 253.846C82.2648 253.841 82.2637 253.836 82.2626 253.831C82.2614 253.826 82.2603 253.82 82.2592 253.815C82.2581 253.81 82.257 253.805 82.2558 253.8C82.2547 253.795 82.2536 253.789 82.2525 253.784C82.2514 253.779 82.2503 253.774 82.2491 253.769C82.248 253.763 82.2469 253.758 82.2458 253.753C82.2447 253.748 82.2435 253.743 82.2424 253.738C82.2413 253.732 82.2402 253.727 82.2391 253.722C82.2379 253.717 82.2368 253.712 82.2357 253.706C82.2346 253.701 82.2335 253.696 82.2324 253.691C82.2312 253.686 82.2301 253.681 82.229 253.675C82.2279 253.67 82.2268 253.665 82.2257 253.66C82.2245 253.655 82.2234 253.65 82.2223 253.644C82.2212 253.639 82.2201 253.634 82.219 253.629C82.2179 253.624 82.2167 253.619 82.2156 253.613C82.2145 253.608 82.2134 253.603 82.2123 253.598C82.2112 253.593 82.21 253.588 82.2089 253.582C82.2078 253.577 82.2067 253.572 82.2056 253.567C82.2045 253.562 82.2034 253.557 82.2023 253.551C82.2011 253.546 82.2 253.541 82.1989 253.536C82.1978 253.531 82.1967 253.526 82.1956 253.521C82.1945 253.515 82.1933 253.51 82.1922 253.505C82.1911 253.5 82.19 253.495 82.1889 253.49C82.1878 253.485 82.1867 253.479 82.1856 253.474C82.1845 253.469 82.1833 253.464 82.1822 253.459C82.1811 253.454 82.18 253.449 82.1789 253.443C82.1778 253.438 82.1767 253.433 82.1756 253.428C82.1745 253.423 82.1734 253.418 82.1723 253.413C82.1711 253.407 82.17 253.402 82.1689 253.397C82.1678 253.392 82.1667 253.387 82.1656 253.382C82.1645 253.377 82.1634 253.371 82.1623 253.366C82.1612 253.361 82.1601 253.356 82.159 253.351C82.1579 253.346 82.1567 253.341 82.1556 253.336C82.1545 253.331 82.1534 253.325 82.1523 253.32C82.1512 253.315 82.1501 253.31 82.149 253.305C82.1479 253.3 82.1468 253.295 82.1457 253.29C82.1446 253.284 82.1435 253.279 82.1424 253.274C82.1413 253.269 82.1402 253.264 82.1391 253.259C82.138 253.254 82.1369 253.249 82.1358 253.244C82.1347 253.238 82.1336 253.233 82.1325 253.228C82.1314 253.223 82.1303 253.218 82.1292 253.213C82.1281 253.208 82.127 253.203 82.1259 253.198C82.1248 253.193 82.1237 253.188 82.1226 253.182C82.1215 253.177 82.1204 253.172 82.1193 253.167C82.1182 253.162 82.1171 253.157 82.116 253.152C82.1149 253.147 82.1138 253.142 82.1127 253.137C82.1116 253.132 82.1105 253.127 82.1094 253.121C82.1083 253.116 82.1072 253.111 82.1061 253.106C82.105 253.101 82.1039 253.096 82.1028 253.091C82.1017 253.086 82.1006 253.081 82.0995 253.076C82.0985 253.071 82.0974 253.066 82.0963 253.061C82.0952 253.056 82.0941 253.051 82.093 253.045C82.0919 253.04 82.0908 253.035 82.0897 253.03C82.0886 253.025 82.0875 253.02 82.0864 253.015C82.0854 253.01 82.0843 253.005 82.0832 253C82.0821 252.995 82.081 252.99 82.0799 252.985C82.0788 252.98 82.0777 252.975 82.0766 252.97C82.0756 252.965 82.0745 252.96 82.0734 252.955C82.0723 252.95 82.0712 252.945 82.0701 252.94C82.069 252.935 82.068 252.93 82.0669 252.924C82.0658 252.919 82.0647 252.914 82.0636 252.909C82.0625 252.904 82.0614 252.899 82.0604 252.894C82.0593 252.889 82.0582 252.884 82.0571 252.879C82.056 252.874 82.055 252.869 82.0539 252.864C82.0528 252.859 82.0517 252.854 82.0506 252.849C82.0496 252.844 82.0485 252.839 82.0474 252.834C82.0463 252.829 82.0452 252.824 82.0442 252.819C82.0431 252.814 82.042 252.809 82.0409 252.804C82.0398 252.799 82.0388 252.794 82.0377 252.789C82.0366 252.784 82.0355 252.779 82.0345 252.774C82.0334 252.769 82.0323 252.764 82.0312 252.759C82.0302 252.755 82.0291 252.75 82.028 252.745C82.027 252.74 82.0259 252.735 82.0248 252.73C82.0237 252.725 82.0227 252.72 82.0216 252.715C82.0205 252.71 82.0195 252.705 82.0184 252.7C82.0173 252.695 82.0162 252.69 82.0152 252.685C82.0141 252.68 82.013 252.675 82.012 252.67C82.0109 252.665 82.0098 252.66 82.0088 252.655C82.0077 252.65 82.0066 252.646 82.0056 252.641C82.0045 252.636 82.0034 252.631 82.0024 252.626C82.0013 252.621 82.0003 252.616 81.9992 252.611C81.9981 252.606 81.9971 252.601 81.996 252.596C81.9949 252.591 81.9939 252.586 81.9928 252.582C81.9918 252.577 81.9907 252.572 81.9896 252.567C81.9886 252.562 81.9875 252.557 81.9865 252.552C81.9854 252.547 81.9844 252.542 81.9833 252.537C81.9822 252.533 81.9812 252.528 81.9801 252.523C81.9791 252.518 81.978 252.513 81.977 252.508C81.9759 252.503 81.9749 252.498 81.9738 252.493C81.9727 252.489 81.9717 252.484 81.9706 252.479C81.9696 252.474 81.9685 252.469 81.9675 252.464C81.9664 252.459 81.9654 252.454 81.9643 252.45C81.9633 252.445 81.9622 252.44 81.9612 252.435C81.9601 252.43 81.9591 252.425 81.9581 252.421C81.957 252.416 81.956 252.411 81.9549 252.406C81.9539 252.401 81.9528 252.396 81.9518 252.391C81.9507 252.387 81.9497 252.382 81.9486 252.377C81.9476 252.372 81.9466 252.367 81.9455 252.362C81.9445 252.358 81.9434 252.353 81.9424 252.348C81.9414 252.343 81.9403 252.338 81.9393 252.334C81.9382 252.329 81.9372 252.324 81.9362 252.319C81.9351 252.314 81.9341 252.31 81.9331 252.305C81.932 252.3 81.931 252.295 81.93 252.29C81.9289 252.286 81.9279 252.281 81.9269 252.276C81.9258 252.271 81.9248 252.266 81.9238 252.262C81.9227 252.257 81.9217 252.252 81.9207 252.247C81.9196 252.243 81.9186 252.238 81.9176 252.233C81.9166 252.228 81.9155 252.224 81.9145 252.219C81.9135 252.214 81.9124 252.209 81.9114 252.205C81.9104 252.2 81.9094 252.195 81.9083 252.19C81.9073 252.186 81.9063 252.181 81.9053 252.176C81.9042 252.171 81.9032 252.167 81.9022 252.162C81.9012 252.157 81.9002 252.152 81.8991 252.148C81.8981 252.143 81.8971 252.138 81.8961 252.134C81.8951 252.129 81.8941 252.124 81.893 252.119C81.892 252.115 81.891 252.11 81.89 252.105C81.889 252.101 81.888 252.096 81.8869 252.091C81.8859 252.087 81.8849 252.082 81.8839 252.077C81.8829 252.072 81.8819 252.068 81.8809 252.063C81.8799 252.058 81.8789 252.054 81.8778 252.049C81.8768 252.044 81.8758 252.04 81.8748 252.035C81.8738 252.03 81.8728 252.026 81.8718 252.021C81.8708 252.016 81.8698 252.012 81.8688 252.007C81.8678 252.002 81.8668 251.998 81.8658 251.993C81.8648 251.989 81.8638 251.984 81.8628 251.979C81.8618 251.975 81.8608 251.97 81.8598 251.965C81.8588 251.961 81.8578 251.956 81.8568 251.952C81.8558 251.947 81.8548 251.942 81.8538 251.938C81.8528 251.933 81.8518 251.928 81.8508 251.924C81.8498 251.919 81.8488 251.915 81.8478 251.91C81.8468 251.905 81.8459 251.901 81.8449 251.896C81.8439 251.892 81.8429 251.887 81.8419 251.883C81.8409 251.878 81.8399 251.873 81.8389 251.869C81.8379 251.864 81.837 251.86 81.836 251.855C81.835 251.851 81.834 251.846 81.833 251.841C81.832 251.837 81.8311 251.832 81.8301 251.828C81.8291 251.823 81.8281 251.819 81.8271 251.814C81.8262 251.81 81.8252 251.805 81.8242 251.801C81.8232 251.796 81.8222 251.792 81.8213 251.787C81.8203 251.783 81.8193 251.778 81.8183 251.773C81.8174 251.769 81.8164 251.764 81.8154 251.76C81.8145 251.755 81.8135 251.751 81.8125 251.746C81.8115 251.742 81.8106 251.737 81.8096 251.733C81.8086 251.729 81.8077 251.724 81.8067 251.72C81.8057 251.715 81.8048 251.711 81.8038 251.706C81.8028 251.702 81.8019 251.697 81.8009 251.693C81.8 251.688 81.799 251.684 81.798 251.679C81.7971 251.675 81.7961 251.67 81.7951 251.666C81.7942 251.662 81.7932 251.657 81.7923 251.653C81.7913 251.648 81.7904 251.644 81.7894 251.639C81.7885 251.635 81.7875 251.631 81.7865 251.626C81.7856 251.622 81.7846 251.617 81.7837 251.613C81.7827 251.609 81.7818 251.604 81.7808 251.6C81.7799 251.595 81.7789 251.591 81.778 251.587C81.777 251.582 81.7761 251.578 81.7752 251.573C81.7742 251.569 81.7733 251.565 81.7723 251.56C81.7714 251.556 81.7704 251.552 81.7695 251.547C81.7686 251.543 81.7676 251.539 81.7667 251.534C81.7657 251.53 81.7648 251.525 81.7639 251.521C81.7629 251.517 81.762 251.512 81.7611 251.508C81.7601 251.504 81.7592 251.499 81.7583 251.495C81.7573 251.491 81.7564 251.487 81.7555 251.482C81.7545 251.478 81.7536 251.474 81.7527 251.469C81.7517 251.465 81.7508 251.461 81.7499 251.456C81.749 251.452 81.748 251.448 81.7471 251.444C81.7462 251.439 81.7453 251.435 81.7443 251.431C81.7434 251.426 81.7425 251.422 81.7416 251.418C81.7407 251.414 81.7397 251.409 81.7388 251.405C81.7379 251.401 81.737 251.397 81.7361 251.392C81.7351 251.388 81.7342 251.384 81.7333 251.38C81.7324 251.375 81.7315 251.371 81.7306 251.367C81.7297 251.363 81.7288 251.359 81.7278 251.354C81.7269 251.35 81.726 251.346 81.7251 251.342C81.7242 251.338 81.7233 251.333 81.7224 251.329C81.7215 251.325 81.7206 251.321 81.7197 251.317C81.7188 251.312 81.7179 251.308 81.717 251.304C81.7161 251.3 81.7152 251.296 81.7143 251.292C81.7134 251.287 81.7125 251.283 81.7116 251.279C81.7107 251.275 81.7098 251.271 81.7089 251.267C81.708 251.263 81.7071 251.258 81.7062 251.254C81.7053 251.25 81.7045 251.246 81.7036 251.242C81.7027 251.238 81.7018 251.234 81.7009 251.23C81.7 251.225 81.6991 251.221 81.6982 251.217C81.6974 251.213 81.6965 251.209 81.6956 251.205C81.6947 251.201 81.6938 251.197 81.693 251.193C81.6921 251.189 81.6912 251.185 81.6903 251.181C81.6894 251.176 81.6886 251.172 81.6877 251.168C81.6868 251.164 81.6859 251.16 81.6851 251.156C81.6842 251.152 81.6833 251.148 81.6825 251.144C81.6816 251.14 81.6807 251.136 81.6798 251.132C81.679 251.128 81.6781 251.124 81.6772 251.12C81.6764 251.116 81.6755 251.112 81.6747 251.108C81.6738 251.104 81.6729 251.1 81.6721 251.096C81.6712 251.092 81.6703 251.088 81.6695 251.084C81.6686 251.08 81.6678 251.076 81.6669 251.072C81.6661 251.068 81.6652 251.064 81.6644 251.06C81.6635 251.056 81.6627 251.052 81.6618 251.048C81.6609 251.045 81.6601 251.041 81.6593 251.037C81.6584 251.033 81.6576 251.029 81.6567 251.025C81.6559 251.021 81.655 251.017 81.6542 251.013C81.6533 251.009 81.6525 251.005 81.6517 251.001C81.6508 250.998 81.65 250.994 81.6491 250.99C81.6483 250.986 81.6475 250.982 81.6466 250.978C81.6458 250.974 81.645 250.97 81.6441 250.967C81.6433 250.963 81.6425 250.959 81.6416 250.955C81.6408 250.951 81.64 250.947 81.6391 250.944C81.6383 250.94 81.6375 250.936 81.6367 250.932C81.6358 250.928 81.635 250.924 81.6342 250.921C81.6334 250.917 81.6325 250.913 81.6317 250.909C81.6309 250.905 81.6301 250.902 81.6293 250.898C81.6284 250.894 81.6276 250.89 81.6268 250.886C81.626 250.883 81.6252 250.879 81.6244 250.875C81.6236 250.871 81.6228 250.868 81.6219 250.864C81.6211 250.86 81.6203 250.856 81.6195 250.853C81.6187 250.849 81.6179 250.845 81.6171 250.841C81.6163 250.838 81.6155 250.834 81.6147 250.83C81.6139 250.827 81.6131 250.823 81.6123 250.819C81.6115 250.815 81.6107 250.812 81.6099 250.808C81.6091 250.804 81.6083 250.801 81.6075 250.797C81.6067 250.793 81.6059 250.79 81.6051 250.786C81.6044 250.782 81.6036 250.779 81.6028 250.775C81.602 250.771 81.6012 250.768 81.6004 250.764C81.5996 250.761 81.5988 250.757 81.5981 250.753C81.5973 250.75 81.5965 250.746 81.5957 250.742C81.5949 250.739 81.5942 250.735 81.5934 250.732C81.5926 250.728 81.5918 250.724 81.5911 250.721C81.5903 250.717 81.5895 250.714 81.5887 250.71C81.588 250.707 81.5872 250.703 81.5864 250.699C81.5857 250.696 81.5849 250.692 81.5841 250.689C81.5834 250.685 81.5826 250.682 81.5818 250.678C81.5811 250.675 81.5803 250.671 81.5796 250.668C81.5788 250.664 81.578 250.661 81.5773 250.657C81.5765 250.654 81.5758 250.65 81.575 250.647C81.5743 250.643 81.5735 250.64 81.5728 250.636C81.572 250.633 81.5713 250.629 81.5705 250.626C81.5698 250.622 81.569 250.619 81.5683 250.615C81.5675 250.612 81.5668 250.608 81.566 250.605C81.5653 250.602 81.5646 250.598 81.5638 250.595C81.5631 250.591 81.5623 250.588 81.5616 250.584C81.5609 250.581 81.5601 250.578 81.5594 250.574C81.5587 250.571 81.5579 250.567 81.5572 250.564C81.5565 250.561 81.5558 250.557 81.555 250.554C81.5543 250.551 81.5536 250.547 81.5528 250.544C81.5521 250.541 81.5514 250.537 81.5507 250.534C81.55 250.531 81.5492 250.527 81.5485 250.524C81.5478 250.521 81.5471 250.517 81.5464 250.514C81.5457 250.511 81.5449 250.507 81.5442 250.504C81.5435 250.501 81.5428 250.497 81.5421 250.494C81.5414 250.491 81.5407 250.488 81.54 250.484L78.8986 251.055ZM80.4678 258.563L80.327 262.918L83.0278 263.006L83.1686 258.65L80.4678 258.563ZM79.5772 264.275L77.4632 265.7L78.9737 267.94L81.0877 266.515L79.5772 264.275ZM77.6215 265.608L74.798 266.999L75.9919 269.423L78.8154 268.032L77.6215 265.608ZM70.5103 245.228L62.0841 246.948L62.6246 249.596L71.0508 247.876L70.5103 245.228ZM80.327 262.918C80.3093 263.464 80.0304 263.969 79.5772 264.275L81.0877 266.515C82.2604 265.725 82.9821 264.419 83.0278 263.006L80.327 262.918ZM80.4305 258.149C80.4598 258.285 80.4723 258.424 80.4678 258.563L83.1686 258.65C83.1803 258.29 83.1479 257.931 83.0718 257.579L80.4305 258.149ZM72.5085 245.291C71.8432 245.106 71.1586 245.096 70.5103 245.228L71.0508 247.876C71.3086 247.823 71.558 247.831 71.7835 247.894L72.5085 245.291Z" fill="#182338"/>
<defs>
<radialGradient id="paint0_radial_1213_579" cx="0" cy="0" r="1" gradientUnits="userSpaceOnUse" gradientTransform="translate(191.339 238.546) rotate(47.8599) scale(313.072 2343.6)">
<stop stop-color="#4BF2A2"/>
<stop offset="0.421875" stop-color="#564D8F"/>
<stop offset="1" stop-color="#DD40CD"/>
</radialGradient>
<radialGradient id="paint1_radial_1213_579" cx="0" cy="0" r="1" gradientUnits="userSpaceOnUse" gradientTransform="translate(215.22 195.257) rotate(30.5997) scale(147.232 190.574)">
<stop stop-color="#A6FFD4"/>
<stop offset="0.48193" stop-color="#83EAE4" stop-opacity="0.31"/>
<stop offset="1" stop-color="#C037C2" stop-opacity="0.96"/>
</radialGradient>
<radialGradient id="paint2_radial_1213_579" cx="0" cy="0" r="1" gradientUnits="userSpaceOnUse" gradientTransform="translate(165.354 304.63) rotate(39.1152) scale(449.288 4155.08)">
<stop stop-color="#4BF2A2"/>
<stop offset="0.421875" stop-color="#564D8F"/>
<stop offset="1" stop-color="#DD40CD"/>
</radialGradient>
<linearGradient id="paint3_linear_1213_579" x1="44.54" y1="141.566" x2="426.061" y2="418.417" gradientUnits="userSpaceOnUse">
<stop stop-color="#F4F4F4"/>
<stop offset="0.358938" stop-color="#F9F9F9"/>
<stop offset="0.48193" stop-color="#FABAFC" stop-opacity="0.28"/>
<stop offset="0.567848" stop-color="#F7F7F7" stop-opacity="0.96"/>
</linearGradient>
<radialGradient id="paint4_radial_1213_579" cx="0" cy="0" r="1" gradientUnits="userSpaceOnUse" gradientTransform="translate(236.395 344.558) rotate(24.937) scale(94.8513 124.038)">
<stop stop-color="#F4F4F4"/>
<stop offset="0.48193" stop-color="#361836" stop-opacity="0.22"/>
<stop offset="1" stop-color="#C037C2" stop-opacity="0.96"/>
</radialGradient>
<radialGradient id="paint5_radial_1213_579" cx="0" cy="0" r="1" gradientUnits="userSpaceOnUse" gradientTransform="translate(190.125 210.578) rotate(5.78154) scale(109.528 847.88)">
<stop stop-color="#4BF2A2"/>
<stop offset="0.421875" stop-color="#564D8F"/>
<stop offset="1" stop-color="#DD40CD"/>
</radialGradient>
<radialGradient id="paint6_radial_1213_579" cx="0" cy="0" r="1" gradientUnits="userSpaceOnUse" gradientTransform="translate(199.138 202.529) rotate(6.60369) scale(78.3352 621.295)">
<stop stop-color="#4BF2A2"/>
<stop offset="0.421875" stop-color="#564D8F"/>
<stop offset="1" stop-color="#DD40CD"/>
</radialGradient>
<radialGradient id="paint7_radial_1213_579" cx="0" cy="0" r="1" gradientUnits="userSpaceOnUse" gradientTransform="translate(152.477 129.515) rotate(46.143) scale(293.711 2318.13)">
<stop stop-color="#4BF2A2"/>
<stop offset="0.421875" stop-color="#564D8F"/>
<stop offset="1" stop-color="#DD40CD"/>
</radialGradient>
<radialGradient id="paint8_radial_1213_579" cx="0" cy="0" r="1" gradientUnits="userSpaceOnUse" gradientTransform="translate(217.832 195.565) rotate(-5.77968) scale(82.7339 47.2492)">
<stop stop-color="#F4F4F4"/>
<stop offset="0.48193" stop-color="#F4F4F4"/>
<stop offset="1" stop-color="#C037C2" stop-opacity="0.96"/>
</radialGradient>
<radialGradient id="paint9_radial_1213_579" cx="0" cy="0" r="1" gradientUnits="userSpaceOnUse" gradientTransform="translate(179.299 87.4756) rotate(28.3244) scale(148.146 193.459)">
<stop stop-color="#060006"/>
<stop offset="0.567708" stop-color="#BAAEBA" stop-opacity="0.566733"/>
<stop offset="1" stop-color="#C037C2" stop-opacity="0.96"/>
</radialGradient>
<radialGradient id="paint10_radial_1213_579" cx="0" cy="0" r="1" gradientUnits="userSpaceOnUse" gradientTransform="translate(170.185 120.766) rotate(37.4516) scale(108.385 118.904)">
<stop stop-color="#2F6756"/>
<stop offset="0.427083" stop-color="#1B0724"/>
<stop offset="0.699054" stop-color="#2F1A51"/>
<stop offset="1" stop-color="#7C2BA3"/>
</radialGradient>
<radialGradient id="paint11_radial_1213_579" cx="0" cy="0" r="1" gradientUnits="userSpaceOnUse" gradientTransform="translate(238.966 106.438) rotate(62.8224) scale(97.3272 290.811)">
<stop stop-color="#4BF2A2"/>
<stop offset="0.421875" stop-color="#564D8F"/>
<stop offset="1" stop-color="#DD40CD"/>
</radialGradient>
<radialGradient id="paint12_radial_1213_579" cx="0" cy="0" r="1" gradientUnits="userSpaceOnUse" gradientTransform="translate(225.452 270.198) rotate(36.4775) scale(109.365 1051.8)">
<stop stop-color="#4BF2A2"/>
<stop offset="0.421875" stop-color="#564D8F"/>
<stop offset="1" stop-color="#DD40CD"/>
</radialGradient>
<radialGradient id="paint13_radial_1213_579" cx="0" cy="0" r="1" gradientUnits="userSpaceOnUse" gradientTransform="translate(329.939 223.619) rotate(48.3816) scale(182.831 188.284)">
<stop stop-color="#F4F4F4"/>
<stop offset="0.0001" stop-color="#DD40CD" stop-opacity="0.27"/>
<stop offset="0.48193" stop-color="#E258E4" stop-opacity="0.22"/>
<stop offset="1" stop-color="#C037C2" stop-opacity="0.96"/>
</radialGradient>
<radialGradient id="paint14_radial_1213_579" cx="0" cy="0" r="1" gradientUnits="userSpaceOnUse" gradientTransform="translate(97.4576 255.918) rotate(55.5573) scale(54.7562 293.21)">
<stop stop-color="#4BF2A2"/>
<stop offset="0.421875" stop-color="#564D8F"/>
<stop offset="1" stop-color="#DD40CD"/>
</radialGradient>
<radialGradient id="paint15_radial_1213_579" cx="0" cy="0" r="1" gradientUnits="userSpaceOnUse" gradientTransform="translate(64.5025 254.205) rotate(47.7653) scale(95.5638 750.639)">
<stop stop-color="#4BF2A2"/>
<stop offset="0.421875" stop-color="#564D8F"/>
<stop offset="1" stop-color="#DD40CD"/>
</radialGradient>
<radialGradient id="paint16_radial_1213_579" cx="0" cy="0" r="1" gradientUnits="userSpaceOnUse" gradientTransform="translate(72.939 240.149) rotate(29.7095) scale(47.3617 63.7553)">
<stop stop-color="#2DCA3C" stop-opacity="0.4"/>
<stop offset="0.453125" stop-color="#E3E3E3" stop-opacity="0.566733"/>
<stop offset="1" stop-color="#F4F4F4"/>
</radialGradient>
<radialGradient id="paint17_radial_1213_579" cx="0" cy="0" r="1" gradientUnits="userSpaceOnUse" gradientTransform="translate(74.0936 239.735) rotate(31.1296) scale(46.393 62.0106)">
<stop stop-color="#F4F4F4"/>
<stop offset="0.48193" stop-color="#BAAEBA" stop-opacity="0.566733"/>
<stop offset="1" stop-color="#C037C2" stop-opacity="0.96"/>
<stop offset="1" stop-color="#98FF7E" stop-opacity="0.96"/>
</radialGradient>
<radialGradient id="paint18_radial_1213_579" cx="0" cy="0" r="1" gradientUnits="userSpaceOnUse" gradientTransform="translate(59.7949 224.633) rotate(59.0811) scale(141.088 1159.39)">
<stop stop-color="#4BF2A2"/>
<stop offset="0.421875" stop-color="#564D8F"/>
<stop offset="1" stop-color="#DD40CD"/>
</radialGradient>
<radialGradient id="paint19_radial_1213_579" cx="0" cy="0" r="1" gradientUnits="userSpaceOnUse" gradientTransform="translate(80.4999 226.769) rotate(9.72886) scale(20.9706 27.0489)">
<stop stop-color="#4BF2A2"/>
<stop offset="1" stop-color="#DD40CD"/>
</radialGradient>
<radialGradient id="paint20_radial_1213_579" cx="0" cy="0" r="1" gradientUnits="userSpaceOnUse" gradientTransform="translate(81.6928 219.856) rotate(51.0072) scale(20.7118 25.3759)">
<stop stop-color="#A6FFD4"/>
<stop offset="0.48193" stop-color="#83EAE4" stop-opacity="0.31"/>
<stop offset="1" stop-color="#C037C2" stop-opacity="0.96"/>
</radialGradient>
<radialGradient id="paint21_radial_1213_579" cx="0" cy="0" r="1" gradientUnits="userSpaceOnUse" gradientTransform="translate(81.6928 219.856) rotate(51.0072) scale(20.7118 25.3759)">
<stop stop-color="#A6FFD4"/>
<stop offset="0.48193" stop-color="#83EAE4" stop-opacity="0.31"/>
<stop offset="1" stop-color="#C037C2" stop-opacity="0.96"/>
</radialGradient>
<radialGradient id="paint22_radial_1213_579" cx="0" cy="0" r="1" gradientUnits="userSpaceOnUse" gradientTransform="translate(355.067 170.8) rotate(55.5596) scale(54.7494 293.135)">
<stop stop-color="#4BF2A2"/>
<stop offset="0.421875" stop-color="#564D8F"/>
<stop offset="1" stop-color="#DD40CD"/>
</radialGradient>
<radialGradient id="paint23_radial_1213_579" cx="0" cy="0" r="1" gradientUnits="userSpaceOnUse" gradientTransform="translate(363.674 154.164) rotate(43.801) scale(99.8689 839.046)">
<stop stop-color="#4BF2A2"/>
<stop offset="0.421875" stop-color="#564D8F"/>
<stop offset="1" stop-color="#DD40CD"/>
</radialGradient>
<radialGradient id="paint24_radial_1213_579" cx="0" cy="0" r="1" gradientUnits="userSpaceOnUse" gradientTransform="translate(373.942 139.705) rotate(25.3776) scale(51.9193 67.9369)">
<stop stop-color="#F4F4F4"/>
<stop offset="0.48193" stop-color="#BAAEBA" stop-opacity="0.566733"/>
<stop offset="1" stop-color="#C037C2" stop-opacity="0.96"/>
<stop offset="1" stop-color="#98FF7E" stop-opacity="0.96"/>
</radialGradient>
<radialGradient id="paint25_radial_1213_579" cx="0" cy="0" r="1" gradientUnits="userSpaceOnUse" gradientTransform="translate(372.898 140.088) rotate(26.7447) scale(50.6519 66.3036)">
<stop stop-color="#F4F4F4"/>
<stop offset="0.48193" stop-color="#BAAEBA" stop-opacity="0.566733"/>
<stop offset="1" stop-color="#C037C2" stop-opacity="0.96"/>
<stop offset="1" stop-color="#98FF7E" stop-opacity="0.96"/>
</radialGradient>
</defs>
</svg>
