<svg width="32" height="32" viewBox="0 0 32 32" fill="none" xmlns="http://www.w3.org/2000/svg">
<path d="M9.40558 18.2244C10.3252 18.2244 11.2224 17.9177 11.9476 17.3568L6.11587 11.5235C4.71027 13.3408 5.04671 15.9583 6.86353 17.3643C7.59624 17.9177 8.48596 18.2244 9.40558 18.2244Z" fill="#88CA97"/>
<path d="M26.7514 14.0588C26.7514 13.1389 26.4448 12.2415 25.8841 11.516L20.0523 17.3494C21.8691 18.7553 24.4785 18.4188 25.8841 16.6015C26.4448 15.8761 26.7514 14.9786 26.7514 14.0588Z" fill="#88CA97"/>
<path d="M29.6897 7.70192L27.1102 10.2821C29.1887 12.7724 28.8598 16.4818 26.3701 18.5609C24.1869 20.3857 21.0168 20.3857 18.8336 18.5609L16 21.3953L13.1738 18.5684C10.6841 20.6474 6.97569 20.3184 4.89719 17.828C3.07289 15.6442 3.07289 12.4733 4.89719 10.2895L3.57383 8.96581L2.31775 7.70192C0.799999 10.1998 0 13.0716 0 15.9957C0 24.8355 7.16261 32 16 32C24.8373 32 31.9999 24.8355 31.9999 15.9957C32.0074 13.0716 31.1999 10.1998 29.6897 7.70192Z" fill="#88CA97"/>
<path d="M27.5738 4.95726C21.4804 -1.43697 11.357 -1.67628 4.96449 4.4188C4.77758 4.59829 4.59814 4.77778 4.42618 4.95726C4.02991 5.37607 3.65608 5.80983 3.30468 6.26603L16 18.9722L28.6953 6.26603C28.3514 5.80983 27.9701 5.37607 27.5738 4.95726ZM16 2.09295C19.7383 2.09295 23.2224 3.53632 25.8392 6.1688L16 16.0107L6.16075 6.1688C8.77757 3.53632 12.2617 2.09295 16 2.09295Z" fill="#88CA97"/>
</svg>
