<svg width="162" height="48" viewBox="0 0 162 48" fill="none" xmlns="http://www.w3.org/2000/svg">
<path d="M155.998 48.001H6C2.69998 48.001 0 45.301 0 42.001V6.00098C0 2.70095 2.69998 0.000976562 6 0.000976562H155.998C159.298 0.000976562 161.998 2.70095 161.998 6.00098V42.001C161.998 45.301 159.298 48.001 155.998 48.001Z" fill="#100F0D"/>
<path d="M155.998 0.000976562H6C2.69998 0.000976562 0 2.70095 0 6.00098V42.001C0 45.301 2.69998 48.001 6 48.001H155.998C159.298 48.001 161.998 45.301 161.998 42.001V6.00098C161.998 2.70095 159.298 0.000976562 155.998 0.000976562ZM155.998 0.960491C158.777 0.960491 161.038 3.2218 161.038 6.00098V42.001C161.038 44.7802 158.777 47.0415 155.998 47.0415H6C3.22082 47.0415 0.960504 44.7802 0.960504 42.001V6.00098C0.960504 3.2218 3.22082 0.960491 6 0.960491H155.998Z" fill="#A2A2A1"/>
<path d="M128.322 36.0011H130.561V20.9986H128.322V36.0011ZM148.491 26.4032L145.924 32.9071H145.847L143.183 26.4032H140.771L144.767 35.4934L142.488 40.5502H144.823L150.981 26.4037L148.491 26.4032ZM135.791 34.297C135.059 34.297 134.036 33.9299 134.036 33.0229C134.036 31.865 135.31 31.4211 136.409 31.4211C137.393 31.4211 137.858 31.633 138.455 31.9227C138.281 33.3125 137.085 34.2969 135.791 34.2969L135.791 34.297ZM136.062 26.0751C134.441 26.0751 132.762 26.7894 132.068 28.372L134.055 29.2017C134.48 28.372 135.27 28.102 136.101 28.102C137.259 28.102 138.436 28.7962 138.455 30.0319V30.1861C138.05 29.9545 137.181 29.6072 136.12 29.6072C133.977 29.6072 131.796 30.7842 131.796 32.9844C131.796 34.9917 133.553 36.2849 135.521 36.2849C137.026 36.2849 137.858 35.6094 138.377 34.8178H138.455V35.9765H140.618V30.2244C140.618 27.561 138.628 26.0751 136.062 26.0751V26.0751ZM122.224 28.2295H119.039V23.0874H122.224C123.898 23.0874 124.848 24.473 124.848 25.6584C124.848 26.8209 123.898 28.2295 122.224 28.2295ZM122.166 20.9989H116.801V36.0014H119.039V30.3179H122.166C124.648 30.3179 127.087 28.5216 127.087 25.6589C127.087 22.7967 124.648 20.9996 122.166 20.9996L122.166 20.9989ZM92.909 34.2995C91.3621 34.2995 90.0674 33.0038 90.0674 31.2259C90.0674 29.4273 91.3621 28.1133 92.909 28.1133C94.4363 28.1133 95.6348 29.4274 95.6348 31.2259C95.6348 33.0038 94.4363 34.2995 92.909 34.2995ZM95.4801 27.243H95.4027C94.9003 26.6439 93.9332 26.1025 92.7159 26.1025C90.1635 26.1025 87.8244 28.3455 87.8244 31.2259C87.8244 34.0867 90.1635 36.3099 92.7159 36.3099C93.9332 36.3099 94.9002 35.7685 95.4027 35.1503H95.4801V35.8843C95.4801 37.8376 94.4363 38.881 92.7543 38.881C91.3822 38.881 90.5315 37.8952 90.1832 37.0641L88.231 37.8759C88.7911 39.2287 90.2793 40.8919 92.7544 40.8919C95.3841 40.8919 97.6073 39.3449 97.6073 35.5748V26.4117H95.4802L95.4801 27.243ZM99.1542 36.0006H101.396V20.9981H99.1542V36.0006ZM104.702 31.0516C104.644 29.0795 106.23 28.0745 107.37 28.0745C108.26 28.0745 109.013 28.5193 109.265 29.1568L104.702 31.0516ZM111.661 29.35C111.236 28.21 109.941 26.1025 107.293 26.1025C104.663 26.1025 102.479 28.171 102.479 31.2063C102.479 34.0675 104.644 36.31 107.543 36.31C109.883 36.31 111.236 34.8799 111.797 34.0483L110.057 32.8881C109.477 33.7389 108.685 34.2996 107.543 34.2996C106.404 34.2996 105.591 33.7774 105.07 32.7528L111.893 29.9304L111.661 29.35ZM57.292 27.6686V29.8337H62.473C62.3183 31.0517 61.9123 31.9408 61.2936 32.5596C60.5394 33.3133 59.3601 34.1448 57.2919 34.1448C54.1019 34.1448 51.6083 31.5738 51.6083 28.3839C51.6083 25.194 54.1019 22.6226 57.2919 22.6226C59.0126 22.6226 60.2689 23.2994 61.1969 24.1694L62.7246 22.6418C61.4289 21.4047 59.7086 20.4574 57.2919 20.4574C52.9221 20.4574 49.249 24.0146 49.249 28.3839C49.249 32.7527 52.9221 36.31 57.2919 36.31C59.6501 36.31 61.429 35.5366 62.8207 34.0868C64.2514 32.6561 64.6962 30.6456 64.6962 29.0215C64.6962 28.5194 64.6572 28.0554 64.5799 27.6686H57.292ZM70.5871 34.2995C69.0402 34.2995 67.7061 33.0235 67.7061 31.2063C67.7061 29.3697 69.0402 28.1134 70.5871 28.1134C72.1334 28.1134 73.4675 29.3697 73.4675 31.2063C73.4675 33.0235 72.1334 34.2995 70.5871 34.2995ZM70.5871 26.1025C67.7637 26.1025 65.4636 28.2484 65.4636 31.2063C65.4636 34.1448 67.7637 36.31 70.5871 36.31C73.4094 36.31 75.71 34.1448 75.71 31.2063C75.71 28.2484 73.4094 26.1025 70.5871 26.1025ZM81.7627 34.2995C80.2168 34.2995 78.8824 33.0235 78.8824 31.2063C78.8824 29.3697 80.2169 28.1134 81.7627 28.1134C83.3097 28.1134 84.6432 29.3697 84.6432 31.2063C84.6432 33.0235 83.3097 34.2995 81.7627 34.2995ZM81.7627 26.1025C78.9404 26.1025 76.6402 28.2484 76.6402 31.2063C76.6402 34.1448 78.9404 36.31 81.7627 36.31C84.5861 36.31 86.8862 34.1448 86.8862 31.2063C86.8862 28.2484 84.5861 26.1025 81.7627 26.1025Z" fill="white"/>
<path d="M24.8572 23.3098L12.0823 36.8695C12.0828 36.8723 12.0837 36.8747 12.0842 36.8775C12.476 38.35 13.8208 39.4341 15.4169 39.4341C16.055 39.4341 16.654 39.2616 17.1678 38.9588L17.2086 38.9349L31.5891 30.6367L24.8579 23.3096" fill="#EB3131"/>
<path d="M37.7824 21.0012L37.7701 20.9928L31.5616 17.3936L24.5669 23.6178L31.5859 30.6359L37.7617 27.0725C38.8444 26.488 39.5794 25.3466 39.5794 24.0303C39.5794 22.7235 38.8543 21.5877 37.7823 21.0013" fill="#F6B60B"/>
<path d="M12.0805 11.1334C12.0037 11.4166 11.9634 11.7132 11.9634 12.0212V35.9825C11.9634 36.29 12.0033 36.5877 12.081 36.8699L25.297 23.6566L12.081 11.1337" fill="#5778C5"/>
<path d="M24.9519 24.0019L31.5646 17.3912L17.2003 9.06291C16.6782 8.75018 16.0688 8.5697 15.4167 8.5697C13.8206 8.5697 12.4739 9.65585 12.082 11.13C12.0815 11.1314 12.0815 11.1324 12.0815 11.1337L24.9519 24.0022" fill="#3BAD49"/>
<path d="M56.8719 11.7382H53.3713V12.6045H55.9945C55.9232 13.3114 55.6419 13.8664 55.1676 14.2695C54.6932 14.6727 54.0876 14.8752 53.3713 14.8752C52.5857 14.8752 51.92 14.6015 51.3745 14.0578C50.84 13.5028 50.5682 12.8164 50.5682 11.9896C50.5682 11.1628 50.84 10.4765 51.3745 9.92152C51.92 9.3778 52.5857 9.10588 53.3713 9.10588C53.7745 9.10588 54.1589 9.17525 54.5113 9.32716C54.8638 9.47896 55.1469 9.69088 55.3682 9.9628L56.0338 9.29716C55.7319 8.95397 55.3495 8.69152 54.875 8.50025C54.4006 8.30897 53.9057 8.21717 53.3712 8.21717C52.3231 8.21717 51.4345 8.58088 50.7088 9.30655C49.9831 10.034 49.6194 10.9303 49.6194 11.9896C49.6194 13.0489 49.9831 13.9472 50.7088 14.6728C51.4344 15.3984 52.3231 15.7622 53.3712 15.7622C54.4719 15.7622 55.3494 15.4097 56.0244 14.6934C56.6187 14.0972 56.9225 13.291 56.9225 12.2822C56.9225 12.1116 56.9018 11.9297 56.8718 11.7384L56.8719 11.7382ZM58.2281 8.37826V15.6009H62.4449V14.7139H59.1562V12.4227H62.1225V11.5565H59.1562V9.26708H62.4449V8.37823L58.2281 8.37826ZM68.3578 9.2671V8.37826H63.3947V9.2671H65.4122V15.6008H66.3404V9.2671H68.3578ZM72.8512 8.37826H71.9231V15.6009H72.8512V8.37826ZM78.9773 9.2671V8.37826H74.0142V9.2671H76.0316V15.6008H76.9597V9.2671H78.9773ZM88.3429 9.31774C87.6266 8.58083 86.7492 8.2171 85.701 8.2171C84.651 8.2171 83.7736 8.58082 83.0573 9.30649C82.341 10.0228 81.9886 10.9209 81.9886 11.9895C81.9886 13.0582 82.341 13.9565 83.0573 14.6728C83.7736 15.3983 84.651 15.7622 85.701 15.7622C86.7397 15.7622 87.6266 15.3983 88.3429 14.6728C89.0592 13.9565 89.4116 13.0583 89.4116 11.9895C89.4116 10.9302 89.0592 10.0339 88.3429 9.31774ZM83.7229 9.92146C84.2573 9.37774 84.9136 9.10582 85.701 9.10582C86.4866 9.10582 87.1429 9.37774 87.6679 9.92146C88.2023 10.4558 88.4647 11.1532 88.4647 11.9895C88.4647 12.8277 88.2023 13.5233 87.6679 14.0577C87.1429 14.6014 86.4866 14.8751 85.701 14.8751C84.9136 14.8751 84.2573 14.6014 83.7229 14.0577C83.1997 13.5121 82.9373 12.8277 82.9373 11.9895C82.9373 11.1532 83.1997 10.4671 83.7229 9.92146ZM91.6167 11.1027L91.5773 9.7095H91.6167L95.288 15.6008H96.2573V8.37819H95.3292V12.6044L95.3685 13.9977H95.3292L91.8192 8.37819H90.6886V15.6008H91.6167V11.1027Z" fill="white" stroke="white" stroke-width="0.26666" stroke-miterlimit="10"/>
</svg>
