<svg width="162" height="105" viewBox="0 0 162 105" fill="none" xmlns="http://www.w3.org/2000/svg">
    <path d="M161 80.8523C161.006 88.3401 159.957 95.7916 157.883 102.988L137.396 88.8284C137.767 86.1858 137.953 83.5207 137.952 80.8523C137.952 49.452 112.454 23.9962 81 23.9962C49.5464 23.9962 24.0476 49.452 24.0476 80.8523C24.0468 83.5248 24.2328 86.1941 24.6044 88.8407L4.11655 103C2.04348 95.8038 0.994364 88.3524 1.00002 80.8646C1.00002 36.7561 36.8167 1 81 1C125.183 1 161 36.7438 161 80.8523Z" fill="url(#paint0_linear_3845_12008)" stroke="#0C0C17" stroke-width="2" stroke-miterlimit="10"/>
    <path d="M81 89.7065C85.8983 89.7065 89.8692 85.7424 89.8692 80.8523C89.8692 75.9623 85.8983 71.9982 81 71.9982C76.1017 71.9982 72.1309 75.9623 72.1309 80.8523C72.1309 85.7424 76.1017 89.7065 81 89.7065Z" fill="#0C0C17"/>
    <path d="M80.6674 76.4375C80.0866 76.4811 79.5202 76.6385 79.0003 76.9006C78.4805 77.1628 78.0175 77.5246 77.6378 77.9654C77.258 78.4061 76.9689 78.9173 76.787 79.4696C76.6051 80.0219 76.534 80.6046 76.5777 81.1843C76.6214 81.7641 76.779 82.3296 77.0416 82.8485C77.3042 83.3675 77.6666 83.8297 78.1081 84.2088C78.5496 84.5879 79.0616 84.8765 79.6149 85.0581C80.1681 85.2397 80.7518 85.3107 81.3325 85.2671L81.8696 85.1908L151.751 75.5226L81.2069 76.4252L80.6674 76.4375Z" fill="#EA5365" stroke="#10101B" stroke-miterlimit="10"/>
    <defs>
        <linearGradient id="paint0_linear_3845_12008" x1="-8.51049" y1="52" x2="181.369" y2="59.0218" gradientUnits="userSpaceOnUse">
            <stop stop-color="#4BF2A2"/>
            <stop offset="0.522948" stop-color="#A89FE7"/>
            <stop offset="0.669499" stop-color="#E1C4F4"/>
            <stop offset="1" stop-color="#DF0000"/>
        </linearGradient>
    </defs>
</svg>
