<svg width="32" height="31" viewBox="0 0 32 31" fill="none" xmlns="http://www.w3.org/2000/svg">
<path d="M27.019 0C24.2701 0 22.0417 3.14493 22.0417 7.02325C22.0417 10.1913 23.5282 12.8692 25.5709 13.7437V11.3056C24.4393 10.5429 23.6572 8.90826 23.6572 7.02325C23.6572 4.40396 25.162 2.28012 27.019 2.28012C28.876 2.28012 30.3799 4.40396 30.3799 7.02592C30.3799 8.94095 29.576 10.5904 28.4186 11.3398V9.36464C28.4186 9.13661 28.2282 8.95177 27.9933 8.95177H26.1738C25.9389 8.95177 25.7484 9.13661 25.7484 9.36464V17.179C23.6157 17.9777 22.0462 20.7182 22.0462 23.9767C22.0462 27.856 24.2746 31 27.0236 31C29.7725 31 32 27.856 32 23.9767C31.9954 20.8922 30.5858 18.272 28.6272 17.3255V19.9635C29.6161 20.7537 30.2838 22.2533 30.2838 23.9732C30.2838 26.5188 28.8202 28.5814 27.019 28.5814C25.2178 28.5814 23.7532 26.5188 23.7532 23.9732C23.7532 22.0642 24.5757 20.4268 25.7484 19.7276V21.1941C25.7484 21.4221 25.9389 21.6069 26.1738 21.6069H27.9933C28.2282 21.6069 28.4186 21.4221 28.4186 21.1941V13.7676C30.4856 12.9138 31.9954 10.2188 31.9954 7.02592C31.9954 3.14493 29.767 0 27.019 0Z" fill="#6A84E0"/>
<path fill-rule="evenodd" clip-rule="evenodd" d="M19.1446 9.36286C17.5364 2.62462 12.1181 2.76402 12.1181 2.76402H6.58643V28.3354L11.7925 28.3434C12.77 28.3474 13.7342 28.1229 14.6036 27.689C15.7742 27.1135 16.8038 26.3005 17.6224 25.305C18.9753 23.6615 20.7537 16.1011 19.1446 9.36286ZM15.7818 22.4593C15.4719 23.3201 14.9311 24.0852 14.2153 24.6757C13.4995 25.2662 12.6344 25.6609 11.7092 25.8191C11.116 25.916 10.5122 25.9366 9.9135 25.8804H9.87692V5.17199H10.4971C11.4367 5.16917 12.3639 5.38053 13.204 5.78908C14.6749 6.50917 16.2365 8.03812 16.6024 11.0889C17.0652 14.9282 16.9674 19.1679 15.7818 22.4593Z" fill="#6A84E0"/>
<path d="M3.29322 2.76402H0V28.3354H3.29322V2.76402Z" fill="#6A84E0"/>
</svg>
