<svg width="123" height="52" viewBox="0 0 123 52" fill="none" xmlns="http://www.w3.org/2000/svg">
  <g opacity="0.3" filter="url(#filter0_f_6001_4735)">
    <ellipse cx="57" cy="28.5" rx="13" ry="13.5" fill="#F5841F" />
  </g>
  <g opacity="0.1">
    <path d="M146.778 2.76494L111.827 18.0764L120.815 5.94194L146.778 2.76494Z" fill="#E17726" stroke="#E17726"
      stroke-width="0.367494" stroke-linecap="round" stroke-linejoin="round" />
    <path d="M80.3887 -15.0195L102.688 15.8625L101.285 0.713591L80.3887 -15.0195Z" fill="#E27625" stroke="#E27625"
      stroke-width="0.367494" stroke-linecap="round" stroke-linejoin="round" />
    <path d="M122.105 53.3782L111.058 63.9739L126.149 73.2489L135.469 57.2553L122.105 53.3782Z"
      fill="url(#paint0_linear_6001_4735)" stroke="#E27625" stroke-width="0.367494" stroke-linecap="round"
      stroke-linejoin="round" />
    <path d="M62.9572 37.8273L63.0034 56.3306L80.681 55.8358L76.4402 41.1438L62.9572 37.8273Z"
      fill="url(#paint1_linear_6001_4735)" stroke="#E27625" stroke-width="0.367494" stroke-linecap="round"
      stroke-linejoin="round" />
    <path d="M88.9214 21.5856L82.3759 27.7941L98.3894 32.9404L102.907 13.9161L88.9214 21.5856Z" fill="#E27625"
      stroke="#E27625" stroke-width="0.367494" stroke-linecap="round" stroke-linejoin="round" />
    <path d="M121.085 30.2036L112.694 16.3082L107.208 35.3033L123.649 38.8532L121.085 30.2036Z" fill="#E27625"
      stroke="#E27625" stroke-width="0.367494" stroke-linecap="round" stroke-linejoin="round" />
    <path d="M80.6868 55.8325L91.8822 53.3377L85.3353 43.9502L80.6868 55.8325Z" fill="#E27625" stroke="#E27625"
      stroke-width="0.367494" stroke-linecap="round" stroke-linejoin="round" />
    <path d="M102.642 56.2196L111.062 63.9702L113.006 51.3632L102.642 56.2196Z" fill="#E27625" stroke="#E27625"
      stroke-width="0.367494" stroke-linecap="round" stroke-linejoin="round" />
    <path d="M80.6908 55.8355L88.5507 62.9427L89.2752 60.0111L91.8862 53.3407L80.6908 55.8355Z" fill="#D5BFB2"
      stroke="#D5BFB2" stroke-width="0.367494" stroke-linecap="round" stroke-linejoin="round" />
    <path d="M94.4656 41.5273L87.0143 36.7671L93.53 35.453L94.4656 41.5273Z" fill="#233447" stroke="#233447"
      stroke-width="0.367494" stroke-linecap="round" stroke-linejoin="round" />
    <path d="M106.308 44.6972L110.155 39.9045L115.169 44.308L106.308 44.6972Z" fill="#233447" stroke="#233447"
      stroke-width="0.367494" stroke-linecap="round" stroke-linejoin="round" />
    <path d="M80.686 55.8346L85.4985 43.5684L76.3712 41.4191L80.686 55.8346Z" fill="#CC6228" stroke="#CC6228"
      stroke-width="0.367494" stroke-linecap="round" stroke-linejoin="round" />
    <path d="M113.059 50.9531L111.065 63.9746L122.038 53.6554L113.059 50.9531Z" fill="#CC6228" stroke="#CC6228"
      stroke-width="0.367494" stroke-linecap="round" stroke-linejoin="round" />
    <path d="M123.651 38.85L107.21 35.3001L106.309 44.6991L110.156 39.9062L115.17 44.3097L123.651 38.85Z" fill="#CC6228"
      stroke="#CC6228" stroke-width="0.367494" stroke-linecap="round" stroke-linejoin="round" />
    <path d="M87.0222 36.7693L93.538 35.4552L94.4735 41.5298L98.3924 32.9393L82.3789 27.793L87.0222 36.7693Z"
      fill="#CC6228" stroke="#CC6228" stroke-width="0.367494" stroke-linecap="round" stroke-linejoin="round" />
    <path d="M82.3789 27.793L85.3417 43.9523L87.0222 36.7693L82.3789 27.793Z" fill="#E27525" stroke="#E27525"
      stroke-width="0.367494" stroke-linecap="round" stroke-linejoin="round" />
    <path d="M115.169 44.3121L113.004 51.3654L123.65 38.8525L115.169 44.3121Z" fill="#E27525" stroke="#E27525"
      stroke-width="0.367494" stroke-linecap="round" stroke-linejoin="round" />
    <path d="M98.3918 32.9375L94.4727 41.528L93.5341 52.6604L97.7121 38.7766L98.3918 32.9375Z" fill="#E27525"
      stroke="#E27525" stroke-width="0.367494" stroke-linecap="round" stroke-linejoin="round" />
    <path d="M107.215 35.3015L104.921 40.6752L101.56 54.8109L106.314 44.7006L107.215 35.3015Z" fill="#E27525"
      stroke="#E27525" stroke-width="0.367494" stroke-linecap="round" stroke-linejoin="round" />
    <path d="M106.31 44.7012L101.557 54.8115L102.644 56.2215L113.007 51.3651L115.172 44.3118L106.31 44.7012Z"
      fill="#F5841F" stroke="#F5841F" stroke-width="0.367494" stroke-linecap="round" stroke-linejoin="round" />
    <path d="M87.0137 36.7637L85.3333 43.9467L91.8801 53.3343L93.5264 52.6566L94.4649 41.5241L87.0137 36.7637Z"
      fill="#F5841F" stroke="#F5841F" stroke-width="0.367494" stroke-linecap="round" stroke-linejoin="round" />
    <path
      d="M102.643 56.2209L101.556 54.8112L93.5277 52.66L91.8817 53.3375L89.2704 60.008L90.1632 59.5233L101.038 62.4373L101.598 63.3111L102.643 56.2209Z"
      fill="#161616" stroke="#161616" stroke-width="0.367494" stroke-linecap="round" stroke-linejoin="round" />
    <path
      d="M141.425 27.623L147.25 15.5625L146.773 2.76724L112.995 17.5707L121.084 30.2008L134.926 39.0097L139.384 35.6967L138.236 34.1717L141.151 32.518L139.781 30.5715L142.597 29.2861L141.425 27.623Z"
      fill="url(#paint2_linear_6001_4735)" stroke="#763E1A" stroke-width="0.367494" stroke-linecap="round"
      stroke-linejoin="round" />
    <path
      d="M73.5773 -4.17924L72.6203 9.18576L70.7172 10.0249L72.5417 12.5538L70.3818 13.5544L72.0791 16.4438L70.3228 17.1907L72.5268 22.2889L88.919 21.5812L102.239 14.6875L80.3882 -15.0216L73.5773 -4.17924Z"
      fill="url(#paint3_linear_6001_4735)" stroke="#763E1A" stroke-width="0.367494" stroke-linecap="round"
      stroke-linejoin="round" />
    <path
      d="M134.927 39.007L121.085 30.1983L123.649 38.8479L113.004 51.3606L122.033 53.6484L135.471 57.249L134.927 39.007Z"
      fill="#F5841F" stroke="#F5841F" stroke-width="0.367494" stroke-linecap="round" stroke-linejoin="round" />
    <path
      d="M88.9138 21.5824L72.5219 22.2899L62.9588 37.8239L76.3677 41.4168L85.331 43.95L82.3683 27.791L88.9138 21.5824Z"
      fill="#F5841F" stroke="#F5841F" stroke-width="0.367494" stroke-linecap="round" stroke-linejoin="round" />
    <path
      d="M107.211 35.3041L112.999 17.5741L120.813 5.94782L101.283 0.714844L102.237 14.6906L98.3851 32.9393L97.2417 38.6868L93.5276 52.6622L101.556 54.8134L105.327 40.8533L107.211 35.3041Z"
      fill="#F5841F" stroke="#F5841F" stroke-width="0.367494" stroke-linecap="round" stroke-linejoin="round" />
  </g>
  <defs>
    <filter id="filter0_f_6001_4735" x="0" y="-29" width="114" height="115" filterUnits="userSpaceOnUse"
      color-interpolation-filters="sRGB">
      <feFlood flood-opacity="0" result="BackgroundImageFix" />
      <feBlend mode="normal" in="SourceGraphic" in2="BackgroundImageFix" result="shape" />
      <feGaussianBlur stdDeviation="22" result="effect1_foregroundBlur_6001_4735" />
    </filter>
    <linearGradient id="paint0_linear_6001_4735" x1="124.995" y1="54.1525" x2="120.298" y2="71.6813"
      gradientUnits="userSpaceOnUse">
      <stop stop-color="#E27625" />
      <stop offset="1" stop-color="#FFFAF5" />
    </linearGradient>
    <linearGradient id="paint1_linear_6001_4735" x1="73.5506" y1="40.3695" x2="68.8538" y2="57.8982"
      gradientUnits="userSpaceOnUse">
      <stop stop-color="#E27625" />
      <stop offset="1" stop-color="#FFFAF5" />
    </linearGradient>
    <linearGradient id="paint2_linear_6001_4735" x1="134.688" y1="-0.470936" x2="124.834" y2="36.3056"
      gradientUnits="userSpaceOnUse">
      <stop stop-color="#763E1A" />
      <stop offset="0.4375" stop-color="#915E3D" />
      <stop offset="1" stop-color="#FFF1E8" />
    </linearGradient>
    <linearGradient id="paint3_linear_6001_4735" x1="92.4733" y1="-11.7834" x2="82.6191" y2="24.9931"
      gradientUnits="userSpaceOnUse">
      <stop stop-color="#763E1A" />
      <stop offset="0.4375" stop-color="#915E3D" />
      <stop offset="1" stop-color="#FFF1E8" />
    </linearGradient>
  </defs>
</svg>