<svg width="127" height="120" viewBox="0 0 127 120" fill="none" xmlns="http://www.w3.org/2000/svg">
  <circle cx="60" cy="60" r="59" fill="#303043" stroke="#4CE6A1" stroke-width="2" />
  <path d="M87.3054 30L63.7544 48.7499L68.1339 37.7L87.3054 30Z" fill="#E17726" stroke="#E17726" stroke-width="0.601754"
    stroke-linecap="round" stroke-linejoin="round" />
  <path d="M32.9814 30L56.3228 48.9249L52.1531 37.6999L32.9814 30Z" fill="#E27625" stroke="#E27625"
    stroke-width="0.601754" stroke-linecap="round" stroke-linejoin="round" />
  <path d="M78.8256 73.4746L72.5593 83.7746L85.9771 87.7496L89.8208 73.6998L78.8256 73.4746Z"
    fill="url(#paint0_linear_9120_34306)" stroke="#E27625" stroke-width="0.601754" stroke-linecap="round"
    stroke-linejoin="round" />
  <path d="M30.4885 73.6998L34.3088 87.7496L47.7034 83.7746L41.4603 73.4746L30.4885 73.6998Z"
    fill="url(#paint1_linear_9120_34306)" stroke="#E27625" stroke-width="0.601754" stroke-linecap="round"
    stroke-linejoin="round" />
  <path d="M46.9814 56.0748L43.2543 62.1248L56.5322 62.7748L56.0897 47.3999L46.9814 56.0748Z" fill="#E27625"
    stroke="#E27625" stroke-width="0.601754" stroke-linecap="round" stroke-linejoin="round" />
  <path d="M73.3051 56.0765L64.0573 47.2266L63.7544 62.7765L77.0323 62.1265L73.3051 56.0765Z" fill="#E27625"
    stroke="#E27625" stroke-width="0.601754" stroke-linecap="round" stroke-linejoin="round" />
  <path d="M47.7036 83.7737L55.7402 79.5988L48.8218 73.7988L47.7036 83.7737Z" fill="#E27625" stroke="#E27625"
    stroke-width="0.601754" stroke-linecap="round" stroke-linejoin="round" />
  <path d="M64.5465 79.5988L72.5598 83.7737L71.4649 73.7988L64.5465 79.5988Z" fill="#E27625" stroke="#E27625"
    stroke-width="0.601754" stroke-linecap="round" stroke-linejoin="round" />
  <path d="M72.5598 83.7745L64.5465 79.5996L65.1987 85.1995L65.1287 87.5745L72.5598 83.7745Z" fill="#D5BFB2"
    stroke="#D5BFB2" stroke-width="0.601754" stroke-linecap="round" stroke-linejoin="round" />
  <path d="M47.7036 83.7745L55.158 87.5745L55.1114 85.1995L55.7402 79.5996L47.7036 83.7745Z" fill="#D5BFB2"
    stroke="#D5BFB2" stroke-width="0.601754" stroke-linecap="round" stroke-linejoin="round" />
  <path d="M55.2974 70.0993L48.635 67.9994L53.3405 65.6743L55.2974 70.0993Z" fill="#233447" stroke="#233447"
    stroke-width="0.601754" stroke-linecap="round" stroke-linejoin="round" />
  <path d="M64.9894 70.0993L66.9462 65.6743L71.675 67.9994L64.9894 70.0993Z" fill="#233447" stroke="#233447"
    stroke-width="0.601754" stroke-linecap="round" stroke-linejoin="round" />
  <path d="M47.7052 83.7746L48.87 73.4746L41.4623 73.6998L47.7052 83.7746Z" fill="#CC6228" stroke="#CC6228"
    stroke-width="0.601754" stroke-linecap="round" stroke-linejoin="round" />
  <path d="M71.4178 73.4746L72.5593 83.7746L78.8256 73.6998L71.4178 73.4746Z" fill="#CC6228" stroke="#CC6228"
    stroke-width="0.601754" stroke-linecap="round" stroke-linejoin="round" />
  <path d="M77.0323 62.1245L63.7544 62.7745L64.989 70.0996L66.9458 65.6745L71.6746 67.9995L77.0323 62.1245Z"
    fill="#CC6228" stroke="#CC6228" stroke-width="0.601754" stroke-linecap="round" stroke-linejoin="round" />
  <path d="M48.6353 67.9995L53.3409 65.6745L55.2977 70.0996L56.5322 62.7745L43.2543 62.1245L48.6353 67.9995Z"
    fill="#CC6228" stroke="#CC6228" stroke-width="0.601754" stroke-linecap="round" stroke-linejoin="round" />
  <path d="M43.2543 62.1245L48.8218 73.7995L48.6353 67.9995L43.2543 62.1245Z" fill="#E27525" stroke="#E27525"
    stroke-width="0.601754" stroke-linecap="round" stroke-linejoin="round" />
  <path d="M71.6754 67.9995L71.4658 73.7995L77.0333 62.1245L71.6754 67.9995Z" fill="#E27525" stroke="#E27525"
    stroke-width="0.601754" stroke-linecap="round" stroke-linejoin="round" />
  <path d="M56.5333 62.7749L55.2986 70.1L56.8593 78.7498L57.2088 67.3499L56.5333 62.7749Z" fill="#E27525"
    stroke="#E27525" stroke-width="0.601754" stroke-linecap="round" stroke-linejoin="round" />
  <path d="M63.7538 62.7749L63.1014 67.325L63.4276 78.7498L64.9883 70.1L63.7538 62.7749Z" fill="#E27525"
    stroke="#E27525" stroke-width="0.601754" stroke-linecap="round" stroke-linejoin="round" />
  <path d="M64.9886 70.0981L63.4279 78.7479L64.546 79.598L71.4646 73.798L71.6742 67.998L64.9886 70.0981Z" fill="#F5841F"
    stroke="#F5841F" stroke-width="0.601754" stroke-linecap="round" stroke-linejoin="round" />
  <path d="M48.635 67.998L48.8215 73.798L55.7399 79.598L56.8581 78.7479L55.2974 70.0981L48.635 67.998Z" fill="#F5841F"
    stroke="#F5841F" stroke-width="0.601754" stroke-linecap="round" stroke-linejoin="round" />
  <path
    d="M65.1281 87.5749L65.1978 85.1999L64.5923 84.6499H55.6938L55.1114 85.1999L55.158 87.5749L47.7036 83.7749L50.3126 86.0749L55.6005 89.9999H64.6621L69.9733 86.0749L72.559 83.7749L65.1281 87.5749Z"
    fill="#C0AC9D" stroke="#C0AC9D" stroke-width="0.601754" stroke-linecap="round" stroke-linejoin="round" />
  <path
    d="M64.5458 79.6004L63.4276 78.7505H56.8585L55.7405 79.6004L55.1115 85.2005L55.6939 84.6504H64.5924L65.1981 85.2005L64.5458 79.6004Z"
    fill="#161616" stroke="#161616" stroke-width="0.601754" stroke-linecap="round" stroke-linejoin="round" />
  <path
    d="M88.307 49.9748L90.2871 39.6249L87.3053 30L64.5465 48.125L73.3052 56.0748L85.6747 59.9499L88.4002 56.5249L87.2123 55.5998L89.099 53.7499L87.6548 52.5499L89.5417 50.9999L88.307 49.9748Z"
    fill="url(#paint2_linear_9120_34306)" stroke="#763E1A" stroke-width="0.601754" stroke-linecap="round"
    stroke-linejoin="round" />
  <path
    d="M30 39.6249L32.0033 49.9748L30.7221 50.9999L32.6323 52.5499L31.188 53.7499L33.0749 55.5998L31.8869 56.5249L34.6124 59.9499L46.9819 56.0748L55.7406 48.125L32.9817 30L30 39.6249Z"
    fill="url(#paint3_linear_9120_34306)" stroke="#763E1A" stroke-width="0.601754" stroke-linecap="round"
    stroke-linejoin="round" />
  <path d="M85.6756 59.9496L73.3061 56.0747L77.0333 62.1247L71.4658 73.7995L78.8269 73.6996H89.822L85.6756 59.9496Z"
    fill="#F5841F" stroke="#F5841F" stroke-width="0.601754" stroke-linecap="round" stroke-linejoin="round" />
  <path d="M46.9811 56.0747L34.6117 59.9496L30.4885 73.6996H41.4603L48.8214 73.7995L43.254 62.1247L46.9811 56.0747Z"
    fill="#F5841F" stroke="#F5841F" stroke-width="0.601754" stroke-linecap="round" stroke-linejoin="round" />
  <path
    d="M63.7536 62.7751L64.5456 48.125L68.133 37.7002H52.1528L55.7402 48.125L56.5322 62.7751L56.835 67.375L56.8583 78.75H63.4274L63.4508 67.375L63.7536 62.7751Z"
    fill="#F5841F" stroke="#F5841F" stroke-width="0.601754" stroke-linecap="round" stroke-linejoin="round" />
  <path
    d="M113 101.667C119.417 101.667 124.667 96.4168 124.667 90.0002C124.667 83.5835 119.417 78.3335 113 78.3335C106.583 78.3335 101.333 83.5835 101.333 90.0002C101.333 96.4168 106.583 101.667 113 101.667Z"
    fill="#274641" stroke="#4CE6A1" stroke-width="2" stroke-linecap="round" stroke-linejoin="round" />
  <path d="M108.042 89.9999L111.343 93.3016L117.958 86.6982" stroke="#4CE6A1" stroke-width="2" stroke-linecap="round"
    stroke-linejoin="round" />
  <defs>
    <linearGradient id="paint0_linear_9120_34306" x1="81.1901" y1="73.4746" x2="81.1901" y2="87.7496"
      gradientUnits="userSpaceOnUse">
      <stop stop-color="#E27625" />
      <stop offset="1" stop-color="#FFFAF5" />
    </linearGradient>
    <linearGradient id="paint1_linear_9120_34306" x1="39.0959" y1="73.4746" x2="39.0959" y2="87.7496"
      gradientUnits="userSpaceOnUse">
      <stop stop-color="#E27625" />
      <stop offset="1" stop-color="#FFFAF5" />
    </linearGradient>
    <linearGradient id="paint2_linear_9120_34306" x1="77.4168" y1="30" x2="77.4168" y2="59.9499"
      gradientUnits="userSpaceOnUse">
      <stop stop-color="#763E1A" />
      <stop offset="0.4375" stop-color="#915E3D" />
      <stop offset="1" stop-color="#FFF1E8" />
    </linearGradient>
    <linearGradient id="paint3_linear_9120_34306" x1="42.8703" y1="30" x2="42.8703" y2="59.9499"
      gradientUnits="userSpaceOnUse">
      <stop stop-color="#763E1A" />
      <stop offset="0.4375" stop-color="#915E3D" />
      <stop offset="1" stop-color="#FFF1E8" />
    </linearGradient>
  </defs>
</svg>