<svg width="122" height="122" viewBox="0 0 122 122" fill="none" xmlns="http://www.w3.org/2000/svg">
<path d="M115.065 1L68.1873 38.5L76.9046 16.4L115.065 1Z" fill="#E17726" stroke="#E17726" stroke-width="1.225" stroke-linecap="round" stroke-linejoin="round"/>
<path d="M6.93481 1L53.3955 38.85L45.0957 16.4L6.93481 1Z" fill="#E27625" stroke="#E27625" stroke-width="1.225" stroke-linecap="round" stroke-linejoin="round"/>
<path d="M98.1863 87.9497L85.7134 108.55L112.421 116.5L120.072 88.4L98.1863 87.9497Z" fill="url(#paint0_linear_3537_6537)" stroke="#E27625" stroke-width="1.225" stroke-linecap="round" stroke-linejoin="round"/>
<path d="M1.97266 88.4L9.57696 116.5L36.2386 108.55L23.8119 87.9497L1.97266 88.4Z" fill="url(#paint1_linear_3537_6537)" stroke="#E27625" stroke-width="1.225" stroke-linecap="round" stroke-linejoin="round"/>
<path d="M34.802 53.15L27.3833 65.2501L53.813 66.5501L52.9321 35.8002L34.802 53.15Z" fill="#E27625" stroke="#E27625" stroke-width="1.225" stroke-linecap="round" stroke-linejoin="round"/>
<path d="M87.1971 53.1502L68.7894 35.4503L68.1865 66.5503L94.616 65.2504L87.1971 53.1502Z" fill="#E27625" stroke="#E27625" stroke-width="1.225" stroke-linecap="round" stroke-linejoin="round"/>
<path d="M36.2405 108.55L52.2372 100.2L38.4662 88.5997L36.2405 108.55Z" fill="#E27625" stroke="#E27625" stroke-width="1.225" stroke-linecap="round" stroke-linejoin="round"/>
<path d="M69.7634 100.2L85.7138 108.55L83.5344 88.5997L69.7634 100.2Z" fill="#E27625" stroke="#E27625" stroke-width="1.225" stroke-linecap="round" stroke-linejoin="round"/>
<path d="M85.7138 108.551L69.7634 100.201L71.0615 111.401L70.9223 116.151L85.7138 108.551Z" fill="#D5BFB2" stroke="#D5BFB2" stroke-width="1.225" stroke-linecap="round" stroke-linejoin="round"/>
<path d="M36.2405 108.551L51.0783 116.151L50.9855 111.401L52.2372 100.201L36.2405 108.551Z" fill="#D5BFB2" stroke="#D5BFB2" stroke-width="1.225" stroke-linecap="round" stroke-linejoin="round"/>
<path d="M51.3548 81.2003L38.0935 77.0005L47.4598 72.3503L51.3548 81.2003Z" fill="#233447" stroke="#233447" stroke-width="1.225" stroke-linecap="round" stroke-linejoin="round"/>
<path d="M70.6445 81.2003L74.5396 72.3503L83.9523 77.0005L70.6445 81.2003Z" fill="#233447" stroke="#233447" stroke-width="1.225" stroke-linecap="round" stroke-linejoin="round"/>
<path d="M36.2392 108.55L38.5578 87.9497L23.8127 88.4L36.2392 108.55Z" fill="#CC6228" stroke="#CC6228" stroke-width="1.225" stroke-linecap="round" stroke-linejoin="round"/>
<path d="M83.4421 87.9497L85.7143 108.55L98.1872 88.4L83.4421 87.9497Z" fill="#CC6228" stroke="#CC6228" stroke-width="1.225" stroke-linecap="round" stroke-linejoin="round"/>
<path d="M94.616 65.2495L68.1865 66.5495L70.6439 81.1998L74.539 72.3495L83.9516 76.9996L94.616 65.2495Z" fill="#CC6228" stroke="#CC6228" stroke-width="1.225" stroke-linecap="round" stroke-linejoin="round"/>
<path d="M38.0943 76.9996L47.4605 72.3495L51.3556 81.1998L53.813 66.5495L27.3833 65.2495L38.0943 76.9996Z" fill="#CC6228" stroke="#CC6228" stroke-width="1.225" stroke-linecap="round" stroke-linejoin="round"/>
<path d="M27.3833 65.2495L38.4653 88.5997L38.0941 76.9996L27.3833 65.2495Z" fill="#E27525" stroke="#E27525" stroke-width="1.225" stroke-linecap="round" stroke-linejoin="round"/>
<path d="M83.9524 76.9996L83.5352 88.5997L94.6171 65.2495L83.9524 76.9996Z" fill="#E27525" stroke="#E27525" stroke-width="1.225" stroke-linecap="round" stroke-linejoin="round"/>
<path d="M53.8147 66.5498L51.3569 81.2001L54.4636 98.4998L55.1592 75.6999L53.8147 66.5498Z" fill="#E27525" stroke="#E27525" stroke-width="1.225" stroke-linecap="round" stroke-linejoin="round"/>
<path d="M68.1871 66.5498L66.8887 75.6502L67.5379 98.4998L70.6445 81.2001L68.1871 66.5498Z" fill="#E27525" stroke="#E27525" stroke-width="1.225" stroke-linecap="round" stroke-linejoin="round"/>
<path d="M70.6442 81.2005L67.5376 98.5002L69.7633 100.2L83.5347 88.6003L83.9519 77.0003L70.6442 81.2005Z" fill="#F5841F" stroke="#F5841F" stroke-width="1.225" stroke-linecap="round" stroke-linejoin="round"/>
<path d="M38.0935 77.0003L38.4647 88.6003L52.2357 100.2L54.4615 98.5002L51.3548 81.2005L38.0935 77.0003Z" fill="#F5841F" stroke="#F5841F" stroke-width="1.225" stroke-linecap="round" stroke-linejoin="round"/>
<path d="M70.9237 116.15L71.0626 111.4L69.8573 110.3H52.1448L50.9855 111.4L51.0783 116.15L36.2405 108.55L41.4337 113.15L51.9592 121H69.9961L80.568 113.15L85.7148 108.55L70.9237 116.15Z" fill="#C0AC9D" stroke="#C0AC9D" stroke-width="1.225" stroke-linecap="round" stroke-linejoin="round"/>
<path d="M69.7631 100.2L67.5373 98.5H54.4616L52.2362 100.2L50.9841 111.4L52.1434 110.3H69.8559L71.0615 111.4L69.7631 100.2Z" fill="#161616" stroke="#161616" stroke-width="1.225" stroke-linecap="round" stroke-linejoin="round"/>
<path d="M117.058 40.9499L121 20.25L115.065 1L69.7634 37.2502L87.1975 53.1499L111.819 60.9001L117.244 54.0502L114.879 52.1999L118.635 48.5002L115.76 46.1001L119.516 43L117.058 40.9499Z" fill="url(#paint2_linear_3537_6537)" stroke="#763E1A" stroke-width="1.225" stroke-linecap="round" stroke-linejoin="round"/>
<path d="M1 20.25L4.98764 40.9499L2.43742 43L6.23957 46.1001L3.36477 48.5002L7.12055 52.1999L4.75579 54.0502L10.1809 60.9001L34.8024 53.1499L52.2364 37.2502L6.9351 1L1 20.25Z" fill="url(#paint3_linear_3537_6537)" stroke="#763E1A" stroke-width="1.225" stroke-linecap="round" stroke-linejoin="round"/>
<path d="M111.82 60.8997L87.1982 53.1499L94.6171 65.25L83.5352 88.5998L98.1874 88.3999H120.073L111.82 60.8997Z" fill="#F5841F" stroke="#F5841F" stroke-width="1.225" stroke-linecap="round" stroke-linejoin="round"/>
<path d="M34.801 53.1499L10.1798 60.8997L1.97266 88.3999H23.8119L38.464 88.5998L27.3823 65.25L34.801 53.1499Z" fill="#F5841F" stroke="#F5841F" stroke-width="1.225" stroke-linecap="round" stroke-linejoin="round"/>
<path d="M68.1867 66.5501L69.7632 37.2498L76.9037 16.4H45.0955L52.236 37.2498L53.8125 66.5501L54.4153 75.75L54.4617 98.5001H67.5375L67.5839 75.75L68.1867 66.5501Z" fill="#F5841F" stroke="#F5841F" stroke-width="1.225" stroke-linecap="round" stroke-linejoin="round"/>
<defs>
<linearGradient id="paint0_linear_3537_6537" x1="102.893" y1="87.9497" x2="102.893" y2="116.5" gradientUnits="userSpaceOnUse">
<stop stop-color="#E27625"/>
<stop offset="1" stop-color="#FFFAF5"/>
</linearGradient>
<linearGradient id="paint1_linear_3537_6537" x1="19.1056" y1="87.9497" x2="19.1056" y2="116.5" gradientUnits="userSpaceOnUse">
<stop stop-color="#E27625"/>
<stop offset="1" stop-color="#FFFAF5"/>
</linearGradient>
<linearGradient id="paint2_linear_3537_6537" x1="95.3817" y1="1" x2="95.3817" y2="60.9001" gradientUnits="userSpaceOnUse">
<stop stop-color="#763E1A"/>
<stop offset="0.4375" stop-color="#915E3D"/>
<stop offset="1" stop-color="#FFF1E8"/>
</linearGradient>
<linearGradient id="paint3_linear_3537_6537" x1="26.6182" y1="1" x2="26.6182" y2="60.9001" gradientUnits="userSpaceOnUse">
<stop stop-color="#763E1A"/>
<stop offset="0.4375" stop-color="#915E3D"/>
<stop offset="1" stop-color="#FFF1E8"/>
</linearGradient>
</defs>
</svg>
