<svg width="360" height="334" viewBox="0 0 360 334" fill="none" xmlns="http://www.w3.org/2000/svg">
<path d="M244.078 101.026L201.217 115.543C188.167 119.963 181.171 134.125 185.591 147.175L204.267 202.315C208.687 215.365 222.849 222.361 235.899 217.941L278.76 203.423C291.81 199.003 298.806 184.841 294.386 171.791L275.71 116.652C271.29 103.602 257.128 96.6057 244.078 101.026Z" fill="url(#paint0_radial_1213_257)"/>
<path d="M240.637 103.344L201.998 116.432C188.948 120.852 181.952 135.014 186.372 148.064L203.423 198.405C207.843 211.455 222.005 218.451 235.055 214.031L273.695 200.943C286.744 196.523 293.74 182.361 289.32 169.311L272.27 118.97C267.85 105.92 253.687 98.9242 240.637 103.344Z" fill="url(#paint1_radial_1213_257)"/>
<path d="M244.078 101.026L201.217 115.543C188.167 119.963 181.171 134.125 185.591 147.175L204.267 202.315C208.687 215.365 222.849 222.361 235.899 217.941L278.76 203.423C291.81 199.003 298.806 184.841 294.386 171.791L275.71 116.652C271.29 103.602 257.128 96.6057 244.078 101.026Z" stroke="#182338" stroke-width="1.76682" stroke-miterlimit="10"/>
<path d="M321.093 117.91C321.807 121.678 321.135 125.577 319.202 128.888C317.268 132.2 314.203 134.701 310.571 135.931C301.116 143.612 289.916 148.847 277.959 151.174C283.434 162.201 288.073 170.833 290.652 176.255C299.25 194.329 306.58 211.704 312.386 228.349C314.736 235.08 314.948 238.916 313.972 242.423C313.407 244.457 312.441 246.383 311.256 248.697C309.463 252.214 307.192 254.597 304.862 255.386C300.867 256.739 296.499 256.45 292.718 254.582C288.937 252.714 286.053 249.421 284.7 245.426L273.222 211.539C272.884 210.541 272.163 209.717 271.217 209.25C270.272 208.783 269.18 208.711 268.182 209.049L245.59 216.701C244.592 217.039 243.768 217.76 243.301 218.706C242.834 219.651 242.762 220.743 243.1 221.742L254.484 255.353C257.262 263.552 253.139 272.625 245.025 275.616L239.109 276.598L231.372 277.88C229.662 278.165 227.905 277.959 226.307 277.285C224.709 276.611 223.336 275.497 222.346 274.073C221.291 272.551 220.723 270.745 220.718 268.893L220.647 254.516C218.233 246.687 215.983 238.626 213.859 230.275C211.734 221.924 209.74 213.281 207.833 204.292C205.828 194.83 204.108 185.619 202.671 176.66C191.761 182.078 179.685 184.727 167.509 184.373C156.88 183.477 148.929 179.086 147.347 174.413C145.994 170.419 146.283 166.05 148.151 162.269C150.019 158.488 153.312 155.604 157.306 154.251L192.767 142.24C239.644 151.546 264.925 117.8 264.925 117.8L300.139 105.873C308.338 103.096 317.411 107.219 320.402 115.332C320.704 116.171 320.935 117.033 321.093 117.91Z" fill="url(#paint2_radial_1213_257)"/>
<path d="M321.093 117.91C321.807 121.678 321.135 125.577 319.202 128.888C317.268 132.2 314.203 134.701 310.571 135.931C301.116 143.612 289.916 148.847 277.959 151.174C283.434 162.201 288.073 170.833 290.652 176.255C299.25 194.329 306.58 211.704 312.386 228.349C314.736 235.08 314.948 238.916 313.972 242.423C313.407 244.457 312.441 246.383 311.256 248.697C309.463 252.214 307.192 254.597 304.862 255.386C300.867 256.739 296.499 256.45 292.718 254.582C288.937 252.714 286.053 249.421 284.7 245.426L273.222 211.539C272.884 210.541 272.163 209.717 271.217 209.25C270.272 208.783 269.18 208.711 268.182 209.049L245.59 216.701C244.592 217.039 243.768 217.76 243.301 218.706C242.834 219.651 242.762 220.743 243.1 221.742L254.484 255.353C257.262 263.552 253.139 272.625 245.025 275.616L239.109 276.598L231.372 277.88C229.662 278.165 227.905 277.959 226.307 277.285C224.709 276.611 223.336 275.497 222.346 274.073C221.291 272.551 220.723 270.745 220.718 268.893L220.647 254.516C218.233 246.687 215.983 238.626 213.859 230.275C211.734 221.924 209.74 213.281 207.833 204.292C205.828 194.83 204.108 185.619 202.671 176.66C191.761 182.078 179.685 184.727 167.509 184.373C156.88 183.477 148.929 179.086 147.347 174.413C145.994 170.419 146.283 166.05 148.151 162.269C150.019 158.488 153.312 155.604 157.306 154.251L192.767 142.24C239.644 151.546 264.925 117.8 264.925 117.8L300.139 105.873C308.338 103.096 317.411 107.219 320.402 115.332C320.704 116.171 320.935 117.033 321.093 117.91Z" fill="url(#paint3_linear_1213_257)" fill-opacity="0.3"/>
<path opacity="0.6" d="M268.172 209.034L245.58 216.685C244.582 217.024 243.758 217.745 243.291 218.69C242.825 219.635 242.752 220.727 243.09 221.726L254.48 255.354C257.258 263.554 253.135 272.626 245.021 275.617L239.105 276.599L231.368 277.881C229.658 278.166 227.902 277.959 226.305 277.284C224.708 276.61 223.335 275.496 222.346 274.072C221.937 273.306 221.571 272.596 221.259 271.964C219.997 269.407 219.599 268.054 220.715 268.884C225.467 272.437 242.339 269.269 248.254 264.136C254.168 259.004 241.76 235.724 239.916 221.043C238.073 206.362 268.172 209.034 268.172 209.034Z" fill="url(#paint4_radial_1213_257)"/>
<path d="M264.905 117.811C264.905 117.811 239.624 151.557 192.747 142.252C194.806 138.455 197.664 135.149 201.124 132.563C210.227 137.018 220.721 137.693 230.32 134.442C239.919 131.191 247.843 124.277 252.365 115.208C256.684 115.159 260.962 116.047 264.905 117.811Z" fill="url(#paint5_radial_1213_257)" stroke="#182338" stroke-width="1.76682" stroke-miterlimit="10"/>
<path d="M230.32 134.441C220.727 137.697 210.235 137.03 201.132 132.584C203.657 130.702 206.463 129.23 209.448 128.224L243.143 116.811C246.125 115.797 249.248 115.26 252.397 115.22C247.876 124.29 239.951 131.204 230.352 134.453L230.32 134.441Z" fill="url(#paint6_radial_1213_257)" stroke="#182338" stroke-width="1.76682" stroke-miterlimit="10"/>
<path d="M258.706 69.545C261.972 79.1882 262.766 94.1456 258.257 103.275L252.439 115.081L252.378 115.204C247.855 124.272 239.931 131.185 230.332 134.436C220.734 137.687 210.24 137.013 201.137 132.559L201.014 132.498L189.206 126.662C184.642 124.407 180.243 120.189 176.582 115.329C173.076 110.721 170.301 105.601 168.353 100.148C166.949 95.3255 166.294 90.3164 166.409 85.2952C166.97 62.3192 183.858 48.2654 185.255 47.144C187.414 45.4089 189.717 43.8613 192.139 42.518C194.103 41.4304 196.139 40.4761 198.232 39.6615C203.054 38.258 208.063 37.6026 213.084 37.7181C214.875 37.7597 236.828 38.6581 251.236 56.5642C254.375 60.4837 256.894 64.8616 258.706 69.545Z" fill="url(#paint7_radial_1213_257)" stroke="#182338" stroke-width="1.76682" stroke-miterlimit="10"/>
<path d="M264.905 117.811C264.905 117.811 239.624 151.557 192.747 142.252C194.806 138.455 197.664 135.149 201.124 132.563C210.227 137.018 220.721 137.693 230.32 134.442C239.919 131.191 247.843 124.277 252.365 115.208C256.684 115.159 260.962 116.047 264.905 117.811Z" fill="url(#paint8_radial_1213_257)" fill-opacity="0.3" stroke="#182338" stroke-width="1.76682" stroke-miterlimit="10"/>
<path opacity="0.3" d="M258.706 69.545C261.972 79.1882 262.766 94.1456 258.257 103.275L252.439 115.081L252.378 115.204C247.855 124.272 239.931 131.185 230.332 134.436C220.734 137.687 210.24 137.013 201.137 132.559L201.014 132.498L189.206 126.662C184.642 124.407 180.243 120.189 176.582 115.329C173.076 110.721 170.301 105.601 168.353 100.148C166.949 95.3255 166.294 90.3164 166.409 85.2952C166.97 62.3192 183.858 48.2654 185.255 47.144C187.414 45.4089 189.717 43.8613 192.139 42.518C194.103 41.4304 196.139 40.4761 198.232 39.6615C203.054 38.258 208.063 37.6026 213.084 37.7181C214.875 37.7597 236.828 38.6581 251.236 56.5642C254.375 60.4837 256.894 64.8616 258.706 69.545Z" fill="url(#paint9_radial_1213_257)" stroke="#182338" stroke-width="1.76682" stroke-miterlimit="10"/>
<path d="M254.406 69.243C253.04 65.8603 251.035 62.7726 248.5 60.149C236.684 47.8568 217.056 48.5493 215.471 48.6198C210.917 48.8518 206.409 49.6381 202.045 50.9614C197.773 52.5625 193.711 54.6788 189.951 57.2635C188.633 58.1764 172.658 69.5425 170.731 86.4896C170.313 90.1139 170.596 93.7847 171.563 97.3025C173.898 104.197 180.721 112.775 188.622 115.532L198.846 119.102C206.748 121.863 216.152 121.733 224.992 118.739C233.832 115.744 241.384 110.132 245.982 103.137L251.932 94.0889C256.54 87.0952 256.742 76.1376 254.406 69.243Z" fill="#504C57" stroke="#182338" stroke-width="1.76682" stroke-miterlimit="10"/>
<path d="M251.569 70.3254C250.296 67.1795 248.431 64.3077 246.074 61.8663C235.079 50.4292 216.831 51.0648 215.335 51.1376C211.098 51.3549 206.903 52.0867 202.843 53.3169C198.871 54.8073 195.094 56.7754 191.598 59.1777C190.37 60.0273 175.487 70.6129 173.71 86.3761C173.321 89.7491 173.583 93.1654 174.483 96.4392C176.657 102.857 183.006 110.836 190.359 113.405L199.873 116.712C207.229 119.289 215.976 119.162 224.201 116.376C232.426 113.59 239.454 108.37 243.736 101.86L249.282 93.4523C253.553 86.9365 253.743 76.743 251.569 70.3254Z" fill="url(#paint10_radial_1213_257)"/>
<path d="M231.186 58.0001C228.835 55.8258 243.986 62.0591 247.812 73.3548C251.638 84.6505 246.764 90.4986 246.764 90.4986C246.764 90.4986 251.137 76.4257 231.186 58.0001Z" fill="url(#paint11_radial_1213_257)"/>
<path d="M227.102 190.645C225.124 189.207 223.493 187.346 222.328 185.196L219.473 176.766C219.043 174.809 218.808 172.132 219.953 169.538C221.846 165.241 225.923 164.802 239.029 160.153C245.215 157.956 255.93 153.93 259.886 156.013C261.228 156.74 262.408 157.734 263.351 158.934C263.915 159.704 264.361 160.555 264.672 161.457L267.527 169.887C267.908 172.301 267.745 174.77 267.051 177.114C262.834 190.756 238.72 198.923 227.102 190.645Z" fill="url(#paint12_radial_1213_257)" stroke="#182338" stroke-miterlimit="10"/>
<path d="M229.721 188.451C228.041 187.231 226.656 185.649 225.668 183.822L223.242 176.66C222.875 174.998 222.674 172.725 223.648 170.521C225.256 166.87 228.716 166.496 239.853 162.546C245.111 160.681 254.209 157.264 257.573 159.03C258.714 159.646 259.716 160.491 260.517 161.512C260.993 162.168 261.367 162.892 261.626 163.659L264.052 170.821C264.374 172.873 264.235 174.97 263.646 176.961C260.068 188.549 239.568 195.493 229.721 188.451Z" stroke="#182338" stroke-miterlimit="10"/>
<path d="M232.316 186.267C230.933 185.263 229.793 183.961 228.979 182.459L226.982 176.564C226.556 174.887 226.674 173.118 227.318 171.511C228.633 168.51 231.49 168.2 240.653 164.948C244.979 163.417 252.467 160.601 255.235 162.056C256.174 162.564 256.998 163.26 257.657 164.099C258.049 164.638 258.356 165.234 258.568 165.866L260.565 171.76C260.831 173.448 260.718 175.173 260.233 176.811C257.297 186.345 240.441 192.054 232.316 186.267Z" stroke="#182338" stroke-miterlimit="10"/>
<path d="M234.929 184.095C233.845 183.306 232.951 182.285 232.312 181.106L230.739 176.462C230.403 175.146 230.495 173.758 231.001 172.498C232.04 170.141 234.277 169.901 241.466 167.349C244.859 166.144 250.739 163.938 252.906 165.078C253.644 165.477 254.292 166.022 254.811 166.681C255.118 167.104 255.359 167.571 255.527 168.066L257.094 172.693C257.302 174.018 257.211 175.373 256.829 176.659C254.526 184.14 241.298 188.62 234.929 184.095Z" stroke="#182338" stroke-miterlimit="10"/>
<path d="M237.53 181.889C236.747 181.32 236.099 180.584 235.634 179.734L234.5 176.387C234.262 175.435 234.33 174.433 234.696 173.522C235.451 171.812 237.074 171.635 242.291 169.784C244.756 168.912 249.021 167.309 250.594 168.138C251.131 168.425 251.601 168.822 251.977 169.302C252.199 169.608 252.373 169.947 252.494 170.306L253.628 173.653C253.775 174.611 253.708 175.589 253.432 176.517C251.762 181.928 242.14 185.187 237.53 181.889Z" stroke="#182338" stroke-miterlimit="10"/>
<path d="M240.137 179.701C239.647 179.345 239.244 178.884 238.958 178.351L238.249 176.26C238.097 175.666 238.138 175.04 238.366 174.471C238.836 173.407 239.836 173.302 243.092 172.148C244.624 171.605 247.28 170.608 248.256 171.121C248.59 171.301 248.883 171.548 249.117 171.846C249.255 172.037 249.364 172.247 249.44 172.469L250.149 174.561C250.241 175.159 250.2 175.77 250.027 176.351C248.988 179.725 243.014 181.748 240.137 179.701Z" stroke="#182338" stroke-miterlimit="10"/>
<path d="M285.241 225.395C284.289 224.502 283.508 223.442 282.937 222.267L281.357 217.602C280.995 216.336 280.971 214.997 281.286 213.718C281.927 211.478 283.715 211.389 289.282 209.387C291.91 208.446 296.45 206.689 298.268 207.967C299.352 208.735 300.16 209.831 300.572 211.094L302.152 215.759C302.41 217.039 302.434 218.355 302.223 219.643C300.914 226.849 290.66 230.322 285.241 225.395Z" fill="#99A3A3" stroke="#182338" stroke-width="0.441705" stroke-miterlimit="10"/>
<path d="M286.258 224.36C285.442 223.594 284.774 222.686 284.286 221.679L282.935 217.688C282.626 216.605 282.605 215.46 282.873 214.366C283.439 212.444 284.954 212.373 289.71 210.651C291.959 209.842 295.844 208.34 297.402 209.444C297.95 209.848 298.422 210.345 298.799 210.911C299.037 211.289 299.228 211.694 299.371 212.117L300.722 216.108C300.944 217.204 300.965 218.331 300.786 219.435C299.663 225.593 290.878 228.569 286.258 224.36Z" fill="#99A3A3" stroke="#182338" stroke-width="0.441705" stroke-miterlimit="10"/>
<path d="M287.272 223.322C286.593 222.68 286.035 221.921 285.627 221.081L284.503 217.763C284.243 216.858 284.224 215.899 284.448 214.984C284.918 213.384 286.177 213.33 290.135 211.906C292.005 211.231 295.234 209.983 296.522 210.895C296.977 211.228 297.371 211.64 297.684 212.11C297.882 212.426 298.042 212.765 298.161 213.119L299.285 216.436C299.475 217.351 299.494 218.294 299.34 219.216C298.416 224.351 291.124 226.821 287.272 223.322Z" fill="#99A3A3" stroke="#182338" stroke-width="0.441705" stroke-miterlimit="10"/>
<path d="M288.283 222.285C287.744 221.777 287.302 221.177 286.978 220.511L286.082 217.867C285.879 217.149 285.865 216.391 286.041 215.666C286.416 214.392 287.423 214.349 290.569 213.2C292.058 212.668 294.63 211.67 295.663 212.407C296.278 212.842 296.736 213.464 296.968 214.18L297.864 216.824C298.01 217.55 298.024 218.295 297.905 219.026C297.169 223.104 291.358 225.072 288.283 222.285Z" fill="#99A3A3" stroke="#182338" stroke-width="0.441705" stroke-miterlimit="10"/>
<path d="M289.302 221.245C288.9 220.867 288.571 220.419 288.332 219.922L287.664 217.952C287.514 217.418 287.503 216.855 287.633 216.316C287.913 215.368 288.662 215.334 291.01 214.487C292.127 214.109 294.037 213.345 294.803 213.888C295.07 214.08 295.3 214.318 295.484 214.59C295.603 214.775 295.699 214.974 295.769 215.183L296.437 217.154C296.545 217.695 296.554 218.251 296.465 218.795C295.922 221.857 291.591 223.323 289.302 221.245Z" fill="#99A3A3" stroke="#182338" stroke-width="0.441705" stroke-miterlimit="10"/>
<path d="M290.32 220.205C290.054 219.959 289.838 219.666 289.682 219.339L289.243 218.042C289.14 217.69 289.133 217.318 289.222 216.962C289.404 216.341 289.895 216.319 291.436 215.746C292.172 215.497 293.424 214.994 293.937 215.365C294.115 215.497 294.269 215.658 294.392 215.841C294.47 215.968 294.533 216.103 294.58 216.244L295.019 217.541C295.09 217.895 295.096 218.259 295.038 218.616C294.673 220.61 291.824 221.575 290.32 220.205Z" fill="#99A3A3" stroke="#182338" stroke-width="0.441705" stroke-miterlimit="10"/>
<path d="M220.917 244.561C220.041 243.552 219.347 242.398 218.867 241.151L217.634 236.243C217.367 234.924 217.432 233.559 217.823 232.271C218.629 230.039 220.36 230.124 225.953 228.585C228.591 227.864 233.171 226.49 234.856 227.966C235.454 228.513 235.957 229.156 236.344 229.868C236.585 230.349 236.774 230.854 236.906 231.376L238.139 236.284C238.308 237.609 238.243 238.954 237.946 240.257C236.196 247.496 225.89 250.114 220.917 244.561Z" fill="#99A3A3" stroke="#182338" stroke-width="0.441705" stroke-miterlimit="10"/>
<path d="M221.995 243.585C221.246 242.724 220.654 241.74 220.245 240.675L219.188 236.481C218.963 235.355 219.02 234.19 219.354 233.091C220.038 231.185 221.53 231.253 226.3 229.955C228.554 229.34 232.454 228.173 233.901 229.432C234.769 230.2 235.38 231.215 235.652 232.341L236.707 236.531C236.848 237.664 236.792 238.812 236.542 239.926C235.028 246.086 226.247 248.305 221.995 243.585Z" fill="#99A3A3" stroke="#182338" stroke-width="0.441705" stroke-miterlimit="10"/>
<path d="M223.073 242.609C222.452 241.896 221.961 241.081 221.622 240.199L220.748 236.723C220.557 235.789 220.603 234.822 220.882 233.912C221.449 232.321 222.691 232.366 226.643 231.312C228.508 230.802 231.738 229.834 232.94 230.877C233.365 231.262 233.721 231.717 233.993 232.222C234.165 232.562 234.299 232.921 234.392 233.29L235.265 236.763C235.386 237.7 235.341 238.652 235.131 239.574C233.879 244.689 226.595 246.522 223.073 242.609Z" fill="#99A3A3" stroke="#182338" stroke-width="0.441705" stroke-miterlimit="10"/>
<path d="M224.151 241.633C223.657 241.067 223.267 240.42 222.999 239.719L222.303 236.961C222.154 236.22 222.193 235.453 222.415 234.731C222.863 233.479 223.839 233.526 226.981 232.667C228.466 232.262 231.033 231.495 231.992 232.317C232.561 232.824 232.962 233.491 233.144 234.231L233.836 236.99C233.931 237.735 233.895 238.491 233.73 239.223C232.727 243.284 226.947 244.738 224.151 241.633Z" fill="#99A3A3" stroke="#182338" stroke-width="0.441705" stroke-miterlimit="10"/>
<path d="M225.228 240.657C224.862 240.24 224.574 239.761 224.376 239.243L223.862 237.202C223.75 236.653 223.777 236.084 223.941 235.548C224.276 234.623 224.997 234.659 227.324 234.024C228.42 233.723 230.321 233.154 231.024 233.769C231.274 233.994 231.483 234.261 231.641 234.558C231.735 234.76 231.807 234.972 231.855 235.19L232.369 237.231C232.438 237.783 232.412 238.342 232.29 238.885C231.574 241.879 227.3 242.958 225.228 240.657Z" fill="#99A3A3" stroke="#182338" stroke-width="0.441705" stroke-miterlimit="10"/>
<path d="M226.302 239.682C226.066 239.41 225.88 239.099 225.753 238.763L225.417 237.44C225.348 237.084 225.366 236.716 225.469 236.369C225.685 235.768 226.155 235.791 227.666 235.377C228.374 235.184 229.607 234.818 230.063 235.214C230.225 235.36 230.361 235.534 230.465 235.726C230.53 235.859 230.577 235.999 230.607 236.144L230.939 237.468C230.986 237.825 230.97 238.187 230.891 238.538C230.424 240.478 227.647 241.176 226.302 239.682Z" fill="#99A3A3" stroke="#182338" stroke-width="0.441705" stroke-miterlimit="10"/>
<path d="M164.852 152.264C166.828 156.114 171.455 157.713 175.535 157.81C180.08 157.912 184.812 155.857 186.282 151.274C186.643 150.22 186.754 149.097 186.606 147.993C186.458 146.888 186.055 145.834 185.428 144.913C184.809 144.05 183.434 144.973 184.06 145.843C186.127 148.71 184.596 152.712 181.867 154.513C178.648 156.658 174.001 156.599 170.523 155.114C168.689 154.395 167.167 153.053 166.222 151.325C166.099 151.144 165.909 151.019 165.694 150.977C165.479 150.936 165.256 150.981 165.074 151.102C164.897 151.229 164.775 151.418 164.734 151.632C164.693 151.846 164.735 152.067 164.852 152.25L164.852 152.264Z" fill="#182338"/>
<path d="M275.643 114.897C276.594 115.985 277.791 116.829 279.135 117.362C280.478 117.894 281.929 118.098 283.367 117.957C286.661 117.568 289.722 116.064 292.043 113.694C293.122 112.489 293.753 111.006 293.384 109.392C293.311 109.185 293.16 109.014 292.963 108.917C292.767 108.82 292.54 108.804 292.331 108.872C292.126 108.947 291.958 109.099 291.862 109.294C291.766 109.49 291.749 109.716 291.815 109.923C292.117 111.243 291.03 112.521 290.101 113.302C288.746 114.451 287.18 115.322 285.489 115.867C282.619 116.783 279.065 116.41 277.02 113.979C276.894 113.801 276.704 113.679 276.49 113.638C276.277 113.597 276.055 113.639 275.872 113.756C275.691 113.881 275.567 114.072 275.525 114.287C275.484 114.503 275.529 114.726 275.651 114.908L275.643 114.897Z" fill="#182338"/>
<path d="M179.345 157.121C183.059 164.983 185.929 173.217 187.907 181.684C187.979 181.891 188.129 182.062 188.325 182.158C188.521 182.255 188.747 182.271 188.955 182.202C189.16 182.128 189.328 181.977 189.426 181.782C189.523 181.587 189.541 181.361 189.476 181.153C187.498 172.686 184.628 164.452 180.914 156.59C180.838 156.386 180.688 156.219 180.493 156.123C180.298 156.027 180.074 156.009 179.867 156.072C179.659 156.143 179.487 156.292 179.39 156.489C179.292 156.685 179.276 156.913 179.345 157.121Z" fill="#182338"/>
<path d="M295.366 227.818L304.602 255.087C304.683 255.28 304.835 255.435 305.026 255.521C305.218 255.607 305.434 255.618 305.633 255.55C305.832 255.483 305.998 255.343 306.097 255.159C306.197 254.974 306.223 254.759 306.171 254.555L296.935 227.287C296.853 227.094 296.701 226.938 296.51 226.852C296.319 226.766 296.102 226.756 295.903 226.823C295.705 226.891 295.539 227.031 295.439 227.215C295.339 227.4 295.313 227.615 295.366 227.818Z" fill="#182338"/>
<path d="M229.328 247.872C230.086 252.121 230.857 256.365 231.605 260.626C232.278 264.459 233.008 268.568 232.293 272.448C231.957 274.208 231.285 275.97 229.814 277.065C228.962 277.703 229.885 279.079 230.745 278.438C233.789 276.161 234.271 272.062 234.198 268.529C234.112 264.146 233.133 259.809 232.364 255.514C231.904 252.936 231.444 250.361 230.983 247.788C230.963 247.571 230.862 247.369 230.7 247.224C230.537 247.079 230.325 247.001 230.107 247.007C229.889 247.021 229.685 247.12 229.539 247.284C229.394 247.448 229.319 247.662 229.331 247.881L229.328 247.872Z" fill="#182338"/>
<path d="M321.094 117.914C321.808 121.682 321.137 125.581 319.203 128.892C317.27 132.204 314.205 134.705 310.573 135.935C301.118 143.616 289.918 148.851 277.961 151.178C283.435 162.205 288.075 170.837 290.653 176.259C299.251 194.333 306.582 211.708 312.387 228.353C314.737 235.084 314.95 238.92 313.974 242.427C306.517 214.794 280.119 167.035 272.352 153.302C272.116 152.884 271.982 152.417 271.96 151.937C271.939 151.458 272.03 150.98 272.228 150.543C272.426 150.106 272.723 149.722 273.097 149.421C273.471 149.121 273.911 148.913 274.381 148.814C294.637 144.471 312.851 126.923 321.094 117.914Z" fill="url(#paint13_radial_1213_257)" fill-opacity="0.6"/>
<path d="M321.094 117.915C321.808 121.682 321.136 125.581 319.203 128.892C317.269 132.204 314.204 134.705 310.573 135.935C301.118 143.616 289.918 148.851 277.961 151.178C283.435 162.205 288.075 170.837 290.653 176.26C299.251 194.333 306.582 211.708 312.387 228.353C314.737 235.085 314.95 238.921 313.974 242.427C313.408 244.461 312.442 246.387 311.258 248.701C309.464 252.218 307.194 254.601 304.863 255.39C300.869 256.743 296.501 256.454 292.72 254.586C288.938 252.718 286.054 249.425 284.701 245.43L273.223 211.543C272.885 210.545 272.164 209.721 271.219 209.254C270.274 208.787 269.182 208.715 268.183 209.053L245.592 216.705C244.593 217.043 243.77 217.764 243.303 218.71C242.836 219.655 242.763 220.747 243.102 221.746L254.496 255.386C257.273 263.586 253.15 272.658 245.036 275.649L239.12 276.632L231.384 277.914C230.074 278.131 228.733 278.062 227.453 277.711C226.173 277.359 224.985 276.734 223.97 275.878C222.955 275.022 222.139 273.955 221.577 272.753C221.015 271.55 220.721 270.24 220.715 268.912L220.644 254.535C218.23 246.707 215.98 238.645 213.856 230.294C211.732 221.943 209.737 213.301 207.83 204.312C205.825 194.849 204.105 185.639 202.669 176.68C191.758 182.098 179.682 184.747 167.506 184.392C156.878 183.497 148.927 179.106 147.344 174.433C145.991 170.438 146.28 166.07 148.148 162.289C150.016 158.508 153.309 155.623 157.304 154.271L192.764 142.26C239.641 151.566 264.923 117.82 264.923 117.82L300.136 105.893C308.336 103.115 317.408 107.238 320.399 115.352C320.702 116.185 320.934 117.042 321.094 117.915V117.915Z" stroke="#182338" stroke-width="1.76682" stroke-miterlimit="10"/>
<path d="M286.508 117.415C290.049 123.837 293.001 130.567 295.328 137.522C295.997 139.496 296.607 141.489 297.158 143.501C297.445 144.528 299.014 143.996 298.726 142.97C296.729 135.795 294.079 128.819 290.809 122.128C289.876 120.218 288.898 118.334 287.874 116.477C287.362 115.545 286.006 116.471 286.505 117.407L286.508 117.415Z" fill="#182338"/>
<path d="M277.318 114.101L277.29 115.38L282.27 117.321L289.776 114.835L292.932 110.371L292.249 108.699L281.556 112.321L277.318 114.101Z" fill="#182338"/>
<path d="M165.1 150.986C165.315 151.319 168.375 154.653 168.375 154.653L173.972 156.87L179.635 156.118L184.092 153.676L185.898 149.716L185.12 146.22L183.985 144.977L165.1 150.986Z" fill="#182338"/>
<path d="M145.246 160.514L145.287 160.444C145.542 160.021 145.881 159.656 146.282 159.369C146.684 159.082 147.139 158.881 147.621 158.776C148.104 158.672 148.602 158.667 149.086 158.762C149.57 158.857 150.029 159.05 150.436 159.329L150.728 159.529C151.197 159.851 151.583 160.278 151.857 160.777C152.13 161.276 152.283 161.832 152.302 162.4L152.712 174.998C152.727 175.474 152.648 175.95 152.479 176.396C152.31 176.842 152.054 177.25 151.727 177.598L151.387 177.969C151.002 178.379 150.528 178.693 150.001 178.887C149.474 179.082 148.909 179.151 148.351 179.09C147.793 179.029 147.256 178.84 146.784 178.536C146.311 178.232 145.916 177.823 145.629 177.341C145.314 176.812 145.139 176.211 145.122 175.596L144.729 162.498C144.704 161.801 144.884 161.111 145.246 160.514Z" fill="url(#paint14_radial_1213_257)" stroke="#182338" stroke-width="1.76682" stroke-miterlimit="10"/>
<path d="M147.904 163.494L148.58 174.463C148.635 175.351 148.478 176.225 148.125 176.988C147.772 177.751 147.238 178.374 146.58 178.789L141.807 181.794C141.486 181.998 141.138 182.148 140.776 182.24L134.466 183.879C134.264 183.929 134.058 183.964 133.85 183.983L127.979 184.457C127.399 184.505 126.81 184.412 126.248 184.184C125.686 183.956 125.164 183.599 124.716 183.134L123.842 182.231L122.45 180.798C121.851 180.178 121.402 179.389 121.154 178.52L118.853 170.45C118.584 169.513 118.561 168.522 118.789 167.606L119.23 165.818C119.445 164.951 119.874 164.189 120.466 163.618C121.058 163.048 121.79 162.693 122.576 162.595L125.848 162.2C126.433 162.133 126.991 161.922 127.485 161.583C127.979 161.244 128.399 160.783 128.715 160.231C129.032 159.679 129.239 159.048 129.323 158.38C129.407 157.713 129.365 157.023 129.201 156.357L129.139 156.089C128.91 155.132 128.933 154.136 129.204 153.232C129.476 152.327 129.984 151.555 130.662 151.017L131.205 150.587C131.936 150.003 132.829 149.723 133.748 149.789C134.666 149.855 135.56 150.263 136.294 150.952L139.549 154.052L146.083 159.728C146.605 160.175 147.04 160.746 147.355 161.398C147.671 162.051 147.858 162.767 147.904 163.494Z" fill="url(#paint15_radial_1213_257)"/>
<path d="M147.904 163.494L148.58 174.463C148.635 175.351 148.478 176.225 148.125 176.988C147.772 177.751 147.238 178.374 146.58 178.789L141.807 181.794C141.486 181.998 141.138 182.148 140.776 182.24L134.466 183.879C134.264 183.929 134.058 183.964 133.85 183.983L127.979 184.457C127.399 184.505 126.81 184.412 126.248 184.184C125.686 183.956 125.164 183.599 124.716 183.134L123.842 182.231L122.45 180.798C121.851 180.178 121.402 179.389 121.154 178.52L118.853 170.45C118.584 169.513 118.561 168.522 118.789 167.606L119.23 165.818C119.445 164.951 119.874 164.189 120.466 163.618C121.058 163.048 121.79 162.693 122.576 162.595L125.848 162.2C126.433 162.133 126.991 161.922 127.485 161.583C127.979 161.244 128.399 160.783 128.715 160.231C129.032 159.679 129.239 159.048 129.323 158.38C129.407 157.713 129.365 157.023 129.201 156.357L129.139 156.089C128.91 155.132 128.933 154.136 129.204 153.232C129.476 152.327 129.984 151.555 130.662 151.017L131.205 150.587C131.936 150.003 132.829 149.723 133.748 149.789C134.666 149.855 135.56 150.263 136.294 150.952L139.549 154.052L146.083 159.728C146.605 160.175 147.04 160.746 147.355 161.398C147.671 162.051 147.858 162.767 147.904 163.494Z" fill="url(#paint16_radial_1213_257)" fill-opacity="0.6"/>
<path opacity="0.6" d="M147.904 163.494L148.58 174.463C148.635 175.351 148.477 176.225 148.125 176.988C147.772 177.75 147.237 178.373 146.579 178.789L141.807 181.794C141.485 181.998 141.138 182.148 140.775 182.24L134.465 183.879C134.263 183.929 134.058 183.963 133.85 183.983L127.979 184.456C127.399 184.505 126.81 184.412 126.248 184.184C125.686 183.956 125.164 183.599 124.716 183.134L123.841 182.231C126.259 180.87 131.693 180.174 134.499 179.665C138.177 178.993 145.848 177.638 146.132 174.477C146.416 171.317 143.673 169.18 144.404 168.617C148.852 165.195 142.506 156.496 137.251 155.6C135.005 155.214 133.785 150.366 129.383 154.75C129.669 154.067 130.109 151.44 130.674 151.007L131.217 150.578C131.949 149.999 132.84 149.722 133.756 149.79C134.671 149.857 135.562 150.265 136.294 150.952L139.549 154.052L146.083 159.728C146.605 160.175 147.04 160.746 147.355 161.398C147.67 162.05 147.858 162.767 147.904 163.494Z" fill="url(#paint17_radial_1213_257)"/>
<path d="M147.904 163.494L148.58 174.463C148.635 175.351 148.478 176.225 148.125 176.988C147.772 177.751 147.238 178.374 146.58 178.789L141.807 181.794C141.486 181.998 141.138 182.148 140.776 182.24L134.466 183.879C134.264 183.929 134.058 183.964 133.85 183.983L127.979 184.457C127.399 184.505 126.81 184.412 126.248 184.184C125.686 183.956 125.164 183.599 124.716 183.134L123.842 182.231L122.45 180.798C121.851 180.178 121.402 179.389 121.154 178.52L118.853 170.45C118.584 169.513 118.561 168.522 118.789 167.606L119.23 165.818C119.445 164.951 119.874 164.189 120.466 163.618C121.058 163.048 121.79 162.693 122.576 162.595L125.848 162.2C126.433 162.133 126.991 161.922 127.485 161.583C127.979 161.244 128.399 160.783 128.715 160.231C129.032 159.679 129.239 159.048 129.323 158.38C129.407 157.713 129.365 157.023 129.201 156.357L129.139 156.089C128.91 155.132 128.933 154.136 129.204 153.232C129.476 152.327 129.984 151.555 130.662 151.017L131.205 150.587C131.936 150.003 132.829 149.723 133.748 149.789C134.666 149.855 135.56 150.263 136.294 150.952L139.549 154.052L146.083 159.728C146.605 160.175 147.04 160.746 147.355 161.398C147.671 162.051 147.858 162.767 147.904 163.494V163.494Z" stroke="#182338" stroke-width="1.76682" stroke-miterlimit="10"/>
<path d="M315.044 104.401L314.968 104.371C314.509 104.191 314.018 104.106 313.525 104.122C313.032 104.139 312.548 104.255 312.101 104.465C311.655 104.675 311.256 104.974 310.93 105.344C310.603 105.714 310.355 106.146 310.202 106.615L310.092 106.951C309.914 107.491 309.866 108.066 309.952 108.628C310.038 109.191 310.255 109.725 310.587 110.188L317.912 120.443C318.475 121.224 319.324 121.752 320.274 121.909L320.77 121.997C321.324 122.088 321.892 122.048 322.428 121.882C322.964 121.716 323.454 121.428 323.86 121.041C324.266 120.653 324.577 120.177 324.768 119.649C324.959 119.121 325.025 118.557 324.961 117.999C324.89 117.388 324.663 116.804 324.303 116.305L316.656 105.665C316.253 105.096 315.693 104.657 315.044 104.401Z" fill="url(#paint18_radial_1213_257)" stroke="#182338" stroke-width="1.76682" stroke-miterlimit="10"/>
<path d="M315.012 108.26L321.391 117.264C321.908 117.993 322.615 118.567 323.435 118.923C324.255 119.278 325.157 119.401 326.043 119.279L332.448 118.392C332.889 118.333 333.319 118.212 333.726 118.034L340.718 115.036C340.94 114.938 341.156 114.826 341.364 114.701L347.19 111.095C347.767 110.74 348.263 110.268 348.646 109.711C349.03 109.153 349.293 108.521 349.418 107.855L349.664 106.559L350.058 104.5C350.226 103.61 350.144 102.692 349.822 101.847L346.828 93.9999C346.482 93.0876 345.869 92.3006 345.07 91.7414L343.489 90.626C342.732 90.0967 341.84 89.7927 340.918 89.7495C339.995 89.7062 339.079 89.9254 338.276 90.3816L334.94 92.2904C334.346 92.6341 333.686 92.8482 333.004 92.9185C332.321 92.9888 331.631 92.9138 330.98 92.6982C330.328 92.4827 329.73 92.1317 329.224 91.6682C328.718 91.2047 328.316 90.6392 328.044 90.0091L327.931 89.7582C327.535 88.8577 326.877 88.0973 326.043 87.5763C325.208 87.0554 324.236 86.798 323.253 86.8377L322.467 86.8709C321.402 86.9149 320.381 87.3059 319.559 87.9842C318.737 88.6625 318.16 89.5909 317.915 90.6279L316.831 95.2622L314.306 104.111C314.105 104.811 314.064 105.547 314.186 106.266C314.309 106.984 314.591 107.665 315.012 108.26Z" fill="url(#paint19_radial_1213_257)"/>
<path opacity="0.6" d="M315.012 108.26L321.392 117.264C321.908 117.993 322.615 118.567 323.435 118.923C324.255 119.278 325.157 119.401 326.043 119.279L332.449 118.392C332.889 118.333 333.319 118.212 333.726 118.034L340.718 115.036C340.941 114.938 341.157 114.826 341.365 114.7L347.19 111.095C347.767 110.74 348.263 110.268 348.646 109.71C349.03 109.152 349.293 108.52 349.418 107.855L349.664 106.559L350.058 104.499C350.226 103.61 350.144 102.692 349.822 101.847L346.828 93.9998C346.482 93.0875 345.87 92.3005 345.07 91.7413L343.489 90.6259C342.732 90.0965 341.841 89.7926 340.918 89.7494C339.995 89.7061 339.079 89.9253 338.276 90.3815L334.94 92.2902C334.346 92.634 333.686 92.8481 333.004 92.9184C332.321 92.9887 331.631 92.9136 330.98 92.6981C330.329 92.4826 329.73 92.1315 329.224 91.668C328.718 91.2045 328.316 90.6391 328.044 90.009L327.931 89.7581C327.535 88.8575 326.877 88.0972 326.043 87.5762C325.208 87.0552 324.236 86.7979 323.253 86.8376L322.467 86.8707C321.402 86.9148 320.381 87.3057 319.559 87.984C318.738 88.6623 318.16 89.5908 317.915 90.6278L316.831 95.262L314.306 104.11C314.105 104.811 314.064 105.547 314.187 106.265C314.309 106.984 314.591 107.665 315.012 108.26Z" fill="url(#paint20_radial_1213_257)"/>
<path opacity="0.6" d="M315.012 108.26L321.391 117.263C321.908 117.993 322.615 118.567 323.435 118.922C324.255 119.278 325.157 119.401 326.043 119.279L332.448 118.392C332.889 118.333 333.319 118.212 333.726 118.034L340.718 115.036C340.94 114.938 341.156 114.826 341.364 114.7L347.19 111.095C347.767 110.74 348.263 110.268 348.646 109.71C349.03 109.152 349.293 108.52 349.418 107.855L349.664 106.559C346.516 107.136 340.952 110.274 337.983 111.779C334.088 113.747 325.995 117.887 323.706 115.617C321.417 113.347 322.635 109.824 321.586 109.88C315.207 110.227 315.62 99.151 319.998 94.8933C321.867 93.0712 319.916 88.467 326.867 88.9014C326.16 88.5626 324.066 86.8141 323.256 86.8599L322.47 86.893C321.405 86.9371 320.384 87.328 319.562 88.0063C318.74 88.6846 318.163 89.613 317.917 90.6501L316.831 95.262L314.306 104.11C314.105 104.811 314.064 105.547 314.186 106.265C314.308 106.984 314.591 107.665 315.012 108.26Z" fill="url(#paint21_radial_1213_257)"/>
<path d="M315.012 108.26L321.391 117.264C321.908 117.993 322.615 118.567 323.435 118.923C324.255 119.278 325.157 119.401 326.043 119.279L332.448 118.392C332.889 118.333 333.319 118.212 333.726 118.034L340.718 115.036C340.94 114.938 341.156 114.826 341.364 114.701L347.19 111.095C347.767 110.74 348.263 110.268 348.646 109.711C349.03 109.153 349.293 108.521 349.418 107.855L349.664 106.559L350.058 104.5C350.226 103.61 350.144 102.692 349.822 101.847L346.828 93.9999C346.482 93.0876 345.869 92.3006 345.07 91.7414L343.489 90.626C342.732 90.0967 341.84 89.7927 340.918 89.7495C339.995 89.7062 339.079 89.9254 338.276 90.3816L334.94 92.2904C334.346 92.6341 333.686 92.8482 333.004 92.9185C332.321 92.9888 331.631 92.9138 330.98 92.6982C330.328 92.4827 329.73 92.1317 329.224 91.6682C328.718 91.2047 328.316 90.6392 328.044 90.0091L327.931 89.7582C327.535 88.8577 326.877 88.0973 326.043 87.5763C325.208 87.0554 324.236 86.798 323.253 86.8377L322.467 86.8709C321.402 86.9149 320.381 87.3059 319.559 87.9842C318.737 88.6625 318.16 89.5909 317.915 90.6279L316.831 95.2622L314.306 104.111C314.105 104.811 314.064 105.547 314.186 106.266C314.309 106.984 314.591 107.665 315.012 108.26V108.26Z" stroke="#182338" stroke-width="1.76682" stroke-miterlimit="10"/>
<path d="M146.243 126.511L124.934 131.75C123.016 132.221 121.869 134.265 122.373 136.315L131.347 172.816C131.851 174.865 133.814 176.145 135.732 175.673L157.041 170.435C158.959 169.963 160.106 167.919 159.602 165.87L150.628 129.369C150.124 127.319 148.161 126.04 146.243 126.511Z" fill="#1A1C1C" stroke="#182338" stroke-width="2.71049" stroke-miterlimit="10"/>
<path d="M130.901 140.679C131.724 140.224 132.022 139.187 131.566 138.364C131.111 137.541 130.074 137.243 129.251 137.699C128.428 138.155 128.13 139.191 128.586 140.014C129.042 140.837 130.078 141.135 130.901 140.679Z" fill="#99A3A3" stroke="url(#paint22_radial_1213_257)" stroke-width="0.681312" stroke-miterlimit="10"/>
<path d="M135.565 142.956C136.388 142.501 136.686 141.464 136.23 140.641C135.775 139.818 134.738 139.52 133.915 139.976C133.092 140.432 132.794 141.468 133.25 142.291C133.705 143.114 134.742 143.412 135.565 142.956Z" fill="#99A3A3" stroke="url(#paint23_radial_1213_257)" stroke-width="0.681312" stroke-miterlimit="10"/>
<path d="M131.886 146.045C132.709 145.589 133.006 144.553 132.551 143.73C132.095 142.907 131.059 142.609 130.236 143.065C129.413 143.52 129.115 144.557 129.57 145.38C130.026 146.203 131.063 146.501 131.886 146.045Z" fill="#99A3A3" stroke="url(#paint24_radial_1213_257)" stroke-width="0.681312" stroke-miterlimit="10"/>
<path d="M76.5337 206.009L132.114 146C133.745 142.196 131.851 137.802 127.966 136.375L127.22 136.101L43.0135 145.831L76.5337 206.009Z" fill="url(#paint25_radial_1213_257)"/>
<path d="M132.116 163.502L128.116 162.502L127.116 163.502L127.116 170.502C127.116 170.902 128.782 174.002 129.616 175.502L133.616 173.502L134.116 168.502L132.116 163.502Z" fill="#E5EDE5"/>
<path d="M131.696 174.771L132.087 175.565L132.141 175.539L132.191 175.505L131.696 174.771ZM133.962 172.244L133.077 172.216L133.962 172.244ZM133.081 173.838L132.586 173.104L133.081 173.838ZM134.054 169.391L134.939 169.42L134.054 169.391ZM127.055 162.261C127.929 162.485 129.251 162.891 130.371 163.376C130.934 163.62 131.412 163.869 131.75 164.107C132.137 164.378 132.155 164.506 132.142 164.445L133.872 164.071C133.732 163.424 133.196 162.959 132.767 162.658C132.288 162.322 131.687 162.018 131.075 161.752C129.844 161.219 128.427 160.785 127.495 160.546L127.055 162.261ZM132.142 164.445C132.142 164.447 132.143 164.449 132.143 164.451C132.144 164.453 132.144 164.456 132.145 164.458C132.145 164.46 132.145 164.462 132.146 164.464C132.146 164.466 132.147 164.469 132.147 164.471C132.148 164.473 132.148 164.475 132.149 164.477C132.149 164.479 132.15 164.482 132.15 164.484C132.151 164.486 132.151 164.488 132.152 164.49C132.152 164.493 132.153 164.495 132.153 164.497C132.154 164.499 132.154 164.502 132.154 164.504C132.155 164.506 132.155 164.508 132.156 164.51C132.156 164.513 132.157 164.515 132.157 164.517C132.158 164.519 132.158 164.522 132.159 164.524C132.159 164.526 132.16 164.528 132.16 164.531C132.161 164.533 132.161 164.535 132.162 164.537C132.162 164.54 132.163 164.542 132.163 164.544C132.164 164.547 132.164 164.549 132.165 164.551C132.165 164.553 132.166 164.556 132.166 164.558C132.167 164.56 132.167 164.563 132.168 164.565C132.168 164.567 132.169 164.569 132.169 164.572C132.17 164.574 132.17 164.576 132.171 164.579C132.171 164.581 132.172 164.583 132.172 164.586C132.173 164.588 132.173 164.59 132.174 164.593C132.174 164.595 132.175 164.597 132.175 164.6C132.176 164.602 132.176 164.604 132.177 164.607C132.177 164.609 132.178 164.612 132.178 164.614C132.179 164.616 132.179 164.619 132.18 164.621C132.18 164.623 132.181 164.626 132.181 164.628C132.182 164.631 132.182 164.633 132.183 164.635C132.183 164.638 132.184 164.64 132.184 164.642C132.185 164.645 132.185 164.647 132.186 164.65C132.187 164.652 132.187 164.654 132.188 164.657C132.188 164.659 132.189 164.662 132.189 164.664C132.19 164.667 132.19 164.669 132.191 164.671C132.191 164.674 132.192 164.676 132.192 164.679C132.193 164.681 132.193 164.684 132.194 164.686C132.194 164.689 132.195 164.691 132.195 164.693C132.196 164.696 132.197 164.698 132.197 164.701C132.198 164.703 132.198 164.706 132.199 164.708C132.199 164.711 132.2 164.713 132.2 164.716C132.201 164.718 132.201 164.721 132.202 164.723C132.202 164.726 132.203 164.728 132.203 164.731C132.204 164.733 132.205 164.736 132.205 164.738C132.206 164.741 132.206 164.743 132.207 164.746C132.207 164.748 132.208 164.751 132.208 164.753C132.209 164.756 132.209 164.758 132.21 164.761C132.211 164.763 132.211 164.766 132.212 164.768C132.212 164.771 132.213 164.773 132.213 164.776C132.214 164.778 132.214 164.781 132.215 164.784C132.215 164.786 132.216 164.789 132.217 164.791C132.217 164.794 132.218 164.796 132.218 164.799C132.219 164.801 132.219 164.804 132.22 164.807C132.22 164.809 132.221 164.812 132.222 164.814C132.222 164.817 132.223 164.82 132.223 164.822C132.224 164.825 132.224 164.827 132.225 164.83C132.225 164.832 132.226 164.835 132.227 164.838C132.227 164.84 132.228 164.843 132.228 164.845C132.229 164.848 132.229 164.851 132.23 164.853C132.231 164.856 132.231 164.859 132.232 164.861C132.232 164.864 132.233 164.866 132.233 164.869C132.234 164.872 132.235 164.874 132.235 164.877C132.236 164.88 132.236 164.882 132.237 164.885C132.237 164.888 132.238 164.89 132.239 164.893C132.239 164.896 132.24 164.898 132.24 164.901C132.241 164.904 132.241 164.906 132.242 164.909C132.243 164.912 132.243 164.914 132.244 164.917C132.244 164.92 132.245 164.922 132.245 164.925C132.246 164.928 132.247 164.93 132.247 164.933C132.248 164.936 132.248 164.938 132.249 164.941C132.25 164.944 132.25 164.946 132.251 164.949C132.251 164.952 132.252 164.955 132.252 164.957C132.253 164.96 132.254 164.963 132.254 164.965C132.255 164.968 132.255 164.971 132.256 164.974C132.257 164.976 132.257 164.979 132.258 164.982C132.258 164.984 132.259 164.987 132.259 164.99C132.26 164.993 132.261 164.995 132.261 164.998C132.262 165.001 132.262 165.004 132.263 165.006C132.264 165.009 132.264 165.012 132.265 165.015C132.265 165.017 132.266 165.02 132.267 165.023C132.267 165.026 132.268 165.029 132.268 165.031C132.269 165.034 132.27 165.037 132.27 165.04C132.271 165.042 132.271 165.045 132.272 165.048C132.273 165.051 132.273 165.054 132.274 165.056C132.274 165.059 132.275 165.062 132.276 165.065C132.276 165.068 132.277 165.07 132.277 165.073C132.278 165.076 132.279 165.079 132.279 165.082C132.28 165.084 132.28 165.087 132.281 165.09C132.282 165.093 132.282 165.096 132.283 165.098C132.284 165.101 132.284 165.104 132.285 165.107C132.285 165.11 132.286 165.113 132.287 165.115C132.287 165.118 132.288 165.121 132.288 165.124C132.289 165.127 132.29 165.13 132.29 165.132C132.291 165.135 132.291 165.138 132.292 165.141C132.293 165.144 132.293 165.147 132.294 165.15C132.295 165.152 132.295 165.155 132.296 165.158C132.296 165.161 132.297 165.164 132.298 165.167C132.298 165.17 132.299 165.173 132.3 165.175C132.3 165.178 132.301 165.181 132.301 165.184C132.302 165.187 132.303 165.19 132.303 165.193C132.304 165.196 132.305 165.199 132.305 165.201C132.306 165.204 132.306 165.207 132.307 165.21C132.308 165.213 132.308 165.216 132.309 165.219C132.31 165.222 132.31 165.225 132.311 165.228C132.311 165.231 132.312 165.233 132.313 165.236C132.313 165.239 132.314 165.242 132.315 165.245C132.315 165.248 132.316 165.251 132.316 165.254C132.317 165.257 132.318 165.26 132.318 165.263C132.319 165.266 132.32 165.269 132.32 165.272C132.321 165.274 132.322 165.277 132.322 165.28C132.323 165.283 132.323 165.286 132.324 165.289C132.325 165.292 132.325 165.295 132.326 165.298C132.327 165.301 132.327 165.304 132.328 165.307C132.329 165.31 132.329 165.313 132.33 165.316C132.331 165.319 132.331 165.322 132.332 165.325C132.332 165.328 132.333 165.331 132.334 165.334C132.334 165.337 132.335 165.34 132.336 165.343C132.336 165.346 132.337 165.349 132.338 165.352C132.338 165.355 132.339 165.358 132.34 165.361C132.34 165.364 132.341 165.367 132.341 165.37C132.342 165.373 132.343 165.376 132.343 165.379C132.344 165.382 132.345 165.385 132.345 165.388C132.346 165.391 132.347 165.394 132.347 165.397C132.348 165.4 132.349 165.403 132.349 165.406C132.35 165.409 132.351 165.412 132.351 165.415C132.352 165.418 132.353 165.421 132.353 165.424C132.354 165.427 132.355 165.43 132.355 165.433C132.356 165.436 132.356 165.439 132.357 165.442C132.358 165.445 132.358 165.448 132.359 165.451C132.36 165.454 132.36 165.458 132.361 165.461C132.362 165.464 132.362 165.467 132.363 165.47C132.364 165.473 132.364 165.476 132.365 165.479C132.366 165.482 132.366 165.485 132.367 165.488C132.368 165.491 132.368 165.494 132.369 165.497C132.37 165.5 132.37 165.504 132.371 165.507C132.372 165.51 132.372 165.513 132.373 165.516C132.374 165.519 132.374 165.522 132.375 165.525C132.376 165.528 132.376 165.531 132.377 165.534C132.378 165.537 132.378 165.541 132.379 165.544C132.38 165.547 132.38 165.55 132.381 165.553C132.382 165.556 132.382 165.559 132.383 165.562C132.384 165.565 132.384 165.568 132.385 165.572C132.386 165.575 132.386 165.578 132.387 165.581C132.388 165.584 132.388 165.587 132.389 165.59C132.39 165.593 132.39 165.597 132.391 165.6C132.392 165.603 132.392 165.606 132.393 165.609C132.394 165.612 132.395 165.615 132.395 165.618C132.396 165.622 132.397 165.625 132.397 165.628C132.398 165.631 132.399 165.634 132.399 165.637C132.4 165.64 132.401 165.644 132.401 165.647C132.402 165.65 132.403 165.653 132.403 165.656C132.404 165.659 132.405 165.662 132.405 165.666C132.406 165.669 132.407 165.672 132.407 165.675C132.408 165.678 132.409 165.681 132.409 165.685C132.41 165.688 132.411 165.691 132.412 165.694C132.412 165.697 132.413 165.7 132.414 165.704C132.414 165.707 132.415 165.71 132.416 165.713C132.416 165.716 132.417 165.719 132.418 165.723C132.418 165.726 132.419 165.729 132.42 165.732C132.42 165.735 132.421 165.738 132.422 165.742C132.422 165.745 132.423 165.748 132.424 165.751C132.425 165.754 132.425 165.758 132.426 165.761C132.427 165.764 132.427 165.767 132.428 165.77C132.429 165.774 132.429 165.777 132.43 165.78C132.431 165.783 132.431 165.786 132.432 165.79C132.433 165.793 132.434 165.796 132.434 165.799C132.435 165.802 132.436 165.806 132.436 165.809C132.437 165.812 132.438 165.815 132.438 165.819C132.439 165.822 132.44 165.825 132.44 165.828C132.441 165.831 132.442 165.835 132.443 165.838C132.443 165.841 132.444 165.844 132.445 165.848C132.445 165.851 132.446 165.854 132.447 165.857C132.447 165.86 132.448 165.864 132.449 165.867C132.45 165.87 132.45 165.873 132.451 165.877C132.452 165.88 132.452 165.883 132.453 165.886C132.454 165.89 132.454 165.893 132.455 165.896C132.456 165.899 132.457 165.903 132.457 165.906C132.458 165.909 132.459 165.912 132.459 165.916C132.46 165.919 132.461 165.922 132.461 165.925C132.462 165.929 132.463 165.932 132.464 165.935C132.464 165.938 132.465 165.942 132.466 165.945C132.466 165.948 132.467 165.951 132.468 165.955C132.468 165.958 132.469 165.961 132.47 165.964C132.471 165.968 132.471 165.971 132.472 165.974C132.473 165.978 132.473 165.981 132.474 165.984C132.475 165.987 132.476 165.991 132.476 165.994C132.477 165.997 132.478 166 132.478 166.004C132.479 166.007 132.48 166.01 132.481 166.014C132.481 166.017 132.482 166.02 132.483 166.023C132.483 166.027 132.484 166.03 132.485 166.033C132.485 166.037 132.486 166.04 132.487 166.043C132.488 166.046 132.488 166.05 132.489 166.053C132.49 166.056 132.49 166.06 132.491 166.063C132.492 166.066 132.493 166.07 132.493 166.073C132.494 166.076 132.495 166.079 132.495 166.083C132.496 166.086 132.497 166.089 132.498 166.093C132.498 166.096 132.499 166.099 132.5 166.103C132.5 166.106 132.501 166.109 132.502 166.112C132.503 166.116 132.503 166.119 132.504 166.122C132.505 166.126 132.505 166.129 132.506 166.132C132.507 166.136 132.508 166.139 132.508 166.142C132.509 166.146 132.51 166.149 132.51 166.152C132.511 166.156 132.512 166.159 132.513 166.162C132.513 166.166 132.514 166.169 132.515 166.172C132.515 166.176 132.516 166.179 132.517 166.182C132.518 166.185 132.518 166.189 132.519 166.192C132.52 166.195 132.52 166.199 132.521 166.202C132.522 166.205 132.523 166.209 132.523 166.212C132.524 166.215 132.525 166.219 132.526 166.222C132.526 166.225 132.527 166.229 132.528 166.232C132.528 166.235 132.529 166.239 132.53 166.242C132.531 166.246 132.531 166.249 132.532 166.252C132.533 166.256 132.533 166.259 132.534 166.262C132.535 166.266 132.536 166.269 132.536 166.272C132.537 166.276 132.538 166.279 132.539 166.282C132.539 166.286 132.54 166.289 132.541 166.292C132.541 166.296 132.542 166.299 132.543 166.302C132.544 166.306 132.544 166.309 132.545 166.312C132.546 166.316 132.546 166.319 132.547 166.323C132.548 166.326 132.549 166.329 132.549 166.333C132.55 166.336 132.551 166.339 132.552 166.343C132.552 166.346 132.553 166.349 132.554 166.353C132.554 166.356 132.555 166.359 132.556 166.363C132.557 166.366 132.557 166.37 132.558 166.373C132.559 166.376 132.56 166.38 132.56 166.383C132.561 166.386 132.562 166.39 132.562 166.393C132.563 166.397 132.564 166.4 132.565 166.403C132.565 166.407 132.566 166.41 132.567 166.413C132.568 166.417 132.568 166.42 132.569 166.423C132.57 166.427 132.57 166.43 132.571 166.434C132.572 166.437 132.573 166.44 132.573 166.444C132.574 166.447 132.575 166.45 132.576 166.454C132.576 166.457 132.577 166.461 132.578 166.464C132.578 166.467 132.579 166.471 132.58 166.474C132.581 166.478 132.581 166.481 132.582 166.484C132.583 166.488 132.584 166.491 132.584 166.494C132.585 166.498 132.586 166.501 132.587 166.505C132.587 166.508 132.588 166.511 132.589 166.515C132.589 166.518 132.59 166.521 132.591 166.525C132.592 166.528 132.592 166.532 132.593 166.535C132.594 166.538 132.595 166.542 132.595 166.545C132.596 166.549 132.597 166.552 132.597 166.555C132.598 166.559 132.599 166.562 132.6 166.566C132.6 166.569 132.601 166.572 132.602 166.576C132.603 166.579 132.603 166.583 132.604 166.586C132.605 166.589 132.606 166.593 132.606 166.596C132.607 166.599 132.608 166.603 132.608 166.606C132.609 166.61 132.61 166.613 132.611 166.616C132.611 166.62 132.612 166.623 132.613 166.627C132.614 166.63 132.614 166.633 132.615 166.637C132.616 166.64 132.617 166.644 132.617 166.647C132.618 166.65 132.619 166.654 132.619 166.657C132.62 166.661 132.621 166.664 132.622 166.667C132.622 166.671 132.623 166.674 132.624 166.678C132.625 166.681 132.625 166.684 132.626 166.688C132.627 166.691 132.628 166.695 132.628 166.698C132.629 166.701 132.63 166.705 132.63 166.708C132.631 166.712 132.632 166.715 132.633 166.718C132.633 166.722 132.634 166.725 132.635 166.729C132.636 166.732 132.636 166.735 132.637 166.739C132.638 166.742 132.639 166.746 132.639 166.749C132.64 166.752 132.641 166.756 132.642 166.759C132.642 166.763 132.643 166.766 132.644 166.769C132.644 166.773 132.645 166.776 132.646 166.78C132.647 166.783 132.647 166.786 132.648 166.79C132.649 166.793 132.65 166.797 132.65 166.8C132.651 166.804 132.652 166.807 132.653 166.81C132.653 166.814 132.654 166.817 132.655 166.821C132.655 166.824 132.656 166.827 132.657 166.831C132.658 166.834 132.658 166.838 132.659 166.841C132.66 166.844 132.661 166.848 132.661 166.851C132.662 166.855 132.663 166.858 132.664 166.861C132.664 166.865 132.665 166.868 132.666 166.872C132.667 166.875 132.667 166.878 132.668 166.882C132.669 166.885 132.669 166.889 132.67 166.892C132.671 166.895 132.672 166.899 132.672 166.902C132.673 166.906 132.674 166.909 132.675 166.913C132.675 166.916 132.676 166.919 132.677 166.923C132.678 166.926 132.678 166.93 132.679 166.933C132.68 166.936 132.68 166.94 132.681 166.943C132.682 166.947 132.683 166.95 132.683 166.953C132.684 166.957 132.685 166.96 132.686 166.964C132.686 166.967 132.687 166.97 132.688 166.974C132.689 166.977 132.689 166.981 132.69 166.984C132.691 166.987 132.692 166.991 132.692 166.994C132.693 166.998 132.694 167.001 132.694 167.004C132.695 167.008 132.696 167.011 132.697 167.015C132.697 167.018 132.698 167.021 132.699 167.025C132.7 167.028 132.7 167.032 132.701 167.035C132.702 167.038 132.703 167.042 132.703 167.045C132.704 167.049 132.705 167.052 132.705 167.055C132.706 167.059 132.707 167.062 132.708 167.066C132.708 167.069 132.709 167.072 132.71 167.076C132.711 167.079 132.711 167.083 132.712 167.086C132.713 167.089 132.714 167.093 132.714 167.096C132.715 167.1 132.716 167.103 132.716 167.106C132.717 167.11 132.718 167.113 132.719 167.117C132.719 167.12 132.72 167.123 132.721 167.127C132.722 167.13 132.722 167.134 132.723 167.137C132.724 167.14 132.725 167.144 132.725 167.147C132.726 167.151 132.727 167.154 132.727 167.157C132.728 167.161 132.729 167.164 132.73 167.168C132.73 167.171 132.731 167.174 132.732 167.178C132.733 167.181 132.733 167.184 132.734 167.188C132.735 167.191 132.736 167.195 132.736 167.198C132.737 167.201 132.738 167.205 132.738 167.208C132.739 167.212 132.74 167.215 132.741 167.218C132.741 167.222 132.742 167.225 132.743 167.229C132.744 167.232 132.744 167.235 132.745 167.239C132.746 167.242 132.746 167.245 132.747 167.249C132.748 167.252 132.749 167.256 132.749 167.259C132.75 167.262 132.751 167.266 132.752 167.269C132.752 167.272 132.753 167.276 132.754 167.279C132.755 167.283 132.755 167.286 132.756 167.289C132.757 167.293 132.757 167.296 132.758 167.299C132.759 167.303 132.76 167.306 132.76 167.31C132.761 167.313 132.762 167.316 132.763 167.32C132.763 167.323 132.764 167.326 132.765 167.33C132.765 167.333 132.766 167.337 132.767 167.34C132.768 167.343 132.768 167.347 132.769 167.35C132.77 167.353 132.771 167.357 132.771 167.36C132.772 167.364 132.773 167.367 132.773 167.37C132.774 167.374 132.775 167.377 132.776 167.38C132.776 167.384 132.777 167.387 132.778 167.39C132.779 167.394 132.779 167.397 132.78 167.401C132.781 167.404 132.781 167.407 132.782 167.411C132.783 167.414 132.784 167.417 132.784 167.421C132.785 167.424 132.786 167.427 132.786 167.431C132.787 167.434 132.788 167.437 132.789 167.441C132.789 167.444 132.79 167.447 132.791 167.451C132.792 167.454 132.792 167.458 132.793 167.461C132.794 167.464 132.794 167.468 132.795 167.471C132.796 167.474 132.797 167.478 132.797 167.481C132.798 167.484 132.799 167.488 132.8 167.491C132.8 167.494 132.801 167.498 132.802 167.501C132.802 167.504 132.803 167.508 132.804 167.511C132.805 167.514 132.805 167.518 132.806 167.521C132.807 167.524 132.807 167.528 132.808 167.531C132.809 167.534 132.81 167.538 132.81 167.541C132.811 167.544 132.812 167.548 132.812 167.551C132.813 167.554 132.814 167.558 132.815 167.561C132.815 167.564 132.816 167.568 132.817 167.571C132.817 167.574 132.818 167.578 132.819 167.581C132.82 167.584 132.82 167.588 132.821 167.591C132.822 167.594 132.823 167.598 132.823 167.601C132.824 167.604 132.825 167.607 132.825 167.611C132.826 167.614 132.827 167.617 132.828 167.621C132.828 167.624 132.829 167.627 132.83 167.631C132.83 167.634 132.831 167.637 132.832 167.641C132.833 167.644 132.833 167.647 132.834 167.65C132.835 167.654 132.835 167.657 132.836 167.66C132.837 167.664 132.838 167.667 132.838 167.67C132.839 167.674 132.84 167.677 132.84 167.68C132.841 167.683 132.842 167.687 132.842 167.69C132.843 167.693 132.844 167.697 132.845 167.7C132.845 167.703 132.846 167.706 132.847 167.71C132.847 167.713 132.848 167.716 132.849 167.72C132.85 167.723 132.85 167.726 132.851 167.729C132.852 167.733 132.852 167.736 132.853 167.739C132.854 167.743 132.855 167.746 132.855 167.749C132.856 167.752 132.857 167.756 132.857 167.759C132.858 167.762 132.859 167.765 132.859 167.769C132.86 167.772 132.861 167.775 132.862 167.779C132.862 167.782 132.863 167.785 132.864 167.788C132.864 167.792 132.865 167.795 132.866 167.798C132.867 167.801 132.867 167.805 132.868 167.808C132.869 167.811 132.869 167.814 132.87 167.818C132.871 167.821 132.871 167.824 132.872 167.827C132.873 167.831 132.874 167.834 132.874 167.837C132.875 167.84 132.876 167.844 132.876 167.847C132.877 167.85 132.878 167.853 132.878 167.857C132.879 167.86 132.88 167.863 132.881 167.866C132.881 167.87 132.882 167.873 132.883 167.876C132.883 167.879 132.884 167.882 132.885 167.886C132.885 167.889 132.886 167.892 132.887 167.895C132.888 167.899 132.888 167.902 132.889 167.905C132.89 167.908 132.89 167.912 132.891 167.915C132.892 167.918 132.892 167.921 132.893 167.924C132.894 167.928 132.894 167.931 132.895 167.934C132.896 167.937 132.897 167.94 132.897 167.944C132.898 167.947 132.899 167.95 132.899 167.953C132.9 167.956 132.901 167.96 132.901 167.963C132.902 167.966 132.903 167.969 132.903 167.972C132.904 167.976 132.905 167.979 132.906 167.982C132.906 167.985 132.907 167.988 132.908 167.992C132.908 167.995 132.909 167.998 132.91 168.001C132.91 168.004 132.911 168.008 132.912 168.011C132.912 168.014 132.913 168.017 132.914 168.02C132.914 168.023 132.915 168.027 132.916 168.03C132.917 168.033 132.917 168.036 132.918 168.039C132.919 168.042 132.919 168.046 132.92 168.049C132.921 168.052 132.921 168.055 132.922 168.058C132.923 168.061 132.923 168.065 132.924 168.068C132.925 168.071 132.925 168.074 132.926 168.077C132.927 168.08 132.927 168.084 132.928 168.087C132.929 168.09 132.929 168.093 132.93 168.096C132.931 168.099 132.932 168.102 132.932 168.106C132.933 168.109 132.934 168.112 132.934 168.115C132.935 168.118 132.936 168.121 132.936 168.124C132.937 168.127 132.938 168.131 132.938 168.134C132.939 168.137 132.94 168.14 132.94 168.143C132.941 168.146 132.942 168.149 132.942 168.152C132.943 168.156 132.944 168.159 132.944 168.162C132.945 168.165 132.946 168.168 132.946 168.171C132.947 168.174 132.948 168.177 132.948 168.18C132.949 168.184 132.95 168.187 132.95 168.19C132.951 168.193 132.952 168.196 132.952 168.199C132.953 168.202 132.954 168.205 132.954 168.208C132.955 168.211 132.956 168.215 132.956 168.218C132.957 168.221 132.958 168.224 132.958 168.227C132.959 168.23 132.96 168.233 132.96 168.236C132.961 168.239 132.962 168.242 132.962 168.245C132.963 168.248 132.964 168.251 132.964 168.255C132.965 168.258 132.966 168.261 132.966 168.264C132.967 168.267 132.968 168.27 132.968 168.273C132.969 168.276 132.97 168.279 132.97 168.282C132.971 168.285 132.972 168.288 132.972 168.291C132.973 168.294 132.974 168.297 132.974 168.3C132.975 168.303 132.976 168.306 132.976 168.309C132.977 168.312 132.978 168.316 132.978 168.319C132.979 168.322 132.98 168.325 132.98 168.328C132.981 168.331 132.981 168.334 132.982 168.337C132.983 168.34 132.983 168.343 132.984 168.346C132.985 168.349 132.985 168.352 132.986 168.355C132.987 168.358 132.987 168.361 132.988 168.364C132.989 168.367 132.989 168.37 132.99 168.373C132.991 168.376 132.991 168.379 132.992 168.382C132.993 168.385 132.993 168.388 132.994 168.391C132.994 168.394 132.995 168.397 132.996 168.4C132.996 168.403 132.997 168.406 132.998 168.409C132.998 168.412 132.999 168.415 133 168.418C133 168.421 133.001 168.424 133.002 168.427C133.002 168.43 133.003 168.432 133.003 168.435C133.004 168.438 133.005 168.441 133.005 168.444C133.006 168.447 133.007 168.45 133.007 168.453C133.008 168.456 133.009 168.459 133.009 168.462C133.01 168.465 133.01 168.468 133.011 168.471C133.012 168.474 133.012 168.477 133.013 168.48C133.014 168.483 133.014 168.486 133.015 168.488C133.016 168.491 133.016 168.494 133.017 168.497C133.017 168.5 133.018 168.503 133.019 168.506C133.019 168.509 133.02 168.512 133.021 168.515C133.021 168.518 133.022 168.521 133.022 168.523C133.023 168.526 133.024 168.529 133.024 168.532C133.025 168.535 133.026 168.538 133.026 168.541C133.027 168.544 133.027 168.547 133.028 168.55C133.029 168.552 133.029 168.555 133.03 168.558C133.031 168.561 133.031 168.564 133.032 168.567C133.032 168.57 133.033 168.573 133.034 168.575C133.034 168.578 133.035 168.581 133.036 168.584C133.036 168.587 133.037 168.59 133.037 168.593C133.038 168.596 133.039 168.598 133.039 168.601C133.04 168.604 133.04 168.607 133.041 168.61C133.042 168.613 133.042 168.615 133.043 168.618C133.044 168.621 133.044 168.624 133.045 168.627C133.045 168.63 133.046 168.632 133.047 168.635C133.047 168.638 133.048 168.641 133.048 168.644C133.049 168.647 133.05 168.649 133.05 168.652C133.051 168.655 133.051 168.658 133.052 168.661C133.053 168.663 133.053 168.666 133.054 168.669C133.054 168.672 133.055 168.675 133.056 168.677C133.056 168.68 133.057 168.683 133.057 168.686C133.058 168.689 133.059 168.691 133.059 168.694C133.06 168.697 133.06 168.7 133.061 168.702C133.062 168.705 133.062 168.708 133.063 168.711C133.063 168.714 133.064 168.716 133.065 168.719C133.065 168.722 133.066 168.725 133.066 168.727C133.067 168.73 133.068 168.733 133.068 168.736C133.069 168.738 133.069 168.741 133.07 168.744C133.071 168.747 133.071 168.749 133.072 168.752C133.072 168.755 133.073 168.758 133.074 168.76C133.074 168.763 133.075 168.766 133.075 168.768C133.076 168.771 133.077 168.774 133.077 168.777C133.078 168.779 133.078 168.782 133.079 168.785C133.079 168.787 133.08 168.79 133.081 168.793C133.081 168.796 133.082 168.798 133.082 168.801C133.083 168.804 133.084 168.806 133.084 168.809C133.085 168.812 133.085 168.814 133.086 168.817C133.086 168.82 133.087 168.822 133.088 168.825C133.088 168.828 133.089 168.83 133.089 168.833C133.09 168.836 133.09 168.838 133.091 168.841C133.092 168.844 133.092 168.846 133.093 168.849C133.093 168.852 133.094 168.854 133.094 168.857C133.095 168.86 133.096 168.862 133.096 168.865C133.097 168.868 133.097 168.87 133.098 168.873C133.098 168.875 133.099 168.878 133.1 168.881C133.1 168.883 133.101 168.886 133.101 168.888C133.102 168.891 133.102 168.894 133.103 168.896C133.104 168.899 133.104 168.902 133.105 168.904C133.105 168.907 133.106 168.909 133.106 168.912C133.107 168.915 133.107 168.917 133.108 168.92C133.109 168.922 133.109 168.925 133.11 168.927C133.11 168.93 133.111 168.933 133.111 168.935C133.112 168.938 133.112 168.94 133.113 168.943C133.114 168.945 133.114 168.948 133.115 168.95C133.115 168.953 133.116 168.956 133.116 168.958C133.117 168.961 133.117 168.963 133.118 168.966C133.118 168.968 133.119 168.971 133.12 168.973C133.12 168.976 133.121 168.978 133.121 168.981C133.122 168.983 133.122 168.986 133.123 168.989C133.123 168.991 133.124 168.994 133.124 168.996C133.125 168.999 133.126 169.001 133.126 169.004C133.127 169.006 133.127 169.009 133.128 169.011C133.128 169.014 133.129 169.016 133.129 169.018C133.13 169.021 133.13 169.023 133.131 169.026C133.131 169.028 133.132 169.031 133.133 169.033C133.133 169.036 133.134 169.038 133.134 169.041C133.135 169.043 133.135 169.046 133.136 169.048C133.136 169.051 133.137 169.053 133.137 169.055C133.138 169.058 133.138 169.06 133.139 169.063C133.139 169.065 133.14 169.068 133.14 169.07C133.141 169.072 133.142 169.075 133.142 169.077C133.143 169.08 133.143 169.082 133.144 169.085C133.144 169.087 133.145 169.089 133.145 169.092L134.875 168.718C134.875 168.716 134.874 168.713 134.874 168.711C134.873 168.709 134.873 168.706 134.872 168.704C134.872 168.701 134.871 168.699 134.871 168.696C134.87 168.694 134.87 168.692 134.869 168.689C134.868 168.687 134.868 168.684 134.867 168.682C134.867 168.679 134.866 168.677 134.866 168.675C134.865 168.672 134.865 168.67 134.864 168.667C134.864 168.665 134.863 168.662 134.863 168.66C134.862 168.657 134.862 168.655 134.861 168.652C134.861 168.65 134.86 168.647 134.859 168.645C134.859 168.642 134.858 168.64 134.858 168.637C134.857 168.635 134.857 168.632 134.856 168.63C134.856 168.627 134.855 168.625 134.855 168.622C134.854 168.62 134.854 168.617 134.853 168.615C134.852 168.612 134.852 168.61 134.851 168.607C134.851 168.605 134.85 168.602 134.85 168.6C134.849 168.597 134.849 168.595 134.848 168.592C134.848 168.59 134.847 168.587 134.846 168.585C134.846 168.582 134.845 168.579 134.845 168.577C134.844 168.574 134.844 168.572 134.843 168.569C134.843 168.567 134.842 168.564 134.841 168.562C134.841 168.559 134.84 168.556 134.84 168.554C134.839 168.551 134.839 168.549 134.838 168.546C134.838 168.544 134.837 168.541 134.836 168.538C134.836 168.536 134.835 168.533 134.835 168.531C134.834 168.528 134.834 168.525 134.833 168.523C134.833 168.52 134.832 168.518 134.831 168.515C134.831 168.512 134.83 168.51 134.83 168.507C134.829 168.504 134.829 168.502 134.828 168.499C134.827 168.497 134.827 168.494 134.826 168.491C134.826 168.489 134.825 168.486 134.825 168.483C134.824 168.481 134.823 168.478 134.823 168.475C134.822 168.473 134.822 168.47 134.821 168.467C134.821 168.465 134.82 168.462 134.819 168.459C134.819 168.457 134.818 168.454 134.818 168.451C134.817 168.449 134.817 168.446 134.816 168.443C134.815 168.441 134.815 168.438 134.814 168.435C134.814 168.433 134.813 168.43 134.812 168.427C134.812 168.425 134.811 168.422 134.811 168.419C134.81 168.417 134.81 168.414 134.809 168.411C134.808 168.408 134.808 168.406 134.807 168.403C134.807 168.4 134.806 168.398 134.805 168.395C134.805 168.392 134.804 168.389 134.804 168.387C134.803 168.384 134.803 168.381 134.802 168.379C134.801 168.376 134.801 168.373 134.8 168.37C134.8 168.368 134.799 168.365 134.798 168.362C134.798 168.359 134.797 168.357 134.797 168.354C134.796 168.351 134.795 168.348 134.795 168.346C134.794 168.343 134.794 168.34 134.793 168.337C134.792 168.334 134.792 168.332 134.791 168.329C134.791 168.326 134.79 168.323 134.789 168.321C134.789 168.318 134.788 168.315 134.788 168.312C134.787 168.309 134.786 168.307 134.786 168.304C134.785 168.301 134.785 168.298 134.784 168.295C134.783 168.293 134.783 168.29 134.782 168.287C134.782 168.284 134.781 168.281 134.78 168.279C134.78 168.276 134.779 168.273 134.779 168.27C134.778 168.267 134.777 168.265 134.777 168.262C134.776 168.259 134.775 168.256 134.775 168.253C134.774 168.25 134.774 168.248 134.773 168.245C134.772 168.242 134.772 168.239 134.771 168.236C134.771 168.233 134.77 168.23 134.769 168.228C134.769 168.225 134.768 168.222 134.768 168.219C134.767 168.216 134.766 168.213 134.766 168.21C134.765 168.208 134.764 168.205 134.764 168.202C134.763 168.199 134.763 168.196 134.762 168.193C134.761 168.19 134.761 168.188 134.76 168.185C134.759 168.182 134.759 168.179 134.758 168.176C134.758 168.173 134.757 168.17 134.756 168.167C134.756 168.164 134.755 168.162 134.754 168.159C134.754 168.156 134.753 168.153 134.753 168.15C134.752 168.147 134.751 168.144 134.751 168.141C134.75 168.138 134.749 168.135 134.749 168.132C134.748 168.13 134.748 168.127 134.747 168.124C134.746 168.121 134.746 168.118 134.745 168.115C134.744 168.112 134.744 168.109 134.743 168.106C134.742 168.103 134.742 168.1 134.741 168.097C134.741 168.094 134.74 168.091 134.739 168.088C134.739 168.086 134.738 168.083 134.737 168.08C134.737 168.077 134.736 168.074 134.735 168.071C134.735 168.068 134.734 168.065 134.734 168.062C134.733 168.059 134.732 168.056 134.732 168.053C134.731 168.05 134.73 168.047 134.73 168.044C134.729 168.041 134.728 168.038 134.728 168.035C134.727 168.032 134.727 168.029 134.726 168.026C134.725 168.023 134.725 168.02 134.724 168.017C134.723 168.014 134.723 168.011 134.722 168.008C134.721 168.005 134.721 168.002 134.72 167.999C134.719 167.996 134.719 167.993 134.718 167.99C134.717 167.987 134.717 167.984 134.716 167.981C134.716 167.978 134.715 167.975 134.714 167.972C134.714 167.969 134.713 167.966 134.712 167.963C134.712 167.96 134.711 167.957 134.71 167.954C134.71 167.951 134.709 167.948 134.708 167.945C134.708 167.942 134.707 167.939 134.706 167.936C134.706 167.933 134.705 167.93 134.704 167.927C134.704 167.924 134.703 167.921 134.702 167.918C134.702 167.915 134.701 167.912 134.7 167.908C134.7 167.905 134.699 167.902 134.698 167.899C134.698 167.896 134.697 167.893 134.696 167.89C134.696 167.887 134.695 167.884 134.694 167.881C134.694 167.878 134.693 167.875 134.693 167.872C134.692 167.869 134.691 167.866 134.691 167.863C134.69 167.859 134.689 167.856 134.689 167.853C134.688 167.85 134.687 167.847 134.687 167.844C134.686 167.841 134.685 167.838 134.685 167.835C134.684 167.832 134.683 167.829 134.683 167.825C134.682 167.822 134.681 167.819 134.681 167.816C134.68 167.813 134.679 167.81 134.679 167.807C134.678 167.804 134.677 167.801 134.676 167.798C134.676 167.794 134.675 167.791 134.674 167.788C134.674 167.785 134.673 167.782 134.672 167.779C134.672 167.776 134.671 167.773 134.67 167.77C134.67 167.766 134.669 167.763 134.668 167.76C134.668 167.757 134.667 167.754 134.666 167.751C134.666 167.748 134.665 167.745 134.664 167.741C134.664 167.738 134.663 167.735 134.662 167.732C134.662 167.729 134.661 167.726 134.66 167.723C134.66 167.719 134.659 167.716 134.658 167.713C134.658 167.71 134.657 167.707 134.656 167.704C134.656 167.701 134.655 167.697 134.654 167.694C134.653 167.691 134.653 167.688 134.652 167.685C134.651 167.682 134.651 167.678 134.65 167.675C134.649 167.672 134.649 167.669 134.648 167.666C134.647 167.663 134.647 167.659 134.646 167.656C134.645 167.653 134.645 167.65 134.644 167.647C134.643 167.644 134.643 167.64 134.642 167.637C134.641 167.634 134.64 167.631 134.64 167.628C134.639 167.624 134.638 167.621 134.638 167.618C134.637 167.615 134.636 167.612 134.636 167.608C134.635 167.605 134.634 167.602 134.634 167.599C134.633 167.596 134.632 167.593 134.632 167.589C134.631 167.586 134.63 167.583 134.629 167.58C134.629 167.576 134.628 167.573 134.627 167.57C134.627 167.567 134.626 167.564 134.625 167.56C134.625 167.557 134.624 167.554 134.623 167.551C134.623 167.548 134.622 167.544 134.621 167.541C134.62 167.538 134.62 167.535 134.619 167.532C134.618 167.528 134.618 167.525 134.617 167.522C134.616 167.519 134.616 167.515 134.615 167.512C134.614 167.509 134.613 167.506 134.613 167.502C134.612 167.499 134.611 167.496 134.611 167.493C134.61 167.49 134.609 167.486 134.609 167.483C134.608 167.48 134.607 167.477 134.606 167.473C134.606 167.47 134.605 167.467 134.604 167.464C134.604 167.46 134.603 167.457 134.602 167.454C134.602 167.451 134.601 167.447 134.6 167.444C134.599 167.441 134.599 167.438 134.598 167.434C134.597 167.431 134.597 167.428 134.596 167.425C134.595 167.421 134.595 167.418 134.594 167.415C134.593 167.412 134.592 167.408 134.592 167.405C134.591 167.402 134.59 167.398 134.59 167.395C134.589 167.392 134.588 167.389 134.587 167.385C134.587 167.382 134.586 167.379 134.585 167.376C134.585 167.372 134.584 167.369 134.583 167.366C134.583 167.362 134.582 167.359 134.581 167.356C134.58 167.353 134.58 167.349 134.579 167.346C134.578 167.343 134.578 167.339 134.577 167.336C134.576 167.333 134.575 167.33 134.575 167.326C134.574 167.323 134.573 167.32 134.573 167.316C134.572 167.313 134.571 167.31 134.57 167.307C134.57 167.303 134.569 167.3 134.568 167.297C134.568 167.293 134.567 167.29 134.566 167.287C134.565 167.283 134.565 167.28 134.564 167.277C134.563 167.274 134.563 167.27 134.562 167.267C134.561 167.264 134.561 167.26 134.56 167.257C134.559 167.254 134.558 167.25 134.558 167.247C134.557 167.244 134.556 167.241 134.555 167.237C134.555 167.234 134.554 167.231 134.553 167.227C134.553 167.224 134.552 167.221 134.551 167.217C134.55 167.214 134.55 167.211 134.549 167.207C134.548 167.204 134.548 167.201 134.547 167.197C134.546 167.194 134.545 167.191 134.545 167.187C134.544 167.184 134.543 167.181 134.543 167.177C134.542 167.174 134.541 167.171 134.54 167.167C134.54 167.164 134.539 167.161 134.538 167.157C134.538 167.154 134.537 167.151 134.536 167.147C134.535 167.144 134.535 167.141 134.534 167.137C134.533 167.134 134.533 167.131 134.532 167.127C134.531 167.124 134.53 167.121 134.53 167.117C134.529 167.114 134.528 167.111 134.527 167.107C134.527 167.104 134.526 167.101 134.525 167.097C134.525 167.094 134.524 167.091 134.523 167.087C134.522 167.084 134.522 167.081 134.521 167.077C134.52 167.074 134.52 167.071 134.519 167.067C134.518 167.064 134.517 167.06 134.517 167.057C134.516 167.054 134.515 167.05 134.514 167.047C134.514 167.044 134.513 167.04 134.512 167.037C134.512 167.034 134.511 167.03 134.51 167.027C134.509 167.024 134.509 167.02 134.508 167.017C134.507 167.013 134.506 167.01 134.506 167.007C134.505 167.003 134.504 167 134.504 166.997C134.503 166.993 134.502 166.99 134.501 166.987C134.501 166.983 134.5 166.98 134.499 166.976C134.498 166.973 134.498 166.97 134.497 166.966C134.496 166.963 134.496 166.96 134.495 166.956C134.494 166.953 134.493 166.95 134.493 166.946C134.492 166.943 134.491 166.939 134.49 166.936C134.49 166.933 134.489 166.929 134.488 166.926C134.488 166.923 134.487 166.919 134.486 166.916C134.485 166.912 134.485 166.909 134.484 166.906C134.483 166.902 134.482 166.899 134.482 166.896C134.481 166.892 134.48 166.889 134.48 166.885C134.479 166.882 134.478 166.879 134.477 166.875C134.477 166.872 134.476 166.868 134.475 166.865C134.474 166.862 134.474 166.858 134.473 166.855C134.472 166.852 134.471 166.848 134.471 166.845C134.47 166.841 134.469 166.838 134.469 166.835C134.468 166.831 134.467 166.828 134.466 166.824C134.466 166.821 134.465 166.818 134.464 166.814C134.463 166.811 134.463 166.808 134.462 166.804C134.461 166.801 134.461 166.797 134.46 166.794C134.459 166.791 134.458 166.787 134.458 166.784C134.457 166.78 134.456 166.777 134.455 166.774C134.455 166.77 134.454 166.767 134.453 166.763C134.452 166.76 134.452 166.757 134.451 166.753C134.45 166.75 134.45 166.746 134.449 166.743C134.448 166.74 134.447 166.736 134.447 166.733C134.446 166.729 134.445 166.726 134.444 166.723C134.444 166.719 134.443 166.716 134.442 166.712C134.441 166.709 134.441 166.706 134.44 166.702C134.439 166.699 134.439 166.695 134.438 166.692C134.437 166.689 134.436 166.685 134.436 166.682C134.435 166.678 134.434 166.675 134.433 166.672C134.433 166.668 134.432 166.665 134.431 166.661C134.43 166.658 134.43 166.655 134.429 166.651C134.428 166.648 134.428 166.644 134.427 166.641C134.426 166.638 134.425 166.634 134.425 166.631C134.424 166.627 134.423 166.624 134.422 166.621C134.422 166.617 134.421 166.614 134.42 166.61C134.419 166.607 134.419 166.604 134.418 166.6C134.417 166.597 134.416 166.593 134.416 166.59C134.415 166.587 134.414 166.583 134.414 166.58C134.413 166.576 134.412 166.573 134.411 166.57C134.411 166.566 134.41 166.563 134.409 166.559C134.408 166.556 134.408 166.553 134.407 166.549C134.406 166.546 134.405 166.542 134.405 166.539C134.404 166.536 134.403 166.532 134.403 166.529C134.402 166.525 134.401 166.522 134.4 166.519C134.4 166.515 134.399 166.512 134.398 166.508C134.397 166.505 134.397 166.501 134.396 166.498C134.395 166.495 134.394 166.491 134.394 166.488C134.393 166.484 134.392 166.481 134.391 166.478C134.391 166.474 134.39 166.471 134.389 166.467C134.389 166.464 134.388 166.461 134.387 166.457C134.386 166.454 134.386 166.45 134.385 166.447C134.384 166.444 134.383 166.44 134.383 166.437C134.382 166.433 134.381 166.43 134.38 166.427C134.38 166.423 134.379 166.42 134.378 166.416C134.378 166.413 134.377 166.41 134.376 166.406C134.375 166.403 134.375 166.399 134.374 166.396C134.373 166.392 134.372 166.389 134.372 166.386C134.371 166.382 134.37 166.379 134.369 166.375C134.369 166.372 134.368 166.369 134.367 166.365C134.366 166.362 134.366 166.358 134.365 166.355C134.364 166.352 134.364 166.348 134.363 166.345C134.362 166.341 134.361 166.338 134.361 166.335C134.36 166.331 134.359 166.328 134.358 166.324C134.358 166.321 134.357 166.318 134.356 166.314C134.355 166.311 134.355 166.307 134.354 166.304C134.353 166.301 134.353 166.297 134.352 166.294C134.351 166.29 134.35 166.287 134.35 166.284C134.349 166.28 134.348 166.277 134.347 166.273C134.347 166.27 134.346 166.267 134.345 166.263C134.344 166.26 134.344 166.256 134.343 166.253C134.342 166.25 134.342 166.246 134.341 166.243C134.34 166.239 134.339 166.236 134.339 166.233C134.338 166.229 134.337 166.226 134.336 166.223C134.336 166.219 134.335 166.216 134.334 166.212C134.333 166.209 134.333 166.206 134.332 166.202C134.331 166.199 134.331 166.195 134.33 166.192C134.329 166.189 134.328 166.185 134.328 166.182C134.327 166.178 134.326 166.175 134.325 166.172C134.325 166.168 134.324 166.165 134.323 166.161C134.322 166.158 134.322 166.155 134.321 166.151C134.32 166.148 134.32 166.145 134.319 166.141C134.318 166.138 134.317 166.134 134.317 166.131C134.316 166.128 134.315 166.124 134.314 166.121C134.314 166.117 134.313 166.114 134.312 166.111C134.312 166.107 134.311 166.104 134.31 166.101C134.309 166.097 134.309 166.094 134.308 166.09C134.307 166.087 134.306 166.084 134.306 166.08C134.305 166.077 134.304 166.074 134.304 166.07C134.303 166.067 134.302 166.063 134.301 166.06C134.301 166.057 134.3 166.053 134.299 166.05C134.298 166.047 134.298 166.043 134.297 166.04C134.296 166.036 134.295 166.033 134.295 166.03C134.294 166.026 134.293 166.023 134.293 166.02C134.292 166.016 134.291 166.013 134.29 166.009C134.29 166.006 134.289 166.003 134.288 165.999C134.287 165.996 134.287 165.993 134.286 165.989C134.285 165.986 134.285 165.983 134.284 165.979C134.283 165.976 134.282 165.972 134.282 165.969C134.281 165.966 134.28 165.962 134.28 165.959C134.279 165.956 134.278 165.952 134.277 165.949C134.277 165.946 134.276 165.942 134.275 165.939C134.274 165.936 134.274 165.932 134.273 165.929C134.272 165.925 134.272 165.922 134.271 165.919C134.27 165.915 134.269 165.912 134.269 165.909C134.268 165.905 134.267 165.902 134.266 165.899C134.266 165.895 134.265 165.892 134.264 165.889C134.264 165.885 134.263 165.882 134.262 165.879C134.261 165.875 134.261 165.872 134.26 165.869C134.259 165.865 134.259 165.862 134.258 165.859C134.257 165.855 134.256 165.852 134.256 165.849C134.255 165.845 134.254 165.842 134.254 165.839C134.253 165.835 134.252 165.832 134.251 165.829C134.251 165.825 134.25 165.822 134.249 165.819C134.248 165.815 134.248 165.812 134.247 165.809C134.246 165.805 134.246 165.802 134.245 165.799C134.244 165.795 134.243 165.792 134.243 165.789C134.242 165.785 134.241 165.782 134.241 165.779C134.24 165.775 134.239 165.772 134.238 165.769C134.238 165.765 134.237 165.762 134.236 165.759C134.236 165.755 134.235 165.752 134.234 165.749C134.233 165.746 134.233 165.742 134.232 165.739C134.231 165.736 134.231 165.732 134.23 165.729C134.229 165.726 134.228 165.722 134.228 165.719C134.227 165.716 134.226 165.712 134.226 165.709C134.225 165.706 134.224 165.703 134.223 165.699C134.223 165.696 134.222 165.693 134.221 165.689C134.221 165.686 134.22 165.683 134.219 165.679C134.218 165.676 134.218 165.673 134.217 165.67C134.216 165.666 134.216 165.663 134.215 165.66C134.214 165.656 134.213 165.653 134.213 165.65C134.212 165.647 134.211 165.643 134.211 165.64C134.21 165.637 134.209 165.633 134.209 165.63C134.208 165.627 134.207 165.624 134.206 165.62C134.206 165.617 134.205 165.614 134.204 165.611C134.204 165.607 134.203 165.604 134.202 165.601C134.201 165.597 134.201 165.594 134.2 165.591C134.199 165.588 134.199 165.584 134.198 165.581C134.197 165.578 134.197 165.575 134.196 165.571C134.195 165.568 134.194 165.565 134.194 165.562C134.193 165.558 134.192 165.555 134.192 165.552C134.191 165.549 134.19 165.545 134.189 165.542C134.189 165.539 134.188 165.535 134.187 165.532C134.187 165.529 134.186 165.526 134.185 165.523C134.185 165.519 134.184 165.516 134.183 165.513C134.182 165.51 134.182 165.506 134.181 165.503C134.18 165.5 134.18 165.497 134.179 165.493C134.178 165.49 134.178 165.487 134.177 165.484C134.176 165.48 134.175 165.477 134.175 165.474C134.174 165.471 134.173 165.468 134.173 165.464C134.172 165.461 134.171 165.458 134.171 165.455C134.17 165.451 134.169 165.448 134.169 165.445C134.168 165.442 134.167 165.439 134.166 165.435C134.166 165.432 134.165 165.429 134.164 165.426C134.164 165.422 134.163 165.419 134.162 165.416C134.162 165.413 134.161 165.41 134.16 165.406C134.16 165.403 134.159 165.4 134.158 165.397C134.157 165.394 134.157 165.39 134.156 165.387C134.155 165.384 134.155 165.381 134.154 165.378C134.153 165.374 134.153 165.371 134.152 165.368C134.151 165.365 134.151 165.362 134.15 165.359C134.149 165.355 134.148 165.352 134.148 165.349C134.147 165.346 134.146 165.343 134.146 165.339C134.145 165.336 134.144 165.333 134.144 165.33C134.143 165.327 134.142 165.324 134.142 165.32C134.141 165.317 134.14 165.314 134.14 165.311C134.139 165.308 134.138 165.305 134.138 165.301C134.137 165.298 134.136 165.295 134.135 165.292C134.135 165.289 134.134 165.286 134.133 165.283C134.133 165.279 134.132 165.276 134.131 165.273C134.131 165.27 134.13 165.267 134.129 165.264C134.129 165.261 134.128 165.257 134.127 165.254C134.127 165.251 134.126 165.248 134.125 165.245C134.125 165.242 134.124 165.239 134.123 165.235C134.123 165.232 134.122 165.229 134.121 165.226C134.121 165.223 134.12 165.22 134.119 165.217C134.119 165.214 134.118 165.21 134.117 165.207C134.117 165.204 134.116 165.201 134.115 165.198C134.115 165.195 134.114 165.192 134.113 165.189C134.113 165.186 134.112 165.182 134.111 165.179C134.111 165.176 134.11 165.173 134.109 165.17C134.108 165.167 134.108 165.164 134.107 165.161C134.106 165.158 134.106 165.155 134.105 165.152C134.104 165.148 134.104 165.145 134.103 165.142C134.102 165.139 134.102 165.136 134.101 165.133C134.1 165.13 134.1 165.127 134.099 165.124C134.099 165.121 134.098 165.118 134.097 165.115C134.097 165.111 134.096 165.108 134.095 165.105C134.095 165.102 134.094 165.099 134.093 165.096C134.093 165.093 134.092 165.09 134.091 165.087C134.091 165.084 134.09 165.081 134.089 165.078C134.089 165.075 134.088 165.072 134.087 165.069C134.087 165.066 134.086 165.063 134.085 165.06C134.085 165.057 134.084 165.054 134.083 165.05C134.083 165.047 134.082 165.044 134.081 165.041C134.081 165.038 134.08 165.035 134.079 165.032C134.079 165.029 134.078 165.026 134.077 165.023C134.077 165.02 134.076 165.017 134.076 165.014C134.075 165.011 134.074 165.008 134.074 165.005C134.073 165.002 134.072 164.999 134.072 164.996C134.071 164.993 134.07 164.99 134.07 164.987C134.069 164.984 134.068 164.981 134.068 164.978C134.067 164.975 134.066 164.972 134.066 164.969C134.065 164.966 134.064 164.963 134.064 164.96C134.063 164.957 134.063 164.954 134.062 164.951C134.061 164.948 134.061 164.945 134.06 164.942C134.059 164.939 134.059 164.936 134.058 164.933C134.057 164.93 134.057 164.928 134.056 164.925C134.056 164.922 134.055 164.919 134.054 164.916C134.054 164.913 134.053 164.91 134.052 164.907C134.052 164.904 134.051 164.901 134.05 164.898C134.05 164.895 134.049 164.892 134.049 164.889C134.048 164.886 134.047 164.883 134.047 164.88C134.046 164.877 134.045 164.874 134.045 164.872C134.044 164.869 134.043 164.866 134.043 164.863C134.042 164.86 134.042 164.857 134.041 164.854C134.04 164.851 134.04 164.848 134.039 164.845C134.038 164.842 134.038 164.839 134.037 164.837C134.037 164.834 134.036 164.831 134.035 164.828C134.035 164.825 134.034 164.822 134.033 164.819C134.033 164.816 134.032 164.813 134.032 164.811C134.031 164.808 134.03 164.805 134.03 164.802C134.029 164.799 134.028 164.796 134.028 164.793C134.027 164.79 134.027 164.788 134.026 164.785C134.025 164.782 134.025 164.779 134.024 164.776C134.023 164.773 134.023 164.77 134.022 164.767C134.022 164.765 134.021 164.762 134.02 164.759C134.02 164.756 134.019 164.753 134.019 164.75C134.018 164.748 134.017 164.745 134.017 164.742C134.016 164.739 134.015 164.736 134.015 164.733C134.014 164.731 134.014 164.728 134.013 164.725C134.012 164.722 134.012 164.719 134.011 164.716C134.011 164.714 134.01 164.711 134.009 164.708C134.009 164.705 134.008 164.702 134.008 164.7C134.007 164.697 134.006 164.694 134.006 164.691C134.005 164.688 134.005 164.686 134.004 164.683C134.003 164.68 134.003 164.677 134.002 164.674C134.002 164.672 134.001 164.669 134 164.666C134 164.663 133.999 164.661 133.999 164.658C133.998 164.655 133.997 164.652 133.997 164.649C133.996 164.647 133.996 164.644 133.995 164.641C133.994 164.638 133.994 164.636 133.993 164.633C133.993 164.63 133.992 164.627 133.991 164.625C133.991 164.622 133.99 164.619 133.99 164.616C133.989 164.614 133.988 164.611 133.988 164.608C133.987 164.605 133.987 164.603 133.986 164.6C133.985 164.597 133.985 164.595 133.984 164.592C133.984 164.589 133.983 164.586 133.983 164.584C133.982 164.581 133.981 164.578 133.981 164.576C133.98 164.573 133.98 164.57 133.979 164.567C133.978 164.565 133.978 164.562 133.977 164.559C133.977 164.557 133.976 164.554 133.976 164.551C133.975 164.549 133.974 164.546 133.974 164.543C133.973 164.541 133.973 164.538 133.972 164.535C133.972 164.533 133.971 164.53 133.97 164.527C133.97 164.525 133.969 164.522 133.969 164.519C133.968 164.517 133.968 164.514 133.967 164.511C133.966 164.509 133.966 164.506 133.965 164.503C133.965 164.501 133.964 164.498 133.964 164.496C133.963 164.493 133.962 164.49 133.962 164.488C133.961 164.485 133.961 164.482 133.96 164.48C133.96 164.477 133.959 164.475 133.958 164.472C133.958 164.469 133.957 164.467 133.957 164.464C133.956 164.462 133.956 164.459 133.955 164.456C133.954 164.454 133.954 164.451 133.953 164.449C133.953 164.446 133.952 164.443 133.952 164.441C133.951 164.438 133.951 164.436 133.95 164.433C133.949 164.43 133.949 164.428 133.948 164.425C133.948 164.423 133.947 164.42 133.947 164.418C133.946 164.415 133.946 164.413 133.945 164.41C133.944 164.407 133.944 164.405 133.943 164.402C133.943 164.4 133.942 164.397 133.942 164.395C133.941 164.392 133.941 164.39 133.94 164.387C133.94 164.385 133.939 164.382 133.938 164.38C133.938 164.377 133.937 164.375 133.937 164.372C133.936 164.37 133.936 164.367 133.935 164.365C133.935 164.362 133.934 164.359 133.934 164.357C133.933 164.355 133.933 164.352 133.932 164.35C133.931 164.347 133.931 164.345 133.93 164.342C133.93 164.34 133.929 164.337 133.929 164.335C133.928 164.332 133.928 164.33 133.927 164.327C133.927 164.325 133.926 164.322 133.926 164.32C133.925 164.317 133.925 164.315 133.924 164.313C133.923 164.31 133.923 164.308 133.922 164.305C133.922 164.303 133.921 164.3 133.921 164.298C133.92 164.295 133.92 164.293 133.919 164.291C133.919 164.288 133.918 164.286 133.918 164.283C133.917 164.281 133.917 164.279 133.916 164.276C133.916 164.274 133.915 164.271 133.915 164.269C133.914 164.267 133.914 164.264 133.913 164.262C133.913 164.259 133.912 164.257 133.911 164.255C133.911 164.252 133.91 164.25 133.91 164.247C133.909 164.245 133.909 164.243 133.908 164.24C133.908 164.238 133.907 164.236 133.907 164.233C133.906 164.231 133.906 164.229 133.905 164.226C133.905 164.224 133.904 164.221 133.904 164.219C133.903 164.217 133.903 164.214 133.902 164.212C133.902 164.21 133.901 164.207 133.901 164.205C133.9 164.203 133.9 164.201 133.899 164.198C133.899 164.196 133.898 164.194 133.898 164.191C133.897 164.189 133.897 164.187 133.896 164.184C133.896 164.182 133.895 164.18 133.895 164.178C133.894 164.175 133.894 164.173 133.893 164.171C133.893 164.168 133.892 164.166 133.892 164.164C133.891 164.162 133.891 164.159 133.89 164.157C133.89 164.155 133.889 164.153 133.889 164.15C133.888 164.148 133.888 164.146 133.888 164.144C133.887 164.141 133.887 164.139 133.886 164.137C133.886 164.135 133.885 164.132 133.885 164.13C133.884 164.128 133.884 164.126 133.883 164.123C133.883 164.121 133.882 164.119 133.882 164.117C133.881 164.115 133.881 164.112 133.88 164.11C133.88 164.108 133.879 164.106 133.879 164.104C133.878 164.101 133.878 164.099 133.877 164.097C133.877 164.095 133.877 164.093 133.876 164.091C133.876 164.088 133.875 164.086 133.875 164.084C133.874 164.082 133.874 164.08 133.873 164.078C133.873 164.075 133.872 164.073 133.872 164.071L132.142 164.445ZM133.17 169.363L133.077 172.216L134.846 172.273L134.939 169.42L133.17 169.363ZM132.586 173.104L131.202 174.038L132.191 175.505L133.576 174.572L132.586 173.104ZM131.305 173.977L129.456 174.888L130.238 176.476L132.087 175.565L131.305 173.977ZM133.077 172.216C133.066 172.573 132.883 172.904 132.586 173.104L133.576 174.572C134.344 174.054 134.817 173.199 134.846 172.273L133.077 172.216ZM133.145 169.092C133.164 169.181 133.173 169.272 133.17 169.363L134.939 169.42C134.946 169.184 134.925 168.949 134.875 168.718L133.145 169.092Z" fill="#182338"/>
<defs>
<radialGradient id="paint0_radial_1213_257" cx="0" cy="0" r="1" gradientUnits="userSpaceOnUse" gradientTransform="translate(212.949 147.443) rotate(45.5253) scale(106.325 98.721)">
<stop stop-color="#2F6756"/>
<stop offset="0.427083" stop-color="#1B0724"/>
<stop offset="0.699054" stop-color="#2F1A51"/>
<stop offset="1" stop-color="#7C2BA3"/>
</radialGradient>
<radialGradient id="paint1_radial_1213_257" cx="0" cy="0" r="1" gradientUnits="userSpaceOnUse" gradientTransform="translate(221.434 127.896) rotate(30.5997) scale(96.4397 124.829)">
<stop stop-color="#A6FFD4"/>
<stop offset="0.48193" stop-color="#83EAE4" stop-opacity="0.31"/>
<stop offset="1" stop-color="#C037C2" stop-opacity="0.96"/>
</radialGradient>
<radialGradient id="paint2_radial_1213_257" cx="0" cy="0" r="1" gradientUnits="userSpaceOnUse" gradientTransform="translate(188.772 199.537) rotate(39.1152) scale(294.291 2721.64)">
<stop stop-color="#4BF2A2"/>
<stop offset="0.421875" stop-color="#564D8F"/>
<stop offset="1" stop-color="#DD40CD"/>
</radialGradient>
<linearGradient id="paint3_linear_1213_257" x1="109.637" y1="92.7283" x2="359.539" y2="274.07" gradientUnits="userSpaceOnUse">
<stop stop-color="#F4F4F4"/>
<stop offset="0.358938" stop-color="#F9F9F9"/>
<stop offset="0.48193" stop-color="#FABAFC" stop-opacity="0.28"/>
<stop offset="0.567848" stop-color="#F7F7F7" stop-opacity="0.96"/>
</linearGradient>
<radialGradient id="paint4_radial_1213_257" cx="0" cy="0" r="1" gradientUnits="userSpaceOnUse" gradientTransform="translate(235.304 225.691) rotate(24.937) scale(62.1291 81.2471)">
<stop stop-color="#F4F4F4"/>
<stop offset="0.48193" stop-color="#361836" stop-opacity="0.22"/>
<stop offset="1" stop-color="#C037C2" stop-opacity="0.96"/>
</radialGradient>
<radialGradient id="paint5_radial_1213_257" cx="0" cy="0" r="1" gradientUnits="userSpaceOnUse" gradientTransform="translate(204.997 137.932) rotate(5.78154) scale(71.7426 555.375)">
<stop stop-color="#4BF2A2"/>
<stop offset="0.421875" stop-color="#564D8F"/>
<stop offset="1" stop-color="#DD40CD"/>
</radialGradient>
<radialGradient id="paint6_radial_1213_257" cx="0" cy="0" r="1" gradientUnits="userSpaceOnUse" gradientTransform="translate(210.9 132.66) rotate(6.6037) scale(51.3109 406.958)">
<stop stop-color="#4BF2A2"/>
<stop offset="0.421875" stop-color="#564D8F"/>
<stop offset="1" stop-color="#DD40CD"/>
</radialGradient>
<radialGradient id="paint7_radial_1213_257" cx="0" cy="0" r="1" gradientUnits="userSpaceOnUse" gradientTransform="translate(180.337 84.8346) rotate(46.143) scale(192.385 1518.42)">
<stop stop-color="#4BF2A2"/>
<stop offset="0.421875" stop-color="#564D8F"/>
<stop offset="1" stop-color="#DD40CD"/>
</radialGradient>
<radialGradient id="paint8_radial_1213_257" cx="0" cy="0" r="1" gradientUnits="userSpaceOnUse" gradientTransform="translate(223.145 128.098) rotate(-5.77968) scale(54.1921 30.949)">
<stop stop-color="#F4F4F4"/>
<stop offset="0.48193" stop-color="#F4F4F4"/>
<stop offset="1" stop-color="#C037C2" stop-opacity="0.96"/>
</radialGradient>
<radialGradient id="paint9_radial_1213_257" cx="0" cy="0" r="1" gradientUnits="userSpaceOnUse" gradientTransform="translate(197.905 57.298) rotate(28.3244) scale(97.0378 126.718)">
<stop stop-color="#060006"/>
<stop offset="0.567708" stop-color="#BAAEBA" stop-opacity="0.566733"/>
<stop offset="1" stop-color="#C037C2" stop-opacity="0.96"/>
</radialGradient>
<radialGradient id="paint10_radial_1213_257" cx="0" cy="0" r="1" gradientUnits="userSpaceOnUse" gradientTransform="translate(191.936 79.1035) rotate(37.4516) scale(70.9939 77.8842)">
<stop stop-color="#AE6B46"/>
<stop offset="0.427083" stop-color="#1B0724"/>
<stop offset="0.699054" stop-color="#2F1A51"/>
<stop offset="1" stop-color="#7C2BA3"/>
</radialGradient>
<radialGradient id="paint11_radial_1213_257" cx="0" cy="0" r="1" gradientUnits="userSpaceOnUse" gradientTransform="translate(236.988 69.7189) rotate(62.8224) scale(63.7509 190.486)">
<stop stop-color="#4BF2A2"/>
<stop offset="0.421875" stop-color="#564D8F"/>
<stop offset="1" stop-color="#DD40CD"/>
</radialGradient>
<radialGradient id="paint12_radial_1213_257" cx="0" cy="0" r="1" gradientUnits="userSpaceOnUse" gradientTransform="translate(228.136 176.984) rotate(36.4775) scale(71.6359 688.947)">
<stop stop-color="#4BF2A2"/>
<stop offset="0.421875" stop-color="#564D8F"/>
<stop offset="1" stop-color="#DD40CD"/>
</radialGradient>
<radialGradient id="paint13_radial_1213_257" cx="0" cy="0" r="1" gradientUnits="userSpaceOnUse" gradientTransform="translate(296.577 146.474) rotate(48.3816) scale(119.757 123.329)">
<stop stop-color="#F4F4F4"/>
<stop offset="0.0001" stop-color="#DD40CD" stop-opacity="0.27"/>
<stop offset="0.48193" stop-color="#E258E4" stop-opacity="0.22"/>
<stop offset="1" stop-color="#C037C2" stop-opacity="0.96"/>
</radialGradient>
<radialGradient id="paint14_radial_1213_257" cx="0" cy="0" r="1" gradientUnits="userSpaceOnUse" gradientTransform="translate(144.298 167.631) rotate(55.5573) scale(35.8662 192.057)">
<stop stop-color="#4BF2A2"/>
<stop offset="0.421875" stop-color="#564D8F"/>
<stop offset="1" stop-color="#DD40CD"/>
</radialGradient>
<radialGradient id="paint15_radial_1213_257" cx="0" cy="0" r="1" gradientUnits="userSpaceOnUse" gradientTransform="translate(122.712 166.508) rotate(47.7653) scale(62.5959 491.681)">
<stop stop-color="#4BF2A2"/>
<stop offset="0.421875" stop-color="#564D8F"/>
<stop offset="1" stop-color="#DD40CD"/>
</radialGradient>
<radialGradient id="paint16_radial_1213_257" cx="0" cy="0" r="1" gradientUnits="userSpaceOnUse" gradientTransform="translate(128.238 157.302) rotate(29.7095) scale(31.0227 41.7608)">
<stop stop-color="#2DCA3C" stop-opacity="0.4"/>
<stop offset="0.453125" stop-color="#E3E3E3" stop-opacity="0.566733"/>
<stop offset="1" stop-color="#F4F4F4"/>
</radialGradient>
<radialGradient id="paint17_radial_1213_257" cx="0" cy="0" r="1" gradientUnits="userSpaceOnUse" gradientTransform="translate(128.994 157.03) rotate(31.1296) scale(30.3882 40.618)">
<stop stop-color="#F4F4F4"/>
<stop offset="0.48193" stop-color="#BAAEBA" stop-opacity="0.566733"/>
<stop offset="1" stop-color="#C037C2" stop-opacity="0.96"/>
<stop offset="1" stop-color="#98FF7E" stop-opacity="0.96"/>
</radialGradient>
<radialGradient id="paint18_radial_1213_257" cx="0" cy="0" r="1" gradientUnits="userSpaceOnUse" gradientTransform="translate(313.036 111.877) rotate(55.5596) scale(35.8618 192.008)">
<stop stop-color="#4BF2A2"/>
<stop offset="0.421875" stop-color="#564D8F"/>
<stop offset="1" stop-color="#DD40CD"/>
</radialGradient>
<radialGradient id="paint19_radial_1213_257" cx="0" cy="0" r="1" gradientUnits="userSpaceOnUse" gradientTransform="translate(318.674 100.98) rotate(43.801) scale(65.4158 549.588)">
<stop stop-color="#4BF2A2"/>
<stop offset="0.421875" stop-color="#564D8F"/>
<stop offset="1" stop-color="#DD40CD"/>
</radialGradient>
<radialGradient id="paint20_radial_1213_257" cx="0" cy="0" r="1" gradientUnits="userSpaceOnUse" gradientTransform="translate(325.4 91.5089) rotate(25.3776) scale(34.008 44.4998)">
<stop stop-color="#F4F4F4"/>
<stop offset="0.48193" stop-color="#BAAEBA" stop-opacity="0.566733"/>
<stop offset="1" stop-color="#C037C2" stop-opacity="0.96"/>
<stop offset="1" stop-color="#98FF7E" stop-opacity="0.96"/>
</radialGradient>
<radialGradient id="paint21_radial_1213_257" cx="0" cy="0" r="1" gradientUnits="userSpaceOnUse" gradientTransform="translate(324.716 91.7599) rotate(26.7447) scale(33.1778 43.4299)">
<stop stop-color="#F4F4F4"/>
<stop offset="0.48193" stop-color="#BAAEBA" stop-opacity="0.566733"/>
<stop offset="1" stop-color="#C037C2" stop-opacity="0.96"/>
<stop offset="1" stop-color="#98FF7E" stop-opacity="0.96"/>
</radialGradient>
<radialGradient id="paint22_radial_1213_257" cx="0" cy="0" r="1" gradientUnits="userSpaceOnUse" gradientTransform="translate(128.88 139.346) rotate(34.8195) scale(6.60858 53.7384)">
<stop stop-color="#4BF2A2"/>
<stop offset="0.421875" stop-color="#564D8F"/>
<stop offset="1" stop-color="#DD40CD"/>
</radialGradient>
<radialGradient id="paint23_radial_1213_257" cx="0" cy="0" r="1" gradientUnits="userSpaceOnUse" gradientTransform="translate(133.544 141.623) rotate(34.8195) scale(6.60858 53.7384)">
<stop stop-color="#4BF2A2"/>
<stop offset="0.421875" stop-color="#564D8F"/>
<stop offset="1" stop-color="#DD40CD"/>
</radialGradient>
<radialGradient id="paint24_radial_1213_257" cx="0" cy="0" r="1" gradientUnits="userSpaceOnUse" gradientTransform="translate(129.864 144.712) rotate(34.8195) scale(6.60858 53.7384)">
<stop stop-color="#4BF2A2"/>
<stop offset="0.421875" stop-color="#564D8F"/>
<stop offset="1" stop-color="#DD40CD"/>
</radialGradient>
<radialGradient id="paint25_radial_1213_257" cx="0" cy="0" r="1" gradientUnits="userSpaceOnUse" gradientTransform="translate(120.313 141.467) rotate(152.989) scale(82.5061 78.1502)">
<stop stop-color="#F8E0D6"/>
<stop offset="0.569364" stop-color="#DB622F" stop-opacity="0.09"/>
<stop offset="0.820517" stop-color="#DB622F" stop-opacity="0"/>
<stop offset="1" stop-color="#DB622F" stop-opacity="0"/>
</radialGradient>
</defs>
</svg>
