<svg width="161" height="161" viewBox="0 0 161 161" fill="none" xmlns="http://www.w3.org/2000/svg">
  <circle cx="80.5" cy="80.5" r="79.6056" fill="#303043" stroke="#4C4C5C" stroke-width="1.78889" />
  <mask id="mask0_9120_34515" style="mask-type:alpha" maskUnits="userSpaceOnUse" x="0" y="0" width="161" height="161">
    <circle cx="80.5" cy="80.5" r="80.5" fill="#D9D9D9" />
  </mask>
  <g mask="url(#mask0_9120_34515)">
    <path
      d="M-21.9453 30.241L-101.359 29.9724C-125.538 29.8907 -145.187 49.3592 -145.246 73.4567L-145.495 175.275C-145.554 199.374 -126.001 218.975 -101.821 219.057L-22.408 219.325C1.77066 219.407 21.4192 199.939 21.4798 175.84L21.7282 74.0216C21.787 49.924 2.2334 30.3229 -21.9453 30.241Z"
      fill="url(#paint0_radial_9120_34515)" />
    <path
      d="M-28.9745 32.1365L-100.566 31.8943C-124.745 31.8126 -144.394 51.2811 -144.453 75.3787L-144.681 168.337C-144.74 192.435 -125.186 212.036 -101.007 212.118L-29.4144 212.36C-5.23581 212.442 14.4128 192.974 14.4716 168.875L14.6991 75.917C14.7579 51.8194 -4.79393 32.2183 -28.9745 32.1365Z"
      fill="url(#paint1_radial_9120_34515)" />
    <path
      d="M-21.9453 30.241L-101.359 29.9724C-125.538 29.8907 -145.187 49.3592 -145.246 73.4567L-145.495 175.275C-145.554 199.374 -126.001 218.975 -101.821 219.057L-22.408 219.325C1.77066 219.407 21.4192 199.939 21.4798 175.84L21.7282 74.0216C21.787 49.924 2.2334 30.3229 -21.9453 30.241Z"
      stroke="#172338" stroke-width="2.11068" stroke-miterlimit="10" />
    <path
      d="M96.3834 101.844C95.4314 108.482 92.1055 114.553 87.0161 118.936C81.9285 123.319 75.4188 125.722 68.691 125.699C48.6328 133.05 27.0634 135.364 5.88643 132.44C8.72499 153.786 11.5372 170.699 12.7432 181.132C16.7745 215.911 19.0974 248.812 19.3003 279.646C19.3856 292.115 17.5633 298.581 13.9548 303.83C11.8614 306.874 9.16505 309.516 5.88643 312.673C0.914581 317.477 -4.209 320.13 -8.5267 320.117C-15.9276 320.092 -23.0176 317.138 -28.2378 311.904C-33.458 306.67 -36.3802 299.588 -36.363 292.212L-36.2095 229.637C-36.2056 227.792 -36.9357 226.021 -38.2403 224.714C-39.5468 223.405 -41.3179 222.667 -43.1686 222.661L-85.0268 222.518C-86.8772 222.512 -88.6533 223.239 -89.9648 224.539C-91.2764 225.838 -92.0158 227.604 -92.0203 229.447L-92.1722 291.513C-92.2091 306.653 -104.201 319.33 -119.371 319.68L-129.754 317.952L-143.329 315.69C-146.332 315.194 -149.132 313.856 -151.404 311.836C-153.676 309.813 -155.325 307.192 -156.161 304.275C-157.051 301.159 -156.969 297.849 -155.929 294.782L-147.894 270.951C-147.464 256.631 -146.629 242.017 -145.422 226.997C-144.215 211.975 -142.627 196.544 -140.697 180.589C-138.661 163.796 -136.295 147.582 -133.601 131.945C-154.792 134.726 -176.35 132.264 -196.371 124.778C-213.514 117.273 -224.229 105.502 -224.208 96.8727C-224.19 89.4976 -221.232 82.4337 -215.987 77.2358C-210.74 72.038 -203.635 69.1319 -196.235 69.1569L-130.533 69.3791C-57.9574 111.341 3.16333 69.8314 3.16333 69.8314L68.4084 70.0522C83.6009 70.1035 96.3301 82.0669 96.6961 97.1866C96.7226 98.7447 96.6184 100.303 96.3834 101.844Z"
      fill="white" />
    <path
      d="M96.3834 101.844C95.4314 108.482 92.1055 114.553 87.0161 118.936C81.9285 123.319 75.4188 125.722 68.691 125.699C48.6328 133.05 27.0634 135.364 5.88643 132.44C8.72499 153.786 11.5372 170.699 12.7432 181.132C16.7745 215.911 19.0974 248.812 19.3003 279.646C19.3856 292.115 17.5633 298.581 13.9548 303.83C11.8614 306.874 9.16505 309.516 5.88643 312.673C0.914581 317.477 -4.209 320.13 -8.5267 320.117C-15.9276 320.092 -23.0176 317.138 -28.2378 311.904C-33.458 306.67 -36.3802 299.588 -36.363 292.212L-36.2095 229.637C-36.2056 227.792 -36.9357 226.021 -38.2403 224.714C-39.5468 223.405 -41.3179 222.667 -43.1686 222.661L-85.0268 222.518C-86.8772 222.512 -88.6533 223.239 -89.9648 224.539C-91.2764 225.838 -92.0158 227.604 -92.0203 229.447L-92.1722 291.513C-92.2091 306.653 -104.201 319.33 -119.371 319.68L-129.754 317.952L-143.329 315.69C-146.332 315.194 -149.132 313.856 -151.404 311.836C-153.676 309.813 -155.325 307.192 -156.161 304.275C-157.051 301.159 -156.969 297.849 -155.929 294.782L-147.894 270.951C-147.464 256.631 -146.629 242.017 -145.422 226.997C-144.215 211.975 -142.627 196.544 -140.697 180.589C-138.661 163.796 -136.295 147.582 -133.601 131.945C-154.792 134.726 -176.35 132.264 -196.371 124.778C-213.514 117.273 -224.229 105.502 -224.208 96.8727C-224.19 89.4976 -221.232 82.4337 -215.987 77.2358C-210.74 72.038 -203.635 69.1319 -196.235 69.1569L-130.533 69.3791C-57.9574 111.341 3.16333 69.8314 3.16333 69.8314L68.4084 70.0522C83.6009 70.1035 96.3301 82.0669 96.6961 97.1866C96.7226 98.7447 96.6184 100.303 96.3834 101.844Z"
      fill="white" />
    <path
      d="M3.13933 69.8162C3.13933 69.8162 -57.9832 111.325 -130.558 69.3638C-124.985 64.2485 -118.364 60.399 -111.152 58.0811C-98.5605 70.6102 -81.5153 77.6749 -63.7307 77.7349C-45.9462 77.7952 -28.8651 70.8459 -16.2116 58.4022C-9.01172 60.7691 -2.40901 64.6631 3.13933 69.8162Z"
      fill="white" stroke="#172338" stroke-width="2.11068" stroke-miterlimit="10" />
    <path
      d="M20.2005 -13.5581C20.1569 4.24866 12.9949 29.4478 0.330032 41.9973L-16.0267 58.2347L-16.1973 58.404C-28.8526 70.8458 -45.9318 77.7939 -63.7164 77.7337C-81.4991 77.6734 -98.5452 70.61 -111.138 58.0829L-111.308 57.9122L-127.608 41.5645C-133.91 35.2469 -138.824 25.7745 -142.148 15.6584C-145.357 6.04668 -147.063 -3.99836 -147.207 -14.1245C-146.803 -22.8991 -145.051 -31.5588 -142.013 -39.8015C-128.053 -77.5003 -92.0368 -91.1837 -89.081 -92.2475C-84.5121 -93.8952 -79.8095 -95.1509 -75.0253 -96.0008C-71.1457 -96.687 -67.2242 -97.1125 -63.2878 -97.2744C-54.4818 -96.8639 -45.7914 -95.1096 -37.5183 -92.0731C-34.5678 -90.9893 1.38072 -77.0624 15.1547 -39.2697C18.147 -31.0054 19.8479 -22.3341 20.2005 -13.5581Z"
      fill="white" stroke="#172338" stroke-width="2.11068" stroke-miterlimit="10" />
    <path
      d="M3.13933 69.8162C3.13933 69.8162 -57.9832 111.325 -130.558 69.3638C-124.985 64.2485 -118.364 60.399 -111.152 58.0811C-98.5605 70.6102 -81.5153 77.6749 -63.7307 77.7349C-45.9462 77.7952 -28.8651 70.8459 -16.2116 58.4022C-9.01172 60.7691 -2.40901 64.6631 3.13933 69.8162Z"
      fill="url(#paint2_radial_9120_34515)" fill-opacity="0.3" stroke="#172338" stroke-width="2.11068"
      stroke-miterlimit="10" />
    <path opacity="0.3"
      d="M20.2005 -13.5581C20.1569 4.24866 12.9949 29.4478 0.330032 41.9973L-16.0267 58.2347L-16.1973 58.404C-28.8526 70.8458 -45.9318 77.7939 -63.7164 77.7337C-81.4991 77.6734 -98.5452 70.61 -111.138 58.0829L-111.308 57.9122L-127.608 41.5645C-133.91 35.2469 -138.824 25.7745 -142.148 15.6584C-145.357 6.04668 -147.063 -3.99836 -147.207 -14.1245C-146.803 -22.8991 -145.051 -31.5588 -142.013 -39.8015C-128.053 -77.5003 -92.0368 -91.1837 -89.081 -92.2475C-84.5121 -93.8952 -79.8095 -95.1509 -75.0253 -96.0008C-71.1457 -96.687 -67.2242 -97.1125 -63.2878 -97.2744C-54.4818 -96.8639 -45.7914 -95.1096 -37.5183 -92.0731C-34.5678 -90.9893 1.38072 -77.0624 15.1547 -39.2697C18.147 -31.0054 19.8479 -22.3341 20.2005 -13.5581Z"
      fill="url(#paint3_radial_9120_34515)" stroke="#172338" stroke-width="2.11068" stroke-miterlimit="10" />
    <path
      d="M13.2325 -16.4973C12.8817 -22.8687 11.3022 -29.1141 8.58118 -34.8917C-4.07413 -61.927 -37.0626 -71.9039 -39.7343 -72.6854C-47.4291 -74.8822 -55.3629 -76.1361 -63.3592 -76.4194C-71.3631 -76.1915 -79.3083 -74.9915 -87.0186 -72.8455C-89.7259 -72.082 -122.701 -62.3284 -135.511 -35.3793C-138.26 -29.6191 -139.872 -23.3853 -140.261 -17.0167C-140.292 -4.28535 -133.825 13.7753 -122.266 22.8143L-107.311 34.5148C-95.7526 43.5616 -80.0609 48.6749 -63.6814 48.7303C-47.3037 48.7857 -31.5785 43.7787 -19.9755 34.8103L-4.96318 23.2112C6.65501 14.2505 13.2022 -3.76607 13.2325 -16.4973Z"
      fill="#504C57" stroke="#172338" stroke-width="2.11068" stroke-miterlimit="10" />
    <path
      d="M7.90736 -16.2947C7.57739 -22.2211 6.10788 -28.0301 3.57832 -33.4056C-8.19714 -58.5605 -38.8628 -67.8498 -41.3885 -68.5767C-48.5486 -70.6185 -55.9287 -71.7848 -63.3713 -72.0503C-70.8121 -71.8354 -78.1997 -70.7188 -85.3694 -68.7255C-87.8904 -68.0157 -118.609 -58.934 -130.499 -33.8593C-133.058 -28.4988 -134.559 -22.6972 -134.92 -16.7703C-134.949 -4.91982 -128.929 11.88 -118.175 20.2986L-104.249 31.1612C-93.4948 39.5951 -78.8956 44.3416 -63.6558 44.3931C-48.416 44.4447 -33.7848 39.7894 -22.982 31.444L-9.00315 20.6757C1.78438 12.3146 7.87901 -4.44393 7.90736 -16.2947Z"
      fill="url(#paint4_radial_9120_34515)" />
    <path
      d="M-18.947 -48.2431C-21.6188 -53.1732 0.00947571 -34.2733 -0.0418072 -13.4151C-0.0929565 7.4431 -11.5044 14.3576 -11.5044 14.3576C-11.5044 14.3576 3.73923 -6.44941 -18.947 -48.2431Z"
      fill="white" />
    <path
      d="M96.4093 101.848C95.4574 108.487 92.1315 114.556 87.0439 118.94C81.9544 123.323 75.4448 125.726 68.7169 125.703C48.6587 133.054 27.0893 135.369 5.91241 132.443C8.75098 153.791 11.5632 170.702 12.7691 181.135C16.8005 215.915 19.1234 248.816 19.3263 279.649C19.4116 292.118 17.5912 298.585 13.9808 303.834C17.2651 253.886 0.504342 159.904 -4.60777 132.778C-4.76135 131.954 -4.7197 131.104 -4.48452 130.299C-4.24749 129.494 -3.82457 128.756 -3.24821 128.144C-2.67172 127.533 -1.95878 127.065 -1.16807 126.78C-0.377349 126.494 0.472172 126.399 1.30652 126.502C37.4105 130.796 77.6102 112.083 96.4093 101.848Z"
      fill="url(#paint5_radial_9120_34515)" fill-opacity="0.6" />
    <path
      d="M96.381 101.852C95.429 108.491 92.1031 114.56 87.0156 118.943C81.9262 123.329 75.4165 125.73 68.6888 125.707C48.6307 133.058 27.0611 135.373 5.8842 132.447C8.7229 153.795 11.535 170.706 12.741 181.141C16.7723 215.918 19.0952 248.82 19.2981 279.653C19.3834 292.122 17.563 298.59 13.9526 303.837C11.8591 306.883 9.16466 309.524 5.8842 312.68C0.912358 317.484 -4.20936 320.14 -8.52706 320.125C-15.928 320.1 -23.0198 317.145 -28.2402 311.912C-33.4605 306.68 -36.3825 299.595 -36.3654 292.219L-36.2118 229.645C-36.208 227.801 -36.938 226.03 -38.2426 224.721C-39.5472 223.412 -41.3202 222.674 -43.1709 222.668L-85.0288 222.526C-86.8789 222.52 -88.6553 223.247 -89.9667 224.546C-91.2782 225.846 -92.0175 227.611 -92.0221 229.456L-92.1742 291.574C-92.2114 306.716 -104.203 319.392 -119.374 319.742L-129.756 318.015L-143.331 315.753C-145.63 315.37 -147.818 314.495 -149.744 313.188C-151.671 311.881 -153.29 310.173 -154.49 308.181C-155.689 306.191 -156.441 303.963 -156.692 301.656C-156.944 299.346 -156.689 297.012 -155.946 294.812L-147.911 270.984C-147.481 256.662 -146.647 242.049 -145.44 227.027C-144.232 212.005 -142.644 196.576 -140.714 180.622C-138.678 163.829 -136.313 147.612 -133.618 131.976C-154.81 134.757 -176.367 132.297 -196.388 124.811C-213.532 117.306 -224.246 105.535 -224.225 96.9053C-224.207 89.5289 -221.25 82.465 -216.004 77.2672C-210.758 72.0693 -203.653 69.1632 -196.252 69.1881L-130.551 69.4105C-57.9746 111.374 3.14609 69.8627 3.14609 69.8627L68.3911 70.0833C83.5836 70.1349 96.3129 82.0981 96.6788 97.2172C96.7091 98.7678 96.6085 100.318 96.381 101.852Z"
      stroke="#172338" stroke-width="2.11068" stroke-miterlimit="10" />
    <path
      d="M39.2302 81.4237C41.4678 94.0562 42.5543 106.864 42.4765 119.69C42.467 123.337 42.3514 126.98 42.1239 130.62C42.0196 132.482 44.9264 132.492 45.0307 130.631C45.7816 117.628 45.3379 104.583 43.6995 91.6591C43.2349 87.9702 42.6774 84.2988 42.029 80.6451C41.7085 78.8132 38.9324 79.5762 39.2302 81.4081V81.4237Z"
      fill="#172338" />
    <path
      d="M25.8624 70.7319L25.0907 72.8306L32.2621 78.8652L46.1367 79.0048L53.9093 73.407L53.7234 70.2544L33.9099 70.1875L25.8624 70.7319Z"
      fill="#172338" />
    <path
      d="M84.9236 75.7903L84.8042 75.7134C84.0703 75.2534 83.2512 74.9475 82.396 74.8143C81.5408 74.6811 80.6667 74.7233 79.8285 74.9385C78.9904 75.1538 78.2053 75.5374 77.5227 76.0656C76.8382 76.5942 76.2712 77.2562 75.8521 78.0115L75.5526 78.5524C75.0729 79.4235 74.8035 80.3951 74.7675 81.3893C74.7334 82.3834 74.9325 83.3721 75.3515 84.2756L84.6449 104.288C84.9976 105.045 85.4963 105.726 86.1126 106.291C86.7307 106.856 87.4532 107.293 88.2402 107.579L89.0669 107.893C89.9922 108.231 90.984 108.349 91.9624 108.241C92.9427 108.131 93.8833 107.796 94.71 107.263C95.5367 106.73 96.227 106.013 96.7295 105.166C97.2301 104.322 97.5278 103.372 97.5961 102.393C97.6739 101.318 97.4728 100.243 97.0159 99.2669L87.2996 78.4864C86.7876 77.3763 85.9627 76.4393 84.9236 75.7903Z"
      fill="white" stroke="#172338" stroke-width="2.11068" stroke-miterlimit="10" />
    <path
      d="M83.1044 82.5413L90.6969 100.216C91.3112 101.649 92.248 102.891 93.4029 103.806C94.5577 104.721 95.8869 105.277 97.2465 105.41L107.099 106.361C107.763 106.428 108.425 106.39 109.067 106.249L120.251 103.859C120.608 103.779 120.957 103.673 121.298 103.54L130.876 99.6719C131.822 99.2934 132.673 98.6864 133.373 97.8892C134.075 97.0921 134.611 96.1238 134.947 95.045L135.607 92.9485L136.655 89.6155C137.107 88.1759 137.188 86.5915 136.891 85.0378L134.134 70.6174C133.815 68.9415 133.07 67.3756 131.991 66.123L129.888 63.6736C128.868 62.4881 127.593 61.6322 126.215 61.2055C124.836 60.7786 123.41 60.7981 122.102 61.2619L116.658 63.2117C115.689 63.5655 114.648 63.6745 113.607 63.5319C112.564 63.3892 111.544 62.9977 110.611 62.3835C109.68 61.7694 108.857 60.946 108.199 59.968C107.541 58.9899 107.061 57.8794 106.794 56.7094L106.68 56.2417C106.284 54.5666 105.463 53.0281 104.323 51.8271C103.186 50.6261 101.78 49.8179 100.292 49.5084L99.1029 49.263C97.495 48.9245 95.8736 49.1871 94.4857 50.0108C93.0978 50.8346 92.0187 52.1746 91.4119 53.8272L88.7534 61.2269L82.9889 75.2261C82.5225 76.3346 82.2911 77.5684 82.312 78.8351C82.3328 80.1018 82.602 81.3688 83.1044 82.5413Z"
      fill="white" />
    <path
      d="M83.1044 82.5413L90.6969 100.216C91.3112 101.649 92.248 102.891 93.4029 103.806C94.5577 104.721 95.8869 105.277 97.2465 105.41L107.099 106.361C107.763 106.428 108.425 106.39 109.067 106.249L120.251 103.859C120.608 103.779 120.957 103.673 121.298 103.54L130.876 99.6719C131.822 99.2934 132.673 98.6864 133.373 97.8892C134.075 97.0921 134.611 96.1238 134.947 95.045L135.607 92.9485L136.655 89.6155C137.107 88.1759 137.188 86.5915 136.891 85.0378L134.134 70.6174C133.815 68.9415 133.07 67.3756 131.991 66.123L129.888 63.6736C128.868 62.4881 127.593 61.6322 126.215 61.2055C124.836 60.7786 123.41 60.7981 122.102 61.2619L116.658 63.2117C115.689 63.5655 114.648 63.6745 113.607 63.5319C112.564 63.3892 111.544 62.9977 110.611 62.3835C109.68 61.7694 108.857 60.946 108.199 59.968C107.541 58.9899 107.061 57.8794 106.794 56.7094L106.68 56.2417C106.284 54.5666 105.463 53.0281 104.323 51.8271C103.186 50.6261 101.78 49.8179 100.292 49.5084L99.1029 49.263C97.495 48.9245 95.8736 49.1871 94.4857 50.0108C93.0978 50.8346 92.0187 52.1746 91.4119 53.8272L88.7534 61.2269L82.9889 75.2261C82.5225 76.3346 82.2911 77.5684 82.312 78.8351C82.3328 80.1018 82.602 81.3688 83.1044 82.5413Z"
      fill="url(#paint6_radial_9120_34515)" fill-opacity="0.6" />
    <path opacity="0.6"
      d="M83.1044 82.54L90.6988 100.215C91.3131 101.648 92.248 102.89 93.4027 103.805C94.5576 104.72 95.8868 105.276 97.2464 105.407L107.099 106.36C107.763 106.427 108.425 106.389 109.067 106.248L120.251 103.858C120.608 103.779 120.957 103.67 121.298 103.539L130.876 99.671C131.822 99.2925 132.673 98.6836 133.375 97.8883C134.075 97.0912 134.611 96.1228 134.947 95.0441L135.607 92.9475C130.743 92.7154 121.675 95.8926 116.874 97.2985C110.579 99.1344 97.4853 103.035 94.5461 98.3163C91.607 93.6001 94.2238 88.1074 92.6329 87.8014C82.9602 85.9421 86.0455 67.3657 93.5772 61.8423C96.7932 59.4766 94.8837 50.9403 105.243 54.3399C104.255 53.4958 101.494 49.7355 100.265 49.5027L99.0744 49.2573C97.4721 48.9265 95.8565 49.1934 94.4741 50.0176C93.0918 50.8417 92.0167 52.1784 91.4117 53.8259L88.7532 61.2256L82.9887 75.2248C82.5241 76.3333 82.2928 77.5671 82.3117 78.8338C82.3326 80.1005 82.6039 81.3674 83.1044 82.54Z"
      fill="url(#paint7_radial_9120_34515)" />
    <path
      d="M83.1044 82.5413L90.6969 100.216C91.3112 101.649 92.248 102.891 93.4029 103.806C94.5577 104.721 95.8869 105.277 97.2465 105.41L107.099 106.361C107.763 106.428 108.425 106.39 109.067 106.249L120.251 103.859C120.608 103.779 120.957 103.673 121.298 103.54L130.876 99.6719C131.822 99.2934 132.673 98.6864 133.373 97.8892C134.075 97.0921 134.611 96.1238 134.947 95.045L135.607 92.9485L136.655 89.6155C137.107 88.1759 137.188 86.5915 136.891 85.0378L134.134 70.6174C133.815 68.9415 133.07 67.3756 131.991 66.123L129.888 63.6736C128.868 62.4881 127.593 61.6322 126.215 61.2055C124.836 60.7786 123.41 60.7981 122.102 61.2619L116.658 63.2117C115.689 63.5655 114.648 63.6745 113.607 63.5319C112.564 63.3892 111.544 62.9977 110.611 62.3835C109.68 61.7694 108.857 60.946 108.199 59.968C107.541 58.9899 107.061 57.8794 106.794 56.7094L106.68 56.2417C106.284 54.5666 105.463 53.0281 104.323 51.8271C103.186 50.6261 101.78 49.8179 100.292 49.5084L99.1029 49.263C97.495 48.9245 95.8736 49.1871 94.4857 50.0108C93.0978 50.8346 92.0187 52.1746 91.4119 53.8272L88.7534 61.2269L82.9889 75.2261C82.5225 76.3346 82.2911 77.5684 82.312 78.8351C82.3328 80.1018 82.602 81.3688 83.1044 82.5413Z"
      stroke="#172338" stroke-width="2.11068" stroke-miterlimit="10" />
    <path
      d="M107.472 69.3553L112.954 64.6531L122.604 59.8228C124.314 63.2095 120.516 75.7478 120.833 76.3732C121.148 76.9984 120.981 83.1516 120.858 86.1502L113.009 86.1628L108.282 78.7396L107.472 69.3553Z"
      fill="white" />
    <path
      d="M121.022 87.411L117.404 87.4384L113.744 86.9692C113.1 86.8867 112.533 86.4988 112.22 85.927L109.377 80.7213C109.298 80.5747 109.237 80.4205 109.195 80.259C108.655 78.1815 107.565 73.9866 107.056 72.0334C106.552 70.0923 110.906 65.6378 113.445 63.3775C113.672 63.1754 113.941 63.033 114.235 62.9539L124.111 60.2944"
      stroke="#172338" stroke-width="2.11449" />
    <path
      d="M22.6072 71.107C23.5705 73.4453 25.078 75.5215 27.0084 77.1631C28.9368 78.8048 31.2313 79.9645 33.6982 80.5463C39.3907 81.7701 45.3278 81.0159 50.5253 78.4093C53.0017 77.0272 54.8903 74.9322 55.1918 72.0516C55.188 71.6676 55.0344 71.3001 54.7633 71.0277C54.4902 70.7553 54.1223 70.5997 53.7374 70.5943C53.3543 70.6029 52.9903 70.758 52.7191 71.0277C52.4499 71.2973 52.2925 71.6605 52.2848 72.0418C52.0383 74.3973 49.5088 75.8951 47.5216 76.661C44.6222 77.7942 41.5257 78.3482 38.4102 78.2911C33.1236 78.1805 27.433 75.5502 25.4136 70.3673C25.3055 70.0027 25.059 69.6934 24.7272 69.504C24.3972 69.3145 24.0048 69.2592 23.6331 69.3494C23.2634 69.4527 22.9485 69.6978 22.7571 70.0311C22.5657 70.3644 22.5144 70.7596 22.6149 71.1305L22.6072 71.107Z"
      fill="#172338" />
    <path
      d="M75.1025 57.1288C79.4486 55.9642 82.0518 51.4555 80.8872 47.1093C79.7227 42.7631 75.2139 40.16 70.8677 41.3245C66.5215 42.4891 63.9184 46.9979 65.0829 51.344C66.2475 55.6902 70.7563 58.2934 75.1025 57.1288Z"
      stroke="#4CE6A1" stroke-width="0.981707" stroke-linecap="round" stroke-linejoin="round" />
    <path d="M69.6267 50.1264L72.4622 51.7635L75.7443 46.0904" stroke="#4CE6A1" stroke-width="0.981707"
      stroke-linecap="round" stroke-linejoin="round" />
    <path
      d="M95.2062 38.5298C97.5302 39.8716 100.53 39.0679 101.871 36.7439C103.213 34.4198 102.409 31.4205 100.085 30.0788C97.7613 28.737 94.762 29.5406 93.4203 31.8647C92.0785 34.1887 92.8821 37.188 95.2062 38.5298Z"
      stroke="#4CE6A1" stroke-width="0.585504" stroke-linecap="round" stroke-linejoin="round" />
    <path d="M95.85 33.2676L96.3554 35.1538L100.132 34.1454" stroke="#4CE6A1" stroke-width="0.585504"
      stroke-linecap="round" stroke-linejoin="round" />
    <path
      d="M78.5267 20.5625C80.2913 20.0972 81.3544 18.2726 80.8891 16.508C80.4237 14.7433 78.5992 13.6803 76.8345 14.1456C75.0699 14.611 74.0068 16.4355 74.4722 18.2001C74.9375 19.9648 76.762 21.0278 78.5267 20.5625Z"
      stroke="#4CE6A1" stroke-width="0.398175" stroke-linecap="round" stroke-linejoin="round" />
    <path d="M76.317 17.7137L77.4644 18.3822L78.8047 16.0865" stroke="#4CE6A1" stroke-width="0.398175"
      stroke-linecap="round" stroke-linejoin="round" />
  </g>
  <defs>
    <radialGradient id="paint0_radial_9120_34515" cx="0" cy="0" r="1" gradientUnits="userSpaceOnUse"
      gradientTransform="translate(-72.1529 61.4344) rotate(49.379) scale(177.302 229.397)">
      <stop stop-color="#B2DDC5" />
      <stop offset="0.4819" stop-color="#92D5D7" stop-opacity="0.31" />
      <stop offset="1" stop-color="#A74B9C" stop-opacity="0.96" />
    </radialGradient>
    <radialGradient id="paint1_radial_9120_34515" cx="0" cy="0" r="1" gradientUnits="userSpaceOnUse"
      gradientTransform="translate(-74.7868 61.8795) rotate(49.3784) scale(168.994 218.649)">
      <stop stop-color="#B2DDC5" />
      <stop offset="0.4819" stop-color="#92D5D7" stop-opacity="0.31" />
      <stop offset="1" stop-color="#A74B9C" stop-opacity="0.96" />
    </radialGradient>
    <radialGradient id="paint2_radial_9120_34515" cx="0" cy="0" r="1" gradientUnits="userSpaceOnUse"
      gradientTransform="translate(-72.0478 63.1732) rotate(13.0807) scale(95.1064 54.1279)">
      <stop stop-color="#F4F4F5" />
      <stop offset="0.4819" stop-color="#F4F4F5" />
      <stop offset="1" stop-color="#A74B9C" stop-opacity="0.96" />
    </radialGradient>
    <radialGradient id="paint3_radial_9120_34515" cx="0" cy="0" r="1" gradientUnits="userSpaceOnUse"
      gradientTransform="translate(-73.8298 -68.282) rotate(47.1043) scale(170.066 221.929)">
      <stop stop-color="#0A060A" />
      <stop offset="0.5677" stop-color="#BAAEBA" stop-opacity="0.5667" />
      <stop offset="1" stop-color="#A74B9C" stop-opacity="0.96" />
    </radialGradient>
    <radialGradient id="paint4_radial_9120_34515" cx="0" cy="0" r="1" gradientUnits="userSpaceOnUse"
      gradientTransform="translate(-96.1091 -35.5644) rotate(56.2304) scale(124.353 136.478)">
      <stop stop-color="#2F6757" />
      <stop offset="0.4271" stop-color="#1D0F24" />
      <stop offset="0.6991" stop-color="#2E1C51" />
      <stop offset="1" stop-color="#793A96" />
    </radialGradient>
    <radialGradient id="paint5_radial_9120_34515" cx="0" cy="0" r="1" gradientUnits="userSpaceOnUse"
      gradientTransform="translate(39.4975 135.206) rotate(67.1719) scale(209.634 216.249)">
      <stop stop-color="#BA549F" stop-opacity="0.27" />
      <stop offset="0.4819" stop-color="#B966A9" stop-opacity="0.22" />
      <stop offset="1" stop-color="#A74B9C" stop-opacity="0.96" />
    </radialGradient>
    <radialGradient id="paint6_radial_9120_34515" cx="0" cy="0" r="1" gradientUnits="userSpaceOnUse"
      gradientTransform="translate(109.046 57.4301) rotate(123.686) scale(54.2913 73.2433)">
      <stop stop-color="#4DB748" stop-opacity="0.4" />
      <stop offset="0.4531" stop-color="#E3E3E3" stop-opacity="0.5667" />
      <stop offset="1" stop-color="#F4F4F5" />
    </radialGradient>
    <radialGradient id="paint7_radial_9120_34515" cx="0" cy="0" r="1" gradientUnits="userSpaceOnUse"
      gradientTransform="translate(107.65 57.5994) rotate(122.262) scale(53.1773 71.2438)">
      <stop stop-color="#F4F4F5" />
      <stop offset="0.4819" stop-color="#BAAEBA" stop-opacity="0.5667" />
      <stop offset="1" stop-color="#A6D172" stop-opacity="0.96" />
    </radialGradient>
  </defs>
</svg>