<svg width="161" height="161" viewBox="0 0 161 161" fill="none" xmlns="http://www.w3.org/2000/svg">
  <circle cx="80.5" cy="80.5" r="79.6056" fill="#303043" stroke="#4C4C5C" stroke-width="1.78889" />
  <mask id="mask0_9120_34595" style="mask-type:alpha" maskUnits="userSpaceOnUse" x="0" y="0" width="161" height="161">
    <circle cx="80.5" cy="80.5" r="80.5" fill="#D9D9D9" />
  </mask>
  <g mask="url(#mask0_9120_34595)">
    <path
      d="M-23.9461 125.551L-103.359 125.82C-127.539 125.902 -147.187 106.433 -147.246 82.3358L-147.496 -19.4828C-147.555 -43.5814 -128.001 -63.1827 -103.822 -63.2645L-24.4088 -63.5328C-0.230133 -63.6145 19.4184 -44.1465 19.479 -20.0478L19.7274 81.7709C19.7862 105.868 0.232605 125.47 -23.9461 125.551Z"
      fill="url(#paint0_radial_9120_34595)" />
    <path
      d="M-30.9753 123.656L-102.567 123.898C-126.746 123.98 -146.395 104.511 -146.454 80.4138L-146.682 -12.5441C-146.741 -36.6427 -127.187 -56.244 -103.008 -56.3258L-31.4152 -56.5675C-7.2366 -56.6492 12.412 -37.1812 12.4708 -13.0825L12.6983 79.8754C12.7572 103.973 -6.79472 123.574 -30.9753 123.656Z"
      fill="url(#paint1_radial_9120_34595)" />
    <path
      d="M-23.9461 125.551L-103.359 125.82C-127.539 125.902 -147.187 106.433 -147.246 82.3358L-147.496 -19.4828C-147.555 -43.5814 -128.001 -63.1827 -103.822 -63.2645L-24.4088 -63.5328C-0.230133 -63.6145 19.4184 -44.1465 19.479 -20.0478L19.7274 81.7709C19.7862 105.868 0.232608 125.47 -23.9461 125.551Z"
      stroke="#172338" stroke-width="2.11068" stroke-miterlimit="10" />
    <path
      d="M94.3826 53.9484C93.4306 47.3106 90.1047 41.2398 85.0153 36.8565C79.9277 32.4732 73.418 30.0704 66.6902 30.0932C46.632 22.7421 25.0626 20.4286 3.88564 23.3527C6.7242 2.00693 9.53639 -14.9062 10.7424 -25.3393C14.7737 -60.1185 17.0966 -93.0198 17.2995 -123.853C17.3848 -136.322 15.5625 -142.789 11.954 -148.038C9.86058 -151.081 7.16426 -153.724 3.88564 -156.88C-1.08621 -161.684 -6.20979 -164.338 -10.5275 -164.325C-17.9284 -164.3 -25.0184 -161.345 -30.2386 -156.112C-35.4588 -150.878 -38.381 -143.795 -38.3638 -136.419L-38.2103 -73.8447C-38.2064 -71.9994 -38.9365 -70.2281 -40.2411 -68.9211C-41.5475 -67.6122 -43.3187 -66.8741 -45.1694 -66.8684L-87.0276 -66.7257C-88.878 -66.72 -90.6541 -67.4467 -91.9656 -68.7462C-93.2772 -70.0455 -94.0166 -71.811 -94.0211 -73.6545L-94.173 -135.721C-94.2099 -150.861 -106.202 -163.537 -121.372 -163.887L-131.755 -162.16L-145.33 -159.898C-148.333 -159.401 -151.133 -158.064 -153.405 -156.043C-155.676 -154.021 -157.326 -151.399 -158.162 -148.483C-159.051 -145.366 -158.97 -142.056 -157.929 -138.989L-149.895 -115.159C-149.464 -100.839 -148.63 -86.2242 -147.423 -71.2041C-146.216 -56.1821 -144.628 -40.7511 -142.697 -24.797C-140.661 -8.00387 -138.296 8.21098 -135.602 23.8475C-156.793 21.0661 -178.351 23.528 -198.372 31.0142C-215.515 38.5195 -226.23 50.2901 -226.209 58.9197C-226.19 66.2949 -223.233 73.3588 -217.987 78.5567C-212.741 83.7545 -205.636 86.6606 -198.235 86.6356L-132.534 86.4134C-59.9581 44.4513 1.16254 85.961 1.16254 85.961L66.4076 85.7403C81.6001 85.689 94.3293 73.7255 94.6953 58.6059C94.7218 57.0478 94.6176 55.4893 94.3826 53.9484Z"
      fill="white" />
    <path
      d="M94.3826 53.9484C93.4306 47.3106 90.1047 41.2398 85.0153 36.8565C79.9277 32.4732 73.418 30.0704 66.6902 30.0932C46.632 22.7421 25.0626 20.4286 3.88564 23.3527C6.7242 2.00693 9.53639 -14.9062 10.7424 -25.3393C14.7737 -60.1185 17.0966 -93.0198 17.2995 -123.853C17.3848 -136.322 15.5625 -142.789 11.954 -148.038C9.86058 -151.081 7.16426 -153.724 3.88564 -156.88C-1.08621 -161.684 -6.20979 -164.338 -10.5275 -164.325C-17.9284 -164.3 -25.0184 -161.345 -30.2386 -156.112C-35.4588 -150.878 -38.381 -143.795 -38.3638 -136.419L-38.2103 -73.8447C-38.2064 -71.9994 -38.9365 -70.2281 -40.2411 -68.9211C-41.5475 -67.6122 -43.3187 -66.8741 -45.1694 -66.8684L-87.0276 -66.7257C-88.878 -66.72 -90.6541 -67.4467 -91.9656 -68.7462C-93.2772 -70.0455 -94.0166 -71.811 -94.0211 -73.6545L-94.173 -135.721C-94.2099 -150.861 -106.202 -163.537 -121.372 -163.887L-131.755 -162.16L-145.33 -159.898C-148.333 -159.401 -151.133 -158.064 -153.405 -156.043C-155.676 -154.021 -157.326 -151.399 -158.162 -148.483C-159.051 -145.366 -158.97 -142.056 -157.929 -138.989L-149.895 -115.159C-149.464 -100.839 -148.63 -86.2242 -147.423 -71.2041C-146.216 -56.1821 -144.628 -40.7511 -142.697 -24.797C-140.661 -8.00387 -138.296 8.21098 -135.602 23.8475C-156.793 21.0661 -178.351 23.528 -198.372 31.0142C-215.515 38.5195 -226.23 50.2901 -226.209 58.9197C-226.19 66.2949 -223.233 73.3588 -217.987 78.5567C-212.741 83.7545 -205.636 86.6606 -198.235 86.6356L-132.534 86.4134C-59.9581 44.4513 1.16254 85.961 1.16254 85.961L66.4076 85.7403C81.6001 85.689 94.3293 73.7255 94.6953 58.6059C94.7218 57.0478 94.6176 55.4893 94.3826 53.9484Z"
      fill="white" />
    <path
      d="M1.13847 85.9763C1.13847 85.9763 -59.9841 44.4671 -132.559 86.4287C-126.986 91.544 -120.365 95.3935 -113.153 97.7114C-100.561 85.1823 -83.5161 78.1176 -65.7316 78.0576C-47.947 77.9972 -30.8659 84.9466 -18.2125 97.3903C-11.0126 95.0234 -4.40987 91.1294 1.13847 85.9763Z"
      fill="white" stroke="#172338" stroke-width="2.11068" stroke-miterlimit="10" />
    <path
      d="M18.1997 169.351C18.156 151.544 10.9941 126.345 -1.67082 113.795L-18.0275 97.5578L-18.1981 97.3885C-30.8534 84.9466 -47.9327 77.9986 -65.7172 78.0588C-83.4999 78.1191 -100.546 85.1825 -113.139 97.7096L-113.309 97.8802L-129.609 114.228C-135.911 120.546 -140.825 130.018 -144.149 140.134C-147.358 149.746 -149.064 159.791 -149.208 169.917C-148.804 178.692 -147.052 187.351 -144.014 195.594C-130.054 233.293 -94.0376 246.976 -91.0819 248.04C-86.5129 249.688 -81.8104 250.943 -77.0261 251.793C-73.1465 252.48 -69.2251 252.905 -65.2886 253.067C-56.4826 252.656 -47.7923 250.902 -39.5191 247.866C-36.5686 246.782 -0.620132 232.855 13.1539 195.062C16.1461 186.798 17.847 178.127 18.1997 169.351Z"
      fill="white" stroke="#172338" stroke-width="2.11068" stroke-miterlimit="10" />
    <path
      d="M1.13847 85.9763C1.13847 85.9763 -59.9841 44.4671 -132.559 86.4287C-126.986 91.544 -120.365 95.3935 -113.153 97.7114C-100.561 85.1823 -83.5161 78.1176 -65.7316 78.0576C-47.947 77.9972 -30.8659 84.9466 -18.2125 97.3903C-11.0126 95.0234 -4.40987 91.1294 1.13847 85.9763Z"
      fill="url(#paint2_radial_9120_34595)" fill-opacity="0.3" stroke="#172338" stroke-width="2.11068"
      stroke-miterlimit="10" />
    <path opacity="0.3"
      d="M18.1997 169.351C18.156 151.544 10.9941 126.345 -1.67082 113.795L-18.0275 97.5578L-18.1981 97.3885C-30.8534 84.9466 -47.9327 77.9986 -65.7172 78.0588C-83.4999 78.1191 -100.546 85.1825 -113.139 97.7096L-113.309 97.8802L-129.609 114.228C-135.911 120.546 -140.825 130.018 -144.149 140.134C-147.358 149.746 -149.064 159.791 -149.208 169.917C-148.804 178.692 -147.052 187.351 -144.014 195.594C-130.054 233.293 -94.0376 246.976 -91.0819 248.04C-86.5129 249.688 -81.8104 250.943 -77.0261 251.793C-73.1465 252.48 -69.2251 252.905 -65.2886 253.067C-56.4826 252.656 -47.7923 250.902 -39.5191 247.866C-36.5686 246.782 -0.620132 232.855 13.1539 195.062C16.1461 186.798 17.847 178.127 18.1997 169.351Z"
      fill="url(#paint3_radial_9120_34595)" stroke="#172338" stroke-width="2.11068" stroke-miterlimit="10" />
    <path
      d="M11.2317 172.29C10.8809 178.661 9.3013 184.907 6.58032 190.684C-6.07498 217.719 -39.0635 227.696 -41.7352 228.478C-49.43 230.675 -57.3638 231.929 -65.36 232.212C-73.364 231.984 -81.3091 230.784 -89.0195 228.638C-91.7267 227.875 -124.702 218.121 -137.512 191.172C-140.261 185.412 -141.873 179.178 -142.262 172.809C-142.293 160.078 -135.826 142.017 -124.267 132.978L-109.312 121.278C-97.7535 112.231 -82.0617 107.118 -65.6822 107.062C-49.3046 107.007 -33.5794 112.014 -21.9763 120.982L-6.96404 132.581C4.65416 141.542 11.2014 159.559 11.2317 172.29Z"
      fill="#504C57" stroke="#172338" stroke-width="2.11068" stroke-miterlimit="10" />
    <path
      d="M5.90651 172.087C5.57654 178.014 4.10703 183.823 1.57747 189.198C-10.198 214.353 -40.8637 223.642 -43.3894 224.369C-50.5495 226.411 -57.9296 227.577 -65.3722 227.843C-72.813 227.628 -80.2006 226.511 -87.3703 224.518C-89.8913 223.808 -120.61 214.727 -132.5 189.652C-135.059 184.291 -136.56 178.49 -136.921 172.563C-136.95 160.712 -130.93 143.912 -120.176 135.494L-106.25 124.631C-95.4956 116.197 -80.8965 111.451 -65.6567 111.399C-50.4169 111.348 -35.7857 116.003 -24.9829 124.349L-11.004 135.117C-0.216476 143.478 5.87816 160.236 5.90651 172.087Z"
      fill="url(#paint4_radial_9120_34595)" />
    <path
      d="M-20.9478 204.036C-23.6196 208.966 -1.99126 190.066 -2.04254 169.208C-2.09369 148.349 -13.5052 141.435 -13.5052 141.435C-13.5052 141.435 1.73849 162.242 -20.9478 204.036Z"
      fill="white" />
    <path
      d="M94.4085 53.9448C93.4565 47.3052 90.1306 41.2362 85.043 36.8529C79.9536 32.4697 73.4439 30.0668 66.7161 30.0897C46.6579 22.7385 25.0885 20.4232 3.91156 23.3492C6.75013 2.0015 9.56231 -14.9096 10.7683 -25.3428C14.7997 -60.122 17.1225 -93.0234 17.3254 -123.857C17.4107 -136.326 15.5904 -142.792 11.98 -148.041C15.2642 -98.0935 -1.49651 -4.11115 -6.60862 23.0144C-6.7622 23.8381 -6.72056 24.6886 -6.48537 25.4933C-6.24834 26.298 -5.82543 27.0362 -5.24906 27.6489C-4.67257 28.2595 -3.95964 28.7276 -3.16892 29.0129C-2.3782 29.2983 -1.52868 29.3934 -0.69433 29.2907C35.4096 24.9968 75.6094 43.7096 94.4085 53.9448Z"
      fill="url(#paint5_radial_9120_34595)" fill-opacity="0.6" />
    <path
      d="M94.3802 53.9409C93.4282 47.3013 90.1023 41.2323 85.0148 36.8491C79.9254 32.4638 73.4156 30.0629 66.6879 30.0858C46.6299 22.7346 25.0603 20.4193 3.88338 23.3453C6.72208 1.99761 9.53415 -14.9135 10.7401 -25.3485C14.7715 -60.1258 17.0944 -93.0273 17.2972 -123.861C17.3825 -136.33 15.5622 -142.798 11.9518 -148.045C9.85832 -151.091 7.16384 -153.731 3.88338 -156.888C-1.08847 -161.691 -6.21018 -164.347 -10.5279 -164.332C-17.9288 -164.307 -25.0207 -161.353 -30.241 -156.119C-35.4613 -150.887 -38.3833 -143.803 -38.3662 -136.427L-38.2126 -73.8523C-38.2088 -72.0088 -38.9389 -70.2376 -40.2435 -68.9287C-41.548 -67.6198 -43.321 -66.8817 -45.1717 -66.876L-87.0296 -66.7333C-88.8797 -66.7276 -90.6561 -67.4542 -91.9676 -68.7538C-93.279 -70.0531 -94.0183 -71.8186 -94.0229 -73.664L-94.175 -135.782C-94.2122 -150.923 -106.204 -163.6 -121.374 -163.95L-131.757 -162.222L-145.332 -159.96C-147.63 -159.578 -149.819 -158.703 -151.745 -157.396C-153.672 -156.089 -155.291 -154.38 -156.49 -152.389C-157.69 -150.399 -158.442 -148.171 -158.693 -145.863C-158.945 -143.553 -158.69 -141.219 -157.947 -139.02L-149.912 -115.191C-149.482 -100.87 -148.648 -86.2566 -147.44 -71.2347C-146.233 -56.2127 -144.645 -40.7836 -142.715 -24.8294C-140.679 -8.03632 -138.314 8.18051 -135.619 23.8169C-156.81 21.0355 -178.368 23.4954 -198.389 30.9816C-215.532 38.4869 -226.247 50.2575 -226.226 58.8872C-226.208 66.2636 -223.251 73.3275 -218.005 78.5253C-212.759 83.7232 -205.654 86.6293 -198.253 86.6043L-132.551 86.382C-59.9754 44.4189 1.14527 85.9298 1.14527 85.9298L66.3903 85.7092C81.5828 85.6576 94.312 73.6944 94.678 58.5753C94.7083 57.0247 94.6077 55.4743 94.3802 53.9409Z"
      stroke="#172338" stroke-width="2.11068" stroke-miterlimit="10" />
    <path
      d="M37.2293 74.3687C39.4669 61.7363 40.5534 48.9288 40.4757 36.1023C40.4662 32.4553 40.3505 28.812 40.123 25.1726C40.0187 23.31 42.9256 23.3005 43.0299 25.1612C43.7808 38.1646 43.337 51.21 41.6986 64.1334C41.2341 67.8223 40.6766 71.4937 40.0281 75.1474C39.7076 76.9793 36.9315 76.2162 37.2293 74.3844V74.3687Z"
      fill="#172338" />
    <path
      d="M23.8616 85.0606L23.0898 82.9619L30.2613 76.9273L44.1359 76.7876L51.9084 82.3855L51.7226 85.5381L31.909 85.605L23.8616 85.0606Z"
      fill="#172338" />
    <path
      d="M82.9228 80.0022L82.8033 80.0791C82.0694 80.5391 81.2503 80.845 80.3952 80.9782C79.54 81.1114 78.6659 81.0692 77.8277 80.854C76.9895 80.6387 76.2044 80.2551 75.5218 79.7268C74.8374 79.1983 74.2703 78.5363 73.8513 77.7809L73.5518 77.2401C73.072 76.369 72.8027 75.3974 72.7667 74.4032C72.7326 73.409 72.9316 72.4204 73.3507 71.5168L82.6441 51.5049C82.9967 50.7477 83.4954 50.0667 84.1117 49.5016C84.7299 48.9366 85.4523 48.4991 86.2393 48.2136L87.066 47.8998C87.9914 47.5612 88.9831 47.4432 89.9616 47.5516C90.9419 47.6619 91.8825 47.9968 92.7092 48.5295C93.5359 49.0621 94.2261 49.7794 94.7287 50.626C95.2292 51.4707 95.5269 52.4201 95.5952 53.3999C95.673 54.4748 95.4719 55.5497 95.015 56.5256L85.2987 77.3061C84.7867 78.4162 83.9619 79.3532 82.9228 80.0022Z"
      fill="white" stroke="#172338" stroke-width="2.11068" stroke-miterlimit="10" />
    <path
      d="M81.1035 73.2512L88.696 55.5763C89.3104 54.1437 90.2472 52.9014 91.402 51.9863C92.5568 51.0712 93.8861 50.5157 95.2456 50.3826L105.098 49.4314C105.762 49.3648 106.424 49.4028 107.067 49.5437L118.25 51.9332C118.607 52.0131 118.956 52.1197 119.297 52.2528L128.875 56.1206C129.821 56.4991 130.672 57.1061 131.372 57.9032C132.074 58.7004 132.61 59.6687 132.946 60.7475L133.606 62.844L134.655 66.177C135.106 67.6166 135.187 69.201 134.89 70.7547L132.133 85.1751C131.814 86.851 131.069 88.4169 129.99 89.6695L127.887 92.1189C126.867 93.3044 125.593 94.1603 124.214 94.587C122.835 95.0139 121.409 94.9943 120.101 94.5306L114.657 92.5808C113.688 92.2269 112.647 92.118 111.606 92.2605C110.563 92.4033 109.543 92.7948 108.61 93.409C107.679 94.0231 106.856 94.8465 106.198 95.8244C105.54 96.8025 105.061 97.913 104.793 99.0831L104.679 99.5508C104.283 101.226 103.462 102.764 102.322 103.965C101.185 105.166 99.7795 105.975 98.291 106.284L97.1021 106.529C95.4941 106.868 93.8727 106.605 92.4848 105.782C91.0969 104.958 90.0179 103.618 89.4111 101.965L86.7526 94.5655L80.9881 80.5664C80.5217 79.4579 80.2903 78.2241 80.3111 76.9574C80.3319 75.6907 80.6011 74.4237 81.1035 73.2512Z"
      fill="white" />
    <path
      d="M81.1035 73.2512L88.696 55.5763C89.3104 54.1437 90.2472 52.9014 91.402 51.9863C92.5568 51.0712 93.8861 50.5157 95.2456 50.3826L105.098 49.4314C105.762 49.3648 106.424 49.4028 107.067 49.5437L118.25 51.9332C118.607 52.0131 118.956 52.1197 119.297 52.2528L128.875 56.1206C129.821 56.4991 130.672 57.1061 131.372 57.9032C132.074 58.7004 132.61 59.6687 132.946 60.7475L133.606 62.844L134.655 66.177C135.106 67.6166 135.187 69.201 134.89 70.7547L132.133 85.1751C131.814 86.851 131.069 88.4169 129.99 89.6695L127.887 92.1189C126.867 93.3044 125.593 94.1603 124.214 94.587C122.835 95.0139 121.409 94.9943 120.101 94.5306L114.657 92.5808C113.688 92.2269 112.647 92.118 111.606 92.2605C110.563 92.4032 109.543 92.7948 108.61 93.409C107.679 94.0231 106.856 94.8465 106.198 95.8244C105.54 96.8025 105.061 97.913 104.793 99.0831L104.679 99.5508C104.283 101.226 103.462 102.764 102.322 103.965C101.185 105.166 99.7795 105.975 98.291 106.284L97.1021 106.529C95.4941 106.868 93.8727 106.605 92.4848 105.782C91.0969 104.958 90.0179 103.618 89.4111 101.965L86.7526 94.5655L80.9881 80.5664C80.5217 79.4579 80.2903 78.2241 80.3111 76.9574C80.3319 75.6907 80.6011 74.4237 81.1035 73.2512Z"
      fill="url(#paint6_radial_9120_34595)" fill-opacity="0.6" />
    <path opacity="0.6"
      d="M81.1036 73.2525L88.6979 55.5772C89.3123 54.1446 90.2472 52.9023 91.4019 51.9873C92.5567 51.0721 93.886 50.5166 95.2455 50.3854L105.098 49.4323C105.762 49.3657 106.424 49.4037 107.066 49.5446L118.25 51.9341C118.607 52.014 118.956 52.1224 119.297 52.2538L128.875 56.1215C129.821 56.5 130.672 57.1088 131.374 57.9042C132.074 58.7013 132.61 59.6696 132.946 60.7484L133.606 62.8449C128.742 63.0771 119.674 59.8999 114.873 58.4939C108.578 56.6581 95.4844 52.758 92.5453 57.4762C89.6061 62.1923 92.2229 67.6851 90.632 67.9911C80.9594 69.8504 84.0446 88.4268 91.5763 93.9502C94.7923 96.3159 92.8829 104.852 103.242 101.453C102.254 102.297 99.493 106.057 98.2643 106.29L97.0735 106.535C95.4712 106.866 93.8557 106.599 92.4733 105.775C91.0909 104.951 90.0158 103.614 89.4109 101.967L86.7524 94.5668L80.9878 80.5677C80.5233 79.4592 80.2919 78.2254 80.3109 76.9587C80.3317 75.692 80.603 74.4251 81.1036 73.2525Z"
      fill="url(#paint7_radial_9120_34595)" />
    <path
      d="M81.1035 73.2512L88.696 55.5763C89.3104 54.1437 90.2472 52.9014 91.402 51.9863C92.5568 51.0712 93.8861 50.5157 95.2456 50.3826L105.098 49.4314C105.762 49.3648 106.424 49.4028 107.067 49.5437L118.25 51.9332C118.607 52.0131 118.956 52.1197 119.297 52.2528L128.875 56.1206C129.821 56.4991 130.672 57.1061 131.372 57.9032C132.074 58.7004 132.61 59.6687 132.946 60.7475L133.606 62.844L134.655 66.177C135.106 67.6166 135.187 69.201 134.89 70.7547L132.133 85.1751C131.814 86.851 131.069 88.4169 129.99 89.6695L127.887 92.1189C126.867 93.3044 125.593 94.1603 124.214 94.587C122.835 95.0139 121.409 94.9943 120.101 94.5306L114.657 92.5808C113.688 92.2269 112.647 92.118 111.606 92.2605C110.563 92.4033 109.543 92.7948 108.61 93.409C107.679 94.0231 106.856 94.8465 106.198 95.8244C105.54 96.8025 105.061 97.913 104.793 99.0831L104.679 99.5508C104.283 101.226 103.462 102.764 102.322 103.965C101.185 105.166 99.7795 105.975 98.291 106.284L97.1021 106.529C95.4941 106.868 93.8727 106.605 92.4848 105.782C91.0969 104.958 90.0179 103.618 89.4111 101.965L86.7526 94.5655L80.9881 80.5664C80.5217 79.4579 80.2903 78.2241 80.3111 76.9574C80.3319 75.6907 80.6011 74.4237 81.1035 73.2512Z"
      stroke="#172338" stroke-width="2.11068" stroke-miterlimit="10" />
    <path
      d="M105.471 86.4372L110.953 91.1394L120.603 95.9697C122.314 92.5829 118.516 80.0447 118.832 79.4193C119.147 78.7941 118.98 72.6409 118.857 69.6423L111.008 69.6297L106.281 77.0528L105.471 86.4372Z"
      fill="white" />
    <path
      d="M119.021 68.3815L115.403 68.3541L111.744 68.8233C111.099 68.9058 110.532 69.2937 110.219 69.8655L107.377 75.0712C107.297 75.2178 107.236 75.372 107.195 75.5335C106.654 77.611 105.564 81.8059 105.056 83.7591C104.551 85.7002 108.905 90.1546 111.444 92.4149C111.672 92.617 111.941 92.7595 112.235 92.8386L122.11 95.498"
      stroke="#172338" stroke-width="2.11449" />
    <path
      d="M20.6064 84.6855C21.5697 82.3472 23.0771 80.271 25.0075 78.6293C26.9359 76.9877 29.2305 75.828 31.6974 75.2461C37.3898 74.0224 43.3269 74.7766 48.5244 77.3831C51.0009 78.7653 52.8895 80.8603 53.191 83.7409C53.1872 84.1249 53.0336 84.4924 52.7624 84.7647C52.4894 85.0372 52.1214 85.1928 51.7365 85.1982C51.3534 85.1896 50.9894 85.0344 50.7182 84.7647C50.449 84.4952 50.2916 84.132 50.284 83.7507C50.0375 81.3952 47.5079 79.8974 45.5207 79.1314C42.6214 77.9983 39.5248 77.4442 36.4094 77.5014C31.1227 77.612 25.4322 80.2423 23.4128 85.4251C23.3047 85.7898 23.0582 86.099 22.7263 86.2884C22.3964 86.478 22.0039 86.5333 21.6323 86.4431C21.2625 86.3398 20.9477 86.0947 20.7563 85.7614C20.5649 85.4281 20.5136 85.0329 20.614 84.662L20.6064 84.6855Z"
      fill="#172338" />
    <path fill-rule="evenodd" clip-rule="evenodd"
      d="M61.0505 115.637C59.8997 111.19 62.594 106.615 67.041 105.464C71.4881 104.313 76.0636 107.007 77.2144 111.454C78.3652 115.901 75.6709 120.477 71.2239 121.628C66.7769 122.778 62.2013 120.084 61.0505 115.637ZM67.4892 107.196C63.9986 108.099 61.8791 111.698 62.7824 115.189C63.6857 118.68 67.2852 120.799 70.7757 119.896C74.2663 118.992 76.3858 115.393 75.4825 111.902C74.5793 108.412 70.9798 106.292 67.4892 107.196Z"
      fill="#EA5365" />
    <path fill-rule="evenodd" clip-rule="evenodd"
      d="M68.1614 109.793C68.6396 109.669 69.1276 109.957 69.2514 110.435L70.1851 114.043C70.3088 114.521 70.0215 115.009 69.5432 115.133C69.065 115.257 68.577 114.969 68.4532 114.491L67.5196 110.883C67.3958 110.405 67.6832 109.917 68.1614 109.793Z"
      fill="#EA5365" />
    <path fill-rule="evenodd" clip-rule="evenodd"
      d="M69.0095 116.657C68.8858 116.179 69.1731 115.691 69.6514 115.567L69.6579 115.565C70.1361 115.441 70.6241 115.729 70.7479 116.207C70.8716 116.685 70.5843 117.173 70.106 117.297L70.0995 117.299C69.6213 117.423 69.1333 117.135 69.0095 116.657Z"
      fill="#EA5365" />
    <path fill-rule="evenodd" clip-rule="evenodd"
      d="M86.0376 123.1C87.1785 120.591 90.1618 119.473 92.6707 120.614C95.1795 121.755 96.2976 124.738 95.1566 127.247C94.0156 129.756 91.0324 130.874 88.5235 129.733C86.0147 128.592 84.8966 125.608 86.0376 123.1ZM92.2263 121.591C90.2571 120.695 87.9102 121.575 87.0146 123.544C86.119 125.513 86.9986 127.86 88.9679 128.756C90.9371 129.651 93.284 128.772 94.1796 126.802C95.0752 124.833 94.1956 122.486 92.2263 121.591Z"
      fill="#EA5365" />
    <path fill-rule="evenodd" clip-rule="evenodd"
      d="M91.5598 123.057C91.8296 123.179 91.9489 123.498 91.8262 123.767L90.9005 125.803C90.7778 126.073 90.4596 126.192 90.1898 126.069C89.92 125.946 89.8007 125.628 89.9234 125.358L90.8491 123.323C90.9718 123.053 91.29 122.934 91.5598 123.057Z"
      fill="#EA5365" />
    <path fill-rule="evenodd" clip-rule="evenodd"
      d="M89.3658 126.578C89.4885 126.309 89.8067 126.189 90.0765 126.312L90.0801 126.314C90.3499 126.436 90.4692 126.755 90.3465 127.024C90.2238 127.294 89.9056 127.413 89.6358 127.291L89.6321 127.289C89.3623 127.166 89.2431 126.848 89.3658 126.578Z"
      fill="#EA5365" />
    <path fill-rule="evenodd" clip-rule="evenodd"
      d="M73.3443 137.289C72.6737 135.578 73.5238 133.632 75.2344 132.961C76.9451 132.291 78.8915 133.141 79.5621 134.852C80.2327 136.562 79.3827 138.509 77.672 139.179C75.9614 139.85 74.015 139 73.3443 137.289ZM75.4956 133.628C74.1529 134.154 73.4841 135.685 74.0105 137.028C74.5369 138.371 76.0681 139.039 77.4108 138.513C78.7536 137.987 79.4223 136.455 78.8959 135.113C78.3695 133.77 76.8383 133.101 75.4956 133.628Z"
      fill="#EA5365" />
    <path fill-rule="evenodd" clip-rule="evenodd"
      d="M75.8874 134.627C76.0713 134.555 76.2789 134.645 76.351 134.829L76.8951 136.217C76.9673 136.401 76.8766 136.609 76.6926 136.681C76.5087 136.753 76.3011 136.662 76.2289 136.478L75.6848 135.09C75.6127 134.906 75.7034 134.699 75.8874 134.627Z"
      fill="#EA5365" />
    <path fill-rule="evenodd" clip-rule="evenodd"
      d="M76.5539 137.312C76.4817 137.128 76.5724 136.92 76.7564 136.848L76.7589 136.847C76.9428 136.775 77.1504 136.866 77.2225 137.049C77.2947 137.233 77.204 137.441 77.02 137.513L77.0175 137.514C76.8336 137.586 76.626 137.496 76.5539 137.312Z"
      fill="#EA5365" />
  </g>
  <defs>
    <radialGradient id="paint0_radial_9120_34595" cx="0" cy="0" r="1" gradientUnits="userSpaceOnUse"
      gradientTransform="translate(-74.1537 94.3581) rotate(-49.379) scale(177.302 229.397)">
      <stop stop-color="#B2DDC5" />
      <stop offset="0.4819" stop-color="#92D5D7" stop-opacity="0.31" />
      <stop offset="1" stop-color="#A74B9C" stop-opacity="0.96" />
    </radialGradient>
    <radialGradient id="paint1_radial_9120_34595" cx="0" cy="0" r="1" gradientUnits="userSpaceOnUse"
      gradientTransform="translate(-76.7876 93.913) rotate(-49.3784) scale(168.994 218.649)">
      <stop stop-color="#B2DDC5" />
      <stop offset="0.4819" stop-color="#92D5D7" stop-opacity="0.31" />
      <stop offset="1" stop-color="#A74B9C" stop-opacity="0.96" />
    </radialGradient>
    <radialGradient id="paint2_radial_9120_34595" cx="0" cy="0" r="1" gradientUnits="userSpaceOnUse"
      gradientTransform="translate(-74.0487 92.6193) rotate(-13.0807) scale(95.1064 54.1279)">
      <stop stop-color="#F4F4F5" />
      <stop offset="0.4819" stop-color="#F4F4F5" />
      <stop offset="1" stop-color="#A74B9C" stop-opacity="0.96" />
    </radialGradient>
    <radialGradient id="paint3_radial_9120_34595" cx="0" cy="0" r="1" gradientUnits="userSpaceOnUse"
      gradientTransform="translate(-75.8307 224.074) rotate(-47.1043) scale(170.066 221.929)">
      <stop stop-color="#0A060A" />
      <stop offset="0.5677" stop-color="#BAAEBA" stop-opacity="0.5667" />
      <stop offset="1" stop-color="#A74B9C" stop-opacity="0.96" />
    </radialGradient>
    <radialGradient id="paint4_radial_9120_34595" cx="0" cy="0" r="1" gradientUnits="userSpaceOnUse"
      gradientTransform="translate(-98.11 191.357) rotate(-56.2304) scale(124.353 136.478)">
      <stop stop-color="#2F6757" />
      <stop offset="0.4271" stop-color="#1D0F24" />
      <stop offset="0.6991" stop-color="#2E1C51" />
      <stop offset="1" stop-color="#793A96" />
    </radialGradient>
    <radialGradient id="paint5_radial_9120_34595" cx="0" cy="0" r="1" gradientUnits="userSpaceOnUse"
      gradientTransform="translate(37.4966 20.5863) rotate(-67.1719) scale(209.634 216.249)">
      <stop stop-color="#BA549F" stop-opacity="0.27" />
      <stop offset="0.4819" stop-color="#B966A9" stop-opacity="0.22" />
      <stop offset="1" stop-color="#A74B9C" stop-opacity="0.96" />
    </radialGradient>
    <radialGradient id="paint6_radial_9120_34595" cx="0" cy="0" r="1" gradientUnits="userSpaceOnUse"
      gradientTransform="translate(107.045 98.3624) rotate(-123.686) scale(54.2913 73.2433)">
      <stop stop-color="#4DB748" stop-opacity="0.4" />
      <stop offset="0.4531" stop-color="#E3E3E3" stop-opacity="0.5667" />
      <stop offset="1" stop-color="#F4F4F5" />
    </radialGradient>
    <radialGradient id="paint7_radial_9120_34595" cx="0" cy="0" r="1" gradientUnits="userSpaceOnUse"
      gradientTransform="translate(105.649 98.1931) rotate(-122.262) scale(53.1773 71.2438)">
      <stop stop-color="#F4F4F5" />
      <stop offset="0.4819" stop-color="#BAAEBA" stop-opacity="0.5667" />
      <stop offset="1" stop-color="#A6D172" stop-opacity="0.96" />
    </radialGradient>
  </defs>
</svg>