<svg width="159" height="142" viewBox="0 0 159 142" fill="none" xmlns="http://www.w3.org/2000/svg">
  <ellipse cx="34.2324" cy="61.2835" rx="34.2324" ry="34.2321" transform="rotate(-180 34.2324 61.2835)"
    fill="url(#paint0_linear_9120_34439)" />
  <ellipse cx="76.9174" cy="92.9762" rx="49.0242" ry="49.0238" transform="rotate(-180 76.9174 92.9762)"
    fill="url(#paint1_linear_9120_34439)" />
  <ellipse cx="128.052" cy="70.5741" rx="30.0062" ry="30.0059" transform="rotate(-180 128.052 70.5741)"
    fill="url(#paint2_linear_9120_34439)" />
  <path
    d="M89.3965 37.6568L66.4589 37.5792C59.4751 37.5556 53.7998 43.1788 53.7827 50.1391L53.7107 79.5482C53.6937 86.5088 59.3414 92.1704 66.3253 92.194L89.2629 92.2715C96.2466 92.2951 101.922 86.672 101.939 79.7114L102.011 50.3023C102.028 43.342 96.3803 37.6804 89.3965 37.6568Z"
    fill="url(#paint3_radial_9120_34439)" />
  <path
    d="M87.3677 38.2038L66.6892 38.1339C59.7054 38.1103 54.03 43.7335 54.013 50.6938L53.9473 77.5436C53.9302 84.5042 59.578 90.1658 66.5618 90.1894L87.2406 90.2592C94.2243 90.2828 99.8996 84.6597 99.9165 77.6991L99.9823 50.8493C99.9993 43.889 94.3519 38.2275 87.3677 38.2038Z"
    fill="url(#paint4_radial_9120_34439)" />
  <path
    d="M89.3965 37.6568L66.4589 37.5792C59.4751 37.5556 53.7998 43.1788 53.7827 50.1391L53.7107 79.5482C53.6937 86.5088 59.3414 92.1704 66.3253 92.194L89.2629 92.2715C96.2466 92.2951 101.922 86.672 101.939 79.7114L102.011 50.3023C102.028 43.342 96.3803 37.6804 89.3965 37.6568Z"
    stroke="#172338" stroke-width="0.609645" stroke-miterlimit="10" />
  <path
    d="M123.575 58.3373C123.3 60.2546 122.339 62.0081 120.869 63.2741C119.4 64.5402 117.52 65.2342 115.576 65.2276C109.783 67.3509 103.553 68.0191 97.436 67.1745C98.2559 73.34 99.0682 78.2252 99.4165 81.2386C100.581 91.2842 101.252 100.787 101.31 109.693C101.335 113.295 100.809 115.162 99.7665 116.679C99.1618 117.558 98.383 118.321 97.436 119.233C96 120.62 94.5201 121.387 93.273 121.383C91.1353 121.376 89.0874 120.522 87.5797 119.011C86.0719 117.499 85.2278 115.453 85.2328 113.323L85.2771 95.2489C85.2782 94.7158 85.0674 94.2042 84.6906 93.8267C84.3132 93.4487 83.8016 93.2355 83.2671 93.2338L71.1768 93.1926C70.6424 93.191 70.1293 93.4009 69.7506 93.7762C69.3717 94.1515 69.1581 94.6614 69.1568 95.1939L69.113 113.121C69.1023 117.494 65.6387 121.155 61.2568 121.257L58.2579 120.758L54.3368 120.104C53.4695 119.961 52.6607 119.574 52.0046 118.991C51.3484 118.407 50.8719 117.65 50.6305 116.807C50.3736 115.907 50.3971 114.951 50.6977 114.065L53.0184 107.182C53.1427 103.046 53.3837 98.8245 53.7323 94.4861C54.081 90.1472 54.5397 85.6902 55.0973 81.082C55.6853 76.2315 56.3685 71.5481 57.1467 67.0316C51.0259 67.835 44.7993 67.1239 39.0165 64.9616C34.0648 62.7938 30.97 59.394 30.9761 56.9014C30.9813 54.7712 31.8355 52.7309 33.3507 51.2295C34.8659 49.7282 36.9181 48.8888 39.0558 48.896L58.0328 48.9602C78.9955 61.0805 96.6495 49.0909 96.6495 49.0909L115.495 49.1546C119.883 49.1695 123.56 52.625 123.665 56.9921C123.673 57.4421 123.643 57.8923 123.575 58.3373Z"
    fill="white" />
  <path
    d="M123.575 58.3373C123.3 60.2546 122.339 62.0081 120.869 63.2741C119.4 64.5402 117.52 65.2342 115.576 65.2276C109.783 67.3509 103.553 68.0191 97.436 67.1745C98.2559 73.34 99.0682 78.2252 99.4165 81.2386C100.581 91.2842 101.252 100.787 101.31 109.693C101.335 113.295 100.809 115.162 99.7665 116.679C99.1618 117.558 98.383 118.321 97.436 119.233C96 120.62 94.5201 121.387 93.273 121.383C91.1353 121.376 89.0874 120.522 87.5797 119.011C86.0719 117.499 85.2278 115.453 85.2328 113.323L85.2771 95.2489C85.2782 94.7158 85.0674 94.2042 84.6906 93.8267C84.3132 93.4487 83.8016 93.2355 83.2671 93.2338L71.1768 93.1926C70.6424 93.191 70.1293 93.4009 69.7506 93.7762C69.3717 94.1515 69.1581 94.6614 69.1568 95.1939L69.113 113.121C69.1023 117.494 65.6387 121.155 61.2568 121.257L58.2579 120.758L54.3368 120.104C53.4695 119.961 52.6607 119.574 52.0046 118.991C51.3484 118.407 50.8719 117.65 50.6305 116.807C50.3736 115.907 50.3971 114.951 50.6977 114.065L53.0184 107.182C53.1427 103.046 53.3837 98.8245 53.7323 94.4861C54.081 90.1472 54.5397 85.6902 55.0973 81.082C55.6853 76.2315 56.3685 71.5481 57.1467 67.0316C51.0259 67.835 44.7993 67.1239 39.0165 64.9616C34.0648 62.7938 30.97 59.394 30.9761 56.9014C30.9813 54.7712 31.8355 52.7309 33.3507 51.2295C34.8659 49.7282 36.9181 48.8888 39.0558 48.896L58.0328 48.9602C78.9955 61.0805 96.6495 49.0909 96.6495 49.0909L115.495 49.1546C119.883 49.1695 123.56 52.625 123.665 56.9921C123.673 57.4421 123.643 57.8923 123.575 58.3373Z"
    fill="white" />
  <path opacity="0.6"
    d="M83.2664 93.2232L71.1764 93.1826C70.642 93.1809 70.1289 93.3908 69.7501 93.7662C69.3713 94.1415 69.1578 94.6514 69.1565 95.1839L69.1125 113.12C69.1018 117.493 65.6382 121.154 61.2563 121.255L58.2574 120.757L54.3364 120.103C53.4695 119.959 52.6611 119.573 52.0054 118.989C51.3497 118.406 50.8735 117.648 50.6323 116.806C50.5617 116.373 50.5022 115.973 50.4561 115.621C50.2693 114.192 50.3002 113.48 50.6995 114.059C52.3972 116.535 61.0096 117.782 64.6873 116.298C68.365 114.813 66.2255 101.656 67.7457 94.3382C69.266 87.0198 83.2664 93.2232 83.2664 93.2232Z"
    fill="url(#paint5_radial_9120_34439)" />
  <path
    d="M96.6431 49.0893C96.6431 49.0893 78.9886 61.0787 58.0261 48.9586C59.6359 47.4811 61.5482 46.3692 63.6314 45.6997C67.2683 49.3186 72.1916 51.3591 77.3285 51.3765C82.4653 51.3939 87.399 49.3867 91.0538 45.7925C93.1334 46.4761 95.0405 47.6009 96.6431 49.0893Z"
    fill="white" stroke="#172338" stroke-width="0.609645" stroke-miterlimit="10" />
  <path
    d="M77.3304 51.3795C72.1952 51.3656 67.272 49.3293 63.6333 45.7146C65.1529 45.2281 66.7404 44.9842 68.3368 44.9919L86.3691 45.0529C87.9657 45.0559 89.5518 45.3106 91.0689 45.8074C87.4146 49.402 82.481 51.409 77.3441 51.3907L77.3304 51.3795Z"
    fill="white" stroke="#172338" stroke-width="0.609645" stroke-miterlimit="10" />
  <path
    d="M101.57 25.0066C101.557 30.1499 99.4887 37.4284 95.8306 41.0531L91.1062 45.7431L91.0569 45.792C87.4015 49.3857 82.4684 51.3926 77.3316 51.3752C72.1952 51.3577 67.2717 49.3176 63.6344 45.6993L63.5853 45.65L58.8773 40.9281C57.057 39.1034 55.6375 36.3674 54.6774 33.4455C53.7506 30.6692 53.2577 27.7678 53.2163 24.843C53.3329 22.3086 53.8389 19.8073 54.7166 17.4265C58.7487 6.53768 69.1515 2.5854 70.0053 2.27813C71.325 1.80223 72.6832 1.43953 74.0651 1.19403C75.1857 0.995833 76.3183 0.872933 77.4553 0.826172C79.9988 0.944755 82.509 1.45145 84.8986 2.32852C85.7508 2.64156 96.1341 6.66417 100.113 17.5801C100.977 19.9672 101.468 22.4718 101.57 25.0066Z"
    fill="white" stroke="#172338" stroke-width="0.609645" stroke-miterlimit="10" />
  <path
    d="M96.6431 49.0893C96.6431 49.0893 78.9886 61.0787 58.0261 48.9586C59.6359 47.4811 61.5482 46.3692 63.6314 45.6997C67.2683 49.3186 72.1916 51.3591 77.3285 51.3765C82.4653 51.3939 87.399 49.3867 91.0538 45.7925C93.1334 46.4761 95.0405 47.6009 96.6431 49.0893Z"
    fill="url(#paint6_radial_9120_34439)" fill-opacity="0.3" stroke="#172338" stroke-width="0.609645"
    stroke-miterlimit="10" />
  <path opacity="0.3"
    d="M101.57 25.0066C101.557 30.1499 99.4887 37.4284 95.8306 41.0531L91.1062 45.7431L91.0569 45.792C87.4015 49.3857 82.4684 51.3926 77.3316 51.3752C72.1952 51.3577 67.2717 49.3176 63.6344 45.6993L63.5853 45.65L58.8773 40.9281C57.057 39.1034 55.6375 36.3674 54.6774 33.4455C53.7506 30.6692 53.2577 27.7678 53.2163 24.843C53.3329 22.3086 53.8389 19.8073 54.7166 17.4265C58.7487 6.53768 69.1515 2.5854 70.0053 2.27813C71.325 1.80223 72.6832 1.43953 74.0651 1.19403C75.1857 0.995833 76.3183 0.872933 77.4553 0.826172C79.9988 0.944755 82.509 1.45145 84.8986 2.32852C85.7508 2.64156 96.1341 6.66417 100.113 17.5801C100.977 19.9672 101.468 22.4718 101.57 25.0066Z"
    fill="url(#paint7_radial_9120_34439)" stroke="#172338" stroke-width="0.609645" stroke-miterlimit="10" />
  <path
    d="M99.5584 24.1579C99.4571 22.3176 99.0008 20.5137 98.2149 18.8449C94.5596 11.0361 85.0312 8.15436 84.2596 7.92862C82.037 7.2941 79.7454 6.93193 77.4358 6.8501C75.124 6.91592 72.8291 7.26254 70.6021 7.88239C69.8201 8.1029 60.2955 10.9201 56.5956 18.7041C55.8017 20.3678 55.3359 22.1684 55.2237 24.0079C55.2146 27.6852 57.0826 32.9018 60.4212 35.5126L64.7408 38.8921C68.0793 41.5052 72.6117 42.9821 77.3427 42.9981C82.0732 43.0141 86.6153 41.5679 89.9667 38.9775L94.3028 35.6272C97.6586 33.039 99.5496 27.8352 99.5584 24.1579Z"
    fill="#504C57" stroke="#172338" stroke-width="0.609645" stroke-miterlimit="10" />
  <path
    d="M98.0195 24.2152C97.9242 22.5034 97.4998 20.8256 96.7691 19.2729C93.3679 12.0072 84.5105 9.3241 83.781 9.11414C81.7129 8.52439 79.5812 8.18751 77.4315 8.11084C75.2823 8.17292 73.1485 8.49543 71.0776 9.07116C70.3495 9.27619 61.4769 11.8993 58.0425 19.1419C57.3034 20.6902 56.8699 22.3659 56.7654 24.0778C56.757 27.5007 58.496 32.3531 61.6021 34.7847L65.6245 37.9222C68.7307 40.3583 72.9475 41.7292 77.3493 41.7441C81.7512 41.759 85.9772 40.4144 89.0975 38.0039L93.1351 34.8936C96.251 32.4786 98.0113 27.6381 98.0195 24.2152Z"
    fill="url(#paint8_radial_9120_34439)" />
  <path
    d="M90.2623 14.9878C89.4906 13.5638 95.7377 19.0228 95.7229 25.0474C95.7081 31.0721 92.412 33.0692 92.412 33.0692C92.412 33.0692 96.815 27.0594 90.2623 14.9878Z"
    fill="white" />
  <path
    d="M66.5767 77.709C65.8634 76.6985 65.3859 75.5417 65.179 74.3235L65.19 69.8274C65.3044 68.8212 65.63 67.5041 66.6043 66.4518C68.2161 64.7076 70.2434 65.1654 77.2919 65.089C80.6192 65.0511 86.4182 64.8807 87.9748 66.5237C88.4995 67.0908 88.9026 67.759 89.1589 68.4871C89.3035 68.9476 89.3774 69.4268 89.3791 69.9092L89.3681 74.4053C89.1551 75.6214 88.6725 76.7748 87.9562 77.781C83.6989 83.6107 70.794 83.5673 66.5767 77.709Z"
    fill="url(#paint9_radial_9120_34439)" stroke="#172338" stroke-width="0.345027" stroke-miterlimit="10" />
  <path
    d="M68.1941 77.0945C67.5879 76.2361 67.1825 75.2531 67.0078 74.2183L67.0172 70.3982C67.1133 69.5442 67.3892 68.4249 68.2176 67.5308C69.5869 66.0493 71.3077 66.4367 77.2968 66.3719C80.1251 66.3417 85.0484 66.1977 86.3727 67.5918C86.8196 68.0732 87.1619 68.6414 87.3788 69.2601C87.4993 69.6514 87.5601 70.0586 87.559 70.4679L87.5497 74.2881C87.3679 75.3212 86.9582 76.3004 86.3497 77.1554C82.7349 82.1082 71.7642 82.0713 68.1941 77.0945Z"
    stroke="#172338" stroke-width="0.345027" stroke-miterlimit="10" />
  <path
    d="M69.7964 76.4727C69.2976 75.7666 68.9637 74.9577 68.8193 74.1065L68.827 70.9622C68.8973 70.0912 69.2435 69.2648 69.8157 68.6026C70.9382 67.3838 72.3592 67.7031 77.2874 67.6481C79.6135 67.625 83.6664 67.5047 84.7558 68.6532C85.1227 69.0499 85.4042 69.517 85.5834 70.0258C85.6831 70.3479 85.7323 70.6831 85.7307 71.0194L85.723 74.1636C85.5746 75.0137 85.2378 75.8199 84.7366 76.5232C81.767 80.599 72.7464 80.5682 69.7964 76.4727Z"
    stroke="#172338" stroke-width="0.345027" stroke-miterlimit="10" />
  <path
    d="M71.4044 75.8668C71.0134 75.3124 70.7518 74.6777 70.6387 74.01L70.6448 71.5328C70.699 70.8493 70.9704 70.2008 71.4195 69.6815C72.3043 68.7249 73.4161 68.976 77.2828 68.9337C79.1078 68.9128 82.2893 68.821 83.1427 69.7211C83.4313 70.0321 83.6526 70.3987 83.7933 70.7987C83.8717 71.0509 83.9111 71.3136 83.9105 71.5779L83.9045 74.0457C83.7868 74.7128 83.5217 75.3458 83.1273 75.8975C80.798 79.0957 73.7184 79.0721 71.4044 75.8668Z"
    stroke="#172338" stroke-width="0.345027" stroke-miterlimit="10" />
  <path
    d="M73.0162 75.2349C72.7336 74.8343 72.5435 74.3766 72.4597 73.8941L72.4641 72.1094C72.5057 71.6154 72.7029 71.1472 73.0272 70.7724C73.6691 70.0784 74.4769 70.2592 77.2828 70.2289C78.6082 70.2152 80.9167 70.147 81.5351 70.801C81.7454 71.0263 81.9065 71.2928 82.0078 71.5835C82.0642 71.7664 82.0927 71.9571 82.0916 72.1484L82.0872 73.9331C82.0012 74.4151 81.809 74.8717 81.5242 75.2701C79.8372 77.583 74.6878 77.5654 73.0162 75.2349Z"
    stroke="#172338" stroke-width="0.345027" stroke-miterlimit="10" />
  <path
    d="M74.6202 74.6123C74.4433 74.3623 74.325 74.076 74.2751 73.7743L74.2779 72.6588C74.302 72.3505 74.4247 72.0576 74.6268 71.823C75.0266 71.3916 75.5233 71.5048 77.2738 71.4862C78.0981 71.4779 79.5353 71.4361 79.9197 71.8411C80.0501 71.9818 80.1503 72.1478 80.2138 72.3285C80.2489 72.4423 80.267 72.5604 80.267 72.6791L80.2642 73.7946C80.2105 74.0957 80.0906 74.3809 79.9126 74.6304C78.8615 76.0729 75.6641 76.0619 74.6202 74.6123Z"
    stroke="#172338" stroke-width="0.345027" stroke-miterlimit="10" />
  <path
    d="M88.7743 103.835C88.4638 103.252 88.2628 102.618 88.1812 101.963L88.1872 99.4751C88.2211 98.8107 88.4287 98.1667 88.7896 97.6073C89.4638 96.6413 90.3363 96.8918 93.3345 96.8462C94.7491 96.8264 97.2149 96.7297 97.8776 97.6381C98.2719 98.1826 98.4795 98.8387 98.4708 99.5097L98.4648 101.998C98.3788 102.652 98.175 103.285 97.8623 103.866C96.0543 107.095 90.5664 107.076 88.7743 103.835Z"
    fill="#98A3A2" stroke="#172338" stroke-width="0.152395" stroke-miterlimit="10" />
  <path
    d="M89.4307 103.505C89.1651 103.006 88.9936 102.462 88.9241 101.901L88.9296 99.7725C88.9591 99.2043 89.1361 98.6537 89.4439 98.1746C90.0305 97.3487 90.7687 97.563 93.3325 97.5185C94.5435 97.4998 96.6527 97.4179 97.2196 98.201C97.4162 98.4834 97.5614 98.7983 97.6495 99.1307C97.7015 99.35 97.7273 99.5747 97.7262 99.8L97.7207 101.929C97.6479 102.489 97.4737 103.031 97.2064 103.53C95.6597 106.289 90.9577 106.273 89.4307 103.505Z"
    fill="#98A3A2" stroke="#172338" stroke-width="0.152395" stroke-miterlimit="10" />
  <path
    d="M90.0932 103.177C89.8724 102.759 89.7295 102.305 89.6709 101.837L89.6753 100.068C89.6988 99.592 89.8467 99.1309 90.1041 98.7303C90.5916 98.0424 91.2045 98.2231 93.3361 98.1902C94.3439 98.1731 96.0971 98.1055 96.5654 98.7523C96.7297 98.9864 96.8507 99.2474 96.9241 99.5233C96.9674 99.7068 96.9887 99.8947 96.9876 100.083L96.9832 101.853C96.9246 102.321 96.7795 102.775 96.5544 103.19C95.2706 105.493 91.3682 105.48 90.0932 103.177Z"
    fill="#98A3A2" stroke="#172338" stroke-width="0.152395" stroke-miterlimit="10" />
  <path
    d="M90.7415 102.849C90.5662 102.518 90.4523 102.159 90.4058 101.788L90.4096 100.377C90.4293 100.001 90.5471 99.6364 90.7503 99.3188C91.1386 98.7709 91.6288 98.9154 93.3261 98.8808C94.1274 98.8704 95.5246 98.8149 95.8997 99.3358C96.1232 99.6447 96.241 100.017 96.2349 100.397L96.2317 101.808C96.1835 102.178 96.0679 102.537 95.891 102.866C94.8701 104.695 91.7602 104.684 90.7415 102.849Z"
    fill="#98A3A2" stroke="#172338" stroke-width="0.152395" stroke-miterlimit="10" />
  <path
    d="M91.4012 102.518C91.2703 102.272 91.186 102.004 91.1526 101.727L91.1553 100.676C91.1701 100.397 91.2572 100.125 91.4078 99.8892C91.6975 99.482 92.0623 99.588 93.3275 99.5677C93.9251 99.5699 94.9662 99.5177 95.2455 99.9023C95.3414 100.038 95.4132 100.189 95.457 100.35C95.4838 100.457 95.4969 100.568 95.4964 100.68L95.4937 101.731C95.4569 102.007 95.371 102.274 95.239 102.52C94.4766 103.894 92.1592 103.886 91.4012 102.518Z"
    fill="#98A3A2" stroke="#172338" stroke-width="0.152395" stroke-miterlimit="10" />
  <path
    d="M92.0654 102.191C91.9783 102.03 91.9225 101.854 91.9011 101.672L91.9028 100.981C91.911 100.795 91.9685 100.616 92.0698 100.461C92.2588 100.194 92.4981 100.264 93.3312 100.242C93.725 100.244 94.408 100.208 94.5931 100.47C94.6566 100.562 94.7042 100.664 94.7333 100.771C94.7497 100.845 94.7579 100.92 94.7574 100.995L94.7557 101.686C94.7316 101.868 94.6752 102.042 94.5887 102.203C94.0875 103.097 92.5628 103.091 92.0654 102.191Z"
    fill="#98A3A2" stroke="#172338" stroke-width="0.152395" stroke-miterlimit="10" />
  <path
    d="M54.7798 102.467C54.5245 101.841 54.3806 101.176 54.3547 100.502L54.567 97.9541C54.6548 97.2799 54.9095 96.6386 55.3081 96.0869C56.0605 95.1522 56.8769 95.4764 59.8117 95.6561C61.1951 95.7429 63.6174 95.8363 64.1837 96.8177C64.3812 97.1771 64.5173 97.5667 64.5861 97.9706C64.623 98.2393 64.6306 98.5119 64.6087 98.7828L64.3965 101.33C64.2604 101.991 64.0088 102.623 63.6531 103.198C61.628 106.37 56.2557 105.935 54.7798 102.467Z"
    fill="#98A3A2" stroke="#172338" stroke-width="0.152395" stroke-miterlimit="10" />
  <path
    d="M55.4566 102.177C55.2385 101.643 55.1156 101.075 55.0935 100.5L55.2735 98.3224C55.3501 97.747 55.5683 97.1997 55.9087 96.7294C56.5488 95.9304 57.2534 96.2073 59.7539 96.3672C60.9359 96.4431 62.9977 96.5233 63.486 97.3619C63.7762 97.8707 63.9029 98.4565 63.8491 99.039L63.6691 101.214C63.5513 101.778 63.3363 102.318 63.0338 102.81C61.2988 105.506 56.7233 105.129 55.4566 102.177Z"
    fill="#98A3A2" stroke="#172338" stroke-width="0.152395" stroke-miterlimit="10" />
  <path
    d="M56.1395 101.89C55.9585 101.449 55.8566 100.978 55.8384 100.501L55.9883 98.6967C56.0494 98.2192 56.2299 97.7648 56.5132 97.3752C57.0455 96.7075 57.6338 96.9328 59.7021 97.0762C60.6804 97.1372 62.3886 97.2031 62.7943 97.8988C62.935 98.1521 63.0313 98.428 63.0789 98.7143C63.1059 98.9049 63.1115 99.0978 63.0955 99.2896L62.9455 101.092C62.85 101.56 62.6723 102.007 62.4206 102.414C60.9822 104.653 57.188 104.337 56.1395 101.89Z"
    fill="#98A3A2" stroke="#172338" stroke-width="0.152395" stroke-miterlimit="10" />
  <path
    d="M56.8107 101.599C56.6666 101.248 56.5856 100.874 56.5715 100.495L56.6892 99.0633C56.7395 98.6852 56.8835 98.3253 57.1082 98.0159C57.5282 97.4911 57.989 97.673 59.6366 97.7769C60.4156 97.8263 61.7723 97.8802 62.0978 98.4302C62.2875 98.7654 62.3709 99.1501 62.337 99.5331L62.217 100.965C62.1406 101.337 61.9995 101.692 61.8002 102.015C60.6541 103.792 57.6433 103.541 56.8107 101.599Z"
    fill="#98A3A2" stroke="#172338" stroke-width="0.152395" stroke-miterlimit="10" />
  <path
    d="M57.4857 101.305C57.3785 101.046 57.3185 100.77 57.3086 100.49L57.3963 99.4307C57.4324 99.1499 57.5386 98.8823 57.7049 98.6531C58.0171 98.2657 58.3571 98.4009 59.5771 98.4784C60.1524 98.5141 61.1576 98.5531 61.3939 98.962C61.4769 99.1109 61.5333 99.2724 61.5606 99.44C61.5729 99.5521 61.5725 99.6653 61.5598 99.7775L61.4722 100.837C61.415 101.112 61.3106 101.375 61.1635 101.614C60.3297 102.928 58.1024 102.744 57.4857 101.305Z"
    fill="#98A3A2" stroke="#172338" stroke-width="0.152395" stroke-miterlimit="10" />
  <path
    d="M58.1661 101.018C58.0974 100.85 58.0592 100.67 58.0532 100.489L58.1087 99.8021C58.1341 99.6202 58.2029 99.4477 58.3091 99.2982C58.5113 99.0465 58.7327 99.1345 59.5252 99.1839C59.8968 99.2075 60.5482 99.2345 60.7021 99.4983C60.7557 99.5949 60.7925 99.6999 60.811 99.8087C60.8202 99.8829 60.82 99.9577 60.8105 100.032L60.7529 100.719C60.7171 100.897 60.6499 101.068 60.5546 101.223C60.0129 102.073 58.5668 101.952 58.1661 101.018Z"
    fill="#98A3A2" stroke="#172338" stroke-width="0.152395" stroke-miterlimit="10" />
  <path
    d="M93.2343 106.653L93.1987 121.196C93.2064 121.302 93.2535 121.401 93.3313 121.474C93.409 121.546 93.5115 121.587 93.6177 121.587C93.724 121.587 93.8264 121.548 93.9047 121.476C93.9825 121.404 94.0302 121.305 94.0384 121.2L94.074 106.655C94.0663 106.55 94.0192 106.451 93.9414 106.378C93.8636 106.306 93.7612 106.266 93.655 106.265C93.5487 106.265 93.4463 106.305 93.368 106.376C93.2902 106.448 93.2426 106.547 93.2343 106.653Z"
    fill="#172338" />
  <path
    d="M123.582 58.3394C123.307 60.2571 122.346 62.0101 120.877 63.2761C119.407 64.5422 117.526 65.2362 115.583 65.2296C109.79 67.3529 103.559 68.0217 97.4428 67.1765C98.2626 73.3426 99.0749 78.2271 99.4232 81.2406C100.588 91.2862 101.259 100.789 101.317 109.695C101.342 113.297 100.816 115.164 99.7732 116.681C100.722 102.254 95.8807 75.1081 94.4041 67.2732C94.3598 67.0353 94.3718 66.7897 94.4397 66.5572C94.5082 66.3248 94.6303 66.1116 94.7968 65.9346C94.9633 65.7582 95.1693 65.623 95.3976 65.5406C95.626 65.4582 95.8714 65.4307 96.1124 65.4604C106.541 66.7006 118.152 61.2957 123.582 58.3394Z"
    fill="url(#paint10_radial_9120_34439)" fill-opacity="0.6" />
  <path
    d="M123.573 58.3402C123.299 60.258 122.338 62.011 120.868 63.277C119.398 64.5437 117.518 65.2371 115.575 65.2305C109.781 67.3538 103.551 68.0226 97.4346 67.1774C98.2545 73.3434 99.0667 78.228 99.4151 81.2421C100.579 91.2871 101.25 100.79 101.309 109.696C101.334 113.298 100.808 115.166 99.765 116.681C99.1604 117.561 98.3821 118.324 97.4346 119.236C95.9985 120.623 94.5192 121.39 93.272 121.386C91.1344 121.379 89.086 120.525 87.5782 119.014C86.0703 117.502 85.2263 115.456 85.2313 113.326L85.2756 95.2518C85.2767 94.7193 85.0659 94.2077 84.6891 93.8297C84.3122 93.4516 83.8001 93.2384 83.2656 93.2368L71.1754 93.1955C70.6411 93.1939 70.128 93.4038 69.7492 93.7791C69.3704 94.1544 69.1568 94.6644 69.1555 95.1974L69.1116 113.139C69.1008 117.513 65.6373 121.174 61.2554 121.275L58.2565 120.776L54.3354 120.123C53.6716 120.013 53.0396 119.76 52.4831 119.382C51.9266 119.005 51.459 118.511 51.1125 117.936C50.766 117.361 50.5489 116.718 50.4763 116.051C50.4037 115.384 50.4772 114.71 50.6918 114.075L53.0126 107.192C53.1368 103.055 53.3778 98.8346 53.7265 94.4957C54.0752 90.1568 54.5339 85.7003 55.0914 81.0921C55.6794 76.2416 56.3626 71.5576 57.1409 67.0412C51.0201 67.8446 44.7934 67.1341 39.0106 64.9718C34.059 62.8039 30.9641 59.4042 30.9702 56.9116C30.9754 54.781 31.8296 52.7407 33.3449 51.2393C34.8602 49.738 36.9123 48.8986 39.05 48.9058L58.027 48.97C78.9897 61.0906 96.6437 49.1006 96.6437 49.1006L115.489 49.1644C119.877 49.1793 123.554 52.6347 123.66 57.0017C123.668 57.4495 123.639 57.8973 123.573 58.3402Z"
    stroke="#172338" stroke-width="0.609645" stroke-miterlimit="10" />
  <path
    d="M107.067 52.4399C107.713 56.0886 108.027 59.7879 108.004 63.4927C108.002 64.5461 107.968 65.5984 107.903 66.6496C107.872 67.1876 108.712 67.1904 108.742 66.6529C108.959 62.897 108.831 59.129 108.358 55.3963C108.223 54.3308 108.062 53.2703 107.875 52.215C107.783 51.6859 106.981 51.9063 107.067 52.4354V52.4399Z"
    fill="#172338" />
  <path
    d="M103.204 49.3516L102.981 49.9578L105.053 51.7008L109.06 51.7411L111.305 50.1242L111.252 49.2137L105.529 49.1943L103.204 49.3516Z"
    fill="#172338" />
  <path
    d="M32.2438 49.9144L32.2751 49.8877C32.4666 49.7277 32.6889 49.6084 32.9284 49.537C33.1679 49.4657 33.4196 49.4439 33.6679 49.4729C33.9163 49.502 34.1561 49.5812 34.3727 49.7059C34.5893 49.8305 34.7781 49.998 34.9275 50.1979L35.0347 50.3411C35.2068 50.5717 35.3224 50.8393 35.3718 51.1224C35.4213 51.4055 35.4034 51.6961 35.3195 51.9709L33.453 58.0586C33.3822 58.2888 33.2664 58.5031 33.1122 58.6889C32.9581 58.874 32.7686 59.0274 32.5547 59.14L32.3306 59.262C32.0791 59.3944 31.8 59.467 31.5155 59.4736C31.2309 59.4802 30.9486 59.4214 30.6908 59.3005C30.4331 59.1801 30.2068 59.0015 30.0299 58.7795C29.853 58.557 29.7304 58.2965 29.6716 58.019C29.6071 57.7146 29.6217 57.3992 29.7141 57.1019L31.6707 50.7782C31.7732 50.4407 31.9723 50.1405 32.2438 49.9144Z"
    fill="white" stroke="#172338" stroke-width="0.609645" stroke-miterlimit="10" />
  <path
    d="M33.0316 51.7723L31.5592 57.1252C31.4401 57.5587 31.2216 57.9505 30.9274 58.2572C30.6333 58.5643 30.2749 58.7742 29.8911 58.8655L27.1095 59.5205C26.922 59.565 26.7309 59.5798 26.5417 59.565L23.2466 59.3149C23.1414 59.3056 23.0371 59.2886 22.9343 59.2638L20.0403 58.5291C19.7544 58.4577 19.4868 58.3164 19.2546 58.1159C19.0224 57.9147 18.8307 57.6587 18.6918 57.363L18.4201 56.7888L17.9874 55.8755C17.8016 55.481 17.7155 55.031 17.7388 54.5749L17.9565 50.3412C17.9809 49.8494 18.1325 49.3722 18.3914 48.972L18.8961 48.1894C19.1412 47.8105 19.4717 47.5161 19.8492 47.3405C20.2266 47.1649 20.6356 47.1151 21.0287 47.197L22.6635 47.5436C22.9551 47.6072 23.2571 47.598 23.5497 47.5167C23.8423 47.4354 24.1189 47.2838 24.3613 47.0718C24.6037 46.8598 24.8062 46.5923 24.9558 46.2869C25.1054 45.9815 25.1984 45.6451 25.2289 45.2999L25.2431 45.1616C25.2897 44.667 25.4637 44.1948 25.7421 43.8069C26.0205 43.4189 26.3905 43.1332 26.8039 42.9868L27.1347 42.8704C27.5814 42.7112 28.0557 42.7233 28.4855 42.9052C28.9153 43.0871 29.2772 43.4286 29.5163 43.878L30.5701 45.8923L32.7748 49.6745C32.952 49.9737 33.067 50.3177 33.1114 50.681C33.1559 51.0443 33.1287 51.4173 33.0316 51.7723Z"
    fill="white" />
  <path
    d="M33.0316 51.7723L31.5592 57.1252C31.4401 57.5587 31.2216 57.9505 30.9274 58.2572C30.6333 58.5643 30.2749 58.7742 29.8911 58.8655L27.1095 59.5205C26.922 59.565 26.7309 59.5798 26.5417 59.565L23.2466 59.3149C23.1414 59.3056 23.0371 59.2886 22.9343 59.2638L20.0403 58.5291C19.7544 58.4577 19.4868 58.3165 19.2546 58.1159C19.0224 57.9147 18.8307 57.6587 18.6918 57.363L18.4201 56.7888L17.9874 55.8755C17.8016 55.481 17.7155 55.031 17.7388 54.5749L17.9565 50.3412C17.9809 49.8494 18.1325 49.3722 18.3914 48.972L18.8961 48.1894C19.1412 47.8105 19.4717 47.5161 19.8492 47.3405C20.2266 47.1649 20.6356 47.1151 21.0287 47.197L22.6635 47.5436C22.9551 47.6072 23.2571 47.598 23.5497 47.5167C23.8423 47.4354 24.1189 47.2838 24.3613 47.0718C24.6037 46.8598 24.8062 46.5923 24.9558 46.2869C25.1054 45.9815 25.1984 45.6451 25.2289 45.2999L25.2431 45.1616C25.2897 44.667 25.4637 44.1948 25.7421 43.8069C26.0205 43.4189 26.3905 43.1332 26.8039 42.9868L27.1347 42.8704C27.5814 42.7112 28.0557 42.7233 28.4855 42.9052C28.9153 43.0871 29.2772 43.4286 29.5163 43.878L30.5701 45.8923L32.7748 49.6745C32.952 49.9737 33.067 50.3177 33.1114 50.681C33.1559 51.0443 33.1287 51.4173 33.0316 51.7723Z"
    fill="url(#paint11_radial_9120_34439)" fill-opacity="0.6" />
  <path opacity="0.6"
    d="M33.0392 51.772L31.5669 57.1248C31.4478 57.5584 31.2293 57.9502 30.9351 58.2568C30.6409 58.564 30.2824 58.7739 29.8988 58.8651L27.1171 59.5201C26.9296 59.5646 26.7386 59.5795 26.5494 59.5641L23.2543 59.3146C23.1491 59.3053 23.0448 59.2883 22.9419 59.2635L20.0479 58.5288C19.7621 58.4569 19.4945 58.3162 19.2623 58.1156C19.0301 57.9144 18.8384 57.6584 18.6995 57.3627L18.4277 56.7885C19.8105 56.533 22.531 57.0902 23.9606 57.3067C25.835 57.587 29.7364 58.1947 30.3903 56.7308C31.0443 55.267 30.0782 53.7969 30.5211 53.6476C33.2152 52.74 31.5962 47.5439 29.2218 46.2557C28.2078 45.7035 28.4164 43.1867 25.5867 44.5617C25.836 44.2817 26.477 43.0985 26.8193 42.9841L27.1501 42.8678C27.5959 42.7108 28.0685 42.7245 28.4968 42.9066C28.925 43.0889 29.2855 43.4297 29.5239 43.8776L30.5778 45.8919L32.7825 49.6741C32.9596 49.9733 33.0747 50.3174 33.1192 50.6806C33.1636 51.0439 33.1363 51.4169 33.0392 51.772Z"
    fill="url(#paint12_radial_9120_34439)" />
  <path
    d="M33.0316 51.7723L31.5592 57.1252C31.4401 57.5587 31.2216 57.9505 30.9274 58.2572C30.6333 58.5643 30.2749 58.7742 29.8911 58.8655L27.1095 59.5205C26.922 59.565 26.7309 59.5798 26.5417 59.565L23.2466 59.3149C23.1414 59.3056 23.0371 59.2886 22.9343 59.2638L20.0403 58.5291C19.7544 58.4577 19.4868 58.3164 19.2546 58.1159C19.0224 57.9147 18.8307 57.6587 18.6918 57.363L18.4201 56.7888L17.9874 55.8755C17.8016 55.481 17.7155 55.031 17.7388 54.5749L17.9565 50.3412C17.9809 49.8494 18.1325 49.3722 18.3914 48.972L18.8961 48.1894C19.1412 47.8105 19.4717 47.5161 19.8492 47.3405C20.2266 47.1649 20.6356 47.1151 21.0287 47.197L22.6635 47.5436C22.9551 47.6072 23.2571 47.598 23.5497 47.5167C23.8423 47.4354 24.1189 47.2838 24.3613 47.0718C24.6037 46.8598 24.8062 46.5923 24.9558 46.2869C25.1054 45.9815 25.1984 45.6451 25.2289 45.2999L25.2431 45.1616C25.2897 44.667 25.4637 44.1948 25.7421 43.8069C26.0205 43.4189 26.3905 43.1332 26.8039 42.9868L27.1347 42.8704C27.5814 42.7112 28.0557 42.7233 28.4855 42.9052C28.9153 43.0871 29.2772 43.4286 29.5163 43.878L30.5701 45.8923L32.7748 49.6745C32.952 49.9737 33.067 50.3177 33.1114 50.681C33.1559 51.0443 33.1287 51.4173 33.0316 51.7723Z"
    stroke="#172338" stroke-width="0.609645" stroke-miterlimit="10" />
  <path
    d="M25.1636 54.942L26.1762 55.1996L27.5294 55.3543C27.5306 55.3545 27.5318 55.354 27.5326 55.3531L28.9301 53.8138C29.2076 53.2945 29.8342 52.1221 30.1198 51.5879"
    stroke="#172338" stroke-width="0.610746" />
  <path d="M17.9446 50.042L19.6736 50.4601C20.261 50.4542 21.5868 50.4409 22.191 50.4348" stroke="#172338"
    stroke-width="0.610746" />
  <path d="M17.7566 52.6797L19.4857 53.0978C20.073 53.0919 21.3988 53.0786 22.003 53.0725" stroke="#172338"
    stroke-width="0.610746" />
  <path d="M17.7566 54.9023L19.4857 55.3205C20.073 55.3146 21.3988 55.3012 22.003 55.2952" stroke="#172338"
    stroke-width="0.610746" />
  <path
    d="M120.265 50.8131L120.23 50.7909C120.018 50.6581 119.782 50.5697 119.535 50.5312C119.288 50.4928 119.035 50.5049 118.793 50.5671C118.551 50.6293 118.324 50.7401 118.127 50.8927C117.929 51.0453 117.765 51.2365 117.644 51.4547L117.558 51.6109C117.419 51.8625 117.342 52.1432 117.331 52.4304C117.321 52.7175 117.379 53.0031 117.5 53.264L120.184 59.0442C120.286 59.2629 120.43 59.4597 120.608 59.6229C120.787 59.7861 120.995 59.9124 121.223 59.9949L121.461 60.0855C121.729 60.1833 122.015 60.2174 122.298 60.1861C122.581 60.1542 122.853 60.0575 123.091 59.9037C123.33 59.7498 123.529 59.5426 123.675 59.2981C123.819 59.0541 123.905 58.7799 123.925 58.4969C123.947 58.1864 123.889 57.8759 123.757 57.5941L120.951 51.5919C120.803 51.2712 120.565 51.0006 120.265 50.8131Z"
    fill="white" stroke="#172338" stroke-width="0.609645" stroke-miterlimit="10" />
  <path
    d="M119.739 52.762L121.932 57.8672C122.109 58.2809 122.38 58.6398 122.714 58.9041C123.047 59.1684 123.431 59.3289 123.824 59.3673L126.67 59.6421C126.861 59.6613 127.052 59.6503 127.238 59.6096L130.468 58.9194C130.571 58.8964 130.672 58.8656 130.771 58.8271L133.537 57.71C133.811 57.6006 134.056 57.4253 134.259 57.1951C134.461 56.9648 134.616 56.6851 134.713 56.3735L134.904 55.768L135.207 54.8053C135.337 54.3895 135.361 53.9318 135.275 53.4831L134.478 49.3179C134.386 48.8338 134.171 48.3816 133.859 48.0198L133.252 47.3123C132.957 46.9699 132.589 46.7226 132.191 46.5994C131.793 46.4761 131.381 46.4817 131.003 46.6157L129.431 47.1789C129.151 47.2811 128.85 47.3125 128.549 47.2714C128.248 47.2301 127.953 47.1171 127.684 46.9396C127.415 46.7623 127.177 46.5244 126.987 46.242C126.797 45.9595 126.659 45.6387 126.581 45.3008L126.549 45.1657C126.434 44.6818 126.197 44.2374 125.868 43.8906C125.539 43.5437 125.133 43.3102 124.703 43.2208L124.36 43.15C123.896 43.0522 123.427 43.128 123.026 43.366C122.625 43.6039 122.314 43.9909 122.139 44.4683L121.371 46.6056L119.706 50.6491C119.571 50.9693 119.504 51.3256 119.51 51.6915C119.516 52.0574 119.594 52.4233 119.739 52.762Z"
    fill="white" />
  <path
    d="M119.739 52.762L121.932 57.8672C122.109 58.2809 122.38 58.6398 122.714 58.9041C123.047 59.1684 123.431 59.3289 123.824 59.3673L126.67 59.6421C126.861 59.6613 127.052 59.6503 127.238 59.6096L130.468 58.9194C130.571 58.8964 130.672 58.8656 130.771 58.8271L133.537 57.71C133.811 57.6006 134.056 57.4253 134.259 57.1951C134.461 56.9648 134.616 56.6851 134.713 56.3735L134.904 55.768L135.207 54.8053C135.337 54.3895 135.361 53.9318 135.275 53.4831L134.478 49.3179C134.386 48.8338 134.171 48.3816 133.859 48.0198L133.252 47.3123C132.957 46.9699 132.589 46.7226 132.191 46.5994C131.793 46.4761 131.381 46.4817 131.003 46.6157L129.431 47.1789C129.151 47.2811 128.85 47.3125 128.549 47.2714C128.248 47.2301 127.953 47.1171 127.684 46.9396C127.415 46.7623 127.177 46.5244 126.987 46.242C126.797 45.9595 126.659 45.6387 126.581 45.3008L126.549 45.1657C126.434 44.6818 126.197 44.2374 125.868 43.8906C125.539 43.5437 125.133 43.3102 124.703 43.2208L124.36 43.15C123.896 43.0522 123.427 43.128 123.026 43.366C122.625 43.6039 122.314 43.9909 122.139 44.4683L121.371 46.6056L119.706 50.6491C119.571 50.9693 119.504 51.3256 119.51 51.6915C119.516 52.0574 119.594 52.4233 119.739 52.762Z"
    fill="url(#paint13_radial_9120_34439)" fill-opacity="0.6" />
  <path opacity="0.6"
    d="M119.739 52.7616L121.933 57.8669C122.11 58.2807 122.38 58.6395 122.714 58.9038C123.047 59.1681 123.431 59.3286 123.824 59.3665L126.67 59.6418C126.861 59.661 127.052 59.65 127.238 59.6094L130.468 58.9192C130.571 58.8961 130.672 58.8648 130.771 58.8268L133.537 57.7097C133.81 57.6004 134.056 57.4245 134.259 57.1948C134.461 56.9645 134.616 56.6849 134.713 56.3733L134.904 55.7677C133.499 55.7007 130.88 56.6183 129.493 57.0244C127.675 57.5547 123.893 58.6812 123.044 57.3184C122.195 55.9562 122.951 54.3697 122.491 54.2813C119.697 53.7443 120.589 48.3787 122.764 46.7833C123.693 46.1 123.141 43.6344 126.133 44.6163C125.848 44.3725 125.051 43.2864 124.696 43.2192L124.352 43.1483C123.889 43.0528 123.422 43.1299 123.023 43.3679C122.624 43.6059 122.313 43.992 122.138 44.4679L121.371 46.6052L119.706 50.6487C119.571 50.9689 119.505 51.3252 119.51 51.6911C119.516 52.057 119.594 52.4229 119.739 52.7616Z"
    fill="url(#paint14_radial_9120_34439)" />
  <path
    d="M119.739 52.762L121.932 57.8672C122.109 58.2809 122.38 58.6398 122.714 58.9041C123.047 59.1684 123.431 59.3289 123.824 59.3673L126.67 59.6421C126.861 59.6613 127.052 59.6503 127.238 59.6096L130.468 58.9194C130.571 58.8964 130.672 58.8656 130.771 58.8271L133.537 57.71C133.811 57.6006 134.056 57.4253 134.259 57.1951C134.461 56.9648 134.616 56.6851 134.713 56.3735L134.904 55.768L135.207 54.8053C135.337 54.3895 135.361 53.9318 135.275 53.4831L134.478 49.3179C134.386 48.8338 134.171 48.3816 133.859 48.0198L133.252 47.3123C132.957 46.9699 132.589 46.7226 132.191 46.5994C131.793 46.4761 131.381 46.4817 131.003 46.6157L129.431 47.1789C129.151 47.2811 128.85 47.3125 128.549 47.2714C128.248 47.2301 127.953 47.1171 127.684 46.9396C127.415 46.7623 127.177 46.5244 126.987 46.242C126.797 45.9595 126.659 45.6387 126.581 45.3008L126.549 45.1657C126.434 44.6818 126.197 44.2374 125.868 43.8906C125.539 43.5437 125.133 43.3102 124.703 43.2208L124.36 43.15C123.896 43.0522 123.427 43.128 123.026 43.366C122.625 43.6039 122.314 43.9909 122.139 44.4683L121.371 46.6056L119.706 50.6491C119.571 50.9693 119.504 51.3256 119.51 51.6915C119.516 52.0574 119.594 52.4233 119.739 52.762Z"
    stroke="#172338" stroke-width="0.609645" stroke-miterlimit="10" />
  <path
    d="M126.777 48.9555L128.361 47.5973L131.148 46.2021C131.642 47.1804 130.545 50.8019 130.636 50.9825C130.727 51.1631 130.679 52.9404 130.643 53.8065L128.376 53.8101L127.011 51.6661L126.777 48.9555Z"
    fill="white" />
  <path
    d="M130.693 54.1702L129.648 54.1781L128.591 54.0426C128.404 54.0187 128.241 53.9067 128.15 53.7415L127.329 52.2379C127.306 52.1956 127.289 52.1511 127.277 52.1044C127.121 51.5044 126.806 50.2927 126.659 49.7285C126.513 49.1679 127.771 47.8813 128.504 47.2284C128.57 47.17 128.648 47.1289 128.732 47.106L131.585 46.3379"
    stroke="#172338" stroke-width="0.610746" />
  <path
    d="M102.266 49.4603C102.545 50.1357 102.98 50.7354 103.538 51.2095C104.095 51.6837 104.757 52.0187 105.47 52.1867C107.114 52.5402 108.829 52.3224 110.33 51.5695C111.046 51.1703 111.591 50.5652 111.678 49.7331C111.677 49.6222 111.633 49.5161 111.554 49.4374C111.475 49.3587 111.369 49.3138 111.258 49.3122C111.147 49.3147 111.042 49.3595 110.964 49.4374C110.886 49.5153 110.841 49.6202 110.838 49.7303C110.767 50.4107 110.037 50.8433 109.463 51.0645C108.625 51.3918 107.731 51.5518 106.831 51.5353C105.304 51.5034 103.66 50.7437 103.077 49.2467C103.046 49.1413 102.975 49.052 102.879 48.9973C102.783 48.9426 102.67 48.9266 102.563 48.9526C102.456 48.9825 102.365 49.0533 102.31 49.1495C102.254 49.2458 102.24 49.36 102.269 49.4671L102.266 49.4603Z"
    fill="#172338" />
  <path
    d="M49.0008 52.1271C48.3545 55.851 48.0407 59.6266 48.0631 63.4078C48.0659 64.4829 48.0993 65.5569 48.165 66.6298C48.1951 67.1788 47.3555 67.1816 47.3254 66.6331C47.1085 62.7998 47.2367 58.9541 47.7099 55.1444C47.8441 54.0569 48.0051 52.9746 48.1924 51.8975C48.285 51.3575 49.0868 51.5825 49.0008 52.1225V52.1271Z"
    fill="#172338" />
  <path
    d="M52.8669 49.0532L53.0898 49.6594L51.0184 51.4024L47.0109 51.4428L44.7659 49.8259L44.8196 48.9153L50.5425 48.896L52.8669 49.0532Z"
    fill="#172338" />
  <path
    d="M53.7955 49.1595C53.5172 49.8349 53.0818 50.4346 52.5242 50.9088C51.9672 51.3829 51.3045 51.7179 50.592 51.886C48.9478 52.2394 47.2329 52.0216 45.7317 51.2687C45.0164 50.8695 44.4709 50.2644 44.3838 49.4324C44.3849 49.3215 44.4293 49.2153 44.5076 49.1366C44.5864 49.0579 44.6927 49.013 44.8039 49.0114C44.9146 49.0139 45.0197 49.0587 45.098 49.1366C45.1758 49.2145 45.2212 49.3194 45.2234 49.4295C45.2946 50.1099 46.0253 50.5425 46.5993 50.7637C47.4367 51.091 48.3311 51.2511 49.231 51.2346C50.7579 51.2026 52.4016 50.4429 52.9849 48.9459C53.0161 48.8405 53.0873 48.7512 53.1831 48.6965C53.2784 48.6418 53.3918 48.6258 53.4991 48.6519C53.6059 48.6817 53.6969 48.7525 53.7522 48.8488C53.8075 48.945 53.8223 49.0592 53.7933 49.1663L53.7955 49.1595Z"
    fill="#172338" />
  <path
    d="M58.2721 105.426C57.9399 107.581 57.6144 109.735 57.2756 111.894C56.9708 113.836 56.6478 115.919 55.6696 117.656C55.2199 118.443 54.6091 119.175 53.724 119.457C53.2109 119.623 53.4283 120.431 53.9459 120.265C55.7789 119.676 56.6812 117.796 57.225 116.095C57.9018 113.987 58.1424 111.754 58.4768 109.575C58.6785 108.268 58.8796 106.962 59.0798 105.656C59.1061 105.55 59.0905 105.436 59.0363 105.341C58.9821 105.245 58.8931 105.173 58.7878 105.14C58.6807 105.11 58.5664 105.125 58.4699 105.179C58.3733 105.234 58.3022 105.324 58.2721 105.43L58.2721 105.426Z"
    fill="#172338" />
  <defs>
    <linearGradient id="paint0_linear_9120_34439" x1="34.2324" y1="27.0513" x2="34.2324" y2="95.5156"
      gradientUnits="userSpaceOnUse">
      <stop stop-color="#10101B" />
      <stop offset="1" stop-color="#212130" />
    </linearGradient>
    <linearGradient id="paint1_linear_9120_34439" x1="76.9174" y1="43.9524" x2="76.9174" y2="142"
      gradientUnits="userSpaceOnUse">
      <stop stop-color="#10101B" />
      <stop offset="1" stop-color="#212130" />
    </linearGradient>
    <linearGradient id="paint2_linear_9120_34439" x1="128.052" y1="40.5682" x2="128.052" y2="100.58"
      gradientUnits="userSpaceOnUse">
      <stop stop-color="#10101B" />
      <stop offset="1" stop-color="#212130" />
    </linearGradient>
    <radialGradient id="paint3_radial_9120_34439" cx="0" cy="0" r="1" gradientUnits="userSpaceOnUse"
      gradientTransform="translate(74.8947 46.6666) rotate(49.379) scale(51.2114 66.2585)">
      <stop stop-color="#B2DDC5" />
      <stop offset="0.4819" stop-color="#92D5D7" stop-opacity="0.31" />
      <stop offset="1" stop-color="#A74B9C" stop-opacity="0.96" />
    </radialGradient>
    <radialGradient id="paint4_radial_9120_34439" cx="0" cy="0" r="1" gradientUnits="userSpaceOnUse"
      gradientTransform="translate(74.1353 46.7947) rotate(49.3784) scale(48.812 63.1542)">
      <stop stop-color="#B2DDC5" />
      <stop offset="0.4819" stop-color="#92D5D7" stop-opacity="0.31" />
      <stop offset="1" stop-color="#A74B9C" stop-opacity="0.96" />
    </radialGradient>
    <radialGradient id="paint5_radial_9120_34439" cx="0" cy="0" r="1" gradientUnits="userSpaceOnUse"
      gradientTransform="translate(64.7704 95.8046) rotate(43.7201) scale(31.4567 41.0912)">
      <stop stop-color="#F4F4F5" />
      <stop offset="0.4819" stop-color="#361836" stop-opacity="0.22" />
      <stop offset="1" stop-color="#A74B9C" stop-opacity="0.96" />
    </radialGradient>
    <radialGradient id="paint6_radial_9120_34439" cx="0" cy="0" r="1" gradientUnits="userSpaceOnUse"
      gradientTransform="translate(74.9262 47.1705) rotate(13.0807) scale(27.4704 15.6342)">
      <stop stop-color="#F4F4F5" />
      <stop offset="0.4819" stop-color="#F4F4F5" />
      <stop offset="1" stop-color="#A74B9C" stop-opacity="0.96" />
    </radialGradient>
    <radialGradient id="paint7_radial_9120_34439" cx="0" cy="0" r="1" gradientUnits="userSpaceOnUse"
      gradientTransform="translate(74.4104 9.20028) rotate(47.1043) scale(49.1216 64.1015)">
      <stop stop-color="#0A060A" />
      <stop offset="0.5677" stop-color="#BAAEBA" stop-opacity="0.5667" />
      <stop offset="1" stop-color="#A74B9C" stop-opacity="0.96" />
    </radialGradient>
    <radialGradient id="paint8_radial_9120_34439" cx="0" cy="0" r="1" gradientUnits="userSpaceOnUse"
      gradientTransform="translate(67.9756 18.6493) rotate(56.2304) scale(35.9178 39.4201)">
      <stop stop-color="#2F6757" />
      <stop offset="0.4271" stop-color="#1D0F24" />
      <stop offset="0.6991" stop-color="#2E1C51" />
      <stop offset="1" stop-color="#793A96" />
    </radialGradient>
    <radialGradient id="paint9_radial_9120_34439" cx="0" cy="0" r="1" gradientUnits="userSpaceOnUse"
      gradientTransform="translate(71.7542 70.4027) rotate(52.3123) scale(19.1578 21.996)">
      <stop stop-color="#DDDDDD" />
      <stop offset="0.1875" stop-color="#CACACA" />
      <stop offset="0.3288" stop-color="#CB9CC8" />
      <stop offset="0.6991" stop-color="#DBDADA" />
      <stop offset="1" stop-color="#F0EFEF" />
    </radialGradient>
    <radialGradient id="paint10_radial_9120_34439" cx="0" cy="0" r="1" gradientUnits="userSpaceOnUse"
      gradientTransform="translate(107.143 67.9746) rotate(67.1719) scale(60.5502 62.461)">
      <stop stop-color="#BA549F" stop-opacity="0.27" />
      <stop offset="0.4819" stop-color="#B966A9" stop-opacity="0.22" />
      <stop offset="1" stop-color="#A74B9C" stop-opacity="0.96" />
    </radialGradient>
    <radialGradient id="paint11_radial_9120_34439" cx="0" cy="0" r="1" gradientUnits="userSpaceOnUse"
      gradientTransform="translate(24.6118 45.5945) rotate(48.4886) scale(15.7027 21.1267)">
      <stop stop-color="#4DB748" stop-opacity="0.4" />
      <stop offset="0.4531" stop-color="#E3E3E3" stop-opacity="0.5667" />
      <stop offset="1" stop-color="#F4F4F5" />
    </radialGradient>
    <radialGradient id="paint12_radial_9120_34439" cx="0" cy="0" r="1" gradientUnits="userSpaceOnUse"
      gradientTransform="translate(25.0276 45.588) rotate(49.9081) scale(15.3802 20.5504)">
      <stop stop-color="#F4F4F5" />
      <stop offset="0.4819" stop-color="#BAAEBA" stop-opacity="0.5667" />
      <stop offset="1" stop-color="#A6D172" stop-opacity="0.96" />
    </radialGradient>
    <radialGradient id="paint13_radial_9120_34439" cx="0" cy="0" r="1" gradientUnits="userSpaceOnUse"
      gradientTransform="translate(127.232 45.5089) rotate(123.686) scale(15.6814 21.1555)">
      <stop stop-color="#4DB748" stop-opacity="0.4" />
      <stop offset="0.4531" stop-color="#E3E3E3" stop-opacity="0.5667" />
      <stop offset="1" stop-color="#F4F4F5" />
    </radialGradient>
    <radialGradient id="paint14_radial_9120_34439" cx="0" cy="0" r="1" gradientUnits="userSpaceOnUse"
      gradientTransform="translate(126.829 45.5578) rotate(122.262) scale(15.3596 20.5779)">
      <stop stop-color="#F4F4F5" />
      <stop offset="0.4819" stop-color="#BAAEBA" stop-opacity="0.5667" />
      <stop offset="1" stop-color="#A6D172" stop-opacity="0.96" />
    </radialGradient>
  </defs>
</svg>