<svg width="127" height="120" viewBox="0 0 127 120" fill="none" xmlns="http://www.w3.org/2000/svg">
  <circle cx="60" cy="60" r="59" fill="#303043" stroke="#4CE6A1" stroke-width="2" />
  <path
    d="M42.2833 49.1947C52.068 39.6018 67.932 39.6018 77.7168 49.1947L78.8943 50.3492C79.3836 50.8289 79.3836 51.6065 78.8943 52.0863L74.8661 56.0356C74.6214 56.2755 74.2248 56.2755 73.9801 56.0356L72.3597 54.4469C65.5336 47.7546 54.4664 47.7546 47.6403 54.4469L45.9048 56.1483C45.6603 56.3881 45.2637 56.3881 45.0191 56.1483L40.9908 52.1989C40.5014 51.7192 40.5014 50.9416 40.9908 50.4619L42.2833 49.1947ZM86.0478 57.3626L89.6331 60.8775C90.1223 61.3572 90.1223 62.1348 89.6331 62.6145L73.467 78.4641C72.9778 78.9437 72.1845 78.9437 71.6953 78.4641L60.2215 67.2152C60.0992 67.0952 59.9009 67.0952 59.7786 67.2152L48.3051 78.4641C47.8159 78.9437 47.0226 78.9437 46.5334 78.4641L30.3669 62.6143C29.8777 62.1346 29.8777 61.357 30.3669 60.8773L33.9522 57.3623C34.4414 56.8827 35.2346 56.8827 35.7239 57.3623L47.1978 68.6113C47.32 68.7313 47.5183 68.7313 47.6406 68.6113L59.1139 57.3623C59.6031 56.8827 60.3964 56.8827 60.8856 57.3623L72.3595 68.6113C72.4819 68.7313 72.6801 68.7313 72.8025 68.6113L84.2761 57.3626C84.7654 56.8829 85.5586 56.8829 86.0478 57.3626Z"
    fill="#3396FF" />
  <path
    d="M113 101.667C119.417 101.667 124.667 96.4168 124.667 90.0002C124.667 83.5835 119.417 78.3335 113 78.3335C106.583 78.3335 101.333 83.5835 101.333 90.0002C101.333 96.4168 106.583 101.667 113 101.667Z"
    fill="#274641" stroke="#4CE6A1" stroke-width="2" stroke-linecap="round" stroke-linejoin="round" />
  <path d="M108.042 89.9999L111.343 93.3016L117.958 86.6982" stroke="#4CE6A1" stroke-width="2" stroke-linecap="round"
    stroke-linejoin="round" />
</svg>