<svg width="28" height="17" viewBox="0 0 28 17" fill="none" xmlns="http://www.w3.org/2000/svg">
  <path
    d="M5.7322 3.3215C10.2984 -1.10717 17.7016 -1.10717 22.2679 3.3215L22.8174 3.85448C23.0457 4.07595 23.0457 4.43494 22.8174 4.6564L20.9375 6.47966C20.8233 6.59039 20.6382 6.59039 20.5241 6.47966L19.7678 5.74622C16.5823 2.65664 11.4176 2.65664 8.23214 5.74622L7.42226 6.53167C7.30814 6.6424 7.12308 6.6424 7.00889 6.53167L5.12903 4.7084C4.90065 4.48694 4.90065 4.12795 5.12903 3.90649L5.7322 3.3215ZM26.1556 7.09226L27.8288 8.71493C28.0571 8.9364 28.0571 9.29539 27.8288 9.51685L20.2846 16.834C20.0563 17.0553 19.6861 17.0553 19.4578 16.834L14.1034 11.6408C14.0463 11.5854 13.9538 11.5854 13.8967 11.6408L8.5424 16.834C8.3141 17.0553 7.9439 17.0553 7.7156 16.834L0.171232 9.51677C-0.0570773 9.29531 -0.0570773 8.93632 0.171232 8.71486L1.84435 7.09211C2.07266 6.87072 2.44282 6.87072 2.67113 7.09211L8.02564 12.2853C8.08266 12.3407 8.17519 12.3407 8.23229 12.2853L13.5865 7.09211C13.8148 6.87072 14.185 6.87072 14.4133 7.09211L19.7678 12.2853C19.8249 12.3407 19.9174 12.3407 19.9745 12.2853L25.3288 7.09226C25.5572 6.8708 25.9273 6.8708 26.1556 7.09226Z"
    fill="#3396FF" />
</svg>