<svg width="121" height="52" viewBox="0 0 121 52" fill="none" xmlns="http://www.w3.org/2000/svg">
  <g opacity="0.3" filter="url(#filter0_f_6001_4735)">
    <ellipse cx="57" cy="28.5" rx="13" ry="13.5" fill="#3396FF" />
  </g>
  <path opacity="0.1"
    d="M83.9609 11.6864C99.0437 3.2831 118.453 8.48393 127.314 23.3029L128.38 25.0863C128.823 25.8273 128.571 26.7685 127.817 27.1887L121.608 30.6483C121.23 30.8584 120.745 30.7284 120.524 30.3579L119.056 27.9037C112.875 17.5656 99.3341 13.9374 88.8119 19.7998L86.1367 21.2901C85.7598 21.5002 85.2746 21.3702 85.053 20.9997L81.4052 14.8988C80.962 14.1578 81.2142 13.2166 81.9686 12.7964L83.9609 11.6864ZM134.858 35.9202L138.105 41.3499C138.548 42.0909 138.296 43.0321 137.541 43.4524L112.622 57.3365C111.868 57.7566 110.897 57.4965 110.454 56.7557L100.064 39.3788C99.9533 39.1934 99.7107 39.1284 99.5221 39.2336L81.8361 49.0875C81.082 49.5076 80.1114 49.2475 79.6684 48.5067L65.0289 24.0225C64.5859 23.2815 64.8381 22.3403 65.5923 21.9201L71.1189 18.8409C71.873 18.4209 72.8435 18.6809 73.2865 19.4218L83.6767 36.7989C83.7873 36.9842 84.0299 37.0492 84.2185 36.9441L101.904 27.0899C102.658 26.6698 103.629 26.9299 104.072 27.6707L114.462 45.0479C114.573 45.2332 114.816 45.2982 115.004 45.1931L132.69 35.3394C133.445 34.9192 134.415 35.1792 134.858 35.9202Z"
    fill="#3396FF" />
  <defs>
    <filter id="filter0_f_6001_4735" x="0" y="-29" width="114" height="115" filterUnits="userSpaceOnUse"
      color-interpolation-filters="sRGB">
      <feFlood flood-opacity="0" result="BackgroundImageFix" />
      <feBlend mode="normal" in="SourceGraphic" in2="BackgroundImageFix" result="shape" />
      <feGaussianBlur stdDeviation="22" result="effect1_foregroundBlur_6001_4735" />
    </filter>
  </defs>
</svg>