<svg width="68" height="68" viewBox="0 0 68 68" fill="none" xmlns="http://www.w3.org/2000/svg">
  <g clip-path="url(#clip0_423_3673)">
    <path
      d="M33.8955 67.7911C52.6156 67.7911 67.7911 52.6156 67.7911 33.8955C67.7911 15.1755 52.6156 0 33.8955 0C15.1755 0 0 15.1755 0 33.8955C0 52.6156 15.1755 67.7911 33.8955 67.7911Z"
      fill="#674031" />
    <path d="M23.7452 15.4071H15.7335V23.4188H23.7452V15.4071Z" fill="#FB8A61" />
    <path
      d="M39.7685 15.8086C38.5351 15.5578 37.2809 15.4234 36.0223 15.4071H28.7525V23.4188H35.874C38.2508 23.4188 40.5743 24.1236 42.5506 25.4441C44.5268 26.7646 46.0671 28.6415 46.9767 30.8374C47.8863 33.0333 48.1243 35.4496 47.6606 37.7808C47.1969 40.112 46.0523 42.2533 44.3716 43.934C42.691 45.6146 40.5497 46.7592 38.2185 47.2229C35.8873 47.6866 33.471 47.4486 31.2751 46.539C29.0792 45.6294 27.2023 44.0891 25.8818 42.1129C24.5613 40.1366 23.8565 37.8131 23.8565 35.4363V28.4261H15.8448V35.4363C15.8438 36.8196 15.9858 38.1993 16.2686 39.5534C18.15 48.5591 26.0801 55.3431 35.6143 55.4655H36.0223C46.9642 55.3264 55.7919 46.4125 55.7919 35.4363C55.7919 25.7462 48.9106 17.6641 39.7685 15.8086Z"
      fill="#FB8A61" />
    <path
      d="M34.7226 42.4266C33.6227 42.2625 32.577 41.841 31.6706 41.1965C30.7506 40.5441 30.0004 39.6805 29.4829 38.6782C28.9655 37.676 28.6959 36.5642 28.6968 35.4363V28.3723H35.7627C36.8748 28.3719 37.9714 28.634 38.9631 29.1373C39.9548 29.6406 40.8138 30.3709 41.47 31.2688C42.1263 32.1667 42.5613 33.2068 42.7397 34.3045C42.9182 35.4022 42.8349 36.5266 42.4969 37.5861C42.1588 38.6456 41.5754 39.6103 40.7941 40.4018C40.0129 41.1933 39.0558 41.7893 38.0008 42.1411C36.9458 42.4929 35.8226 42.5908 34.7226 42.4266Z"
      fill="#FB8A61" />
  </g>
  <defs>
    <clipPath id="clip0_423_3673">
      <rect width="68" height="68" fill="white" />
    </clipPath>
  </defs>
</svg>