<svg width="44" height="44" viewBox="0 0 44 44" fill="none" xmlns="http://www.w3.org/2000/svg">
  <g clip-path="url(#clip0_10369_52568)">
    <path
      d="M22 44C34.1503 44 44 34.1503 44 22C44 9.84973 34.1503 0 22 0C9.84973 0 0 9.84973 0 22C0 34.1503 9.84973 44 22 44Z"
      fill="#674031" />
    <path d="M15.2 10H10V15.2H15.2V10Z" fill="#FB8A61" />
    <path
      d="M25.6 10.2606C24.7995 10.0978 23.9854 10.0106 23.1685 10H18.45V15.2H23.0722C24.6149 15.2 26.123 15.6575 27.4057 16.5145C28.6884 17.3716 29.6881 18.5898 30.2785 20.0151C30.8688 21.4403 31.0233 23.0087 30.7223 24.5217C30.4214 26.0348 29.6785 27.4246 28.5877 28.5154C27.4968 29.6063 26.107 30.3492 24.5939 30.6501C23.0809 30.9511 21.5126 30.7966 20.0873 30.2063C18.662 29.6159 17.4438 28.6161 16.5868 27.3334C15.7297 26.0507 15.2722 24.5427 15.2722 23V18.45H10.0722V23C10.0716 23.8978 10.1638 24.7933 10.3473 25.6722C11.5684 31.5174 16.7155 35.9206 22.9037 36H23.1685C30.2704 35.9097 36 30.1241 36 23C36 16.7106 31.5337 11.4649 25.6 10.2606Z"
      fill="#FB8A61" />
    <path
      d="M22.3249 27.5371C21.611 27.4306 20.9323 27.157 20.344 26.7387C19.7469 26.3152 19.2599 25.7547 18.9241 25.1042C18.5883 24.4537 18.4133 23.7321 18.4139 23V18.4151H23C23.7218 18.4148 24.4335 18.5849 25.0772 18.9116C25.7209 19.2383 26.2784 19.7123 26.7043 20.2951C27.1303 20.8778 27.4126 21.5529 27.5285 22.2654C27.6443 22.9779 27.5903 23.7077 27.3708 24.3953C27.1514 25.083 26.7727 25.7092 26.2657 26.2229C25.7586 26.7366 25.1374 27.1234 24.4526 27.3518C23.7679 27.5801 23.0389 27.6436 22.3249 27.5371Z"
      fill="#FB8A61" />
  </g>
  <defs>
    <clipPath id="clip0_10369_52568">
      <rect width="44" height="44" fill="white" />
    </clipPath>
  </defs>
</svg>