<svg width="156" height="48" viewBox="0 0 156 48" fill="none" xmlns="http://www.w3.org/2000/svg">
  <g filter="url(#filter0_b_7143_1961)">
    <rect width="156" height="48" rx="8" fill="#303043" />
  </g>
  <path
    d="M43.4015 11.7393C46.3994 15.1255 47.7927 19.4708 47.3222 23.97C46.8517 28.4692 44.5833 32.589 40.9245 35.5667C37.2645 38.545 32.6388 40.0316 27.9535 39.7354C23.2508 39.446 19.0067 37.4208 16.0102 34.0339C13.0137 30.6469 11.6191 26.3023 12.0895 21.8031C12.56 17.3039 14.8284 13.1834 18.4872 10.2064C22.1471 7.22783 26.7728 5.74096 31.4583 6.03705C36.1595 6.32645 40.405 8.35155 43.4015 11.7393ZM40.5752 35.1673C44.1178 32.284 46.3161 28.2948 46.7705 23.936C47.2249 19.5772 45.8736 15.3703 42.971 12.0904C40.0683 8.81048 35.9586 6.84851 31.3987 6.56833C26.8609 6.28119 22.3807 7.72103 18.8359 10.6058C15.2933 13.4899 13.0949 17.4784 12.6405 21.8371C12.1862 26.1959 13.5374 30.4028 16.4401 33.6827C19.3427 36.9626 23.4524 38.9239 28.0102 39.2048C32.5482 39.4915 37.0285 38.0518 40.5738 35.1673"
    fill="#4C4C5C" />
  <path
    d="M42.9709 12.0897C45.8736 15.3703 47.2227 19.5773 46.7705 23.9353C46.3182 28.2934 44.1177 32.2833 40.5751 35.1667C37.03 38.0512 32.5496 39.491 28.0115 39.2041C23.4538 38.9204 19.3448 36.9627 16.4414 33.6821C13.538 30.4015 12.1889 26.1995 12.6412 21.8371C13.0935 17.4748 15.2946 13.4892 18.8372 10.6058C22.3817 7.7214 26.8613 6.28158 31.3987 6.56836C35.9586 6.84854 40.0675 8.80909 42.9709 12.0897Z"
    fill="#67677B" />
  <path
    d="M28.4262 32.9778L28.4272 32.9778C31.2166 33.1547 33.9728 32.2673 36.1559 30.4855L28.4262 32.9778ZM28.4262 32.9778C25.622 32.8027 23.1186 31.5983 21.3555 29.6M28.4262 32.9778L21.3555 29.6M30.5736 13.0222L30.5719 13.0221C27.7829 12.8453 25.0272 13.7327 22.8446 15.5144L30.5736 13.0222ZM30.5736 13.0222C33.3783 13.1951 35.8816 14.4009 37.6449 16.3995C39.4061 18.3963 40.2225 20.9486 39.9479 23.6027M30.5736 13.0222L39.9479 23.6027M39.9479 23.6027C39.673 26.2595 38.3358 28.7057 36.156 30.4854L39.9479 23.6027ZM21.3555 29.6C19.5938 27.6032 18.7775 25.0541 19.0521 22.3972M21.3555 29.6L19.0521 22.3972M19.0521 22.3972C19.327 19.7379 20.6645 17.2944 22.8445 15.5145L19.0521 22.3972Z"
    stroke="#4C4C5C" stroke-width="2" />
  <path
    d="M47.4825 20.4709L46.8979 18.2429C47.3847 20.1094 47.5297 22.0512 47.3256 23.9707C47.1876 25.2989 46.8909 26.6052 46.4422 27.861C46.0184 29.0448 45.4651 30.1765 44.7926 31.2355C44.2284 32.1255 43.5863 32.9623 42.8743 33.7359C42.2699 34.3928 41.6194 35.0046 40.928 35.5666C40.7945 35.6754 40.6603 35.7818 40.5254 35.8858V35.8879C39.5718 36.6232 38.551 37.2643 37.4769 37.8025L37.4758 37.7984C37.4756 37.7985 37.476 37.7983 37.4758 37.7984C34.5231 39.2741 31.2409 39.9418 27.9548 39.7353C23.2487 39.4459 19.0053 37.4208 16.0081 34.0338C14.3509 32.1769 13.1528 29.9478 12.5124 27.53L13.097 29.758C13.7375 32.176 14.9356 34.4053 16.5927 36.2625C19.5899 39.6487 23.8333 41.6738 28.5394 41.9632C31.8253 42.1697 35.1073 41.5021 38.0599 40.0267L38.061 40.0311C39.1353 39.4926 40.1562 38.8513 41.11 38.1159L40.5254 35.8858L41.11 38.1138C41.2454 38.0092 41.3796 37.9028 41.5126 37.7946C42.204 37.2326 42.8545 36.6207 43.4589 35.9638C44.1709 35.1903 44.8132 34.3538 45.3779 33.4642C46.0497 32.4047 46.6026 31.2726 47.0266 30.0889C47.4757 28.8333 47.7725 27.5275 47.9102 26.1993C48.1144 24.2794 47.9694 22.3378 47.4825 20.4709Z"
    fill="#4C4C5C" />
  <path
    d="M91.4015 11.7393C94.3994 15.1255 95.7927 19.4708 95.3222 23.97C94.8517 28.4692 92.5833 32.589 88.9245 35.5667C85.2645 38.545 80.6388 40.0316 75.9535 39.7354C71.2508 39.446 67.0067 37.4208 64.0102 34.0339C61.0137 30.6469 59.6191 26.3023 60.0895 21.8031C60.56 17.3039 62.8284 13.1834 66.4872 10.2064C70.1471 7.22783 74.7728 5.74096 79.4583 6.03705C84.1595 6.32645 88.405 8.35155 91.4015 11.7393ZM88.5752 35.1673C92.1178 32.284 94.3161 28.2948 94.7705 23.936C95.2249 19.5772 93.8736 15.3703 90.971 12.0904C88.0683 8.81048 83.9586 6.84851 79.3987 6.56833C74.8609 6.28119 70.3807 7.72103 66.8359 10.6058C63.2933 13.4899 61.0949 17.4784 60.6405 21.8371C60.1862 26.1959 61.5374 30.4028 64.4401 33.6827C67.3427 36.9626 71.4524 38.9239 76.0102 39.2048C80.5482 39.4915 85.0285 38.0518 88.5738 35.1673"
    fill="#4C4C5C" />
  <path
    d="M90.9709 12.0897C93.8736 15.3703 95.2227 19.5773 94.7705 23.9353C94.3182 28.2934 92.1177 32.2833 88.5751 35.1667C85.03 38.0512 80.5496 39.491 76.0115 39.2041C71.4538 38.9204 67.3448 36.9627 64.4414 33.6821C61.538 30.4015 60.1889 26.1995 60.6412 21.8371C61.0935 17.4748 63.2946 13.4892 66.8372 10.6058C70.3817 7.7214 74.8613 6.28158 79.3987 6.56836C83.9586 6.84854 88.0675 8.80909 90.9709 12.0897Z"
    fill="#67677B" />
  <path
    d="M76.4262 32.9778L76.4272 32.9778C79.2166 33.1547 81.9728 32.2673 84.1559 30.4855L76.4262 32.9778ZM76.4262 32.9778C73.622 32.8027 71.1186 31.5983 69.3555 29.6M76.4262 32.9778L69.3555 29.6M78.5736 13.0222L78.5719 13.0221C75.7829 12.8453 73.0272 13.7327 70.8446 15.5144L78.5736 13.0222ZM78.5736 13.0222C81.3783 13.1951 83.8816 14.4009 85.6449 16.3995C87.4061 18.3963 88.2225 20.9486 87.9479 23.6027M78.5736 13.0222L87.9479 23.6027M87.9479 23.6027C87.673 26.2595 86.3358 28.7057 84.156 30.4854L87.9479 23.6027ZM69.3555 29.6C67.5938 27.6032 66.7775 25.0541 67.0521 22.3972M69.3555 29.6L67.0521 22.3972M67.0521 22.3972C67.327 19.7379 68.6645 17.2944 70.8445 15.5145L67.0521 22.3972Z"
    stroke="#4C4C5C" stroke-width="2" />
  <path
    d="M95.4825 20.4709L94.8979 18.2429C95.3847 20.1094 95.5297 22.0512 95.3256 23.9707C95.1876 25.2989 94.8909 26.6052 94.4422 27.861C94.0184 29.0448 93.4651 30.1765 92.7926 31.2355C92.2284 32.1255 91.5863 32.9623 90.8743 33.7359C90.2699 34.3928 89.6194 35.0046 88.928 35.5666C88.7945 35.6754 88.6603 35.7818 88.5254 35.8858V35.8879C87.5718 36.6232 86.551 37.2643 85.4769 37.8025L85.4758 37.7984C85.4756 37.7985 85.476 37.7983 85.4758 37.7984C82.5231 39.2741 79.2409 39.9418 75.9548 39.7353C71.2487 39.4459 67.0053 37.4208 64.0081 34.0338C62.3509 32.1769 61.1528 29.9478 60.5124 27.53L61.097 29.758C61.7375 32.176 62.9356 34.4053 64.5927 36.2625C67.5899 39.6487 71.8333 41.6738 76.5394 41.9632C79.8253 42.1697 83.1073 41.5021 86.0599 40.0267L86.061 40.0311C87.1353 39.4926 88.1562 38.8513 89.11 38.1159L88.5254 35.8858L89.11 38.1138C89.2454 38.0092 89.3796 37.9028 89.5126 37.7946C90.204 37.2326 90.8545 36.6207 91.4589 35.9638C92.1709 35.1903 92.8132 34.3538 93.3779 33.4642C94.0497 32.4047 94.6026 31.2726 95.0266 30.0889C95.4757 28.8333 95.7725 27.5275 95.9102 26.1993C96.1144 24.2794 95.9694 22.3378 95.4825 20.4709Z"
    fill="#4C4C5C" />
  <path
    d="M139.402 11.7393C142.399 15.1255 143.793 19.4708 143.322 23.97C142.852 28.4692 140.583 32.589 136.925 35.5667C133.264 38.545 128.639 40.0316 123.953 39.7354C119.251 39.446 115.007 37.4208 112.01 34.0339C109.014 30.6469 107.619 26.3023 108.09 21.8031C108.56 17.3039 110.828 13.1834 114.487 10.2064C118.147 7.22783 122.773 5.74096 127.458 6.03705C132.16 6.32645 136.405 8.35155 139.402 11.7393ZM136.575 35.1673C140.118 32.284 142.316 28.2948 142.77 23.936C143.225 19.5772 141.874 15.3703 138.971 12.0904C136.068 8.81048 131.959 6.84851 127.399 6.56833C122.861 6.28119 118.381 7.72103 114.836 10.6058C111.293 13.4899 109.095 17.4784 108.641 21.8371C108.186 26.1959 109.537 30.4028 112.44 33.6827C115.343 36.9626 119.452 38.9239 124.01 39.2048C128.548 39.4915 133.029 38.0518 136.574 35.1673"
    fill="#4C4C5C" />
  <path
    d="M138.971 12.0897C141.874 15.3703 143.223 19.5773 142.77 23.9353C142.318 28.2934 140.118 32.2833 136.575 35.1667C133.03 38.0512 128.55 39.491 124.012 39.2041C119.454 38.9204 115.345 36.9627 112.441 33.6821C109.538 30.4015 108.189 26.1995 108.641 21.8371C109.093 17.4748 111.295 13.4892 114.837 10.6058C118.382 7.7214 122.861 6.28158 127.399 6.56836C131.959 6.84854 136.068 8.80909 138.971 12.0897Z"
    fill="#67677B" />
  <path
    d="M124.426 32.9778L124.427 32.9778C127.217 33.1547 129.973 32.2673 132.156 30.4855L124.426 32.9778ZM124.426 32.9778C121.622 32.8027 119.119 31.5983 117.356 29.6M124.426 32.9778L117.356 29.6M126.574 13.0222L126.572 13.0221C123.783 12.8453 121.027 13.7327 118.845 15.5144L126.574 13.0222ZM126.574 13.0222C129.378 13.1951 131.882 14.4009 133.645 16.3995C135.406 18.3963 136.222 20.9486 135.948 23.6027M126.574 13.0222L135.948 23.6027M135.948 23.6027C135.673 26.2595 134.336 28.7057 132.156 30.4854L135.948 23.6027ZM117.356 29.6C115.594 27.6032 114.778 25.0541 115.052 22.3972M117.356 29.6L115.052 22.3972M115.052 22.3972C115.327 19.7379 116.664 17.2944 118.845 15.5145L115.052 22.3972Z"
    stroke="#4C4C5C" stroke-width="2" />
  <path
    d="M143.482 20.4709L142.898 18.2429C143.385 20.1094 143.53 22.0512 143.326 23.9707C143.188 25.2989 142.891 26.6052 142.442 27.861C142.018 29.0448 141.465 30.1765 140.793 31.2355C140.228 32.1255 139.586 32.9623 138.874 33.7359C138.27 34.3928 137.619 35.0046 136.928 35.5666C136.794 35.6754 136.66 35.7818 136.525 35.8858V35.8879C135.572 36.6232 134.551 37.2643 133.477 37.8025L133.476 37.7984C133.476 37.7985 133.476 37.7983 133.476 37.7984C130.523 39.2741 127.241 39.9418 123.955 39.7353C119.249 39.4459 115.005 37.4208 112.008 34.0338C110.351 32.1769 109.153 29.9478 108.512 27.53L109.097 29.758C109.738 32.176 110.936 34.4053 112.593 36.2625C115.59 39.6487 119.833 41.6738 124.539 41.9632C127.825 42.1697 131.107 41.5021 134.06 40.0267L134.061 40.0311C135.135 39.4926 136.156 38.8513 137.11 38.1159L136.525 35.8858L137.11 38.1138C137.245 38.0092 137.38 37.9028 137.513 37.7946C138.204 37.2326 138.854 36.6207 139.459 35.9638C140.171 35.1903 140.813 34.3538 141.378 33.4642C142.05 32.4047 142.603 31.2726 143.027 30.0889C143.476 28.8333 143.773 27.5275 143.91 26.1993C144.114 24.2794 143.969 22.3378 143.482 20.4709Z"
    fill="#4C4C5C" />
  <defs>
    <filter id="filter0_b_7143_1961" x="-18" y="-18" width="192" height="84" filterUnits="userSpaceOnUse"
      color-interpolation-filters="sRGB">
      <feFlood flood-opacity="0" result="BackgroundImageFix" />
      <feGaussianBlur in="BackgroundImageFix" stdDeviation="9" />
      <feComposite in2="SourceAlpha" operator="in" result="effect1_backgroundBlur_7143_1961" />
      <feBlend mode="normal" in="SourceGraphic" in2="effect1_backgroundBlur_7143_1961" result="shape" />
    </filter>
  </defs>
</svg>