<svg width="36" height="36" viewBox="0 0 36 36" fill="none" xmlns="http://www.w3.org/2000/svg">
<path d="M31.4015 5.73926C34.3994 9.12555 35.7927 13.4708 35.3222 17.97C34.8517 22.4692 32.5833 26.589 28.9245 29.5667C25.2645 32.545 20.6388 34.0316 15.9535 33.7354C11.2508 33.446 7.00669 31.4208 4.01019 28.0339C1.0137 24.6469 -0.380933 20.3023 0.0895447 15.8031C0.560023 11.3039 2.8284 7.18343 6.4872 4.20642C10.1471 1.22783 14.7728 -0.259044 19.4583 0.0370464C24.1595 0.326448 28.405 2.35155 31.4015 5.73926ZM28.5752 29.1673C32.1178 26.284 34.3161 22.2948 34.7705 17.936C35.2249 13.5772 33.8736 9.37026 30.971 6.09037C28.0683 2.81048 23.9586 0.848506 19.3987 0.568325C14.8609 0.281191 10.3807 1.72103 6.83586 4.60577C3.29327 7.48986 1.09491 11.4784 0.640536 15.8371C0.18616 20.1959 1.53738 24.4028 4.44006 27.6827C7.34275 30.9626 11.4524 32.9239 16.0102 33.2048C20.5482 33.4915 25.0285 32.0518 28.5738 29.1673" fill="#0C0C17"/>
<path d="M30.9709 6.08969C33.8736 9.37029 35.2228 13.5773 34.7705 17.9353C34.3182 22.2934 32.1177 26.2833 28.5752 29.1667C25.03 32.0512 20.5496 33.491 16.0116 33.2041C11.4538 32.9204 7.34484 30.9627 4.44146 27.6821C1.53808 24.4015 0.188953 20.1995 0.641228 15.8371C1.0935 11.4748 3.29467 7.48918 6.83725 4.6058C10.3817 1.7214 14.8613 0.281583 19.3987 0.568357C23.9586 0.848538 28.0676 2.80909 30.9709 6.08969Z" fill="url(#paint0_linear_2746_880)"/>
<path d="M35.4825 14.471L34.8979 12.243C35.3847 14.1095 35.5297 16.0513 35.3257 17.9708C35.1876 19.299 34.891 20.6053 34.4422 21.8611C34.0184 23.0449 33.4651 24.1766 32.7926 25.2357C32.2284 26.1256 31.5864 26.9624 30.8743 27.736C30.2699 28.3929 29.6194 29.0047 28.928 29.5667C28.7945 29.6755 28.6603 29.7819 28.5254 29.8859V29.8881C27.5719 30.6233 26.551 31.2644 25.4769 31.8026L25.4758 31.7986C25.4756 31.7987 25.476 31.7985 25.4758 31.7986C22.5232 33.2742 19.2409 33.9419 15.9549 33.7354C11.2487 33.446 7.00529 31.4209 4.00809 28.0339C2.35091 26.1771 1.15279 23.948 0.51241 21.5302L1.09701 23.7581C1.73754 26.1761 2.93563 28.4054 4.59269 30.2626C7.58988 33.6489 11.8333 35.674 16.5395 35.9634C19.8253 36.1698 23.1073 35.5022 26.0599 34.0268L26.061 34.0312C27.1353 33.4927 28.1563 32.8514 29.11 32.116L28.5254 29.8859L29.11 32.1139C29.2454 32.0094 29.3796 31.903 29.5126 31.7947C30.204 31.2327 30.8545 30.6209 31.4589 29.9639C32.1709 29.1904 32.8132 28.3539 33.3779 27.4643C34.0497 26.4048 34.6027 25.2727 35.0266 24.089C35.4757 22.8334 35.7725 21.5276 35.9103 20.1995C36.1144 18.2795 35.9694 16.338 35.4825 14.471Z" fill="#0C0C17"/>
<path d="M21.7586 13.8291L21.7571 13.8282C21.3446 13.5826 20.8288 13.5906 20.3858 13.8213L20.378 13.8254L20.3705 13.83L17.7417 15.4439L15.9588 16.4703L15.9587 16.4701L15.951 16.475L13.3687 18.0891C13.1257 18.2327 12.8005 18.2413 12.4949 18.0854L10.4831 16.8181L10.4832 16.8181L10.4778 16.8149C10.2259 16.6649 10.0359 16.3557 10.0359 16.0015V13.5534C10.0359 13.2436 10.1832 12.9336 10.483 12.7368L12.4986 11.516C12.4989 11.5159 12.4991 11.5157 12.4994 11.5156C12.7425 11.3712 13.0684 11.3623 13.3745 11.5184L15.3863 12.7857L15.3863 12.7858L15.3917 12.789C15.6435 12.9389 15.8336 13.2482 15.8336 13.6024V15.2181V15.6608L16.2127 15.4322L17.9986 14.355L18.1195 14.2821V14.1409V12.4763C18.1195 12.0038 17.8918 11.5315 17.4419 11.2386L17.4419 11.2385L17.436 11.2348L13.6762 8.93365L13.6762 8.93364L13.6736 8.93207C13.2611 8.68651 12.7452 8.69442 12.3023 8.92516L12.2948 8.92905L12.2876 8.93344L8.44062 11.2794C7.97281 11.5272 7.75 12.0116 7.75 12.4763V17.0786C7.75 17.5511 7.97765 18.0234 8.42756 18.3163L8.42748 18.3164L8.43464 18.3208L12.2414 20.622L12.2429 20.6228C12.6554 20.8684 13.1712 20.8605 13.6142 20.6297L13.6214 20.626L13.6283 20.6218L16.2127 19.0553L16.2131 19.055L17.9986 17.9782L17.999 17.9779L20.5822 16.4121C20.5825 16.412 20.5827 16.4118 20.583 16.4117C20.8266 16.2671 21.1533 16.2584 21.46 16.4155L23.4736 17.6352L23.4753 17.6362C23.7271 17.7861 23.9171 18.0953 23.9171 18.4496V20.8976C23.9171 21.2078 23.7695 21.5181 23.4689 21.7149L21.4995 22.9361C21.2561 23.0801 20.9298 23.0886 20.6236 22.9316L18.6099 21.712L18.6083 21.711C18.3565 21.5611 18.1664 21.2518 18.1664 20.8976V19.3309V18.8881L17.7873 19.1168L16.0014 20.1939L15.8805 20.2668V20.408V22.0237C15.8805 22.4962 16.1082 22.9685 16.5581 23.2614L16.558 23.2615L16.5652 23.2659L20.372 25.5671L20.3734 25.5679C20.7859 25.8135 21.3018 25.8056 21.7447 25.5748L21.7518 25.5712L21.7586 25.5671L25.5639 23.2667C25.5642 23.2666 25.5645 23.2664 25.5648 23.2662C25.9704 23.0243 26.25 22.5505 26.25 22.0237V17.3724C26.25 16.8999 26.0224 16.4277 25.5724 16.1347L25.5725 16.1346L25.5654 16.1303L21.7586 13.8291Z" fill="#E3D1FF" stroke="#815CBF" stroke-width="0.5"/>
<defs>
<linearGradient id="paint0_linear_2746_880" x1="17.7059" y1="0.532471" x2="17.7059" y2="33.24" gradientUnits="userSpaceOnUse">
<stop stop-color="#B28AF5"/>
<stop offset="1" stop-color="#6D14FE"/>
</linearGradient>
</defs>
</svg>
