<svg width="24" height="20" viewBox="0 0 24 20" fill="none" xmlns="http://www.w3.org/2000/svg">
<path d="M20.317 1.65789C18.7873 0.890525 17.147 0.325164 15.4319 0.00135832C15.4007 -0.00489103 15.3695 0.0107264 15.3534 0.0419621C15.1424 0.452184 14.9087 0.987351 14.7451 1.40799C12.9004 1.10606 11.0652 1.10606 9.25832 1.40799C9.09465 0.978001 8.85248 0.452184 8.64057 0.0419621C8.62449 0.0117686 8.59328 -0.00384885 8.56205 0.00135832C6.84791 0.324129 5.20756 0.88949 3.67693 1.65789C3.66368 1.66414 3.65233 1.67456 3.64479 1.68808C0.533392 6.77013 -0.31895 11.7273 0.0991801 16.6229C0.101072 16.6469 0.11337 16.6698 0.130398 16.6843C2.18321 18.3325 4.17171 19.3331 6.12328 19.9964C6.15451 20.0068 6.18761 19.9943 6.20748 19.9662C6.66913 19.2769 7.08064 18.5502 7.43348 17.7859C7.4543 17.7412 7.43442 17.688 7.39186 17.6703C6.73913 17.3996 6.1176 17.0696 5.51973 16.6948C5.47244 16.6646 5.46865 16.5906 5.51216 16.5552C5.63797 16.4521 5.76382 16.3449 5.88396 16.2366C5.90569 16.2168 5.93598 16.2127 5.96153 16.2252C9.88928 18.1857 14.1415 18.1857 18.023 16.2252C18.0485 16.2116 18.0788 16.2158 18.1015 16.2356C18.2216 16.3439 18.3475 16.4521 18.4742 16.5552C18.5177 16.5906 18.5149 16.6646 18.4676 16.6948C17.8697 17.0769 17.2482 17.3996 16.5945 17.6693C16.552 17.687 16.533 17.7412 16.5538 17.7859C16.9143 18.5491 17.3258 19.2759 17.7789 19.9651C17.7978 19.9943 17.8319 20.0068 17.8631 19.9964C19.8241 19.3331 21.8126 18.3325 23.8654 16.6843C23.8834 16.6698 23.8948 16.6479 23.8967 16.624C24.3971 10.964 23.0585 6.04755 20.3482 1.68912C20.3416 1.67456 20.3303 1.66414 20.317 1.65789ZM8.02002 13.642C6.8375 13.642 5.86313 12.455 5.86313 10.9974C5.86313 9.53969 6.8186 8.35275 8.02002 8.35275C9.23087 8.35275 10.1958 9.55011 10.1769 10.9974C10.1769 12.455 9.22141 13.642 8.02002 13.642ZM15.9947 13.642C14.8123 13.642 13.8379 12.455 13.8379 10.9974C13.8379 9.53969 14.7933 8.35275 15.9947 8.35275C17.2056 8.35275 18.1705 9.55011 18.1516 10.9974C18.1516 12.455 17.2056 13.642 15.9947 13.642Z" fill="#4C4C5C"/>
</svg>
