<svg width="36" height="36" viewBox="0 0 36 36" fill="none" xmlns="http://www.w3.org/2000/svg">
<path d="M31.4015 5.73926C34.3994 9.12555 35.7927 13.4708 35.3222 17.97C34.8517 22.4692 32.5833 26.589 28.9245 29.5667C25.2645 32.545 20.6388 34.0316 15.9535 33.7354C11.2508 33.446 7.00669 31.4208 4.01019 28.0339C1.0137 24.6469 -0.380933 20.3023 0.0895447 15.8031C0.560023 11.3039 2.8284 7.18343 6.4872 4.20642C10.1471 1.22783 14.7728 -0.259044 19.4583 0.0370464C24.1595 0.326448 28.405 2.35155 31.4015 5.73926ZM28.5752 29.1673C32.1178 26.284 34.3161 22.2948 34.7705 17.936C35.2249 13.5772 33.8736 9.37026 30.971 6.09037C28.0683 2.81048 23.9586 0.848506 19.3987 0.568325C14.8609 0.281191 10.3807 1.72103 6.83586 4.60577C3.29327 7.48986 1.09491 11.4784 0.640536 15.8371C0.18616 20.1959 1.53738 24.4028 4.44006 27.6827C7.34275 30.9626 11.4524 32.9239 16.0102 33.2048C20.5482 33.4915 25.0285 32.0518 28.5738 29.1673" fill="#4C4C5C"/>
<path d="M30.971 6.08969C33.8736 9.37029 35.2228 13.5773 34.7705 17.9353C34.3182 22.2934 32.1177 26.2833 28.5752 29.1667C25.03 32.0512 20.5497 33.491 16.0116 33.2041C11.4538 32.9204 7.34484 30.9627 4.44146 27.6821C1.53808 24.4015 0.188957 20.1995 0.641232 15.8371C1.09351 11.4748 3.29467 7.48918 6.83726 4.6058C10.3817 1.7214 14.8613 0.281583 19.3987 0.568357C23.9586 0.848538 28.0676 2.80909 30.971 6.08969Z" fill="#67677B"/>
<path d="M35.4825 14.471L34.8979 12.243C35.3847 14.1095 35.5297 16.0513 35.3257 17.9708C35.1876 19.299 34.891 20.6053 34.4422 21.8611C34.0184 23.0449 33.4651 24.1766 32.7926 25.2357C32.2284 26.1256 31.5864 26.9624 30.8743 27.736C30.2699 28.3929 29.6194 29.0047 28.928 29.5667C28.7945 29.6755 28.6603 29.7819 28.5254 29.8859V29.8881C27.5719 30.6233 26.551 31.2644 25.4769 31.8026L25.4758 31.7986C25.4756 31.7987 25.476 31.7985 25.4758 31.7986C22.5232 33.2742 19.2409 33.9419 15.9549 33.7354C11.2487 33.446 7.00528 31.4209 4.00809 28.0339C2.3509 26.1771 1.15279 23.948 0.512405 21.5302L1.097 23.7581C1.73753 26.1761 2.93562 28.4054 4.59268 30.2626C7.58988 33.6489 11.8333 35.674 16.5395 35.9634C19.8253 36.1698 23.1073 35.5022 26.0599 34.0268L26.061 34.0312C27.1353 33.4927 28.1562 32.8514 29.11 32.116L28.5254 29.8859L29.11 32.1139C29.2454 32.0094 29.3796 31.903 29.5126 31.7947C30.204 31.2327 30.8545 30.6209 31.4589 29.9639C32.1709 29.1904 32.8132 28.3539 33.3779 27.4643C34.0497 26.4048 34.6027 25.2727 35.0266 24.089C35.4757 22.8334 35.7725 21.5276 35.9103 20.1995C36.1144 18.2795 35.9694 16.338 35.4825 14.471Z" fill="#4C4C5C"/>
<path d="M16.4262 26.9778L16.4272 26.9778C19.2166 27.1547 21.9728 26.2673 24.1559 24.4855L16.4262 26.9778ZM16.4262 26.9778C13.622 26.8027 11.1186 25.5983 9.35552 23.6C7.5938 21.6032 6.77753 19.0541 7.05214 16.3972C7.32699 13.7379 8.66445 11.2944 10.8445 9.5145C13.0272 7.73276 15.7829 6.84532 18.5719 7.02214L18.5736 7.02224M16.4262 26.9778L18.5736 7.02224M18.5736 7.02224C21.3782 7.19511 23.8816 8.4009 25.6449 10.3994C27.4061 12.3962 28.2225 14.9486 27.9479 17.6027M18.5736 7.02224L27.9479 17.6027M27.9479 17.6027C27.673 20.2595 26.3358 22.7057 24.156 24.4854L27.9479 17.6027Z" stroke="#4C4C5C" stroke-width="2"/>
</svg>
