<svg width="754" height="188" viewBox="0 0 754 188" fill="none" xmlns="http://www.w3.org/2000/svg">
    <rect x="396" width="380" height="80" rx="6.14141" fill="#1B1B29"/>
    <mask id="mask0_1453_3052" style="mask-type:alpha" maskUnits="userSpaceOnUse" x="396" y="0" width="380" height="80">
        <rect x="396" width="380" height="80" rx="6" fill="#161623"/>
    </mask>
    <g mask="url(#mask0_1453_3052)">
        <rect x="422.869" y="33.2675" width="344.687" height="6.33663" rx="3.16832" fill="#303043"/>
        <rect x="422.869" y="45.9406" width="344.687" height="6.33663" rx="3.16832" fill="#303043"/>
        <rect x="422.869" y="58.6139" width="275.596" height="6.33663" rx="3.16832" fill="#303043"/>
        <rect x="680.808" y="7.12878" width="86.7475" height="18.2178" rx="4.60606" fill="#303043"/>
        <rect x="422.869" y="19.01" width="90.5859" height="6.33663" rx="3.16832" fill="#303043"/>
        <rect x="422.869" y="7.52478" width="56.0404" height="6.33663" rx="3.16832" fill="#303043"/>
        <path d="M409.818 24.9505C414.482 24.9505 418.263 21.0497 418.263 16.2377C418.263 11.4257 414.482 7.52478 409.818 7.52478C405.154 7.52478 401.374 11.4257 401.374 16.2377C401.374 21.0497 405.154 24.9505 409.818 24.9505Z" fill="#303043"/>
        <rect x="639.737" y="7.12878" width="34.9293" height="18.2178" rx="4.60606" fill="#303043"/>
        <path d="M660.853 12.2773L657.854 14.7526L658.411 13.2938L660.853 12.2773Z" fill="#4C4C5C" stroke="#303043" stroke-width="0.0959596" stroke-linecap="round" stroke-linejoin="round"/>
        <path d="M653.935 12.2773L656.907 14.7757L656.376 13.2938L653.935 12.2773Z" fill="#4C4C5C" stroke="#303043" stroke-width="0.0959596" stroke-linecap="round" stroke-linejoin="round"/>
        <path d="M659.773 18.0166L658.975 19.3763L660.683 19.9011L661.173 18.0463L659.773 18.0166Z" fill="#4C4C5C" stroke="#303043" stroke-width="0.0959596" stroke-linecap="round" stroke-linejoin="round"/>
        <path d="M653.618 18.0463L654.104 19.9011L655.81 19.3763L655.015 18.0166L653.618 18.0463Z" fill="#4C4C5C" stroke="#303043" stroke-width="0.0959596" stroke-linecap="round" stroke-linejoin="round"/>
        <path d="M655.718 15.7195L655.243 16.5182L656.934 16.604L656.878 14.5743L655.718 15.7195Z" fill="#4C4C5C" stroke="#303043" stroke-width="0.0959596" stroke-linecap="round" stroke-linejoin="round"/>
        <path d="M659.07 15.7195L657.892 14.5511L657.854 16.604L659.544 16.5181L659.07 15.7195Z" fill="#4C4C5C" stroke="#303043" stroke-width="0.0959596" stroke-linecap="round" stroke-linejoin="round"/>
        <path d="M655.81 19.3763L656.833 18.8251L655.952 18.0594L655.81 19.3763Z" fill="#4C4C5C" stroke="#303043" stroke-width="0.0959596" stroke-linecap="round" stroke-linejoin="round"/>
        <path d="M657.955 18.8251L658.975 19.3763L658.836 18.0594L657.955 18.8251Z" fill="#4C4C5C" stroke="#303043" stroke-width="0.0959596" stroke-linecap="round" stroke-linejoin="round"/>
        <path d="M658.975 19.3762L657.955 18.8251L658.038 19.5643L658.029 19.8779L658.975 19.3762Z" fill="#4C4C5C" stroke="#303043" stroke-width="0.0959596" stroke-linecap="round" stroke-linejoin="round"/>
        <path d="M655.81 19.3762L656.759 19.8779L656.753 19.5643L656.833 18.8251L655.81 19.3762Z" fill="#4C4C5C" stroke="#303043" stroke-width="0.0959596" stroke-linecap="round" stroke-linejoin="round"/>
        <path d="M656.777 17.571L655.929 17.2938L656.528 16.9868L656.777 17.571Z" fill="#4C4C5C" stroke="#303043" stroke-width="0.0959596" stroke-linecap="round" stroke-linejoin="round"/>
        <path d="M658.011 17.571L658.26 16.9868L658.862 17.2938L658.011 17.571Z" fill="#4C4C5C" stroke="#303043" stroke-width="0.0959596" stroke-linecap="round" stroke-linejoin="round"/>
        <path d="M655.81 19.3763L655.958 18.0166L655.015 18.0463L655.81 19.3763Z" fill="#4C4C5C" stroke="#303043" stroke-width="0.0959596" stroke-linecap="round" stroke-linejoin="round"/>
        <path d="M658.83 18.0166L658.975 19.3763L659.773 18.0463L658.83 18.0166Z" fill="#4C4C5C" stroke="#303043" stroke-width="0.0959596" stroke-linecap="round" stroke-linejoin="round"/>
        <path d="M659.544 16.5182L657.854 16.604L658.011 17.571L658.26 16.9868L658.862 17.2938L659.544 16.5182Z" fill="#4C4C5C" stroke="#303043" stroke-width="0.0959596" stroke-linecap="round" stroke-linejoin="round"/>
        <path d="M655.929 17.2938L656.528 16.9868L656.777 17.571L656.934 16.604L655.243 16.5182L655.929 17.2938Z" fill="#4C4C5C" stroke="#303043" stroke-width="0.0959596" stroke-linecap="round" stroke-linejoin="round"/>
        <path d="M655.243 16.5182L655.952 18.0595L655.929 17.2938L655.243 16.5182Z" fill="#4C4C5C" stroke="#303043" stroke-width="0.0959596" stroke-linecap="round" stroke-linejoin="round"/>
        <path d="M658.862 17.2938L658.836 18.0595L659.545 16.5182L658.862 17.2938Z" fill="#4C4C5C" stroke="#303043" stroke-width="0.0959596" stroke-linecap="round" stroke-linejoin="round"/>
        <path d="M656.934 16.6039L656.777 17.5709L656.976 18.7128L657.02 17.2079L656.934 16.6039Z" fill="#4C4C5C" stroke="#303043" stroke-width="0.0959596" stroke-linecap="round" stroke-linejoin="round"/>
        <path d="M657.854 16.6039L657.771 17.2046L657.812 18.7128L658.011 17.5709L657.854 16.6039Z" fill="#4C4C5C" stroke="#303043" stroke-width="0.0959596" stroke-linecap="round" stroke-linejoin="round"/>
        <path d="M658.011 17.5711L657.812 18.713L657.955 18.8252L658.836 18.0595L658.862 17.2938L658.011 17.5711Z" fill="#4C4C5C" stroke="#303043" stroke-width="0.0959596" stroke-linecap="round" stroke-linejoin="round"/>
        <path d="M655.929 17.2938L655.952 18.0595L656.833 18.8252L656.976 18.713L656.777 17.5711L655.929 17.2938Z" fill="#4C4C5C" stroke="#303043" stroke-width="0.0959596" stroke-linecap="round" stroke-linejoin="round"/>
        <path d="M658.029 19.8779L658.038 19.5643L657.961 19.4917H656.827L656.753 19.5643L656.759 19.8779L655.81 19.3762L656.142 19.6798L656.816 20.198H657.969L658.646 19.6798L658.975 19.3762L658.029 19.8779Z" fill="#4C4C5C" stroke="#303043" stroke-width="0.0959596" stroke-linecap="round" stroke-linejoin="round"/>
        <path d="M657.955 18.8251L657.812 18.7129H656.976L656.833 18.8251L656.753 19.5644L656.827 19.4918H657.96L658.038 19.5644L657.955 18.8251Z" fill="#4C4C5C" stroke="#303043" stroke-width="0.0959596" stroke-linecap="round" stroke-linejoin="round"/>
        <path d="M660.98 14.9143L661.232 13.548L660.853 12.2773L657.955 14.6701L659.07 15.7196L660.645 16.2311L660.992 15.779L660.841 15.6569L661.081 15.4127L660.897 15.2542L661.137 15.0496L660.98 14.9143Z" fill="#4C4C5C" stroke="#303043" stroke-width="0.0959596" stroke-linecap="round" stroke-linejoin="round"/>
        <path d="M653.556 13.548L653.811 14.9143L653.647 15.0496L653.891 15.2542L653.707 15.4127L653.947 15.6569L653.796 15.779L654.143 16.2311L655.718 15.7196L656.833 14.6701L653.935 12.2773L653.556 13.548Z" fill="#4C4C5C" stroke="#303043" stroke-width="0.0959596" stroke-linecap="round" stroke-linejoin="round"/>
        <path d="M660.645 16.231L659.07 15.7195L659.545 16.5182L658.836 18.0594L659.773 18.0462H661.173L660.645 16.231Z" fill="#4C4C5C" stroke="#303043" stroke-width="0.0959596" stroke-linecap="round" stroke-linejoin="round"/>
        <path d="M655.718 15.7195L654.143 16.231L653.618 18.0462H655.015L655.952 18.0594L655.243 16.5182L655.718 15.7195Z" fill="#4C4C5C" stroke="#303043" stroke-width="0.0959596" stroke-linecap="round" stroke-linejoin="round"/>
        <path d="M657.854 16.6041L657.955 14.67L658.411 13.2938H656.376L656.833 14.67L656.934 16.6041L656.973 17.2113L656.976 18.713H657.812L657.815 17.2113L657.854 16.6041Z" fill="#4C4C5C" stroke="#303043" stroke-width="0.0959596" stroke-linecap="round" stroke-linejoin="round"/>
    </g>
    <rect width="380" height="80" rx="6.14141" fill="#1B1B29"/>
    <mask id="mask1_1453_3052" style="mask-type:alpha" maskUnits="userSpaceOnUse" x="0" y="0" width="380" height="80">
        <rect width="380" height="80" rx="6" fill="#161623"/>
    </mask>
    <g mask="url(#mask1_1453_3052)">
        <rect x="26.8687" y="33.2675" width="344.687" height="6.33663" rx="3.16832" fill="#303043"/>
        <rect x="26.8687" y="45.9406" width="344.687" height="6.33663" rx="3.16832" fill="#303043"/>
        <rect x="26.8687" y="58.6139" width="275.596" height="6.33663" rx="3.16832" fill="#303043"/>
        <rect x="284.808" y="7.12878" width="86.7475" height="18.2178" rx="4.60606" fill="#303043"/>
        <rect x="26.8687" y="19.01" width="90.5859" height="6.33663" rx="3.16832" fill="#303043"/>
        <rect x="26.8687" y="7.52478" width="56.0404" height="6.33663" rx="3.16832" fill="#303043"/>
        <path d="M13.8181 24.9505C18.4819 24.9505 22.2625 21.0497 22.2625 16.2377C22.2625 11.4257 18.4819 7.52478 13.8181 7.52478C9.15436 7.52478 5.37366 11.4257 5.37366 16.2377C5.37366 21.0497 9.15436 24.9505 13.8181 24.9505Z" fill="#303043"/>
        <rect x="243.737" y="7.12878" width="34.9293" height="18.2178" rx="4.60606" fill="#303043"/>
        <path d="M264.853 12.2773L261.854 14.7526L262.411 13.2938L264.853 12.2773Z" fill="#4C4C5C" stroke="#303043" stroke-width="0.0959596" stroke-linecap="round" stroke-linejoin="round"/>
        <path d="M257.935 12.2773L260.907 14.7757L260.376 13.2938L257.935 12.2773Z" fill="#4C4C5C" stroke="#303043" stroke-width="0.0959596" stroke-linecap="round" stroke-linejoin="round"/>
        <path d="M263.773 18.0166L262.975 19.3763L264.683 19.9011L265.173 18.0463L263.773 18.0166Z" fill="#4C4C5C" stroke="#303043" stroke-width="0.0959596" stroke-linecap="round" stroke-linejoin="round"/>
        <path d="M257.618 18.0463L258.104 19.9011L259.81 19.3763L259.015 18.0166L257.618 18.0463Z" fill="#4C4C5C" stroke="#303043" stroke-width="0.0959596" stroke-linecap="round" stroke-linejoin="round"/>
        <path d="M259.718 15.7195L259.243 16.5182L260.934 16.604L260.878 14.5743L259.718 15.7195Z" fill="#4C4C5C" stroke="#303043" stroke-width="0.0959596" stroke-linecap="round" stroke-linejoin="round"/>
        <path d="M263.07 15.7195L261.892 14.5511L261.854 16.604L263.544 16.5181L263.07 15.7195Z" fill="#4C4C5C" stroke="#303043" stroke-width="0.0959596" stroke-linecap="round" stroke-linejoin="round"/>
        <path d="M259.81 19.3763L260.833 18.8251L259.952 18.0594L259.81 19.3763Z" fill="#4C4C5C" stroke="#303043" stroke-width="0.0959596" stroke-linecap="round" stroke-linejoin="round"/>
        <path d="M261.955 18.8251L262.975 19.3763L262.836 18.0594L261.955 18.8251Z" fill="#4C4C5C" stroke="#303043" stroke-width="0.0959596" stroke-linecap="round" stroke-linejoin="round"/>
        <path d="M262.975 19.3762L261.955 18.8251L262.038 19.5643L262.029 19.8779L262.975 19.3762Z" fill="#4C4C5C" stroke="#303043" stroke-width="0.0959596" stroke-linecap="round" stroke-linejoin="round"/>
        <path d="M259.81 19.3762L260.759 19.8779L260.753 19.5643L260.833 18.8251L259.81 19.3762Z" fill="#4C4C5C" stroke="#303043" stroke-width="0.0959596" stroke-linecap="round" stroke-linejoin="round"/>
        <path d="M260.777 17.571L259.929 17.2938L260.528 16.9868L260.777 17.571Z" fill="#4C4C5C" stroke="#303043" stroke-width="0.0959596" stroke-linecap="round" stroke-linejoin="round"/>
        <path d="M262.011 17.571L262.26 16.9868L262.862 17.2938L262.011 17.571Z" fill="#4C4C5C" stroke="#303043" stroke-width="0.0959596" stroke-linecap="round" stroke-linejoin="round"/>
        <path d="M259.81 19.3763L259.958 18.0166L259.015 18.0463L259.81 19.3763Z" fill="#4C4C5C" stroke="#303043" stroke-width="0.0959596" stroke-linecap="round" stroke-linejoin="round"/>
        <path d="M262.83 18.0166L262.975 19.3763L263.773 18.0463L262.83 18.0166Z" fill="#4C4C5C" stroke="#303043" stroke-width="0.0959596" stroke-linecap="round" stroke-linejoin="round"/>
        <path d="M263.544 16.5182L261.854 16.604L262.011 17.571L262.26 16.9868L262.862 17.2938L263.544 16.5182Z" fill="#4C4C5C" stroke="#303043" stroke-width="0.0959596" stroke-linecap="round" stroke-linejoin="round"/>
        <path d="M259.929 17.2938L260.528 16.9868L260.777 17.571L260.934 16.604L259.243 16.5182L259.929 17.2938Z" fill="#4C4C5C" stroke="#303043" stroke-width="0.0959596" stroke-linecap="round" stroke-linejoin="round"/>
        <path d="M259.243 16.5182L259.952 18.0595L259.929 17.2938L259.243 16.5182Z" fill="#4C4C5C" stroke="#303043" stroke-width="0.0959596" stroke-linecap="round" stroke-linejoin="round"/>
        <path d="M262.862 17.2938L262.836 18.0595L263.545 16.5182L262.862 17.2938Z" fill="#4C4C5C" stroke="#303043" stroke-width="0.0959596" stroke-linecap="round" stroke-linejoin="round"/>
        <path d="M260.934 16.6039L260.777 17.5709L260.976 18.7128L261.02 17.2079L260.934 16.6039Z" fill="#4C4C5C" stroke="#303043" stroke-width="0.0959596" stroke-linecap="round" stroke-linejoin="round"/>
        <path d="M261.854 16.6039L261.771 17.2046L261.812 18.7128L262.011 17.5709L261.854 16.6039Z" fill="#4C4C5C" stroke="#303043" stroke-width="0.0959596" stroke-linecap="round" stroke-linejoin="round"/>
        <path d="M262.011 17.5711L261.812 18.713L261.955 18.8252L262.836 18.0595L262.862 17.2938L262.011 17.5711Z" fill="#4C4C5C" stroke="#303043" stroke-width="0.0959596" stroke-linecap="round" stroke-linejoin="round"/>
        <path d="M259.929 17.2938L259.952 18.0595L260.833 18.8252L260.976 18.713L260.777 17.5711L259.929 17.2938Z" fill="#4C4C5C" stroke="#303043" stroke-width="0.0959596" stroke-linecap="round" stroke-linejoin="round"/>
        <path d="M262.029 19.8779L262.038 19.5643L261.961 19.4917H260.827L260.753 19.5643L260.759 19.8779L259.81 19.3762L260.142 19.6798L260.816 20.198H261.969L262.646 19.6798L262.975 19.3762L262.029 19.8779Z" fill="#4C4C5C" stroke="#303043" stroke-width="0.0959596" stroke-linecap="round" stroke-linejoin="round"/>
        <path d="M261.955 18.8251L261.812 18.7129H260.976L260.833 18.8251L260.753 19.5644L260.827 19.4918H261.96L262.038 19.5644L261.955 18.8251Z" fill="#4C4C5C" stroke="#303043" stroke-width="0.0959596" stroke-linecap="round" stroke-linejoin="round"/>
        <path d="M264.98 14.9143L265.232 13.548L264.853 12.2773L261.955 14.6701L263.07 15.7196L264.645 16.2311L264.992 15.779L264.841 15.6569L265.081 15.4127L264.897 15.2542L265.137 15.0496L264.98 14.9143Z" fill="#4C4C5C" stroke="#303043" stroke-width="0.0959596" stroke-linecap="round" stroke-linejoin="round"/>
        <path d="M257.556 13.548L257.811 14.9143L257.647 15.0496L257.891 15.2542L257.707 15.4127L257.947 15.6569L257.796 15.779L258.143 16.2311L259.718 15.7196L260.833 14.6701L257.935 12.2773L257.556 13.548Z" fill="#4C4C5C" stroke="#303043" stroke-width="0.0959596" stroke-linecap="round" stroke-linejoin="round"/>
        <path d="M264.645 16.231L263.07 15.7195L263.545 16.5182L262.836 18.0594L263.773 18.0462H265.173L264.645 16.231Z" fill="#4C4C5C" stroke="#303043" stroke-width="0.0959596" stroke-linecap="round" stroke-linejoin="round"/>
        <path d="M259.718 15.7195L258.143 16.231L257.618 18.0462H259.015L259.952 18.0594L259.243 16.5182L259.718 15.7195Z" fill="#4C4C5C" stroke="#303043" stroke-width="0.0959596" stroke-linecap="round" stroke-linejoin="round"/>
        <path d="M261.854 16.6041L261.955 14.67L262.411 13.2938H260.376L260.833 14.67L260.934 16.6041L260.973 17.2113L260.976 18.713H261.812L261.815 17.2113L261.854 16.6041Z" fill="#4C4C5C" stroke="#303043" stroke-width="0.0959596" stroke-linecap="round" stroke-linejoin="round"/>
    </g>
    <rect x="446" y="108" width="380" height="80" rx="6.14141" fill="#1B1B29"/>
    <mask id="mask2_1453_3052" style="mask-type:alpha" maskUnits="userSpaceOnUse" x="446" y="108" width="380" height="80">
        <rect x="446" y="108" width="380" height="80" rx="6" fill="#161623"/>
    </mask>
    <g mask="url(#mask2_1453_3052)">
        <rect x="472.869" y="141.267" width="344.687" height="6.33663" rx="3.16832" fill="#303043"/>
        <rect x="472.869" y="153.941" width="344.687" height="6.33663" rx="3.16832" fill="#303043"/>
        <rect x="472.869" y="166.614" width="275.596" height="6.33663" rx="3.16832" fill="#303043"/>
        <rect x="730.808" y="115.129" width="86.7475" height="18.2178" rx="4.60606" fill="#303043"/>
        <rect x="472.869" y="127.01" width="90.5859" height="6.33663" rx="3.16832" fill="#303043"/>
        <rect x="472.869" y="115.525" width="56.0404" height="6.33663" rx="3.16832" fill="#303043"/>
        <path d="M459.818 132.951C464.482 132.951 468.263 129.05 468.263 124.238C468.263 119.426 464.482 115.525 459.818 115.525C455.154 115.525 451.374 119.426 451.374 124.238C451.374 129.05 455.154 132.951 459.818 132.951Z" fill="#303043"/>
        <rect x="689.737" y="115.129" width="34.9293" height="18.2178" rx="4.60606" fill="#303043"/>
        <path d="M710.853 120.277L707.854 122.753L708.411 121.294L710.853 120.277Z" fill="#4C4C5C" stroke="#303043" stroke-width="0.0959596" stroke-linecap="round" stroke-linejoin="round"/>
        <path d="M703.935 120.277L706.907 122.776L706.376 121.294L703.935 120.277Z" fill="#4C4C5C" stroke="#303043" stroke-width="0.0959596" stroke-linecap="round" stroke-linejoin="round"/>
        <path d="M709.773 126.017L708.975 127.376L710.683 127.901L711.173 126.046L709.773 126.017Z" fill="#4C4C5C" stroke="#303043" stroke-width="0.0959596" stroke-linecap="round" stroke-linejoin="round"/>
        <path d="M703.618 126.046L704.104 127.901L705.81 127.376L705.015 126.017L703.618 126.046Z" fill="#4C4C5C" stroke="#303043" stroke-width="0.0959596" stroke-linecap="round" stroke-linejoin="round"/>
        <path d="M705.718 123.72L705.243 124.518L706.934 124.604L706.878 122.574L705.718 123.72Z" fill="#4C4C5C" stroke="#303043" stroke-width="0.0959596" stroke-linecap="round" stroke-linejoin="round"/>
        <path d="M709.07 123.719L707.892 122.551L707.854 124.604L709.544 124.518L709.07 123.719Z" fill="#4C4C5C" stroke="#303043" stroke-width="0.0959596" stroke-linecap="round" stroke-linejoin="round"/>
        <path d="M705.81 127.376L706.833 126.825L705.952 126.059L705.81 127.376Z" fill="#4C4C5C" stroke="#303043" stroke-width="0.0959596" stroke-linecap="round" stroke-linejoin="round"/>
        <path d="M707.955 126.825L708.975 127.376L708.836 126.059L707.955 126.825Z" fill="#4C4C5C" stroke="#303043" stroke-width="0.0959596" stroke-linecap="round" stroke-linejoin="round"/>
        <path d="M708.975 127.376L707.955 126.825L708.038 127.564L708.029 127.878L708.975 127.376Z" fill="#4C4C5C" stroke="#303043" stroke-width="0.0959596" stroke-linecap="round" stroke-linejoin="round"/>
        <path d="M705.81 127.376L706.759 127.878L706.753 127.564L706.833 126.825L705.81 127.376Z" fill="#4C4C5C" stroke="#303043" stroke-width="0.0959596" stroke-linecap="round" stroke-linejoin="round"/>
        <path d="M706.777 125.571L705.929 125.294L706.528 124.987L706.777 125.571Z" fill="#4C4C5C" stroke="#303043" stroke-width="0.0959596" stroke-linecap="round" stroke-linejoin="round"/>
        <path d="M708.011 125.571L708.26 124.987L708.862 125.294L708.011 125.571Z" fill="#4C4C5C" stroke="#303043" stroke-width="0.0959596" stroke-linecap="round" stroke-linejoin="round"/>
        <path d="M705.81 127.376L705.958 126.017L705.015 126.046L705.81 127.376Z" fill="#4C4C5C" stroke="#303043" stroke-width="0.0959596" stroke-linecap="round" stroke-linejoin="round"/>
        <path d="M708.83 126.017L708.975 127.376L709.773 126.046L708.83 126.017Z" fill="#4C4C5C" stroke="#303043" stroke-width="0.0959596" stroke-linecap="round" stroke-linejoin="round"/>
        <path d="M709.544 124.518L707.854 124.604L708.011 125.571L708.26 124.987L708.862 125.294L709.544 124.518Z" fill="#4C4C5C" stroke="#303043" stroke-width="0.0959596" stroke-linecap="round" stroke-linejoin="round"/>
        <path d="M705.929 125.294L706.528 124.987L706.777 125.571L706.934 124.604L705.243 124.518L705.929 125.294Z" fill="#4C4C5C" stroke="#303043" stroke-width="0.0959596" stroke-linecap="round" stroke-linejoin="round"/>
        <path d="M705.243 124.518L705.952 126.059L705.929 125.294L705.243 124.518Z" fill="#4C4C5C" stroke="#303043" stroke-width="0.0959596" stroke-linecap="round" stroke-linejoin="round"/>
        <path d="M708.862 125.294L708.836 126.059L709.545 124.518L708.862 125.294Z" fill="#4C4C5C" stroke="#303043" stroke-width="0.0959596" stroke-linecap="round" stroke-linejoin="round"/>
        <path d="M706.934 124.604L706.777 125.571L706.976 126.713L707.02 125.208L706.934 124.604Z" fill="#4C4C5C" stroke="#303043" stroke-width="0.0959596" stroke-linecap="round" stroke-linejoin="round"/>
        <path d="M707.854 124.604L707.771 125.205L707.812 126.713L708.011 125.571L707.854 124.604Z" fill="#4C4C5C" stroke="#303043" stroke-width="0.0959596" stroke-linecap="round" stroke-linejoin="round"/>
        <path d="M708.011 125.571L707.812 126.713L707.955 126.825L708.836 126.06L708.862 125.294L708.011 125.571Z" fill="#4C4C5C" stroke="#303043" stroke-width="0.0959596" stroke-linecap="round" stroke-linejoin="round"/>
        <path d="M705.929 125.294L705.952 126.06L706.833 126.825L706.976 126.713L706.777 125.571L705.929 125.294Z" fill="#4C4C5C" stroke="#303043" stroke-width="0.0959596" stroke-linecap="round" stroke-linejoin="round"/>
        <path d="M708.029 127.878L708.038 127.564L707.961 127.492H706.827L706.753 127.564L706.759 127.878L705.81 127.376L706.142 127.68L706.816 128.198H707.969L708.646 127.68L708.975 127.376L708.029 127.878Z" fill="#4C4C5C" stroke="#303043" stroke-width="0.0959596" stroke-linecap="round" stroke-linejoin="round"/>
        <path d="M707.955 126.825L707.812 126.713H706.976L706.833 126.825L706.753 127.564L706.827 127.492H707.96L708.038 127.564L707.955 126.825Z" fill="#4C4C5C" stroke="#303043" stroke-width="0.0959596" stroke-linecap="round" stroke-linejoin="round"/>
        <path d="M710.98 122.914L711.232 121.548L710.853 120.277L707.955 122.67L709.07 123.72L710.645 124.231L710.992 123.779L710.841 123.657L711.081 123.413L710.897 123.254L711.137 123.05L710.98 122.914Z" fill="#4C4C5C" stroke="#303043" stroke-width="0.0959596" stroke-linecap="round" stroke-linejoin="round"/>
        <path d="M703.556 121.548L703.811 122.914L703.647 123.05L703.891 123.254L703.707 123.413L703.947 123.657L703.796 123.779L704.143 124.231L705.718 123.72L706.833 122.67L703.935 120.277L703.556 121.548Z" fill="#4C4C5C" stroke="#303043" stroke-width="0.0959596" stroke-linecap="round" stroke-linejoin="round"/>
        <path d="M710.645 124.231L709.07 123.719L709.545 124.518L708.836 126.059L709.773 126.046H711.173L710.645 124.231Z" fill="#4C4C5C" stroke="#303043" stroke-width="0.0959596" stroke-linecap="round" stroke-linejoin="round"/>
        <path d="M705.718 123.719L704.143 124.231L703.618 126.046H705.015L705.952 126.059L705.243 124.518L705.718 123.719Z" fill="#4C4C5C" stroke="#303043" stroke-width="0.0959596" stroke-linecap="round" stroke-linejoin="round"/>
        <path d="M707.854 124.604L707.955 122.67L708.411 121.294H706.376L706.833 122.67L706.934 124.604L706.973 125.211L706.976 126.713H707.812L707.815 125.211L707.854 124.604Z" fill="#4C4C5C" stroke="#303043" stroke-width="0.0959596" stroke-linecap="round" stroke-linejoin="round"/>
    </g>
    <rect x="50" y="108" width="380" height="80" rx="6.14141" fill="#1B1B29"/>
    <mask id="mask3_1453_3052" style="mask-type:alpha" maskUnits="userSpaceOnUse" x="35" y="109" width="394" height="79">
        <path d="M35.4564 116.191C34.7036 112.474 37.5448 109 41.337 109H409.093C411.948 109 414.407 111.011 414.974 113.809L428.544 180.809C429.296 184.526 426.455 188 422.663 188H54.9066C52.052 188 49.5927 185.989 49.026 183.191L35.4564 116.191Z" fill="#161623"/>
    </mask>
    <g mask="url(#mask3_1453_3052)">
        <rect x="76.8687" y="141.267" width="344.687" height="6.33663" rx="3.16832" fill="#303043"/>
        <rect x="76.8687" y="153.941" width="344.687" height="6.33663" rx="3.16832" fill="#303043"/>
        <rect x="76.8687" y="166.614" width="275.596" height="6.33663" rx="3.16832" fill="#303043"/>
        <rect x="334.808" y="115.129" width="86.7475" height="18.2178" rx="4.60606" fill="#303043"/>
        <rect x="76.8687" y="127.01" width="90.5859" height="6.33663" rx="3.16832" fill="#303043"/>
        <rect x="76.8687" y="115.525" width="56.0404" height="6.33663" rx="3.16832" fill="#303043"/>
        <g opacity="0.7" clip-path="url(#clip0_1453_3052)">
            <path d="M64 132C68.4183 132 72 128.418 72 124C72 119.582 68.4183 116 64 116C59.5817 116 56 119.582 56 124C56 128.418 59.5817 132 64 132Z" fill="#674031"/>
            <path d="M61.5273 119.636H59.6364V121.527H61.5273V119.636Z" fill="#FB8A61"/>
            <path d="M65.3091 119.731C65.018 119.672 64.7219 119.64 64.4249 119.636H62.7091V121.527H64.3899C64.9509 121.527 65.4992 121.694 65.9657 122.005C66.4321 122.317 66.7957 122.76 67.0103 123.278C67.225 123.796 67.2812 124.367 67.1718 124.917C67.0623 125.467 66.7922 125.973 66.3955 126.369C65.9988 126.766 65.4934 127.036 64.9432 127.145C64.393 127.255 63.8227 127.199 63.3045 126.984C62.7862 126.769 62.3432 126.406 62.0315 125.939C61.7199 125.473 61.5535 124.925 61.5535 124.364V122.709H59.6626V124.364C59.6624 124.69 59.6959 125.016 59.7626 125.335C60.2067 127.461 62.0783 129.062 64.3286 129.091H64.4249C67.0074 129.058 69.0909 126.954 69.0909 124.364C69.0909 122.077 67.4668 120.169 65.3091 119.731Z" fill="#FB8A61"/>
            <path d="M64.1181 126.013C63.8585 125.975 63.6117 125.875 63.3978 125.723C63.1807 125.569 63.0036 125.365 62.8815 125.129C62.7594 124.892 62.6957 124.63 62.6959 124.364V122.696H64.3636C64.6261 122.696 64.8849 122.758 65.119 122.877C65.3531 122.996 65.5558 123.168 65.7107 123.38C65.8655 123.592 65.9682 123.837 66.0103 124.097C66.0524 124.356 66.0328 124.621 65.953 124.871C65.8732 125.121 65.7355 125.349 65.5511 125.536C65.3667 125.722 65.1409 125.863 64.8919 125.946C64.6428 126.029 64.3778 126.052 64.1181 126.013Z" fill="#FB8A61"/>
        </g>
        <rect x="293.737" y="115.129" width="34.9293" height="18.2178" rx="4.60606" fill="#303043"/>
        <path d="M314.853 120.277L311.854 122.753L312.411 121.294L314.853 120.277Z" fill="#4C4C5C" stroke="#303043" stroke-width="0.0959596" stroke-linecap="round" stroke-linejoin="round"/>
        <path d="M307.935 120.277L310.907 122.776L310.376 121.294L307.935 120.277Z" fill="#4C4C5C" stroke="#303043" stroke-width="0.0959596" stroke-linecap="round" stroke-linejoin="round"/>
        <path d="M313.773 126.017L312.975 127.376L314.683 127.901L315.173 126.046L313.773 126.017Z" fill="#4C4C5C" stroke="#303043" stroke-width="0.0959596" stroke-linecap="round" stroke-linejoin="round"/>
        <path d="M307.618 126.046L308.104 127.901L309.81 127.376L309.015 126.017L307.618 126.046Z" fill="#4C4C5C" stroke="#303043" stroke-width="0.0959596" stroke-linecap="round" stroke-linejoin="round"/>
        <path d="M309.718 123.72L309.243 124.518L310.934 124.604L310.878 122.574L309.718 123.72Z" fill="#4C4C5C" stroke="#303043" stroke-width="0.0959596" stroke-linecap="round" stroke-linejoin="round"/>
        <path d="M313.07 123.719L311.892 122.551L311.854 124.604L313.544 124.518L313.07 123.719Z" fill="#4C4C5C" stroke="#303043" stroke-width="0.0959596" stroke-linecap="round" stroke-linejoin="round"/>
        <path d="M309.81 127.376L310.833 126.825L309.952 126.059L309.81 127.376Z" fill="#4C4C5C" stroke="#303043" stroke-width="0.0959596" stroke-linecap="round" stroke-linejoin="round"/>
        <path d="M311.955 126.825L312.975 127.376L312.836 126.059L311.955 126.825Z" fill="#4C4C5C" stroke="#303043" stroke-width="0.0959596" stroke-linecap="round" stroke-linejoin="round"/>
        <path d="M312.975 127.376L311.955 126.825L312.038 127.564L312.029 127.878L312.975 127.376Z" fill="#4C4C5C" stroke="#303043" stroke-width="0.0959596" stroke-linecap="round" stroke-linejoin="round"/>
        <path d="M309.81 127.376L310.759 127.878L310.753 127.564L310.833 126.825L309.81 127.376Z" fill="#4C4C5C" stroke="#303043" stroke-width="0.0959596" stroke-linecap="round" stroke-linejoin="round"/>
        <path d="M310.777 125.571L309.929 125.294L310.528 124.987L310.777 125.571Z" fill="#4C4C5C" stroke="#303043" stroke-width="0.0959596" stroke-linecap="round" stroke-linejoin="round"/>
        <path d="M312.011 125.571L312.26 124.987L312.862 125.294L312.011 125.571Z" fill="#4C4C5C" stroke="#303043" stroke-width="0.0959596" stroke-linecap="round" stroke-linejoin="round"/>
        <path d="M309.81 127.376L309.958 126.017L309.015 126.046L309.81 127.376Z" fill="#4C4C5C" stroke="#303043" stroke-width="0.0959596" stroke-linecap="round" stroke-linejoin="round"/>
        <path d="M312.83 126.017L312.975 127.376L313.773 126.046L312.83 126.017Z" fill="#4C4C5C" stroke="#303043" stroke-width="0.0959596" stroke-linecap="round" stroke-linejoin="round"/>
        <path d="M313.544 124.518L311.854 124.604L312.011 125.571L312.26 124.987L312.862 125.294L313.544 124.518Z" fill="#4C4C5C" stroke="#303043" stroke-width="0.0959596" stroke-linecap="round" stroke-linejoin="round"/>
        <path d="M309.929 125.294L310.528 124.987L310.777 125.571L310.934 124.604L309.243 124.518L309.929 125.294Z" fill="#4C4C5C" stroke="#303043" stroke-width="0.0959596" stroke-linecap="round" stroke-linejoin="round"/>
        <path d="M309.243 124.518L309.952 126.059L309.929 125.294L309.243 124.518Z" fill="#4C4C5C" stroke="#303043" stroke-width="0.0959596" stroke-linecap="round" stroke-linejoin="round"/>
        <path d="M312.862 125.294L312.836 126.059L313.545 124.518L312.862 125.294Z" fill="#4C4C5C" stroke="#303043" stroke-width="0.0959596" stroke-linecap="round" stroke-linejoin="round"/>
        <path d="M310.934 124.604L310.777 125.571L310.976 126.713L311.02 125.208L310.934 124.604Z" fill="#4C4C5C" stroke="#303043" stroke-width="0.0959596" stroke-linecap="round" stroke-linejoin="round"/>
        <path d="M311.854 124.604L311.771 125.205L311.812 126.713L312.011 125.571L311.854 124.604Z" fill="#4C4C5C" stroke="#303043" stroke-width="0.0959596" stroke-linecap="round" stroke-linejoin="round"/>
        <path d="M312.011 125.571L311.812 126.713L311.955 126.825L312.836 126.06L312.862 125.294L312.011 125.571Z" fill="#4C4C5C" stroke="#303043" stroke-width="0.0959596" stroke-linecap="round" stroke-linejoin="round"/>
        <path d="M309.929 125.294L309.952 126.06L310.833 126.825L310.976 126.713L310.777 125.571L309.929 125.294Z" fill="#4C4C5C" stroke="#303043" stroke-width="0.0959596" stroke-linecap="round" stroke-linejoin="round"/>
        <path d="M312.029 127.878L312.038 127.564L311.961 127.492H310.827L310.753 127.564L310.759 127.878L309.81 127.376L310.142 127.68L310.816 128.198H311.969L312.646 127.68L312.975 127.376L312.029 127.878Z" fill="#4C4C5C" stroke="#303043" stroke-width="0.0959596" stroke-linecap="round" stroke-linejoin="round"/>
        <path d="M311.955 126.825L311.812 126.713H310.976L310.833 126.825L310.753 127.564L310.827 127.492H311.96L312.038 127.564L311.955 126.825Z" fill="#4C4C5C" stroke="#303043" stroke-width="0.0959596" stroke-linecap="round" stroke-linejoin="round"/>
        <path d="M314.98 122.914L315.232 121.548L314.853 120.277L311.955 122.67L313.07 123.72L314.645 124.231L314.992 123.779L314.841 123.657L315.081 123.413L314.897 123.254L315.137 123.05L314.98 122.914Z" fill="#4C4C5C" stroke="#303043" stroke-width="0.0959596" stroke-linecap="round" stroke-linejoin="round"/>
        <path d="M307.556 121.548L307.811 122.914L307.647 123.05L307.891 123.254L307.707 123.413L307.947 123.657L307.796 123.779L308.143 124.231L309.718 123.72L310.833 122.67L307.935 120.277L307.556 121.548Z" fill="#4C4C5C" stroke="#303043" stroke-width="0.0959596" stroke-linecap="round" stroke-linejoin="round"/>
        <path d="M314.645 124.231L313.07 123.719L313.545 124.518L312.836 126.059L313.773 126.046H315.173L314.645 124.231Z" fill="#4C4C5C" stroke="#303043" stroke-width="0.0959596" stroke-linecap="round" stroke-linejoin="round"/>
        <path d="M309.718 123.719L308.143 124.231L307.618 126.046H309.015L309.952 126.059L309.243 124.518L309.718 123.719Z" fill="#4C4C5C" stroke="#303043" stroke-width="0.0959596" stroke-linecap="round" stroke-linejoin="round"/>
        <path d="M311.854 124.604L311.955 122.67L312.411 121.294H310.376L310.833 122.67L310.934 124.604L310.973 125.211L310.976 126.713H311.812L311.815 125.211L311.854 124.604Z" fill="#4C4C5C" stroke="#303043" stroke-width="0.0959596" stroke-linecap="round" stroke-linejoin="round"/>
    </g>
    <defs>
        <clipPath id="clip0_1453_3052">
            <rect width="16" height="16" fill="white" transform="translate(56 116)"/>
        </clipPath>
    </defs>
</svg>




