<svg width="103" height="117" viewBox="0 0 103 117" fill="none" xmlns="http://www.w3.org/2000/svg">
<path d="M12.1624 108.126C12.1624 108.126 -8.97507 103.535 10.6038 65.2272L21.0804 84.4125L12.1624 108.126Z" fill="white"/>
<path d="M12.1624 108.126C12.1624 108.126 -8.97507 103.535 10.6038 65.2272L21.0804 84.4125L12.1624 108.126Z" stroke="url(#paint0_radial_3792_1988)" stroke-width="2" stroke-miterlimit="10"/>
<path d="M21.253 53.6042L18.5786 87.7813C17.9457 95.87 23.9814 102.941 32.0596 103.575L58.5918 105.656C66.67 106.29 73.7319 100.246 74.3648 92.1578L77.0391 57.9807C77.6721 49.892 71.6365 42.8211 63.5582 42.1874L37.026 40.1059C28.9478 39.4721 21.8859 45.5155 21.253 53.6042Z" fill="#D0D6D6" stroke="url(#paint1_radial_3792_1988)" stroke-width="2" stroke-miterlimit="10"/>
<path d="M18.0256 107.91C18.8049 102.896 19.7115 97.7533 20.7506 92.4419C21.8468 86.8523 22.1118 85.5622 23.3924 80.3809L23.408 80.3575C15.0642 79.9881 7.82179 77.2362 6.72556 73.0355C5.39294 67.9375 12.8016 59.2838 26.8941 55.3484C50.1176 71.2148 71.5746 58.7532 71.5746 58.7532L93.3745 60.4126C97.3101 60.7039 98.0504 67.0349 99.2012 70.8168C99.4939 71.8033 99.6177 72.8322 99.5675 73.8601C99.542 74.385 99.4733 74.907 99.3622 75.4207C98.3621 79.9777 96.7645 79.4601 92.1147 79.1064C85.2272 81.0783 77.9613 81.3248 70.9564 79.8243C71.3772 87.0604 71.8993 92.8087 72.0448 96.3409" fill="white"/>
<path d="M54.4867 111.427C54.5347 110.808 54.3354 110.196 53.9326 109.724C53.5297 109.252 52.9563 108.96 52.3384 108.912L51.8188 108.87L38.3653 107.848C37.7474 107.801 37.136 108.001 36.6654 108.405C36.1949 108.809 35.9037 109.383 35.856 110.002" fill="white"/>
<path d="M33.77 108.81C33.8272 105.465 36.0794 106.376 39.3057 105.51C42.5321 104.643 46.9014 104.854 51.8007 108.891L38.3472 107.864C37.7292 107.816 37.1178 108.016 36.6473 108.42C36.1767 108.824 35.8856 109.399 35.8378 110.017" fill="#EFEFEF"/>
<path d="M69.4989 89.9553C68.3637 69.8284 77.2193 77.8734 77.2193 77.8734C95.902 79.5173 98.1932 76.279 99.2115 70.8011C99.5021 71.7915 99.6225 72.8241 99.5674 73.8548C99.5419 74.3797 99.4732 74.9017 99.3621 75.4154C98.362 79.9724 96.7645 79.4548 92.1146 79.1011C85.2271 81.073 77.9612 81.3196 70.9563 79.819C71.3771 87.0551 71.8992 92.8034 72.0447 96.3356" fill="#EFEFEF"/>
<path d="M71.5797 58.7531C71.5797 58.7531 50.1252 71.2043 26.8992 55.3483C28.8856 53.7685 31.1895 52.6373 33.6532 52.032C37.5513 56.5465 43.0744 59.3341 49.0174 59.7868C54.9604 60.2395 60.841 58.3205 65.3763 54.4484C67.731 55.4167 69.8475 56.8854 71.5797 58.7531Z" fill="#E8EAEA" stroke="url(#paint2_radial_3792_1988)" stroke-width="2" stroke-miterlimit="10"/>
<path d="M49.0318 59.7935C43.0902 59.338 37.5687 56.5512 33.6689 52.0398C35.4701 51.5983 37.3295 51.4438 39.1787 51.582L60.0382 53.1634C61.8866 53.3048 63.7012 53.7367 65.4155 54.4431C60.8785 58.3168 54.995 60.2355 49.0499 59.7805L49.0318 59.7935Z" fill="white" stroke="url(#paint3_radial_3792_1988)" stroke-width="2" stroke-miterlimit="10"/>
<path d="M79.3441 31.1665C78.8895 37.1489 75.8736 45.4332 71.3302 49.3374L65.4542 54.3912L65.3918 54.4433C60.8559 58.3141 54.9756 60.2323 49.033 59.7796C43.0904 59.327 37.5676 56.5402 33.6687 52.0269L33.6141 51.9671L28.5694 46.0809C26.6185 43.805 25.2106 40.5069 24.3507 37.0293C23.5133 33.7198 23.1909 30.3008 23.3948 26.893C23.7485 23.9572 24.5474 21.0925 25.7639 18.3979C31.3619 6.07937 43.7374 2.35987 44.7505 2.07636C47.5947 1.27741 50.5444 0.919521 53.4969 1.01513C56.4295 1.36655 59.2909 2.16658 61.981 3.38729C62.9422 3.82426 74.6137 9.3697 78.2842 22.3984C79.0834 25.2496 79.4408 28.2067 79.3441 31.1665Z" fill="white" stroke="url(#paint4_radial_3792_1988)" stroke-width="2" stroke-miterlimit="10"/>
<path d="M77.0868 30.0142C77.1258 27.8665 76.7518 25.7312 75.9853 23.7249C72.4239 14.3403 61.6538 10.1994 60.768 9.8587C58.2535 8.93792 55.6367 8.32653 52.9749 8.03796C50.2958 7.92097 47.6125 8.13148 44.9843 8.66482C44.0596 8.85469 32.7751 11.3257 27.8395 20.0652C26.7791 21.9316 26.0868 23.9846 25.8003 26.1126C25.4756 30.3862 27.1901 36.6079 30.8295 39.9268L35.5417 44.2107C39.1785 47.5271 44.3011 49.6261 49.7745 50.0423C55.2479 50.4611 60.6251 49.1631 64.7269 46.4346L70.0314 42.905C74.128 40.1765 76.762 34.2851 77.0868 30.0142Z" fill="url(#paint5_radial_3792_1988)" stroke="url(#paint6_radial_3792_1988)" stroke-width="2" stroke-miterlimit="10"/>
<path opacity="0.23" d="M74.6839 29.9206C74.72 27.9733 74.3804 26.0374 73.6838 24.2191C70.4575 15.711 60.6953 11.9447 59.89 11.6482C57.6084 10.8084 55.233 10.2503 52.8165 9.98613C50.3874 9.87922 47.9544 10.0696 45.5715 10.5532C44.7324 10.7248 34.5156 12.9669 30.0372 20.8897C29.078 22.583 28.4503 24.4439 28.1876 26.3727C27.8941 30.2483 29.4475 35.8874 32.7492 38.8968L37.0172 42.7984C40.3189 45.8052 44.961 47.7091 49.9226 48.0863C54.8842 48.4634 59.7601 47.2878 63.4748 44.8142L68.2728 41.6097C72.0005 39.1361 74.3904 33.7961 74.6839 29.9206Z" fill="url(#paint7_radial_3792_1988)"/>
<path opacity="0.1" d="M65.3773 18.2523C64.3816 16.4757 72.7709 23.8081 72.4226 30.8127C72.0742 37.8174 67.3808 39.6147 67.3808 39.6147C67.3808 39.6147 73.8381 33.3227 65.3773 18.2523Z" fill="white"/>
<path d="M34.3416 89.4899C33.6045 88.2543 33.1511 86.8701 33.0142 85.4375L33.4116 80.2145C33.6298 79.0545 34.1182 77.5511 35.3365 76.4092C37.3523 74.5182 39.6565 75.2205 47.8211 75.7251C51.6761 75.9618 58.3989 76.2453 60.0588 78.295C60.6203 78.9962 61.0299 79.8067 61.2616 80.6749C61.3889 81.2227 61.4309 81.7868 61.3863 82.3474L60.9992 87.5677C60.6507 88.9641 59.9938 90.2645 59.0769 91.3731C53.6529 97.7924 38.7239 96.6558 34.3416 89.4899Z" fill="#99A3A3" stroke="url(#paint8_radial_3792_1988)" stroke-width="2" stroke-miterlimit="10"/>
<path d="M18.0254 107.91C18.8047 102.896 19.7113 97.7534 20.7504 92.442C21.8466 86.8524 22.1116 85.5623 23.3922 80.381" stroke="url(#paint9_radial_3792_1988)" stroke-width="2" stroke-miterlimit="10"/>
<path d="M54.4868 111.427C54.5348 110.808 54.3355 110.196 53.9327 109.724C53.5298 109.252 52.9564 108.96 52.3385 108.912V108.912L38.3551 107.848C37.7371 107.801 37.1257 108.001 36.6552 108.405C36.1846 108.809 35.8935 109.383 35.8457 110.002V110.002" stroke="url(#paint10_radial_3792_1988)" stroke-width="2" stroke-miterlimit="10"/>
<path d="M99.3645 75.4156C98.3644 79.9727 96.7668 79.4551 92.1169 79.1013C85.229 81.0754 77.962 81.3228 70.9561 79.8218C71.3769 87.0579 71.899 92.8063 72.0445 96.3385" stroke="url(#paint11_radial_3792_1988)" stroke-width="2" stroke-miterlimit="10"/>
<path d="M3.91211 83.432C5.74869 57.9652 26.9018 55.3407 26.9018 55.3407C50.1253 71.2071 71.5823 58.7455 71.5823 58.7455C71.5823 58.7455 85.7865 57.4762 89.722 73.5428C93.6576 89.6095 89.1168 99.6106 89.1168 99.6106L62.4773 97.4881L52.2268 81.1327L68.8339 72.3308L73.6786 84.4542L77.2193 77.8736" stroke="url(#paint12_radial_3792_1988)" stroke-width="2" stroke-miterlimit="10"/>
<path d="M32.4842 68.3901C32.4842 68.3901 42.9062 70.5282 40.2773 78.5342C37.4874 87.0657 29.7358 83.1407 29.7358 83.1407L32.4842 68.3901Z" fill="white"/>
<path d="M35.8926 69.0508C38.9397 72.068 39.4307 76.6354 37.3161 79.7593C35.7133 82.1236 32.7883 83.4008 29.749 83.1407C30.0478 83.3227 33.126 85.1096 36.4745 83.6401C39.8801 82.1445 40.5944 78.594 40.6802 78.1336C41.3036 74.7315 39.4073 71.051 35.8926 69.0508Z" fill="#EFEFEF"/>
<path d="M54.3389 84.9821C53.4843 84.9197 52.918 84.1108 52.8011 83.32C52.7024 82.6334 52.8167 81.2834 53.7103 81.1742C54.1183 81.1364 54.5292 81.2022 54.9051 81.3654C55.281 81.5286 55.6098 81.784 55.8612 82.108C56.0997 82.4301 56.2361 82.8165 56.2528 83.2172C56.2694 83.6179 56.1656 84.0143 55.9547 84.3552C55.7229 84.6944 55.372 84.9337 54.9719 85.0253C54.5718 85.1169 54.1519 85.0541 53.796 84.8495C53.2609 84.5217 52.7699 85.3697 53.305 85.6922C53.8053 85.9791 54.386 86.0931 54.9575 86.0165C55.5289 85.9398 56.0592 85.6769 56.4664 85.2682C56.8762 84.8165 57.1354 84.2482 57.208 83.6423C57.2806 83.0364 57.1631 82.4229 56.8717 81.8869C56.5649 81.3527 56.1182 80.9126 55.5797 80.6142C55.0413 80.3158 54.4317 80.1703 53.8168 80.1936C53.4928 80.1967 53.1754 80.2851 52.8963 80.45C52.6173 80.6148 52.3864 80.8502 52.227 81.1326C51.9278 81.7054 51.7828 82.3463 51.8062 82.9923C51.8347 84.4567 52.8011 85.8535 54.3389 85.9575C54.4619 85.9485 54.577 85.8932 54.661 85.8027C54.745 85.7123 54.7917 85.5933 54.7917 85.4698C54.7917 85.3463 54.745 85.2273 54.661 85.1369C54.577 85.0464 54.4619 84.9911 54.3389 84.9821Z" fill="url(#paint13_radial_3792_1988)"/>
<path d="M49.3432 81.7568C46.7455 81.7967 44.1426 81.7447 41.5345 81.6007C40.9084 81.5643 40.9084 82.5397 41.5345 82.5761C44.1322 82.7183 46.7351 82.7703 49.3432 82.7322C49.9692 82.7322 49.9692 81.7464 49.3432 81.7568Z" fill="url(#paint14_radial_3792_1988)"/>
<path d="M41.6878 86.236L49.1848 86.53C49.8108 86.556 49.8108 85.5806 49.1848 85.5546L41.6878 85.2606C41.0592 85.2346 41.0617 86.21 41.6878 86.236Z" fill="url(#paint15_radial_3792_1988)"/>
<path d="M40.1007 89.5055C41.0386 90.3721 42.1563 91.0205 43.3738 91.4042C44.696 91.8178 46.1014 91.8594 47.4755 91.9036C48.8497 91.9479 50.2109 91.9531 51.476 91.425C52.4745 90.994 53.3117 90.2586 53.8685 89.3234C54.5124 88.2633 54.7618 87.0096 54.5725 85.7834C54.5367 85.6622 54.4559 85.5593 54.3467 85.496C54.2375 85.4326 54.1082 85.4135 53.9854 85.4426C53.863 85.4807 53.7597 85.564 53.6965 85.6756C53.6333 85.7872 53.6149 85.9188 53.6451 86.0435C53.7559 86.9448 53.5817 87.8582 53.1469 88.6551C52.7121 89.4521 52.0387 90.0924 51.2214 90.4861C50.1408 90.9881 48.8835 90.9699 47.7223 90.9387C46.5612 90.9074 45.3039 90.8866 44.1323 90.6005C42.8897 90.2978 41.744 89.6848 40.802 88.8188C40.3397 88.3948 39.6513 89.0789 40.1137 89.5081L40.1007 89.5055Z" fill="url(#paint16_radial_3792_1988)"/>
<path d="M18.0594 64.9957C19.1252 66.5179 19.6811 68.3392 19.6471 70.1978C19.6211 71.4723 19.1846 73.2462 17.7164 73.5115C17.1006 73.6233 17.363 74.5519 17.9763 74.4531C19.7588 74.1279 20.515 72.1303 20.6085 70.5281C20.7205 68.388 20.12 66.2712 18.9013 64.5093C18.5453 63.9891 17.7008 64.4833 18.0594 65.0009V64.9957Z" fill="url(#paint17_radial_3792_1988)"/>
<path d="M20.545 69.5501C22.3822 69.2624 24.1252 68.5431 25.6313 67.4511C25.7403 67.3831 25.8191 67.2759 25.8515 67.1516C25.8838 67.0272 25.8673 66.8951 25.8054 66.7826C25.7394 66.6715 25.6323 66.5909 25.5073 66.5583C25.3823 66.5256 25.2496 66.5436 25.1378 66.6083C23.7019 67.6519 22.0385 68.3384 20.2853 68.6111C20.1616 68.6464 20.0567 68.7288 19.9931 68.8407C19.9294 68.9525 19.9122 69.0849 19.945 69.2094C19.9824 69.3323 20.0655 69.4361 20.1772 69.4995C20.2888 69.5629 20.4205 69.581 20.545 69.5501Z" fill="url(#paint18_radial_3792_1988)"/>
<path d="M99.8946 64.2466H2.58468C2.19001 64.2486 1.80097 64.3406 1.44712 64.5156C1.09326 64.6906 0.783894 64.9441 0.542504 65.2568C0.301114 65.5694 0.134053 65.933 0.0539995 66.32C-0.0260541 66.707 -0.0169975 67.1072 0.0804934 67.4901L12.1286 113.838C12.3433 114.665 12.826 115.397 13.5012 115.92C14.1763 116.442 15.0056 116.726 15.8589 116.725H84.2876C85.1107 116.726 85.9123 116.462 86.5751 115.974C87.2379 115.485 87.7271 114.797 87.9712 114.01L102.365 67.6071C102.483 67.2195 102.509 66.8094 102.441 66.4099C102.373 66.0103 102.213 65.6322 101.973 65.3057C101.733 64.9792 101.42 64.7135 101.059 64.5296C100.698 64.3457 100.299 64.2488 99.8946 64.2466Z" fill="url(#paint19_radial_3792_1988)"/>
<path opacity="0.57" d="M96.6147 65.9301H5.34704C4.97687 65.9319 4.61199 66.0186 4.28011 66.1834C3.94823 66.3482 3.65807 66.5869 3.43167 66.8814C3.20527 67.1758 3.04858 67.5182 2.9735 67.8826C2.89842 68.2471 2.90691 68.6239 2.99835 68.9845L14.2984 112.631C14.4997 113.41 14.9525 114.099 15.5857 114.591C16.2189 115.084 16.9967 115.35 17.7971 115.35H81.9768C82.7487 115.35 83.5005 115.102 84.1222 114.642C84.7438 114.182 85.2027 113.534 85.4316 112.793L98.9317 69.0947C99.0425 68.7296 99.067 68.3435 99.0031 67.9672C98.9392 67.591 98.7887 67.2349 98.5636 66.9274C98.3385 66.62 98.0451 66.3697 97.7067 66.1966C97.3683 66.0234 96.9944 65.9321 96.6147 65.9301Z" fill="url(#paint20_radial_3792_1988)"/>
<path d="M47.2557 85.9989L53.0856 85.5601L56.5122 89.6966L51.3172 96.1301L45.9453 90.492L47.2557 85.9989Z" fill="url(#paint21_radial_3792_1988)" fill-opacity="0.3"/>
<path d="M48.8504 87.7098L47.2557 85.9989M48.8504 87.7098L52.4941 87.4356M48.8504 87.7098L47.9631 90.5232M47.2557 85.9989L53.0856 85.5601M47.2557 85.9989L45.9453 90.492M53.0856 85.5601L52.4941 87.4356M53.0856 85.5601L56.5122 89.6966M52.4941 87.4356L54.5218 90.0295M45.9453 90.492L47.9631 90.5232M45.9453 90.492L51.3172 96.1301M47.9631 90.5232L51.3484 94.1137M51.3172 96.1301L51.3484 94.1137M51.3172 96.1301L56.5122 89.6966M51.3484 94.1137L54.5218 90.0295M54.5218 90.0295L56.5122 89.6966" stroke="url(#paint22_linear_3792_1988)" stroke-width="0.5"/>
<defs>
<radialGradient id="paint0_radial_3792_1988" cx="0" cy="0" r="1" gradientUnits="userSpaceOnUse" gradientTransform="translate(7.3892 78.7097) rotate(76.4924) scale(39.0773 21.0507)">
<stop stop-color="#2F6756"/>
<stop offset="0.427083" stop-color="#1B0724"/>
<stop offset="0.699054" stop-color="#2F1A51"/>
<stop offset="1" stop-color="#7C2BA3"/>
</radialGradient>
<radialGradient id="paint1_radial_3792_1988" cx="0" cy="0" r="1" gradientUnits="userSpaceOnUse" gradientTransform="translate(36.3134 86.5754) rotate(-27.4775) scale(58.4122 62.2321)">
<stop stop-color="#2F6756"/>
<stop offset="0.427083" stop-color="#1B0724"/>
<stop offset="0.699054" stop-color="#2F1A51"/>
<stop offset="1" stop-color="#7C2BA3"/>
</radialGradient>
<radialGradient id="paint2_radial_3792_1988" cx="0" cy="0" r="1" gradientUnits="userSpaceOnUse" gradientTransform="translate(39.0267 55.6051) rotate(24.8914) scale(23.9243 21.6659)">
<stop stop-color="#2F6756"/>
<stop offset="0.427083" stop-color="#1B0724"/>
<stop offset="0.699054" stop-color="#2F1A51"/>
<stop offset="1" stop-color="#7C2BA3"/>
</radialGradient>
<radialGradient id="paint3_radial_3792_1988" cx="0" cy="0" r="1" gradientUnits="userSpaceOnUse" gradientTransform="translate(42.2859 54.1457) rotate(25.5254) scale(17.0876 15.7603)">
<stop stop-color="#2F6756"/>
<stop offset="0.427083" stop-color="#1B0724"/>
<stop offset="0.699054" stop-color="#2F1A51"/>
<stop offset="1" stop-color="#7C2BA3"/>
</radialGradient>
<radialGradient id="paint4_radial_3792_1988" cx="0" cy="0" r="1" gradientUnits="userSpaceOnUse" gradientTransform="translate(38.542 19.4941) rotate(62.4309) scale(58.7957 57.2152)">
<stop stop-color="#2F6756"/>
<stop offset="0.427083" stop-color="#1B0724"/>
<stop offset="0.699054" stop-color="#2F1A51"/>
<stop offset="1" stop-color="#7C2BA3"/>
</radialGradient>
<radialGradient id="paint5_radial_3792_1988" cx="0" cy="0" r="1" gradientUnits="userSpaceOnUse" gradientTransform="translate(39.6934 21.2421) rotate(56.2418) scale(44.8646 49.1632)">
<stop stop-color="#2F6756"/>
<stop offset="0.427083" stop-color="#1B0724"/>
<stop offset="0.699054" stop-color="#2F1A51"/>
<stop offset="1" stop-color="#7C2BA3"/>
</radialGradient>
<radialGradient id="paint6_radial_3792_1988" cx="0" cy="0" r="1" gradientUnits="userSpaceOnUse" gradientTransform="translate(39.6934 21.2421) rotate(56.2418) scale(44.8646 49.1632)">
<stop stop-color="#2F6756"/>
<stop offset="0.427083" stop-color="#1B0724"/>
<stop offset="0.699054" stop-color="#2F1A51"/>
<stop offset="1" stop-color="#7C2BA3"/>
</radialGradient>
<radialGradient id="paint7_radial_3792_1988" cx="0" cy="0" r="1" gradientUnits="userSpaceOnUse" gradientTransform="translate(36.086 24.0987) rotate(59.0436) scale(77.5236 701.68)">
<stop stop-color="#4BF2A2"/>
<stop offset="0.421875" stop-color="#564D8F"/>
<stop offset="1" stop-color="#DD40CD"/>
</radialGradient>
<radialGradient id="paint8_radial_3792_1988" cx="0" cy="0" r="1" gradientUnits="userSpaceOnUse" gradientTransform="translate(40.7199 81.5865) rotate(52.6775) scale(22.7431 26.0095)">
<stop stop-color="#2F6756"/>
<stop offset="0.427083" stop-color="#1B0724"/>
<stop offset="0.699054" stop-color="#2F1A51"/>
<stop offset="1" stop-color="#7C2BA3"/>
</radialGradient>
<radialGradient id="paint9_radial_3792_1988" cx="0" cy="0" r="1" gradientUnits="userSpaceOnUse" gradientTransform="translate(19.4821 89.0331) rotate(83.8978) scale(24.5222 6.14798)">
<stop stop-color="#2F6756"/>
<stop offset="0.427083" stop-color="#1B0724"/>
<stop offset="0.699054" stop-color="#2F1A51"/>
<stop offset="1" stop-color="#7C2BA3"/>
</radialGradient>
<radialGradient id="paint10_radial_3792_1988" cx="0" cy="0" r="1" gradientUnits="userSpaceOnUse" gradientTransform="translate(40.9073 108.968) rotate(19.3232) scale(9.59837 7.10898)">
<stop stop-color="#2F6756"/>
<stop offset="0.427083" stop-color="#1B0724"/>
<stop offset="0.699054" stop-color="#2F1A51"/>
<stop offset="1" stop-color="#7C2BA3"/>
</radialGradient>
<radialGradient id="paint11_radial_3792_1988" cx="0" cy="0" r="1" gradientUnits="userSpaceOnUse" gradientTransform="translate(78.6669 81.9914) rotate(53.3292) scale(23.1045 26.251)">
<stop stop-color="#2F6756"/>
<stop offset="0.427083" stop-color="#1B0724"/>
<stop offset="0.699054" stop-color="#2F1A51"/>
<stop offset="1" stop-color="#7C2BA3"/>
</radialGradient>
<radialGradient id="paint12_radial_3792_1988" cx="0" cy="0" r="1" gradientUnits="userSpaceOnUse" gradientTransform="translate(27.639 69.2541) rotate(42.7224) scale(57.7944 68.3253)">
<stop stop-color="#2F6756"/>
<stop offset="0.427083" stop-color="#1B0724"/>
<stop offset="0.699054" stop-color="#2F1A51"/>
<stop offset="1" stop-color="#7C2BA3"/>
</radialGradient>
<radialGradient id="paint13_radial_3792_1988" cx="0" cy="0" r="1" gradientUnits="userSpaceOnUse" gradientTransform="translate(53.2763 82.0293) rotate(63.0379) scale(5.81186 5.57088)">
<stop stop-color="#2F6756"/>
<stop offset="0.427083" stop-color="#1B0724"/>
<stop offset="0.699054" stop-color="#2F1A51"/>
<stop offset="1" stop-color="#7C2BA3"/>
</radialGradient>
<radialGradient id="paint14_radial_3792_1988" cx="0" cy="0" r="1" gradientUnits="userSpaceOnUse" gradientTransform="translate(43.4393 81.9594) rotate(13.4193) scale(4.36817 2.33887)">
<stop stop-color="#2F6756"/>
<stop offset="0.427083" stop-color="#1B0724"/>
<stop offset="0.699054" stop-color="#2F1A51"/>
<stop offset="1" stop-color="#7C2BA3"/>
</radialGradient>
<radialGradient id="paint15_radial_3792_1988" cx="0" cy="0" r="1" gradientUnits="userSpaceOnUse" gradientTransform="translate(43.5073 85.6594) rotate(15.353) scale(4.24964 2.57353)">
<stop stop-color="#2F6756"/>
<stop offset="0.427083" stop-color="#1B0724"/>
<stop offset="0.699054" stop-color="#2F1A51"/>
<stop offset="1" stop-color="#7C2BA3"/>
</radialGradient>
<radialGradient id="paint16_radial_3792_1988" cx="0" cy="0" r="1" gradientUnits="userSpaceOnUse" gradientTransform="translate(43.9433 87.4699) rotate(38.8983) scale(9.1579 10.6155)">
<stop stop-color="#2F6756"/>
<stop offset="0.427083" stop-color="#1B0724"/>
<stop offset="0.699054" stop-color="#2F1A51"/>
<stop offset="1" stop-color="#7C2BA3"/>
</radialGradient>
<radialGradient id="paint17_radial_3792_1988" cx="0" cy="0" r="1" gradientUnits="userSpaceOnUse" gradientTransform="translate(18.2492 67.4852) rotate(80.0426) scale(9.14747 3.69525)">
<stop stop-color="#2F6756"/>
<stop offset="0.427083" stop-color="#1B0724"/>
<stop offset="0.699054" stop-color="#2F1A51"/>
<stop offset="1" stop-color="#7C2BA3"/>
</radialGradient>
<radialGradient id="paint18_radial_3792_1988" cx="0" cy="0" r="1" gradientUnits="userSpaceOnUse" gradientTransform="translate(21.5407 67.4923) rotate(42.8626) scale(3.93545 4.6543)">
<stop stop-color="#2F6756"/>
<stop offset="0.427083" stop-color="#1B0724"/>
<stop offset="0.699054" stop-color="#2F1A51"/>
<stop offset="1" stop-color="#7C2BA3"/>
</radialGradient>
<radialGradient id="paint19_radial_3792_1988" cx="0" cy="0" r="1" gradientUnits="userSpaceOnUse" gradientTransform="translate(27.8155 80.7399) rotate(43.0401) scale(68.1034 80.5788)">
<stop stop-color="#2F6756"/>
<stop offset="0.427083" stop-color="#1B0724"/>
<stop offset="0.699054" stop-color="#2F1A51"/>
<stop offset="1" stop-color="#7C2BA3"/>
</radialGradient>
<radialGradient id="paint20_radial_3792_1988" cx="0" cy="0" r="1" gradientUnits="userSpaceOnUse" gradientTransform="translate(19.3091 84.226) rotate(46.2406) scale(119.088 1220.63)">
<stop stop-color="#2A3837"/>
<stop offset="0.421875" stop-color="#3F2B44"/>
<stop offset="1" stop-color="#322837"/>
</radialGradient>
<radialGradient id="paint21_radial_3792_1988" cx="0" cy="0" r="1" gradientUnits="userSpaceOnUse" gradientTransform="translate(47.707 89.8288) rotate(59.0651) scale(20.2631 166.562)">
<stop stop-color="#4BF2A2"/>
<stop offset="0.421875" stop-color="#564D8F"/>
<stop offset="1" stop-color="#DD40CD"/>
</radialGradient>
<linearGradient id="paint22_linear_3792_1988" x1="45.3172" y1="90.8451" x2="57.8676" y2="91.1408" gradientUnits="userSpaceOnUse">
<stop stop-color="#4BF2A2"/>
<stop offset="0.522948" stop-color="#A89FE7"/>
<stop offset="0.669499" stop-color="#E1C4F4"/>
<stop offset="1" stop-color="#DD40CD"/>
</linearGradient>
</defs>
</svg>
