<svg width="526" height="515" viewBox="0 0 526 515" fill="none" xmlns="http://www.w3.org/2000/svg">
<path d="M107.029 340.931C101.476 329.323 133.84 300.885 163.462 277.133C167.937 273.516 171.58 268.979 174.144 263.829C176.708 258.679 178.133 253.037 178.322 247.287C179.082 226.111 185.628 205.547 197.249 187.828C208.87 170.109 225.123 155.912 244.244 146.778C263.364 137.643 284.621 133.921 305.708 136.015C326.794 138.108 346.904 145.938 363.855 158.654C368.4 162.089 373.627 164.514 379.185 165.765C384.743 167.017 390.505 167.066 396.084 165.91C431.866 158.366 470.078 153.035 475.615 164.609C481.151 176.182 453.026 202.585 424.718 225.737C420.318 229.354 416.742 233.87 414.229 238.981C411.716 244.092 410.323 249.681 410.145 255.374C409.415 276.555 402.896 297.132 391.296 314.869C379.695 332.606 363.458 346.826 344.345 355.985C325.233 365.144 303.977 368.892 282.884 366.822C261.792 364.752 241.67 356.943 224.703 344.243C220.105 340.776 214.814 338.34 209.19 337.102C203.566 335.864 197.741 335.852 192.112 337.067C155.053 345.214 112.596 352.568 107.029 340.931Z" fill="url(#paint0_radial_3784_1988)"/>
<path d="M234.977 76.8315C223.609 73.7853 203.467 107.654 187.079 138.271C184.578 142.9 181.109 146.937 176.909 150.106C172.708 153.275 167.874 155.502 162.736 156.637C143.823 160.871 126.432 170.205 112.45 183.626C98.467 197.046 88.4278 214.041 83.4217 232.764C78.4155 251.487 78.6336 271.224 84.0523 289.832C89.471 308.44 99.8834 325.208 114.159 338.317C118.01 341.827 121.067 346.12 123.124 350.908C125.181 355.695 126.192 360.867 126.088 366.077C125.306 399.514 126.921 434.766 138.255 437.803C149.589 440.84 168.613 411.124 184.681 381.79C187.196 377.227 190.656 373.255 194.83 370.138C199.004 367.021 203.796 364.832 208.885 363.717C227.807 359.508 245.214 350.196 259.216 336.791C273.219 323.387 283.281 306.402 288.311 287.682C293.341 268.962 293.146 249.221 287.748 230.604C282.349 211.987 271.953 195.204 257.689 182.079C253.801 178.526 250.724 174.177 248.667 169.328C246.611 164.479 245.623 159.244 245.772 153.979C246.882 119.293 246.374 79.8852 234.977 76.8315Z" fill="url(#paint1_radial_3784_1988)"/>
<path d="M237.396 67.8049C225.458 64.606 204.294 100.167 187.128 132.323C184.5 137.19 180.853 141.433 176.436 144.763C172.02 148.093 166.937 150.431 161.534 151.617C141.681 156.068 123.425 165.87 108.748 179.961C94.0709 194.052 83.533 211.893 78.2776 231.549C73.0222 251.205 73.2499 271.924 78.9362 291.46C84.6225 310.995 95.5501 328.6 110.533 342.365C114.573 346.055 117.778 350.566 119.934 355.595C122.09 360.624 123.146 366.055 123.034 371.525C122.217 406.62 123.91 443.633 135.837 446.829C147.764 450.025 167.77 418.826 184.578 388.01C187.223 383.215 190.862 379.041 195.251 375.766C199.64 372.492 204.678 370.194 210.028 369.025C229.891 364.6 248.163 354.819 262.86 340.743C277.557 326.667 288.118 308.834 293.396 289.18C298.673 269.526 298.466 248.802 292.797 229.257C287.128 209.713 276.213 192.094 261.238 178.315C257.155 174.586 253.924 170.02 251.765 164.93C249.605 159.839 248.569 154.343 248.725 148.815C249.88 112.388 249.363 71.0113 237.396 67.8049Z" fill="#151520"/>
<path d="M239.209 61.041C226.843 57.7277 204.943 94.5573 187.105 127.852C184.381 132.891 180.605 137.284 176.031 140.731C171.457 144.179 166.195 146.601 160.601 147.831C140.034 152.437 121.122 162.589 105.917 177.184C90.7125 191.779 79.7958 210.26 74.3521 230.621C68.9083 250.982 69.1455 272.445 75.0379 292.681C80.9304 312.916 92.2528 331.152 107.776 345.407C111.963 349.227 115.286 353.896 117.523 359.104C119.759 364.311 120.858 369.936 120.744 375.602C119.944 411.96 121.699 450.291 134.025 453.593C146.35 456.896 167.066 424.58 184.511 392.683C187.247 387.72 191.011 383.399 195.551 380.009C200.091 376.618 205.303 374.236 210.838 373.022C231.411 368.44 250.335 358.309 265.557 343.731C280.779 329.152 291.716 310.682 297.182 290.326C302.647 269.97 302.433 248.506 296.56 228.264C290.688 208.021 279.384 189.774 263.873 175.503C259.647 171.64 256.303 166.911 254.069 161.639C251.835 156.368 250.763 150.676 250.927 144.953C252.153 107.213 251.597 64.3605 239.209 61.041Z" fill="#151520"/>
<path d="M241.03 54.2432C228.237 50.8154 205.579 88.9202 187.147 123.363C184.331 128.576 180.424 133.121 175.693 136.688C170.962 140.254 165.518 142.759 159.731 144.032C138.455 148.797 118.891 159.299 103.162 174.397C87.4322 189.496 76.1388 208.614 70.5069 229.677C64.8751 250.74 65.1199 272.943 71.2149 293.877C77.3099 314.811 89.0222 333.675 105.081 348.423C109.412 352.374 112.849 357.204 115.163 362.59C117.477 367.976 118.614 373.794 118.498 379.655C117.641 417.292 119.457 456.946 132.21 460.363C144.963 463.781 166.391 430.355 184.439 397.348C187.268 392.215 191.162 387.745 195.859 384.238C200.555 380.731 205.947 378.269 211.673 377.015C232.954 372.272 252.53 361.791 268.275 346.71C284.02 331.628 295.334 312.522 300.988 291.465C306.642 270.408 306.421 248.204 300.348 227.264C294.275 206.324 282.583 187.447 266.54 172.682C262.175 168.686 258.722 163.795 256.416 158.344C254.111 152.893 253.008 147.009 253.182 141.093C254.413 102.036 253.84 57.6757 241.03 54.2432Z" fill="#151520"/>
<path d="M242.836 47.5016C229.622 43.9607 206.203 83.3336 187.157 118.925C184.248 124.312 180.213 129.009 175.325 132.696C170.438 136.383 164.813 138.974 158.834 140.291C136.849 145.215 116.633 156.067 100.379 171.669C84.1257 187.27 72.4559 207.026 66.6365 228.791C60.8172 250.556 61.0705 273.499 67.369 295.131C73.6676 316.762 85.7707 336.255 102.365 351.494C106.841 355.575 110.393 360.565 112.784 366.13C115.176 371.695 116.351 377.706 116.231 383.762C115.331 422.609 117.205 463.598 130.408 467.136C143.611 470.674 165.731 436.126 184.378 402.022C187.302 396.718 191.324 392.1 196.177 388.476C201.029 384.852 206.599 382.306 212.515 381.009C234.507 376.11 254.736 365.281 271.008 349.697C287.28 334.114 298.972 314.37 304.815 292.61C310.658 270.851 310.429 247.906 304.152 226.268C297.876 204.629 285.792 185.123 269.212 169.867C264.693 165.738 261.117 160.683 258.728 155.047C256.338 149.411 255.192 143.326 255.366 137.207C256.673 96.8629 256.074 51.0485 242.836 47.5016Z" fill="#151520"/>
<path d="M244.65 40.7321C231.008 37.0767 206.833 77.7247 187.175 114.459C184.171 120.021 180.003 124.869 174.957 128.675C169.91 132.481 164.102 135.154 157.929 136.513C135.233 141.593 114.363 152.793 97.5832 168.897C80.8037 185.002 68.7562 205.394 62.7486 227.862C56.7409 250.33 57.0027 274.014 63.5054 296.344C70.0081 318.674 82.5033 338.795 99.6346 354.525C104.262 358.74 107.934 363.897 110.405 369.648C112.877 375.399 114.09 381.612 113.963 387.87C113.049 427.935 114.974 470.257 128.582 473.903C142.19 477.549 165.041 441.89 184.295 406.685C187.311 401.211 191.46 396.445 196.465 392.703C201.469 388.961 207.215 386.33 213.318 384.986C236.02 379.934 256.904 368.759 273.703 352.676C290.502 336.592 302.575 316.214 308.61 293.754C314.645 271.293 314.413 247.609 307.937 225.271C301.462 202.933 288.992 182.796 271.88 167.046C267.213 162.784 263.521 157.566 261.054 151.748C258.586 145.93 257.403 139.648 257.583 133.331C258.933 91.685 258.326 44.3966 244.65 40.7321Z" fill="#151520"/>
<path d="M246.463 33.968C232.394 30.1981 207.464 72.1099 187.186 109.997C184.089 115.732 179.793 120.732 174.589 124.657C169.384 128.58 163.395 131.336 157.029 132.735C133.626 137.977 112.105 149.529 94.803 166.137C77.5008 182.745 65.0781 203.775 58.8831 226.944C52.6881 250.114 52.9575 274.537 59.6622 297.564C66.3669 320.591 79.2506 341.342 96.915 357.564C101.68 361.909 105.463 367.222 108.01 373.146C110.556 379.071 111.808 385.471 111.682 391.918C110.758 433.294 112.741 476.908 126.77 480.667C140.8 484.426 164.371 447.653 184.223 411.356C187.333 405.708 191.615 400.79 196.781 396.931C201.947 393.073 207.878 390.364 214.177 388.984C237.587 383.77 259.122 372.242 276.443 355.652C293.764 339.063 306.21 318.046 312.43 294.882C318.65 271.718 318.406 247.294 311.725 224.259C305.043 201.224 292.18 180.46 274.531 164.22C269.719 159.824 265.912 154.443 263.368 148.443C260.824 142.443 259.604 135.965 259.789 129.451C261.186 86.5167 260.555 37.7439 246.463 33.968Z" fill="#151520"/>
<path opacity="0.8" d="M99.7385 237.092C112.486 189.517 161.388 161.283 208.963 174.031C256.539 186.779 284.772 235.681 272.024 283.256C259.277 330.831 210.375 359.065 162.8 346.317C115.224 333.569 86.9907 284.668 99.7385 237.092Z" fill="#13131E"/>
<path opacity="0.46" d="M120.114 246.754C109.673 285.722 132.798 325.776 171.766 336.217C210.734 346.659 250.788 323.534 261.23 284.566C271.671 245.598 248.546 205.543 209.578 195.102C170.61 184.66 130.556 207.786 120.114 246.754Z" fill="#13131E"/>
<defs>
<radialGradient id="paint0_radial_3784_1988" cx="0" cy="0" r="1" gradientUnits="userSpaceOnUse" gradientTransform="translate(394.17 251.349) rotate(-159.578) scale(285.625 338.538)">
<stop stop-color="#2F6756"/>
<stop offset="0.427083" stop-color="#1B0724"/>
<stop offset="0.699054" stop-color="#2F1A51"/>
<stop offset="1" stop-color="#7C2BA3"/>
</radialGradient>
<radialGradient id="paint1_radial_3784_1988" cx="0" cy="0" r="1" gradientUnits="userSpaceOnUse" gradientTransform="translate(202.587 350.028) rotate(-120.987) scale(261.24 309.635)">
<stop stop-color="#2F6756"/>
<stop offset="0.427083" stop-color="#1B0724"/>
<stop offset="0.699054" stop-color="#2F1A51"/>
<stop offset="1" stop-color="#7C2BA3"/>
</radialGradient>
</defs>
</svg>
