<svg width="160" height="160" viewBox="0 0 160 160" fill="none" xmlns="http://www.w3.org/2000/svg">
  <g clip-path="url(#clip0_11818_24347)">
    <ellipse cx="80.5721" cy="78.9437" rx="46.6768" ry="67.0978" transform="rotate(-29.1364 80.5721 78.9437)"
      fill="url(#paint0_radial_11818_24347)" />
    <path
      d="M68.2656 151.691C79.2688 153.272 89.7104 152.121 98.9895 148.744L119.711 141.202C110.432 144.58 99.9911 145.73 88.9878 144.146L68.2656 151.691Z"
      fill="black" />
    <path fill-rule="evenodd" clip-rule="evenodd"
      d="M39.8185 16.5676C48.4328 13.4326 58.0673 12.216 68.2664 13.3444L68.267 13.3441C106.19 17.5454 137.438 52.4866 137.438 91.3199C137.438 118.884 121.693 140.48 98.9917 148.743L119.712 141.202C142.414 132.94 158.16 111.34 158.16 83.7783V83.7782C158.16 44.9446 126.912 10.0031 88.9885 5.80224L88.9878 5.80247C78.7887 4.6743 69.1548 5.89085 60.5405 9.02582L39.8185 16.5676Z"
      fill="url(#paint1_radial_11818_24347)" />
    <path
      d="M39.8184 16.5677C16.9699 24.885 1.29865 46.6944 1.29865 73.9948L22.0198 66.453C22.0198 39.1526 37.6918 17.3432 60.5403 9.02588L39.8184 16.5677Z"
      fill="black" />
    <path
      d="M1.29871 73.9947C1.29871 111.59 31.0145 146.336 68.2663 151.691L88.9885 144.146C51.7368 138.795 22.0199 104.048 22.0199 66.4529L1.29871 73.9947Z"
      fill="black" />
    <path fill-rule="evenodd" clip-rule="evenodd"
      d="M68.2662 151.69C106.19 157.139 137.438 130.15 137.438 91.3191C137.438 52.4879 106.19 17.5471 68.2662 13.3456C31.0146 9.21851 1.29774 36.4023 1.29774 73.9965C1.29774 111.591 31.0146 146.337 68.2662 151.69ZM70.5949 40.726C71.4714 41.7356 71.9635 43.0232 71.9635 44.3056V49.1409C75.8351 49.6017 79.6178 51.2948 82.7897 53.9893C85.9664 56.6877 88.3712 60.2562 89.6709 64.2015C90.0608 65.4567 89.9754 66.7632 89.4326 67.8395C88.8899 68.9153 87.9332 69.6749 86.7697 69.9544C85.6069 70.2341 84.3302 70.0121 83.2137 69.3364C82.0982 68.6612 81.232 67.587 80.8008 66.3445C80.1534 64.3753 78.9545 62.593 77.3706 61.2436C75.7879 59.8952 73.8983 59.0456 71.9635 58.8118V78.1529C76.9287 78.779 81.7016 81.4233 85.2274 85.5083C88.759 89.5998 90.7458 94.7963 90.7458 99.9489C90.7458 105.101 88.759 109.778 85.2274 112.947C81.7016 116.11 76.9287 117.507 71.9635 116.835V121.671C71.9635 122.953 71.4714 124.115 70.5949 124.902C69.7192 125.688 68.5315 126.034 67.2943 125.864C66.0577 125.693 64.8721 125.022 63.9988 123.997C63.1254 122.972 62.6353 121.678 62.6353 120.398V115.573C58.788 115.054 55.0425 113.312 51.9122 110.591C48.7865 107.874 46.4265 104.312 45.1533 100.395C44.7717 99.1499 44.8552 97.8579 45.3866 96.7968C45.9182 95.7357 46.8559 94.9894 47.9975 94.7194C49.1398 94.4493 50.3952 94.6764 51.4944 95.3534C52.5938 96.0308 53.4482 97.1036 53.8739 98.3411C54.5133 100.303 55.6983 102.086 57.266 103.444C58.8348 104.802 60.7108 105.669 62.6353 105.924V86.6257C57.7037 85.9926 52.9849 83.3582 49.5128 79.3062C46.0464 75.2611 44.1014 70.1287 44.1014 65.0329C44.1014 59.9375 46.0464 55.2865 49.5128 52.0994C52.9849 48.9072 57.7037 47.4412 62.6353 48.029V43.2044C62.6353 41.9249 63.1254 40.7553 63.9987 39.9527C64.872 39.1498 66.0577 38.7799 67.2942 38.9244C68.5315 39.0692 69.7192 39.7171 70.5949 40.726ZM56.0635 59.7015C57.8043 58.1067 60.1678 57.3785 62.6353 57.6783V76.9766C60.1678 76.6652 57.8043 75.3521 56.0635 73.3262C54.3242 71.3021 53.3479 68.731 53.3479 66.1776C53.3479 63.624 54.3242 61.2951 56.0635 59.7015ZM71.9635 107.164V87.8234C74.4449 88.142 76.8272 89.4677 78.5853 91.5104C80.3448 93.5547 81.3338 96.1481 81.3338 98.7186C81.3338 101.289 80.3448 103.624 78.5853 105.208C76.8272 106.791 74.4449 107.494 71.9635 107.164Z"
      fill="url(#paint2_radial_11818_24347)" />
  </g>
  <defs>
    <radialGradient id="paint0_radial_11818_24347" cx="0" cy="0" r="1" gradientUnits="userSpaceOnUse"
      gradientTransform="translate(59.2341 54.0216) rotate(69.1188) scale(127.214 100.486)">
      <stop stop-color="#2F6756" />
      <stop offset="0.427083" stop-color="#1B0724" />
      <stop offset="0.699054" stop-color="#2F1A51" />
      <stop offset="1" stop-color="#7C2BA3" />
    </radialGradient>
    <radialGradient id="paint1_radial_11818_24347" cx="0" cy="0" r="1" gradientUnits="userSpaceOnUse"
      gradientTransform="translate(126.039 50.4432) rotate(114.357) scale(139.375 124.204)">
      <stop stop-color="#2F6756" />
      <stop offset="0.427083" stop-color="#1B0724" />
      <stop offset="0.699054" stop-color="#2F1A51" />
      <stop offset="1" stop-color="#7C2BA3" />
    </radialGradient>
    <radialGradient id="paint2_radial_11818_24347" cx="0" cy="0" r="1" gradientUnits="userSpaceOnUse"
      gradientTransform="translate(122.098 60.9168) rotate(123.526) scale(165.898 188.714)">
      <stop stop-color="#BBC6C0" />
      <stop offset="0.497259" stop-color="#535E5D" />
      <stop offset="1" stop-color="#2C242D" />
    </radialGradient>
    <clipPath id="clip0_11818_24347">
      <rect width="156.863" height="147.001" fill="white" transform="matrix(-1 0 0 1 158.16 5.38916)" />
    </clipPath>
  </defs>
</svg>