<svg width="16" height="16" viewBox="0 0 16 16" fill="none" xmlns="http://www.w3.org/2000/svg">
  <path fill-rule="evenodd" clip-rule="evenodd" d="M0 15.316L14.5867 0L15.2381 0.684003L0.651431 16L0 15.316Z"
    fill="#4C4C5C" />
  <path
    d="M9.95482 2.60055C8.98028 2.34853 7.95929 2.33339 6.9762 2.55766C5.93012 2.7963 4.96105 3.29823 4.1594 4.01661C3.35775 4.73499 2.74967 5.64641 2.39188 6.66583C2.2749 6.99912 2.44805 7.36492 2.77862 7.48286C3.10919 7.6008 3.472 7.42622 3.58898 7.09293C3.87521 6.2774 4.36168 5.54826 5.00299 4.97356C5.64431 4.39885 6.41957 3.99731 7.25644 3.8064C7.79749 3.68297 8.3529 3.65018 8.90069 3.70739L9.95482 2.60055Z"
    fill="#4C4C5C" />
  <path d="M3.44105 9.44001H1.39677C1.04611 9.44001 0.761849 9.72662 0.761849 10.0802V12.2532L3.44105 9.44001Z"
    fill="#4C4C5C" />
  <path
    d="M4.69992 14.0117C5.28105 14.4292 5.92993 14.7464 6.62023 14.9478C7.65052 15.2482 8.73951 15.2806 9.78559 15.042C10.8317 14.8034 11.8008 14.3014 12.6024 13.5831C13.404 12.8647 14.0121 11.9533 14.3699 10.9338C14.4869 10.6005 14.3137 10.2347 13.9832 10.1168C13.6526 9.99886 13.2898 10.1734 13.1728 10.5067C12.8866 11.3223 12.4001 12.0514 11.7588 12.6261C11.1175 13.2008 10.3422 13.6024 9.50536 13.7933C8.6685 13.9842 7.7973 13.9582 6.97307 13.7179C6.48124 13.5744 6.01569 13.3574 5.59131 13.0757L4.69992 14.0117Z"
    fill="#4C4C5C" />
  <path
    d="M11.4926 6.87941H13.7622L12.5691 5.74907L13.4486 4.82553L14.7301 6.03958V3.48L15.1506 3.0385H15.9999V7.51956C15.9999 7.70144 15.9247 7.8656 15.8039 7.98214C15.7539 8.03043 15.6979 8.06893 15.6383 8.09756C15.5555 8.13741 15.4628 8.15971 15.365 8.15971H10.9206V7.48L11.4926 6.87941Z"
    fill="#4C4C5C" />
  <path d="M12.3006 3.76819L11.4157 4.69737L12.3006 3.76819Z" fill="#4C4C5C" />
</svg>