<svg width="15" height="12" viewBox="0 0 15 12" fill="none" xmlns="http://www.w3.org/2000/svg">
  <path
    d="M6.39311 1.31865C7.2169 1.13968 8.07448 1.164 8.88584 1.38935C9.69719 1.6147 10.4359 2.03373 11.033 2.60736C11.0376 2.61179 11.0423 2.61616 11.047 2.62045L12.7972 4.1996H10V5.39989H14.375C14.4713 5.39989 14.5625 5.37897 14.644 5.34162C14.7027 5.31477 14.7578 5.27868 14.807 5.23341C14.9259 5.12415 15 4.97025 15 4.79974V0.59875H13.75V3.41226L11.9099 1.75201C11.1648 1.03849 10.2441 0.517121 9.23316 0.236328C8.21897 -0.0453605 7.147 -0.075761 6.11726 0.147963C5.08752 0.371687 4.13359 0.842245 3.34447 1.51573C2.55535 2.18921 1.95676 3.04367 1.60456 3.99937C1.48941 4.31183 1.65986 4.65477 1.98526 4.76534C2.31066 4.87591 2.6678 4.71224 2.78295 4.39978C3.06471 3.63522 3.54358 2.95165 4.17488 2.41287C4.80618 1.87408 5.56932 1.49763 6.39311 1.31865Z"
    fill="#67677B" />
  <path
    d="M1.25 8.58772V11.4013H0V7.20031C0 6.86886 0.279822 6.60017 0.625 6.60017H5V7.80045H2.20288L3.95299 9.37955C3.95775 9.38384 3.96244 9.38821 3.96706 9.39264C4.56414 9.96627 5.30282 10.3853 6.11418 10.6107C6.92553 10.836 7.78311 10.8603 8.6069 10.6813C9.43069 10.5024 10.1938 10.1259 10.8251 9.58713C11.4564 9.04835 11.9353 8.36478 12.2171 7.60022C12.3322 7.28776 12.6894 7.12409 13.0148 7.23466C13.3402 7.34523 13.5106 7.68817 13.3955 8.00063C13.0433 8.95633 12.4447 9.81079 11.6556 10.4843C10.8664 11.1578 9.91249 11.6283 8.88276 11.852C7.85302 12.0758 6.78104 12.0454 5.76685 11.7637C4.75588 11.4829 3.83517 10.9615 3.09007 10.248L1.25 8.58772Z"
    fill="#67677B" />
</svg>