<svg width="66" height="47" viewBox="0 0 66 47" fill="none" xmlns="http://www.w3.org/2000/svg">
  <mask id="mask0_1_3" style="mask-type:alpha" maskUnits="userSpaceOnUse" x="0" y="0" width="66" height="47">
    <path d="M0 0H66V43L0 47V0Z" fill="url(#paint0_linear_1_3)" />
  </mask>
  <g mask="url(#mask0_1_3)">
    <path
      d="M12.9734 50.2811L18.4527 54.9447C12.2169 49.6358 10.9612 39.6194 16.0264 29.7891C19.8314 22.413 26.4432 16.6644 33.7086 14.0635L28.2294 9.39984C20.9662 12.0095 14.3522 17.7471 10.5472 25.1254C5.48198 34.9492 6.74213 44.9656 12.9734 50.2811Z"
      fill="url(#paint1_linear_1_3)" />
    <path
      d="M12.9734 50.2811L18.4527 54.9447C12.2169 49.6358 10.9612 39.6194 16.0264 29.7891C19.8314 22.413 26.4432 16.6644 33.7086 14.0635L28.2294 9.39984C20.9662 12.0095 14.3522 17.7471 10.5472 25.1254C5.48198 34.9492 6.74213 44.9656 12.9734 50.2811Z"
      fill="url(#paint2_linear_1_3)" />
    <path
      d="M12.9734 50.2811L18.4527 54.9447C12.2169 49.6358 10.9612 39.6194 16.0264 29.7891C19.8314 22.413 26.4432 16.6644 33.7086 14.0635L28.2294 9.39984C20.9662 12.0095 14.3522 17.7471 10.5472 25.1254C5.48198 34.9492 6.74213 44.9656 12.9734 50.2811Z"
      fill="url(#paint3_linear_1_3)" />
    <path
      d="M12.9734 50.2811L18.4527 54.9447C12.2169 49.6358 10.9612 39.6194 16.0264 29.7891C19.8314 22.413 26.4432 16.6644 33.7086 14.0635L28.2294 9.39984C20.9662 12.0095 14.3522 17.7471 10.5472 25.1254C5.48198 34.9492 6.74213 44.9656 12.9734 50.2811Z"
      fill="url(#paint4_linear_1_3)" />
    <path
      d="M12.9734 50.2811L18.4527 54.9447C12.2169 49.6358 10.9612 39.6194 16.0264 29.7891C19.8314 22.413 26.4432 16.6644 33.7086 14.0635L28.2294 9.39984C20.9662 12.0095 14.3522 17.7471 10.5472 25.1254C5.48198 34.9492 6.74213 44.9656 12.9734 50.2811Z"
      fill="url(#paint5_linear_1_3)" />
    <path
      d="M28.2275 9.4063L33.7068 14.0787C33.8331 14.0111 33.9727 13.9708 34.1164 13.9606C34.2582 13.9502 34.3987 13.9941 34.5081 14.0831L29.0288 9.41942C28.9752 9.37445 28.9129 9.34043 28.8457 9.31939C28.7784 9.29835 28.7075 9.29071 28.6371 9.29693C28.4933 9.30612 28.3534 9.34646 28.2275 9.41504"
      fill="url(#paint6_linear_1_3)" />
    <path
      d="M28.2275 9.4063L33.7068 14.0787C33.8331 14.0111 33.9727 13.9708 34.1164 13.9606C34.2582 13.9502 34.3987 13.9941 34.5081 14.0831L29.0288 9.41942C28.9752 9.37445 28.9129 9.34043 28.8457 9.31939C28.7784 9.29835 28.7075 9.29071 28.6371 9.29693C28.4933 9.30612 28.3534 9.34646 28.2275 9.41504"
      fill="url(#paint7_linear_1_3)" />
    <path
      d="M29.2212 9.86571L34.7005 14.5294C34.7033 14.4445 34.6876 14.36 34.6544 14.2816C34.6212 14.2031 34.5713 14.1325 34.508 14.0744L29.0287 9.41073C29.0922 9.46875 29.1422 9.53937 29.1754 9.61785C29.2086 9.69633 29.2242 9.78084 29.2212 9.86571Z"
      fill="url(#paint8_linear_1_3)" />
    <path
      d="M29.2317 10.3602L34.711 15.026C34.7669 14.7723 34.796 14.6432 34.711 14.5207L29.2317 9.85706C29.328 9.97956 29.2989 10.1064 29.2317 10.3602Z"
      fill="url(#paint9_linear_1_3)" />
    <path d="M28.8415 12.1581L34.3207 16.8239L34.7124 15.0346L29.2332 10.3709L28.8415 12.1581Z"
      fill="url(#paint10_linear_1_3)" />
    <path
      d="M27.8224 13.4683L33.3017 18.1342C33.7292 17.8607 34.197 17.3336 34.3201 16.8217L28.8408 12.1581C28.7289 12.6677 28.2499 13.1949 27.8224 13.4705"
      fill="url(#paint11_linear_1_3)" />
    <path
      d="M12.9734 50.2811L18.4527 54.9447C12.2169 49.6358 10.9612 39.6194 16.0264 29.7891C19.8314 22.413 26.4432 16.6644 33.7086 14.0635L28.2294 9.39984C20.9662 12.0095 14.3522 17.7471 10.5472 25.1254C5.48198 34.9492 6.74213 44.9656 12.9734 50.2811Z"
      fill="url(#paint12_linear_1_3)" />
    <path
      d="M15.9639 47.0261L21.4431 51.7029C19.037 49.6532 17.4478 46.7199 16.9979 43.1565C15.5856 33.4923 22.9338 22.157 33.3014 18.1452L27.8221 13.4794C17.4545 17.4955 10.1063 28.8265 11.5187 38.4907C11.9663 42.054 13.5577 44.9896 15.9639 47.037"
      fill="url(#paint13_linear_1_3)" />
    <path
      d="M31.4948 16.7035L36.974 21.3694C37.0859 20.8575 37.5358 20.4594 38.1804 20.3019L32.7012 15.6383C32.0565 15.7936 31.6067 16.1939 31.4948 16.7035Z"
      fill="url(#paint14_linear_1_3)" />
    <path
      d="M24.1449 25.2632L29.6241 29.9269C30.7433 27.0985 33.4292 24.8257 36.3031 24.4386L30.8239 19.7662C27.9387 20.1512 25.2528 22.4239 24.1449 25.2545"
      fill="url(#paint15_linear_1_3)" />
    <path d="M24.1179 25.3922L29.5972 30.0559L29.624 29.929L24.1448 25.2632L24.1179 25.3922Z"
      fill="url(#paint16_linear_1_3)" />
    <path
      d="M24.3025 26.0966L29.7817 30.7624C29.6879 30.6723 29.6212 30.5588 29.5888 30.4342C29.5565 30.3097 29.5597 30.1788 29.5982 30.0559L24.119 25.39C24.0804 25.5129 24.0772 25.6438 24.1096 25.7684C24.1419 25.893 24.2087 26.0065 24.3025 26.0966Z"
      fill="url(#paint17_linear_1_3)" />
    <path
      d="M24.3014 26.1097L29.7806 30.7733C29.9155 30.8814 30.088 30.9339 30.2618 30.9199L24.7826 26.254C24.6091 26.2687 24.4365 26.217 24.3014 26.1097Z"
      fill="url(#paint18_linear_1_3)" />
    <path d="M32.7016 15.645L38.1809 20.3109L40.0229 20.2256L34.5437 15.5597L32.7016 15.645Z"
      fill="url(#paint19_linear_1_3)" />
    <path
      d="M24.1449 25.2632L29.6241 29.9269C30.7433 27.0985 33.4292 24.8257 36.3031 24.4386L30.8239 19.7662C27.9387 20.1512 25.2528 22.4239 24.1449 25.2545"
      fill="url(#paint20_linear_1_3)" />
    <path d="M30.824 19.7749L36.3033 24.4407L36.9747 21.3761L31.4955 16.7124L30.824 19.7749Z"
      fill="url(#paint21_linear_1_3)" />
    <path
      d="M40.3201 9.73444L45.7994 14.3981C45.843 14.152 45.9563 13.9228 46.1264 13.7364C46.2965 13.5501 46.5166 13.414 46.7618 13.3437L41.2826 8.67789C41.0375 8.74906 40.8175 8.88565 40.6475 9.0723C40.4775 9.25895 40.3641 9.48826 40.3201 9.73444Z"
      fill="url(#paint22_linear_1_3)" />
    <path
      d="M34.5436 15.5598L40.0228 20.2256C40.109 20.2177 40.1958 20.2266 40.2785 20.2517C40.3611 20.2769 40.4377 20.3178 40.504 20.3722L35.0158 15.7085C34.8813 15.5997 34.7087 15.5463 34.5346 15.5598"
      fill="url(#paint23_linear_1_3)" />
    <path
      d="M41.2832 8.67785L46.7624 13.3437C46.9162 13.3195 47.0738 13.3465 47.2101 13.4202L41.7308 8.7566C41.5955 8.68025 41.4372 8.6524 41.2832 8.67785Z"
      fill="url(#paint24_linear_1_3)" />
    <path
      d="M41.7463 8.78295L47.2256 13.4466L47.201 13.4203L41.7307 8.75671C41.7405 8.76384 41.7489 8.77275 41.7553 8.78295"
      fill="url(#paint25_linear_1_3)" />
    <path
      d="M35.3028 16.5354L40.7821 21.2012C40.8005 21.0516 40.7852 20.8998 40.7373 20.7566C40.6894 20.6134 40.6099 20.4822 40.5045 20.3721L35.0163 15.7085C35.1219 15.8179 35.2015 15.9488 35.2495 16.0917C35.2975 16.2346 35.3126 16.3861 35.2939 16.5354"
      fill="url(#paint26_linear_1_3)" />
    <path d="M24.7831 26.2453L30.2623 30.909L32.2297 30.8193L26.7505 26.1534L24.7831 26.2453Z"
      fill="url(#paint27_linear_1_3)" />
    <path d="M39.9286 11.5216L45.4079 16.1853L45.7996 14.4003L40.3203 9.73447L39.9286 11.5216Z"
      fill="url(#paint28_linear_1_3)" />
    <path
      d="M40.182 12.624L45.6613 17.2898C45.3837 17.0536 45.2942 16.7101 45.4083 16.1851L39.9291 11.5193C39.8149 12.0443 39.9045 12.3943 40.182 12.624Z"
      fill="url(#paint29_linear_1_3)" />
    <path
      d="M40.1814 12.6243L45.6607 17.2901C45.7242 17.343 45.7932 17.3892 45.8666 17.4279L40.3873 12.7665C40.3142 12.7264 40.2452 12.6796 40.1814 12.6265"
      fill="url(#paint30_linear_1_3)" />
    <path d="M34.6602 19.4729L40.1395 24.1388L40.7819 21.201L35.3049 16.5352L34.6602 19.4729Z"
      fill="url(#paint31_linear_1_3)" />
    <path
      d="M22.5508 41.0567L28.0301 45.7203C26.658 44.5522 26.0917 42.7301 26.5662 40.5557C27.5444 36.089 30.4608 34.4309 35.7632 33.5559C39.5683 32.8756 40.524 31.8212 40.9112 30.0319C41.1149 29.0957 40.9448 28.3476 40.3785 27.8685L34.8993 23.2027C35.4655 23.6839 35.6379 24.4299 35.432 25.3683C35.0403 27.1554 34.089 28.212 30.284 28.8901C24.9838 29.7651 22.0651 31.4188 21.087 35.8899C20.6125 38.062 21.1788 39.8842 22.5508 41.0545"
      fill="url(#paint32_linear_1_3)" />
    <path
      d="M26.7512 26.1535L32.2304 30.8172C32.4409 30.7935 32.6421 30.7194 32.8163 30.6015C32.9904 30.4836 33.1321 30.3255 33.2287 30.1412C34.2628 28.1966 35.6594 27.3763 37.8708 27.2735C39.0392 27.221 39.8741 27.4376 40.3844 27.875L34.9051 23.2092C34.3948 22.7717 33.5622 22.553 32.3916 22.6098C30.1802 22.7105 28.7835 23.5329 27.7495 25.4776C27.6524 25.6615 27.5106 25.8193 27.3365 25.9371C27.1625 26.055 26.9615 26.1293 26.7512 26.1535Z"
      fill="url(#paint33_linear_1_3)" />
    <path
      d="M34.6602 19.473L40.1395 24.141C41.5272 24.2744 42.6419 24.7229 43.4476 25.4097L37.9684 20.7439C37.1626 20.057 36.048 19.6086 34.6602 19.4773"
      fill="url(#paint34_linear_1_3)" />
    <path
      d="M40.3882 12.7663L45.8674 17.43C47.3345 17.9586 48.6918 18.7419 49.8739 19.7421L44.3947 15.0785C43.2138 14.0765 41.8562 13.2931 40.3882 12.7663Z"
      fill="url(#paint35_linear_1_3)" />
    <path
      d="M41.7466 8.78289L47.2258 13.4465C49.3003 14.0634 51.2195 15.0985 52.8595 16.4849L47.3802 11.8191C45.7407 10.4325 43.8213 9.39814 41.7466 8.78289Z"
      fill="url(#paint36_linear_1_3)" />
    <path
      d="M22.5508 41.0567L28.0301 45.7203C26.658 44.5522 26.0917 42.7301 26.5662 40.5557C27.5444 36.089 30.4608 34.4309 35.7632 33.5559C39.5683 32.8756 40.524 31.8212 40.9112 30.0319C41.1149 29.0957 40.9448 28.3476 40.3785 27.8685L34.8993 23.2027C35.4655 23.6839 35.6379 24.4299 35.432 25.3683C35.0403 27.1554 34.089 28.212 30.284 28.8901C24.9838 29.7651 22.0651 31.4188 21.087 35.8899C20.6125 38.062 21.1788 39.8842 22.5508 41.0545"
      fill="url(#paint37_linear_1_3)" />
    <path
      d="M22.5508 41.0567L28.0301 45.7203C26.658 44.5522 26.0917 42.7301 26.5662 40.5557C27.5444 36.089 30.4608 34.4309 35.7632 33.5559C39.5683 32.8756 40.524 31.8212 40.9112 30.0319C41.1149 29.0957 40.9448 28.3476 40.3785 27.8685L34.8993 23.2027C35.4655 23.6839 35.6379 24.4299 35.432 25.3683C35.0403 27.1554 34.089 28.212 30.284 28.8901C24.9838 29.7651 22.0651 31.4188 21.087 35.8899C20.6125 38.062 21.1788 39.8842 22.5508 41.0545"
      fill="url(#paint38_linear_1_3)" />
    <path
      d="M22.5508 41.0567L28.0301 45.7203C26.658 44.5522 26.0917 42.7301 26.5662 40.5557C27.5444 36.089 30.4608 34.4309 35.7632 33.5559C39.5683 32.8756 40.524 31.8212 40.9112 30.0319C41.1149 29.0957 40.9448 28.3476 40.3785 27.8685L34.8993 23.2027C35.4655 23.6839 35.6379 24.4299 35.432 25.3683C35.0403 27.1554 34.089 28.212 30.284 28.8901C24.9838 29.7651 22.0651 31.4188 21.087 35.8899C20.6125 38.062 21.1788 39.8842 22.5508 41.0545"
      fill="url(#paint39_linear_1_3)" />
    <path
      d="M25.6871 38.506L31.1664 43.1719C30.4949 42.5988 30.2062 41.7172 30.4434 40.6322C30.8911 38.5892 32.1646 37.771 35.7458 36.9748L30.2666 32.309C26.6854 33.1074 25.4118 33.9233 24.9642 35.9664C24.7269 37.0601 25.0157 37.9351 25.6871 38.506Z"
      fill="url(#paint40_linear_1_3)" />
    <path
      d="M32.5341 48.6403L38.0134 53.3039C48.381 49.29 55.7292 37.9568 54.3168 28.2904C53.8692 24.7293 52.2778 21.7959 49.8739 19.7463L44.3946 15.0826C46.8008 17.1301 48.3877 20.0635 48.8376 23.6268C50.2499 33.291 42.9017 44.6263 32.5341 48.6403Z"
      fill="url(#paint41_linear_1_3)" />
    <path
      d="M22.5521 41.0566L28.0313 45.7202C28.9431 46.4556 30.0564 46.9121 31.2321 47.0327L25.7528 42.369C24.5775 42.2468 23.4647 41.7905 22.5521 41.0566Z"
      fill="url(#paint42_linear_1_3)" />
    <path
      d="M30.2659 32.309L35.7452 36.9749C41.0476 36.0999 43.8678 34.3281 44.79 30.115C45.2197 28.1616 44.7206 26.4882 43.447 25.4055L37.9678 20.7396C39.2413 21.8224 39.7404 23.4958 39.3107 25.4492C38.3863 29.6622 35.5661 31.4341 30.2637 32.309"
      fill="url(#paint43_linear_1_3)" />
    <path d="M25.0813 45.4402L30.5606 50.1038L31.2321 47.0414L25.7528 42.3755L25.0813 45.4402Z"
      fill="url(#paint44_linear_1_3)" />
    <path
      d="M25.6868 38.5059L31.1661 43.1717C31.7592 43.677 32.6501 43.9395 33.7446 43.8892C36.9408 43.7426 38.3554 42.288 39.141 40.3565L33.6729 35.6928C32.8851 37.6243 31.4705 39.079 28.2743 39.2256C27.182 39.2759 26.2889 39.0068 25.6958 38.5059"
      fill="url(#paint45_linear_1_3)" />
    <path
      d="M33.6726 35.6929L39.1496 40.3565C39.2304 40.1437 39.3688 39.9563 39.5502 39.8145C39.7316 39.6727 39.949 39.5818 40.1792 39.5515L34.7 34.8857C34.4697 34.9161 34.2524 35.0073 34.0713 35.1496C33.8903 35.2918 33.7524 35.4796 33.6726 35.6929Z"
      fill="url(#paint46_linear_1_3)" />
    <path
      d="M25.6868 38.5059L31.1661 43.1717C31.7592 43.677 32.6501 43.9395 33.7446 43.8892C36.9408 43.7426 38.3554 42.288 39.141 40.3565L33.6729 35.6928C32.8851 37.6243 31.4705 39.079 28.2743 39.2256C27.182 39.2759 26.2889 39.0068 25.6958 38.5059"
      fill="url(#paint47_linear_1_3)" />
    <path
      d="M25.3603 46.2649L30.8373 50.9307C30.7324 50.8208 30.6532 50.6899 30.6052 50.5472C30.5573 50.4044 30.5418 50.2531 30.5597 50.1038L25.0805 45.438C25.062 45.5874 25.0776 45.739 25.1259 45.8819C25.1743 46.0249 25.2543 46.1556 25.3603 46.2649Z"
      fill="url(#paint48_linear_1_3)" />
    <path
      d="M10.5476 25.1319C4.20665 37.4275 7.77219 50.0272 18.6053 53.3171C18.7016 53.4396 18.9456 53.4287 19.0687 53.4221C19.3135 53.3511 19.5332 53.2149 19.7032 53.0286C19.8732 52.8424 19.9868 52.6136 20.0311 52.3678L20.4228 50.5806C20.5616 49.9441 20.3982 49.57 19.964 49.3382C15.3487 47.656 12.186 43.758 11.5146 38.4797C10.1022 28.8155 17.4504 17.4802 27.818 13.4684C28.2455 13.1949 28.7133 12.6678 28.8364 12.1559L29.2326 10.36C29.2885 10.1063 29.3176 9.9794 29.2326 9.8569C29.2397 9.77989 29.2295 9.7023 29.2027 9.62954C29.176 9.55678 29.1333 9.49061 29.0777 9.43563C29.022 9.38065 28.9548 9.33819 28.8807 9.3112C28.8065 9.28422 28.7273 9.27337 28.6484 9.27941C28.5046 9.2886 28.3647 9.32895 28.2388 9.39753C20.9645 12.0159 14.3549 17.7536 10.5476 25.1319Z"
      fill="url(#paint49_linear_1_3)" />
    <path
      d="M25.36 46.265L30.837 50.9308C30.9715 51.0396 31.1441 51.093 31.3182 51.0795L25.839 46.4137C25.753 46.4213 25.6664 46.412 25.5842 46.3865C25.5019 46.3609 25.4257 46.3196 25.36 46.265Z"
      fill="url(#paint50_linear_1_3)" />
    <path d="M34.6917 34.8879L40.171 39.5515L42.2593 39.4553L36.78 34.7916L34.6917 34.8879Z"
      fill="url(#paint51_linear_1_3)" />
    <path
      d="M36.7799 34.7895L42.2591 39.4532C42.4329 39.4391 42.6055 39.4916 42.7404 39.5997L37.2544 34.9361C37.1195 34.828 36.947 34.7754 36.7732 34.7895"
      fill="url(#paint52_linear_1_3)" />
    <path d="M25.842 46.4158L31.319 51.0794L33.1633 50.9963L27.6841 46.3305L25.842 46.4158Z"
      fill="url(#paint53_linear_1_3)" />
    <path
      d="M37.4468 35.6426L42.9261 40.3084C42.9636 40.1853 42.9661 40.0545 42.9334 39.93C42.9006 39.8056 42.8339 39.6921 42.7403 39.6019L37.2543 34.9361C37.3484 35.026 37.4154 35.1395 37.4481 35.264C37.4809 35.3886 37.4781 35.5195 37.4401 35.6426"
      fill="url(#paint54_linear_1_3)" />
    <path d="M28.8902 45.263L34.3694 49.9288L35.0409 46.8664L29.5616 42.2006L28.8902 45.263Z"
      fill="url(#paint55_linear_1_3)" />
    <path d="M37.4179 35.7716L42.8972 40.4375L42.9263 40.3084L37.447 35.6448L37.4179 35.7716Z"
      fill="url(#paint56_linear_1_3)" />
    <path
      d="M27.6835 46.3283L33.1627 50.9941C33.8051 50.8388 34.2572 50.4385 34.3691 49.9288L28.8899 45.263C28.778 45.7726 28.3259 46.1729 27.6835 46.3283Z"
      fill="url(#paint57_linear_1_3)" />
    <path
      d="M29.5612 42.2006L35.0405 46.8642C39.2349 46.0395 41.706 43.6508 42.8967 40.4353L37.4175 35.7717C36.2267 38.985 33.7557 41.3737 29.5612 42.2006Z"
      fill="url(#paint58_linear_1_3)" />
    <path
      d="M32.5341 48.6403L38.0134 53.3039C48.381 49.29 55.7292 37.9568 54.3168 28.2904C53.8692 24.7293 52.2778 21.7959 49.8739 19.7463L44.3946 15.0826C46.8008 17.1301 48.3877 20.0635 48.8376 23.6268C50.2499 33.291 42.9017 44.6263 32.5341 48.6403Z"
      fill="url(#paint59_linear_1_3)" />
    <path
      d="M32.5341 48.6403L38.0134 53.3039C48.381 49.29 55.7292 37.9568 54.3168 28.2904C53.8692 24.7293 52.2778 21.7959 49.8739 19.7463L44.3946 15.0826C46.8008 17.1301 48.3877 20.0635 48.8376 23.6268C50.2499 33.291 42.9017 44.6263 32.5341 48.6403Z"
      fill="url(#paint60_linear_1_3)" />
    <path
      d="M32.1577 52.5778L37.6369 57.2415C45.0232 54.6275 51.5141 48.8941 55.2878 41.6449C60.3552 31.8211 59.0929 21.8026 52.8593 16.4893L47.3801 11.8234C53.6181 17.1346 54.876 27.1509 49.8086 36.9791C46.0304 44.2196 39.5417 49.9529 32.1577 52.5778Z"
      fill="url(#paint61_linear_1_3)" />
    <path fill-rule="evenodd" clip-rule="evenodd"
      d="M0.766731 32.0267C4.48447 15.05 20.6335 0.783412 36.9727 0.0309298C53.3187 -0.721553 63.4759 12.3331 59.7582 29.3099C56.0404 46.2867 39.8982 60.5489 23.5522 61.3036C7.2062 62.0582 -2.95101 49.0035 0.766731 32.0267ZM10.5613 25.1319C4.21588 37.4276 7.78142 50.036 18.6191 53.3172L18.6146 53.3194C18.7009 53.4292 18.906 53.4265 19.0362 53.4248C19.0512 53.4246 19.0652 53.4244 19.0779 53.4244C19.3227 53.3534 19.5425 53.2171 19.7125 53.0309C19.8825 52.8447 19.996 52.6158 20.0404 52.37L20.432 50.5829C20.5708 49.9463 20.4074 49.5723 19.9732 49.3404C15.3534 47.6692 12.1953 43.7602 11.5238 38.4819C10.1114 28.8178 17.4596 17.4868 27.8272 13.4706C28.2547 13.195 28.7337 12.6678 28.8456 12.1581L29.2373 10.3688C29.3045 10.1151 29.3336 9.9882 29.2373 9.8657C29.2444 9.78869 29.2342 9.71111 29.2075 9.63835C29.1807 9.56559 29.138 9.49941 29.0824 9.44443C29.0268 9.38945 28.9596 9.34699 28.8854 9.32001C28.8113 9.29303 28.732 9.28218 28.6532 9.28822C28.5093 9.29741 28.3694 9.33776 28.2436 9.40634C20.9782 12.0072 14.3664 17.7536 10.5613 25.1319ZM31.5405 49.8173L31.1488 51.6066L31.151 51.6132L31.1488 51.624C31.0965 51.8706 31.0696 51.9977 31.1645 52.1163C31.157 52.1934 31.1669 52.2711 31.1935 52.3441C31.2202 52.417 31.2628 52.4833 31.3185 52.5384C31.3742 52.5935 31.4416 52.6359 31.5159 52.6628C31.5903 52.6896 31.6697 52.7002 31.7487 52.6938C31.8923 52.6851 32.0321 52.6455 32.1583 52.5778C39.5423 49.9529 46.031 44.2196 49.8024 36.9726C56.1479 24.6769 52.5823 12.0663 41.7447 8.7851C41.6596 8.67616 41.4497 8.67842 41.3194 8.67982C41.3058 8.67997 41.293 8.6801 41.2814 8.6801C41.0363 8.75127 40.8163 8.88785 40.6463 9.0745C40.4763 9.26115 40.3629 9.49046 40.3189 9.73664L39.9272 11.5216C39.7885 12.1603 39.9519 12.5322 40.3861 12.7663C45.0058 14.4484 48.164 18.3443 48.8355 23.6226C50.2478 33.2867 42.8997 44.6199 32.5321 48.636C32.1045 48.9073 31.6256 49.4367 31.5405 49.8173ZM25.7524 42.3843L25.0809 45.4468L25.0742 45.4446C25.0585 46.0767 25.3428 46.4442 25.8329 46.4202L27.6773 46.3349C27.6832 46.3334 27.6892 46.332 27.6951 46.3305L25.8508 46.4158C25.3607 46.4398 25.0764 46.0745 25.0921 45.4402L25.7635 42.3778C22.2181 41.9096 20.3447 39.3416 21.099 35.8941C21.5768 33.71 22.5177 32.1982 23.973 31.1211C22.5113 32.1992 21.5669 33.7132 21.0879 35.9007C20.3336 39.3481 22.2047 41.914 25.7524 42.3843ZM33.7181 27.8321C34.7866 27.2167 35.2067 26.4229 35.4328 25.3791C35.82 23.5919 34.8442 22.5004 32.3866 22.6141C31.3138 22.663 30.4328 22.8817 29.6918 23.3159C30.4351 22.8773 31.3196 22.6566 32.3977 22.6076C34.8598 22.4938 35.8357 23.5854 35.444 25.3725C35.2145 26.4195 34.793 27.2158 33.7181 27.8321ZM27.2674 25.9822C27.1088 26.0765 26.9311 26.1365 26.7462 26.1578L24.7787 26.2475C24.2886 26.2716 24.0021 25.9063 24.1073 25.3944L24.1341 25.2675C24.4163 24.5537 24.7982 23.8754 25.2576 23.2539C24.8018 23.8736 24.4237 24.5497 24.1453 25.261L24.1184 25.3878C24.0065 25.8997 24.293 26.2628 24.7899 26.2409L26.7573 26.1513C26.9379 26.1305 27.1117 26.0727 27.2674 25.9822ZM30.8142 19.774L31.4845 16.7168C31.5612 16.3676 31.7965 16.0697 32.1445 15.8668C31.8027 16.0696 31.5716 16.3648 31.4957 16.7102L30.8242 19.7727C30.8209 19.7731 30.8176 19.7735 30.8142 19.774ZM32.247 31.9137C31.6265 32.066 30.9632 32.1987 30.2557 32.3155C30.0264 32.3666 29.8065 32.4178 29.5957 32.4694C29.812 32.4163 30.0378 32.3637 30.2736 32.3111C30.9743 32.1955 31.6317 32.0642 32.247 31.9137ZM29.9365 39.0018C31.9811 38.4975 33.0199 37.2527 33.6534 35.6995C33.7332 35.4863 33.8711 35.2984 34.0522 35.1562C34.2012 35.0391 34.3747 34.9566 34.5598 34.9141C34.3813 34.9579 34.2139 35.0389 34.0695 35.1521C33.8881 35.2943 33.7497 35.482 33.6691 35.6951C33.0355 37.2528 31.9928 38.5003 29.9365 39.0018ZM30.1929 42.0662C29.9906 42.1159 29.7839 42.1618 29.5729 42.2036L29.573 42.2028C29.784 42.1612 29.9906 42.1156 30.1929 42.0662Z"
      fill="url(#paint62_linear_1_3)" />
    <path
      d="M41.2831 8.67794C41.0379 8.7491 40.818 8.88569 40.648 9.07234C40.478 9.25899 40.3646 9.4883 40.3206 9.73448L39.9289 11.5194C39.7901 12.1582 39.9535 12.53 40.3878 12.7641C45.0075 14.4462 48.1702 18.3421 48.8372 23.6204C50.2495 33.2845 42.9013 44.6199 32.5337 48.6339C32.1062 48.9051 31.6384 49.4345 31.5422 49.8151L31.1505 51.6044C31.0968 51.8582 31.0677 51.9872 31.1639 52.1097C31.1568 52.1866 31.167 52.2642 31.1937 52.3368C31.2205 52.4095 31.2632 52.4755 31.3189 52.5304C31.3746 52.5852 31.4418 52.6274 31.516 52.6542C31.5901 52.6809 31.6693 52.6914 31.7481 52.685C31.8917 52.6764 32.0316 52.6368 32.1577 52.5691C39.5439 49.9442 46.0349 44.2196 49.8086 36.9704C56.1496 24.6748 52.584 12.075 41.7509 8.78294C41.6501 8.66263 41.4062 8.67356 41.2831 8.67794Z"
      fill="url(#paint63_linear_1_3)" />
    <path
      d="M7.44532 56.2549L12.9246 60.9186C16.987 64.3769 22.5177 66.2691 29.04 65.9694C45.377 65.2169 61.5193 50.9526 65.2326 33.9845C67.4708 23.7713 64.6842 14.9778 58.5514 9.75633L53.0722 5.0905C59.205 10.3141 61.9916 19.1077 59.7533 29.3209C56.0356 46.2977 39.8933 60.562 23.5473 61.3145C17.034 61.6164 11.5033 59.7242 7.43189 56.2659"
      fill="url(#paint64_linear_1_3)" />
    <path fill-rule="evenodd" clip-rule="evenodd"
      d="M36.9727 0.0309298C20.6335 0.783412 4.48445 15.05 0.766712 32.0267C-2.95103 49.0035 7.20618 62.0582 23.5522 61.3036C28.722 61.0649 33.8714 59.4751 38.6138 56.8755C38.634 56.8676 38.6542 56.8596 38.6744 56.8515C33.9139 59.4723 28.7409 61.0754 23.5473 61.3145C17.3614 61.6012 12.0617 59.9089 8.05679 56.7754L7.44529 56.2549L7.43187 56.2659C7.63651 56.4397 7.84484 56.6096 8.05679 56.7754L12.9245 60.9186C16.987 64.3769 22.5177 66.2691 29.04 65.9694C45.377 65.2169 61.5193 50.9526 65.2326 33.9845C67.4708 23.7713 64.6842 14.9778 58.5514 9.75633L53.5528 5.49985C49.452 1.77637 43.7433 -0.28075 36.9727 0.0309298ZM40.3205 9.73468L39.9289 11.5194C39.8971 11.6658 39.8811 11.7981 39.8807 11.918C39.8794 12.1949 39.96 12.4061 40.1184 12.566C40.1383 12.5865 40.1595 12.6063 40.1818 12.6253C40.1952 12.6365 40.2088 12.6484 40.2226 12.659L40.2472 12.68C39.9183 12.4433 39.8044 12.087 39.9272 11.5216L40.3189 9.73664C40.3551 9.53425 40.4381 9.34325 40.561 9.17799C40.439 9.34274 40.3565 9.53319 40.3205 9.73468ZM40.2226 12.659L40.2133 12.651L40.2186 12.6552L40.227 12.6623L40.2226 12.659ZM33.9516 51.8634L33.9479 51.865L33.9544 51.8705L33.9581 51.8689L33.9516 51.8634ZM31.1937 52.3368C31.1759 52.2885 31.1654 52.238 31.1625 52.1869C31.1646 52.2404 31.175 52.2934 31.1935 52.3441C31.2201 52.417 31.2628 52.4833 31.3185 52.5384C31.3265 52.5463 31.3347 52.554 31.3432 52.5613L31.3543 52.5707V52.5647L31.3371 52.5475L31.3188 52.5303C31.2632 52.4755 31.2205 52.4095 31.1937 52.3368ZM31.1638 52.1097C31.1255 52.0609 31.1071 52.0111 31.1021 51.9528C31.1059 52.0139 31.124 52.0652 31.1634 52.115L31.1638 52.1097ZM31.1504 51.6044L31.2649 51.0816L31.1488 51.6066L31.1504 51.6044ZM42.1858 41.9834C46.6546 37.1654 49.3252 30.8812 48.9814 25.0361C48.9534 24.5631 48.9056 24.093 48.8375 23.6268C48.5589 21.4205 47.8445 19.4558 46.7696 17.7933L46.7669 17.7921C47.8405 19.4539 48.555 21.4176 48.8355 23.6226C49.7457 29.851 47.0164 36.7741 42.1858 41.9834ZM31.5131 16.6111L31.5104 16.6196L31.5157 16.6241L31.5182 16.6155L31.5131 16.6111ZM30.9376 19.2113L30.8157 19.7673L30.8238 19.7662L30.9479 19.206L30.9376 19.2113ZM19.0362 53.4248L19.0692 53.4244L19.0747 53.4237L19.0731 53.4208L19.0686 53.4221L19.0362 53.4248ZM20.1765 49.4782L20.2198 49.515C20.1509 49.4491 20.0686 49.3913 19.9732 49.3404C20.0468 49.3788 20.1136 49.4246 20.1765 49.4782ZM19.9758 49.3446L19.9692 49.339C19.7528 49.2606 19.5396 49.1773 19.3297 49.0892C19.5379 49.1769 19.7493 49.26 19.9639 49.3382L19.9758 49.3446ZM24.1448 25.2545C24.2776 24.9153 24.433 24.5841 24.6087 24.2632C24.4291 24.5882 24.27 24.9237 24.1341 25.2675L24.1072 25.3944C24.0363 25.7395 24.1434 26.018 24.371 26.1554L24.3019 26.0966C24.2936 26.0887 24.2855 26.0805 24.2777 26.0722C24.2089 26.0066 24.1578 25.9238 24.1272 25.8275C24.1202 25.8081 24.1142 25.7884 24.109 25.7685C24.0776 25.6476 24.0797 25.5208 24.115 25.4012L24.1447 25.261L24.1448 25.2545ZM22.7226 41.2026C21.5898 40.3236 20.9513 39.0307 20.9233 37.4727C20.9525 38.9458 21.5277 40.1815 22.5511 41.0545L22.7226 41.2026ZM25.0742 45.4446L25.0794 45.4463C25.0766 45.4707 25.0747 45.4952 25.0737 45.5197C25.0734 45.4951 25.0735 45.47 25.0742 45.4446ZM25.444 46.3362C25.2692 46.2363 25.1511 46.051 25.1009 45.7955C25.1079 45.8246 25.1162 45.8535 25.1259 45.8819C25.1524 45.9602 25.1883 46.0348 25.2329 46.1043C25.257 46.1445 25.2841 46.181 25.3139 46.2138L25.3351 46.238L25.3602 46.2648L25.444 46.3362ZM20.0355 52.3592C20.0113 52.4933 19.9666 52.6224 19.9032 52.7422C19.9642 52.6248 20.0074 52.4987 20.0311 52.3678L20.3764 50.7923L20.3803 50.7956L20.0355 52.3592Z"
      fill="url(#paint65_linear_1_3)" />
  </g>
  <defs>
    <linearGradient id="paint0_linear_1_3" x1="33" y1="0" x2="33" y2="47" gradientUnits="userSpaceOnUse">
      <stop stop-color="#D9D9D9" />
      <stop offset="1" stop-color="#D9D9D9" stop-opacity="0" />
    </linearGradient>
    <linearGradient id="paint1_linear_1_3" x1="35.2717" y1="32.1723" x2="4.02753" y2="32.5975"
      gradientUnits="userSpaceOnUse">
      <stop stop-color="#4BF2A2" />
      <stop offset="0.522948" stop-color="#A89FE7" />
      <stop offset="0.669499" stop-color="#E1C4F4" />
      <stop offset="1" stop-color="#DD40CD" />
      <stop offset="1" stop-color="#DD40CD" />
    </linearGradient>
    <linearGradient id="paint2_linear_1_3" x1="35.2717" y1="32.1723" x2="4.02753" y2="32.5975"
      gradientUnits="userSpaceOnUse">
      <stop stop-color="#4BF2A2" />
      <stop offset="0.522948" stop-color="#A89FE7" />
      <stop offset="0.669499" stop-color="#E1C4F4" />
      <stop offset="1" stop-color="#DD40CD" />
      <stop offset="1" stop-color="#DD40CD" />
    </linearGradient>
    <linearGradient id="paint3_linear_1_3" x1="35.2717" y1="32.1723" x2="4.02753" y2="32.5975"
      gradientUnits="userSpaceOnUse">
      <stop stop-color="#4BF2A2" />
      <stop offset="0.522948" stop-color="#A89FE7" />
      <stop offset="0.669499" stop-color="#E1C4F4" />
      <stop offset="1" stop-color="#DD40CD" />
      <stop offset="1" stop-color="#DD40CD" />
    </linearGradient>
    <linearGradient id="paint4_linear_1_3" x1="35.2717" y1="32.1723" x2="4.02753" y2="32.5975"
      gradientUnits="userSpaceOnUse">
      <stop stop-color="#4BF2A2" />
      <stop offset="0.522948" stop-color="#A89FE7" />
      <stop offset="0.669499" stop-color="#E1C4F4" />
      <stop offset="1" stop-color="#DD40CD" />
      <stop offset="1" stop-color="#DD40CD" />
    </linearGradient>
    <linearGradient id="paint5_linear_1_3" x1="35.2717" y1="32.1723" x2="4.02753" y2="32.5975"
      gradientUnits="userSpaceOnUse">
      <stop stop-color="#4BF2A2" />
      <stop offset="0.522948" stop-color="#A89FE7" />
      <stop offset="0.669499" stop-color="#E1C4F4" />
      <stop offset="1" stop-color="#DD40CD" />
      <stop offset="1" stop-color="#DD40CD" />
    </linearGradient>
    <linearGradient id="paint6_linear_1_3" x1="34.8814" y1="11.6889" x2="27.4249" y2="11.9195"
      gradientUnits="userSpaceOnUse">
      <stop stop-color="#4BF2A2" />
      <stop offset="0.522948" stop-color="#A89FE7" />
      <stop offset="0.669499" stop-color="#E1C4F4" />
      <stop offset="1" stop-color="#DD40CD" />
      <stop offset="1" stop-color="#DD40CD" />
    </linearGradient>
    <linearGradient id="paint7_linear_1_3" x1="34.8814" y1="11.6889" x2="27.4249" y2="11.9195"
      gradientUnits="userSpaceOnUse">
      <stop stop-color="#4BF2A2" />
      <stop offset="0.522948" stop-color="#A89FE7" />
      <stop offset="0.669499" stop-color="#E1C4F4" />
      <stop offset="1" stop-color="#DD40CD" />
      <stop offset="1" stop-color="#DD40CD" />
    </linearGradient>
    <linearGradient id="paint8_linear_1_3" x1="35.038" y1="11.97" x2="28.302" y2="12.146"
      gradientUnits="userSpaceOnUse">
      <stop stop-color="#4BF2A2" />
      <stop offset="0.522948" stop-color="#A89FE7" />
      <stop offset="0.669499" stop-color="#E1C4F4" />
      <stop offset="1" stop-color="#DD40CD" />
      <stop offset="1" stop-color="#DD40CD" />
    </linearGradient>
    <linearGradient id="paint9_linear_1_3" x1="35.0933" y1="12.4415" x2="28.5226" y2="12.6073"
      gradientUnits="userSpaceOnUse">
      <stop stop-color="#4BF2A2" />
      <stop offset="0.522948" stop-color="#A89FE7" />
      <stop offset="0.669499" stop-color="#E1C4F4" />
      <stop offset="1" stop-color="#DD40CD" />
      <stop offset="1" stop-color="#DD40CD" />
    </linearGradient>
    <linearGradient id="paint10_linear_1_3" x1="35.0614" y1="13.5974" x2="28.0877" y2="13.747"
      gradientUnits="userSpaceOnUse">
      <stop stop-color="#4BF2A2" />
      <stop offset="0.522948" stop-color="#A89FE7" />
      <stop offset="0.669499" stop-color="#E1C4F4" />
      <stop offset="1" stop-color="#DD40CD" />
      <stop offset="1" stop-color="#DD40CD" />
    </linearGradient>
    <linearGradient id="paint11_linear_1_3" x1="34.7063" y1="15.1461" x2="26.9898" y2="15.3439"
      gradientUnits="userSpaceOnUse">
      <stop stop-color="#4BF2A2" />
      <stop offset="0.522948" stop-color="#A89FE7" />
      <stop offset="0.669499" stop-color="#E1C4F4" />
      <stop offset="1" stop-color="#DD40CD" />
      <stop offset="1" stop-color="#DD40CD" />
    </linearGradient>
    <linearGradient id="paint12_linear_1_3" x1="35.2717" y1="32.1723" x2="4.02753" y2="32.5975"
      gradientUnits="userSpaceOnUse">
      <stop stop-color="#4BF2A2" />
      <stop offset="0.522948" stop-color="#A89FE7" />
      <stop offset="0.669499" stop-color="#E1C4F4" />
      <stop offset="1" stop-color="#DD40CD" />
      <stop offset="1" stop-color="#DD40CD" />
    </linearGradient>
    <linearGradient id="paint13_linear_1_3" x1="34.6065" y1="32.5911" x2="8.51879" y2="32.9444"
      gradientUnits="userSpaceOnUse">
      <stop stop-color="#4BF2A2" />
      <stop offset="0.522948" stop-color="#A89FE7" />
      <stop offset="0.669499" stop-color="#E1C4F4" />
      <stop offset="1" stop-color="#DD40CD" />
      <stop offset="1" stop-color="#DD40CD" />
    </linearGradient>
    <linearGradient id="paint14_linear_1_3" x1="38.5778" y1="18.5038" x2="30.6388" y2="18.7222"
      gradientUnits="userSpaceOnUse">
      <stop stop-color="#4BF2A2" />
      <stop offset="0.522948" stop-color="#A89FE7" />
      <stop offset="0.669499" stop-color="#E1C4F4" />
      <stop offset="1" stop-color="#DD40CD" />
      <stop offset="1" stop-color="#DD40CD" />
    </linearGradient>
    <linearGradient id="paint15_linear_1_3" x1="37.0258" y1="24.8465" x2="22.5889" y2="25.2538"
      gradientUnits="userSpaceOnUse">
      <stop stop-color="#4BF2A2" />
      <stop offset="0.522948" stop-color="#A89FE7" />
      <stop offset="0.669499" stop-color="#E1C4F4" />
      <stop offset="1" stop-color="#DD40CD" />
      <stop offset="1" stop-color="#DD40CD" />
    </linearGradient>
    <linearGradient id="paint16_linear_1_3" x1="29.9513" y1="27.6595" x2="23.4128" y2="27.8366"
      gradientUnits="userSpaceOnUse">
      <stop stop-color="#4BF2A2" />
      <stop offset="0.522948" stop-color="#A89FE7" />
      <stop offset="0.669499" stop-color="#E1C4F4" />
      <stop offset="1" stop-color="#DD40CD" />
      <stop offset="1" stop-color="#DD40CD" />
    </linearGradient>
    <linearGradient id="paint17_linear_1_3" x1="30.1202" y1="28.0762" x2="23.3575" y2="28.2452"
      gradientUnits="userSpaceOnUse">
      <stop stop-color="#4BF2A2" />
      <stop offset="0.522948" stop-color="#A89FE7" />
      <stop offset="0.669499" stop-color="#E1C4F4" />
      <stop offset="1" stop-color="#DD40CD" />
      <stop offset="1" stop-color="#DD40CD" />
    </linearGradient>
    <linearGradient id="paint18_linear_1_3" x1="30.6161" y1="28.5159" x2="23.5389" y2="28.7225"
      gradientUnits="userSpaceOnUse">
      <stop stop-color="#4BF2A2" />
      <stop offset="0.522948" stop-color="#A89FE7" />
      <stop offset="0.669499" stop-color="#E1C4F4" />
      <stop offset="1" stop-color="#DD40CD" />
      <stop offset="1" stop-color="#DD40CD" />
    </linearGradient>
    <linearGradient id="paint19_linear_1_3" x1="40.4581" y1="17.9353" x2="31.7692" y2="18.251"
      gradientUnits="userSpaceOnUse">
      <stop stop-color="#4BF2A2" />
      <stop offset="0.522948" stop-color="#A89FE7" />
      <stop offset="0.669499" stop-color="#E1C4F4" />
      <stop offset="1" stop-color="#DD40CD" />
      <stop offset="1" stop-color="#DD40CD" />
    </linearGradient>
    <linearGradient id="paint20_linear_1_3" x1="37.0258" y1="24.8465" x2="22.5889" y2="25.2538"
      gradientUnits="userSpaceOnUse">
      <stop stop-color="#4BF2A2" />
      <stop offset="0.522948" stop-color="#A89FE7" />
      <stop offset="0.669499" stop-color="#E1C4F4" />
      <stop offset="1" stop-color="#DD40CD" />
      <stop offset="1" stop-color="#DD40CD" />
    </linearGradient>
    <linearGradient id="paint21_linear_1_3" x1="37.3403" y1="20.5766" x2="30.0336" y2="20.7137"
      gradientUnits="userSpaceOnUse">
      <stop stop-color="#4BF2A2" />
      <stop offset="0.522948" stop-color="#A89FE7" />
      <stop offset="0.669499" stop-color="#E1C4F4" />
      <stop offset="1" stop-color="#DD40CD" />
      <stop offset="1" stop-color="#DD40CD" />
    </linearGradient>
    <linearGradient id="paint22_linear_1_3" x1="47.1447" y1="11.538" x2="39.495" y2="11.7411"
      gradientUnits="userSpaceOnUse">
      <stop stop-color="#4BF2A2" />
      <stop offset="0.522948" stop-color="#A89FE7" />
      <stop offset="0.669499" stop-color="#E1C4F4" />
      <stop offset="1" stop-color="#DD40CD" />
      <stop offset="1" stop-color="#DD40CD" />
    </linearGradient>
    <linearGradient id="paint23_linear_1_3" x1="40.8589" y1="17.9649" x2="33.771" y2="18.1721"
      gradientUnits="userSpaceOnUse">
      <stop stop-color="#4BF2A2" />
      <stop offset="0.522948" stop-color="#A89FE7" />
      <stop offset="0.669499" stop-color="#E1C4F4" />
      <stop offset="1" stop-color="#DD40CD" />
      <stop offset="1" stop-color="#DD40CD" />
    </linearGradient>
    <linearGradient id="paint24_linear_1_3" x1="47.5624" y1="11.0445" x2="40.5251" y2="11.2514"
      gradientUnits="userSpaceOnUse">
      <stop stop-color="#4BF2A2" />
      <stop offset="0.522948" stop-color="#A89FE7" />
      <stop offset="0.669499" stop-color="#E1C4F4" />
      <stop offset="1" stop-color="#DD40CD" />
      <stop offset="1" stop-color="#DD40CD" />
    </linearGradient>
    <linearGradient id="paint25_linear_1_3" x1="47.5522" y1="11.1016" x2="41.0272" y2="11.2819"
      gradientUnits="userSpaceOnUse">
      <stop stop-color="#4BF2A2" />
      <stop offset="0.522948" stop-color="#A89FE7" />
      <stop offset="0.669499" stop-color="#E1C4F4" />
      <stop offset="1" stop-color="#DD40CD" />
      <stop offset="1" stop-color="#DD40CD" />
    </linearGradient>
    <linearGradient id="paint26_linear_1_3" x1="41.1328" y1="18.4548" x2="34.2762" y2="18.6247"
      gradientUnits="userSpaceOnUse">
      <stop stop-color="#4BF2A2" />
      <stop offset="0.522948" stop-color="#A89FE7" />
      <stop offset="0.669499" stop-color="#E1C4F4" />
      <stop offset="1" stop-color="#DD40CD" />
      <stop offset="1" stop-color="#DD40CD" />
    </linearGradient>
    <linearGradient id="paint27_linear_1_3" x1="32.6724" y1="28.5312" x2="23.835" y2="28.8574"
      gradientUnits="userSpaceOnUse">
      <stop stop-color="#4BF2A2" />
      <stop offset="0.522948" stop-color="#A89FE7" />
      <stop offset="0.669499" stop-color="#E1C4F4" />
      <stop offset="1" stop-color="#DD40CD" />
      <stop offset="1" stop-color="#DD40CD" />
    </linearGradient>
    <linearGradient id="paint28_linear_1_3" x1="46.1485" y1="12.9599" x2="39.1749" y2="13.1095"
      gradientUnits="userSpaceOnUse">
      <stop stop-color="#4BF2A2" />
      <stop offset="0.522948" stop-color="#A89FE7" />
      <stop offset="0.669499" stop-color="#E1C4F4" />
      <stop offset="1" stop-color="#DD40CD" />
      <stop offset="1" stop-color="#DD40CD" />
    </linearGradient>
    <linearGradient id="paint29_linear_1_3" x1="46.0049" y1="14.4046" x2="39.1393" y2="14.5667"
      gradientUnits="userSpaceOnUse">
      <stop stop-color="#4BF2A2" />
      <stop offset="0.522948" stop-color="#A89FE7" />
      <stop offset="0.669499" stop-color="#E1C4F4" />
      <stop offset="1" stop-color="#DD40CD" />
      <stop offset="1" stop-color="#DD40CD" />
    </linearGradient>
    <linearGradient id="paint30_linear_1_3" x1="46.2045" y1="15.0261" x2="39.4537" y2="15.2144"
      gradientUnits="userSpaceOnUse">
      <stop stop-color="#4BF2A2" />
      <stop offset="0.522948" stop-color="#A89FE7" />
      <stop offset="0.669499" stop-color="#E1C4F4" />
      <stop offset="1" stop-color="#DD40CD" />
      <stop offset="1" stop-color="#DD40CD" />
    </linearGradient>
    <linearGradient id="paint31_linear_1_3" x1="41.1457" y1="20.337" x2="33.8736" y2="20.475"
      gradientUnits="userSpaceOnUse">
      <stop stop-color="#4BF2A2" />
      <stop offset="0.522948" stop-color="#A89FE7" />
      <stop offset="0.669499" stop-color="#E1C4F4" />
      <stop offset="1" stop-color="#DD40CD" />
      <stop offset="1" stop-color="#DD40CD" />
    </linearGradient>
    <linearGradient id="paint32_linear_1_3" x1="42.1871" y1="34.4615" x2="18.3446" y2="34.9625"
      gradientUnits="userSpaceOnUse">
      <stop stop-color="#4BF2A2" />
      <stop offset="0.522948" stop-color="#A89FE7" />
      <stop offset="0.669499" stop-color="#E1C4F4" />
      <stop offset="1" stop-color="#DD40CD" />
      <stop offset="1" stop-color="#DD40CD" />
    </linearGradient>
    <linearGradient id="paint33_linear_1_3" x1="41.1948" y1="26.7091" x2="25.0183" y2="27.3419"
      gradientUnits="userSpaceOnUse">
      <stop stop-color="#4BF2A2" />
      <stop offset="0.522948" stop-color="#A89FE7" />
      <stop offset="0.669499" stop-color="#E1C4F4" />
      <stop offset="1" stop-color="#DD40CD" />
      <stop offset="1" stop-color="#DD40CD" />
    </linearGradient>
    <linearGradient id="paint34_linear_1_3" x1="43.97" y1="22.4413" x2="33.54" y2="22.8053"
      gradientUnits="userSpaceOnUse">
      <stop stop-color="#4BF2A2" />
      <stop offset="0.522948" stop-color="#A89FE7" />
      <stop offset="0.669499" stop-color="#E1C4F4" />
      <stop offset="1" stop-color="#DD40CD" />
      <stop offset="1" stop-color="#DD40CD" />
    </linearGradient>
    <linearGradient id="paint35_linear_1_3" x1="50.4377" y1="16.2542" x2="39.1768" y2="16.6152"
      gradientUnits="userSpaceOnUse">
      <stop stop-color="#4BF2A2" />
      <stop offset="0.522948" stop-color="#A89FE7" />
      <stop offset="0.669499" stop-color="#E1C4F4" />
      <stop offset="1" stop-color="#DD40CD" />
      <stop offset="1" stop-color="#DD40CD" />
    </linearGradient>
    <linearGradient id="paint36_linear_1_3" x1="53.5201" y1="12.6339" x2="40.3291" y2="13.0826"
      gradientUnits="userSpaceOnUse">
      <stop stop-color="#4BF2A2" />
      <stop offset="0.522948" stop-color="#A89FE7" />
      <stop offset="0.669499" stop-color="#E1C4F4" />
      <stop offset="1" stop-color="#DD40CD" />
      <stop offset="1" stop-color="#DD40CD" />
    </linearGradient>
    <linearGradient id="paint37_linear_1_3" x1="42.1871" y1="34.4615" x2="18.3446" y2="34.9625"
      gradientUnits="userSpaceOnUse">
      <stop stop-color="#4BF2A2" />
      <stop offset="0.522948" stop-color="#A89FE7" />
      <stop offset="0.669499" stop-color="#E1C4F4" />
      <stop offset="1" stop-color="#DD40CD" />
      <stop offset="1" stop-color="#DD40CD" />
    </linearGradient>
    <linearGradient id="paint38_linear_1_3" x1="42.1871" y1="34.4615" x2="18.3446" y2="34.9625"
      gradientUnits="userSpaceOnUse">
      <stop stop-color="#4BF2A2" />
      <stop offset="0.522948" stop-color="#A89FE7" />
      <stop offset="0.669499" stop-color="#E1C4F4" />
      <stop offset="1" stop-color="#DD40CD" />
      <stop offset="1" stop-color="#DD40CD" />
    </linearGradient>
    <linearGradient id="paint39_linear_1_3" x1="42.1871" y1="34.4615" x2="18.3446" y2="34.9625"
      gradientUnits="userSpaceOnUse">
      <stop stop-color="#4BF2A2" />
      <stop offset="0.522948" stop-color="#A89FE7" />
      <stop offset="0.669499" stop-color="#E1C4F4" />
      <stop offset="1" stop-color="#DD40CD" />
      <stop offset="1" stop-color="#DD40CD" />
    </linearGradient>
    <linearGradient id="paint40_linear_1_3" x1="36.3916" y1="37.7404" x2="23.4888" y2="38.0446"
      gradientUnits="userSpaceOnUse">
      <stop stop-color="#4BF2A2" />
      <stop offset="0.522948" stop-color="#A89FE7" />
      <stop offset="0.669499" stop-color="#E1C4F4" />
      <stop offset="1" stop-color="#DD40CD" />
      <stop offset="1" stop-color="#DD40CD" />
    </linearGradient>
    <linearGradient id="paint41_linear_1_3" x1="55.7958" y1="34.1933" x2="29.7081" y2="34.5466"
      gradientUnits="userSpaceOnUse">
      <stop stop-color="#4BF2A2" />
      <stop offset="0.522948" stop-color="#A89FE7" />
      <stop offset="0.669499" stop-color="#E1C4F4" />
      <stop offset="1" stop-color="#DD40CD" />
      <stop offset="1" stop-color="#DD40CD" />
    </linearGradient>
    <linearGradient id="paint42_linear_1_3" x1="31.748" y1="44.0446" x2="21.4451" y2="44.3974"
      gradientUnits="userSpaceOnUse">
      <stop stop-color="#4BF2A2" />
      <stop offset="0.522948" stop-color="#A89FE7" />
      <stop offset="0.669499" stop-color="#E1C4F4" />
      <stop offset="1" stop-color="#DD40CD" />
      <stop offset="1" stop-color="#DD40CD" />
    </linearGradient>
    <linearGradient id="paint43_linear_1_3" x1="45.8135" y1="28.8572" x2="28.3793" y2="29.2288"
      gradientUnits="userSpaceOnUse">
      <stop stop-color="#4BF2A2" />
      <stop offset="0.522948" stop-color="#A89FE7" />
      <stop offset="0.669499" stop-color="#E1C4F4" />
      <stop offset="1" stop-color="#DD40CD" />
      <stop offset="1" stop-color="#DD40CD" />
    </linearGradient>
    <linearGradient id="paint44_linear_1_3" x1="31.5977" y1="46.2397" x2="24.2909" y2="46.3768"
      gradientUnits="userSpaceOnUse">
      <stop stop-color="#4BF2A2" />
      <stop offset="0.522948" stop-color="#A89FE7" />
      <stop offset="0.669499" stop-color="#E1C4F4" />
      <stop offset="1" stop-color="#DD40CD" />
      <stop offset="1" stop-color="#DD40CD" />
    </linearGradient>
    <linearGradient id="paint45_linear_1_3" x1="39.9407" y1="39.7941" x2="23.9761" y2="40.4114"
      gradientUnits="userSpaceOnUse">
      <stop stop-color="#4BF2A2" />
      <stop offset="0.522948" stop-color="#A89FE7" />
      <stop offset="0.669499" stop-color="#E1C4F4" />
      <stop offset="1" stop-color="#DD40CD" />
      <stop offset="1" stop-color="#DD40CD" />
    </linearGradient>
    <linearGradient id="paint46_linear_1_3" x1="40.566" y1="37.6211" x2="32.8398" y2="37.8377"
      gradientUnits="userSpaceOnUse">
      <stop stop-color="#4BF2A2" />
      <stop offset="0.522948" stop-color="#A89FE7" />
      <stop offset="0.669499" stop-color="#E1C4F4" />
      <stop offset="1" stop-color="#DD40CD" />
      <stop offset="1" stop-color="#DD40CD" />
    </linearGradient>
    <linearGradient id="paint47_linear_1_3" x1="39.9407" y1="39.7941" x2="23.9761" y2="40.4114"
      gradientUnits="userSpaceOnUse">
      <stop stop-color="#4BF2A2" />
      <stop offset="0.522948" stop-color="#A89FE7" />
      <stop offset="0.669499" stop-color="#E1C4F4" />
      <stop offset="1" stop-color="#DD40CD" />
      <stop offset="1" stop-color="#DD40CD" />
    </linearGradient>
    <linearGradient id="paint48_linear_1_3" x1="31.1799" y1="48.1843" x2="24.334" y2="48.3537"
      gradientUnits="userSpaceOnUse">
      <stop stop-color="#4BF2A2" />
      <stop offset="0.522948" stop-color="#A89FE7" />
      <stop offset="0.669499" stop-color="#E1C4F4" />
      <stop offset="1" stop-color="#DD40CD" />
      <stop offset="1" stop-color="#DD40CD" />
    </linearGradient>
    <linearGradient id="paint49_linear_1_3" x1="44.3023" y1="-51.2143" x2="2.72226" y2="-50.0999"
      gradientUnits="userSpaceOnUse">
      <stop stop-color="#161623" />
      <stop offset="0.421875" stop-color="#564D8F" />
      <stop offset="1" stop-color="#DD40CD" />
    </linearGradient>
    <linearGradient id="paint50_linear_1_3" x1="31.6724" y1="48.6733" x2="24.5978" y2="48.8796"
      gradientUnits="userSpaceOnUse">
      <stop stop-color="#4BF2A2" />
      <stop offset="0.522948" stop-color="#A89FE7" />
      <stop offset="0.669499" stop-color="#E1C4F4" />
      <stop offset="1" stop-color="#DD40CD" />
      <stop offset="1" stop-color="#DD40CD" />
    </linearGradient>
    <linearGradient id="paint51_linear_1_3" x1="42.7091" y1="37.1716" x2="33.7287" y2="37.5082"
      gradientUnits="userSpaceOnUse">
      <stop stop-color="#4BF2A2" />
      <stop offset="0.522948" stop-color="#A89FE7" />
      <stop offset="0.669499" stop-color="#E1C4F4" />
      <stop offset="1" stop-color="#DD40CD" />
      <stop offset="1" stop-color="#DD40CD" />
    </linearGradient>
    <linearGradient id="paint52_linear_1_3" x1="43.095" y1="37.1935" x2="36.0099" y2="37.4006"
      gradientUnits="userSpaceOnUse">
      <stop stop-color="#4BF2A2" />
      <stop offset="0.522948" stop-color="#A89FE7" />
      <stop offset="0.669499" stop-color="#E1C4F4" />
      <stop offset="1" stop-color="#DD40CD" />
      <stop offset="1" stop-color="#DD40CD" />
    </linearGradient>
    <linearGradient id="paint53_linear_1_3" x1="33.5985" y1="48.7049" x2="24.9096" y2="49.0207"
      gradientUnits="userSpaceOnUse">
      <stop stop-color="#4BF2A2" />
      <stop offset="0.522948" stop-color="#A89FE7" />
      <stop offset="0.669499" stop-color="#E1C4F4" />
      <stop offset="1" stop-color="#DD40CD" />
      <stop offset="1" stop-color="#DD40CD" />
    </linearGradient>
    <linearGradient id="paint54_linear_1_3" x1="43.2951" y1="37.6223" x2="36.5235" y2="37.7917"
      gradientUnits="userSpaceOnUse">
      <stop stop-color="#4BF2A2" />
      <stop offset="0.522948" stop-color="#A89FE7" />
      <stop offset="0.669499" stop-color="#E1C4F4" />
      <stop offset="1" stop-color="#DD40CD" />
      <stop offset="1" stop-color="#DD40CD" />
    </linearGradient>
    <linearGradient id="paint55_linear_1_3" x1="35.4065" y1="46.0647" x2="28.0997" y2="46.2018"
      gradientUnits="userSpaceOnUse">
      <stop stop-color="#4BF2A2" />
      <stop offset="0.522948" stop-color="#A89FE7" />
      <stop offset="0.669499" stop-color="#E1C4F4" />
      <stop offset="1" stop-color="#DD40CD" />
      <stop offset="1" stop-color="#DD40CD" />
    </linearGradient>
    <linearGradient id="paint56_linear_1_3" x1="43.2537" y1="38.0411" x2="36.7126" y2="38.2183"
      gradientUnits="userSpaceOnUse">
      <stop stop-color="#4BF2A2" />
      <stop offset="0.522948" stop-color="#A89FE7" />
      <stop offset="0.669499" stop-color="#E1C4F4" />
      <stop offset="1" stop-color="#DD40CD" />
      <stop offset="1" stop-color="#DD40CD" />
    </linearGradient>
    <linearGradient id="paint57_linear_1_3" x1="34.7665" y1="48.1285" x2="26.8275" y2="48.3469"
      gradientUnits="userSpaceOnUse">
      <stop stop-color="#4BF2A2" />
      <stop offset="0.522948" stop-color="#A89FE7" />
      <stop offset="0.669499" stop-color="#E1C4F4" />
      <stop offset="1" stop-color="#DD40CD" />
      <stop offset="1" stop-color="#DD40CD" />
    </linearGradient>
    <linearGradient id="paint58_linear_1_3" x1="43.6894" y1="41.3179" x2="27.8546" y2="41.7667"
      gradientUnits="userSpaceOnUse">
      <stop stop-color="#4BF2A2" />
      <stop offset="0.522948" stop-color="#A89FE7" />
      <stop offset="0.669499" stop-color="#E1C4F4" />
      <stop offset="1" stop-color="#DD40CD" />
      <stop offset="1" stop-color="#DD40CD" />
    </linearGradient>
    <linearGradient id="paint59_linear_1_3" x1="55.7958" y1="34.1933" x2="29.7081" y2="34.5466"
      gradientUnits="userSpaceOnUse">
      <stop stop-color="#4BF2A2" />
      <stop offset="0.522948" stop-color="#A89FE7" />
      <stop offset="0.669499" stop-color="#E1C4F4" />
      <stop offset="1" stop-color="#DD40CD" />
      <stop offset="1" stop-color="#DD40CD" />
    </linearGradient>
    <linearGradient id="paint60_linear_1_3" x1="55.7958" y1="34.1933" x2="29.7081" y2="34.5466"
      gradientUnits="userSpaceOnUse">
      <stop stop-color="#4BF2A2" />
      <stop offset="0.522948" stop-color="#A89FE7" />
      <stop offset="0.669499" stop-color="#E1C4F4" />
      <stop offset="1" stop-color="#DD40CD" />
      <stop offset="1" stop-color="#DD40CD" />
    </linearGradient>
    <linearGradient id="paint61_linear_1_3" x1="59.985" y1="34.5324" x2="28.7771" y2="34.9579"
      gradientUnits="userSpaceOnUse">
      <stop stop-color="#4BF2A2" />
      <stop offset="0.522948" stop-color="#A89FE7" />
      <stop offset="0.669499" stop-color="#E1C4F4" />
      <stop offset="1" stop-color="#DD40CD" />
      <stop offset="1" stop-color="#DD40CD" />
    </linearGradient>
    <linearGradient id="paint62_linear_1_3" x1="64.1225" y1="30.6673" x2="-7.76433" y2="32.3397"
      gradientUnits="userSpaceOnUse">
      <stop stop-color="#4BF2A2" />
      <stop offset="0.522948" stop-color="#A89FE7" />
      <stop offset="0.669499" stop-color="#E1C4F4" />
      <stop offset="1" stop-color="#DD40CD" />
      <stop offset="1" stop-color="#DD40CD" />
    </linearGradient>
    <linearGradient id="paint63_linear_1_3" x1="67.9405" y1="-51.6293" x2="26.4187" y2="-50.5146"
      gradientUnits="userSpaceOnUse">
      <stop stop-color="#161623" />
      <stop offset="0.421875" stop-color="#564D8F" />
      <stop offset="1" stop-color="#DD40CD" />
    </linearGradient>
    <linearGradient id="paint64_linear_1_3" x1="106.205" y1="-78.3689" x2="-4.90119" y2="-72.5903"
      gradientUnits="userSpaceOnUse">
      <stop stop-color="#161623" />
      <stop offset="0.421875" stop-color="#564D8F" />
      <stop offset="1" stop-color="#DD40CD" />
    </linearGradient>
    <linearGradient id="paint65_linear_1_3" x1="32.9998" y1="-5.89292" x2="17.6783" y2="66.0003"
      gradientUnits="userSpaceOnUse">
      <stop stop-color="#161623" stop-opacity="0" />
      <stop offset="0.630828" stop-color="#161623" stop-opacity="0.85" />
      <stop offset="0.987497" stop-color="#161623" stop-opacity="0.93" />
    </linearGradient>
  </defs>
</svg>