<svg width="179" height="37" viewBox="0 0 179 37" fill="none" xmlns="http://www.w3.org/2000/svg">
<path d="M13.14 28H7.704V6.832H0.72V2.296H20.124V6.832H13.14V28ZM38.9804 18.136C38.9804 19.768 38.7524 21.22 38.2964 22.492C37.8644 23.764 37.2284 24.844 36.3884 25.732C35.5724 26.596 34.5764 27.256 33.4004 27.712C32.2244 28.144 30.8924 28.36 29.4044 28.36C28.0364 28.36 26.7644 28.144 25.5884 27.712C24.4364 27.256 23.4404 26.596 22.6004 25.732C21.7604 24.844 21.1004 23.764 20.6204 22.492C20.1644 21.22 19.9364 19.768 19.9364 18.136C19.9364 15.952 20.3204 14.116 21.0884 12.628C21.8564 11.116 22.9604 9.964 24.4004 9.172C25.8404 8.38 27.5444 7.984 29.5124 7.984C31.3604 7.984 32.9924 8.38 34.4084 9.172C35.8244 9.964 36.9404 11.116 37.7564 12.628C38.5724 14.116 38.9804 15.952 38.9804 18.136ZM25.4084 18.136C25.4084 19.432 25.5404 20.524 25.8044 21.412C26.0924 22.276 26.5364 22.936 27.1364 23.392C27.7364 23.824 28.5164 24.04 29.4764 24.04C30.4364 24.04 31.2044 23.824 31.7804 23.392C32.3804 22.936 32.8124 22.276 33.0764 21.412C33.3644 20.524 33.5084 19.432 33.5084 18.136C33.5084 16.84 33.3644 15.76 33.0764 14.896C32.8124 14.032 32.3804 13.384 31.7804 12.952C31.1804 12.52 30.4004 12.304 29.4404 12.304C28.0244 12.304 26.9924 12.796 26.3444 13.78C25.7204 14.74 25.4084 16.192 25.4084 18.136ZM48.7775 12.88C48.7775 13.624 48.7415 14.368 48.6695 15.112C48.6215 15.832 48.5615 16.564 48.4895 17.308H48.5615C48.8015 16.972 49.0415 16.636 49.2815 16.3C49.5455 15.964 49.8095 15.628 50.0735 15.292C50.3375 14.956 50.6135 14.632 50.9015 14.32L56.4095 8.344H62.4575L54.6455 16.876L62.9255 28H56.7335L51.0815 20.044L48.7775 21.88V28H43.4135V0.639998H48.7775V12.88ZM73.8377 7.984C75.6617 7.984 77.2217 8.332 78.5177 9.028C79.8377 9.724 80.8577 10.732 81.5777 12.052C82.2977 13.372 82.6577 14.992 82.6577 16.912V19.504H69.9857C70.0337 21.016 70.4777 22.204 71.3177 23.068C72.1817 23.932 73.3697 24.364 74.8817 24.364C76.1537 24.364 77.3057 24.244 78.3377 24.004C79.3697 23.74 80.4377 23.344 81.5417 22.816V26.956C80.5817 27.436 79.5617 27.784 78.4817 28C77.4257 28.24 76.1417 28.36 74.6297 28.36C72.6617 28.36 70.9217 28 69.4097 27.28C67.8977 26.536 66.7097 25.42 65.8457 23.932C64.9817 22.444 64.5497 20.572 64.5497 18.316C64.5497 16.012 64.9337 14.104 65.7017 12.592C66.4937 11.056 67.5857 9.904 68.9777 9.136C70.3697 8.368 71.9897 7.984 73.8377 7.984ZM73.8737 11.8C72.8417 11.8 71.9777 12.136 71.2817 12.808C70.6097 13.48 70.2137 14.524 70.0937 15.94H77.6177C77.6177 15.148 77.4737 14.44 77.1857 13.816C76.9217 13.192 76.5137 12.7 75.9617 12.34C75.4097 11.98 74.7137 11.8 73.8737 11.8ZM98.1672 7.984C100.279 7.984 101.971 8.56 103.243 9.712C104.515 10.84 105.151 12.664 105.151 15.184V28H99.7872V16.516C99.7872 15.1 99.5352 14.044 99.0312 13.348C98.5272 12.628 97.7232 12.268 96.6192 12.268C94.9872 12.268 93.8712 12.832 93.2712 13.96C92.6712 15.064 92.3712 16.66 92.3712 18.748V28H87.0072V8.344H91.1112L91.8312 10.864H92.1192C92.5512 10.192 93.0792 9.652 93.7032 9.244C94.3272 8.812 95.0232 8.5 95.7912 8.308C96.5592 8.092 97.3512 7.984 98.1672 7.984ZM130.351 28H124.915V6.832H117.931V2.296H137.335V6.832H130.351V28ZM146.048 7.948C148.688 7.948 150.704 8.524 152.096 9.676C153.512 10.804 154.22 12.544 154.22 14.896V28H150.476L149.432 25.336H149.288C148.736 26.032 148.16 26.608 147.56 27.064C146.984 27.52 146.312 27.844 145.544 28.036C144.8 28.252 143.876 28.36 142.772 28.36C141.62 28.36 140.576 28.144 139.64 27.712C138.728 27.256 138.008 26.572 137.48 25.66C136.952 24.724 136.688 23.548 136.688 22.132C136.688 20.044 137.42 18.508 138.884 17.524C140.348 16.516 142.544 15.964 145.472 15.868L148.892 15.76V14.896C148.892 13.864 148.616 13.108 148.064 12.628C147.536 12.148 146.792 11.908 145.832 11.908C144.872 11.908 143.936 12.052 143.024 12.34C142.112 12.604 141.2 12.94 140.288 13.348L138.524 9.712C139.58 9.16 140.744 8.728 142.016 8.416C143.312 8.104 144.656 7.948 146.048 7.948ZM146.804 18.964C145.076 19.012 143.876 19.324 143.204 19.9C142.532 20.476 142.196 21.232 142.196 22.168C142.196 22.984 142.436 23.572 142.916 23.932C143.396 24.268 144.02 24.436 144.788 24.436C145.94 24.436 146.912 24.1 147.704 23.428C148.496 22.732 148.892 21.76 148.892 20.512V18.892L146.804 18.964ZM170.654 7.984C172.862 7.984 174.65 8.848 176.018 10.576C177.386 12.28 178.07 14.8 178.07 18.136C178.07 20.368 177.746 22.252 177.098 23.788C176.45 25.3 175.562 26.44 174.434 27.208C173.306 27.976 171.998 28.36 170.51 28.36C169.574 28.36 168.758 28.24 168.062 28C167.39 27.76 166.814 27.448 166.334 27.064C165.854 26.68 165.434 26.272 165.074 25.84H164.786C164.882 26.296 164.954 26.776 165.002 27.28C165.05 27.76 165.074 28.24 165.074 28.72V36.64H159.71V8.344H164.066L164.822 10.9H165.074C165.434 10.372 165.866 9.892 166.37 9.46C166.874 9.004 167.474 8.644 168.17 8.38C168.89 8.116 169.718 7.984 170.654 7.984ZM168.926 12.268C167.99 12.268 167.246 12.46 166.694 12.844C166.142 13.228 165.734 13.816 165.47 14.608C165.23 15.376 165.098 16.348 165.074 17.524V18.1C165.074 19.372 165.194 20.452 165.434 21.34C165.674 22.204 166.082 22.864 166.658 23.32C167.234 23.776 168.014 24.004 168.998 24.004C169.814 24.004 170.486 23.776 171.014 23.32C171.542 22.864 171.938 22.192 172.202 21.304C172.466 20.416 172.598 19.336 172.598 18.064C172.598 16.144 172.298 14.704 171.698 13.744C171.122 12.76 170.198 12.268 168.926 12.268Z" fill="#21212C"/>
<path d="M13.14 28V30H15.14V28H13.14ZM7.704 28H5.704V30H7.704V28ZM7.704 6.832H9.704V4.832H7.704V6.832ZM0.72 6.832H-1.28V8.832H0.72V6.832ZM0.72 2.296V0.295999H-1.28V2.296H0.72ZM20.124 2.296H22.124V0.295999H20.124V2.296ZM20.124 6.832V8.832H22.124V6.832H20.124ZM13.14 6.832V4.832H11.14V6.832H13.14ZM13.14 26H7.704V30H13.14V26ZM9.704 28V6.832H5.704V28H9.704ZM7.704 4.832H0.72V8.832H7.704V4.832ZM2.72 6.832V2.296H-1.28V6.832H2.72ZM0.72 4.296H20.124V0.295999H0.72V4.296ZM18.124 2.296V6.832H22.124V2.296H18.124ZM20.124 4.832H13.14V8.832H20.124V4.832ZM11.14 6.832V28H15.14V6.832H11.14ZM38.2964 22.492L36.4137 21.8171L36.4081 21.8329L36.4026 21.8488L38.2964 22.492ZM36.3884 25.732L34.9355 24.3576L34.9344 24.3588L36.3884 25.732ZM33.4004 27.712L34.09 29.5893L34.1068 29.5832L34.1235 29.5767L33.4004 27.712ZM25.5884 27.712L24.8523 29.5716L24.8754 29.5808L24.8988 29.5893L25.5884 27.712ZM22.6004 25.732L21.1475 27.1064L21.1569 27.1163L21.1664 27.1262L22.6004 25.732ZM20.6204 22.492L18.7377 23.1669L18.7433 23.1826L18.7492 23.1981L20.6204 22.492ZM21.0884 12.628L22.8657 13.5453L22.8716 13.5337L21.0884 12.628ZM24.4004 9.172L25.3642 10.9244V10.9244L24.4004 9.172ZM34.4084 9.172L33.4321 10.9175V10.9175L34.4084 9.172ZM37.7564 12.628L35.9963 13.5779L36.0028 13.5897L37.7564 12.628ZM25.8044 21.412L23.8873 21.9819L23.8967 22.0134L23.907 22.0445L25.8044 21.412ZM27.1364 23.392L25.9262 24.9843L25.9468 25L25.9678 25.0151L27.1364 23.392ZM31.7804 23.392L32.9804 24.992L32.9906 24.9843L31.7804 23.392ZM33.0764 21.412L31.174 20.795L31.1687 20.8112L31.1637 20.8276L33.0764 21.412ZM33.0764 14.896L31.1637 15.4804L31.1711 15.5045L31.179 15.5285L33.0764 14.896ZM26.3444 13.78L24.674 12.68L24.6675 12.69L26.3444 13.78ZM36.9804 18.136C36.9804 19.5843 36.7779 20.8013 36.4137 21.8171L40.1791 23.1669C40.727 21.6387 40.9804 19.9517 40.9804 18.136H36.9804ZM36.4026 21.8488C36.054 22.8755 35.5587 23.6987 34.9355 24.3576L37.8413 27.1064C38.8981 25.9893 39.6748 24.6525 40.1902 23.1352L36.4026 21.8488ZM34.9344 24.3588C34.3349 24.9935 33.5936 25.492 32.6774 25.8473L34.1235 29.5767C35.5592 29.02 36.8099 28.1985 37.8424 27.1052L34.9344 24.3588ZM32.7108 25.8347C31.7928 26.1719 30.7002 26.36 29.4044 26.36V30.36C31.0846 30.36 32.656 30.1161 34.09 29.5893L32.7108 25.8347ZM29.4044 26.36C28.2501 26.36 27.2137 26.1784 26.278 25.8347L24.8988 29.5893C26.3151 30.1096 27.8227 30.36 29.4044 30.36V26.36ZM26.3245 25.8524C25.4278 25.4974 24.6717 24.9933 24.0344 24.3378L21.1664 27.1262C22.2092 28.1987 23.445 29.0146 24.8523 29.5716L26.3245 25.8524ZM24.0533 24.3576C23.4152 23.683 22.8884 22.8375 22.4916 21.7859L18.7492 23.1981C19.3124 24.6905 20.1056 26.005 21.1475 27.1064L24.0533 24.3576ZM22.5031 21.8171C22.139 20.8013 21.9364 19.5843 21.9364 18.136H17.9364C17.9364 19.9517 18.1899 21.6387 18.7377 23.1669L22.5031 21.8171ZM21.9364 18.136C21.9364 16.1774 22.2817 14.6767 22.8656 13.5453L19.3112 11.7107C18.3591 13.5553 17.9364 15.7266 17.9364 18.136H21.9364ZM22.8716 13.5337C23.4638 12.3677 24.2879 11.5164 25.3642 10.9244L23.4366 7.41957C21.6329 8.41159 20.249 9.8643 19.3052 11.7223L22.8716 13.5337ZM25.3642 10.9244C26.4558 10.3241 27.815 9.984 29.5124 9.984V5.984C27.2738 5.984 25.225 6.43591 23.4366 7.41957L25.3642 10.9244ZM29.5124 9.984C31.0668 9.984 32.3539 10.3144 33.4321 10.9175L35.3847 7.42649C33.631 6.44557 31.654 5.984 29.5124 5.984V9.984ZM33.4321 10.9175C34.4967 11.513 35.3496 12.3795 35.9964 13.5779L39.5165 11.6781C38.5312 9.85252 37.1521 8.41503 35.3847 7.42648L33.4321 10.9175ZM36.0028 13.5897C36.6173 14.7102 36.9804 16.1942 36.9804 18.136H40.9804C40.9804 15.7098 40.5275 13.5218 39.51 11.6663L36.0028 13.5897ZM23.4084 18.136C23.4084 19.5544 23.5513 20.8517 23.8873 21.9819L27.7215 20.8421C27.5295 20.1963 27.4084 19.3096 27.4084 18.136H23.4084ZM23.907 22.0445C24.2954 23.2094 24.9441 24.2379 25.9262 24.9843L28.3466 21.7997C28.1287 21.6341 27.8894 21.3426 27.7018 20.7795L23.907 22.0445ZM25.9678 25.0151C26.9972 25.7562 28.2218 26.04 29.4764 26.04V22.04C28.811 22.04 28.4757 21.8918 28.305 21.7689L25.9678 25.0151ZM29.4764 26.04C30.7259 26.04 31.9589 25.7581 32.9804 24.992L30.5804 21.792C30.4499 21.8899 30.1469 22.04 29.4764 22.04V26.04ZM32.9906 24.9843C33.9868 24.2272 34.6274 23.1801 34.9891 21.9964L31.1637 20.8276C30.9974 21.3719 30.774 21.6448 30.5702 21.7997L32.9906 24.9843ZM34.9789 22.029C35.3512 20.8811 35.5084 19.5665 35.5084 18.136H31.5084C31.5084 19.2975 31.3777 20.1669 31.174 20.795L34.9789 22.029ZM35.5084 18.136C35.5084 16.7082 35.3518 15.3977 34.9738 14.2635L31.179 15.5285C31.377 16.1223 31.5084 16.9718 31.5084 18.136H35.5084ZM34.9891 14.3116C34.6264 13.1244 33.9769 12.069 32.949 11.3289L30.6118 14.5751C30.7839 14.699 30.9985 14.9396 31.1637 15.4804L34.9891 14.3116ZM32.949 11.3289C31.9197 10.5878 30.695 10.304 29.4404 10.304V14.304C30.1058 14.304 30.4412 14.4522 30.6118 14.5751L32.949 11.3289ZM29.4404 10.304C27.508 10.304 25.7705 11.0151 24.6741 12.68L28.0147 14.88C28.2143 14.5769 28.5408 14.304 29.4404 14.304V10.304ZM24.6675 12.69C23.7317 14.1297 23.4084 16.0452 23.4084 18.136H27.4084C27.4084 16.3388 27.7091 15.3503 28.0213 14.87L24.6675 12.69ZM48.6695 15.112L46.6788 14.9194L46.6759 14.9491L46.6739 14.979L48.6695 15.112ZM48.4895 17.308L46.4988 17.1154L46.2866 19.308H48.4895V17.308ZM48.5615 17.308V19.308H49.5907L50.1889 18.4705L48.5615 17.308ZM49.2815 16.3L47.7088 15.0644L47.6806 15.1003L47.654 15.1375L49.2815 16.3ZM50.9015 14.32L52.3711 15.6766L52.3721 15.6755L50.9015 14.32ZM56.4095 8.344V6.344H55.5329L54.9388 6.98854L56.4095 8.344ZM62.4575 8.344L63.9326 9.6946L67.0004 6.344H62.4575V8.344ZM54.6455 16.876L53.1704 15.5254L52.0543 16.7444L53.0411 18.0702L54.6455 16.876ZM62.9255 28V30H66.9074L64.5298 26.8058L62.9255 28ZM56.7335 28L55.103 29.1583L55.701 30H56.7335V28ZM51.0815 20.044L52.7119 18.8857L51.4879 17.1628L49.8351 18.4799L51.0815 20.044ZM48.7775 21.88L47.5311 20.3159L46.7775 20.9164V21.88H48.7775ZM48.7775 28V30H50.7775V28H48.7775ZM43.4135 28H41.4135V30H43.4135V28ZM43.4135 0.639998V-1.36H41.4135V0.639998H43.4135ZM48.7775 0.639998H50.7775V-1.36H48.7775V0.639998ZM46.7775 12.88C46.7775 13.5594 46.7446 14.2391 46.6788 14.9194L50.6602 15.3046C50.7383 14.4969 50.7775 13.6886 50.7775 12.88H46.7775ZM46.6739 14.979C46.6273 15.6784 46.5689 16.3905 46.4988 17.1154L50.4802 17.5006C50.554 16.7375 50.6157 15.9856 50.665 15.245L46.6739 14.979ZM48.4895 19.308H48.5615V15.308H48.4895V19.308ZM50.1889 18.4705C50.4289 18.1345 50.6689 17.7985 50.9089 17.4625L47.654 15.1375C47.414 15.4735 47.174 15.8095 46.934 16.1455L50.1889 18.4705ZM50.8541 17.5356C51.1181 17.1996 51.3821 16.8636 51.6461 16.5276L48.5008 14.0564C48.2368 14.3924 47.9728 14.7284 47.7088 15.0644L50.8541 17.5356ZM51.6461 16.5276C51.8776 16.233 52.1192 15.9494 52.3711 15.6766L49.4319 12.9634C49.1077 13.3146 48.7974 13.679 48.5008 14.0564L51.6461 16.5276ZM52.3721 15.6755L57.8801 9.69946L54.9388 6.98854L49.4308 12.9645L52.3721 15.6755ZM56.4095 10.344H62.4575V6.344H56.4095V10.344ZM60.9824 6.9934L53.1704 15.5254L56.1206 18.2266L63.9326 9.6946L60.9824 6.9934ZM53.0411 18.0702L61.3211 29.1942L64.5298 26.8058L56.2498 15.6818L53.0411 18.0702ZM62.9255 26H56.7335V30H62.9255V26ZM58.3639 26.8417L52.7119 18.8857L49.451 21.2023L55.103 29.1583L58.3639 26.8417ZM49.8351 18.4799L47.5311 20.3159L50.0239 23.4441L52.3279 21.6081L49.8351 18.4799ZM46.7775 21.88V28H50.7775V21.88H46.7775ZM48.7775 26H43.4135V30H48.7775V26ZM45.4135 28V0.639998H41.4135V28H45.4135ZM43.4135 2.64H48.7775V-1.36H43.4135V2.64ZM46.7775 0.639998V12.88H50.7775V0.639998H46.7775ZM78.5177 9.028L77.5714 10.79L77.5781 10.7936L77.5849 10.7971L78.5177 9.028ZM81.5777 12.052L79.8219 13.0097V13.0097L81.5777 12.052ZM82.6577 19.504V21.504H84.6577V19.504H82.6577ZM69.9857 19.504V17.504H67.9212L67.9867 19.5675L69.9857 19.504ZM71.3177 23.068L69.8837 24.4622L69.8935 24.4723L69.9035 24.4822L71.3177 23.068ZM78.3377 24.004L78.7907 25.952L78.8121 25.947L78.8334 25.9416L78.3377 24.004ZM81.5417 22.816H83.5417V19.6425L80.6788 21.0117L81.5417 22.816ZM81.5417 26.956L82.4361 28.7449L83.5417 28.1921V26.956H81.5417ZM78.4817 28L78.0895 26.0388L78.0639 26.044L78.0384 26.0497L78.4817 28ZM69.4097 27.28L68.5267 29.0745L68.5382 29.0802L68.5498 29.0857L69.4097 27.28ZM65.8457 23.932L64.1161 24.9363L65.8457 23.932ZM65.7017 12.592L63.924 11.6754L63.9185 11.6863L65.7017 12.592ZM68.9777 9.136L68.0115 7.38484L68.9777 9.136ZM71.2817 12.808L69.8925 11.3692L69.8799 11.3814L69.8675 11.3938L71.2817 12.808ZM70.0937 15.94L68.1008 15.7711L67.917 17.94H70.0937V15.94ZM77.6177 15.94V17.94H79.6177V15.94H77.6177ZM77.1857 13.816L75.3438 14.5953L75.3563 14.6249L75.3698 14.6541L77.1857 13.816ZM75.9617 12.34L77.0542 10.6648L75.9617 12.34ZM73.8377 9.984C75.4095 9.984 76.6281 10.2834 77.5714 10.79L79.4639 7.26601C77.8153 6.38061 75.9139 5.984 73.8377 5.984V9.984ZM77.5849 10.7971C78.5539 11.3081 79.2889 12.0325 79.8219 13.0097L83.3335 11.0943C82.4265 9.43152 81.1215 8.13994 79.4505 7.25886L77.5849 10.7971ZM79.8219 13.0097C80.3433 13.9656 80.6577 15.2361 80.6577 16.912H84.6577C84.6577 14.7479 84.2521 12.7784 83.3335 11.0943L79.8219 13.0097ZM80.6577 16.912V19.504H84.6577V16.912H80.6577ZM82.6577 17.504H69.9857V21.504H82.6577V17.504ZM67.9867 19.5675C68.0463 21.4455 68.6136 23.1557 69.8837 24.4622L72.7517 21.6738C72.3418 21.2523 72.0211 20.5865 71.9847 19.4405L67.9867 19.5675ZM69.9035 24.4822C71.2274 25.8062 72.9727 26.364 74.8817 26.364V22.364C73.7666 22.364 73.136 22.0578 72.7319 21.6538L69.9035 24.4822ZM74.8817 26.364C76.2768 26.364 77.5841 26.2326 78.7907 25.952L77.8847 22.056C77.0273 22.2554 76.0305 22.364 74.8817 22.364V26.364ZM78.8334 25.9416C80.0089 25.6409 81.1998 25.1965 82.4046 24.6203L80.6788 21.0117C79.6755 21.4915 78.7305 21.8391 77.842 22.0664L78.8334 25.9416ZM79.5417 22.816V26.956H83.5417V22.816H79.5417ZM80.6473 25.1671C79.8504 25.5656 78.9997 25.8568 78.0895 26.0388L78.8739 29.9612C80.1236 29.7112 81.313 29.3064 82.4361 28.7449L80.6473 25.1671ZM78.0384 26.0497C77.1724 26.2466 76.0464 26.36 74.6297 26.36V30.36C76.2369 30.36 77.679 30.2334 78.9249 29.9503L78.0384 26.0497ZM74.6297 26.36C72.9075 26.36 71.4699 26.0459 70.2696 25.4743L68.5498 29.0857C70.3735 29.9541 72.4159 30.36 74.6297 30.36V26.36ZM70.2927 25.4855C69.1425 24.9195 68.2456 24.0822 67.5753 22.9277L64.1161 24.9363C65.1738 26.7578 66.6529 28.1525 68.5267 29.0745L70.2927 25.4855ZM67.5753 22.9277C66.9352 21.8255 66.5497 20.326 66.5497 18.316H62.5497C62.5497 20.818 63.0281 23.0625 64.1161 24.9363L67.5753 22.9277ZM66.5497 18.316C66.5497 16.2194 66.9011 14.6469 67.4848 13.4977L63.9185 11.6863C62.9662 13.5611 62.5497 15.8046 62.5497 18.316H66.5497ZM67.4793 13.5086C68.1061 12.293 68.9294 11.4468 69.9438 10.8872L68.0115 7.38484C66.242 8.36115 64.8813 9.819 63.9241 11.6754L67.4793 13.5086ZM69.9438 10.8872C70.9951 10.3071 72.2723 9.984 73.8377 9.984V5.984C71.707 5.984 69.7443 6.42885 68.0115 7.38484L69.9438 10.8872ZM73.8737 9.8C72.3615 9.8 70.9879 10.3116 69.8925 11.3692L72.6709 14.2468C72.9675 13.9604 73.3219 13.8 73.8737 13.8V9.8ZM69.8675 11.3938C68.7308 12.5305 68.2416 14.1097 68.1008 15.7711L72.0865 16.1089C72.1858 14.9383 72.4886 14.4295 72.6959 14.2222L69.8675 11.3938ZM70.0937 17.94H77.6177V13.94H70.0937V17.94ZM79.6177 15.94C79.6177 14.9026 79.428 13.9018 79.0016 12.9779L75.3698 14.6541C75.5193 14.9782 75.6177 15.3934 75.6177 15.94H79.6177ZM79.0276 13.0367C78.6132 12.0571 77.9494 11.2486 77.0542 10.6648L74.8691 14.0152C75.0779 14.1514 75.2302 14.3269 75.3438 14.5953L79.0276 13.0367ZM77.0542 10.6648C76.0987 10.0416 74.9959 9.8 73.8737 9.8V13.8C74.4315 13.8 74.7207 13.9184 74.8692 14.0152L77.0542 10.6648ZM103.243 9.712L101.901 11.1944L101.908 11.2014L101.916 11.2084L103.243 9.712ZM105.151 28V30H107.151V28H105.151ZM99.7872 28H97.7872V30H99.7872V28ZM99.0312 13.348L97.3928 14.4949L97.4019 14.508L97.4113 14.521L99.0312 13.348ZM93.2712 13.96L95.0285 14.915L95.0328 14.9071L95.037 14.8992L93.2712 13.96ZM92.3712 28V30H94.3712V28H92.3712ZM87.0072 28H85.0072V30H87.0072V28ZM87.0072 8.344V6.344H85.0072V8.344H87.0072ZM91.1112 8.344L93.0343 7.79456L92.6198 6.344H91.1112V8.344ZM91.8312 10.864L89.9082 11.4134L90.3226 12.864H91.8312V10.864ZM92.1192 10.864V12.864H93.2111L93.8016 11.9455L92.1192 10.864ZM93.7032 9.244L94.7977 10.9179L94.8199 10.9035L94.8416 10.8884L93.7032 9.244ZM95.7912 8.308L96.2763 10.2483L96.3046 10.2412L96.3327 10.2333L95.7912 8.308ZM98.1672 9.984C99.9027 9.984 101.076 10.448 101.901 11.1944L104.586 8.22959C102.866 6.672 100.656 5.984 98.1672 5.984V9.984ZM101.916 11.2084C102.588 11.8043 103.151 12.9569 103.151 15.184H107.151C107.151 12.3711 106.442 9.87571 104.57 8.21562L101.916 11.2084ZM103.151 15.184V28H107.151V15.184H103.151ZM105.151 26H99.7872V30H105.151V26ZM101.787 28V16.516H97.7872V28H101.787ZM101.787 16.516C101.787 14.9273 101.516 13.3697 100.651 12.175L97.4113 14.521C97.5542 14.7183 97.7872 15.2727 97.7872 16.516H101.787ZM100.67 12.2011C99.6955 10.8093 98.1884 10.268 96.6192 10.268V14.268C97.2581 14.268 97.359 14.4467 97.3928 14.4949L100.67 12.2011ZM96.6192 10.268C94.4886 10.268 92.5528 11.0517 91.5055 13.0208L95.037 14.8992C95.1896 14.6123 95.4858 14.268 96.6192 14.268V10.268ZM91.514 13.005C90.6821 14.5356 90.3712 16.5215 90.3712 18.748H94.3712C94.3712 16.7985 94.6603 15.5924 95.0285 14.915L91.514 13.005ZM90.3712 18.748V28H94.3712V18.748H90.3712ZM92.3712 26H87.0072V30H92.3712V26ZM89.0072 28V8.344H85.0072V28H89.0072ZM87.0072 10.344H91.1112V6.344H87.0072V10.344ZM89.1882 8.89344L89.9082 11.4134L93.7543 10.3146L93.0343 7.79456L89.1882 8.89344ZM91.8312 12.864H92.1192V8.864H91.8312V12.864ZM93.8016 11.9455C94.0925 11.4929 94.4257 11.1612 94.7977 10.9179L92.6087 7.57006C91.7328 8.1428 91.0099 8.89106 90.4369 9.78248L93.8016 11.9455ZM94.8416 10.8884C95.259 10.5994 95.7319 10.3844 96.2763 10.2483L95.3061 6.36771C94.3145 6.61562 93.3954 7.02455 92.5648 7.59962L94.8416 10.8884ZM96.3327 10.2333C96.9205 10.068 97.5301 9.984 98.1672 9.984V5.984C97.1724 5.984 96.198 6.116 95.2497 6.3827L96.3327 10.2333ZM130.351 28V30H132.351V28H130.351ZM124.915 28H122.915V30H124.915V28ZM124.915 6.832H126.915V4.832H124.915V6.832ZM117.931 6.832H115.931V8.832H117.931V6.832ZM117.931 2.296V0.295999H115.931V2.296H117.931ZM137.335 2.296H139.335V0.295999H137.335V2.296ZM137.335 6.832V8.832H139.335V6.832H137.335ZM130.351 6.832V4.832H128.351V6.832H130.351ZM130.351 26H124.915V30H130.351V26ZM126.915 28V6.832H122.915V28H126.915ZM124.915 4.832H117.931V8.832H124.915V4.832ZM119.931 6.832V2.296H115.931V6.832H119.931ZM117.931 4.296H137.335V0.295999H117.931V4.296ZM135.335 2.296V6.832H139.335V2.296H135.335ZM137.335 4.832H130.351V8.832H137.335V4.832ZM128.351 6.832V28H132.351V6.832H128.351ZM152.096 9.676L150.821 11.2168L150.835 11.2287L150.85 11.2403L152.096 9.676ZM154.22 28V30H156.22V28H154.22ZM150.476 28L148.614 28.7297L149.111 30H150.476V28ZM149.432 25.336L151.294 24.6063L150.796 23.336H149.432V25.336ZM149.288 25.336V23.336H148.321L147.721 24.0932L149.288 25.336ZM147.56 27.064L146.35 25.4717L146.334 25.4836L146.318 25.4959L147.56 27.064ZM145.544 28.036L145.059 26.0957L145.022 26.1048L144.986 26.1153L145.544 28.036ZM139.64 27.712L138.745 29.5009L138.773 29.5148L138.802 29.5279L139.64 27.712ZM137.48 25.66L135.738 26.6426L135.743 26.6524L135.749 26.6621L137.48 25.66ZM138.884 17.524L139.999 19.1839L140.009 19.1777L140.018 19.1713L138.884 17.524ZM145.472 15.868L145.409 13.869L145.406 13.8691L145.472 15.868ZM148.892 15.76L148.955 17.759L150.892 17.6978V15.76H148.892ZM148.064 12.628L146.718 14.1079L146.735 14.1227L146.751 14.1372L148.064 12.628ZM143.024 12.34L143.58 14.2611L143.603 14.2544L143.626 14.2472L143.024 12.34ZM140.288 13.348L138.488 14.221L139.335 15.9654L141.105 15.1736L140.288 13.348ZM138.524 9.712L137.597 7.93955L135.877 8.8387L136.724 10.585L138.524 9.712ZM142.016 8.416L141.548 6.47153L141.539 6.47358L142.016 8.416ZM146.804 18.964L146.859 20.9633L146.873 20.9628L146.804 18.964ZM143.204 19.9L141.902 18.3815H141.902L143.204 19.9ZM142.916 23.932L141.716 25.532L141.742 25.5517L141.769 25.5705L142.916 23.932ZM147.704 23.428L148.998 24.953L149.011 24.9418L149.024 24.9303L147.704 23.428ZM148.892 18.892H150.892V16.8218L148.823 16.8932L148.892 18.892ZM146.048 9.948C148.431 9.948 149.921 10.4719 150.821 11.2168L153.371 8.13521C151.487 6.57613 148.945 5.948 146.048 5.948V9.948ZM150.85 11.2403C151.654 11.8809 152.22 12.9557 152.22 14.896H156.22C156.22 12.1323 155.37 9.72707 153.342 8.11168L150.85 11.2403ZM152.22 14.896V28H156.22V14.896H152.22ZM154.22 26H150.476V30H154.22V26ZM152.338 27.2703L151.294 24.6063L147.57 26.0657L148.614 28.7297L152.338 27.2703ZM149.432 23.336H149.288V27.336H149.432V23.336ZM147.721 24.0932C147.255 24.6809 146.795 25.1329 146.35 25.4717L148.77 28.6563C149.524 28.0831 150.217 27.3831 150.855 26.5788L147.721 24.0932ZM146.318 25.4959C145.982 25.7621 145.573 25.9672 145.059 26.0957L146.029 29.9763C147.051 29.7208 147.985 29.2779 148.801 28.6321L146.318 25.4959ZM144.986 26.1153C144.482 26.2616 143.76 26.36 142.772 26.36V30.36C143.991 30.36 145.117 30.2424 146.101 29.9567L144.986 26.1153ZM142.772 26.36C141.875 26.36 141.122 26.1933 140.478 25.8961L138.802 29.5279C140.03 30.0947 141.365 30.36 142.772 30.36V26.36ZM140.534 25.9231C139.984 25.6481 139.55 25.2435 139.211 24.6579L135.749 26.6621C136.466 27.9005 137.471 28.8639 138.745 29.5009L140.534 25.9231ZM139.222 24.6774C138.908 24.1217 138.688 23.3097 138.688 22.132H134.688C134.688 23.7863 134.995 25.3263 135.738 26.6426L139.222 24.6774ZM138.688 22.132C138.688 20.5691 139.196 19.7241 139.999 19.1839L137.768 15.8641C135.644 17.2919 134.688 19.5189 134.688 22.132H138.688ZM140.018 19.1713C141.023 18.4793 142.769 17.9577 145.537 17.8669L145.406 13.8691C142.319 13.9703 139.673 14.5527 137.75 15.8767L140.018 19.1713ZM145.535 17.867L148.955 17.759L148.829 13.761L145.409 13.869L145.535 17.867ZM150.892 15.76V14.896H146.892V15.76H150.892ZM150.892 14.896C150.892 13.5312 150.522 12.1148 149.376 11.1188L146.751 14.1372C146.754 14.1392 146.758 14.1428 146.764 14.1529C146.772 14.1638 146.788 14.1903 146.806 14.2409C146.845 14.3469 146.892 14.5511 146.892 14.896H150.892ZM149.409 11.1481C148.402 10.2322 147.115 9.908 145.832 9.908V13.908C146.469 13.908 146.67 14.0638 146.718 14.1079L149.409 11.1481ZM145.832 9.908C144.668 9.908 143.529 10.0831 142.422 10.4328L143.626 14.2472C144.342 14.0209 145.075 13.908 145.832 13.908V9.908ZM142.468 10.4189C141.462 10.7099 140.463 11.0785 139.471 11.5224L141.105 15.1736C141.936 14.8015 142.761 14.4981 143.58 14.2611L142.468 10.4189ZM142.087 12.475L140.323 8.83902L136.724 10.585L138.488 14.221L142.087 12.475ZM139.45 11.4844C140.35 11.014 141.361 10.6358 142.492 10.3584L141.539 6.47358C140.126 6.82017 138.809 7.30604 137.597 7.93955L139.45 11.4844ZM142.484 10.3604C143.62 10.0869 144.806 9.948 146.048 9.948V5.948C144.505 5.948 143.004 6.12105 141.548 6.47155L142.484 10.3604ZM146.748 16.9648C144.935 17.0151 143.127 17.3317 141.902 18.3815L144.505 21.4185C144.625 21.3163 145.217 21.0089 146.859 20.9632L146.748 16.9648ZM141.902 18.3815C140.759 19.3617 140.196 20.6864 140.196 22.168H144.196C144.196 21.7776 144.305 21.5903 144.505 21.4185L141.902 18.3815ZM140.196 22.168C140.196 23.3695 140.565 24.6686 141.716 25.532L144.116 22.332C144.143 22.3524 144.17 22.3792 144.193 22.4096C144.216 22.4394 144.226 22.4611 144.227 22.4652C144.229 22.4688 144.196 22.3874 144.196 22.168H140.196ZM141.769 25.5705C142.676 26.2051 143.736 26.436 144.788 26.436V22.436C144.304 22.436 144.116 22.3309 144.063 22.2935L141.769 25.5705ZM144.788 26.436C146.358 26.436 147.804 25.9657 148.998 24.953L146.41 21.903C146.019 22.2343 145.521 22.436 144.788 22.436V26.436ZM149.024 24.9303C150.328 23.7842 150.892 22.2192 150.892 20.512H146.892C146.892 21.3008 146.663 21.6798 146.384 21.9257L149.024 24.9303ZM150.892 20.512V18.892H146.892V20.512H150.892ZM148.823 16.8932L146.735 16.9652L146.873 20.9628L148.961 20.8908L148.823 16.8932ZM176.018 10.576L174.45 11.8174L174.459 11.8281L176.018 10.576ZM177.098 23.788L178.937 24.5759L178.941 24.5654L177.098 23.788ZM174.434 27.208L173.309 25.5548L174.434 27.208ZM168.062 28L167.39 29.8835L167.4 29.8872L167.41 29.8907L168.062 28ZM166.334 27.064L167.584 25.5023L166.334 27.064ZM165.074 25.84L166.611 24.5596L166.011 23.84H165.074V25.84ZM164.786 25.84V23.84H162.321L162.829 26.252L164.786 25.84ZM165.002 27.28L163.011 27.4696L163.012 27.479L165.002 27.28ZM165.074 36.64V38.64H167.074V36.64H165.074ZM159.71 36.64H157.71V38.64H159.71V36.64ZM159.71 8.344V6.344H157.71V8.344H159.71ZM164.066 8.344L165.984 7.77674L165.56 6.344H164.066V8.344ZM164.822 10.9L162.904 11.4673L163.328 12.9H164.822V10.9ZM165.074 10.9V12.9H166.131L166.727 12.0267L165.074 10.9ZM166.37 9.46L167.672 10.9785L167.692 10.9611L167.712 10.9431L166.37 9.46ZM168.17 8.38L167.482 6.50225L167.471 6.50607L167.461 6.51L168.17 8.38ZM166.694 12.844L165.552 11.2022V11.2022L166.694 12.844ZM165.47 14.608L163.573 13.9755L163.567 13.9934L163.561 14.0114L165.47 14.608ZM165.074 17.524L163.075 17.4832L163.074 17.5036V17.524H165.074ZM165.434 21.34L163.504 21.8618L163.507 21.8753L165.434 21.34ZM166.658 23.32L167.9 21.7519L166.658 23.32ZM171.014 23.32L169.707 21.8064L171.014 23.32ZM172.202 21.304L170.285 20.7341V20.7341L172.202 21.304ZM171.698 13.744L169.972 14.7544L169.987 14.7794L170.002 14.804L171.698 13.744ZM170.654 9.984C172.253 9.984 173.462 10.5696 174.45 11.8174L177.586 9.33459C175.838 7.1264 173.472 5.984 170.654 5.984V9.984ZM174.459 11.8281C175.426 13.0326 176.07 15.0271 176.07 18.136H180.07C180.07 14.5729 179.347 11.5274 177.578 9.32393L174.459 11.8281ZM176.07 18.136C176.07 20.1864 175.771 21.7888 175.256 23.0106L178.941 24.5654C179.722 22.7152 180.07 20.5496 180.07 18.136H176.07ZM175.26 23.0002C174.731 24.2343 174.062 25.0419 173.309 25.5548L175.56 28.8612C177.063 27.8381 178.17 26.3657 178.937 24.5758L175.26 23.0002ZM173.309 25.5548C172.543 26.0764 171.635 26.36 170.51 26.36V30.36C172.362 30.36 174.07 29.8756 175.56 28.8612L173.309 25.5548ZM170.51 26.36C169.739 26.36 169.152 26.2603 168.714 26.1093L167.41 29.8907C168.364 30.2197 169.41 30.36 170.51 30.36V26.36ZM168.735 26.1165C168.239 25.9393 167.865 25.7275 167.584 25.5023L165.085 28.6257C165.763 29.1685 166.542 29.5807 167.39 29.8835L168.735 26.1165ZM167.584 25.5023C167.199 25.1945 166.877 24.8794 166.611 24.5596L163.538 27.1204C163.991 27.6646 164.51 28.1655 165.085 28.6257L167.584 25.5023ZM165.074 23.84H164.786V27.84H165.074V23.84ZM162.829 26.252C162.909 26.6286 162.97 27.034 163.011 27.4696L166.993 27.0904C166.939 26.518 166.856 25.9634 166.743 25.428L162.829 26.252ZM163.012 27.479C163.054 27.8932 163.074 28.3068 163.074 28.72H167.074C167.074 28.1732 167.047 27.6268 166.992 27.081L163.012 27.479ZM163.074 28.72V36.64H167.074V28.72H163.074ZM165.074 34.64H159.71V38.64H165.074V34.64ZM161.71 36.64V8.344H157.71V36.64H161.71ZM159.71 10.344H164.066V6.344H159.71V10.344ZM162.148 8.91126L162.904 11.4673L166.74 10.3327L165.984 7.77674L162.148 8.91126ZM164.822 12.9H165.074V8.9H164.822V12.9ZM166.727 12.0267C166.984 11.6497 167.296 11.3004 167.672 10.9785L165.069 7.94149C164.436 8.48363 163.885 9.09429 163.422 9.77332L166.727 12.0267ZM167.712 10.9431C168.014 10.6696 168.395 10.434 168.88 10.25L167.461 6.51C166.554 6.85399 165.734 7.3384 165.029 7.97693L167.712 10.9431ZM168.859 10.2578C169.316 10.0902 169.903 9.984 170.654 9.984V5.984C169.534 5.984 168.465 6.14176 167.482 6.50225L168.859 10.2578ZM168.926 10.268C167.737 10.268 166.548 10.5098 165.552 11.2022L167.836 14.4858C167.945 14.4102 168.244 14.268 168.926 14.268V10.268ZM165.552 11.2022C164.568 11.8867 163.94 12.8749 163.573 13.9755L167.368 15.2405C167.529 14.7571 167.716 14.5693 167.836 14.4858L165.552 11.2022ZM163.561 14.0114C163.246 15.0216 163.101 16.1971 163.075 17.4832L167.074 17.5648C167.096 16.4989 167.215 15.7304 167.379 15.2045L163.561 14.0114ZM163.074 17.524V18.1H167.074V17.524H163.074ZM163.074 18.1C163.074 19.4863 163.204 20.7528 163.504 21.8618L167.365 20.8182C167.185 20.1512 167.074 19.2577 167.074 18.1H163.074ZM163.507 21.8753C163.835 23.0557 164.441 24.1156 165.417 24.8881L167.9 21.7519C167.724 21.6124 167.513 21.3523 167.361 20.8047L163.507 21.8753ZM165.417 24.8881C166.45 25.7058 167.716 26.004 168.998 26.004V22.004C168.312 22.004 168.019 21.8462 167.9 21.7519L165.417 24.8881ZM168.998 26.004C170.208 26.004 171.37 25.6553 172.322 24.8336L169.707 21.8064C169.603 21.8967 169.42 22.004 168.998 22.004V26.004ZM172.322 24.8336C173.219 24.0583 173.781 23.0109 174.119 21.8739L170.285 20.7341C170.095 21.3731 169.865 21.6697 169.707 21.8064L172.322 24.8336ZM174.119 21.8739C174.455 20.7465 174.598 19.4625 174.598 18.064H170.598C170.598 19.2095 170.478 20.0855 170.285 20.7341L174.119 21.8739ZM174.598 18.064C174.598 16.0004 174.288 14.1132 173.394 12.684L170.002 14.804C170.309 15.2948 170.598 16.2876 170.598 18.064H174.598ZM173.424 12.7336C172.442 11.0559 170.81 10.268 168.926 10.268V14.268C169.587 14.268 169.802 14.4641 169.972 14.7544L173.424 12.7336Z" fill="white"/>
</svg>
