<svg width="200" height="41" viewBox="0 0 200 41" fill="none" xmlns="http://www.w3.org/2000/svg">
  <path d="M17.42 30.36H11.984V9.192H5V4.656H24.404V9.192H17.42V30.36Z" fill="#21212C" />
  <path
    d="M43.2604 20.496C43.2604 22.128 43.0324 23.58 42.5764 24.852C42.1444 26.124 41.5084 27.204 40.6684 28.092C39.8524 28.956 38.8564 29.616 37.6804 30.072C36.5044 30.504 35.1724 30.72 33.6844 30.72C32.3164 30.72 31.0444 30.504 29.8684 30.072C28.7164 29.616 27.7204 28.956 26.8804 28.092C26.0404 27.204 25.3804 26.124 24.9004 24.852C24.4444 23.58 24.2164 22.128 24.2164 20.496C24.2164 18.312 24.6004 16.476 25.3684 14.988C26.1364 13.476 27.2404 12.324 28.6804 11.532C30.1204 10.74 31.8244 10.344 33.7924 10.344C35.6404 10.344 37.2724 10.74 38.6884 11.532C40.1044 12.324 41.2204 13.476 42.0364 14.988C42.8524 16.476 43.2604 18.312 43.2604 20.496ZM29.6884 20.496C29.6884 21.792 29.8204 22.884 30.0844 23.772C30.3724 24.636 30.8164 25.296 31.4164 25.752C32.0164 26.184 32.7964 26.4 33.7564 26.4C34.7164 26.4 35.4844 26.184 36.0604 25.752C36.6604 25.296 37.0924 24.636 37.3564 23.772C37.6444 22.884 37.7884 21.792 37.7884 20.496C37.7884 19.2 37.6444 18.12 37.3564 17.256C37.0924 16.392 36.6604 15.744 36.0604 15.312C35.4604 14.88 34.6804 14.664 33.7204 14.664C32.3044 14.664 31.2724 15.156 30.6244 16.14C30.0004 17.1 29.6884 18.552 29.6884 20.496Z"
    fill="#21212C" />
  <path
    d="M53.0575 15.24C53.0575 15.984 53.0215 16.728 52.9495 17.472C52.9015 18.192 52.8415 18.924 52.7695 19.668H52.8415C53.0815 19.332 53.3215 18.996 53.5615 18.66C53.8255 18.324 54.0895 17.988 54.3535 17.652C54.6175 17.316 54.8935 16.992 55.1815 16.68L60.6895 10.704H66.7375L58.9255 19.236L67.2055 30.36H61.0135L55.3615 22.404L53.0575 24.24V30.36H47.6935V3H53.0575V15.24Z"
    fill="#21212C" />
  <path
    d="M78.1177 10.344C79.9417 10.344 81.5017 10.692 82.7977 11.388C84.1177 12.084 85.1377 13.092 85.8577 14.412C86.5777 15.732 86.9377 17.352 86.9377 19.272V21.864H74.2657C74.3137 23.376 74.7577 24.564 75.5977 25.428C76.4617 26.292 77.6497 26.724 79.1617 26.724C80.4337 26.724 81.5857 26.604 82.6177 26.364C83.6497 26.1 84.7177 25.704 85.8217 25.176V29.316C84.8617 29.796 83.8417 30.144 82.7617 30.36C81.7057 30.6 80.4217 30.72 78.9097 30.72C76.9417 30.72 75.2017 30.36 73.6897 29.64C72.1777 28.896 70.9897 27.78 70.1257 26.292C69.2617 24.804 68.8297 22.932 68.8297 20.676C68.8297 18.372 69.2137 16.464 69.9817 14.952C70.7737 13.416 71.8657 12.264 73.2577 11.496C74.6497 10.728 76.2697 10.344 78.1177 10.344ZM78.1537 14.16C77.1217 14.16 76.2577 14.496 75.5617 15.168C74.8897 15.84 74.4937 16.884 74.3737 18.3H81.8977C81.8977 17.508 81.7537 16.8 81.4657 16.176C81.2017 15.552 80.7937 15.06 80.2417 14.7C79.6897 14.34 78.9937 14.16 78.1537 14.16Z"
    fill="#21212C" />
  <path
    d="M102.447 10.344C104.559 10.344 106.251 10.92 107.523 12.072C108.795 13.2 109.431 15.024 109.431 17.544V30.36H104.067V18.876C104.067 17.46 103.815 16.404 103.311 15.708C102.807 14.988 102.003 14.628 100.899 14.628C99.2672 14.628 98.1512 15.192 97.5512 16.32C96.9512 17.424 96.6512 19.02 96.6512 21.108V30.36H91.2872V10.704H95.3912L96.1112 13.224H96.3992C96.8312 12.552 97.3592 12.012 97.9832 11.604C98.6072 11.172 99.3032 10.86 100.071 10.668C100.839 10.452 101.631 10.344 102.447 10.344Z"
    fill="#21212C" />
  <path d="M134.631 30.36H129.195V9.192H122.211V4.656H141.615V9.192H134.631V30.36Z" fill="#21212C" />
  <path
    d="M150.328 10.308C152.968 10.308 154.984 10.884 156.376 12.036C157.792 13.164 158.5 14.904 158.5 17.256V30.36H154.756L153.712 27.696H153.568C153.016 28.392 152.44 28.968 151.84 29.424C151.264 29.88 150.592 30.204 149.824 30.396C149.08 30.612 148.156 30.72 147.052 30.72C145.9 30.72 144.856 30.504 143.92 30.072C143.008 29.616 142.288 28.932 141.76 28.02C141.232 27.084 140.968 25.908 140.968 24.492C140.968 22.404 141.7 20.868 143.164 19.884C144.628 18.876 146.824 18.324 149.752 18.228L153.172 18.12V17.256C153.172 16.224 152.896 15.468 152.344 14.988C151.816 14.508 151.072 14.268 150.112 14.268C149.152 14.268 148.216 14.412 147.304 14.7C146.392 14.964 145.48 15.3 144.568 15.708L142.804 12.072C143.86 11.52 145.024 11.088 146.296 10.776C147.592 10.464 148.936 10.308 150.328 10.308ZM151.084 21.324C149.356 21.372 148.156 21.684 147.484 22.26C146.812 22.836 146.476 23.592 146.476 24.528C146.476 25.344 146.716 25.932 147.196 26.292C147.676 26.628 148.3 26.796 149.068 26.796C150.22 26.796 151.192 26.46 151.984 25.788C152.776 25.092 153.172 24.12 153.172 22.872V21.252L151.084 21.324Z"
    fill="#21212C" />
  <path
    d="M174.934 10.344C177.142 10.344 178.93 11.208 180.298 12.936C181.666 14.64 182.35 17.16 182.35 20.496C182.35 22.728 182.026 24.612 181.378 26.148C180.73 27.66 179.842 28.8 178.714 29.568C177.586 30.336 176.278 30.72 174.79 30.72C173.854 30.72 173.038 30.6 172.342 30.36C171.67 30.12 171.094 29.808 170.614 29.424C170.134 29.04 169.714 28.632 169.354 28.2H169.066C169.162 28.656 169.234 29.136 169.282 29.64C169.33 30.12 169.354 30.6 169.354 31.08V39H163.99V10.704H168.346L169.102 13.26H169.354C169.714 12.732 170.146 12.252 170.65 11.82C171.154 11.364 171.754 11.004 172.45 10.74C173.17 10.476 173.998 10.344 174.934 10.344ZM173.206 14.628C172.27 14.628 171.526 14.82 170.974 15.204C170.422 15.588 170.014 16.176 169.75 16.968C169.51 17.736 169.378 18.708 169.354 19.884V20.46C169.354 21.732 169.474 22.812 169.714 23.7C169.954 24.564 170.362 25.224 170.938 25.68C171.514 26.136 172.294 26.364 173.278 26.364C174.094 26.364 174.766 26.136 175.294 25.68C175.822 25.224 176.218 24.552 176.482 23.664C176.746 22.776 176.878 21.696 176.878 20.424C176.878 18.504 176.578 17.064 175.978 16.104C175.402 15.12 174.478 14.628 173.206 14.628Z"
    fill="#21212C" />
  <path fill-rule="evenodd" clip-rule="evenodd"
    d="M19.42 32.36H9.984V11.192H3V2.656H26.404V10.639C26.8133 10.3224 27.251 10.0357 27.7166 9.77957C29.505 8.79591 31.5538 8.344 33.7924 8.344C35.934 8.344 37.911 8.80557 39.6647 9.78649C41.4302 10.774 42.8083 12.2095 43.7933 14.0323C44.8085 15.8865 45.2604 18.0724 45.2604 20.496C45.2604 22.3054 45.0087 23.9869 44.4648 25.511C43.9494 27.0218 43.1744 28.3532 42.1213 29.4664C41.089 30.5591 39.8387 31.3802 38.4035 31.9367L38.3868 31.9432L38.37 31.9493C36.936 32.4761 35.3646 32.72 33.6844 32.72C32.1027 32.72 30.5951 32.4696 29.1788 31.9493L29.1554 31.9408L29.1323 31.9316C27.725 31.3746 26.4892 30.5587 25.4464 29.4862L25.4369 29.4763L25.4275 29.4664C24.3857 28.365 23.5924 27.0505 23.0292 25.5581L23.0233 25.5426L23.0177 25.5269C22.4699 23.9987 22.2164 22.3117 22.2164 20.496C22.2164 18.0891 22.6382 15.9199 23.5882 14.0766C24.1529 12.9662 24.8751 12.0007 25.7502 11.192H19.42V32.36ZM42.5764 24.852C43.0324 23.58 43.2604 22.128 43.2604 20.496C43.2604 18.312 42.8524 16.476 42.0364 14.988C41.2204 13.476 40.1044 12.324 38.6884 11.532C37.2724 10.74 35.6404 10.344 33.7924 10.344C31.8244 10.344 30.1204 10.74 28.6804 11.532C27.2404 12.324 26.1364 13.476 25.3684 14.988C24.6004 16.476 24.2164 18.312 24.2164 20.496C24.2164 22.128 24.4444 23.58 24.9004 24.852C25.3804 26.124 26.0404 27.204 26.8804 28.092C27.7204 28.956 28.7164 29.616 29.8684 30.072C31.0444 30.504 32.3164 30.72 33.6844 30.72C35.1724 30.72 36.5044 30.504 37.6804 30.072C38.8564 29.616 39.8524 28.956 40.6684 28.092C41.5084 27.204 42.1444 26.124 42.5764 24.852ZM11.984 9.192V30.36H17.42V9.192H24.404V4.656H5V9.192H11.984ZM35.4487 23.1712L35.454 23.155C35.6577 22.5269 35.7884 21.6575 35.7884 20.496C35.7884 19.3318 35.657 18.4823 35.459 17.8885L35.4511 17.8645L35.4437 17.8404C35.2785 17.2996 35.0639 17.059 34.8918 16.9351C34.7212 16.8122 34.3858 16.664 33.7204 16.664C32.8258 16.664 32.4979 16.9339 32.298 17.235C31.987 17.7172 31.6884 18.7051 31.6884 20.496C31.6884 21.6503 31.8056 22.5271 31.9921 23.17C32.1719 23.6948 32.3969 23.9777 32.6049 24.1429C32.7813 24.2627 33.1159 24.4 33.7564 24.4C34.4192 24.4 34.7229 24.2533 34.8558 24.1554C35.0581 23.9998 35.2789 23.7269 35.4437 23.1876L35.4487 23.1712ZM36.0604 25.752C35.4844 26.184 34.7164 26.4 33.7564 26.4C32.7964 26.4 32.0164 26.184 31.4164 25.752C30.8164 25.296 30.3724 24.636 30.0844 23.772C29.8204 22.884 29.6884 21.792 29.6884 20.496C29.6884 18.552 30.0004 17.1 30.6244 16.14C31.2724 15.156 32.3044 14.664 33.7204 14.664C34.6804 14.664 35.4604 14.88 36.0604 15.312C36.6604 15.744 37.0924 16.392 37.3564 17.256C37.6444 18.12 37.7884 19.2 37.7884 20.496C37.7884 21.792 37.6444 22.884 37.3564 23.772C37.0924 24.636 36.6604 25.296 36.0604 25.752ZM61.0135 30.36L55.3615 22.404L53.0575 24.24V30.36H47.6935V3H53.0575V15.24C53.0575 15.524 53.0522 15.808 53.0417 16.092C53.0354 16.262 53.0273 16.4321 53.0172 16.6021C53.0001 16.8921 52.9775 17.182 52.9495 17.472C52.9347 17.694 52.9187 17.9172 52.9016 18.1416C52.9005 18.1565 52.8994 18.1713 52.8982 18.1862C52.8805 18.4169 52.8616 18.6488 52.8415 18.8818C52.8203 19.1265 52.7979 19.3725 52.7741 19.6199C52.7726 19.6359 52.771 19.652 52.7695 19.668H52.8415L53.5615 18.66L54.3535 17.652C54.3642 17.6383 54.375 17.6246 54.3858 17.611C54.3966 17.5973 54.4075 17.5836 54.4184 17.5699C54.6076 17.3323 54.8028 17.1008 55.0041 16.8754C55.0627 16.8097 55.1218 16.7446 55.1815 16.68L60.6895 10.704H66.7375L58.9255 19.236L67.2055 30.36H61.0135ZM61.5167 19.3676L71.1874 32.36H59.981L55.0575 25.4295V32.36H45.6935V1H55.0575V13.8635L59.8129 8.704H71.2804L61.5167 19.3676ZM85.8217 29.316C84.8617 29.796 83.8417 30.144 82.7617 30.36C81.7057 30.6 80.4217 30.72 78.9097 30.72C76.9417 30.72 75.2017 30.36 73.6897 29.64C72.1777 28.896 70.9897 27.78 70.1257 26.292C69.2617 24.804 68.8297 22.932 68.8297 20.676C68.8297 18.372 69.2137 16.464 69.9817 14.952C70.7737 13.416 71.8657 12.264 73.2577 11.496C74.6497 10.728 76.2697 10.344 78.1177 10.344C79.9417 10.344 81.5017 10.692 82.7977 11.388C84.1177 12.084 85.1377 13.092 85.8577 14.412C86.5777 15.732 86.9377 17.352 86.9377 19.272V21.864H74.2657C74.2894 22.6094 74.4093 23.2761 74.6254 23.864C74.8477 24.4686 75.1718 24.99 75.5977 25.428C76.4617 26.292 77.6497 26.724 79.1617 26.724C80.4337 26.724 81.5857 26.604 82.6177 26.364C83.0137 26.2627 83.4151 26.1419 83.8217 26.0018C84.4747 25.7766 85.1413 25.5014 85.8217 25.176V29.316ZM77.0218 24.0236C77.4262 24.4228 78.0557 24.724 79.1617 24.724C80.3011 24.724 81.2909 24.6172 82.1435 24.4209C82.6863 24.281 83.2501 24.0963 83.8354 23.864H76.8827C76.9276 23.9208 76.9741 23.9739 77.0218 24.0236ZM87.8217 23.864V30.5521L86.7161 31.1049C85.6006 31.6626 84.4197 32.0658 83.1792 32.3161C81.9391 32.5952 80.5059 32.72 78.9097 32.72C76.6959 32.72 74.6535 32.3141 72.8298 31.4457L72.8182 31.4402L72.8067 31.4345C70.9329 30.5125 69.4538 29.1178 68.3961 27.2963C67.3081 25.4225 66.8297 23.178 66.8297 20.676C66.8297 18.1646 67.2462 15.9211 68.1985 14.0463L68.204 14.0354C69.1613 12.179 70.522 10.7212 72.2915 9.74485C74.0243 8.78885 75.987 8.344 78.1177 8.344C80.1911 8.344 82.0902 8.73955 83.7373 9.62246C85.4051 10.5035 86.7077 11.7938 87.6135 13.4543C88.5321 15.1384 88.9377 17.1079 88.9377 19.272V23.864H87.8217ZM81.5206 16.3C81.772 16.8933 81.8977 17.56 81.8977 18.3H74.3737C74.4397 17.5206 74.5894 16.854 74.8227 16.3C75.0132 15.8475 75.2596 15.4701 75.5617 15.168C76.2577 14.496 77.1217 14.16 78.1537 14.16C78.9937 14.16 79.6897 14.34 80.2417 14.7C80.7937 15.06 81.2017 15.552 81.4657 16.176C81.4846 16.217 81.5029 16.2583 81.5206 16.3ZM77.3988 16.3C77.6061 16.2086 77.85 16.16 78.1537 16.16C78.5707 16.16 78.8375 16.2261 79.0077 16.3H77.3988ZM96.1112 13.224H96.3992C96.4211 13.1899 96.4433 13.1561 96.4657 13.1227C96.8339 12.5738 97.2688 12.1165 97.7704 11.751C97.84 11.7002 97.911 11.6512 97.9832 11.604C98.6072 11.172 99.3032 10.86 100.071 10.668C100.839 10.452 101.631 10.344 102.447 10.344C104.559 10.344 106.251 10.92 107.523 12.072C108.795 13.2 109.431 15.024 109.431 17.544V30.36H104.067V18.876C104.067 17.46 103.815 16.404 103.311 15.708C102.807 14.988 102.003 14.628 100.899 14.628C99.2672 14.628 98.1512 15.192 97.5512 16.32C96.9512 17.424 96.6512 19.02 96.6512 21.108V30.36H91.2872V10.704H95.3912L96.1112 13.224ZM97.1933 9.73125L96.8998 8.704H89.2872V32.36H98.6512V21.108C98.6512 19.1585 98.9403 17.9524 99.3085 17.275L99.3128 17.2671L99.317 17.2592C99.4696 16.9723 99.7658 16.628 100.899 16.628C101.517 16.628 101.632 16.7952 101.669 16.8498C101.67 16.8516 101.672 16.8534 101.673 16.8549L101.682 16.868L101.691 16.881C101.834 17.0783 102.067 17.6327 102.067 18.876V32.36H111.431V17.544C111.431 14.7349 110.724 12.2424 108.858 10.5823C107.139 9.02987 104.932 8.344 102.447 8.344C101.462 8.344 100.497 8.47344 99.5575 8.73493C98.7133 8.94891 97.922 9.27997 97.1933 9.73125ZM136.631 32.36H127.195V11.192H120.211V2.656H143.615V9.51847C144.321 9.24866 145.056 9.0208 145.819 8.83358L145.828 8.83154C147.284 8.48105 148.785 8.308 150.328 8.308C153.218 8.308 155.754 8.93303 157.637 10.4837C159.654 12.099 160.5 14.4991 160.5 17.256V32.36H153.391L152.908 31.1252C152.144 31.6919 151.281 32.0885 150.345 32.3271C149.37 32.6053 148.257 32.72 147.052 32.72C145.645 32.72 144.31 32.4548 143.082 31.8879L143.053 31.8748L143.025 31.8609C141.751 31.2239 140.746 30.2605 140.029 29.0221L140.023 29.0124L140.018 29.0026C139.275 27.6863 138.968 26.1463 138.968 24.492C138.968 21.883 139.921 19.6589 142.038 18.2308C142.411 17.9748 142.811 17.7467 143.236 17.5444L140.157 11.1987L140.17 11.192H136.631V32.36ZM134.631 30.36H129.195V9.192H122.211V4.656H141.615V9.192H134.631V30.36ZM143.164 19.884C141.7 20.868 140.968 22.404 140.968 24.492C140.968 25.908 141.232 27.084 141.76 28.02C142.288 28.932 143.008 29.616 143.92 30.072C144.856 30.504 145.9 30.72 147.052 30.72C148.156 30.72 149.08 30.612 149.824 30.396C150.592 30.204 151.264 29.88 151.84 29.424C151.942 29.3461 152.044 29.2647 152.145 29.1798C152.612 28.7874 153.065 28.3202 153.502 27.7782C153.524 27.751 153.546 27.7236 153.568 27.696H153.712L154.756 30.36H158.5V17.256C158.5 14.904 157.792 13.164 156.376 12.036C154.984 10.884 152.968 10.308 150.328 10.308C148.936 10.308 147.592 10.464 146.296 10.776C145.721 10.9169 145.169 11.0823 144.639 11.2721C144.265 11.4059 143.902 11.5518 143.55 11.7099C143.296 11.8243 143.047 11.945 142.804 12.072L144.568 15.708C145.48 15.3 146.392 14.964 147.304 14.7C148.216 14.412 149.152 14.268 150.112 14.268C151.072 14.268 151.816 14.508 152.344 14.988C152.669 15.2707 152.898 15.6492 153.032 16.1234C153.07 16.2572 153.1 16.3985 153.122 16.5475C153.155 16.7671 153.172 17.0033 153.172 17.256V18.12L149.752 18.228C146.824 18.324 144.628 18.876 143.164 19.884ZM151.142 23.3232L151.139 23.3233C149.497 23.3689 148.905 23.6763 148.785 23.7785C148.585 23.9503 148.476 24.1376 148.476 24.528C148.476 24.6115 148.481 24.675 148.486 24.7215C148.599 24.7592 148.782 24.796 149.068 24.796C149.793 24.796 150.288 24.5991 150.676 24.2746C150.891 24.0817 151.073 23.8069 151.142 23.3232ZM151.084 21.324C149.356 21.372 148.156 21.684 147.484 22.26C146.812 22.836 146.476 23.592 146.476 24.528C146.476 25.344 146.716 25.932 147.196 26.292C147.676 26.628 148.3 26.796 149.068 26.796C150.22 26.796 151.192 26.46 151.984 25.788C152.693 25.1646 153.085 24.3198 153.159 23.2536C153.167 23.1294 153.172 23.0022 153.172 22.872V21.252L151.084 21.324ZM169.102 13.26H169.354C169.376 13.2286 169.397 13.1973 169.419 13.1662C169.766 12.675 170.176 12.2263 170.65 11.82C170.68 11.7936 170.709 11.7675 170.739 11.7417C171.224 11.3226 171.795 10.9887 172.45 10.74C173.17 10.476 173.998 10.344 174.934 10.344C177.142 10.344 178.93 11.208 180.298 12.936C181.666 14.64 182.35 17.16 182.35 20.496C182.35 22.728 182.026 24.612 181.378 26.148C180.73 27.66 179.842 28.8 178.714 29.568C177.586 30.336 176.278 30.72 174.79 30.72C173.854 30.72 173.038 30.6 172.342 30.36C171.969 30.2267 171.625 30.0712 171.311 29.8934C171.1 29.7735 170.901 29.6435 170.716 29.5034C170.714 29.5014 170.711 29.4994 170.708 29.4974C170.677 29.4732 170.645 29.4488 170.614 29.424C170.134 29.04 169.714 28.632 169.354 28.2H169.066C169.081 28.268 169.094 28.3365 169.108 28.4056C169.183 28.7997 169.242 29.2111 169.282 29.64C169.301 29.8267 169.316 30.0133 169.327 30.2C169.343 30.459 169.352 30.718 169.354 30.9769C169.354 31.0113 169.354 31.0456 169.354 31.08V39H163.99V10.704H168.346L169.102 13.26ZM171.354 32.1245V41H161.99V8.704H169.84L170.133 9.69362C170.63 9.36072 171.168 9.08734 171.741 8.87001L171.751 8.86607L171.762 8.86225C172.745 8.50176 173.814 8.344 174.934 8.344C177.75 8.344 180.115 9.4846 181.862 11.6894C183.628 13.8924 184.35 16.9358 184.35 20.496C184.35 22.9096 184.002 25.0752 183.221 26.9254L183.217 26.9359C182.45 28.7257 181.343 30.1981 179.84 31.2212C178.35 32.2356 176.642 32.72 174.79 32.72C173.69 32.72 172.644 32.5797 171.69 32.2507L171.68 32.2472L171.67 32.2435C171.563 32.2056 171.458 32.1659 171.354 32.1245ZM174.267 17.1394L174.252 17.1144C174.082 16.8241 173.867 16.628 173.206 16.628C172.524 16.628 172.225 16.7702 172.116 16.8458C171.998 16.9283 171.813 17.1125 171.654 17.5828C171.493 18.1048 171.377 18.8617 171.354 19.9052V20.46C171.354 21.6138 171.464 22.5052 171.643 23.1714C171.795 23.7144 172.004 23.973 172.18 24.1119C172.299 24.2062 172.592 24.364 173.278 24.364C173.7 24.364 173.883 24.2567 173.987 24.1664C174.145 24.0297 174.375 23.7331 174.565 23.0941C174.758 22.4455 174.878 21.5695 174.878 20.424C174.878 18.6476 174.589 17.6548 174.282 17.164L174.267 17.1394ZM169.714 23.7C169.474 22.812 169.354 21.732 169.354 20.46V19.884C169.378 18.708 169.51 17.736 169.75 16.968C170.014 16.176 170.422 15.588 170.974 15.204C171.526 14.82 172.27 14.628 173.206 14.628C174.478 14.628 175.402 15.12 175.978 16.104C176.578 17.064 176.878 18.504 176.878 20.424C176.878 21.696 176.746 22.776 176.482 23.664C176.218 24.552 175.822 25.224 175.294 25.68C174.766 26.136 174.094 26.364 173.278 26.364C172.294 26.364 171.514 26.136 170.938 25.68C170.362 25.224 169.954 24.564 169.714 23.7Z"
    fill="white" />
  <path
    d="M211.664 18.22C212.284 18.22 212.804 18.28 213.224 18.4C213.644 18.5133 213.957 18.7 214.164 18.96C214.377 19.22 214.484 19.57 214.484 20.01C214.484 20.2833 214.437 20.53 214.344 20.75C214.25 20.97 214.114 21.15 213.934 21.29C213.76 21.43 213.544 21.5233 213.284 21.57V21.62C213.55 21.6667 213.787 21.7533 213.994 21.88C214.207 22 214.374 22.1767 214.494 22.41C214.62 22.6367 214.684 22.9367 214.684 23.31C214.684 23.7433 214.58 24.1133 214.374 24.42C214.167 24.7267 213.87 24.96 213.484 25.12C213.104 25.28 212.65 25.36 212.124 25.36H209.514V18.22H211.664ZM211.834 21.13C212.34 21.13 212.687 21.05 212.874 20.89C213.067 20.73 213.164 20.4933 213.164 20.18C213.164 19.86 213.05 19.63 212.824 19.49C212.597 19.35 212.234 19.28 211.734 19.28H210.794V21.13H211.834ZM210.794 22.16V24.29H211.954C212.474 24.29 212.834 24.19 213.034 23.99C213.24 23.79 213.344 23.5233 213.344 23.19C213.344 22.9767 213.3 22.7933 213.214 22.64C213.127 22.4867 212.977 22.37 212.764 22.29C212.55 22.2033 212.26 22.16 211.894 22.16H210.794ZM218.214 19.84C218.701 19.84 219.118 19.94 219.464 20.14C219.818 20.3333 220.091 20.6133 220.284 20.98C220.478 21.34 220.574 21.78 220.574 22.3V22.94H216.994C217.008 23.4333 217.144 23.8167 217.404 24.09C217.664 24.3567 218.024 24.49 218.484 24.49C218.838 24.49 219.151 24.4567 219.424 24.39C219.704 24.3167 219.991 24.2133 220.284 24.08V25.09C220.018 25.2167 219.741 25.31 219.454 25.37C219.168 25.43 218.824 25.46 218.424 25.46C217.898 25.46 217.428 25.36 217.014 25.16C216.608 24.9533 216.288 24.6433 216.054 24.23C215.828 23.8167 215.714 23.3033 215.714 22.69C215.714 22.07 215.818 21.55 216.024 21.13C216.238 20.7033 216.531 20.3833 216.904 20.17C217.278 19.95 217.714 19.84 218.214 19.84ZM218.214 20.77C217.881 20.77 217.608 20.88 217.394 21.1C217.188 21.3133 217.064 21.6333 217.024 22.06H219.354C219.354 21.8067 219.311 21.5833 219.224 21.39C219.144 21.1967 219.021 21.0467 218.854 20.94C218.688 20.8267 218.474 20.77 218.214 20.77ZM223.945 24.45C224.105 24.45 224.258 24.4367 224.405 24.41C224.552 24.3767 224.688 24.34 224.815 24.3V25.24C224.682 25.3 224.508 25.35 224.295 25.39C224.082 25.4367 223.858 25.46 223.625 25.46C223.318 25.46 223.038 25.41 222.785 25.31C222.538 25.2033 222.338 25.0233 222.185 24.77C222.038 24.5167 221.965 24.1633 221.965 23.71V20.89H221.235V20.34L222.035 19.9L222.435 18.75H223.225V19.94H224.765V20.89H223.225V23.7C223.225 23.9533 223.292 24.1433 223.425 24.27C223.558 24.39 223.732 24.45 223.945 24.45ZM228.067 19.84C228.767 19.84 229.297 19.9933 229.657 20.3C230.024 20.6 230.207 21.0733 230.207 21.72V25.36H229.317L229.067 24.61H229.027C228.874 24.8033 228.714 24.9667 228.547 25.1C228.387 25.2267 228.201 25.3167 227.987 25.37C227.781 25.43 227.527 25.46 227.227 25.46C226.907 25.46 226.617 25.4 226.357 25.28C226.104 25.16 225.904 24.9767 225.757 24.73C225.611 24.4767 225.537 24.16 225.537 23.78C225.537 23.22 225.741 22.8 226.147 22.52C226.561 22.2333 227.184 22.0767 228.017 22.05L228.957 22.02V21.75C228.957 21.4033 228.874 21.1567 228.707 21.01C228.541 20.8633 228.307 20.79 228.007 20.79C227.734 20.79 227.471 20.83 227.217 20.91C226.964 20.99 226.717 21.0833 226.477 21.19L226.077 20.31C226.344 20.17 226.647 20.0567 226.987 19.97C227.334 19.8833 227.694 19.84 228.067 19.84ZM228.297 22.82C227.744 22.84 227.361 22.9367 227.147 23.11C226.934 23.2767 226.827 23.5033 226.827 23.79C226.827 24.0433 226.904 24.2267 227.057 24.34C227.211 24.4533 227.407 24.51 227.647 24.51C228.014 24.51 228.324 24.4067 228.577 24.2C228.831 23.9867 228.957 23.6733 228.957 23.26V22.8L228.297 22.82Z"
    fill="url(#paint0_linear_3845_12023)" />
</svg>