<svg width="16" height="22" viewBox="0 0 16 22" fill="none" xmlns="http://www.w3.org/2000/svg">
<g clip-path="url(#clip0_2688_7805)">
<path d="M14.6515 6.68675C14.3688 4.29465 12.293 3.51782 9.68972 3.32202L9.61558 0L7.60267 0.0257285L7.67502 3.26024L7.14255 3.27007L6.06796 3.30181L5.99563 0.0458224L3.9839 0.07124L4.05735 3.39235L3.19739 3.41801C3.05605 3.42138 2.91578 3.42411 2.7767 3.42594L2.77622 3.41556L0 3.44962L0.0487271 5.60933L1.05852 5.58383L1.38448 5.58134L1.49799 5.58548C1.50755 5.58665 1.51194 5.58809 1.51044 5.58982C2.32564 5.57971 2.6017 6.05195 2.6882 6.46127L2.77277 10.2458C2.82897 10.2453 2.90241 10.2467 2.98588 10.2573L2.77321 10.2604L2.89098 15.5621C2.86107 15.8203 2.71943 16.2334 2.14976 16.2415L2.13768 16.2454L2.02453 16.2515L1.29025 16.2595L0.686611 16.2596L0.340459 18.6797L2.96 18.6465L4.39838 18.6401L4.47425 22L6.48497 21.9748L6.41063 18.6504C6.96303 18.655 7.49728 18.6526 8.01902 18.6456L8.09197 21.9546L10.105 21.9288L10.0306 18.5749L10.475 18.5392C10.5481 18.5326 10.6206 18.5256 10.6925 18.5182L11.1175 18.4693L11.5289 18.4106C14.0899 18.0055 15.7944 16.9536 15.9826 14.2545C16.1626 11.6808 14.9334 10.5491 13.0022 10.11C14.1098 9.52262 14.8049 8.52128 14.6731 6.89356L14.6515 6.68675ZM11.9957 13.9065C12.0317 15.4895 10.3415 15.9825 8.74556 16.1353L8.4173 16.1624L7.93779 16.1879L7.48448 16.1999L6.40264 16.2045L6.30384 11.7528L7.35727 11.7202L7.79861 11.7137L8.10829 11.7154L8.42651 11.7236L8.74996 11.7401C10.2665 11.8389 11.8468 12.2601 11.9864 13.7435L11.9957 13.9065ZM10.9193 7.63765C10.9521 9.12511 9.44768 9.55011 8.08036 9.66961L7.79007 9.69081L7.50764 9.70432L7.23672 9.71179L6.63386 9.71488L6.25832 9.71499L6.1684 5.67763L7.14619 5.64604L7.55735 5.64279C7.60451 5.64311 7.65208 5.6437 7.69999 5.6446L7.99098 5.654C9.31347 5.7158 10.7761 6.06034 10.9101 7.47588L10.9193 7.63765Z" fill="white"/>
</g>
<defs>
<clipPath id="clip0_2688_7805">
<rect width="16" height="22" fill="white"/>
</clipPath>
</defs>
</svg>
