<svg width="408" height="278" viewBox="0 0 408 278" fill="none" xmlns="http://www.w3.org/2000/svg">
<path d="M-177.849 104.17C-172.923 119.883 -117.809 118.296 -69.3806 114.644C-62.0292 114.125 -54.6522 115.197 -47.7528 117.787C-40.8534 120.378 -34.5939 124.426 -29.4012 129.656C-10.2184 148.81 13.8437 162.346 40.1744 168.794C66.505 175.241 94.0986 174.355 119.961 166.231C145.824 158.107 168.968 143.056 186.882 122.71C204.796 102.364 216.797 77.5007 221.581 50.8176C222.847 43.6385 225.633 36.8126 229.75 30.7967C233.867 24.7809 239.222 19.7137 245.456 15.9343C285.516 -8.20749 325.942 -36.5416 321.02 -52.2396C316.098 -67.9375 266.718 -68.1642 220.052 -65.0656C212.77 -64.6168 205.476 -65.7292 198.659 -68.3283C191.841 -70.9274 185.658 -74.9532 180.523 -80.1361C161.363 -99.3204 137.313 -112.889 110.985 -119.37C84.6567 -125.851 57.0563 -124.997 31.1797 -116.899C5.30309 -108.801 -17.861 -93.7698 -35.7979 -73.4367C-53.7348 -53.1035 -65.7593 -28.2454 -70.566 -1.56079C-71.8451 5.69484 -74.6732 12.5895 -78.8574 18.6535C-83.0417 24.7175 -88.4839 29.8084 -94.8133 33.5793C-136.614 58.2916 -182.787 88.4195 -177.849 104.17Z" stroke="url(#paint0_radial_2688_7787)" stroke-width="1.4" stroke-miterlimit="10"/>
<path d="M-168.272 101.165C-163.535 116.275 -110.537 114.748 -63.9684 111.237C-56.8993 110.738 -49.8056 111.769 -43.1711 114.26C-36.5366 116.751 -30.5174 120.644 -25.5241 125.672C-7.07791 144.092 16.0603 157.107 41.3799 163.307C66.6995 169.508 93.2336 168.655 118.103 160.843C142.973 153.031 165.228 138.558 182.455 118.993C199.681 99.4285 211.22 75.5199 215.821 49.8614C217.039 42.9579 219.717 36.3942 223.676 30.6093C227.636 24.8244 232.785 19.9518 238.779 16.3175C277.301 -6.89729 316.175 -34.1435 311.442 -49.2387C306.709 -64.3338 259.225 -64.5518 214.351 -61.5722C207.348 -61.1406 200.334 -62.2103 193.779 -64.7096C187.223 -67.2089 181.278 -71.0802 176.34 -76.064C157.915 -94.5116 134.789 -107.56 109.471 -113.792C84.1542 -120.024 57.6136 -119.202 32.7306 -111.415C7.8476 -103.628 -14.427 -89.1742 -31.6752 -69.6218C-48.9234 -50.0694 -60.4861 -26.1658 -65.1083 -0.505802C-66.3383 6.47123 -69.0578 13.1012 -73.0814 18.9323C-77.105 24.7635 -82.3382 29.6589 -88.4246 33.285C-128.62 57.0484 -173.021 86.0194 -168.272 101.165Z" stroke="url(#paint1_radial_2688_7787)" stroke-width="1.4" stroke-miterlimit="10"/>
<path d="M-164.038 99.8371C-159.385 114.68 -107.323 113.181 -61.5759 109.732C-54.6316 109.241 -47.6631 110.253 -41.1457 112.701C-34.6283 115.148 -28.7154 118.972 -23.8102 123.912C-5.68961 142.006 17.0402 154.792 41.9129 160.883C66.7855 166.973 92.8512 166.136 117.282 158.462C141.713 150.788 163.575 136.57 180.497 117.351C197.42 98.1312 208.756 74.6446 213.275 49.439C214.471 42.6573 217.102 36.2094 220.991 30.5267C224.881 24.8439 229.939 20.0573 235.828 16.4872C273.67 -6.31786 311.857 -33.0831 307.208 -47.9118C302.559 -62.7406 255.912 -62.9547 211.83 -60.0277C204.951 -59.6037 198.061 -60.6545 191.622 -63.1097C185.182 -65.5649 179.341 -69.3678 174.491 -74.2637C156.391 -92.3857 133.673 -105.203 108.802 -111.326C83.9321 -117.448 57.86 -116.64 33.4162 -108.991C8.97245 -101.341 -12.909 -87.1425 -29.8527 -67.9352C-46.7965 -48.7279 -58.1551 -25.2462 -62.6957 -0.0391779C-63.904 6.8147 -66.5755 13.3276 -70.528 19.0558C-74.4806 24.7841 -79.6215 29.5931 -85.6004 33.1552C-125.086 56.4991 -168.703 84.9588 -164.038 99.8371Z" stroke="url(#paint2_radial_2688_7787)" stroke-width="1.4" stroke-miterlimit="10"/>
<path d="M-186.752 106.961C-181.649 123.236 -124.582 121.572 -74.3928 117.863C-66.7805 117.328 -59.1422 118.44 -51.9982 121.122C-44.8542 123.805 -38.3721 127.996 -32.9935 133.409C-13.1261 153.255 11.7975 167.279 39.0721 173.961C66.3468 180.642 94.9305 179.725 121.721 171.309C148.511 162.894 172.485 147.301 191.04 126.223C209.594 105.145 222.021 79.3878 226.972 51.7465C228.278 44.3095 231.158 37.2373 235.419 31.0031C239.68 24.769 245.223 19.5168 251.677 15.5979C293.146 -9.46338 335.009 -38.8084 329.923 -55.0314C324.837 -71.2544 273.693 -71.4803 225.356 -68.3272C217.82 -67.8609 210.272 -69.0092 203.216 -71.6953C196.161 -74.3813 189.76 -78.5431 184.442 -83.9023C164.597 -103.772 139.688 -117.825 112.42 -124.537C85.1516 -131.249 56.5657 -130.363 29.7653 -121.976C2.96483 -113.589 -21.026 -98.0201 -39.6029 -76.9604C-58.1798 -55.9007 -70.6328 -30.1546 -75.6103 -2.51696C-76.9382 4.99519 -79.8694 12.133 -84.2041 18.4104C-88.5389 24.6878 -94.1754 29.9574 -100.73 33.8605C-144.057 59.4303 -191.864 90.6551 -186.752 106.961Z" stroke="url(#paint3_radial_2688_7787)" stroke-width="1.4" stroke-miterlimit="10"/>
<path d="M-195.699 109.766C-190.42 126.604 -131.378 124.881 -79.4731 121.021C-71.5984 120.466 -63.6965 121.615 -56.3059 124.39C-48.9154 127.164 -42.2099 131.5 -36.6465 137.101C-16.0938 157.63 9.68946 172.138 37.9048 179.05C66.1201 185.962 95.6896 185.014 123.404 176.309C151.119 167.603 175.919 151.473 195.115 129.669C214.31 107.865 227.167 81.2198 232.289 52.6254C233.64 44.9327 236.619 37.6173 241.025 31.1685C245.431 24.7197 251.164 19.2862 257.839 15.2314C300.788 -10.6809 344.096 -41.0391 338.834 -57.8246C333.571 -74.6101 280.67 -74.8452 230.655 -71.5779C222.861 -71.0945 215.052 -72.2821 207.754 -75.0614C200.456 -77.8406 193.835 -82.1472 188.336 -87.6929C167.805 -108.244 142.038 -122.78 113.83 -129.722C85.6217 -136.663 56.0511 -135.747 28.3274 -127.071C0.603638 -118.395 -24.2142 -102.291 -43.4326 -80.5069C-62.6509 -58.7231 -75.5357 -32.0916 -80.6884 -3.50257C-82.0663 4.26169 -85.1014 11.6377 -89.5871 18.1232C-94.0727 24.6086 -99.9036 30.0511 -106.682 34.0798C-151.496 60.5851 -200.985 92.9059 -195.699 109.766Z" stroke="url(#paint4_radial_2688_7787)" stroke-width="1.4" stroke-miterlimit="10"/>
<path d="M-204.572 112.548C-199.119 129.941 -138.108 128.168 -84.4725 124.178C-76.3356 123.603 -68.1704 124.789 -60.5329 127.654C-52.8954 130.519 -45.9649 134.996 -40.2134 140.78C-18.9758 161.994 7.66667 176.986 36.8224 184.128C65.9781 191.271 96.5332 190.291 125.171 181.295C153.809 172.299 179.437 155.631 199.271 133.1C219.106 110.568 232.39 83.0348 237.682 53.4873C239.077 45.5385 242.153 37.9793 246.705 31.3156C251.258 24.652 257.181 19.0375 264.078 14.8481C308.418 -11.8795 353.187 -43.2557 347.739 -60.6337C342.29 -78.0117 287.634 -78.2236 235.956 -74.847C227.903 -74.3483 219.835 -75.5753 212.294 -78.4458C204.753 -81.3164 197.911 -85.7642 192.227 -91.4919C171.014 -112.731 144.388 -127.754 115.239 -134.93C86.0902 -142.105 55.5328 -141.159 26.8839 -132.194C-1.765 -123.228 -27.4108 -106.587 -47.2694 -84.0752C-67.128 -61.5637 -80.4408 -34.0424 -85.7624 -4.49896C-87.1804 3.53303 -90.3128 11.1651 -94.9462 17.8773C-99.5797 24.5896 -105.605 30.2245 -112.613 34.3981C-158.928 61.7366 -210.035 95.1247 -204.572 112.548Z" stroke="url(#paint5_radial_2688_7787)" stroke-width="1.4" stroke-miterlimit="10"/>
<path d="M-213.482 115.342C-207.852 133.297 -144.866 131.466 -89.5083 127.347C-81.1073 126.755 -72.6774 127.98 -64.7926 130.94C-56.9079 133.899 -49.7536 138.523 -43.8171 144.497C-21.8964 166.399 5.60497 181.877 35.7016 189.252C65.7983 196.627 97.3402 195.617 126.903 186.331C156.466 177.046 182.921 159.839 203.395 136.579C223.869 113.32 237.581 84.8963 243.041 54.3942C244.479 46.1791 247.657 38.3663 252.361 31.4798C257.066 24.5933 263.188 18.7923 270.318 14.4656C316.038 -13.1148 362.27 -45.5015 356.654 -63.412C351.039 -81.3225 294.611 -81.5637 241.26 -78.0828C232.95 -77.5666 224.626 -78.8296 216.843 -81.7875C209.06 -84.7454 201.998 -89.33 196.129 -95.2351C174.235 -117.164 146.752 -132.676 116.665 -140.088C86.5772 -147.5 55.0341 -146.529 25.4597 -137.279C-4.11473 -128.03 -30.5904 -110.855 -51.0932 -87.6212C-71.5961 -64.3868 -85.3426 -35.9801 -90.8406 -5.48461C-92.3026 2.80764 -95.5352 10.6872 -100.318 17.6171C-105.101 24.5469 -111.322 30.3642 -118.556 34.6722C-166.366 62.8914 -219.126 97.3412 -213.482 115.342Z" stroke="url(#paint6_radial_2688_7787)" stroke-width="1.4" stroke-miterlimit="10"/>
<path opacity="0.8" d="M-37.3885 60.0901C-17.8716 122.34 48.4133 156.981 110.663 137.464C172.912 117.947 207.554 51.6624 188.037 -10.5871C168.52 -72.8367 102.235 -107.478 39.9856 -87.9613C-22.264 -68.4443 -56.9055 -2.15943 -37.3885 60.0901Z" stroke="url(#paint7_radial_2688_7787)" stroke-width="1.4"/>
<path opacity="0.46" d="M170.273 -13.4618C186.238 37.4586 157.901 91.68 106.981 107.645C56.0602 123.61 1.83884 95.273 -14.1262 44.3525C-30.0912 -6.56794 -1.75414 -60.7893 49.1663 -76.7543C100.087 -92.7193 154.308 -64.3823 170.273 -13.4618Z" stroke="url(#paint8_radial_2688_7787)" stroke-width="1.4"/>
<path opacity="0.46" d="M154.608 -8.55037C167.861 33.7186 144.338 78.7276 102.069 91.9801C59.8004 105.233 14.7914 81.7101 1.53887 39.4412C-11.7136 -2.82776 11.8088 -47.8368 54.0778 -61.0893C96.3467 -74.3418 141.356 -50.8193 154.608 -8.55037Z" stroke="url(#paint9_radial_2688_7787)" stroke-width="2"/>
<defs>
<radialGradient id="paint0_radial_2688_7787" cx="0" cy="0" r="1" gradientUnits="userSpaceOnUse" gradientTransform="translate(224.434 -62.3662) rotate(113.535) scale(683.681 6943.95)">
<stop stop-color="#2A3837"/>
<stop offset="0.421875" stop-color="#3F2B44"/>
<stop offset="1" stop-color="#322837"/>
</radialGradient>
<radialGradient id="paint1_radial_2688_7787" cx="0" cy="0" r="1" gradientUnits="userSpaceOnUse" gradientTransform="translate(218.565 -58.9764) rotate(113.535) scale(657.429 6677.32)">
<stop stop-color="#2A3837"/>
<stop offset="0.421875" stop-color="#3F2B44"/>
<stop offset="1" stop-color="#322837"/>
</radialGradient>
<radialGradient id="paint2_radial_2688_7787" cx="0" cy="0" r="1" gradientUnits="userSpaceOnUse" gradientTransform="translate(215.97 -57.4777) rotate(113.535) scale(645.825 6559.45)">
<stop stop-color="#2A3837"/>
<stop offset="0.421875" stop-color="#3F2B44"/>
<stop offset="1" stop-color="#322837"/>
</radialGradient>
<radialGradient id="paint3_radial_2688_7787" cx="0" cy="0" r="1" gradientUnits="userSpaceOnUse" gradientTransform="translate(229.904 -65.4737) rotate(113.531) scale(708.147 7192.28)">
<stop stop-color="#2A3837"/>
<stop offset="0.421875" stop-color="#3F2B44"/>
<stop offset="1" stop-color="#322837"/>
</radialGradient>
<radialGradient id="paint4_radial_2688_7787" cx="0" cy="0" r="1" gradientUnits="userSpaceOnUse" gradientTransform="translate(235.358 -68.6296) rotate(113.536) scale(732.547 7440.29)">
<stop stop-color="#2A3837"/>
<stop offset="0.421875" stop-color="#3F2B44"/>
<stop offset="1" stop-color="#322837"/>
</radialGradient>
<radialGradient id="paint5_radial_2688_7787" cx="0" cy="0" r="1" gradientUnits="userSpaceOnUse" gradientTransform="translate(240.819 -71.8024) rotate(113.534) scale(756.956 7688.11)">
<stop stop-color="#2A3837"/>
<stop offset="0.421875" stop-color="#3F2B44"/>
<stop offset="1" stop-color="#322837"/>
</radialGradient>
<radialGradient id="paint6_radial_2688_7787" cx="0" cy="0" r="1" gradientUnits="userSpaceOnUse" gradientTransform="translate(246.286 -74.9349) rotate(113.533) scale(781.383 7936.19)">
<stop stop-color="#2A3837"/>
<stop offset="0.421875" stop-color="#3F2B44"/>
<stop offset="1" stop-color="#322837"/>
</radialGradient>
<radialGradient id="paint7_radial_2688_7787" cx="0" cy="0" r="1" gradientUnits="userSpaceOnUse" gradientTransform="translate(140.818 -28.1063) rotate(98.8069) scale(461.022 3748.85)">
<stop stop-color="#2A3837"/>
<stop offset="0.421875" stop-color="#3F2B44"/>
<stop offset="1" stop-color="#322837"/>
</radialGradient>
<radialGradient id="paint8_radial_2688_7787" cx="0" cy="0" r="1" gradientUnits="userSpaceOnUse" gradientTransform="translate(9.31326 10.528) rotate(46.3778) scale(377.613 3070.6)">
<stop stop-color="#2A3837"/>
<stop offset="0.421875" stop-color="#3F2B44"/>
<stop offset="1" stop-color="#322837"/>
</radialGradient>
<radialGradient id="paint9_radial_2688_7787" cx="0" cy="0" r="1" gradientUnits="userSpaceOnUse" gradientTransform="translate(20.6999 11.3423) rotate(46.3778) scale(315.081 2562.11)">
<stop stop-color="#2A3837"/>
<stop offset="0.421875" stop-color="#3F2B44"/>
<stop offset="1" stop-color="#322837"/>
</radialGradient>
</defs>
</svg>
