<svg width="160" height="160" viewBox="0 0 160 160" fill="none" xmlns="http://www.w3.org/2000/svg">
<path d="M50 0H0V50H50V0ZM40 40H10V10H40V40Z" fill="#EAEAEA"/>
<path d="M30 20H20V30H30V20Z" fill="#EAEAEA"/>
<path d="M110 0V50H160V0H110ZM150 40H120V10H150V40Z" fill="#EAEAEA"/>
<path d="M140 20H130V30H140V20Z" fill="#EAEAEA"/>
<path d="M0 160H50V110H0V160ZM10 120H40V150H10V120Z" fill="#EAEAEA"/>
<path d="M30 130H20V140H30V130Z" fill="#EAEAEA"/>
<path d="M100 0H80V10H100V0Z" fill="#EAEAEA"/>
<path d="M80 40H90V30H100V20H70V10H60V30H80V40Z" fill="#EAEAEA"/>
<path d="M70 40H60V50H70V40Z" fill="#EAEAEA"/>
<path d="M100 50H90V60H60V70H100V50Z" fill="#EAEAEA"/>
<path d="M10 90H20V80H10V60H0V100H10V90Z" fill="#EAEAEA"/>
<path d="M30 60H20V70H30V60Z" fill="#EAEAEA"/>
<path d="M60 100H80V90H70V80H50V60H40V80H30V100H40V90H60V100Z" fill="#EAEAEA"/>
<path d="M100 80H90V100H100V80Z" fill="#EAEAEA"/>
<path d="M90 110H60V120H80V150H60V160H90V150H110V140H90V110Z" fill="#EAEAEA"/>
<path d="M70 130H60V140H70V130Z" fill="#EAEAEA"/>
<path d="M110 110H100V130H110V110Z" fill="#EAEAEA"/>
<path d="M150 130H120V160H130V140H150V130Z" fill="#EAEAEA"/>
<path d="M160 150H140V160H160V150Z" fill="#EAEAEA"/>
<path d="M160 110H150V120H160V110Z" fill="#EAEAEA"/>
<path d="M120 120H130V90H110V100H120V120Z" fill="#EAEAEA"/>
<path d="M140 70H130V60H120V70H110V80H150V70H160V60H140V70Z" fill="#EAEAEA"/>
<path d="M160 90H140V100H160V90Z" fill="#EAEAEA"/>
</svg>
