<svg width="22" height="18" viewBox="0 0 22 18" fill="none" xmlns="http://www.w3.org/2000/svg">
<path d="M3.50981 13.738C3.64016 13.5994 3.81939 13.5186 4.00948 13.5186H21.2483C21.5633 13.5186 21.7208 13.9228 21.4981 14.1596L18.0927 17.7804C17.9624 17.919 17.7832 17.9998 17.5931 17.9998H0.354249C0.0392357 17.9998 -0.118271 17.5956 0.104411 17.3588L3.50981 13.738Z" fill="#EFEFEF"/>
<path d="M3.50969 0.219443C3.64547 0.0808474 3.8247 0 4.00936 0H21.2482C21.5632 0 21.7207 0.404237 21.498 0.641004L18.0926 4.26181C17.9623 4.40041 17.783 4.48125 17.5929 4.48125H0.354127C0.0391136 4.48125 -0.118393 4.07702 0.104289 3.84025L3.50969 0.219443Z" fill="#EFEFEF"/>
<path d="M18.0927 6.93575C17.9624 6.79716 17.7832 6.71631 17.5931 6.71631H0.354249C0.0392357 6.71631 -0.118271 7.12055 0.104411 7.35731L3.50981 10.9781C3.64016 11.1167 3.81939 11.1976 4.00948 11.1976H21.2483C21.5633 11.1976 21.7208 10.7933 21.4981 10.5566L18.0927 6.93575Z" fill="#EFEFEF"/>
</svg>
