<svg width="60" height="60" viewBox="0 0 60 60" fill="none" xmlns="http://www.w3.org/2000/svg">
<circle cx="16" cy="16" r="16" fill="url(#paint0_linear_12546_22455)"/>
<path d="M24.6947 14.3956C24.6947 14.0996 24.6387 13.8556 24.5267 13.6636C24.4187 13.4676 24.2527 13.3236 24.0287 13.2316C23.8087 13.1356 23.5307 13.0876 23.1947 13.0876H22.5227V15.8056H23.2967C23.5887 15.8056 23.8387 15.7556 24.0467 15.6556C24.2547 15.5556 24.4147 15.4016 24.5267 15.1936C24.6387 14.9856 24.6947 14.7196 24.6947 14.3956ZM26.7227 14.3896C26.7227 15.0336 26.5847 15.5656 26.3087 15.9856C26.0327 16.4056 25.6467 16.7196 25.1507 16.9276C24.6547 17.1316 24.0787 17.2336 23.4227 17.2336H22.5227V19.9996H20.5547V11.6836H23.1707C24.2987 11.6836 25.1727 11.9076 25.7927 12.3556C26.4127 12.8036 26.7227 13.4816 26.7227 14.3896Z" fill="#161623"/>
<path d="M12.8374 11.6836H14.9554L16.2094 14.3536L17.4934 11.6836H19.5694L17.3614 15.4996L19.7734 19.9996H17.6554L16.1854 16.8256L14.7394 19.9996H12.6514L15.0154 15.5836L12.8374 11.6836Z" fill="#161623"/>
<path d="M12.11 11.6836V17.2156C12.11 17.7836 11.994 18.2936 11.762 18.7456C11.534 19.1936 11.19 19.5496 10.73 19.8136C10.274 20.0736 9.70197 20.2036 9.01397 20.2036C8.32197 20.2036 7.74597 20.0776 7.28597 19.8256C6.82997 19.5736 6.48797 19.2236 6.25997 18.7756C6.03197 18.3276 5.91797 17.8076 5.91797 17.2156V11.6836H7.89197V16.4836C7.89197 17.2316 7.95997 17.7956 8.09597 18.1756C8.23197 18.5516 8.53797 18.7396 9.01397 18.7396C9.48997 18.7396 9.79597 18.5516 9.93197 18.1756C10.068 17.7956 10.136 17.2316 10.136 16.4836V11.6836H12.11Z" fill="#161623"/>
<g filter="url(#filter0_d_12546_22455)">
<path d="M32 48C40.8366 48 48 40.8366 48 32C48 23.1634 40.8366 16 32 16C23.1634 16 16 23.1634 16 32C16 40.8366 23.1634 48 32 48Z" fill="#3E73C4"/>
<path d="M36.0225 34.1243C36.0225 32.0003 34.7425 31.2723 32.1825 30.9683C30.3545 30.7253 29.9895 30.2403 29.9895 29.3903C29.9895 28.5403 30.5995 27.9943 31.8175 27.9943C32.9145 27.9943 33.5245 28.3582 33.8285 29.2692C33.8602 29.3573 33.9181 29.4336 33.9945 29.4878C34.0708 29.542 34.1619 29.5714 34.2555 29.5722H35.2305C35.2869 29.5738 35.3429 29.5638 35.3952 29.543C35.4476 29.5222 35.4952 29.491 35.5351 29.4512C35.575 29.4115 35.6065 29.3641 35.6275 29.3118C35.6486 29.2596 35.6588 29.2036 35.6575 29.1473V29.0872C35.5384 28.4281 35.2049 27.8269 34.7089 27.3768C34.2129 26.9267 33.5821 26.653 32.9145 26.5982V25.1423C32.9145 24.8993 32.7315 24.7173 32.4275 24.6562H31.5125C31.2695 24.6562 31.0865 24.8383 31.0255 25.1423V26.5382C29.1965 26.7803 28.0395 27.9942 28.0395 29.5122C28.0395 31.5142 29.2575 32.3033 31.8175 32.6073C33.5245 32.9103 34.0725 33.2753 34.0725 34.2463C34.0725 35.2163 33.2195 35.8843 32.0615 35.8843C30.4765 35.8843 29.9285 35.2172 29.7455 34.3062C29.6855 34.0642 29.5015 33.9422 29.3185 33.9422H28.2825C28.2263 33.9409 28.1704 33.9509 28.1182 33.9718C28.0659 33.9927 28.0185 34.0239 27.9786 34.0636C27.9388 34.1034 27.9075 34.1507 27.8865 34.2029C27.8655 34.2551 27.8553 34.311 27.8565 34.3673V34.4272C28.0995 35.9452 29.0755 37.0372 31.0865 37.3412V38.7983C31.0865 39.0402 31.2695 39.2233 31.5735 39.2833H32.4885C32.7315 39.2833 32.9145 39.1013 32.9755 38.7983V37.3403C34.8045 37.0372 36.0225 35.7622 36.0225 34.1232V34.1243Z" fill="white"/>
<path d="M28.8923 40.497C24.1383 38.797 21.7003 33.517 23.4683 28.844C24.3823 26.294 26.3933 24.353 28.8923 23.442C29.1363 23.321 29.2573 23.139 29.2573 22.835V21.985C29.2573 21.743 29.1363 21.561 28.8923 21.5C28.8313 21.5 28.7093 21.5 28.6483 21.56C27.2767 21.9883 26.0034 22.6837 24.9017 23.6062C23.8 24.5286 22.8916 25.6599 22.2289 26.9348C21.5662 28.2098 21.1623 29.6032 21.0403 31.0349C20.9183 32.4666 21.0808 33.9083 21.5183 35.277C22.6143 38.677 25.2353 41.287 28.6483 42.379C28.8923 42.5 29.1363 42.379 29.1963 42.136C29.2573 42.076 29.2573 42.014 29.2573 41.893V41.043C29.2573 40.861 29.0753 40.619 28.8923 40.497ZM35.3523 21.561C35.1083 21.439 34.8643 21.561 34.8043 21.803C34.7433 21.864 34.7433 21.925 34.7433 22.046V22.896C34.7433 23.139 34.9253 23.381 35.1083 23.503C39.8623 25.203 42.3003 30.483 40.5323 35.156C39.6183 37.706 37.6073 39.647 35.1083 40.558C34.8643 40.679 34.7433 40.861 34.7433 41.165V42.015C34.7433 42.257 34.8643 42.439 35.1083 42.5C35.1693 42.5 35.2913 42.5 35.3523 42.44C36.7239 42.0117 37.9972 41.3163 39.0989 40.3938C40.2006 39.4714 41.1089 38.3401 41.7716 37.0652C42.4343 35.7902 42.8383 34.3968 42.9603 32.9651C43.0822 31.5334 42.9198 30.0917 42.4823 28.723C41.3863 25.263 38.7043 22.653 35.3523 21.561Z" fill="white"/>
</g>
<defs>
<filter id="filter0_d_12546_22455" x="4" y="4" width="56" height="56" filterUnits="userSpaceOnUse" color-interpolation-filters="sRGB">
<feFlood flood-opacity="0" result="BackgroundImageFix"/>
<feColorMatrix in="SourceAlpha" type="matrix" values="0 0 0 0 0 0 0 0 0 0 0 0 0 0 0 0 0 0 127 0" result="hardAlpha"/>
<feOffset/>
<feGaussianBlur stdDeviation="6"/>
<feComposite in2="hardAlpha" operator="out"/>
<feColorMatrix type="matrix" values="0 0 0 0 0 0 0 0 0 0 0 0 0 0 0 0 0 0 0.55 0"/>
<feBlend mode="normal" in2="BackgroundImageFix" result="effect1_dropShadow_12546_22455"/>
<feBlend mode="normal" in="SourceGraphic" in2="effect1_dropShadow_12546_22455" result="shape"/>
</filter>
<linearGradient id="paint0_linear_12546_22455" x1="-1.9021" y1="16" x2="36.1045" y2="16.896" gradientUnits="userSpaceOnUse">
<stop stop-color="#4BF2A2"/>
<stop offset="0.522948" stop-color="#A89FE7"/>
<stop offset="0.669499" stop-color="#E1C4F4"/>
<stop offset="1" stop-color="#DD40CD"/>
<stop offset="1" stop-color="#DD40CD"/>
</linearGradient>
</defs>
</svg>
