<svg width="13" height="19" viewBox="0 0 13 19" fill="none" xmlns="http://www.w3.org/2000/svg">
<path d="M5.87887 0.616218L0.257242 5.97015C-0.0857474 6.2968 -0.0857474 6.82658 0.257242 7.15323C0.600302 7.47996 1.15642 7.47996 1.49948 7.15323L5.62161 3.2274L5.62161 12.1937C5.62161 12.6557 6.01491 13.0303 6.49999 13.0303C6.985 13.0303 7.37837 12.6557 7.37837 12.1937L7.37837 3.2274L11.5005 7.1531C11.8436 7.47982 12.3997 7.47982 12.7427 7.1531C12.9141 6.98981 13 6.77565 13 6.56156C13 6.34747 12.9141 6.13338 12.7427 5.97001L7.12111 0.616218C6.77805 0.289495 6.22193 0.289495 5.87887 0.616218Z" fill="#4CE6A1"/>
<rect x="13" y="18.7041" width="13" height="1.78082" rx="0.890411" transform="rotate(-180 13 18.7041)" fill="#4CE6A1"/>
</svg>
