<svg width="336" height="242" viewBox="0 0 336 242" fill="none" xmlns="http://www.w3.org/2000/svg">
<rect x="0.5" y="0.5" width="335" height="241" rx="12.5" fill="#1E1E29" stroke="#13131E"/>
<path d="M121.978 149.12C121.45 149.12 120.99 149.02 120.598 148.82C120.214 148.62 119.914 148.332 119.698 147.956C119.49 147.572 119.386 147.12 119.386 146.6V142.64C119.386 142.112 119.49 141.66 119.698 141.284C119.914 140.908 120.214 140.62 120.598 140.42C120.99 140.22 121.45 140.12 121.978 140.12C122.506 140.12 122.962 140.224 123.346 140.432C123.73 140.632 124.026 140.92 124.234 141.296C124.442 141.672 124.546 142.12 124.546 142.64H123.466C123.466 142.144 123.334 141.764 123.07 141.5C122.814 141.228 122.45 141.092 121.978 141.092C121.506 141.092 121.134 141.224 120.862 141.488C120.598 141.752 120.466 142.132 120.466 142.628V146.6C120.466 147.096 120.598 147.48 120.862 147.752C121.134 148.016 121.506 148.148 121.978 148.148C122.45 148.148 122.814 148.016 123.07 147.752C123.334 147.48 123.466 147.096 123.466 146.6H124.546C124.546 147.112 124.442 147.56 124.234 147.944C124.026 148.32 123.73 148.612 123.346 148.82C122.962 149.02 122.506 149.12 121.978 149.12ZM128.549 149.12C127.853 149.12 127.305 148.944 126.905 148.592C126.505 148.232 126.305 147.748 126.305 147.14C126.305 146.524 126.505 146.04 126.905 145.688C127.305 145.336 127.845 145.16 128.525 145.16H130.565V144.5C130.565 144.092 130.441 143.78 130.193 143.564C129.953 143.34 129.609 143.228 129.161 143.228C128.769 143.228 128.441 143.312 128.177 143.48C127.913 143.64 127.761 143.86 127.721 144.14H126.641C126.713 143.572 126.981 143.12 127.445 142.784C127.909 142.448 128.489 142.28 129.185 142.28C129.945 142.28 130.545 142.476 130.985 142.868C131.425 143.26 131.645 143.792 131.645 144.464V149H130.589V147.74H130.409L130.589 147.56C130.589 148.04 130.401 148.42 130.025 148.7C129.657 148.98 129.165 149.12 128.549 149.12ZM128.813 148.268C129.325 148.268 129.745 148.14 130.073 147.884C130.401 147.628 130.565 147.3 130.565 146.9V145.964H128.549C128.189 145.964 127.905 146.064 127.697 146.264C127.489 146.464 127.385 146.736 127.385 147.08C127.385 147.448 127.509 147.74 127.757 147.956C128.013 148.164 128.365 148.268 128.813 148.268ZM133.825 149V140.24H134.905V142.4V143.66H135.133L134.905 143.912C134.905 143.392 135.061 142.992 135.373 142.712C135.685 142.424 136.117 142.28 136.669 142.28C137.333 142.28 137.861 142.484 138.253 142.892C138.645 143.3 138.841 143.856 138.841 144.56V149H137.761V144.68C137.761 144.208 137.633 143.844 137.377 143.588C137.129 143.324 136.789 143.192 136.357 143.192C135.909 143.192 135.553 143.332 135.289 143.612C135.033 143.892 134.905 144.288 134.905 144.8V149H133.825ZM140.936 149V148.016H143.276V143.384H141.236V142.4H144.356V148.016H146.576V149H140.936ZM143.696 141.212C143.432 141.212 143.224 141.144 143.072 141.008C142.92 140.872 142.844 140.688 142.844 140.456C142.844 140.216 142.92 140.028 143.072 139.892C143.224 139.748 143.432 139.676 143.696 139.676C143.96 139.676 144.168 139.748 144.32 139.892C144.472 140.028 144.548 140.216 144.548 140.456C144.548 140.688 144.472 140.872 144.32 141.008C144.168 141.144 143.96 141.212 143.696 141.212ZM148.215 149V142.4H149.295V143.66H149.523L149.295 143.912C149.295 143.392 149.451 142.992 149.763 142.712C150.075 142.424 150.507 142.28 151.059 142.28C151.723 142.28 152.251 142.484 152.643 142.892C153.035 143.3 153.231 143.856 153.231 144.56V149H152.151V144.68C152.151 144.208 152.023 143.848 151.767 143.6C151.519 143.344 151.179 143.216 150.747 143.216C150.299 143.216 149.943 143.352 149.679 143.624C149.423 143.896 149.295 144.288 149.295 144.8V149H148.215ZM162.762 149V148.016H164.55V141.224H162.762V140.24H167.442V141.224H165.654V148.016H167.442V149H162.762ZM169.801 149V140.24H172.069C172.637 140.24 173.125 140.348 173.533 140.564C173.949 140.78 174.269 141.084 174.493 141.476C174.725 141.868 174.841 142.332 174.841 142.868V146.36C174.841 146.896 174.725 147.364 174.493 147.764C174.269 148.156 173.949 148.46 173.533 148.676C173.125 148.892 172.637 149 172.069 149H169.801ZM170.881 148.04H172.069C172.597 148.04 173.009 147.892 173.305 147.596C173.609 147.3 173.761 146.888 173.761 146.36V142.868C173.761 142.348 173.609 141.94 173.305 141.644C173.009 141.348 172.597 141.2 172.069 141.2H170.881V148.04Z" fill="#67677B"/>
<path d="M198.411 150V147.44H193.141V145.184L197.756 138.32H199.321L194.578 145.488V146.128H198.411V143.28H199.848V150H198.411Z" fill="white"/>
<path d="M206.23 150.16C205.517 150.16 204.894 150.021 204.361 149.744C203.84 149.456 203.435 149.056 203.148 148.544C202.86 148.021 202.716 147.413 202.716 146.72V141.6C202.716 140.896 202.86 140.288 203.148 139.776C203.435 139.264 203.84 138.869 204.361 138.592C204.894 138.304 205.517 138.16 206.23 138.16C206.954 138.16 207.577 138.304 208.098 138.592C208.62 138.869 209.025 139.264 209.312 139.776C209.6 140.288 209.743 140.896 209.743 141.6V146.72C209.743 147.413 209.6 148.021 209.312 148.544C209.025 149.056 208.615 149.456 208.083 149.744C207.561 150.021 206.943 150.16 206.23 150.16ZM206.23 148.928C206.869 148.928 207.38 148.725 207.763 148.32C208.157 147.904 208.354 147.371 208.354 146.72V141.6C208.354 140.949 208.157 140.421 207.763 140.016C207.38 139.6 206.869 139.392 206.23 139.392C205.591 139.392 205.075 139.6 204.681 140.016C204.298 140.421 204.106 140.949 204.106 141.6V146.72C204.106 147.371 204.298 147.904 204.681 148.32C205.075 148.725 205.591 148.928 206.23 148.928ZM206.23 145.104C205.942 145.104 205.708 145.013 205.527 144.832C205.357 144.651 205.272 144.411 205.272 144.112C205.272 143.824 205.357 143.595 205.527 143.424C205.708 143.243 205.942 143.152 206.23 143.152C206.517 143.152 206.746 143.243 206.917 143.424C207.098 143.595 207.188 143.824 207.188 144.112C207.188 144.411 207.098 144.651 206.917 144.832C206.746 145.013 206.517 145.104 206.23 145.104Z" fill="white"/>
<path d="M217.563 150V147.44H212.292V145.184L216.908 138.32H218.473L213.73 145.488V146.128H217.563V143.28H219V150H217.563Z" fill="white"/>
<path d="M92.765 189.12C92.237 189.12 91.777 189.02 91.385 188.82C91.001 188.62 90.701 188.332 90.485 187.956C90.277 187.572 90.173 187.12 90.173 186.6V182.64C90.173 182.112 90.277 181.66 90.485 181.284C90.701 180.908 91.001 180.62 91.385 180.42C91.777 180.22 92.237 180.12 92.765 180.12C93.293 180.12 93.749 180.224 94.133 180.432C94.517 180.632 94.813 180.92 95.021 181.296C95.229 181.672 95.333 182.12 95.333 182.64H94.253C94.253 182.144 94.121 181.764 93.857 181.5C93.601 181.228 93.237 181.092 92.765 181.092C92.293 181.092 91.921 181.224 91.649 181.488C91.385 181.752 91.253 182.132 91.253 182.628V186.6C91.253 187.096 91.385 187.48 91.649 187.752C91.921 188.016 92.293 188.148 92.765 188.148C93.237 188.148 93.601 188.016 93.857 187.752C94.121 187.48 94.253 187.096 94.253 186.6H95.333C95.333 187.112 95.229 187.56 95.021 187.944C94.813 188.32 94.517 188.612 94.133 188.82C93.749 189.02 93.293 189.12 92.765 189.12ZM99.9003 189.12C99.1403 189.12 98.5323 188.896 98.0763 188.448C97.6203 187.992 97.3923 187.376 97.3923 186.6V182.4H98.4723V186.6C98.4723 187.096 98.6003 187.484 98.8563 187.764C99.1123 188.036 99.4603 188.172 99.9003 188.172C100.348 188.172 100.7 188.036 100.956 187.764C101.22 187.484 101.352 187.096 101.352 186.6V182.4H102.432V186.6C102.432 187.376 102.2 187.992 101.736 188.448C101.272 188.896 100.66 189.12 99.9003 189.12ZM104.84 189V182.4H105.896V183.66H106.148L105.8 184.44C105.8 183.728 105.952 183.192 106.256 182.832C106.568 182.464 107.028 182.28 107.636 182.28C108.332 182.28 108.884 182.5 109.292 182.94C109.708 183.372 109.916 183.96 109.916 184.704V185.1H108.836V184.8C108.836 184.28 108.708 183.884 108.452 183.612C108.204 183.332 107.848 183.192 107.384 183.192C106.928 183.192 106.568 183.332 106.304 183.612C106.048 183.892 105.92 184.288 105.92 184.8V189H104.84ZM112.035 189V182.4H113.091V183.66H113.343L112.995 184.44C112.995 183.728 113.147 183.192 113.451 182.832C113.763 182.464 114.223 182.28 114.831 182.28C115.527 182.28 116.079 182.5 116.487 182.94C116.903 183.372 117.111 183.96 117.111 184.704V185.1H116.031V184.8C116.031 184.28 115.903 183.884 115.647 183.612C115.399 183.332 115.043 183.192 114.579 183.192C114.123 183.192 113.763 183.332 113.499 183.612C113.243 183.892 113.115 184.288 113.115 184.8V189H112.035ZM121.498 189.12C120.978 189.12 120.522 189.016 120.13 188.808C119.746 188.6 119.446 188.308 119.23 187.932C119.022 187.548 118.918 187.104 118.918 186.6V184.8C118.918 184.288 119.022 183.844 119.23 183.468C119.446 183.092 119.746 182.8 120.13 182.592C120.522 182.384 120.978 182.28 121.498 182.28C122.018 182.28 122.47 182.384 122.854 182.592C123.246 182.8 123.546 183.092 123.754 183.468C123.97 183.844 124.078 184.288 124.078 184.8V185.964H119.974V186.6C119.974 187.12 120.106 187.52 120.37 187.8C120.634 188.072 121.01 188.208 121.498 188.208C121.914 188.208 122.25 188.136 122.506 187.992C122.762 187.84 122.918 187.616 122.974 187.32H124.054C123.982 187.872 123.71 188.312 123.238 188.64C122.774 188.96 122.194 189.12 121.498 189.12ZM123.022 185.244V184.8C123.022 184.28 122.89 183.88 122.626 183.6C122.37 183.32 121.994 183.18 121.498 183.18C121.01 183.18 120.634 183.32 120.37 183.6C120.106 183.88 119.974 184.28 119.974 184.8V185.148H123.106L123.022 185.244ZM126.198 189V182.4H127.278V183.66H127.506L127.278 183.912C127.278 183.392 127.434 182.992 127.746 182.712C128.058 182.424 128.49 182.28 129.042 182.28C129.706 182.28 130.234 182.484 130.626 182.892C131.018 183.3 131.214 183.856 131.214 184.56V189H130.134V184.68C130.134 184.208 130.006 183.848 129.75 183.6C129.502 183.344 129.162 183.216 128.73 183.216C128.282 183.216 127.926 183.352 127.662 183.624C127.406 183.896 127.278 184.288 127.278 184.8V189H126.198ZM135.937 189.12C135.409 189.12 134.945 189.02 134.545 188.82C134.153 188.62 133.849 188.332 133.633 187.956C133.417 187.572 133.309 187.12 133.309 186.6V184.8C133.309 184.272 133.417 183.82 133.633 183.444C133.849 183.068 134.153 182.78 134.545 182.58C134.945 182.38 135.409 182.28 135.937 182.28C136.697 182.28 137.309 182.484 137.773 182.892C138.237 183.3 138.481 183.856 138.505 184.56H137.425C137.401 184.136 137.257 183.812 136.993 183.588C136.737 183.356 136.385 183.24 135.937 183.24C135.465 183.24 135.089 183.376 134.809 183.648C134.529 183.912 134.389 184.292 134.389 184.788V186.6C134.389 187.096 134.529 187.48 134.809 187.752C135.089 188.024 135.465 188.16 135.937 188.16C136.385 188.16 136.737 188.044 136.993 187.812C137.257 187.58 137.401 187.256 137.425 186.84H138.505C138.481 187.544 138.237 188.1 137.773 188.508C137.309 188.916 136.697 189.12 135.937 189.12ZM141.62 191.16L142.592 188.592L140.144 182.4H141.344L142.88 186.48C142.936 186.616 142.988 186.78 143.036 186.972C143.084 187.156 143.124 187.312 143.156 187.44C143.188 187.312 143.228 187.156 143.276 186.972C143.324 186.78 143.372 186.616 143.42 186.48L144.86 182.4H146.024L142.772 191.16H141.62Z" fill="#67677B"/>
<path d="M164.023 190V178.32H165.932L169.481 188.32C169.46 188.053 169.433 187.728 169.401 187.344C169.38 186.949 169.359 186.539 169.338 186.112C169.327 185.675 169.322 185.264 169.322 184.88V178.32H170.706V190H168.797L165.264 180C165.285 180.256 165.307 180.581 165.328 180.976C165.349 181.36 165.365 181.771 165.376 182.208C165.397 182.635 165.407 183.045 165.407 183.44V190H164.023Z" fill="white"/>
<path d="M176.905 190.128C176.205 190.128 175.6 189.995 175.091 189.728C174.582 189.461 174.184 189.077 173.898 188.576C173.622 188.064 173.484 187.461 173.484 186.768V184.432C173.484 183.728 173.622 183.125 173.898 182.624C174.184 182.123 174.582 181.739 175.091 181.472C175.6 181.205 176.205 181.072 176.905 181.072C177.605 181.072 178.21 181.205 178.719 181.472C179.228 181.739 179.621 182.123 179.897 182.624C180.183 183.125 180.326 183.723 180.326 184.416V186.768C180.326 187.461 180.183 188.064 179.897 188.576C179.621 189.077 179.228 189.461 178.719 189.728C178.21 189.995 177.605 190.128 176.905 190.128ZM176.905 188.848C177.531 188.848 178.019 188.672 178.369 188.32C178.719 187.968 178.894 187.451 178.894 186.768V184.432C178.894 183.749 178.719 183.232 178.369 182.88C178.019 182.528 177.531 182.352 176.905 182.352C176.29 182.352 175.802 182.528 175.441 182.88C175.091 183.232 174.916 183.749 174.916 184.432V186.768C174.916 187.451 175.091 187.968 175.441 188.32C175.802 188.672 176.29 188.848 176.905 188.848Z" fill="white"/>
<path d="M187.401 190C186.648 190 186.059 189.797 185.634 189.392C185.221 188.987 185.014 188.416 185.014 187.68V182.512H182.548V181.2H185.014V178.72H186.446V181.2H189.947V182.512H186.446V187.68C186.446 188.352 186.764 188.688 187.401 188.688H189.787V190H187.401Z" fill="white"/>
<path d="M202.266 190V178.304H209.108V179.616H203.666V183.504H208.694V184.816H203.698V190H202.266Z" fill="white"/>
<path d="M215.068 190.128C214.368 190.128 213.763 189.995 213.254 189.728C212.745 189.461 212.347 189.077 212.061 188.576C211.785 188.064 211.647 187.461 211.647 186.768V184.432C211.647 183.728 211.785 183.125 212.061 182.624C212.347 182.123 212.745 181.739 213.254 181.472C213.763 181.205 214.368 181.072 215.068 181.072C215.768 181.072 216.373 181.205 216.882 181.472C217.391 181.739 217.784 182.123 218.06 182.624C218.346 183.125 218.489 183.723 218.489 184.416V186.768C218.489 187.461 218.346 188.064 218.06 188.576C217.784 189.077 217.391 189.461 216.882 189.728C216.373 189.995 215.768 190.128 215.068 190.128ZM215.068 188.848C215.694 188.848 216.182 188.672 216.532 188.32C216.882 187.968 217.057 187.451 217.057 186.768V184.432C217.057 183.749 216.882 183.232 216.532 182.88C216.182 182.528 215.694 182.352 215.068 182.352C214.453 182.352 213.965 182.528 213.604 182.88C213.254 183.232 213.079 183.749 213.079 184.432V186.768C213.079 187.451 213.254 187.968 213.604 188.32C213.965 188.672 214.453 188.848 215.068 188.848Z" fill="white"/>
<path d="M224.593 190.16C223.585 190.16 222.779 189.861 222.174 189.264C221.57 188.656 221.267 187.835 221.267 186.8V181.2H222.7V186.8C222.7 187.461 222.869 187.979 223.209 188.352C223.548 188.715 224.01 188.896 224.593 188.896C225.187 188.896 225.654 188.715 225.993 188.352C226.343 187.979 226.518 187.461 226.518 186.8V181.2H227.95V186.8C227.95 187.835 227.643 188.656 227.027 189.264C226.412 189.861 225.601 190.16 224.593 190.16Z" fill="white"/>
<path d="M230.84 190V181.2H232.272V182.88H232.574L232.272 183.216C232.272 182.523 232.479 181.989 232.893 181.616C233.306 181.232 233.879 181.04 234.611 181.04C235.492 181.04 236.192 181.312 236.711 181.856C237.231 182.4 237.491 183.141 237.491 184.08V190H236.059V184.24C236.059 183.611 235.889 183.131 235.55 182.8C235.221 182.459 234.77 182.288 234.197 182.288C233.603 182.288 233.131 182.469 232.781 182.832C232.442 183.195 232.272 183.717 232.272 184.4V190H230.84Z" fill="white"/>
<path d="M243.181 190.16C242.311 190.16 241.606 189.867 241.065 189.28C240.535 188.693 240.269 187.899 240.269 186.896V184.32C240.269 183.307 240.535 182.507 241.065 181.92C241.595 181.333 242.301 181.04 243.181 181.04C243.903 181.04 244.481 181.237 244.916 181.632C245.35 182.027 245.568 182.555 245.568 183.216L245.282 182.88H245.6L245.568 180.88V178.32H247V190H245.568V188.32H245.282L245.568 187.984C245.568 188.656 245.35 189.189 244.916 189.584C244.481 189.968 243.903 190.16 243.181 190.16ZM243.659 188.912C244.253 188.912 244.719 188.725 245.059 188.352C245.398 187.979 245.568 187.461 245.568 186.8V184.4C245.568 183.739 245.398 183.221 245.059 182.848C244.719 182.475 244.253 182.288 243.659 182.288C243.054 182.288 242.577 182.469 242.227 182.832C241.876 183.195 241.701 183.717 241.701 184.4V186.8C241.701 187.483 241.876 188.005 242.227 188.368C242.577 188.731 243.054 188.912 243.659 188.912Z" fill="white"/>
<circle cx="168" cy="47" r="30" fill="#13131E"/>
<path d="M102.899 112.78H101.388L95.1611 103.491H95.0988C95.1819 104.581 95.2235 105.58 95.2235 106.489V112.78H94V101.712H95.4962L101.707 110.963H101.769C101.759 110.827 101.736 110.391 101.699 109.654C101.663 108.912 101.65 108.382 101.66 108.064V101.712H102.899V112.78Z" fill="white"/>
<path d="M109.445 112.932C108.183 112.932 107.185 112.558 106.453 111.811C105.725 111.064 105.362 110.027 105.362 108.7C105.362 107.362 105.7 106.3 106.375 105.512C107.055 104.725 107.967 104.331 109.11 104.331C110.18 104.331 111.027 104.674 111.651 105.361C112.274 106.042 112.586 106.943 112.586 108.064V108.859H106.702C106.728 109.833 106.98 110.572 107.458 111.077C107.941 111.582 108.619 111.834 109.492 111.834C110.412 111.834 111.321 111.647 112.219 111.274V112.394C111.762 112.586 111.328 112.722 110.918 112.803C110.513 112.889 110.022 112.932 109.445 112.932ZM109.095 105.384C108.409 105.384 107.861 105.601 107.45 106.035C107.045 106.469 106.806 107.069 106.733 107.837H111.199C111.199 107.044 111.017 106.438 110.653 106.02C110.289 105.596 109.77 105.384 109.095 105.384Z" fill="white"/>
<path d="M117.557 111.895C117.786 111.895 118.007 111.879 118.22 111.849C118.433 111.814 118.602 111.779 118.726 111.743V112.705C118.586 112.77 118.378 112.823 118.103 112.864C117.833 112.909 117.589 112.932 117.37 112.932C115.718 112.932 114.892 112.086 114.892 110.396V105.459H113.669V104.854L114.892 104.331L115.438 102.56H116.186V104.483H118.664V105.459H116.186V110.343C116.186 110.842 116.308 111.226 116.552 111.493C116.796 111.761 117.131 111.895 117.557 111.895Z" fill="white"/>
<path d="M127.415 112.78L125.849 107.912C125.75 107.615 125.566 106.938 125.296 105.883H125.233C125.026 106.767 124.844 107.448 124.688 107.927L123.075 112.78H121.579L119.249 104.483H120.604C121.155 106.567 121.573 108.155 121.859 109.245C122.15 110.335 122.316 111.069 122.358 111.448H122.42C122.477 111.16 122.568 110.789 122.693 110.335C122.823 109.876 122.934 109.512 123.028 109.245L124.594 104.483H125.997L127.524 109.245C127.815 110.113 128.013 110.842 128.117 111.433H128.179C128.2 111.251 128.254 110.971 128.343 110.592C128.436 110.214 128.979 108.177 129.971 104.483H131.312L128.951 112.78H127.415Z" fill="white"/>
<path d="M140.234 108.624C140.234 109.977 139.884 111.034 139.182 111.796C138.481 112.553 137.512 112.932 136.276 112.932C135.512 112.932 134.834 112.758 134.242 112.409C133.65 112.061 133.192 111.562 132.87 110.91C132.548 110.259 132.387 109.497 132.387 108.624C132.387 107.271 132.735 106.219 133.431 105.467C134.127 104.71 135.094 104.331 136.33 104.331C137.525 104.331 138.473 104.717 139.175 105.49C139.881 106.262 140.234 107.307 140.234 108.624ZM133.727 108.624C133.727 109.684 133.946 110.491 134.382 111.047C134.818 111.602 135.46 111.879 136.307 111.879C137.154 111.879 137.795 111.604 138.232 111.054C138.673 110.499 138.894 109.689 138.894 108.624C138.894 107.569 138.673 106.769 138.232 106.224C137.795 105.674 137.148 105.399 136.291 105.399C135.444 105.399 134.805 105.669 134.374 106.209C133.943 106.749 133.727 107.554 133.727 108.624Z" fill="white"/>
<path d="M146.406 104.331C146.786 104.331 147.126 104.362 147.427 104.422L147.248 105.588C146.895 105.512 146.583 105.474 146.313 105.474C145.622 105.474 145.03 105.747 144.536 106.292C144.048 106.837 143.803 107.516 143.803 108.329V112.78H142.51V104.483H143.578L143.726 106.02H143.788C144.105 105.479 144.487 105.063 144.933 104.77C145.38 104.478 145.871 104.331 146.406 104.331Z" fill="white"/>
<path d="M150.303 108.533C150.526 108.225 150.866 107.821 151.324 107.322L154.082 104.483H155.617L152.157 108.018L155.859 112.78H154.293L151.277 108.859L150.303 109.676V112.78H149.025V101H150.303V107.246C150.303 107.524 150.282 107.953 150.24 108.533H150.303Z" fill="white"/>
<path d="M170.65 112.78H169.138L162.911 103.491H162.849C162.932 104.581 162.974 105.58 162.974 106.489V112.78H161.75V101.712H163.246L169.457 110.963H169.52C169.509 110.827 169.486 110.391 169.449 109.654C169.413 108.912 169.4 108.382 169.41 108.064V101.712H170.65V112.78Z" fill="white"/>
<path d="M180.959 108.624C180.959 109.977 180.609 111.034 179.907 111.796C179.206 112.553 178.237 112.932 177.001 112.932C176.237 112.932 175.559 112.758 174.967 112.409C174.374 112.061 173.917 111.562 173.595 110.91C173.273 110.259 173.112 109.497 173.112 108.624C173.112 107.271 173.46 106.219 174.156 105.467C174.852 104.71 175.819 104.331 177.055 104.331C178.25 104.331 179.198 104.717 179.9 105.49C180.606 106.262 180.959 107.307 180.959 108.624ZM174.452 108.624C174.452 109.684 174.671 110.491 175.107 111.047C175.543 111.602 176.185 111.879 177.032 111.879C177.879 111.879 178.52 111.604 178.957 111.054C179.398 110.499 179.619 109.689 179.619 108.624C179.619 107.569 179.398 106.769 178.957 106.224C178.52 105.674 177.873 105.399 177.016 105.399C176.169 105.399 175.53 105.669 175.099 106.209C174.668 106.749 174.452 107.554 174.452 108.624Z" fill="white"/>
<path d="M185.993 111.895C186.222 111.895 186.443 111.879 186.656 111.849C186.869 111.814 187.038 111.779 187.162 111.743V112.705C187.022 112.77 186.814 112.823 186.539 112.864C186.269 112.909 186.025 112.932 185.806 112.932C184.154 112.932 183.328 112.086 183.328 110.396V105.459H182.105V104.854L183.328 104.331L183.874 102.56H184.622V104.483H187.1V105.459H184.622V110.343C184.622 110.842 184.744 111.226 184.988 111.493C185.232 111.761 185.567 111.895 185.993 111.895Z" fill="white"/>
<path d="M194.542 112.78H193.217V101.712H199.568V102.855H194.542V106.905H199.265V108.049H194.542V112.78Z" fill="white"/>
<path d="M208.639 108.624C208.639 109.977 208.289 111.034 207.587 111.796C206.886 112.553 205.917 112.932 204.68 112.932C203.917 112.932 203.239 112.758 202.647 112.409C202.054 112.061 201.597 111.562 201.275 110.91C200.953 110.259 200.792 109.497 200.792 108.624C200.792 107.271 201.14 106.219 201.836 105.467C202.532 104.71 203.499 104.331 204.735 104.331C205.93 104.331 206.878 104.717 207.579 105.49C208.286 106.262 208.639 107.307 208.639 108.624ZM202.132 108.624C202.132 109.684 202.35 110.491 202.787 111.047C203.223 111.602 203.865 111.879 204.712 111.879C205.558 111.879 206.2 111.604 206.636 111.054C207.078 110.499 207.299 109.689 207.299 108.624C207.299 107.569 207.078 106.769 206.636 106.224C206.2 105.674 205.553 105.399 204.696 105.399C203.849 105.399 203.21 105.669 202.779 106.209C202.348 106.749 202.132 107.554 202.132 108.624Z" fill="white"/>
<path d="M212.13 104.483V109.866C212.13 110.542 212.289 111.047 212.606 111.38C212.923 111.713 213.419 111.879 214.094 111.879C214.988 111.879 215.64 111.642 216.05 111.168C216.466 110.693 216.674 109.919 216.674 108.844V104.483H217.967V112.78H216.9L216.713 111.668H216.642C216.377 112.076 216.009 112.389 215.536 112.606C215.068 112.823 214.533 112.932 213.93 112.932C212.891 112.932 212.112 112.692 211.593 112.213C211.078 111.733 210.821 110.966 210.821 109.911V104.483H212.13Z" fill="white"/>
<path d="M226.563 112.78V107.413C226.563 106.736 226.404 106.232 226.087 105.898C225.77 105.565 225.274 105.399 224.599 105.399C223.705 105.399 223.051 105.633 222.635 106.103C222.219 106.572 222.012 107.347 222.012 108.427V112.78H220.718V104.483H221.77L221.98 105.618H222.043C222.308 105.209 222.679 104.894 223.157 104.672C223.635 104.445 224.168 104.331 224.755 104.331C225.783 104.331 226.557 104.574 227.077 105.058C227.596 105.538 227.856 106.307 227.856 107.367V112.78H226.563Z" fill="white"/>
<path d="M236.335 111.668H236.265C235.667 112.51 234.774 112.932 233.584 112.932C232.467 112.932 231.597 112.561 230.973 111.819C230.355 111.077 230.046 110.022 230.046 108.654C230.046 107.286 230.358 106.224 230.981 105.467C231.604 104.71 232.472 104.331 233.584 104.331C234.742 104.331 235.631 104.74 236.249 105.558H236.35L236.296 104.96L236.265 104.377V101H237.558V112.78H236.506L236.335 111.668ZM233.747 111.879C234.631 111.879 235.27 111.647 235.664 111.183C236.065 110.714 236.265 109.959 236.265 108.919V108.654C236.265 107.478 236.062 106.64 235.657 106.141C235.257 105.636 234.615 105.384 233.732 105.384C232.973 105.384 232.392 105.671 231.986 106.247C231.586 106.817 231.386 107.625 231.386 108.669C231.386 109.729 231.586 110.529 231.986 111.069C232.386 111.609 232.973 111.879 233.747 111.879Z" fill="white"/>
<path d="M241.478 109.729H240.66L240.262 101.712H241.875L241.478 109.729ZM240.122 111.978C240.122 111.291 240.434 110.948 241.057 110.948C241.358 110.948 241.59 111.037 241.751 111.213C241.917 111.39 242 111.645 242 111.978C242 112.301 241.917 112.553 241.751 112.735C241.584 112.912 241.353 113 241.057 113C240.787 113 240.564 112.922 240.387 112.765C240.21 112.604 240.122 112.341 240.122 111.978Z" fill="white"/>
</svg>
