<svg width="1262" height="102" viewBox="0 0 1262 102" fill="none" xmlns="http://www.w3.org/2000/svg">
<rect x="0.5" y="0.5" width="1261" height="101" rx="12.5" fill="#1E1E29" stroke="#13131E"/>
<path d="M1 13C1 6.37258 6.37258 1 13 1H55V101H13C6.37258 101 1 95.6274 1 89V13Z" fill="#1B1B26"/>
<circle cx="28" cy="51" r="14" fill="#13131E"/>
<path d="M85.4922 57H83.9766L77.7344 47.4141H77.6719C77.7552 48.5391 77.7969 49.5703 77.7969 50.5078V57H76.5703V45.5781H78.0703L84.2969 55.125H84.3594C84.349 54.9844 84.3255 54.5339 84.2891 53.7734C84.2526 53.0078 84.2396 52.4609 84.25 52.1328V45.5781H85.4922V57Z" fill="white"/>
<path d="M92.0547 57.1562C90.7891 57.1562 89.7891 56.7708 89.0547 56C88.3255 55.2292 87.9609 54.1589 87.9609 52.7891C87.9609 51.4089 88.2995 50.3125 88.9766 49.5C89.6589 48.6875 90.5729 48.2812 91.7188 48.2812C92.7917 48.2812 93.6406 48.6354 94.2656 49.3438C94.8906 50.0469 95.2031 50.9766 95.2031 52.1328V52.9531H89.3047C89.3307 53.9583 89.5833 54.7214 90.0625 55.2422C90.5469 55.763 91.2266 56.0234 92.1016 56.0234C93.0234 56.0234 93.9349 55.8307 94.8359 55.4453V56.6016C94.3776 56.7995 93.9427 56.9401 93.5312 57.0234C93.125 57.112 92.6328 57.1562 92.0547 57.1562ZM91.7031 49.3672C91.0156 49.3672 90.4661 49.5911 90.0547 50.0391C89.6484 50.487 89.4089 51.1068 89.3359 51.8984H93.8125C93.8125 51.0807 93.6302 50.4557 93.2656 50.0234C92.901 49.5859 92.3802 49.3672 91.7031 49.3672Z" fill="white"/>
<path d="M100.188 56.0859C100.417 56.0859 100.638 56.0703 100.852 56.0391C101.065 56.0026 101.234 55.9661 101.359 55.9297V56.9219C101.219 56.9896 101.01 57.0443 100.734 57.0859C100.464 57.1328 100.219 57.1562 100 57.1562C98.3438 57.1562 97.5156 56.2839 97.5156 54.5391V49.4453H96.2891V48.8203L97.5156 48.2812L98.0625 46.4531H98.8125V48.4375H101.297V49.4453H98.8125V54.4844C98.8125 55 98.9349 55.3958 99.1797 55.6719C99.4245 55.9479 99.7604 56.0859 100.188 56.0859Z" fill="white"/>
<path d="M110.07 57L108.5 51.9766C108.401 51.6693 108.216 50.9714 107.945 49.8828H107.883C107.674 50.7943 107.492 51.4974 107.336 51.9922L105.719 57H104.219L101.883 48.4375H103.242C103.794 50.5885 104.214 52.2266 104.5 53.3516C104.792 54.4766 104.958 55.2344 105 55.625H105.062C105.12 55.3281 105.211 54.9453 105.336 54.4766C105.466 54.0026 105.578 53.6276 105.672 53.3516L107.242 48.4375H108.648L110.18 53.3516C110.471 54.2474 110.669 55 110.773 55.6094H110.836C110.857 55.4219 110.911 55.1328 111 54.7422C111.094 54.3516 111.638 52.25 112.633 48.4375H113.977L111.609 57H110.07Z" fill="white"/>
<path d="M122.922 52.7109C122.922 54.1068 122.57 55.1979 121.867 55.9844C121.164 56.7656 120.193 57.1562 118.953 57.1562C118.188 57.1562 117.508 56.9766 116.914 56.6172C116.32 56.2578 115.862 55.7422 115.539 55.0703C115.216 54.3984 115.055 53.612 115.055 52.7109C115.055 51.3151 115.404 50.2292 116.102 49.4531C116.799 48.6719 117.768 48.2812 119.008 48.2812C120.206 48.2812 121.156 48.6797 121.859 49.4766C122.568 50.2734 122.922 51.3516 122.922 52.7109ZM116.398 52.7109C116.398 53.8047 116.617 54.638 117.055 55.2109C117.492 55.7839 118.135 56.0703 118.984 56.0703C119.833 56.0703 120.477 55.7865 120.914 55.2188C121.357 54.6458 121.578 53.8099 121.578 52.7109C121.578 51.6224 121.357 50.7969 120.914 50.2344C120.477 49.6667 119.828 49.3828 118.969 49.3828C118.12 49.3828 117.479 49.6615 117.047 50.2188C116.615 50.776 116.398 51.6068 116.398 52.7109Z" fill="white"/>
<path d="M129.109 48.2812C129.49 48.2812 129.831 48.3125 130.133 48.375L129.953 49.5781C129.599 49.5 129.286 49.4609 129.016 49.4609C128.323 49.4609 127.729 49.7422 127.234 50.3047C126.745 50.8672 126.5 51.5677 126.5 52.4062V57H125.203V48.4375H126.273L126.422 50.0234H126.484C126.802 49.4661 127.185 49.0365 127.633 48.7344C128.081 48.4323 128.573 48.2812 129.109 48.2812Z" fill="white"/>
<path d="M133.016 52.6172C133.24 52.2995 133.581 51.8828 134.039 51.3672L136.805 48.4375H138.344L134.875 52.0859L138.586 57H137.016L133.992 52.9531L133.016 53.7969V57H131.734V44.8438H133.016V51.2891C133.016 51.5755 132.995 52.0182 132.953 52.6172H133.016Z" fill="white"/>
<path d="M153.414 57H151.898L145.656 47.4141H145.594C145.677 48.5391 145.719 49.5703 145.719 50.5078V57H144.492V45.5781H145.992L152.219 55.125H152.281C152.271 54.9844 152.247 54.5339 152.211 53.7734C152.174 53.0078 152.161 52.4609 152.172 52.1328V45.5781H153.414V57Z" fill="white"/>
<path d="M163.75 52.7109C163.75 54.1068 163.398 55.1979 162.695 55.9844C161.992 56.7656 161.021 57.1562 159.781 57.1562C159.016 57.1562 158.336 56.9766 157.742 56.6172C157.148 56.2578 156.69 55.7422 156.367 55.0703C156.044 54.3984 155.883 53.612 155.883 52.7109C155.883 51.3151 156.232 50.2292 156.93 49.4531C157.628 48.6719 158.596 48.2812 159.836 48.2812C161.034 48.2812 161.984 48.6797 162.688 49.4766C163.396 50.2734 163.75 51.3516 163.75 52.7109ZM157.227 52.7109C157.227 53.8047 157.445 54.638 157.883 55.2109C158.32 55.7839 158.964 56.0703 159.812 56.0703C160.661 56.0703 161.305 55.7865 161.742 55.2188C162.185 54.6458 162.406 53.8099 162.406 52.7109C162.406 51.6224 162.185 50.7969 161.742 50.2344C161.305 49.6667 160.656 49.3828 159.797 49.3828C158.948 49.3828 158.307 49.6615 157.875 50.2188C157.443 50.776 157.227 51.6068 157.227 52.7109Z" fill="white"/>
<path d="M168.797 56.0859C169.026 56.0859 169.247 56.0703 169.461 56.0391C169.674 56.0026 169.844 55.9661 169.969 55.9297V56.9219C169.828 56.9896 169.62 57.0443 169.344 57.0859C169.073 57.1328 168.828 57.1562 168.609 57.1562C166.953 57.1562 166.125 56.2839 166.125 54.5391V49.4453H164.898V48.8203L166.125 48.2812L166.672 46.4531H167.422V48.4375H169.906V49.4453H167.422V54.4844C167.422 55 167.544 55.3958 167.789 55.6719C168.034 55.9479 168.37 56.0859 168.797 56.0859Z" fill="white"/>
<path d="M177.367 57H176.039V45.5781H182.406V46.7578H177.367V50.9375H182.102V52.1172H177.367V57Z" fill="white"/>
<path d="M191.5 52.7109C191.5 54.1068 191.148 55.1979 190.445 55.9844C189.742 56.7656 188.771 57.1562 187.531 57.1562C186.766 57.1562 186.086 56.9766 185.492 56.6172C184.898 56.2578 184.44 55.7422 184.117 55.0703C183.794 54.3984 183.633 53.612 183.633 52.7109C183.633 51.3151 183.982 50.2292 184.68 49.4531C185.378 48.6719 186.346 48.2812 187.586 48.2812C188.784 48.2812 189.734 48.6797 190.438 49.4766C191.146 50.2734 191.5 51.3516 191.5 52.7109ZM184.977 52.7109C184.977 53.8047 185.195 54.638 185.633 55.2109C186.07 55.7839 186.714 56.0703 187.562 56.0703C188.411 56.0703 189.055 55.7865 189.492 55.2188C189.935 54.6458 190.156 53.8099 190.156 52.7109C190.156 51.6224 189.935 50.7969 189.492 50.2344C189.055 49.6667 188.406 49.3828 187.547 49.3828C186.698 49.3828 186.057 49.6615 185.625 50.2188C185.193 50.776 184.977 51.6068 184.977 52.7109Z" fill="white"/>
<path d="M195 48.4375V53.9922C195 54.6901 195.159 55.2109 195.477 55.5547C195.794 55.8984 196.292 56.0703 196.969 56.0703C197.865 56.0703 198.518 55.8255 198.93 55.3359C199.346 54.8464 199.555 54.0469 199.555 52.9375V48.4375H200.852V57H199.781L199.594 55.8516H199.523C199.258 56.2734 198.888 56.5964 198.414 56.8203C197.945 57.0443 197.409 57.1562 196.805 57.1562C195.763 57.1562 194.982 56.9089 194.461 56.4141C193.945 55.9193 193.688 55.1276 193.688 54.0391V48.4375H195Z" fill="white"/>
<path d="M209.469 57V51.4609C209.469 50.763 209.31 50.2422 208.992 49.8984C208.674 49.5547 208.177 49.3828 207.5 49.3828C206.604 49.3828 205.948 49.625 205.531 50.1094C205.115 50.5938 204.906 51.3932 204.906 52.5078V57H203.609V48.4375H204.664L204.875 49.6094H204.938C205.203 49.1875 205.576 48.862 206.055 48.6328C206.534 48.3984 207.068 48.2812 207.656 48.2812C208.688 48.2812 209.464 48.5312 209.984 49.0312C210.505 49.526 210.766 50.3203 210.766 51.4141V57H209.469Z" fill="white"/>
<path d="M219.266 55.8516H219.195C218.596 56.7214 217.701 57.1562 216.508 57.1562C215.388 57.1562 214.516 56.7734 213.891 56.0078C213.271 55.2422 212.961 54.1536 212.961 52.7422C212.961 51.3307 213.273 50.2344 213.898 49.4531C214.523 48.6719 215.393 48.2812 216.508 48.2812C217.669 48.2812 218.56 48.7031 219.18 49.5469H219.281L219.227 48.9297L219.195 48.3281V44.8438H220.492V57H219.438L219.266 55.8516ZM216.672 56.0703C217.557 56.0703 218.198 55.8307 218.594 55.3516C218.995 54.8672 219.195 54.0885 219.195 53.0156V52.7422C219.195 51.5286 218.992 50.6641 218.586 50.1484C218.185 49.6276 217.542 49.3672 216.656 49.3672C215.896 49.3672 215.312 49.6641 214.906 50.2578C214.505 50.8464 214.305 51.6797 214.305 52.7578C214.305 53.8516 214.505 54.6771 214.906 55.2344C215.307 55.7917 215.896 56.0703 216.672 56.0703Z" fill="white"/>
<path d="M224.422 53.8516H223.602L223.203 45.5781H224.82L224.422 53.8516ZM223.062 56.1719C223.062 55.4635 223.375 55.1094 224 55.1094C224.302 55.1094 224.534 55.2005 224.695 55.3828C224.862 55.5651 224.945 55.8281 224.945 56.1719C224.945 56.5052 224.862 56.7656 224.695 56.9531C224.529 57.1354 224.297 57.2266 224 57.2266C223.729 57.2266 223.505 57.1458 223.328 56.9844C223.151 56.8177 223.062 56.5469 223.062 56.1719Z" fill="white"/>
<path d="M384.086 55.12C383.558 55.12 383.098 55.02 382.706 54.82C382.322 54.62 382.022 54.332 381.806 53.956C381.598 53.572 381.494 53.12 381.494 52.6V48.64C381.494 48.112 381.598 47.66 381.806 47.284C382.022 46.908 382.322 46.62 382.706 46.42C383.098 46.22 383.558 46.12 384.086 46.12C384.614 46.12 385.07 46.224 385.454 46.432C385.838 46.632 386.134 46.92 386.342 47.296C386.55 47.672 386.654 48.12 386.654 48.64H385.574C385.574 48.144 385.442 47.764 385.178 47.5C384.922 47.228 384.558 47.092 384.086 47.092C383.614 47.092 383.242 47.224 382.97 47.488C382.706 47.752 382.574 48.132 382.574 48.628V52.6C382.574 53.096 382.706 53.48 382.97 53.752C383.242 54.016 383.614 54.148 384.086 54.148C384.558 54.148 384.922 54.016 385.178 53.752C385.442 53.48 385.574 53.096 385.574 52.6H386.654C386.654 53.112 386.55 53.56 386.342 53.944C386.134 54.32 385.838 54.612 385.454 54.82C385.07 55.02 384.614 55.12 384.086 55.12ZM390.657 55.12C389.961 55.12 389.413 54.944 389.013 54.592C388.613 54.232 388.413 53.748 388.413 53.14C388.413 52.524 388.613 52.04 389.013 51.688C389.413 51.336 389.953 51.16 390.633 51.16H392.673V50.5C392.673 50.092 392.549 49.78 392.301 49.564C392.061 49.34 391.717 49.228 391.269 49.228C390.877 49.228 390.549 49.312 390.285 49.48C390.021 49.64 389.869 49.86 389.829 50.14H388.749C388.821 49.572 389.089 49.12 389.553 48.784C390.017 48.448 390.597 48.28 391.293 48.28C392.053 48.28 392.653 48.476 393.093 48.868C393.533 49.26 393.753 49.792 393.753 50.464V55H392.697V53.74H392.517L392.697 53.56C392.697 54.04 392.509 54.42 392.133 54.7C391.765 54.98 391.273 55.12 390.657 55.12ZM390.921 54.268C391.433 54.268 391.853 54.14 392.181 53.884C392.509 53.628 392.673 53.3 392.673 52.9V51.964H390.657C390.297 51.964 390.013 52.064 389.805 52.264C389.597 52.464 389.493 52.736 389.493 53.08C389.493 53.448 389.617 53.74 389.865 53.956C390.121 54.164 390.473 54.268 390.921 54.268ZM395.932 55V46.24H397.012V48.4V49.66H397.24L397.012 49.912C397.012 49.392 397.168 48.992 397.48 48.712C397.792 48.424 398.224 48.28 398.776 48.28C399.44 48.28 399.968 48.484 400.36 48.892C400.752 49.3 400.948 49.856 400.948 50.56V55H399.868V50.68C399.868 50.208 399.74 49.844 399.484 49.588C399.236 49.324 398.896 49.192 398.464 49.192C398.016 49.192 397.66 49.332 397.396 49.612C397.14 49.892 397.012 50.288 397.012 50.8V55H395.932ZM403.043 55V54.016H405.383V49.384H403.343V48.4H406.463V54.016H408.683V55H403.043ZM405.803 47.212C405.539 47.212 405.331 47.144 405.179 47.008C405.027 46.872 404.951 46.688 404.951 46.456C404.951 46.216 405.027 46.028 405.179 45.892C405.331 45.748 405.539 45.676 405.803 45.676C406.067 45.676 406.275 45.748 406.427 45.892C406.579 46.028 406.655 46.216 406.655 46.456C406.655 46.688 406.579 46.872 406.427 47.008C406.275 47.144 406.067 47.212 405.803 47.212ZM410.323 55V48.4H411.403V49.66H411.631L411.403 49.912C411.403 49.392 411.559 48.992 411.871 48.712C412.183 48.424 412.615 48.28 413.167 48.28C413.831 48.28 414.359 48.484 414.751 48.892C415.143 49.3 415.339 49.856 415.339 50.56V55H414.259V50.68C414.259 50.208 414.131 49.848 413.875 49.6C413.627 49.344 413.287 49.216 412.855 49.216C412.407 49.216 412.051 49.352 411.787 49.624C411.531 49.896 411.403 50.288 411.403 50.8V55H410.323ZM424.869 55V54.016H426.657V47.224H424.869V46.24H429.549V47.224H427.761V54.016H429.549V55H424.869ZM431.909 55V46.24H434.177C434.745 46.24 435.233 46.348 435.641 46.564C436.057 46.78 436.377 47.084 436.601 47.476C436.833 47.868 436.949 48.332 436.949 48.868V52.36C436.949 52.896 436.833 53.364 436.601 53.764C436.377 54.156 436.057 54.46 435.641 54.676C435.233 54.892 434.745 55 434.177 55H431.909ZM432.989 54.04H434.177C434.705 54.04 435.117 53.892 435.413 53.596C435.717 53.3 435.869 52.888 435.869 52.36V48.868C435.869 48.348 435.717 47.94 435.413 47.644C435.117 47.348 434.705 47.2 434.177 47.2H432.989V54.04Z" fill="#4C4C64"/>
<path d="M460.56 56V53.44H455.28V51.184L459.904 44.32H461.472L456.72 51.488V52.128H460.56V49.28H462V56H460.56Z" fill="white"/>
<path d="M468.394 56.16C467.679 56.16 467.055 56.0213 466.522 55.744C465.999 55.456 465.594 55.056 465.306 54.544C465.018 54.0213 464.874 53.4133 464.874 52.72V47.6C464.874 46.896 465.018 46.288 465.306 45.776C465.594 45.264 465.999 44.8693 466.522 44.592C467.055 44.304 467.679 44.16 468.394 44.16C469.119 44.16 469.743 44.304 470.266 44.592C470.788 44.8693 471.194 45.264 471.482 45.776C471.77 46.288 471.914 46.896 471.914 47.6V52.72C471.914 53.4133 471.77 54.0213 471.482 54.544C471.194 55.056 470.783 55.456 470.25 55.744C469.727 56.0213 469.108 56.16 468.394 56.16ZM468.394 54.928C469.034 54.928 469.546 54.7253 469.93 54.32C470.324 53.904 470.522 53.3706 470.522 52.72V47.6C470.522 46.9493 470.324 46.4213 469.93 46.016C469.546 45.6 469.034 45.392 468.394 45.392C467.754 45.392 467.236 45.6 466.842 46.016C466.458 46.4213 466.266 46.9493 466.266 47.6V52.72C466.266 53.3706 466.458 53.904 466.842 54.32C467.236 54.7253 467.754 54.928 468.394 54.928ZM468.394 51.104C468.106 51.104 467.871 51.0133 467.69 50.832C467.519 50.6506 467.434 50.4106 467.434 50.112C467.434 49.824 467.519 49.5946 467.69 49.424C467.871 49.2426 468.106 49.152 468.394 49.152C468.682 49.152 468.911 49.2426 469.082 49.424C469.263 49.5946 469.354 49.824 469.354 50.112C469.354 50.4106 469.263 50.6506 469.082 50.832C468.911 51.0133 468.682 51.104 468.394 51.104Z" fill="white"/>
<path d="M479.747 56V53.44H474.467V51.184L479.091 44.32H480.659L475.907 51.488V52.128H479.747V49.28H481.187V56H479.747Z" fill="white"/>
<path d="M591.086 55.12C590.558 55.12 590.098 55.02 589.706 54.82C589.322 54.62 589.022 54.332 588.806 53.956C588.598 53.572 588.494 53.12 588.494 52.6V48.64C588.494 48.112 588.598 47.66 588.806 47.284C589.022 46.908 589.322 46.62 589.706 46.42C590.098 46.22 590.558 46.12 591.086 46.12C591.614 46.12 592.07 46.224 592.454 46.432C592.838 46.632 593.134 46.92 593.342 47.296C593.55 47.672 593.654 48.12 593.654 48.64H592.574C592.574 48.144 592.442 47.764 592.178 47.5C591.922 47.228 591.558 47.092 591.086 47.092C590.614 47.092 590.242 47.224 589.97 47.488C589.706 47.752 589.574 48.132 589.574 48.628V52.6C589.574 53.096 589.706 53.48 589.97 53.752C590.242 54.016 590.614 54.148 591.086 54.148C591.558 54.148 591.922 54.016 592.178 53.752C592.442 53.48 592.574 53.096 592.574 52.6H593.654C593.654 53.112 593.55 53.56 593.342 53.944C593.134 54.32 592.838 54.612 592.454 54.82C592.07 55.02 591.614 55.12 591.086 55.12ZM598.221 55.12C597.461 55.12 596.853 54.896 596.397 54.448C595.941 53.992 595.713 53.376 595.713 52.6V48.4H596.793V52.6C596.793 53.096 596.921 53.484 597.177 53.764C597.433 54.036 597.781 54.172 598.221 54.172C598.669 54.172 599.021 54.036 599.277 53.764C599.541 53.484 599.673 53.096 599.673 52.6V48.4H600.753V52.6C600.753 53.376 600.521 53.992 600.057 54.448C599.593 54.896 598.981 55.12 598.221 55.12ZM603.16 55V48.4H604.216V49.66H604.468L604.12 50.44C604.12 49.728 604.272 49.192 604.576 48.832C604.888 48.464 605.348 48.28 605.956 48.28C606.652 48.28 607.204 48.5 607.612 48.94C608.028 49.372 608.236 49.96 608.236 50.704V51.1H607.156V50.8C607.156 50.28 607.028 49.884 606.772 49.612C606.524 49.332 606.168 49.192 605.704 49.192C605.248 49.192 604.888 49.332 604.624 49.612C604.368 49.892 604.24 50.288 604.24 50.8V55H603.16ZM610.355 55V48.4H611.411V49.66H611.663L611.315 50.44C611.315 49.728 611.467 49.192 611.771 48.832C612.083 48.464 612.543 48.28 613.151 48.28C613.847 48.28 614.399 48.5 614.807 48.94C615.223 49.372 615.431 49.96 615.431 50.704V51.1H614.351V50.8C614.351 50.28 614.223 49.884 613.967 49.612C613.719 49.332 613.363 49.192 612.899 49.192C612.443 49.192 612.083 49.332 611.819 49.612C611.563 49.892 611.435 50.288 611.435 50.8V55H610.355ZM619.819 55.12C619.299 55.12 618.843 55.016 618.451 54.808C618.067 54.6 617.767 54.308 617.551 53.932C617.343 53.548 617.239 53.104 617.239 52.6V50.8C617.239 50.288 617.343 49.844 617.551 49.468C617.767 49.092 618.067 48.8 618.451 48.592C618.843 48.384 619.299 48.28 619.819 48.28C620.339 48.28 620.791 48.384 621.175 48.592C621.567 48.8 621.867 49.092 622.075 49.468C622.291 49.844 622.399 50.288 622.399 50.8V51.964H618.295V52.6C618.295 53.12 618.427 53.52 618.691 53.8C618.955 54.072 619.331 54.208 619.819 54.208C620.235 54.208 620.571 54.136 620.827 53.992C621.083 53.84 621.239 53.616 621.295 53.32H622.375C622.303 53.872 622.031 54.312 621.559 54.64C621.095 54.96 620.515 55.12 619.819 55.12ZM621.343 51.244V50.8C621.343 50.28 621.211 49.88 620.947 49.6C620.691 49.32 620.315 49.18 619.819 49.18C619.331 49.18 618.955 49.32 618.691 49.6C618.427 49.88 618.295 50.28 618.295 50.8V51.148H621.427L621.343 51.244ZM624.518 55V48.4H625.598V49.66H625.826L625.598 49.912C625.598 49.392 625.754 48.992 626.066 48.712C626.378 48.424 626.81 48.28 627.362 48.28C628.026 48.28 628.554 48.484 628.946 48.892C629.338 49.3 629.534 49.856 629.534 50.56V55H628.454V50.68C628.454 50.208 628.326 49.848 628.07 49.6C627.822 49.344 627.482 49.216 627.05 49.216C626.602 49.216 626.246 49.352 625.982 49.624C625.726 49.896 625.598 50.288 625.598 50.8V55H624.518ZM634.257 55.12C633.729 55.12 633.265 55.02 632.865 54.82C632.473 54.62 632.169 54.332 631.953 53.956C631.737 53.572 631.629 53.12 631.629 52.6V50.8C631.629 50.272 631.737 49.82 631.953 49.444C632.169 49.068 632.473 48.78 632.865 48.58C633.265 48.38 633.729 48.28 634.257 48.28C635.017 48.28 635.629 48.484 636.093 48.892C636.557 49.3 636.801 49.856 636.825 50.56H635.745C635.721 50.136 635.577 49.812 635.313 49.588C635.057 49.356 634.705 49.24 634.257 49.24C633.785 49.24 633.409 49.376 633.129 49.648C632.849 49.912 632.709 50.292 632.709 50.788V52.6C632.709 53.096 632.849 53.48 633.129 53.752C633.409 54.024 633.785 54.16 634.257 54.16C634.705 54.16 635.057 54.044 635.313 53.812C635.577 53.58 635.721 53.256 635.745 52.84H636.825C636.801 53.544 636.557 54.1 636.093 54.508C635.629 54.916 635.017 55.12 634.257 55.12ZM639.941 57.16L640.913 54.592L638.465 48.4H639.665L641.201 52.48C641.257 52.616 641.309 52.78 641.357 52.972C641.405 53.156 641.445 53.312 641.477 53.44C641.509 53.312 641.549 53.156 641.597 52.972C641.645 52.78 641.693 52.616 641.741 52.48L643.181 48.4H644.345L641.093 57.16H639.941Z" fill="#4C4C64"/>
<path d="M662.44 56V44.32H664.36L667.928 54.32C667.907 54.0533 667.88 53.728 667.848 53.344C667.827 52.9493 667.805 52.5387 667.784 52.112C667.773 51.6747 667.768 51.264 667.768 50.88V44.32H669.16V56H667.24L663.688 46C663.709 46.256 663.731 46.5813 663.752 46.976C663.773 47.36 663.789 47.7707 663.8 48.208C663.821 48.6347 663.832 49.0453 663.832 49.44V56H662.44Z" fill="white"/>
<path d="M675.394 56.128C674.69 56.128 674.082 55.9947 673.57 55.728C673.058 55.4613 672.658 55.0773 672.37 54.576C672.092 54.064 671.954 53.4613 671.954 52.768V50.432C671.954 49.728 672.092 49.1253 672.37 48.624C672.658 48.1227 673.058 47.7387 673.57 47.472C674.082 47.2053 674.69 47.072 675.394 47.072C676.098 47.072 676.706 47.2053 677.218 47.472C677.73 47.7387 678.124 48.1227 678.402 48.624C678.69 49.1253 678.834 49.7227 678.834 50.416V52.768C678.834 53.4613 678.69 54.064 678.402 54.576C678.124 55.0773 677.73 55.4613 677.218 55.728C676.706 55.9947 676.098 56.128 675.394 56.128ZM675.394 54.848C676.023 54.848 676.514 54.672 676.866 54.32C677.218 53.968 677.394 53.4507 677.394 52.768V50.432C677.394 49.7493 677.218 49.232 676.866 48.88C676.514 48.528 676.023 48.352 675.394 48.352C674.775 48.352 674.284 48.528 673.922 48.88C673.57 49.232 673.394 49.7493 673.394 50.432V52.768C673.394 53.4507 673.57 53.968 673.922 54.32C674.284 54.672 674.775 54.848 675.394 54.848Z" fill="white"/>
<path d="M685.948 56C685.19 56 684.598 55.7973 684.172 55.392C683.756 54.9867 683.548 54.416 683.548 53.68V48.512H681.068V47.2H683.548V44.72H684.988V47.2H688.508V48.512H684.988V53.68C684.988 54.352 685.308 54.688 685.948 54.688H688.348V56H685.948Z" fill="white"/>
<path d="M700.895 56V44.304H707.775V45.616H702.303V49.504H707.359V50.816H702.335V56H700.895Z" fill="white"/>
<path d="M713.769 56.128C713.065 56.128 712.457 55.9947 711.945 55.728C711.433 55.4613 711.033 55.0773 710.745 54.576C710.467 54.064 710.329 53.4613 710.329 52.768V50.432C710.329 49.728 710.467 49.1253 710.745 48.624C711.033 48.1227 711.433 47.7387 711.945 47.472C712.457 47.2053 713.065 47.072 713.769 47.072C714.473 47.072 715.081 47.2053 715.593 47.472C716.105 47.7387 716.499 48.1227 716.777 48.624C717.065 49.1253 717.209 49.7227 717.209 50.416V52.768C717.209 53.4613 717.065 54.064 716.777 54.576C716.499 55.0773 716.105 55.4613 715.593 55.728C715.081 55.9947 714.473 56.128 713.769 56.128ZM713.769 54.848C714.398 54.848 714.889 54.672 715.241 54.32C715.593 53.968 715.769 53.4507 715.769 52.768V50.432C715.769 49.7493 715.593 49.232 715.241 48.88C714.889 48.528 714.398 48.352 713.769 48.352C713.15 48.352 712.659 48.528 712.297 48.88C711.945 49.232 711.769 49.7493 711.769 50.432V52.768C711.769 53.4507 711.945 53.968 712.297 54.32C712.659 54.672 713.15 54.848 713.769 54.848Z" fill="white"/>
<path d="M723.347 56.16C722.333 56.16 721.523 55.8613 720.915 55.264C720.307 54.656 720.003 53.8347 720.003 52.8V47.2H721.443V52.8C721.443 53.4613 721.613 53.9787 721.955 54.352C722.296 54.7147 722.76 54.896 723.347 54.896C723.944 54.896 724.413 54.7147 724.755 54.352C725.107 53.9787 725.283 53.4613 725.283 52.8V47.2H726.723V52.8C726.723 53.8347 726.413 54.656 725.795 55.264C725.176 55.8613 724.36 56.16 723.347 56.16Z" fill="white"/>
<path d="M729.628 56V47.2H731.068V48.88H731.372L731.068 49.216C731.068 48.5227 731.276 47.9893 731.692 47.616C732.108 47.232 732.684 47.04 733.42 47.04C734.306 47.04 735.01 47.312 735.532 47.856C736.055 48.4 736.316 49.1413 736.316 50.08V56H734.876V50.24C734.876 49.6107 734.706 49.1307 734.364 48.8C734.034 48.4587 733.58 48.288 733.004 48.288C732.407 48.288 731.932 48.4693 731.58 48.832C731.239 49.1947 731.068 49.7173 731.068 50.4V56H729.628Z" fill="white"/>
<path d="M742.038 56.16C741.163 56.16 740.454 55.8667 739.91 55.28C739.377 54.6933 739.11 53.8987 739.11 52.896V50.32C739.11 49.3067 739.377 48.5067 739.91 47.92C740.443 47.3333 741.153 47.04 742.038 47.04C742.763 47.04 743.345 47.2373 743.782 47.632C744.219 48.0267 744.438 48.5547 744.438 49.216L744.15 48.88H744.47L744.438 46.88V44.32H745.878V56H744.438V54.32H744.15L744.438 53.984C744.438 54.656 744.219 55.1893 743.782 55.584C743.345 55.968 742.763 56.16 742.038 56.16ZM742.518 54.912C743.115 54.912 743.585 54.7253 743.926 54.352C744.267 53.9787 744.438 53.4613 744.438 52.8V50.4C744.438 49.7387 744.267 49.2213 743.926 48.848C743.585 48.4747 743.115 48.288 742.518 48.288C741.91 48.288 741.43 48.4693 741.078 48.832C740.726 49.1947 740.55 49.7173 740.55 50.4V52.8C740.55 53.4827 740.726 54.0053 741.078 54.368C741.43 54.7307 741.91 54.912 742.518 54.912Z" fill="white"/>
<rect x="1007" y="28" width="226" height="46" rx="12" fill="#1B1B26"/>
</svg>
