<svg width="120" height="120" viewBox="0 0 120 120" fill="none" xmlns="http://www.w3.org/2000/svg">
<g opacity="0.5">
<path d="M71.5703 39.8406L51.1935 37.6737C44.9893 37.014 39.429 41.5466 38.7742 47.7976L36.0075 74.2101C35.3527 80.4611 39.8514 86.0634 46.0555 86.7231L66.4324 88.89C72.6365 89.5497 78.1968 85.0171 78.8516 78.7661L81.6183 52.3536C82.2731 46.1026 77.7745 40.5003 71.5703 39.8406Z" fill="url(#paint0_radial_2574_74)"/>
<path d="M69.7159 40.1445L51.3459 38.191C45.1418 37.5313 39.5815 42.0639 38.9267 48.3149L36.4007 72.4289C35.7459 78.6799 40.2446 84.2822 46.4488 84.9419L64.8188 86.8954C71.0229 87.5551 76.5832 83.0225 77.238 76.7714L79.7639 52.6575C80.4187 46.4065 75.9201 40.8042 69.7159 40.1445Z" fill="url(#paint1_radial_2574_74)"/>
<path d="M71.5703 39.8406L51.1935 37.6737C44.9893 37.014 39.429 41.5466 38.7742 47.7976L36.0075 74.2101C35.3527 80.4611 39.8514 86.0634 46.0555 86.7231L66.4324 88.89C72.6365 89.5497 78.1968 85.0171 78.8516 78.7661L81.6183 52.3536C82.2731 46.1026 77.7745 40.5003 71.5703 39.8406Z" stroke="#182338" stroke-miterlimit="10"/>
<path d="M100.043 61.5385C99.6225 63.2359 98.6076 64.723 97.1851 65.7261C95.7625 66.7291 94.0282 67.1804 92.3015 66.9968C86.958 68.3744 81.3601 68.4055 76.002 67.0872C76.1641 72.7011 76.4367 77.1636 76.4696 79.9027C76.5811 89.0329 76.3038 97.6314 75.5376 105.637C75.2287 108.875 74.5893 110.505 73.5235 111.771C72.9055 112.506 72.1434 113.12 71.218 113.852C69.814 114.967 68.4287 115.521 67.3208 115.403C65.4218 115.201 63.6802 114.248 62.4791 112.752C61.278 111.256 60.7159 109.341 60.9163 107.428L62.6166 91.1953C62.6668 90.7169 62.5262 90.2381 62.2259 89.8642C61.9257 89.4902 61.4903 89.2518 61.0155 89.2013L50.2751 88.0592C49.8004 88.0087 49.3252 88.1503 48.954 88.4529C48.5829 88.7554 48.3463 89.1941 48.2962 89.6724L46.6097 105.772C46.1982 109.7 42.7838 112.672 38.8804 112.363L36.2612 111.64L32.8368 110.695C32.0792 110.486 31.396 110.066 30.8665 109.481C30.3371 108.897 29.9832 108.173 29.8461 107.394C29.7006 106.562 29.8092 105.705 30.1578 104.937L32.8527 98.9662C33.3433 95.2616 33.9453 91.4918 34.654 87.626C35.3626 83.7602 36.1798 79.7985 37.0988 75.7099C38.0671 71.4064 39.1046 67.2615 40.2113 63.2752C34.6981 63.4374 29.23 62.2296 24.2897 59.7584C20.0885 57.3583 17.6507 54.0211 17.8852 51.7827C18.0856 49.8693 19.0322 48.1146 20.5167 46.9044C22.0012 45.6942 23.9021 45.1278 25.8011 45.3298L42.6595 47.1225C60.1744 59.927 76.965 50.7705 76.965 50.7705L93.7061 52.5507C97.6044 52.9653 100.554 56.4055 100.247 60.3383C100.212 60.7434 100.144 61.1449 100.043 61.5385Z" fill="url(#paint2_radial_2574_74)"/>
<path d="M100.043 61.5385C99.6225 63.2359 98.6076 64.723 97.1851 65.7261C95.7625 66.7291 94.0282 67.1804 92.3015 66.9968C86.958 68.3744 81.3601 68.4055 76.002 67.0872C76.1641 72.7011 76.4367 77.1636 76.4696 79.9027C76.5811 89.0329 76.3038 97.6314 75.5376 105.637C75.2287 108.875 74.5893 110.505 73.5235 111.771C72.9055 112.506 72.1434 113.12 71.218 113.852C69.814 114.967 68.4287 115.521 67.3208 115.403C65.4218 115.201 63.6802 114.248 62.4791 112.752C61.278 111.256 60.7159 109.341 60.9163 107.428L62.6166 91.1953C62.6668 90.7169 62.5262 90.2381 62.2259 89.8642C61.9257 89.4902 61.4903 89.2518 61.0155 89.2013L50.2751 88.0592C49.8004 88.0087 49.3252 88.1503 48.954 88.4529C48.5829 88.7554 48.3463 89.1941 48.2962 89.6724L46.6097 105.772C46.1982 109.7 42.7838 112.672 38.8804 112.363L36.2612 111.64L32.8368 110.695C32.0792 110.486 31.396 110.066 30.8665 109.481C30.3371 108.897 29.9832 108.173 29.8461 107.394C29.7006 106.562 29.8092 105.705 30.1578 104.937L32.8527 98.9662C33.3433 95.2616 33.9453 91.4918 34.654 87.626C35.3626 83.7602 36.1798 79.7985 37.0988 75.7099C38.0671 71.4064 39.1046 67.2615 40.2113 63.2752C34.6981 63.4374 29.23 62.2296 24.2897 59.7584C20.0885 57.3583 17.6507 54.0211 17.8852 51.7827C18.0856 49.8693 19.0322 48.1146 20.5167 46.9044C22.0012 45.6942 23.9021 45.1278 25.8011 45.3298L42.6595 47.1225C60.1744 59.927 76.965 50.7705 76.965 50.7705L93.7061 52.5507C97.6044 52.9653 100.554 56.4055 100.247 60.3383C100.212 60.7434 100.144 61.1449 100.043 61.5385Z" fill="url(#paint3_linear_2574_74)" fill-opacity="0.3"/>
<path opacity="0.6" d="M61.0148 89.1933L50.2744 88.0511C49.7997 88.0006 49.3245 88.1423 48.9533 88.4448C48.5822 88.7473 48.3456 89.186 48.2954 89.6644L46.6081 105.772C46.1967 109.7 42.7822 112.672 38.8789 112.363L36.2597 111.64L32.8353 110.695C32.0781 110.486 31.3953 110.065 30.8662 109.481C30.3371 108.897 29.9835 108.173 29.8466 107.394C29.8237 106.999 29.8075 106.634 29.7989 106.313C29.7642 105.013 29.857 104.376 30.1587 104.933C31.4399 107.312 38.9788 109.22 42.3835 108.223C45.7883 107.225 45.096 95.2105 47.1196 88.7754C49.1431 82.3403 61.0148 89.1933 61.0148 89.1933Z" fill="url(#paint4_radial_2574_74)"/>
<path d="M76.9549 50.7716C76.9549 50.7716 60.1643 59.9283 42.6494 47.1236C44.2157 45.9434 46.0174 45.1195 47.9302 44.7084C50.8296 48.2919 55.0175 50.5752 59.5808 51.0605C64.1442 51.5457 68.7129 50.1936 72.2909 47.2989C74.0764 48.1032 75.6676 49.288 76.9549 50.7716Z" fill="url(#paint5_radial_2574_74)" stroke="#182338" stroke-miterlimit="10"/>
<path d="M59.5812 51.0601C55.019 50.5781 50.8308 48.2987 47.9294 44.7188C49.3245 44.4206 50.7577 44.3467 52.1757 44.4996L68.1948 46.203C69.6133 46.3518 70.9995 46.7255 72.3021 47.3105C68.7243 50.2056 64.1554 51.5575 59.5921 51.0714L59.5812 51.0601Z" fill="url(#paint6_radial_2574_74)" stroke="#182338" stroke-miterlimit="10"/>
<path d="M83.5502 29.589C83.0664 34.2082 80.5591 40.5574 76.975 43.4791L72.3455 47.2603L72.2971 47.2998C68.7189 50.1939 64.1503 51.5456 59.5872 51.0604C55.024 50.5751 50.8361 48.2922 47.9364 44.7092L47.8973 44.6605L44.1472 39.9882C42.6973 38.1826 41.6873 35.595 41.1026 32.8824C40.5341 30.3037 40.3628 27.6522 40.5947 25.0211C40.9312 22.755 41.6108 20.5543 42.6096 18.4958C47.1935 9.08276 56.8013 6.48346 57.5883 6.28549C58.8048 5.97862 60.045 5.77699 61.2956 5.68278C62.3096 5.6072 63.3276 5.60036 64.3425 5.66233C66.5916 6.00138 68.7758 6.68604 70.8188 7.69244C71.5475 8.05157 80.4051 12.6145 82.9377 22.7843C83.4859 25.0077 83.6925 27.3026 83.5502 29.589Z" fill="url(#paint7_radial_2574_74)" stroke="#182338" stroke-miterlimit="10"/>
<path d="M76.9549 50.7716C76.9549 50.7716 60.1643 59.9283 42.6494 47.1236C44.2157 45.9434 46.0174 45.1195 47.9302 44.7084C50.8296 48.2919 55.0175 50.5752 59.5808 51.0605C64.1442 51.5457 68.7129 50.1936 72.2909 47.2989C74.0764 48.1032 75.6676 49.288 76.9549 50.7716Z" fill="url(#paint8_radial_2574_74)" fill-opacity="0.3" stroke="#182338" stroke-miterlimit="10"/>
<path opacity="0.3" d="M83.5502 29.589C83.0664 34.2082 80.5591 40.5574 76.975 43.4791L72.3455 47.2603L72.2971 47.2998C68.7189 50.1939 64.1503 51.5456 59.5872 51.0604C55.024 50.5751 50.8361 48.2922 47.9364 44.7092L47.8973 44.6605L44.1472 39.9882C42.6973 38.1826 41.6873 35.595 41.1026 32.8824C40.5341 30.3037 40.3628 27.6522 40.5947 25.0211C40.9312 22.755 41.6108 20.5543 42.6096 18.4958C47.1935 9.08276 56.8013 6.48346 57.5883 6.28549C58.8048 5.97862 60.045 5.77699 61.2956 5.68278C62.3096 5.6072 63.3276 5.60036 64.3425 5.66233C66.5916 6.00138 68.7758 6.68604 70.8188 7.69244C71.5475 8.05157 80.4051 12.6145 82.9377 22.7843C83.4859 25.0077 83.6925 27.3026 83.5502 29.589Z" fill="url(#paint9_radial_2574_74)" stroke="#182338" stroke-miterlimit="10"/>
<path d="M81.8394 28.643C81.9186 26.9805 81.6789 25.3183 81.1335 23.7473C78.6031 16.3983 70.4002 12.9385 69.735 12.6651C67.8183 11.8919 65.8152 11.357 63.77 11.0723C61.7095 10.9201 59.6384 11.0217 57.6024 11.3749C56.8872 11.5015 48.1641 13.1615 44.1608 19.8157C43.3024 21.2377 42.723 22.8126 42.4541 24.4548C42.1082 27.7573 43.2887 32.6143 46.0157 35.2649L49.5438 38.6958C52.2705 41.3484 56.1627 43.0895 60.3653 43.5364C64.568 43.9833 68.7371 43.0994 71.9534 41.0788L76.1146 38.4656C79.3346 36.4474 81.4935 31.9455 81.8394 28.643Z" fill="#504C57" stroke="#182338" stroke-miterlimit="10"/>
<path d="M80.4673 28.5497C80.54 27.0033 80.3169 25.4572 79.8101 23.9956C77.4554 17.1577 69.8307 13.9376 69.2018 13.6823C67.4182 12.9635 65.5544 12.4659 63.6515 12.2005C61.7356 12.0598 59.8098 12.1544 57.9165 12.4823C57.2506 12.5999 49.1247 14.1451 45.4071 20.3373C44.608 21.6605 44.0687 23.1262 43.8186 24.6546C43.4966 27.7287 44.596 32.2467 47.1329 34.715L50.4191 37.9013C52.9556 40.3736 56.5771 41.9907 60.4874 42.4065C64.3977 42.8224 68.2767 42.0008 71.2711 40.1207L75.1451 37.6958C78.136 35.8113 80.1453 31.6238 80.4673 28.5497Z" fill="url(#paint10_radial_2574_74)"/>
<path d="M74.4201 19.5516C73.8652 18.2019 78.9151 23.677 78.3483 29.0879C77.7815 34.4987 74.6689 35.9914 74.6689 35.9914C74.6689 35.9914 79.1339 30.9951 74.4201 19.5516Z" fill="url(#paint11_radial_2574_74)"/>
<path d="M47.6089 73.7338C47.068 72.7607 46.7499 71.6779 46.6779 70.5649L47.1009 66.5268C47.295 65.6336 47.7055 64.4797 48.668 63.6236C50.2606 62.2043 52.0202 62.8007 58.2909 63.3763C61.2511 63.6466 66.4203 64.024 67.6526 65.6424C68.067 66.1998 68.3637 66.8368 68.5244 67.5142C68.6105 67.941 68.6325 68.3785 68.5896 68.8119L68.1666 72.85C67.8656 73.923 67.3309 74.9149 66.6015 75.7535C62.2826 80.6012 50.8183 79.3821 47.6089 73.7338Z" fill="url(#paint12_radial_2574_74)" stroke="#182338" stroke-miterlimit="10"/>
<path d="M49.1018 73.325C48.6419 72.4986 48.3719 71.5787 48.3118 70.6331L48.6712 67.2022C48.8352 66.4436 49.1832 65.4634 50.0015 64.7358C51.3546 63.5302 52.8482 64.0355 58.1766 64.5251C60.6925 64.7562 65.0813 65.077 66.13 66.4509C66.4827 66.9241 66.7347 67.4655 66.8704 68.0413C66.9418 68.4038 66.9585 68.7752 66.9199 69.1428L66.5605 72.5737C66.3041 73.485 65.8497 74.3275 65.2302 75.0401C61.5629 79.1587 51.817 78.1224 49.1018 73.325Z" stroke="#182338" stroke-miterlimit="10"/>
<path d="M50.5824 72.915C50.2041 72.2348 49.9817 71.478 49.9316 70.6999L50.2274 67.8762C50.3699 67.0999 50.7535 66.3893 51.3228 65.8468C52.4323 64.8544 53.6657 65.2712 58.0501 65.6726C60.1196 65.8643 63.7322 66.1269 64.5951 67.2582C64.8847 67.648 65.092 68.0935 65.2042 68.5671C65.2631 68.8653 65.2765 69.1708 65.244 69.4731L64.9482 72.2967C64.7381 73.0468 64.3645 73.7402 63.8547 74.3263C60.841 77.7161 52.8275 76.8639 50.5824 72.915Z" stroke="#182338" stroke-miterlimit="10"/>
<path d="M52.0688 72.514C51.7724 71.9802 51.5982 71.3864 51.5591 70.7759L51.7921 68.5515C51.9032 67.9422 52.2039 67.3844 52.6507 66.9589C53.5247 66.1805 54.4899 66.5081 57.93 66.8232C59.5536 66.9716 62.3895 67.1799 63.0649 68.0663C63.2929 68.3722 63.4561 68.722 63.5445 69.094C63.5906 69.3279 63.6014 69.5675 63.5767 69.8046L63.3445 72.0211C63.1789 72.6098 62.8848 73.1539 62.4839 73.6135C60.1197 76.2739 53.8306 75.6051 52.0688 72.514Z" stroke="#182338" stroke-miterlimit="10"/>
<path d="M53.5565 72.0966C53.3422 71.711 53.2154 71.2823 53.1852 70.8413L53.3532 69.2381C53.4354 68.7983 53.6535 68.396 53.9763 68.0886C54.6107 67.5238 55.3119 67.7605 57.8078 67.9895C58.987 68.0986 61.0447 68.2486 61.5344 68.8923C61.7006 69.114 61.8192 69.3682 61.8826 69.6386C61.9159 69.8081 61.9235 69.9818 61.905 70.1536L61.7371 71.7568C61.6162 72.1817 61.4034 72.5743 61.1139 72.9064C59.4021 74.8297 54.8275 74.3432 53.5565 72.0966Z" stroke="#182338" stroke-miterlimit="10"/>
<path d="M55.0434 71.6878C54.9092 71.4471 54.8307 71.179 54.8138 70.9034L54.9188 69.9013C54.9689 69.6264 55.1044 69.3746 55.3058 69.1824C55.7006 68.8313 56.1316 68.9784 57.6893 69.1218C58.4223 69.1896 59.7036 69.2833 60.0077 69.6824C60.1108 69.8208 60.1846 69.979 60.2245 70.1473C60.2451 70.2525 60.2501 70.3603 60.2393 70.467L60.1343 71.4692C60.059 71.7348 59.9261 71.9802 59.7453 72.1878C58.6784 73.3876 55.8381 73.0856 55.0434 71.6878Z" stroke="#182338" stroke-miterlimit="10"/>
<path d="M64.9344 99.231C64.7118 98.6791 64.5915 98.0908 64.5793 97.4952L64.8133 95.2607C64.9045 94.6669 65.1482 94.1074 65.5203 93.6378C66.2081 92.8315 66.9605 93.1364 69.6289 93.3695C70.8883 93.4812 73.088 93.6198 73.5935 94.4963C73.8938 95.0214 74.0184 95.6301 73.9486 96.2321L73.7145 98.4666C73.5783 99.0462 73.3388 99.5961 73.0076 100.089C71.1041 102.825 66.2291 102.307 64.9344 99.231Z" fill="#99A3A3" stroke="#182338" stroke-miterlimit="10"/>
<path d="M65.5484 98.9965C65.3582 98.5236 65.2556 98.0195 65.2456 97.5094L65.4459 95.5975C65.5243 95.0897 65.7325 94.6112 66.0499 94.2089C66.6469 93.5206 67.2833 93.7808 69.5657 93.9748C70.6438 94.0692 72.5258 94.1883 72.9575 94.9434C73.1061 95.2153 73.2064 95.5113 73.2541 95.8179C73.2801 96.0198 73.2824 96.2241 73.2607 96.4265L73.0604 98.3384C72.9439 98.8348 72.7392 99.3059 72.4562 99.729C70.8278 102.066 66.6509 101.622 65.5484 98.9965Z" fill="#99A3A3" stroke="#182338" stroke-miterlimit="10"/>
<path d="M66.1626 98.7599C66.0048 98.3644 65.9194 97.9434 65.9106 97.5173L66.0771 95.9281C66.1416 95.5031 66.3153 95.1024 66.5809 94.7659C67.0774 94.1926 67.6056 94.4108 69.5028 94.5761C70.3998 94.6532 71.964 94.7527 72.3211 95.3763C72.4453 95.6016 72.5291 95.8471 72.5689 96.1017C72.5904 96.2707 72.5921 96.4416 72.5738 96.6109L72.4074 98.2001C72.3123 98.6156 72.1415 99.0097 71.9035 99.3623C70.5508 101.314 67.084 100.945 66.1626 98.7599Z" fill="#99A3A3" stroke="#182338" stroke-miterlimit="10"/>
<path d="M66.7748 98.5231C66.6494 98.2101 66.5815 97.8767 66.5741 97.5393L66.7068 96.2727C66.7593 95.9365 66.8971 95.6196 67.1069 95.3528C67.5026 94.8964 67.9247 95.0709 69.4361 95.1952C70.1495 95.2589 71.3962 95.3367 71.6815 95.8392C71.852 96.1368 71.9223 96.4819 71.8821 96.8231L71.7494 98.0896C71.6723 98.4181 71.5368 98.7298 71.3494 99.0096C70.274 100.559 67.5114 100.265 66.7748 98.5231Z" fill="#99A3A3" stroke="#182338" stroke-miterlimit="10"/>
<path d="M67.3906 98.2869C67.2968 98.0538 67.2464 97.8052 67.2422 97.5537L67.341 96.6097C67.3802 96.3599 67.4824 96.1244 67.6379 95.9258C67.9329 95.5863 68.2473 95.715 69.3733 95.8125C69.9044 95.8689 70.8345 95.9172 71.047 96.2884C71.12 96.4189 71.1697 96.5614 71.194 96.7093C71.2079 96.8089 71.2095 96.9098 71.1987 97.0097L71.0998 97.9538C71.0418 98.1985 70.9405 98.4308 70.8007 98.6394C69.9969 99.8043 67.9384 99.5854 67.3906 98.2869Z" fill="#99A3A3" stroke="#182338" stroke-miterlimit="10"/>
<path d="M68.0065 98.0506C67.9435 97.8981 67.9101 97.735 67.908 97.5699L67.9731 96.9484C67.9973 96.783 68.065 96.6271 68.1692 96.497C68.3615 96.2742 68.5678 96.359 69.31 96.4156C69.6601 96.4529 70.2703 96.4833 70.4108 96.7354C70.4589 96.8238 70.4917 96.9198 70.5077 97.0193C70.5156 97.0867 70.5159 97.1547 70.5086 97.2221L70.4435 97.8435C70.4054 98.0039 70.3391 98.1562 70.2476 98.293C69.7199 99.0496 68.3654 98.9056 68.0065 98.0506Z" fill="#99A3A3" stroke="#182338" stroke-miterlimit="10"/>
<path d="M34.8504 94.8931C34.681 94.3078 34.6143 93.6973 34.6532 93.0889L35.0759 90.8198C35.216 90.2222 35.5013 89.669 35.9062 89.21C36.6607 88.4392 37.3564 88.805 39.948 89.2346C41.1694 89.4394 43.3135 89.7444 43.7265 90.6779C43.869 91.0188 43.9541 91.3812 43.9782 91.7503C43.9863 91.9955 43.968 92.2408 43.9237 92.4821L43.5009 94.7512C43.3192 95.3327 43.0375 95.8775 42.6687 96.3607C40.5775 99.0259 35.8432 98.1435 34.8504 94.8931Z" fill="#99A3A3" stroke="#182338" stroke-miterlimit="10"/>
<path d="M35.4784 94.6945C35.3337 94.1951 35.2766 93.674 35.3099 93.1548L35.6699 91.2154C35.7909 90.7056 36.0351 90.2338 36.3809 89.8422C37.0231 89.183 37.6238 89.4961 39.8312 89.8686C40.8746 90.0444 42.6995 90.3054 43.0564 91.1032C43.2676 91.587 43.3264 92.1244 43.2249 92.6429L42.8651 94.5803C42.7085 95.0766 42.4679 95.5419 42.1539 95.9555C40.3642 98.2191 36.3328 97.4622 35.4784 94.6945Z" fill="#99A3A3" stroke="#182338" stroke-miterlimit="10"/>
<path d="M36.1066 94.4958C35.9864 94.0822 35.939 93.6506 35.9667 93.2205L36.2658 91.613C36.364 91.1897 36.5661 90.798 36.8537 90.4739C37.3881 89.9228 37.8902 90.1789 39.7151 90.4965C40.5789 90.6411 42.0908 90.8566 42.3875 91.5183C42.4892 91.7591 42.5494 92.0156 42.5654 92.2768C42.5719 92.4507 42.5591 92.6246 42.5272 92.7956L42.2283 94.4011C42.1004 94.8127 41.9014 95.1983 41.6404 95.5402C40.1563 97.4208 36.8135 96.7898 36.1066 94.4958Z" fill="#99A3A3" stroke="#182338" stroke-miterlimit="10"/>
<path d="M36.735 94.2973C36.6392 93.9689 36.6016 93.6261 36.6239 93.2845L36.8601 92.0087C36.9396 91.6733 37.1006 91.3632 37.3287 91.1062C37.7502 90.6728 38.1429 90.8787 39.5976 91.1225C40.2853 91.2382 41.486 91.4104 41.7248 91.9343C41.8625 92.2528 41.9013 92.606 41.8359 92.9471L41.5977 94.2227C41.4956 94.5494 41.3376 94.8556 41.1308 95.1275C39.9489 96.6188 37.2965 96.1179 36.735 94.2973Z" fill="#99A3A3" stroke="#182338" stroke-miterlimit="10"/>
<path d="M37.3628 94.0989C37.2913 93.8563 37.2634 93.6028 37.2803 93.3504L37.4556 92.4064C37.5136 92.1573 37.6324 91.9268 37.8014 91.7358C38.1144 91.4165 38.4041 91.5689 39.4812 91.7503C39.9892 91.8347 40.8788 91.9618 41.0513 92.351C41.1114 92.492 41.1466 92.6425 41.1555 92.7958C41.156 92.8975 41.1454 92.999 41.1238 93.0984L40.9485 94.0424C40.8724 94.2843 40.7554 94.5112 40.6027 94.7129C39.741 95.817 37.7785 95.4482 37.3628 94.0989Z" fill="#99A3A3" stroke="#182338" stroke-miterlimit="10"/>
<path d="M37.9891 93.9002C37.9435 93.7426 37.926 93.5781 37.9374 93.4143L38.0498 92.8019C38.0891 92.6412 38.1661 92.4923 38.2743 92.3677C38.477 92.1602 38.6657 92.2594 39.3654 92.3763C39.6935 92.4315 40.27 92.5151 40.3824 92.7662C40.4211 92.858 40.4442 92.9557 40.4507 93.0552C40.452 93.1227 40.445 93.19 40.4297 93.2557L40.3153 93.8678C40.2671 94.0247 40.1918 94.1718 40.0928 94.3022C39.5333 95.017 38.2593 94.7762 37.9891 93.9002Z" fill="#99A3A3" stroke="#182338" stroke-miterlimit="10"/>
<path d="M29.281 45.9473C29.364 47.9197 30.9637 49.4657 32.6236 50.2845C34.473 51.1945 36.8086 51.2463 38.2813 49.6278C38.6296 49.2602 38.8881 48.8159 39.0364 48.3301C39.1847 47.8443 39.2186 47.3304 39.1356 46.8291C39.0446 46.3534 38.304 46.4732 38.3965 46.9531C38.7034 48.5359 37.3154 49.902 35.8518 50.1273C34.1217 50.4013 32.2222 49.4901 31.0731 48.2108C30.4551 47.5627 30.0832 46.7161 30.0224 45.8195C30.0059 45.721 29.9515 45.633 29.871 45.5747C29.7904 45.5165 29.6903 45.4926 29.5924 45.5083C29.4956 45.5268 29.4095 45.5821 29.3521 45.6627C29.2946 45.7434 29.2701 45.8432 29.2836 45.9415L29.281 45.9473Z" fill="#182338"/>
<path d="M81.9227 51.6141C82.108 52.2463 82.4402 52.825 82.8918 53.3019C83.3434 53.7789 83.9013 54.1405 84.5194 54.3566C85.9476 54.8244 87.4917 54.7855 88.895 54.2463C89.5673 53.953 90.1077 53.4593 90.2616 52.7197C90.271 52.62 90.2413 52.5205 90.1787 52.4426C90.1162 52.3648 90.0259 52.3147 89.9272 52.3031C89.8287 52.2953 89.731 52.3259 89.6544 52.3887C89.5778 52.4515 89.5281 52.5417 89.5158 52.6404C89.3901 53.2451 88.7007 53.567 88.1706 53.7133C87.396 53.9308 86.5866 53.9928 85.7884 53.8957C84.4344 53.7274 83.0435 52.8945 82.6631 51.4962C82.6447 51.3987 82.5899 51.312 82.5098 51.254C82.4298 51.1961 82.3307 51.1714 82.2331 51.185C82.1352 51.2021 82.0478 51.2573 81.9899 51.3388C81.9321 51.4202 81.9084 51.5214 81.9241 51.6203L81.9227 51.6141Z" fill="#182338"/>
<path d="M34.3209 50.7263C34.3584 54.6931 33.9787 58.6528 33.188 62.539C33.1782 62.6382 33.2076 62.7374 33.2699 62.815C33.3322 62.8926 33.4223 62.9423 33.5207 62.9533C33.6191 62.9617 33.717 62.9316 33.7939 62.8692C33.8709 62.8068 33.921 62.7169 33.9339 62.6183C34.7245 58.7321 35.1043 54.7724 35.0667 50.8056C35.074 50.7069 35.0437 50.609 34.9819 50.532C34.92 50.4551 34.8314 50.4047 34.734 50.3913C34.6352 50.3808 34.5363 50.4101 34.4588 50.4729C34.3814 50.5357 34.3318 50.6268 34.3209 50.7263Z" fill="#182338"/>
<path d="M68.6391 102.168L67.2708 115.23C67.2677 115.326 67.3008 115.419 67.3632 115.491C67.4257 115.564 67.513 115.609 67.6076 115.619C67.7021 115.629 67.797 115.603 67.873 115.546C67.9491 115.488 68.0007 115.404 68.0175 115.31L69.3858 102.247C69.3889 102.152 69.3558 102.059 69.2934 101.986C69.2309 101.914 69.1436 101.868 69.049 101.858C68.9545 101.848 68.8596 101.875 68.7836 101.932C68.7075 101.99 68.6559 102.074 68.6391 102.168Z" fill="#182338"/>
<path d="M37.6817 97.8711C37.1885 99.7761 36.7013 101.682 36.2017 103.59C35.7524 105.307 35.2739 107.149 34.2449 108.62C33.773 109.285 33.163 109.887 32.3505 110.06C31.8793 110.162 31.9982 110.908 32.4734 110.807C34.1564 110.444 35.1311 108.838 35.7707 107.36C36.5659 105.527 36.9849 103.544 37.4824 101.617C37.7817 100.461 38.0804 99.3062 38.3783 98.1518C38.4115 98.0582 38.408 97.9554 38.3686 97.8642C38.3292 97.7731 38.2568 97.7005 38.1662 97.6612C38.0737 97.6252 37.9709 97.6275 37.88 97.6676C37.7892 97.7076 37.7178 97.7822 37.6813 97.8751L37.6817 97.8711Z" fill="#182338"/>
<path d="M100.043 61.5407C99.6227 63.2381 98.6078 64.7252 97.1852 65.7283C95.7627 66.7313 94.0283 67.1826 92.3016 66.999C86.9581 68.3766 81.3603 68.4077 76.0021 67.0894C76.1642 72.7033 76.4368 77.1659 76.4697 79.9049C76.5812 89.0351 76.304 97.6336 75.5378 105.639C75.2288 108.877 74.5895 110.507 73.5236 111.773C75.6927 98.8999 73.885 74.0719 73.293 66.8986C73.2751 66.6805 73.3085 66.4612 73.3905 66.2585C73.4725 66.0558 73.6007 65.8754 73.7648 65.732C73.9289 65.5886 74.1242 65.4862 74.335 65.4331C74.5457 65.38 74.7659 65.3776 74.9777 65.4263C84.1309 67.4939 94.9459 63.6997 100.043 61.5407Z" fill="url(#paint13_radial_2574_74)" fill-opacity="0.6"/>
<path d="M100.043 61.5406C99.6224 63.238 98.6075 64.7251 97.1849 65.7282C95.7624 66.7312 94.028 67.1825 92.3013 66.9989C86.9578 68.3765 81.36 68.4076 76.0018 67.0893C76.1639 72.7032 76.4365 77.1657 76.4694 79.9047C76.5809 89.035 76.3037 97.6335 75.5375 105.639C75.2285 108.877 74.5892 110.507 73.5233 111.773C72.9054 112.508 72.1432 113.122 71.2178 113.854C69.8139 114.969 68.4285 115.523 67.3207 115.405C65.4217 115.203 63.6801 114.25 62.479 112.754C61.2779 111.258 60.7157 109.343 60.9162 107.43L62.6165 91.1974C62.6666 90.719 62.526 90.2402 62.2258 89.8663C61.9255 89.4923 61.4901 89.2539 61.0154 89.2034L50.275 88.0613C49.8002 88.0108 49.325 88.1524 48.9539 88.455C48.5828 88.7575 48.3461 89.1962 48.296 89.6745L46.608 105.789C46.1966 109.716 42.7821 112.689 38.8788 112.379L36.2596 111.657L32.8352 110.711C32.2554 110.551 31.717 110.266 31.2571 109.876C30.7973 109.486 30.4271 109 30.172 108.452C29.9169 107.904 29.7831 107.306 29.7799 106.7C29.7766 106.095 29.9039 105.496 30.1531 104.944L32.8479 98.9738C33.3385 95.2692 33.9406 91.4995 34.6492 87.6337C35.3578 83.7679 36.175 79.8062 37.094 75.7176C38.0623 71.414 39.0999 67.2691 40.2066 63.2829C34.6933 63.4451 29.2252 62.2373 24.2849 59.7661C20.0838 57.366 17.6459 54.0288 17.8804 51.7904C18.0808 49.877 19.0274 48.1222 20.512 46.9121C21.9965 45.7019 23.8973 45.1355 25.7964 45.3375L42.6547 47.1302C60.1696 59.9347 76.9603 50.7782 76.9603 50.7782L93.7013 52.5584C97.5997 52.973 100.55 56.4132 100.242 60.346C100.209 60.7491 100.142 61.1487 100.043 61.5406V61.5406Z" stroke="#182338" stroke-miterlimit="10"/>
<path d="M85.9142 54.7313C86.1535 58.0684 86.0925 61.4204 85.7319 64.7464C85.6328 65.6923 85.506 66.6345 85.3513 67.5732C85.2749 68.0534 86.0207 68.1327 86.0972 67.6525C86.6351 64.2985 86.867 60.9019 86.79 57.5053C86.7683 56.5358 86.7228 55.5684 86.6536 54.6033C86.6198 54.1195 85.8868 54.2441 85.9146 54.7273L85.9142 54.7313Z" fill="#182338"/>
<path d="M82.7629 51.6042L82.5089 52.1285L84.1893 53.8842L87.747 54.2868L89.8908 53.0392L89.9268 52.216L84.843 51.6754L82.7629 51.6042Z" fill="#182338"/>
<path d="M29.6249 45.4651C29.6504 45.6441 30.2771 47.6097 30.2771 47.6097L32.1584 49.5972L34.6299 50.3667L36.9254 50.2055L38.4187 48.9092L38.761 47.3121L38.5299 46.5802L29.6249 45.4651Z" fill="#182338"/>
<path d="M19.6547 45.6226L19.6851 45.6015C19.87 45.4753 20.0785 45.3884 20.2979 45.3462C20.5173 45.304 20.7429 45.3074 20.9609 45.3562C21.1789 45.405 21.3848 45.4982 21.5658 45.63C21.7468 45.7618 21.8992 45.9295 22.0137 46.1227L22.0957 46.2611C22.2276 46.484 22.3056 46.735 22.3236 46.9938C22.3415 47.2527 22.2989 47.5121 22.199 47.7513L19.9809 53.0494C19.8968 53.2499 19.7742 53.4317 19.6201 53.5843C19.4661 53.7369 19.2837 53.8574 19.0833 53.9387L18.8728 54.0278C18.6371 54.1239 18.3825 54.1635 18.129 54.1436C17.8755 54.1236 17.6301 54.0446 17.412 53.9128C17.194 53.7809 17.0094 53.5999 16.8726 53.3839C16.7359 53.1679 16.6508 52.9229 16.6241 52.6681C16.5948 52.3888 16.6368 52.1066 16.7461 51.8483L19.0661 46.3462C19.1881 46.0524 19.3927 45.8009 19.6547 45.6226Z" fill="url(#paint14_radial_2574_74)" stroke="#182338" stroke-miterlimit="10"/>
<path d="M20.1835 47.3652L18.3831 52.0392C18.2374 52.4179 18.0072 52.7498 17.7176 52.9986C17.428 53.2473 17.0901 53.4034 16.7408 53.4499L14.2087 53.7841C14.0379 53.8072 13.8668 53.8031 13.7 53.772L10.7947 53.2463C10.7021 53.2285 10.6109 53.2037 10.5218 53.1721L8.01756 52.2475C7.77015 52.1568 7.54529 52.0058 7.35737 51.8042C7.16946 51.6026 7.02266 51.3548 6.92638 51.0768L6.73769 50.5357L6.43713 49.676C6.30822 49.3046 6.27315 48.8923 6.3358 48.4847L6.91825 44.7013C6.9852 44.2617 7.16374 43.8469 7.43064 43.511L7.95109 42.8541C8.20374 42.5362 8.52446 42.302 8.87604 42.1787C9.22762 42.0554 9.59566 42.0481 9.93747 42.1576L11.3584 42.6184C11.6116 42.7022 11.8808 42.7216 12.1484 42.6753C12.4159 42.629 12.6756 42.5181 12.9105 42.3498C13.1453 42.1816 13.35 41.9598 13.5109 41.6991C13.6719 41.4384 13.7855 41.1447 13.8443 40.8374L13.8696 40.7145C13.9566 40.2744 14.1545 39.8661 14.4376 39.5431C14.7207 39.22 15.0758 38.9971 15.4566 38.9035L15.7613 38.8291C16.1728 38.7269 16.5932 38.7812 16.9584 38.9839C17.3237 39.1866 17.6139 39.5265 17.785 39.952L18.5365 41.8579L20.1481 45.4572C20.278 45.7421 20.3487 46.0617 20.3548 46.3921C20.3609 46.7225 20.3024 47.0551 20.1835 47.3652Z" fill="url(#paint15_radial_2574_74)"/>
<path d="M20.1835 47.3652L18.3831 52.0392C18.2374 52.4179 18.0072 52.7498 17.7176 52.9986C17.428 53.2473 17.0901 53.4034 16.7408 53.4499L14.2087 53.7841C14.0379 53.8072 13.8668 53.8031 13.7 53.772L10.7947 53.2463C10.7021 53.2285 10.6109 53.2037 10.5218 53.1721L8.01756 52.2475C7.77015 52.1568 7.54529 52.0058 7.35737 51.8042C7.16946 51.6026 7.02266 51.3548 6.92638 51.0768L6.73769 50.5357L6.43713 49.676C6.30822 49.3046 6.27315 48.8923 6.3358 48.4847L6.91825 44.7013C6.9852 44.2617 7.16374 43.8469 7.43064 43.511L7.95109 42.8541C8.20374 42.5362 8.52446 42.302 8.87604 42.1787C9.22762 42.0554 9.59566 42.0481 9.93747 42.1576L11.3584 42.6184C11.6116 42.7022 11.8808 42.7216 12.1484 42.6753C12.4159 42.629 12.6756 42.5181 12.9105 42.3498C13.1453 42.1816 13.35 41.9598 13.5109 41.6991C13.6719 41.4384 13.7855 41.1447 13.8443 40.8374L13.8696 40.7145C13.9566 40.2744 14.1545 39.8661 14.4376 39.5431C14.7207 39.22 15.0758 38.9971 15.4566 38.9035L15.7613 38.8291C16.1728 38.7269 16.5932 38.7812 16.9584 38.9839C17.3237 39.1866 17.6139 39.5265 17.785 39.952L18.5365 41.8579L20.1481 45.4572C20.278 45.7421 20.3487 46.0617 20.3548 46.3921C20.3609 46.7225 20.3024 47.0551 20.1835 47.3652Z" fill="url(#paint16_radial_2574_74)" fill-opacity="0.6"/>
<path opacity="0.6" d="M20.1833 47.3651L18.3829 52.0391C18.2373 52.4178 18.0071 52.7497 17.7175 52.9984C17.4279 53.2472 17.09 53.4033 16.7407 53.4498L14.2085 53.784C14.0378 53.8071 13.8666 53.803 13.6999 53.7719L10.7946 53.2462C10.7019 53.2284 10.6108 53.2036 10.5217 53.172L8.01742 52.2474C7.77001 52.1567 7.54515 52.0057 7.35724 51.8041C7.16932 51.6025 7.02252 51.3547 6.92624 51.0767L6.73755 50.5355C7.98979 50.4328 10.3562 51.182 11.6068 51.5069C13.2467 51.9304 16.658 52.8331 17.3736 51.5778C18.0893 50.3225 17.3659 48.9134 17.7732 48.8198C20.2508 48.2508 19.2896 43.4349 17.2979 42.0606C16.4476 41.4719 16.8642 39.2299 14.2232 40.2064C14.4704 39.9777 15.1488 38.9734 15.4635 38.902L15.7682 38.8276C16.1787 38.7274 16.5975 38.7829 16.9614 38.9857C17.3252 39.1886 17.6142 39.5277 17.7849 39.9519L18.5364 41.8578L20.148 45.4571C20.2779 45.742 20.3486 46.0616 20.3547 46.392C20.3608 46.7224 20.3022 47.055 20.1833 47.3651Z" fill="url(#paint17_radial_2574_74)"/>
<path d="M20.1835 47.3652L18.3831 52.0392C18.2374 52.4179 18.0072 52.7498 17.7176 52.9986C17.428 53.2473 17.0901 53.4034 16.7408 53.4499L14.2087 53.7841C14.0379 53.8072 13.8668 53.8031 13.7 53.772L10.7947 53.2463C10.7021 53.2285 10.6109 53.2037 10.5218 53.1721L8.01756 52.2475C7.77015 52.1568 7.54529 52.0058 7.35737 51.8042C7.16946 51.6026 7.02266 51.3548 6.92638 51.0768L6.73769 50.5357L6.43713 49.676C6.30822 49.3046 6.27315 48.8923 6.3358 48.4847L6.91825 44.7013C6.9852 44.2617 7.16374 43.8469 7.43064 43.511L7.95109 42.8541C8.20374 42.5362 8.52446 42.302 8.87604 42.1787C9.22762 42.0554 9.59566 42.0481 9.93747 42.1576L11.3584 42.6184C11.6116 42.7022 11.8808 42.7216 12.1484 42.6753C12.4159 42.629 12.6756 42.5181 12.9105 42.3498C13.1453 42.1816 13.35 41.9598 13.5109 41.6991C13.6719 41.4384 13.7855 41.1447 13.8443 40.8374L13.8696 40.7145C13.9566 40.2744 14.1545 39.8661 14.4376 39.5431C14.7207 39.22 15.0758 38.9971 15.4566 38.9035L15.7613 38.8291C16.1728 38.7269 16.5932 38.7812 16.9584 38.9839C17.3237 39.1866 17.6139 39.5265 17.785 39.952L18.5365 41.8579L20.1481 45.4572C20.278 45.7421 20.3487 46.0617 20.3548 46.3921C20.3609 46.7225 20.3024 47.0551 20.1835 47.3652V47.3652Z" stroke="#182338" stroke-miterlimit="10"/>
<path d="M100.115 54.7867L100.09 54.7596C99.9349 54.5973 99.749 54.4685 99.5432 54.3811C99.3374 54.2937 99.116 54.2495 98.8927 54.2514C98.6694 54.2533 98.4488 54.3011 98.2444 54.3919C98.0401 54.4827 97.8563 54.6146 97.7043 54.7796L97.5954 54.8977C97.4199 55.0876 97.2913 55.3166 97.2201 55.5661C97.1489 55.8155 97.1371 56.0784 97.1856 56.3333L98.2552 61.981C98.3384 62.4123 98.5878 62.7929 98.9488 63.0395L99.1361 63.1709C99.3468 63.314 99.5876 63.406 99.8395 63.4396C100.091 63.4731 100.348 63.4474 100.588 63.3644C100.829 63.2814 101.047 63.1433 101.225 62.9611C101.404 62.7789 101.538 62.5574 101.617 62.3142C101.704 62.0472 101.721 61.7624 101.668 61.4867L100.539 55.6179C100.481 55.3052 100.333 55.0163 100.115 54.7867Z" fill="url(#paint18_radial_2574_74)" stroke="#182338" stroke-miterlimit="10"/>
<path d="M99.371 56.3794L100.289 61.3281C100.363 61.729 100.545 62.1017 100.815 62.4056C101.085 62.7094 101.432 62.9327 101.819 63.0512L104.622 63.9064C104.814 63.9659 105.014 63.9981 105.215 64.0019L108.659 64.0945C108.769 64.0964 108.879 64.0912 108.988 64.0789L112.067 63.6971C112.371 63.66 112.665 63.5593 112.928 63.4013C113.192 63.2433 113.419 63.0316 113.597 62.7797L113.944 62.2898L114.496 61.5116C114.733 61.1752 114.874 60.7791 114.901 60.3673L115.157 56.5444C115.188 56.1004 115.085 55.6573 114.862 55.2729L114.423 54.5089C114.212 54.1451 113.903 53.849 113.532 53.655C113.161 53.4609 112.742 53.3768 112.326 53.4126L110.592 53.5666C110.283 53.5957 109.971 53.5584 109.677 53.4572C109.383 53.3561 109.113 53.1933 108.886 52.9796C108.659 52.7659 108.479 52.5062 108.359 52.2176C108.239 51.9289 108.181 51.6179 108.188 51.3049L108.189 51.1794C108.197 50.7307 108.071 50.29 107.826 49.9148C107.582 49.5396 107.231 49.2474 106.819 49.0762L106.489 48.9399C106.043 48.7549 105.549 48.7219 105.083 48.8461C104.616 48.9703 104.203 49.2447 103.905 49.6276L102.582 51.3409L99.8668 54.5254C99.6515 54.7772 99.4951 55.0746 99.4093 55.3955C99.3235 55.7164 99.3104 56.0527 99.371 56.3794Z" fill="url(#paint19_radial_2574_74)"/>
<path opacity="0.6" d="M99.371 56.3794L100.289 61.3281C100.363 61.729 100.545 62.1017 100.815 62.4056C101.085 62.7094 101.432 62.9327 101.819 63.0512L104.622 63.9064C104.814 63.9659 105.014 63.9981 105.215 64.0019L108.659 64.0945C108.769 64.0964 108.879 64.0912 108.988 64.0789L112.067 63.6971C112.371 63.66 112.665 63.5593 112.928 63.4013C113.192 63.2433 113.419 63.0316 113.597 62.7797L113.944 62.2898L114.496 61.5116C114.733 61.1752 114.874 60.7791 114.901 60.3673L115.157 56.5444C115.188 56.1004 115.085 55.6573 114.862 55.2729L114.423 54.5089C114.212 54.1451 113.903 53.849 113.532 53.655C113.161 53.4609 112.742 53.3768 112.326 53.4126L110.592 53.5666C110.283 53.5957 109.971 53.5584 109.677 53.4572C109.383 53.3561 109.113 53.1933 108.886 52.9796C108.659 52.7659 108.479 52.5062 108.359 52.2176C108.239 51.9289 108.181 51.6179 108.188 51.3049L108.189 51.1794C108.197 50.7307 108.071 50.29 107.826 49.9148C107.582 49.5396 107.231 49.2474 106.819 49.0762L106.489 48.9399C106.043 48.7549 105.549 48.7219 105.083 48.8461C104.616 48.9703 104.203 49.2447 103.905 49.6276L102.582 51.3409L99.8668 54.5254C99.6515 54.7772 99.4951 55.0746 99.4093 55.3955C99.3235 55.7164 99.3104 56.0527 99.371 56.3794Z" fill="url(#paint20_radial_2574_74)"/>
<path opacity="0.6" d="M99.3708 56.3792L100.288 61.3278C100.362 61.7287 100.544 62.1015 100.814 62.4053C101.084 62.7092 101.432 62.9325 101.819 63.0509L104.622 63.9061C104.814 63.9657 105.014 63.9978 105.215 64.0017L108.658 64.0943C108.768 64.0962 108.878 64.091 108.988 64.0786L112.067 63.6968C112.371 63.6598 112.664 63.559 112.928 63.4011C113.191 63.2431 113.419 63.0314 113.597 62.7795L113.944 62.2895C112.54 61.9275 109.657 62.166 108.151 62.2226C106.176 62.2944 102.064 62.4649 101.552 61.0874C101.041 59.7098 102.209 58.4825 101.767 58.3058C99.0784 57.2316 101.347 52.721 103.954 51.7926C105.068 51.3943 105.137 49.114 107.914 50.621C107.687 50.3456 107.157 49.2214 106.816 49.0858L106.486 48.9494C106.04 48.7644 105.546 48.7315 105.079 48.8557C104.613 48.9798 104.199 49.2543 103.902 49.6372L102.581 51.3407L99.8667 54.5251C99.6513 54.777 99.495 55.0743 99.4091 55.3953C99.3233 55.7162 99.3102 56.0525 99.3708 56.3792Z" fill="url(#paint21_radial_2574_74)"/>
<path d="M99.371 56.3794L100.289 61.3281C100.363 61.729 100.545 62.1017 100.815 62.4056C101.085 62.7094 101.432 62.9327 101.819 63.0512L104.622 63.9064C104.814 63.9659 105.014 63.9981 105.215 64.0019L108.659 64.0945C108.769 64.0964 108.879 64.0912 108.988 64.0789L112.067 63.6971C112.371 63.66 112.665 63.5593 112.928 63.4013C113.192 63.2433 113.419 63.0316 113.597 62.7797L113.944 62.2898L114.496 61.5116C114.733 61.1752 114.874 60.7791 114.901 60.3673L115.157 56.5444C115.188 56.1004 115.085 55.6573 114.862 55.2729L114.423 54.5089C114.212 54.1451 113.903 53.849 113.532 53.655C113.161 53.4609 112.742 53.3768 112.326 53.4126L110.592 53.5666C110.283 53.5957 109.971 53.5584 109.677 53.4572C109.383 53.3561 109.113 53.1933 108.886 52.9796C108.659 52.7659 108.479 52.5062 108.359 52.2176C108.239 51.9289 108.181 51.6179 108.188 51.3049L108.189 51.1794C108.197 50.7307 108.071 50.29 107.826 49.9148C107.582 49.5396 107.231 49.2474 106.819 49.0762L106.489 48.9399C106.043 48.7549 105.549 48.7219 105.083 48.8461C104.616 48.9703 104.203 49.2447 103.905 49.6276L102.582 51.3409L99.8668 54.5254C99.6515 54.7772 99.4951 55.0746 99.4093 55.3955C99.3235 55.7164 99.3104 56.0527 99.371 56.3794V56.3794Z" stroke="#182338" stroke-miterlimit="10"/>
<path d="M22.0446 38.1818C23.728 42.121 24.7161 47.4125 20.8817 49.2777C19.6835 49.8605 18.3026 50.0938 16.8887 49.8682C15.4747 49.6425 14.233 48.9907 13.2722 48.0633C10.1975 45.0956 12.7602 40.3708 15.5693 37.1484L19.6183 32.5038L22.0446 38.1818Z" fill="url(#paint22_radial_2574_74)" stroke="url(#paint23_radial_2574_74)"/>
<path d="M13.7837 44.1475L12.3282 42.9695L9.79663 41.7943C9.38611 42.6921 10.477 45.9277 10.4012 46.0934C10.3254 46.2592 10.4235 47.8618 10.482 48.6425L12.5059 48.5773L13.6589 46.601L13.7837 44.1475Z" fill="#64D69F"/>
<path d="M11.3813 48.9438L11.3959 49.4438L11.43 49.4429L11.4637 49.4374L11.3813 48.9438ZM12.9454 48.02L12.4978 47.7962L12.9454 48.02ZM11.7844 48.8776L11.8667 49.3713L11.7844 48.8776ZM13.3339 47.238L12.8863 47.0142L13.3339 47.238ZM12.0478 43.1748C12.3784 43.4651 12.7662 43.8387 13.054 44.1866C13.1989 44.3618 13.3052 44.5147 13.3678 44.6358C13.4409 44.777 13.4105 44.7904 13.4243 44.7282L14.4003 44.9471C14.4654 44.6522 14.354 44.3692 14.2553 44.1781C14.146 43.9669 13.9898 43.7515 13.8231 43.55C13.4878 43.1446 13.0563 42.7316 12.7057 42.4236L12.0478 43.1748ZM13.4243 44.7282C13.4241 44.7291 13.4239 44.73 13.4237 44.731C13.4235 44.7319 13.4232 44.7328 13.423 44.7338C13.4228 44.7347 13.4226 44.7356 13.4224 44.7366C13.4222 44.7375 13.422 44.7385 13.4218 44.7394C13.4216 44.7404 13.4214 44.7413 13.4212 44.7423C13.4209 44.7432 13.4207 44.7442 13.4205 44.7451C13.4203 44.7461 13.4201 44.747 13.4199 44.748C13.4197 44.749 13.4195 44.7499 13.4193 44.7509C13.419 44.7518 13.4188 44.7528 13.4186 44.7538C13.4184 44.7547 13.4182 44.7557 13.418 44.7567C13.4178 44.7576 13.4175 44.7586 13.4173 44.7596C13.4171 44.7606 13.4169 44.7615 13.4167 44.7625C13.4165 44.7635 13.4163 44.7645 13.416 44.7654C13.4158 44.7664 13.4156 44.7674 13.4154 44.7684C13.4152 44.7694 13.415 44.7704 13.4147 44.7713C13.4145 44.7723 13.4143 44.7733 13.4141 44.7743C13.4139 44.7753 13.4136 44.7763 13.4134 44.7773C13.4132 44.7783 13.413 44.7793 13.4128 44.7803C13.4125 44.7813 13.4123 44.7823 13.4121 44.7833C13.4119 44.7843 13.4117 44.7853 13.4114 44.7863C13.4112 44.7873 13.411 44.7883 13.4108 44.7893C13.4105 44.7903 13.4103 44.7913 13.4101 44.7924C13.4099 44.7934 13.4096 44.7944 13.4094 44.7954C13.4092 44.7964 13.409 44.7974 13.4087 44.7985C13.4085 44.7995 13.4083 44.8005 13.4081 44.8015C13.4078 44.8025 13.4076 44.8036 13.4074 44.8046C13.4072 44.8056 13.4069 44.8067 13.4067 44.8077C13.4065 44.8087 13.4062 44.8097 13.406 44.8108C13.4058 44.8118 13.4056 44.8129 13.4053 44.8139C13.4051 44.8149 13.4049 44.816 13.4046 44.817C13.4044 44.8181 13.4042 44.8191 13.4039 44.8201C13.4037 44.8212 13.4035 44.8222 13.4033 44.8233C13.403 44.8243 13.4028 44.8254 13.4026 44.8264C13.4023 44.8275 13.4021 44.8285 13.4019 44.8296C13.4016 44.8306 13.4014 44.8317 13.4012 44.8328C13.4009 44.8338 13.4007 44.8349 13.4005 44.8359C13.4002 44.837 13.4 44.8381 13.3998 44.8391C13.3995 44.8402 13.3993 44.8413 13.399 44.8423C13.3988 44.8434 13.3986 44.8445 13.3983 44.8455C13.3981 44.8466 13.3979 44.8477 13.3976 44.8488C13.3974 44.8498 13.3971 44.8509 13.3969 44.852C13.3967 44.8531 13.3964 44.8542 13.3962 44.8552C13.396 44.8563 13.3957 44.8574 13.3955 44.8585C13.3952 44.8596 13.395 44.8607 13.3948 44.8617C13.3945 44.8628 13.3943 44.8639 13.394 44.865C13.3938 44.8661 13.3936 44.8672 13.3933 44.8683C13.3931 44.8694 13.3928 44.8705 13.3926 44.8716C13.3923 44.8727 13.3921 44.8738 13.3919 44.8749C13.3916 44.876 13.3914 44.8771 13.3911 44.8782C13.3909 44.8793 13.3906 44.8804 13.3904 44.8815C13.3901 44.8826 13.3899 44.8837 13.3897 44.8848C13.3894 44.886 13.3892 44.8871 13.3889 44.8882C13.3887 44.8893 13.3884 44.8904 13.3882 44.8915C13.3879 44.8926 13.3877 44.8938 13.3874 44.8949C13.3872 44.896 13.3869 44.8971 13.3867 44.8982C13.3864 44.8994 13.3862 44.9005 13.3859 44.9016C13.3857 44.9028 13.3854 44.9039 13.3852 44.905C13.3849 44.9061 13.3847 44.9073 13.3844 44.9084C13.3842 44.9095 13.3839 44.9107 13.3837 44.9118C13.3834 44.9129 13.3832 44.9141 13.3829 44.9152C13.3827 44.9164 13.3824 44.9175 13.3822 44.9186C13.3819 44.9198 13.3817 44.9209 13.3814 44.9221C13.3812 44.9232 13.3809 44.9244 13.3807 44.9255C13.3804 44.9267 13.3802 44.9278 13.3799 44.929C13.3796 44.9301 13.3794 44.9313 13.3791 44.9324C13.3789 44.9336 13.3786 44.9347 13.3784 44.9359C13.3781 44.937 13.3779 44.9382 13.3776 44.9394C13.3773 44.9405 13.3771 44.9417 13.3768 44.9428C13.3766 44.944 13.3763 44.9452 13.3761 44.9463C13.3758 44.9475 13.3755 44.9487 13.3753 44.9498C13.375 44.951 13.3748 44.9522 13.3745 44.9534C13.3743 44.9545 13.374 44.9557 13.3737 44.9569C13.3735 44.9581 13.3732 44.9592 13.373 44.9604C13.3727 44.9616 13.3724 44.9628 13.3722 44.9639C13.3719 44.9651 13.3717 44.9663 13.3714 44.9675C13.3711 44.9687 13.3709 44.9699 13.3706 44.971C13.3703 44.9722 13.3701 44.9734 13.3698 44.9746C13.3696 44.9758 13.3693 44.977 13.369 44.9782C13.3688 44.9794 13.3685 44.9806 13.3682 44.9818C13.368 44.983 13.3677 44.9841 13.3674 44.9853C13.3672 44.9865 13.3669 44.9877 13.3666 44.9889C13.3664 44.9901 13.3661 44.9913 13.3659 44.9925C13.3656 44.9938 13.3653 44.995 13.3651 44.9962C13.3648 44.9974 13.3645 44.9986 13.3643 44.9998C13.364 45.001 13.3637 45.0022 13.3635 45.0034C13.3632 45.0046 13.3629 45.0058 13.3626 45.007C13.3624 45.0083 13.3621 45.0095 13.3618 45.0107C13.3616 45.0119 13.3613 45.0131 13.361 45.0143C13.3608 45.0156 13.3605 45.0168 13.3602 45.018C13.36 45.0192 13.3597 45.0205 13.3594 45.0217C13.3591 45.0229 13.3589 45.0241 13.3586 45.0254C13.3583 45.0266 13.3581 45.0278 13.3578 45.029C13.3575 45.0303 13.3572 45.0315 13.357 45.0327C13.3567 45.034 13.3564 45.0352 13.3562 45.0364C13.3559 45.0377 13.3556 45.0389 13.3553 45.0401C13.3551 45.0414 13.3548 45.0426 13.3545 45.0439C13.3542 45.0451 13.354 45.0463 13.3537 45.0476C13.3534 45.0488 13.3531 45.0501 13.3529 45.0513C13.3526 45.0526 13.3523 45.0538 13.352 45.0551C13.3518 45.0563 13.3515 45.0576 13.3512 45.0588C13.3509 45.0601 13.3507 45.0613 13.3504 45.0626C13.3501 45.0638 13.3498 45.0651 13.3495 45.0663C13.3493 45.0676 13.349 45.0688 13.3487 45.0701C13.3484 45.0714 13.3482 45.0726 13.3479 45.0739C13.3476 45.0751 13.3473 45.0764 13.347 45.0777C13.3468 45.0789 13.3465 45.0802 13.3462 45.0815C13.3459 45.0827 13.3456 45.084 13.3454 45.0853C13.3451 45.0865 13.3448 45.0878 13.3445 45.0891C13.3442 45.0903 13.344 45.0916 13.3437 45.0929C13.3434 45.0941 13.3431 45.0954 13.3428 45.0967C13.3426 45.098 13.3423 45.0992 13.342 45.1005C13.3417 45.1018 13.3414 45.1031 13.3411 45.1044C13.3409 45.1056 13.3406 45.1069 13.3403 45.1082C13.34 45.1095 13.3397 45.1108 13.3394 45.112C13.3392 45.1133 13.3389 45.1146 13.3386 45.1159C13.3383 45.1172 13.338 45.1185 13.3377 45.1198C13.3375 45.1211 13.3372 45.1223 13.3369 45.1236C13.3366 45.1249 13.3363 45.1262 13.336 45.1275C13.3357 45.1288 13.3355 45.1301 13.3352 45.1314C13.3349 45.1327 13.3346 45.134 13.3343 45.1353C13.334 45.1366 13.3337 45.1379 13.3334 45.1392C13.3332 45.1405 13.3329 45.1418 13.3326 45.1431C13.3323 45.1444 13.332 45.1457 13.3317 45.147C13.3314 45.1483 13.3311 45.1496 13.3309 45.1509C13.3306 45.1522 13.3303 45.1535 13.33 45.1548C13.3297 45.1561 13.3294 45.1575 13.3291 45.1588C13.3288 45.1601 13.3285 45.1614 13.3283 45.1627C13.328 45.164 13.3277 45.1653 13.3274 45.1666C13.3271 45.168 13.3268 45.1693 13.3265 45.1706C13.3262 45.1719 13.3259 45.1732 13.3256 45.1746C13.3253 45.1759 13.325 45.1772 13.3248 45.1785C13.3245 45.1798 13.3242 45.1812 13.3239 45.1825C13.3236 45.1838 13.3233 45.1851 13.323 45.1865C13.3227 45.1878 13.3224 45.1891 13.3221 45.1904C13.3218 45.1918 13.3215 45.1931 13.3212 45.1944C13.3209 45.1958 13.3207 45.1971 13.3204 45.1984C13.3201 45.1997 13.3198 45.2011 13.3195 45.2024C13.3192 45.2037 13.3189 45.2051 13.3186 45.2064C13.3183 45.2078 13.318 45.2091 13.3177 45.2104C13.3174 45.2118 13.3171 45.2131 13.3168 45.2144C13.3165 45.2158 13.3162 45.2171 13.3159 45.2185C13.3156 45.2198 13.3153 45.2212 13.315 45.2225C13.3147 45.2238 13.3144 45.2252 13.3141 45.2265C13.3138 45.2279 13.3136 45.2292 13.3133 45.2306C13.313 45.2319 13.3127 45.2333 13.3124 45.2346C13.3121 45.236 13.3118 45.2373 13.3115 45.2387C13.3112 45.24 13.3109 45.2414 13.3106 45.2427C13.3103 45.2441 13.31 45.2454 13.3097 45.2468C13.3094 45.2481 13.3091 45.2495 13.3088 45.2509C13.3085 45.2522 13.3082 45.2536 13.3079 45.2549C13.3076 45.2563 13.3073 45.2577 13.307 45.259C13.3067 45.2604 13.3064 45.2617 13.3061 45.2631C13.3058 45.2645 13.3055 45.2658 13.3052 45.2672C13.3049 45.2685 13.3046 45.2699 13.3043 45.2713C13.304 45.2726 13.3037 45.274 13.3034 45.2754C13.303 45.2767 13.3027 45.2781 13.3024 45.2795C13.3021 45.2809 13.3018 45.2822 13.3015 45.2836C13.3012 45.285 13.3009 45.2863 13.3006 45.2877C13.3003 45.2891 13.3 45.2905 13.2997 45.2918C13.2994 45.2932 13.2991 45.2946 13.2988 45.296C13.2985 45.2973 13.2982 45.2987 13.2979 45.3001C13.2976 45.3015 13.2973 45.3029 13.297 45.3042C13.2967 45.3056 13.2964 45.307 13.2961 45.3084C13.2958 45.3098 13.2955 45.3111 13.2951 45.3125C13.2948 45.3139 13.2945 45.3153 13.2942 45.3167C13.2939 45.3181 13.2936 45.3194 13.2933 45.3208C13.293 45.3222 13.2927 45.3236 13.2924 45.325C13.2921 45.3264 13.2918 45.3278 13.2915 45.3292C13.2912 45.3305 13.2909 45.3319 13.2905 45.3333C13.2902 45.3347 13.2899 45.3361 13.2896 45.3375C13.2893 45.3389 13.289 45.3403 13.2887 45.3417C13.2884 45.3431 13.2881 45.3445 13.2878 45.3459C13.2875 45.3473 13.2872 45.3487 13.2869 45.3501C13.2865 45.3515 13.2862 45.3529 13.2859 45.3543C13.2856 45.3556 13.2853 45.357 13.285 45.3584C13.2847 45.3598 13.2844 45.3613 13.2841 45.3627C13.2838 45.3641 13.2834 45.3655 13.2831 45.3669C13.2828 45.3683 13.2825 45.3697 13.2822 45.3711C13.2819 45.3725 13.2816 45.3739 13.2813 45.3753C13.281 45.3767 13.2807 45.3781 13.2803 45.3795C13.28 45.3809 13.2797 45.3823 13.2794 45.3837C13.2791 45.3851 13.2788 45.3865 13.2785 45.388C13.2782 45.3894 13.2779 45.3908 13.2775 45.3922C13.2772 45.3936 13.2769 45.395 13.2766 45.3964C13.2763 45.3978 13.276 45.3993 13.2757 45.4007C13.2754 45.4021 13.275 45.4035 13.2747 45.4049C13.2744 45.4063 13.2741 45.4077 13.2738 45.4092C13.2735 45.4106 13.2732 45.412 13.2728 45.4134C13.2725 45.4148 13.2722 45.4163 13.2719 45.4177C13.2716 45.4191 13.2713 45.4205 13.271 45.4219C13.2707 45.4234 13.2703 45.4248 13.27 45.4262C13.2697 45.4276 13.2694 45.429 13.2691 45.4305C13.2688 45.4319 13.2685 45.4333 13.2681 45.4347C13.2678 45.4362 13.2675 45.4376 13.2672 45.439C13.2669 45.4404 13.2666 45.4419 13.2662 45.4433C13.2659 45.4447 13.2656 45.4462 13.2653 45.4476C13.265 45.449 13.2647 45.4504 13.2644 45.4519C13.264 45.4533 13.2637 45.4547 13.2634 45.4562C13.2631 45.4576 13.2628 45.459 13.2625 45.4605C13.2621 45.4619 13.2618 45.4633 13.2615 45.4647C13.2612 45.4662 13.2609 45.4676 13.2606 45.4691C13.2602 45.4705 13.2599 45.4719 13.2596 45.4734C13.2593 45.4748 13.259 45.4762 13.2587 45.4777C13.2583 45.4791 13.258 45.4805 13.2577 45.482C13.2574 45.4834 13.2571 45.4848 13.2567 45.4863C13.2564 45.4877 13.2561 45.4892 13.2558 45.4906C13.2555 45.492 13.2552 45.4935 13.2548 45.4949C13.2545 45.4964 13.2542 45.4978 13.2539 45.4992C13.2536 45.5007 13.2532 45.5021 13.2529 45.5036C13.2526 45.505 13.2523 45.5065 13.252 45.5079C13.2517 45.5094 13.2513 45.5108 13.251 45.5122C13.2507 45.5137 13.2504 45.5151 13.2501 45.5166C13.2497 45.518 13.2494 45.5195 13.2491 45.5209C13.2488 45.5224 13.2485 45.5238 13.2481 45.5253C13.2478 45.5267 13.2475 45.5282 13.2472 45.5296C13.2469 45.531 13.2465 45.5325 13.2462 45.5339C13.2459 45.5354 13.2456 45.5368 13.2453 45.5383C13.2449 45.5397 13.2446 45.5412 13.2443 45.5427C13.244 45.5441 13.2436 45.5456 13.2433 45.547C13.243 45.5485 13.2427 45.5499 13.2424 45.5514C13.242 45.5528 13.2417 45.5543 13.2414 45.5557C13.2411 45.5572 13.2408 45.5586 13.2404 45.5601C13.2401 45.5615 13.2398 45.563 13.2395 45.5645C13.2392 45.5659 13.2388 45.5674 13.2385 45.5688C13.2382 45.5703 13.2379 45.5717 13.2375 45.5732C13.2372 45.5747 13.2369 45.5761 13.2366 45.5776C13.2363 45.579 13.2359 45.5805 13.2356 45.5819C13.2353 45.5834 13.235 45.5849 13.2346 45.5863C13.2343 45.5878 13.234 45.5892 13.2337 45.5907C13.2334 45.5922 13.233 45.5936 13.2327 45.5951C13.2324 45.5965 13.2321 45.598 13.2317 45.5995C13.2314 45.6009 13.2311 45.6024 13.2308 45.6039C13.2304 45.6053 13.2301 45.6068 13.2298 45.6082C13.2295 45.6097 13.2292 45.6112 13.2288 45.6126C13.2285 45.6141 13.2282 45.6156 13.2279 45.617C13.2275 45.6185 13.2272 45.62 13.2269 45.6214C13.2266 45.6229 13.2262 45.6244 13.2259 45.6258C13.2256 45.6273 13.2253 45.6288 13.2249 45.6302C13.2246 45.6317 13.2243 45.6332 13.224 45.6346C13.2236 45.6361 13.2233 45.6376 13.223 45.639C13.2227 45.6405 13.2223 45.642 13.222 45.6434C13.2217 45.6449 13.2214 45.6464 13.221 45.6478C13.2207 45.6493 13.2204 45.6508 13.2201 45.6522C13.2197 45.6537 13.2194 45.6552 13.2191 45.6567C13.2188 45.6581 13.2185 45.6596 13.2181 45.6611C13.2178 45.6625 13.2175 45.664 13.2172 45.6655C13.2168 45.6669 13.2165 45.6684 13.2162 45.6699C13.2158 45.6714 13.2155 45.6728 13.2152 45.6743C13.2149 45.6758 13.2145 45.6772 13.2142 45.6787C13.2139 45.6802 13.2136 45.6817 13.2132 45.6831C13.2129 45.6846 13.2126 45.6861 13.2123 45.6876C13.2119 45.689 13.2116 45.6905 13.2113 45.692C13.211 45.6935 13.2106 45.6949 13.2103 45.6964C13.21 45.6979 13.2097 45.6994 13.2093 45.7008C13.209 45.7023 13.2087 45.7038 13.2084 45.7053C13.208 45.7067 13.2077 45.7082 13.2074 45.7097C13.2071 45.7112 13.2067 45.7126 13.2064 45.7141C13.2061 45.7156 13.2058 45.7171 13.2054 45.7185C13.2051 45.72 13.2048 45.7215 13.2044 45.723C13.2041 45.7244 13.2038 45.7259 13.2035 45.7274C13.2031 45.7289 13.2028 45.7304 13.2025 45.7318C13.2022 45.7333 13.2018 45.7348 13.2015 45.7363C13.2012 45.7377 13.2009 45.7392 13.2005 45.7407C13.2002 45.7422 13.1999 45.7437 13.1995 45.7451C13.1992 45.7466 13.1989 45.7481 13.1986 45.7496C13.1982 45.751 13.1979 45.7525 13.1976 45.754C13.1973 45.7555 13.1969 45.757 13.1966 45.7584C13.1963 45.7599 13.196 45.7614 13.1956 45.7629C13.1953 45.7644 13.195 45.7658 13.1946 45.7673C13.1943 45.7688 13.194 45.7703 13.1937 45.7717C13.1933 45.7732 13.193 45.7747 13.1927 45.7762C13.1924 45.7777 13.192 45.7791 13.1917 45.7806C13.1914 45.7821 13.191 45.7836 13.1907 45.7851C13.1904 45.7865 13.1901 45.788 13.1897 45.7895C13.1894 45.791 13.1891 45.7925 13.1888 45.7939C13.1884 45.7954 13.1881 45.7969 13.1878 45.7984C13.1875 45.7999 13.1871 45.8014 13.1868 45.8028C13.1865 45.8043 13.1861 45.8058 13.1858 45.8073C13.1855 45.8088 13.1852 45.8102 13.1848 45.8117C13.1845 45.8132 13.1842 45.8147 13.1839 45.8162C13.1835 45.8176 13.1832 45.8191 13.1829 45.8206C13.1825 45.8221 13.1822 45.8236 13.1819 45.825C13.1816 45.8265 13.1812 45.828 13.1809 45.8295C13.1806 45.831 13.1803 45.8324 13.1799 45.8339C13.1796 45.8354 13.1793 45.8369 13.1789 45.8384C13.1786 45.8399 13.1783 45.8413 13.178 45.8428C13.1776 45.8443 13.1773 45.8458 13.177 45.8473C13.1767 45.8487 13.1763 45.8502 13.176 45.8517C13.1757 45.8532 13.1753 45.8547 13.175 45.8561C13.1747 45.8576 13.1744 45.8591 13.174 45.8606C13.1737 45.8621 13.1734 45.8635 13.1731 45.865C13.1727 45.8665 13.1724 45.868 13.1721 45.8695C13.1717 45.8709 13.1714 45.8724 13.1711 45.8739C13.1708 45.8754 13.1704 45.8769 13.1701 45.8783C13.1698 45.8798 13.1695 45.8813 13.1691 45.8828C13.1688 45.8843 13.1685 45.8857 13.1681 45.8872C13.1678 45.8887 13.1675 45.8902 13.1672 45.8917C13.1668 45.8931 13.1665 45.8946 13.1662 45.8961C13.1659 45.8976 13.1655 45.8991 13.1652 45.9005C13.1649 45.902 13.1646 45.9035 13.1642 45.905C13.1639 45.9065 13.1636 45.9079 13.1632 45.9094C13.1629 45.9109 13.1626 45.9124 13.1623 45.9139C13.1619 45.9153 13.1616 45.9168 13.1613 45.9183C13.161 45.9198 13.1606 45.9212 13.1603 45.9227C13.16 45.9242 13.1597 45.9257 13.1593 45.9272C13.159 45.9286 13.1587 45.9301 13.1583 45.9316C13.158 45.9331 13.1577 45.9345 13.1574 45.936C13.157 45.9375 13.1567 45.939 13.1564 45.9405C13.1561 45.9419 13.1557 45.9434 13.1554 45.9449C13.1551 45.9464 13.1548 45.9478 13.1544 45.9493C13.1541 45.9508 13.1538 45.9523 13.1535 45.9537C13.1531 45.9552 13.1528 45.9567 13.1525 45.9582C13.1521 45.9596 13.1518 45.9611 13.1515 45.9626C13.1512 45.9641 13.1508 45.9655 13.1505 45.967C13.1502 45.9685 13.1499 45.97 13.1495 45.9714C13.1492 45.9729 13.1489 45.9744 13.1486 45.9759C13.1482 45.9773 13.1479 45.9788 13.1476 45.9803C13.1473 45.9818 13.1469 45.9832 13.1466 45.9847C13.1463 45.9862 13.146 45.9876 13.1456 45.9891C13.1453 45.9906 13.145 45.9921 13.1447 45.9935C13.1443 45.995 13.144 45.9965 13.1437 45.9979C13.1434 45.9994 13.143 46.0009 13.1427 46.0024C13.1424 46.0038 13.1421 46.0053 13.1417 46.0068C13.1414 46.0082 13.1411 46.0097 13.1408 46.0112C13.1404 46.0127 13.1401 46.0141 13.1398 46.0156C13.1395 46.0171 13.1391 46.0185 13.1388 46.02C13.1385 46.0215 13.1382 46.0229 13.1378 46.0244C13.1375 46.0259 13.1372 46.0273 13.1369 46.0288C13.1365 46.0303 13.1362 46.0317 13.1359 46.0332C13.1356 46.0347 13.1352 46.0361 13.1349 46.0376C13.1346 46.0391 13.1343 46.0405 13.1339 46.042C13.1336 46.0435 13.1333 46.0449 13.133 46.0464C13.1327 46.0479 13.1323 46.0493 13.132 46.0508C13.1317 46.0523 13.1314 46.0537 13.131 46.0552C13.1307 46.0566 13.1304 46.0581 13.1301 46.0596C13.1297 46.061 13.1294 46.0625 13.1291 46.064C13.1288 46.0654 13.1284 46.0669 13.1281 46.0683C13.1278 46.0698 13.1275 46.0713 13.1272 46.0727C13.1268 46.0742 13.1265 46.0757 13.1262 46.0771C13.1259 46.0786 13.1255 46.08 13.1252 46.0815C13.1249 46.0829 13.1246 46.0844 13.1243 46.0859C13.1239 46.0873 13.1236 46.0888 13.1233 46.0902C13.123 46.0917 13.1226 46.0932 13.1223 46.0946C13.122 46.0961 13.1217 46.0975 13.1214 46.099C13.121 46.1004 13.1207 46.1019 13.1204 46.1033C13.1201 46.1048 13.1197 46.1063 13.1194 46.1077C13.1191 46.1092 13.1188 46.1106 13.1185 46.1121C13.1181 46.1135 13.1178 46.115 13.1175 46.1164C13.1172 46.1179 13.1169 46.1193 13.1165 46.1208C13.1162 46.1222 13.1159 46.1237 13.1156 46.1251C13.1153 46.1266 13.1149 46.128 13.1146 46.1295C13.1143 46.1309 13.114 46.1324 13.1137 46.1338C13.1133 46.1353 13.113 46.1367 13.1127 46.1382C13.1124 46.1396 13.1121 46.1411 13.1117 46.1425C13.1114 46.144 13.1111 46.1454 13.1108 46.1469C13.1105 46.1483 13.1101 46.1498 13.1098 46.1512C13.1095 46.1527 13.1092 46.1541 13.1089 46.1555C13.1085 46.157 13.1082 46.1584 13.1079 46.1599C13.1076 46.1613 13.1073 46.1628 13.1069 46.1642C13.1066 46.1656 13.1063 46.1671 13.106 46.1685C13.1057 46.17 13.1054 46.1714 13.105 46.1728C13.1047 46.1743 13.1044 46.1757 13.1041 46.1772C13.1038 46.1786 13.1034 46.18 13.1031 46.1815C13.1028 46.1829 13.1025 46.1844 13.1022 46.1858C13.1019 46.1872 13.1015 46.1887 13.1012 46.1901C13.1009 46.1915 13.1006 46.193 13.1003 46.1944C13.1 46.1958 13.0996 46.1973 13.0993 46.1987C13.099 46.2001 13.0987 46.2016 13.0984 46.203C13.0981 46.2044 13.0977 46.2059 13.0974 46.2073C13.0971 46.2087 13.0968 46.2102 13.0965 46.2116C13.0962 46.213 13.0958 46.2145 13.0955 46.2159C13.0952 46.2173 13.0949 46.2187 13.0946 46.2202C13.0943 46.2216 13.0939 46.223 13.0936 46.2244C13.0933 46.2259 13.093 46.2273 13.0927 46.2287C13.0924 46.2301 13.0921 46.2316 13.0917 46.233C13.0914 46.2344 13.0911 46.2358 13.0908 46.2373C13.0905 46.2387 13.0902 46.2401 13.0899 46.2415C13.0895 46.243 13.0892 46.2444 13.0889 46.2458C13.0886 46.2472 13.0883 46.2486 13.088 46.2501C13.0877 46.2515 13.0873 46.2529 13.087 46.2543C13.0867 46.2557 13.0864 46.2571 13.0861 46.2586C13.0858 46.26 13.0855 46.2614 13.0852 46.2628C13.0848 46.2642 13.0845 46.2656 13.0842 46.267C13.0839 46.2685 13.0836 46.2699 13.0833 46.2713C13.083 46.2727 13.0827 46.2741 13.0823 46.2755C13.082 46.2769 13.0817 46.2783 13.0814 46.2797C13.0811 46.2812 13.0808 46.2826 13.0805 46.284C13.0802 46.2854 13.0799 46.2868 13.0795 46.2882C13.0792 46.2896 13.0789 46.291 13.0786 46.2924C13.0783 46.2938 13.078 46.2952 13.0777 46.2966C13.0774 46.298 13.0771 46.2994 13.0768 46.3008C13.0764 46.3022 13.0761 46.3036 13.0758 46.305C13.0755 46.3064 13.0752 46.3078 13.0749 46.3092C13.0746 46.3106 13.0743 46.312 13.074 46.3134C13.0737 46.3148 13.0733 46.3162 13.073 46.3176C13.0727 46.319 13.0724 46.3204 13.0721 46.3218C13.0718 46.3232 13.0715 46.3246 13.0712 46.326C13.0709 46.3274 13.0706 46.3288 13.0703 46.3302C13.07 46.3316 13.0697 46.3329 13.0693 46.3343C13.069 46.3357 13.0687 46.3371 13.0684 46.3385C13.0681 46.3399 13.0678 46.3413 13.0675 46.3427C13.0672 46.3441 13.0669 46.3454 13.0666 46.3468C13.0663 46.3482 13.066 46.3496 13.0657 46.351C13.0654 46.3524 13.0651 46.3537 13.0648 46.3551C13.0644 46.3565 13.0641 46.3579 13.0638 46.3593C13.0635 46.3607 13.0632 46.362 13.0629 46.3634C13.0626 46.3648 13.0623 46.3662 13.062 46.3675C13.0617 46.3689 13.0614 46.3703 13.0611 46.3717C13.0608 46.373 13.0605 46.3744 13.0602 46.3758C13.0599 46.3772 13.0596 46.3785 13.0593 46.3799C13.059 46.3813 13.0587 46.3827 13.0584 46.384C13.0581 46.3854 13.0578 46.3868 13.0575 46.3881C13.0572 46.3895 13.0569 46.3909 13.0566 46.3922C13.0563 46.3936 13.0559 46.395 13.0556 46.3963C13.0553 46.3977 13.055 46.3991 13.0547 46.4004C13.0544 46.4018 13.0541 46.4031 13.0538 46.4045C13.0535 46.4059 13.0532 46.4072 13.0529 46.4086C13.0526 46.4099 13.0523 46.4113 13.052 46.4127C13.0517 46.414 13.0514 46.4154 13.0511 46.4167C13.0508 46.4181 13.0505 46.4194 13.0502 46.4208C13.0499 46.4222 13.0496 46.4235 13.0493 46.4249C13.049 46.4262 13.0487 46.4276 13.0484 46.4289C13.0482 46.4303 13.0479 46.4316 13.0476 46.433C13.0473 46.4343 13.047 46.4357 13.0467 46.437C13.0464 46.4383 13.0461 46.4397 13.0458 46.441C13.0455 46.4424 13.0452 46.4437 13.0449 46.4451C13.0446 46.4464 13.0443 46.4478 13.044 46.4491C13.0437 46.4504 13.0434 46.4518 13.0431 46.4531C13.0428 46.4544 13.0425 46.4558 13.0422 46.4571C13.0419 46.4585 13.0416 46.4598 13.0413 46.4611C13.041 46.4625 13.0407 46.4638 13.0404 46.4651C13.0402 46.4665 13.0399 46.4678 13.0396 46.4691C13.0393 46.4705 13.039 46.4718 13.0387 46.4731C13.0384 46.4744 13.0381 46.4758 13.0378 46.4771C13.0375 46.4784 13.0372 46.4797 13.0369 46.4811C13.0366 46.4824 13.0363 46.4837 13.036 46.485C13.0358 46.4864 13.0355 46.4877 13.0352 46.489C13.0349 46.4903 13.0346 46.4916 13.0343 46.493C13.034 46.4943 13.0337 46.4956 13.0334 46.4969C13.0331 46.4982 13.0328 46.4995 13.0326 46.5009C13.0323 46.5022 13.032 46.5035 13.0317 46.5048C13.0314 46.5061 13.0311 46.5074 13.0308 46.5087C13.0305 46.51 13.0302 46.5113 13.0299 46.5127C13.0297 46.514 13.0294 46.5153 13.0291 46.5166C13.0288 46.5179 13.0285 46.5192 13.0282 46.5205C13.0279 46.5218 13.0276 46.5231 13.0274 46.5244C13.0271 46.5257 13.0268 46.527 13.0265 46.5283C13.0262 46.5296 13.0259 46.5309 13.0256 46.5322C13.0253 46.5335 13.0251 46.5348 13.0248 46.5361C13.0245 46.5374 13.0242 46.5387 13.0239 46.5399C13.0236 46.5412 13.0233 46.5425 13.0231 46.5438C13.0228 46.5451 13.0225 46.5464 13.0222 46.5477C13.0219 46.549 13.0216 46.5503 13.0214 46.5515C13.0211 46.5528 13.0208 46.5541 13.0205 46.5554C13.0202 46.5567 13.0199 46.558 13.0197 46.5592C13.0194 46.5605 13.0191 46.5618 13.0188 46.5631C13.0185 46.5644 13.0182 46.5656 13.018 46.5669C13.0177 46.5682 13.0174 46.5695 13.0171 46.5707C13.0168 46.572 13.0165 46.5733 13.0163 46.5745C13.016 46.5758 13.0157 46.5771 13.0154 46.5783C13.0151 46.5796 13.0149 46.5809 13.0146 46.5822C13.0143 46.5834 13.014 46.5847 13.0137 46.5859C13.0135 46.5872 13.0132 46.5885 13.0129 46.5897C13.0126 46.591 13.0124 46.5923 13.0121 46.5935C13.0118 46.5948 13.0115 46.596 13.0112 46.5973C13.011 46.5985 13.0107 46.5998 13.0104 46.601C13.0101 46.6023 13.0099 46.6036 13.0096 46.6048C13.0093 46.6061 13.009 46.6073 13.0088 46.6086C13.0085 46.6098 13.0082 46.6111 13.0079 46.6123C13.0076 46.6135 13.0074 46.6148 13.0071 46.616C13.0068 46.6173 13.0065 46.6185 13.0063 46.6198C13.006 46.621 13.0057 46.6222 13.0055 46.6235C13.0052 46.6247 13.0049 46.626 13.0046 46.6272C13.0044 46.6284 13.0041 46.6297 13.0038 46.6309C13.0035 46.6321 13.0033 46.6334 13.003 46.6346C13.0027 46.6358 13.0025 46.6371 13.0022 46.6383C13.0019 46.6395 13.0016 46.6407 13.0014 46.642C13.0011 46.6432 13.0008 46.6444 13.0006 46.6456C13.0003 46.6469 13 46.6481 12.9997 46.6493C12.9995 46.6505 12.9992 46.6517 12.9989 46.653C12.9987 46.6542 12.9984 46.6554 12.9981 46.6566C12.9979 46.6578 12.9976 46.659 12.9973 46.6602C12.9971 46.6615 12.9968 46.6627 12.9965 46.6639C12.9963 46.6651 12.996 46.6663 12.9957 46.6675C12.9955 46.6687 12.9952 46.6699 12.9949 46.6711C12.9947 46.6723 12.9944 46.6735 12.9941 46.6747C12.9939 46.6759 12.9936 46.6771 12.9933 46.6783C12.9931 46.6795 12.9928 46.6807 12.9925 46.6819C12.9923 46.6831 12.992 46.6843 12.9918 46.6855C12.9915 46.6867 12.9912 46.6879 12.991 46.6891C12.9907 46.6903 12.9904 46.6914 12.9902 46.6926C12.9899 46.6938 12.9896 46.695 12.9894 46.6962C12.9891 46.6974 12.9889 46.6986 12.9886 46.6997C12.9883 46.7009 12.9881 46.7021 12.9878 46.7033C12.9876 46.7045 12.9873 46.7056 12.987 46.7068C12.9868 46.708 12.9865 46.7092 12.9863 46.7103C12.986 46.7115 12.9857 46.7127 12.9855 46.7138C12.9852 46.715 12.985 46.7162 12.9847 46.7173C12.9845 46.7185 12.9842 46.7197 12.9839 46.7208C12.9837 46.722 12.9834 46.7232 12.9832 46.7243C12.9829 46.7255 12.9827 46.7267 12.9824 46.7278C12.9821 46.729 12.9819 46.7301 12.9816 46.7313C12.9814 46.7324 12.9811 46.7336 12.9809 46.7347C12.9806 46.7359 12.9804 46.737 12.9801 46.7382C12.9799 46.7393 12.9796 46.7405 12.9793 46.7416C12.9791 46.7428 12.9788 46.7439 12.9786 46.7451C12.9783 46.7462 12.9781 46.7474 12.9778 46.7485C12.9776 46.7496 12.9773 46.7508 12.9771 46.7519C12.9768 46.753 12.9766 46.7542 12.9763 46.7553C12.9761 46.7565 12.9758 46.7576 12.9756 46.7587C12.9753 46.7598 12.9751 46.761 12.9748 46.7621C12.9746 46.7632 12.9743 46.7644 12.9741 46.7655L13.9501 46.9844C13.9503 46.9833 13.9506 46.9822 13.9508 46.981C13.9511 46.9799 13.9513 46.9788 13.9516 46.9777C13.9518 46.9765 13.9521 46.9754 13.9523 46.9743C13.9526 46.9731 13.9528 46.972 13.9531 46.9709C13.9533 46.9697 13.9536 46.9686 13.9538 46.9674C13.9541 46.9663 13.9543 46.9652 13.9546 46.964C13.9548 46.9629 13.9551 46.9617 13.9553 46.9606C13.9556 46.9594 13.9558 46.9583 13.9561 46.9571C13.9564 46.956 13.9566 46.9548 13.9569 46.9537C13.9571 46.9525 13.9574 46.9514 13.9576 46.9502C13.9579 46.9491 13.9581 46.9479 13.9584 46.9468C13.9586 46.9456 13.9589 46.9444 13.9592 46.9433C13.9594 46.9421 13.9597 46.941 13.9599 46.9398C13.9602 46.9386 13.9604 46.9375 13.9607 46.9363C13.961 46.9351 13.9612 46.934 13.9615 46.9328C13.9617 46.9316 13.962 46.9304 13.9623 46.9293C13.9625 46.9281 13.9628 46.9269 13.963 46.9258C13.9633 46.9246 13.9636 46.9234 13.9638 46.9222C13.9641 46.921 13.9643 46.9199 13.9646 46.9187C13.9649 46.9175 13.9651 46.9163 13.9654 46.9151C13.9656 46.9139 13.9659 46.9128 13.9662 46.9116C13.9664 46.9104 13.9667 46.9092 13.967 46.908C13.9672 46.9068 13.9675 46.9056 13.9677 46.9044C13.968 46.9032 13.9683 46.902 13.9685 46.9009C13.9688 46.8997 13.9691 46.8985 13.9693 46.8973C13.9696 46.8961 13.9699 46.8949 13.9701 46.8937C13.9704 46.8925 13.9707 46.8913 13.9709 46.8901C13.9712 46.8889 13.9715 46.8876 13.9717 46.8864C13.972 46.8852 13.9723 46.884 13.9725 46.8828C13.9728 46.8816 13.9731 46.8804 13.9733 46.8792C13.9736 46.878 13.9739 46.8768 13.9741 46.8755C13.9744 46.8743 13.9747 46.8731 13.9749 46.8719C13.9752 46.8707 13.9755 46.8695 13.9757 46.8682C13.976 46.867 13.9763 46.8658 13.9766 46.8646C13.9768 46.8634 13.9771 46.8621 13.9774 46.8609C13.9776 46.8597 13.9779 46.8584 13.9782 46.8572C13.9784 46.856 13.9787 46.8548 13.979 46.8535C13.9793 46.8523 13.9795 46.8511 13.9798 46.8498C13.9801 46.8486 13.9804 46.8474 13.9806 46.8461C13.9809 46.8449 13.9812 46.8437 13.9814 46.8424C13.9817 46.8412 13.982 46.8399 13.9823 46.8387C13.9825 46.8375 13.9828 46.8362 13.9831 46.835C13.9834 46.8337 13.9836 46.8325 13.9839 46.8312C13.9842 46.83 13.9845 46.8287 13.9847 46.8275C13.985 46.8262 13.9853 46.825 13.9856 46.8237C13.9859 46.8225 13.9861 46.8212 13.9864 46.82C13.9867 46.8187 13.987 46.8175 13.9872 46.8162C13.9875 46.815 13.9878 46.8137 13.9881 46.8125C13.9883 46.8112 13.9886 46.8099 13.9889 46.8087C13.9892 46.8074 13.9895 46.8062 13.9897 46.8049C13.99 46.8036 13.9903 46.8024 13.9906 46.8011C13.9909 46.7998 13.9911 46.7986 13.9914 46.7973C13.9917 46.796 13.992 46.7948 13.9923 46.7935C13.9925 46.7922 13.9928 46.7909 13.9931 46.7897C13.9934 46.7884 13.9937 46.7871 13.9939 46.7858C13.9942 46.7846 13.9945 46.7833 13.9948 46.782C13.9951 46.7807 13.9954 46.7795 13.9956 46.7782C13.9959 46.7769 13.9962 46.7756 13.9965 46.7743C13.9968 46.7731 13.9971 46.7718 13.9973 46.7705C13.9976 46.7692 13.9979 46.7679 13.9982 46.7666C13.9985 46.7653 13.9988 46.764 13.9991 46.7628C13.9993 46.7615 13.9996 46.7602 13.9999 46.7589C14.0002 46.7576 14.0005 46.7563 14.0008 46.755C14.001 46.7537 14.0013 46.7524 14.0016 46.7511C14.0019 46.7498 14.0022 46.7485 14.0025 46.7472C14.0028 46.7459 14.0031 46.7446 14.0033 46.7433C14.0036 46.742 14.0039 46.7407 14.0042 46.7394C14.0045 46.7381 14.0048 46.7368 14.0051 46.7355C14.0054 46.7342 14.0056 46.7329 14.0059 46.7316C14.0062 46.7303 14.0065 46.729 14.0068 46.7277C14.0071 46.7264 14.0074 46.725 14.0077 46.7237C14.008 46.7224 14.0083 46.7211 14.0085 46.7198C14.0088 46.7185 14.0091 46.7172 14.0094 46.7159C14.0097 46.7145 14.01 46.7132 14.0103 46.7119C14.0106 46.7106 14.0109 46.7093 14.0112 46.7079C14.0115 46.7066 14.0117 46.7053 14.012 46.704C14.0123 46.7027 14.0126 46.7013 14.0129 46.7C14.0132 46.6987 14.0135 46.6974 14.0138 46.696C14.0141 46.6947 14.0144 46.6934 14.0147 46.6921C14.015 46.6907 14.0153 46.6894 14.0156 46.6881C14.0159 46.6867 14.0161 46.6854 14.0164 46.6841C14.0167 46.6827 14.017 46.6814 14.0173 46.6801C14.0176 46.6787 14.0179 46.6774 14.0182 46.6761C14.0185 46.6747 14.0188 46.6734 14.0191 46.6721C14.0194 46.6707 14.0197 46.6694 14.02 46.668C14.0203 46.6667 14.0206 46.6654 14.0209 46.664C14.0212 46.6627 14.0215 46.6613 14.0218 46.66C14.0221 46.6586 14.0224 46.6573 14.0227 46.6559C14.023 46.6546 14.0233 46.6532 14.0235 46.6519C14.0238 46.6506 14.0241 46.6492 14.0244 46.6479C14.0247 46.6465 14.025 46.6452 14.0253 46.6438C14.0256 46.6424 14.0259 46.6411 14.0262 46.6397C14.0265 46.6384 14.0268 46.637 14.0271 46.6357C14.0274 46.6343 14.0277 46.633 14.028 46.6316C14.0283 46.6303 14.0286 46.6289 14.0289 46.6275C14.0292 46.6262 14.0295 46.6248 14.0298 46.6235C14.0301 46.6221 14.0304 46.6207 14.0307 46.6194C14.031 46.618 14.0313 46.6166 14.0316 46.6153C14.0319 46.6139 14.0322 46.6125 14.0325 46.6112C14.0328 46.6098 14.0332 46.6084 14.0335 46.6071C14.0338 46.6057 14.0341 46.6043 14.0344 46.603C14.0347 46.6016 14.035 46.6002 14.0353 46.5989C14.0356 46.5975 14.0359 46.5961 14.0362 46.5947C14.0365 46.5934 14.0368 46.592 14.0371 46.5906C14.0374 46.5892 14.0377 46.5879 14.038 46.5865C14.0383 46.5851 14.0386 46.5837 14.0389 46.5824C14.0392 46.581 14.0395 46.5796 14.0398 46.5782C14.0401 46.5768 14.0404 46.5755 14.0407 46.5741C14.0411 46.5727 14.0414 46.5713 14.0417 46.5699C14.042 46.5685 14.0423 46.5672 14.0426 46.5658C14.0429 46.5644 14.0432 46.563 14.0435 46.5616C14.0438 46.5602 14.0441 46.5588 14.0444 46.5574C14.0447 46.5561 14.045 46.5547 14.0453 46.5533C14.0456 46.5519 14.046 46.5505 14.0463 46.5491C14.0466 46.5477 14.0469 46.5463 14.0472 46.5449C14.0475 46.5435 14.0478 46.5421 14.0481 46.5408C14.0484 46.5394 14.0487 46.538 14.049 46.5366C14.0493 46.5352 14.0497 46.5338 14.05 46.5324C14.0503 46.531 14.0506 46.5296 14.0509 46.5282C14.0512 46.5268 14.0515 46.5254 14.0518 46.524C14.0521 46.5226 14.0524 46.5212 14.0527 46.5198C14.0531 46.5184 14.0534 46.517 14.0537 46.5156C14.054 46.5142 14.0543 46.5128 14.0546 46.5114C14.0549 46.5099 14.0552 46.5085 14.0555 46.5071C14.0558 46.5057 14.0562 46.5043 14.0565 46.5029C14.0568 46.5015 14.0571 46.5001 14.0574 46.4987C14.0577 46.4973 14.058 46.4959 14.0583 46.4945C14.0587 46.493 14.059 46.4916 14.0593 46.4902C14.0596 46.4888 14.0599 46.4874 14.0602 46.486C14.0605 46.4846 14.0608 46.4832 14.0611 46.4817C14.0615 46.4803 14.0618 46.4789 14.0621 46.4775C14.0624 46.4761 14.0627 46.4747 14.063 46.4732C14.0633 46.4718 14.0637 46.4704 14.064 46.469C14.0643 46.4676 14.0646 46.4662 14.0649 46.4647C14.0652 46.4633 14.0655 46.4619 14.0658 46.4605C14.0662 46.4591 14.0665 46.4576 14.0668 46.4562C14.0671 46.4548 14.0674 46.4534 14.0677 46.4519C14.0681 46.4505 14.0684 46.4491 14.0687 46.4477C14.069 46.4462 14.0693 46.4448 14.0696 46.4434C14.0699 46.442 14.0703 46.4405 14.0706 46.4391C14.0709 46.4377 14.0712 46.4363 14.0715 46.4348C14.0718 46.4334 14.0721 46.432 14.0725 46.4305C14.0728 46.4291 14.0731 46.4277 14.0734 46.4262C14.0737 46.4248 14.074 46.4234 14.0744 46.4219C14.0747 46.4205 14.075 46.4191 14.0753 46.4176C14.0756 46.4162 14.0759 46.4148 14.0763 46.4133C14.0766 46.4119 14.0769 46.4105 14.0772 46.409C14.0775 46.4076 14.0778 46.4062 14.0782 46.4047C14.0785 46.4033 14.0788 46.4019 14.0791 46.4004C14.0794 46.399 14.0798 46.3975 14.0801 46.3961C14.0804 46.3947 14.0807 46.3932 14.081 46.3918C14.0813 46.3903 14.0817 46.3889 14.082 46.3875C14.0823 46.386 14.0826 46.3846 14.0829 46.3831C14.0833 46.3817 14.0836 46.3803 14.0839 46.3788C14.0842 46.3774 14.0845 46.3759 14.0849 46.3745C14.0852 46.373 14.0855 46.3716 14.0858 46.3701C14.0861 46.3687 14.0864 46.3673 14.0868 46.3658C14.0871 46.3644 14.0874 46.3629 14.0877 46.3615C14.088 46.36 14.0884 46.3586 14.0887 46.3571C14.089 46.3557 14.0893 46.3542 14.0896 46.3528C14.09 46.3513 14.0903 46.3499 14.0906 46.3484C14.0909 46.347 14.0912 46.3455 14.0916 46.3441C14.0919 46.3426 14.0922 46.3412 14.0925 46.3397C14.0929 46.3383 14.0932 46.3368 14.0935 46.3354C14.0938 46.3339 14.0941 46.3325 14.0945 46.331C14.0948 46.3296 14.0951 46.3281 14.0954 46.3267C14.0957 46.3252 14.0961 46.3237 14.0964 46.3223C14.0967 46.3208 14.097 46.3194 14.0973 46.3179C14.0977 46.3165 14.098 46.315 14.0983 46.3136C14.0986 46.3121 14.099 46.3106 14.0993 46.3092C14.0996 46.3077 14.0999 46.3063 14.1002 46.3048C14.1006 46.3034 14.1009 46.3019 14.1012 46.3004C14.1015 46.299 14.1019 46.2975 14.1022 46.2961C14.1025 46.2946 14.1028 46.2931 14.1032 46.2917C14.1035 46.2902 14.1038 46.2888 14.1041 46.2873C14.1044 46.2858 14.1048 46.2844 14.1051 46.2829C14.1054 46.2814 14.1057 46.28 14.1061 46.2785C14.1064 46.2771 14.1067 46.2756 14.107 46.2741C14.1074 46.2727 14.1077 46.2712 14.108 46.2697C14.1083 46.2683 14.1086 46.2668 14.109 46.2653C14.1093 46.2639 14.1096 46.2624 14.1099 46.2609C14.1103 46.2595 14.1106 46.258 14.1109 46.2565C14.1112 46.2551 14.1116 46.2536 14.1119 46.2522C14.1122 46.2507 14.1125 46.2492 14.1129 46.2477C14.1132 46.2463 14.1135 46.2448 14.1138 46.2433C14.1142 46.2419 14.1145 46.2404 14.1148 46.2389C14.1151 46.2375 14.1155 46.236 14.1158 46.2345C14.1161 46.2331 14.1164 46.2316 14.1168 46.2301C14.1171 46.2287 14.1174 46.2272 14.1177 46.2257C14.1181 46.2242 14.1184 46.2228 14.1187 46.2213C14.119 46.2198 14.1194 46.2184 14.1197 46.2169C14.12 46.2154 14.1203 46.2139 14.1207 46.2125C14.121 46.211 14.1213 46.2095 14.1216 46.2081C14.122 46.2066 14.1223 46.2051 14.1226 46.2036C14.1229 46.2022 14.1233 46.2007 14.1236 46.1992C14.1239 46.1977 14.1242 46.1963 14.1246 46.1948C14.1249 46.1933 14.1252 46.1919 14.1255 46.1904C14.1259 46.1889 14.1262 46.1874 14.1265 46.186C14.1268 46.1845 14.1272 46.183 14.1275 46.1815C14.1278 46.1801 14.1281 46.1786 14.1285 46.1771C14.1288 46.1756 14.1291 46.1742 14.1294 46.1727C14.1298 46.1712 14.1301 46.1697 14.1304 46.1683C14.1307 46.1668 14.1311 46.1653 14.1314 46.1638C14.1317 46.1623 14.1321 46.1609 14.1324 46.1594C14.1327 46.1579 14.133 46.1564 14.1334 46.155C14.1337 46.1535 14.134 46.152 14.1343 46.1505C14.1347 46.1491 14.135 46.1476 14.1353 46.1461C14.1356 46.1446 14.136 46.1431 14.1363 46.1417C14.1366 46.1402 14.137 46.1387 14.1373 46.1372C14.1376 46.1358 14.1379 46.1343 14.1383 46.1328C14.1386 46.1313 14.1389 46.1298 14.1392 46.1284C14.1396 46.1269 14.1399 46.1254 14.1402 46.1239C14.1405 46.1224 14.1409 46.121 14.1412 46.1195C14.1415 46.118 14.1419 46.1165 14.1422 46.115C14.1425 46.1136 14.1428 46.1121 14.1432 46.1106C14.1435 46.1091 14.1438 46.1076 14.1441 46.1062C14.1445 46.1047 14.1448 46.1032 14.1451 46.1017C14.1455 46.1002 14.1458 46.0988 14.1461 46.0973C14.1464 46.0958 14.1468 46.0943 14.1471 46.0928C14.1474 46.0914 14.1477 46.0899 14.1481 46.0884C14.1484 46.0869 14.1487 46.0854 14.149 46.084C14.1494 46.0825 14.1497 46.081 14.15 46.0795C14.1504 46.078 14.1507 46.0766 14.151 46.0751C14.1513 46.0736 14.1517 46.0721 14.152 46.0706C14.1523 46.0692 14.1526 46.0677 14.153 46.0662C14.1533 46.0647 14.1536 46.0632 14.154 46.0618C14.1543 46.0603 14.1546 46.0588 14.1549 46.0573C14.1553 46.0558 14.1556 46.0544 14.1559 46.0529C14.1562 46.0514 14.1566 46.0499 14.1569 46.0484C14.1572 46.0469 14.1576 46.0455 14.1579 46.044C14.1582 46.0425 14.1585 46.041 14.1589 46.0395C14.1592 46.0381 14.1595 46.0366 14.1598 46.0351C14.1602 46.0336 14.1605 46.0321 14.1608 46.0307C14.1612 46.0292 14.1615 46.0277 14.1618 46.0262C14.1621 46.0247 14.1625 46.0233 14.1628 46.0218C14.1631 46.0203 14.1634 46.0188 14.1638 46.0173C14.1641 46.0159 14.1644 46.0144 14.1648 46.0129C14.1651 46.0114 14.1654 46.0099 14.1657 46.0085C14.1661 46.007 14.1664 46.0055 14.1667 46.004C14.167 46.0025 14.1674 46.0011 14.1677 45.9996C14.168 45.9981 14.1684 45.9966 14.1687 45.9951C14.169 45.9937 14.1693 45.9922 14.1697 45.9907C14.17 45.9892 14.1703 45.9877 14.1706 45.9863C14.171 45.9848 14.1713 45.9833 14.1716 45.9818C14.1719 45.9803 14.1723 45.9789 14.1726 45.9774C14.1729 45.9759 14.1733 45.9744 14.1736 45.9729C14.1739 45.9715 14.1742 45.97 14.1746 45.9685C14.1749 45.967 14.1752 45.9655 14.1755 45.9641C14.1759 45.9626 14.1762 45.9611 14.1765 45.9596C14.1768 45.9582 14.1772 45.9567 14.1775 45.9552C14.1778 45.9537 14.1782 45.9522 14.1785 45.9508C14.1788 45.9493 14.1791 45.9478 14.1795 45.9463C14.1798 45.9449 14.1801 45.9434 14.1804 45.9419C14.1808 45.9404 14.1811 45.939 14.1814 45.9375C14.1817 45.936 14.1821 45.9345 14.1824 45.9331C14.1827 45.9316 14.183 45.9301 14.1834 45.9286C14.1837 45.9271 14.184 45.9257 14.1844 45.9242C14.1847 45.9227 14.185 45.9212 14.1853 45.9198C14.1857 45.9183 14.186 45.9168 14.1863 45.9153C14.1866 45.9139 14.187 45.9124 14.1873 45.9109C14.1876 45.9095 14.1879 45.908 14.1883 45.9065C14.1886 45.905 14.1889 45.9036 14.1892 45.9021C14.1896 45.9006 14.1899 45.8991 14.1902 45.8977C14.1905 45.8962 14.1909 45.8947 14.1912 45.8932C14.1915 45.8918 14.1918 45.8903 14.1922 45.8888C14.1925 45.8874 14.1928 45.8859 14.1931 45.8844C14.1935 45.8829 14.1938 45.8815 14.1941 45.88C14.1944 45.8785 14.1948 45.8771 14.1951 45.8756C14.1954 45.8741 14.1957 45.8727 14.1961 45.8712C14.1964 45.8697 14.1967 45.8682 14.197 45.8668C14.1974 45.8653 14.1977 45.8638 14.198 45.8624C14.1983 45.8609 14.1987 45.8594 14.199 45.858C14.1993 45.8565 14.1996 45.855 14.2 45.8536C14.2003 45.8521 14.2006 45.8506 14.2009 45.8492C14.2013 45.8477 14.2016 45.8462 14.2019 45.8448C14.2022 45.8433 14.2026 45.8418 14.2029 45.8404C14.2032 45.8389 14.2035 45.8374 14.2038 45.836C14.2042 45.8345 14.2045 45.833 14.2048 45.8316C14.2051 45.8301 14.2055 45.8287 14.2058 45.8272C14.2061 45.8257 14.2064 45.8243 14.2068 45.8228C14.2071 45.8213 14.2074 45.8199 14.2077 45.8184C14.2081 45.8169 14.2084 45.8155 14.2087 45.814C14.209 45.8126 14.2093 45.8111 14.2097 45.8096C14.21 45.8082 14.2103 45.8067 14.2106 45.8053C14.211 45.8038 14.2113 45.8023 14.2116 45.8009C14.2119 45.7994 14.2122 45.798 14.2126 45.7965C14.2129 45.7951 14.2132 45.7936 14.2135 45.7921C14.2139 45.7907 14.2142 45.7892 14.2145 45.7878C14.2148 45.7863 14.2151 45.7849 14.2155 45.7834C14.2158 45.7819 14.2161 45.7805 14.2164 45.779C14.2168 45.7776 14.2171 45.7761 14.2174 45.7747C14.2177 45.7732 14.218 45.7718 14.2184 45.7703C14.2187 45.7689 14.219 45.7674 14.2193 45.7659C14.2196 45.7645 14.22 45.763 14.2203 45.7616C14.2206 45.7601 14.2209 45.7587 14.2212 45.7572C14.2216 45.7558 14.2219 45.7543 14.2222 45.7529C14.2225 45.7514 14.2228 45.75 14.2232 45.7485C14.2235 45.7471 14.2238 45.7456 14.2241 45.7442C14.2244 45.7428 14.2248 45.7413 14.2251 45.7399C14.2254 45.7384 14.2257 45.737 14.226 45.7355C14.2264 45.7341 14.2267 45.7326 14.227 45.7312C14.2273 45.7297 14.2276 45.7283 14.228 45.7268C14.2283 45.7254 14.2286 45.724 14.2289 45.7225C14.2292 45.7211 14.2296 45.7196 14.2299 45.7182C14.2302 45.7168 14.2305 45.7153 14.2308 45.7139C14.2311 45.7124 14.2315 45.711 14.2318 45.7095C14.2321 45.7081 14.2324 45.7067 14.2327 45.7052C14.2331 45.7038 14.2334 45.7024 14.2337 45.7009C14.234 45.6995 14.2343 45.698 14.2346 45.6966C14.235 45.6952 14.2353 45.6937 14.2356 45.6923C14.2359 45.6909 14.2362 45.6894 14.2365 45.688C14.2369 45.6866 14.2372 45.6851 14.2375 45.6837C14.2378 45.6823 14.2381 45.6808 14.2384 45.6794C14.2388 45.678 14.2391 45.6765 14.2394 45.6751C14.2397 45.6737 14.24 45.6722 14.2403 45.6708C14.2407 45.6694 14.241 45.668 14.2413 45.6665C14.2416 45.6651 14.2419 45.6637 14.2422 45.6622C14.2426 45.6608 14.2429 45.6594 14.2432 45.658C14.2435 45.6565 14.2438 45.6551 14.2441 45.6537C14.2444 45.6523 14.2448 45.6508 14.2451 45.6494C14.2454 45.648 14.2457 45.6466 14.246 45.6451C14.2463 45.6437 14.2466 45.6423 14.247 45.6409C14.2473 45.6395 14.2476 45.638 14.2479 45.6366C14.2482 45.6352 14.2485 45.6338 14.2488 45.6324C14.2492 45.6309 14.2495 45.6295 14.2498 45.6281C14.2501 45.6267 14.2504 45.6253 14.2507 45.6239C14.251 45.6224 14.2513 45.621 14.2517 45.6196C14.252 45.6182 14.2523 45.6168 14.2526 45.6154C14.2529 45.614 14.2532 45.6125 14.2535 45.6111C14.2538 45.6097 14.2542 45.6083 14.2545 45.6069C14.2548 45.6055 14.2551 45.6041 14.2554 45.6027C14.2557 45.6013 14.256 45.5999 14.2563 45.5984C14.2566 45.597 14.257 45.5956 14.2573 45.5942C14.2576 45.5928 14.2579 45.5914 14.2582 45.59C14.2585 45.5886 14.2588 45.5872 14.2591 45.5858C14.2594 45.5844 14.2598 45.583 14.2601 45.5816C14.2604 45.5802 14.2607 45.5788 14.261 45.5774C14.2613 45.576 14.2616 45.5746 14.2619 45.5732C14.2622 45.5718 14.2625 45.5704 14.2628 45.569C14.2632 45.5676 14.2635 45.5662 14.2638 45.5648C14.2641 45.5634 14.2644 45.562 14.2647 45.5606C14.265 45.5592 14.2653 45.5578 14.2656 45.5564C14.2659 45.5551 14.2662 45.5537 14.2665 45.5523C14.2668 45.5509 14.2672 45.5495 14.2675 45.5481C14.2678 45.5467 14.2681 45.5453 14.2684 45.5439C14.2687 45.5425 14.269 45.5412 14.2693 45.5398C14.2696 45.5384 14.2699 45.537 14.2702 45.5356C14.2705 45.5342 14.2708 45.5328 14.2711 45.5315C14.2714 45.5301 14.2717 45.5287 14.2721 45.5273C14.2724 45.5259 14.2727 45.5246 14.273 45.5232C14.2733 45.5218 14.2736 45.5204 14.2739 45.519C14.2742 45.5177 14.2745 45.5163 14.2748 45.5149C14.2751 45.5135 14.2754 45.5122 14.2757 45.5108C14.276 45.5094 14.2763 45.508 14.2766 45.5067C14.2769 45.5053 14.2772 45.5039 14.2775 45.5025C14.2778 45.5012 14.2781 45.4998 14.2784 45.4984C14.2787 45.4971 14.279 45.4957 14.2793 45.4943C14.2796 45.493 14.2799 45.4916 14.2803 45.4902C14.2806 45.4889 14.2809 45.4875 14.2812 45.4861C14.2815 45.4848 14.2818 45.4834 14.2821 45.482C14.2824 45.4807 14.2827 45.4793 14.283 45.478C14.2833 45.4766 14.2836 45.4752 14.2839 45.4739C14.2842 45.4725 14.2845 45.4712 14.2848 45.4698C14.2851 45.4684 14.2854 45.4671 14.2857 45.4657C14.286 45.4644 14.2863 45.463 14.2866 45.4617C14.2869 45.4603 14.2872 45.459 14.2875 45.4576C14.2878 45.4563 14.2881 45.4549 14.2884 45.4536C14.2887 45.4522 14.2889 45.4509 14.2892 45.4495C14.2895 45.4482 14.2898 45.4468 14.2901 45.4455C14.2904 45.4441 14.2907 45.4428 14.291 45.4414C14.2913 45.4401 14.2916 45.4388 14.2919 45.4374C14.2922 45.4361 14.2925 45.4347 14.2928 45.4334C14.2931 45.4321 14.2934 45.4307 14.2937 45.4294C14.294 45.428 14.2943 45.4267 14.2946 45.4254C14.2949 45.424 14.2952 45.4227 14.2955 45.4214C14.2958 45.42 14.2961 45.4187 14.2964 45.4174C14.2966 45.416 14.2969 45.4147 14.2972 45.4134C14.2975 45.412 14.2978 45.4107 14.2981 45.4094C14.2984 45.4081 14.2987 45.4067 14.299 45.4054C14.2993 45.4041 14.2996 45.4027 14.2999 45.4014C14.3002 45.4001 14.3005 45.3988 14.3008 45.3975C14.301 45.3961 14.3013 45.3948 14.3016 45.3935C14.3019 45.3922 14.3022 45.3909 14.3025 45.3895C14.3028 45.3882 14.3031 45.3869 14.3034 45.3856C14.3037 45.3843 14.304 45.383 14.3042 45.3816C14.3045 45.3803 14.3048 45.379 14.3051 45.3777C14.3054 45.3764 14.3057 45.3751 14.306 45.3738C14.3063 45.3725 14.3066 45.3712 14.3068 45.3699C14.3071 45.3686 14.3074 45.3672 14.3077 45.3659C14.308 45.3646 14.3083 45.3633 14.3086 45.362C14.3089 45.3607 14.3092 45.3594 14.3094 45.3581C14.3097 45.3568 14.31 45.3555 14.3103 45.3542C14.3106 45.3529 14.3109 45.3516 14.3112 45.3503C14.3114 45.349 14.3117 45.3477 14.312 45.3465C14.3123 45.3452 14.3126 45.3439 14.3129 45.3426C14.3132 45.3413 14.3134 45.34 14.3137 45.3387C14.314 45.3374 14.3143 45.3361 14.3146 45.3348C14.3149 45.3336 14.3152 45.3323 14.3154 45.331C14.3157 45.3297 14.316 45.3284 14.3163 45.3271C14.3166 45.3259 14.3169 45.3246 14.3171 45.3233C14.3174 45.322 14.3177 45.3207 14.318 45.3195C14.3183 45.3182 14.3185 45.3169 14.3188 45.3156C14.3191 45.3144 14.3194 45.3131 14.3197 45.3118C14.32 45.3105 14.3202 45.3093 14.3205 45.308C14.3208 45.3067 14.3211 45.3055 14.3214 45.3042C14.3216 45.3029 14.3219 45.3017 14.3222 45.3004C14.3225 45.2991 14.3228 45.2979 14.323 45.2966C14.3233 45.2953 14.3236 45.2941 14.3239 45.2928C14.3242 45.2916 14.3244 45.2903 14.3247 45.289C14.325 45.2878 14.3253 45.2865 14.3255 45.2853C14.3258 45.284 14.3261 45.2828 14.3264 45.2815C14.3266 45.2803 14.3269 45.279 14.3272 45.2778C14.3275 45.2765 14.3278 45.2753 14.328 45.274C14.3283 45.2728 14.3286 45.2715 14.3289 45.2703C14.3291 45.269 14.3294 45.2678 14.3297 45.2665C14.33 45.2653 14.3302 45.264 14.3305 45.2628C14.3308 45.2616 14.3311 45.2603 14.3313 45.2591C14.3316 45.2579 14.3319 45.2566 14.3321 45.2554C14.3324 45.2541 14.3327 45.2529 14.333 45.2517C14.3332 45.2504 14.3335 45.2492 14.3338 45.248C14.3341 45.2468 14.3343 45.2455 14.3346 45.2443C14.3349 45.2431 14.3351 45.2418 14.3354 45.2406C14.3357 45.2394 14.3359 45.2382 14.3362 45.237C14.3365 45.2357 14.3368 45.2345 14.337 45.2333C14.3373 45.2321 14.3376 45.2309 14.3378 45.2296C14.3381 45.2284 14.3384 45.2272 14.3386 45.226C14.3389 45.2248 14.3392 45.2236 14.3394 45.2224C14.3397 45.2211 14.34 45.2199 14.3402 45.2187C14.3405 45.2175 14.3408 45.2163 14.341 45.2151C14.3413 45.2139 14.3416 45.2127 14.3418 45.2115C14.3421 45.2103 14.3424 45.2091 14.3426 45.2079C14.3429 45.2067 14.3432 45.2055 14.3434 45.2043C14.3437 45.2031 14.344 45.2019 14.3442 45.2007C14.3445 45.1995 14.3448 45.1983 14.345 45.1971C14.3453 45.1959 14.3455 45.1947 14.3458 45.1935C14.3461 45.1924 14.3463 45.1912 14.3466 45.19C14.3469 45.1888 14.3471 45.1876 14.3474 45.1864C14.3476 45.1852 14.3479 45.1841 14.3482 45.1829C14.3484 45.1817 14.3487 45.1805 14.3489 45.1793C14.3492 45.1782 14.3495 45.177 14.3497 45.1758C14.35 45.1746 14.3502 45.1735 14.3505 45.1723C14.3508 45.1711 14.351 45.17 14.3513 45.1688C14.3515 45.1676 14.3518 45.1665 14.3521 45.1653C14.3523 45.1641 14.3526 45.163 14.3528 45.1618C14.3531 45.1606 14.3533 45.1595 14.3536 45.1583C14.3539 45.1571 14.3541 45.156 14.3544 45.1548C14.3546 45.1537 14.3549 45.1525 14.3551 45.1514C14.3554 45.1502 14.3556 45.1491 14.3559 45.1479C14.3562 45.1468 14.3564 45.1456 14.3567 45.1445C14.3569 45.1433 14.3572 45.1422 14.3574 45.141C14.3577 45.1399 14.3579 45.1387 14.3582 45.1376C14.3584 45.1364 14.3587 45.1353 14.3589 45.1342C14.3592 45.133 14.3594 45.1319 14.3597 45.1307C14.3599 45.1296 14.3602 45.1285 14.3604 45.1273C14.3607 45.1262 14.3609 45.1251 14.3612 45.124C14.3614 45.1228 14.3617 45.1217 14.3619 45.1206C14.3622 45.1194 14.3624 45.1183 14.3627 45.1172C14.3629 45.1161 14.3632 45.1149 14.3634 45.1138C14.3637 45.1127 14.3639 45.1116 14.3642 45.1105C14.3644 45.1094 14.3647 45.1082 14.3649 45.1071C14.3652 45.106 14.3654 45.1049 14.3656 45.1038C14.3659 45.1027 14.3661 45.1016 14.3664 45.1005C14.3666 45.0993 14.3669 45.0982 14.3671 45.0971C14.3674 45.096 14.3676 45.0949 14.3678 45.0938C14.3681 45.0927 14.3683 45.0916 14.3686 45.0905C14.3688 45.0894 14.3691 45.0883 14.3693 45.0872C14.3695 45.0861 14.3698 45.085 14.37 45.084C14.3703 45.0829 14.3705 45.0818 14.3708 45.0807C14.371 45.0796 14.3712 45.0785 14.3715 45.0774C14.3717 45.0763 14.3719 45.0753 14.3722 45.0742C14.3724 45.0731 14.3727 45.072 14.3729 45.0709C14.3731 45.0699 14.3734 45.0688 14.3736 45.0677C14.3739 45.0666 14.3741 45.0656 14.3743 45.0645C14.3746 45.0634 14.3748 45.0623 14.375 45.0613C14.3753 45.0602 14.3755 45.0591 14.3757 45.0581C14.376 45.057 14.3762 45.0559 14.3765 45.0549C14.3767 45.0538 14.3769 45.0528 14.3772 45.0517C14.3774 45.0506 14.3776 45.0496 14.3779 45.0485C14.3781 45.0475 14.3783 45.0464 14.3786 45.0454C14.3788 45.0443 14.379 45.0433 14.3793 45.0422C14.3795 45.0412 14.3797 45.0401 14.3799 45.0391C14.3802 45.038 14.3804 45.037 14.3806 45.036C14.3809 45.0349 14.3811 45.0339 14.3813 45.0328C14.3816 45.0318 14.3818 45.0308 14.382 45.0297C14.3822 45.0287 14.3825 45.0277 14.3827 45.0266C14.3829 45.0256 14.3832 45.0246 14.3834 45.0235C14.3836 45.0225 14.3838 45.0215 14.3841 45.0205C14.3843 45.0194 14.3845 45.0184 14.3847 45.0174C14.385 45.0164 14.3852 45.0154 14.3854 45.0143C14.3856 45.0133 14.3859 45.0123 14.3861 45.0113C14.3863 45.0103 14.3865 45.0093 14.3868 45.0083C14.387 45.0073 14.3872 45.0062 14.3874 45.0052C14.3876 45.0042 14.3879 45.0032 14.3881 45.0022C14.3883 45.0012 14.3885 45.0002 14.3888 44.9992C14.389 44.9982 14.3892 44.9972 14.3894 44.9962C14.3896 44.9952 14.3899 44.9942 14.3901 44.9933C14.3903 44.9923 14.3905 44.9913 14.3907 44.9903C14.3909 44.9893 14.3912 44.9883 14.3914 44.9873C14.3916 44.9863 14.3918 44.9854 14.392 44.9844C14.3922 44.9834 14.3925 44.9824 14.3927 44.9814C14.3929 44.9805 14.3931 44.9795 14.3933 44.9785C14.3935 44.9775 14.3938 44.9766 14.394 44.9756C14.3942 44.9746 14.3944 44.9737 14.3946 44.9727C14.3948 44.9717 14.395 44.9708 14.3952 44.9698C14.3955 44.9689 14.3957 44.9679 14.3959 44.9669C14.3961 44.966 14.3963 44.965 14.3965 44.9641C14.3967 44.9631 14.3969 44.9622 14.3972 44.9612C14.3974 44.9603 14.3976 44.9593 14.3978 44.9584C14.398 44.9574 14.3982 44.9565 14.3984 44.9555C14.3986 44.9546 14.3988 44.9536 14.399 44.9527C14.3992 44.9518 14.3994 44.9508 14.3997 44.9499C14.3999 44.949 14.4001 44.948 14.4003 44.9471L13.4243 44.7282ZM12.8863 47.0142L12.4978 47.7962L13.3931 48.2439L13.7816 47.4618L12.8863 47.0142ZM11.702 48.384L11.299 48.4501L11.4637 49.4374L11.8667 49.3713L11.702 48.384ZM11.3668 48.4437L10.4336 48.4681L10.4628 49.4682L11.3959 49.4438L11.3668 48.4437ZM11.8511 41.9891L9.52332 41.4391L9.29651 42.4127L11.6243 42.9628L11.8511 41.9891ZM12.4978 47.7962C12.3425 48.1089 12.0465 48.3275 11.702 48.384L11.8667 49.3713C12.5275 49.2629 13.0952 48.8435 13.3931 48.2439L12.4978 47.7962ZM12.9741 46.7655C12.955 46.8517 12.9256 46.935 12.8863 47.0142L13.7816 47.4618C13.8569 47.3102 13.9135 47.1501 13.9501 46.9844L12.9741 46.7655ZM12.7057 42.4236C12.4556 42.204 12.1584 42.0617 11.8511 41.9891L11.6243 42.9628C11.7886 43.0016 11.9334 43.0743 12.0478 43.1748L12.7057 42.4236Z" fill="#182338"/>
</g>
<defs>
<radialGradient id="paint0_radial_2574_74" cx="0" cy="0" r="1" gradientUnits="userSpaceOnUse" gradientTransform="translate(57.8526 46.6093) rotate(55.538) scale(46.048 59.4435)">
<stop stop-color="#A6FFD4"/>
<stop offset="0.48193" stop-color="#83EAE4" stop-opacity="0.31"/>
<stop offset="1" stop-color="#C037C2" stop-opacity="0.96"/>
</radialGradient>
<radialGradient id="paint1_radial_2574_74" cx="0" cy="0" r="1" gradientUnits="userSpaceOnUse" gradientTransform="translate(57.167 46.6519) rotate(55.5373) scale(43.8905 56.6586)">
<stop stop-color="#A6FFD4"/>
<stop offset="0.48193" stop-color="#83EAE4" stop-opacity="0.31"/>
<stop offset="1" stop-color="#C037C2" stop-opacity="0.96"/>
</radialGradient>
<radialGradient id="paint2_radial_2574_74" cx="0" cy="0" r="1" gradientUnits="userSpaceOnUse" gradientTransform="translate(30.1609 70.1009) rotate(64.0216) scale(134.064 1234.13)">
<stop stop-color="#4BF2A2"/>
<stop offset="0.421875" stop-color="#564D8F"/>
<stop offset="1" stop-color="#DD40CD"/>
</radialGradient>
<linearGradient id="paint3_linear_2574_74" x1="17.8536" y1="10.7377" x2="87.0529" y2="133.138" gradientUnits="userSpaceOnUse">
<stop stop-color="#F4F4F4"/>
<stop offset="0.358938" stop-color="#F9F9F9"/>
<stop offset="0.48193" stop-color="#FABAFC" stop-opacity="0.28"/>
<stop offset="0.567848" stop-color="#F7F7F7" stop-opacity="0.96"/>
</linearGradient>
<radialGradient id="paint4_radial_2574_74" cx="0" cy="0" r="1" gradientUnits="userSpaceOnUse" gradientTransform="translate(44.342 89.8209) rotate(49.8858) scale(28.2552 36.9036)">
<stop stop-color="#F4F4F4"/>
<stop offset="0.48193" stop-color="#361836" stop-opacity="0.22"/>
<stop offset="1" stop-color="#C037C2" stop-opacity="0.96"/>
</radialGradient>
<radialGradient id="paint5_radial_2574_74" cx="0" cy="0" r="1" gradientUnits="userSpaceOnUse" gradientTransform="translate(48.5057 47.6721) rotate(30.7071) scale(32.548 252.878)">
<stop stop-color="#4BF2A2"/>
<stop offset="0.421875" stop-color="#564D8F"/>
<stop offset="1" stop-color="#DD40CD"/>
</radialGradient>
<radialGradient id="paint6_radial_2574_74" cx="0" cy="0" r="1" gradientUnits="userSpaceOnUse" gradientTransform="translate(51.9323 46.6147) rotate(31.5322) scale(23.2808 185.282)">
<stop stop-color="#4BF2A2"/>
<stop offset="0.421875" stop-color="#564D8F"/>
<stop offset="1" stop-color="#DD40CD"/>
</radialGradient>
<radialGradient id="paint7_radial_2574_74" cx="0" cy="0" r="1" gradientUnits="userSpaceOnUse" gradientTransform="translate(48.4246 20.9638) rotate(71.0122) scale(87.6982 688.076)">
<stop stop-color="#4BF2A2"/>
<stop offset="0.421875" stop-color="#564D8F"/>
<stop offset="1" stop-color="#DD40CD"/>
</radialGradient>
<radialGradient id="paint8_radial_2574_74" cx="0" cy="0" r="1" gradientUnits="userSpaceOnUse" gradientTransform="translate(57.8323 47.062) rotate(19.0896) scale(24.5573 14.1082)">
<stop stop-color="#F4F4F4"/>
<stop offset="0.48193" stop-color="#F4F4F4"/>
<stop offset="1" stop-color="#C037C2" stop-opacity="0.96"/>
</radialGradient>
<radialGradient id="paint9_radial_2574_74" cx="0" cy="0" r="1" gradientUnits="userSpaceOnUse" gradientTransform="translate(60.8668 12.9077) rotate(53.2675) scale(44.1503 57.5323)">
<stop stop-color="#060006"/>
<stop offset="0.567708" stop-color="#BAAEBA" stop-opacity="0.566733"/>
<stop offset="1" stop-color="#C037C2" stop-opacity="0.96"/>
</radialGradient>
<radialGradient id="paint10_radial_2574_74" cx="0" cy="0" r="1" gradientUnits="userSpaceOnUse" gradientTransform="translate(54.2803 20.8031) rotate(62.3654) scale(32.3355 35.3228)">
<stop stop-color="#2F6756"/>
<stop offset="0.427083" stop-color="#1B0724"/>
<stop offset="0.699054" stop-color="#2F1A51"/>
<stop offset="1" stop-color="#7C2BA3"/>
</radialGradient>
<radialGradient id="paint11_radial_2574_74" cx="0" cy="0" r="1" gradientUnits="userSpaceOnUse" gradientTransform="translate(74.5859 25.5151) rotate(87.577) scale(29.084 86.2515)">
<stop stop-color="#4BF2A2"/>
<stop offset="0.421875" stop-color="#564D8F"/>
<stop offset="1" stop-color="#DD40CD"/>
</radialGradient>
<radialGradient id="paint12_radial_2574_74" cx="0" cy="0" r="1" gradientUnits="userSpaceOnUse" gradientTransform="translate(52.8815 67.644) rotate(58.4636) scale(17.2355 19.7233)">
<stop stop-color="#DDDDDD"/>
<stop offset="0.1875" stop-color="#CACACA"/>
<stop offset="0.32884" stop-color="#CB9CCC"/>
<stop offset="0.699054" stop-color="#DADADA"/>
<stop offset="1" stop-color="#EFEFEF"/>
</radialGradient>
<radialGradient id="paint13_radial_2574_74" cx="0" cy="0" r="1" gradientUnits="userSpaceOnUse" gradientTransform="translate(84.5493 68.694) rotate(73.2373) scale(54.6002 55.8775)">
<stop stop-color="#F4F4F4"/>
<stop offset="0.0001" stop-color="#DD40CD" stop-opacity="0.27"/>
<stop offset="0.48193" stop-color="#E258E4" stop-opacity="0.22"/>
<stop offset="1" stop-color="#C037C2" stop-opacity="0.96"/>
</radialGradient>
<radialGradient id="paint14_radial_2574_74" cx="0" cy="0" r="1" gradientUnits="userSpaceOnUse" gradientTransform="translate(17.9167 48.3907) rotate(80.3651) scale(16.3594 86.9804)">
<stop stop-color="#4BF2A2"/>
<stop offset="0.421875" stop-color="#564D8F"/>
<stop offset="1" stop-color="#DD40CD"/>
</radialGradient>
<radialGradient id="paint15_radial_2574_74" cx="0" cy="0" r="1" gradientUnits="userSpaceOnUse" gradientTransform="translate(9.25222 43.8051) rotate(72.6252) scale(28.5381 222.78)">
<stop stop-color="#4BF2A2"/>
<stop offset="0.421875" stop-color="#564D8F"/>
<stop offset="1" stop-color="#DD40CD"/>
</radialGradient>
<radialGradient id="paint16_radial_2574_74" cx="0" cy="0" r="1" gradientUnits="userSpaceOnUse" gradientTransform="translate(13.2692 41.045) rotate(54.6499) scale(14.1172 18.957)">
<stop stop-color="#2DCA3C" stop-opacity="0.4"/>
<stop offset="0.453125" stop-color="#E3E3E3" stop-opacity="0.566733"/>
<stop offset="1" stop-color="#F4F4F4"/>
</radialGradient>
<radialGradient id="paint17_radial_2574_74" cx="0" cy="0" r="1" gradientUnits="userSpaceOnUse" gradientTransform="translate(13.6316 41.0768) rotate(56.0663) scale(13.8309 18.435)">
<stop stop-color="#F4F4F4"/>
<stop offset="0.48193" stop-color="#BAAEBA" stop-opacity="0.566733"/>
<stop offset="1" stop-color="#C037C2" stop-opacity="0.96"/>
<stop offset="1" stop-color="#98FF7E" stop-opacity="0.96"/>
</radialGradient>
<radialGradient id="paint18_radial_2574_74" cx="0" cy="0" r="1" gradientUnits="userSpaceOnUse" gradientTransform="translate(97.8729 57.5008) rotate(80.3674) scale(16.3573 86.9582)">
<stop stop-color="#4BF2A2"/>
<stop offset="0.421875" stop-color="#564D8F"/>
<stop offset="1" stop-color="#DD40CD"/>
</radialGradient>
<radialGradient id="paint19_radial_2574_74" cx="0" cy="0" r="1" gradientUnits="userSpaceOnUse" gradientTransform="translate(102.256 54.062) rotate(68.684) scale(29.814 249.099)">
<stop stop-color="#4BF2A2"/>
<stop offset="0.421875" stop-color="#564D8F"/>
<stop offset="1" stop-color="#DD40CD"/>
</radialGradient>
<radialGradient id="paint20_radial_2574_74" cx="0" cy="0" r="1" gradientUnits="userSpaceOnUse" gradientTransform="translate(106.817 51.4216) rotate(50.3264) scale(15.4672 20.2115)">
<stop stop-color="#F4F4F4"/>
<stop offset="0.48193" stop-color="#BAAEBA" stop-opacity="0.566733"/>
<stop offset="1" stop-color="#C037C2" stop-opacity="0.96"/>
<stop offset="1" stop-color="#98FF7E" stop-opacity="0.96"/>
</radialGradient>
<radialGradient id="paint21_radial_2574_74" cx="0" cy="0" r="1" gradientUnits="userSpaceOnUse" gradientTransform="translate(106.488 51.3949) rotate(51.6913) scale(15.0923 19.7221)">
<stop stop-color="#F4F4F4"/>
<stop offset="0.48193" stop-color="#BAAEBA" stop-opacity="0.566733"/>
<stop offset="1" stop-color="#C037C2" stop-opacity="0.96"/>
<stop offset="1" stop-color="#98FF7E" stop-opacity="0.96"/>
</radialGradient>
<radialGradient id="paint22_radial_2574_74" cx="0" cy="0" r="1" gradientUnits="userSpaceOnUse" gradientTransform="translate(16.2756 38.4431) rotate(83.1064) scale(15.5123 11.1029)">
<stop stop-color="#4BF2A2"/>
<stop offset="0.203125" stop-color="#4EC99D"/>
<stop offset="0.421875" stop-color="#564D8F"/>
<stop offset="0.77773" stop-color="#221E3C"/>
<stop offset="1" stop-color="#010109"/>
<stop offset="1" stop-color="#010109"/>
</radialGradient>
<radialGradient id="paint23_radial_2574_74" cx="0" cy="0" r="1" gradientUnits="userSpaceOnUse" gradientTransform="translate(14.8219 38.3281) rotate(80.8954) scale(32.1983 194.375)">
<stop stop-color="#4BF2A2"/>
<stop offset="0.421875" stop-color="#564D8F"/>
<stop offset="1" stop-color="#DD40CD"/>
</radialGradient>
</defs>
</svg>
