<svg width="363" height="100" viewBox="0 0 363 100" fill="none" xmlns="http://www.w3.org/2000/svg">
<g opacity="0.5">
<path d="M164.781 34.5111L149.476 28.5177C149.583 28.1297 149.636 27.7286 149.633 27.3259C149.609 25.6931 148.505 24.4343 146.369 23.6461C144.591 23.0658 142.734 22.764 140.864 22.7516L132.079 16.9378C130.586 15.9416 128.83 15.4127 127.035 15.4186C124.659 15.4291 122.967 15.2795 122.388 15.0096C121.629 14.6575 114.908 11.5843 113.16 11.8417C112.114 11.9955 100.916 10.7646 93.6154 9.91147C92.3221 9.49258 72.762 3.18792 63.7924 2.71174C54.8228 2.23556 31.8743 -6.85863 31.6444 -6.95199L31.5635 -6.95629C31.3519 -6.99314 10.7498 -10.7264 8.13736 -11.1555C7.42613 -11.2744 6.18619 -11.6521 4.31106 -12.2129C-4.95985 -15.0629 -14.3947 -17.3495 -23.9417 -19.0602C-38.1519 -21.7109 -51.7277 -28.1037 -58.5493 -31.7118L-59.1394 -32.0208L-61.8665 19.3481L-61.4406 19.3707C-55.8796 19.6915 -54.3144 20.0565 -53.8802 20.2462C-52.6904 20.7621 -36.2131 21.6582 -13.0667 22.84C-4.44205 23.2978 3.70133 23.7302 7.98842 23.9919C19.9918 24.7658 22.3873 26.3067 22.6217 26.4772C31.5086 38.1649 49.6033 38.0407 51.2709 38.0053C53.9784 39.4603 61.2554 40.2823 65.6453 40.7801C67.1059 40.9431 68.4856 41.1017 68.7034 41.1816C71.2973 42.2035 75.3476 42.9823 77.4506 43.3544L77.4064 43.382L78.6361 43.5498L78.7298 43.5548C81.6701 46.3376 85.5976 47.2594 87.9513 47.8157C88.7952 48.01 89.74 48.2353 89.9441 48.4127C90.1363 49.6188 93.1051 53.2317 93.7074 53.9556L93.7847 54.028C93.8299 54.0603 98.2417 57.2843 99.5362 60.2531C100.359 62.1376 102.423 64.2803 104.249 66.171C105.464 67.4272 106.601 68.6108 106.977 69.3355C107.654 70.6528 111.696 74.4892 114.972 77.4735C116.259 78.6445 117.91 79.3356 119.647 79.4302L119.975 79.4476C120.637 79.4528 121.125 79.4317 121.146 79.4329L121.193 79.4354C123.601 79.0592 123.986 76.1411 124.02 74.4601C124.022 74.124 123.948 73.7918 123.804 73.4883C123.659 73.1848 123.448 72.9179 123.186 72.7074L122.532 72.1602L122.037 71.7452L121.935 71.6544L121.866 71.5952L121.612 71.3767L121.51 71.2859L121.331 71.1311L120.924 70.7508L120.903 70.7496C120.64 70.5395 120.405 70.2975 120.202 70.0291C120.004 69.6705 119.787 69.3225 119.552 68.9866C118.291 67.0916 115.506 63.2194 113.674 60.6534L112.573 58.2971L112.462 58.0563L111.81 56.6635L110.114 53.0455L110.026 52.8529C109.059 50.7942 108.203 48.9848 107.898 48.3749C107.867 48.3053 107.832 48.2378 107.793 48.1729C107.783 48.1526 107.771 48.1333 107.758 48.1155C107.287 47.4925 103.674 43.9351 101.799 42.0972L101.21 41.5192C101.227 41.4296 101.263 41.3446 101.315 41.2694C101.366 41.1942 101.433 41.1306 101.511 41.0825C102.027 40.7639 103.065 41.0027 103.531 41.1598C107.122 46.322 115.354 49.5096 116.097 49.6772C116.244 49.7616 116.382 49.8605 116.509 49.9724C117.365 50.6543 119.255 52.3776 120.963 54.0016C122.362 56.7752 136.704 64.2678 139.198 65.5534L139.402 65.6582C142.559 67.1627 146.195 67.6333 148.079 67.7803C148.842 67.8433 149.609 67.726 150.318 67.4379C153.962 65.8973 154.169 62.6495 153.969 60.8536C153.952 60.7079 153.924 60.5637 153.885 60.422C153.753 59.9051 153.503 59.4261 153.154 59.0228C152.804 58.6195 152.366 58.3031 151.873 58.0985C139.569 52.9307 128.311 42.4668 127.107 40.6048C125.903 38.7427 117.256 33.0772 113.619 30.7101L128.739 32.713C130.766 34.7512 143.094 39.7066 144.68 40.3375C147.165 41.802 152.263 43.1191 156.668 44.0576C157.297 44.1935 157.935 44.3214 158.505 44.4371C160.769 44.892 163.12 44.4317 165.044 43.1569L165.425 42.9081C165.928 42.5727 166.348 42.1265 166.653 41.6038C166.958 41.081 167.139 40.4955 167.182 39.892L167.282 38.4964C167.351 37.6512 167.145 36.8063 166.694 36.088C166.243 35.3696 165.572 34.8165 164.781 34.5111ZM109.917 29.3262L110.086 29.4335C108.345 29.4094 107.131 29.8275 106.474 30.6896C105.414 32.0812 106.251 34.022 106.294 34.0969L107.076 33.754C107.076 33.754 106.408 32.1852 107.165 31.1961C107.803 30.3544 109.36 30.0868 111.641 30.4044C112.33 30.8467 113.218 31.415 114.217 32.0702C118.725 35.0174 125.473 39.604 126.397 41.0284C127.952 43.4301 139.691 53.8597 151.548 58.8414C151.977 59.012 152.353 59.2958 152.634 59.6627C152.916 60.0296 153.092 60.4659 153.145 60.9251C153.36 62.8329 152.991 65.3716 150.011 66.6315C149.426 66.8658 148.796 66.9609 148.168 66.9095C146.343 66.7656 142.831 66.3144 139.806 64.8767L139.154 64.5388C132.553 61.1132 123.134 55.7527 121.835 53.7489C121.797 53.6898 121.763 53.6281 121.734 53.5642L121.7 53.4812L121.635 53.418C119.508 51.3916 116.862 48.9533 116.351 48.8365C115.592 48.6552 107.526 45.4722 104.183 40.5452L104.108 40.4302L104.053 40.4273L103.981 40.4021C103.649 40.2796 103.307 40.1884 102.958 40.13L102.847 40.1241C102.555 40.0746 102.257 40.0588 101.961 40.0771C101.655 40.1016 101.358 40.1954 101.092 40.3513C100.898 40.4745 100.734 40.6392 100.612 40.8336C100.489 41.028 100.411 41.2472 100.384 41.4754C99.0951 42.8976 98.5289 44.23 98.6959 45.4305C98.7556 45.8383 98.9005 46.2289 99.1211 46.5769C99.3418 46.9249 99.6334 47.2225 99.9767 47.4504L100.417 46.722C100.184 46.5578 99.9861 46.3484 99.8353 46.1064C99.6846 45.8644 99.5839 45.5946 99.5392 45.313C99.4183 44.4523 99.8584 43.4037 100.811 42.2839C103.214 44.6368 106.789 48.1751 107.043 48.5473C107.082 48.6135 107.232 48.9247 107.466 49.424C108.485 51.5581 111.078 57.0944 112.899 61.0009L112.938 61.0714C115.326 64.3715 119.168 69.7948 119.374 70.2542C119.428 70.4407 119.514 70.7571 122.627 73.3398C122.791 73.4725 122.923 73.6409 123.013 73.8321C123.103 74.0233 123.148 74.2324 123.145 74.4436C123.146 75.0716 123.081 75.698 122.952 76.3126C122.706 77.3973 122.183 78.4073 121.079 78.605C120.973 78.5993 120.536 78.6231 119.976 78.6191C118.329 78.6038 116.744 77.983 115.525 76.875C111.043 72.7931 108.206 69.909 107.713 68.9817C107.655 68.8683 107.591 68.7579 107.522 68.6511C106.711 67.5673 105.815 66.55 104.843 65.6089C103.07 63.7721 101.057 61.6878 100.296 59.9432C98.9677 56.8829 94.8106 53.7707 94.3091 53.4024C92.6027 51.3514 90.8195 48.899 90.7693 48.3155C90.7544 48.1865 90.7078 48.0631 90.6338 47.9563C90.5597 47.8496 90.4605 47.7627 90.3448 47.7036C89.6409 47.3762 88.896 47.1455 88.1303 47.018L87.1645 46.7873L87.1006 46.7839L86.6794 46.6719L86.5068 46.6243L86.1487 46.5326L85.9342 46.47L85.606 46.3757L85.3624 46.2987L85.0473 46.2008L84.7913 46.1146L84.4811 46.0042L84.2128 45.9088L83.9031 45.7898L83.6269 45.6812L83.3219 45.554L83.0424 45.4281L82.7381 45.2881L82.4593 45.1494L82.1558 44.9923L81.8817 44.8454L81.5792 44.6713L81.3103 44.5075C81.2067 44.4465 81.1119 44.3817 81.0129 44.3166L80.7448 44.1358L80.4526 43.9281L80.194 43.7307C80.0954 43.6572 80.0013 43.5796 79.9072 43.502L79.6538 43.2878L79.552 43.1927C79.6224 43.1537 79.7011 43.1194 79.7843 43.0811C81.174 42.721 82.5135 42.1896 83.7721 41.499L83.8019 41.5006C84.2674 41.2458 84.7114 40.9537 85.1296 40.6271L85.1565 40.6029C85.2323 40.5429 85.3126 40.4788 85.3888 40.4103C85.4651 40.3417 85.6169 40.2174 85.7248 40.1163L85.7461 40.1174L85.89 39.9799C86.0295 39.8463 86.1605 39.7123 86.2832 39.5736C86.9342 38.8616 87.4352 38.0258 87.7564 37.1161C88.0777 36.2064 88.2126 35.2414 88.1532 34.2785C88.3259 33.0873 88.0526 31.8742 87.3858 30.8721L87.3027 30.7481L87.279 30.7127C86.9585 30.1565 86.5205 29.6769 85.9953 29.3077L85.89 29.1996L85.8687 29.1985C85.7872 29.1258 85.7016 29.0487 85.6115 28.9756L85.5501 28.9253L85.4745 28.8999C85.4533 28.8988 83.2137 28.1222 81.1042 27.3097L80.9536 27.2505L80.9025 27.2478C79.932 26.8631 78.9797 26.458 78.1543 26.0768L78.0877 26.0434L78.0209 26.0142L77.8591 25.9245C77.8591 25.9245 77.0299 25.4533 75.9374 24.8743C75.6346 24.7044 75.285 24.5321 74.9096 24.3627C74.339 24.0889 73.7881 23.8461 73.2399 23.6334L72.0911 23.3076C70.6721 22.8436 69.2621 22.4527 68.3059 22.2012L68.0878 22.1255C67.5044 21.9463 66.9337 21.7277 66.3799 21.4711L66.3512 21.5293C57.2886 17.0932 54.9865 11.8627 54.9639 11.806L54.1776 12.1359C54.2759 12.376 56.7349 18.0291 66.8188 22.6988L66.8983 22.7287C66.8983 22.7287 67.3793 22.8396 68.0869 23.0267L68.154 23.0516C68.3046 23.1108 69.5075 23.4609 71.7247 24.0954L71.7971 24.0992C72.7835 24.4249 73.7684 24.7805 74.5902 25.1487L74.7735 25.2353L74.8444 25.269L75.5015 25.6028L75.5313 25.6044L75.8665 25.8059C76.4597 26.1785 77.0788 26.5083 77.7191 26.7926C78.3639 27.1173 79.3453 27.5367 80.643 28.0327L80.7936 28.0919L80.8447 28.0946C82.2294 28.6422 83.6118 29.1513 84.6556 29.5228C84.9313 29.6243 85.1938 29.7587 85.4373 29.923L85.531 30.0092C85.8981 30.3407 86.2334 30.706 86.5323 31.1002L86.5639 31.1488C86.6672 31.3313 86.7529 31.5232 86.8196 31.7219C87.0961 32.5372 87.2594 33.3866 87.3049 34.2463C87.2764 34.7829 87.1605 35.3576 87.0486 36.018L86.9865 36.382C86.8701 37.0277 86.6223 37.6425 86.2585 38.1885C86.1641 38.3304 86.0627 38.4676 85.9548 38.5995L85.7996 38.7877L85.6536 38.9636C85.5538 39.0736 85.4454 39.1832 85.3237 39.3049L85.1842 39.4384L85.0541 39.5554L84.9913 39.6118L84.8168 39.7606C84.741 39.8206 84.6693 39.8852 84.5892 39.945L84.5538 39.9687C84.1885 40.2484 83.8039 40.502 83.403 40.7277C81.7843 41.2909 80.4755 41.8066 79.5031 42.2632C79.2733 42.3279 79.0397 42.3839 78.7974 42.4436L78.8318 42.5992L78.6296 42.708C77.2912 42.496 72.0922 41.6306 69.034 40.4261C68.7411 40.3123 67.8157 40.2034 65.7566 39.9702C61.6765 39.5102 54.0855 38.6502 51.6187 37.2464L51.5109 37.1852L51.3917 37.1789C51.1989 37.19 32.2949 37.8351 23.3027 25.9581L23.2585 25.9045C23.0511 25.7099 20.8911 23.9978 8.07465 23.1722C3.78421 22.8932 -3.98909 22.489 -12.989 22.0198C-29.5654 21.1398 -52.2643 19.9774 -53.506 19.4716C-54.3408 19.1069 -56.8444 18.7989 -60.936 18.5561L-58.3241 -30.6449C-51.283 -26.9867 -37.9857 -20.818 -24.045 -18.2413C-14.5324 -16.5351 -5.13142 -14.256 4.10649 -11.4165C5.39948 -10.9894 6.71309 -10.6274 8.04237 -10.332C10.5827 -9.91096 30.3601 -6.33253 31.4091 -6.14016C32.8188 -5.58269 54.7903 3.08805 63.7812 3.56536C72.7722 4.04268 93.22 10.6806 93.4262 10.7386L93.5114 10.7431C95.3791 10.9618 111.814 12.8936 113.316 12.6743C114.449 12.5081 119.285 14.4904 122.07 15.7743C122.787 16.1071 124.474 16.2735 127.08 16.2624C128.695 16.2671 130.273 16.7491 131.615 17.6478L139.453 22.8561C135.927 22.5834 124.848 21.692 122.544 21.1597C121.076 20.817 118.198 19.9167 115.657 19.1198C113.363 18.4001 111.195 17.7212 110.254 17.5089C108.337 17.0868 102.91 17.2216 102.234 17.2412C100.848 16.8857 82.8 12.263 77.9005 12.3531L77.9149 13.2081C82.7886 13.1209 101.889 18.0344 102.078 18.0829L102.138 18.086L102.197 18.0892C102.257 18.0924 108.186 17.916 110.073 18.3365C110.977 18.5339 113.127 19.2119 115.404 19.9264C118.085 20.7649 120.866 21.6344 122.355 21.9825C125.153 22.6265 139.842 23.7352 140.445 23.7971L146.107 24.4693L146.279 24.5382C146.354 24.5678 146.434 24.5977 146.504 24.6313L146.684 24.7135L146.884 24.8095L147.054 24.9039C147.112 24.9369 147.174 24.9659 147.232 25.0031L147.385 25.1052C147.439 25.1379 147.492 25.1707 147.542 25.2075C147.59 25.2417 147.636 25.2784 147.681 25.3174C147.775 25.3838 147.862 25.4585 147.943 25.5405L148.056 25.6491L148.165 25.7787L148.261 25.8906C148.294 25.9344 148.325 25.9802 148.352 26.0278L148.431 26.1474C148.458 26.1943 148.483 26.2426 148.505 26.2922C148.528 26.3319 148.548 26.3713 148.567 26.4108C148.586 26.4503 148.604 26.5153 148.623 26.5675C148.641 26.6198 148.657 26.6505 148.667 26.6895C148.684 26.7447 148.697 26.8011 148.705 26.8581C148.703 26.9007 148.727 26.9404 148.733 26.9834C148.739 27.0265 148.727 27.0984 148.753 27.1596C148.78 27.2208 148.749 27.2448 148.747 27.2874C148.748 27.3514 148.744 27.4155 148.737 27.4791C148.734 27.5216 148.732 27.5642 148.73 27.6068C148.727 27.6494 148.722 27.7474 148.719 27.8155C148.715 27.8837 148.714 27.8964 148.712 27.939C148.71 27.9816 148.682 28.0997 148.661 28.184L148.655 28.282C148.624 28.3999 148.587 28.5218 148.547 28.6435L148.496 28.7861L148.381 28.78C148.378 28.8353 148.076 30.1946 146.241 31.3699C143.982 32.8132 139.222 34.0511 129.362 31.7552L129.29 32.0674L129.269 32.0663L129.165 31.9326L109.917 29.3262ZM164.952 42.1654L164.575 42.4145C163.062 43.4164 161.248 43.8635 159.443 43.6796C159.182 43.6564 158.923 43.6184 158.667 43.5658C154.834 42.7986 147.967 41.2594 145.08 39.5515L145.022 39.5228C144.277 39.227 143.303 38.8336 142.2 38.3736C138.243 36.7284 132.653 34.2833 130.289 32.7953C132.621 33.3197 134.991 33.6569 137.377 33.8037C142.271 34.0635 145.102 33.0991 146.752 32.0377C147.813 31.3998 148.641 30.4375 149.114 29.293L164.474 35.3063C165.09 35.5441 165.614 35.9728 165.968 36.5296C166.323 37.0864 166.49 37.7421 166.446 38.4007L166.346 39.7964C166.31 40.2715 166.166 40.7322 165.924 41.1428C165.682 41.5535 165.35 41.9033 164.952 42.1654Z" fill="url(#paint0_radial_1447_1468)"/>
<path d="M357.843 101.612C343.864 100.821 318.849 99.094 308.39 96.4363L308.318 96.4283C308.156 96.4104 291.815 94.9456 282.33 86.9847C282.261 86.9084 282.038 86.5232 281.802 86.1323C275.355 75.1998 266.478 67.0231 255.413 61.8565C254.883 61.4502 249.997 57.913 241.6 58.372C241.562 58.3678 237.482 58.4387 230.915 55.1614C229.581 54.4985 228.432 53.869 227.323 53.2612C223.553 51.1952 220.852 49.7069 215.961 49.7738C214.984 49.7633 214.016 49.9663 213.126 50.3686C212.236 50.7709 211.444 51.3628 210.806 52.1029C208.818 54.3627 208.275 57.7484 208.426 59.0525C208.635 61.0411 210.449 65.9627 214.523 68.4615C218.541 70.924 222.137 72.048 223.318 72.0374C224.5 72.0268 228.81 72.8224 229.793 73.4421C226.709 74.5891 202.663 77.8956 200.286 77.9709C198.649 78.0254 185.916 76.5617 184.188 76.3614L184.155 76.3063L184.153 76.3275C183.43 75.4963 179.414 71.2661 174.959 74.4924L174.788 74.3318C174.788 74.3318 174.729 74.3941 174.64 74.5L172.349 74.1472C171.748 72.7588 168.451 65.686 163.166 64.3574C158.707 63.2406 156.43 65.8975 155.722 67.7115C154.935 67.6542 153.025 67.6569 151.664 68.8578C150.66 69.7463 150.178 71.0788 150.233 72.8229L150.219 72.9459L150.29 73.048C153.614 77.7576 157.391 82.1316 161.565 86.1081L161.892 86.4876C162.17 86.8017 168.676 94.2691 169.752 95.7487C170.036 96.1895 170.292 96.6479 170.518 97.1211C171.669 99.3171 173.578 102.962 177.747 104.064C177.908 104.541 178.313 105.731 178.802 107.082C178.822 107.14 178.845 107.202 178.863 107.264C180.761 112.478 181.306 112.908 181.511 113.068L181.708 113.227C182.774 114.101 185.248 116.134 192.775 117.248C195.266 124.159 195.884 124.352 196.087 124.417C196.588 124.58 202.554 127.052 204.809 127.994L215.917 130.41C216.575 130.83 221.212 133.512 233.197 133.245C245.774 132.979 260.037 132.72 260.181 132.736L260.287 132.748L260.378 132.698C260.378 132.698 261.417 132.156 263.684 132.876C266.146 133.659 276.36 134.895 277.389 135.018C278.115 135.36 284.162 138.181 286.073 138.393C287.985 138.605 298.635 138.769 299.419 138.779C300.457 138.945 327.19 143.245 352.171 152.057L352.678 152.238L358.291 101.636L357.843 101.612ZM173.605 76.2476L172.939 75.1009L174.065 75.273C173.877 75.5805 173.723 75.9072 173.605 76.2476ZM151.061 72.6701C151.042 71.2562 151.422 70.1912 152.202 69.501C153.292 68.5362 154.887 68.5114 155.589 68.5593C155.776 70.7406 156.418 72.8584 157.475 74.7761C158.433 76.6246 159.567 79.9388 160.469 82.5965C160.702 83.2832 160.922 83.9341 161.116 84.5006C157.431 80.8536 154.066 76.8955 151.061 72.6701ZM171.268 96.698C171.023 96.1946 170.744 95.7078 170.434 95.2409C169.401 93.8389 163.608 87.15 162.652 86.057L162.575 85.9713C162.232 85.1951 161.792 83.8675 161.263 82.3241C160.342 79.6471 159.195 76.2929 158.208 74.3898C156.477 71.0394 156.434 68.447 156.433 68.4211L156.357 68.4127L156.398 68.2756C156.452 68.0971 157.787 63.8724 162.935 65.1643C168.254 66.5009 171.597 74.5873 171.63 74.6726L171.721 74.893L171.853 74.9075L173.384 77.5491C173.358 77.778 173.37 78.1741 173.354 78.7044C173.177 85.4864 173.035 94.8127 173.843 97.5156C174.578 99.9359 176.14 101.838 177.038 102.908C173.882 101.683 172.33 98.7297 171.268 96.698ZM351.95 151.067C326.669 142.217 299.793 137.966 299.519 137.923L299.459 137.916C299.349 137.904 288.077 137.744 286.169 137.532C284.261 137.321 277.759 134.235 277.694 134.202L277.629 134.173L277.561 134.166C277.451 134.154 266.405 132.834 263.947 132.051C261.667 131.33 260.439 131.722 260.069 131.891C258.779 131.911 245.192 132.151 233.163 132.426C220.791 132.706 216.382 129.706 216.339 129.701L216.268 129.651L205.104 127.228C204.461 126.959 197.336 123.993 196.407 123.663C195.975 123.22 194.6 119.832 193.495 116.757L193.406 116.516L193.152 116.487C185.679 115.418 183.275 113.452 182.252 112.614L182.044 112.445C181.91 112.34 181.352 111.643 179.675 107.032L179.613 106.854L179.616 106.828C179.184 105.532 178.591 103.767 178.55 103.591C178.5 103.345 178.284 103.089 177.809 102.53C176.907 101.456 175.39 99.6569 174.683 97.3299C173.81 94.4395 174.115 82.6767 174.221 78.7834C174.234 78.1584 174.245 77.7133 174.252 77.4994C174.292 76.7532 174.553 76.0356 175 75.4368L175.114 75.4495L175.26 75.3369C179.232 72.2501 182.827 76.0946 183.539 76.9461C184.022 77.8192 186.182 82.0625 186.303 88.3197L186.294 88.396L191.407 100.841L192.368 92.1722C192.68 91.7532 193.091 91.419 193.566 91.2002C194.04 90.9814 194.561 90.885 195.082 90.9198C196.952 91.0028 201.434 93.3065 201.451 98.6123C201.468 104.107 203.999 111.425 204.106 111.738L204.202 111.997L204.473 112.027C205.928 112.146 209.886 112.786 210.768 114.279L210.847 114.416L211 114.468C212.283 114.893 215.814 116.289 216.696 117.7L217.416 117.243C216.295 115.471 212.245 113.996 211.41 113.706C210.15 111.88 206.035 111.329 204.822 111.203C204.368 109.844 202.314 103.403 202.296 98.6159C202.279 92.8509 197.531 90.1614 195.109 90.0946C194.418 90.0516 193.728 90.191 193.108 90.4988C192.488 90.8066 191.96 91.272 191.576 91.8483L191.529 91.9246L190.913 97.4778L187.138 88.2621C187.125 87.8316 187.104 87.4001 187.079 86.9682C190.169 88.1691 193.492 89.7049 193.773 90.2211C193.773 90.1996 193.775 90.1782 193.78 90.1575L194.644 90.1116C194.603 89.3175 192.039 87.9432 187.029 86.0272C186.76 83.0185 185.971 80.0793 184.697 77.3405C187.766 77.6809 198.754 78.9382 200.339 78.8865C200.61 78.878 229.476 75.4067 230.719 73.9482C230.77 73.8929 230.807 73.8267 230.829 73.7547C230.85 73.6827 230.855 73.6068 230.842 73.5328C230.622 71.9248 223.722 71.2239 223.339 71.2287C222.402 71.2449 219.004 70.2372 215.003 67.7765C210.815 65.2137 209.44 60.1992 209.3 58.9907C209.203 58.1217 209.543 54.8981 211.478 52.6968C212.038 52.0492 212.732 51.5313 213.512 51.1792C214.292 50.827 215.14 50.6489 215.996 50.6574C220.642 50.5933 223.283 52.0407 226.941 54.0426C228.005 54.6241 229.21 55.2856 230.564 55.9594C236.326 58.8341 240.624 59.3194 241.669 59.2593C250.049 58.7985 254.903 62.5509 254.95 62.5905L255.034 62.6427C265.963 67.717 274.731 75.7957 281.099 86.595C281.285 86.9734 281.518 87.3266 281.793 87.6461C291.281 95.6159 307.337 97.2207 308.238 97.3034C318.672 99.9498 343.294 101.668 357.37 102.474L351.95 151.067Z" fill="url(#paint1_radial_1447_1468)"/>
</g>
<defs>
<radialGradient id="paint0_radial_1447_1468" cx="0" cy="0" r="1" gradientUnits="userSpaceOnUse" gradientTransform="translate(40.3842 -9.82318) rotate(27.4305) scale(174.961 172.3)">
<stop stop-color="#A6FFD4"/>
<stop offset="0.48193" stop-color="#83EAE4" stop-opacity="0.31"/>
<stop offset="1" stop-color="#C037C2" stop-opacity="0.96"/>
</radialGradient>
<radialGradient id="paint1_radial_1447_1468" cx="0" cy="0" r="1" gradientUnits="userSpaceOnUse" gradientTransform="translate(243.245 67.147) rotate(29.2882) scale(158.148 148.73)">
<stop stop-color="#A6FFD4"/>
<stop offset="0.48193" stop-color="#83EAE4" stop-opacity="0.31"/>
<stop offset="1" stop-color="#C037C2" stop-opacity="0.96"/>
</radialGradient>
</defs>
</svg>
