<svg width="197" height="197" viewBox="0 0 197 197" fill="none" xmlns="http://www.w3.org/2000/svg">
<path d="M117.357 65.2507L83.9439 61.7018C73.7707 60.6213 64.6533 68.0448 63.5796 78.2827L59.0429 121.541C57.9692 131.779 65.3458 140.954 75.519 142.035L108.932 145.584C119.105 146.664 128.222 139.241 129.296 129.003L133.833 85.7445C134.907 75.5066 127.53 66.3312 117.357 65.2507Z" fill="url(#paint0_radial_1447_142)"/>
<path d="M114.316 65.7483L84.1942 62.549C74.021 61.4685 64.9035 68.892 63.8298 79.1299L59.6879 118.623C58.6142 128.861 65.9909 138.037 76.1641 139.117L106.286 142.317C116.459 143.397 125.577 135.974 126.65 125.736L130.792 86.2422C131.866 76.0043 124.489 66.8289 114.316 65.7483Z" fill="url(#paint1_radial_1447_142)"/>
<path d="M117.357 65.2507L83.9439 61.7018C73.7707 60.6213 64.6533 68.0448 63.5796 78.2827L59.0429 121.541C57.9692 131.779 65.3458 140.954 75.519 142.035L108.932 145.584C119.105 146.664 128.222 139.241 129.296 129.003L133.833 85.7445C134.907 75.5066 127.53 66.3312 117.357 65.2507Z" stroke="#182338" stroke-width="1.40388" stroke-miterlimit="10"/>
<path d="M164.044 100.787C163.355 103.567 161.691 106.003 159.359 107.646C157.026 109.289 154.182 110.028 151.351 109.727C142.589 111.983 133.41 112.034 124.624 109.875C124.889 119.07 125.337 126.378 125.39 130.864C125.573 145.818 125.119 159.9 123.862 173.012C123.356 178.314 122.307 180.984 120.56 183.058C119.546 184.261 118.297 185.267 116.779 186.467C114.477 188.293 112.205 189.2 110.389 189.007C107.275 188.676 104.419 187.114 102.45 184.664C100.48 182.215 99.5585 179.078 99.8871 175.944L102.675 149.359C102.757 148.576 102.527 147.792 102.035 147.179C101.542 146.567 100.828 146.176 100.05 146.094L82.4383 144.223C81.6599 144.14 80.8806 144.372 80.2721 144.868C79.6635 145.363 79.2755 146.082 79.1933 146.865L76.4279 173.234C75.7533 179.666 70.1544 184.534 63.754 184.027L59.4591 182.844L53.844 181.295C52.6017 180.954 51.4813 180.265 50.6132 179.308C49.745 178.351 49.1648 177.165 48.94 175.889C48.7013 174.527 48.8795 173.123 49.4511 171.865L53.87 162.086C54.6745 156.019 55.6617 149.845 56.8236 143.513C57.9856 137.182 59.3256 130.694 60.8325 123.997C62.4203 116.949 64.1216 110.161 65.9363 103.632C56.896 103.897 47.9297 101.919 39.8289 97.8721C32.9401 93.9412 28.9426 88.4756 29.3271 84.8095C29.6558 81.6758 31.2079 78.8018 33.6422 76.8199C36.0764 74.8379 39.1933 73.9102 42.3072 74.2409L69.9507 77.177C98.6706 98.1482 126.203 83.1517 126.203 83.1517L153.654 86.0674C160.046 86.7463 164.883 92.3808 164.379 98.8219C164.323 99.4854 164.211 100.143 164.044 100.787V100.787Z" fill="url(#paint2_radial_1447_142)"/>
<path d="M164.044 100.787C163.355 103.567 161.691 106.003 159.359 107.646C157.026 109.289 154.182 110.028 151.351 109.727C142.589 111.983 133.41 112.034 124.624 109.875C124.889 119.07 125.337 126.378 125.39 130.864C125.573 145.818 125.119 159.9 123.862 173.012C123.356 178.314 122.307 180.984 120.56 183.058C119.546 184.261 118.297 185.267 116.779 186.467C114.477 188.293 112.205 189.2 110.389 189.007C107.275 188.676 104.419 187.114 102.45 184.664C100.48 182.215 99.5585 179.078 99.8871 175.944L102.675 149.359C102.757 148.576 102.527 147.792 102.035 147.179C101.542 146.567 100.828 146.176 100.05 146.094L82.4383 144.223C81.6599 144.14 80.8806 144.372 80.2721 144.868C79.6635 145.363 79.2755 146.082 79.1933 146.865L76.4279 173.234C75.7533 179.666 70.1544 184.534 63.754 184.027L59.4591 182.844L53.844 181.295C52.6017 180.954 51.4813 180.265 50.6132 179.308C49.745 178.351 49.1648 177.165 48.94 175.889C48.7013 174.527 48.8795 173.123 49.4511 171.865L53.87 162.086C54.6745 156.019 55.6617 149.845 56.8236 143.513C57.9856 137.182 59.3256 130.694 60.8325 123.997C62.4203 116.949 64.1216 110.161 65.9363 103.632C56.896 103.897 47.9297 101.919 39.8289 97.8721C32.9401 93.9412 28.9426 88.4756 29.3271 84.8095C29.6558 81.6758 31.2079 78.8018 33.6422 76.8199C36.0764 74.8379 39.1933 73.9102 42.3072 74.2409L69.9507 77.177C98.6706 98.1482 126.203 83.1517 126.203 83.1517L153.654 86.0674C160.046 86.7463 164.883 92.3808 164.379 98.8219C164.323 99.4854 164.211 100.143 164.044 100.787V100.787Z" fill="url(#paint3_linear_1447_142)" fill-opacity="0.3"/>
<path opacity="0.6" d="M100.049 146.08L82.4371 144.21C81.6586 144.127 80.8794 144.359 80.2708 144.854C79.6623 145.35 79.2742 146.068 79.1921 146.852L76.4253 173.233C75.7506 179.666 70.1518 184.534 63.7514 184.027L59.4565 182.844L53.8414 181.295C52.5998 180.953 51.4801 180.264 50.6126 179.307C49.745 178.35 49.1653 177.165 48.9407 175.89C48.9031 175.242 48.8767 174.645 48.8626 174.119C48.8056 171.989 48.9578 170.947 49.4525 171.859C51.5533 175.756 63.9152 178.881 69.4981 177.247C75.0809 175.613 73.9458 155.935 77.2639 145.396C80.582 134.856 100.049 146.08 100.049 146.08Z" fill="url(#paint4_radial_1447_142)"/>
<path d="M126.186 83.1535C126.186 83.1535 98.6538 98.1503 69.9339 77.1788C72.5023 75.246 75.4565 73.8965 78.593 73.2233C83.3474 79.0923 90.2144 82.8319 97.6971 83.6266C105.18 84.4214 112.671 82.2069 118.538 77.466C121.466 78.7833 124.075 80.7237 126.186 83.1535V83.1535Z" fill="url(#paint5_radial_1447_142)" stroke="#182338" stroke-width="1.40388" stroke-miterlimit="10"/>
<path d="M97.6979 83.6259C90.2171 82.8364 83.3496 79.1033 78.592 73.2401C80.8796 72.7518 83.2296 72.6307 85.5548 72.8811L111.822 75.6711C114.148 75.9146 116.421 76.5268 118.557 77.4849C112.69 82.2264 105.198 84.4406 97.7158 83.6444L97.6979 83.6259Z" fill="url(#paint6_radial_1447_142)" stroke="#182338" stroke-width="1.40388" stroke-miterlimit="10"/>
<path d="M137.001 48.4606C136.207 56.0258 132.096 66.4246 126.219 71.2098L118.628 77.4026L118.549 77.4672C112.681 82.2072 105.19 84.421 97.7076 83.6263C90.2251 82.8315 83.3582 79.0926 78.6033 73.2244L78.5392 73.1446L72.3901 65.4924C70.0126 62.5352 68.3564 58.2972 67.3977 53.8545C66.4655 49.6312 66.1846 45.2886 66.5649 40.9793C67.1167 37.2679 68.2309 33.6636 69.8688 30.2923C77.3852 14.8756 93.1396 10.6185 94.43 10.2943C96.4247 9.79167 98.4584 9.46144 100.509 9.30715C102.172 9.18335 103.841 9.17216 105.505 9.27365C109.193 9.82894 112.775 10.9503 116.125 12.5985C117.319 13.1867 131.844 20.6599 135.996 37.316C136.895 40.9573 137.234 44.7159 137.001 48.4606V48.4606Z" fill="url(#paint7_radial_1447_142)" stroke="#182338" stroke-width="1.40388" stroke-miterlimit="10"/>
<path d="M126.186 83.1535C126.186 83.1535 98.6538 98.1503 69.9339 77.1788C72.5023 75.246 75.4565 73.8965 78.593 73.2233C83.3474 79.0923 90.2144 82.8319 97.6971 83.6266C105.18 84.4214 112.671 82.2069 118.538 77.466C121.466 78.7833 124.075 80.7237 126.186 83.1535V83.1535Z" fill="url(#paint8_radial_1447_142)" fill-opacity="0.3" stroke="#182338" stroke-width="1.40388" stroke-miterlimit="10"/>
<path opacity="0.3" d="M137.001 48.4606C136.207 56.0258 132.096 66.4246 126.219 71.2098L118.628 77.4026L118.549 77.4672C112.681 82.2072 105.19 84.421 97.7076 83.6263C90.2251 82.8315 83.3582 79.0926 78.6033 73.2244L78.5392 73.1446L72.3901 65.4924C70.0126 62.5352 68.3564 58.2972 67.3977 53.8545C66.4655 49.6312 66.1846 45.2886 66.5649 40.9793C67.1167 37.2679 68.2309 33.6636 69.8688 30.2923C77.3852 14.8756 93.1396 10.6185 94.43 10.2943C96.4247 9.79167 98.4584 9.46144 100.509 9.30715C102.172 9.18335 103.841 9.17216 105.505 9.27365C109.193 9.82894 112.775 10.9503 116.125 12.5985C117.319 13.1867 131.844 20.6599 135.996 37.316C136.895 40.9573 137.234 44.7159 137.001 48.4606V48.4606Z" fill="url(#paint9_radial_1447_142)" stroke="#182338" stroke-width="1.40388" stroke-miterlimit="10"/>
<path d="M134.195 46.9113C134.325 44.1886 133.932 41.4663 133.038 38.8933C128.889 26.8572 115.438 21.1906 114.347 20.7429C111.204 19.4765 107.92 18.6005 104.566 18.1343V18.1343C101.188 17.8849 97.7915 18.0514 94.453 18.6298C93.2803 18.8372 78.9767 21.5559 72.4123 32.4541C71.0046 34.783 70.0546 37.3624 69.6138 40.0519C69.0465 45.4609 70.9823 53.4156 75.4538 57.7567L81.239 63.3757C85.7101 67.7202 92.0922 70.5718 98.9835 71.3037C105.875 72.0357 112.711 70.588 117.985 67.2786L124.808 62.9988C130.088 59.6934 133.628 52.3203 134.195 46.9113Z" fill="#504C57" stroke="#182338" stroke-width="1.40388" stroke-miterlimit="10"/>
<path d="M131.946 46.7586C132.065 44.2259 131.699 41.6937 130.868 39.3C127.007 28.1009 114.505 22.8271 113.473 22.4089C110.549 21.2316 107.492 20.4166 104.372 19.982V19.982C101.231 19.7515 98.0727 19.9065 94.9683 20.4434C93.8763 20.6361 80.552 23.1668 74.4561 33.3083C73.1458 35.4756 72.2615 37.8761 71.8513 40.3792V40.3792C71.3233 45.4139 73.1261 52.8135 77.2859 56.8561L82.6745 62.0746C86.8337 66.1238 92.7721 68.7722 99.1839 69.4533C105.596 70.1343 111.956 68.7888 116.866 65.7095L123.219 61.7381C128.123 58.6516 131.418 51.7934 131.946 46.7586Z" fill="url(#paint10_radial_1447_142)"/>
<path d="M122.03 32.0216C121.12 29.8109 129.4 38.7781 128.471 47.64C127.542 56.5018 122.438 58.9466 122.438 58.9466C122.438 58.9466 129.759 50.7637 122.03 32.0216Z" fill="url(#paint11_radial_1447_142)"/>
<path d="M78.0663 120.761C77.1793 119.167 76.6577 117.394 76.5397 115.571L77.2333 108.957C77.5516 107.494 78.2246 105.604 79.8029 104.202C82.4144 101.878 85.2997 102.855 95.582 103.797C100.436 104.24 108.912 104.858 110.933 107.509C111.612 108.421 112.099 109.465 112.362 110.574C112.503 111.273 112.54 111.99 112.469 112.7L111.776 119.313C111.282 121.071 110.405 122.695 109.209 124.069C102.127 132.008 83.3288 130.011 78.0663 120.761Z" fill="url(#paint12_radial_1447_142)" stroke="#182338" stroke-width="0.794577" stroke-miterlimit="10"/>
<path d="M80.5143 120.091C79.7602 118.738 79.3175 117.231 79.219 115.683L79.8083 110.064C80.0771 108.821 80.6478 107.216 81.9896 106.024C84.2083 104.049 86.6574 104.877 95.3947 105.679C99.52 106.057 106.717 106.583 108.436 108.833C109.014 109.608 109.428 110.495 109.65 111.438C109.767 112.031 109.795 112.64 109.731 113.242L109.142 118.861C108.722 120.353 107.976 121.733 106.961 122.9C100.947 129.646 84.9666 127.948 80.5143 120.091Z" stroke="#182338" stroke-width="0.794577" stroke-miterlimit="10"/>
<path d="M82.9421 119.42C82.3217 118.306 81.957 117.066 81.8749 115.792L82.3599 111.167C82.5936 109.896 83.2226 108.732 84.1562 107.844C85.9755 106.218 87.9979 106.901 95.1872 107.558C98.5806 107.872 104.504 108.302 105.919 110.155C106.394 110.793 106.734 111.523 106.918 112.299C107.015 112.787 107.037 113.288 106.983 113.783L106.498 118.407C106.154 119.636 105.541 120.771 104.705 121.731C99.7635 127.283 86.6234 125.887 82.9421 119.42Z" stroke="#182338" stroke-width="0.794577" stroke-miterlimit="10"/>
<path d="M85.3794 118.763C84.8933 117.889 84.6077 116.916 84.5435 115.916L84.9256 112.273C85.1077 111.275 85.6009 110.362 86.3336 109.665C87.7666 108.39 89.3493 108.927 94.9903 109.443C97.6524 109.686 102.303 110.027 103.41 111.479C103.784 111.98 104.052 112.552 104.197 113.162C104.272 113.545 104.29 113.937 104.249 114.326L103.869 117.956C103.597 118.92 103.115 119.811 102.457 120.564C98.5806 124.921 88.2682 123.826 85.3794 118.763Z" stroke="#182338" stroke-width="0.794577" stroke-miterlimit="10"/>
<path d="M87.8187 118.079C87.4673 117.448 87.2593 116.746 87.2099 116.023L87.4852 113.398C87.62 112.677 87.9777 112.018 88.5071 111.515C89.5472 110.59 90.6971 110.978 94.7898 111.353C96.7233 111.531 100.097 111.777 100.9 112.831C101.173 113.194 101.367 113.611 101.471 114.054C101.526 114.331 101.538 114.616 101.508 114.897L101.233 117.523C101.035 118.219 100.686 118.862 100.211 119.406C97.4039 122.556 89.9028 121.759 87.8187 118.079Z" stroke="#182338" stroke-width="0.794577" stroke-miterlimit="10"/>
<path d="M90.257 117.41C90.037 117.016 89.9083 116.576 89.8806 116.125L90.0527 114.484C90.1349 114.034 90.3571 113.621 90.6873 113.307C91.3346 112.731 92.0415 112.972 94.5956 113.207C95.7975 113.318 97.8986 113.472 98.3972 114.125C98.5663 114.352 98.6872 114.611 98.7527 114.887C98.7865 115.059 98.7947 115.236 98.7769 115.41L98.6048 117.052C98.4813 117.487 98.2634 117.889 97.9669 118.229C96.2175 120.194 91.5602 119.699 90.257 117.41Z" stroke="#182338" stroke-width="0.794577" stroke-miterlimit="10"/>
<path d="M106.476 162.52C106.111 161.616 105.913 160.653 105.893 159.677L106.277 156.017C106.427 155.045 106.826 154.129 107.436 153.359C108.564 152.039 109.798 152.538 114.173 152.92C116.238 153.103 119.845 153.33 120.674 154.766C121.167 155.626 121.371 156.622 121.257 157.608L120.873 161.268C120.649 162.217 120.257 163.118 119.714 163.926C116.592 168.407 108.599 167.558 106.476 162.52Z" fill="#99A3A3" stroke="#182338" stroke-width="0.350969" stroke-miterlimit="10"/>
<path d="M107.482 162.136C107.171 161.361 107.002 160.536 106.986 159.7L107.314 156.569C107.443 155.737 107.784 154.954 108.305 154.295C109.284 153.167 110.327 153.594 114.07 153.911C115.838 154.066 118.924 154.261 119.632 155.498C119.875 155.943 120.04 156.428 120.118 156.93C120.161 157.261 120.164 157.595 120.129 157.927L119.8 161.058C119.609 161.871 119.274 162.643 118.81 163.336C116.139 167.164 109.29 166.436 107.482 162.136Z" fill="#99A3A3" stroke="#182338" stroke-width="0.350969" stroke-miterlimit="10"/>
<path d="M108.489 161.748C108.231 161.101 108.091 160.411 108.076 159.713L108.349 157.11C108.455 156.414 108.74 155.758 109.175 155.207C109.99 154.268 110.856 154.625 113.967 154.896C115.437 155.022 118.002 155.185 118.588 156.207C118.791 156.576 118.929 156.978 118.994 157.395C119.029 157.671 119.032 157.951 119.002 158.229L118.729 160.831C118.573 161.512 118.293 162.157 117.903 162.735C115.685 165.931 110 165.327 108.489 161.748Z" fill="#99A3A3" stroke="#182338" stroke-width="0.350969" stroke-miterlimit="10"/>
<path d="M109.493 161.361C109.288 160.848 109.176 160.302 109.164 159.749L109.382 157.675C109.468 157.124 109.694 156.605 110.038 156.168C110.687 155.421 111.379 155.707 113.857 155.91C115.027 156.014 117.071 156.142 117.539 156.965C117.819 157.452 117.934 158.017 117.868 158.576L117.65 160.651C117.524 161.189 117.302 161.699 116.994 162.157C115.231 164.695 110.701 164.213 109.493 161.361Z" fill="#99A3A3" stroke="#182338" stroke-width="0.350969" stroke-miterlimit="10"/>
<path d="M110.503 160.974C110.349 160.592 110.267 160.185 110.26 159.773L110.422 158.227C110.486 157.818 110.654 157.432 110.909 157.107C111.392 156.551 111.908 156.762 113.754 156.921C114.625 157.014 116.15 157.093 116.499 157.701C116.618 157.914 116.7 158.148 116.74 158.39C116.763 158.553 116.765 158.718 116.747 158.882L116.585 160.428C116.49 160.829 116.324 161.209 116.095 161.551C114.777 163.459 111.401 163.1 110.503 160.974Z" fill="#99A3A3" stroke="#182338" stroke-width="0.350969" stroke-miterlimit="10"/>
<path d="M111.513 160.587C111.41 160.337 111.355 160.07 111.352 159.799L111.458 158.782C111.498 158.511 111.609 158.255 111.78 158.042C112.095 157.677 112.434 157.816 113.651 157.909C114.225 157.97 115.225 158.02 115.456 158.433C115.534 158.577 115.588 158.735 115.615 158.898C115.627 159.008 115.628 159.119 115.616 159.23L115.509 160.248C115.447 160.51 115.338 160.76 115.188 160.984C114.323 162.223 112.102 161.987 111.513 160.587Z" fill="#99A3A3" stroke="#182338" stroke-width="0.350969" stroke-miterlimit="10"/>
<path d="M57.1456 155.415C56.8679 154.457 56.7585 153.457 56.8223 152.461L57.5155 148.744C57.7451 147.765 58.2129 146.859 58.8769 146.108C60.1141 144.845 61.2549 145.444 65.5044 146.148C67.5072 146.483 71.0229 146.983 71.7002 148.512C71.9339 149.07 72.0734 149.664 72.1129 150.268C72.1262 150.67 72.0962 151.072 72.0235 151.467L71.3303 155.183C71.0323 156.135 70.5704 157.028 69.9656 157.819C66.5366 162.184 58.7737 160.739 57.1456 155.415Z" fill="#99A3A3" stroke="#182338" stroke-width="0.350969" stroke-miterlimit="10"/>
<path d="M58.1755 155.09C57.9382 154.272 57.8447 153.419 57.8992 152.568L58.4895 149.392C58.6879 148.557 59.0884 147.784 59.6553 147.143C60.7084 146.063 61.6934 146.576 65.3129 147.186C67.0239 147.474 70.0163 147.902 70.6015 149.208C70.9477 150.001 71.0442 150.881 70.8778 151.73L70.2878 154.903C70.0311 155.716 69.6365 156.478 69.1217 157.155C66.187 160.863 59.5765 159.623 58.1755 155.09Z" fill="#99A3A3" stroke="#182338" stroke-width="0.350969" stroke-miterlimit="10"/>
<path d="M59.2055 154.765C59.0084 154.087 58.9307 153.38 58.976 152.676L59.4665 150.043C59.6275 149.35 59.959 148.709 60.4305 148.178C61.3067 147.275 62.1301 147.695 65.1226 148.215C66.5388 148.452 69.018 148.804 69.5045 149.888C69.6713 150.283 69.7699 150.703 69.7963 151.131C69.8069 151.415 69.7859 151.7 69.7336 151.98L69.2435 154.61C69.0338 155.284 68.7074 155.915 68.2795 156.475C65.8459 159.555 60.3647 158.522 59.2055 154.765Z" fill="#99A3A3" stroke="#182338" stroke-width="0.350969" stroke-miterlimit="10"/>
<path d="M60.2359 154.44C60.0788 153.902 60.0171 153.34 60.0537 152.781L60.441 150.691C60.5713 150.142 60.8354 149.634 61.2094 149.213C61.9005 148.503 62.5445 148.84 64.9297 149.24C66.0574 149.429 68.0263 149.711 68.4178 150.569C68.6437 151.091 68.7072 151.669 68.5999 152.228L68.2094 154.317C68.042 154.852 67.7829 155.354 67.4439 155.799C65.5059 158.242 61.1565 157.421 60.2359 154.44Z" fill="#99A3A3" stroke="#182338" stroke-width="0.350969" stroke-miterlimit="10"/>
<path d="M61.2653 154.115C61.1481 153.717 61.1023 153.302 61.1301 152.889L61.4175 151.343C61.5126 150.935 61.7075 150.557 61.9845 150.244C62.4977 149.721 62.9728 149.971 64.7389 150.268C65.5719 150.406 67.0307 150.614 67.3134 151.252C67.412 151.483 67.4698 151.729 67.4844 151.98C67.4852 152.147 67.4678 152.313 67.4324 152.476L67.1449 154.022C67.0202 154.418 66.8284 154.79 66.578 155.12C65.1649 156.929 61.947 156.325 61.2653 154.115Z" fill="#99A3A3" stroke="#182338" stroke-width="0.350969" stroke-miterlimit="10"/>
<path d="M62.2922 153.789C62.2175 153.531 62.1888 153.262 62.2075 152.993L62.3918 151.99C62.4563 151.727 62.5825 151.483 62.7599 151.279C63.0923 150.939 63.4018 151.102 64.5491 151.293C65.087 151.384 66.0323 151.521 66.2167 151.932C66.2802 152.082 66.3181 152.242 66.3287 152.405C66.3309 152.516 66.3193 152.626 66.2942 152.734L66.1067 153.736C66.0276 153.993 65.9041 154.234 65.7418 154.448C64.8243 155.618 62.7354 155.224 62.2922 153.789Z" fill="#99A3A3" stroke="#182338" stroke-width="0.350969" stroke-miterlimit="10"/>
<path d="M48.0134 75.2522C48.1494 78.4825 50.7727 81.0145 53.4945 82.3557C56.527 83.846 60.3567 83.9308 62.7716 81.2801C63.3427 80.678 63.7666 79.9503 64.0098 79.1547C64.2529 78.3591 64.3086 77.5174 64.1724 76.6964C64.0232 75.9172 62.8089 76.1135 62.9606 76.8995C63.4637 79.4918 61.1877 81.7291 58.7879 82.0982C55.951 82.5469 52.8362 81.0545 50.952 78.9594C49.9387 77.8978 49.3288 76.5114 49.2291 75.0428C49.2021 74.8815 49.1128 74.7374 48.9808 74.642C48.8488 74.5465 48.6846 74.5074 48.5241 74.5332C48.3653 74.5635 48.2242 74.654 48.13 74.7861C48.0357 74.9182 47.9955 75.0816 48.0177 75.2427L48.0134 75.2522Z" fill="#182338"/>
<path d="M134.332 84.5332C134.636 85.5687 135.181 86.5164 135.921 87.2976C136.662 88.0787 137.576 88.6709 138.59 89.0249C140.932 89.7911 143.464 89.7274 145.765 88.8443C146.867 88.364 147.753 87.5553 148.006 86.344C148.021 86.1807 147.972 86.0178 147.87 85.8903C147.767 85.7627 147.619 85.6807 147.457 85.6618C147.296 85.6489 147.136 85.699 147.01 85.8019C146.884 85.9048 146.803 86.0524 146.783 86.2141C146.577 87.2046 145.446 87.7318 144.577 87.9713C143.307 88.3275 141.98 88.4291 140.671 88.2701C138.451 87.9945 136.17 86.6303 135.546 84.3402C135.516 84.1804 135.426 84.0384 135.295 83.9435C135.164 83.8487 135.001 83.8082 134.841 83.8305C134.68 83.8584 134.537 83.9489 134.442 84.0823C134.347 84.2157 134.309 84.3814 134.334 84.5434L134.332 84.5332Z" fill="#182338"/>
<path d="M56.2774 83.0792C56.339 89.576 55.7163 96.0611 54.4199 102.426C54.4037 102.588 54.4519 102.751 54.5541 102.878C54.6562 103.005 54.804 103.086 54.9654 103.104C55.1268 103.118 55.2872 103.069 55.4134 102.967C55.5396 102.865 55.6218 102.717 55.6429 102.556C56.9394 96.191 57.562 89.7059 57.5004 83.2091C57.5124 83.0474 57.4627 82.8871 57.3613 82.761C57.26 82.6349 57.1146 82.5525 56.9549 82.5306C56.7929 82.5134 56.6306 82.5614 56.5037 82.6642C56.3767 82.767 56.2954 82.9162 56.2774 83.0792V83.0792Z" fill="#182338"/>
<path d="M112.55 167.33L110.307 188.723C110.302 188.88 110.356 189.033 110.458 189.151C110.56 189.269 110.703 189.344 110.858 189.36C111.013 189.377 111.168 189.334 111.293 189.24C111.418 189.145 111.502 189.007 111.53 188.853L113.773 167.46C113.778 167.303 113.724 167.151 113.622 167.032C113.52 166.914 113.377 166.839 113.222 166.823C113.067 166.807 112.912 166.85 112.787 166.944C112.663 167.038 112.578 167.176 112.55 167.33Z" fill="#182338"/>
<path d="M61.7882 160.293C60.9795 163.413 60.1807 166.534 59.3615 169.659C58.6247 172.472 57.8401 175.488 56.1529 177.897C55.3791 178.987 54.3787 179.972 53.0464 180.255C52.2738 180.422 52.4688 181.644 53.248 181.478C56.0077 180.885 57.606 178.254 58.6546 175.833C59.9587 172.832 60.6457 169.583 61.4614 166.427C61.9523 164.535 62.442 162.643 62.9305 160.752C62.9849 160.599 62.9792 160.431 62.9146 160.281C62.85 160.132 62.7314 160.013 62.5827 159.949C62.4311 159.89 62.2624 159.894 62.1135 159.959C61.9646 160.025 61.8474 160.147 61.7875 160.299L61.7882 160.293Z" fill="#182338"/>
<path d="M164.045 100.791C163.356 103.571 161.691 106.007 159.359 107.649C157.026 109.292 154.182 110.031 151.351 109.731C142.589 111.987 133.41 112.038 124.624 109.879C124.89 119.073 125.337 126.382 125.391 130.868C125.573 145.821 125.119 159.904 123.863 173.015C123.356 178.318 122.308 180.987 120.56 183.062C124.116 161.978 121.152 121.314 120.182 109.566C120.152 109.209 120.207 108.85 120.342 108.518C120.476 108.186 120.686 107.89 120.955 107.656C121.224 107.421 121.545 107.253 121.89 107.166C122.236 107.079 122.597 107.075 122.944 107.155C137.953 110.541 155.687 104.327 164.045 100.791Z" fill="url(#paint13_radial_1447_142)" fill-opacity="0.6"/>
<path d="M164.044 100.791C163.355 103.571 161.691 106.007 159.358 107.649C157.026 109.292 154.182 110.031 151.35 109.731C142.588 111.987 133.409 112.038 124.623 109.879C124.889 119.073 125.336 126.382 125.39 130.868C125.573 145.821 125.118 159.904 123.862 173.015C123.355 178.318 122.307 180.987 120.559 183.062C119.546 184.265 118.296 185.27 116.779 186.47C114.477 188.296 112.205 189.203 110.389 189.01C107.275 188.68 104.419 187.118 102.449 184.668C100.48 182.218 99.5582 179.081 99.8868 175.948L102.675 149.363C102.757 148.579 102.527 147.795 102.034 147.183C101.542 146.57 100.828 146.18 100.049 146.097L82.4381 144.226C81.6596 144.144 80.8804 144.376 80.2718 144.871C79.6632 145.367 79.2752 146.085 79.193 146.869L76.4252 173.26C75.7506 179.693 70.1517 184.561 63.7513 184.053L59.4564 182.871L53.8413 181.322C52.8906 181.06 52.0077 180.594 51.2537 179.955C50.4997 179.316 49.8926 178.52 49.4744 177.622C49.0561 176.724 48.8367 175.745 48.8313 174.753C48.826 173.761 49.0348 172.78 49.4433 171.878L53.8622 162.099C54.6667 156.031 55.6538 149.857 56.8158 143.526C57.9778 137.195 59.3178 130.706 60.8247 124.01C62.4125 116.962 64.1137 110.173 65.9285 103.644C56.8882 103.91 47.9219 101.932 39.8211 97.8847C32.9322 93.9538 28.9348 88.4882 29.3193 84.8221C29.648 81.6884 31.2001 78.8144 33.6344 76.8324C36.0686 74.8504 39.1855 73.9228 42.2994 74.2535L69.9428 77.1896C98.6627 98.1608 126.195 83.1643 126.195 83.1643L153.646 86.0799C160.038 86.7589 164.875 92.3933 164.371 98.8344C164.317 99.4946 164.207 100.149 164.044 100.791V100.791Z" stroke="#182338" stroke-width="1.40388" stroke-miterlimit="10"/>
<path d="M140.877 89.6386C141.269 95.104 141.169 100.594 140.578 106.041C140.416 107.59 140.208 109.134 139.954 110.671C139.829 111.457 141.052 111.587 141.177 110.801C142.059 105.308 142.439 99.7448 142.313 94.1818C142.277 92.5939 142.203 91.0096 142.089 89.4289C142.034 88.6365 140.832 88.8407 140.878 89.6321L140.877 89.6386Z" fill="#182338"/>
<path d="M135.71 84.517L135.293 85.3757L138.049 88.2511L143.882 88.9105L147.398 86.8672L147.457 85.519L139.121 84.6336L135.71 84.517Z" fill="#182338"/>
<path d="M48.5773 74.4624C48.6191 74.7556 49.6467 77.9748 49.6467 77.9748L52.7316 81.23L56.7843 82.4902L60.5483 82.2262L62.9969 80.1031L63.5581 77.4874L63.1792 76.2888L48.5773 74.4624Z" fill="#182338"/>
<path d="M32.2286 74.7204L32.2784 74.6859C32.5816 74.4791 32.9235 74.3368 33.2832 74.2677C33.6429 74.1986 34.0129 74.2042 34.3704 74.2841C34.7279 74.364 35.0655 74.5166 35.3623 74.7325C35.6591 74.9483 35.909 75.2229 36.0967 75.5394L36.2312 75.7661C36.4474 76.1312 36.5754 76.5422 36.6048 76.9662C36.6342 77.3901 36.5643 77.8151 36.4006 78.2068L32.7634 86.8839C32.6255 87.2123 32.4245 87.51 32.1719 87.76C31.9193 88.01 31.6201 88.2072 31.2916 88.3405L30.9465 88.4864C30.56 88.6438 30.1425 88.7086 29.7268 88.676C29.3111 88.6433 28.9087 88.5139 28.5512 88.298C28.1937 88.0821 27.8909 87.7855 27.6667 87.4318C27.4424 87.078 27.3029 86.6767 27.2591 86.2595V86.2595C27.211 85.802 27.28 85.3398 27.4593 84.9167L31.2634 75.9056C31.4635 75.4243 31.799 75.0123 32.2286 74.7204V74.7204Z" fill="url(#paint14_radial_1447_142)" stroke="#182338" stroke-width="1.40388" stroke-miterlimit="10"/>
<path d="M33.0956 77.5744L30.1435 85.2295C29.9046 85.8497 29.5271 86.3932 29.0523 86.8006C28.5774 87.208 28.0234 87.4637 27.4506 87.5398L23.2985 88.0872C23.0185 88.125 22.7379 88.1183 22.4645 88.0674L17.7005 87.2064C17.5486 87.1772 17.3992 87.1366 17.2531 87.0848L13.1467 85.5705C12.741 85.422 12.3723 85.1747 12.0642 84.8445C11.756 84.5143 11.5153 84.1085 11.3574 83.6532L11.048 82.7669L10.5552 81.359C10.3438 80.7508 10.2863 80.0754 10.389 79.4078L11.3441 73.2115C11.4539 72.4914 11.7467 71.8121 12.1843 71.262L13.0377 70.1862C13.452 69.6654 13.9779 69.2819 14.5544 69.0799C15.1309 68.878 15.7344 68.866 16.2949 69.0453L18.6248 69.8002C19.04 69.9374 19.4815 69.9691 19.9202 69.8933C20.3588 69.8175 20.7847 69.6358 21.1698 69.3602C21.5549 69.0847 21.8905 68.7214 22.1544 68.2945C22.4184 67.8675 22.6047 67.3865 22.7011 66.8832L22.7425 66.6819C22.8851 65.961 23.2097 65.2924 23.6739 64.7634C24.1381 64.2343 24.7203 63.8692 25.3447 63.7158L25.8444 63.5941C26.5192 63.4266 27.2085 63.5156 27.8074 63.8475C28.4063 64.1794 28.8822 64.7361 29.1628 65.4331L30.395 68.5545L33.0377 74.4494C33.2507 74.9161 33.3666 75.4396 33.3766 75.9807C33.3866 76.5217 33.2906 77.0665 33.0956 77.5744V77.5744Z" fill="url(#paint15_radial_1447_142)"/>
<path d="M33.0956 77.5744L30.1435 85.2295C29.9046 85.8497 29.5271 86.3932 29.0523 86.8006C28.5774 87.208 28.0234 87.4637 27.4506 87.5398L23.2985 88.0872C23.0185 88.125 22.7379 88.1183 22.4645 88.0674L17.7005 87.2064C17.5486 87.1772 17.3992 87.1366 17.2531 87.0848L13.1467 85.5705C12.741 85.422 12.3723 85.1747 12.0642 84.8445C11.756 84.5143 11.5153 84.1085 11.3574 83.6532L11.048 82.7669L10.5552 81.359C10.3438 80.7508 10.2863 80.0754 10.389 79.4078L11.3441 73.2115C11.4539 72.4914 11.7467 71.8121 12.1843 71.262L13.0377 70.1862C13.452 69.6654 13.9779 69.2819 14.5544 69.0799C15.1309 68.878 15.7344 68.866 16.2949 69.0453L18.6248 69.8002C19.04 69.9374 19.4815 69.9691 19.9202 69.8933C20.3588 69.8175 20.7847 69.6358 21.1698 69.3602C21.5549 69.0847 21.8905 68.7214 22.1544 68.2945C22.4184 67.8675 22.6047 67.3865 22.7011 66.8832L22.7425 66.6819C22.8851 65.961 23.2097 65.2924 23.6739 64.7634C24.1381 64.2343 24.7203 63.8692 25.3447 63.7158L25.8444 63.5941C26.5192 63.4266 27.2085 63.5156 27.8074 63.8475C28.4063 64.1794 28.8822 64.7361 29.1628 65.4331L30.395 68.5545L33.0377 74.4494C33.2507 74.9161 33.3666 75.4396 33.3766 75.9807C33.3866 76.5217 33.2906 77.0665 33.0956 77.5744V77.5744Z" fill="url(#paint16_radial_1447_142)" fill-opacity="0.6"/>
<path opacity="0.6" d="M33.0953 77.5743L30.1432 85.2294C29.9043 85.8497 29.5268 86.3932 29.0519 86.8006C28.5771 87.208 28.023 87.4637 27.4503 87.5398L23.2982 88.0871C23.0182 88.125 22.7375 88.1183 22.4641 88.0674L17.7002 87.2064C17.5483 87.1772 17.3988 87.1366 17.2527 87.0848L13.1464 85.5705C12.7407 85.422 12.372 85.1747 12.0638 84.8445C11.7557 84.5143 11.515 84.1085 11.3571 83.6531L11.0477 82.7669C13.1011 82.5987 16.9814 83.8256 19.0321 84.3578C21.721 85.0513 27.3146 86.5299 28.4881 84.4739C29.6616 82.4179 28.4754 80.1102 29.1433 79.9568C33.2059 79.0249 31.6298 71.1375 28.364 68.8867C26.9696 67.9225 27.6528 64.2506 23.3222 65.8499C23.7277 65.4754 24.84 63.8305 25.356 63.7135L25.8556 63.5918C26.5288 63.4276 27.2156 63.5185 27.8121 63.8507C28.4087 64.1829 28.8827 64.7383 29.1625 65.4331L30.3947 68.5545L33.0374 74.4494C33.2504 74.9161 33.3662 75.4395 33.3763 75.9806C33.3863 76.5217 33.2903 77.0665 33.0953 77.5743V77.5743Z" fill="url(#paint17_radial_1447_142)"/>
<path d="M33.0956 77.5744L30.1435 85.2295C29.9046 85.8497 29.5271 86.3932 29.0523 86.8006C28.5774 87.208 28.0234 87.4637 27.4506 87.5398L23.2985 88.0872C23.0185 88.125 22.7379 88.1183 22.4645 88.0674L17.7005 87.2064C17.5486 87.1772 17.3992 87.1366 17.2531 87.0848L13.1467 85.5705C12.741 85.422 12.3723 85.1747 12.0642 84.8445C11.756 84.5143 11.5153 84.1085 11.3574 83.6532L11.048 82.7669L10.5552 81.359C10.3438 80.7508 10.2863 80.0754 10.389 79.4078L11.3441 73.2115C11.4539 72.4914 11.7467 71.8121 12.1843 71.262L13.0377 70.1862C13.452 69.6654 13.9779 69.2819 14.5544 69.0799C15.1309 68.878 15.7344 68.866 16.2949 69.0453L18.6248 69.8002C19.04 69.9374 19.4815 69.9691 19.9202 69.8933C20.3588 69.8175 20.7847 69.6358 21.1698 69.3602C21.5549 69.0847 21.8905 68.7214 22.1544 68.2945C22.4184 67.8675 22.6047 67.3865 22.7011 66.8832L22.7425 66.6819C22.8851 65.961 23.2097 65.2924 23.6739 64.7634C24.1381 64.2343 24.7203 63.8692 25.3447 63.7158L25.8444 63.5941C26.5192 63.4266 27.2085 63.5156 27.8074 63.8475C28.4063 64.1794 28.8822 64.7361 29.1628 65.4331L30.395 68.5545L33.0377 74.4494C33.2507 74.9161 33.3666 75.4396 33.3766 75.9807C33.3866 76.5217 33.2906 77.0665 33.0956 77.5744V77.5744Z" stroke="#182338" stroke-width="1.40388" stroke-miterlimit="10"/>
<path d="M164.163 89.7293L164.121 89.685C163.867 89.4191 163.563 89.2081 163.225 89.065C162.888 88.9219 162.525 88.8496 162.158 88.8527C161.792 88.8557 161.43 88.934 161.095 89.0828C160.76 89.2315 160.459 89.4475 160.21 89.7177L160.031 89.9111C159.743 90.2222 159.533 90.5973 159.416 91.0058C159.299 91.4144 159.28 91.8449 159.359 92.2624L161.113 101.512C161.25 102.219 161.658 102.842 162.25 103.246L162.558 103.461C162.903 103.695 163.298 103.846 163.711 103.901C164.124 103.956 164.544 103.914 164.938 103.778C165.333 103.642 165.69 103.416 165.983 103.117C166.276 102.819 166.496 102.456 166.626 102.058C166.768 101.621 166.796 101.154 166.708 100.703L164.857 91.0907C164.762 90.5785 164.521 90.1054 164.163 89.7293V89.7293Z" fill="url(#paint18_radial_1447_142)" stroke="#182338" stroke-width="1.40388" stroke-miterlimit="10"/>
<path d="M162.943 92.3378L164.447 100.443C164.569 101.099 164.867 101.71 165.31 102.207C165.752 102.705 166.322 103.071 166.958 103.265L171.553 104.665C171.868 104.763 172.196 104.816 172.526 104.822L178.172 104.974C178.352 104.977 178.533 104.968 178.712 104.948L183.761 104.323C184.26 104.262 184.741 104.097 185.173 103.838C185.605 103.579 185.978 103.233 186.269 102.82L186.838 102.018L187.744 100.743C188.133 100.192 188.363 99.5436 188.408 98.8691L188.828 92.6081C188.878 91.8807 188.709 91.1551 188.344 90.5256L187.624 89.2744C187.278 88.6785 186.771 88.1935 186.163 87.8757C185.554 87.5579 184.868 87.4202 184.185 87.4787L181.342 87.731C180.835 87.7786 180.323 87.7176 179.841 87.5519C179.359 87.3862 178.917 87.1196 178.545 86.7696C178.173 86.4197 177.878 85.9943 177.681 85.5216C177.484 85.0488 177.388 84.5394 177.401 84.0268L177.403 83.8213C177.415 83.0863 177.208 82.3645 176.807 81.7501C176.406 81.1356 175.831 80.657 175.155 80.3767L174.615 80.1533C173.883 79.8504 173.073 79.7964 172.308 79.9998C171.543 80.2031 170.865 80.6526 170.378 81.2797L168.207 84.0858L163.756 89.3013C163.403 89.7137 163.146 90.2007 163.006 90.7264C162.865 91.252 162.843 91.8027 162.943 92.3378V92.3378Z" fill="url(#paint19_radial_1447_142)"/>
<path opacity="0.6" d="M162.943 92.3378L164.447 100.443C164.569 101.099 164.867 101.71 165.31 102.207C165.752 102.705 166.322 103.071 166.958 103.265L171.553 104.665C171.868 104.763 172.196 104.816 172.526 104.822L178.172 104.974C178.352 104.977 178.533 104.968 178.712 104.948L183.761 104.323C184.26 104.262 184.741 104.097 185.173 103.838C185.605 103.579 185.978 103.233 186.269 102.82L186.838 102.018L187.744 100.743C188.133 100.192 188.363 99.5436 188.408 98.8691L188.828 92.6081C188.878 91.8807 188.709 91.1551 188.344 90.5256L187.624 89.2744C187.278 88.6785 186.771 88.1935 186.163 87.8757C185.554 87.5579 184.868 87.4202 184.185 87.4787L181.342 87.731C180.835 87.7786 180.323 87.7176 179.841 87.5519C179.359 87.3862 178.917 87.1196 178.545 86.7696C178.173 86.4197 177.878 85.9943 177.681 85.5216C177.484 85.0488 177.388 84.5394 177.401 84.0268L177.403 83.8213C177.415 83.0863 177.208 82.3645 176.807 81.7501C176.406 81.1356 175.831 80.657 175.155 80.3767L174.615 80.1533C173.883 79.8504 173.073 79.7964 172.308 79.9998C171.543 80.2031 170.865 80.6526 170.378 81.2797L168.207 84.0858L163.756 89.3013C163.403 89.7137 163.146 90.2007 163.006 90.7264C162.865 91.252 162.843 91.8027 162.943 92.3378V92.3378Z" fill="url(#paint20_radial_1447_142)"/>
<path opacity="0.6" d="M162.942 92.3374L164.447 100.442C164.568 101.099 164.867 101.709 165.309 102.207C165.752 102.705 166.322 103.07 166.957 103.264L171.552 104.665C171.868 104.763 172.195 104.815 172.525 104.821L178.172 104.973C178.352 104.976 178.532 104.968 178.712 104.948L183.76 104.322C184.259 104.262 184.74 104.097 185.172 103.838C185.604 103.579 185.978 103.232 186.269 102.82L186.838 102.017C184.536 101.424 179.809 101.815 177.339 101.908C174.101 102.025 167.358 102.305 166.52 100.048C165.681 97.7923 167.597 95.7821 166.872 95.4927C162.463 93.7335 166.182 86.3461 170.457 84.8255C172.284 84.1732 172.398 80.4386 176.951 82.9067C176.579 82.4557 175.71 80.6145 175.15 80.3923L174.61 80.169C173.878 79.866 173.068 79.8121 172.303 80.0154C171.538 80.2188 170.86 80.6683 170.373 81.2954L168.207 84.0854L163.755 89.3009C163.402 89.7133 163.146 90.2003 163.005 90.7259C162.864 91.2516 162.843 91.8023 162.942 92.3374V92.3374Z" fill="url(#paint21_radial_1447_142)"/>
<path d="M162.943 92.3378L164.447 100.443C164.569 101.099 164.867 101.71 165.31 102.207C165.752 102.705 166.322 103.071 166.958 103.265L171.553 104.665C171.868 104.763 172.196 104.816 172.526 104.822L178.172 104.974C178.352 104.977 178.533 104.968 178.712 104.948L183.761 104.323C184.26 104.262 184.741 104.097 185.173 103.838C185.605 103.579 185.978 103.233 186.269 102.82L186.838 102.018L187.744 100.743C188.133 100.192 188.363 99.5436 188.408 98.8691L188.828 92.6081C188.878 91.8807 188.709 91.1551 188.344 90.5256L187.624 89.2744C187.278 88.6785 186.771 88.1935 186.163 87.8757C185.554 87.5579 184.868 87.4202 184.185 87.4787L181.342 87.731C180.835 87.7786 180.323 87.7176 179.841 87.5519C179.359 87.3862 178.917 87.1196 178.545 86.7696C178.173 86.4197 177.878 85.9943 177.681 85.5216C177.484 85.0488 177.388 84.5394 177.401 84.0268L177.403 83.8213C177.415 83.0863 177.208 82.3645 176.807 81.7501C176.406 81.1356 175.831 80.657 175.155 80.3767L174.615 80.1533C173.883 79.8504 173.073 79.7964 172.308 79.9998C171.543 80.2031 170.865 80.6526 170.378 81.2797L168.207 84.0858L163.756 89.3013C163.403 89.7137 163.146 90.2007 163.006 90.7264C162.865 91.252 162.843 91.8027 162.943 92.3378V92.3378Z" stroke="#182338" stroke-width="1.40388" stroke-miterlimit="10"/>
<path d="M36.1474 62.5338C38.9077 68.9855 40.5279 77.6518 34.2405 80.7066C32.2758 81.6612 30.0115 82.0433 27.693 81.6738C25.3744 81.3042 23.3383 80.2366 21.7629 78.7178C16.7212 73.8572 20.9233 66.119 25.5295 60.8414L32.1689 53.2345L36.1474 62.5338Z" fill="url(#paint22_radial_1447_142)" stroke="url(#paint23_radial_1447_142)" stroke-width="2"/>
<path d="M22.6016 72.3045L20.215 70.3751L16.0638 68.4504C15.3907 69.9208 17.1795 75.22 17.0552 75.4915C16.9309 75.7629 17.0917 78.3878 17.1876 79.6663L20.5064 79.5596L22.3969 76.3228L22.6016 72.3045Z" fill="#64D69F"/>
<path d="M18.6624 80.1598L18.6826 80.8631L18.7305 80.8618L18.7778 80.8541L18.6624 80.1598ZM20.9968 79.1101L20.3673 78.7954L20.9968 79.1101ZM21.9192 77.2555L21.2897 76.9407L21.9192 77.2555ZM19.6599 70.4756C20.2042 70.9414 20.8927 71.587 21.4162 72.2015C21.6795 72.5106 21.882 72.7896 22.0056 73.0182C22.147 73.2796 22.1127 73.3421 22.1262 73.281L23.4989 73.5886C23.6013 73.1256 23.4143 72.6703 23.2416 72.351C23.0511 71.9989 22.7782 71.6344 22.485 71.2903C21.8956 70.5985 21.1468 69.8993 20.572 69.4073L19.6599 70.4756ZM22.1262 73.281C22.1258 73.2826 22.1255 73.2842 22.1251 73.2858C22.1248 73.2874 22.1244 73.289 22.1241 73.2906C22.1237 73.2922 22.1233 73.2939 22.123 73.2955C22.1226 73.2971 22.1223 73.2987 22.1219 73.3003C22.1216 73.3019 22.1212 73.3036 22.1208 73.3052C22.1205 73.3068 22.1201 73.3084 22.1198 73.3101C22.1194 73.3117 22.119 73.3133 22.1187 73.315C22.1183 73.3166 22.1179 73.3183 22.1176 73.3199C22.1172 73.3216 22.1168 73.3232 22.1165 73.3249C22.1161 73.3265 22.1158 73.3282 22.1154 73.3298C22.115 73.3315 22.1146 73.3332 22.1143 73.3348C22.1139 73.3365 22.1135 73.3382 22.1132 73.3398C22.1128 73.3415 22.1124 73.3432 22.1121 73.3449C22.1117 73.3465 22.1113 73.3482 22.1109 73.3499C22.1106 73.3516 22.1102 73.3533 22.1098 73.355C22.1094 73.3567 22.1091 73.3584 22.1087 73.3601C22.1083 73.3618 22.1079 73.3635 22.1076 73.3652C22.1072 73.3669 22.1068 73.3686 22.1064 73.3703C22.106 73.372 22.1057 73.3737 22.1053 73.3755C22.1049 73.3772 22.1045 73.3789 22.1041 73.3806C22.1038 73.3823 22.1034 73.3841 22.103 73.3858C22.1026 73.3875 22.1022 73.3893 22.1018 73.391C22.1015 73.3928 22.1011 73.3945 22.1007 73.3962C22.1003 73.398 22.0999 73.3997 22.0995 73.4015C22.0991 73.4032 22.0988 73.405 22.0984 73.4067C22.098 73.4085 22.0976 73.4103 22.0972 73.412C22.0968 73.4138 22.0964 73.4156 22.096 73.4173C22.0956 73.4191 22.0952 73.4209 22.0949 73.4226C22.0945 73.4244 22.0941 73.4262 22.0937 73.428C22.0933 73.4298 22.0929 73.4315 22.0925 73.4333C22.0921 73.4351 22.0917 73.4369 22.0913 73.4387C22.0909 73.4405 22.0905 73.4423 22.0901 73.4441C22.0897 73.4459 22.0893 73.4477 22.0889 73.4495C22.0885 73.4513 22.0881 73.4531 22.0877 73.4549C22.0873 73.4568 22.0869 73.4586 22.0865 73.4604C22.0861 73.4622 22.0857 73.464 22.0853 73.4659C22.0849 73.4677 22.0845 73.4695 22.0841 73.4713C22.0837 73.4732 22.0833 73.475 22.0829 73.4768C22.0825 73.4787 22.082 73.4805 22.0816 73.4824C22.0812 73.4842 22.0808 73.486 22.0804 73.4879C22.08 73.4897 22.0796 73.4916 22.0792 73.4934C22.0788 73.4953 22.0784 73.4972 22.078 73.499C22.0775 73.5009 22.0771 73.5027 22.0767 73.5046C22.0763 73.5065 22.0759 73.5083 22.0755 73.5102C22.0751 73.5121 22.0746 73.514 22.0742 73.5158C22.0738 73.5177 22.0734 73.5196 22.073 73.5215C22.0726 73.5234 22.0721 73.5253 22.0717 73.5271C22.0713 73.529 22.0709 73.5309 22.0705 73.5328C22.0701 73.5347 22.0696 73.5366 22.0692 73.5385C22.0688 73.5404 22.0684 73.5423 22.068 73.5442C22.0675 73.5461 22.0671 73.548 22.0667 73.55C22.0663 73.5519 22.0658 73.5538 22.0654 73.5557C22.065 73.5576 22.0646 73.5595 22.0641 73.5615C22.0637 73.5634 22.0633 73.5653 22.0629 73.5672C22.0624 73.5692 22.062 73.5711 22.0616 73.573C22.0612 73.575 22.0607 73.5769 22.0603 73.5788C22.0599 73.5808 22.0594 73.5827 22.059 73.5847C22.0586 73.5866 22.0581 73.5886 22.0577 73.5905C22.0573 73.5925 22.0568 73.5944 22.0564 73.5964C22.056 73.5983 22.0555 73.6003 22.0551 73.6022C22.0547 73.6042 22.0542 73.6062 22.0538 73.6081C22.0534 73.6101 22.0529 73.6121 22.0525 73.6141C22.0521 73.616 22.0516 73.618 22.0512 73.62C22.0508 73.622 22.0503 73.6239 22.0499 73.6259C22.0494 73.6279 22.049 73.6299 22.0486 73.6319C22.0481 73.6339 22.0477 73.6359 22.0472 73.6378C22.0468 73.6398 22.0464 73.6418 22.0459 73.6438C22.0455 73.6458 22.045 73.6478 22.0446 73.6498C22.0441 73.6518 22.0437 73.6538 22.0433 73.6559C22.0428 73.6579 22.0424 73.6599 22.0419 73.6619C22.0415 73.6639 22.041 73.6659 22.0406 73.6679C22.0401 73.67 22.0397 73.672 22.0392 73.674C22.0388 73.676 22.0383 73.6781 22.0379 73.6801C22.0374 73.6821 22.037 73.6841 22.0365 73.6862C22.0361 73.6882 22.0356 73.6903 22.0352 73.6923C22.0347 73.6943 22.0343 73.6964 22.0338 73.6984C22.0334 73.7005 22.0329 73.7025 22.0325 73.7046C22.032 73.7066 22.0316 73.7087 22.0311 73.7107C22.0307 73.7128 22.0302 73.7148 22.0298 73.7169C22.0293 73.7189 22.0288 73.721 22.0284 73.7231C22.0279 73.7251 22.0275 73.7272 22.027 73.7293C22.0266 73.7313 22.0261 73.7334 22.0256 73.7355C22.0252 73.7376 22.0247 73.7396 22.0243 73.7417C22.0238 73.7438 22.0233 73.7459 22.0229 73.748C22.0224 73.75 22.022 73.7521 22.0215 73.7542C22.021 73.7563 22.0206 73.7584 22.0201 73.7605C22.0196 73.7626 22.0192 73.7647 22.0187 73.7668C22.0183 73.7689 22.0178 73.771 22.0173 73.7731C22.0169 73.7752 22.0164 73.7773 22.0159 73.7794C22.0155 73.7815 22.015 73.7836 22.0145 73.7857C22.0141 73.7878 22.0136 73.7899 22.0131 73.7921C22.0127 73.7942 22.0122 73.7963 22.0117 73.7984C22.0112 73.8005 22.0108 73.8027 22.0103 73.8048C22.0098 73.8069 22.0094 73.809 22.0089 73.8112C22.0084 73.8133 22.0079 73.8154 22.0075 73.8176C22.007 73.8197 22.0065 73.8218 22.0061 73.824C22.0056 73.8261 22.0051 73.8283 22.0046 73.8304C22.0042 73.8325 22.0037 73.8347 22.0032 73.8368C22.0027 73.839 22.0023 73.8411 22.0018 73.8433C22.0013 73.8454 22.0008 73.8476 22.0004 73.8498C21.9999 73.8519 21.9994 73.8541 21.9989 73.8562C21.9984 73.8584 21.998 73.8606 21.9975 73.8627C21.997 73.8649 21.9965 73.8671 21.996 73.8692C21.9956 73.8714 21.9951 73.8736 21.9946 73.8757C21.9941 73.8779 21.9936 73.8801 21.9932 73.8823C21.9927 73.8844 21.9922 73.8866 21.9917 73.8888C21.9912 73.891 21.9907 73.8932 21.9903 73.8954C21.9898 73.8976 21.9893 73.8997 21.9888 73.9019C21.9883 73.9041 21.9878 73.9063 21.9874 73.9085C21.9869 73.9107 21.9864 73.9129 21.9859 73.9151C21.9854 73.9173 21.9849 73.9195 21.9844 73.9217C21.984 73.9239 21.9835 73.9261 21.983 73.9283C21.9825 73.9305 21.982 73.9327 21.9815 73.935C21.981 73.9372 21.9805 73.9394 21.98 73.9416C21.9795 73.9438 21.9791 73.946 21.9786 73.9482C21.9781 73.9505 21.9776 73.9527 21.9771 73.9549C21.9766 73.9571 21.9761 73.9594 21.9756 73.9616C21.9751 73.9638 21.9746 73.966 21.9741 73.9683C21.9736 73.9705 21.9731 73.9727 21.9727 73.975C21.9722 73.9772 21.9717 73.9794 21.9712 73.9817C21.9707 73.9839 21.9702 73.9862 21.9697 73.9884C21.9692 73.9907 21.9687 73.9929 21.9682 73.9951C21.9677 73.9974 21.9672 73.9996 21.9667 74.0019C21.9662 74.0041 21.9657 74.0064 21.9652 74.0086C21.9647 74.0109 21.9642 74.0132 21.9637 74.0154C21.9632 74.0177 21.9627 74.0199 21.9622 74.0222C21.9617 74.0245 21.9612 74.0267 21.9607 74.029C21.9602 74.0313 21.9597 74.0335 21.9592 74.0358C21.9587 74.0381 21.9582 74.0403 21.9577 74.0426C21.9572 74.0449 21.9567 74.0471 21.9562 74.0494C21.9557 74.0517 21.9552 74.054 21.9547 74.0563C21.9542 74.0585 21.9537 74.0608 21.9532 74.0631C21.9526 74.0654 21.9521 74.0677 21.9516 74.07C21.9511 74.0722 21.9506 74.0745 21.9501 74.0768C21.9496 74.0791 21.9491 74.0814 21.9486 74.0837C21.9481 74.086 21.9476 74.0883 21.9471 74.0906C21.9466 74.0929 21.9461 74.0952 21.9455 74.0975C21.945 74.0998 21.9445 74.1021 21.944 74.1044C21.9435 74.1067 21.943 74.109 21.9425 74.1113C21.942 74.1136 21.9415 74.1159 21.941 74.1182C21.9404 74.1206 21.9399 74.1229 21.9394 74.1252C21.9389 74.1275 21.9384 74.1298 21.9379 74.1321C21.9374 74.1345 21.9369 74.1368 21.9363 74.1391C21.9358 74.1414 21.9353 74.1437 21.9348 74.1461C21.9343 74.1484 21.9338 74.1507 21.9333 74.153C21.9327 74.1554 21.9322 74.1577 21.9317 74.16C21.9312 74.1624 21.9307 74.1647 21.9302 74.167C21.9296 74.1694 21.9291 74.1717 21.9286 74.174C21.9281 74.1764 21.9276 74.1787 21.9271 74.1811C21.9265 74.1834 21.926 74.1857 21.9255 74.1881C21.925 74.1904 21.9245 74.1928 21.9239 74.1951C21.9234 74.1975 21.9229 74.1998 21.9224 74.2022C21.9219 74.2045 21.9214 74.2069 21.9208 74.2092C21.9203 74.2116 21.9198 74.2139 21.9193 74.2163C21.9187 74.2186 21.9182 74.221 21.9177 74.2233C21.9172 74.2257 21.9167 74.2281 21.9161 74.2304C21.9156 74.2328 21.9151 74.2352 21.9146 74.2375C21.914 74.2399 21.9135 74.2422 21.913 74.2446C21.9125 74.247 21.9119 74.2494 21.9114 74.2517C21.9109 74.2541 21.9104 74.2565 21.9099 74.2588C21.9093 74.2612 21.9088 74.2636 21.9083 74.266C21.9077 74.2683 21.9072 74.2707 21.9067 74.2731C21.9062 74.2755 21.9056 74.2779 21.9051 74.2802C21.9046 74.2826 21.9041 74.285 21.9035 74.2874C21.903 74.2898 21.9025 74.2922 21.902 74.2945C21.9014 74.2969 21.9009 74.2993 21.9004 74.3017C21.8998 74.3041 21.8993 74.3065 21.8988 74.3089C21.8982 74.3113 21.8977 74.3137 21.8972 74.3161C21.8967 74.3185 21.8961 74.3209 21.8956 74.3233C21.8951 74.3257 21.8945 74.3281 21.894 74.3305C21.8935 74.3329 21.8929 74.3353 21.8924 74.3377C21.8919 74.3401 21.8913 74.3425 21.8908 74.3449C21.8903 74.3473 21.8898 74.3497 21.8892 74.3521C21.8887 74.3545 21.8882 74.3569 21.8876 74.3593C21.8871 74.3617 21.8866 74.3641 21.886 74.3666C21.8855 74.369 21.885 74.3714 21.8844 74.3738C21.8839 74.3762 21.8833 74.3786 21.8828 74.381C21.8823 74.3835 21.8817 74.3859 21.8812 74.3883C21.8807 74.3907 21.8801 74.3931 21.8796 74.3956C21.8791 74.398 21.8785 74.4004 21.878 74.4028C21.8775 74.4053 21.8769 74.4077 21.8764 74.4101C21.8758 74.4125 21.8753 74.415 21.8748 74.4174C21.8742 74.4198 21.8737 74.4223 21.8732 74.4247C21.8726 74.4271 21.8721 74.4296 21.8715 74.432C21.871 74.4344 21.8705 74.4369 21.8699 74.4393C21.8694 74.4417 21.8688 74.4442 21.8683 74.4466C21.8678 74.4491 21.8672 74.4515 21.8667 74.4539C21.8661 74.4564 21.8656 74.4588 21.8651 74.4613C21.8645 74.4637 21.864 74.4661 21.8634 74.4686C21.8629 74.471 21.8624 74.4735 21.8618 74.4759C21.8613 74.4784 21.8607 74.4808 21.8602 74.4833C21.8597 74.4857 21.8591 74.4882 21.8586 74.4906C21.858 74.4931 21.8575 74.4955 21.8569 74.498C21.8564 74.5004 21.8559 74.5029 21.8553 74.5053C21.8548 74.5078 21.8542 74.5103 21.8537 74.5127C21.8531 74.5152 21.8526 74.5176 21.8521 74.5201C21.8515 74.5225 21.851 74.525 21.8504 74.5275C21.8499 74.5299 21.8493 74.5324 21.8488 74.5349C21.8482 74.5373 21.8477 74.5398 21.8471 74.5422C21.8466 74.5447 21.8461 74.5472 21.8455 74.5496C21.845 74.5521 21.8444 74.5546 21.8439 74.557C21.8433 74.5595 21.8428 74.562 21.8422 74.5645C21.8417 74.5669 21.8411 74.5694 21.8406 74.5719C21.84 74.5743 21.8395 74.5768 21.839 74.5793C21.8384 74.5818 21.8379 74.5842 21.8373 74.5867C21.8368 74.5892 21.8362 74.5917 21.8357 74.5941C21.8351 74.5966 21.8346 74.5991 21.834 74.6016C21.8335 74.6041 21.8329 74.6065 21.8324 74.609C21.8318 74.6115 21.8313 74.614 21.8307 74.6165C21.8302 74.6189 21.8296 74.6214 21.8291 74.6239C21.8285 74.6264 21.828 74.6289 21.8274 74.6314C21.8269 74.6338 21.8263 74.6363 21.8258 74.6388C21.8252 74.6413 21.8247 74.6438 21.8241 74.6463C21.8236 74.6488 21.823 74.6513 21.8225 74.6537C21.8219 74.6562 21.8214 74.6587 21.8208 74.6612C21.8203 74.6637 21.8197 74.6662 21.8192 74.6687C21.8186 74.6712 21.8181 74.6737 21.8175 74.6762C21.817 74.6787 21.8164 74.6812 21.8159 74.6837C21.8153 74.6862 21.8148 74.6887 21.8142 74.6911C21.8137 74.6936 21.8131 74.6961 21.8125 74.6986C21.812 74.7011 21.8114 74.7036 21.8109 74.7061C21.8103 74.7086 21.8098 74.7111 21.8092 74.7136C21.8087 74.7161 21.8081 74.7186 21.8076 74.7211C21.807 74.7236 21.8065 74.7261 21.8059 74.7287C21.8054 74.7312 21.8048 74.7337 21.8042 74.7362C21.8037 74.7387 21.8031 74.7412 21.8026 74.7437C21.802 74.7462 21.8015 74.7487 21.8009 74.7512C21.8004 74.7537 21.7998 74.7562 21.7993 74.7587C21.7987 74.7612 21.7981 74.7637 21.7976 74.7662C21.797 74.7688 21.7965 74.7713 21.7959 74.7738C21.7954 74.7763 21.7948 74.7788 21.7943 74.7813C21.7937 74.7838 21.7931 74.7863 21.7926 74.7888C21.792 74.7913 21.7915 74.7939 21.7909 74.7964C21.7904 74.7989 21.7898 74.8014 21.7893 74.8039C21.7887 74.8064 21.7881 74.8089 21.7876 74.8115C21.787 74.814 21.7865 74.8165 21.7859 74.819C21.7854 74.8215 21.7848 74.824 21.7842 74.8266C21.7837 74.8291 21.7831 74.8316 21.7826 74.8341C21.782 74.8366 21.7815 74.8391 21.7809 74.8417C21.7804 74.8442 21.7798 74.8467 21.7792 74.8492C21.7787 74.8517 21.7781 74.8543 21.7776 74.8568C21.777 74.8593 21.7764 74.8618 21.7759 74.8643C21.7753 74.8669 21.7748 74.8694 21.7742 74.8719C21.7737 74.8744 21.7731 74.8769 21.7725 74.8795C21.772 74.882 21.7714 74.8845 21.7709 74.887C21.7703 74.8896 21.7698 74.8921 21.7692 74.8946C21.7686 74.8971 21.7681 74.8997 21.7675 74.9022C21.767 74.9047 21.7664 74.9072 21.7658 74.9098C21.7653 74.9123 21.7647 74.9148 21.7642 74.9173C21.7636 74.9199 21.763 74.9224 21.7625 74.9249C21.7619 74.9274 21.7614 74.93 21.7608 74.9325C21.7603 74.935 21.7597 74.9375 21.7591 74.9401C21.7586 74.9426 21.758 74.9451 21.7575 74.9476C21.7569 74.9502 21.7563 74.9527 21.7558 74.9552C21.7552 74.9578 21.7547 74.9603 21.7541 74.9628C21.7535 74.9653 21.753 74.9679 21.7524 74.9704C21.7519 74.9729 21.7513 74.9755 21.7507 74.978C21.7502 74.9805 21.7496 74.9831 21.7491 74.9856C21.7485 74.9881 21.7479 74.9906 21.7474 74.9932C21.7468 74.9957 21.7463 74.9982 21.7457 75.0008C21.7451 75.0033 21.7446 75.0058 21.744 75.0084C21.7435 75.0109 21.7429 75.0134 21.7423 75.0159C21.7418 75.0185 21.7412 75.021 21.7407 75.0235C21.7401 75.0261 21.7395 75.0286 21.739 75.0311C21.7384 75.0337 21.7379 75.0362 21.7373 75.0387C21.7367 75.0413 21.7362 75.0438 21.7356 75.0463C21.7351 75.0489 21.7345 75.0514 21.7339 75.0539C21.7334 75.0564 21.7328 75.059 21.7323 75.0615C21.7317 75.064 21.7311 75.0666 21.7306 75.0691C21.73 75.0716 21.7295 75.0742 21.7289 75.0767C21.7283 75.0792 21.7278 75.0818 21.7272 75.0843C21.7267 75.0868 21.7261 75.0894 21.7255 75.0919C21.725 75.0944 21.7244 75.097 21.7239 75.0995C21.7233 75.102 21.7227 75.1046 21.7222 75.1071C21.7216 75.1096 21.7211 75.1122 21.7205 75.1147C21.7199 75.1172 21.7194 75.1198 21.7188 75.1223C21.7183 75.1248 21.7177 75.1273 21.7171 75.1299C21.7166 75.1324 21.716 75.1349 21.7155 75.1375C21.7149 75.14 21.7143 75.1425 21.7138 75.1451C21.7132 75.1476 21.7127 75.1501 21.7121 75.1527C21.7115 75.1552 21.711 75.1577 21.7104 75.1603C21.7099 75.1628 21.7093 75.1653 21.7087 75.1678C21.7082 75.1704 21.7076 75.1729 21.7071 75.1754C21.7065 75.178 21.7059 75.1805 21.7054 75.183C21.7048 75.1856 21.7043 75.1881 21.7037 75.1906C21.7031 75.1932 21.7026 75.1957 21.702 75.1982C21.7015 75.2007 21.7009 75.2033 21.7003 75.2058C21.6998 75.2083 21.6992 75.2109 21.6987 75.2134C21.6981 75.2159 21.6975 75.2184 21.697 75.221C21.6964 75.2235 21.6959 75.226 21.6953 75.2286C21.6948 75.2311 21.6942 75.2336 21.6936 75.2361C21.6931 75.2387 21.6925 75.2412 21.692 75.2437C21.6914 75.2462 21.6908 75.2488 21.6903 75.2513C21.6897 75.2538 21.6892 75.2564 21.6886 75.2589C21.688 75.2614 21.6875 75.2639 21.6869 75.2665C21.6864 75.269 21.6858 75.2715 21.6853 75.274C21.6847 75.2766 21.6841 75.2791 21.6836 75.2816C21.683 75.2841 21.6825 75.2867 21.6819 75.2892C21.6813 75.2917 21.6808 75.2942 21.6802 75.2967C21.6797 75.2993 21.6791 75.3018 21.6786 75.3043C21.678 75.3068 21.6774 75.3094 21.6769 75.3119C21.6763 75.3144 21.6758 75.3169 21.6752 75.3194C21.6746 75.322 21.6741 75.3245 21.6735 75.327C21.673 75.3295 21.6724 75.332 21.6719 75.3346C21.6713 75.3371 21.6707 75.3396 21.6702 75.3421C21.6696 75.3446 21.6691 75.3471 21.6685 75.3497C21.668 75.3522 21.6674 75.3547 21.6668 75.3572C21.6663 75.3597 21.6657 75.3622 21.6652 75.3648C21.6646 75.3673 21.6641 75.3698 21.6635 75.3723C21.663 75.3748 21.6624 75.3773 21.6618 75.3798C21.6613 75.3824 21.6607 75.3849 21.6602 75.3874C21.6596 75.3899 21.6591 75.3924 21.6585 75.3949C21.6579 75.3974 21.6574 75.3999 21.6568 75.4025C21.6563 75.405 21.6557 75.4075 21.6552 75.41C21.6546 75.4125 21.6541 75.415 21.6535 75.4175C21.653 75.42 21.6524 75.4225 21.6518 75.425C21.6513 75.4275 21.6507 75.43 21.6502 75.4326C21.6496 75.4351 21.6491 75.4376 21.6485 75.4401C21.648 75.4426 21.6474 75.4451 21.6469 75.4476C21.6463 75.4501 21.6457 75.4526 21.6452 75.4551C21.6446 75.4576 21.6441 75.4601 21.6435 75.4626C21.643 75.4651 21.6424 75.4676 21.6419 75.4701C21.6413 75.4726 21.6408 75.4751 21.6402 75.4776C21.6397 75.4801 21.6391 75.4826 21.6386 75.4851C21.638 75.4876 21.6375 75.4901 21.6369 75.4926C21.6363 75.4951 21.6358 75.4976 21.6352 75.5001C21.6347 75.5026 21.6341 75.5051 21.6336 75.5075C21.633 75.51 21.6325 75.5125 21.6319 75.515C21.6314 75.5175 21.6308 75.52 21.6303 75.5225C21.6297 75.525 21.6292 75.5275 21.6286 75.53C21.6281 75.5325 21.6275 75.5349 21.627 75.5374C21.6264 75.5399 21.6259 75.5424 21.6253 75.5449C21.6248 75.5474 21.6242 75.5499 21.6237 75.5523C21.6231 75.5548 21.6226 75.5573 21.622 75.5598C21.6215 75.5623 21.6209 75.5648 21.6204 75.5672C21.6198 75.5697 21.6193 75.5722 21.6187 75.5747C21.6182 75.5772 21.6176 75.5796 21.6171 75.5821C21.6165 75.5846 21.616 75.5871 21.6154 75.5895C21.6149 75.592 21.6143 75.5945 21.6138 75.597C21.6133 75.5994 21.6127 75.6019 21.6122 75.6044C21.6116 75.6069 21.6111 75.6093 21.6105 75.6118C21.61 75.6143 21.6094 75.6168 21.6089 75.6192C21.6083 75.6217 21.6078 75.6242 21.6072 75.6266C21.6067 75.6291 21.6062 75.6316 21.6056 75.634C21.6051 75.6365 21.6045 75.639 21.604 75.6414C21.6034 75.6439 21.6029 75.6463 21.6023 75.6488C21.6018 75.6513 21.6012 75.6537 21.6007 75.6562C21.6002 75.6587 21.5996 75.6611 21.5991 75.6636C21.5985 75.666 21.598 75.6685 21.5974 75.6709C21.5969 75.6734 21.5964 75.6758 21.5958 75.6783C21.5953 75.6808 21.5947 75.6832 21.5942 75.6857C21.5936 75.6881 21.5931 75.6906 21.5926 75.693C21.592 75.6955 21.5915 75.6979 21.5909 75.7004C21.5904 75.7028 21.5898 75.7053 21.5893 75.7077C21.5888 75.7101 21.5882 75.7126 21.5877 75.715C21.5871 75.7175 21.5866 75.7199 21.5861 75.7224C21.5855 75.7248 21.585 75.7272 21.5844 75.7297C21.5839 75.7321 21.5834 75.7346 21.5828 75.737C21.5823 75.7394 21.5817 75.7419 21.5812 75.7443C21.5807 75.7467 21.5801 75.7492 21.5796 75.7516C21.5791 75.754 21.5785 75.7565 21.578 75.7589C21.5774 75.7613 21.5769 75.7638 21.5764 75.7662C21.5758 75.7686 21.5753 75.7711 21.5748 75.7735C21.5742 75.7759 21.5737 75.7783 21.5731 75.7808C21.5726 75.7832 21.5721 75.7856 21.5715 75.788C21.571 75.7904 21.5705 75.7929 21.5699 75.7953C21.5694 75.7977 21.5689 75.8001 21.5683 75.8025C21.5678 75.8049 21.5673 75.8074 21.5667 75.8098C21.5662 75.8122 21.5657 75.8146 21.5651 75.817C21.5646 75.8194 21.5641 75.8218 21.5635 75.8242C21.563 75.8267 21.5625 75.8291 21.5619 75.8315C21.5614 75.8339 21.5609 75.8363 21.5603 75.8387C21.5598 75.8411 21.5593 75.8435 21.5587 75.8459C21.5582 75.8483 21.5577 75.8507 21.5571 75.8531C21.5566 75.8555 21.5561 75.8579 21.5555 75.8603C21.555 75.8627 21.5545 75.8651 21.554 75.8675C21.5534 75.8699 21.5529 75.8723 21.5524 75.8746C21.5518 75.877 21.5513 75.8794 21.5508 75.8818C21.5503 75.8842 21.5497 75.8866 21.5492 75.889C21.5487 75.8914 21.5481 75.8937 21.5476 75.8961C21.5471 75.8985 21.5466 75.9009 21.546 75.9033C21.5455 75.9057 21.545 75.908 21.5445 75.9104C21.5439 75.9128 21.5434 75.9152 21.5429 75.9175C21.5424 75.9199 21.5418 75.9223 21.5413 75.9247C21.5408 75.927 21.5403 75.9294 21.5397 75.9318C21.5392 75.9341 21.5387 75.9365 21.5382 75.9389C21.5376 75.9412 21.5371 75.9436 21.5366 75.946C21.5361 75.9483 21.5355 75.9507 21.535 75.953C21.5345 75.9554 21.534 75.9578 21.5335 75.9601C21.5329 75.9625 21.5324 75.9648 21.5319 75.9672C21.5314 75.9695 21.5309 75.9719 21.5303 75.9742C21.5298 75.9766 21.5293 75.9789 21.5288 75.9813C21.5283 75.9836 21.5277 75.986 21.5272 75.9883C21.5267 75.9907 21.5262 75.993 21.5257 75.9954C21.5251 75.9977 21.5246 76 21.5241 76.0024C21.5236 76.0047 21.5231 76.0071 21.5226 76.0094C21.522 76.0117 21.5215 76.0141 21.521 76.0164C21.5205 76.0187 21.52 76.0211 21.5195 76.0234C21.5189 76.0257 21.5184 76.028 21.5179 76.0304C21.5174 76.0327 21.5169 76.035 21.5164 76.0373C21.5159 76.0397 21.5153 76.042 21.5148 76.0443C21.5143 76.0466 21.5138 76.0489 21.5133 76.0513C21.5128 76.0536 21.5123 76.0559 21.5118 76.0582C21.5113 76.0605 21.5107 76.0628 21.5102 76.0651C21.5097 76.0674 21.5092 76.0697 21.5087 76.0721C21.5082 76.0744 21.5077 76.0767 21.5072 76.079C21.5067 76.0813 21.5061 76.0836 21.5056 76.0859C21.5051 76.0882 21.5046 76.0905 21.5041 76.0928C21.5036 76.0951 21.5031 76.0973 21.5026 76.0996C21.5021 76.1019 21.5016 76.1042 21.5011 76.1065C21.5006 76.1088 21.5001 76.1111 21.4996 76.1134C21.499 76.1157 21.4985 76.1179 21.498 76.1202C21.4975 76.1225 21.497 76.1248 21.4965 76.1271C21.496 76.1293 21.4955 76.1316 21.495 76.1339C21.4945 76.1362 21.494 76.1384 21.4935 76.1407C21.493 76.143 21.4925 76.1452 21.492 76.1475C21.4915 76.1498 21.491 76.152 21.4905 76.1543C21.49 76.1566 21.4895 76.1588 21.489 76.1611C21.4885 76.1633 21.488 76.1656 21.4875 76.1679C21.487 76.1701 21.4865 76.1724 21.486 76.1746C21.4855 76.1769 21.485 76.1791 21.4845 76.1814C21.484 76.1836 21.4835 76.1859 21.483 76.1881C21.4825 76.1904 21.482 76.1926 21.4815 76.1948C21.481 76.1971 21.4805 76.1993 21.48 76.2016C21.4796 76.2038 21.4791 76.206 21.4786 76.2083C21.4781 76.2105 21.4776 76.2127 21.4771 76.215C21.4766 76.2172 21.4761 76.2194 21.4756 76.2216C21.4751 76.2239 21.4746 76.2261 21.4741 76.2283C21.4736 76.2305 21.4731 76.2327 21.4727 76.235C21.4722 76.2372 21.4717 76.2394 21.4712 76.2416C21.4707 76.2438 21.4702 76.246 21.4697 76.2482C21.4692 76.2504 21.4687 76.2527 21.4683 76.2549C21.4678 76.2571 21.4673 76.2593 21.4668 76.2615C21.4663 76.2637 21.4658 76.2659 21.4653 76.2681C21.4648 76.2703 21.4644 76.2725 21.4639 76.2746C21.4634 76.2768 21.4629 76.279 21.4624 76.2812C21.4619 76.2834 21.4615 76.2856 21.461 76.2878C21.4605 76.29 21.46 76.2921 21.4595 76.2943C21.459 76.2965 21.4586 76.2987 21.4581 76.3009C21.4576 76.303 21.4571 76.3052 21.4566 76.3074C21.4562 76.3095 21.4557 76.3117 21.4552 76.3139C21.4547 76.3161 21.4542 76.3182 21.4538 76.3204C21.4533 76.3225 21.4528 76.3247 21.4523 76.3269C21.4518 76.329 21.4514 76.3312 21.4509 76.3333C21.4504 76.3355 21.4499 76.3376 21.4495 76.3398C21.449 76.3419 21.4485 76.3441 21.448 76.3462C21.4476 76.3484 21.4471 76.3505 21.4466 76.3527C21.4461 76.3548 21.4457 76.3569 21.4452 76.3591C21.4447 76.3612 21.4443 76.3633 21.4438 76.3655C21.4433 76.3676 21.4428 76.3697 21.4424 76.3719C21.4419 76.374 21.4414 76.3761 21.441 76.3782C21.4405 76.3804 21.44 76.3825 21.4395 76.3846C21.4391 76.3867 21.4386 76.3888 21.4381 76.3909C21.4377 76.3931 21.4372 76.3952 21.4367 76.3973C21.4363 76.3994 21.4358 76.4015 21.4353 76.4036C21.4349 76.4057 21.4344 76.4078 21.434 76.4099C21.4335 76.412 21.433 76.4141 21.4326 76.4162C21.4321 76.4183 21.4316 76.4204 21.4312 76.4225C21.4307 76.4246 21.4302 76.4266 21.4298 76.4287C21.4293 76.4308 21.4289 76.4329 21.4284 76.435C21.4279 76.4371 21.4275 76.4391 21.427 76.4412C21.4266 76.4433 21.4261 76.4454 21.4256 76.4474C21.4252 76.4495 21.4247 76.4516 21.4243 76.4536C21.4238 76.4557 21.4234 76.4578 21.4229 76.4598C21.4224 76.4619 21.422 76.464 21.4215 76.466C21.4211 76.4681 21.4206 76.4701 21.4202 76.4722C21.4197 76.4742 21.4193 76.4763 21.4188 76.4783C21.4184 76.4804 21.4179 76.4824 21.4175 76.4844C21.417 76.4865 21.4166 76.4885 21.4161 76.4906C21.4157 76.4926 21.4152 76.4946 21.4148 76.4967C21.4143 76.4987 21.4139 76.5007 21.4134 76.5028C21.413 76.5048 21.4125 76.5068 21.4121 76.5088C21.4116 76.5108 21.4112 76.5129 21.4107 76.5149C21.4103 76.5169 21.4098 76.5189 21.4094 76.5209C21.4089 76.5229 21.4085 76.5249 21.4081 76.5269C21.4076 76.529 21.4072 76.531 21.4067 76.533C21.4063 76.535 21.4058 76.537 21.4054 76.5389C21.405 76.5409 21.4045 76.5429 21.4041 76.5449C21.4036 76.5469 21.4032 76.5489 21.4028 76.5509C21.4023 76.5529 21.4019 76.5549 21.4014 76.5568C21.401 76.5588 21.4006 76.5608 21.4001 76.5628C21.3997 76.5647 21.3993 76.5667 21.3988 76.5687C21.3984 76.5707 21.398 76.5726 21.3975 76.5746C21.3971 76.5765 21.3966 76.5785 21.3962 76.5805C21.3958 76.5824 21.3954 76.5844 21.3949 76.5863C21.3945 76.5883 21.3941 76.5902 21.3936 76.5922C21.3932 76.5941 21.3928 76.5961 21.3923 76.598C21.3919 76.6 21.3915 76.6019 21.391 76.6038C21.3906 76.6058 21.3902 76.6077 21.3898 76.6096C21.3893 76.6116 21.3889 76.6135 21.3885 76.6154C21.3881 76.6173 21.3876 76.6193 21.3872 76.6212C21.3868 76.6231 21.3864 76.625 21.3859 76.6269C21.3855 76.6288 21.3851 76.6308 21.3847 76.6327C21.3842 76.6346 21.3838 76.6365 21.3834 76.6384C21.383 76.6403 21.3826 76.6422 21.3821 76.6441C21.3817 76.646 21.3813 76.6479 21.3809 76.6498C21.3805 76.6517 21.38 76.6535 21.3796 76.6554C21.3792 76.6573 21.3788 76.6592 21.3784 76.6611C21.378 76.663 21.3775 76.6648 21.3771 76.6667C21.3767 76.6686 21.3763 76.6705 21.3759 76.6723C21.3755 76.6742 21.3751 76.6761 21.3747 76.6779C21.3742 76.6798 21.3738 76.6816 21.3734 76.6835C21.373 76.6854 21.3726 76.6872 21.3722 76.6891C21.3718 76.6909 21.3714 76.6928 21.371 76.6946C21.3706 76.6964 21.3701 76.6983 21.3697 76.7001C21.3693 76.702 21.3689 76.7038 21.3685 76.7056C21.3681 76.7075 21.3677 76.7093 21.3673 76.7111C21.3669 76.713 21.3665 76.7148 21.3661 76.7166C21.3657 76.7184 21.3653 76.7202 21.3649 76.7221C21.3645 76.7239 21.3641 76.7257 21.3637 76.7275C21.3633 76.7293 21.3629 76.7311 21.3625 76.7329C21.3621 76.7347 21.3617 76.7365 21.3613 76.7383L22.734 77.0459C22.7344 77.0441 22.7348 77.0423 22.7352 77.0405C22.7356 77.0387 22.736 77.0369 22.7364 77.0351C22.7368 77.0332 22.7372 77.0314 22.7376 77.0296C22.738 77.0278 22.7384 77.026 22.7388 77.0242C22.7392 77.0223 22.7396 77.0205 22.74 77.0187C22.7404 77.0169 22.7408 77.015 22.7412 77.0132C22.7416 77.0114 22.742 77.0095 22.7424 77.0077C22.7428 77.0059 22.7432 77.004 22.7436 77.0022C22.7441 77.0003 22.7445 76.9985 22.7449 76.9966C22.7453 76.9948 22.7457 76.9929 22.7461 76.9911C22.7465 76.9892 22.7469 76.9873 22.7473 76.9855C22.7477 76.9836 22.7482 76.9818 22.7486 76.9799C22.749 76.978 22.7494 76.9761 22.7498 76.9743C22.7502 76.9724 22.7506 76.9705 22.7511 76.9686C22.7515 76.9668 22.7519 76.9649 22.7523 76.963C22.7527 76.9611 22.7531 76.9592 22.7536 76.9573C22.754 76.9554 22.7544 76.9535 22.7548 76.9516C22.7552 76.9497 22.7557 76.9478 22.7561 76.9459C22.7565 76.944 22.7569 76.9421 22.7573 76.9402C22.7578 76.9383 22.7582 76.9364 22.7586 76.9345C22.759 76.9326 22.7595 76.9307 22.7599 76.9287C22.7603 76.9268 22.7607 76.9249 22.7612 76.923C22.7616 76.9211 22.762 76.9191 22.7624 76.9172C22.7629 76.9153 22.7633 76.9133 22.7637 76.9114C22.7642 76.9095 22.7646 76.9075 22.765 76.9056C22.7654 76.9036 22.7659 76.9017 22.7663 76.8997C22.7667 76.8978 22.7672 76.8958 22.7676 76.8939C22.768 76.8919 22.7685 76.89 22.7689 76.888C22.7693 76.8861 22.7698 76.8841 22.7702 76.8821C22.7706 76.8802 22.7711 76.8782 22.7715 76.8762C22.7719 76.8743 22.7724 76.8723 22.7728 76.8703C22.7732 76.8684 22.7737 76.8664 22.7741 76.8644C22.7746 76.8624 22.775 76.8604 22.7754 76.8585C22.7759 76.8565 22.7763 76.8545 22.7768 76.8525C22.7772 76.8505 22.7776 76.8485 22.7781 76.8465C22.7785 76.8445 22.779 76.8425 22.7794 76.8405C22.7798 76.8385 22.7803 76.8365 22.7807 76.8345C22.7812 76.8325 22.7816 76.8305 22.7821 76.8285C22.7825 76.8265 22.783 76.8245 22.7834 76.8224C22.7838 76.8204 22.7843 76.8184 22.7847 76.8164C22.7852 76.8144 22.7856 76.8123 22.7861 76.8103C22.7865 76.8083 22.787 76.8063 22.7874 76.8042C22.7879 76.8022 22.7883 76.8002 22.7888 76.7981C22.7892 76.7961 22.7897 76.7941 22.7901 76.792C22.7906 76.79 22.791 76.7879 22.7915 76.7859C22.7919 76.7838 22.7924 76.7818 22.7929 76.7797C22.7933 76.7777 22.7938 76.7756 22.7942 76.7736C22.7947 76.7715 22.7951 76.7695 22.7956 76.7674C22.796 76.7653 22.7965 76.7633 22.797 76.7612C22.7974 76.7591 22.7979 76.7571 22.7983 76.755C22.7988 76.7529 22.7992 76.7509 22.7997 76.7488C22.8002 76.7467 22.8006 76.7446 22.8011 76.7425C22.8015 76.7405 22.802 76.7384 22.8025 76.7363C22.8029 76.7342 22.8034 76.7321 22.8038 76.73C22.8043 76.7279 22.8048 76.7259 22.8052 76.7238C22.8057 76.7217 22.8062 76.7196 22.8066 76.7175C22.8071 76.7154 22.8076 76.7133 22.808 76.7112C22.8085 76.7091 22.809 76.707 22.8094 76.7048C22.8099 76.7027 22.8104 76.7006 22.8108 76.6985C22.8113 76.6964 22.8118 76.6943 22.8122 76.6922C22.8127 76.69 22.8132 76.6879 22.8136 76.6858C22.8141 76.6837 22.8146 76.6816 22.815 76.6794C22.8155 76.6773 22.816 76.6752 22.8165 76.673C22.8169 76.6709 22.8174 76.6688 22.8179 76.6666C22.8183 76.6645 22.8188 76.6624 22.8193 76.6602C22.8198 76.6581 22.8202 76.6559 22.8207 76.6538C22.8212 76.6516 22.8217 76.6495 22.8221 76.6473C22.8226 76.6452 22.8231 76.643 22.8236 76.6409C22.824 76.6387 22.8245 76.6366 22.825 76.6344C22.8255 76.6323 22.826 76.6301 22.8264 76.6279C22.8269 76.6258 22.8274 76.6236 22.8279 76.6214C22.8284 76.6193 22.8288 76.6171 22.8293 76.6149C22.8298 76.6128 22.8303 76.6106 22.8308 76.6084C22.8312 76.6062 22.8317 76.6041 22.8322 76.6019C22.8327 76.5997 22.8332 76.5975 22.8336 76.5953C22.8341 76.5932 22.8346 76.591 22.8351 76.5888C22.8356 76.5866 22.8361 76.5844 22.8366 76.5822C22.837 76.58 22.8375 76.5778 22.838 76.5756C22.8385 76.5734 22.839 76.5712 22.8395 76.569C22.84 76.5668 22.8404 76.5646 22.8409 76.5624C22.8414 76.5602 22.8419 76.558 22.8424 76.5558C22.8429 76.5536 22.8434 76.5514 22.8439 76.5492C22.8444 76.547 22.8448 76.5447 22.8453 76.5425C22.8458 76.5403 22.8463 76.5381 22.8468 76.5359C22.8473 76.5336 22.8478 76.5314 22.8483 76.5292C22.8488 76.527 22.8493 76.5247 22.8498 76.5225C22.8503 76.5203 22.8507 76.5181 22.8512 76.5158C22.8517 76.5136 22.8522 76.5114 22.8527 76.5091C22.8532 76.5069 22.8537 76.5046 22.8542 76.5024C22.8547 76.5002 22.8552 76.4979 22.8557 76.4957C22.8562 76.4934 22.8567 76.4912 22.8572 76.4889C22.8577 76.4867 22.8582 76.4844 22.8587 76.4822C22.8592 76.4799 22.8597 76.4777 22.8602 76.4754C22.8607 76.4732 22.8612 76.4709 22.8617 76.4687C22.8622 76.4664 22.8627 76.4641 22.8632 76.4619C22.8637 76.4596 22.8642 76.4573 22.8647 76.4551C22.8652 76.4528 22.8657 76.4505 22.8662 76.4483C22.8667 76.446 22.8672 76.4437 22.8677 76.4414C22.8682 76.4392 22.8687 76.4369 22.8692 76.4346C22.8697 76.4323 22.8702 76.4301 22.8707 76.4278C22.8712 76.4255 22.8717 76.4232 22.8722 76.4209C22.8727 76.4186 22.8732 76.4164 22.8738 76.4141C22.8743 76.4118 22.8748 76.4095 22.8753 76.4072C22.8758 76.4049 22.8763 76.4026 22.8768 76.4003C22.8773 76.398 22.8778 76.3957 22.8783 76.3934C22.8788 76.3911 22.8793 76.3888 22.8798 76.3865C22.8804 76.3842 22.8809 76.3819 22.8814 76.3796C22.8819 76.3773 22.8824 76.375 22.8829 76.3727C22.8834 76.3704 22.8839 76.3681 22.8844 76.3658C22.885 76.3634 22.8855 76.3611 22.886 76.3588C22.8865 76.3565 22.887 76.3542 22.8875 76.3519C22.888 76.3495 22.8885 76.3472 22.8891 76.3449C22.8896 76.3426 22.8901 76.3403 22.8906 76.3379C22.8911 76.3356 22.8916 76.3333 22.8921 76.3309C22.8927 76.3286 22.8932 76.3263 22.8937 76.324C22.8942 76.3216 22.8947 76.3193 22.8952 76.317C22.8958 76.3146 22.8963 76.3123 22.8968 76.3099C22.8973 76.3076 22.8978 76.3053 22.8983 76.3029C22.8989 76.3006 22.8994 76.2982 22.8999 76.2959C22.9004 76.2935 22.9009 76.2912 22.9015 76.2889C22.902 76.2865 22.9025 76.2842 22.903 76.2818C22.9035 76.2795 22.9041 76.2771 22.9046 76.2748C22.9051 76.2724 22.9056 76.27 22.9061 76.2677C22.9067 76.2653 22.9072 76.263 22.9077 76.2606C22.9082 76.2582 22.9087 76.2559 22.9093 76.2535C22.9098 76.2512 22.9103 76.2488 22.9108 76.2464C22.9114 76.2441 22.9119 76.2417 22.9124 76.2393C22.9129 76.237 22.9135 76.2346 22.914 76.2322C22.9145 76.2298 22.915 76.2275 22.9156 76.2251C22.9161 76.2227 22.9166 76.2204 22.9171 76.218C22.9177 76.2156 22.9182 76.2132 22.9187 76.2108C22.9192 76.2085 22.9198 76.2061 22.9203 76.2037C22.9208 76.2013 22.9213 76.1989 22.9219 76.1965C22.9224 76.1942 22.9229 76.1918 22.9235 76.1894C22.924 76.187 22.9245 76.1846 22.925 76.1822C22.9256 76.1798 22.9261 76.1774 22.9266 76.175C22.9272 76.1726 22.9277 76.1702 22.9282 76.1679C22.9288 76.1655 22.9293 76.1631 22.9298 76.1607C22.9303 76.1583 22.9309 76.1559 22.9314 76.1535C22.9319 76.1511 22.9325 76.1487 22.933 76.1463C22.9335 76.1438 22.9341 76.1414 22.9346 76.139C22.9351 76.1366 22.9357 76.1342 22.9362 76.1318C22.9367 76.1294 22.9373 76.127 22.9378 76.1246C22.9383 76.1222 22.9389 76.1198 22.9394 76.1173C22.9399 76.1149 22.9405 76.1125 22.941 76.1101C22.9415 76.1077 22.9421 76.1053 22.9426 76.1028C22.9431 76.1004 22.9437 76.098 22.9442 76.0956C22.9447 76.0932 22.9453 76.0907 22.9458 76.0883C22.9464 76.0859 22.9469 76.0835 22.9474 76.081C22.948 76.0786 22.9485 76.0762 22.949 76.0738C22.9496 76.0713 22.9501 76.0689 22.9507 76.0665C22.9512 76.064 22.9517 76.0616 22.9523 76.0592C22.9528 76.0567 22.9533 76.0543 22.9539 76.0519C22.9544 76.0494 22.955 76.047 22.9555 76.0446C22.956 76.0421 22.9566 76.0397 22.9571 76.0373C22.9577 76.0348 22.9582 76.0324 22.9587 76.0299C22.9593 76.0275 22.9598 76.025 22.9604 76.0226C22.9609 76.0202 22.9614 76.0177 22.962 76.0153C22.9625 76.0128 22.9631 76.0104 22.9636 76.0079C22.9641 76.0055 22.9647 76.003 22.9652 76.0006C22.9658 75.9981 22.9663 75.9957 22.9669 75.9932C22.9674 75.9908 22.9679 75.9883 22.9685 75.9859C22.969 75.9834 22.9696 75.981 22.9701 75.9785C22.9707 75.976 22.9712 75.9736 22.9717 75.9711C22.9723 75.9687 22.9728 75.9662 22.9734 75.9638C22.9739 75.9613 22.9745 75.9588 22.975 75.9564C22.9756 75.9539 22.9761 75.9514 22.9766 75.949C22.9772 75.9465 22.9777 75.9441 22.9783 75.9416C22.9788 75.9391 22.9794 75.9367 22.9799 75.9342C22.9805 75.9317 22.981 75.9293 22.9816 75.9268C22.9821 75.9243 22.9827 75.9218 22.9832 75.9194C22.9837 75.9169 22.9843 75.9144 22.9848 75.912C22.9854 75.9095 22.9859 75.907 22.9865 75.9045C22.987 75.9021 22.9876 75.8996 22.9881 75.8971C22.9887 75.8946 22.9892 75.8922 22.9898 75.8897C22.9903 75.8872 22.9909 75.8847 22.9914 75.8822C22.992 75.8798 22.9925 75.8773 22.9931 75.8748C22.9936 75.8723 22.9942 75.8698 22.9947 75.8674C22.9953 75.8649 22.9958 75.8624 22.9964 75.8599C22.9969 75.8574 22.9975 75.8549 22.998 75.8525C22.9986 75.85 22.9991 75.8475 22.9997 75.845C23.0002 75.8425 23.0008 75.84 23.0013 75.8375C23.0019 75.835 23.0024 75.8326 23.003 75.8301C23.0035 75.8276 23.0041 75.8251 23.0046 75.8226C23.0052 75.8201 23.0057 75.8176 23.0063 75.8151C23.0068 75.8126 23.0074 75.8101 23.0079 75.8076C23.0085 75.8051 23.009 75.8026 23.0096 75.8001C23.0101 75.7976 23.0107 75.7952 23.0112 75.7927C23.0118 75.7902 23.0123 75.7877 23.0129 75.7852C23.0134 75.7827 23.014 75.7802 23.0146 75.7777C23.0151 75.7752 23.0157 75.7727 23.0162 75.7702C23.0168 75.7677 23.0173 75.7652 23.0179 75.7627C23.0184 75.7602 23.019 75.7577 23.0195 75.7551C23.0201 75.7526 23.0206 75.7501 23.0212 75.7476C23.0217 75.7451 23.0223 75.7426 23.0229 75.7401C23.0234 75.7376 23.024 75.7351 23.0245 75.7326C23.0251 75.7301 23.0256 75.7276 23.0262 75.7251C23.0267 75.7226 23.0273 75.7201 23.0279 75.7175C23.0284 75.715 23.029 75.7125 23.0295 75.71C23.0301 75.7075 23.0306 75.705 23.0312 75.7025C23.0317 75.7 23.0323 75.6975 23.0328 75.6949C23.0334 75.6924 23.034 75.6899 23.0345 75.6874C23.0351 75.6849 23.0356 75.6824 23.0362 75.6799C23.0367 75.6774 23.0373 75.6748 23.0379 75.6723C23.0384 75.6698 23.039 75.6673 23.0395 75.6648C23.0401 75.6623 23.0406 75.6597 23.0412 75.6572C23.0418 75.6547 23.0423 75.6522 23.0429 75.6497C23.0434 75.6472 23.044 75.6446 23.0445 75.6421C23.0451 75.6396 23.0457 75.6371 23.0462 75.6346C23.0468 75.632 23.0473 75.6295 23.0479 75.627C23.0484 75.6245 23.049 75.622 23.0496 75.6194C23.0501 75.6169 23.0507 75.6144 23.0512 75.6119C23.0518 75.6094 23.0523 75.6068 23.0529 75.6043C23.0535 75.6018 23.054 75.5993 23.0546 75.5967C23.0551 75.5942 23.0557 75.5917 23.0563 75.5892C23.0568 75.5866 23.0574 75.5841 23.0579 75.5816C23.0585 75.5791 23.059 75.5765 23.0596 75.574C23.0602 75.5715 23.0607 75.569 23.0613 75.5664C23.0618 75.5639 23.0624 75.5614 23.063 75.5589C23.0635 75.5563 23.0641 75.5538 23.0646 75.5513C23.0652 75.5488 23.0658 75.5462 23.0663 75.5437C23.0669 75.5412 23.0674 75.5386 23.068 75.5361C23.0685 75.5336 23.0691 75.5311 23.0697 75.5285C23.0702 75.526 23.0708 75.5235 23.0713 75.521C23.0719 75.5184 23.0725 75.5159 23.073 75.5134C23.0736 75.5108 23.0741 75.5083 23.0747 75.5058C23.0753 75.5032 23.0758 75.5007 23.0764 75.4982C23.0769 75.4957 23.0775 75.4931 23.0781 75.4906C23.0786 75.4881 23.0792 75.4855 23.0797 75.483C23.0803 75.4805 23.0809 75.4779 23.0814 75.4754C23.082 75.4729 23.0825 75.4704 23.0831 75.4678C23.0837 75.4653 23.0842 75.4628 23.0848 75.4602C23.0853 75.4577 23.0859 75.4552 23.0865 75.4526C23.087 75.4501 23.0876 75.4476 23.0881 75.445C23.0887 75.4425 23.0893 75.44 23.0898 75.4374C23.0904 75.4349 23.0909 75.4324 23.0915 75.4298C23.0921 75.4273 23.0926 75.4248 23.0932 75.4223C23.0937 75.4197 23.0943 75.4172 23.0949 75.4147C23.0954 75.4121 23.096 75.4096 23.0965 75.4071C23.0971 75.4045 23.0977 75.402 23.0982 75.3995C23.0988 75.3969 23.0993 75.3944 23.0999 75.3919C23.1005 75.3893 23.101 75.3868 23.1016 75.3843C23.1021 75.3817 23.1027 75.3792 23.1033 75.3767C23.1038 75.3741 23.1044 75.3716 23.1049 75.3691C23.1055 75.3665 23.1061 75.364 23.1066 75.3615C23.1072 75.359 23.1077 75.3564 23.1083 75.3539C23.1089 75.3514 23.1094 75.3488 23.11 75.3463C23.1105 75.3438 23.1111 75.3412 23.1117 75.3387C23.1122 75.3362 23.1128 75.3336 23.1133 75.3311C23.1139 75.3286 23.1145 75.326 23.115 75.3235C23.1156 75.321 23.1161 75.3184 23.1167 75.3159C23.1173 75.3134 23.1178 75.3109 23.1184 75.3083C23.1189 75.3058 23.1195 75.3033 23.1201 75.3007C23.1206 75.2982 23.1212 75.2957 23.1217 75.2931C23.1223 75.2906 23.1229 75.2881 23.1234 75.2856C23.124 75.283 23.1245 75.2805 23.1251 75.278C23.1257 75.2754 23.1262 75.2729 23.1268 75.2704C23.1273 75.2679 23.1279 75.2653 23.1285 75.2628C23.129 75.2603 23.1296 75.2577 23.1301 75.2552C23.1307 75.2527 23.1313 75.2502 23.1318 75.2476C23.1324 75.2451 23.1329 75.2426 23.1335 75.2401C23.1341 75.2375 23.1346 75.235 23.1352 75.2325C23.1357 75.2299 23.1363 75.2274 23.1368 75.2249C23.1374 75.2224 23.138 75.2198 23.1385 75.2173C23.1391 75.2148 23.1396 75.2123 23.1402 75.2097C23.1408 75.2072 23.1413 75.2047 23.1419 75.2022C23.1424 75.1996 23.143 75.1971 23.1435 75.1946C23.1441 75.1921 23.1447 75.1896 23.1452 75.187C23.1458 75.1845 23.1463 75.182 23.1469 75.1795C23.1475 75.1769 23.148 75.1744 23.1486 75.1719C23.1491 75.1694 23.1497 75.1669 23.1502 75.1643C23.1508 75.1618 23.1514 75.1593 23.1519 75.1568C23.1525 75.1543 23.153 75.1517 23.1536 75.1492C23.1541 75.1467 23.1547 75.1442 23.1553 75.1417C23.1558 75.1392 23.1564 75.1366 23.1569 75.1341C23.1575 75.1316 23.158 75.1291 23.1586 75.1266C23.1592 75.1241 23.1597 75.1215 23.1603 75.119C23.1608 75.1165 23.1614 75.114 23.1619 75.1115C23.1625 75.109 23.163 75.1065 23.1636 75.1039C23.1642 75.1014 23.1647 75.0989 23.1653 75.0964C23.1658 75.0939 23.1664 75.0914 23.1669 75.0889C23.1675 75.0864 23.1681 75.0838 23.1686 75.0813C23.1692 75.0788 23.1697 75.0763 23.1703 75.0738C23.1708 75.0713 23.1714 75.0688 23.1719 75.0663C23.1725 75.0638 23.173 75.0613 23.1736 75.0588C23.1742 75.0563 23.1747 75.0537 23.1753 75.0512C23.1758 75.0487 23.1764 75.0462 23.1769 75.0437C23.1775 75.0412 23.178 75.0387 23.1786 75.0362C23.1791 75.0337 23.1797 75.0312 23.1802 75.0287C23.1808 75.0262 23.1814 75.0237 23.1819 75.0212C23.1825 75.0187 23.183 75.0162 23.1836 75.0137C23.1841 75.0112 23.1847 75.0087 23.1852 75.0062C23.1858 75.0037 23.1863 75.0012 23.1869 74.9987C23.1874 74.9962 23.188 74.9937 23.1885 74.9912C23.1891 74.9887 23.1896 74.9862 23.1902 74.9837C23.1907 74.9812 23.1913 74.9788 23.1919 74.9763C23.1924 74.9738 23.193 74.9713 23.1935 74.9688C23.1941 74.9663 23.1946 74.9638 23.1952 74.9613C23.1957 74.9588 23.1963 74.9563 23.1968 74.9538C23.1974 74.9514 23.1979 74.9489 23.1985 74.9464C23.199 74.9439 23.1996 74.9414 23.2001 74.9389C23.2007 74.9364 23.2012 74.934 23.2018 74.9315C23.2023 74.929 23.2029 74.9265 23.2034 74.924C23.204 74.9215 23.2045 74.9191 23.2051 74.9166C23.2056 74.9141 23.2062 74.9116 23.2067 74.9091C23.2072 74.9067 23.2078 74.9042 23.2083 74.9017C23.2089 74.8992 23.2094 74.8968 23.21 74.8943C23.2105 74.8918 23.2111 74.8893 23.2116 74.8869C23.2122 74.8844 23.2127 74.8819 23.2133 74.8794C23.2138 74.877 23.2144 74.8745 23.2149 74.872C23.2155 74.8696 23.216 74.8671 23.2166 74.8646C23.2171 74.8621 23.2176 74.8597 23.2182 74.8572C23.2187 74.8547 23.2193 74.8523 23.2198 74.8498C23.2204 74.8473 23.2209 74.8449 23.2215 74.8424C23.222 74.84 23.2226 74.8375 23.2231 74.835C23.2236 74.8326 23.2242 74.8301 23.2247 74.8277C23.2253 74.8252 23.2258 74.8227 23.2264 74.8203C23.2269 74.8178 23.2274 74.8154 23.228 74.8129C23.2285 74.8105 23.2291 74.808 23.2296 74.8055C23.2302 74.8031 23.2307 74.8006 23.2312 74.7982C23.2318 74.7957 23.2323 74.7933 23.2329 74.7908C23.2334 74.7884 23.234 74.7859 23.2345 74.7835C23.235 74.781 23.2356 74.7786 23.2361 74.7762C23.2367 74.7737 23.2372 74.7713 23.2377 74.7688C23.2383 74.7664 23.2388 74.7639 23.2394 74.7615C23.2399 74.7591 23.2404 74.7566 23.241 74.7542C23.2415 74.7517 23.2421 74.7493 23.2426 74.7469C23.2431 74.7444 23.2437 74.742 23.2442 74.7396C23.2448 74.7371 23.2453 74.7347 23.2458 74.7323C23.2464 74.7298 23.2469 74.7274 23.2474 74.725C23.248 74.7225 23.2485 74.7201 23.2491 74.7177C23.2496 74.7153 23.2501 74.7128 23.2507 74.7104C23.2512 74.708 23.2517 74.7056 23.2523 74.7031C23.2528 74.7007 23.2534 74.6983 23.2539 74.6959C23.2544 74.6934 23.255 74.691 23.2555 74.6886C23.256 74.6862 23.2566 74.6838 23.2571 74.6814C23.2576 74.6789 23.2582 74.6765 23.2587 74.6741C23.2592 74.6717 23.2598 74.6693 23.2603 74.6669C23.2608 74.6645 23.2614 74.6621 23.2619 74.6597C23.2624 74.6572 23.263 74.6548 23.2635 74.6524C23.264 74.65 23.2646 74.6476 23.2651 74.6452C23.2656 74.6428 23.2662 74.6404 23.2667 74.638C23.2672 74.6356 23.2677 74.6332 23.2683 74.6308C23.2688 74.6284 23.2693 74.626 23.2699 74.6236C23.2704 74.6212 23.2709 74.6188 23.2715 74.6164C23.272 74.6141 23.2725 74.6117 23.273 74.6093C23.2736 74.6069 23.2741 74.6045 23.2746 74.6021C23.2752 74.5997 23.2757 74.5973 23.2762 74.5949C23.2767 74.5926 23.2773 74.5902 23.2778 74.5878C23.2783 74.5854 23.2788 74.583 23.2794 74.5807C23.2799 74.5783 23.2804 74.5759 23.281 74.5735C23.2815 74.5712 23.282 74.5688 23.2825 74.5664C23.2831 74.564 23.2836 74.5617 23.2841 74.5593C23.2846 74.5569 23.2852 74.5545 23.2857 74.5522C23.2862 74.5498 23.2867 74.5474 23.2872 74.5451C23.2878 74.5427 23.2883 74.5404 23.2888 74.538C23.2893 74.5356 23.2899 74.5333 23.2904 74.5309C23.2909 74.5286 23.2914 74.5262 23.2919 74.5238C23.2925 74.5215 23.293 74.5191 23.2935 74.5168C23.294 74.5144 23.2945 74.5121 23.2951 74.5097C23.2956 74.5074 23.2961 74.505 23.2966 74.5027C23.2971 74.5003 23.2977 74.498 23.2982 74.4956C23.2987 74.4933 23.2992 74.491 23.2997 74.4886C23.3003 74.4863 23.3008 74.4839 23.3013 74.4816C23.3018 74.4793 23.3023 74.4769 23.3028 74.4746C23.3034 74.4723 23.3039 74.4699 23.3044 74.4676C23.3049 74.4653 23.3054 74.4629 23.3059 74.4606C23.3064 74.4583 23.307 74.456 23.3075 74.4536C23.308 74.4513 23.3085 74.449 23.309 74.4467C23.3095 74.4443 23.31 74.442 23.3106 74.4397C23.3111 74.4374 23.3116 74.4351 23.3121 74.4328C23.3126 74.4304 23.3131 74.4281 23.3136 74.4258C23.3141 74.4235 23.3147 74.4212 23.3152 74.4189C23.3157 74.4166 23.3162 74.4143 23.3167 74.412C23.3172 74.4097 23.3177 74.4074 23.3182 74.4051C23.3187 74.4028 23.3192 74.4005 23.3198 74.3982C23.3203 74.3959 23.3208 74.3936 23.3213 74.3913C23.3218 74.389 23.3223 74.3867 23.3228 74.3844C23.3233 74.3821 23.3238 74.3798 23.3243 74.3775C23.3248 74.3752 23.3253 74.373 23.3258 74.3707C23.3263 74.3684 23.3268 74.3661 23.3273 74.3638C23.3279 74.3615 23.3284 74.3593 23.3289 74.357C23.3294 74.3547 23.3299 74.3524 23.3304 74.3502C23.3309 74.3479 23.3314 74.3456 23.3319 74.3434C23.3324 74.3411 23.3329 74.3388 23.3334 74.3365C23.3339 74.3343 23.3344 74.332 23.3349 74.3298C23.3354 74.3275 23.3359 74.3252 23.3364 74.323C23.3369 74.3207 23.3374 74.3185 23.3379 74.3162C23.3384 74.314 23.3389 74.3117 23.3394 74.3095C23.3399 74.3072 23.3404 74.305 23.3409 74.3027C23.3414 74.3005 23.3419 74.2982 23.3424 74.296C23.3429 74.2937 23.3434 74.2915 23.3438 74.2892C23.3443 74.287 23.3448 74.2848 23.3453 74.2825C23.3458 74.2803 23.3463 74.2781 23.3468 74.2758C23.3473 74.2736 23.3478 74.2714 23.3483 74.2691C23.3488 74.2669 23.3493 74.2647 23.3498 74.2625C23.3503 74.2602 23.3508 74.258 23.3512 74.2558C23.3517 74.2536 23.3522 74.2514 23.3527 74.2492C23.3532 74.2469 23.3537 74.2447 23.3542 74.2425C23.3547 74.2403 23.3552 74.2381 23.3557 74.2359C23.3561 74.2337 23.3566 74.2315 23.3571 74.2293C23.3576 74.2271 23.3581 74.2249 23.3586 74.2227C23.3591 74.2205 23.3595 74.2183 23.36 74.2161C23.3605 74.2139 23.361 74.2117 23.3615 74.2095C23.362 74.2073 23.3625 74.2051 23.3629 74.2029C23.3634 74.2007 23.3639 74.1986 23.3644 74.1964C23.3649 74.1942 23.3654 74.192 23.3658 74.1898C23.3663 74.1877 23.3668 74.1855 23.3673 74.1833C23.3678 74.1811 23.3682 74.179 23.3687 74.1768C23.3692 74.1746 23.3697 74.1725 23.3702 74.1703C23.3706 74.1681 23.3711 74.166 23.3716 74.1638C23.3721 74.1616 23.3726 74.1595 23.373 74.1573C23.3735 74.1552 23.374 74.153 23.3745 74.1509C23.3749 74.1487 23.3754 74.1466 23.3759 74.1444C23.3764 74.1423 23.3768 74.1401 23.3773 74.138C23.3778 74.1358 23.3783 74.1337 23.3787 74.1315C23.3792 74.1294 23.3797 74.1273 23.3802 74.1251C23.3806 74.123 23.3811 74.1209 23.3816 74.1187C23.382 74.1166 23.3825 74.1145 23.383 74.1124C23.3835 74.1102 23.3839 74.1081 23.3844 74.106C23.3849 74.1039 23.3853 74.1017 23.3858 74.0996C23.3863 74.0975 23.3867 74.0954 23.3872 74.0933C23.3877 74.0912 23.3881 74.0891 23.3886 74.087C23.3891 74.0848 23.3895 74.0827 23.39 74.0806C23.3905 74.0785 23.3909 74.0764 23.3914 74.0743C23.3919 74.0722 23.3923 74.0701 23.3928 74.0681C23.3932 74.066 23.3937 74.0639 23.3942 74.0618C23.3946 74.0597 23.3951 74.0576 23.3956 74.0555C23.396 74.0534 23.3965 74.0514 23.3969 74.0493C23.3974 74.0472 23.3979 74.0451 23.3983 74.0431C23.3988 74.041 23.3992 74.0389 23.3997 74.0368C23.4001 74.0348 23.4006 74.0327 23.4011 74.0306C23.4015 74.0286 23.402 74.0265 23.4024 74.0245C23.4029 74.0224 23.4033 74.0203 23.4038 74.0183C23.4042 74.0162 23.4047 74.0142 23.4052 74.0121C23.4056 74.0101 23.4061 74.008 23.4065 74.006C23.407 74.0039 23.4074 74.0019 23.4079 73.9999C23.4083 73.9978 23.4088 73.9958 23.4092 73.9937C23.4097 73.9917 23.4101 73.9897 23.4106 73.9877C23.411 73.9856 23.4115 73.9836 23.4119 73.9816C23.4124 73.9795 23.4128 73.9775 23.4133 73.9755C23.4137 73.9735 23.4142 73.9715 23.4146 73.9695C23.415 73.9674 23.4155 73.9654 23.4159 73.9634C23.4164 73.9614 23.4168 73.9594 23.4173 73.9574C23.4177 73.9554 23.4182 73.9534 23.4186 73.9514C23.419 73.9494 23.4195 73.9474 23.4199 73.9454C23.4204 73.9434 23.4208 73.9414 23.4212 73.9394C23.4217 73.9374 23.4221 73.9355 23.4226 73.9335C23.423 73.9315 23.4234 73.9295 23.4239 73.9275C23.4243 73.9256 23.4247 73.9236 23.4252 73.9216C23.4256 73.9196 23.4261 73.9177 23.4265 73.9157C23.4269 73.9137 23.4274 73.9118 23.4278 73.9098C23.4282 73.9079 23.4287 73.9059 23.4291 73.9039C23.4295 73.902 23.43 73.9 23.4304 73.8981C23.4308 73.8961 23.4313 73.8942 23.4317 73.8922C23.4321 73.8903 23.4325 73.8883 23.433 73.8864C23.4334 73.8845 23.4338 73.8825 23.4343 73.8806C23.4347 73.8787 23.4351 73.8767 23.4355 73.8748C23.436 73.8729 23.4364 73.8709 23.4368 73.869C23.4372 73.8671 23.4377 73.8652 23.4381 73.8633C23.4385 73.8613 23.4389 73.8594 23.4394 73.8575C23.4398 73.8556 23.4402 73.8537 23.4406 73.8518C23.4411 73.8499 23.4415 73.848 23.4419 73.8461C23.4423 73.8442 23.4427 73.8423 23.4432 73.8404C23.4436 73.8385 23.444 73.8366 23.4444 73.8347C23.4448 73.8328 23.4452 73.8309 23.4457 73.829C23.4461 73.8272 23.4465 73.8253 23.4469 73.8234C23.4473 73.8215 23.4477 73.8197 23.4482 73.8178C23.4486 73.8159 23.449 73.814 23.4494 73.8122C23.4498 73.8103 23.4502 73.8084 23.4506 73.8066C23.451 73.8047 23.4515 73.8029 23.4519 73.801C23.4523 73.7992 23.4527 73.7973 23.4531 73.7955C23.4535 73.7936 23.4539 73.7918 23.4543 73.7899C23.4547 73.7881 23.4551 73.7862 23.4555 73.7844C23.4559 73.7826 23.4563 73.7807 23.4568 73.7789C23.4572 73.7771 23.4576 73.7752 23.458 73.7734C23.4584 73.7716 23.4588 73.7698 23.4592 73.768C23.4596 73.7661 23.46 73.7643 23.4604 73.7625C23.4608 73.7607 23.4612 73.7589 23.4616 73.7571C23.462 73.7553 23.4624 73.7535 23.4628 73.7517C23.4632 73.7499 23.4636 73.7481 23.464 73.7463C23.4644 73.7445 23.4648 73.7427 23.4652 73.7409C23.4656 73.7391 23.466 73.7373 23.4663 73.7355C23.4667 73.7338 23.4671 73.732 23.4675 73.7302C23.4679 73.7284 23.4683 73.7267 23.4687 73.7249C23.4691 73.7231 23.4695 73.7214 23.4699 73.7196C23.4703 73.7178 23.4707 73.7161 23.471 73.7143C23.4714 73.7126 23.4718 73.7108 23.4722 73.709C23.4726 73.7073 23.473 73.7055 23.4734 73.7038C23.4738 73.7021 23.4741 73.7003 23.4745 73.6986C23.4749 73.6968 23.4753 73.6951 23.4757 73.6934C23.4761 73.6916 23.4764 73.6899 23.4768 73.6882C23.4772 73.6865 23.4776 73.6847 23.478 73.683C23.4783 73.6813 23.4787 73.6796 23.4791 73.6779C23.4795 73.6762 23.4799 73.6744 23.4802 73.6727C23.4806 73.671 23.481 73.6693 23.4814 73.6676C23.4817 73.6659 23.4821 73.6642 23.4825 73.6625C23.4829 73.6609 23.4832 73.6592 23.4836 73.6575C23.484 73.6558 23.4844 73.6541 23.4847 73.6524C23.4851 73.6507 23.4855 73.6491 23.4858 73.6474C23.4862 73.6457 23.4866 73.6441 23.487 73.6424C23.4873 73.6407 23.4877 73.6391 23.4881 73.6374C23.4884 73.6357 23.4888 73.6341 23.4892 73.6324C23.4895 73.6308 23.4899 73.6291 23.4903 73.6275C23.4906 73.6258 23.491 73.6242 23.4913 73.6225C23.4917 73.6209 23.4921 73.6193 23.4924 73.6176C23.4928 73.616 23.4932 73.6144 23.4935 73.6127C23.4939 73.6111 23.4942 73.6095 23.4946 73.6079C23.495 73.6063 23.4953 73.6046 23.4957 73.603C23.496 73.6014 23.4964 73.5998 23.4967 73.5982C23.4971 73.5966 23.4974 73.595 23.4978 73.5934C23.4982 73.5918 23.4985 73.5902 23.4989 73.5886L22.1262 73.281ZM21.2897 76.9407L20.3673 78.7954L21.6263 79.4249L22.5487 77.5702L21.2897 76.9407ZM19.7196 79.2734L18.5471 79.4656L18.7778 80.8541L19.9504 80.6619L19.7196 79.2734ZM18.6423 79.4566L17.1122 79.4965L17.1525 80.903L18.6826 80.8631L18.6423 79.4566ZM19.6361 68.9364L15.5895 67.9814L15.2702 69.3507L19.3167 70.3057L19.6361 68.9364ZM20.3673 78.7954C20.2409 79.0497 20 79.2275 19.7196 79.2734L19.9504 80.6619C20.6757 80.543 21.299 80.0829 21.6263 79.4249L20.3673 78.7954ZM21.3613 76.7383C21.3458 76.8084 21.3219 76.8761 21.2897 76.9407L22.5487 77.5702C22.6315 77.4037 22.6937 77.2279 22.734 77.0459L21.3613 76.7383ZM20.572 69.4073C20.2966 69.1716 19.973 69.016 19.6361 68.9364L19.3167 70.3057C19.4508 70.3374 19.5673 70.3963 19.6599 70.4756L20.572 69.4073Z" fill="#182338"/>
<defs>
<radialGradient id="paint0_radial_1447_142" cx="0" cy="0" r="1" gradientUnits="userSpaceOnUse" gradientTransform="translate(94.8632 76.3365) rotate(55.5062) scale(75.4458 97.4349)">
<stop stop-color="#A6FFD4"/>
<stop offset="0.48193" stop-color="#83EAE4" stop-opacity="0.31"/>
<stop offset="1" stop-color="#C037C2" stop-opacity="0.96"/>
</radialGradient>
<radialGradient id="paint1_radial_1447_142" cx="0" cy="0" r="1" gradientUnits="userSpaceOnUse" gradientTransform="translate(93.7392 76.4062) rotate(55.5055) scale(71.9109 92.8701)">
<stop stop-color="#A6FFD4"/>
<stop offset="0.48193" stop-color="#83EAE4" stop-opacity="0.31"/>
<stop offset="1" stop-color="#C037C2" stop-opacity="0.96"/>
</radialGradient>
<radialGradient id="paint2_radial_1447_142" cx="0" cy="0" r="1" gradientUnits="userSpaceOnUse" gradientTransform="translate(49.4561 114.811) rotate(63.9948) scale(219.619 2023.19)">
<stop stop-color="#4BF2A2"/>
<stop offset="0.421875" stop-color="#564D8F"/>
<stop offset="1" stop-color="#DD40CD"/>
</radialGradient>
<linearGradient id="paint3_linear_1447_142" x1="29.2753" y1="17.5862" x2="142.54" y2="218.168" gradientUnits="userSpaceOnUse">
<stop stop-color="#F4F4F4"/>
<stop offset="0.358938" stop-color="#F9F9F9"/>
<stop offset="0.48193" stop-color="#FABAFC" stop-opacity="0.28"/>
<stop offset="0.567848" stop-color="#F7F7F7" stop-opacity="0.96"/>
</linearGradient>
<radialGradient id="paint4_radial_1447_142" cx="0" cy="0" r="1" gradientUnits="userSpaceOnUse" gradientTransform="translate(72.7095 147.108) rotate(49.8522) scale(46.2991 60.4825)">
<stop stop-color="#F4F4F4"/>
<stop offset="0.48193" stop-color="#361836" stop-opacity="0.22"/>
<stop offset="1" stop-color="#C037C2" stop-opacity="0.96"/>
</radialGradient>
<radialGradient id="paint5_radial_1447_142" cx="0" cy="0" r="1" gradientUnits="userSpaceOnUse" gradientTransform="translate(79.5368 78.0771) rotate(30.6772) scale(53.3537 414.291)">
<stop stop-color="#4BF2A2"/>
<stop offset="0.421875" stop-color="#564D8F"/>
<stop offset="1" stop-color="#DD40CD"/>
</radialGradient>
<radialGradient id="paint6_radial_1447_142" cx="0" cy="0" r="1" gradientUnits="userSpaceOnUse" gradientTransform="translate(85.1557 76.3453) rotate(31.5018) scale(38.1621 303.552)">
<stop stop-color="#4BF2A2"/>
<stop offset="0.421875" stop-color="#564D8F"/>
<stop offset="1" stop-color="#DD40CD"/>
</radialGradient>
<radialGradient id="paint7_radial_1447_142" cx="0" cy="0" r="1" gradientUnits="userSpaceOnUse" gradientTransform="translate(79.4039 34.3342) rotate(70.9912) scale(143.65 1128.12)">
<stop stop-color="#4BF2A2"/>
<stop offset="0.421875" stop-color="#564D8F"/>
<stop offset="1" stop-color="#DD40CD"/>
</radialGradient>
<radialGradient id="paint8_radial_1447_142" cx="0" cy="0" r="1" gradientUnits="userSpaceOnUse" gradientTransform="translate(94.83 77.0779) rotate(19.0686) scale(40.2626 23.1093)">
<stop stop-color="#F4F4F4"/>
<stop offset="0.48193" stop-color="#F4F4F4"/>
<stop offset="1" stop-color="#C037C2" stop-opacity="0.96"/>
</radialGradient>
<radialGradient id="paint9_radial_1447_142" cx="0" cy="0" r="1" gradientUnits="userSpaceOnUse" gradientTransform="translate(99.8058 21.1401) rotate(53.2348) scale(72.3399 94.2981)">
<stop stop-color="#060006"/>
<stop offset="0.567708" stop-color="#BAAEBA" stop-opacity="0.566733"/>
<stop offset="1" stop-color="#C037C2" stop-opacity="0.96"/>
</radialGradient>
<radialGradient id="paint10_radial_1447_142" cx="0" cy="0" r="1" gradientUnits="userSpaceOnUse" gradientTransform="translate(89.0058 34.0712) rotate(62.3374) scale(52.9725 57.9054)">
<stop stop-color="#2F6756"/>
<stop offset="0.427083" stop-color="#1B0724"/>
<stop offset="0.699054" stop-color="#2F1A51"/>
<stop offset="1" stop-color="#7C2BA3"/>
</radialGradient>
<radialGradient id="paint11_radial_1447_142" cx="0" cy="0" r="1" gradientUnits="userSpaceOnUse" gradientTransform="translate(122.302 41.7884) rotate(87.5742) scale(47.6337 141.43)">
<stop stop-color="#4BF2A2"/>
<stop offset="0.421875" stop-color="#564D8F"/>
<stop offset="1" stop-color="#DD40CD"/>
</radialGradient>
<radialGradient id="paint12_radial_1447_142" cx="0" cy="0" r="1" gradientUnits="userSpaceOnUse" gradientTransform="translate(86.7119 110.787) rotate(58.4332) scale(28.2374 32.3305)">
<stop stop-color="#DDDDDD"/>
<stop offset="0.1875" stop-color="#CACACA"/>
<stop offset="0.32884" stop-color="#CB9CCC"/>
<stop offset="0.699054" stop-color="#DADADA"/>
<stop offset="1" stop-color="#EFEFEF"/>
</radialGradient>
<radialGradient id="paint13_radial_1447_142" cx="0" cy="0" r="1" gradientUnits="userSpaceOnUse" gradientTransform="translate(138.639 112.507) rotate(73.2185) scale(89.4327 91.6156)">
<stop stop-color="#F4F4F4"/>
<stop offset="0.0001" stop-color="#DD40CD" stop-opacity="0.27"/>
<stop offset="0.48193" stop-color="#E258E4" stop-opacity="0.22"/>
<stop offset="1" stop-color="#C037C2" stop-opacity="0.96"/>
</radialGradient>
<radialGradient id="paint14_radial_1447_142" cx="0" cy="0" r="1" gradientUnits="userSpaceOnUse" gradientTransform="translate(29.3786 79.2539) rotate(80.3539) scale(26.7942 142.621)">
<stop stop-color="#4BF2A2"/>
<stop offset="0.421875" stop-color="#564D8F"/>
<stop offset="1" stop-color="#DD40CD"/>
</radialGradient>
<radialGradient id="paint15_radial_1447_142" cx="0" cy="0" r="1" gradientUnits="userSpaceOnUse" gradientTransform="translate(15.1712 71.7436) rotate(72.6057) scale(46.7445 365.263)">
<stop stop-color="#4BF2A2"/>
<stop offset="0.421875" stop-color="#564D8F"/>
<stop offset="1" stop-color="#DD40CD"/>
</radialGradient>
<radialGradient id="paint16_radial_1447_142" cx="0" cy="0" r="1" gradientUnits="userSpaceOnUse" gradientTransform="translate(21.758 67.2232) rotate(54.6178) scale(23.1304 31.0722)">
<stop stop-color="#2DCA3C" stop-opacity="0.4"/>
<stop offset="0.453125" stop-color="#E3E3E3" stop-opacity="0.566733"/>
<stop offset="1" stop-color="#F4F4F4"/>
</radialGradient>
<radialGradient id="paint17_radial_1447_142" cx="0" cy="0" r="1" gradientUnits="userSpaceOnUse" gradientTransform="translate(22.3523 67.2754) rotate(56.0347) scale(22.6606 30.2174)">
<stop stop-color="#F4F4F4"/>
<stop offset="0.48193" stop-color="#BAAEBA" stop-opacity="0.566733"/>
<stop offset="1" stop-color="#C037C2" stop-opacity="0.96"/>
<stop offset="1" stop-color="#98FF7E" stop-opacity="0.96"/>
</radialGradient>
<radialGradient id="paint18_radial_1447_142" cx="0" cy="0" r="1" gradientUnits="userSpaceOnUse" gradientTransform="translate(160.486 94.1744) rotate(80.3562) scale(26.7909 142.584)">
<stop stop-color="#4BF2A2"/>
<stop offset="0.421875" stop-color="#564D8F"/>
<stop offset="1" stop-color="#DD40CD"/>
</radialGradient>
<radialGradient id="paint19_radial_1447_142" cx="0" cy="0" r="1" gradientUnits="userSpaceOnUse" gradientTransform="translate(167.674 88.5424) rotate(68.6609) scale(48.8368 408.394)">
<stop stop-color="#4BF2A2"/>
<stop offset="0.421875" stop-color="#564D8F"/>
<stop offset="1" stop-color="#DD40CD"/>
</radialGradient>
<radialGradient id="paint20_radial_1447_142" cx="0" cy="0" r="1" gradientUnits="userSpaceOnUse" gradientTransform="translate(175.152 84.2179) rotate(50.2929) scale(25.3444 33.1255)">
<stop stop-color="#F4F4F4"/>
<stop offset="0.48193" stop-color="#BAAEBA" stop-opacity="0.566733"/>
<stop offset="1" stop-color="#C037C2" stop-opacity="0.96"/>
<stop offset="1" stop-color="#98FF7E" stop-opacity="0.96"/>
</radialGradient>
<radialGradient id="paint21_radial_1447_142" cx="0" cy="0" r="1" gradientUnits="userSpaceOnUse" gradientTransform="translate(174.612 84.1741) rotate(51.6582) scale(24.7294 32.3243)">
<stop stop-color="#F4F4F4"/>
<stop offset="0.48193" stop-color="#BAAEBA" stop-opacity="0.566733"/>
<stop offset="1" stop-color="#C037C2" stop-opacity="0.96"/>
<stop offset="1" stop-color="#98FF7E" stop-opacity="0.96"/>
</radialGradient>
<radialGradient id="paint22_radial_1447_142" cx="0" cy="0" r="1" gradientUnits="userSpaceOnUse" gradientTransform="translate(26.6878 62.9618) rotate(83.0983) scale(25.4064 18.2056)">
<stop stop-color="#4BF2A2"/>
<stop offset="0.203125" stop-color="#4EC99D"/>
<stop offset="0.421875" stop-color="#564D8F"/>
<stop offset="0.77773" stop-color="#221E3C"/>
<stop offset="1" stop-color="#010109"/>
<stop offset="1" stop-color="#010109"/>
</radialGradient>
<radialGradient id="paint23_radial_1447_142" cx="0" cy="0" r="1" gradientUnits="userSpaceOnUse" gradientTransform="translate(24.304 62.7736) rotate(80.8848) scale(52.7357 318.715)">
<stop stop-color="#4BF2A2"/>
<stop offset="0.421875" stop-color="#564D8F"/>
<stop offset="1" stop-color="#DD40CD"/>
</radialGradient>
</defs>
</svg>
