<svg width="28" height="28" viewBox="0 0 28 28" fill="none" xmlns="http://www.w3.org/2000/svg">
<g clip-path="url(#clip0_2485_182)">
<path fill-rule="evenodd" clip-rule="evenodd" d="M14 26C20.6274 26 26 20.6274 26 14C26 7.37258 20.6274 2 14 2C7.37258 2 2 7.37258 2 14C2 20.6274 7.37258 26 14 26ZM28 14C28 21.732 21.732 28 14 28C6.26801 28 0 21.732 0 14C0 6.26801 6.26801 0 14 0C21.732 0 28 6.26801 28 14Z" fill="url(#paint0_radial_2485_182)"/>
<path d="M9.9176 17.7184C9.0832 17.7184 8.4 17.5224 7.868 17.1304C7.3416 16.7328 7.0784 16.1616 7.0784 15.428C7.0784 15.2712 7.0952 15.0864 7.1288 14.8624C7.2184 14.3584 7.3472 13.7536 7.5152 13.0424C7.9912 11.116 9.2232 10.1528 11.2056 10.1528C11.7432 10.1528 12.2304 10.2424 12.656 10.4272C13.0816 10.6008 13.4176 10.8696 13.664 11.228C13.9104 11.5808 14.0336 12.0008 14.0336 12.488C14.0336 12.6336 14.0168 12.8184 13.9832 13.0424C13.8768 13.664 13.7536 14.2744 13.6024 14.8624C13.356 15.82 12.936 16.5424 12.3312 17.0184C11.732 17.4888 10.9256 17.7184 9.9176 17.7184ZM10.0688 16.2064C10.4608 16.2064 10.7912 16.0888 11.0656 15.8592C11.3456 15.6296 11.5472 15.2768 11.6648 14.7952C11.8272 14.1344 11.9504 13.5632 12.0344 13.0704C12.0624 12.9248 12.0792 12.7736 12.0792 12.6168C12.0792 11.9784 11.7488 11.6592 11.0824 11.6592C10.6904 11.6592 10.3544 11.7768 10.0744 12.0064C9.8 12.236 9.604 12.5888 9.4864 13.0704C9.3576 13.5408 9.2344 14.112 9.1056 14.7952C9.0776 14.9352 9.0608 15.0808 9.0608 15.2376C9.0552 15.8872 9.3968 16.2064 10.0688 16.2064Z" fill="url(#paint1_radial_2485_182)"/>
<path d="M14.5208 17.6176C14.4424 17.6176 14.3864 17.5952 14.3416 17.5448C14.308 17.4888 14.2968 17.4272 14.308 17.3544L15.7584 10.5224C15.7696 10.444 15.8088 10.3824 15.876 10.332C15.9376 10.2816 16.0048 10.2592 16.0776 10.2592H18.872C19.6504 10.2592 20.272 10.4216 20.7424 10.7408C21.2184 11.0656 21.4592 11.5304 21.4592 12.1408C21.4592 12.3144 21.4368 12.4992 21.3976 12.6896C21.224 13.496 20.8712 14.0896 20.3336 14.476C19.8072 14.8624 19.0848 15.0528 18.1664 15.0528H16.7496L16.268 17.3544C16.2512 17.4328 16.2176 17.4944 16.1504 17.5448C16.0888 17.5952 16.0216 17.6176 15.9488 17.6176H14.5208ZM18.2392 13.6024C18.536 13.6024 18.788 13.524 19.0064 13.3616C19.2304 13.1992 19.376 12.9696 19.4488 12.6672C19.4712 12.5496 19.4824 12.4432 19.4824 12.3536C19.4824 12.152 19.4208 11.9952 19.3032 11.8888C19.1856 11.7768 18.9784 11.7208 18.6928 11.7208H17.4328L17.0352 13.6024H18.2392V13.6024Z" fill="url(#paint2_radial_2485_182)"/>
</g>
<defs>
<radialGradient id="paint0_radial_2485_182" cx="0" cy="0" r="1" gradientUnits="userSpaceOnUse" gradientTransform="translate(12.2505 4.64492) rotate(45.6687) scale(27.7785 36.3569)">
<stop stop-color="#A6FFD4"/>
<stop offset="0.48193" stop-color="#83EAE4" stop-opacity="0.31"/>
<stop offset="1" stop-color="#C037C2" stop-opacity="0.96"/>
</radialGradient>
<radialGradient id="paint1_radial_2485_182" cx="0" cy="0" r="1" gradientUnits="userSpaceOnUse" gradientTransform="translate(10.1214 11.4078) rotate(48.0728) scale(7.21638 9.39318)">
<stop stop-color="#A6FFD4"/>
<stop offset="0.48193" stop-color="#83EAE4" stop-opacity="0.31"/>
<stop offset="1" stop-color="#C037C2" stop-opacity="0.96"/>
</radialGradient>
<radialGradient id="paint2_radial_2485_182" cx="0" cy="0" r="1" gradientUnits="userSpaceOnUse" gradientTransform="translate(17.4344 11.4799) rotate(46.4695) scale(7.20254 9.41696)">
<stop stop-color="#A6FFD4"/>
<stop offset="0.48193" stop-color="#83EAE4" stop-opacity="0.31"/>
<stop offset="1" stop-color="#C037C2" stop-opacity="0.96"/>
</radialGradient>
<clipPath id="clip0_2485_182">
<rect width="28" height="28" fill="white"/>
</clipPath>
</defs>
</svg>
