<svg width="44" height="44" viewBox="0 0 44 44" fill="none" xmlns="http://www.w3.org/2000/svg">
<g clip-path="url(#clip0_2485_174)">
<path d="M22 44C34.1503 44 44 34.1503 44 22C44 9.84974 34.1503 0 22 0C9.84974 0 0 9.84974 0 22C0 34.1503 9.84974 44 22 44Z" fill="#FF0420"/>
<path d="M15.5848 27.8432C14.2736 27.8432 13.2 27.5352 12.364 26.9192C11.5368 26.2944 11.1232 25.3968 11.1232 24.244C11.1232 23.9976 11.1496 23.7072 11.2024 23.3552C11.3432 22.5632 11.5456 21.6128 11.8096 20.4952C12.5576 17.468 14.4936 15.9544 17.6088 15.9544C18.4536 15.9544 19.2192 16.0952 19.888 16.3856C20.5568 16.6584 21.0848 17.0808 21.472 17.644C21.8592 18.1984 22.0528 18.8584 22.0528 19.624C22.0528 19.8528 22.0264 20.1432 21.9736 20.4952C21.8064 21.472 21.6128 22.4312 21.3752 23.3552C20.988 24.86 20.328 25.9952 19.3776 26.7432C18.436 27.4824 17.1688 27.8432 15.5848 27.8432ZM15.8224 25.4672C16.4384 25.4672 16.9576 25.2824 17.3888 24.9216C17.8288 24.5608 18.1456 24.0064 18.3304 23.2496C18.5856 22.2112 18.7792 21.3136 18.9112 20.5392C18.9552 20.3104 18.9816 20.0728 18.9816 19.8264C18.9816 18.8232 18.4624 18.3216 17.4152 18.3216C16.7992 18.3216 16.2712 18.5064 15.8312 18.8672C15.4 19.228 15.092 19.7824 14.9072 20.5392C14.7048 21.2784 14.5112 22.176 14.3088 23.2496C14.2648 23.4696 14.2384 23.6984 14.2384 23.9448C14.2296 24.9656 14.7664 25.4672 15.8224 25.4672Z" fill="white"/>
<path d="M22.8184 27.6848C22.6952 27.6848 22.6072 27.6496 22.5368 27.5704C22.484 27.4824 22.4664 27.3856 22.484 27.2712L24.7632 16.5352C24.7808 16.412 24.8424 16.3152 24.948 16.236C25.0448 16.1568 25.1504 16.1216 25.2648 16.1216H29.656C30.8792 16.1216 31.856 16.3768 32.5952 16.8784C33.3432 17.3888 33.7216 18.1192 33.7216 19.0784C33.7216 19.3512 33.6864 19.6416 33.6248 19.9408C33.352 21.208 32.7976 22.1408 31.9528 22.748C31.1256 23.3552 29.9904 23.6544 28.5472 23.6544H26.3208L25.564 27.2712C25.5376 27.3944 25.4848 27.4912 25.3792 27.5704C25.2824 27.6496 25.1768 27.6848 25.0624 27.6848H22.8184ZM28.6616 21.3752C29.128 21.3752 29.524 21.252 29.8672 20.9968C30.2192 20.7416 30.448 20.3808 30.5624 19.9056C30.5976 19.7208 30.6152 19.5536 30.6152 19.4128C30.6152 19.096 30.5184 18.8496 30.3336 18.6824C30.1488 18.5064 29.8232 18.4184 29.3744 18.4184H27.3944L26.7696 21.3752H28.6616V21.3752Z" fill="white"/>
</g>
<defs>
<clipPath id="clip0_2485_174">
<rect width="44" height="44" fill="white"/>
</clipPath>
</defs>
</svg>
