<svg width="27" height="24" viewBox="0 0 27 24" fill="none" xmlns="http://www.w3.org/2000/svg">
<g clip-path="url(#clip0_2036_20)">
<path d="M20.3906 7.30745C19.8984 7.02088 19.2656 7.02088 18.7031 7.30745L14.7656 9.67163L12.0937 11.1761L8.22656 13.5403C7.73437 13.8269 7.10156 13.8269 6.53906 13.5403L3.51562 11.6776C3.02344 11.391 2.67187 10.8179 2.67187 10.1731V6.59103C2.67187 6.0179 2.95312 5.44476 3.51562 5.08655L6.53906 3.29551C7.03125 3.00894 7.66406 3.00894 8.22656 3.29551L11.25 5.15819C11.7422 5.44476 12.0937 6.0179 12.0937 6.66267V9.02685L14.7656 7.45073V5.01491C14.7656 4.44178 14.4844 3.86864 13.9219 3.51043L8.29687 0.14327C7.80469 -0.143297 7.17187 -0.143297 6.60937 0.14327L0.84375 3.58208C0.28125 3.86864 0 4.44178 0 5.01491V11.7492C0 12.3224 0.28125 12.8955 0.84375 13.2537L6.53906 16.6209C7.03125 16.9074 7.66406 16.9074 8.22656 16.6209L12.0937 14.3283L14.7656 12.7522L18.6328 10.4597C19.125 10.1731 19.7578 10.1731 20.3203 10.4597L23.3437 12.2507C23.8359 12.5373 24.1875 13.1104 24.1875 13.7552V17.3373C24.1875 17.9104 23.9062 18.4836 23.3437 18.8418L20.3906 20.6328C19.8984 20.9194 19.2656 20.9194 18.7031 20.6328L15.6797 18.8418C15.1875 18.5552 14.8359 17.9821 14.8359 17.3373V15.0448L12.1641 16.6209V18.9851C12.1641 19.5582 12.4453 20.1313 13.0078 20.4895L18.7031 23.8567C19.1953 24.1433 19.8281 24.1433 20.3906 23.8567L26.0859 20.4895C26.5781 20.203 26.9297 19.6298 26.9297 18.9851V12.1791C26.9297 11.606 26.6484 11.0328 26.0859 10.6746L20.3906 7.30745Z" fill="url(#paint0_radial_2036_20)"/>
</g>
<defs>
<radialGradient id="paint0_radial_2036_20" cx="0" cy="0" r="1" gradientUnits="userSpaceOnUse" gradientTransform="translate(11.7822 3.93348) rotate(42.5428) scale(25.3399 33.0523)">
<stop stop-color="#A6FFD4"/>
<stop offset="0.48193" stop-color="#83EAE4" stop-opacity="0.31"/>
<stop offset="1" stop-color="#C037C2" stop-opacity="0.96"/>
</radialGradient>
<clipPath id="clip0_2036_20">
<rect width="27" height="24" fill="white"/>
</clipPath>
</defs>
</svg>
