<svg width="38" height="13" viewBox="0 0 38 13" fill="none" xmlns="http://www.w3.org/2000/svg">
<path d="M4.37213 11.7833H5.58189V10.6993H4.45068C3.50802 10.6993 3.17808 10.1808 3.17808 9.301V4.6662H5.69184V3.61356H3.17808V1.24118H2.01546V3.20507C2.01546 3.47216 1.84264 3.61356 1.62268 3.61356H0.397217V4.6662H1.9369V9.3167C1.9369 10.9664 2.86386 11.7833 4.37213 11.7833Z" fill="url(#paint0_radial_2102_87)"/>
<path d="M11.3442 11.9876C13.2609 11.9876 14.6907 10.9035 15.1463 9.37954H13.858C13.4809 10.3379 12.444 10.8563 11.3599 10.8563C9.67879 10.8563 8.62613 9.77229 8.56333 8.13833H15.2248V7.58848C15.2248 5.23177 13.748 3.4093 11.2656 3.4093C9.03464 3.4093 7.25928 5.09037 7.25928 7.69843C7.25928 10.1493 8.84614 11.9876 11.3442 11.9876ZM8.59473 7.03858C8.72043 5.53032 9.89874 4.5405 11.2656 4.5405C12.6482 4.5405 13.7951 5.40462 13.9051 7.03858H8.59473Z" fill="url(#paint1_radial_2102_87)"/>
<path d="M18.5736 11.7833H19.1706V10.6835H18.7935C18.4007 10.6835 18.1965 10.4479 18.1965 10.0394V0H16.9553V10.0394C16.9553 11.1549 17.5523 11.7833 18.5736 11.7833Z" fill="url(#paint2_radial_2102_87)"/>
<path d="M34.0186 11.9876C35.9197 11.9876 37.1923 10.9506 37.1923 9.41094C37.1923 6.03307 32.2904 7.76128 32.2904 5.68742C32.2904 4.98041 32.9503 4.47766 33.9715 4.47766C35.0556 4.47766 35.6369 4.99612 35.7468 5.76597H36.9409C36.8152 4.28913 35.5583 3.4093 34.05 3.4093C32.3375 3.4093 31.0964 4.30484 31.0964 5.68742C31.0964 8.92389 35.9825 7.17998 35.9825 9.47379C35.9825 10.3065 35.3069 10.9035 34.0815 10.9035C32.8874 10.9035 32.1961 10.385 32.0547 9.41094H30.845C30.9864 10.9349 32.0862 11.9876 34.0186 11.9876Z" fill="url(#paint3_radial_2102_87)"/>
<g filter="url(#filter0_i_2102_87)">
<path d="M24.9043 12.0001C27.2977 12.0001 29.238 10.0598 29.238 7.66639C29.238 5.27295 27.2977 3.33267 24.9043 3.33267C22.5108 3.33267 20.5706 5.27295 20.5706 7.66639C20.5706 10.0598 22.5108 12.0001 24.9043 12.0001Z" fill="url(#paint4_radial_2102_87)"/>
</g>
<path d="M24.9043 11.8722C27.227 11.8722 29.11 9.98919 29.11 7.66641C29.11 5.34362 27.227 3.46063 24.9043 3.46063C22.5815 3.46063 20.6985 5.34362 20.6985 7.66641C20.6985 9.98919 22.5815 11.8722 24.9043 11.8722Z" fill="url(#paint5_radial_2102_87)" stroke="url(#paint6_linear_2102_87)" stroke-opacity="0.12" stroke-width="0.511767"/>
<defs>
<filter id="filter0_i_2102_87" x="16.4764" y="3.33267" width="12.7616" height="8.66743" filterUnits="userSpaceOnUse" color-interpolation-filters="sRGB">
<feFlood flood-opacity="0" result="BackgroundImageFix"/>
<feBlend mode="normal" in="SourceGraphic" in2="BackgroundImageFix" result="shape"/>
<feColorMatrix in="SourceAlpha" type="matrix" values="0 0 0 0 0 0 0 0 0 0 0 0 0 0 0 0 0 0 127 0" result="hardAlpha"/>
<feOffset dx="-6.1412"/>
<feGaussianBlur stdDeviation="2.04707"/>
<feComposite in2="hardAlpha" operator="arithmetic" k2="-1" k3="1"/>
<feColorMatrix type="matrix" values="0 0 0 0 0.682353 0 0 0 0 0.45098 0 0 0 0 0.980392 0 0 0 0.56 0"/>
<feBlend mode="normal" in2="shape" result="effect1_innerShadow_2102_87"/>
</filter>
<radialGradient id="paint0_radial_2102_87" cx="0" cy="0" r="1" gradientUnits="userSpaceOnUse" gradientTransform="translate(2.71371 2.99002) rotate(63.8653) scale(8.33322 8.62839)">
<stop stop-color="#A6FFD4"/>
<stop offset="0.48193" stop-color="#83EAE4" stop-opacity="0.31"/>
<stop offset="1" stop-color="#C037C2" stop-opacity="0.96"/>
</radialGradient>
<radialGradient id="paint1_radial_2102_87" cx="0" cy="0" r="1" gradientUnits="userSpaceOnUse" gradientTransform="translate(10.7443 4.83235) rotate(47.7873) scale(8.21916 10.7094)">
<stop stop-color="#A6FFD4"/>
<stop offset="0.48193" stop-color="#83EAE4" stop-opacity="0.31"/>
<stop offset="1" stop-color="#C037C2" stop-opacity="0.96"/>
</radialGradient>
<radialGradient id="paint2_radial_2102_87" cx="0" cy="0" r="1" gradientUnits="userSpaceOnUse" gradientTransform="translate(17.9245 1.95473) rotate(79.5929) scale(8.50191 3.95507)">
<stop stop-color="#A6FFD4"/>
<stop offset="0.48193" stop-color="#83EAE4" stop-opacity="0.31"/>
<stop offset="1" stop-color="#C037C2" stop-opacity="0.96"/>
</radialGradient>
<radialGradient id="paint3_radial_2102_87" cx="0" cy="0" r="1" gradientUnits="userSpaceOnUse" gradientTransform="translate(33.622 4.83235) rotate(54.1386) scale(7.51148 9.3377)">
<stop stop-color="#A6FFD4"/>
<stop offset="0.48193" stop-color="#83EAE4" stop-opacity="0.31"/>
<stop offset="1" stop-color="#C037C2" stop-opacity="0.96"/>
</radialGradient>
<radialGradient id="paint4_radial_2102_87" cx="0" cy="0" r="1" gradientUnits="userSpaceOnUse" gradientTransform="translate(24.3627 4.77052) rotate(45.6687) scale(8.59887 11.2543)">
<stop stop-color="#A6FFD4"/>
<stop offset="0.48193" stop-color="#83EAE4" stop-opacity="0.31"/>
<stop offset="1" stop-color="#C037C2" stop-opacity="0.96"/>
</radialGradient>
<radialGradient id="paint5_radial_2102_87" cx="0" cy="0" r="1" gradientUnits="userSpaceOnUse" gradientTransform="translate(24.3787 4.85603) rotate(45.6687) scale(8.345 10.9221)">
<stop stop-color="#A6FFD4"/>
<stop offset="0.48193" stop-color="#83EAE4" stop-opacity="0.31"/>
<stop offset="1" stop-color="#C037C2" stop-opacity="0.96"/>
</radialGradient>
<linearGradient id="paint6_linear_2102_87" x1="29.238" y1="7.66641" x2="20.5705" y2="7.66641" gradientUnits="userSpaceOnUse">
<stop stop-color="#AE73FA"/>
<stop offset="1" stop-color="#AE73FA" stop-opacity="0"/>
</linearGradient>
</defs>
</svg>
