<svg width="44" height="44" viewBox="0 0 44 44" fill="none" xmlns="http://www.w3.org/2000/svg">
<path d="M26.5534 20.1595L29.7846 14.6769L38.494 28.2421L38.4981 30.8446L38.4695 12.9307C38.4594 12.7147 38.3974 12.5042 38.2888 12.3171C38.1802 12.13 38.0282 11.9718 37.8456 11.8559L22.1655 2.83701C21.9782 2.748 21.7732 2.70229 21.5658 2.70326C21.3584 2.70424 21.1539 2.75188 20.9674 2.84265C20.919 2.86691 20.8721 2.89403 20.8269 2.92386L20.7724 2.95836L5.55198 11.7781L5.49272 11.8047C5.41383 11.8413 5.33856 11.8852 5.2679 11.9358C4.98245 12.1397 4.78791 12.4469 4.72576 12.7921C4.71624 12.8445 4.70975 12.8974 4.70631 12.9505L4.73015 27.5485L12.8425 14.9748C13.8638 13.3076 16.0891 12.7705 18.1548 12.7997L20.5792 12.8624L6.29355 35.7721L7.97766 36.7416L22.4345 12.8853L28.8245 12.8621L14.405 37.3195L20.4146 40.7781L21.1326 41.191C21.4424 41.3141 21.7862 41.3209 22.1006 41.2102L38.0011 31.9956L34.9596 33.7572L26.5534 20.1595ZM27.7863 37.9153L21.7171 28.3897L25.4218 22.1032L33.3924 34.6662L27.7863 37.9153Z" fill="#2D374B"/>
<path d="M21.7171 28.3898L27.7863 37.915L33.3927 34.6659L25.4224 22.1033L21.7171 28.3898Z" fill="#28A0F0"/>
<path d="M38.499 30.8449L38.4949 28.2424L29.7856 14.6772L26.5525 20.1592L34.9602 33.7569L38.0017 31.9953C38.149 31.876 38.2694 31.7269 38.3551 31.5578C38.4409 31.3888 38.49 31.2035 38.4993 31.0142L38.499 30.8449Z" fill="#28A0F0"/>
<path d="M2.00157 33.3001L6.29449 35.7738L20.5802 12.864L18.1557 12.8013C16.09 12.7721 13.8647 13.3089 12.8434 14.9764L4.73109 27.5501L2.00314 31.7433V33.3014L2.00157 33.3001Z" fill="white"/>
<path d="M28.8251 12.8636L22.4355 12.8868L7.97861 36.7432L13.0316 39.6527L14.4056 37.3221L28.8251 12.8636Z" fill="white"/>
<path d="M41.1906 12.8307C41.1613 12.1713 40.9721 11.5289 40.6393 10.9589C40.3065 10.3889 39.84 9.90834 39.2801 9.55876L23.3946 0.423583C22.8276 0.144908 22.2041 0 21.5722 0C20.9404 0 20.3169 0.144908 19.7499 0.423583C19.6172 0.490371 4.30151 9.37314 4.30151 9.37314C4.08871 9.47531 3.88518 9.59575 3.69321 9.7331C3.1959 10.0868 2.78519 10.5485 2.49193 11.0836C2.19867 11.6188 2.03048 12.2134 2 12.8229V31.7423L4.72795 27.5491L4.70694 12.9518C4.7197 12.7516 4.77669 12.5568 4.8738 12.3814C4.97091 12.2059 5.10572 12.0542 5.26852 11.9371C5.34064 11.8854 20.9179 2.8687 20.9674 2.84393C21.1539 2.75316 21.3584 2.70552 21.5658 2.70454C21.7732 2.70357 21.9782 2.74928 22.1655 2.83829L37.8456 11.8578C38.0282 11.9737 38.1802 12.1319 38.2888 12.319C38.3974 12.5061 38.4594 12.7166 38.4695 12.9326V31.0161C38.4658 31.2036 38.422 31.3881 38.3411 31.5573C38.2603 31.7265 38.1443 31.8765 38.0008 31.9972L34.9593 33.7588L33.3915 34.6681L27.7851 37.9172L22.0993 41.2124C21.785 41.3233 21.4411 41.3165 21.1314 41.1932L14.4046 37.3243L13.0306 39.6546L19.076 43.1351C19.2761 43.2486 19.4542 43.3496 19.6003 43.4317C19.8267 43.5572 19.9809 43.6434 20.0352 43.6697C20.541 43.8914 21.0878 44.0039 21.64 43.9999C22.1464 44.0006 22.6484 43.9062 23.12 43.7215L39.6341 34.158C40.1 33.7956 40.4808 33.3354 40.7496 32.8099C41.0184 32.2844 41.1687 31.7063 41.19 31.1165L41.1906 12.8307Z" fill="#96BEDC"/>
</svg>
