<svg width="28" height="28" viewBox="0 0 28 28" fill="none" xmlns="http://www.w3.org/2000/svg">
<path d="M13.82 18.0662L17.6822 24.1277L21.2499 22.0601L16.1779 14.0657L13.82 18.0662Z" fill="url(#paint0_radial_2485_155)"/>
<path d="M24.4994 19.6286L24.4968 17.9724L18.9545 9.34009L16.897 12.8286L22.2474 21.4817L24.1829 20.3607C24.2766 20.2847 24.3533 20.1899 24.4078 20.0823C24.4624 19.9747 24.4936 19.8568 24.4996 19.7363L24.4994 19.6286Z" fill="url(#paint1_radial_2485_155)"/>
<path d="M1.27373 21.191L4.00558 22.7651L13.0965 8.18619L11.5536 8.14628C10.2391 8.12772 8.82299 8.46933 8.1731 9.53046L3.01069 17.5319L1.27473 20.2003V21.1918L1.27373 21.191Z" fill="url(#paint2_radial_2485_155)"/>
<path d="M18.3433 8.18597L14.2771 8.20074L5.07729 23.3821L8.29282 25.2336L9.16719 23.7504L18.3433 8.18597Z" fill="url(#paint3_radial_2485_155)"/>
<path d="M26.2122 8.16501C26.1936 7.74538 26.0732 7.33657 25.8614 6.97383C25.6496 6.61109 25.3527 6.30531 24.9964 6.08285L14.8875 0.269553C14.5266 0.0922142 14.1299 0 13.7278 0C13.3257 0 12.929 0.0922142 12.5681 0.269553C12.4837 0.312054 2.73733 5.96472 2.73733 5.96472C2.60191 6.02974 2.47239 6.10638 2.35022 6.19379C2.03375 6.41884 1.77239 6.71267 1.58577 7.05322C1.39915 7.39377 1.29212 7.77218 1.27273 8.16002V20.1997L3.00869 17.5313L2.99533 8.24203C3.00345 8.11468 3.03971 7.99071 3.10151 7.87906C3.1633 7.7674 3.24909 7.67084 3.3527 7.59633C3.39859 7.56341 13.3114 1.82554 13.3429 1.80978C13.4616 1.75201 13.5917 1.72169 13.7237 1.72107C13.8557 1.72045 13.9861 1.74954 14.1053 1.80618L24.0835 7.54585C24.1997 7.61965 24.2965 7.72032 24.3656 7.83937C24.4347 7.95842 24.4742 8.09236 24.4806 8.22986V19.7375C24.4782 19.8568 24.4504 19.9743 24.3989 20.0819C24.3475 20.1896 24.2736 20.285 24.1823 20.3619L22.2468 21.4829L21.2491 22.0615L17.6814 24.1291L14.0632 26.2261C13.8632 26.2966 13.6443 26.2923 13.4472 26.2139L9.16659 23.7518L8.29222 25.2348L12.1393 27.4496C12.2666 27.5218 12.3799 27.5861 12.4729 27.6384C12.617 27.7182 12.7151 27.7731 12.7497 27.7898C13.0715 27.9309 13.4195 28.0025 13.7709 27.9999C14.0932 28.0004 14.4126 27.9403 14.7127 27.8227L25.2217 21.7369C25.5182 21.5063 25.7605 21.2134 25.9316 20.879C26.1026 20.5446 26.1983 20.1768 26.2118 19.8014L26.2122 8.16501Z" fill="url(#paint4_radial_2485_155)"/>
<defs>
<radialGradient id="paint0_radial_2485_155" cx="0" cy="0" r="1" gradientUnits="userSpaceOnUse" gradientTransform="translate(17.0707 15.7349) rotate(54.1942) scale(8.80456 10.9381)">
<stop stop-color="#A6FFD4"/>
<stop offset="0.48193" stop-color="#83EAE4" stop-opacity="0.31"/>
<stop offset="1" stop-color="#C037C2" stop-opacity="0.96"/>
</radialGradient>
<radialGradient id="paint1_radial_2485_155" cx="0" cy="0" r="1" gradientUnits="userSpaceOnUse" gradientTransform="translate(20.2233 11.3543) rotate(58.5455) scale(10.1005 11.7725)">
<stop stop-color="#A6FFD4"/>
<stop offset="0.48193" stop-color="#83EAE4" stop-opacity="0.31"/>
<stop offset="1" stop-color="#C037C2" stop-opacity="0.96"/>
</radialGradient>
<radialGradient id="paint2_radial_2485_155" cx="0" cy="0" r="1" gradientUnits="userSpaceOnUse" gradientTransform="translate(6.44639 10.5708) rotate(51.6901) scale(13.2219 16.8398)">
<stop stop-color="#A6FFD4"/>
<stop offset="0.48193" stop-color="#83EAE4" stop-opacity="0.31"/>
<stop offset="1" stop-color="#C037C2" stop-opacity="0.96"/>
</radialGradient>
<radialGradient id="paint3_radial_2485_155" cx="0" cy="0" r="1" gradientUnits="userSpaceOnUse" gradientTransform="translate(10.8814 11.014) rotate(52.7573) scale(15.1968 19.1703)">
<stop stop-color="#A6FFD4"/>
<stop offset="0.48193" stop-color="#83EAE4" stop-opacity="0.31"/>
<stop offset="1" stop-color="#C037C2" stop-opacity="0.96"/>
</radialGradient>
<radialGradient id="paint4_radial_2485_155" cx="0" cy="0" r="1" gradientUnits="userSpaceOnUse" gradientTransform="translate(12.1842 4.64492) rotate(48.972) scale(26.3395 34.152)">
<stop stop-color="#A6FFD4"/>
<stop offset="0.48193" stop-color="#83EAE4" stop-opacity="0.31"/>
<stop offset="1" stop-color="#C037C2" stop-opacity="0.96"/>
</radialGradient>
</defs>
</svg>
