<svg width="30" height="21" viewBox="0 0 30 21" fill="none" xmlns="http://www.w3.org/2000/svg">
<path d="M7.42879 0.65121C7.37119 0.71521 7.06399 1.47041 6.75679 2.33441C6.44319 3.19201 5.77759 5.01601 5.27199 6.39201C4.19039 9.34881 4.00479 9.86081 3.63999 10.872C3.48639 11.2944 2.71199 13.4256 1.91199 15.608C0.0111908 20.8112 0.0879908 20.5872 0.164791 20.6832C0.215991 20.7408 0.606391 20.76 1.71999 20.76C3.05759 20.76 3.21119 20.7472 3.30719 20.6448C3.39679 20.5488 4.16479 18.4752 7.94079 8.12001C9.61119 3.53121 10.2512 1.77761 10.456 1.21441C10.5584 0.93921 10.6224 0.67681 10.6032 0.62561C10.5776 0.55521 10.296 0.53601 9.04799 0.53601C7.66559 0.53601 7.52479 0.54881 7.42879 0.65121Z" fill="url(#paint0_radial_2109_2961)"/>
<path d="M11.9087 0.65121C11.8511 0.71521 11.4223 1.80321 10.9615 3.07041C10.5007 4.33121 9.61752 6.75041 9.00312 8.44001C8.38872 10.1296 7.38392 12.8816 6.77592 14.552C6.16152 16.2224 5.41912 18.264 5.11832 19.0896C4.70232 20.2288 4.58712 20.6128 4.63832 20.6768C4.69592 20.7408 5.03512 20.76 6.19992 20.76C7.53752 20.76 7.69112 20.7472 7.78712 20.6448C7.88312 20.536 8.15832 19.8064 10.1999 14.2C10.6863 12.8624 11.4799 10.6864 11.9599 9.36801C12.4399 8.04961 12.9327 6.70561 13.0479 6.39201C13.1631 6.07201 13.6623 4.70241 14.1615 3.33281C14.6543 1.96961 15.0639 0.77921 15.0639 0.69601V0.53601H13.5407C12.1455 0.53601 12.0047 0.54881 11.9087 0.65121Z" fill="url(#paint1_radial_2109_2961)"/>
<path d="M22.2192 0.644806C22.0848 0.804806 19.352 8.33761 19.3584 8.53601C19.3584 8.62561 19.6848 9.57281 20.0752 10.648C20.7536 12.4848 20.8048 12.6 20.952 12.6C21.0992 12.6 21.176 12.4208 22.4368 8.95201C24.664 2.84001 24.92 2.12961 25.1888 1.41281C25.3296 1.03521 25.4256 0.683206 25.4064 0.632006C25.3808 0.548806 25.1312 0.536006 23.8448 0.536006C22.4688 0.536006 22.3088 0.548806 22.2192 0.644806Z" fill="url(#paint2_radial_2109_2961)"/>
<path d="M26.6993 0.644804C26.6417 0.708804 26.3921 1.336 26.1361 2.04C25.6049 3.5056 23.6401 8.9008 22.4177 12.2352C21.9633 13.4768 21.5921 14.5712 21.5985 14.6672C21.5985 14.7632 21.9249 15.7168 22.3153 16.792C22.9873 18.6096 23.0449 18.744 23.1857 18.744C23.3265 18.744 23.3713 18.6672 23.6081 18.008C23.7553 17.6048 24.2289 16.3056 24.6641 15.128C25.0929 13.9504 26.0465 11.3456 26.7761 9.336C27.5057 7.3264 28.5169 4.568 29.0161 3.1984C29.5089 1.8352 29.9057 0.676804 29.8865 0.625604C29.8609 0.555204 29.5665 0.536004 28.3249 0.536004C26.9489 0.536004 26.7889 0.548804 26.6993 0.644804Z" fill="url(#paint3_radial_2109_2961)"/>
<path d="M15.64 2.5392C15.64 2.552 15.3072 3.4672 14.904 4.5744C14.5008 5.6816 14.168 6.616 14.168 6.6544C14.168 6.6928 14.5328 7.7168 14.9744 8.9264C15.416 10.136 16.5552 13.2592 17.5024 15.864C18.4816 18.5456 19.2752 20.6384 19.3328 20.6832C19.416 20.7408 19.8128 20.76 20.952 20.7472C22.3088 20.728 22.456 20.7152 22.4752 20.6192C22.488 20.5616 22.1936 19.6784 21.8224 18.6672C21.4576 17.656 20.4464 14.8784 19.576 12.504C18.712 10.1296 17.5408 6.9104 16.9712 5.3488C16.0112 2.7056 15.9344 2.52 15.7936 2.52C15.7104 2.52 15.64 2.5264 15.64 2.5392Z" fill="url(#paint4_radial_2109_2961)"/>
<path d="M13.1183 9.4704C12.9519 9.912 12.6127 10.84 12.3631 11.5312L11.9087 12.7856L12.1071 13.336C13.5855 17.4512 14.7695 20.6192 14.8591 20.6832C14.9359 20.7408 15.3327 20.76 16.4719 20.7472C17.8415 20.728 17.9759 20.7152 17.9951 20.6192C18.0079 20.5552 17.0479 17.8416 15.8575 14.584C13.8799 9.1696 13.6815 8.664 13.5535 8.664C13.4319 8.664 13.3743 8.7728 13.1183 9.4704Z" fill="url(#paint5_radial_2109_2961)"/>
<defs>
<radialGradient id="paint0_radial_2109_2961" cx="0" cy="0" r="1" gradientUnits="userSpaceOnUse" gradientTransform="translate(4.71624 17.405) rotate(-63.1671) scale(16.0838 16.9625)">
<stop stop-color="#A6FFD4"/>
<stop offset="0.48193" stop-color="#83EAE4" stop-opacity="0.31"/>
<stop offset="1" stop-color="#C037C2" stop-opacity="0.96"/>
</radialGradient>
<radialGradient id="paint1_radial_2109_2961" cx="0" cy="0" r="1" gradientUnits="userSpaceOnUse" gradientTransform="translate(9.19332 17.405) rotate(-63.2445) scale(16.0728 16.9172)">
<stop stop-color="#A6FFD4"/>
<stop offset="0.48193" stop-color="#83EAE4" stop-opacity="0.31"/>
<stop offset="1" stop-color="#C037C2" stop-opacity="0.96"/>
</radialGradient>
<radialGradient id="paint2_radial_2109_2961" cx="0" cy="0" r="1" gradientUnits="userSpaceOnUse" gradientTransform="translate(22.0056 10.5987) rotate(-63.8971) scale(9.53362 9.86281)">
<stop stop-color="#A6FFD4"/>
<stop offset="0.48193" stop-color="#83EAE4" stop-opacity="0.31"/>
<stop offset="1" stop-color="#C037C2" stop-opacity="0.96"/>
</radialGradient>
<radialGradient id="paint3_radial_2109_2961" cx="0" cy="0" r="1" gradientUnits="userSpaceOnUse" gradientTransform="translate(25.2249 15.7235) rotate(-66.0242) scale(14.1415 13.7478)">
<stop stop-color="#A6FFD4"/>
<stop offset="0.48193" stop-color="#83EAE4" stop-opacity="0.31"/>
<stop offset="1" stop-color="#C037C2" stop-opacity="0.96"/>
</radialGradient>
<radialGradient id="paint4_radial_2109_2961" cx="0" cy="0" r="1" gradientUnits="userSpaceOnUse" gradientTransform="translate(17.8027 17.7266) rotate(-66.0027) scale(14.1617 13.7768)">
<stop stop-color="#A6FFD4"/>
<stop offset="0.48193" stop-color="#83EAE4" stop-opacity="0.31"/>
<stop offset="1" stop-color="#C037C2" stop-opacity="0.96"/>
</radialGradient>
<radialGradient id="paint5_radial_2109_2961" cx="0" cy="0" r="1" gradientUnits="userSpaceOnUse" gradientTransform="translate(14.5717 18.7459) rotate(-63.8055) scale(9.55929 9.91383)">
<stop stop-color="#A6FFD4"/>
<stop offset="0.48193" stop-color="#83EAE4" stop-opacity="0.31"/>
<stop offset="1" stop-color="#C037C2" stop-opacity="0.96"/>
</radialGradient>
</defs>
</svg>
