<svg width="30" height="21" viewBox="0 0 30 21" fill="none" xmlns="http://www.w3.org/2000/svg">
<path d="M7.42879 0.65121C7.37119 0.71521 7.06399 1.47041 6.75679 2.33441C6.44319 3.19201 5.77759 5.01601 5.27199 6.39201C4.19039 9.34881 4.00479 9.86081 3.63999 10.872C3.48639 11.2944 2.71199 13.4256 1.91199 15.608C0.0111908 20.8112 0.0879908 20.5872 0.164791 20.6832C0.215991 20.7408 0.606391 20.76 1.71999 20.76C3.05759 20.76 3.21119 20.7472 3.30719 20.6448C3.39679 20.5488 4.16479 18.4752 7.94079 8.12001C9.61119 3.53121 10.2512 1.77761 10.456 1.21441C10.5584 0.93921 10.6224 0.67681 10.6032 0.62561C10.5776 0.55521 10.296 0.53601 9.04799 0.53601C7.66559 0.53601 7.52479 0.54881 7.42879 0.65121Z" fill="#D66612"/>
<path d="M11.9088 0.65121C11.8512 0.71521 11.4224 1.80321 10.9616 3.07041C10.5008 4.33121 9.61758 6.75041 9.00318 8.44001C8.38878 10.1296 7.38398 12.8816 6.77598 14.552C6.16158 16.2224 5.41918 18.264 5.11838 19.0896C4.70238 20.2288 4.58718 20.6128 4.63838 20.6768C4.69598 20.7408 5.03518 20.76 6.19998 20.76C7.53758 20.76 7.69118 20.7472 7.78718 20.6448C7.88318 20.536 8.15838 19.8064 10.2 14.2C10.6864 12.8624 11.48 10.6864 11.96 9.36801C12.44 8.04961 12.9328 6.70561 13.048 6.39201C13.1632 6.07201 13.6624 4.70241 14.1616 3.33281C14.6544 1.96961 15.064 0.77921 15.064 0.69601V0.53601H13.5408C12.1456 0.53601 12.0048 0.54881 11.9088 0.65121Z" fill="#D66612"/>
<path d="M22.2192 0.644806C22.0848 0.804806 19.352 8.33761 19.3584 8.53601C19.3584 8.62561 19.6848 9.57281 20.0752 10.648C20.7536 12.4848 20.8048 12.6 20.952 12.6C21.0992 12.6 21.176 12.4208 22.4368 8.95201C24.664 2.84001 24.92 2.12961 25.1888 1.41281C25.3296 1.03521 25.4256 0.683206 25.4064 0.632006C25.3808 0.548806 25.1312 0.536006 23.8448 0.536006C22.4688 0.536006 22.3088 0.548806 22.2192 0.644806Z" fill="#D66612"/>
<path d="M26.6992 0.644804C26.6416 0.708804 26.392 1.336 26.136 2.04C25.6048 3.5056 23.64 8.9008 22.4176 12.2352C21.9632 13.4768 21.592 14.5712 21.5984 14.6672C21.5984 14.7632 21.9248 15.7168 22.3152 16.792C22.9872 18.6096 23.0448 18.744 23.1856 18.744C23.3264 18.744 23.3712 18.6672 23.608 18.008C23.7552 17.6048 24.2288 16.3056 24.664 15.128C25.0928 13.9504 26.0464 11.3456 26.776 9.336C27.5056 7.3264 28.5168 4.568 29.016 3.1984C29.5088 1.8352 29.9056 0.676804 29.8864 0.625604C29.8608 0.555204 29.5664 0.536004 28.3248 0.536004C26.9488 0.536004 26.7888 0.548804 26.6992 0.644804Z" fill="#D66612"/>
<path d="M15.64 2.5392C15.64 2.552 15.3072 3.4672 14.904 4.5744C14.5008 5.6816 14.168 6.616 14.168 6.6544C14.168 6.6928 14.5328 7.7168 14.9744 8.9264C15.416 10.136 16.5552 13.2592 17.5024 15.864C18.4816 18.5456 19.2752 20.6384 19.3328 20.6832C19.416 20.7408 19.8128 20.76 20.952 20.7472C22.3088 20.728 22.456 20.7152 22.4752 20.6192C22.488 20.5616 22.1936 19.6784 21.8224 18.6672C21.4576 17.656 20.4464 14.8784 19.576 12.504C18.712 10.1296 17.5408 6.9104 16.9712 5.3488C16.0112 2.7056 15.9344 2.52 15.7936 2.52C15.7104 2.52 15.64 2.5264 15.64 2.5392Z" fill="#D66612"/>
<path d="M13.1184 9.4704C12.952 9.912 12.6128 10.84 12.3632 11.5312L11.9088 12.7856L12.1072 13.336C13.5856 17.4512 14.7696 20.6192 14.8592 20.6832C14.936 20.7408 15.3328 20.76 16.472 20.7472C17.8416 20.728 17.976 20.7152 17.9952 20.6192C18.008 20.5552 17.048 17.8416 15.8576 14.584C13.88 9.1696 13.6816 8.664 13.5536 8.664C13.432 8.664 13.3744 8.7728 13.1184 9.4704Z" fill="#D66612"/>
</svg>
