<svg width="32" height="32" viewBox="0 0 32 32" fill="none" xmlns="http://www.w3.org/2000/svg">
<path d="M22.2175 18.5508L25.8354 22.1649L25.8336 22.1668L16 32L6.16448 22.1645L9.78534 18.5537L16 24.768L22.2175 18.5508ZM16.0001 12.3077L19.6902 15.9981H19.689L19.6923 15.9999L19.6905 16.0019L16.0001 19.6923L12.3128 16.0046L12.3077 15.9994L12.3128 15.9943L12.9591 15.3479L13.2725 15.0345L16.0001 12.3077ZM28.3841 12.3854L32 16.0013L28.384 19.6174L24.768 16.0015L28.3841 12.3854ZM3.61613 12.3834L7.232 15.9992L3.61587 19.6154L0 16L3.61613 12.3834ZM16 0L25.8336 9.83334L22.2176 13.4493L16 7.232L9.78547 13.4464L6.1696 9.8304L16 0Z" fill="#F7D15B"/>
</svg>
