<svg width="24" height="23" viewBox="0 0 24 23" fill="none" xmlns="http://www.w3.org/2000/svg">
    <path d="M20.2643 0C18.2026 0 16.5313 2.33333 16.5313 5.2108C16.5313 7.56127 17.6462 9.54809 19.1782 10.197V8.38801C18.3295 7.82213 17.7429 6.60935 17.7429 5.2108C17.7429 3.26746 18.8715 1.6917 20.2643 1.6917C21.657 1.6917 22.7849 3.26746 22.7849 5.21278C22.7849 6.63361 22.182 7.85738 21.314 8.4134V6.94796C21.314 6.77878 21.1711 6.64163 20.995 6.64163H19.6303C19.4541 6.64163 19.3113 6.77878 19.3113 6.94796V12.7457C17.7118 13.3383 16.5347 15.3716 16.5347 17.7892C16.5347 20.6673 18.206 23 20.2677 23C22.3294 23 24 20.6673 24 17.7892C23.9965 15.5007 22.9393 13.5567 21.4704 12.8544V14.8116C22.2121 15.3979 22.7129 16.5105 22.7129 17.7866C22.7129 19.6752 21.6151 21.2055 20.2642 21.2055C18.9133 21.2055 17.8149 19.6752 17.8149 17.7866C17.8149 16.3702 18.4318 15.1553 19.3113 14.6366V15.7246C19.3113 15.8938 19.4541 16.031 19.6303 16.031H20.995C21.1711 16.031 21.314 15.8938 21.314 15.7246V10.2147C22.8642 9.5812 23.9966 7.5817 23.9966 5.21278C23.9966 2.33333 22.3253 0 20.2643 0Z"
          fill="url(#paint0_radial_1046_339)"/>
    <path fill-rule="evenodd" clip-rule="evenodd"
          d="M14.3584 6.94664C13.1523 1.9473 9.0886 2.05072 9.0886 2.05072H4.93982V21.0231L8.84435 21.029C9.57751 21.0319 10.3006 20.8654 10.9527 20.5435C11.8307 20.1165 12.6028 19.5133 13.2168 18.7747C14.2315 17.5553 15.5653 11.946 14.3584 6.94664ZM11.8364 16.6634C11.6039 17.302 11.1984 17.8696 10.6615 18.3078C10.1246 18.7459 9.4758 19.0387 8.78191 19.1561C8.33699 19.228 7.88417 19.2433 7.43513 19.2016H7.40769V3.83729H7.87284C8.57756 3.83519 9.27292 3.99201 9.90296 4.29513C11.0062 4.82938 12.1774 5.96377 12.4518 8.22727C12.7989 11.0758 12.7255 14.2213 11.8364 16.6634Z"
          fill="url(#paint1_radial_1046_339)"/>
    <path d="M2.46991 2.05072H0V21.0231H2.46991V2.05072Z" fill="url(#paint2_radial_1046_339)"/>
    <defs>
        <radialGradient id="paint0_radial_1046_339" cx="0" cy="0" r="1" gradientUnits="userSpaceOnUse"
                        gradientTransform="translate(10.5004 3.81547) rotate(44.4495) scale(23.3078 30.5082)">
            <stop stop-color="#A6FFD4"/>
            <stop offset="0.48193" stop-color="#83EAE4" stop-opacity="0.31"/>
            <stop offset="1" stop-color="#C037C2" stop-opacity="0.96"/>
        </radialGradient>
        <radialGradient id="paint1_radial_1046_339" cx="0" cy="0" r="1" gradientUnits="userSpaceOnUse"
                        gradientTransform="translate(10.5004 3.81547) rotate(44.4495) scale(23.3078 30.5082)">
            <stop stop-color="#A6FFD4"/>
            <stop offset="0.48193" stop-color="#83EAE4" stop-opacity="0.31"/>
            <stop offset="1" stop-color="#C037C2" stop-opacity="0.96"/>
        </radialGradient>
        <radialGradient id="paint2_radial_1046_339" cx="0" cy="0" r="1" gradientUnits="userSpaceOnUse"
                        gradientTransform="translate(10.5004 3.81547) rotate(44.4495) scale(23.3078 30.5082)">
            <stop stop-color="#A6FFD4"/>
            <stop offset="0.48193" stop-color="#83EAE4" stop-opacity="0.31"/>
            <stop offset="1" stop-color="#C037C2" stop-opacity="0.96"/>
        </radialGradient>
    </defs>
</svg>
