<svg width="44" height="44" viewBox="0 0 44 44" fill="none" xmlns="http://www.w3.org/2000/svg">
<path d="M17.7815 10.8001C11.2141 13.3672 10.6125 19.9415 8.72937 23.0119C6.82394 26.1187 2.45865 27.8328 3.05559 29.4162C3.65251 30.9993 8.023 29.2989 11.4807 30.3091C14.8974 31.3073 19.6647 35.7834 26.232 33.2162C29.5776 31.9087 32.0002 29.2172 33.1142 26.0289C33.234 25.6867 33.01 25.3207 32.6546 25.2869C32.4338 25.2658 32.2217 25.3836 32.1221 25.5853C31.1144 27.6289 29.3857 29.312 27.1236 30.1961C23.3888 31.6558 19.3025 30.5098 16.793 27.6353C16.223 26.9826 15.7355 26.2396 15.3507 25.4184C15.2449 25.1924 15.1443 24.9627 15.0551 24.725C14.9653 24.4874 14.8891 24.2482 14.8191 24.0079C16.793 23.071 19.0708 22.0787 21.6532 21.0695C24.1849 20.0799 26.4894 19.2772 28.5408 18.635C29.9288 18.2009 31.201 17.8397 32.3496 17.5445C32.4328 17.5234 32.5146 17.5022 32.5961 17.4816C32.7698 17.4378 32.9482 17.5323 33.0125 17.7024L33.0137 17.7055C33.0514 17.8064 33.0841 17.9078 33.1195 18.0092C33.3465 18.6635 33.5168 19.3247 33.6291 19.9875C33.6784 20.2774 33.9896 20.4353 34.2448 20.2959C35.1878 19.7804 36.0502 19.2777 36.8208 18.794C39.6926 16.9931 41.2847 15.4659 40.9578 14.6003C40.6317 13.7342 38.4451 13.6846 35.1274 14.3025C34.0731 14.4989 32.9042 14.763 31.6445 15.0899C31.4266 15.1464 31.2061 15.205 30.9831 15.2652C29.923 15.5514 28.8049 15.8794 27.6406 16.2464C25.4754 16.9292 23.1524 17.7473 20.7542 18.6846C18.5107 19.5618 16.3843 20.4712 14.4343 21.3774C14.4104 17.5313 16.6939 13.8953 20.4285 12.4356C22.6902 11.5516 25.0812 11.624 27.1734 12.4568C27.3797 12.5391 27.6147 12.4821 27.7657 12.3158C28.0072 12.0491 27.9331 11.6245 27.6192 11.4513C24.6964 9.84215 21.1272 9.49256 17.7815 10.8001Z" fill="#FAF1E4"/>
</svg>
