<svg width="28" height="28" viewBox="0 0 28 28" fill="none" xmlns="http://www.w3.org/2000/svg">
<path d="M11.3155 6.87282C7.13626 8.50642 6.75341 12.6901 5.55505 14.6439C4.3425 16.621 1.56459 17.7118 1.94447 18.7194C2.32432 19.7268 5.10554 18.6447 7.30589 19.2876C9.48016 19.9228 12.5139 22.7713 16.6931 21.1376C18.8221 20.3056 20.3638 18.5927 21.0727 16.5639C21.1489 16.3461 21.0064 16.1132 20.7802 16.0917C20.6397 16.0782 20.5047 16.1532 20.4413 16.2816C19.8001 17.5821 18.7 18.6531 17.2605 19.2157C14.8838 20.1446 12.2834 19.4153 10.6864 17.5861C10.3237 17.1708 10.0135 16.6979 9.76862 16.1754C9.7013 16.0315 9.63726 15.8853 9.5805 15.7341C9.5234 15.5829 9.47488 15.4307 9.43033 15.2778C10.6864 14.6816 12.136 14.0501 13.7793 13.4079C15.3904 12.7781 16.8569 12.2673 18.1623 11.8586C19.0456 11.5824 19.8552 11.3525 20.5861 11.1647C20.6391 11.1512 20.6911 11.1378 20.743 11.1247C20.8535 11.0968 20.9671 11.1569 21.0079 11.2652L21.0087 11.2672C21.0327 11.3314 21.0535 11.3959 21.076 11.4604C21.2205 11.8768 21.3289 12.2975 21.4003 12.7193C21.4317 12.9038 21.6297 13.0043 21.7921 12.9156C22.3922 12.5876 22.941 12.2676 23.4314 11.9598C25.2589 10.8138 26.2721 9.84194 26.0641 9.29112C25.8566 8.73998 24.4651 8.7084 22.3538 9.10159C21.6829 9.22661 20.9391 9.39463 20.1374 9.60266C19.9987 9.63861 19.8584 9.67592 19.7165 9.71422C19.0419 9.89637 18.3304 10.1051 17.5895 10.3386C16.2116 10.7732 14.7334 11.2937 13.2072 11.8902C11.7795 12.4484 10.4264 13.0271 9.18544 13.6038C9.17026 11.1563 10.6234 8.84248 13 7.9136C14.4392 7.35104 15.9608 7.39708 17.2921 7.92704C17.4234 7.97947 17.573 7.94318 17.6691 7.83732C17.8227 7.6676 17.7756 7.39741 17.5759 7.28718C15.7159 6.2632 13.4446 6.04073 11.3155 6.87282Z" fill="url(#paint0_radial_2488_59)"/>
<defs>
<radialGradient id="paint0_radial_2488_59" cx="0" cy="0" r="1" gradientUnits="userSpaceOnUse" gradientTransform="translate(12.4891 8.89724) rotate(32.8825) scale(19.9631 23.8318)">
<stop stop-color="#A6FFD4"/>
<stop offset="0.48193" stop-color="#83EAE4" stop-opacity="0.31"/>
<stop offset="1" stop-color="#C037C2" stop-opacity="0.96"/>
</radialGradient>
</defs>
</svg>
