<svg width="32" height="32" viewBox="0 0 32 32" fill="none" xmlns="http://www.w3.org/2000/svg">
<path d="M11.5625 19.1066C11.5625 20.8266 12.8825 22.2133 14.5225 22.2133H17.8692C19.2958 22.2133 20.4558 21 20.4558 19.5066C20.4558 17.88 19.7492 17.3066 18.6958 16.9333L13.3225 15.0666C12.2692 14.6933 11.5625 14.12 11.5625 12.4933C11.5625 11 12.7225 9.78662 14.1492 9.78662H17.4958C19.1358 9.78662 20.4558 11.1733 20.4558 12.8933" stroke="#B5B5C6" stroke-width="1.5" stroke-linecap="round" stroke-linejoin="round"/>
<path d="M16 8V24" stroke="#B5B5C6" stroke-width="1.5" stroke-linecap="round" stroke-linejoin="round"/>
<path d="M16.0001 29.3332C23.3639 29.3332 29.3334 23.3636 29.3334 15.9998C29.3334 8.63604 23.3639 2.6665 16.0001 2.6665C8.63628 2.6665 2.66675 8.63604 2.66675 15.9998C2.66675 23.3636 8.63628 29.3332 16.0001 29.3332Z" stroke="#B5B5C6" stroke-width="1.5" stroke-linecap="round" stroke-linejoin="round"/>
</svg>
