<svg width="32" height="33" viewBox="0 0 32 33" fill="none" xmlns="http://www.w3.org/2000/svg">
<path d="M26.6666 11.9618V24.9618C26.6666 28.9617 24.2799 30.2951 21.3333 30.2951H10.6666C7.71992 30.2951 5.33325 28.9617 5.33325 24.9618V11.9618C5.33325 7.62842 7.71992 6.62842 10.6666 6.62842C10.6666 7.45508 10.9999 8.20175 11.5465 8.74841C12.0932 9.29508 12.8399 9.62842 13.6666 9.62842H18.3333C19.9866 9.62842 21.3333 8.28175 21.3333 6.62842C24.2799 6.62842 26.6666 7.62842 26.6666 11.9618Z" stroke="#B5B5C6" stroke-width="1.5" stroke-linecap="round" stroke-linejoin="round"/>
<path d="M21.3334 6.62842C21.3334 8.28175 19.9867 9.62842 18.3334 9.62842H13.6667C12.8401 9.62842 12.0934 9.29508 11.5467 8.74841C11 8.20175 10.6667 7.45508 10.6667 6.62842C10.6667 4.97508 12.0134 3.62842 13.6667 3.62842H18.3334C19.1601 3.62842 19.9068 3.96176 20.4535 4.50842C21.0001 5.05509 21.3334 5.80175 21.3334 6.62842Z" stroke="#B5B5C6" stroke-width="1.5" stroke-linecap="round" stroke-linejoin="round"/>
<path d="M10.6667 18.2954H16.0001" stroke="#B5B5C6" stroke-width="1.5" stroke-linecap="round" stroke-linejoin="round"/>
<path d="M10.6667 23.6284H21.3334" stroke="#B5B5C6" stroke-width="1.5" stroke-linecap="round" stroke-linejoin="round"/>
</svg>
