<svg width="32" height="33" viewBox="0 0 32 33" fill="none" xmlns="http://www.w3.org/2000/svg">
<path d="M2.66675 12.0682V8.73486C2.66675 5.41486 5.34675 2.73486 8.66675 2.73486H12.0001" stroke="#B5B5C6" stroke-width="1.5" stroke-linecap="round" stroke-linejoin="round"/>
<path d="M20 2.73486H23.3333C26.6533 2.73486 29.3333 5.41486 29.3333 8.73486V12.0682" stroke="#B5B5C6" stroke-width="1.5" stroke-linecap="round" stroke-linejoin="round"/>
<path d="M29.3333 21.4019V23.4019C29.3333 26.7219 26.6533 29.4019 23.3333 29.4019H21.3333" stroke="#B5B5C6" stroke-width="1.5" stroke-linecap="round" stroke-linejoin="round"/>
<path d="M12.0001 29.4017H8.66675C5.34675 29.4017 2.66675 26.7217 2.66675 23.4017V20.0684" stroke="#B5B5C6" stroke-width="1.5" stroke-linecap="round" stroke-linejoin="round"/>
<path d="M11.3333 14.735C13.1743 14.735 14.6667 13.2426 14.6667 11.4017C14.6667 9.56074 13.1743 8.06836 11.3333 8.06836C9.49238 8.06836 8 9.56074 8 11.4017C8 13.2426 9.49238 14.735 11.3333 14.735Z" stroke="#B5B5C6" stroke-width="1.5" stroke-linecap="round" stroke-linejoin="round"/>
<path d="M10 24.0684C11.1046 24.0684 12 23.1729 12 22.0684C12 20.9638 11.1046 20.0684 10 20.0684C8.89543 20.0684 8 20.9638 8 22.0684C8 23.1729 8.89543 24.0684 10 24.0684Z" stroke="#B5B5C6" stroke-width="1.5" stroke-linecap="round" stroke-linejoin="round"/>
<path d="M22 12.0684C23.1046 12.0684 24 11.1729 24 10.0684C24 8.96379 23.1046 8.06836 22 8.06836C20.8954 8.06836 20 8.96379 20 10.0684C20 11.1729 20.8954 12.0684 22 12.0684Z" stroke="#B5B5C6" stroke-width="1.5" stroke-linecap="round" stroke-linejoin="round"/>
<path d="M20.6666 24.0685C22.5075 24.0685 23.9999 22.5761 23.9999 20.7352C23.9999 18.8942 22.5075 17.4019 20.6666 17.4019C18.8256 17.4019 17.3333 18.8942 17.3333 20.7352C17.3333 22.5761 18.8256 24.0685 20.6666 24.0685Z" stroke="#B5B5C6" stroke-width="1.5" stroke-linecap="round" stroke-linejoin="round"/>
</svg>
