<svg width="32" height="33" viewBox="0 0 32 33" fill="none" xmlns="http://www.w3.org/2000/svg">
<path d="M11.9999 25.5111C11.9999 26.5111 11.7199 27.4577 11.2266 28.2577C10.3066 29.8044 8.61325 30.8444 6.66659 30.8444C4.71992 30.8444 3.02659 29.8044 2.10659 28.2577C1.61325 27.4577 1.33325 26.5111 1.33325 25.5111C1.33325 22.5644 3.71992 20.1777 6.66659 20.1777C9.61325 20.1777 11.9999 22.5644 11.9999 25.5111Z" stroke="#B5B5C6" stroke-width="1.5" stroke-miterlimit="10" stroke-linecap="round" stroke-linejoin="round"/>
<path d="M4.58838 25.5103L5.90838 26.8302L8.74838 24.2036" stroke="#B5B5C6" stroke-width="1.5" stroke-linecap="round" stroke-linejoin="round"/>
<path d="M23.6685 9.57753C23.3485 9.5242 23.0151 9.51088 22.6685 9.51088H9.33513C8.9618 9.51088 8.60179 9.53754 8.25513 9.59088C8.44179 9.21754 8.70846 8.87092 9.02846 8.55092L13.3618 4.20424C15.1885 2.3909 18.1485 2.3909 19.9751 4.20424L22.3085 6.56418C23.1618 7.40418 23.6151 8.47086 23.6685 9.57753Z" stroke="#B5B5C6" stroke-width="1.5" stroke-linecap="round" stroke-linejoin="round"/>
<path d="M29.3334 16.1779V22.8446C29.3334 26.8446 26.6667 29.5112 22.6667 29.5112H10.1734C10.5867 29.1646 10.9467 28.7379 11.2267 28.2579C11.7201 27.4579 12.0001 26.5112 12.0001 25.5112C12.0001 22.5646 9.61341 20.1779 6.66675 20.1779C5.06675 20.1779 3.64008 20.8845 2.66675 21.9912V16.1779C2.66675 12.5512 4.85341 10.0179 8.25341 9.59123C8.60008 9.53789 8.96008 9.51123 9.33341 9.51123H22.6667C23.0134 9.51123 23.3467 9.52455 23.6667 9.57788C27.1067 9.97788 29.3334 12.5246 29.3334 16.1779Z" stroke="#B5B5C6" stroke-width="1.5" stroke-linecap="round" stroke-linejoin="round"/>
<path d="M29.3334 16.8442H25.3334C23.8667 16.8442 22.6667 18.0442 22.6667 19.5109C22.6667 20.9776 23.8667 22.1776 25.3334 22.1776H29.3334" stroke="#B5B5C6" stroke-width="1.5" stroke-linecap="round" stroke-linejoin="round"/>
</svg>
