<svg width="16" height="16" viewBox="0 0 16 16" fill="none" xmlns="http://www.w3.org/2000/svg">
<path fill-rule="evenodd" clip-rule="evenodd" d="M11.677 0H4.32328C1.9395 0 0.00012207 1.93938 0.00012207 4.32316V11.6768C0.00012207 14.0606 1.9395 16 4.32328 16H11.677C14.0607 16 16.0001 14.0606 16.0001 11.6768V4.32316C16.0001 1.93938 14.0607 0 11.677 0ZM14.7075 11.6768C14.7075 13.3479 13.348 14.7074 11.677 14.7074H4.32328C2.65225 14.7074 1.29275 13.3479 1.29275 11.6768V4.32316C1.29275 2.65213 2.65222 1.29262 4.32328 1.29262H11.677C13.348 1.29262 14.7075 2.65209 14.7075 4.32316V11.6768ZM11.581 7.44195C11.4673 6.67486 11.1173 5.97961 10.569 5.43127C10.0206 4.88295 9.32537 4.53295 8.55831 4.41924C8.20906 4.36745 7.85496 4.36745 7.50575 4.41924C6.55775 4.55983 5.72128 5.06114 5.15037 5.83086C4.57946 6.60058 4.34243 7.54658 4.48303 8.49452C4.62362 9.44248 5.12493 10.279 5.89465 10.8499C6.51953 11.3134 7.26046 11.5567 8.02443 11.5567C8.20153 11.5567 8.3799 11.5437 8.55828 11.5172C9.50628 11.3766 10.3427 10.8753 10.9137 10.1056C11.4846 9.33589 11.7216 8.38992 11.581 7.44195ZM8.36868 10.2385C7.76228 10.3286 7.15712 10.1769 6.66471 9.81167C6.17231 9.44645 5.85162 8.91133 5.76171 8.30492C5.67178 7.69852 5.82337 7.09336 6.18859 6.60095C6.55384 6.10855 7.08893 5.78786 7.69537 5.69792C7.80706 5.68136 7.91953 5.67308 8.032 5.67308C8.14446 5.67308 8.25696 5.68136 8.36865 5.69795C9.37587 5.8473 10.153 6.62436 10.3023 7.63161C10.488 8.88342 9.62056 10.0529 8.36868 10.2385ZM12.0444 3.30917C12.2145 3.30917 12.3811 3.37814 12.5014 3.49848C12.6218 3.61882 12.6908 3.78542 12.6908 3.95551C12.6908 4.12557 12.6218 4.29217 12.5014 4.41254C12.3811 4.53292 12.2145 4.60186 12.0444 4.60186C11.8744 4.60186 11.7078 4.53289 11.5874 4.41254C11.467 4.29217 11.3981 4.12586 11.3981 3.95551C11.3981 3.78517 11.467 3.61886 11.5874 3.49848C11.7078 3.37811 11.8744 3.30917 12.0444 3.30917Z" fill="#4C4C5C"/>
</svg>
