<svg width="20" height="16" viewBox="0 0 20 16" fill="none" xmlns="http://www.w3.org/2000/svg">
<path d="M20.0001 1.89415C19.2564 2.21538 18.4639 2.42831 17.6376 2.53169C18.4876 2.032 19.1364 1.24677 19.4414 0.300308C18.6489 0.765538 17.7739 1.09415 16.8414 1.27754C16.0889 0.488616 15.0164 0 13.8464 0C11.5764 0 9.74887 1.81415 9.74887 4.03815C9.74887 4.35815 9.77637 4.66585 9.84387 4.95877C6.43512 4.79508 3.41887 3.18646 1.39262 0.736C1.03887 1.34031 0.831372 2.032 0.831372 2.77662C0.831372 4.17477 1.56262 5.41415 2.65262 6.13169C1.99387 6.11938 1.34762 5.93108 0.800122 5.63446C0.800122 5.64677 0.800122 5.66277 0.800122 5.67877C0.800122 7.64062 2.22137 9.27015 4.08512 9.64554C3.75137 9.73538 3.38762 9.77846 3.01012 9.77846C2.74762 9.77846 2.48262 9.76369 2.23387 9.70954C2.76512 11.3083 4.27262 12.4837 6.06512 12.5218C4.67012 13.5963 2.89887 14.2437 0.981372 14.2437C0.645122 14.2437 0.322622 14.2289 0.00012207 14.1883C1.81637 15.3415 3.96887 16 6.29012 16C13.8351 16 17.9601 9.84615 17.9601 4.512C17.9601 4.33354 17.9539 4.16123 17.9451 3.99015C18.7589 3.42154 19.4426 2.71138 20.0001 1.89415Z" fill="#4C4C5C"/>
</svg>
