<svg width="206" height="26" viewBox="0 0 206 26" fill="none" xmlns="http://www.w3.org/2000/svg">
<path d="M8.17188 2.15625C11.1198 2.15625 13.2708 2.79167 14.625 4.0625C15.9792 5.32292 16.6562 7.0625 16.6562 9.28125C16.6562 10.2812 16.5052 11.2396 16.2031 12.1562C15.901 13.0625 15.4062 13.8698 14.7188 14.5781C14.0417 15.2865 13.1354 15.849 12 16.2656C10.8646 16.6719 9.46354 16.875 7.79688 16.875H5.71875V25H0.875V2.15625H8.17188ZM7.92188 6.125H5.71875V12.9062H7.3125C8.21875 12.9062 9.00521 12.7865 9.67188 12.5469C10.3385 12.3073 10.8542 11.9323 11.2188 11.4219C11.5833 10.9115 11.7656 10.2552 11.7656 9.45312C11.7656 8.32812 11.4531 7.49479 10.8281 6.95312C10.2031 6.40104 9.23438 6.125 7.92188 6.125ZM30.3438 7.20312C30.5833 7.20312 30.8594 7.21875 31.1719 7.25C31.4948 7.27083 31.7552 7.30208 31.9531 7.34375L31.5938 11.8125C31.4375 11.7604 31.2135 11.724 30.9219 11.7031C30.6406 11.6719 30.3958 11.6562 30.1875 11.6562C29.5729 11.6562 28.974 11.7344 28.3906 11.8906C27.8177 12.0469 27.3021 12.3021 26.8438 12.6562C26.3854 13 26.0208 13.4583 25.75 14.0312C25.4896 14.5938 25.3594 15.2865 25.3594 16.1094V25H20.5938V7.53125H24.2031L24.9062 10.4688H25.1406C25.4844 9.875 25.9115 9.33333 26.4219 8.84375C26.9427 8.34375 27.5312 7.94792 28.1875 7.65625C28.8542 7.35417 29.5729 7.20312 30.3438 7.20312ZM51 16.2344C51 17.6927 50.8021 18.9844 50.4062 20.1094C50.0208 21.2344 49.4531 22.1875 48.7031 22.9688C47.9635 23.7396 47.0677 24.3229 46.0156 24.7188C44.974 25.1146 43.7969 25.3125 42.4844 25.3125C41.2552 25.3125 40.125 25.1146 39.0938 24.7188C38.0729 24.3229 37.1823 23.7396 36.4219 22.9688C35.6719 22.1875 35.0885 21.2344 34.6719 20.1094C34.2656 18.9844 34.0625 17.6927 34.0625 16.2344C34.0625 14.2969 34.4062 12.6562 35.0938 11.3125C35.7812 9.96875 36.7604 8.94792 38.0312 8.25C39.3021 7.55208 40.8177 7.20312 42.5781 7.20312C44.2135 7.20312 45.6615 7.55208 46.9219 8.25C48.1927 8.94792 49.1875 9.96875 49.9062 11.3125C50.6354 12.6562 51 14.2969 51 16.2344ZM38.9219 16.2344C38.9219 17.3802 39.0469 18.3438 39.2969 19.125C39.5469 19.9062 39.9375 20.4948 40.4688 20.8906C41 21.2865 41.6927 21.4844 42.5469 21.4844C43.3906 21.4844 44.0729 21.2865 44.5938 20.8906C45.125 20.4948 45.5104 19.9062 45.75 19.125C46 18.3438 46.125 17.3802 46.125 16.2344C46.125 15.0781 46 14.1198 45.75 13.3594C45.5104 12.5885 45.125 12.0104 44.5938 11.625C44.0625 11.2396 43.3698 11.0469 42.5156 11.0469C41.2552 11.0469 40.3385 11.4792 39.7656 12.3438C39.2031 13.2083 38.9219 14.5052 38.9219 16.2344ZM59.0938 25L52.4375 7.53125H57.4219L60.7969 17.4844C60.9844 18.0677 61.1302 18.6823 61.2344 19.3281C61.349 19.974 61.4271 20.5521 61.4688 21.0625H61.5938C61.625 20.5104 61.6979 19.9219 61.8125 19.2969C61.9375 18.6719 62.099 18.0677 62.2969 17.4844L65.6562 7.53125H70.6406L63.9844 25H59.0938ZM77.9219 7.53125V25H73.1562V7.53125H77.9219ZM75.5469 0.6875C76.2552 0.6875 76.8646 0.854167 77.375 1.1875C77.8854 1.51042 78.1406 2.11979 78.1406 3.01562C78.1406 3.90104 77.8854 4.51562 77.375 4.85938C76.8646 5.19271 76.2552 5.35938 75.5469 5.35938C74.8281 5.35938 74.2135 5.19271 73.7031 4.85938C73.2031 4.51562 72.9531 3.90104 72.9531 3.01562C72.9531 2.11979 73.2031 1.51042 73.7031 1.1875C74.2135 0.854167 74.8281 0.6875 75.5469 0.6875ZM88.4688 25.3125C86.5208 25.3125 84.9323 24.5521 83.7031 23.0312C82.4844 21.5 81.875 19.2552 81.875 16.2969C81.875 13.3073 82.4948 11.0469 83.7344 9.51562C84.974 7.97396 86.5938 7.20312 88.5938 7.20312C89.4271 7.20312 90.1615 7.31771 90.7969 7.54688C91.4323 7.77604 91.9792 8.08333 92.4375 8.46875C92.9062 8.85417 93.3021 9.28646 93.625 9.76562H93.7812C93.7188 9.43229 93.6406 8.94271 93.5469 8.29688C93.4635 7.64062 93.4219 6.96875 93.4219 6.28125V0.6875H98.2031V25H94.5469L93.625 22.7344H93.4219C93.1198 23.2135 92.7396 23.651 92.2812 24.0469C91.8333 24.4323 91.2969 24.7396 90.6719 24.9688C90.0469 25.1979 89.3125 25.3125 88.4688 25.3125ZM90.1406 21.5156C91.4427 21.5156 92.3594 21.1302 92.8906 20.3594C93.4323 19.5781 93.7188 18.4062 93.75 16.8438V16.3281C93.75 14.6302 93.4896 13.3333 92.9688 12.4375C92.4479 11.5312 91.4792 11.0781 90.0625 11.0781C89.0104 11.0781 88.1875 11.5312 87.5938 12.4375C87 13.3438 86.7031 14.651 86.7031 16.3594C86.7031 18.0677 87 19.3542 87.5938 20.2188C88.1979 21.0833 89.0469 21.5156 90.1406 21.5156ZM110.391 7.20312C112.005 7.20312 113.396 7.51562 114.562 8.14062C115.729 8.75521 116.63 9.65104 117.266 10.8281C117.901 12.0052 118.219 13.4427 118.219 15.1406V17.4531H106.953C107.005 18.7969 107.406 19.8542 108.156 20.625C108.917 21.3854 109.969 21.7656 111.312 21.7656C112.427 21.7656 113.448 21.651 114.375 21.4219C115.302 21.1927 116.255 20.849 117.234 20.3906V24.0781C116.37 24.5052 115.464 24.8177 114.516 25.0156C113.578 25.2135 112.438 25.3125 111.094 25.3125C109.344 25.3125 107.792 24.9896 106.438 24.3438C105.094 23.6979 104.036 22.7135 103.266 21.3906C102.505 20.0677 102.125 18.401 102.125 16.3906C102.125 14.349 102.469 12.651 103.156 11.2969C103.854 9.93229 104.823 8.91146 106.062 8.23438C107.302 7.54688 108.745 7.20312 110.391 7.20312ZM110.422 10.5938C109.495 10.5938 108.724 10.8906 108.109 11.4844C107.505 12.0781 107.156 13.0104 107.062 14.2812H113.75C113.74 13.5729 113.609 12.9427 113.359 12.3906C113.12 11.8385 112.755 11.401 112.266 11.0781C111.786 10.7552 111.172 10.5938 110.422 10.5938ZM135.547 25H130.781V2.15625H143.875V6.125H135.547V12.0156H143.297V15.9688H135.547V25ZM164 7.53125V25H160.344L159.703 22.7656H159.453C159.078 23.3594 158.609 23.8438 158.047 24.2188C157.484 24.5938 156.865 24.8698 156.188 25.0469C155.51 25.224 154.807 25.3125 154.078 25.3125C152.828 25.3125 151.74 25.0938 150.812 24.6562C149.885 24.2083 149.161 23.5156 148.641 22.5781C148.13 21.6406 147.875 20.4219 147.875 18.9219V7.53125H152.641V17.7344C152.641 18.9844 152.865 19.9271 153.312 20.5625C153.76 21.1979 154.474 21.5156 155.453 21.5156C156.422 21.5156 157.182 21.2969 157.734 20.8594C158.286 20.4115 158.672 19.7604 158.891 18.9062C159.12 18.0417 159.234 16.9896 159.234 15.75V7.53125H164ZM178.922 7.20312C180.786 7.20312 182.286 7.71354 183.422 8.73438C184.557 9.74479 185.125 11.3698 185.125 13.6094V25H180.359V14.7969C180.359 13.5469 180.13 12.6042 179.672 11.9688C179.224 11.3333 178.516 11.0156 177.547 11.0156C176.089 11.0156 175.094 11.5104 174.562 12.5C174.031 13.4896 173.766 14.9167 173.766 16.7812V25H169V7.53125H172.641L173.281 9.76562H173.547C173.922 9.16146 174.385 8.67188 174.938 8.29688C175.5 7.92188 176.12 7.64583 176.797 7.46875C177.484 7.29167 178.193 7.20312 178.922 7.20312ZM195.562 25.3125C193.615 25.3125 192.026 24.5521 190.797 23.0312C189.578 21.5 188.969 19.2552 188.969 16.2969C188.969 13.3073 189.589 11.0469 190.828 9.51562C192.068 7.97396 193.688 7.20312 195.688 7.20312C196.521 7.20312 197.255 7.31771 197.891 7.54688C198.526 7.77604 199.073 8.08333 199.531 8.46875C200 8.85417 200.396 9.28646 200.719 9.76562H200.875C200.812 9.43229 200.734 8.94271 200.641 8.29688C200.557 7.64062 200.516 6.96875 200.516 6.28125V0.6875H205.297V25H201.641L200.719 22.7344H200.516C200.214 23.2135 199.833 23.651 199.375 24.0469C198.927 24.4323 198.391 24.7396 197.766 24.9688C197.141 25.1979 196.406 25.3125 195.562 25.3125ZM197.234 21.5156C198.536 21.5156 199.453 21.1302 199.984 20.3594C200.526 19.5781 200.812 18.4062 200.844 16.8438V16.3281C200.844 14.6302 200.583 13.3333 200.062 12.4375C199.542 11.5312 198.573 11.0781 197.156 11.0781C196.104 11.0781 195.281 11.5312 194.688 12.4375C194.094 13.3438 193.797 14.651 193.797 16.3594C193.797 18.0677 194.094 19.3542 194.688 20.2188C195.292 21.0833 196.141 21.5156 197.234 21.5156Z" fill="url(#paint0_radial_1680_5391)"/>
<defs>
<radialGradient id="paint0_radial_1680_5391" cx="0" cy="0" r="1" gradientUnits="userSpaceOnUse" gradientTransform="translate(33.8021 7.28937) rotate(23.0515) scale(195.574 1445.84)">
<stop stop-color="#4BF2A2"/>
<stop offset="0.421875" stop-color="#564D8F"/>
<stop offset="1" stop-color="#DD40CD"/>
</radialGradient>
</defs>
</svg>
