<svg width="207" height="209" viewBox="0 0 207 209" fill="none" xmlns="http://www.w3.org/2000/svg">
<path d="M126.202 69.617L90.4442 65.843C79.5569 64.694 69.7995 72.5884 68.6504 83.4757L63.7952 129.478C62.6462 140.365 70.5406 150.123 81.4279 151.272L117.186 155.046C128.073 156.195 137.831 148.3 138.98 137.413L143.835 91.4108C144.984 80.5235 137.09 70.7661 126.202 69.617Z" fill="url(#paint0_radial_1574_1752)"/>
<path d="M122.948 70.1459L90.7118 66.7437C79.8244 65.5946 70.067 73.489 68.918 84.3763L64.4853 126.375C63.3363 137.262 71.2307 147.02 82.118 148.169L114.354 151.571C125.242 152.72 134.999 144.826 136.148 133.939L140.581 91.9397C141.73 81.0524 133.836 71.295 122.948 70.1459Z" fill="url(#paint1_radial_1574_1752)"/>
<path d="M126.202 69.617L90.4442 65.843C79.5569 64.694 69.7995 72.5884 68.6504 83.4757L63.7952 129.478C62.6462 140.365 70.5406 150.123 81.4279 151.272L117.186 155.046C128.073 156.195 137.831 148.3 138.98 137.413L143.835 91.4108C144.984 80.5235 137.09 70.7661 126.202 69.617Z" stroke="#182338" stroke-width="1.40388" stroke-miterlimit="10"/>
<path d="M176.167 107.408C175.43 110.364 173.649 112.954 171.152 114.701C168.656 116.448 165.613 117.234 162.582 116.915C153.206 119.314 143.382 119.368 133.979 117.072C134.264 126.85 134.742 134.622 134.8 139.393C134.996 155.294 134.509 170.27 133.165 184.213C132.622 189.852 131.5 192.691 129.63 194.897C128.546 196.177 127.208 197.246 125.584 198.522C123.121 200.464 120.69 201.429 118.745 201.223C115.413 200.872 112.357 199.211 110.249 196.605C108.141 194 107.155 190.665 107.507 187.332L110.49 159.061C110.578 158.228 110.332 157.394 109.805 156.742C109.278 156.091 108.514 155.676 107.681 155.588L88.833 153.599C87.9998 153.511 87.1659 153.757 86.5146 154.284C85.8634 154.811 85.4481 155.575 85.3601 156.408L82.4006 184.449C81.6786 191.29 75.6868 196.467 68.8371 195.928L64.2407 194.67L58.2314 193.023C56.902 192.66 55.703 191.927 54.7739 190.909C53.8448 189.891 53.2238 188.631 52.9833 187.274C52.7278 185.825 52.9186 184.332 53.5302 182.994L58.2593 172.595C59.1203 166.143 60.1767 159.577 61.4203 152.844C62.6638 146.111 64.0978 139.211 65.7105 132.09C67.4098 124.595 69.2305 117.376 71.1726 110.433C61.4977 110.715 51.902 108.612 43.2326 104.308C35.8602 100.127 31.5822 94.3151 31.9937 90.4164C32.3454 87.0839 34.0065 84.0277 36.6116 81.92C39.2167 79.8123 42.5524 78.8257 45.8849 79.1775L75.4687 82.2998C106.205 104.601 135.669 88.6535 135.669 88.6535L165.047 91.7541C171.888 92.4761 177.065 98.468 176.526 105.318C176.465 106.023 176.345 106.722 176.167 107.408Z" fill="url(#paint2_radial_1574_1752)"/>
<path d="M176.167 107.408C175.43 110.364 173.649 112.954 171.152 114.701C168.656 116.448 165.613 117.234 162.582 116.915C153.206 119.314 143.382 119.368 133.979 117.072C134.264 126.85 134.742 134.622 134.8 139.393C134.996 155.294 134.509 170.27 133.165 184.213C132.622 189.852 131.5 192.691 129.63 194.897C128.546 196.177 127.208 197.246 125.584 198.522C123.121 200.464 120.69 201.429 118.745 201.223C115.413 200.872 112.357 199.211 110.249 196.605C108.141 194 107.155 190.665 107.507 187.332L110.49 159.061C110.578 158.228 110.332 157.394 109.805 156.742C109.278 156.091 108.514 155.676 107.681 155.588L88.833 153.599C87.9998 153.511 87.1659 153.757 86.5146 154.284C85.8634 154.811 85.4481 155.575 85.3601 156.408L82.4006 184.449C81.6786 191.29 75.6868 196.467 68.8371 195.928L64.2407 194.67L58.2314 193.023C56.902 192.66 55.703 191.927 54.7739 190.909C53.8448 189.891 53.2238 188.631 52.9833 187.274C52.7278 185.825 52.9186 184.332 53.5302 182.994L58.2593 172.595C59.1203 166.143 60.1767 159.577 61.4203 152.844C62.6638 146.111 64.0978 139.211 65.7105 132.09C67.4098 124.595 69.2305 117.376 71.1726 110.433C61.4977 110.715 51.902 108.612 43.2326 104.308C35.8602 100.127 31.5822 94.3151 31.9937 90.4164C32.3454 87.0839 34.0065 84.0277 36.6116 81.92C39.2167 79.8123 42.5524 78.8257 45.8849 79.1775L75.4687 82.2998C106.205 104.601 135.669 88.6535 135.669 88.6535L165.047 91.7541C171.888 92.4761 177.065 98.468 176.526 105.318C176.465 106.023 176.345 106.722 176.167 107.408Z" fill="url(#paint3_linear_1574_1752)" fill-opacity="0.3"/>
<path opacity="0.6" d="M107.679 155.574L88.8315 153.585C87.9984 153.497 87.1645 153.743 86.5132 154.27C85.8619 154.797 85.4466 155.561 85.3587 156.394L82.3977 184.449C81.6757 191.29 75.6839 196.467 68.8342 195.928L64.2378 194.67L58.2285 193.022C56.8998 192.659 55.7016 191.926 54.7731 190.908C53.8447 189.891 53.2242 188.63 52.9839 187.274C52.9437 186.585 52.9154 185.95 52.9003 185.391C52.8393 183.126 53.0022 182.017 53.5316 182.987C55.7799 187.131 69.0095 190.455 74.9842 188.717C80.959 186.98 79.7442 166.054 83.2952 154.846C86.8462 143.638 107.679 155.574 107.679 155.574Z" fill="url(#paint4_radial_1574_1752)"/>
<path d="M135.652 88.6553C135.652 88.6553 106.187 104.603 75.4508 82.3016C78.1994 80.2462 81.361 78.8111 84.7177 78.0952C89.8058 84.3365 97.1549 88.3132 105.163 89.1583C113.171 90.0035 121.188 87.6486 127.467 82.6071C130.6 84.0079 133.393 86.0713 135.652 88.6553Z" fill="url(#paint5_radial_1574_1752)" stroke="#182338" stroke-width="1.40388" stroke-miterlimit="10"/>
<path d="M105.164 89.1573C97.1578 88.3178 89.8082 84.3479 84.7167 78.1128C87.1649 77.5936 89.6798 77.4648 92.1683 77.7311L120.279 80.698C122.768 80.957 125.201 81.608 127.487 82.6269C121.208 87.669 113.191 90.0236 105.183 89.177L105.164 89.1573Z" fill="url(#paint6_radial_1574_1752)" stroke="#182338" stroke-width="1.40388" stroke-miterlimit="10"/>
<path d="M147.225 51.7616C146.376 59.8068 141.976 70.8652 135.687 75.9539L127.563 82.5395L127.478 82.6082C121.199 87.6489 113.182 90.0032 105.174 89.1581C97.1663 88.3129 89.8173 84.3368 84.7287 78.0964L84.66 78.0115L78.0793 69.8739C75.535 66.7291 73.7625 62.2223 72.7365 57.4979C71.7389 53.0066 71.4383 48.3886 71.8453 43.8059C72.4358 39.8591 73.6283 36.0262 75.3811 32.441C83.4251 16.0464 100.285 11.5192 101.666 11.1744C103.801 10.6399 105.978 10.2887 108.172 10.1247C109.952 9.993 111.738 9.9811 113.519 10.089C117.466 10.6795 121.299 11.872 124.884 13.6248C126.162 14.2503 141.706 22.1975 146.15 39.9101C147.113 43.7824 147.475 47.7794 147.225 51.7616Z" fill="url(#paint7_radial_1574_1752)" stroke="#182338" stroke-width="1.40388" stroke-miterlimit="10"/>
<path d="M135.652 88.6553C135.652 88.6553 106.187 104.603 75.4508 82.3016C78.1994 80.2462 81.361 78.8111 84.7177 78.0952C89.8058 84.3365 97.1549 88.3132 105.163 89.1583C113.171 90.0035 121.188 87.6486 127.467 82.6071C130.6 84.0079 133.393 86.0713 135.652 88.6553Z" fill="url(#paint8_radial_1574_1752)" fill-opacity="0.3" stroke="#182338" stroke-width="1.40388" stroke-miterlimit="10"/>
<path opacity="0.3" d="M147.225 51.7616C146.376 59.8068 141.976 70.8652 135.687 75.9539L127.563 82.5395L127.478 82.6082C121.199 87.6489 113.182 90.0032 105.174 89.1581C97.1663 88.3129 89.8173 84.3368 84.7287 78.0964L84.66 78.0115L78.0793 69.8739C75.535 66.7291 73.7625 62.2223 72.7365 57.4979C71.7389 53.0066 71.4383 48.3886 71.8453 43.8059C72.4358 39.8591 73.6283 36.0262 75.3811 32.441C83.4251 16.0464 100.285 11.5192 101.666 11.1744C103.801 10.6399 105.978 10.2887 108.172 10.1247C109.952 9.993 111.738 9.9811 113.519 10.089C117.466 10.6795 121.299 11.872 124.884 13.6248C126.162 14.2503 141.706 22.1975 146.15 39.9101C147.113 43.7824 147.475 47.7794 147.225 51.7616Z" fill="url(#paint9_radial_1574_1752)" stroke="#182338" stroke-width="1.40388" stroke-miterlimit="10"/>
<path d="M144.223 50.1141C144.362 47.2187 143.941 44.3237 142.984 41.5875C138.544 28.7879 124.149 22.7618 122.982 22.2857C119.618 20.939 116.103 20.0075 112.514 19.5116C108.898 19.2465 105.264 19.4235 101.691 20.0386C100.436 20.2591 85.1283 23.1503 78.1032 34.7398C76.5967 37.2165 75.58 39.9594 75.1082 42.8196C74.5011 48.5716 76.5728 57.0309 81.3582 61.6475L87.5494 67.6229C92.3344 72.243 99.1645 75.2754 106.539 76.0538C113.915 76.8322 121.231 75.2927 126.875 71.7734L134.177 67.2221C139.828 63.707 143.616 55.8662 144.223 50.1141Z" fill="#504C57" stroke="#182338" stroke-width="1.40388" stroke-miterlimit="10"/>
<path d="M141.815 49.952C141.943 47.2585 141.551 44.5657 140.662 42.0202C136.53 30.1107 123.15 24.5023 122.046 24.0576C118.916 22.8056 115.646 21.939 112.306 21.4768C108.944 21.2317 105.565 21.3965 102.242 21.9675C101.074 22.1724 86.814 24.8636 80.2902 35.6484C78.888 37.9532 77.9416 40.5059 77.5027 43.1678C76.9376 48.5219 78.8669 56.3909 83.3187 60.69L89.0855 66.2395C93.5366 70.5455 99.8919 73.362 106.754 74.0862C113.616 74.8104 120.423 73.3795 125.678 70.105L132.476 65.8816C137.724 62.5993 141.25 55.3061 141.815 49.952Z" fill="url(#paint10_radial_1574_1752)"/>
<path d="M131.204 34.2801C130.23 31.9292 139.092 41.4651 138.097 50.889C137.102 60.3128 131.64 62.9126 131.64 62.9126C131.64 62.9126 139.476 54.2107 131.204 34.2801Z" fill="url(#paint11_radial_1574_1752)"/>
<path d="M84.154 128.648C83.2047 126.953 82.6465 125.067 82.5202 123.129L83.2625 116.096C83.6031 114.54 84.3234 112.53 86.0125 111.039C88.8073 108.567 91.8951 109.606 102.899 110.609C108.094 111.079 117.165 111.737 119.327 114.555C120.055 115.526 120.575 116.636 120.857 117.815C121.008 118.559 121.047 119.321 120.972 120.076L120.229 127.109C119.701 128.977 118.763 130.705 117.483 132.165C109.904 140.608 89.7859 138.485 84.154 128.648Z" fill="url(#paint12_radial_1574_1752)" stroke="#182338" stroke-width="0.794577" stroke-miterlimit="10"/>
<path d="M86.7739 127.936C85.9668 126.497 85.4931 124.895 85.3876 123.248L86.0183 117.272C86.306 115.951 86.9167 114.244 88.3527 112.977C90.7271 110.877 93.3482 111.757 102.699 112.61C107.114 113.012 114.815 113.571 116.656 115.964C117.274 116.788 117.717 117.731 117.955 118.734C118.08 119.365 118.11 120.012 118.042 120.652L117.411 126.628C116.961 128.215 116.164 129.682 115.077 130.923C108.641 138.096 91.5387 136.291 86.7739 127.936Z" stroke="#182338" stroke-width="0.794577" stroke-miterlimit="10"/>
<path d="M89.372 127.222C88.708 126.037 88.3177 124.719 88.2299 123.364L88.7489 118.446C88.999 117.094 89.6722 115.856 90.6712 114.912C92.6183 113.183 94.7827 113.909 102.477 114.608C106.108 114.942 112.448 115.399 113.962 117.37C114.47 118.049 114.834 118.825 115.031 119.649C115.134 120.169 115.158 120.701 115.101 121.227L114.582 126.145C114.213 127.452 113.557 128.659 112.663 129.68C107.374 135.584 93.3117 134.1 89.372 127.222Z" stroke="#182338" stroke-width="0.794577" stroke-miterlimit="10"/>
<path d="M91.9806 126.523C91.4604 125.594 91.1547 124.559 91.086 123.496L91.4949 119.622C91.6898 118.561 92.2176 117.589 93.0017 116.848C94.5353 115.493 96.2291 116.063 102.266 116.612C105.115 116.87 110.092 117.233 111.277 118.777C111.677 119.31 111.963 119.919 112.119 120.567C112.199 120.974 112.218 121.391 112.175 121.805L111.768 125.665C111.477 126.69 110.961 127.638 110.257 128.438C106.108 133.072 95.0722 131.907 91.9806 126.523Z" stroke="#182338" stroke-width="0.794577" stroke-miterlimit="10"/>
<path d="M94.5911 125.796C94.215 125.125 93.9925 124.378 93.9395 123.61L94.2342 120.818C94.3785 120.052 94.7613 119.351 95.3278 118.816C96.441 117.832 97.6715 118.244 102.051 118.643C104.121 118.833 107.732 119.094 108.591 120.216C108.883 120.602 109.091 121.044 109.202 121.515C109.26 121.811 109.274 122.113 109.241 122.412L108.947 125.205C108.735 125.945 108.361 126.628 107.853 127.207C104.849 130.557 96.8215 129.709 94.5911 125.796Z" stroke="#182338" stroke-width="0.794577" stroke-miterlimit="10"/>
<path d="M97.2004 125.084C96.9649 124.665 96.8272 124.198 96.7976 123.718L96.9818 121.973C97.0697 121.494 97.3075 121.056 97.6609 120.721C98.3536 120.109 99.1101 120.366 101.844 120.615C103.13 120.734 105.378 120.897 105.912 121.592C106.093 121.833 106.222 122.108 106.292 122.401C106.329 122.585 106.337 122.772 106.318 122.958L106.134 124.703C106.002 125.166 105.769 125.593 105.451 125.955C103.579 128.044 98.5952 127.518 97.2004 125.084Z" stroke="#182338" stroke-width="0.794577" stroke-miterlimit="10"/>
<path d="M114.558 173.056C114.167 172.095 113.956 171.07 113.934 170.033L114.345 166.141C114.505 165.107 114.933 164.133 115.586 163.315C116.793 161.91 118.113 162.442 122.796 162.847C125.006 163.042 128.866 163.283 129.753 164.81C130.28 165.725 130.498 166.785 130.376 167.833L129.965 171.725C129.726 172.734 129.306 173.692 128.725 174.551C125.384 179.316 116.83 178.413 114.558 173.056Z" fill="#99A3A3" stroke="#182338" stroke-width="0.350969" stroke-miterlimit="10"/>
<path d="M115.635 172.648C115.301 171.824 115.121 170.946 115.104 170.058L115.455 166.728C115.593 165.843 115.958 165.01 116.515 164.309C117.563 163.111 118.68 163.564 122.685 163.902C124.577 164.066 127.879 164.273 128.637 165.589C128.898 166.062 129.074 166.578 129.157 167.112C129.203 167.463 129.207 167.819 129.169 168.172L128.818 171.501C128.613 172.366 128.254 173.187 127.757 173.924C124.9 177.995 117.57 177.221 115.635 172.648Z" fill="#99A3A3" stroke="#182338" stroke-width="0.350969" stroke-miterlimit="10"/>
<path d="M116.713 172.235C116.436 171.547 116.286 170.813 116.27 170.071L116.563 167.303C116.676 166.563 116.981 165.865 117.447 165.279C118.318 164.281 119.245 164.661 122.574 164.949C124.148 165.083 126.893 165.256 127.52 166.342C127.738 166.735 127.885 167.162 127.955 167.606C127.992 167.9 127.995 168.198 127.963 168.493L127.671 171.26C127.504 171.984 127.205 172.671 126.787 173.285C124.413 176.683 118.33 176.041 116.713 172.235Z" fill="#99A3A3" stroke="#182338" stroke-width="0.350969" stroke-miterlimit="10"/>
<path d="M117.787 171.823C117.567 171.278 117.448 170.697 117.435 170.11L117.668 167.904C117.76 167.318 118.002 166.766 118.37 166.301C119.064 165.507 119.805 165.811 122.457 166.027C123.709 166.138 125.897 166.274 126.397 167.149C126.696 167.667 126.82 168.268 126.749 168.862L126.517 171.068C126.381 171.64 126.143 172.183 125.815 172.67C123.927 175.369 119.079 174.857 117.787 171.823Z" fill="#99A3A3" stroke="#182338" stroke-width="0.350969" stroke-miterlimit="10"/>
<path d="M118.868 171.411C118.703 171.005 118.615 170.572 118.607 170.134L118.781 168.491C118.85 168.056 119.029 167.645 119.302 167.3C119.82 166.709 120.371 166.933 122.347 167.102C123.279 167.201 124.911 167.285 125.284 167.931C125.412 168.159 125.5 168.407 125.542 168.664C125.567 168.838 125.569 169.013 125.55 169.187L125.377 170.831C125.275 171.258 125.097 171.662 124.852 172.025C123.442 174.054 119.829 173.673 118.868 171.411Z" fill="#99A3A3" stroke="#182338" stroke-width="0.350969" stroke-miterlimit="10"/>
<path d="M119.949 170.999C119.838 170.734 119.78 170.45 119.776 170.162L119.89 169.08C119.933 168.792 120.051 168.521 120.234 168.294C120.572 167.907 120.934 168.054 122.236 168.153C122.85 168.218 123.921 168.271 124.168 168.71C124.252 168.864 124.31 169.031 124.338 169.204C124.352 169.321 124.352 169.44 124.34 169.557L124.225 170.639C124.159 170.918 124.042 171.183 123.882 171.422C122.956 172.739 120.579 172.488 119.949 170.999Z" fill="#99A3A3" stroke="#182338" stroke-width="0.350969" stroke-miterlimit="10"/>
<path d="M61.7649 165.501C61.4677 164.482 61.3506 163.418 61.419 162.359L62.1607 158.407C62.4065 157.366 62.9072 156.402 63.6177 155.603C64.9417 154.26 66.1626 154.897 70.7104 155.646C72.8538 156.002 76.6163 156.534 77.3411 158.159C77.5913 158.753 77.7405 159.384 77.7828 160.027C77.797 160.454 77.7649 160.882 77.6871 161.302L76.9453 165.254C76.6264 166.266 76.1321 167.215 75.4848 168.057C71.8151 172.699 63.5073 171.162 61.7649 165.501Z" fill="#99A3A3" stroke="#182338" stroke-width="0.350969" stroke-miterlimit="10"/>
<path d="M62.8672 165.155C62.6132 164.285 62.5131 163.378 62.5714 162.473L63.2032 159.096C63.4155 158.208 63.8441 157.386 64.4508 156.704C65.5778 155.556 66.632 156.101 70.5056 156.75C72.3367 157.056 75.5391 157.511 76.1653 158.9C76.5359 159.743 76.6391 160.679 76.4611 161.582L75.8297 164.956C75.5549 165.821 75.1326 166.631 74.5816 167.351C71.441 171.294 64.3665 169.975 62.8672 165.155Z" fill="#99A3A3" stroke="#182338" stroke-width="0.350969" stroke-miterlimit="10"/>
<path d="M63.9694 164.809C63.7585 164.089 63.6754 163.337 63.7238 162.588L64.2487 159.788C64.4211 159.051 64.7758 158.369 65.2804 157.804C66.2181 156.845 67.0992 157.291 70.3018 157.844C71.8175 158.096 74.4707 158.471 74.9913 159.623C75.1698 160.043 75.2754 160.49 75.3036 160.945C75.315 161.247 75.2925 161.55 75.2365 161.848L74.712 164.644C74.4876 165.361 74.1383 166.033 73.6803 166.628C71.0759 169.904 65.21 168.804 63.9694 164.809Z" fill="#99A3A3" stroke="#182338" stroke-width="0.350969" stroke-miterlimit="10"/>
<path d="M65.0718 164.463C64.9037 163.891 64.8377 163.294 64.8768 162.699L65.2913 160.477C65.4308 159.893 65.7134 159.353 66.1137 158.905C66.8533 158.15 67.5425 158.509 70.0951 158.934C71.302 159.135 73.409 159.435 73.828 160.348C74.0698 160.902 74.1378 161.517 74.023 162.112L73.605 164.333C73.4258 164.902 73.1486 165.435 72.7857 165.909C70.7117 168.506 66.0571 167.634 65.0718 164.463Z" fill="#99A3A3" stroke="#182338" stroke-width="0.350969" stroke-miterlimit="10"/>
<path d="M66.1739 164.117C66.0484 163.695 65.9994 163.253 66.0291 162.814L66.3367 161.17C66.4384 160.736 66.647 160.335 66.9434 160.002C67.4927 159.446 68.0011 159.711 69.8912 160.027C70.7827 160.174 72.3439 160.396 72.6465 161.073C72.7519 161.319 72.8138 161.581 72.8294 161.848C72.8303 162.025 72.8117 162.202 72.7738 162.375L72.4662 164.019C72.3327 164.44 72.1274 164.835 71.8594 165.186C70.3472 167.109 66.9034 166.467 66.1739 164.117Z" fill="#99A3A3" stroke="#182338" stroke-width="0.350969" stroke-miterlimit="10"/>
<path d="M67.2726 163.771C67.1926 163.496 67.1619 163.21 67.1819 162.925L67.3792 161.858C67.4482 161.579 67.5832 161.319 67.7731 161.102C68.1288 160.741 68.46 160.914 69.6878 161.117C70.2635 161.213 71.2752 161.359 71.4725 161.796C71.5405 161.956 71.581 162.126 71.5923 162.3C71.5947 162.417 71.5823 162.534 71.5555 162.649L71.3548 163.714C71.2702 163.987 71.138 164.244 70.9644 164.471C69.9825 165.715 67.7469 165.296 67.2726 163.771Z" fill="#99A3A3" stroke="#182338" stroke-width="0.350969" stroke-miterlimit="10"/>
<path d="M51.9917 80.2531C52.1373 83.6882 54.9447 86.3808 57.8575 87.807C61.103 89.3918 65.2014 89.482 67.7858 86.6632C68.397 86.023 68.8507 85.2491 69.1109 84.4031C69.3711 83.557 69.4307 82.6619 69.2849 81.7888C69.1253 80.9603 67.8257 81.169 67.9881 82.0049C68.5265 84.7615 66.0908 87.1408 63.5225 87.5332C60.4865 88.0104 57.153 86.4233 55.1365 84.1953C54.0522 83.0665 53.3994 81.5921 53.2927 80.0304C53.2638 79.8589 53.1683 79.7057 53.027 79.6042C52.8857 79.5027 52.71 79.4611 52.5382 79.4885C52.3683 79.5207 52.2173 79.617 52.1164 79.7574C52.0156 79.8979 51.9725 80.0717 51.9963 80.243L51.9917 80.2531Z" fill="#182338"/>
<path d="M144.369 90.1224C144.695 91.2234 145.277 92.2311 146.07 93.0617C146.862 93.8923 147.842 94.5219 148.926 94.8983C151.433 95.7131 154.142 95.6454 156.605 94.7065C157.784 94.1957 158.733 93.3359 159.003 92.048C159.019 91.8743 158.967 91.7011 158.857 91.5655C158.748 91.4299 158.589 91.3427 158.416 91.3226C158.243 91.3088 158.072 91.3622 157.937 91.4716C157.803 91.5809 157.716 91.7379 157.694 91.9098C157.473 92.963 156.264 93.5235 155.333 93.7782C153.974 94.1569 152.554 94.2649 151.153 94.0958C148.777 93.8027 146.336 92.3522 145.669 89.9172C145.636 89.7473 145.54 89.5963 145.4 89.4954C145.259 89.3945 145.085 89.3515 144.914 89.3752C144.742 89.4049 144.589 89.5011 144.487 89.6429C144.386 89.7848 144.344 89.961 144.372 90.1332L144.369 90.1224Z" fill="#182338"/>
<path d="M60.8357 88.5764C60.9016 95.4852 60.2352 102.382 58.8478 109.15C58.8305 109.323 58.8821 109.496 58.9914 109.631C59.1007 109.766 59.2589 109.852 59.4316 109.872C59.6043 109.886 59.776 109.834 59.911 109.725C60.0461 109.616 60.134 109.46 60.1567 109.288C61.5441 102.52 62.2104 95.6233 62.1445 88.7145C62.1574 88.5425 62.1041 88.3721 61.9956 88.238C61.8871 88.104 61.7316 88.0163 61.5607 87.993C61.3873 87.9747 61.2137 88.0257 61.0778 88.1351C60.9419 88.2444 60.8549 88.4031 60.8357 88.5764Z" fill="#182338"/>
<path d="M121.059 178.172L118.658 200.921C118.652 201.088 118.71 201.25 118.82 201.376C118.929 201.502 119.082 201.581 119.248 201.599C119.414 201.616 119.58 201.57 119.713 201.47C119.846 201.37 119.937 201.224 119.966 201.06L122.367 178.31C122.373 178.143 122.315 177.981 122.205 177.855C122.096 177.729 121.943 177.65 121.777 177.632C121.611 177.615 121.445 177.661 121.312 177.761C121.179 177.861 121.088 178.008 121.059 178.172Z" fill="#182338"/>
<path d="M66.7332 170.687C65.8678 174.005 65.0128 177.324 64.1362 180.648C63.3476 183.639 62.5079 186.846 60.7023 189.408C59.8742 190.567 58.8037 191.615 57.3778 191.916C56.5509 192.094 56.7596 193.393 57.5935 193.217C60.5469 192.586 62.2575 189.788 63.3797 187.214C64.7753 184.022 65.5105 180.567 66.3835 177.211C66.9088 175.199 67.4329 173.187 67.9556 171.176C68.0139 171.013 68.0078 170.834 67.9387 170.675C67.8696 170.517 67.7425 170.39 67.5835 170.322C67.4212 170.259 67.2407 170.263 67.0813 170.333C66.9219 170.403 66.7965 170.533 66.7325 170.694L66.7332 170.687Z" fill="#182338"/>
<path d="M176.167 107.412C175.43 110.368 173.649 112.958 171.152 114.705C168.656 116.452 165.613 117.238 162.582 116.918C153.206 119.318 143.382 119.372 133.98 117.076C134.264 126.853 134.742 134.626 134.8 139.396C134.996 155.298 134.509 170.274 133.165 184.217C132.622 189.856 131.501 192.695 129.63 194.901C133.436 172.479 130.264 129.237 129.225 116.743C129.194 116.363 129.253 115.981 129.397 115.628C129.54 115.275 129.765 114.961 130.053 114.711C130.341 114.462 130.684 114.283 131.054 114.191C131.424 114.098 131.81 114.094 132.182 114.179C148.244 117.78 167.223 111.172 176.167 107.412Z" fill="url(#paint13_radial_1574_1752)" fill-opacity="0.6"/>
<path d="M176.167 107.412C175.43 110.368 173.649 112.958 171.152 114.705C168.656 116.452 165.612 117.238 162.582 116.918C153.205 119.318 143.382 119.372 133.979 117.076C134.264 126.853 134.742 134.626 134.8 139.396C134.995 155.298 134.509 170.274 133.164 184.217C132.622 189.856 131.5 192.695 129.63 194.901C128.545 196.181 127.208 197.25 125.584 198.526C123.12 200.468 120.689 201.432 118.745 201.227C115.413 200.875 112.356 199.214 110.249 196.609C108.141 194.004 107.155 190.668 107.506 187.336L110.49 159.064C110.578 158.231 110.331 157.397 109.804 156.746C109.278 156.095 108.513 155.679 107.68 155.592L88.8327 153.602C87.9996 153.514 87.1657 153.761 86.5144 154.288C85.8631 154.815 85.4479 155.579 85.3599 156.412L82.3978 184.478C81.6758 191.319 75.6839 196.495 68.8343 195.956L64.2379 194.698L58.2286 193.051C57.2112 192.773 56.2664 192.277 55.4594 191.597C54.6525 190.918 54.0028 190.072 53.5552 189.116C53.1076 188.161 52.8728 187.12 52.867 186.066C52.8613 185.011 53.0848 183.967 53.5219 183.008L58.251 172.609C59.112 166.156 60.1684 159.591 61.4119 152.858C62.6555 146.125 64.0895 139.225 65.7022 132.104C67.4015 124.608 69.2222 117.389 71.1643 110.446C61.4894 110.729 51.8937 108.625 43.2243 104.321C35.8519 100.141 31.5739 94.3285 31.9854 90.4298C32.3371 87.0974 33.9982 84.0411 36.6033 81.9334C39.2084 79.8257 42.5441 78.8392 45.8766 79.1909L75.4604 82.3132C106.196 104.615 135.661 88.6669 135.661 88.6669L165.039 91.7675C171.88 92.4895 177.057 98.4814 176.517 105.331C176.459 106.033 176.342 106.729 176.167 107.412V107.412Z" stroke="#182338" stroke-width="1.40388" stroke-miterlimit="10"/>
<path d="M151.374 95.5518C151.793 101.364 151.686 107.202 151.054 112.995C150.88 114.642 150.657 116.283 150.386 117.918C150.252 118.754 151.561 118.892 151.695 118.056C152.639 112.214 153.046 106.299 152.911 100.383C152.872 98.6945 152.793 97.0097 152.671 95.3287C152.612 94.4861 151.325 94.7032 151.374 95.5448L151.374 95.5518Z" fill="#182338"/>
<path d="M145.844 90.1051L145.398 91.0179L148.347 94.0749L154.59 94.7762L158.352 92.604L158.415 91.1707L149.494 90.2291L145.844 90.1051Z" fill="#182338"/>
<path d="M52.5952 79.4131C52.64 79.7248 53.7398 83.1478 53.7398 83.1478L57.0413 86.609L61.3784 87.949L65.4066 87.6683L68.027 85.4109L68.6276 82.6298L68.2221 81.3553L52.5952 79.4131Z" fill="#182338"/>
<path d="M33.7813 98.0778L33.8202 98.1295C34.0577 98.4413 34.3565 98.7012 34.698 98.8933C35.0396 99.0855 35.4169 99.2059 35.8066 99.2471C36.1964 99.2883 36.5905 99.2494 36.9647 99.1329C37.3389 99.0164 37.6854 98.8247 37.9829 98.5695L38.196 98.3868C38.539 98.0925 38.8079 97.7217 38.9813 97.3043C39.1546 96.887 39.2275 96.4347 39.194 95.9841L38.4407 85.9977C38.4119 85.6196 38.3087 85.251 38.137 84.913C37.9654 84.575 37.7286 84.2742 37.4404 84.0279L37.1397 83.7633C36.8008 83.473 36.3992 83.2654 35.9664 83.1568C35.5336 83.0482 35.0815 83.0415 34.6458 83.1374C34.21 83.2333 33.8024 83.4291 33.4552 83.7093C33.108 83.9896 32.8306 84.3466 32.6449 84.7524C32.4414 85.1972 32.3549 85.6866 32.3936 86.1742L33.2032 96.5542C33.2433 97.1076 33.4443 97.6371 33.7813 98.0778Z" fill="url(#paint14_radial_1574_1752)" stroke="#182338" stroke-width="1.40388" stroke-miterlimit="10"/>
<path d="M35.6264 95.4963L35.2222 86.7735C35.1898 86.0668 34.9908 85.3903 34.6469 84.8179C34.303 84.2454 33.8274 83.7989 33.2721 83.5272L29.2448 81.5612C28.9736 81.4277 28.6866 81.3388 28.392 81.297L23.2673 80.5423C23.1034 80.52 22.938 80.5101 22.7722 80.5125L18.0936 80.6405C17.6317 80.652 17.174 80.7757 16.7496 81.0037C16.3252 81.2316 15.9437 81.5587 15.6294 81.964L15.0155 82.752L14.039 84.0035C13.6187 84.5446 13.3318 85.2059 13.2101 85.9139L12.0819 92.4858C11.9495 93.2491 12.0166 94.0337 12.2745 94.7373L12.7762 96.1126C13.0202 96.7786 13.4239 97.3445 13.9405 97.7444C14.457 98.1443 15.0652 98.3619 15.6946 98.3721L18.3139 98.4047C18.7816 98.4078 19.2402 98.5261 19.6596 98.752C20.079 98.9779 20.4496 99.3061 20.747 99.7151C21.0445 100.124 21.262 100.605 21.3853 101.125C21.5085 101.645 21.5347 102.194 21.4622 102.734L21.4361 102.951C21.3368 103.726 21.4398 104.511 21.7317 105.202C22.0236 105.894 22.4907 106.46 23.0723 106.827L23.538 107.12C24.166 107.519 24.8954 107.664 25.6154 107.533C26.3353 107.403 27.0066 107.004 27.5271 106.397L29.8337 103.669L34.51 98.6269C34.884 98.2289 35.1787 97.7407 35.372 97.1986C35.5654 96.6565 35.6523 96.0746 35.6264 95.4963Z" fill="url(#paint15_radial_1574_1752)"/>
<path d="M35.6264 95.4963L35.2222 86.7735C35.1898 86.0668 34.9908 85.3903 34.6469 84.8179C34.303 84.2454 33.8274 83.7989 33.2721 83.5272L29.2448 81.5612C28.9736 81.4277 28.6866 81.3388 28.392 81.297L23.2673 80.5423C23.1034 80.52 22.938 80.5101 22.7722 80.5125L18.0936 80.6405C17.6317 80.652 17.174 80.7757 16.7496 81.0037C16.3252 81.2316 15.9437 81.5587 15.6294 81.964L15.0155 82.752L14.039 84.0035C13.6187 84.5446 13.3318 85.2059 13.2101 85.9139L12.0819 92.4858C11.9495 93.2491 12.0166 94.0337 12.2745 94.7373L12.7762 96.1126C13.0202 96.7786 13.4239 97.3445 13.9405 97.7444C14.457 98.1443 15.0652 98.3619 15.6946 98.3721L18.3139 98.4047C18.7816 98.4078 19.2402 98.5261 19.6596 98.752C20.079 98.9779 20.4496 99.3061 20.747 99.7151C21.0445 100.124 21.262 100.605 21.3853 101.125C21.5085 101.645 21.5347 102.194 21.4622 102.734L21.4361 102.951C21.3368 103.726 21.4398 104.511 21.7317 105.202C22.0236 105.894 22.4907 106.46 23.0723 106.827L23.538 107.12C24.166 107.519 24.8954 107.664 25.6154 107.533C26.3353 107.403 27.0066 107.004 27.5271 106.397L29.8337 103.669L34.51 98.6269C34.884 98.2289 35.1787 97.7407 35.372 97.1986C35.5654 96.6565 35.6523 96.0746 35.6264 95.4963Z" fill="url(#paint16_radial_1574_1752)" fill-opacity="0.6"/>
<path opacity="0.6" d="M35.6261 95.4961L35.2219 86.7733C35.1895 86.0667 34.9905 85.3902 34.6466 84.8177C34.3027 84.2453 33.8271 83.7988 33.2718 83.527L29.2446 81.561C28.9733 81.4275 28.6863 81.3386 28.3917 81.2968L23.267 80.5422C23.1031 80.5199 22.9377 80.5099 22.772 80.5124L18.0933 80.6403C17.6315 80.6519 17.1737 80.7756 16.7493 81.0035C16.325 81.2314 15.9434 81.5585 15.6291 81.9638L15.0153 82.7519C17.0415 83.6208 21.3936 83.7056 23.6542 83.8676C26.617 84.0843 32.7924 84.4989 33.2871 86.9713C33.7818 89.4437 31.7973 91.3661 32.423 91.7482C36.2293 94.0714 31.9607 101.486 27.8857 102.643C26.1446 103.14 25.595 107.074 21.7427 103.987C22.0273 104.503 22.5991 106.54 23.083 106.833L23.5487 107.126C24.1761 107.521 24.9036 107.663 25.6213 107.532C26.3389 107.4 27.0078 107.002 27.5269 106.396L29.8335 103.669L34.5097 98.6267C34.8838 98.2287 35.1785 97.7405 35.3718 97.1984C35.5651 96.6564 35.652 96.0745 35.6261 95.4961Z" fill="url(#paint17_radial_1574_1752)"/>
<path d="M35.6264 95.4963L35.2222 86.7735C35.1898 86.0668 34.9908 85.3903 34.6469 84.8179C34.303 84.2454 33.8274 83.7989 33.2721 83.5272L29.2448 81.5612C28.9736 81.4277 28.6866 81.3388 28.392 81.297L23.2673 80.5423C23.1034 80.52 22.938 80.5101 22.7722 80.5125L18.0936 80.6405C17.6317 80.652 17.174 80.7757 16.7496 81.0037C16.3252 81.2316 15.9437 81.5587 15.6294 81.964L15.0155 82.752L14.039 84.0035C13.6187 84.5446 13.3318 85.2059 13.2101 85.9139L12.0819 92.4858C11.9495 93.2491 12.0166 94.0337 12.2745 94.7373L12.7762 96.1126C13.0202 96.7786 13.4239 97.3445 13.9405 97.7444C14.457 98.1443 15.0652 98.3619 15.6946 98.3721L18.3139 98.4047C18.7816 98.4078 19.2402 98.5261 19.6596 98.752C20.079 98.9779 20.4496 99.3061 20.747 99.7151C21.0445 100.124 21.262 100.605 21.3853 101.125C21.5085 101.645 21.5347 102.194 21.4622 102.734L21.4361 102.951C21.3368 103.726 21.4398 104.511 21.7317 105.202C22.0236 105.894 22.4907 106.46 23.0723 106.827L23.538 107.12C24.166 107.519 24.8954 107.664 25.6154 107.533C26.3353 107.403 27.0066 107.004 27.5271 106.397L29.8337 103.669L34.51 98.6269C34.884 98.2289 35.1787 97.7407 35.372 97.1986C35.5654 96.6565 35.6523 96.0746 35.6264 95.4963V95.4963Z" stroke="#182338" stroke-width="1.40388" stroke-miterlimit="10"/>
<path d="M172.281 113.97L172.232 114.013C171.938 114.272 171.594 114.469 171.222 114.59C170.849 114.711 170.456 114.756 170.065 114.719C169.675 114.683 169.296 114.568 168.952 114.38C168.608 114.193 168.306 113.937 168.064 113.628L167.891 113.407C167.613 113.051 167.422 112.635 167.333 112.192C167.245 111.748 167.263 111.291 167.384 110.855L170.082 101.211C170.184 100.846 170.358 100.504 170.592 100.207C170.827 99.9089 171.118 99.6604 171.449 99.4755L171.796 99.2751C172.185 99.0569 172.62 98.9321 173.065 98.9105C173.511 98.8889 173.956 98.9711 174.364 99.1506C174.773 99.3301 175.134 99.6021 175.419 99.945C175.705 100.288 175.907 100.692 176.009 101.127C176.122 101.603 176.11 102.1 175.977 102.57L173.146 112.59C172.998 113.124 172.698 113.604 172.281 113.97Z" fill="url(#paint18_radial_1574_1752)" stroke="#182338" stroke-width="1.40388" stroke-miterlimit="10"/>
<path d="M170.978 111.077L173.085 102.603C173.256 101.916 173.584 101.292 174.033 100.798C174.483 100.304 175.036 99.9597 175.634 99.8021L179.969 98.6645C180.261 98.5868 180.56 98.5559 180.857 98.5727L186.03 98.8382C186.195 98.8485 186.36 98.8711 186.522 98.9061L191.084 99.9494C191.535 100.051 191.959 100.262 192.331 100.569C192.702 100.876 193.012 101.272 193.241 101.731L193.688 102.624L194.4 104.043C194.706 104.656 194.858 105.36 194.838 106.078L194.655 112.744C194.635 113.518 194.415 114.275 194.025 114.914L193.263 116.164C192.893 116.769 192.386 117.245 191.801 117.536C191.216 117.827 190.577 117.921 189.958 117.807L187.383 117.325C186.924 117.236 186.451 117.263 185.995 117.402C185.54 117.541 185.112 117.79 184.74 118.133C184.368 118.475 184.061 118.904 183.838 119.39C183.615 119.876 183.481 120.408 183.447 120.953L183.43 121.17C183.375 121.95 183.12 122.699 182.698 123.32C182.276 123.941 181.707 124.404 181.065 124.651L180.551 124.846C179.857 125.114 179.113 125.113 178.432 124.844C177.752 124.575 177.172 124.052 176.781 123.354L175.054 120.228L171.458 114.366C171.169 113.902 170.976 113.365 170.893 112.796C170.81 112.226 170.839 111.639 170.978 111.077Z" fill="url(#paint19_radial_1574_1752)"/>
<path d="M170.978 111.077L173.085 102.603C173.256 101.916 173.584 101.292 174.033 100.798C174.483 100.304 175.036 99.9597 175.634 99.8021L179.969 98.6645C180.261 98.5868 180.56 98.5559 180.857 98.5727L186.03 98.8382C186.195 98.8485 186.36 98.8711 186.522 98.9061L191.084 99.9494C191.535 100.051 191.959 100.262 192.331 100.569C192.702 100.876 193.012 101.272 193.241 101.731L193.688 102.624L194.4 104.043C194.706 104.656 194.858 105.36 194.838 106.078L194.655 112.744C194.635 113.518 194.415 114.275 194.025 114.914L193.263 116.164C192.893 116.769 192.386 117.245 191.801 117.536C191.216 117.827 190.577 117.921 189.958 117.807L187.383 117.325C186.924 117.236 186.451 117.263 185.995 117.402C185.54 117.541 185.112 117.79 184.74 118.133C184.368 118.475 184.061 118.904 183.838 119.39C183.615 119.876 183.481 120.408 183.447 120.953L183.43 121.17C183.375 121.95 183.12 122.699 182.698 123.32C182.276 123.941 181.707 124.404 181.065 124.651L180.551 124.846C179.857 125.114 179.113 125.113 178.432 124.844C177.752 124.575 177.172 124.052 176.781 123.354L175.054 120.228L171.458 114.366C171.169 113.902 170.976 113.365 170.893 112.796C170.81 112.226 170.839 111.639 170.978 111.077Z" fill="url(#paint20_radial_1574_1752)" fill-opacity="0.6"/>
<path opacity="0.6" d="M170.978 111.077L173.086 102.603C173.256 101.916 173.584 101.292 174.034 100.798C174.483 100.304 175.037 99.9597 175.635 99.8022L179.97 98.6645C180.262 98.5868 180.561 98.5559 180.858 98.5728L186.031 98.8382C186.196 98.8485 186.36 98.8712 186.522 98.9061L191.085 99.9494C191.535 100.051 191.96 100.263 192.331 100.569C192.703 100.876 193.013 101.272 193.242 101.731L193.689 102.624C191.531 103.078 187.247 102.308 184.999 102.023C182.051 101.654 175.914 100.849 174.944 103.177C173.974 105.504 175.543 107.778 174.854 108.03C170.666 109.561 173.397 117.669 177.166 119.603C178.776 120.432 178.543 124.398 182.926 122.126C182.546 122.576 181.585 124.462 181.053 124.655L180.539 124.85C179.846 125.114 179.105 125.111 178.427 124.841C177.749 124.571 177.172 124.049 176.782 123.354L175.055 120.228L171.459 114.366C171.17 113.902 170.977 113.365 170.894 112.796C170.81 112.226 170.839 111.639 170.978 111.077Z" fill="url(#paint21_radial_1574_1752)"/>
<path d="M170.978 111.077L173.085 102.603C173.256 101.916 173.584 101.292 174.033 100.798C174.483 100.304 175.036 99.9597 175.634 99.8021L179.969 98.6645C180.261 98.5868 180.56 98.5559 180.857 98.5727L186.03 98.8382C186.195 98.8485 186.36 98.8711 186.522 98.9061L191.084 99.9494C191.535 100.051 191.959 100.262 192.331 100.569C192.702 100.876 193.012 101.272 193.241 101.731L193.688 102.624L194.4 104.043C194.706 104.656 194.858 105.36 194.838 106.078L194.655 112.744C194.635 113.518 194.415 114.275 194.025 114.914L193.263 116.164C192.893 116.769 192.386 117.245 191.801 117.536C191.216 117.827 190.577 117.921 189.958 117.807L187.383 117.325C186.924 117.236 186.451 117.263 185.995 117.402C185.54 117.541 185.112 117.79 184.74 118.133C184.368 118.475 184.061 118.904 183.838 119.39C183.615 119.876 183.481 120.408 183.447 120.953L183.43 121.17C183.375 121.95 183.12 122.699 182.698 123.32C182.276 123.941 181.707 124.404 181.065 124.651L180.551 124.846C179.857 125.114 179.113 125.113 178.432 124.844C177.752 124.575 177.172 124.052 176.781 123.354L175.054 120.228L171.458 114.366C171.169 113.902 170.976 113.365 170.893 112.796C170.81 112.226 170.839 111.639 170.978 111.077V111.077Z" stroke="#182338" stroke-width="1.40388" stroke-miterlimit="10"/>
<defs>
<radialGradient id="paint0_radial_1574_1752" cx="0" cy="0" r="1" gradientUnits="userSpaceOnUse" gradientTransform="translate(102.13 81.406) rotate(55.3365) scale(80.3955 104.062)">
<stop stop-color="#A6FFD4"/>
<stop offset="0.48193" stop-color="#83EAE4" stop-opacity="0.31"/>
<stop offset="1" stop-color="#C037C2" stop-opacity="0.96"/>
</radialGradient>
<radialGradient id="paint1_radial_1574_1752" cx="0" cy="0" r="1" gradientUnits="userSpaceOnUse" gradientTransform="translate(100.927 81.4799) rotate(55.3359) scale(76.6287 99.1864)">
<stop stop-color="#A6FFD4"/>
<stop offset="0.48193" stop-color="#83EAE4" stop-opacity="0.31"/>
<stop offset="1" stop-color="#C037C2" stop-opacity="0.96"/>
</radialGradient>
<radialGradient id="paint2_radial_1574_1752" cx="0" cy="0" r="1" gradientUnits="userSpaceOnUse" gradientTransform="translate(53.5356 122.321) rotate(63.8514) scale(233.837 2162.56)">
<stop stop-color="#4BF2A2"/>
<stop offset="0.421875" stop-color="#564D8F"/>
<stop offset="1" stop-color="#DD40CD"/>
</radialGradient>
<linearGradient id="paint3_linear_1574_1752" x1="31.9383" y1="18.929" x2="151.992" y2="232.886" gradientUnits="userSpaceOnUse">
<stop stop-color="#F4F4F4"/>
<stop offset="0.358938" stop-color="#F9F9F9"/>
<stop offset="0.48193" stop-color="#FABAFC" stop-opacity="0.28"/>
<stop offset="0.567848" stop-color="#F7F7F7" stop-opacity="0.96"/>
</linearGradient>
<radialGradient id="paint4_radial_1574_1752" cx="0" cy="0" r="1" gradientUnits="userSpaceOnUse" gradientTransform="translate(78.4211 156.667) rotate(49.6732) scale(49.3664 64.5571)">
<stop stop-color="#F4F4F4"/>
<stop offset="0.48193" stop-color="#361836" stop-opacity="0.22"/>
<stop offset="1" stop-color="#C037C2" stop-opacity="0.96"/>
</radialGradient>
<radialGradient id="paint5_radial_1574_1752" cx="0" cy="0" r="1" gradientUnits="userSpaceOnUse" gradientTransform="translate(85.7277 83.2569) rotate(30.5178) scale(57.005 441.288)">
<stop stop-color="#4BF2A2"/>
<stop offset="0.421875" stop-color="#564D8F"/>
<stop offset="1" stop-color="#DD40CD"/>
</radialGradient>
<radialGradient id="paint6_radial_1574_1752" cx="0" cy="0" r="1" gradientUnits="userSpaceOnUse" gradientTransform="translate(91.7411 81.4149) rotate(31.3399) scale(40.7704 323.359)">
<stop stop-color="#4BF2A2"/>
<stop offset="0.421875" stop-color="#564D8F"/>
<stop offset="1" stop-color="#DD40CD"/>
</radialGradient>
<radialGradient id="paint7_radial_1574_1752" cx="0" cy="0" r="1" gradientUnits="userSpaceOnUse" gradientTransform="translate(85.5855 36.7393) rotate(70.8792) scale(152.865 1206.5)">
<stop stop-color="#4BF2A2"/>
<stop offset="0.421875" stop-color="#564D8F"/>
<stop offset="1" stop-color="#DD40CD"/>
</radialGradient>
<radialGradient id="paint8_radial_1574_1752" cx="0" cy="0" r="1" gradientUnits="userSpaceOnUse" gradientTransform="translate(102.094 82.1944) rotate(18.9565) scale(43.0598 24.5913)">
<stop stop-color="#F4F4F4"/>
<stop offset="0.48193" stop-color="#F4F4F4"/>
<stop offset="1" stop-color="#C037C2" stop-opacity="0.96"/>
</radialGradient>
<radialGradient id="paint9_radial_1574_1752" cx="0" cy="0" r="1" gradientUnits="userSpaceOnUse" gradientTransform="translate(107.42 22.7082) rotate(53.0606) scale(77.104 100.688)">
<stop stop-color="#060006"/>
<stop offset="0.567708" stop-color="#BAAEBA" stop-opacity="0.566733"/>
<stop offset="1" stop-color="#C037C2" stop-opacity="0.96"/>
</radialGradient>
<radialGradient id="paint10_radial_1574_1752" cx="0" cy="0" r="1" gradientUnits="userSpaceOnUse" gradientTransform="translate(95.8613 36.4597) rotate(62.1878) scale(56.4101 61.885)">
<stop stop-color="#2F6756"/>
<stop offset="0.427083" stop-color="#1B0724"/>
<stop offset="0.699054" stop-color="#2F1A51"/>
<stop offset="1" stop-color="#7C2BA3"/>
</radialGradient>
<radialGradient id="paint11_radial_1574_1752" cx="0" cy="0" r="1" gradientUnits="userSpaceOnUse" gradientTransform="translate(131.495 44.6663) rotate(87.5586) scale(50.655 151.356)">
<stop stop-color="#4BF2A2"/>
<stop offset="0.421875" stop-color="#564D8F"/>
<stop offset="1" stop-color="#DD40CD"/>
</radialGradient>
<radialGradient id="paint12_radial_1574_1752" cx="0" cy="0" r="1" gradientUnits="userSpaceOnUse" gradientTransform="translate(93.4065 118.042) rotate(58.2706) scale(30.0807 34.5394)">
<stop stop-color="#DDDDDD"/>
<stop offset="0.1875" stop-color="#CACACA"/>
<stop offset="0.32884" stop-color="#CB9CCC"/>
<stop offset="0.699054" stop-color="#DADADA"/>
<stop offset="1" stop-color="#EFEFEF"/>
</radialGradient>
<radialGradient id="paint13_radial_1574_1752" cx="0" cy="0" r="1" gradientUnits="userSpaceOnUse" gradientTransform="translate(148.978 119.87) rotate(73.1179) scale(95.1563 97.9943)">
<stop stop-color="#F4F4F4"/>
<stop offset="0.0001" stop-color="#DD40CD" stop-opacity="0.27"/>
<stop offset="0.48193" stop-color="#E258E4" stop-opacity="0.22"/>
<stop offset="1" stop-color="#C037C2" stop-opacity="0.96"/>
</radialGradient>
<radialGradient id="paint14_radial_1574_1752" cx="0" cy="0" r="1" gradientUnits="userSpaceOnUse" gradientTransform="translate(32.4243 92.5367) rotate(-61.7353) scale(28.4985 152.604)">
<stop stop-color="#4BF2A2"/>
<stop offset="0.421875" stop-color="#564D8F"/>
<stop offset="1" stop-color="#DD40CD"/>
</radialGradient>
<radialGradient id="paint15_radial_1574_1752" cx="0" cy="0" r="1" gradientUnits="userSpaceOnUse" gradientTransform="translate(15.4678 95.2692) rotate(-53.9434) scale(49.7372 390.678)">
<stop stop-color="#4BF2A2"/>
<stop offset="0.421875" stop-color="#564D8F"/>
<stop offset="1" stop-color="#DD40CD"/>
</radialGradient>
<radialGradient id="paint16_radial_1574_1752" cx="0" cy="0" r="1" gradientUnits="userSpaceOnUse" gradientTransform="translate(20.6205 102.07) rotate(-35.8875) scale(24.6499 33.1821)">
<stop stop-color="#2DCA3C" stop-opacity="0.4"/>
<stop offset="0.453125" stop-color="#E3E3E3" stop-opacity="0.566733"/>
<stop offset="1" stop-color="#F4F4F4"/>
</radialGradient>
<radialGradient id="paint17_radial_1574_1752" cx="0" cy="0" r="1" gradientUnits="userSpaceOnUse" gradientTransform="translate(21.2411 102.22) rotate(-37.3076) scale(24.1457 32.2741)">
<stop stop-color="#F4F4F4"/>
<stop offset="0.48193" stop-color="#BAAEBA" stop-opacity="0.566733"/>
<stop offset="1" stop-color="#C037C2" stop-opacity="0.96"/>
<stop offset="1" stop-color="#98FF7E" stop-opacity="0.96"/>
</radialGradient>
<radialGradient id="paint18_radial_1574_1752" cx="0" cy="0" r="1" gradientUnits="userSpaceOnUse" gradientTransform="translate(174.698 108.803) rotate(-106.95) scale(28.4985 152.604)">
<stop stop-color="#4BF2A2"/>
<stop offset="0.421875" stop-color="#564D8F"/>
<stop offset="1" stop-color="#DD40CD"/>
</radialGradient>
<radialGradient id="paint19_radial_1574_1752" cx="0" cy="0" r="1" gradientUnits="userSpaceOnUse" gradientTransform="translate(190.789 114.809) rotate(-114.742) scale(49.7372 390.678)">
<stop stop-color="#4BF2A2"/>
<stop offset="0.421875" stop-color="#564D8F"/>
<stop offset="1" stop-color="#DD40CD"/>
</radialGradient>
<radialGradient id="paint20_radial_1574_1752" cx="0" cy="0" r="1" gradientUnits="userSpaceOnUse" gradientTransform="translate(184.402 120.467) rotate(-132.798) scale(24.6499 33.1821)">
<stop stop-color="#2DCA3C" stop-opacity="0.4"/>
<stop offset="0.453125" stop-color="#E3E3E3" stop-opacity="0.566733"/>
<stop offset="1" stop-color="#F4F4F4"/>
</radialGradient>
<radialGradient id="paint21_radial_1574_1752" cx="0" cy="0" r="1" gradientUnits="userSpaceOnUse" gradientTransform="translate(183.765 120.492) rotate(-131.378) scale(24.1457 32.2741)">
<stop stop-color="#F4F4F4"/>
<stop offset="0.48193" stop-color="#BAAEBA" stop-opacity="0.566733"/>
<stop offset="1" stop-color="#C037C2" stop-opacity="0.96"/>
<stop offset="1" stop-color="#98FF7E" stop-opacity="0.96"/>
</radialGradient>
</defs>
</svg>
