<svg width="240" height="28" viewBox="0 0 240 28" fill="none" xmlns="http://www.w3.org/2000/svg">
<path d="M16.2698 21.3094H12.0733V12.7285H4.21005V21.3094H0V1.42788H4.21005V9.22001H12.0733V1.42788H16.2698V21.3094Z" fill="url(#paint0_radial_1864_20)"/>
<path d="M27.2567 8.77125C26.3785 8.77125 25.6904 9.05229 25.1924 9.61438C24.6944 10.1674 24.4092 10.9561 24.3368 11.9806H30.1494C30.1313 10.9561 29.8642 10.1674 29.3481 9.61438C28.8321 9.05229 28.1349 8.77125 27.2567 8.77125ZM27.8407 21.5814C25.3961 21.5814 23.4857 20.9059 22.1096 19.5551C20.7334 18.2043 20.0453 16.2914 20.0453 13.8164C20.0453 11.2689 20.679 9.3016 21.9466 7.91452C23.2232 6.51837 24.9842 5.8203 27.2295 5.8203C29.3753 5.8203 31.0457 6.43225 32.2408 7.65614C33.4359 8.88004 34.0335 10.5708 34.0335 12.7285V14.7411H24.2417C24.287 15.9197 24.6356 16.8399 25.2875 17.5017C25.9393 18.1635 26.8538 18.4944 28.0308 18.4944C28.9452 18.4944 29.8099 18.3992 30.6247 18.2088C31.4396 18.0185 32.2906 17.7147 33.1779 17.2977V20.507C32.4536 20.8697 31.6795 21.1371 30.8556 21.3094C30.0317 21.4907 29.0267 21.5814 27.8407 21.5814Z" fill="url(#paint1_radial_1864_20)"/>
<path d="M41.5437 21.3094H37.4015V0.149587H41.5437V21.3094Z" fill="url(#paint2_radial_1864_20)"/>
<path d="M54.2417 21.5814C52.4581 21.5814 51.0593 20.9331 50.0453 19.6367H49.828C49.9728 20.9059 50.0453 21.6403 50.0453 21.8397V28H45.9031V6.10588H49.2712L49.8551 8.07771H50.0453C51.014 6.57277 52.4491 5.8203 54.3504 5.8203C56.1431 5.8203 57.5464 6.51384 58.5604 7.90092C59.5745 9.288 60.0815 11.2145 60.0815 13.6804C60.0815 15.3032 59.8416 16.713 59.3617 17.9097C58.8909 19.1064 58.2164 20.0175 57.3382 20.643C56.4599 21.2686 55.4278 21.5814 54.2417 21.5814ZM53.0195 9.13842C51.9964 9.13842 51.2494 9.45572 50.7786 10.0903C50.3078 10.7159 50.0634 11.7539 50.0453 13.2045V13.6532C50.0453 15.2851 50.2852 16.4546 50.7651 17.1617C51.254 17.8689 52.0235 18.2224 53.0738 18.2224C54.9298 18.2224 55.8579 16.6903 55.8579 13.626C55.8579 12.1302 55.627 11.0105 55.1652 10.2671C54.7125 9.51465 53.9973 9.13842 53.0195 9.13842Z" fill="url(#paint3_radial_1864_20)"/>
<path d="M79.1218 9.22001H75.5364V21.3094H71.3943V9.22001H69.1127V7.22098L71.3943 6.10588V4.99077C71.3943 3.25919 71.8198 1.9945 72.6709 1.1967C73.522 0.398899 74.8846 0 76.7587 0C78.1892 0 79.4613 0.213048 80.5749 0.639145L79.5156 3.68528C78.6827 3.42237 77.9131 3.29092 77.2069 3.29092C76.6184 3.29092 76.1928 3.4677 75.9303 3.82127C75.6677 4.16578 75.5364 4.61 75.5364 5.15396V6.10588H79.1218V9.22001Z" fill="url(#paint4_radial_1864_20)"/>
<path d="M92.268 21.3094L91.7112 19.3647H91.4939C91.0502 20.0719 90.421 20.6204 89.6062 21.0102C88.7913 21.391 87.8633 21.5814 86.8221 21.5814C85.0385 21.5814 83.694 21.1054 82.7886 20.1535C81.8832 19.1925 81.4305 17.8145 81.4305 16.0194V6.10588H85.5727V14.9859C85.5727 16.0829 85.7673 16.9079 86.1566 17.4609C86.5459 18.0049 87.1661 18.2768 88.0172 18.2768C89.1761 18.2768 90.0136 17.8915 90.5296 17.1209C91.0457 16.3413 91.3038 15.0539 91.3038 13.2589V6.10588H95.4459V21.3094H92.268Z" fill="url(#paint5_radial_1864_20)"/>
<path d="M113.807 21.3094H109.665V12.4293C109.665 11.3324 109.47 10.5119 109.081 9.96795C108.692 9.41493 108.072 9.13842 107.22 9.13842C106.062 9.13842 105.224 9.52825 104.708 10.3079C104.192 11.0785 103.934 12.3613 103.934 14.1564V21.3094H99.7918V6.10588H102.956L103.513 8.05051H103.744C104.206 7.31617 104.839 6.76315 105.645 6.39145C106.46 6.01068 107.383 5.8203 108.416 5.8203C110.181 5.8203 111.521 6.30079 112.435 7.26178C113.35 8.2137 113.807 9.59171 113.807 11.3958V21.3094Z" fill="url(#paint6_radial_1864_20)"/>
<path d="M122.879 21.5814C121.096 21.5814 119.692 20.8878 118.669 19.5007C117.655 18.1136 117.148 16.1917 117.148 13.7348C117.148 11.2417 117.664 9.3016 118.696 7.91452C119.737 6.51837 121.168 5.8203 122.988 5.8203C124.898 5.8203 126.356 6.5637 127.361 8.05051H127.497C127.288 6.91727 127.184 5.90643 127.184 5.01797V0.149587H131.34V21.3094H128.162L127.361 19.3375H127.184C126.243 20.8334 124.808 21.5814 122.879 21.5814ZM124.332 18.2768C125.392 18.2768 126.166 17.9686 126.655 17.3521C127.153 16.7356 127.424 15.6885 127.469 14.2108V13.762C127.469 12.1302 127.216 10.9607 126.709 10.2535C126.211 9.54638 125.396 9.19281 124.264 9.19281C123.341 9.19281 122.621 9.58718 122.105 10.3759C121.598 11.1556 121.344 12.2933 121.344 13.7892C121.344 15.2851 121.603 16.4093 122.119 17.1617C122.635 17.9051 123.373 18.2768 124.332 18.2768Z" fill="url(#paint7_radial_1864_20)"/>
<path d="M149.294 18.2768C150.018 18.2768 150.887 18.1182 151.901 17.8009V20.8878C150.869 21.3502 149.602 21.5814 148.099 21.5814C146.442 21.5814 145.233 21.1643 144.473 20.3303C143.721 19.4871 143.345 18.227 143.345 16.5498V9.22001H141.363V7.46576L143.644 6.07868L144.839 2.86935H147.488V6.10588H151.738V9.22001H147.488V16.5498C147.488 17.1391 147.651 17.5742 147.976 17.8553C148.311 18.1363 148.751 18.2768 149.294 18.2768Z" fill="url(#paint8_radial_1864_20)"/>
<path d="M169 21.3094H164.857V12.4293C164.857 10.2354 164.043 9.13842 162.413 9.13842C161.254 9.13842 160.416 9.53278 159.9 10.3215C159.384 11.1102 159.126 12.3885 159.126 14.1564V21.3094H154.984V0.149587H159.126V4.46042C159.126 4.79586 159.095 5.58459 159.031 6.82661L158.936 8.05051H159.153C160.077 6.5637 161.544 5.8203 163.554 5.8203C165.337 5.8203 166.691 6.30079 167.614 7.26178C168.538 8.22276 169 9.60078 169 11.3958V21.3094Z" fill="url(#paint9_radial_1864_20)"/>
<path d="M179.552 8.77125C178.674 8.77125 177.986 9.05229 177.488 9.61438C176.99 10.1674 176.704 10.9561 176.632 11.9806H182.445C182.426 10.9561 182.159 10.1674 181.643 9.61438C181.127 9.05229 180.43 8.77125 179.552 8.77125ZM180.136 21.5814C177.691 21.5814 175.781 20.9059 174.405 19.5551C173.029 18.2043 172.34 16.2914 172.34 13.8164C172.34 11.2689 172.974 9.3016 174.242 7.91452C175.518 6.51837 177.279 5.8203 179.525 5.8203C181.67 5.8203 183.341 6.43225 184.536 7.65614C185.731 8.88004 186.329 10.5708 186.329 12.7285V14.7411H176.537C176.582 15.9197 176.931 16.8399 177.583 17.5017C178.234 18.1635 179.149 18.4944 180.326 18.4944C181.24 18.4944 182.105 18.3992 182.92 18.2088C183.735 18.0185 184.586 17.7147 185.473 17.2977V20.507C184.749 20.8697 183.975 21.1371 183.151 21.3094C182.327 21.4907 181.322 21.5814 180.136 21.5814Z" fill="url(#paint10_radial_1864_20)"/>
<path d="M203.318 18.2768C204.043 18.2768 204.912 18.1182 205.926 17.8009V20.8878C204.894 21.3502 203.626 21.5814 202.123 21.5814C200.466 21.5814 199.258 21.1643 198.497 20.3303C197.746 19.4871 197.37 18.227 197.37 16.5498V9.22001H195.387V7.46576L197.669 6.07868L198.864 2.86935H201.512V6.10588H205.763V9.22001H201.512V16.5498C201.512 17.1391 201.675 17.5742 202.001 17.8553C202.336 18.1363 202.775 18.2768 203.318 18.2768Z" fill="url(#paint11_radial_1864_20)"/>
<path d="M218.651 21.3094L217.85 19.2423H217.741C217.044 20.1217 216.324 20.7337 215.582 21.0782C214.848 21.4136 213.889 21.5814 212.703 21.5814C211.245 21.5814 210.095 21.1643 209.253 20.3303C208.42 19.4962 208.004 18.3086 208.004 16.7674C208.004 15.1536 208.565 13.966 209.688 13.2045C210.819 12.4339 212.521 12.0078 214.794 11.9262L217.429 11.8446V11.1782C217.429 9.63704 216.641 8.86644 215.066 8.86644C213.852 8.86644 212.426 9.23361 210.788 9.96795L209.416 7.16659C211.163 6.25093 213.101 5.7931 215.229 5.7931C217.266 5.7931 218.828 6.23733 219.914 7.12579C221 8.01425 221.544 9.36506 221.544 11.1782V21.3094H218.651ZM217.429 14.2652L215.826 14.3196C214.622 14.3558 213.726 14.5734 213.137 14.9723C212.549 15.3712 212.254 15.9786 212.254 16.7946C212.254 17.9641 212.924 18.5488 214.264 18.5488C215.224 18.5488 215.989 18.2723 216.56 17.7193C217.139 17.1663 217.429 16.4319 217.429 15.5163V14.2652Z" fill="url(#paint12_radial_1864_20)"/>
<path d="M234.16 21.5814C232.377 21.5814 230.978 20.9331 229.964 19.6367H229.746C229.891 20.9059 229.964 21.6403 229.964 21.8397V28H225.822V6.10588H229.19L229.774 8.07771H229.964C230.933 6.57277 232.368 5.8203 234.269 5.8203C236.062 5.8203 237.465 6.51384 238.479 7.90092C239.493 9.288 240 11.2145 240 13.6804C240 15.3032 239.76 16.713 239.28 17.9097C238.809 19.1064 238.135 20.0175 237.257 20.643C236.378 21.2686 235.346 21.5814 234.16 21.5814ZM232.938 9.13842C231.915 9.13842 231.168 9.45572 230.697 10.0903C230.226 10.7159 229.982 11.7539 229.964 13.2045V13.6532C229.964 15.2851 230.204 16.4546 230.684 17.1617C231.172 17.8689 231.942 18.2224 232.992 18.2224C234.848 18.2224 235.776 16.6903 235.776 13.626C235.776 12.1302 235.545 11.0105 235.084 10.2671C234.631 9.51465 233.916 9.13842 232.938 9.13842Z" fill="url(#paint13_radial_1864_20)"/>
<defs>
<radialGradient id="paint0_radial_1864_20" cx="0" cy="0" r="1" gradientUnits="userSpaceOnUse" gradientTransform="translate(40.9167 10.366) rotate(13.3302) scale(211.361 972.981)">
<stop stop-color="#4BF2A2"/>
<stop offset="0.421875" stop-color="#564D8F"/>
<stop offset="1" stop-color="#DD40CD"/>
</radialGradient>
<radialGradient id="paint1_radial_1864_20" cx="0" cy="0" r="1" gradientUnits="userSpaceOnUse" gradientTransform="translate(40.9167 10.366) rotate(13.3302) scale(211.361 972.981)">
<stop stop-color="#4BF2A2"/>
<stop offset="0.421875" stop-color="#564D8F"/>
<stop offset="1" stop-color="#DD40CD"/>
</radialGradient>
<radialGradient id="paint2_radial_1864_20" cx="0" cy="0" r="1" gradientUnits="userSpaceOnUse" gradientTransform="translate(40.9167 10.366) rotate(13.3302) scale(211.361 972.981)">
<stop stop-color="#4BF2A2"/>
<stop offset="0.421875" stop-color="#564D8F"/>
<stop offset="1" stop-color="#DD40CD"/>
</radialGradient>
<radialGradient id="paint3_radial_1864_20" cx="0" cy="0" r="1" gradientUnits="userSpaceOnUse" gradientTransform="translate(40.9167 10.366) rotate(13.3302) scale(211.361 972.981)">
<stop stop-color="#4BF2A2"/>
<stop offset="0.421875" stop-color="#564D8F"/>
<stop offset="1" stop-color="#DD40CD"/>
</radialGradient>
<radialGradient id="paint4_radial_1864_20" cx="0" cy="0" r="1" gradientUnits="userSpaceOnUse" gradientTransform="translate(40.9167 10.366) rotate(13.3302) scale(211.361 972.981)">
<stop stop-color="#4BF2A2"/>
<stop offset="0.421875" stop-color="#564D8F"/>
<stop offset="1" stop-color="#DD40CD"/>
</radialGradient>
<radialGradient id="paint5_radial_1864_20" cx="0" cy="0" r="1" gradientUnits="userSpaceOnUse" gradientTransform="translate(40.9167 10.366) rotate(13.3302) scale(211.361 972.981)">
<stop stop-color="#4BF2A2"/>
<stop offset="0.421875" stop-color="#564D8F"/>
<stop offset="1" stop-color="#DD40CD"/>
</radialGradient>
<radialGradient id="paint6_radial_1864_20" cx="0" cy="0" r="1" gradientUnits="userSpaceOnUse" gradientTransform="translate(40.9167 10.366) rotate(13.3302) scale(211.361 972.981)">
<stop stop-color="#4BF2A2"/>
<stop offset="0.421875" stop-color="#564D8F"/>
<stop offset="1" stop-color="#DD40CD"/>
</radialGradient>
<radialGradient id="paint7_radial_1864_20" cx="0" cy="0" r="1" gradientUnits="userSpaceOnUse" gradientTransform="translate(40.9167 10.366) rotate(13.3302) scale(211.361 972.981)">
<stop stop-color="#4BF2A2"/>
<stop offset="0.421875" stop-color="#564D8F"/>
<stop offset="1" stop-color="#DD40CD"/>
</radialGradient>
<radialGradient id="paint8_radial_1864_20" cx="0" cy="0" r="1" gradientUnits="userSpaceOnUse" gradientTransform="translate(40.9167 10.366) rotate(13.3302) scale(211.361 972.981)">
<stop stop-color="#4BF2A2"/>
<stop offset="0.421875" stop-color="#564D8F"/>
<stop offset="1" stop-color="#DD40CD"/>
</radialGradient>
<radialGradient id="paint9_radial_1864_20" cx="0" cy="0" r="1" gradientUnits="userSpaceOnUse" gradientTransform="translate(40.9167 10.366) rotate(13.3302) scale(211.361 972.981)">
<stop stop-color="#4BF2A2"/>
<stop offset="0.421875" stop-color="#564D8F"/>
<stop offset="1" stop-color="#DD40CD"/>
</radialGradient>
<radialGradient id="paint10_radial_1864_20" cx="0" cy="0" r="1" gradientUnits="userSpaceOnUse" gradientTransform="translate(40.9167 10.366) rotate(13.3302) scale(211.361 972.981)">
<stop stop-color="#4BF2A2"/>
<stop offset="0.421875" stop-color="#564D8F"/>
<stop offset="1" stop-color="#DD40CD"/>
</radialGradient>
<radialGradient id="paint11_radial_1864_20" cx="0" cy="0" r="1" gradientUnits="userSpaceOnUse" gradientTransform="translate(40.9167 10.366) rotate(13.3302) scale(211.361 972.981)">
<stop stop-color="#4BF2A2"/>
<stop offset="0.421875" stop-color="#564D8F"/>
<stop offset="1" stop-color="#DD40CD"/>
</radialGradient>
<radialGradient id="paint12_radial_1864_20" cx="0" cy="0" r="1" gradientUnits="userSpaceOnUse" gradientTransform="translate(40.9167 10.366) rotate(13.3302) scale(211.361 972.981)">
<stop stop-color="#4BF2A2"/>
<stop offset="0.421875" stop-color="#564D8F"/>
<stop offset="1" stop-color="#DD40CD"/>
</radialGradient>
<radialGradient id="paint13_radial_1864_20" cx="0" cy="0" r="1" gradientUnits="userSpaceOnUse" gradientTransform="translate(40.9167 10.366) rotate(13.3302) scale(211.361 972.981)">
<stop stop-color="#4BF2A2"/>
<stop offset="0.421875" stop-color="#564D8F"/>
<stop offset="1" stop-color="#DD40CD"/>
</radialGradient>
</defs>
</svg>
