<svg width="661" height="665" viewBox="0 0 661 665" fill="none" xmlns="http://www.w3.org/2000/svg">
<path d="M147.289 518.888C159.055 530.408 206.878 502.966 247.833 476.864C254.067 472.933 261.075 470.391 268.379 469.414C275.684 468.437 283.113 469.047 290.161 471.203C316.118 479.019 343.72 479.578 369.973 472.819C396.225 466.059 420.125 452.239 439.079 432.859C458.034 413.478 471.318 389.277 477.492 362.88C483.666 336.484 482.494 308.901 474.102 283.124C471.825 276.199 471.055 268.867 471.841 261.62C472.627 254.372 474.951 247.376 478.659 241.1C502.557 200.894 524.796 156.82 513.041 145.311C501.286 133.802 457.659 156.936 417.996 181.718C411.79 185.554 404.836 188.02 397.6 188.951C390.363 189.882 383.012 189.255 376.037 187.114C350.086 179.261 322.478 178.666 296.212 185.395C269.947 192.124 246.026 205.92 227.047 225.284C208.068 244.648 194.756 268.841 188.556 295.237C182.356 321.632 183.505 349.222 191.878 375.011C194.179 382.01 194.945 389.423 194.122 396.744C193.3 404.066 190.91 411.124 187.113 417.438C161.951 458.969 135.494 507.34 147.289 518.888Z" stroke="url(#paint0_radial_2655_543)" stroke-width="1.4" stroke-miterlimit="10"/>
<path d="M154.31 511.714C165.624 522.792 211.61 496.404 250.993 471.304C256.987 467.524 263.726 465.08 270.75 464.141C277.775 463.201 284.919 463.787 291.696 465.86C316.656 473.377 343.199 473.914 368.443 467.414C393.687 460.914 416.669 447.625 434.896 428.988C453.122 410.352 465.897 387.08 471.834 361.697C477.771 336.315 476.643 309.791 468.574 285.004C466.385 278.344 465.643 271.294 466.399 264.325C467.155 257.355 469.391 250.628 472.956 244.593C495.936 205.93 517.322 163.549 506.018 152.482C494.714 141.414 452.762 163.66 414.622 187.49C408.654 191.18 401.968 193.551 395.009 194.446C388.051 195.341 380.981 194.739 374.275 192.68C349.319 185.128 322.772 184.556 297.515 191.027C272.258 197.498 249.255 210.763 231.005 229.384C212.755 248.005 199.954 271.269 193.992 296.651C188.03 322.033 189.135 348.563 197.187 373.362C199.399 380.092 200.135 387.22 199.345 394.261C198.554 401.301 196.255 408.088 192.605 414.16C168.409 454.097 142.968 500.61 154.31 511.714Z" stroke="url(#paint1_radial_2655_543)" stroke-width="1.4" stroke-miterlimit="10"/>
<path d="M157.413 508.543C168.528 519.425 213.702 493.503 252.39 468.847C258.278 465.133 264.898 462.732 271.798 461.809C278.699 460.886 285.717 461.463 292.374 463.499C316.894 470.882 342.968 471.41 367.767 465.025C392.565 458.64 415.142 445.585 433.047 427.278C450.951 408.97 463.501 386.109 469.333 361.174C475.165 336.24 474.057 310.184 466.13 285.834C463.98 279.292 463.251 272.367 463.994 265.521C464.736 258.674 466.933 252.066 470.435 246.137C493.01 208.157 514.018 166.524 502.913 155.652C491.809 144.78 450.597 166.633 413.13 190.043C407.268 193.667 400.7 195.996 393.864 196.876C387.028 197.755 380.084 197.163 373.495 195.14C348.981 187.722 322.902 187.16 298.091 193.517C273.279 199.873 250.683 212.905 232.755 231.197C214.827 249.489 202.252 272.342 196.395 297.276C190.538 322.21 191.624 348.272 199.533 372.633C201.707 379.245 202.43 386.247 201.653 393.163C200.877 400.079 198.618 406.747 195.032 412.711C171.263 451.943 146.271 497.635 157.413 508.543Z" stroke="url(#paint2_radial_2655_543)" stroke-width="1.4" stroke-miterlimit="10"/>
<path d="M140.762 525.554C152.949 537.487 202.457 509.054 244.937 482.069C251.393 478.001 258.65 475.371 266.214 474.36C273.777 473.348 281.47 473.979 288.769 476.208C315.656 484.31 344.248 484.893 371.443 477.893C398.638 470.894 423.395 456.579 443.03 436.503C462.664 416.427 476.424 391.356 482.816 364.012C489.209 336.668 487.99 308.096 479.291 281.396C476.929 274.224 476.125 266.631 476.934 259.123C477.743 251.616 480.147 244.367 483.983 237.864C508.688 196.182 531.717 150.538 519.568 138.644C507.419 126.749 462.239 150.717 421.129 176.337C414.708 180.309 407.513 182.863 400.026 183.83C392.538 184.797 384.93 184.154 377.711 181.943C350.833 173.81 322.24 173.194 295.036 180.164C267.832 187.134 243.058 201.422 223.401 221.478C203.745 241.534 189.958 266.591 183.538 293.93C177.117 321.268 178.308 349.843 186.981 376.552C189.36 383.8 190.149 391.476 189.295 399.057C188.441 406.637 185.964 413.945 182.032 420.482C155.929 463.49 128.551 513.599 140.762 525.554Z" stroke="url(#paint3_radial_2655_543)" stroke-width="1.4" stroke-miterlimit="10"/>
<path d="M134.202 532.255C146.811 544.6 198.031 515.182 241.952 487.254C248.63 483.043 256.136 480.322 263.961 479.275C271.786 478.228 279.744 478.88 287.293 481.188C315.108 489.569 344.686 490.172 372.819 482.931C400.952 475.69 426.564 460.882 446.875 440.113C467.187 419.345 481.422 393.41 488.036 365.124C494.65 336.837 493.39 307.279 484.393 279.658C481.949 272.24 481.117 264.385 481.953 256.62C482.789 248.854 485.274 241.357 489.241 234.629C514.848 191.498 538.671 144.278 526.101 131.971C513.532 119.665 466.798 144.455 424.263 170.968C417.622 175.077 410.18 177.72 402.434 178.719C394.689 179.719 386.819 179.052 379.352 176.762C351.547 168.352 321.969 167.718 293.829 174.929C265.688 182.14 240.06 196.921 219.727 217.667C199.393 238.414 185.13 264.334 178.487 292.613C171.843 320.893 173.071 350.452 182.039 378.083C184.494 385.577 185.304 393.512 184.416 401.347C183.527 409.182 180.96 416.734 176.889 423.488C149.919 468.023 121.576 519.893 134.202 532.255Z" stroke="url(#paint4_radial_2655_543)" stroke-width="1.4" stroke-miterlimit="10"/>
<path d="M127.696 538.899C140.721 551.651 193.654 521.259 239.037 492.398C245.937 488.047 253.693 485.233 261.778 484.149C269.863 483.065 278.087 483.736 285.889 486.116C314.63 494.777 345.194 495.4 374.265 487.918C403.335 480.435 429.801 465.133 450.789 443.673C471.777 422.212 486.487 395.413 493.321 366.183C500.154 336.954 498.852 306.411 489.554 277.869C487.027 270.205 486.166 262.089 487.029 254.066C487.892 246.042 490.459 238.295 494.558 231.343C521.006 186.836 545.636 138.029 532.622 125.288C519.609 112.547 471.339 138.187 427.391 165.582C420.528 169.827 412.839 172.558 404.836 173.592C396.833 174.625 388.702 173.938 380.986 171.576C352.254 162.881 321.689 162.223 292.61 169.673C263.53 177.123 237.046 192.396 216.034 213.835C195.022 235.274 180.283 262.059 173.419 291.282C166.555 320.506 167.827 351.051 177.097 379.603C179.643 387.352 180.488 395.558 179.577 403.663C178.665 411.768 176.017 419.582 171.813 426.571C143.914 472.55 114.649 526.125 127.696 538.899Z" stroke="url(#paint5_radial_2655_543)" stroke-width="1.4" stroke-miterlimit="10"/>
<path d="M121.164 545.571C134.61 558.736 189.255 527.359 236.097 497.571C243.221 493.079 251.229 490.175 259.577 489.058C267.924 487.94 276.414 488.635 284.469 491.095C314.137 500.039 345.689 500.685 375.698 492.963C405.708 485.241 433.029 469.446 454.695 447.293C476.362 425.14 491.546 397.475 498.599 367.301C505.653 337.128 504.306 305.598 494.705 276.136C492.091 268.217 491.199 259.83 492.091 251.537C492.983 243.245 495.638 235.24 499.877 228.057C527.138 182.146 552.579 131.758 539.167 118.626C525.754 105.495 475.909 131.947 430.536 160.224C423.456 164.606 415.523 167.426 407.266 168.497C399.009 169.568 390.619 168.864 382.656 166.434C352.998 157.453 321.448 156.768 291.429 164.453C261.41 172.138 234.069 187.899 212.376 210.026C190.682 232.152 175.464 259.799 168.373 289.964C161.283 320.129 162.591 351.66 172.156 381.134C174.785 389.133 175.66 397.604 174.719 405.972C173.779 414.339 171.045 422.406 166.705 429.621C137.904 477.082 107.685 532.374 121.164 545.571Z" stroke="url(#paint6_radial_2655_543)" stroke-width="1.4" stroke-miterlimit="10"/>
<path opacity="0.8" d="M250.25 413.668C296.865 459.307 371.652 458.515 417.291 411.9C462.93 365.285 462.139 290.498 415.523 244.859C368.908 199.22 294.121 200.011 248.482 246.626C202.843 293.242 203.634 368.029 250.25 413.668Z" stroke="url(#paint7_radial_2655_543)" stroke-width="1.4"/>
<path opacity="0.46" d="M398.51 250.719C436.641 288.052 437.289 349.228 399.956 387.36C362.623 425.492 301.447 426.139 263.315 388.806C225.183 351.473 224.536 290.297 261.869 252.165C299.202 214.034 360.378 213.386 398.51 250.719Z" stroke="url(#paint8_radial_2655_543)" stroke-width="1.4"/>
<defs>
<radialGradient id="paint0_radial_2655_543" cx="0" cy="0" r="1" gradientUnits="userSpaceOnUse" gradientTransform="translate(423.134 182.026) rotate(85.3368) scale(683.681 6943.95)">
<stop stop-color="#2A3837"/>
<stop offset="0.421875" stop-color="#3F2B44"/>
<stop offset="1" stop-color="#322837"/>
</radialGradient>
<radialGradient id="paint1_radial_2655_543" cx="0" cy="0" r="1" gradientUnits="userSpaceOnUse" gradientTransform="translate(419.563 187.787) rotate(85.3368) scale(657.429 6677.32)">
<stop stop-color="#2A3837"/>
<stop offset="0.421875" stop-color="#3F2B44"/>
<stop offset="1" stop-color="#322837"/>
</radialGradient>
<radialGradient id="paint2_radial_2655_543" cx="0" cy="0" r="1" gradientUnits="userSpaceOnUse" gradientTransform="translate(417.984 190.334) rotate(85.3368) scale(645.825 6559.45)">
<stop stop-color="#2A3837"/>
<stop offset="0.421875" stop-color="#3F2B44"/>
<stop offset="1" stop-color="#322837"/>
</radialGradient>
<radialGradient id="paint3_radial_2655_543" cx="0" cy="0" r="1" gradientUnits="userSpaceOnUse" gradientTransform="translate(426.486 176.702) rotate(85.3322) scale(708.147 7192.28)">
<stop stop-color="#2A3837"/>
<stop offset="0.421875" stop-color="#3F2B44"/>
<stop offset="1" stop-color="#322837"/>
</radialGradient>
<radialGradient id="paint4_radial_2655_543" cx="0" cy="0" r="1" gradientUnits="userSpaceOnUse" gradientTransform="translate(429.801 171.344) rotate(85.3374) scale(732.547 7440.29)">
<stop stop-color="#2A3837"/>
<stop offset="0.421875" stop-color="#3F2B44"/>
<stop offset="1" stop-color="#322837"/>
</radialGradient>
<radialGradient id="paint5_radial_2655_543" cx="0" cy="0" r="1" gradientUnits="userSpaceOnUse" gradientTransform="translate(433.115 165.968) rotate(85.3348) scale(756.956 7688.11)">
<stop stop-color="#2A3837"/>
<stop offset="0.421875" stop-color="#3F2B44"/>
<stop offset="1" stop-color="#322837"/>
</radialGradient>
<radialGradient id="paint6_radial_2655_543" cx="0" cy="0" r="1" gradientUnits="userSpaceOnUse" gradientTransform="translate(436.453 160.623) rotate(85.3346) scale(781.383 7936.19)">
<stop stop-color="#2A3837"/>
<stop offset="0.421875" stop-color="#3F2B44"/>
<stop offset="1" stop-color="#322837"/>
</radialGradient>
<radialGradient id="paint7_radial_2655_543" cx="0" cy="0" r="1" gradientUnits="userSpaceOnUse" gradientTransform="translate(365.63 251.731) rotate(70.6082) scale(461.022 3748.85)">
<stop stop-color="#2A3837"/>
<stop offset="0.421875" stop-color="#3F2B44"/>
<stop offset="1" stop-color="#322837"/>
</radialGradient>
<radialGradient id="paint8_radial_2655_543" cx="0" cy="0" r="1" gradientUnits="userSpaceOnUse" gradientTransform="translate(267.989 347.92) rotate(18.1791) scale(377.613 3070.6)">
<stop stop-color="#2A3837"/>
<stop offset="0.421875" stop-color="#3F2B44"/>
<stop offset="1" stop-color="#322837"/>
</radialGradient>
</defs>
</svg>
