<svg width="1361" height="808" viewBox="0 0 1361 808" fill="none" xmlns="http://www.w3.org/2000/svg">
<mask id="mask0_1453_4503" style="mask-type:alpha" maskUnits="userSpaceOnUse" x="0" y="0" width="1440" height="824">
<path d="M0 0H1440V824H0V0Z" fill="#11111C"/>
</mask>
<g mask="url(#mask0_1453_4503)">
<path d="M1369.9 1309.1C1363.98 1004.61 1440.06 635.795 1738.35 306.355C1830.75 204.273 1755.83 41.1898 1618.16 43.8535C1313.64 49.5641 944.795 -26.5082 615.126 -324.732C513.044 -417.134 349.961 -342.206 352.592 -204.528C358.564 99.9133 282.492 468.758 -15.7325 798.427C-108.134 900.509 -33.2061 1063.59 104.472 1060.96C408.946 1054.98 777.758 1131.06 1107.2 1429.35C1209.41 1521.72 1372.49 1446.79 1369.9 1309.1Z" stroke="url(#paint0_radial_1453_4503)" stroke-opacity="0.2" stroke-width="4" stroke-miterlimit="10"/>
<path d="M1352.8 1277.08C1345.93 984.746 1417.48 630.133 1702.58 312.428C1790.8 214.015 1718.27 57.6769 1586.08 60.7589C1293.82 67.6346 939.134 -3.92809 621.396 -289.012C523.016 -377.248 366.678 -304.72 369.76 -172.529C376.57 119.752 305.073 474.42 19.9561 792.167C-68.2803 890.548 4.24822 1046.89 136.472 1043.79C428.818 1036.97 783.421 1108.48 1101.14 1393.61C1199.55 1481.83 1355.89 1409.31 1352.8 1277.08Z" stroke="url(#paint1_radial_1453_4503)" stroke-opacity="0.2" stroke-width="4" stroke-miterlimit="10"/>
<path d="M1335.73 1245.05C1327.87 964.711 1394.9 624.472 1666.86 318.59C1751.12 223.821 1680.79 74.2854 1553.86 77.8854C1273.55 85.7318 933.308 18.7002 627.427 -253.257C532.658 -337.514 383.122 -267.189 386.722 -140.256C394.569 140.053 327.537 480.293 55.5802 786.175C-28.6773 880.944 41.6476 1030.48 168.385 1026.94C448.727 1019.08 788.967 1086.11 1094.85 1358.07C1189.74 1442.15 1339.27 1371.79 1335.73 1245.05Z" stroke="url(#paint2_radial_1453_4503)" stroke-opacity="0.2" stroke-width="4" stroke-miterlimit="10"/>
<path d="M1318.63 1212.93C1309.78 944.719 1372.3 618.744 1631.09 324.696C1711.28 233.6 1643.26 90.8378 1521.97 94.8411C1253.75 103.76 927.908 41.2041 633.762 -217.555C542.665 -297.745 399.903 -229.722 403.906 -108.439C412.923 159.754 350.204 485.646 91.4447 779.792C11.2545 870.889 79.2779 1013.65 200.561 1009.65C468.769 1000.8 794.744 1063.32 1088.79 1322.11C1179.94 1402.46 1322.65 1334.28 1318.63 1212.93Z" stroke="url(#paint3_radial_1453_4503)" stroke-opacity="0.2" stroke-width="4" stroke-miterlimit="10"/>
<path d="M1301.61 1180.96C1291.77 924.956 1349.74 613.148 1595.43 330.947C1671.55 243.49 1605.8 107.544 1489.96 111.942C1233.96 121.788 922.148 63.8128 639.914 -181.871C552.5 -257.962 416.469 -192.263 420.933 -76.4343C430.779 179.565 372.803 491.373 127.119 773.607C51.029 861.021 116.728 997.052 232.556 992.588C488.556 982.742 800.364 1040.72 1082.56 1286.41C1170.04 1362.48 1306.01 1296.8 1301.61 1180.96Z" stroke="url(#paint4_radial_1453_4503)" stroke-opacity="0.2" stroke-width="4" stroke-miterlimit="10"/>
<path d="M1284.54 1148.93C1273.65 904.865 1327.16 607.486 1559.65 337.127C1631.7 253.344 1568.24 124.106 1457.93 129.011C1213.87 139.903 916.486 86.3933 646.127 -146.099C562.343 -218.145 433.106 -154.682 438.011 -44.3733C448.903 199.688 395.441 497.231 162.901 767.426C90.8552 851.21 154.318 980.448 264.626 975.542C508.688 964.651 806.068 1018.16 1076.43 1250.65C1160.21 1322.7 1289.46 1259.27 1284.54 1148.93Z" stroke="url(#paint5_radial_1453_4503)" stroke-opacity="0.2" stroke-width="4" stroke-miterlimit="10"/>
<path d="M1267.53 1116.85C1255.64 884.887 1304.74 601.776 1523.97 343.172C1591.9 263.006 1530.82 140.588 1425.9 145.973C1193.94 157.862 910.832 108.759 652.228 -110.47C572.061 -178.397 449.643 -117.321 455.028 -12.4008C466.917 219.56 417.814 502.67 198.585 761.274C130.658 841.441 191.735 963.859 296.655 958.474C528.615 946.584 811.726 995.688 1070.33 1214.92C1150.37 1282.88 1272.85 1221.79 1267.53 1116.85Z" stroke="url(#paint6_radial_1453_4503)" stroke-opacity="0.2" stroke-width="4" stroke-miterlimit="10"/>
<path d="M1250.39 1084.84C1237.53 864.937 1282 596.162 1488.19 349.461C1552.07 273.065 1493.27 157.323 1393.84 163.159C1173.94 176.023 905.21 131.717 658.46 -74.6324C582.032 -138.511 466.322 -79.7172 472.158 19.7157C485.022 239.617 440.488 508.411 234.367 755.093C170.488 831.522 229.282 947.231 328.715 941.395C548.617 928.531 817.41 973.065 1064.09 1179.19C1140.49 1243.07 1256.23 1184.27 1250.39 1084.84Z" stroke="url(#paint7_radial_1453_4503)" stroke-opacity="0.2" stroke-width="4" stroke-miterlimit="10"/>
<path d="M1233.36 1052.8C1219.46 844.977 1259.42 590.5 1452.45 355.665C1512.26 282.909 1455.76 173.833 1361.76 180.064C1153.94 193.968 899.462 154.004 664.626 -39.0232C591.87 -98.8347 482.795 -42.3366 489.026 51.6612C502.93 259.485 462.965 513.961 269.906 748.806C210.127 821.553 266.625 930.629 360.623 924.397C568.446 910.494 822.923 950.458 1057.77 1143.52C1130.65 1203.26 1239.62 1146.79 1233.36 1052.8Z" stroke="url(#paint8_radial_1453_4503)" stroke-opacity="0.2" stroke-width="4" stroke-miterlimit="10"/>
<path d="M1216.29 1020.77C1201.38 825.017 1236.84 584.838 1416.73 361.827C1472.47 292.743 1418.27 190.549 1329.77 197.264C1133.98 212.185 893.838 176.715 670.826 -3.17579C601.743 -58.92 499.516 -4.70995 506.263 83.7818C521.184 279.569 485.714 519.716 305.824 742.727C250.079 811.811 304.289 914.038 392.781 907.29C588.584 892.542 828.715 927.839 1051.73 1107.73C1120.81 1163.47 1223 1109.27 1216.29 1020.77Z" stroke="url(#paint9_radial_1453_4503)" stroke-opacity="0.2" stroke-width="4" stroke-miterlimit="10"/>
<path d="M1199.21 988.711C1183.3 805.058 1214.13 579.214 1381.01 368.096C1432.78 302.657 1380.78 207.232 1297.74 214.44C1114.09 230.349 888.242 199.523 677.124 32.6426C611.685 -19.1323 516.26 32.8743 523.468 115.912C539.377 299.565 508.551 525.408 341.671 736.527C289.896 801.966 341.87 897.401 424.94 890.183C608.593 874.274 834.436 905.1 1045.56 1071.98C1110.97 1123.66 1206.43 1071.78 1199.21 988.711Z" stroke="url(#paint10_radial_1453_4503)" stroke-opacity="0.2" stroke-width="4" stroke-miterlimit="10"/>
<path d="M1182.14 956.683C1165.23 785.098 1191.65 573.524 1345.27 374.192C1392.84 312.431 1343.27 223.742 1265.68 231.411C1094.1 248.327 882.523 221.908 683.191 68.2807C621.43 20.7133 532.741 70.2876 540.377 147.88C557.326 319.456 530.874 531.039 377.279 730.362C329.712 792.122 379.286 880.812 456.879 873.176C628.455 856.227 840.038 882.679 1039.36 1036.27C1101.12 1083.84 1189.82 1034.3 1182.14 956.683Z" stroke="url(#paint11_radial_1453_4503)" stroke-opacity="0.2" stroke-width="4" stroke-miterlimit="10"/>
<path d="M1165.13 924.496C1147.21 764.979 1169.1 567.745 1309.55 380.214C1353.05 322.126 1305.78 240.21 1233.67 248.298C1074.16 266.221 876.888 244.338 689.39 103.88C631.302 60.3801 549.386 107.653 557.473 179.759C575.397 339.275 553.481 536.551 413.056 724.04C369.496 782.288 416.932 864.156 489.038 856.068C648.555 838.145 845.798 860.07 1033.32 1000.49C1091.29 1044.06 1173.15 996.62 1165.13 924.496Z" stroke="url(#paint12_radial_1453_4503)" stroke-opacity="0.2" stroke-width="4" stroke-miterlimit="10"/>
<path d="M1148.04 892.617C1129.12 745.202 1146.49 562.233 1273.81 386.526C1313.24 332.11 1268.26 256.936 1201.58 265.526C1054.17 284.447 871.2 267.068 695.525 139.747C641.11 100.314 565.935 145.295 574.525 211.969C593.446 359.385 576.035 542.363 448.746 718.028C409.314 772.444 454.294 847.619 520.936 839.038C668.351 820.117 851.33 837.528 1027.03 964.807C1081.44 1004.24 1156.59 959.269 1148.04 892.617Z" stroke="url(#paint13_radial_1453_4503)" stroke-opacity="0.2" stroke-width="4" stroke-miterlimit="10"/>
<path d="M1130.96 860.557C1111.04 725.243 1123.92 556.571 1238.07 392.73C1273.42 341.954 1230.75 273.586 1169.56 282.595C1034.21 302.523 865.538 289.649 701.73 175.487C650.954 140.131 582.586 182.8 591.595 243.998C611.523 379.344 598.616 548.025 484.487 711.825C449.131 762.6 491.8 830.968 552.998 821.96C688.312 802.041 856.993 814.948 1020.82 929.068C1071.6 964.424 1139.97 921.754 1130.96 860.557Z" stroke="url(#paint14_radial_1453_4503)" stroke-opacity="0.2" stroke-width="4" stroke-miterlimit="10"/>
<path d="M1113.89 828.528C1092.96 705.283 1101.33 550.909 1202.32 398.901C1233.61 351.798 1193.26 290.162 1137.53 299.664C1014.28 320.59 859.875 312.229 707.9 211.236C660.797 179.947 599.161 220.292 608.63 276.035C629.589 399.271 621.195 553.687 520.202 705.663C488.946 752.756 529.291 814.392 585.034 804.923C708.27 783.964 862.654 792.367 1014.66 893.351C1061.75 924.607 1123.39 884.262 1113.89 828.528Z" stroke="url(#paint15_radial_1453_4503)" stroke-opacity="0.2" stroke-width="4" stroke-miterlimit="10"/>
<path d="M1096.85 796.491C1074.95 685.304 1078.75 545.247 1166.7 405.034C1193.92 361.604 1155.84 306.751 1105.55 316.54C994.364 338.441 854.274 334.65 714.094 246.695C670.664 219.474 615.811 257.55 625.6 307.844C647.501 419.031 643.677 559.13 555.755 699.301C528.534 742.731 566.61 797.584 616.904 787.795C728.091 765.894 868.157 769.727 1008.36 857.64C1051.89 884.832 1106.91 846.708 1096.85 796.491Z" stroke="url(#paint16_radial_1453_4503)" stroke-opacity="0.2" stroke-width="4" stroke-miterlimit="10"/>
<path d="M1079.78 764.462C1056.81 665.364 1056.17 539.585 1130.86 411.267C1154.02 371.51 1118.26 323.387 1073.43 333.778C974.363 356.742 848.552 357.389 720.266 282.692C680.509 259.538 632.387 295.29 642.778 340.124C665.709 439.2 666.356 565.011 591.692 693.287C568.538 733.044 604.289 781.166 649.091 770.785C748.199 747.845 873.978 747.207 1002.29 821.861C1042.04 845.015 1090.17 809.264 1079.78 764.462Z" stroke="url(#paint17_radial_1453_4503)" stroke-opacity="0.2" stroke-width="4" stroke-miterlimit="10"/>
<path d="M1062.8 732.373C1038.87 645.366 1033.69 533.895 1095.24 417.4C1114.3 381.325 1080.87 340.042 1041.5 350.818C954.491 374.757 843.02 379.932 726.526 318.381C690.451 299.327 649.168 332.757 659.944 372.124C683.883 459.131 689.057 570.602 627.506 687.097C608.452 723.171 641.883 764.455 681.25 753.678C768.257 729.74 879.728 724.565 996.222 786.116C1032.2 805.199 1073.55 771.749 1062.8 732.373Z" stroke="url(#paint18_radial_1453_4503)" stroke-opacity="0.2" stroke-width="4" stroke-miterlimit="10"/>
<path d="M1045.67 700.364C1020.69 625.435 1011.01 528.261 1059.39 423.6C1062.7 416.364 1063.81 408.321 1062.61 400.459C1061.41 392.597 1057.93 385.257 1052.62 379.341C1047.3 373.425 1040.37 369.191 1032.68 367.157C1024.99 365.123 1016.88 365.379 1009.33 367.893C934.402 392.871 837.228 402.55 732.567 354.168C725.333 350.877 717.296 349.767 709.441 350.975C701.586 352.184 694.254 355.657 688.344 360.971C682.434 366.284 678.203 373.206 676.169 380.889C674.135 388.572 674.386 396.681 676.892 404.223C701.871 479.152 711.549 576.325 663.168 680.986C659.867 688.22 658.749 696.259 659.951 704.119C661.153 711.978 664.623 719.315 669.935 725.231C675.247 731.147 682.171 735.383 689.856 737.421C697.541 739.459 705.654 739.21 713.199 736.703C788.128 711.725 885.302 702.046 989.963 750.428C997.199 753.73 1005.24 754.848 1013.1 753.644C1020.97 752.44 1028.31 748.966 1034.22 743.65C1040.14 738.333 1044.37 731.405 1046.41 723.715C1048.44 716.026 1048.18 707.91 1045.67 700.364Z" stroke="url(#paint19_radial_1453_4503)" stroke-opacity="0.2" stroke-width="4" stroke-miterlimit="10"/>
<path d="M1028.6 668.336C1002.62 605.475 988.433 522.6 1023.69 429.795C1026.1 423.38 1026.58 416.402 1025.07 409.719C1023.57 403.035 1020.14 396.937 1015.22 392.174C1010.29 387.41 1004.08 384.189 997.355 382.906C990.625 381.623 983.667 382.334 977.336 384.952C914.476 410.938 831.6 425.121 738.795 389.866C732.38 387.459 725.403 386.979 718.719 388.484C712.035 389.989 705.937 393.414 701.174 398.338C696.41 403.262 693.189 409.47 691.906 416.2C690.623 422.929 691.334 429.887 693.952 436.218C719.938 499.079 734.121 581.955 698.866 674.76C696.459 681.174 695.979 688.152 697.484 694.835C698.989 701.519 702.414 707.617 707.338 712.381C712.262 717.144 718.47 720.365 725.2 721.648C731.93 722.931 738.888 722.22 745.219 719.602C808.079 693.616 890.955 679.433 983.76 714.688C990.174 717.095 997.152 717.575 1003.84 716.07C1010.52 714.565 1016.62 711.14 1021.38 706.217C1026.14 701.293 1029.37 695.084 1030.65 688.355C1031.93 681.625 1031.22 674.667 1028.6 668.336V668.336Z" stroke="url(#paint20_radial_1453_4503)" stroke-opacity="0.2" stroke-width="4" stroke-miterlimit="10"/>
<path d="M1011.52 636.275C984.54 585.516 965.951 516.909 987.939 435.966C989.442 430.372 989.277 424.462 987.465 418.96C985.653 413.459 982.273 408.607 977.74 405.001C973.207 401.396 967.719 399.194 961.951 398.666C956.183 398.138 950.387 399.308 945.275 402.031C894.516 429.014 825.909 447.603 744.966 425.615C739.372 424.112 733.461 424.277 727.96 426.089C722.458 427.901 717.607 431.281 714.001 435.814C710.396 440.347 708.194 445.835 707.666 451.603C707.138 457.371 708.308 463.167 711.03 468.279C738.014 519.039 756.603 587.645 734.615 668.588C733.098 674.2 733.259 680.133 735.08 685.654C736.902 691.175 740.302 696.04 744.861 699.647C749.419 703.254 754.936 705.444 760.727 705.947C766.519 706.45 772.33 705.243 777.443 702.476C828.202 675.492 896.808 656.903 977.752 678.891C983.328 680.344 989.206 680.144 994.671 678.315C1000.14 676.487 1004.95 673.109 1008.53 668.592C1012.11 664.076 1014.3 658.616 1014.83 652.878C1015.36 647.141 1014.21 641.372 1011.52 636.275V636.275Z" stroke="url(#paint21_radial_1453_4503)" stroke-opacity="0.2" stroke-width="4" stroke-miterlimit="10"/>
<path d="M944.03 474.003C931.457 519.481 937.183 568.073 959.983 609.383C961.614 612.456 962.314 615.939 961.995 619.404C961.675 622.874 960.349 626.175 958.178 628.902C956.007 631.628 953.087 633.66 949.777 634.748C946.468 635.836 942.914 635.934 939.552 635.03C894.073 622.456 845.479 628.183 804.169 650.983C801.099 652.624 797.617 653.332 794.15 653.019C790.68 652.705 787.377 651.382 784.649 649.213C781.922 647.043 779.89 644.123 778.803 640.812C777.717 637.502 777.623 633.946 778.534 630.584C791.102 585.093 785.373 536.49 762.571 495.169C760.93 492.099 760.222 488.617 760.535 485.15C760.849 481.679 762.172 478.376 764.342 475.649C766.511 472.922 769.431 470.889 772.742 469.802C776.052 468.716 779.607 468.623 782.97 469.533C828.46 482.102 877.062 476.373 918.383 453.572C921.456 451.94 924.939 451.241 928.405 451.559C931.875 451.879 935.176 453.205 937.902 455.376C940.628 457.547 942.661 460.467 943.749 463.777C944.837 467.086 944.934 470.64 944.03 474.003Z" stroke="url(#paint22_radial_1453_4503)" stroke-opacity="0.2" stroke-width="4"/>
</g>
<defs>
<radialGradient id="paint0_radial_1453_4503" cx="0" cy="0" r="1" gradientUnits="userSpaceOnUse" gradientTransform="translate(166.047 489.182) rotate(47.4728) scale(3823.94 31094.7)">
<stop stop-color="#4BF2A2" stop-opacity="0.74"/>
<stop offset="0.109375" stop-color="#C74EAD" stop-opacity="0.19"/>
<stop offset="0.239583" stop-color="#519497" stop-opacity="0.24"/>
<stop offset="0.421875" stop-color="#564D8F" stop-opacity="0.18"/>
<stop offset="0.765625" stop-color="#BF43BF" stop-opacity="0.04"/>
<stop offset="1" stop-color="#DD40CD"/>
</radialGradient>
<radialGradient id="paint1_radial_1453_4503" cx="0" cy="0" r="1" gradientUnits="userSpaceOnUse" gradientTransform="translate(193.947 491.735) rotate(47.4728) scale(3670.43 29846.5)">
<stop stop-color="#4BF2A2" stop-opacity="0.74"/>
<stop offset="0.109375" stop-color="#C74EAD" stop-opacity="0.19"/>
<stop offset="0.239583" stop-color="#519497" stop-opacity="0.24"/>
<stop offset="0.421875" stop-color="#564D8F" stop-opacity="0.18"/>
<stop offset="0.765625" stop-color="#BF43BF" stop-opacity="0.04"/>
<stop offset="1" stop-color="#DD40CD"/>
</radialGradient>
<radialGradient id="paint2_radial_1453_4503" cx="0" cy="0" r="1" gradientUnits="userSpaceOnUse" gradientTransform="translate(221.674 494.309) rotate(47.4713) scale(3517.37 28603)">
<stop stop-color="#4BF2A2" stop-opacity="0.74"/>
<stop offset="0.109375" stop-color="#C74EAD" stop-opacity="0.19"/>
<stop offset="0.239583" stop-color="#519497" stop-opacity="0.24"/>
<stop offset="0.421875" stop-color="#564D8F" stop-opacity="0.18"/>
<stop offset="0.765625" stop-color="#BF43BF" stop-opacity="0.04"/>
<stop offset="1" stop-color="#DD40CD"/>
</radialGradient>
<radialGradient id="paint3_radial_1453_4503" cx="0" cy="0" r="1" gradientUnits="userSpaceOnUse" gradientTransform="translate(249.699 496.797) rotate(47.4737) scale(3363.98 27353.9)">
<stop stop-color="#4BF2A2" stop-opacity="0.74"/>
<stop offset="0.109375" stop-color="#C74EAD" stop-opacity="0.19"/>
<stop offset="0.239583" stop-color="#519497" stop-opacity="0.24"/>
<stop offset="0.421875" stop-color="#564D8F" stop-opacity="0.18"/>
<stop offset="0.765625" stop-color="#BF43BF" stop-opacity="0.04"/>
<stop offset="1" stop-color="#DD40CD"/>
</radialGradient>
<radialGradient id="paint4_radial_1453_4503" cx="0" cy="0" r="1" gradientUnits="userSpaceOnUse" gradientTransform="translate(277.535 499.288) rotate(47.4723) scale(3210.66 26108.1)">
<stop stop-color="#4BF2A2" stop-opacity="0.74"/>
<stop offset="0.109375" stop-color="#C74EAD" stop-opacity="0.19"/>
<stop offset="0.239583" stop-color="#519497" stop-opacity="0.24"/>
<stop offset="0.421875" stop-color="#564D8F" stop-opacity="0.18"/>
<stop offset="0.765625" stop-color="#BF43BF" stop-opacity="0.04"/>
<stop offset="1" stop-color="#DD40CD"/>
</radialGradient>
<radialGradient id="paint5_radial_1453_4503" cx="0" cy="0" r="1" gradientUnits="userSpaceOnUse" gradientTransform="translate(305.441 501.837) rotate(47.473) scale(3057.26 24860.3)">
<stop stop-color="#4BF2A2" stop-opacity="0.74"/>
<stop offset="0.109375" stop-color="#C74EAD" stop-opacity="0.19"/>
<stop offset="0.239583" stop-color="#519497" stop-opacity="0.24"/>
<stop offset="0.421875" stop-color="#564D8F" stop-opacity="0.18"/>
<stop offset="0.765625" stop-color="#BF43BF" stop-opacity="0.04"/>
<stop offset="1" stop-color="#DD40CD"/>
</radialGradient>
<radialGradient id="paint6_radial_1453_4503" cx="0" cy="0" r="1" gradientUnits="userSpaceOnUse" gradientTransform="translate(333.265 504.304) rotate(47.4728) scale(2904.21 23615.9)">
<stop stop-color="#4BF2A2" stop-opacity="0.74"/>
<stop offset="0.109375" stop-color="#C74EAD" stop-opacity="0.19"/>
<stop offset="0.239583" stop-color="#519497" stop-opacity="0.24"/>
<stop offset="0.421875" stop-color="#564D8F" stop-opacity="0.18"/>
<stop offset="0.765625" stop-color="#BF43BF" stop-opacity="0.04"/>
<stop offset="1" stop-color="#DD40CD"/>
</radialGradient>
<radialGradient id="paint7_radial_1453_4503" cx="0" cy="0" r="1" gradientUnits="userSpaceOnUse" gradientTransform="translate(361.17 506.891) rotate(47.4728) scale(2750.71 22367.7)">
<stop stop-color="#4BF2A2" stop-opacity="0.74"/>
<stop offset="0.109375" stop-color="#C74EAD" stop-opacity="0.19"/>
<stop offset="0.239583" stop-color="#519497" stop-opacity="0.24"/>
<stop offset="0.421875" stop-color="#564D8F" stop-opacity="0.18"/>
<stop offset="0.765625" stop-color="#BF43BF" stop-opacity="0.04"/>
<stop offset="1" stop-color="#DD40CD"/>
</radialGradient>
<radialGradient id="paint8_radial_1453_4503" cx="0" cy="0" r="1" gradientUnits="userSpaceOnUse" gradientTransform="translate(388.894 509.373) rotate(47.4728) scale(2597.75 21123.9)">
<stop stop-color="#4BF2A2" stop-opacity="0.74"/>
<stop offset="0.109375" stop-color="#C74EAD" stop-opacity="0.19"/>
<stop offset="0.239583" stop-color="#519497" stop-opacity="0.24"/>
<stop offset="0.421875" stop-color="#564D8F" stop-opacity="0.18"/>
<stop offset="0.765625" stop-color="#BF43BF" stop-opacity="0.04"/>
<stop offset="1" stop-color="#DD40CD"/>
</radialGradient>
<radialGradient id="paint9_radial_1453_4503" cx="0" cy="0" r="1" gradientUnits="userSpaceOnUse" gradientTransform="translate(416.877 511.946) rotate(47.4728) scale(2444.31 19876.2)">
<stop stop-color="#4BF2A2" stop-opacity="0.74"/>
<stop offset="0.109375" stop-color="#C74EAD" stop-opacity="0.19"/>
<stop offset="0.239583" stop-color="#519497" stop-opacity="0.24"/>
<stop offset="0.421875" stop-color="#564D8F" stop-opacity="0.18"/>
<stop offset="0.765625" stop-color="#BF43BF" stop-opacity="0.04"/>
<stop offset="1" stop-color="#DD40CD"/>
</radialGradient>
<radialGradient id="paint10_radial_1453_4503" cx="0" cy="0" r="1" gradientUnits="userSpaceOnUse" gradientTransform="translate(444.789 514.499) rotate(47.472) scale(2291.02 18630.1)">
<stop stop-color="#4BF2A2" stop-opacity="0.74"/>
<stop offset="0.109375" stop-color="#C74EAD" stop-opacity="0.19"/>
<stop offset="0.239583" stop-color="#519497" stop-opacity="0.24"/>
<stop offset="0.421875" stop-color="#564D8F" stop-opacity="0.18"/>
<stop offset="0.765625" stop-color="#BF43BF" stop-opacity="0.04"/>
<stop offset="1" stop-color="#DD40CD"/>
</radialGradient>
<radialGradient id="paint11_radial_1453_4503" cx="0" cy="0" r="1" gradientUnits="userSpaceOnUse" gradientTransform="translate(472.567 517.004) rotate(47.473) scale(2138.02 17385.4)">
<stop stop-color="#4BF2A2" stop-opacity="0.74"/>
<stop offset="0.109375" stop-color="#C74EAD" stop-opacity="0.19"/>
<stop offset="0.239583" stop-color="#519497" stop-opacity="0.24"/>
<stop offset="0.421875" stop-color="#564D8F" stop-opacity="0.18"/>
<stop offset="0.765625" stop-color="#BF43BF" stop-opacity="0.04"/>
<stop offset="1" stop-color="#DD40CD"/>
</radialGradient>
<radialGradient id="paint12_radial_1453_4503" cx="0" cy="0" r="1" gradientUnits="userSpaceOnUse" gradientTransform="translate(500.423 519.419) rotate(47.4747) scale(1985.07 16141)">
<stop stop-color="#4BF2A2" stop-opacity="0.74"/>
<stop offset="0.109375" stop-color="#C74EAD" stop-opacity="0.19"/>
<stop offset="0.239583" stop-color="#519497" stop-opacity="0.24"/>
<stop offset="0.421875" stop-color="#564D8F" stop-opacity="0.18"/>
<stop offset="0.765625" stop-color="#BF43BF" stop-opacity="0.04"/>
<stop offset="1" stop-color="#DD40CD"/>
</radialGradient>
<radialGradient id="paint13_radial_1453_4503" cx="0" cy="0" r="1" gradientUnits="userSpaceOnUse" gradientTransform="translate(528.203 522.051) rotate(47.4728) scale(1831.99 14897)">
<stop stop-color="#4BF2A2" stop-opacity="0.74"/>
<stop offset="0.109375" stop-color="#C74EAD" stop-opacity="0.19"/>
<stop offset="0.239583" stop-color="#519497" stop-opacity="0.24"/>
<stop offset="0.421875" stop-color="#564D8F" stop-opacity="0.18"/>
<stop offset="0.765625" stop-color="#BF43BF" stop-opacity="0.04"/>
<stop offset="1" stop-color="#DD40CD"/>
</radialGradient>
<radialGradient id="paint14_radial_1453_4503" cx="0" cy="0" r="1" gradientUnits="userSpaceOnUse" gradientTransform="translate(556.011 524.573) rotate(47.4728) scale(1679.04 13653.3)">
<stop stop-color="#4BF2A2" stop-opacity="0.74"/>
<stop offset="0.109375" stop-color="#C74EAD" stop-opacity="0.19"/>
<stop offset="0.239583" stop-color="#519497" stop-opacity="0.24"/>
<stop offset="0.421875" stop-color="#564D8F" stop-opacity="0.18"/>
<stop offset="0.765625" stop-color="#BF43BF" stop-opacity="0.04"/>
<stop offset="1" stop-color="#DD40CD"/>
</radialGradient>
<radialGradient id="paint15_radial_1453_4503" cx="0" cy="0" r="1" gradientUnits="userSpaceOnUse" gradientTransform="translate(583.785 527.099) rotate(47.4728) scale(1526.26 12410.9)">
<stop stop-color="#4BF2A2" stop-opacity="0.74"/>
<stop offset="0.109375" stop-color="#C74EAD" stop-opacity="0.19"/>
<stop offset="0.239583" stop-color="#519497" stop-opacity="0.24"/>
<stop offset="0.421875" stop-color="#564D8F" stop-opacity="0.18"/>
<stop offset="0.765625" stop-color="#BF43BF" stop-opacity="0.04"/>
<stop offset="1" stop-color="#DD40CD"/>
</radialGradient>
<radialGradient id="paint16_radial_1453_4503" cx="0" cy="0" r="1" gradientUnits="userSpaceOnUse" gradientTransform="translate(611.401 529.495) rotate(47.4728) scale(1374.11 11173.7)">
<stop stop-color="#4BF2A2" stop-opacity="0.74"/>
<stop offset="0.109375" stop-color="#C74EAD" stop-opacity="0.19"/>
<stop offset="0.239583" stop-color="#519497" stop-opacity="0.24"/>
<stop offset="0.421875" stop-color="#564D8F" stop-opacity="0.18"/>
<stop offset="0.765625" stop-color="#BF43BF" stop-opacity="0.04"/>
<stop offset="1" stop-color="#DD40CD"/>
</radialGradient>
<radialGradient id="paint17_radial_1453_4503" cx="0" cy="0" r="1" gradientUnits="userSpaceOnUse" gradientTransform="translate(639.252 532.128) rotate(47.4728) scale(1221.19 9930.21)">
<stop stop-color="#4BF2A2" stop-opacity="0.74"/>
<stop offset="0.109375" stop-color="#C74EAD" stop-opacity="0.19"/>
<stop offset="0.239583" stop-color="#519497" stop-opacity="0.24"/>
<stop offset="0.421875" stop-color="#564D8F" stop-opacity="0.18"/>
<stop offset="0.765625" stop-color="#BF43BF" stop-opacity="0.04"/>
<stop offset="1" stop-color="#DD40CD"/>
</radialGradient>
<radialGradient id="paint18_radial_1453_4503" cx="0" cy="0" r="1" gradientUnits="userSpaceOnUse" gradientTransform="translate(667.018 534.61) rotate(47.4728) scale(1069.01 8692.76)">
<stop stop-color="#4BF2A2" stop-opacity="0.74"/>
<stop offset="0.109375" stop-color="#C74EAD" stop-opacity="0.19"/>
<stop offset="0.239583" stop-color="#519497" stop-opacity="0.24"/>
<stop offset="0.421875" stop-color="#564D8F" stop-opacity="0.18"/>
<stop offset="0.765625" stop-color="#BF43BF" stop-opacity="0.04"/>
<stop offset="1" stop-color="#DD40CD"/>
</radialGradient>
<radialGradient id="paint19_radial_1453_4503" cx="0" cy="0" r="1" gradientUnits="userSpaceOnUse" gradientTransform="translate(694.647 537.184) rotate(47.4731) scale(916.562 7453.07)">
<stop stop-color="#4BF2A2" stop-opacity="0.74"/>
<stop offset="0.109375" stop-color="#C74EAD" stop-opacity="0.19"/>
<stop offset="0.239583" stop-color="#519497" stop-opacity="0.24"/>
<stop offset="0.421875" stop-color="#564D8F" stop-opacity="0.18"/>
<stop offset="0.765625" stop-color="#BF43BF" stop-opacity="0.04"/>
<stop offset="1" stop-color="#DD40CD"/>
</radialGradient>
<radialGradient id="paint20_radial_1453_4503" cx="0" cy="0" r="1" gradientUnits="userSpaceOnUse" gradientTransform="translate(722.093 539.646) rotate(47.4728) scale(765.551 6225.16)">
<stop stop-color="#4BF2A2" stop-opacity="0.74"/>
<stop offset="0.109375" stop-color="#C74EAD" stop-opacity="0.19"/>
<stop offset="0.239583" stop-color="#519497" stop-opacity="0.24"/>
<stop offset="0.421875" stop-color="#564D8F" stop-opacity="0.18"/>
<stop offset="0.765625" stop-color="#BF43BF" stop-opacity="0.04"/>
<stop offset="1" stop-color="#DD40CD"/>
</radialGradient>
<radialGradient id="paint21_radial_1453_4503" cx="0" cy="0" r="1" gradientUnits="userSpaceOnUse" gradientTransform="translate(749.388 542.09) rotate(47.4626) scale(615.068 5002.86)">
<stop stop-color="#4BF2A2" stop-opacity="0.74"/>
<stop offset="0.109375" stop-color="#C74EAD" stop-opacity="0.19"/>
<stop offset="0.239583" stop-color="#519497" stop-opacity="0.24"/>
<stop offset="0.421875" stop-color="#564D8F" stop-opacity="0.18"/>
<stop offset="0.765625" stop-color="#BF43BF" stop-opacity="0.04"/>
<stop offset="1" stop-color="#DD40CD"/>
</radialGradient>
<radialGradient id="paint22_radial_1453_4503" cx="0" cy="0" r="1" gradientUnits="userSpaceOnUse" gradientTransform="translate(786.479 545.485) rotate(47.4728) scale(411.368 3345.08)">
<stop stop-color="#4BF2A2" stop-opacity="0.74"/>
<stop offset="0.109375" stop-color="#C74EAD" stop-opacity="0.19"/>
<stop offset="0.239583" stop-color="#519497" stop-opacity="0.24"/>
<stop offset="0.421875" stop-color="#564D8F" stop-opacity="0.18"/>
<stop offset="0.765625" stop-color="#BF43BF" stop-opacity="0.04"/>
<stop offset="1" stop-color="#DD40CD"/>
</radialGradient>
</defs>
</svg>
