<svg width="1440" height="824" viewBox="0 0 1440 824" fill="none" xmlns="http://www.w3.org/2000/svg">
<path d="M1558.9 959.1C1552.98 654.607 1629.06 285.795 1927.35 -43.645C2019.75 -145.727 1944.83 -308.81 1807.16 -306.147C1502.64 -300.436 1133.8 -376.508 804.126 -674.732C702.044 -767.134 538.961 -692.206 541.592 -554.528C547.564 -250.087 471.492 118.758 173.268 448.427C80.8659 550.509 155.794 713.592 293.472 710.961C597.946 704.98 966.758 781.062 1296.2 1079.35C1398.41 1171.72 1561.49 1096.79 1558.9 959.1Z" stroke="url(#paint0_radial_1453_4506)" stroke-opacity="0.2" stroke-width="4" stroke-miterlimit="10"/>
<path d="M1541.8 927.082C1534.93 634.746 1606.48 280.133 1891.58 -37.5716C1979.8 -135.985 1907.27 -292.323 1775.08 -289.241C1482.82 -282.365 1128.13 -353.928 810.396 -639.012C712.016 -727.248 555.678 -654.72 558.76 -522.529C565.57 -230.248 494.073 124.42 208.956 442.167C120.72 540.548 193.248 696.886 325.472 693.795C617.818 686.965 972.421 758.481 1290.14 1043.61C1388.55 1131.83 1544.89 1059.31 1541.8 927.082Z" stroke="url(#paint1_radial_1453_4506)" stroke-opacity="0.2" stroke-width="4" stroke-miterlimit="10"/>
<path d="M1524.73 895.054C1516.87 614.711 1583.9 274.472 1855.86 -31.4097C1940.12 -126.179 1869.79 -275.715 1742.86 -272.115C1462.55 -264.268 1122.31 -331.3 816.427 -603.257C721.658 -687.514 572.122 -617.189 575.722 -490.256C583.569 -209.947 516.537 130.293 244.58 436.175C160.323 530.944 230.648 680.48 357.385 676.937C637.727 669.081 977.967 736.113 1283.85 1008.07C1378.74 1092.15 1528.27 1021.79 1524.73 895.054Z" stroke="url(#paint2_radial_1453_4506)" stroke-opacity="0.2" stroke-width="4" stroke-miterlimit="10"/>
<path d="M1507.63 862.928C1498.78 594.719 1561.3 268.744 1820.09 -25.3036C1900.28 -116.4 1832.26 -259.162 1710.97 -255.159C1442.75 -246.24 1116.91 -308.796 822.762 -567.555C731.665 -647.745 588.903 -579.722 592.906 -458.439C601.923 -190.246 539.204 135.646 280.445 429.792C200.255 520.889 268.278 663.651 389.561 659.647C657.769 650.803 983.744 713.321 1277.79 972.109C1368.94 1052.46 1511.65 984.276 1507.63 862.928Z" stroke="url(#paint3_radial_1453_4506)" stroke-opacity="0.2" stroke-width="4" stroke-miterlimit="10"/>
<path d="M1490.61 830.955C1480.77 574.956 1538.74 263.148 1784.43 -19.0535C1860.55 -106.51 1794.8 -242.456 1678.96 -238.058C1422.96 -228.212 1111.15 -286.187 828.914 -531.871C741.5 -607.962 605.469 -542.263 609.933 -426.434C619.779 -170.435 561.804 141.373 316.119 423.607C240.029 511.021 305.728 647.052 421.556 642.588C677.556 632.742 989.364 690.718 1271.57 936.411C1359.04 1012.48 1495.01 946.803 1490.61 830.955Z" stroke="url(#paint4_radial_1453_4506)" stroke-opacity="0.2" stroke-width="4" stroke-miterlimit="10"/>
<path d="M1473.54 798.927C1462.65 554.865 1516.16 257.486 1748.65 -12.8725C1820.7 -96.6564 1757.24 -225.894 1646.93 -220.989C1402.87 -210.097 1105.49 -263.607 835.127 -496.099C751.343 -568.145 622.106 -504.682 627.011 -394.373C637.902 -150.312 584.441 147.231 351.901 417.426C279.855 501.21 343.317 630.448 453.626 625.542C697.688 614.651 995.068 668.161 1265.43 900.652C1349.21 972.698 1478.46 909.269 1473.54 798.927Z" stroke="url(#paint5_radial_1453_4506)" stroke-opacity="0.2" stroke-width="4" stroke-miterlimit="10"/>
<path d="M1456.53 766.847C1444.64 534.887 1493.74 251.776 1712.97 -6.82762C1780.9 -86.9945 1719.82 -209.412 1614.9 -204.027C1382.94 -192.138 1099.83 -241.241 841.228 -460.47C761.061 -528.397 638.643 -467.321 644.028 -362.401C655.917 -130.44 606.814 152.67 387.585 411.274C319.658 491.441 380.735 613.859 485.655 608.474C717.615 596.584 1000.73 645.688 1259.33 864.917C1339.37 932.882 1461.85 871.786 1456.53 766.847Z" stroke="url(#paint6_radial_1453_4506)" stroke-opacity="0.2" stroke-width="4" stroke-miterlimit="10"/>
<path d="M1439.39 734.838C1426.53 514.937 1471 246.162 1677.19 -0.539254C1741.07 -76.9354 1682.27 -192.677 1582.84 -186.841C1362.94 -173.977 1094.21 -218.283 847.46 -424.632C771.032 -488.511 655.322 -429.717 661.158 -330.284C674.022 -110.383 629.488 158.411 423.367 405.093C359.488 481.522 418.282 597.231 517.715 591.395C737.617 578.531 1006.41 623.065 1253.09 829.186C1329.49 893.075 1445.23 834.271 1439.39 734.838Z" stroke="url(#paint7_radial_1453_4506)" stroke-opacity="0.2" stroke-width="4" stroke-miterlimit="10"/>
<path d="M1422.36 702.8C1408.46 494.977 1448.42 240.5 1641.45 5.6648C1701.26 -67.0912 1644.76 -176.167 1550.76 -169.936C1342.94 -156.032 1088.46 -195.996 853.626 -389.023C780.87 -448.835 671.795 -392.337 678.026 -298.339C691.93 -90.5155 651.965 163.961 458.906 398.806C399.127 471.553 455.625 580.629 549.623 574.397C757.446 560.494 1011.92 600.458 1246.77 793.518C1319.65 853.258 1428.62 796.789 1422.36 702.8Z" stroke="url(#paint8_radial_1453_4506)" stroke-opacity="0.2" stroke-width="4" stroke-miterlimit="10"/>
<path d="M1405.29 670.772C1390.38 475.017 1425.84 234.838 1605.73 11.8265C1661.47 -57.2568 1607.27 -159.451 1518.77 -152.736C1322.98 -137.815 1082.84 -173.285 859.826 -353.176C790.743 -408.92 688.516 -354.71 695.263 -266.218C710.184 -70.4308 674.714 169.716 494.824 392.727C439.079 461.811 493.289 564.038 581.781 557.29C777.584 542.542 1017.72 577.839 1240.73 757.73C1309.81 813.474 1412 759.274 1405.29 670.772Z" stroke="url(#paint9_radial_1453_4506)" stroke-opacity="0.2" stroke-width="4" stroke-miterlimit="10"/>
<path d="M1388.21 638.711C1372.3 455.058 1403.13 229.214 1570.01 18.0957C1621.78 -47.3435 1569.78 -142.768 1486.74 -135.56C1303.09 -119.651 1077.24 -150.477 866.124 -317.357C800.685 -369.132 705.26 -317.126 712.468 -234.088C728.377 -50.4347 697.551 175.408 530.671 386.527C478.896 451.966 530.87 547.401 613.94 540.183C797.593 524.274 1023.44 555.1 1234.56 721.98C1299.97 773.657 1395.43 721.781 1388.21 638.711Z" stroke="url(#paint10_radial_1453_4506)" stroke-opacity="0.2" stroke-width="4" stroke-miterlimit="10"/>
<path d="M1371.14 606.683C1354.23 435.098 1380.65 223.524 1534.27 24.1924C1581.84 -37.5685 1532.27 -126.258 1454.68 -118.589C1283.1 -101.673 1071.52 -128.092 872.191 -281.719C810.43 -329.287 721.741 -279.712 729.377 -202.12C746.326 -30.5442 719.874 181.039 566.279 380.362C518.712 442.122 568.286 530.812 645.879 523.176C817.455 506.227 1029.04 532.679 1228.36 686.273C1290.12 733.841 1378.82 684.299 1371.14 606.683Z" stroke="url(#paint11_radial_1453_4506)" stroke-opacity="0.2" stroke-width="4" stroke-miterlimit="10"/>
<path d="M1354.13 574.496C1336.21 414.979 1358.1 217.745 1498.55 30.2139C1542.05 -27.8743 1494.78 -109.79 1422.67 -101.702C1263.16 -83.7791 1065.89 -105.662 878.39 -246.12C820.302 -289.62 738.386 -242.347 746.473 -170.241C764.397 -10.7249 742.481 186.551 602.056 374.04C558.496 432.288 605.932 514.156 678.038 506.068C837.555 488.145 1034.8 510.07 1222.32 650.485C1280.29 694.056 1362.15 646.62 1354.13 574.496Z" stroke="url(#paint12_radial_1453_4506)" stroke-opacity="0.2" stroke-width="4" stroke-miterlimit="10"/>
<path d="M1337.04 542.617C1318.12 395.202 1335.49 212.233 1462.81 36.5258C1502.24 -17.8896 1457.26 -93.0643 1390.58 -84.474C1243.17 -65.5529 1060.2 -82.9316 884.525 -210.253C830.11 -249.686 754.935 -204.705 763.525 -138.031C782.446 9.38463 765.035 192.363 637.746 368.028C598.314 422.444 643.294 497.619 709.936 489.038C857.351 470.117 1040.33 487.528 1216.03 614.807C1270.44 654.24 1345.59 609.269 1337.04 542.617Z" stroke="url(#paint13_radial_1453_4506)" stroke-opacity="0.2" stroke-width="4" stroke-miterlimit="10"/>
<path d="M1319.96 510.557C1300.04 375.243 1312.92 206.571 1427.07 42.7297C1462.42 -8.04561 1419.75 -76.414 1358.56 -67.4053C1223.21 -47.4769 1054.54 -60.3514 890.73 -174.513C839.954 -209.869 771.586 -167.2 780.595 -106.002C800.523 29.3442 787.616 198.025 673.487 361.825C638.131 412.6 680.8 480.968 741.998 471.96C877.312 452.041 1045.99 464.948 1209.82 579.068C1260.6 614.424 1328.97 571.754 1319.96 510.557Z" stroke="url(#paint14_radial_1453_4506)" stroke-opacity="0.2" stroke-width="4" stroke-miterlimit="10"/>
<path d="M1302.89 478.528C1281.96 355.283 1290.33 200.909 1391.32 48.9009C1422.61 1.79838 1382.26 -59.8385 1326.53 -50.3365C1203.28 -29.4103 1048.88 -37.7711 896.9 -138.764C849.797 -170.053 788.161 -129.708 797.63 -73.9647C818.589 49.2711 810.195 203.687 709.202 355.663C677.946 402.756 718.291 464.392 774.034 454.923C897.27 433.964 1051.65 442.367 1203.66 543.351C1250.75 574.607 1312.39 534.262 1302.89 478.528Z" stroke="url(#paint15_radial_1453_4506)" stroke-opacity="0.2" stroke-width="4" stroke-miterlimit="10"/>
<path d="M1285.85 446.491C1263.95 335.304 1267.75 195.247 1355.7 55.0342C1382.92 11.6044 1344.84 -43.2493 1294.55 -33.4596C1183.36 -11.5588 1043.27 -15.3502 903.094 -103.305C859.664 -130.526 804.811 -92.4499 814.6 -42.1557C836.501 69.0307 832.677 209.13 744.755 349.301C717.534 392.731 755.61 447.584 805.904 437.795C917.091 415.894 1057.16 419.727 1197.36 507.64C1240.89 534.832 1295.91 496.708 1285.85 446.491Z" stroke="url(#paint16_radial_1453_4506)" stroke-opacity="0.2" stroke-width="4" stroke-miterlimit="10"/>
<path d="M1268.78 414.462C1245.81 315.364 1245.17 189.585 1319.86 61.2667C1343.02 21.5097 1307.26 -26.6125 1262.43 -16.222C1163.36 6.74191 1037.55 7.38937 909.266 -67.3075C869.509 -90.4616 821.387 -54.7102 831.778 -9.87582C854.709 89.1998 855.356 215.011 780.692 343.287C757.538 383.044 793.289 431.166 838.091 420.785C937.199 397.845 1062.98 397.207 1191.29 471.861C1231.04 495.015 1279.17 459.264 1268.78 414.462Z" stroke="url(#paint17_radial_1453_4506)" stroke-opacity="0.2" stroke-width="4" stroke-miterlimit="10"/>
<path d="M1251.8 382.373C1227.87 295.366 1222.69 183.895 1284.24 67.3999C1303.3 31.3252 1269.87 -9.95789 1230.5 0.818383C1143.49 24.7569 1032.02 29.9316 915.526 -31.6193C879.451 -50.6734 838.168 -17.2428 848.944 22.1238C872.883 109.131 878.057 220.602 816.506 337.097C797.452 373.171 830.883 414.455 870.25 403.678C957.257 379.74 1068.73 374.565 1185.22 436.116C1221.2 455.199 1262.55 421.749 1251.8 382.373Z" stroke="url(#paint18_radial_1453_4506)" stroke-opacity="0.2" stroke-width="4" stroke-miterlimit="10"/>
<path d="M1234.67 350.364C1209.69 275.435 1200.01 178.261 1248.39 73.5999C1251.7 66.364 1252.81 58.3211 1251.61 50.4589C1250.41 42.5966 1246.93 35.2571 1241.62 29.3412C1236.3 23.4253 1229.37 19.1905 1221.68 17.1568C1213.99 15.123 1205.88 15.3788 1198.33 17.8926C1123.4 42.8711 1026.23 52.5499 921.567 4.16812C914.333 0.876559 906.296 -0.2331 898.441 0.975217C890.586 2.18353 883.254 5.65731 877.344 10.9707C871.434 16.2842 867.203 23.2064 865.169 30.889C863.135 38.5716 863.386 46.6809 865.892 54.2227C890.871 129.152 900.549 226.325 852.168 330.986C848.867 338.22 847.749 346.259 848.951 354.119C850.153 361.978 853.623 369.315 858.935 375.231C864.247 381.147 871.171 385.383 878.856 387.421C886.541 389.459 894.654 389.21 902.199 386.703C977.128 361.725 1074.3 352.046 1178.96 400.428C1186.2 403.73 1194.24 404.848 1202.1 403.644C1209.97 402.44 1217.31 398.966 1223.22 393.65C1229.14 388.333 1233.37 381.405 1235.41 373.715C1237.44 366.026 1237.18 357.91 1234.67 350.364Z" stroke="url(#paint19_radial_1453_4506)" stroke-opacity="0.2" stroke-width="4" stroke-miterlimit="10"/>
<path d="M1217.6 318.336C1191.62 255.475 1177.43 172.6 1212.69 79.7945C1215.1 73.3803 1215.58 66.4024 1214.07 59.7188C1212.57 53.0352 1209.14 46.9371 1204.22 42.1736C1199.29 37.4101 1193.08 34.1889 1186.35 32.906C1179.62 31.6231 1172.67 32.3342 1166.34 34.9521C1103.48 60.9379 1020.6 75.1208 927.795 39.8659C921.38 37.4591 914.403 36.9787 907.719 38.4838C901.035 39.9889 894.937 43.4138 890.174 48.3377C885.41 53.2616 882.189 59.4699 880.906 66.1997C879.623 72.9294 880.334 79.8874 882.952 86.2185C908.938 149.079 923.121 231.955 887.866 324.76C885.459 331.174 884.979 338.152 886.484 344.835C887.989 351.519 891.414 357.617 896.338 362.381C901.262 367.144 907.47 370.365 914.2 371.648C920.93 372.931 927.888 372.22 934.219 369.602C997.079 343.616 1079.95 329.433 1172.76 364.688C1179.17 367.095 1186.15 367.575 1192.84 366.07C1199.52 364.565 1205.62 361.14 1210.38 356.217C1215.14 351.293 1218.37 345.084 1219.65 338.355C1220.93 331.625 1220.22 324.667 1217.6 318.336V318.336Z" stroke="url(#paint20_radial_1453_4506)" stroke-opacity="0.2" stroke-width="4" stroke-miterlimit="10"/>
<path d="M1200.52 286.275C1173.54 235.516 1154.95 166.909 1176.94 85.966C1178.44 80.3724 1178.28 74.4615 1176.47 68.9602C1174.65 63.4589 1171.27 58.607 1166.74 55.0014C1162.21 51.3959 1156.72 49.1938 1150.95 48.666C1145.18 48.1382 1139.39 49.3077 1134.27 52.0307C1083.52 79.0143 1014.91 97.6032 933.966 75.6154C928.372 74.1124 922.461 74.2771 916.96 76.0891C911.458 77.901 906.607 81.2813 903.001 85.8142C899.396 90.3472 897.194 95.8351 896.666 101.603C896.138 107.371 897.308 113.167 900.03 118.279C927.014 169.039 945.603 237.645 923.615 318.588C922.098 324.2 922.259 330.133 924.08 335.654C925.902 341.175 929.302 346.04 933.861 349.647C938.419 353.254 943.936 355.444 949.727 355.947C955.519 356.45 961.33 355.243 966.443 352.476C1017.2 325.492 1085.81 306.903 1166.75 328.891C1172.33 330.344 1178.21 330.144 1183.67 328.315C1189.14 326.487 1193.95 323.109 1197.53 318.592C1201.11 314.076 1203.3 308.616 1203.83 302.878C1204.36 297.141 1203.21 291.372 1200.52 286.275V286.275Z" stroke="url(#paint21_radial_1453_4506)" stroke-opacity="0.2" stroke-width="4" stroke-miterlimit="10"/>
<path d="M1133.03 124.003C1120.46 169.481 1126.18 218.073 1148.98 259.383C1150.61 262.456 1151.31 265.939 1150.99 269.404C1150.68 272.874 1149.35 276.175 1147.18 278.902C1145.01 281.628 1142.09 283.66 1138.78 284.748C1135.47 285.836 1131.91 285.934 1128.55 285.03C1083.07 272.456 1034.48 278.183 993.169 300.983C990.099 302.624 986.617 303.332 983.15 303.019C979.68 302.705 976.377 301.382 973.649 299.213C970.922 297.043 968.89 294.123 967.803 290.812C966.717 287.502 966.623 283.946 967.534 280.584C980.102 235.093 974.373 186.49 951.571 145.169C949.93 142.099 949.222 138.617 949.535 135.15C949.849 131.679 951.172 128.376 953.342 125.649C955.511 122.922 958.431 120.889 961.742 119.802C965.052 118.716 968.607 118.623 971.97 119.533C1017.46 132.102 1066.06 126.373 1107.38 103.572C1110.46 101.94 1113.94 101.241 1117.4 101.559C1120.87 101.879 1124.18 103.205 1126.9 105.376C1129.63 107.547 1131.66 110.467 1132.75 113.777C1133.84 117.086 1133.93 120.64 1133.03 124.003Z" stroke="url(#paint22_radial_1453_4506)" stroke-opacity="0.2" stroke-width="4"/>
<defs>
<radialGradient id="paint0_radial_1453_4506" cx="0" cy="0" r="1" gradientUnits="userSpaceOnUse" gradientTransform="translate(355.047 139.182) rotate(47.4728) scale(3823.94 31094.7)">
<stop stop-color="#4BF2A2" stop-opacity="0.74"/>
<stop offset="0.109375" stop-color="#C74EAD" stop-opacity="0.19"/>
<stop offset="0.239583" stop-color="#519497" stop-opacity="0.24"/>
<stop offset="0.421875" stop-color="#564D8F" stop-opacity="0.18"/>
<stop offset="0.765625" stop-color="#BF43BF" stop-opacity="0.04"/>
<stop offset="1" stop-color="#DD40CD"/>
</radialGradient>
<radialGradient id="paint1_radial_1453_4506" cx="0" cy="0" r="1" gradientUnits="userSpaceOnUse" gradientTransform="translate(382.947 141.735) rotate(47.4728) scale(3670.43 29846.5)">
<stop stop-color="#4BF2A2" stop-opacity="0.74"/>
<stop offset="0.109375" stop-color="#C74EAD" stop-opacity="0.19"/>
<stop offset="0.239583" stop-color="#519497" stop-opacity="0.24"/>
<stop offset="0.421875" stop-color="#564D8F" stop-opacity="0.18"/>
<stop offset="0.765625" stop-color="#BF43BF" stop-opacity="0.04"/>
<stop offset="1" stop-color="#DD40CD"/>
</radialGradient>
<radialGradient id="paint2_radial_1453_4506" cx="0" cy="0" r="1" gradientUnits="userSpaceOnUse" gradientTransform="translate(410.674 144.309) rotate(47.4713) scale(3517.37 28603)">
<stop stop-color="#4BF2A2" stop-opacity="0.74"/>
<stop offset="0.109375" stop-color="#C74EAD" stop-opacity="0.19"/>
<stop offset="0.239583" stop-color="#519497" stop-opacity="0.24"/>
<stop offset="0.421875" stop-color="#564D8F" stop-opacity="0.18"/>
<stop offset="0.765625" stop-color="#BF43BF" stop-opacity="0.04"/>
<stop offset="1" stop-color="#DD40CD"/>
</radialGradient>
<radialGradient id="paint3_radial_1453_4506" cx="0" cy="0" r="1" gradientUnits="userSpaceOnUse" gradientTransform="translate(438.699 146.797) rotate(47.4737) scale(3363.98 27353.9)">
<stop stop-color="#4BF2A2" stop-opacity="0.74"/>
<stop offset="0.109375" stop-color="#C74EAD" stop-opacity="0.19"/>
<stop offset="0.239583" stop-color="#519497" stop-opacity="0.24"/>
<stop offset="0.421875" stop-color="#564D8F" stop-opacity="0.18"/>
<stop offset="0.765625" stop-color="#BF43BF" stop-opacity="0.04"/>
<stop offset="1" stop-color="#DD40CD"/>
</radialGradient>
<radialGradient id="paint4_radial_1453_4506" cx="0" cy="0" r="1" gradientUnits="userSpaceOnUse" gradientTransform="translate(466.536 149.288) rotate(47.4723) scale(3210.66 26108.1)">
<stop stop-color="#4BF2A2" stop-opacity="0.74"/>
<stop offset="0.109375" stop-color="#C74EAD" stop-opacity="0.19"/>
<stop offset="0.239583" stop-color="#519497" stop-opacity="0.24"/>
<stop offset="0.421875" stop-color="#564D8F" stop-opacity="0.18"/>
<stop offset="0.765625" stop-color="#BF43BF" stop-opacity="0.04"/>
<stop offset="1" stop-color="#DD40CD"/>
</radialGradient>
<radialGradient id="paint5_radial_1453_4506" cx="0" cy="0" r="1" gradientUnits="userSpaceOnUse" gradientTransform="translate(494.441 151.837) rotate(47.473) scale(3057.26 24860.3)">
<stop stop-color="#4BF2A2" stop-opacity="0.74"/>
<stop offset="0.109375" stop-color="#C74EAD" stop-opacity="0.19"/>
<stop offset="0.239583" stop-color="#519497" stop-opacity="0.24"/>
<stop offset="0.421875" stop-color="#564D8F" stop-opacity="0.18"/>
<stop offset="0.765625" stop-color="#BF43BF" stop-opacity="0.04"/>
<stop offset="1" stop-color="#DD40CD"/>
</radialGradient>
<radialGradient id="paint6_radial_1453_4506" cx="0" cy="0" r="1" gradientUnits="userSpaceOnUse" gradientTransform="translate(522.265 154.304) rotate(47.4728) scale(2904.21 23615.9)">
<stop stop-color="#4BF2A2" stop-opacity="0.74"/>
<stop offset="0.109375" stop-color="#C74EAD" stop-opacity="0.19"/>
<stop offset="0.239583" stop-color="#519497" stop-opacity="0.24"/>
<stop offset="0.421875" stop-color="#564D8F" stop-opacity="0.18"/>
<stop offset="0.765625" stop-color="#BF43BF" stop-opacity="0.04"/>
<stop offset="1" stop-color="#DD40CD"/>
</radialGradient>
<radialGradient id="paint7_radial_1453_4506" cx="0" cy="0" r="1" gradientUnits="userSpaceOnUse" gradientTransform="translate(550.17 156.891) rotate(47.4728) scale(2750.71 22367.7)">
<stop stop-color="#4BF2A2" stop-opacity="0.74"/>
<stop offset="0.109375" stop-color="#C74EAD" stop-opacity="0.19"/>
<stop offset="0.239583" stop-color="#519497" stop-opacity="0.24"/>
<stop offset="0.421875" stop-color="#564D8F" stop-opacity="0.18"/>
<stop offset="0.765625" stop-color="#BF43BF" stop-opacity="0.04"/>
<stop offset="1" stop-color="#DD40CD"/>
</radialGradient>
<radialGradient id="paint8_radial_1453_4506" cx="0" cy="0" r="1" gradientUnits="userSpaceOnUse" gradientTransform="translate(577.894 159.373) rotate(47.4728) scale(2597.75 21123.9)">
<stop stop-color="#4BF2A2" stop-opacity="0.74"/>
<stop offset="0.109375" stop-color="#C74EAD" stop-opacity="0.19"/>
<stop offset="0.239583" stop-color="#519497" stop-opacity="0.24"/>
<stop offset="0.421875" stop-color="#564D8F" stop-opacity="0.18"/>
<stop offset="0.765625" stop-color="#BF43BF" stop-opacity="0.04"/>
<stop offset="1" stop-color="#DD40CD"/>
</radialGradient>
<radialGradient id="paint9_radial_1453_4506" cx="0" cy="0" r="1" gradientUnits="userSpaceOnUse" gradientTransform="translate(605.877 161.946) rotate(47.4728) scale(2444.31 19876.2)">
<stop stop-color="#4BF2A2" stop-opacity="0.74"/>
<stop offset="0.109375" stop-color="#C74EAD" stop-opacity="0.19"/>
<stop offset="0.239583" stop-color="#519497" stop-opacity="0.24"/>
<stop offset="0.421875" stop-color="#564D8F" stop-opacity="0.18"/>
<stop offset="0.765625" stop-color="#BF43BF" stop-opacity="0.04"/>
<stop offset="1" stop-color="#DD40CD"/>
</radialGradient>
<radialGradient id="paint10_radial_1453_4506" cx="0" cy="0" r="1" gradientUnits="userSpaceOnUse" gradientTransform="translate(633.789 164.499) rotate(47.472) scale(2291.02 18630.1)">
<stop stop-color="#4BF2A2" stop-opacity="0.74"/>
<stop offset="0.109375" stop-color="#C74EAD" stop-opacity="0.19"/>
<stop offset="0.239583" stop-color="#519497" stop-opacity="0.24"/>
<stop offset="0.421875" stop-color="#564D8F" stop-opacity="0.18"/>
<stop offset="0.765625" stop-color="#BF43BF" stop-opacity="0.04"/>
<stop offset="1" stop-color="#DD40CD"/>
</radialGradient>
<radialGradient id="paint11_radial_1453_4506" cx="0" cy="0" r="1" gradientUnits="userSpaceOnUse" gradientTransform="translate(661.567 167.004) rotate(47.473) scale(2138.02 17385.4)">
<stop stop-color="#4BF2A2" stop-opacity="0.74"/>
<stop offset="0.109375" stop-color="#C74EAD" stop-opacity="0.19"/>
<stop offset="0.239583" stop-color="#519497" stop-opacity="0.24"/>
<stop offset="0.421875" stop-color="#564D8F" stop-opacity="0.18"/>
<stop offset="0.765625" stop-color="#BF43BF" stop-opacity="0.04"/>
<stop offset="1" stop-color="#DD40CD"/>
</radialGradient>
<radialGradient id="paint12_radial_1453_4506" cx="0" cy="0" r="1" gradientUnits="userSpaceOnUse" gradientTransform="translate(689.423 169.419) rotate(47.4747) scale(1985.07 16141)">
<stop stop-color="#4BF2A2" stop-opacity="0.74"/>
<stop offset="0.109375" stop-color="#C74EAD" stop-opacity="0.19"/>
<stop offset="0.239583" stop-color="#519497" stop-opacity="0.24"/>
<stop offset="0.421875" stop-color="#564D8F" stop-opacity="0.18"/>
<stop offset="0.765625" stop-color="#BF43BF" stop-opacity="0.04"/>
<stop offset="1" stop-color="#DD40CD"/>
</radialGradient>
<radialGradient id="paint13_radial_1453_4506" cx="0" cy="0" r="1" gradientUnits="userSpaceOnUse" gradientTransform="translate(717.203 172.051) rotate(47.4728) scale(1831.99 14897)">
<stop stop-color="#4BF2A2" stop-opacity="0.74"/>
<stop offset="0.109375" stop-color="#C74EAD" stop-opacity="0.19"/>
<stop offset="0.239583" stop-color="#519497" stop-opacity="0.24"/>
<stop offset="0.421875" stop-color="#564D8F" stop-opacity="0.18"/>
<stop offset="0.765625" stop-color="#BF43BF" stop-opacity="0.04"/>
<stop offset="1" stop-color="#DD40CD"/>
</radialGradient>
<radialGradient id="paint14_radial_1453_4506" cx="0" cy="0" r="1" gradientUnits="userSpaceOnUse" gradientTransform="translate(745.011 174.573) rotate(47.4728) scale(1679.04 13653.3)">
<stop stop-color="#4BF2A2" stop-opacity="0.74"/>
<stop offset="0.109375" stop-color="#C74EAD" stop-opacity="0.19"/>
<stop offset="0.239583" stop-color="#519497" stop-opacity="0.24"/>
<stop offset="0.421875" stop-color="#564D8F" stop-opacity="0.18"/>
<stop offset="0.765625" stop-color="#BF43BF" stop-opacity="0.04"/>
<stop offset="1" stop-color="#DD40CD"/>
</radialGradient>
<radialGradient id="paint15_radial_1453_4506" cx="0" cy="0" r="1" gradientUnits="userSpaceOnUse" gradientTransform="translate(772.785 177.099) rotate(47.4728) scale(1526.26 12410.9)">
<stop stop-color="#4BF2A2" stop-opacity="0.74"/>
<stop offset="0.109375" stop-color="#C74EAD" stop-opacity="0.19"/>
<stop offset="0.239583" stop-color="#519497" stop-opacity="0.24"/>
<stop offset="0.421875" stop-color="#564D8F" stop-opacity="0.18"/>
<stop offset="0.765625" stop-color="#BF43BF" stop-opacity="0.04"/>
<stop offset="1" stop-color="#DD40CD"/>
</radialGradient>
<radialGradient id="paint16_radial_1453_4506" cx="0" cy="0" r="1" gradientUnits="userSpaceOnUse" gradientTransform="translate(800.401 179.495) rotate(47.4728) scale(1374.11 11173.7)">
<stop stop-color="#4BF2A2" stop-opacity="0.74"/>
<stop offset="0.109375" stop-color="#C74EAD" stop-opacity="0.19"/>
<stop offset="0.239583" stop-color="#519497" stop-opacity="0.24"/>
<stop offset="0.421875" stop-color="#564D8F" stop-opacity="0.18"/>
<stop offset="0.765625" stop-color="#BF43BF" stop-opacity="0.04"/>
<stop offset="1" stop-color="#DD40CD"/>
</radialGradient>
<radialGradient id="paint17_radial_1453_4506" cx="0" cy="0" r="1" gradientUnits="userSpaceOnUse" gradientTransform="translate(828.252 182.128) rotate(47.4728) scale(1221.19 9930.21)">
<stop stop-color="#4BF2A2" stop-opacity="0.74"/>
<stop offset="0.109375" stop-color="#C74EAD" stop-opacity="0.19"/>
<stop offset="0.239583" stop-color="#519497" stop-opacity="0.24"/>
<stop offset="0.421875" stop-color="#564D8F" stop-opacity="0.18"/>
<stop offset="0.765625" stop-color="#BF43BF" stop-opacity="0.04"/>
<stop offset="1" stop-color="#DD40CD"/>
</radialGradient>
<radialGradient id="paint18_radial_1453_4506" cx="0" cy="0" r="1" gradientUnits="userSpaceOnUse" gradientTransform="translate(856.018 184.61) rotate(47.4728) scale(1069.01 8692.76)">
<stop stop-color="#4BF2A2" stop-opacity="0.74"/>
<stop offset="0.109375" stop-color="#C74EAD" stop-opacity="0.19"/>
<stop offset="0.239583" stop-color="#519497" stop-opacity="0.24"/>
<stop offset="0.421875" stop-color="#564D8F" stop-opacity="0.18"/>
<stop offset="0.765625" stop-color="#BF43BF" stop-opacity="0.04"/>
<stop offset="1" stop-color="#DD40CD"/>
</radialGradient>
<radialGradient id="paint19_radial_1453_4506" cx="0" cy="0" r="1" gradientUnits="userSpaceOnUse" gradientTransform="translate(883.647 187.184) rotate(47.4731) scale(916.562 7453.07)">
<stop stop-color="#4BF2A2" stop-opacity="0.74"/>
<stop offset="0.109375" stop-color="#C74EAD" stop-opacity="0.19"/>
<stop offset="0.239583" stop-color="#519497" stop-opacity="0.24"/>
<stop offset="0.421875" stop-color="#564D8F" stop-opacity="0.18"/>
<stop offset="0.765625" stop-color="#BF43BF" stop-opacity="0.04"/>
<stop offset="1" stop-color="#DD40CD"/>
</radialGradient>
<radialGradient id="paint20_radial_1453_4506" cx="0" cy="0" r="1" gradientUnits="userSpaceOnUse" gradientTransform="translate(911.093 189.646) rotate(47.4728) scale(765.551 6225.16)">
<stop stop-color="#4BF2A2" stop-opacity="0.74"/>
<stop offset="0.109375" stop-color="#C74EAD" stop-opacity="0.19"/>
<stop offset="0.239583" stop-color="#519497" stop-opacity="0.24"/>
<stop offset="0.421875" stop-color="#564D8F" stop-opacity="0.18"/>
<stop offset="0.765625" stop-color="#BF43BF" stop-opacity="0.04"/>
<stop offset="1" stop-color="#DD40CD"/>
</radialGradient>
<radialGradient id="paint21_radial_1453_4506" cx="0" cy="0" r="1" gradientUnits="userSpaceOnUse" gradientTransform="translate(938.388 192.09) rotate(47.4626) scale(615.068 5002.86)">
<stop stop-color="#4BF2A2" stop-opacity="0.74"/>
<stop offset="0.109375" stop-color="#C74EAD" stop-opacity="0.19"/>
<stop offset="0.239583" stop-color="#519497" stop-opacity="0.24"/>
<stop offset="0.421875" stop-color="#564D8F" stop-opacity="0.18"/>
<stop offset="0.765625" stop-color="#BF43BF" stop-opacity="0.04"/>
<stop offset="1" stop-color="#DD40CD"/>
</radialGradient>
<radialGradient id="paint22_radial_1453_4506" cx="0" cy="0" r="1" gradientUnits="userSpaceOnUse" gradientTransform="translate(975.479 195.485) rotate(47.4728) scale(411.368 3345.08)">
<stop stop-color="#4BF2A2" stop-opacity="0.74"/>
<stop offset="0.109375" stop-color="#C74EAD" stop-opacity="0.19"/>
<stop offset="0.239583" stop-color="#519497" stop-opacity="0.24"/>
<stop offset="0.421875" stop-color="#564D8F" stop-opacity="0.18"/>
<stop offset="0.765625" stop-color="#BF43BF" stop-opacity="0.04"/>
<stop offset="1" stop-color="#DD40CD"/>
</radialGradient>
</defs>
</svg>
