<svg width="127" height="96" viewBox="0 0 127 96" fill="none" xmlns="http://www.w3.org/2000/svg">
<g opacity="0.12">
<path d="M19.8036 -20.2566C16.0471 -19.6906 13.1241 -17.1308 12.1768 -13.5766L0.694135 29.5719C-0.252487 33.1312 0.903389 37.1981 3.71648 40.196L37.8134 76.4969C40.6229 79.4876 44.7047 80.9971 48.4626 80.4411L94.0425 73.596C97.7993 73.0324 100.722 70.4702 101.669 66.916L113.153 23.757C114.1 20.2003 112.942 16.1337 110.131 13.1329L76.0346 -23.163C73.2247 -26.1562 69.1429 -27.6656 65.3854 -27.1071L19.8036 -20.2566Z" fill="url(#paint0_linear_3036_20903)"/>
<path fill-rule="evenodd" clip-rule="evenodd" d="M-3.99634 27.8412L-3.99614 27.8405L-8.00849 32.5083L3.47703 -10.6381L7.48651 -15.3081L7.48658 -15.3083C7.53696 -15.4976 7.59122 -15.6849 7.64928 -15.8702C7.59071 -15.6843 7.53473 -15.4966 7.4814 -15.3072L3.47178 -10.637C3.58048 -11.0486 3.70761 -11.4508 3.85316 -11.8435L3.87108 -11.8643C4.03625 -12.3071 4.22561 -12.7406 4.43831 -13.1628L8.4232 -17.8025L8.42352 -17.8031L4.43645 -13.1724C4.63096 -13.5614 4.84562 -13.94 5.07958 -14.3066L5.08334 -14.311C5.30466 -14.6541 5.54003 -14.9872 5.7895 -15.3104L9.79012 -19.9672C11.8425 -22.6017 14.8956 -24.3953 18.4752 -24.9334L64.0551 -31.7786C69.4697 -32.5926 75.3462 -30.4183 79.394 -26.1072L113.491 10.1962C117.538 14.4997 119.206 20.3679 117.844 25.4923L106.359 68.6412C105.826 70.6433 104.859 72.4262 103.555 73.904C103.594 73.8611 103.632 73.8179 103.67 73.7744L99.6551 78.4453C97.5238 80.8909 94.5788 82.4852 91.3633 82.9342L95.3711 78.2662L95.37 78.2663L91.3627 82.9338L45.7827 89.779L46.6027 88.8239L45.7803 89.7765C43.3743 90.1231 40.9213 89.9298 38.6 89.2108L42.0535 85.1882C42.0533 85.1882 42.0532 85.1882 42.0531 85.1882L38.6 89.2078C37.9347 89.0039 37.2814 88.7627 36.6432 88.4854L39.8074 84.8019L39.8051 84.8013L36.6372 88.4849C36.1233 88.2595 35.6168 88.0126 35.1194 87.7388L35.1217 87.7361C34.6839 87.4951 34.2539 87.2368 33.8318 86.9613L36.7797 83.5297L36.7766 83.528L33.8244 86.9646C33.4429 86.7064 33.0597 86.4356 32.687 86.1481L32.6851 86.1504C32.3256 85.8759 31.976 85.5854 31.6362 85.2791L34.54 81.8948L34.5383 81.8933L31.6358 85.2719C31.3006 84.9744 30.9611 84.6647 30.66 84.3371L30.6581 84.3393L30.4422 84.112L33.3683 80.7057L33.3671 80.7045L30.4416 84.1101L-3.65281 47.8068L-3.6545 47.8088C-3.90116 47.5446 -4.14092 47.2743 -4.37128 46.9976L-1.39131 43.5289L-1.39314 43.5263L-4.3772 46.9998C-4.69328 46.6218 -4.99019 46.2336 -5.27264 45.8382L-5.26806 45.8329C-5.58183 45.3916 -5.87267 44.9497 -6.14495 44.4748L-6.1466 44.4767C-6.47198 43.9178 -6.76723 43.342 -7.03107 42.7517L-3.48006 38.6205L-3.48119 38.6141L-7.0314 42.7443C-7.44387 41.821 -7.7729 40.8628 -8.01459 39.881L-8.01642 39.8831C-8.34777 38.5501 -8.5009 37.1791 -8.47182 35.8058L-7.50111 34.6737L-8.47201 35.8032C-8.45069 34.8575 -8.33553 33.9161 -8.12823 32.9929L-8.12716 32.9917C-8.09015 32.8311 -8.05064 32.6702 -8.0083 32.5115L-3.99634 27.8412ZM44.5136 85.0273L44.5316 85.0063L44.5344 85.0068L44.5163 85.0278C44.5154 85.0276 44.5145 85.0275 44.5136 85.0273ZM44.7215 85.064L44.7964 85.0527C46.4608 85.3311 48.1467 85.3582 49.79 85.1115L49.775 85.129C48.0929 85.3703 46.388 85.347 44.7215 85.064ZM8.4232 -17.8025C8.21444 -17.3834 8.02835 -16.9535 7.86577 -16.5145L7.8653 -16.514C7.80711 -16.3507 7.75103 -16.1858 7.69707 -16.0196C7.90017 -16.6419 8.14638 -17.2408 8.43252 -17.8134L8.4232 -17.8025ZM37.2348 81.8823L37.2368 81.8799L37.2378 81.8805L37.2357 81.8829L37.2348 81.8823ZM0.791228 43.6013L0.791354 43.6011L0.791652 43.6015L0.791526 43.6016L0.791228 43.6013ZM99.7112 76.8832C98.4214 77.551 97.0226 78.0111 95.5658 78.2357C97.0523 77.9928 98.4456 77.5319 99.7112 76.8832ZM94.0423 73.5891L80.4627 75.6285L48.4611 80.429L48.4584 80.4294L48.4601 80.4275C47.5812 80.5528 46.6936 80.5744 45.815 80.494C42.8788 80.2126 39.9689 78.7882 37.8119 76.4849L3.71464 40.1814L3.71635 40.194C3.04372 39.4775 2.4657 38.6993 1.98853 37.8812L1.98845 37.8806L1.98829 37.8808C0.535776 35.3903 0.0177965 32.5297 0.609968 29.9118L0.611424 29.9101C0.637462 29.7988 0.6635 29.6875 0.69458 29.5755L0.691608 29.579L0.69201 29.5774L0.694603 29.5744L10.9059 -8.79666L12.1764 -13.5701L12.178 -13.572C12.2537 -13.8518 12.3403 -14.1232 12.4374 -14.391L12.4523 -14.4083L12.4701 -14.4571C13.4858 -15.0332 14.6087 -15.4189 15.7838 -15.5844L19.7934 -20.2519L19.8026 -20.2533L15.7944 -15.5874L61.3743 -22.4325L65.3825 -27.0984L65.3866 -27.099C69.1435 -27.6626 73.2278 -26.1535 76.0358 -23.1549L110.132 13.1385C110.706 13.7502 111.211 14.4068 111.644 15.0949C111.518 14.8957 111.386 14.7001 111.248 14.5072L111.248 14.5047L107.238 19.1723C107.457 19.4813 107.659 19.7977 107.847 20.1162L111.859 15.4508C112.087 15.842 112.293 16.2423 112.474 16.6494L112.473 16.6504C112.291 16.2411 112.086 15.8421 111.86 15.4551L111.859 15.4526L107.847 20.1231C108.074 20.5114 108.28 20.9119 108.463 21.3227L108.464 21.3211C108.752 21.9645 108.981 22.6323 109.15 23.3165L109.149 23.3168C109.378 24.2427 109.484 25.1946 109.464 26.1481L113.474 21.478C113.487 20.8753 113.45 20.2733 113.362 19.6781C113.451 20.2782 113.49 20.8803 113.476 21.4778L113.474 21.478L109.465 26.1482C109.446 26.8034 109.363 27.4552 109.215 28.0938L113.227 23.4233C113.35 22.8968 113.428 22.3611 113.462 21.8218C113.424 22.4789 113.322 23.1288 113.154 23.7626L101.669 66.9115C101.29 68.3332 100.596 69.596 99.6591 70.6357L99.8001 70.4714C99.8921 70.3666 99.9805 70.2596 100.065 70.1506L99.679 70.5998L99.6787 70.6001L99.6546 70.6267L100.065 70.1497C100.24 69.9254 100.404 69.6925 100.556 69.4518L98.9443 71.3279L98.9435 71.3287L100.556 69.4512C100.718 69.1975 100.866 68.936 101.002 68.6675L101.005 68.664C101.149 68.3708 101.277 68.0695 101.388 67.7616L97.3945 72.4127L97.3807 72.4495C97.0305 72.6495 96.6674 72.8269 96.2938 72.9803C95.6365 73.2465 94.938 73.4441 94.2068 73.5655C94.1528 73.574 94.0987 73.5821 94.0446 73.5897L94.042 73.5901L94.0407 73.5916L94.04 73.5917L94.0423 73.5891ZM101.388 67.7616L101.404 67.7425L101.403 67.7427L101.404 67.7412C101.507 67.4681 101.595 67.1897 101.669 66.9073L97.6591 71.5774C97.5821 71.8625 97.4936 72.1388 97.3943 72.4114L101.389 67.7591L101.388 67.7616ZM-0.384123 42.3018L-0.385823 42.2997L-0.389832 42.3044L-0.388159 42.3065L-0.384123 42.3018ZM-2.73975 38.6778L-2.7396 38.6776L-2.73996 38.6769L-2.74012 38.677L-2.73975 38.6778ZM-4.00839 35.198C-3.96571 35.3702 -3.92038 35.5417 -3.87244 35.7124C-4.37268 33.9173 -4.56168 32.0765 -4.41445 30.28C-4.4381 30.5644 -4.45314 30.8496 -4.45953 31.1352L-4.4617 31.1378C-4.48899 32.5054 -4.33678 33.8706 -4.00894 35.1986L-4.00839 35.198ZM-4.11582 28.3244L-4.11561 28.326C-4.10341 28.2722 -4.09089 28.2184 -4.07804 28.1648C-4.06741 28.1204 -4.05655 28.076 -4.04547 28.0317C-4.06986 28.129 -4.09326 28.2267 -4.11572 28.3243L-4.11582 28.3244ZM13.9357 -17.0063L13.9453 -17.0179L13.9572 -17.0321L13.9812 -17.0606L13.9716 -17.0495C14.6617 -17.8743 15.4983 -18.5705 16.4486 -19.109C15.5509 -18.5945 14.7381 -17.9304 14.0485 -17.1376L13.9357 -17.0063ZM14.048 -17.1384L13.9812 -17.0606C14.0033 -17.0867 14.0256 -17.1126 14.048 -17.1384ZM113.239 18.9928C113.115 18.4105 112.945 17.8326 112.728 17.2652C112.9 17.7166 113.044 18.1781 113.159 18.6473L113.159 18.6476C113.188 18.7622 113.214 18.8773 113.239 18.9928ZM10.0619 -20.3083L10.1785 -20.4439L10.1759 -20.4436C10.1378 -20.3989 10.0998 -20.3538 10.0619 -20.3083ZM10.0619 -20.3083L6.16631 -15.7734C6.03515 -15.6222 5.90971 -15.4666 5.7868 -15.3114L9.79675 -19.979C9.88302 -20.09 9.97197 -20.2002 10.0619 -20.3083ZM113.237 23.4216L109.225 28.0921C109.199 28.2034 109.172 28.3147 109.141 28.4267L113.154 23.7562C113.182 23.6471 113.211 23.5354 113.237 23.4216ZM113.153 23.7576L109.143 28.4277L97.658 71.5766L101.668 66.9064L113.153 23.7576ZM-4.56607 45.0171L-2.1925 42.2558L-2.19147 42.2577L-4.56607 45.0171Z" fill="url(#paint1_radial_3036_20903)"/>
<path d="M43.1944 -4.30602C42.2165 -5.01197 41.1574 -5.06953 40.0499 -4.33309C39.0314 -3.63526 38.5838 -2.57417 38.5923 -1.2318C38.5972 -1.06194 38.6092 -0.89308 38.6213 -0.72422C38.6273 -0.63976 38.6333 -0.5553 38.6385 -0.470718C38.6994 0.433868 38.766 1.33979 38.8326 2.24668C38.8891 3.01526 38.9456 3.78453 38.9988 4.55428C39.0918 5.79205 39.1609 7.03891 39.1946 8.28346C39.2072 8.57397 39.2125 8.86358 39.2179 9.1547C39.2185 9.18962 39.2192 9.22457 39.2198 9.25954C39.2896 13.8555 39.1908 18.4502 39.0806 23.0506C39.0587 24.0292 39.0247 25.0081 38.9907 25.987C38.8841 29.0601 38.7775 32.1341 39.0429 35.2058C39.3794 39.1603 40.1399 42.9774 41.5249 46.5856C42.8092 49.9401 44.649 52.8558 47.1643 55.1907C48.4551 56.4035 49.8857 57.4588 51.4261 58.3343C52.822 59.1243 54.3186 59.7222 55.8753 60.1119C56.4365 60.2499 56.9932 60.3617 57.5522 60.4554C62.5934 61.2845 67.4749 60.1535 72.6373 56.6098C72.7798 56.5246 72.9292 56.4303 73.0843 56.3246C74.2865 55.5097 75.7303 54.0602 77.0265 52.4399C80.4342 48.1853 82.364 43.2266 82.7362 37.5582C83.0225 33.1229 82.3312 28.9133 80.5676 25.0022C79.9482 23.6407 79.2106 22.3361 78.3632 21.1034C77.8387 20.3193 77.2709 19.5738 76.6722 18.8521C76.6075 18.7736 75.7963 17.8368 75.1544 17.1197C75.0181 16.9661 74.8177 16.9466 74.585 17.1194C74.5079 17.2162 74.4673 17.337 74.4703 17.4606L74.762 24.7812C74.7677 24.9143 74.8016 25.0445 74.8614 25.1635C77.0293 29.6231 77.6487 33.86 77.6672 35.8394C77.7623 39.7553 76.6641 43.6095 74.5181 46.8914C73.1987 48.9693 71.4846 50.7693 69.4727 52.1893C67.4302 53.5904 65.0833 54.485 62.6268 54.7991C62.1552 54.8655 61.6904 54.9077 61.2326 54.9256C58.89 55.0377 56.5593 54.5407 54.4684 53.4833C52.7852 52.6147 51.2565 51.4762 49.9428 50.1131C47.6916 47.8342 46.3426 44.9267 45.4226 41.6919C44.0109 36.7163 43.817 31.5799 44.0629 26.3608C44.3875 19.5343 44.5743 12.7111 44.2394 5.90346C44.2255 5.5264 44.2032 5.14089 44.1791 4.72373C44.1752 4.65633 44.1712 4.5881 44.1672 4.51895C44.1601 4.4148 44.1603 4.31026 44.1679 4.20612C44.182 4.01729 44.2324 3.88991 44.3111 3.83649C44.3898 3.78308 44.5002 3.79338 44.6447 3.87197C44.8561 3.99619 45.06 4.13269 45.2554 4.28077C45.4283 4.39919 46.7609 5.38294 48.4381 6.62401C48.4999 6.67038 48.5748 6.69603 48.6521 6.69731C48.7294 6.69858 48.8052 6.67542 48.8686 6.63111C48.9199 6.59412 48.9633 6.54736 48.9964 6.49354C49.0478 6.40742 49.0726 6.3081 49.0677 6.20805L48.8139 0.32309C48.8106 0.185975 48.7758 0.0515038 48.7123 -0.0700104C48.6488 -0.191526 48.5582 -0.296848 48.4476 -0.377904C47.614 -0.965444 46.7828 -1.5655 45.9596 -2.18374C45.6283 -2.43617 45.2984 -2.69601 44.9679 -2.95641C44.383 -3.41718 43.796 -3.87971 43.1944 -4.30602Z" fill="url(#paint2_radial_3036_20903)"/>
<path d="M50.8742 1.34023C50.8013 1.34099 50.7304 1.36406 50.671 1.40633C50.6221 1.44794 50.5828 1.4995 50.5556 1.55755C50.5108 1.63634 50.4904 1.7266 50.4969 1.8169L50.7274 7.42085C50.7343 7.57791 50.7811 7.73057 50.8632 7.86453C50.9454 7.99849 51.0603 8.10938 51.1972 8.18677C51.5418 8.42133 51.842 8.62971 52.0717 8.79936C52.3014 8.96901 52.4742 9.09881 52.564 9.17622C63.4713 17.5571 57.8604 45.2222 57.8317 45.3132C57.7491 45.5908 57.7766 45.8894 57.9085 46.1471C57.965 46.2558 58.0427 46.3522 58.137 46.4306C58.2312 46.509 58.3402 46.5678 58.4576 46.6036L63.4078 47.9298C63.5327 47.963 63.6634 47.9682 63.7906 47.9451C63.9178 47.922 64.0384 47.8711 64.1438 47.7961C64.3439 47.6547 64.4917 47.4512 64.5642 47.2173C66.0845 41.8045 66.8113 36.2012 66.722 30.5825C66.6471 25.7021 65.9577 21.6848 65.207 19.1555C65.121 18.7905 65.0222 18.4383 64.9312 18.1141C64.69 17.2546 64.5043 16.5927 64.7619 16.417C64.9957 16.2522 65.5954 16.496 66.8759 17.3523C67.0087 17.4502 67.1419 17.5441 67.2775 17.6398C67.5645 17.8422 67.8626 18.0525 68.1915 18.3247C68.3201 18.431 68.4498 18.5374 68.5799 18.644C68.9402 18.9394 69.3036 19.2373 69.6535 19.5451C69.6728 19.5621 69.6919 19.5788 69.7109 19.5955C69.7571 19.6358 69.8025 19.6756 69.8468 19.7159C70.0036 19.8536 70.1548 19.9914 70.3037 20.1303C70.3064 20.133 70.3216 20.1471 70.3464 20.1702C70.4257 20.2438 70.6033 20.4088 70.7867 20.5856C71.0277 20.8178 71.6083 21.4234 72.3741 22.2692C72.5014 22.416 72.7006 22.4332 72.9356 22.2536C73.0142 22.1575 73.0549 22.0362 73.0503 21.9124C73.0217 21.2025 72.9956 20.4447 72.9675 19.6301C72.9223 18.3193 72.872 16.8615 72.7983 15.2197C72.7967 15.1008 72.7713 14.9833 72.7234 14.8744C72.6755 14.7656 72.6061 14.6674 72.5195 14.5859C71.1588 13.4336 69.7116 12.3871 68.1905 11.4558C66.197 10.1878 64.1352 9.05945 62.074 7.93141C61.1883 7.44668 60.3027 6.96201 59.4227 6.46635C57.0578 5.13041 54.7249 3.74445 52.4321 2.27888C51.9818 1.99199 51.5304 1.69714 51.079 1.40228C51.0189 1.36127 50.9472 1.33946 50.8742 1.34023Z" fill="url(#paint3_radial_3036_20903)"/>
</g>
<defs>
<linearGradient id="paint0_linear_3036_20903" x1="119.973" y1="18.114" x2="-13.4018" y2="39.7109" gradientUnits="userSpaceOnUse">
<stop stop-color="#4BF2A2"/>
<stop offset="0.522948" stop-color="#A89FE7"/>
<stop offset="0.669499" stop-color="#E1C4F4"/>
<stop offset="1" stop-color="#DD40CD"/>
</linearGradient>
<radialGradient id="paint1_radial_3036_20903" cx="0" cy="0" r="1" gradientUnits="userSpaceOnUse" gradientTransform="translate(94.5983 8.1617) rotate(110.351) scale(232.76 1983.25)">
<stop stop-color="#4BF2A2"/>
<stop offset="0.421875" stop-color="#564D8F"/>
<stop offset="1" stop-color="#DD40CD"/>
</radialGradient>
<radialGradient id="paint2_radial_3036_20903" cx="0" cy="0" r="1" gradientUnits="userSpaceOnUse" gradientTransform="translate(39.0591 24.8284) rotate(45.9125) scale(126.702 749.411)">
<stop stop-color="#4BF2A2"/>
<stop offset="0.421875" stop-color="#564D8F"/>
<stop offset="1" stop-color="#DD40CD"/>
</radialGradient>
<radialGradient id="paint3_radial_3036_20903" cx="0" cy="0" r="1" gradientUnits="userSpaceOnUse" gradientTransform="translate(39.0591 24.8284) rotate(45.9125) scale(126.702 749.411)">
<stop stop-color="#4BF2A2"/>
<stop offset="0.421875" stop-color="#564D8F"/>
<stop offset="1" stop-color="#DD40CD"/>
</radialGradient>
</defs>
</svg>
