<svg width="75" height="112" viewBox="0 0 75 112" fill="none" xmlns="http://www.w3.org/2000/svg">
<path d="M73.9001 64.9394C74.2318 66.4603 74.498 67.9882 74.6847 69.5287C74.9886 71.9411 75.0731 74.3762 74.937 76.804C74.5272 83.69 72.2974 89.9864 68.4369 95.6806C63.502 102.956 56.7984 107.843 48.4504 110.419C44.8645 111.524 41.1754 112.15 38.7101 111.969C28.3133 111.975 20.1896 108.989 13.3453 103.219C12.59 102.582 11.8499 101.912 11.1252 101.208C9.12755 99.2641 7.37216 97.0836 5.8976 94.7143C4.3058 92.1472 3.00174 89.4108 2.00927 86.5553C0.0846232 81.0978 -0.389223 75.4792 0.297854 69.785C1.0365 63.6566 2.86498 57.8266 5.42236 52.1982C7.44299 47.7504 10.0246 43.6495 12.6081 39.5455C13.3728 38.3307 14.1376 37.1157 14.8881 35.8914C18.6134 29.8163 22.3164 23.7173 25.7699 17.484C26.0142 17.0414 26.2544 16.597 26.4904 16.1507C27.3977 14.4422 28.2478 12.7028 29.084 10.9537C29.5361 10.0045 29.9828 9.05213 30.4295 8.0997C31.0927 6.68572 31.756 5.27158 32.4372 3.86744C32.4852 3.76813 32.5324 3.66839 32.5796 3.5687C32.702 3.30989 32.8244 3.05142 32.9612 2.8017C33.9702 0.981122 35.4851 -0.0328009 37.5937 0.000809809C39.7023 0.0344205 41.2284 1.08476 42.1496 2.94174C42.6741 3.99412 43.1496 5.07529 43.6251 6.15628C43.9481 6.89072 44.2712 7.62507 44.6094 8.35026C45.3546 9.93743 46.1206 11.5125 46.9076 13.0754C47.0081 13.2728 47.0606 13.4915 47.0606 13.7133C47.0606 13.9351 47.0081 14.1537 46.9076 14.3512L42.7266 22.4948C42.6677 22.6123 42.5771 22.7108 42.4651 22.7789C42.3531 22.8471 42.2243 22.8821 42.0933 22.8801C41.9624 22.878 41.8347 22.8389 41.7249 22.7673C41.615 22.6957 41.5275 22.5944 41.4723 22.4751C39.9393 19.2555 38.724 16.7053 38.5637 16.3846C38.3857 16.0048 38.188 15.6345 37.9714 15.2755C37.6634 14.7923 37.3359 14.8049 37.0042 15.2825C36.9139 15.4165 36.8333 15.5569 36.7631 15.7026L36.7283 15.774C36.4217 16.3996 36.1113 17.0232 35.7973 17.645C31.024 27.1036 25.4702 36.1029 19.7046 44.9831C15.2979 51.7641 11.6088 58.8517 9.85422 66.8454C8.7142 72.0411 8.46612 77.1933 10.0424 82.3344C11.0305 85.5582 12.3921 88.4725 14.1551 91.0437C16.4659 94.4205 19.5174 97.2191 23.0745 99.2237C23.7704 99.6205 24.4928 99.994 25.2417 100.344C33.0741 104.006 41.0737 104.051 49.0176 100.69C54.7581 98.2574 59.176 94.2227 62.2421 88.7428C63.7486 86.0483 66.1067 79.7799 66.3381 71.7974C66.3431 71.5872 66.3956 71.3808 66.4914 71.1938L71.6953 61.0574C71.7603 60.9307 71.8623 60.8269 71.9876 60.76C72.1129 60.6931 72.2556 60.6662 72.3965 60.6829C72.5374 60.6997 72.6699 60.7593 72.7762 60.8537C72.8825 60.9482 72.9576 61.073 72.9914 61.2115C73.3733 62.7673 73.8653 64.7784 73.9001 64.9394Z" fill="url(#paint0_radial_1453_4540)"/>
<path d="M71.1047 55.9509C71.092 56.1421 71.0391 56.3284 70.9497 56.4975C69.8292 58.6912 68.8087 60.6347 67.8877 62.3888C67.26 63.5844 66.6785 64.6919 66.1429 65.7307C66.0786 65.8566 65.9778 65.96 65.8538 66.0271C65.7298 66.0943 65.5885 66.1221 65.4484 66.107C65.3084 66.0918 65.1762 66.0344 65.0693 65.9422C64.9624 65.85 64.8858 65.7274 64.8496 65.5906C64.3674 63.7449 63.9716 62.3948 63.7946 61.8599C63.6176 61.3249 63.435 60.8067 63.435 60.8067C63.3194 60.4804 63.1995 60.1541 63.0769 59.8264C63.0439 59.737 63.0102 59.6488 62.976 59.559C62.9582 59.5124 62.9403 59.4654 62.9222 59.4175C62.5357 58.4129 62.1218 57.4158 61.6804 56.4261L61.6358 56.3267L61.6275 56.3085C61.2633 55.4981 60.8823 54.6975 60.4847 53.9067C57.9246 49.0377 57.6013 50.4866 57.0193 53.0955C56.9014 53.6239 56.7729 54.1999 56.6131 54.7806V54.7946C55.7671 58.8797 53.6822 64.91 50.0182 71.5425C45.8046 79.1707 40.3732 86.052 33.9409 91.912C33.6176 92.1812 33.2058 92.3193 32.7864 92.2994C32.367 92.2794 31.97 92.1028 31.6734 91.8042L25.3504 85.4503C25.1979 85.2973 25.0784 85.1145 24.9992 84.9132C24.92 84.7119 24.8827 84.4963 24.8898 84.28C24.8968 84.0636 24.948 83.851 25.0402 83.6553C25.1324 83.4596 25.2636 83.2851 25.4256 83.1424C25.5399 83.0444 55.2724 51.0302 45.5766 29.7042C45.4261 29.3233 44.9704 28.378 44.3112 27.1106C44.2861 27.0672 44.261 27.0238 44.2373 26.979C44.1225 26.7764 44.0598 26.5483 44.0549 26.3152C44.0501 26.0822 44.1032 25.8516 44.2094 25.6443L48.1856 17.8985C48.2438 17.7851 48.3317 17.6899 48.4399 17.623C48.5481 17.5562 48.6723 17.5204 48.7993 17.5194C48.9263 17.5184 49.0511 17.5522 49.1603 17.6173C49.2695 17.6824 49.359 17.7762 49.419 17.8887C49.8557 18.7019 50.2979 19.5118 50.7457 20.3185C53.0104 24.4036 55.3992 28.4186 57.8729 32.3861C58.7999 33.8725 59.7437 35.3491 60.6876 36.8257C62.8687 40.2379 65.0501 43.6506 67.0237 47.186C69.2369 51.1521 70.3198 53.5678 71.0236 55.3884C71.0898 55.5681 71.1174 55.7598 71.1047 55.9509Z" fill="url(#paint1_radial_1453_4540)"/>
<defs>
<radialGradient id="paint0_radial_1453_4540" cx="0" cy="0" r="1" gradientUnits="userSpaceOnUse" gradientTransform="translate(12.7865 41.4638) rotate(71.7518) scale(205.25 1252.44)">
<stop stop-color="#4BF2A2"/>
<stop offset="0.421875" stop-color="#564D8F"/>
<stop offset="1" stop-color="#DD40CD"/>
</radialGradient>
<radialGradient id="paint1_radial_1453_4540" cx="0" cy="0" r="1" gradientUnits="userSpaceOnUse" gradientTransform="translate(12.7865 41.4638) rotate(71.7518) scale(205.25 1252.44)">
<stop stop-color="#4BF2A2"/>
<stop offset="0.421875" stop-color="#564D8F"/>
<stop offset="1" stop-color="#DD40CD"/>
</radialGradient>
</defs>
</svg>
