<svg width="188" height="40" viewBox="0 0 188 40" fill="none" xmlns="http://www.w3.org/2000/svg">
<path d="M30.4546 2.73438V24.9062C30.4546 27.4375 29.8843 29.6562 28.7437 31.5625C27.6187 33.4688 25.9858 34.9297 23.8452 35.9453C21.7046 36.9609 19.1733 37.4688 16.2515 37.4688C11.8452 37.4688 8.42334 36.3438 5.98584 34.0938C3.54834 31.8281 2.32959 28.7344 2.32959 24.8125V2.73438H9.57178V23.7109C9.57178 26.3516 10.103 28.2891 11.1655 29.5234C12.228 30.7578 13.9858 31.375 16.439 31.375C18.814 31.375 20.5327 30.7578 21.5952 29.5234C22.6733 28.2734 23.2124 26.3203 23.2124 23.6641V2.73438H30.4546Z" fill="white" fill-opacity="0.05"/>
<path d="M70.6836 37H61.4493L46.543 11.0781H46.3321C46.629 15.6562 46.7774 18.9219 46.7774 20.875V37H40.2852V2.73438H49.4493L64.3321 28.3984H64.4961C64.2618 23.9453 64.1446 20.7969 64.1446 18.9531V2.73438H70.6836V37Z" fill="white" fill-opacity="0.05"/>
<path d="M80.7721 37V2.73438H88.0377V37H80.7721Z" fill="white" fill-opacity="0.05"/>
<path d="M111.321 37H104.056V8.78125H94.7512V2.73438H120.626V8.78125H111.321V37Z" fill="white" fill-opacity="0.05"/>
<path d="M148.316 37L145.832 28.8438H133.34L130.855 37H123.027L135.121 2.59375H144.004L156.144 37H148.316ZM144.097 22.75C141.801 15.3594 140.504 11.1797 140.207 10.2109C139.926 9.24219 139.722 8.47656 139.597 7.91406C139.082 9.91406 137.605 14.8594 135.168 22.75H144.097Z" fill="white" fill-opacity="0.05"/>
<path d="M169.186 18.8594H171.576C173.811 18.8594 175.483 18.4219 176.592 17.5469C177.701 16.6562 178.256 15.3672 178.256 13.6797C178.256 11.9766 177.787 10.7188 176.85 9.90625C175.928 9.09375 174.475 8.6875 172.491 8.6875H169.186V18.8594ZM185.592 13.4219C185.592 17.1094 184.436 19.9297 182.123 21.8828C179.826 23.8359 176.553 24.8125 172.303 24.8125H169.186V37H161.92V2.73438H172.866C177.022 2.73438 180.178 3.63281 182.334 5.42969C184.506 7.21094 185.592 9.875 185.592 13.4219Z" fill="white" fill-opacity="0.05"/>
<path fill-rule="evenodd" clip-rule="evenodd" d="M32.4546 0.734375V24.9062C32.4546 27.7454 31.812 30.3272 30.4632 32.5839C29.1208 34.8563 27.1755 36.5789 24.7025 37.7523C22.2389 38.9211 19.4023 39.4688 16.2515 39.4688C11.5112 39.4688 7.54388 38.2538 4.62928 35.5634L4.62421 35.5587C1.7067 32.8469 0.32959 29.1821 0.32959 24.8125V0.734375H11.5718V23.7109C11.5718 26.1514 12.0746 27.5138 12.6813 28.2187C13.2051 28.8272 14.2703 29.375 16.439 29.375C18.5048 29.375 19.5447 28.8399 20.0794 28.2187L20.0807 28.2172C20.7037 27.4949 21.2124 26.1154 21.2124 23.6641V0.734375H32.4546ZM28.7437 31.5625C29.8843 29.6562 30.4546 27.4375 30.4546 24.9062V2.73438H23.2124V23.6641C23.2124 26.3203 22.6733 28.2734 21.5952 29.5234C20.5327 30.7578 18.814 31.375 16.439 31.375C13.9858 31.375 12.228 30.7578 11.1655 29.5234C10.103 28.2891 9.57178 26.3516 9.57178 23.7109V2.73438H2.32959V24.8125C2.32959 28.7344 3.54834 31.8281 5.98584 34.0938C8.42334 36.3438 11.8452 37.4688 16.2515 37.4688C19.1733 37.4688 21.7046 36.9609 23.8452 35.9453C25.9858 34.9297 27.6187 33.4688 28.7437 31.5625ZM72.6836 39H60.2923L48.7431 18.9161C48.7659 19.6663 48.7774 20.3195 48.7774 20.875V39H38.2852V0.734375H50.6014L62.1684 20.6806C62.1525 20.0193 62.1446 19.4432 62.1446 18.9531V0.734375H72.6836V39ZM64.2998 24.356C64.3276 24.9951 64.3592 25.676 64.3945 26.3984C64.4241 27.005 64.4564 27.6409 64.4913 28.3061C64.4929 28.3368 64.4945 28.3676 64.4961 28.3984H64.3321L49.4493 2.73438H40.2852V37H46.7774V20.875C46.7774 19.5603 46.7101 17.6509 46.5756 15.1469C46.5407 14.4973 46.5013 13.8077 46.4574 13.0781C46.4212 12.4776 46.382 11.8499 46.3397 11.1951C46.3371 11.1562 46.3346 11.1172 46.3321 11.0781H46.543L61.4493 37H70.6836V2.73438H64.1446V18.9531C64.1446 20.1781 64.1963 21.9791 64.2998 24.356ZM78.7721 39V0.734375H90.0377V39H78.7721ZM113.321 39H102.056V10.7812H92.7512V0.734375H122.626V10.7812H113.321V39ZM104.056 8.78125V37H111.321V8.78125H120.626V2.73438H94.7512V8.78125H104.056ZM146.835 39L144.35 30.8438H134.821L132.337 39H120.204L133.704 0.59375H145.419L158.971 39H146.835ZM133.34 28.8438H145.832L148.316 37H156.144L144.004 2.59375H135.121L123.027 37H130.855L133.34 28.8438ZM138.549 11.6214C138.652 11.2716 138.748 10.9412 138.839 10.6302C138.841 10.6221 138.843 10.6141 138.846 10.6061C139.188 9.4284 139.438 8.53107 139.597 7.91406C139.722 8.47656 139.926 9.24219 140.207 10.2109C140.284 10.4614 140.427 10.9264 140.638 11.6061C141.165 13.3082 142.111 16.3561 143.476 20.75C143.674 21.3883 143.881 22.0549 144.097 22.75H135.168C135.381 22.0609 135.586 21.3942 135.784 20.75C136.967 16.9081 137.888 13.8653 138.549 11.6214ZM139.612 15.0532C139.119 16.693 138.54 18.5926 137.877 20.75H141.382C140.672 18.4671 140.083 16.5681 139.612 15.0532ZM175.534 11.4122L175.527 11.4067C175.138 11.0633 174.27 10.6875 172.491 10.6875H171.186V16.8594H171.576C173.599 16.8594 174.742 16.4553 175.347 15.9816C175.89 15.5429 176.256 14.8815 176.256 13.6797C176.256 12.3303 175.893 11.7236 175.54 11.4176L175.534 11.4122ZM176.592 17.5469C175.483 18.4219 173.811 18.8594 171.576 18.8594H169.186V8.6875H172.491C174.475 8.6875 175.928 9.09375 176.85 9.90625C177.787 10.7188 178.256 11.9766 178.256 13.6797C178.256 15.3672 177.701 16.6562 176.592 17.5469ZM171.186 39H159.92V0.734375H172.866C177.268 0.734375 180.955 1.68051 183.608 3.88779C186.357 6.14549 187.592 9.44984 187.592 13.4219C187.592 17.5568 186.274 20.9941 183.415 23.4095C180.634 25.773 176.834 26.8125 172.303 26.8125H171.186V39ZM169.186 24.8125H172.303C176.553 24.8125 179.826 23.8359 182.123 21.8828C184.436 19.9297 185.592 17.1094 185.592 13.4219C185.592 9.875 184.506 7.21094 182.334 5.42969C180.178 3.63281 177.022 2.73438 172.866 2.73438H161.92V37H169.186V24.8125ZM80.7721 37H88.0377V2.73438H80.7721V37Z" fill="url(#paint0_radial_1515_2882)"/>
<defs>
<radialGradient id="paint0_radial_1515_2882" cx="0" cy="0" r="1" gradientUnits="userSpaceOnUse" gradientTransform="translate(32.2552 14.9858) rotate(22.8613) scale(174.154 1279.23)">
<stop stop-color="#4BF2A2"/>
<stop offset="0.421875" stop-color="#564D8F"/>
<stop offset="1" stop-color="#DD40CD"/>
</radialGradient>
</defs>
</svg>
