<svg width="36" height="10" viewBox="0 0 36 10" fill="none" xmlns="http://www.w3.org/2000/svg">
<path d="M3.528 9.128C2.93067 9.128 2.408 9.03733 1.96 8.856C1.52267 8.664 1.17067 8.39733 0.904 8.056C0.648 7.71467 0.493333 7.30933 0.44 6.84H1.88C1.944 7.14933 2.11467 7.39467 2.392 7.576C2.68 7.75733 3.05867 7.848 3.528 7.848H4.2C4.76533 7.848 5.18667 7.736 5.464 7.512C5.74133 7.27733 5.88 6.968 5.88 6.584C5.88 6.21067 5.752 5.91733 5.496 5.704C5.25067 5.48 4.88267 5.33067 4.392 5.256L3.208 5.064C2.344 4.91467 1.69867 4.648 1.272 4.264C0.856 3.86933 0.648 3.29867 0.648 2.552C0.648 1.76267 0.898667 1.15467 1.4 0.728C1.90133 0.290666 2.65333 0.0719995 3.656 0.0719995H4.264C5.10667 0.0719995 5.784 0.269333 6.296 0.664C6.808 1.05867 7.11733 1.592 7.224 2.264H5.784C5.72 1.98667 5.56 1.768 5.304 1.608C5.048 1.43733 4.70133 1.352 4.264 1.352H3.656C3.112 1.352 2.712 1.45333 2.456 1.656C2.21067 1.85867 2.088 2.16267 2.088 2.568C2.088 2.93067 2.19467 3.19733 2.408 3.368C2.62133 3.53867 2.95733 3.66133 3.416 3.736L4.6 3.928C5.54933 4.07733 6.23733 4.35467 6.664 4.76C7.10133 5.16533 7.32 5.752 7.32 6.52C7.32 7.33067 7.05867 7.97067 6.536 8.44C6.024 8.89867 5.24533 9.128 4.2 9.128H3.528ZM13.3938 9.128C12.6898 9.128 12.0818 8.99467 11.5698 8.728C11.0578 8.46133 10.6578 8.07733 10.3698 7.576C10.0924 7.064 9.95375 6.46133 9.95375 5.768V3.432C9.95375 2.728 10.0924 2.12533 10.3698 1.624C10.6578 1.12267 11.0578 0.738666 11.5698 0.471999C12.0818 0.205333 12.6898 0.0719995 13.3938 0.0719995C14.0978 0.0719995 14.7058 0.205333 15.2178 0.471999C15.7298 0.738666 16.1244 1.12267 16.4018 1.624C16.6898 2.12533 16.8338 2.72267 16.8338 3.416V5.768C16.8338 6.46133 16.6898 7.064 16.4018 7.576C16.1244 8.07733 15.7298 8.46133 15.2178 8.728C14.7058 8.99467 14.0978 9.128 13.3938 9.128ZM13.3938 7.848C14.0231 7.848 14.5138 7.672 14.8658 7.32C15.2178 6.968 15.3938 6.45067 15.3938 5.768V3.432C15.3938 2.74933 15.2178 2.232 14.8658 1.88C14.5138 1.528 14.0231 1.352 13.3938 1.352C12.7751 1.352 12.2844 1.528 11.9218 1.88C11.5698 2.232 11.3938 2.74933 11.3938 3.432V5.768C11.3938 6.45067 11.5698 6.968 11.9218 7.32C12.2844 7.672 12.7751 7.848 13.3938 7.848ZM22.9875 9.128C22.2835 9.128 21.6755 8.99467 21.1635 8.728C20.6515 8.46133 20.2515 8.07733 19.9635 7.576C19.6862 7.064 19.5475 6.46133 19.5475 5.768V3.432C19.5475 2.728 19.6862 2.12533 19.9635 1.624C20.2515 1.12267 20.6515 0.738666 21.1635 0.471999C21.6755 0.205333 22.2835 0.0719995 22.9875 0.0719995C23.6915 0.0719995 24.2995 0.205333 24.8115 0.471999C25.3235 0.738666 25.7182 1.12267 25.9955 1.624C26.2835 2.12533 26.4275 2.72267 26.4275 3.416V5.768C26.4275 6.46133 26.2835 7.064 25.9955 7.576C25.7182 8.07733 25.3235 8.46133 24.8115 8.728C24.2995 8.99467 23.6915 9.128 22.9875 9.128ZM22.9875 7.848C23.6168 7.848 24.1075 7.672 24.4595 7.32C24.8115 6.968 24.9875 6.45067 24.9875 5.768V3.432C24.9875 2.74933 24.8115 2.232 24.4595 1.88C24.1075 1.528 23.6168 1.352 22.9875 1.352C22.3688 1.352 21.8782 1.528 21.5155 1.88C21.1635 2.232 20.9875 2.74933 20.9875 3.432V5.768C20.9875 6.45067 21.1635 6.968 21.5155 7.32C21.8782 7.672 22.3688 7.848 22.9875 7.848ZM29.2533 9V0.2H30.6933V1.88H30.9973L30.6933 2.216C30.6933 1.52267 30.9013 0.989333 31.3173 0.615999C31.7333 0.232 32.3093 0.04 33.0453 0.04C33.9306 0.04 34.6346 0.312 35.1573 0.856C35.6799 1.4 35.9413 2.14133 35.9413 3.08V9H34.5013V3.24C34.5013 2.61067 34.3306 2.13067 33.9893 1.8C33.6586 1.45867 33.2053 1.288 32.6293 1.288C32.0319 1.288 31.5573 1.46933 31.2053 1.832C30.8639 2.19467 30.6933 2.71733 30.6933 3.4V9H29.2533Z" fill="#D683DC"/>
</svg>
