<svg width="28" height="28" viewBox="0 0 28 28" fill="none" xmlns="http://www.w3.org/2000/svg">
<path d="M5.5042 21.3313L7.82872 23.3098C5.18325 21.0575 4.65055 16.8082 6.7994 12.6377C8.41365 9.50849 11.2186 7.06969 14.3009 5.9663L11.9764 3.98779C8.89507 5.0949 6.08913 7.52906 4.47488 10.6592C2.32603 14.8269 2.86064 19.0762 5.5042 21.3313Z" fill="url(#paint0_linear_3036_21184)"/>
<path d="M5.5042 21.3313L7.82872 23.3098C5.18325 21.0575 4.65055 16.8082 6.7994 12.6377C8.41365 9.50849 11.2186 7.06969 14.3009 5.9663L11.9764 3.98779C8.89507 5.0949 6.08913 7.52906 4.47488 10.6592C2.32603 14.8269 2.86064 19.0762 5.5042 21.3313Z" fill="url(#paint1_linear_3036_21184)"/>
<path d="M5.5042 21.3313L7.82872 23.3098C5.18325 21.0575 4.65055 16.8082 6.7994 12.6377C8.41365 9.50849 11.2186 7.06969 14.3009 5.9663L11.9764 3.98779C8.89507 5.0949 6.08913 7.52906 4.47488 10.6592C2.32603 14.8269 2.86064 19.0762 5.5042 21.3313Z" fill="url(#paint2_linear_3036_21184)"/>
<path d="M5.5042 21.3313L7.82872 23.3098C5.18325 21.0575 4.65055 16.8082 6.7994 12.6377C8.41365 9.50849 11.2186 7.06969 14.3009 5.9663L11.9764 3.98779C8.89507 5.0949 6.08913 7.52906 4.47488 10.6592C2.32603 14.8269 2.86064 19.0762 5.5042 21.3313Z" fill="url(#paint3_linear_3036_21184)"/>
<path d="M5.5042 21.3313L7.82872 23.3098C5.18325 21.0575 4.65055 16.8082 6.7994 12.6377C8.41365 9.50849 11.2186 7.06969 14.3009 5.9663L11.9764 3.98779C8.89507 5.0949 6.08913 7.52906 4.47488 10.6592C2.32603 14.8269 2.86064 19.0762 5.5042 21.3313Z" fill="url(#paint4_linear_3036_21184)"/>
<path d="M11.9754 3.99065L14.3 5.97286C14.3535 5.94419 14.4128 5.92709 14.4737 5.92275C14.5339 5.91835 14.5935 5.93698 14.6399 5.97472L12.3154 3.99622C12.2926 3.97714 12.2662 3.9627 12.2377 3.95378C12.2091 3.94485 12.1791 3.94161 12.1492 3.94425C12.0882 3.94815 12.0288 3.96526 11.9754 3.99436" fill="url(#paint5_linear_3036_21184)"/>
<path d="M11.9754 3.99065L14.3 5.97286C14.3535 5.94419 14.4128 5.92709 14.4737 5.92275C14.5339 5.91835 14.5935 5.93698 14.6399 5.97472L12.3154 3.99622C12.2926 3.97714 12.2662 3.9627 12.2377 3.95378C12.2091 3.94485 12.1791 3.94161 12.1492 3.94425C12.0882 3.94815 12.0288 3.96526 11.9754 3.99436" fill="url(#paint6_linear_3036_21184)"/>
<path d="M12.397 4.18546L14.7215 6.16396C14.7228 6.12796 14.7161 6.09212 14.702 6.05884C14.6879 6.02556 14.6667 5.99559 14.6399 5.97094L12.3154 3.99243C12.3423 4.01705 12.3635 4.04701 12.3776 4.0803C12.3917 4.1136 12.3983 4.14945 12.397 4.18546Z" fill="url(#paint7_linear_3036_21184)"/>
<path d="M12.4016 4.39508L14.7261 6.37451C14.7499 6.26686 14.7622 6.21211 14.7261 6.16014L12.4016 4.18164C12.4424 4.23361 12.4301 4.28743 12.4016 4.39508Z" fill="url(#paint8_linear_3036_21184)"/>
<path d="M12.2356 5.15808L14.5601 7.13751L14.7263 6.37841L12.4018 4.3999L12.2356 5.15808Z" fill="url(#paint9_linear_3036_21184)"/>
<path d="M11.8035 5.71383L14.128 7.69327C14.3094 7.57727 14.5078 7.35362 14.5601 7.13646L12.2355 5.15796C12.1881 5.37418 11.9849 5.59783 11.8035 5.71476" fill="url(#paint10_linear_3036_21184)"/>
<path d="M5.5042 21.3313L7.82872 23.3098C5.18325 21.0575 4.65055 16.8082 6.7994 12.6377C8.41365 9.50849 11.2186 7.06969 14.3009 5.9663L11.9764 3.98779C8.89507 5.0949 6.08913 7.52906 4.47488 10.6592C2.32603 14.8269 2.86064 19.0762 5.5042 21.3313Z" fill="url(#paint11_linear_3036_21184)"/>
<path d="M6.7729 19.9504L9.09741 21.9344C8.07664 21.0649 7.40245 19.8204 7.21159 18.3087C6.61242 14.2088 9.72982 9.3999 14.1282 7.69794L11.8037 5.71851C7.4053 7.42232 4.28791 12.2294 4.88708 16.3293C5.07699 17.841 5.75212 19.0864 6.7729 19.955" fill="url(#paint12_linear_3036_21184)"/>
<path d="M13.3617 7.08646L15.6862 9.06589C15.7337 8.84874 15.9245 8.67984 16.198 8.61303L13.8735 6.63452C13.6 6.70041 13.4091 6.87023 13.3617 7.08646Z" fill="url(#paint13_linear_3036_21184)"/>
<path d="M10.2434 10.7176L12.5679 12.6961C13.0427 11.4962 14.1821 10.532 15.4014 10.3677L13.0769 8.3855C11.8529 8.54883 10.7134 9.51302 10.2434 10.7139" fill="url(#paint14_linear_3036_21184)"/>
<path d="M10.232 10.7725L12.5565 12.751L12.5679 12.6972L10.2434 10.7178L10.232 10.7725Z" fill="url(#paint15_linear_3036_21184)"/>
<path d="M10.31 11.0712L12.6345 13.0507C12.5947 13.0125 12.5664 12.9643 12.5527 12.9114C12.5389 12.8586 12.5403 12.8031 12.5567 12.7509L10.2321 10.7715C10.2158 10.8236 10.2144 10.8792 10.2282 10.932C10.2419 10.9849 10.2702 11.033 10.31 11.0712Z" fill="url(#paint16_linear_3036_21184)"/>
<path d="M10.3098 11.0767L12.6343 13.0552C12.6916 13.101 12.7648 13.1233 12.8385 13.1173L10.514 11.1379C10.4404 11.1441 10.3672 11.1222 10.3098 11.0767Z" fill="url(#paint17_linear_3036_21184)"/>
<path d="M13.8735 6.63727L16.198 8.6167L16.9795 8.58051L14.655 6.60107L13.8735 6.63727Z" fill="url(#paint18_linear_3036_21184)"/>
<path d="M10.2434 10.7176L12.5679 12.6961C13.0427 11.4962 14.1821 10.532 15.4014 10.3677L13.0769 8.3855C11.8529 8.54883 10.7134 9.51302 10.2434 10.7139" fill="url(#paint19_linear_3036_21184)"/>
<path d="M13.0769 8.38929L15.4014 10.3687L15.6863 9.06859L13.3618 7.09009L13.0769 8.38929Z" fill="url(#paint20_linear_3036_21184)"/>
<path d="M17.1058 4.12987L19.4303 6.10837C19.4488 6.00398 19.4969 5.90674 19.569 5.82768C19.6412 5.74862 19.7346 5.69091 19.8386 5.66107L17.5141 3.68164C17.4101 3.71183 17.3168 3.76978 17.2447 3.84896C17.1725 3.92815 17.1244 4.02543 17.1058 4.12987Z" fill="url(#paint21_linear_3036_21184)"/>
<path d="M14.6552 6.60121L16.9797 8.58064C17.0162 8.57728 17.0531 8.58105 17.0881 8.59172C17.1232 8.6024 17.1557 8.61976 17.1838 8.64282L14.8555 6.66432C14.7985 6.61814 14.7252 6.5955 14.6514 6.60121" fill="url(#paint22_linear_3036_21184)"/>
<path d="M17.5141 3.68138L19.8387 5.66082C19.9039 5.65058 19.9708 5.66201 20.0286 5.6933L17.704 3.71479C17.6466 3.6824 17.5795 3.67059 17.5141 3.68138Z" fill="url(#paint23_linear_3036_21184)"/>
<path d="M17.7106 3.72598L20.0352 5.70448L20.0247 5.69335L17.704 3.71484C17.7082 3.71787 17.7117 3.72165 17.7144 3.72598" fill="url(#paint24_linear_3036_21184)"/>
<path d="M14.977 7.01485L17.3015 8.99428C17.3093 8.93081 17.3028 8.86643 17.2825 8.80567C17.2621 8.74491 17.2284 8.68924 17.1837 8.64256L14.8554 6.66406C14.9002 6.71049 14.934 6.76599 14.9543 6.82662C14.9747 6.88725 14.9811 6.95151 14.9732 7.01485" fill="url(#paint25_linear_3036_21184)"/>
<path d="M10.5142 11.1344L12.8387 13.1129L13.6733 13.0749L11.3488 11.0955L10.5142 11.1344Z" fill="url(#paint26_linear_3036_21184)"/>
<path d="M16.9395 4.88806L19.264 6.86657L19.4302 6.10931L17.1057 4.12988L16.9395 4.88806Z" fill="url(#paint27_linear_3036_21184)"/>
<path d="M17.0469 5.35561L19.3715 7.33504C19.2537 7.23481 19.2157 7.08912 19.2642 6.8664L16.9396 4.88696C16.8912 5.10968 16.9292 5.25817 17.0469 5.35561Z" fill="url(#paint28_linear_3036_21184)"/>
<path d="M17.0469 5.35571L19.3714 7.33514C19.3983 7.35757 19.4276 7.37717 19.4587 7.39361L17.1342 5.41603C17.1032 5.39906 17.0739 5.37916 17.0469 5.35664" fill="url(#paint29_linear_3036_21184)"/>
<path d="M14.7045 8.2612L17.029 10.2406L17.3015 8.99432L14.9779 7.01489L14.7045 8.2612Z" fill="url(#paint30_linear_3036_21184)"/>
<path d="M9.56726 17.4179L11.8918 19.3964C11.3097 18.9008 11.0695 18.1278 11.2708 17.2054C11.6857 15.3104 12.923 14.6069 15.1725 14.2357C16.7867 13.9471 17.1922 13.4998 17.3565 12.7407C17.4429 12.3435 17.3707 12.0262 17.1305 11.8229L14.806 9.84351C15.0462 10.0477 15.1193 10.3641 15.032 10.7622C14.8658 11.5204 14.4622 11.9686 12.848 12.2563C10.5994 12.6275 9.3612 13.3291 8.94625 15.2259C8.74494 16.1474 8.98518 16.9205 9.56726 17.4169" fill="url(#paint31_linear_3036_21184)"/>
<path d="M11.3488 11.0955L13.6733 13.074C13.7626 13.064 13.848 13.0325 13.9219 12.9825C13.9957 12.9325 14.0558 12.8654 14.0968 12.7873C14.5355 11.9623 15.1281 11.6143 16.0662 11.5706C16.5619 11.5484 16.9161 11.6402 17.1326 11.8258L14.808 9.84641C14.5916 9.66081 14.2383 9.56801 13.7417 9.59214C12.8035 9.63483 12.211 9.98376 11.7723 10.8088C11.7311 10.8868 11.671 10.9537 11.5971 11.0037C11.5233 11.0537 11.438 11.0852 11.3488 11.0955Z" fill="url(#paint32_linear_3036_21184)"/>
<path d="M14.7044 8.26123L17.0289 10.2416C17.6177 10.2982 18.0905 10.4884 18.4324 10.7798L16.1079 8.8004C15.766 8.50901 15.2931 8.31877 14.7044 8.26309" fill="url(#paint33_linear_3036_21184)"/>
<path d="M17.1345 5.41602L19.459 7.39452C20.0814 7.61878 20.6572 7.95108 21.1587 8.37542L18.8342 6.39692C18.3332 5.97186 17.7572 5.63948 17.1345 5.41602Z" fill="url(#paint34_linear_3036_21184)"/>
<path d="M17.7107 3.72607L20.0353 5.70458C20.9153 5.9663 21.7295 6.40541 22.4253 6.99357L20.1008 5.01414C19.4052 4.42592 18.5909 3.98709 17.7107 3.72607Z" fill="url(#paint35_linear_3036_21184)"/>
<path d="M9.56726 17.4179L11.8918 19.3964C11.3097 18.9008 11.0695 18.1278 11.2708 17.2054C11.6857 15.3104 12.923 14.6069 15.1725 14.2357C16.7867 13.9471 17.1922 13.4998 17.3565 12.7407C17.4429 12.3435 17.3707 12.0262 17.1305 11.8229L14.806 9.84351C15.0462 10.0477 15.1193 10.3641 15.032 10.7622C14.8658 11.5204 14.4622 11.9686 12.848 12.2563C10.5994 12.6275 9.3612 13.3291 8.94625 15.2259C8.74494 16.1474 8.98518 16.9205 9.56726 17.4169" fill="url(#paint36_linear_3036_21184)"/>
<path d="M9.56726 17.4179L11.8918 19.3964C11.3097 18.9008 11.0695 18.1278 11.2708 17.2054C11.6857 15.3104 12.923 14.6069 15.1725 14.2357C16.7867 13.9471 17.1922 13.4998 17.3565 12.7407C17.4429 12.3435 17.3707 12.0262 17.1305 11.8229L14.806 9.84351C15.0462 10.0477 15.1193 10.3641 15.032 10.7622C14.8658 11.5204 14.4622 11.9686 12.848 12.2563C10.5994 12.6275 9.3612 13.3291 8.94625 15.2259C8.74494 16.1474 8.98518 16.9205 9.56726 17.4169" fill="url(#paint37_linear_3036_21184)"/>
<path d="M9.56726 17.4179L11.8918 19.3964C11.3097 18.9008 11.0695 18.1278 11.2708 17.2054C11.6857 15.3104 12.923 14.6069 15.1725 14.2357C16.7867 13.9471 17.1922 13.4998 17.3565 12.7407C17.4429 12.3435 17.3707 12.0262 17.1305 11.8229L14.806 9.84351C15.0462 10.0477 15.1193 10.3641 15.032 10.7622C14.8658 11.5204 14.4622 11.9686 12.848 12.2563C10.5994 12.6275 9.3612 13.3291 8.94625 15.2259C8.74494 16.1474 8.98518 16.9205 9.56726 17.4169" fill="url(#paint38_linear_3036_21184)"/>
<path d="M10.8976 16.3358L13.2221 18.3153C12.9373 18.0721 12.8148 17.6981 12.9154 17.2378C13.1053 16.3711 13.6456 16.024 15.1649 15.6862L12.8404 13.7068C11.3211 14.0455 10.7808 14.3917 10.5909 15.2584C10.4902 15.7224 10.6127 16.0936 10.8976 16.3358Z" fill="url(#paint39_linear_3036_21184)"/>
<path d="M13.8024 20.6352L16.127 22.6137C20.5253 20.9108 23.6427 16.1028 23.0435 12.002C22.8536 10.4912 22.1785 9.24673 21.1587 8.37719L18.8341 6.39868C19.8549 7.26729 20.5282 8.51175 20.719 10.0235C21.3182 14.1234 18.2008 18.9323 13.8024 20.6352Z" fill="url(#paint40_linear_3036_21184)"/>
<path d="M9.56737 17.4177L11.8919 19.3962C12.2787 19.7082 12.751 19.9019 13.2498 19.953L10.9252 17.9745C10.4266 17.9227 9.95454 17.7291 9.56737 17.4177Z" fill="url(#paint41_linear_3036_21184)"/>
<path d="M6.77262 19.9502L9.09714 21.9343C9.59825 22.3587 10.1738 22.691 10.7959 22.9152L8.47138 20.9357C7.84908 20.7119 7.2735 20.3795 6.77262 19.9548" fill="url(#paint42_linear_3036_21184)"/>
<path d="M8.47158 20.9312L10.7961 22.9106C10.8275 22.927 10.8571 22.9466 10.8844 22.9691L8.55988 20.9905C8.53288 20.9675 8.50325 20.9476 8.47158 20.9312Z" fill="url(#paint43_linear_3036_21184)"/>
<path d="M12.8404 13.7068L15.1649 15.6862C17.4144 15.315 18.6108 14.5633 19.0021 12.776C19.1844 11.9473 18.9726 11.2374 18.4323 10.778L16.1078 8.79858C16.6481 9.25795 16.8599 9.96787 16.6775 10.7966C16.2854 12.5839 15.0889 13.3356 12.8394 13.7068" fill="url(#paint44_linear_3036_21184)"/>
<path d="M8.66607 21.4584L10.9906 23.4378C11.039 23.216 11.001 23.0666 10.8842 22.9738L8.55972 20.9944C8.67651 21.0937 8.71449 21.2403 8.66607 21.4584Z" fill="url(#paint45_linear_3036_21184)"/>
<path d="M10.6404 19.2777L12.9649 21.2562L13.2498 19.957L10.9252 17.9775L10.6404 19.2777Z" fill="url(#paint46_linear_3036_21184)"/>
<path d="M10.8977 16.3357L13.2222 18.3152C13.4738 18.5295 13.8518 18.6409 14.3161 18.6196C15.6721 18.5574 16.2722 17.9403 16.6055 17.1208L14.2857 15.1423C13.9515 15.9618 13.3513 16.5789 11.9954 16.6411C11.532 16.6624 11.1531 16.5483 10.9015 16.3357" fill="url(#paint47_linear_3036_21184)"/>
<path d="M14.2857 15.1425L16.6092 17.121C16.6435 17.0307 16.7022 16.9512 16.7792 16.8911C16.8561 16.8309 16.9484 16.7923 17.046 16.7795L14.7215 14.8C14.6238 14.8129 14.5316 14.8516 14.4548 14.912C14.378 14.9723 14.3195 15.052 14.2857 15.1425Z" fill="url(#paint48_linear_3036_21184)"/>
<path d="M5.5041 21.3313L7.82862 23.3098C8.52487 23.8978 9.33932 24.3369 10.2196 24.5988L7.89509 22.6194C7.0147 22.3581 6.20016 21.9193 5.5041 21.3313Z" fill="url(#paint49_linear_3036_21184)"/>
<path d="M7.90656 22.6312L10.2311 24.6106L10.2197 24.5986L7.89517 22.6191L7.90656 22.6312Z" fill="url(#paint50_linear_3036_21184)"/>
<path d="M10.8977 16.3357L13.2222 18.3152C13.4738 18.5295 13.8518 18.6409 14.3161 18.6196C15.6721 18.5574 16.2722 17.9403 16.6055 17.1208L14.2857 15.1423C13.9515 15.9618 13.3513 16.5789 11.9954 16.6411C11.532 16.6624 11.1531 16.5483 10.9015 16.3357" fill="url(#paint51_linear_3036_21184)"/>
<path d="M10.7589 19.6274L13.0825 21.6068C13.038 21.5602 13.0044 21.5047 12.9841 21.4441C12.9637 21.3835 12.9572 21.3194 12.9648 21.256L10.6403 19.2766C10.6324 19.34 10.639 19.4043 10.6595 19.465C10.68 19.5256 10.714 19.5811 10.7589 19.6274Z" fill="url(#paint52_linear_3036_21184)"/>
<path d="M7.90672 22.6313L10.2312 24.6108C10.289 24.6422 10.3559 24.6536 10.4211 24.6433L8.09663 22.6638C8.03292 22.6738 7.96764 22.6624 7.91146 22.6313" fill="url(#paint53_linear_3036_21184)"/>
<path d="M8.49991 22.2165L10.8244 24.1959L10.9906 23.4377L8.66608 21.4592L8.49991 22.2165Z" fill="url(#paint54_linear_3036_21184)"/>
<path d="M4.47486 10.662C1.78477 15.8783 3.29741 21.2236 7.89327 22.6193C7.9341 22.6713 8.03761 22.6666 8.08983 22.6638C8.19369 22.6337 8.28691 22.5759 8.35903 22.4969C8.43116 22.4179 8.47933 22.3208 8.49814 22.2165L8.66431 21.4584C8.72319 21.1883 8.65387 21.0296 8.46966 20.9313C6.51167 20.2176 5.16994 18.5639 4.88507 16.3246C4.2859 12.2247 7.4033 7.41581 11.8017 5.71385C11.983 5.59785 12.1815 5.3742 12.2337 5.15705L12.4018 4.39516C12.4255 4.28751 12.4379 4.23369 12.4018 4.18172C12.4048 4.14905 12.4005 4.11613 12.3891 4.08526C12.3777 4.0544 12.3596 4.02632 12.336 4.003C12.3125 3.97967 12.2839 3.96166 12.2525 3.95021C12.221 3.93877 12.1874 3.93416 12.1539 3.93672C12.0929 3.94062 12.0336 3.95774 11.9802 3.98684C8.8941 5.09766 6.09006 7.53181 4.47486 10.662Z" fill="url(#paint55_radial_3036_21184)"/>
<path d="M8.09176 22.6639L10.4163 24.6433C10.5201 24.6132 10.6134 24.5554 10.6855 24.4764C10.7576 24.3974 10.8058 24.3003 10.8246 24.196L8.50007 22.2129C8.48126 22.3172 8.43308 22.4142 8.36096 22.4933C8.28884 22.5723 8.19562 22.6301 8.09176 22.6602" fill="url(#paint56_linear_3036_21184)"/>
<path d="M10.759 19.6274L13.0826 21.6069C13.1397 21.653 13.2129 21.6757 13.2867 21.67L10.9622 19.6905C10.9258 19.6938 10.889 19.6898 10.8541 19.679C10.8192 19.6682 10.7869 19.6506 10.759 19.6274Z" fill="url(#paint57_linear_3036_21184)"/>
<path d="M14.7178 14.8008L17.0423 16.7793L17.9282 16.7385L15.6037 14.76L14.7178 14.8008Z" fill="url(#paint58_linear_3036_21184)"/>
<path d="M15.6037 14.759L17.9282 16.7375C18.0019 16.7315 18.0751 16.7538 18.1323 16.7997L15.805 14.8212C15.7477 14.7753 15.6745 14.753 15.6008 14.759" fill="url(#paint59_linear_3036_21184)"/>
<path d="M10.9633 19.6915L13.2869 21.67L14.0693 21.6347L11.7448 19.6553L10.9633 19.6915Z" fill="url(#paint60_linear_3036_21184)"/>
<path d="M15.8866 15.121L18.2111 17.1005C18.227 17.0482 18.2281 16.9927 18.2142 16.9399C18.2003 16.8871 18.172 16.839 18.1323 16.8007L15.8049 14.8213C15.8448 14.8595 15.8732 14.9076 15.8871 14.9604C15.901 15.0133 15.8999 15.0688 15.8837 15.121" fill="url(#paint61_linear_3036_21184)"/>
<path d="M12.2565 19.2023L14.581 21.1817L14.8658 19.8825L12.5413 17.9031L12.2565 19.2023Z" fill="url(#paint62_linear_3036_21184)"/>
<path d="M15.8743 15.1759L18.1988 17.1553L18.2112 17.1006L15.8867 15.1221L15.8743 15.1759Z" fill="url(#paint63_linear_3036_21184)"/>
<path d="M11.7446 19.6543L14.0691 21.6338C14.3416 21.5679 14.5335 21.3981 14.5809 21.1818L12.2564 19.2024C12.2089 19.4186 12.0171 19.5884 11.7446 19.6543Z" fill="url(#paint64_linear_3036_21184)"/>
<path d="M12.5414 17.9032L14.8659 19.8817C16.6454 19.5318 17.6937 18.5185 18.1989 17.1543L15.8743 15.1758C15.3692 16.539 14.3209 17.5524 12.5414 17.9032Z" fill="url(#paint65_linear_3036_21184)"/>
<path d="M13.3816 21.1336L15.71 23.113C15.746 22.9506 15.9492 22.727 16.1306 22.611L13.8023 20.6353C13.6209 20.7503 13.4225 20.9749 13.3816 21.1364" fill="url(#paint66_linear_3036_21184)"/>
<path d="M13.2155 21.8927L15.54 23.8721L15.7062 23.113L13.3817 21.1345L13.2155 21.8927Z" fill="url(#paint67_linear_3036_21184)"/>
<path d="M13.2214 22.1063L15.5459 24.0857C15.5051 24.0337 15.5174 23.9799 15.5402 23.8713L13.2157 21.8928C13.1929 22.0005 13.1805 22.0552 13.2214 22.1063Z" fill="url(#paint68_linear_3036_21184)"/>
<path d="M13.3019 22.3002L15.6265 24.2787C15.5999 24.2539 15.5789 24.2238 15.565 24.1906C15.5511 24.1573 15.5445 24.1215 15.5458 24.0856L13.2212 22.1062C13.2201 22.1422 13.2267 22.1781 13.2406 22.2115C13.2545 22.2449 13.2754 22.2751 13.3019 22.3002Z" fill="url(#paint69_linear_3036_21184)"/>
<path d="M13.8024 20.6352L16.127 22.6137C20.5253 20.9108 23.6427 16.1028 23.0435 12.002C22.8536 10.4912 22.1785 9.24673 21.1587 8.37719L18.8341 6.39868C19.8549 7.26729 20.5282 8.51175 20.719 10.0235C21.3182 14.1234 18.2008 18.9323 13.8024 20.6352Z" fill="url(#paint70_linear_3036_21184)"/>
<path d="M13.3019 22.3L15.6264 24.2786C15.6731 24.3163 15.733 24.335 15.7935 24.3305C15.8544 24.326 15.9136 24.309 15.9673 24.2804L13.6428 22.3056C13.5893 22.3343 13.5299 22.3511 13.469 22.3548C13.4086 22.36 13.3485 22.3417 13.3019 22.3038" fill="url(#paint71_linear_3036_21184)"/>
<path d="M13.8024 20.6352L16.127 22.6137C20.5253 20.9108 23.6427 16.1028 23.0435 12.002C22.8536 10.4912 22.1785 9.24673 21.1587 8.37719L18.8341 6.39868C19.8549 7.26729 20.5282 8.51175 20.719 10.0235C21.3182 14.1234 18.2008 18.9323 13.8024 20.6352Z" fill="url(#paint72_linear_3036_21184)"/>
<path d="M13.6428 22.3057L15.9673 24.2843C19.1009 23.1753 21.8546 20.743 23.4555 17.6676C25.6053 13.4999 25.0698 9.24967 22.4253 6.99554L20.1007 5.01611C22.7471 7.26931 23.2808 11.5186 21.131 15.6882C19.5281 18.7598 16.7754 21.1921 13.6428 22.3057Z" fill="url(#paint73_linear_3036_21184)"/>
<path fill-rule="evenodd" clip-rule="evenodd" d="M0.325432 13.587C1.90265 6.38481 8.75371 0.332368 15.6855 0.0131346C22.6201 -0.306099 26.9292 5.23223 25.352 12.4345C23.7748 19.6367 16.9266 25.6873 9.99193 26.0074C3.05731 26.3276 -1.25178 20.7893 0.325432 13.587ZM4.4807 10.662C1.7887 15.8783 3.30135 21.2273 7.8991 22.6193L7.8972 22.6202C7.93382 22.6668 8.02083 22.6657 8.07607 22.6649C8.08243 22.6649 8.08837 22.6648 8.09376 22.6648C8.19762 22.6347 8.29085 22.5769 8.36297 22.4978C8.43509 22.4188 8.48326 22.3217 8.50208 22.2175L8.66825 21.4593C8.72712 21.1893 8.6578 21.0306 8.47359 20.9322C6.5137 20.2232 5.17387 18.5649 4.889 16.3256C4.28983 12.2257 7.40723 7.4186 11.8056 5.71479C11.987 5.59786 12.1902 5.37421 12.2376 5.15799L12.4038 4.39888C12.4323 4.29123 12.4446 4.23741 12.4038 4.18544C12.4068 4.15277 12.4025 4.11985 12.3911 4.08899C12.3798 4.05812 12.3617 4.03004 12.3381 4.00672C12.3145 3.98339 12.286 3.96538 12.2545 3.95394C12.2231 3.94249 12.1894 3.93789 12.156 3.94045C12.095 3.94435 12.0356 3.96146 11.9822 3.99056C8.89994 5.09396 6.09494 7.53182 4.4807 10.662ZM13.3809 21.1345L13.2147 21.8936L13.2157 21.8964L13.2147 21.901C13.1925 22.0056 13.1811 22.0595 13.2214 22.1098C13.2182 22.1425 13.2224 22.1755 13.2337 22.2065C13.245 22.2374 13.2631 22.2656 13.2867 22.2889C13.3104 22.3123 13.3389 22.3303 13.3705 22.3417C13.402 22.3531 13.4357 22.3576 13.4692 22.3548C13.5301 22.3512 13.5895 22.3344 13.643 22.3056C16.7756 21.192 19.5283 18.7597 21.1283 15.6853C23.8203 10.4689 22.3077 5.11901 17.7099 3.727C17.6738 3.68079 17.5848 3.68175 17.5295 3.68234C17.5237 3.6824 17.5183 3.68246 17.5134 3.68246C17.4094 3.71265 17.3161 3.7706 17.2439 3.84978C17.1718 3.92897 17.1237 4.02625 17.1051 4.13069L16.9389 4.88794C16.88 5.15891 16.9493 5.31668 17.1336 5.41597C19.0934 6.12961 20.4333 7.78238 20.7181 10.0217C21.3173 14.1216 18.1999 18.9296 13.8016 20.6334C13.6202 20.7484 13.417 20.973 13.3809 21.1345ZM10.9253 17.9811L10.6405 19.2803L10.6376 19.2794C10.631 19.5476 10.7516 19.7035 10.9595 19.6933L11.742 19.6571C11.747 19.6559 11.752 19.6546 11.757 19.6534C11.7544 19.654 11.7519 19.6546 11.7493 19.6553L10.9669 19.6915C10.7589 19.7017 10.6383 19.5467 10.645 19.2776L10.9298 17.9784C9.42574 17.7798 8.63096 16.6903 8.95096 15.2278C9.14562 14.3379 9.52147 13.7111 10.0978 13.2581C9.51892 13.7116 9.14164 14.3393 8.94647 15.2305C8.62647 16.6931 9.42029 17.7816 10.9253 17.9811ZM14.3601 11.7744C14.7728 11.5181 14.9402 11.1912 15.0322 10.7668C15.1965 10.0087 14.7824 9.54559 13.7398 9.59384C13.2664 9.61539 12.8809 9.71493 12.5589 9.91431C12.8818 9.71307 13.2686 9.6127 13.7443 9.59106C14.7888 9.5428 15.2028 10.0059 15.0367 10.7641C14.9434 11.1897 14.7753 11.5177 14.3601 11.7744ZM11.5791 11.016C11.5091 11.0599 11.4297 11.0877 11.3469 11.0972L10.5123 11.1353C10.3043 11.1455 10.1828 10.9905 10.2274 10.7733L10.2388 10.7195C10.3485 10.4421 10.4937 10.1773 10.6671 9.93208C10.4951 10.1765 10.3515 10.4403 10.2433 10.7167L10.2319 10.7706C10.1844 10.9877 10.306 11.1418 10.5168 11.1325L11.3514 11.0944C11.4324 11.0851 11.5102 11.0583 11.5791 11.016ZM13.0728 8.3889L13.3572 7.09195C13.3886 6.94885 13.4828 6.82607 13.6222 6.7403C13.4853 6.82593 13.3927 6.9476 13.3617 7.08916L13.0768 8.38836C13.0755 8.38854 13.0741 8.38872 13.0728 8.3889ZM13.7468 13.5225C13.4647 13.5942 13.1613 13.6558 12.8359 13.7095C12.7074 13.7382 12.586 13.7669 12.4712 13.7959C12.5882 13.7662 12.712 13.7369 12.8432 13.7077C13.1658 13.6544 13.4668 13.5934 13.7468 13.5225ZM12.7224 16.5406C13.5753 16.3232 14.0108 15.7985 14.2773 15.1452C14.3111 15.0547 14.3696 14.975 14.4465 14.9147C14.5086 14.8659 14.5808 14.8312 14.6578 14.8129C14.5835 14.8317 14.5138 14.8657 14.4535 14.913C14.3766 14.9733 14.3179 15.0529 14.2837 15.1433C14.0172 15.7985 13.5801 16.3244 12.7224 16.5406ZM12.8526 17.8354C12.7529 17.8607 12.6506 17.8838 12.5459 17.9045L12.546 17.9041C12.6507 17.8835 12.7529 17.8605 12.8526 17.8354Z" fill="url(#paint74_linear_3036_21184)"/>
<path d="M17.5141 3.68143C17.4101 3.71162 17.3168 3.76957 17.2447 3.84875C17.1726 3.92794 17.1245 4.02522 17.1058 4.12966L16.9396 4.88691C16.8808 5.15788 16.9501 5.31564 17.1343 5.41494C19.0942 6.12858 20.4359 7.78135 20.7189 10.0206C21.3181 14.1205 18.2007 18.9295 13.8023 20.6323C13.6209 20.7474 13.4225 20.972 13.3817 21.1335L13.2155 21.8926C13.1927 22.0002 13.1803 22.055 13.2212 22.1069C13.2182 22.1396 13.2225 22.1725 13.2338 22.2033C13.2452 22.2341 13.2633 22.2621 13.2869 22.2854C13.3105 22.3086 13.3391 22.3266 13.3705 22.3379C13.402 22.3492 13.4356 22.3537 13.469 22.351C13.5299 22.3473 13.5893 22.3305 13.6428 22.3018C16.7763 21.1882 19.53 18.7596 21.131 15.6842C23.8211 10.4679 22.3084 5.12262 17.7126 3.72598C17.6699 3.67494 17.5664 3.67958 17.5141 3.68143Z" fill="url(#paint75_radial_3036_21184)"/>
<path d="M3.15875 23.8657L5.48327 25.8442C7.20672 27.3114 9.55307 28.1141 12.3201 27.9869C19.2509 27.6677 26.0991 21.6162 27.6744 14.4177C28.624 10.0848 27.4418 6.35424 24.84 4.1391L22.5155 2.15967C25.1173 4.37574 26.2995 8.10632 25.3499 12.4392C23.7727 19.6414 16.9245 25.6929 9.98987 26.0121C7.22666 26.1402 4.8803 25.3375 3.15306 23.8703" fill="url(#paint76_radial_3036_21184)"/>
<defs>
<linearGradient id="paint0_linear_3036_21184" x1="14.964" y1="13.6488" x2="1.70899" y2="13.8292" gradientUnits="userSpaceOnUse">
<stop stop-color="#4BF2A2"/>
<stop offset="0.522948" stop-color="#A89FE7"/>
<stop offset="0.669499" stop-color="#E1C4F4"/>
<stop offset="1" stop-color="#DD40CD"/>
</linearGradient>
<linearGradient id="paint1_linear_3036_21184" x1="14.964" y1="13.6488" x2="1.70899" y2="13.8292" gradientUnits="userSpaceOnUse">
<stop stop-color="#4BF2A2"/>
<stop offset="0.522948" stop-color="#A89FE7"/>
<stop offset="0.669499" stop-color="#E1C4F4"/>
<stop offset="1" stop-color="#DD40CD"/>
</linearGradient>
<linearGradient id="paint2_linear_3036_21184" x1="14.964" y1="13.6488" x2="1.70899" y2="13.8292" gradientUnits="userSpaceOnUse">
<stop stop-color="#4BF2A2"/>
<stop offset="0.522948" stop-color="#A89FE7"/>
<stop offset="0.669499" stop-color="#E1C4F4"/>
<stop offset="1" stop-color="#DD40CD"/>
</linearGradient>
<linearGradient id="paint3_linear_3036_21184" x1="14.964" y1="13.6488" x2="1.70899" y2="13.8292" gradientUnits="userSpaceOnUse">
<stop stop-color="#4BF2A2"/>
<stop offset="0.522948" stop-color="#A89FE7"/>
<stop offset="0.669499" stop-color="#E1C4F4"/>
<stop offset="1" stop-color="#DD40CD"/>
</linearGradient>
<linearGradient id="paint4_linear_3036_21184" x1="14.964" y1="13.6488" x2="1.70899" y2="13.8292" gradientUnits="userSpaceOnUse">
<stop stop-color="#4BF2A2"/>
<stop offset="0.522948" stop-color="#A89FE7"/>
<stop offset="0.669499" stop-color="#E1C4F4"/>
<stop offset="1" stop-color="#DD40CD"/>
</linearGradient>
<linearGradient id="paint5_linear_3036_21184" x1="14.7983" y1="4.95904" x2="11.6349" y2="5.05686" gradientUnits="userSpaceOnUse">
<stop stop-color="#4BF2A2"/>
<stop offset="0.522948" stop-color="#A89FE7"/>
<stop offset="0.669499" stop-color="#E1C4F4"/>
<stop offset="1" stop-color="#DD40CD"/>
</linearGradient>
<linearGradient id="paint6_linear_3036_21184" x1="14.7983" y1="4.95904" x2="11.6349" y2="5.05686" gradientUnits="userSpaceOnUse">
<stop stop-color="#4BF2A2"/>
<stop offset="0.522948" stop-color="#A89FE7"/>
<stop offset="0.669499" stop-color="#E1C4F4"/>
<stop offset="1" stop-color="#DD40CD"/>
</linearGradient>
<linearGradient id="paint7_linear_3036_21184" x1="14.8647" y1="5.07819" x2="12.0071" y2="5.15285" gradientUnits="userSpaceOnUse">
<stop stop-color="#4BF2A2"/>
<stop offset="0.522948" stop-color="#A89FE7"/>
<stop offset="0.669499" stop-color="#E1C4F4"/>
<stop offset="1" stop-color="#DD40CD"/>
</linearGradient>
<linearGradient id="paint8_linear_3036_21184" x1="14.8883" y1="5.27807" x2="12.1008" y2="5.34842" gradientUnits="userSpaceOnUse">
<stop stop-color="#4BF2A2"/>
<stop offset="0.522948" stop-color="#A89FE7"/>
<stop offset="0.669499" stop-color="#E1C4F4"/>
<stop offset="1" stop-color="#DD40CD"/>
</linearGradient>
<linearGradient id="paint9_linear_3036_21184" x1="14.8744" y1="5.76871" x2="11.9159" y2="5.83216" gradientUnits="userSpaceOnUse">
<stop stop-color="#4BF2A2"/>
<stop offset="0.522948" stop-color="#A89FE7"/>
<stop offset="0.669499" stop-color="#E1C4F4"/>
<stop offset="1" stop-color="#DD40CD"/>
</linearGradient>
<linearGradient id="paint10_linear_3036_21184" x1="14.7239" y1="6.42561" x2="11.4502" y2="6.50952" gradientUnits="userSpaceOnUse">
<stop stop-color="#4BF2A2"/>
<stop offset="0.522948" stop-color="#A89FE7"/>
<stop offset="0.669499" stop-color="#E1C4F4"/>
<stop offset="1" stop-color="#DD40CD"/>
</linearGradient>
<linearGradient id="paint11_linear_3036_21184" x1="14.964" y1="13.6488" x2="1.70899" y2="13.8292" gradientUnits="userSpaceOnUse">
<stop stop-color="#4BF2A2"/>
<stop offset="0.522948" stop-color="#A89FE7"/>
<stop offset="0.669499" stop-color="#E1C4F4"/>
<stop offset="1" stop-color="#DD40CD"/>
</linearGradient>
<linearGradient id="paint12_linear_3036_21184" x1="14.6819" y1="13.8265" x2="3.6144" y2="13.9763" gradientUnits="userSpaceOnUse">
<stop stop-color="#4BF2A2"/>
<stop offset="0.522948" stop-color="#A89FE7"/>
<stop offset="0.669499" stop-color="#E1C4F4"/>
<stop offset="1" stop-color="#DD40CD"/>
</linearGradient>
<linearGradient id="paint13_linear_3036_21184" x1="16.3666" y1="7.8502" x2="12.9985" y2="7.94283" gradientUnits="userSpaceOnUse">
<stop stop-color="#4BF2A2"/>
<stop offset="0.522948" stop-color="#A89FE7"/>
<stop offset="0.669499" stop-color="#E1C4F4"/>
<stop offset="1" stop-color="#DD40CD"/>
</linearGradient>
<linearGradient id="paint14_linear_3036_21184" x1="15.708" y1="10.5408" x2="9.58324" y2="10.7136" gradientUnits="userSpaceOnUse">
<stop stop-color="#4BF2A2"/>
<stop offset="0.522948" stop-color="#A89FE7"/>
<stop offset="0.669499" stop-color="#E1C4F4"/>
<stop offset="1" stop-color="#DD40CD"/>
</linearGradient>
<linearGradient id="paint15_linear_3036_21184" x1="12.7067" y1="11.7344" x2="9.93283" y2="11.8095" gradientUnits="userSpaceOnUse">
<stop stop-color="#4BF2A2"/>
<stop offset="0.522948" stop-color="#A89FE7"/>
<stop offset="0.669499" stop-color="#E1C4F4"/>
<stop offset="1" stop-color="#DD40CD"/>
</linearGradient>
<linearGradient id="paint16_linear_3036_21184" x1="12.7781" y1="11.9111" x2="9.90912" y2="11.9828" gradientUnits="userSpaceOnUse">
<stop stop-color="#4BF2A2"/>
<stop offset="0.522948" stop-color="#A89FE7"/>
<stop offset="0.669499" stop-color="#E1C4F4"/>
<stop offset="1" stop-color="#DD40CD"/>
</linearGradient>
<linearGradient id="paint17_linear_3036_21184" x1="12.9888" y1="12.0975" x2="9.98638" y2="12.1851" gradientUnits="userSpaceOnUse">
<stop stop-color="#4BF2A2"/>
<stop offset="0.522948" stop-color="#A89FE7"/>
<stop offset="0.669499" stop-color="#E1C4F4"/>
<stop offset="1" stop-color="#DD40CD"/>
</linearGradient>
<linearGradient id="paint18_linear_3036_21184" x1="17.1641" y1="7.60889" x2="13.4779" y2="7.7428" gradientUnits="userSpaceOnUse">
<stop stop-color="#4BF2A2"/>
<stop offset="0.522948" stop-color="#A89FE7"/>
<stop offset="0.669499" stop-color="#E1C4F4"/>
<stop offset="1" stop-color="#DD40CD"/>
</linearGradient>
<linearGradient id="paint19_linear_3036_21184" x1="15.708" y1="10.5408" x2="9.58324" y2="10.7136" gradientUnits="userSpaceOnUse">
<stop stop-color="#4BF2A2"/>
<stop offset="0.522948" stop-color="#A89FE7"/>
<stop offset="0.669499" stop-color="#E1C4F4"/>
<stop offset="1" stop-color="#DD40CD"/>
</linearGradient>
<linearGradient id="paint20_linear_3036_21184" x1="15.8414" y1="8.7294" x2="12.7416" y2="8.78757" gradientUnits="userSpaceOnUse">
<stop stop-color="#4BF2A2"/>
<stop offset="0.522948" stop-color="#A89FE7"/>
<stop offset="0.669499" stop-color="#E1C4F4"/>
<stop offset="1" stop-color="#DD40CD"/>
</linearGradient>
<linearGradient id="paint21_linear_3036_21184" x1="20.0011" y1="4.895" x2="16.7558" y2="4.98116" gradientUnits="userSpaceOnUse">
<stop stop-color="#4BF2A2"/>
<stop offset="0.522948" stop-color="#A89FE7"/>
<stop offset="0.669499" stop-color="#E1C4F4"/>
<stop offset="1" stop-color="#DD40CD"/>
</linearGradient>
<linearGradient id="paint22_linear_3036_21184" x1="17.3344" y1="7.62158" x2="14.3274" y2="7.70947" gradientUnits="userSpaceOnUse">
<stop stop-color="#4BF2A2"/>
<stop offset="0.522948" stop-color="#A89FE7"/>
<stop offset="0.669499" stop-color="#E1C4F4"/>
<stop offset="1" stop-color="#DD40CD"/>
</linearGradient>
<linearGradient id="paint23_linear_3036_21184" x1="20.178" y1="4.68539" x2="17.1925" y2="4.77318" gradientUnits="userSpaceOnUse">
<stop stop-color="#4BF2A2"/>
<stop offset="0.522948" stop-color="#A89FE7"/>
<stop offset="0.669499" stop-color="#E1C4F4"/>
<stop offset="1" stop-color="#DD40CD"/>
</linearGradient>
<linearGradient id="paint24_linear_3036_21184" x1="20.1737" y1="4.70966" x2="17.4056" y2="4.78612" gradientUnits="userSpaceOnUse">
<stop stop-color="#4BF2A2"/>
<stop offset="0.522948" stop-color="#A89FE7"/>
<stop offset="0.669499" stop-color="#E1C4F4"/>
<stop offset="1" stop-color="#DD40CD"/>
</linearGradient>
<linearGradient id="paint25_linear_3036_21184" x1="17.4503" y1="7.82917" x2="14.5414" y2="7.90125" gradientUnits="userSpaceOnUse">
<stop stop-color="#4BF2A2"/>
<stop offset="0.522948" stop-color="#A89FE7"/>
<stop offset="0.669499" stop-color="#E1C4F4"/>
<stop offset="1" stop-color="#DD40CD"/>
</linearGradient>
<linearGradient id="paint26_linear_3036_21184" x1="13.8611" y1="12.1042" x2="10.112" y2="12.2426" gradientUnits="userSpaceOnUse">
<stop stop-color="#4BF2A2"/>
<stop offset="0.522948" stop-color="#A89FE7"/>
<stop offset="0.669499" stop-color="#E1C4F4"/>
<stop offset="1" stop-color="#DD40CD"/>
</linearGradient>
<linearGradient id="paint27_linear_3036_21184" x1="19.5782" y1="5.49822" x2="16.6197" y2="5.5617" gradientUnits="userSpaceOnUse">
<stop stop-color="#4BF2A2"/>
<stop offset="0.522948" stop-color="#A89FE7"/>
<stop offset="0.669499" stop-color="#E1C4F4"/>
<stop offset="1" stop-color="#DD40CD"/>
</linearGradient>
<linearGradient id="paint28_linear_3036_21184" x1="19.5172" y1="6.111" x2="16.6046" y2="6.17978" gradientUnits="userSpaceOnUse">
<stop stop-color="#4BF2A2"/>
<stop offset="0.522948" stop-color="#A89FE7"/>
<stop offset="0.669499" stop-color="#E1C4F4"/>
<stop offset="1" stop-color="#DD40CD"/>
</linearGradient>
<linearGradient id="paint29_linear_3036_21184" x1="19.6021" y1="6.37466" x2="16.7381" y2="6.45457" gradientUnits="userSpaceOnUse">
<stop stop-color="#4BF2A2"/>
<stop offset="0.522948" stop-color="#A89FE7"/>
<stop offset="0.669499" stop-color="#E1C4F4"/>
<stop offset="1" stop-color="#DD40CD"/>
</linearGradient>
<linearGradient id="paint30_linear_3036_21184" x1="17.4559" y1="8.62776" x2="14.3708" y2="8.68632" gradientUnits="userSpaceOnUse">
<stop stop-color="#4BF2A2"/>
<stop offset="0.522948" stop-color="#A89FE7"/>
<stop offset="0.669499" stop-color="#E1C4F4"/>
<stop offset="1" stop-color="#DD40CD"/>
</linearGradient>
<linearGradient id="paint31_linear_3036_21184" x1="17.8978" y1="14.6199" x2="7.78279" y2="14.8325" gradientUnits="userSpaceOnUse">
<stop stop-color="#4BF2A2"/>
<stop offset="0.522948" stop-color="#A89FE7"/>
<stop offset="0.669499" stop-color="#E1C4F4"/>
<stop offset="1" stop-color="#DD40CD"/>
</linearGradient>
<linearGradient id="paint32_linear_3036_21184" x1="17.4764" y1="11.3312" x2="10.6136" y2="11.5997" gradientUnits="userSpaceOnUse">
<stop stop-color="#4BF2A2"/>
<stop offset="0.522948" stop-color="#A89FE7"/>
<stop offset="0.669499" stop-color="#E1C4F4"/>
<stop offset="1" stop-color="#DD40CD"/>
</linearGradient>
<linearGradient id="paint33_linear_3036_21184" x1="18.654" y1="9.52053" x2="14.2292" y2="9.67493" gradientUnits="userSpaceOnUse">
<stop stop-color="#4BF2A2"/>
<stop offset="0.522948" stop-color="#A89FE7"/>
<stop offset="0.669499" stop-color="#E1C4F4"/>
<stop offset="1" stop-color="#DD40CD"/>
</linearGradient>
<linearGradient id="paint34_linear_3036_21184" x1="21.3979" y1="6.89572" x2="16.6205" y2="7.04887" gradientUnits="userSpaceOnUse">
<stop stop-color="#4BF2A2"/>
<stop offset="0.522948" stop-color="#A89FE7"/>
<stop offset="0.669499" stop-color="#E1C4F4"/>
<stop offset="1" stop-color="#DD40CD"/>
</linearGradient>
<linearGradient id="paint35_linear_3036_21184" x1="22.7055" y1="5.35982" x2="17.1094" y2="5.55018" gradientUnits="userSpaceOnUse">
<stop stop-color="#4BF2A2"/>
<stop offset="0.522948" stop-color="#A89FE7"/>
<stop offset="0.669499" stop-color="#E1C4F4"/>
<stop offset="1" stop-color="#DD40CD"/>
</linearGradient>
<linearGradient id="paint36_linear_3036_21184" x1="17.8978" y1="14.6199" x2="7.78279" y2="14.8325" gradientUnits="userSpaceOnUse">
<stop stop-color="#4BF2A2"/>
<stop offset="0.522948" stop-color="#A89FE7"/>
<stop offset="0.669499" stop-color="#E1C4F4"/>
<stop offset="1" stop-color="#DD40CD"/>
</linearGradient>
<linearGradient id="paint37_linear_3036_21184" x1="17.8978" y1="14.6199" x2="7.78279" y2="14.8325" gradientUnits="userSpaceOnUse">
<stop stop-color="#4BF2A2"/>
<stop offset="0.522948" stop-color="#A89FE7"/>
<stop offset="0.669499" stop-color="#E1C4F4"/>
<stop offset="1" stop-color="#DD40CD"/>
</linearGradient>
<linearGradient id="paint38_linear_3036_21184" x1="17.8978" y1="14.6199" x2="7.78279" y2="14.8325" gradientUnits="userSpaceOnUse">
<stop stop-color="#4BF2A2"/>
<stop offset="0.522948" stop-color="#A89FE7"/>
<stop offset="0.669499" stop-color="#E1C4F4"/>
<stop offset="1" stop-color="#DD40CD"/>
</linearGradient>
<linearGradient id="paint39_linear_3036_21184" x1="15.4389" y1="16.011" x2="9.96496" y2="16.1401" gradientUnits="userSpaceOnUse">
<stop stop-color="#4BF2A2"/>
<stop offset="0.522948" stop-color="#A89FE7"/>
<stop offset="0.669499" stop-color="#E1C4F4"/>
<stop offset="1" stop-color="#DD40CD"/>
</linearGradient>
<linearGradient id="paint40_linear_3036_21184" x1="23.671" y1="14.5062" x2="12.6035" y2="14.6561" gradientUnits="userSpaceOnUse">
<stop stop-color="#4BF2A2"/>
<stop offset="0.522948" stop-color="#A89FE7"/>
<stop offset="0.669499" stop-color="#E1C4F4"/>
<stop offset="1" stop-color="#DD40CD"/>
</linearGradient>
<linearGradient id="paint41_linear_3036_21184" x1="13.4686" y1="18.6854" x2="9.09774" y2="18.835" gradientUnits="userSpaceOnUse">
<stop stop-color="#4BF2A2"/>
<stop offset="0.522948" stop-color="#A89FE7"/>
<stop offset="0.669499" stop-color="#E1C4F4"/>
<stop offset="1" stop-color="#DD40CD"/>
</linearGradient>
<linearGradient id="paint42_linear_3036_21184" x1="11.035" y1="21.4327" x2="6.2588" y2="21.5855" gradientUnits="userSpaceOnUse">
<stop stop-color="#4BF2A2"/>
<stop offset="0.522948" stop-color="#A89FE7"/>
<stop offset="0.669499" stop-color="#E1C4F4"/>
<stop offset="1" stop-color="#DD40CD"/>
</linearGradient>
<linearGradient id="paint43_linear_3036_21184" x1="11.0278" y1="21.9501" x2="8.16273" y2="22.0301" gradientUnits="userSpaceOnUse">
<stop stop-color="#4BF2A2"/>
<stop offset="0.522948" stop-color="#A89FE7"/>
<stop offset="0.669499" stop-color="#E1C4F4"/>
<stop offset="1" stop-color="#DD40CD"/>
</linearGradient>
<linearGradient id="paint44_linear_3036_21184" x1="19.4363" y1="12.2424" x2="12.04" y2="12.4" gradientUnits="userSpaceOnUse">
<stop stop-color="#4BF2A2"/>
<stop offset="0.522948" stop-color="#A89FE7"/>
<stop offset="0.669499" stop-color="#E1C4F4"/>
<stop offset="1" stop-color="#DD40CD"/>
</linearGradient>
<linearGradient id="paint45_linear_3036_21184" x1="11.1568" y1="22.2161" x2="8.2453" y2="22.285" gradientUnits="userSpaceOnUse">
<stop stop-color="#4BF2A2"/>
<stop offset="0.522948" stop-color="#A89FE7"/>
<stop offset="0.669499" stop-color="#E1C4F4"/>
<stop offset="1" stop-color="#DD40CD"/>
</linearGradient>
<linearGradient id="paint46_linear_3036_21184" x1="13.4049" y1="19.6169" x2="10.305" y2="19.675" gradientUnits="userSpaceOnUse">
<stop stop-color="#4BF2A2"/>
<stop offset="0.522948" stop-color="#A89FE7"/>
<stop offset="0.669499" stop-color="#E1C4F4"/>
<stop offset="1" stop-color="#DD40CD"/>
</linearGradient>
<linearGradient id="paint47_linear_3036_21184" x1="16.9447" y1="16.8822" x2="10.1719" y2="17.1441" gradientUnits="userSpaceOnUse">
<stop stop-color="#4BF2A2"/>
<stop offset="0.522948" stop-color="#A89FE7"/>
<stop offset="0.669499" stop-color="#E1C4F4"/>
<stop offset="1" stop-color="#DD40CD"/>
</linearGradient>
<linearGradient id="paint48_linear_3036_21184" x1="17.2101" y1="15.9605" x2="13.9323" y2="16.0524" gradientUnits="userSpaceOnUse">
<stop stop-color="#4BF2A2"/>
<stop offset="0.522948" stop-color="#A89FE7"/>
<stop offset="0.669499" stop-color="#E1C4F4"/>
<stop offset="1" stop-color="#DD40CD"/>
</linearGradient>
<linearGradient id="paint49_linear_3036_21184" x1="10.4999" y1="22.965" x2="4.90263" y2="23.1555" gradientUnits="userSpaceOnUse">
<stop stop-color="#4BF2A2"/>
<stop offset="0.522948" stop-color="#A89FE7"/>
<stop offset="0.669499" stop-color="#E1C4F4"/>
<stop offset="1" stop-color="#DD40CD"/>
</linearGradient>
<linearGradient id="paint50_linear_3036_21184" x1="10.3699" y1="23.6149" x2="7.59613" y2="23.6916" gradientUnits="userSpaceOnUse">
<stop stop-color="#4BF2A2"/>
<stop offset="0.522948" stop-color="#A89FE7"/>
<stop offset="0.669499" stop-color="#E1C4F4"/>
<stop offset="1" stop-color="#DD40CD"/>
</linearGradient>
<linearGradient id="paint51_linear_3036_21184" x1="16.9447" y1="16.8822" x2="10.1719" y2="17.1441" gradientUnits="userSpaceOnUse">
<stop stop-color="#4BF2A2"/>
<stop offset="0.522948" stop-color="#A89FE7"/>
<stop offset="0.669499" stop-color="#E1C4F4"/>
<stop offset="1" stop-color="#DD40CD"/>
</linearGradient>
<linearGradient id="paint52_linear_3036_21184" x1="13.2279" y1="20.4417" x2="10.3236" y2="20.5136" gradientUnits="userSpaceOnUse">
<stop stop-color="#4BF2A2"/>
<stop offset="0.522948" stop-color="#A89FE7"/>
<stop offset="0.669499" stop-color="#E1C4F4"/>
<stop offset="1" stop-color="#DD40CD"/>
</linearGradient>
<linearGradient id="paint53_linear_3036_21184" x1="10.5706" y1="23.6392" x2="7.58512" y2="23.727" gradientUnits="userSpaceOnUse">
<stop stop-color="#4BF2A2"/>
<stop offset="0.522948" stop-color="#A89FE7"/>
<stop offset="0.669499" stop-color="#E1C4F4"/>
<stop offset="1" stop-color="#DD40CD"/>
</linearGradient>
<linearGradient id="paint54_linear_3036_21184" x1="11.1386" y1="22.8276" x2="8.18016" y2="22.891" gradientUnits="userSpaceOnUse">
<stop stop-color="#4BF2A2"/>
<stop offset="0.522948" stop-color="#A89FE7"/>
<stop offset="0.669499" stop-color="#E1C4F4"/>
<stop offset="1" stop-color="#DD40CD"/>
</linearGradient>
<radialGradient id="paint55_radial_3036_21184" cx="0" cy="0" r="1" gradientUnits="userSpaceOnUse" gradientTransform="translate(10.8423 10.8699) rotate(103.711) scale(33.5531 158.529)">
<stop stop-color="#4BF2A2"/>
<stop offset="0.421875" stop-color="#564D8F"/>
<stop offset="1" stop-color="#DD40CD"/>
</radialGradient>
<linearGradient id="paint56_linear_3036_21184" x1="10.987" y1="23.4281" x2="7.74171" y2="23.5141" gradientUnits="userSpaceOnUse">
<stop stop-color="#4BF2A2"/>
<stop offset="0.522948" stop-color="#A89FE7"/>
<stop offset="0.669499" stop-color="#E1C4F4"/>
<stop offset="1" stop-color="#DD40CD"/>
</linearGradient>
<linearGradient id="paint57_linear_3036_21184" x1="13.437" y1="20.6491" x2="10.4357" y2="20.7367" gradientUnits="userSpaceOnUse">
<stop stop-color="#4BF2A2"/>
<stop offset="0.522948" stop-color="#A89FE7"/>
<stop offset="0.669499" stop-color="#E1C4F4"/>
<stop offset="1" stop-color="#DD40CD"/>
</linearGradient>
<linearGradient id="paint58_linear_3036_21184" x1="18.1191" y1="15.7697" x2="14.3092" y2="15.9125" gradientUnits="userSpaceOnUse">
<stop stop-color="#4BF2A2"/>
<stop offset="0.522948" stop-color="#A89FE7"/>
<stop offset="0.669499" stop-color="#E1C4F4"/>
<stop offset="1" stop-color="#DD40CD"/>
</linearGradient>
<linearGradient id="paint59_linear_3036_21184" x1="18.2828" y1="15.7789" x2="15.277" y2="15.8667" gradientUnits="userSpaceOnUse">
<stop stop-color="#4BF2A2"/>
<stop offset="0.522948" stop-color="#A89FE7"/>
<stop offset="0.669499" stop-color="#E1C4F4"/>
<stop offset="1" stop-color="#DD40CD"/>
</linearGradient>
<linearGradient id="paint60_linear_3036_21184" x1="14.254" y1="20.6626" x2="10.5678" y2="20.7966" gradientUnits="userSpaceOnUse">
<stop stop-color="#4BF2A2"/>
<stop offset="0.522948" stop-color="#A89FE7"/>
<stop offset="0.669499" stop-color="#E1C4F4"/>
<stop offset="1" stop-color="#DD40CD"/>
</linearGradient>
<linearGradient id="paint61_linear_3036_21184" x1="18.3677" y1="15.9609" x2="15.4949" y2="16.0328" gradientUnits="userSpaceOnUse">
<stop stop-color="#4BF2A2"/>
<stop offset="0.522948" stop-color="#A89FE7"/>
<stop offset="0.669499" stop-color="#E1C4F4"/>
<stop offset="1" stop-color="#DD40CD"/>
</linearGradient>
<linearGradient id="paint62_linear_3036_21184" x1="15.0209" y1="19.5424" x2="11.9211" y2="19.6006" gradientUnits="userSpaceOnUse">
<stop stop-color="#4BF2A2"/>
<stop offset="0.522948" stop-color="#A89FE7"/>
<stop offset="0.669499" stop-color="#E1C4F4"/>
<stop offset="1" stop-color="#DD40CD"/>
</linearGradient>
<linearGradient id="paint63_linear_3036_21184" x1="18.3501" y1="16.1387" x2="15.5751" y2="16.2139" gradientUnits="userSpaceOnUse">
<stop stop-color="#4BF2A2"/>
<stop offset="0.522948" stop-color="#A89FE7"/>
<stop offset="0.669499" stop-color="#E1C4F4"/>
<stop offset="1" stop-color="#DD40CD"/>
</linearGradient>
<linearGradient id="paint64_linear_3036_21184" x1="14.7495" y1="20.4181" x2="11.3815" y2="20.5107" gradientUnits="userSpaceOnUse">
<stop stop-color="#4BF2A2"/>
<stop offset="0.522948" stop-color="#A89FE7"/>
<stop offset="0.669499" stop-color="#E1C4F4"/>
<stop offset="1" stop-color="#DD40CD"/>
</linearGradient>
<linearGradient id="paint65_linear_3036_21184" x1="18.5351" y1="17.5287" x2="11.8174" y2="17.7191" gradientUnits="userSpaceOnUse">
<stop stop-color="#4BF2A2"/>
<stop offset="0.522948" stop-color="#A89FE7"/>
<stop offset="0.669499" stop-color="#E1C4F4"/>
<stop offset="1" stop-color="#DD40CD"/>
</linearGradient>
<linearGradient id="paint66_linear_3036_21184" x1="16.294" y1="21.8741" x2="13.0295" y2="21.9595" gradientUnits="userSpaceOnUse">
<stop stop-color="#4BF2A2"/>
<stop offset="0.522948" stop-color="#A89FE7"/>
<stop offset="0.669499" stop-color="#E1C4F4"/>
<stop offset="1" stop-color="#DD40CD"/>
</linearGradient>
<linearGradient id="paint67_linear_3036_21184" x1="15.8542" y1="22.5033" x2="12.8957" y2="22.5668" gradientUnits="userSpaceOnUse">
<stop stop-color="#4BF2A2"/>
<stop offset="0.522948" stop-color="#A89FE7"/>
<stop offset="0.669499" stop-color="#E1C4F4"/>
<stop offset="1" stop-color="#DD40CD"/>
</linearGradient>
<linearGradient id="paint68_linear_3036_21184" x1="15.6857" y1="22.9893" x2="12.8932" y2="23.0598" gradientUnits="userSpaceOnUse">
<stop stop-color="#4BF2A2"/>
<stop offset="0.522948" stop-color="#A89FE7"/>
<stop offset="0.669499" stop-color="#E1C4F4"/>
<stop offset="1" stop-color="#DD40CD"/>
</linearGradient>
<linearGradient id="paint69_linear_3036_21184" x1="15.7694" y1="23.1924" x2="12.9129" y2="23.267" gradientUnits="userSpaceOnUse">
<stop stop-color="#4BF2A2"/>
<stop offset="0.522948" stop-color="#A89FE7"/>
<stop offset="0.669499" stop-color="#E1C4F4"/>
<stop offset="1" stop-color="#DD40CD"/>
</linearGradient>
<linearGradient id="paint70_linear_3036_21184" x1="23.671" y1="14.5062" x2="12.6035" y2="14.6561" gradientUnits="userSpaceOnUse">
<stop stop-color="#4BF2A2"/>
<stop offset="0.522948" stop-color="#A89FE7"/>
<stop offset="0.669499" stop-color="#E1C4F4"/>
<stop offset="1" stop-color="#DD40CD"/>
</linearGradient>
<linearGradient id="paint71_linear_3036_21184" x1="16.1257" y1="23.3156" x2="12.9613" y2="23.4135" gradientUnits="userSpaceOnUse">
<stop stop-color="#4BF2A2"/>
<stop offset="0.522948" stop-color="#A89FE7"/>
<stop offset="0.669499" stop-color="#E1C4F4"/>
<stop offset="1" stop-color="#DD40CD"/>
</linearGradient>
<linearGradient id="paint72_linear_3036_21184" x1="23.671" y1="14.5062" x2="12.6035" y2="14.6561" gradientUnits="userSpaceOnUse">
<stop stop-color="#4BF2A2"/>
<stop offset="0.522948" stop-color="#A89FE7"/>
<stop offset="0.669499" stop-color="#E1C4F4"/>
<stop offset="1" stop-color="#DD40CD"/>
</linearGradient>
<linearGradient id="paint73_linear_3036_21184" x1="25.4482" y1="14.6502" x2="12.2086" y2="14.8307" gradientUnits="userSpaceOnUse">
<stop stop-color="#4BF2A2"/>
<stop offset="0.522948" stop-color="#A89FE7"/>
<stop offset="0.669499" stop-color="#E1C4F4"/>
<stop offset="1" stop-color="#DD40CD"/>
</linearGradient>
<linearGradient id="paint74_linear_3036_21184" x1="27.2035" y1="13.0103" x2="-3.29378" y2="13.7198" gradientUnits="userSpaceOnUse">
<stop stop-color="#4BF2A2"/>
<stop offset="0.522948" stop-color="#A89FE7"/>
<stop offset="0.669499" stop-color="#E1C4F4"/>
<stop offset="1" stop-color="#DD40CD"/>
</linearGradient>
<radialGradient id="paint75_radial_3036_21184" cx="0" cy="0" r="1" gradientUnits="userSpaceOnUse" gradientTransform="translate(20.8817 10.5928) rotate(103.733) scale(33.4524 158.292)">
<stop stop-color="#4BF2A2"/>
<stop offset="0.421875" stop-color="#564D8F"/>
<stop offset="1" stop-color="#DD40CD"/>
</radialGradient>
<radialGradient id="paint76_radial_3036_21184" cx="0" cy="0" r="1" gradientUnits="userSpaceOnUse" gradientTransform="translate(23.7639 11.7261) rotate(115.335) scale(49.7591 394.876)">
<stop stop-color="#4BF2A2"/>
<stop offset="0.421875" stop-color="#564D8F"/>
<stop offset="1" stop-color="#DD40CD"/>
</radialGradient>
</defs>
</svg>
