<svg width="157" height="36" viewBox="0 0 157 36" fill="none" xmlns="http://www.w3.org/2000/svg">
<path d="M46.7157 31C44.7555 31 43.0403 30.606 41.5702 29.8181C40.1001 29.0301 38.9708 27.9014 38.1825 26.4319C37.3942 24.9625 37 23.2269 37 21.225V9.69306C37 9.16065 37.1598 8.74537 37.4794 8.44722C37.799 8.14907 38.2358 8 38.7897 8C39.3437 8 39.7805 8.15972 40.1001 8.47917C40.441 8.77731 40.6114 9.18194 40.6114 9.69306V21.3208C40.6114 23.4931 41.1441 25.1648 42.2094 26.3361C43.296 27.5074 44.83 28.0931 46.8115 28.0931C48.793 28.0931 50.3271 27.5074 51.4137 26.3361C52.5003 25.1435 53.0436 23.4718 53.0436 21.3208V9.69306C53.0436 9.18194 53.2034 8.77731 53.523 8.47917C53.8639 8.15972 54.3113 8 54.8653 8C55.4193 8 55.856 8.14907 56.1756 8.44722C56.5165 8.74537 56.687 9.16065 56.687 9.69306V21.225C56.687 23.163 56.2715 24.8773 55.4406 26.3681C54.6309 27.8375 53.4697 28.9769 51.957 29.7861C50.4656 30.5954 48.7184 31 46.7157 31Z" fill="white"/>
<path d="M62.2599 31C61.7059 31 61.2692 30.8509 60.9496 30.5528C60.63 30.2546 60.4702 29.8394 60.4702 29.3069V16.9125C60.4702 14.1227 61.3331 11.9398 63.0589 10.3639C64.806 8.78796 67.203 8 70.2497 8C72.2525 8 73.989 8.36204 75.4591 9.08611C76.9293 9.78889 78.0478 10.8111 78.8149 12.1528C79.6032 13.4944 79.9974 15.081 79.9974 16.9125V29.3069C79.9974 29.8394 79.8376 30.2546 79.518 30.5528C79.1984 30.8509 78.7616 31 78.2076 31C77.6537 31 77.2062 30.8509 76.8653 30.5528C76.5457 30.2333 76.386 29.8181 76.386 29.3069V16.8167C76.386 14.9213 75.8533 13.4625 74.788 12.4403C73.7227 11.4181 72.2099 10.9069 70.2497 10.9069C68.2896 10.9069 66.7662 11.4287 65.6796 12.4722C64.6142 13.4944 64.0816 14.9426 64.0816 16.8167V29.3069C64.0816 29.8181 63.9111 30.2333 63.5702 30.5528C63.2506 30.8509 62.8139 31 62.2599 31Z" fill="white"/>
<path d="M86.6934 31C86.1394 31 85.692 30.8509 85.3511 30.5528C85.0315 30.2546 84.8717 29.8394 84.8717 29.3069V9.69306C84.8717 9.16065 85.0315 8.74537 85.3511 8.44722C85.692 8.14907 86.1394 8 86.6934 8C87.226 8 87.6628 8.15972 88.0037 8.47917C88.3446 8.77731 88.515 9.18194 88.515 9.69306V29.3069C88.515 29.8181 88.3446 30.2333 88.0037 30.5528C87.6628 30.8509 87.226 31 86.6934 31Z" fill="white"/>
<path d="M102.633 31C102.079 31 101.632 30.8509 101.291 30.5528C100.971 30.2546 100.812 29.8394 100.812 29.3069V11.1625H94.26C93.706 11.1625 93.2799 11.0454 92.9816 10.8111C92.6833 10.5556 92.5342 10.2042 92.5342 9.75694C92.5342 9.28843 92.6833 8.93704 92.9816 8.70278C93.2799 8.44722 93.706 8.31944 94.26 8.31944H111.007C111.561 8.31944 111.987 8.44722 112.285 8.70278C112.605 8.93704 112.764 9.28843 112.764 9.75694C112.764 10.2042 112.605 10.5556 112.285 10.8111C111.987 11.0454 111.561 11.1625 111.007 11.1625H104.455V29.3069C104.455 29.8181 104.285 30.2333 103.944 30.5528C103.624 30.8509 103.187 31 102.633 31Z" fill="white"/>
<path d="M115.692 30.9681C115.138 30.9681 114.701 30.819 114.382 30.5208C114.062 30.2227 113.902 29.8074 113.902 29.275V17.6472C113.902 14.6231 114.765 12.2593 116.491 10.5556C118.217 8.85185 120.614 8 123.682 8C125.685 8 127.421 8.39398 128.891 9.18194C130.361 9.94861 131.48 11.056 132.247 12.5042C133.035 13.9523 133.429 15.6667 133.429 17.6472V29.275C133.429 29.8074 133.27 30.2227 132.95 30.5208C132.63 30.819 132.194 30.9681 131.64 30.9681C131.086 30.9681 130.638 30.819 130.297 30.5208C129.957 30.2014 129.786 29.7861 129.786 29.275V23.3972H117.546V29.275C117.546 29.7861 117.375 30.2014 117.034 30.5208C116.693 30.819 116.246 30.9681 115.692 30.9681ZM129.786 20.5542V17.5514C129.786 15.3792 129.264 13.7287 128.22 12.6C127.197 11.4713 125.685 10.9069 123.682 10.9069C121.658 10.9069 120.124 11.4713 119.08 12.6C118.057 13.7074 117.546 15.3579 117.546 17.5514V20.5542H129.786Z" fill="white"/>
<path d="M139.135 31C138.581 31 138.144 30.8509 137.824 30.5528C137.505 30.2546 137.345 29.8394 137.345 29.3069V12.7597C137.345 11.3755 137.75 10.2894 138.559 9.50139C139.369 8.71343 140.498 8.31944 141.947 8.31944H147.38C150.534 8.31944 152.92 8.97963 154.539 10.3C156.18 11.6204 157 13.569 157 16.1458C157 18.6801 156.19 20.6074 154.571 21.9278C152.973 23.2269 150.629 23.8764 147.54 23.8764H140.988V29.3069C140.988 29.8181 140.818 30.2333 140.477 30.5528C140.136 30.8509 139.689 31 139.135 31ZM147.508 21.0014C151.386 21.0014 153.325 19.3829 153.325 16.1458C153.325 14.4421 152.835 13.1856 151.855 12.3764C150.896 11.5671 149.458 11.1625 147.54 11.1625H142.458C141.99 11.1625 141.628 11.3116 141.372 11.6097C141.116 11.9079 140.988 12.3125 140.988 12.8236V21.0014H147.508Z" fill="white"/>
<path d="M14.7438 8.67124C14.7533 8.685 14.758 8.69876 14.7675 8.71253C14.8764 8.91439 14.9711 9.09331 15.0421 9.23553C15.1132 9.37775 15.1652 9.48326 15.1889 9.54291C18.4229 16.4015 8.51261 26.6918 8.47473 26.7239C8.35635 26.8249 8.2948 26.9625 8.2948 27.1047C8.2948 27.224 8.33741 27.3433 8.42264 27.4396C8.43211 27.4488 8.43685 27.458 8.44632 27.4671L10.5534 29.5087C10.757 29.7059 11.0837 29.7243 11.311 29.5408C13.4559 27.6552 15.2647 25.444 16.671 22.9941C17.8926 20.8608 18.5886 18.9248 18.868 17.6081V17.6035C19.1852 16.4933 19.1331 15.4381 20.1559 17.3237C20.2885 17.5806 20.4163 17.8375 20.5347 18.0944L20.5394 18.099L20.5536 18.1311C20.7004 18.4477 20.8377 18.7688 20.9656 19.0945C20.9845 19.1404 20.9987 19.1817 21.0177 19.223C21.0603 19.3285 21.0982 19.434 21.136 19.5396C21.136 19.5396 21.1976 19.7047 21.2544 19.879C21.3112 20.0534 21.4438 20.4846 21.6048 21.0764C21.6379 21.1957 21.7658 21.2691 21.8889 21.237C21.9504 21.2187 22.0073 21.1774 22.0357 21.1223C22.476 20.2965 23.0111 19.3423 23.6361 18.1541C23.6977 18.044 23.7071 17.9155 23.6598 17.7962C23.423 17.209 23.0632 16.4337 22.3245 15.1583C21.3823 13.5296 20.2979 11.9836 19.2752 10.4008C18.4513 9.12542 17.6558 7.83627 16.8982 6.5196C16.7515 6.26268 16.6047 6.00118 16.4579 5.73968C16.3963 5.62958 16.2543 5.58829 16.1454 5.64793C16.1028 5.66628 16.0696 5.70298 16.0507 5.74427L14.7249 8.2354C14.6633 8.37762 14.6681 8.53819 14.7438 8.67124Z" fill="white"/>
<path d="M24.8956 22.347C24.834 21.8515 24.7441 21.3606 24.6352 20.8697C24.6257 20.8193 24.46 20.1724 24.3321 19.6723C24.3037 19.5485 24.1759 19.4751 24.0528 19.5072C23.9865 19.5255 23.9344 19.5668 23.9013 19.6219L22.1683 22.8792C22.1351 22.9388 22.1209 23.0076 22.1162 23.0718C22.0404 25.6364 21.2544 27.6504 20.7525 28.5175C19.7297 30.2792 18.2572 31.5775 16.3442 32.3574C13.6974 33.4401 11.0269 33.4217 8.4179 32.2473C8.16695 32.1326 7.92547 32.0133 7.69345 31.8849C6.50971 31.2426 5.49169 30.3388 4.71989 29.2561C4.13276 28.4303 3.6782 27.4944 3.34675 26.4576C2.82117 24.806 2.9064 23.1498 3.2852 21.4799C3.8676 18.9108 5.09869 16.6353 6.56653 14.4515C8.48893 11.598 10.3403 8.7031 11.9313 5.66603C12.0354 5.46875 12.1396 5.26689 12.239 5.06503L12.2485 5.0421C12.2722 4.99622 12.3006 4.95034 12.329 4.90446C12.4379 4.75307 12.5468 4.74848 12.651 4.89988C12.722 5.01457 12.7883 5.13385 12.8498 5.25772C12.9019 5.35865 13.3091 6.17985 13.8205 7.21668C13.8773 7.33137 14.0146 7.37725 14.1283 7.32678C14.1756 7.30843 14.2135 7.27173 14.2372 7.22585L15.6293 4.60626C15.6956 4.47781 15.6956 4.32641 15.6293 4.19337C15.3688 3.69331 15.1131 3.18407 14.8622 2.67483C14.5923 2.11054 14.3413 1.51414 14.0478 0.94526C13.74 0.348856 13.2334 0.00936418 12.5279 0.000188737C11.8271 -0.00898671 11.3204 0.316742 10.9843 0.899382C10.9227 1.00949 10.8659 1.12877 10.8091 1.24346C10.4303 2.00044 10.0657 2.762 9.69161 3.51897C9.41225 4.08326 9.12815 4.64296 8.82511 5.1889C8.74462 5.33112 8.66886 5.47334 8.58363 5.61556C7.43303 7.6204 6.1972 9.57935 4.95664 11.5337C3.8676 13.2587 2.67912 14.924 1.80789 16.7775C0.955594 18.5851 0.344783 20.4614 0.0985647 22.4296C-0.128714 24.2601 0.0275401 26.0676 0.666761 27.8201C0.998209 28.7377 1.43383 29.6185 1.96414 30.4443C2.45658 31.2059 3.03898 31.9078 3.70661 32.5317C3.94809 32.7565 4.19431 32.9721 4.44527 33.1786C6.72752 35.032 9.43592 35.9909 12.9019 35.9909C13.7258 36.0459 14.9522 35.8486 16.1501 35.4908C18.9343 34.665 21.1692 33.0914 22.8122 30.7563C24.1001 28.9258 24.8435 26.9026 24.9808 24.6867C25.0234 23.9068 24.995 23.1269 24.8956 22.347Z" fill="white"/>
</svg>
