<svg width="182" height="54" viewBox="0 0 182 54" fill="none" xmlns="http://www.w3.org/2000/svg">
  <path
    d="M43.9996 26.8987C44.0688 39.0546 34.3296 48.8917 22.132 48.9991C10.079 49.1065 0.0631732 39.1936 0.000299081 27.1072C-0.0625751 15.0966 9.79609 5.07626 21.7548 5.00044C34.0152 4.92462 43.9305 14.6796 43.9996 26.8987Z"
    fill="black" />
  <g clip-path="url(#clip0_234_418)">
    <mask id="mask0_234_418" style="mask-type:luminance" maskUnits="userSpaceOnUse" x="9" y="14" width="25" height="25">
      <path
        d="M34 26.5C34 19.5964 28.4036 14 21.5 14C14.5964 14 9 19.5964 9 26.5C9 33.4036 14.5964 39 21.5 39C28.4036 39 34 33.4036 34 26.5Z"
        fill="white" />
    </mask>
    <g mask="url(#mask0_234_418)">
      <path
        d="M28.4999 28.1987C28.5637 28.4888 28.6149 28.7804 28.6508 29.0744C28.7093 29.5347 28.7255 29.9994 28.6993 30.4627C28.6205 31.7767 28.1916 32.9782 27.4491 34.0648C26.4998 35.453 25.2104 36.3858 23.6046 36.8772C22.9148 37.0881 22.2053 37.2075 21.7311 37.173C19.7312 37.1741 18.1686 36.6043 16.8522 35.5033C16.7069 35.3818 16.5645 35.2539 16.4251 35.1196C16.0409 34.7486 15.7032 34.3325 15.4196 33.8804C15.1134 33.3905 14.8626 32.8684 14.6716 32.3234C14.3014 31.282 14.2103 30.2099 14.3425 29.1232C14.4845 27.9539 14.8363 26.8413 15.3282 25.7673C15.7168 24.9185 16.2134 24.136 16.7104 23.3529C16.8575 23.121 17.0046 22.8892 17.1489 22.6555C17.8655 21.4963 18.5777 20.3325 19.242 19.143C19.2891 19.0585 19.3352 18.9737 19.3806 18.8886C19.5551 18.5625 19.7187 18.2307 19.8795 17.8968C19.9664 17.7158 20.0524 17.534 20.1383 17.3523C20.2659 17.0824 20.3934 16.8126 20.5245 16.5446C20.5337 16.5257 20.5428 16.5066 20.5519 16.4876C20.5754 16.4382 20.599 16.3889 20.6253 16.3413C20.8194 15.9939 21.1107 15.8004 21.5163 15.8068C21.922 15.8132 22.2155 16.0136 22.3926 16.368C22.4936 16.5688 22.585 16.7751 22.6765 16.9814C22.7386 17.1215 22.8008 17.2617 22.8658 17.4001C23.0092 17.7029 23.1565 18.0035 23.3079 18.3017C23.3272 18.3394 23.3373 18.3812 23.3373 18.4235C23.3373 18.4658 23.3272 18.5075 23.3079 18.5451L22.5037 20.0992C22.4923 20.1216 22.4749 20.1404 22.4534 20.1534C22.4318 20.1664 22.407 20.1731 22.3818 20.1727C22.3567 20.1723 22.3321 20.1648 22.311 20.1512C22.2899 20.1375 22.273 20.1182 22.2624 20.0954C21.9675 19.481 21.7338 18.9944 21.7029 18.9332C21.6686 18.8608 21.6306 18.7901 21.589 18.7215C21.5298 18.6294 21.4667 18.6318 21.4029 18.7229C21.3856 18.7485 21.3701 18.7753 21.3566 18.8031L21.3499 18.8167C21.2908 18.9361 21.2312 19.0551 21.1708 19.1738C20.2527 20.9787 19.1844 22.6959 18.0754 24.3905C17.2278 25.6845 16.5182 27.0369 16.1807 28.5624C15.9613 29.5538 15.9136 30.537 16.2168 31.518C16.4068 32.1332 16.6688 32.6893 17.0079 33.18C17.4524 33.8243 18.0394 34.3583 18.7236 34.7409C18.8574 34.8166 18.9964 34.8878 19.1404 34.9547C20.647 35.6535 22.1858 35.662 23.7137 35.0206C24.8179 34.5565 25.6677 33.7866 26.2575 32.7409C26.5473 32.2267 27.0009 31.0306 27.0453 29.5073C27.0463 29.4671 27.0564 29.4278 27.0748 29.3921L28.0758 27.4579C28.0883 27.4337 28.1079 27.4138 28.132 27.4011C28.1561 27.3883 28.1835 27.3832 28.2107 27.3864C28.2378 27.3895 28.2633 27.401 28.2837 27.419C28.3042 27.437 28.3186 27.4608 28.3251 27.4872C28.3986 27.7841 28.4932 28.1679 28.4999 28.1987Z"
        fill="white" />
      <path
        d="M27.9638 26.483C27.9614 26.5195 27.9512 26.5551 27.934 26.5874C27.7184 27.0059 27.5222 27.3768 27.345 27.7115C27.2242 27.9397 27.1124 28.151 27.0094 28.3492C26.997 28.3732 26.9776 28.393 26.9538 28.4059C26.9299 28.4186 26.9028 28.424 26.8758 28.421C26.8488 28.4181 26.8234 28.4072 26.8029 28.3896C26.7823 28.372 26.7676 28.3487 26.7607 28.3226C26.6679 27.9703 26.5918 27.7127 26.5577 27.6107C26.5236 27.5086 26.4885 27.4096 26.4885 27.4096C26.4663 27.3473 26.4432 27.2851 26.4196 27.2226C26.4133 27.2055 26.4069 27.1887 26.4002 27.1715C26.3968 27.1626 26.3934 27.1537 26.3899 27.1446C26.3155 26.9529 26.236 26.7626 26.151 26.5737L26.1425 26.5547L26.1409 26.5513C26.0708 26.3966 25.9975 26.2438 25.921 26.093C25.4286 25.1638 25.3664 25.4404 25.2545 25.9382C25.2318 26.039 25.2071 26.1489 25.1764 26.2598V26.2624C25.0136 27.0419 24.6126 28.1926 23.9078 29.4583C23.0973 30.9139 22.0526 32.227 20.8154 33.3452C20.7532 33.3967 20.6739 33.423 20.5933 33.4192C20.5126 33.4154 20.4362 33.3817 20.3792 33.3247L19.1629 32.1123C19.1336 32.083 19.1107 32.0482 19.0954 32.0098C19.0801 31.9713 19.073 31.9302 19.0744 31.8889C19.0757 31.8476 19.0855 31.807 19.1033 31.7697C19.121 31.7324 19.1463 31.6991 19.1774 31.6718C19.1994 31.6531 24.9184 25.5441 23.0535 21.4746C23.0245 21.4019 22.9369 21.2215 22.81 20.9796C22.8052 20.9714 22.8004 20.963 22.7958 20.9545C22.7738 20.9158 22.7617 20.8724 22.7608 20.8278C22.7599 20.7834 22.77 20.7394 22.7905 20.6998L23.5553 19.2218C23.5665 19.2001 23.5834 19.1819 23.6042 19.1692C23.625 19.1564 23.6489 19.1496 23.6734 19.1494C23.6978 19.1492 23.7217 19.1557 23.7428 19.168C23.7638 19.1805 23.781 19.1985 23.7926 19.2199C23.8765 19.375 23.9616 19.5296 24.0477 19.6835C24.4834 20.4631 24.9428 21.2292 25.4187 21.9863C25.597 22.27 25.7785 22.5517 25.9601 22.8336C26.3796 23.4846 26.7992 24.1358 27.1788 24.8105C27.6045 25.5673 27.8128 26.0283 27.9482 26.3757C27.9609 26.41 27.9663 26.4466 27.9638 26.483Z"
        fill="white" />
    </g>
  </g>
  <path
    d="M160.004 19.556H158.108V24.5H157.324V19.556H155.428V18.828H160.004V19.556ZM166.93 24.5H166.154V20.084L164.218 24.5H163.498L161.578 20.084V24.5H160.802V18.828H161.866L163.866 23.444L165.882 18.828H166.93V24.5Z"
    fill="black" />
  <path
    d="M61.1599 38.77C59.5039 38.77 58.0549 38.437 56.8129 37.771C55.5709 37.105 54.6169 36.151 53.9509 34.909C53.2849 33.667 52.9519 32.2 52.9519 30.508V20.761C52.9519 20.311 53.0869 19.96 53.3569 19.708C53.6269 19.456 53.9959 19.33 54.4639 19.33C54.9319 19.33 55.3009 19.465 55.5709 19.735C55.8589 19.987 56.0029 20.329 56.0029 20.761V30.589C56.0029 32.425 56.4529 33.838 57.3529 34.828C58.2709 35.818 59.5669 36.313 61.2409 36.313C62.9149 36.313 64.2109 35.818 65.1289 34.828C66.0469 33.82 66.5059 32.407 66.5059 30.589V20.761C66.5059 20.329 66.6409 19.987 66.9109 19.735C67.1989 19.465 67.5769 19.33 68.0449 19.33C68.5129 19.33 68.8819 19.456 69.1519 19.708C69.4399 19.96 69.5839 20.311 69.5839 20.761V30.508C69.5839 32.146 69.2329 33.595 68.5309 34.855C67.8469 36.097 66.8659 37.06 65.5879 37.744C64.3279 38.428 62.8519 38.77 61.1599 38.77ZM74.292 38.77C73.824 38.77 73.455 38.644 73.185 38.392C72.915 38.14 72.78 37.789 72.78 37.339V26.863C72.78 24.505 73.509 22.66 74.967 21.328C76.443 19.996 78.468 19.33 81.042 19.33C82.734 19.33 84.201 19.636 85.443 20.248C86.685 20.842 87.63 21.706 88.278 22.84C88.944 23.974 89.277 25.315 89.277 26.863V37.339C89.277 37.789 89.142 38.14 88.872 38.392C88.602 38.644 88.233 38.77 87.765 38.77C87.297 38.77 86.919 38.644 86.631 38.392C86.361 38.122 86.226 37.771 86.226 37.339V26.782C86.226 25.18 85.776 23.947 84.876 23.083C83.976 22.219 82.698 21.787 81.042 21.787C79.386 21.787 78.099 22.228 77.181 23.11C76.281 23.974 75.831 25.198 75.831 26.782V37.339C75.831 37.771 75.687 38.122 75.399 38.392C75.129 38.644 74.76 38.77 74.292 38.77ZM94.9339 38.77C94.4659 38.77 94.0879 38.644 93.7999 38.392C93.5299 38.14 93.3949 37.789 93.3949 37.339V20.761C93.3949 20.311 93.5299 19.96 93.7999 19.708C94.0879 19.456 94.4659 19.33 94.9339 19.33C95.3839 19.33 95.7529 19.465 96.0409 19.735C96.3289 19.987 96.4729 20.329 96.4729 20.761V37.339C96.4729 37.771 96.3289 38.122 96.0409 38.392C95.7529 38.644 95.3839 38.77 94.9339 38.77ZM108.4 38.77C107.932 38.77 107.554 38.644 107.266 38.392C106.996 38.14 106.861 37.789 106.861 37.339V22.003H101.326C100.858 22.003 100.498 21.904 100.246 21.706C99.9944 21.49 99.8684 21.193 99.8684 20.815C99.8684 20.419 99.9944 20.122 100.246 19.924C100.498 19.708 100.858 19.6 101.326 19.6H115.474C115.942 19.6 116.302 19.708 116.554 19.924C116.824 20.122 116.959 20.419 116.959 20.815C116.959 21.193 116.824 21.49 116.554 21.706C116.302 21.904 115.942 22.003 115.474 22.003H109.939V37.339C109.939 37.771 109.795 38.122 109.507 38.392C109.237 38.644 108.868 38.77 108.4 38.77ZM119.433 38.743C118.965 38.743 118.596 38.617 118.326 38.365C118.056 38.113 117.921 37.762 117.921 37.312V27.484C117.921 24.928 118.65 22.93 120.108 21.49C121.566 20.05 123.591 19.33 126.183 19.33C127.875 19.33 129.342 19.663 130.584 20.329C131.826 20.977 132.771 21.913 133.419 23.137C134.085 24.361 134.418 25.81 134.418 27.484V37.312C134.418 37.762 134.283 38.113 134.013 38.365C133.743 38.617 133.374 38.743 132.906 38.743C132.438 38.743 132.06 38.617 131.772 38.365C131.484 38.095 131.34 37.744 131.34 37.312V32.344H120.999V37.312C120.999 37.744 120.855 38.095 120.567 38.365C120.279 38.617 119.901 38.743 119.433 38.743ZM131.34 29.941V27.403C131.34 25.567 130.899 24.172 130.017 23.218C129.153 22.264 127.875 21.787 126.183 21.787C124.473 21.787 123.177 22.264 122.295 23.218C121.431 24.154 120.999 25.549 120.999 27.403V29.941H131.34ZM139.238 38.77C138.77 38.77 138.401 38.644 138.131 38.392C137.861 38.14 137.726 37.789 137.726 37.339V23.353C137.726 22.183 138.068 21.265 138.752 20.599C139.436 19.933 140.39 19.6 141.614 19.6H146.204C148.868 19.6 150.884 20.158 152.252 21.274C153.638 22.39 154.331 24.037 154.331 26.215C154.331 28.357 153.647 29.986 152.279 31.102C150.929 32.2 148.949 32.749 146.339 32.749H140.804V37.339C140.804 37.771 140.66 38.122 140.372 38.392C140.084 38.644 139.706 38.77 139.238 38.77ZM146.312 30.319C149.588 30.319 151.226 28.951 151.226 26.215C151.226 24.775 150.812 23.713 149.984 23.029C149.174 22.345 147.959 22.003 146.339 22.003H142.046C141.65 22.003 141.344 22.129 141.128 22.381C140.912 22.633 140.804 22.975 140.804 23.407V30.319H146.312Z"
    fill="black" />
  <defs>
    <clipPath id="clip0_234_418">
      <rect width="25" height="25" fill="white" transform="translate(9 14)" />
    </clipPath>
  </defs>
</svg>