<svg xmlns="http://www.w3.org/2000/svg" xmlns:xlink="http://www.w3.org/1999/xlink" width="0" height="0" style="display:none;"><symbol viewBox="0 0 16 16" id="Group 4122">
<circle cx="8" cy="8" r="7.75" stroke="#D9D9D9" stroke-width="0.5"/>
<path d="M12.75 8C12.75 10.1698 12.1998 12.1223 11.3235 13.5244C10.445 14.9299 9.26341 15.75 8 15.75C6.73659 15.75 5.55496 14.9299 4.67647 13.5244C3.80017 12.1223 3.25 10.1698 3.25 8C3.25 5.83022 3.80017 3.87772 4.67647 2.47565C5.55496 1.07005 6.73659 0.25 8 0.25C9.26341 0.25 10.445 1.07005 11.3235 2.47565C12.1998 3.87772 12.75 5.83022 12.75 8Z" stroke="#D9D9D9" stroke-width="0.5"/>
<path d="M9.75 8C9.75 10.1949 9.52735 12.1735 9.17168 13.5962C8.99336 14.3095 8.78501 14.869 8.56327 15.2441C8.33165 15.636 8.13319 15.75 8 15.75C7.86681 15.75 7.66835 15.636 7.43673 15.2441C7.21499 14.869 7.00664 14.3095 6.82832 13.5962C6.47265 12.1735 6.25 10.1949 6.25 8C6.25 5.80514 6.47265 3.82647 6.82832 2.40378C7.00664 1.69051 7.21499 1.13103 7.43673 0.755887C7.66835 0.364008 7.86681 0.25 8 0.25C8.13319 0.25 8.33165 0.364008 8.56327 0.755887C8.78501 1.13103 8.99336 1.69051 9.17168 2.40378C9.52735 3.82647 9.75 5.80514 9.75 8Z" stroke="#D9D9D9" stroke-width="0.5"/>
<path d="M15.75 8C15.75 9.26341 14.9299 10.445 13.5244 11.3235C12.1223 12.1998 10.1698 12.75 8 12.75C5.83022 12.75 3.87772 12.1998 2.47565 11.3235C1.07005 10.445 0.25 9.26341 0.25 8C0.25 6.73659 1.07005 5.55496 2.47565 4.67647C3.87772 3.80017 5.83022 3.25 8 3.25C10.1698 3.25 12.1223 3.80017 13.5244 4.67647C14.9299 5.55496 15.75 6.73659 15.75 8Z" stroke="#D9D9D9" stroke-width="0.5"/>
<path d="M15.75 8C15.75 8.13319 15.636 8.33165 15.2441 8.56327C14.869 8.78501 14.3095 8.99336 13.5962 9.17168C12.1735 9.52735 10.1949 9.75 8 9.75C5.80514 9.75 3.82647 9.52735 2.40378 9.17168C1.69051 8.99336 1.13103 8.78501 0.755887 8.56327C0.364008 8.33165 0.25 8.13319 0.25 8C0.25 7.86681 0.364008 7.66835 0.755887 7.43673C1.13103 7.21499 1.69051 7.00664 2.40378 6.82832C3.82647 6.47265 5.80514 6.25 8 6.25C10.1949 6.25 12.1735 6.47265 13.5962 6.82832C14.3095 7.00664 14.869 7.21499 15.2441 7.43673C15.636 7.66835 15.75 7.86681 15.75 8Z" stroke="#D9D9D9" stroke-width="0.5"/>
</symbol><symbol viewBox="0 0 10 10" id="+">
<path d="M4.15969 9.38V0.62H5.83969V9.38H4.15969ZM0.519688 5.8V4.22H9.47969V5.8H0.519688Z" fill="white"/>
</symbol><symbol viewBox="0 0 14 17" id="Ellipse 148 (Stroke)">
<path fill-rule="evenodd" clip-rule="evenodd" d="M7 15.0225C9.70869 15.0225 12 12.7734 12 9.88085C12 9.56046 11.8886 9.05057 11.5729 8.34135C11.2663 7.65259 10.8193 6.89125 10.2807 6.10243C9.24634 4.5875 7.9733 3.1141 7 2.06107C6.0267 3.1141 4.75366 4.5875 3.71932 6.10243C3.18074 6.89125 2.73373 7.65259 2.4271 8.34135C2.11137 9.05057 2 9.56046 2 9.88085C2 12.7734 4.29131 15.0225 7 15.0225ZM7 17C10.866 17 14 13.8126 14 9.88085C14 7.05541 10.3852 2.77624 8.35085 0.591731C7.61612 -0.197244 6.38388 -0.197244 5.64915 0.591731C3.61481 2.77624 0 7.05541 0 9.88085C0 13.8126 3.13401 17 7 17Z" fill="#997EA4"/>
</symbol><symbol viewBox="0 0 20 16" id="Union">
<path d="M8.52415 1.75821C9.62254 1.51957 10.766 1.55199 11.8478 1.85246C12.9296 2.15293 13.9145 2.71164 14.7106 3.47647C14.7168 3.48239 14.723 3.48821 14.7294 3.49394L17.0629 5.59947H13.3333V7.19985H19.1667C19.2951 7.19985 19.4167 7.17197 19.5253 7.12216C19.6036 7.08637 19.6771 7.03824 19.7427 6.97788C19.9013 6.8322 20 6.627 20 6.39966V0.798333H18.3333V4.54968L15.8799 2.33601C14.8865 1.38465 13.6588 0.689495 12.3109 0.315104C10.9586 -0.0604807 9.52933 -0.101015 8.15634 0.197284C6.78336 0.495583 5.51145 1.12299 4.45929 2.02097C3.40713 2.91895 2.60901 4.05822 2.13941 5.33249C1.98588 5.74911 2.21314 6.20636 2.64701 6.35378C3.08089 6.50121 3.55707 6.28299 3.71061 5.86637C4.08629 4.84696 4.72478 3.93553 5.56651 3.21715C6.40824 2.49877 7.42577 1.99685 8.52415 1.75821Z" fill="#689E7A"/>
<path d="M1.66667 11.4503V15.2017H0V9.60042C0 9.15848 0.373096 8.80023 0.833333 8.80023H6.66667V10.4006H2.93718L5.27066 12.5061C5.277 12.5118 5.28326 12.5176 5.28941 12.5235C6.08552 13.2884 7.07043 13.8471 8.15223 14.1475C9.23404 14.448 10.3775 14.4804 11.4759 14.2418C12.5743 14.0032 13.5918 13.5012 14.4335 12.7828C15.2752 12.0645 15.9137 11.153 16.2894 10.1336C16.4429 9.71701 16.9191 9.49879 17.353 9.64622C17.7869 9.79364 18.0141 10.2509 17.8606 10.6675C17.391 11.9418 16.5929 13.0811 15.5407 13.979C14.4886 14.877 13.2167 15.5044 11.8437 15.8027C10.4707 16.101 9.04139 16.0605 7.68913 15.6849C6.34117 15.3105 5.11357 14.6154 4.1201 13.664L1.66667 11.4503Z" fill="#689E7A"/>
</symbol></svg>