<svg width="12" height="10" viewBox="0 0 12 10" fill="none" xmlns="http://www.w3.org/2000/svg">
  <path opacity="0.3"
    d="M11.8178 4.56308L7.36895 0.143968C7.17571 -0.0479892 6.87145 -0.0479892 6.6782 0.143968L6.52234 0.298793C6.31617 0.50358 6.31617 0.84589 6.52233 1.05068L8.97428 3.48623C9.30039 3.81016 9.07989 4.38209 8.6289 4.38209L0.5 4.38209C0.223858 4.38209 0 4.61486 0 4.902L0 5.09797C0 5.38511 0.223858 5.61788 0.5 5.61788L8.62894 5.61788C9.07993 5.61788 9.30042 6.1898 8.97432 6.51373L6.52233 8.94932C6.31617 9.15411 6.31617 9.49642 6.52233 9.70121L6.6782 9.85603C6.87145 10.048 7.1757 10.048 7.36895 9.85603L11.8178 5.43692C12.0607 5.19562 12.0607 4.80439 11.8178 4.56308Z"
    fill="#1B1B29" />
</svg>