<svg width="16" height="16" viewBox="0 0 16 16" fill="none" xmlns="http://www.w3.org/2000/svg">
<path d="M3.2 0H0V3.2H3.2V0Z" fill="#FB8A61"/>
<path d="M9.6 0.16037C9.10736 0.0601906 8.60639 0.00649803 8.1037 0H5.2V3.2H8.04445C8.9938 3.2 9.92183 3.48151 10.7112 4.00895C11.5005 4.53638 12.1158 5.28603 12.4791 6.16312C12.8424 7.04021 12.9374 8.00532 12.7522 8.93643C12.567 9.86754 12.1098 10.7228 11.4386 11.3941C10.7673 12.0654 9.91199 12.5226 8.98088 12.7078C8.04977 12.893 7.08465 12.7979 6.20756 12.4346C5.33048 12.0713 4.58082 11.4561 4.05339 10.6667C3.52596 9.87738 3.24445 8.94935 3.24445 8V5.2H0.0444446V8C0.0440559 8.55252 0.100777 9.10359 0.213704 9.64444C0.965186 13.2415 4.13259 15.9511 7.94074 16H8.1037C12.4741 15.9444 16 12.3841 16 8C16 4.12963 13.2515 0.901482 9.6 0.16037Z" fill="#FB8A61"/>
<path d="M7.58457 10.7921C7.14523 10.7265 6.72757 10.5582 6.36555 10.3007C5.99806 10.0401 5.69842 9.6952 5.49175 9.29488C5.28508 8.89456 5.17741 8.45052 5.17778 8V5.17852H8C8.44421 5.17835 8.88218 5.28304 9.2783 5.48407C9.67441 5.6851 10.0175 5.97679 10.2796 6.33542C10.5417 6.69405 10.7155 7.10949 10.7867 7.54794C10.858 7.9864 10.8248 8.43548 10.6897 8.85867C10.5547 9.28185 10.3217 9.66719 10.0096 9.98333C9.69758 10.2995 9.31532 10.5375 8.89392 10.678C8.47253 10.8185 8.02392 10.8576 7.58457 10.7921Z" fill="#FB8A61"/>
</svg>
