<svg width="384" height="56" viewBox="0 0 384 56" fill="none" xmlns="http://www.w3.org/2000/svg">
  <g filter="url(#filter0_b_0_60)">
    <mask id="path-1-inside-1_0_60" fill="white">
      <path d="M0 14C0 6.26801 6.26801 0 14 0H370C377.732 0 384 6.26801 384 14V56H0V14Z" />
    </mask>
    <path d="M0 14C0 6.26801 6.26801 0 14 0H370C377.732 0 384 6.26801 384 14V56H0V14Z"
      fill="url(#paint0_linear_0_60)" />
    <path d="M0 0H384H0ZM384 58H0V54H384V58ZM0 56V0V56ZM384 0V56V0Z" fill="url(#paint1_linear_0_60)"
      mask="url(#path-1-inside-1_0_60)" />
  </g>
  <defs>
    <filter id="filter0_b_0_60" x="-50" y="-50" width="484" height="156" filterUnits="userSpaceOnUse"
      color-interpolation-filters="sRGB">
      <feFlood flood-opacity="0" result="BackgroundImageFix" />
      <feGaussianBlur in="BackgroundImageFix" stdDeviation="25" />
      <feComposite in2="SourceAlpha" operator="in" result="effect1_backgroundBlur_0_60" />
      <feBlend mode="normal" in="SourceGraphic" in2="effect1_backgroundBlur_0_60" result="shape" />
    </filter>
    <linearGradient id="paint0_linear_0_60" x1="-22.8252" y1="28" x2="421.886" y2="99.891"
      gradientUnits="userSpaceOnUse">
      <stop stop-color="#4BF2A2" stop-opacity="0" />
      <stop offset="0.522948" stop-color="#A89FE7" stop-opacity="0.68" />
      <stop offset="0.669499" stop-color="#A958A9" />
      <stop offset="1" stop-color="#DD40CD" stop-opacity="0" />
    </linearGradient>
    <linearGradient id="paint1_linear_0_60" x1="-22.8252" y1="28" x2="421.886" y2="99.891"
      gradientUnits="userSpaceOnUse">
      <stop stop-color="#4BF2A2" stop-opacity="0" />
      <stop offset="0.522948" stop-color="#A89FE7" stop-opacity="0.68" />
      <stop offset="0.669499" stop-color="#E1C4F4" />
      <stop offset="1" stop-color="#DD40CD" />
    </linearGradient>
  </defs>
</svg>