<svg width="28" height="32" viewBox="0 0 28 32" fill="none" xmlns="http://www.w3.org/2000/svg">
  <path
    d="M12.8117 0.530963C13.5471 0.100068 14.4528 0.100069 15.1882 0.530963L26.6016 7.21848C27.3373 7.64959 27.7921 8.44742 27.7921 9.31249V22.6875C27.7921 23.5526 27.3373 24.3504 26.6016 24.7815L15.1881 31.469C14.4528 31.8999 13.5471 31.8999 12.8117 31.469L1.39831 24.7815C0.662545 24.3504 0.207792 23.5526 0.207792 22.6875V9.31249C0.207792 8.44742 0.662545 7.64959 1.39831 7.21848L12.8117 0.530963Z"
    fill="#212130" stroke="#67677B" stroke-width="0.415584" />
  <mask id="mask0_7671_37262" style="mask-type:alpha" maskUnits="userSpaceOnUse" x="0" y="0" width="28" height="32">
    <path
      d="M12.8103 0.525079C13.5465 0.10203 14.4536 0.10203 15.1898 0.525079L26.6032 7.08399C27.3393 7.50697 27.7922 8.28833 27.7922 9.1334V22.2512C27.7922 23.0963 27.3393 23.8776 26.6032 24.3006L15.1898 30.8595C14.4536 31.2826 13.5465 31.2826 12.8103 30.8595L1.39691 24.3006C0.660857 23.8776 0.207914 23.0963 0.207914 22.2512V9.1334C0.207914 8.28833 0.660857 7.50697 1.39691 7.08399L12.8103 0.525079Z"
      fill="#212130" stroke="#67677B" stroke-width="0.415584" />
  </mask>
  <g mask="url(#mask0_7671_37262)">
    <path
      d="M4.39471 24.9757L3.50783 36.4309C3.29793 39.142 5.29951 41.512 7.97847 41.7244L16.7772 42.4221C19.4562 42.6345 21.7981 40.6089 22.008 37.8978L22.8949 26.4426C23.1047 23.7315 21.1032 21.3615 18.4242 21.1491L9.62546 20.4514C6.9465 20.239 4.60461 22.2646 4.39471 24.9757Z"
      fill="#67677B" stroke="#212130" stroke-width="0.415584" stroke-miterlimit="10" />
    <path
      d="M3.32443 43.1777C3.58287 41.4969 3.88352 39.7733 4.2281 37.9931C4.59164 36.1196 4.67951 35.6872 5.10422 33.9506L5.10938 33.9427C2.34236 33.8189 -0.0594105 32.8966 -0.422949 31.4886C-0.864881 29.7799 1.59202 26.8794 6.26547 25.5604C13.967 30.8783 21.0827 26.7015 21.0827 26.7015L28.3121 27.2578C29.6172 27.3554 29.8627 29.4774 30.2444 30.745C30.3414 31.0756 30.3825 31.4205 30.3658 31.765C30.3574 31.9409 30.3346 32.1159 30.2978 32.288C29.9661 33.8154 29.4363 33.642 27.8943 33.5234C25.6102 34.1843 23.2007 34.267 20.8777 33.764C21.0172 36.1894 21.1904 38.116 21.2386 39.2999"
      fill="#67677B" />
    <path
      d="M21.0845 26.7015C21.0845 26.7015 13.9696 30.8748 6.26724 25.5603C6.92599 25.0308 7.69003 24.6517 8.50705 24.4488C9.79978 25.9619 11.6314 26.8963 13.6022 27.048C15.5731 27.1997 17.5232 26.5565 19.0273 25.2587C19.8081 25.5833 20.51 26.0755 21.0845 26.7015Z"
      fill="#67677B" stroke="#212130" stroke-width="0.415584" stroke-miterlimit="10" />
    <path
      d="M13.6069 27.0502C11.6365 26.8975 9.80547 25.9635 8.51221 24.4514C9.10951 24.3034 9.72614 24.2516 10.3394 24.2979L17.2569 24.828C17.8699 24.8754 18.4717 25.0201 19.0402 25.2569C17.5356 26.5552 15.5845 27.1984 13.6129 27.0458L13.6069 27.0502Z"
      fill="#67677B" stroke="#212130" stroke-width="0.831169" stroke-miterlimit="10" />
    <path
      d="M23.659 17.4553C23.5083 19.4605 22.5081 22.2372 21.0014 23.5457L19.0528 25.2396L19.0321 25.2571C17.5279 26.5545 15.5778 27.1974 13.6071 27.0457C11.6364 26.894 9.80486 25.9599 8.51188 24.4472L8.49379 24.4271L6.82082 22.4542C6.17386 21.6914 5.70695 20.586 5.4218 19.4204C5.14411 18.3112 5.03718 17.1652 5.10478 16.023C5.2221 15.039 5.48703 14.0788 5.89044 13.1757C7.7469 9.04683 11.8509 7.80015 12.1869 7.70513C13.1301 7.43734 14.1083 7.31739 15.0874 7.34943C16.06 7.46722 17.0089 7.73537 17.901 8.14451C18.2197 8.29098 22.0903 10.1497 23.3076 14.5165C23.5726 15.4722 23.6911 16.4633 23.659 17.4553Z"
      fill="#67677B" stroke="#212130" stroke-width="0.415584" stroke-miterlimit="10" />
    <path
      d="M22.9104 17.0692C22.9234 16.3493 22.7994 15.6336 22.5452 14.9612C21.3641 11.8157 17.7925 10.4278 17.4987 10.3136C16.6649 10.005 15.797 9.80004 14.9143 9.70332C14.0259 9.66411 13.136 9.73467 12.2645 9.91343C11.9578 9.97707 8.21556 10.8053 6.57878 13.7345C6.22713 14.3601 5.99755 15.0482 5.90253 15.7615C5.79484 17.1938 6.36341 19.2792 7.57032 20.3916L9.13302 21.8275C10.3391 22.939 12.0379 23.6425 13.853 23.782C15.6681 23.9224 17.4513 23.4874 18.8116 22.5728L20.5707 21.3898C21.9292 20.4753 22.8028 18.5007 22.9104 17.0692Z"
      fill="#212130" stroke="#212130" stroke-width="0.415584" stroke-miterlimit="10" />
    <path
      d="M19.0274 13.1268C18.6972 12.5314 21.4793 14.989 21.3638 17.3368C21.2483 19.6845 19.6918 20.2869 19.6918 20.2869C19.6918 20.2869 21.8332 18.178 19.0274 13.1268Z"
      fill="#303043" />
    <path
      d="M-1.35629 34.9732C-0.747236 26.4374 6.26768 25.5578 6.26768 25.5578C13.9692 30.8758 21.0849 26.699 21.0849 26.699C21.0849 26.699 25.7954 26.2735 27.1005 31.6587C28.4056 37.0438 26.8998 40.3958 26.8998 40.3958L18.0655 39.6845L14.6661 34.2026L20.1735 31.2524L21.7801 35.3159L22.9543 33.1102"
      stroke="#212130" stroke-width="0.415584" stroke-miterlimit="10" />
    <path
      d="M3.33561 28.7938C3.68895 29.304 3.87324 29.9145 3.86197 30.5374C3.85335 30.9646 3.70863 31.5592 3.2219 31.6481C3.01773 31.6856 3.10474 31.9968 3.30805 31.9637C3.89901 31.8547 4.1497 31.1852 4.18071 30.6481C4.21782 29.9308 4.01877 29.2213 3.61473 28.6308C3.49671 28.4564 3.21673 28.6221 3.33561 28.7956L3.33561 28.7938Z"
      fill="#212130" />
    <path
      d="M4.15995 30.3205C4.76921 30.2241 5.34723 29.983 5.84671 29.617C5.88284 29.5942 5.90896 29.5583 5.9197 29.5166C5.93044 29.4749 5.92497 29.4306 5.90442 29.3929C5.88253 29.3557 5.84701 29.3286 5.80557 29.3177C5.76413 29.3068 5.72011 29.3128 5.68303 29.3345C5.20684 29.6843 4.65524 29.9144 4.07381 30.0058C4.0328 30.0176 3.99801 30.0452 3.97691 30.0827C3.9558 30.1202 3.95008 30.1646 3.96096 30.2063C3.97338 30.2475 4.00094 30.2823 4.03796 30.3035C4.07498 30.3248 4.11864 30.3309 4.15995 30.3205Z"
      fill="#212130" />
  </g>
  <path
    d="M12.9595 0.78308C13.6037 0.40564 14.3963 0.40564 15.0405 0.783081L26.454 7.47059C27.099 7.84855 27.5 8.54973 27.5 9.31249V22.6875C27.5 23.4503 27.099 24.1515 26.454 24.5294L15.0405 31.2169C14.3963 31.5944 13.6037 31.5944 12.9595 31.2169L1.54604 24.5294C0.900986 24.1515 0.5 23.4503 0.5 22.6875V9.31249C0.5 8.54973 0.900986 7.84855 1.54604 7.47059L12.9595 0.78308Z"
    stroke="url(#paint0_linear_7671_37262)" />
  <defs>
    <linearGradient id="paint0_linear_7671_37262" x1="-1.66434" y1="16" x2="31.5958" y2="16.6861"
      gradientUnits="userSpaceOnUse">
      <stop stop-color="#4BF2A2" />
      <stop offset="0.522948" stop-color="#A89FE7" />
      <stop offset="0.669499" stop-color="#E1C4F4" />
      <stop offset="1" stop-color="#DD40CD" />
    </linearGradient>
  </defs>
</svg>