<svg width="28" height="26" viewBox="0 0 28 26" fill="none" xmlns="http://www.w3.org/2000/svg">
    <path d="M20.1709 1.20542C21.0029 1.21775 21.7127 1.69005 22.023 2.43801L25.7857 11.5188C26.096 12.2679 25.9648 13.1901 25.4425 13.9279L19.1107 22.8636C18.5889 23.5998 17.7474 24.0502 16.9154 24.0401L6.82083 23.8956C5.98882 23.8838 5.27902 23.411 4.96876 22.663L1.20547 13.58C0.895209 12.8315 1.0269 11.9093 1.54865 11.1709L7.88051 2.23631C8.40226 1.49956 9.24376 1.04911 10.0758 1.05975L20.1709 1.20542Z" fill="url(#paint0_linear_3133_935)"/>
    <path fill-rule="evenodd" clip-rule="evenodd" d="M26.9721 12.6079C26.9683 12.6428 26.964 12.6777 26.9593 12.7125C27.0108 12.3272 27.0005 11.9414 26.926 11.5724C26.9351 11.6172 26.9432 11.6622 26.9503 11.7073L26.951 11.7079C26.9972 12.0057 27.0043 12.3083 26.9722 12.608L26.9721 12.6079ZM25.7494 13.3709L25.7495 13.3711C25.9915 12.7843 26.0196 12.1444 25.814 11.5903L25.8136 11.59L25.8136 11.59C25.8047 11.5665 25.7958 11.5431 25.7858 11.5196L25.7857 11.5195L22.0229 2.43872V2.43868C21.9983 2.3799 21.9716 2.32327 21.9426 2.26774L21.9388 2.26433L21.9337 2.25459C21.6962 2.1588 21.441 2.1078 21.181 2.10647L20.1732 1.20607L20.1711 1.20604L21.1786 2.10625L11.084 1.9617L10.0765 1.06149L10.0758 1.06148C9.24377 1.04972 8.40171 1.50017 7.88052 2.23804L1.54866 11.172C1.43781 11.3286 1.34457 11.4935 1.26943 11.6633C1.26019 11.6842 1.25124 11.7051 1.24258 11.7261C1.20424 11.8189 1.17124 11.913 1.14366 12.0079L1.14384 12.0081C1.17141 11.9133 1.2041 11.8201 1.24177 11.7289V11.7284L2.25011 12.6293C2.2123 12.7208 2.17951 12.8143 2.1519 12.9094L2.15161 12.9092C2.10811 13.0582 2.07795 13.2109 2.0615 13.3653L1.05371 12.4644C1.0657 12.3523 1.08482 12.241 1.11094 12.1314C1.0798 12.2614 1.05879 12.3924 1.04809 12.523C1.04972 12.5035 1.0516 12.484 1.05372 12.4645L2.06151 13.3654C2.0391 13.5743 2.04417 13.7853 2.07657 13.9929L1.06879 13.092C1.04995 12.9724 1.04028 12.8516 1.03981 12.7308C1.04013 12.8526 1.04961 12.9733 1.06843 13.092H1.06867L2.07646 13.9929C2.09973 14.1354 2.13712 14.2752 2.18806 14.4103L1.17972 13.5094C1.13833 13.4003 1.10597 13.288 1.08293 13.1737C1.11043 13.3135 1.15119 13.45 1.20548 13.5812L4.96877 22.6619C5.09402 22.9641 5.28437 23.2213 5.52159 23.4214L5.47932 23.3836C5.45625 23.3635 5.43393 23.3427 5.41235 23.3214L5.51086 23.4094L5.51088 23.4094L5.51496 23.4129L5.41238 23.3213C5.36781 23.2776 5.32545 23.2318 5.28548 23.1838L5.28508 23.1835C5.24231 23.1326 5.20213 23.0795 5.16468 23.0246L5.16462 23.0245C5.12455 22.9648 5.08793 22.9028 5.05492 22.8388L5.05078 22.8351C5.02042 22.7785 4.99304 22.7204 4.96875 22.6609L5.97654 23.5618C6.00165 23.6217 6.02899 23.6795 6.05857 23.736L6.06278 23.7439C6.164 23.785 6.26846 23.818 6.37516 23.8425C6.49282 23.869 6.61445 23.8857 6.73909 23.8919C6.76607 23.8931 6.79311 23.8938 6.82021 23.8939H6.82077L6.82088 23.894L9.70948 23.9354L16.9154 24.0374L16.9155 24.0374C17.0851 24.0385 17.2538 24.0223 17.4191 23.9892C18.0752 23.855 18.695 23.4494 19.1107 22.8608L25.4426 13.9246V13.9274C25.5183 13.8204 25.5859 13.7094 25.6451 13.5957L25.645 13.5956C25.6835 13.5217 25.7181 13.4466 25.7494 13.3715V13.3709ZM1.24258 11.7261L1.2417 11.7283L2.25004 12.6281C2.28129 12.553 2.31589 12.4779 2.35439 12.4039L1.34661 11.5036V11.5042C1.31911 11.5566 1.29331 11.6096 1.26943 11.6633C1.26021 11.6842 1.25126 11.7051 1.24258 11.7261ZM21.5119 1.71597C21.3341 1.55907 21.132 1.43571 20.9155 1.3496C21.1472 1.44041 21.3576 1.57214 21.5376 1.73876L21.5287 1.73081L21.5394 1.74055L21.5119 1.71597ZM16.7645 25.0991C17.1285 25.1043 17.4938 25.0485 17.8469 24.9384L17.8622 24.9386C17.509 25.0495 17.1398 25.105 16.7678 25.102L16.7645 25.0991ZM17.4154 25.6809L17.7721 25.9998L7.67746 25.8553L6.66991 24.9545L6.66962 24.9545L7.67734 25.8554C6.96621 25.8526 6.28007 25.5917 5.74547 25.1209L4.73657 24.22C4.75547 24.2366 4.77456 24.253 4.79383 24.2691C4.45409 23.9814 4.18141 23.6121 4.00172 23.1785L0.238429 14.0977C-0.207988 13.0192 -0.0188197 11.6886 0.732834 10.6291L7.0647 1.6929C7.81635 0.631758 9.02781 -0.017028 10.227 0.000340187L20.3216 0.144888C21.1133 0.156354 21.8278 0.456687 22.3507 0.969799L23.3584 1.87005C23.4223 1.93347 23.4834 1.99949 23.5417 2.06812L23.542 2.06836C23.6036 2.14148 23.6613 2.21778 23.715 2.29694L22.7133 1.40405L22.712 1.40283L22.7109 1.40188C22.8196 1.56226 22.9133 1.73572 22.99 1.92093L22.9902 1.92135L23.9978 2.82205L27.7611 11.9023L27.0379 11.2566L27.7611 11.9027C27.775 11.9361 27.7883 11.9701 27.8011 12.0041L27.8013 12.0043C27.8735 12.1997 27.9262 12.4018 27.9587 12.6077L27.8374 12.4994L27.9588 12.6081C28.0055 12.907 28.0127 13.2109 27.98 13.5118L27.9795 13.5113C27.956 13.733 27.9128 13.9521 27.8504 14.166L26.9581 13.3693L26.9581 13.3703L27.8505 14.1671C27.8106 14.3038 27.7634 14.4383 27.7093 14.5699L27.709 14.5697C27.6639 14.6815 27.6138 14.7866 27.5586 14.8922L26.7858 14.2021L26.7855 14.2028L27.5598 14.8934C27.5101 14.9881 27.4571 15.0817 27.3996 15.1735L26.6495 14.5034L26.6493 14.5037L27.3983 15.1729C27.3565 15.2401 27.3124 15.3062 27.2666 15.3712L26.6646 14.8337L27.2662 15.371L20.9349 24.3073L20.1995 23.6503L20.1995 23.6504L20.9349 24.3074L20.8947 24.3635L20.8943 24.3632C20.8386 24.4437 20.774 24.5214 20.71 24.5963L19.9805 23.9446L19.9803 23.9449L20.7101 24.5977C20.6454 24.6746 20.578 24.7484 20.5081 24.819L20.5075 24.8184C20.4351 24.8922 20.3599 24.9626 20.2847 25.0303L19.5432 24.3678L19.5423 24.3685L20.283 25.0303C20.1995 25.1029 20.1138 25.172 20.0259 25.2376L20.0264 25.2381C19.9265 25.3126 19.8238 25.3815 19.7189 25.4459L18.9232 24.7358L18.923 24.7359L19.7177 25.446C19.5874 25.5255 19.4527 25.5975 19.3143 25.6617L18.447 24.8869L19.3143 25.6623C18.8317 25.888 18.3049 26.0028 17.7725 25.9984L17.4154 25.6809ZM17.9069 24.9242L17.9028 24.9205L17.9026 24.9206L17.9067 24.9243C17.9068 24.9243 17.9069 24.9243 17.9069 24.9242ZM22.7133 1.40405C22.771 1.48936 22.824 1.57772 22.8722 1.66875L22.8723 1.66879L22.8723 1.66884C22.9144 1.75062 22.954 1.83465 22.9912 1.92091L23.999 2.82182C23.9632 2.73516 23.9238 2.65112 23.8807 2.5697L23.8762 2.56569C23.8273 2.47392 23.7734 2.3849 23.7148 2.29905L22.7133 1.40405ZM19.546 23.8708L19.5459 23.8708L19.5456 23.8706L19.5457 23.8705L19.546 23.8708ZM26.3958 14.2667L26.3948 14.2659L26.395 14.2656L26.3959 14.2665L26.3958 14.2667ZM22.5309 1.16416C22.4748 1.09725 22.4154 1.03313 22.353 0.972032C22.4151 1.03311 22.4744 1.09719 22.5309 1.16416ZM5.61536 24.7546C5.947 24.8836 6.3018 24.9523 6.66312 24.9544C6.29305 24.9485 5.93987 24.8793 5.61536 24.7546ZM22.2839 0.905564L22.2546 0.879395H22.2552L22.2839 0.905564ZM22.2839 0.905564L23.263 1.7803C23.2959 1.80943 23.3277 1.83969 23.359 1.86994L22.3512 0.969596C22.3292 0.94791 22.3066 0.926501 22.2839 0.905564ZM1.17749 13.5094L2.18583 14.4103L2.18585 14.4104C2.19477 14.4339 2.2037 14.4574 2.21374 14.4809L1.42182 13.7734L2.21335 14.481L5.97664 23.5618L4.96886 22.6609L1.20564 13.5802L1.20539 13.58C1.1959 13.5571 1.18642 13.5335 1.17749 13.5094Z" fill="url(#paint1_radial_3133_935)"/>
    <path d="M12.963 5.13024C12.8403 4.89493 12.6383 4.77952 12.3492 4.81593C12.0814 4.85347 11.89 5.01875 11.7605 5.28431C11.7449 5.3183 11.7307 5.35278 11.7166 5.38727C11.7095 5.40451 11.7025 5.42176 11.6952 5.43895C11.6188 5.62333 11.5434 5.80853 11.4678 5.99393C11.4038 6.15105 11.3398 6.30832 11.275 6.46535C11.1723 6.71859 11.0641 6.97127 10.9491 7.22003C10.9232 7.27856 10.896 7.3362 10.8686 7.39414C10.8653 7.40109 10.862 7.40804 10.8587 7.415C10.4235 8.32823 9.95529 9.22466 9.48432 10.1211C9.38443 10.3119 9.28216 10.5016 9.17988 10.6914C8.85878 11.2869 8.5376 11.8827 8.2896 12.5145C7.9693 13.3275 7.74553 14.155 7.66462 15.0027C7.58873 15.7904 7.66462 16.5462 7.92968 17.2538C8.06427 17.6198 8.24166 17.9685 8.45813 18.2925C8.65464 18.5855 8.88964 18.8505 9.15677 19.0803C9.2533 19.1626 9.35152 19.2394 9.45196 19.3128C10.3593 19.9717 11.4268 20.2283 12.785 20.0367C12.8213 20.0339 12.8598 20.0299 12.9005 20.0243C13.2158 19.9817 13.6405 19.8378 14.0528 19.6456C15.1365 19.1413 15.9992 18.3531 16.6259 17.2717C17.1153 16.4252 17.3909 15.5271 17.4272 14.5825C17.4388 14.2531 17.4216 13.9233 17.3759 13.597C17.3496 13.3908 17.3111 13.188 17.2642 12.9868C17.2592 12.965 17.1917 12.7005 17.1359 12.496C17.1242 12.4523 17.0868 12.4288 17.0243 12.44C16.9997 12.4515 16.98 12.4714 16.9685 12.496L16.3106 13.9684C16.2987 13.9952 16.2926 14.0242 16.2927 14.0536C16.2821 15.1461 15.9897 16.0425 15.8 16.4347C15.4361 17.2163 14.8444 17.8685 14.1031 18.3049C13.6414 18.585 13.1295 18.7716 12.5964 18.8539C12.0591 18.9295 11.5116 18.8754 10.9994 18.6959C10.9004 18.6627 10.8052 18.6253 10.7136 18.5839C10.2434 18.3758 9.83505 18.0488 9.52841 17.6348C9.28328 17.2981 9.09477 16.9234 8.97039 16.5255C8.75164 15.8548 8.77117 15.1489 8.90677 14.4206C9.11603 13.3006 9.57975 12.2686 10.1378 11.2635C10.8682 9.94908 11.5713 8.62181 12.1706 7.24636C12.2047 7.17064 12.238 7.09242 12.274 7.00778C12.2799 6.9941 12.2858 6.98026 12.2917 6.96623C12.3005 6.94498 12.3108 6.92439 12.3224 6.9046C12.3436 6.86874 12.3659 6.84857 12.3866 6.84577C12.4072 6.84297 12.4279 6.85586 12.4485 6.88555C12.4778 6.93082 12.5045 6.97778 12.5283 7.02618C12.5506 7.06652 12.7158 7.39147 12.9234 7.80103C12.931 7.81624 12.9432 7.82866 12.9582 7.83651C12.9732 7.84436 12.9904 7.84723 13.0071 7.84473C13.0208 7.84247 13.0339 7.83752 13.0456 7.83016C13.0641 7.81822 13.0787 7.80107 13.0875 7.78086L13.6126 6.59533C13.6253 6.56796 13.6316 6.53803 13.631 6.50782C13.6305 6.47762 13.623 6.44795 13.6092 6.42109C13.5032 6.22332 13.3988 6.0233 13.2978 5.82049C13.2575 5.73815 13.2183 5.6545 13.1789 5.57067C13.1092 5.42233 13.0393 5.27343 12.963 5.13024Z" fill="url(#paint2_radial_3133_935)"/>
    <path d="M13.9171 6.99837C13.9028 6.99136 13.8866 6.98894 13.8708 6.99143C13.8572 6.99484 13.8444 7.00115 13.8334 7.00992C13.817 7.02106 13.8041 7.03685 13.7966 7.05531L13.2944 8.18312C13.2804 8.21477 13.2747 8.24947 13.2777 8.28397C13.2807 8.31846 13.2924 8.35162 13.3117 8.38033C13.3563 8.46045 13.3948 8.53104 13.4233 8.58707C13.4517 8.6431 13.473 8.68568 13.483 8.70977C14.8027 11.4343 11.0004 16.3389 10.9859 16.354C10.9425 16.4007 10.9188 16.4623 10.9194 16.526C10.9199 16.553 10.9257 16.5797 10.9366 16.6044C10.9474 16.6291 10.963 16.6514 10.9825 16.67L11.8234 17.418C11.8447 17.4368 11.8698 17.4506 11.897 17.4586C11.9242 17.4665 11.9528 17.4683 11.9808 17.4639C12.0339 17.4557 12.0827 17.4301 12.1198 17.3911C12.9465 16.473 13.6364 15.4394 14.1677 14.3225C14.6297 13.3527 14.887 12.4927 14.9869 11.9201C15.0057 11.8397 15.0207 11.7605 15.0345 11.6876C15.0712 11.4944 15.0994 11.3456 15.1671 11.3363C15.229 11.3268 15.3228 11.4338 15.4902 11.7285C15.5067 11.7608 15.5236 11.7924 15.5408 11.8246C15.5773 11.8928 15.6152 11.9635 15.6531 12.0495C15.6679 12.0831 15.683 12.1168 15.6981 12.1507C15.7399 12.2443 15.782 12.3388 15.8205 12.4338C15.8227 12.4391 15.8248 12.4443 15.8269 12.4494C15.832 12.4619 15.837 12.4742 15.8418 12.4865C15.859 12.5291 15.8752 12.5711 15.8909 12.6131C15.8911 12.6139 15.8927 12.6182 15.8953 12.6252C15.9037 12.6475 15.9224 12.6975 15.9411 12.7504C15.9656 12.8199 16.0203 12.9964 16.0878 13.2384C16.0984 13.2798 16.1358 13.3028 16.1994 13.2905C16.2242 13.2793 16.2441 13.2593 16.2552 13.2345C16.319 13.0917 16.3879 12.9397 16.4619 12.7762C16.5811 12.5133 16.7137 12.2208 16.8596 11.8898C16.8709 11.8662 16.8774 11.8406 16.8786 11.8144C16.8799 11.7882 16.8759 11.762 16.8668 11.7374C16.7126 11.3765 16.5311 11.0279 16.3239 10.6948C16.0569 10.2488 15.7629 9.82372 15.469 9.39872C15.3427 9.2161 15.2164 9.03349 15.0923 8.84927C14.7592 8.35344 14.4372 7.85088 14.1309 7.33656C14.0706 7.23574 14.0109 7.13324 13.9512 7.03073C13.9434 7.01673 13.9315 7.00539 13.9171 6.99837Z" fill="url(#paint3_radial_3133_935)"/>
    <defs>
        <linearGradient id="paint0_linear_3133_935" x1="-0.440973" y1="12.5499" x2="29.144" y2="13.306" gradientUnits="userSpaceOnUse">
            <stop stop-color="#4BF2A2"/>
            <stop offset="0.522948" stop-color="#A89FE7"/>
            <stop offset="0.669499" stop-color="#E1C4F4"/>
            <stop offset="1" stop-color="#DD40CD"/>
        </linearGradient>
        <radialGradient id="paint1_radial_3133_935" cx="0" cy="0" r="1" gradientUnits="userSpaceOnUse" gradientTransform="translate(4.77363 9.62546) rotate(62.0649) scale(51.2188 434.972)">
            <stop stop-color="#4BF2A2"/>
            <stop offset="0.421875" stop-color="#564D8F"/>
            <stop offset="1" stop-color="#DD40CD"/>
        </radialGradient>
        <radialGradient id="paint2_radial_3133_935" cx="0" cy="0" r="1" gradientUnits="userSpaceOnUse" gradientTransform="translate(9.30645 10.4696) rotate(72.4944) scale(27.902 164.237)">
            <stop stop-color="#2A3837"/>
            <stop offset="0.421875" stop-color="#3F2B44"/>
            <stop offset="1" stop-color="#322837"/>
        </radialGradient>
        <radialGradient id="paint3_radial_3133_935" cx="0" cy="0" r="1" gradientUnits="userSpaceOnUse" gradientTransform="translate(9.30645 10.4696) rotate(72.4944) scale(27.902 164.237)">
            <stop stop-color="#2A3837"/>
            <stop offset="0.421875" stop-color="#3F2B44"/>
            <stop offset="1" stop-color="#322837"/>
        </radialGradient>
    </defs>
</svg>