<svg width="127" height="32" viewBox="0 0 127 32" fill="none" xmlns="http://www.w3.org/2000/svg">
<path d="M42.736 25.24C41.28 25.24 40.016 24.952 38.944 24.376C37.872 23.8 37.04 22.976 36.448 21.904C35.872 20.816 35.584 19.528 35.584 18.04V9.088C35.584 8.736 35.68 8.464 35.872 8.272C36.08 8.064 36.36 7.96 36.712 7.96C37.064 7.96 37.344 8.064 37.552 8.272C37.76 8.464 37.864 8.736 37.864 9.088V18.112C37.864 19.792 38.288 21.088 39.136 22C40 22.912 41.216 23.368 42.784 23.368C44.352 23.368 45.576 22.904 46.456 21.976C47.336 21.048 47.776 19.76 47.776 18.112V9.088C47.776 8.736 47.88 8.464 48.088 8.272C48.296 8.064 48.576 7.96 48.928 7.96C49.28 7.96 49.552 8.064 49.744 8.272C49.936 8.464 50.032 8.736 50.032 9.088V18.04C50.032 19.48 49.736 20.744 49.144 21.832C48.552 22.92 47.704 23.76 46.6 24.352C45.512 24.944 44.224 25.24 42.736 25.24ZM54.3604 25.24C54.0084 25.24 53.7284 25.144 53.5204 24.952C53.3284 24.744 53.2324 24.464 53.2324 24.112V14.584C53.2324 13.224 53.5204 12.048 54.0964 11.056C54.6724 10.064 55.4964 9.304 56.5684 8.776C57.6564 8.232 58.9364 7.96 60.4084 7.96C61.8804 7.96 63.1524 8.232 64.2244 8.776C65.3124 9.304 66.1444 10.064 66.7204 11.056C67.2964 12.048 67.5844 13.224 67.5844 14.584V24.112C67.5844 24.464 67.4804 24.744 67.2724 24.952C67.0804 25.144 66.8084 25.24 66.4564 25.24C66.1044 25.24 65.8244 25.144 65.6164 24.952C65.4084 24.744 65.3044 24.464 65.3044 24.112V14.512C65.3044 13.024 64.8724 11.872 64.0084 11.056C63.1604 10.24 61.9604 9.832 60.4084 9.832C58.8724 9.832 57.6724 10.248 56.8084 11.08C55.9444 11.896 55.5124 13.04 55.5124 14.512V24.112C55.5124 24.464 55.4084 24.744 55.2004 24.952C54.9924 25.144 54.7124 25.24 54.3604 25.24ZM72.7557 25.24C72.4197 25.24 72.1477 25.144 71.9397 24.952C71.7477 24.744 71.6517 24.464 71.6517 24.112V9.088C71.6517 8.736 71.7477 8.464 71.9397 8.272C72.1477 8.064 72.4197 7.96 72.7557 7.96C73.1077 7.96 73.3877 8.064 73.5957 8.272C73.8037 8.464 73.9077 8.736 73.9077 9.088V24.112C73.9077 24.464 73.8037 24.744 73.5957 24.952C73.3877 25.144 73.1077 25.24 72.7557 25.24ZM84.727 25.24C84.375 25.24 84.103 25.144 83.911 24.952C83.719 24.744 83.623 24.464 83.623 24.112V10.024H78.415C78.063 10.024 77.783 9.952 77.575 9.808C77.383 9.648 77.287 9.424 77.287 9.136C77.287 8.512 77.663 8.2 78.415 8.2H91.111C91.463 8.2 91.735 8.28 91.927 8.44C92.119 8.6 92.215 8.832 92.215 9.136C92.215 9.408 92.119 9.624 91.927 9.784C91.735 9.944 91.463 10.024 91.111 10.024H85.903V24.112C85.903 24.464 85.799 24.744 85.591 24.952C85.383 25.144 85.095 25.24 84.727 25.24ZM94.5563 25.24C94.2043 25.24 93.9243 25.144 93.7163 24.952C93.5243 24.744 93.4283 24.464 93.4283 24.112V15.064C93.4283 12.84 94.0603 11.104 95.3243 9.856C96.5883 8.592 98.3323 7.96 100.556 7.96C102.028 7.96 103.3 8.248 104.372 8.824C105.46 9.384 106.284 10.2 106.844 11.272C107.42 12.344 107.708 13.608 107.708 15.064V24.112C107.708 24.464 107.604 24.744 107.396 24.952C107.188 25.144 106.908 25.24 106.556 25.24C106.22 25.24 105.948 25.144 105.74 24.952C105.532 24.744 105.428 24.464 105.428 24.112V19.216H95.6843V24.112C95.6843 24.464 95.5803 24.744 95.3723 24.952C95.1803 25.144 94.9083 25.24 94.5563 25.24ZM105.428 17.392V14.992C105.428 13.328 105.012 12.056 104.18 11.176C103.348 10.28 102.14 9.832 100.556 9.832C98.9723 9.832 97.7643 10.272 96.9323 11.152C96.1003 12.016 95.6843 13.296 95.6843 14.992V17.392H105.428ZM112.161 25.24C111.809 25.24 111.529 25.144 111.321 24.952C111.129 24.744 111.033 24.464 111.033 24.112V11.296C111.033 10.336 111.321 9.584 111.897 9.04C112.473 8.48 113.273 8.2 114.297 8.2H118.353C120.689 8.2 122.449 8.688 123.633 9.664C124.817 10.64 125.409 12.088 125.409 14.008C125.409 15.832 124.809 17.232 123.609 18.208C122.425 19.168 120.713 19.648 118.473 19.648H113.289V24.112C113.289 24.464 113.185 24.744 112.977 24.952C112.785 25.144 112.513 25.24 112.161 25.24ZM118.473 17.824C119.961 17.824 121.105 17.528 121.905 16.936C122.705 16.328 123.105 15.352 123.105 14.008C123.105 12.616 122.713 11.608 121.929 10.984C121.145 10.344 119.993 10.024 118.473 10.024H114.489C114.121 10.024 113.825 10.144 113.601 10.384C113.393 10.624 113.289 10.944 113.289 11.344V17.824H118.473Z" fill="white"/>
<path d="M12.9746 7.70777C12.9829 7.72 12.9871 7.73223 12.9954 7.74447C13.0913 7.9239 13.1746 8.08294 13.2371 8.20936C13.2996 8.33578 13.3454 8.42957 13.3663 8.48258C16.2122 14.5792 7.49111 23.7261 7.45778 23.7546C7.35361 23.8443 7.29944 23.9667 7.29944 24.0931C7.29944 24.1991 7.33694 24.3051 7.41194 24.3908C7.42027 24.3989 7.42444 24.4071 7.43278 24.4152L9.28699 26.2299C9.46616 26.4053 9.75367 26.4216 9.95367 26.2585C11.8412 24.5824 13.4329 22.6168 14.6705 20.4392C15.7455 18.5429 16.358 16.822 16.6038 15.6517V15.6476C16.883 14.6607 16.8372 13.7228 17.7372 15.3988C17.8539 15.6272 17.9664 15.8556 18.0705 16.0839L18.0747 16.088L18.0872 16.1166C18.2164 16.3979 18.3372 16.6834 18.4497 16.9729C18.4664 17.0137 18.4789 17.0504 18.4956 17.0871C18.5331 17.1809 18.5664 17.2747 18.5997 17.3685C18.5997 17.3685 18.6539 17.5153 18.7039 17.6703C18.7539 17.8252 18.8706 18.2086 19.0122 18.7346C19.0414 18.8406 19.1539 18.9059 19.2622 18.8773C19.3164 18.861 19.3664 18.8243 19.3914 18.7754C19.7789 18.0414 20.2498 17.1931 20.7998 16.1369C20.8539 16.0391 20.8623 15.9249 20.8206 15.8189C20.6123 15.2969 20.2956 14.6077 19.6456 13.474C18.8164 12.0263 17.8622 10.6521 16.9622 9.24516C16.2372 8.11149 15.5371 6.96558 14.8705 5.7952C14.7413 5.56683 14.6121 5.33439 14.483 5.10194C14.4288 5.00407 14.3038 4.96737 14.2079 5.02038C14.1704 5.03669 14.1413 5.06932 14.1246 5.10602L12.9579 7.32036C12.9037 7.44678 12.9079 7.58951 12.9746 7.70777Z" fill="white"/>
<path d="M21.9081 19.864C21.854 19.4236 21.7748 18.9872 21.6789 18.5509C21.6706 18.506 21.5248 17.931 21.4123 17.4865C21.3873 17.3764 21.2748 17.3112 21.1664 17.3397C21.1081 17.356 21.0623 17.3927 21.0331 17.4417L19.5081 20.337C19.4789 20.39 19.4664 20.4512 19.4622 20.5083C19.3956 22.7879 18.7039 24.5781 18.2622 25.3489C17.3622 26.9148 16.0663 28.0689 14.3829 28.7621C12.0537 29.7245 9.70365 29.7082 7.40776 28.6643C7.18692 28.5623 6.97441 28.4563 6.77024 28.3421C5.72855 27.7712 4.83269 26.9678 4.15351 26.0054C3.63683 25.2714 3.23682 24.4395 2.94514 23.5179C2.48263 22.0498 2.55763 20.5776 2.89097 19.0933C3.40349 16.8096 4.48685 14.7869 5.77855 12.8458C7.47026 10.3093 9.09947 7.73609 10.4995 5.03647C10.5912 4.86111 10.6828 4.68168 10.7703 4.50225L10.7787 4.48186C10.7995 4.44108 10.8245 4.4003 10.8495 4.35952C10.9453 4.22495 11.0412 4.22087 11.1329 4.35545C11.1954 4.4574 11.2537 4.56342 11.3079 4.67353C11.3537 4.76324 11.712 5.4932 12.162 6.41482C12.212 6.51677 12.3329 6.55755 12.4329 6.51269C12.4746 6.49638 12.5079 6.46376 12.5287 6.42298L13.7537 4.09446C13.8121 3.98027 13.8121 3.8457 13.7537 3.72744C13.5246 3.28294 13.2996 2.83028 13.0787 2.37763C12.8412 1.87604 12.6204 1.3459 12.362 0.840231C12.0912 0.310094 11.6454 0.00832372 11.0245 0.000167767C10.4078 -0.00798818 9.96199 0.281548 9.66615 0.799451C9.61198 0.897322 9.56198 1.00335 9.51198 1.1053C9.17863 1.77816 8.85779 2.45511 8.52862 3.12797C8.28278 3.62957 8.03277 4.12708 7.7661 4.61236C7.69526 4.73878 7.62859 4.86519 7.55359 4.99161C6.54107 6.77368 5.45354 8.51498 4.36185 10.2522C3.40349 11.7855 2.35763 13.2658 1.59094 14.9133C0.840923 16.52 0.303409 18.1879 0.0867369 19.9374C-0.113268 21.5645 0.0242353 23.1712 0.58675 24.729C0.878424 25.5446 1.26177 26.3276 1.72845 27.0616C2.16179 27.7386 2.6743 28.3625 3.26182 28.9171C3.47432 29.1169 3.69099 29.3086 3.91183 29.4921C5.92022 31.1396 8.30361 31.9919 11.3537 31.9919C12.0787 32.0408 13.1579 31.8655 14.2121 31.5474C16.6622 30.8133 18.6289 29.4146 20.0747 27.3389C21.2081 25.7118 21.8623 23.9134 21.9831 21.9438C22.0206 21.2505 21.9956 20.5572 21.9081 19.864Z" fill="white"/>
</svg>
