<svg width="137" height="32" viewBox="0 0 137 32" fill="none" xmlns="http://www.w3.org/2000/svg">
<path fill-rule="evenodd" clip-rule="evenodd" d="M131.449 5.626L136.382 10.5751C136.579 10.7745 136.735 11.0109 136.841 11.2708C136.947 11.5308 137.001 11.8091 137 12.0899V26.0117C137 26.1965 136.927 26.3737 136.797 26.5045C136.667 26.6353 136.49 26.709 136.306 26.7094H125.017C124.926 26.7094 124.838 26.7413 124.768 26.7995C124.699 26.8577 124.652 26.9386 124.635 27.028V28.6336C124.635 28.7308 124.597 28.824 124.528 28.8927C124.46 28.9614 124.367 29 124.27 29H119.521C119.24 29 118.97 28.8879 118.771 28.6883C118.572 28.4888 118.46 28.2182 118.46 27.936V5.69768C118.46 5.51265 118.534 5.33518 118.664 5.20434C118.794 5.0735 118.971 5 119.156 5H129.942C130.222 4.99989 130.499 5.05512 130.758 5.16254C131.016 5.26995 131.251 5.42744 131.449 5.626ZM124.642 25.5482H130.825L130.826 8.21125C130.827 7.93048 130.772 7.65243 130.665 7.39302C130.558 7.13362 130.4 6.89797 130.202 6.69961L129.905 6.40174C129.708 6.20317 129.473 6.04569 129.214 5.93827C128.956 5.83086 128.678 5.77562 128.399 5.77573H125.337C125.246 5.77553 125.156 5.79338 125.071 5.82826C124.987 5.86315 124.91 5.9144 124.846 5.97905C124.781 6.04371 124.73 6.12052 124.695 6.20508C124.66 6.28963 124.642 6.38028 124.642 6.47182V25.5482Z" fill="white"/>
<path fill-rule="evenodd" clip-rule="evenodd" d="M114.359 25.3045L114.062 25.0066C113.864 24.8082 113.707 24.5726 113.599 24.3133C113.492 24.0539 113.437 23.7758 113.436 23.495V5.69768C113.436 5.51292 113.363 5.3357 113.233 5.20491C113.103 5.07411 112.927 5.00042 112.743 5H101.955C101.675 4.99989 101.398 5.05512 101.139 5.16254C100.881 5.26995 100.646 5.42744 100.448 5.626L95.5145 10.5751C95.3165 10.7736 95.1595 11.0092 95.0525 11.2686C94.9454 11.528 94.8903 11.806 94.8904 12.0867V23.9537C94.8904 24.6837 95.1795 25.3839 95.6941 25.9001C96.2086 26.4162 96.9065 26.7062 97.6342 26.7062H116.53V25.9305H115.867C115.587 25.931 115.31 25.876 115.051 25.7685C114.792 25.6611 114.557 25.5034 114.359 25.3045ZM107.255 25.5434H101.906C101.685 25.5434 101.473 25.4556 101.317 25.2991C101.16 25.1426 101.072 24.9303 101.072 24.7088V8.21125C101.072 7.93039 101.127 7.65229 101.235 7.39289C101.342 7.13349 101.499 6.89789 101.698 6.69961L101.994 6.40174C102.192 6.20303 102.427 6.04545 102.686 5.93803C102.944 5.8306 103.221 5.77545 103.501 5.77573H106.56C106.651 5.77553 106.741 5.79338 106.826 5.82826C106.91 5.86315 106.987 5.9144 107.051 5.97905C107.116 6.04371 107.167 6.12052 107.202 6.20508C107.237 6.28963 107.255 6.38028 107.255 6.47182V25.5434Z" fill="white"/>
<path d="M47.0537 5.04782H51.8506C52.035 5.04782 52.2119 5.12133 52.3423 5.25217C52.4728 5.38301 52.546 5.56046 52.546 5.7455V26.0627C52.546 26.2478 52.4728 26.4253 52.3423 26.5561C52.2119 26.6869 52.035 26.7604 51.8506 26.7604H41.0643C40.4993 26.76 39.9574 26.5349 39.5575 26.1344L34.624 21.1806C34.426 20.9818 34.269 20.7459 34.162 20.4862C34.0549 20.2266 33.9999 19.9483 34 19.6673V5.7455C34 5.56089 34.0731 5.38384 34.2032 5.2533C34.3334 5.12275 34.5099 5.04941 34.6939 5.04941H39.4844C39.6686 5.04941 39.8452 5.1227 39.9756 5.2532C40.106 5.3837 40.1795 5.56074 40.1799 5.7455V23.5428C40.1798 23.8235 40.2348 24.1016 40.3419 24.3609C40.449 24.6203 40.606 24.856 40.8039 25.0545L41.1008 25.3523C41.2987 25.5509 41.5336 25.7084 41.7922 25.8158C42.0507 25.9232 42.3279 25.9784 42.6077 25.9783H45.6643C45.8485 25.9783 46.0251 25.905 46.1555 25.7745C46.2859 25.644 46.3594 25.467 46.3598 25.2822V5.74391C46.3598 5.55929 46.4329 5.38224 46.563 5.2517C46.6931 5.12116 46.8696 5.04782 47.0537 5.04782Z" fill="white"/>
<path d="M60.3915 5.0479H71.1714C71.2633 5.04684 71.3545 5.06413 71.4397 5.09873C71.5249 5.13334 71.6024 5.18458 71.6677 5.2495C71.733 5.31441 71.7848 5.3917 71.8201 5.47686C71.8554 5.56202 71.8734 5.65336 71.8732 5.74558V26.0565C71.8732 26.2412 71.8002 26.4184 71.6701 26.5492C71.54 26.68 71.3635 26.7537 71.1793 26.7541H66.3856C66.2014 26.7537 66.025 26.68 65.8949 26.5492C65.7648 26.4184 65.6917 26.2412 65.6917 26.0565V6.51972C65.6917 6.33468 65.6185 6.15723 65.488 6.02639C65.3576 5.89555 65.1807 5.82204 64.9963 5.82204H61.927C61.3614 5.82261 60.8191 6.04766 60.4185 6.44804L60.1216 6.74592C59.7225 7.14783 59.4981 7.69185 59.4975 8.25916V26.0565C59.4975 26.2412 59.4245 26.4184 59.2944 26.5492C59.1643 26.68 58.9878 26.7537 58.8037 26.7541H54.0211C53.8369 26.7537 53.6604 26.68 53.5303 26.5492C53.4002 26.4184 53.3272 26.2412 53.3272 26.0565V12.1346C53.3271 11.8539 53.3821 11.5759 53.4892 11.3165C53.5963 11.0571 53.7533 10.8215 53.9512 10.623L58.8846 5.6739C59.0825 5.47534 59.3174 5.31785 59.576 5.21043C59.8345 5.10302 60.1116 5.04778 60.3915 5.0479Z" fill="white"/>
<path d="M78.5835 5.6738L73.65 10.6229C73.4519 10.8213 73.2946 11.0569 73.1873 11.3163C73.08 11.5757 73.0246 11.8537 73.0244 12.1345V26.0564C73.0244 26.2414 73.0977 26.4189 73.2281 26.5497C73.3585 26.6805 73.5354 26.754 73.7199 26.754H78.512C78.6965 26.754 78.8734 26.6805 79.0038 26.5497C79.1342 26.4189 79.2075 26.2414 79.2075 26.0564V5.93344C79.2077 5.86082 79.1864 5.78976 79.1463 5.7293C79.1062 5.66883 79.0491 5.62169 78.9822 5.59387C78.9153 5.56604 78.8417 5.55879 78.7707 5.57302C78.6997 5.58726 78.6345 5.62233 78.5835 5.6738Z" fill="white"/>
<path d="M87.3447 5.25332C87.4749 5.38387 87.548 5.56091 87.548 5.74553V8.14441H93.731V10.8045C93.731 10.9216 93.6847 11.0338 93.6022 11.1165C93.5197 11.1993 93.4078 11.2458 93.2912 11.2458H88.1116C87.9609 11.2458 87.8163 11.3058 87.7097 11.4128C87.6031 11.5197 87.5432 11.6648 87.5432 11.816V23.5397C87.5434 23.8205 87.5987 24.0985 87.7061 24.3579C87.8134 24.6173 87.9707 24.8529 88.1688 25.0513L88.4657 25.3492C88.6635 25.5479 88.8984 25.7055 89.1569 25.8129C89.4155 25.9203 89.6927 25.9755 89.9726 25.9752H93.731V26.7605H88.4308C87.8657 26.76 87.3239 26.5349 86.9239 26.1345L81.9905 21.1806C81.7925 20.9818 81.6355 20.7459 81.5284 20.4862C81.4214 20.2266 81.3663 19.9483 81.3665 19.6673V5.74553C81.3669 5.56077 81.4404 5.38372 81.5707 5.25323C81.7011 5.12273 81.8778 5.04944 82.062 5.04944H86.8541C87.0381 5.04944 87.2146 5.12278 87.3447 5.25332Z" fill="white"/>
<path d="M20.8119 16.142C20.8381 16.0937 20.8536 16.0404 20.8573 15.9858C20.8611 15.9312 20.853 15.8764 20.8335 15.8251C20.6271 15.3049 20.3094 14.6147 19.6603 13.4816C18.8308 12.0343 17.8762 10.6591 16.976 9.25302C16.2504 8.11946 15.5497 6.97229 14.8854 5.80512C14.754 5.57465 14.6243 5.34324 14.4962 5.1109C14.4786 5.07877 14.4524 5.05196 14.4203 5.03336C14.3883 5.01477 14.3517 5.00509 14.3144 5.00538C14.2772 5.00567 14.2407 5.01591 14.209 5.035C14.1773 5.05409 14.1515 5.0813 14.1344 5.1137L12.9681 7.3268C12.9369 7.38601 12.9213 7.45189 12.9228 7.51848C12.9242 7.58507 12.9426 7.65025 12.9762 7.70812C12.9832 7.72093 12.9906 7.73333 12.9979 7.74574C13.1913 8.10785 13.325 8.37794 13.3691 8.48677C16.2132 14.5799 7.49167 23.7268 7.45815 23.7548C7.41061 23.7956 7.37213 23.8455 7.34509 23.9014C7.31806 23.9573 7.30304 24.018 7.30097 24.0798C7.2989 24.1417 7.30982 24.2032 7.33306 24.2608C7.3563 24.3183 7.39136 24.3705 7.43607 24.4142L9.29084 26.2296C9.37785 26.3149 9.49427 26.3654 9.61731 26.3711C9.74034 26.3768 9.86112 26.3373 9.95597 26.2604C11.8428 24.5861 13.436 22.6201 14.672 20.4406C15.7467 18.5456 16.3583 16.8226 16.6065 15.6554V15.6514C16.8849 14.6663 16.8391 13.7288 17.7421 15.4018C17.8588 15.6277 17.9705 15.8564 18.0774 16.088L18.0798 16.0932L18.0929 16.1216C18.2223 16.4044 18.3438 16.6892 18.4571 16.9763C18.4727 17.0163 18.4878 17.0543 18.5025 17.0931C18.5385 17.1867 18.5736 17.28 18.6076 17.3732C18.6076 17.3732 18.6611 17.5212 18.7131 17.6741C18.765 17.8269 18.8811 18.2127 19.0225 18.74C19.0331 18.7791 19.0556 18.8141 19.087 18.8405C19.1183 18.8668 19.1571 18.8832 19.1982 18.8876C19.2392 18.8919 19.2807 18.8839 19.3171 18.8647C19.3534 18.8455 19.383 18.816 19.4019 18.78C19.7894 18.0478 20.2592 17.1959 20.8119 16.142Z" fill="white"/>
<path d="M21.9075 19.8653C21.8527 19.4252 21.7747 18.9887 21.6774 18.5541C21.6671 18.5081 21.5228 17.9335 21.4108 17.489C21.4009 17.4494 21.3789 17.4138 21.3477 17.3868C21.3165 17.3598 21.2776 17.3428 21.2363 17.338C21.195 17.3332 21.1531 17.3409 21.1164 17.36C21.0796 17.3791 21.0497 17.4088 21.0306 17.445L19.5041 20.3411C19.476 20.3945 19.4607 20.4535 19.4592 20.5135C19.3913 22.7943 18.6996 24.5852 18.2577 25.3551C17.3583 26.9208 16.0624 28.0735 14.3785 28.7686C12.0483 29.7289 9.70173 29.7161 7.40422 28.6697C7.18456 28.5697 6.97266 28.463 6.76853 28.3496C5.72511 27.7769 4.82999 26.9773 4.15215 26.0125C3.63501 25.2779 3.2356 24.4452 2.94576 23.5241C2.4834 22.0552 2.55616 20.5832 2.89057 19.0987C3.40526 16.8148 4.48738 14.7897 5.78003 12.8523C7.47127 10.3151 9.10037 7.74389 10.5005 5.04143C10.5927 4.86378 10.6837 4.68559 10.7736 4.50686L10.7838 4.48646C10.8044 4.44483 10.8281 4.40471 10.8546 4.36642C10.9519 4.22998 11.0479 4.22637 11.1383 4.36442C11.2018 4.46701 11.2598 4.57279 11.312 4.68132C11.359 4.77295 11.7155 5.50158 12.1652 6.42147C12.1814 6.45556 12.2071 6.48449 12.2393 6.50495C12.2715 6.52541 12.309 6.53658 12.3474 6.53716C12.3858 6.53775 12.4236 6.52773 12.4564 6.50826C12.4893 6.48879 12.5159 6.46065 12.5331 6.42707L13.7596 4.10033C13.7891 4.04392 13.8044 3.98145 13.8044 3.91808C13.8044 3.8547 13.7891 3.79224 13.7596 3.73582C13.5287 3.28928 13.304 2.83927 13.0854 2.38579C12.8402 1.87363 12.6223 1.34546 12.3639 0.840499C12.0937 0.30993 11.646 0.00983442 11.0275 0.000231374C10.409 -0.00937168 9.96459 0.280321 9.66861 0.800486C9.61302 0.899317 9.56559 1.00295 9.5149 1.10498C9.1805 1.7764 8.86081 2.45581 8.53131 3.12963C8.28602 3.62938 8.03665 4.12634 7.77052 4.6145C7.70129 4.742 7.63084 4.86898 7.55916 4.99542C6.54613 6.77638 5.45993 8.51894 4.36719 10.2547C3.40322 11.7864 2.35871 13.2668 1.59056 14.9138C0.840395 16.5219 0.304039 18.1876 0.0873706 19.9386C-0.114172 21.5655 0.0248228 23.1708 0.589387 24.7301C0.880512 25.546 1.26303 26.3278 1.72996 27.0612C2.1625 27.7382 2.67742 28.3612 3.2634 28.9166C3.47598 29.1177 3.69306 29.3093 3.91463 29.4912C5.92229 31.1397 8.30524 31.9928 11.3549 31.9912C12.0781 32.0428 13.1602 31.864 14.2121 31.5483C16.6609 30.8124 18.6272 29.416 20.0748 27.3373C21.2072 25.7104 21.8613 23.9114 21.9815 21.944C22.0214 21.2504 21.9967 20.5546 21.9075 19.8653V19.8653Z" fill="white"/>
</svg>
