<svg width="20" height="28" viewBox="0 0 20 28" fill="none" xmlns="http://www.w3.org/2000/svg">
    <path d="M18.9198 14.1242C18.9437 14.0819 18.9578 14.0353 18.9612 13.9875C18.9646 13.9397 18.9572 13.8918 18.9395 13.8469C18.7518 13.3918 18.4631 12.7878 17.8729 11.7963C17.1188 10.53 16.2511 9.32662 15.4327 8.09633C14.773 7.10446 14.136 6.10069 13.5321 5.07942C13.4127 4.87775 13.2948 4.67527 13.1783 4.47198C13.1623 4.44386 13.1385 4.4204 13.1093 4.40413C13.0802 4.38786 13.0469 4.37939 13.0131 4.37964C12.9792 4.3799 12.9461 4.38886 12.9172 4.40556C12.8884 4.42227 12.8649 4.44608 12.8494 4.47443L11.7891 6.41089C11.7608 6.4627 11.7466 6.52034 11.7479 6.57861C11.7492 6.63687 11.7659 6.69391 11.7965 6.74455C11.8028 6.75575 11.8095 6.7666 11.8162 6.77746C11.992 7.09431 12.1135 7.33063 12.1537 7.42586C14.7392 12.7574 6.81056 20.7609 6.78008 20.7854C6.73686 20.8211 6.70188 20.8647 6.6773 20.9136C6.65272 20.9625 6.63907 21.0157 6.63719 21.0698C6.63531 21.1239 6.64524 21.1778 6.66637 21.2281C6.68749 21.2784 6.71937 21.3241 6.76001 21.3624L8.44616 22.9508C8.52526 23.0255 8.6311 23.0697 8.74295 23.0746C8.8548 23.0796 8.96459 23.0451 9.05083 22.9778C10.7661 21.5128 12.2145 19.7925 13.3381 17.8854C14.3152 16.2273 14.8711 14.7197 15.0967 13.6985V13.695C15.3498 12.833 15.3082 12.0127 16.1292 13.4765C16.2352 13.6742 16.3368 13.8743 16.4339 14.0769L16.4361 14.0815L16.448 14.1063C16.5657 14.3537 16.6761 14.603 16.7792 14.8542C16.7933 14.8892 16.807 14.9224 16.8204 14.9564C16.8531 15.0383 16.8851 15.1199 16.9159 15.2015C16.9159 15.2015 16.9646 15.331 17.0118 15.4648C17.059 15.5985 17.1646 15.936 17.2931 16.3975C17.3028 16.4317 17.3232 16.4623 17.3517 16.4853C17.3802 16.5084 17.4155 16.5228 17.4528 16.5265C17.4902 16.5303 17.5279 16.5234 17.5609 16.5066C17.594 16.4898 17.6209 16.464 17.638 16.4325C17.9903 15.7918 18.4174 15.0464 18.9198 14.1242Z" fill="url(#paint0_linear_2803_13596)"/>
    <path d="M19.9159 17.3822C19.8661 16.9971 19.7951 16.6151 19.7067 16.2349C19.6974 16.1946 19.5662 15.6918 19.4644 15.3029C19.4554 15.2682 19.4353 15.237 19.407 15.2134C19.3786 15.1898 19.3433 15.1749 19.3057 15.1707C19.2682 15.1665 19.2301 15.1733 19.1967 15.19C19.1633 15.2067 19.1361 15.2327 19.1188 15.2644L17.731 17.7985C17.7055 17.8452 17.6915 17.8968 17.6902 17.9494C17.6285 19.945 16.9996 21.5121 16.5979 22.1857C15.7803 23.5557 14.6022 24.5644 13.0714 25.1725C10.953 26.0128 8.81975 26.0016 6.73111 25.086C6.53142 24.9985 6.33878 24.9051 6.15321 24.8059C5.20465 24.3048 4.3909 23.6051 3.77468 22.7609C3.30455 22.1181 2.94146 21.3895 2.67796 20.5836C2.25763 19.2983 2.32379 18.0103 2.62779 16.7114C3.09569 14.7129 4.07943 12.941 5.25457 11.2458C6.79206 9.02572 8.27306 6.7759 9.54594 4.41125C9.62969 4.2558 9.71244 4.09989 9.7942 3.9435L9.8035 3.92565C9.82221 3.88923 9.8437 3.85412 9.86779 3.82062C9.95624 3.70123 10.0436 3.69808 10.1257 3.81887C10.1835 3.90864 10.2362 4.00119 10.2837 4.09615C10.3264 4.17633 10.6505 4.81388 11.0593 5.61879C11.074 5.64861 11.0973 5.67393 11.1266 5.69183C11.1559 5.70974 11.19 5.7195 11.2249 5.72002C11.2598 5.72053 11.2942 5.71176 11.324 5.69473C11.3539 5.67769 11.3781 5.65307 11.3938 5.62369L12.5087 3.58779C12.5355 3.53843 12.5495 3.48377 12.5495 3.42832C12.5495 3.37286 12.5355 3.31821 12.5087 3.26884C12.2988 2.87812 12.0946 2.48436 11.8959 2.08757C11.6729 1.63942 11.4748 1.17728 11.2399 0.735436C10.9942 0.271189 10.5873 0.00860512 10.025 0.000202452C9.4627 -0.00820022 9.05872 0.245281 8.78965 0.700425C8.73911 0.786903 8.69599 0.877581 8.64991 0.966859C8.34591 1.55435 8.05528 2.14883 7.75574 2.73842C7.53275 3.17571 7.30605 3.61055 7.06411 4.03768C7.00117 4.14925 6.93713 4.26036 6.87197 4.37099C5.95103 5.92934 4.96357 7.45407 3.97017 8.97285C3.09383 10.3131 2.14428 11.6085 1.44596 13.0495C0.763996 14.4566 0.276399 15.9142 0.0794278 17.4462C-0.103793 18.8698 0.0225662 20.2744 0.535807 21.6388C0.800465 22.3527 1.14821 23.0368 1.57269 23.6786C1.96591 24.2709 2.43401 24.816 2.96673 25.302C3.15999 25.478 3.35733 25.6456 3.55876 25.8048C5.3839 27.2473 7.55022 27.9937 10.3227 27.9923C10.9801 28.0375 11.9639 27.881 12.9201 27.6047C15.1462 26.9609 16.9339 25.739 18.2498 23.9202C19.2793 22.4966 19.8739 20.9225 19.9832 19.201C20.0195 18.5941 19.997 17.9853 19.9159 17.3822V17.3822Z" fill="url(#paint1_linear_2803_13596)"/>
    <defs>
        <linearGradient id="paint0_linear_2803_13596" x1="5.90436" y1="13.7274" x2="20.5474" y2="13.955" gradientUnits="userSpaceOnUse">
            <stop stop-color="#4BF2A2"/>
            <stop offset="0.522948" stop-color="#A89FE7"/>
            <stop offset="0.669499" stop-color="#E1C4F4"/>
            <stop offset="1" stop-color="#DD40CD"/>
        </linearGradient>
        <linearGradient id="paint1_linear_2803_13596" x1="-1.18881" y1="14" x2="22.5718" y2="14.4001" gradientUnits="userSpaceOnUse">
            <stop stop-color="#4BF2A2"/>
            <stop offset="0.522948" stop-color="#A89FE7"/>
            <stop offset="0.669499" stop-color="#E1C4F4"/>
            <stop offset="1" stop-color="#DD40CD"/>
        </linearGradient>
    </defs>
</svg>