<svg width="33" height="14" viewBox="0 0 33 14" fill="none" xmlns="http://www.w3.org/2000/svg">
    <path d="M5.8625 9.07C5.8625 9.70333 5.6325 10.2 5.1725 10.56C4.7125 10.92 4.0825 11.1 3.2825 11.1C2.88917 11.1 2.5225 11.0667 2.1825 11C1.8425 10.94 1.5525 10.85 1.3125 10.73V9.71C1.57917 9.83 1.8925 9.94 2.2525 10.04C2.6125 10.1333 2.97917 10.18 3.3525 10.18C3.8325 10.18 4.1925 10.0867 4.4325 9.9C4.6725 9.71333 4.7925 9.46333 4.7925 9.15C4.7925 8.93 4.73917 8.74667 4.6325 8.6C4.52583 8.44667 4.3525 8.30667 4.1125 8.18C3.87917 8.04667 3.5725 7.90667 3.1925 7.76C2.84583 7.62667 2.53583 7.47 2.2625 7.29C1.98917 7.11 1.77583 6.88667 1.6225 6.62C1.46917 6.35333 1.3925 6.02667 1.3925 5.64C1.3925 5.05333 1.60583 4.59333 2.0325 4.26C2.45917 3.92667 3.01917 3.76 3.7125 3.76C4.09917 3.76 4.45583 3.8 4.7825 3.88C5.11583 3.96 5.4325 4.06333 5.7325 4.19L5.3925 5.08C5.11917 4.96667 4.83917 4.87333 4.5525 4.8C4.2725 4.72667 3.9825 4.69 3.6825 4.69C3.28917 4.69 2.98917 4.77667 2.7825 4.95C2.57583 5.12333 2.4725 5.35 2.4725 5.63C2.4725 5.85 2.5225 6.03667 2.6225 6.19C2.7225 6.33667 2.8825 6.47333 3.1025 6.6C3.3225 6.72 3.6125 6.85 3.9725 6.99C4.3725 7.15 4.7125 7.32 4.9925 7.5C5.27917 7.67333 5.49583 7.88667 5.6425 8.14C5.78917 8.38667 5.8625 8.69667 5.8625 9.07ZM11.8905 8.3C11.8905 9.19333 11.6605 9.88333 11.2005 10.37C10.7405 10.8567 10.1205 11.1 9.34055 11.1C8.85388 11.1 8.42055 10.9933 8.04055 10.78C7.66721 10.56 7.37055 10.2433 7.15055 9.83C6.93721 9.41 6.83055 8.9 6.83055 8.3C6.83055 7.40667 7.05721 6.72 7.51055 6.24C7.96388 5.75333 8.58388 5.51 9.37055 5.51C9.86388 5.51 10.2972 5.62 10.6705 5.84C11.0505 6.05333 11.3472 6.36667 11.5605 6.78C11.7805 7.19333 11.8905 7.7 11.8905 8.3ZM7.92055 8.3C7.92055 8.90667 8.03388 9.38 8.26055 9.72C8.49388 10.06 8.86055 10.23 9.36055 10.23C9.86055 10.23 10.2239 10.06 10.4505 9.72C10.6839 9.38 10.8005 8.90667 10.8005 8.3C10.8005 7.68667 10.6839 7.21667 10.4505 6.89C10.2239 6.55667 9.85721 6.39 9.35055 6.39C8.85055 6.39 8.48721 6.55667 8.26055 6.89C8.03388 7.21667 7.92055 7.68667 7.92055 8.3ZM17.9843 8.3C17.9843 9.19333 17.7543 9.88333 17.2943 10.37C16.8343 10.8567 16.2143 11.1 15.4343 11.1C14.9476 11.1 14.5143 10.9933 14.1343 10.78C13.761 10.56 13.4643 10.2433 13.2443 9.83C13.031 9.41 12.9243 8.9 12.9243 8.3C12.9243 7.40667 13.151 6.72 13.6043 6.24C14.0576 5.75333 14.6776 5.51 15.4643 5.51C15.9576 5.51 16.391 5.62 16.7643 5.84C17.1443 6.05333 17.441 6.36667 17.6543 6.78C17.8743 7.19333 17.9843 7.7 17.9843 8.3ZM14.0143 8.3C14.0143 8.90667 14.1276 9.38 14.3543 9.72C14.5876 10.06 14.9543 10.23 15.4543 10.23C15.9543 10.23 16.3176 10.06 16.5443 9.72C16.7776 9.38 16.8943 8.90667 16.8943 8.3C16.8943 7.68667 16.7776 7.21667 16.5443 6.89C16.3176 6.55667 15.951 6.39 15.4443 6.39C14.9443 6.39 14.581 6.55667 14.3543 6.89C14.1276 7.21667 14.0143 7.68667 14.0143 8.3ZM22.058 5.51C22.6847 5.51 23.1647 5.66667 23.498 5.98C23.8314 6.29333 23.998 6.79667 23.998 7.49V11H22.948V7.64C22.948 6.8 22.578 6.38 21.838 6.38C21.2914 6.38 20.9114 6.54333 20.698 6.87C20.4914 7.19667 20.388 7.66667 20.388 8.28V11H19.328V5.61H20.168L20.318 6.33H20.378C20.5514 6.05 20.788 5.84333 21.088 5.71C21.3947 5.57667 21.718 5.51 22.058 5.51ZM25.4769 10.41C25.4769 10.15 25.5435 9.96667 25.6769 9.86C25.8102 9.75333 25.9702 9.7 26.1569 9.7C26.3435 9.7 26.5035 9.75333 26.6369 9.86C26.7769 9.96667 26.8469 10.15 26.8469 10.41C26.8469 10.67 26.7769 10.8567 26.6369 10.97C26.5035 11.0833 26.3435 11.14 26.1569 11.14C25.9702 11.14 25.8102 11.0833 25.6769 10.97C25.5435 10.8567 25.4769 10.67 25.4769 10.41ZM28.2113 10.41C28.2113 10.15 28.2779 9.96667 28.4113 9.86C28.5446 9.75333 28.7046 9.7 28.8913 9.7C29.0779 9.7 29.2379 9.75333 29.3713 9.86C29.5113 9.96667 29.5813 10.15 29.5813 10.41C29.5813 10.67 29.5113 10.8567 29.3713 10.97C29.2379 11.0833 29.0779 11.14 28.8913 11.14C28.7046 11.14 28.5446 11.0833 28.4113 10.97C28.2779 10.8567 28.2113 10.67 28.2113 10.41ZM30.9456 10.41C30.9456 10.15 31.0123 9.96667 31.1456 9.86C31.279 9.75333 31.439 9.7 31.6256 9.7C31.8123 9.7 31.9723 9.75333 32.1056 9.86C32.2456 9.96667 32.3156 10.15 32.3156 10.41C32.3156 10.67 32.2456 10.8567 32.1056 10.97C31.9723 11.0833 31.8123 11.14 31.6256 11.14C31.439 11.14 31.279 11.0833 31.1456 10.97C31.0123 10.8567 30.9456 10.67 30.9456 10.41Z" fill="url(#paint0_linear_2803_13178)"/>
    <defs>
        <linearGradient id="paint0_linear_2803_13178" x1="-1.96154" y1="6.99999" x2="37.1338" y2="9.17252" gradientUnits="userSpaceOnUse">
            <stop stop-color="#4BF2A2"/>
            <stop offset="0.522948" stop-color="#A89FE7"/>
            <stop offset="0.669499" stop-color="#E1C4F4"/>
            <stop offset="1" stop-color="#DD40CD"/>
        </linearGradient>
    </defs>
</svg>