<svg width="32" height="32" viewBox="0 0 32 32" fill="none" xmlns="http://www.w3.org/2000/svg">
<path fill-rule="evenodd" clip-rule="evenodd" d="M25 1H7C3.68629 1 1 3.68629 1 7V25C1 28.3137 3.68629 31 7 31H25C28.3137 31 31 28.3137 31 25V7C31 3.68629 28.3137 1 25 1ZM7 0C3.13401 0 0 3.13401 0 7V25C0 28.866 3.13401 32 7 32H25C28.866 32 32 28.866 32 25V7C32 3.13401 28.866 0 25 0H7Z" fill="#67677B"/>
<rect x="4" y="4" width="11" height="11" rx="3" fill="#4C4C5C"/>
<rect x="4" y="17" width="11" height="11" rx="3" fill="#4C4C5C"/>
<rect x="17" y="4" width="11" height="11" rx="3" fill="#67677B"/>
<rect x="17" y="17" width="11" height="11" rx="3" fill="#4C4C5C"/>
</svg>
