<svg width="32" height="32" viewBox="0 0 32 32" fill="none" xmlns="http://www.w3.org/2000/svg">
<path fill-rule="evenodd" clip-rule="evenodd" d="M25 1H7C3.68629 1 1 3.68629 1 7V25C1 28.3137 3.68629 31 7 31H25C28.3137 31 31 28.3137 31 25V7C31 3.68629 28.3137 1 25 1ZM7 0C3.13401 0 0 3.13401 0 7V25C0 28.866 3.13401 32 7 32H25C28.866 32 32 28.866 32 25V7C32 3.13401 28.866 0 25 0H7Z" fill="white"/>
<path fill-rule="evenodd" clip-rule="evenodd" d="M12 5H7C5.89543 5 5 5.89543 5 7V12C5 13.1046 5.89543 14 7 14H12C13.1046 14 14 13.1046 14 12V7C14 5.89543 13.1046 5 12 5ZM7 4C5.34315 4 4 5.34315 4 7V12C4 13.6569 5.34315 15 7 15H12C13.6569 15 15 13.6569 15 12V7C15 5.34315 13.6569 4 12 4H7Z" fill="white"/>
<path fill-rule="evenodd" clip-rule="evenodd" d="M12 18H7C5.89543 18 5 18.8954 5 20V25C5 26.1046 5.89543 27 7 27H12C13.1046 27 14 26.1046 14 25V20C14 18.8954 13.1046 18 12 18ZM7 17C5.34315 17 4 18.3431 4 20V25C4 26.6569 5.34315 28 7 28H12C13.6569 28 15 26.6569 15 25V20C15 18.3431 13.6569 17 12 17H7Z" fill="white"/>
<path fill-rule="evenodd" clip-rule="evenodd" d="M25 5H20C18.8954 5 18 5.89543 18 7V12C18 13.1046 18.8954 14 20 14H25C26.1046 14 27 13.1046 27 12V7C27 5.89543 26.1046 5 25 5ZM20 4C18.3431 4 17 5.34315 17 7V12C17 13.6569 18.3431 15 20 15H25C26.6569 15 28 13.6569 28 12V7C28 5.34315 26.6569 4 25 4H20Z" fill="white"/>
<rect x="17" y="17" width="11" height="11" rx="3" fill="white"/>
</svg>
