<svg width="28" height="24" viewBox="0 0 28 24" fill="none" xmlns="http://www.w3.org/2000/svg">
<path d="M27.9884 3.33264L23.3494 0.347657C23.2652 0.293002 22.5137 0.235053 21.0703 0.182373L24.5695 3.08504C26.7347 3.16406 27.8622 3.25099 27.9884 3.33264Z" fill="#7E428C"/>
<path d="M24.5695 3.08596L21.0703 0.183289C17.6921 0.0608082 11.8051 0.0147133 7.9208 0.0805634C5.90712 0.114805 4.82681 0.172095 4.72389 0.236628L0.0505371 3.16564C0.205237 3.06884 1.82538 2.98258 4.84558 2.93121C10.6711 2.83244 19.5032 2.90224 24.5695 3.08596Z" fill="#7E428C"/>
<path d="M27.9624 9.86557L28.0006 3.34641C28.0006 3.2608 26.8724 3.16795 24.57 3.08301L24.5325 9.60217C26.8348 9.6858 27.9631 9.77864 27.9631 9.86557" fill="#7E428C"/>
<path d="M24.5318 9.60312L24.5693 3.08396L23.9868 3.06421L23.9492 9.58337L24.5318 9.60378" fill="#7E428C"/>
<path d="M23.9518 9.58342L23.9893 3.06426C23.4773 3.04714 22.9336 3.03133 22.3627 3.01685L22.3252 9.536C22.8954 9.55049 23.4398 9.56629 23.9518 9.58276" fill="#894899"/>
<path d="M22.3232 9.53558L22.3608 3.01642C21.8831 3.00457 21.3866 2.99271 20.872 2.98218L20.8345 9.50134C21.3458 9.51253 21.8423 9.52372 22.3232 9.53624" fill="#954EA6"/>
<path d="M20.839 9.50043L20.8765 2.98127C20.4053 2.97117 19.9224 2.96195 19.4279 2.95361L19.3904 9.47277L20.839 9.49977" fill="#A054B3"/>
<path d="M19.3903 9.47358L19.4279 2.95442L18.0317 2.93335L17.9941 9.45251C18.4667 9.45909 18.932 9.46634 19.3903 9.47424" fill="#AC5ABF"/>
<path d="M17.9941 9.4513L18.0317 2.93214C17.6351 2.92599 17.2338 2.92094 16.8277 2.91699L16.7896 9.43615L17.9941 9.4513Z" fill="#B760CC"/>
<path d="M16.7896 9.43643L16.8278 2.91727L15.8446 2.90674L15.8064 9.4259C16.1356 9.42853 16.4634 9.43182 16.7896 9.43577" fill="#C366D9"/>
<path d="M15.8065 9.42655L15.8446 2.90739L15.0278 2.90015L14.9902 9.4193L15.8065 9.42655Z" fill="#CE6CE6"/>
<path d="M14.9902 9.41927L15.0278 2.90012L14.352 2.89551L14.3145 9.41467L14.9902 9.41993" fill="#DA72F2"/>
<path d="M14.3145 9.41251L14.3521 2.89336L13.6944 2.8894L13.6562 9.40856L14.3145 9.41251Z" fill="#E578FF"/>
<path d="M13.6561 9.41064L13.6943 2.89148L13.0587 2.88818L13.0205 9.40734H13.6561" fill="#EA92FF"/>
<path d="M13.0203 9.40807L13.0585 2.88892H12.3297L12.2915 9.40807H13.0203Z" fill="#EC9CFF"/>
<path d="M12.2903 9.40588L12.3285 2.88672H11.3136L11.2754 9.40588H12.2903Z" fill="#EEA4FF"/>
<path d="M11.2767 9.40344L11.3149 2.88428C10.7265 2.88428 10.1433 2.88428 9.56724 2.88428L9.52905 9.40344C10.1025 9.40344 10.6857 9.40344 11.2767 9.40344Z" fill="#EFABFF"/>
<path d="M9.53164 9.4049L9.56983 2.88574C9.22936 2.88574 8.89256 2.88706 8.55943 2.88969L8.52124 9.40885L9.53164 9.40424" fill="#EEA4FF"/>
<path d="M8.52121 9.40783L8.5594 2.88867L7.76972 2.89328L7.73218 9.41244L8.52121 9.40783Z" fill="#EC9CFF"/>
<path d="M7.73213 9.4132L7.76967 2.89404L6.93598 2.90129L6.89844 9.42045L7.73213 9.4132Z" fill="#EA92FF"/>
<path d="M6.89845 9.42077L6.93599 2.90161L5.93077 2.9128L5.89258 9.43196C6.22075 9.42801 6.55669 9.42406 6.89845 9.42143" fill="#E578FF"/>
<path d="M5.89249 9.43102L5.93068 2.91187C5.55871 2.91669 5.19688 2.92196 4.84519 2.92767L4.54356 2.93294L4.50537 9.45209L4.807 9.44683L5.89249 9.43036" fill="#DA72F2"/>
<path d="M4.5054 9.45129L4.54359 2.93213C4.02577 2.94179 3.55109 2.95232 3.11957 2.96374L3.08203 9.4829C3.51355 9.47104 3.98822 9.46051 4.50605 9.45129" fill="#CE6CE6"/>
<path d="M3.07975 9.48547L3.11729 2.96631C2.72892 2.97684 2.38068 2.98804 2.06675 2.99989L2.02856 9.51905C2.34314 9.5072 2.69354 9.49622 3.07975 9.48612" fill="#C366D9"/>
<path d="M2.02853 9.51672L2.06672 2.99756C1.77803 3.00809 1.51912 3.01929 1.28998 3.03114L1.25244 9.5503C1.47942 9.53845 1.73725 9.52703 2.02594 9.51606" fill="#B760CC"/>
<path d="M1.25494 9.55138L1.29248 3.03223C1.07068 3.04408 0.877788 3.05615 0.713811 3.06844L0.67627 9.5876C0.839384 9.57509 1.03292 9.56258 1.25494 9.55138Z" fill="#AC5ABF"/>
<path d="M0.676232 9.58801L0.713774 3.06885C0.54505 3.08202 0.407827 3.09519 0.302105 3.10836L0.263916 9.62752C0.369423 9.61369 0.507293 9.60052 0.676232 9.58801Z" fill="#A054B3"/>
<path d="M0.264113 9.6278L0.302302 3.10864C0.223595 3.11619 0.145781 3.13141 0.0699295 3.15408L0.0317383 9.67324C0.107589 9.6507 0.185413 9.6357 0.264113 9.62846" fill="#954EA6"/>
<path d="M0.0315564 9.67248L0.0697476 3.15332C0.0483874 3.16122 0.0380296 3.16978 0.0380296 3.17769L0.000488281 9.69684C0.000488281 9.68828 0.0108435 9.68038 0.0315564 9.67182" fill="#894899"/>
<path d="M13.8989 23.9997L24.5318 9.60219L24.39 9.59692L13.8989 23.9997Z" fill="#894899"/>
<path d="M13.8989 23.9992L24.39 9.59646C23.8677 9.57802 23.3065 9.5609 22.7142 9.54443L13.8989 23.9992Z" fill="#954EA6"/>
<path d="M13.8989 23.9997L22.7116 9.54498C22.1647 9.53049 21.5918 9.51666 20.997 9.50415L13.8989 23.9997Z" fill="#A054B3"/>
<path d="M13.8989 23.9995L20.9996 9.50389C20.4099 9.49138 19.7995 9.47953 19.1736 9.46899L13.8989 23.9995Z" fill="#AC5ABF"/>
<path d="M13.8989 23.9992L19.1736 9.46874C18.516 9.45821 17.8415 9.44833 17.156 9.44043L13.8989 23.9992Z" fill="#B760CC"/>
<path d="M13.899 23.9993L17.1561 9.44053C16.3794 9.43065 15.5949 9.42341 14.8039 9.41748L13.8977 23.9993" fill="#C366D9"/>
<path d="M13.899 24.0006L14.8052 9.41871C13.7243 9.41015 12.6355 9.40554 11.563 9.40356L13.9003 24.0006" fill="#CE6CE6"/>
<path d="M13.8991 24.0006L11.5617 9.40356C9.34674 9.40356 7.19907 9.41213 5.3252 9.43978L13.8991 24.0006Z" fill="#DA72F2"/>
<path d="M13.899 23.9997L5.32512 9.43896L4.8073 9.44753C4.08321 9.45938 3.4396 9.47343 2.87646 9.48967L13.899 23.9997Z" fill="#CE6CE6"/>
<path d="M13.8991 23.9993L2.87657 9.48926C2.37989 9.50374 1.94707 9.51911 1.57812 9.53535L13.8991 23.9993Z" fill="#C366D9"/>
<path d="M13.899 23.9991L1.578 9.53516C1.24875 9.55008 0.970632 9.56567 0.743652 9.58191L13.899 23.9991Z" fill="#B760CC"/>
<path d="M13.8989 23.9992L0.74359 9.58203C0.523515 9.59784 0.35134 9.6143 0.229004 9.63142L13.8989 23.9992Z" fill="#AC5ABF"/>
<path d="M13.899 23.9999L0.229096 9.63208C0.152403 9.63565 0.0770692 9.65397 0.00708008 9.68608L13.899 23.9999Z" fill="#A054B3"/>
<path d="M13.899 23.9989L0.00713209 9.68506C0.00539491 9.68619 0.00396408 9.68775 0.002974 9.68959C0.00198393 9.69143 0.00146484 9.6935 0.00146484 9.69559C0.00146484 9.69769 0.00198393 9.69976 0.002974 9.7016C0.00396408 9.70344 0.00539491 9.705 0.00713209 9.70613L13.899 23.9989Z" fill="#954EA6"/>
<path d="M0.050531 3.16534L4.72389 0.236328C4.65916 0.276497 4.97244 0.3193 5.6728 0.360786L1.47325 3.35235C0.423365 3.2898 -0.0452656 3.22526 0.0492371 3.16534" fill="url(#paint0_linear_4157_4287)"/>
<path d="M1.47314 3.35205L5.67269 0.36377C6.0205 0.383964 6.46388 0.404158 7.00285 0.424352H7.07793L3.58263 3.44753L3.47065 3.44358C2.66025 3.41416 1.99485 3.38387 1.47444 3.35271" fill="url(#paint1_linear_4157_4287)"/>
<path d="M3.58137 3.44701L7.07668 0.423828C7.54661 0.440949 8.06249 0.456093 8.61461 0.469922L5.88698 3.51549C5.05911 3.49507 4.28432 3.47203 3.58008 3.44964" fill="url(#paint2_linear_4157_4287)"/>
<path d="M5.88818 3.51578L8.61582 0.470215C9.15241 0.483385 9.72331 0.495238 10.3156 0.505774L8.43846 3.56978C7.5491 3.55397 6.69081 3.53619 5.88818 3.51578Z" fill="url(#paint3_linear_4157_4287)"/>
<path d="M8.43848 3.56938L10.3156 0.505371C10.968 0.516566 11.647 0.526443 12.339 0.533686L11.4723 3.61152C10.4366 3.60033 9.41652 3.5865 8.43848 3.56938Z" fill="url(#paint4_linear_4157_4287)"/>
<path d="M11.4724 3.61079L12.3391 0.532959C13.2867 0.543495 14.2589 0.550081 15.2176 0.552715L15.7911 3.64042C14.3528 3.63647 12.8945 3.6266 11.4724 3.61079Z" fill="url(#paint5_linear_4157_4287)"/>
<path d="M15.791 3.64085L15.2175 0.553144C16.9846 0.557754 18.707 0.548534 20.1524 0.52417H20.3136L23.4347 3.59608L23.1933 3.60003C21.0256 3.6369 18.4416 3.65007 15.791 3.64349" fill="url(#paint6_linear_4157_4287)"/>
<path d="M23.4348 3.59434L20.3169 0.522435C21.0451 0.509264 21.6451 0.492803 22.1137 0.474365L26.1301 3.5252C25.4272 3.55373 24.5287 3.57788 23.4348 3.59763" fill="url(#paint7_linear_4157_4287)"/>
<path fill-rule="evenodd" clip-rule="evenodd" d="M27.9495 3.3789L23.3234 0.378118C23.357 0.367582 23.3654 0.357704 23.3493 0.347168L27.9883 3.33215C28.0129 3.34795 28 3.3631 27.9495 3.3789ZM26.13 3.5243L22.1104 0.47676C22.4645 0.462294 22.7445 0.447171 22.9509 0.430736L22.9492 0.429588C23.075 0.423953 23.2002 0.407654 23.3233 0.380859L27.9495 3.38165C27.7649 3.42123 27.5776 3.44566 27.3892 3.4547L27.3909 3.45582C27.0853 3.47996 26.6659 3.50191 26.1325 3.52167L26.13 3.5243ZM27.3883 3.45405V3.45277L24.5043 1.48869L27.3883 3.45405Z" fill="url(#paint8_radial_4157_4287)"/>
<path d="M23.3581 0.358135C23.3589 0.222484 19.1865 0.0873227 14.0389 0.056246C8.8912 0.0251692 4.71756 0.109946 4.71676 0.245596C4.71597 0.381246 8.88833 0.516404 14.036 0.54748C19.1836 0.578557 23.3573 0.493785 23.3581 0.358135Z" fill="url(#paint9_radial_4157_4287)"/>
<path d="M13.899 24.0005L0.00512695 9.70776C0.0860368 9.79073 1.21489 9.87963 3.43118 9.96063C5.86171 10.0489 9.15895 10.1108 12.5746 10.1404L13.899 24.0005Z" fill="url(#paint10_linear_4157_4287)"/>
<path d="M13.899 23.9999L12.5747 10.1397C16.2797 10.172 20.1239 10.1661 23.1558 10.1147C24.0559 10.0998 24.8314 10.0816 25.4821 10.0601L13.899 23.9999Z" fill="url(#paint11_linear_4157_4287)"/>
<path d="M13.8989 23.999L25.482 10.0592C27.0542 10.0085 27.8879 9.94399 27.9578 9.87354L13.8989 23.999Z" fill="url(#paint12_radial_4157_4287)"/>
<path d="M0.000647911 9.69787L0.0381892 3.17871C0.0381892 3.26497 1.1664 3.35782 3.46877 3.44211L4.05132 3.46252L4.01313 9.98168L3.43058 9.96193C1.12821 9.8783 0 9.78479 0 9.69853" fill="url(#paint13_linear_4157_4287)"/>
<path d="M4.04942 3.45947L4.01123 9.97797C4.52323 9.99509 5.06758 10.0109 5.63783 10.0254L5.63782 10.0279C6.11875 10.0398 6.61521 10.0523 7.12656 10.0628L7.12657 10.0615C7.5978 10.0716 8.07978 10.0808 8.57251 10.0891C9.02861 10.0966 9.49398 10.1036 9.96863 10.1102C10.3665 10.1155 10.768 10.1208 11.1732 10.1256L11.2108 3.60645L10.0062 3.59131C9.53437 3.58472 9.06833 3.57724 8.6107 3.56934C8.11683 3.56078 7.63266 3.55285 7.16209 3.54297C6.64846 3.53179 6.15288 3.52128 5.67602 3.50879L5.67603 3.50623C5.10513 3.49174 4.56142 3.47594 4.04942 3.45947Z" fill="url(#paint14_linear_4157_4287)"/>
<path d="M11.2108 3.60645L11.1732 10.1256L12.1566 10.1357L12.1941 3.61649L11.2108 3.60645Z" fill="url(#paint15_linear_4157_4287)"/>
<path fill-rule="evenodd" clip-rule="evenodd" d="M24.9208 3.55832L24.8833 10.0775V10.0781C25.2695 10.0676 25.6199 10.0564 25.9345 10.0445L25.972 3.52539C25.6596 3.5368 25.3092 3.54778 24.9208 3.55832ZM23.4574 10.1095L23.4574 10.1089C23.9752 10.0988 24.4499 10.0882 24.8814 10.0773L24.919 3.55811C24.4874 3.56996 24.0128 3.5805 23.4949 3.58971L23.4949 3.59033L23.1933 3.5956L22.1079 3.61206L22.1079 3.61182L21.1026 3.62301L21.0645 10.1422L22.0703 10.131H22.0703L22.0703 10.1306C22.4438 10.126 22.8043 10.1207 23.1558 10.1148L23.4574 10.1095ZM20.2689 3.63061L20.2307 10.1498V10.1504L21.0644 10.1432L21.1026 3.62402L20.2689 3.63061ZM19.4792 3.63449L19.4417 10.1537L20.2307 10.149L20.2689 3.62988L19.4792 3.63449Z" fill="url(#paint16_linear_4157_4287)"/>
<path fill-rule="evenodd" clip-rule="evenodd" d="M12.194 3.61621L12.1565 10.1347L12.9727 10.142L13.0109 3.6228L12.194 3.61621ZM13.011 3.62451L12.9728 10.1437V10.1443L13.6485 10.1489L13.6867 3.62978L13.011 3.62451ZM13.6498 10.1471L13.688 3.62793L14.3456 3.63188L14.3456 3.63281H14.9799L14.9424 10.152L14.3081 10.1487L14.3081 10.151H14.3068C14.088 10.151 13.869 10.1497 13.6498 10.1471ZM14.9443 10.1559L14.9819 3.63672H15.7107L15.7107 3.63867H16.7237L16.7237 3.64014H18.4688L18.4688 3.63889L19.4792 3.63428L19.4417 10.1534C19.1094 10.1534 18.7734 10.1547 18.4338 10.1574L18.4338 10.1593H16.6862L16.6862 10.1578H15.6713L15.6713 10.1559H14.9443Z" fill="url(#paint17_linear_4157_4287)"/>
<path fill-rule="evenodd" clip-rule="evenodd" d="M27.9689 3.37085L27.9314 9.88935C27.9521 9.88144 27.9625 9.87288 27.9625 9.86498L28.0007 3.34595C28.0006 3.35446 27.9902 3.36233 27.9689 3.37085ZM27.6991 9.93822L27.6991 9.93531C27.7777 9.92761 27.8555 9.9124 27.9313 9.88988L27.9689 3.37073C27.8931 3.39341 27.8152 3.40841 27.7365 3.4155L27.7365 3.41908C27.6308 3.43312 27.4936 3.44629 27.3249 3.45858L27.2867 9.97773C27.4557 9.96522 27.5936 9.95139 27.6991 9.93822ZM26.708 10.0111L26.708 10.0092C26.4818 10.021 26.224 10.0321 25.9346 10.0426L25.9721 3.52411C26.2608 3.51269 26.5197 3.50128 26.7488 3.48987L26.7488 3.49174C26.9701 3.48059 27.1619 3.46814 27.3249 3.45569L27.2867 9.97484C27.1236 9.98736 26.93 9.99921 26.708 10.0111Z" fill="url(#paint18_radial_4157_4287)"/>
<defs>
<linearGradient id="paint0_linear_4157_4287" x1="-0.29762" y1="1.79434" x2="6.3872" y2="2.07936" gradientUnits="userSpaceOnUse">
<stop stop-color="#4BF2A2"/>
<stop offset="0.522948" stop-color="#A89FE7"/>
<stop offset="0.669499" stop-color="#E1C4F4"/>
<stop offset="1" stop-color="#DD40CD"/>
</linearGradient>
<linearGradient id="paint1_linear_4157_4287" x1="1.13999" y1="1.90565" x2="7.78833" y2="2.19052" gradientUnits="userSpaceOnUse">
<stop stop-color="#4BF2A2"/>
<stop offset="0.522948" stop-color="#A89FE7"/>
<stop offset="0.669499" stop-color="#E1C4F4"/>
<stop offset="1" stop-color="#DD40CD"/>
</linearGradient>
<linearGradient id="paint2_linear_4157_4287" x1="3.28082" y1="1.96966" x2="9.25489" y2="2.199" gradientUnits="userSpaceOnUse">
<stop stop-color="#4BF2A2"/>
<stop offset="0.522948" stop-color="#A89FE7"/>
<stop offset="0.669499" stop-color="#E1C4F4"/>
<stop offset="1" stop-color="#DD40CD"/>
</linearGradient>
<linearGradient id="paint3_linear_4157_4287" x1="5.62502" y1="2.02" x2="10.8804" y2="2.19697" gradientUnits="userSpaceOnUse">
<stop stop-color="#4BF2A2"/>
<stop offset="0.522948" stop-color="#A89FE7"/>
<stop offset="0.669499" stop-color="#E1C4F4"/>
<stop offset="1" stop-color="#DD40CD"/>
</linearGradient>
<linearGradient id="paint4_linear_4157_4287" x1="8.20663" y1="2.05844" x2="12.8378" y2="2.19555" gradientUnits="userSpaceOnUse">
<stop stop-color="#4BF2A2"/>
<stop offset="0.522948" stop-color="#A89FE7"/>
<stop offset="0.669499" stop-color="#E1C4F4"/>
<stop offset="1" stop-color="#DD40CD"/>
</linearGradient>
<linearGradient id="paint5_linear_4157_4287" x1="11.2157" y1="2.08669" x2="16.3423" y2="2.25466" gradientUnits="userSpaceOnUse">
<stop stop-color="#4BF2A2"/>
<stop offset="0.522948" stop-color="#A89FE7"/>
<stop offset="0.669499" stop-color="#E1C4F4"/>
<stop offset="1" stop-color="#DD40CD"/>
</linearGradient>
<linearGradient id="paint6_linear_4157_4287" x1="14.7291" y1="2.08464" x2="24.4567" y2="2.68845" gradientUnits="userSpaceOnUse">
<stop stop-color="#4BF2A2"/>
<stop offset="0.522948" stop-color="#A89FE7"/>
<stop offset="0.669499" stop-color="#E1C4F4"/>
<stop offset="1" stop-color="#DD40CD"/>
</linearGradient>
<linearGradient id="paint7_linear_4157_4287" x1="19.9714" y1="2.036" x2="26.8663" y2="2.33854" gradientUnits="userSpaceOnUse">
<stop stop-color="#4BF2A2"/>
<stop offset="0.522948" stop-color="#A89FE7"/>
<stop offset="0.669499" stop-color="#E1C4F4"/>
<stop offset="1" stop-color="#DD40CD"/>
</linearGradient>
<radialGradient id="paint8_radial_4157_4287" cx="0" cy="0" r="1" gradientUnits="userSpaceOnUse" gradientTransform="translate(25.7017 1.58383) rotate(45.6168) scale(5.66 5.93488)">
<stop stop-color="#DD40CD"/>
<stop offset="0.421875" stop-color="#564D8F"/>
<stop offset="1" stop-color="#4BF2A2"/>
</radialGradient>
<radialGradient id="paint9_radial_4157_4287" cx="0" cy="0" r="1" gradientUnits="userSpaceOnUse" gradientTransform="translate(11.973 0.235493) rotate(-0.451134) scale(23.7365 0.69253)">
<stop stop-color="#DD40CD"/>
<stop offset="0.421875" stop-color="#564D8F"/>
<stop offset="1" stop-color="#4BF2A2"/>
</radialGradient>
<linearGradient id="paint10_linear_4157_4287" x1="-0.820731" y1="16.8541" x2="15.6816" y2="17.2323" gradientUnits="userSpaceOnUse">
<stop stop-color="#DD40CD"/>
<stop offset="0.302083" stop-color="#A89FE7"/>
<stop offset="0.46875" stop-color="#E1C4F4"/>
<stop offset="1" stop-color="#41CB89"/>
</linearGradient>
<linearGradient id="paint11_linear_4157_4287" x1="11.8075" y1="17.03" x2="27.1389" y2="17.3646" gradientUnits="userSpaceOnUse">
<stop stop-color="#4BF2A2"/>
<stop offset="0.522948" stop-color="#A89FE7"/>
<stop offset="0.669499" stop-color="#E1C4F4"/>
<stop offset="1" stop-color="#DD40CD"/>
</linearGradient>
<radialGradient id="paint12_radial_4157_4287" cx="0" cy="0" r="1" gradientUnits="userSpaceOnUse" gradientTransform="translate(22.4711 15.3717) rotate(62.2813) scale(20.3158 17.5467)">
<stop stop-color="#DD40CD"/>
<stop offset="0.421875" stop-color="#564D8F"/>
<stop offset="1" stop-color="#4BF2A2"/>
</radialGradient>
<linearGradient id="paint13_linear_4157_4287" x1="-0.240813" y1="6.58019" x2="4.57269" y2="6.64777" gradientUnits="userSpaceOnUse">
<stop stop-color="#4BF2A2"/>
<stop offset="0.522948" stop-color="#A89FE7"/>
<stop offset="0.669499" stop-color="#E1C4F4"/>
<stop offset="1" stop-color="#DD40CD"/>
</linearGradient>
<linearGradient id="paint14_linear_4157_4287" x1="3.52484" y1="6.79756" x2="13.241" y2="7.07831" gradientUnits="userSpaceOnUse">
<stop stop-color="#DD40CD"/>
<stop offset="0.302083" stop-color="#A89FE7"/>
<stop offset="0.46875" stop-color="#E1C4F4"/>
<stop offset="1" stop-color="#41CB89"/>
</linearGradient>
<linearGradient id="paint15_linear_4157_4287" x1="3.52484" y1="6.79756" x2="13.241" y2="7.07831" gradientUnits="userSpaceOnUse">
<stop stop-color="#DD40CD"/>
<stop offset="0.302083" stop-color="#A89FE7"/>
<stop offset="0.46875" stop-color="#E1C4F4"/>
<stop offset="1" stop-color="#41CB89"/>
</linearGradient>
<linearGradient id="paint16_linear_4157_4287" x1="19.0535" y1="6.83952" x2="26.8098" y2="7.01967" gradientUnits="userSpaceOnUse">
<stop stop-color="#DD40CD"/>
<stop offset="0.302083" stop-color="#A89FE7"/>
<stop offset="0.46875" stop-color="#E1C4F4"/>
<stop offset="1" stop-color="#41CB89"/>
</linearGradient>
<linearGradient id="paint17_linear_4157_4287" x1="11.7212" y1="6.88775" x2="20.4173" y2="7.11719" gradientUnits="userSpaceOnUse">
<stop stop-color="#4BF2A2"/>
<stop offset="0.522948" stop-color="#A89FE7"/>
<stop offset="0.669499" stop-color="#E1C4F4"/>
<stop offset="1" stop-color="#DD40CD"/>
</linearGradient>
<radialGradient id="paint18_radial_4157_4287" cx="0" cy="0" r="1" gradientUnits="userSpaceOnUse" gradientTransform="translate(27.1943 5.95255) rotate(80.7491) scale(8.63843 2.87505)">
<stop stop-color="#DD40CD"/>
<stop offset="0.421875" stop-color="#564D8F"/>
<stop offset="1" stop-color="#4BF2A2"/>
</radialGradient>
</defs>
</svg>
