<svg width="21" height="24" viewBox="0 0 21 24" fill="none" xmlns="http://www.w3.org/2000/svg">
<g opacity="0.5">
<path d="M9.78282 0.695161C10.2269 0.434946 10.7731 0.434947 11.2172 0.695161L19.7773 5.7108C20.2223 5.97152 20.5 6.45606 20.5 6.98436V17.0156C20.5 17.5439 20.2223 18.0285 19.7773 18.2892L11.2172 23.3048C10.7731 23.5651 10.2269 23.5651 9.78282 23.3048L1.22272 18.2892C0.777739 18.0285 0.5 17.5439 0.5 17.0156V6.98436C0.5 6.45606 0.777739 5.97152 1.22272 5.7108L9.78282 0.695161Z" fill="#10101B" stroke="url(#paint0_linear_4777_10261)"/>
<path d="M11.3078 8.89041C11.3112 8.895 11.3129 8.89959 11.3163 8.90418C11.3555 8.97146 11.3896 9.0311 11.4152 9.07851C11.4407 9.12592 11.4595 9.16109 11.468 9.18097C12.6322 11.4672 9.06454 14.8973 9.0509 14.908C9.00829 14.9416 8.98613 14.9875 8.98613 15.0349C8.98613 15.0747 9.00147 15.1144 9.03215 15.1465C9.03556 15.1496 9.03727 15.1527 9.04068 15.1557L9.79922 15.8362C9.87251 15.902 9.99013 15.9081 10.072 15.8469C10.8441 15.2184 11.4953 14.4813 12.0015 13.6647C12.4413 12.9536 12.6919 12.3083 12.7925 11.8694V11.8678C12.9067 11.4978 12.8879 11.146 13.2561 11.7746C13.3039 11.8602 13.3499 11.9458 13.3925 12.0315L13.3942 12.033L13.3993 12.0437C13.4522 12.1492 13.5016 12.2563 13.5476 12.3648C13.5544 12.3801 13.5595 12.3939 13.5664 12.4077C13.5817 12.4428 13.5953 12.478 13.609 12.5132C13.609 12.5132 13.6311 12.5682 13.6516 12.6263C13.672 12.6845 13.7198 12.8282 13.7777 13.0255C13.7897 13.0652 13.8357 13.0897 13.88 13.079C13.9022 13.0729 13.9226 13.0591 13.9328 13.0408C14.0914 12.7655 14.284 12.4474 14.509 12.0514C14.5312 12.0147 14.5346 11.9718 14.5175 11.9321C14.4323 11.7363 14.3027 11.4779 14.0368 11.0528C13.6976 10.5099 13.3073 9.99452 12.9391 9.46694C12.6425 9.04181 12.3561 8.61209 12.0834 8.1732C12.0305 8.08756 11.9777 8.00039 11.9248 7.91323C11.9027 7.87653 11.8515 7.86276 11.8123 7.88264C11.797 7.88876 11.7851 7.90099 11.7782 7.91476L11.301 8.74513C11.2788 8.79254 11.2805 8.84606 11.3078 8.89041Z" fill="url(#paint1_linear_4777_10261)"/>
<path d="M14.9624 13.449C14.9403 13.2838 14.9079 13.1202 14.8687 12.9566C14.8653 12.9398 14.8056 12.7241 14.7596 12.5574C14.7493 12.5162 14.7033 12.4917 14.659 12.5024C14.6351 12.5085 14.6164 12.5223 14.6045 12.5406L13.9806 13.6264C13.9686 13.6463 13.9635 13.6692 13.9618 13.6906C13.9345 14.5455 13.6516 15.2168 13.4709 15.5058C13.1027 16.0931 12.5726 16.5258 11.8839 16.7858C10.9311 17.1467 9.96967 17.1406 9.03045 16.7491C8.9401 16.7109 8.85317 16.6711 8.76964 16.6283C8.3435 16.4142 7.97701 16.1129 7.69916 15.752C7.48779 15.4768 7.32415 15.1648 7.20483 14.8192C7.01562 14.2687 7.0463 13.7166 7.18267 13.16C7.39234 12.3036 7.83553 11.5451 8.36395 10.8172C9.05601 9.86598 9.72251 8.90103 10.2953 7.88868C10.3328 7.82292 10.3703 7.75563 10.406 7.68834L10.4095 7.6807C10.418 7.66541 10.4282 7.65011 10.4384 7.63482C10.4776 7.58436 10.5168 7.58283 10.5543 7.63329C10.5799 7.67152 10.6038 7.71128 10.6259 7.75257C10.6447 7.78622 10.7913 8.05995 10.9754 8.40556C10.9958 8.44379 11.0453 8.45908 11.0862 8.44226C11.1032 8.43614 11.1169 8.42391 11.1254 8.40862L11.6265 7.53542C11.6504 7.4926 11.6504 7.44214 11.6265 7.39779C11.5328 7.2311 11.4407 7.06136 11.3504 6.89161C11.2532 6.70351 11.1629 6.50471 11.0572 6.31509C10.9464 6.11629 10.764 6.00312 10.51 6.00006C10.2577 5.997 10.0754 6.10558 9.95433 6.29979C9.93217 6.3365 9.91172 6.37626 9.89126 6.41449C9.7549 6.66681 9.62364 6.92067 9.48898 7.17299C9.38841 7.36109 9.28613 7.54765 9.17704 7.72963C9.14806 7.77704 9.12079 7.82445 9.09011 7.87185C8.67589 8.54013 8.23099 9.19312 7.78439 9.84457C7.39234 10.4196 6.96448 10.9747 6.65084 11.5925C6.34401 12.195 6.12412 12.8205 6.03548 13.4765C5.95366 14.0867 6.00991 14.6892 6.24003 15.2734C6.35936 15.5792 6.51618 15.8728 6.70709 16.1481C6.88437 16.402 7.09403 16.6359 7.33438 16.8439C7.42131 16.9188 7.50995 16.9907 7.6003 17.0595C8.42191 17.6773 9.39693 17.997 10.6447 17.997C10.9413 18.0153 11.3828 17.9495 11.814 17.8303C12.8163 17.555 13.6209 17.0305 14.2124 16.2521C14.676 15.6419 14.9437 14.9675 14.9931 14.2289C15.0084 13.9689 14.9982 13.709 14.9624 13.449Z" fill="url(#paint2_linear_4777_10261)"/>
</g>
<defs>
<linearGradient id="paint0_linear_4777_10261" x1="-1.24825" y1="12" x2="23.6968" y2="12.5146" gradientUnits="userSpaceOnUse">
<stop stop-color="#4BF2A2"/>
<stop offset="0.522948" stop-color="#A89FE7"/>
<stop offset="0.669499" stop-color="#E1C4F4"/>
<stop offset="1" stop-color="#DD40CD"/>
</linearGradient>
<linearGradient id="paint1_linear_4777_10261" x1="5.46504" y1="12" x2="16.157" y2="12.189" gradientUnits="userSpaceOnUse">
<stop stop-color="#4BF2A2"/>
<stop offset="0.522948" stop-color="#A89FE7"/>
<stop offset="0.669499" stop-color="#E1C4F4"/>
<stop offset="1" stop-color="#DD40CD"/>
</linearGradient>
<linearGradient id="paint2_linear_4777_10261" x1="5.46504" y1="12" x2="16.157" y2="12.189" gradientUnits="userSpaceOnUse">
<stop stop-color="#4BF2A2"/>
<stop offset="0.522948" stop-color="#A89FE7"/>
<stop offset="0.669499" stop-color="#E1C4F4"/>
<stop offset="1" stop-color="#DD40CD"/>
</linearGradient>
</defs>
</svg>
