<svg width="16" height="14" viewBox="0 0 16 14" fill="none" xmlns="http://www.w3.org/2000/svg">
  <path
    d="M15.7571 6.38832L9.82527 0.201555C9.56761 -0.0671849 9.16193 -0.0671848 8.90427 0.201555L8.69645 0.41831C8.42156 0.705012 8.42156 1.18425 8.69645 1.47095L11.9657 4.88073C12.4005 5.33422 12.1065 6.13492 11.5052 6.13492L0.666667 6.13492C0.298477 6.13492 0 6.4608 0 6.8628L0 7.13715C0 7.53915 0.298477 7.86503 0.666667 7.86503L11.5053 7.86503C12.1066 7.86503 12.4006 8.66573 11.9658 9.11922L8.69645 12.5291C8.42156 12.8158 8.42156 13.295 8.69645 13.5817L8.90427 13.7984C9.16193 14.0672 9.56761 14.0672 9.82527 13.7984L15.7571 7.61169C16.081 7.27386 16.081 6.72614 15.7571 6.38832Z"
    fill="#997EA4" />
</svg>