<svg width="20" height="18" viewBox="0 0 20 18" fill="none" xmlns="http://www.w3.org/2000/svg">
  <path
    d="M0.294987 8.06047L7.67469 0.375558C7.87146 0.17065 8.19921 0.17065 8.39598 0.375558L9.12308 1.13274C9.30889 1.32623 9.30889 1.63188 9.12308 1.82537L4.24251 6.9078C3.93734 7.22559 4.16256 7.75412 4.60315 7.75412L18.875 7.75412C19.1511 7.75412 19.375 7.97798 19.375 8.25412L19.375 9.34582C19.375 9.62196 19.1511 9.84582 18.875 9.84582L4.60309 9.84582C4.1625 9.84582 3.93728 10.3744 4.24245 10.6921L9.12308 15.7746C9.30889 15.9681 9.30889 16.2738 9.12308 16.4673L8.39598 17.2244C8.19921 17.4293 7.87146 17.4293 7.67469 17.2244L0.294987 9.53953C-0.0972233 9.1311 -0.0972233 8.4689 0.294987 8.06047Z"
    fill="white" />
</svg>