<svg width="122" height="128" viewBox="0 0 122 128" fill="none" xmlns="http://www.w3.org/2000/svg">
  <g opacity="0.70">
    <mask id="mask0_7703_5830" style="mask-type:luminance" maskUnits="userSpaceOnUse" x="9" y="27" width="12"
      height="15">
      <path
        d="M15.3199 27.3967L20.8583 33.2159C19.215 34.036 17.8002 35.2554 16.7416 36.7641C15.683 38.2728 15.0139 40.0234 14.7947 41.8579L9.26172 36.0387C9.48038 34.2048 10.1487 32.4545 11.2063 30.9458C12.2639 29.4371 13.6776 28.2174 15.3199 27.3967Z"
        fill="white" />
    </mask>
    <g mask="url(#mask0_7703_5830)">
      <path
        d="M15.3197 27.3967L20.858 33.2155C20.6829 33.3023 20.5078 33.3946 20.3381 33.4868L14.7998 27.6708C14.9695 27.5731 15.1419 27.4809 15.3197 27.3994"
        fill="url(#paint0_radial_7703_5830)" />
      <path
        d="M14.8003 27.6763L20.3386 33.4923C19.9027 33.7408 19.4842 34.0192 19.0861 34.3255L13.5477 28.5095C13.9452 28.2022 14.3638 27.9238 14.8003 27.6763Z"
        fill="url(#paint1_radial_7703_5830)" />
      <path
        d="M13.5472 28.5096L19.0855 34.3256C18.7561 34.5786 18.4413 34.8504 18.1427 35.1397L12.6017 29.321C12.9011 29.0316 13.2168 28.7597 13.5472 28.5068"
        fill="url(#paint2_radial_7703_5830)" />
      <path
        d="M12.6017 29.321L18.1508 35.1371C17.8779 35.3951 17.6181 35.6669 17.3723 35.9512L11.834 30.1352C12.0782 29.8503 12.3371 29.5785 12.6098 29.321"
        fill="url(#paint3_radial_7703_5830)" />
      <path
        d="M11.8253 30.1462L17.3636 35.9622C17.1266 36.2336 16.9057 36.5295 16.6956 36.828L11.1465 31.012C11.3546 30.7123 11.5775 30.4233 11.8145 30.1462"
        fill="url(#paint4_radial_7703_5830)" />
      <path
        d="M11.147 31.012L16.6854 36.828C16.4753 37.1319 16.2813 37.4413 16.1035 37.7616L10.5625 31.9428C10.743 31.6253 10.9369 31.3132 11.147 31.012Z"
        fill="url(#paint5_radial_7703_5830)" />
      <path
        d="M10.574 31.9431L16.1151 37.7618C15.9257 38.0986 15.7549 38.4456 15.6033 38.8013L10.0703 32.9826C10.2239 32.6298 10.3936 32.2824 10.5821 31.9431"
        fill="url(#paint6_radial_7703_5830)" />
      <path
        d="M10.0692 32.9827L15.6103 38.8014C15.4376 39.1996 15.29 39.6084 15.1685 40.0254L9.62207 34.2067C9.74428 33.7903 9.89089 33.3816 10.0612 32.9827"
        fill="url(#paint7_radial_7703_5830)" />
      <path
        d="M9.62312 34.2068L15.1614 40.0255C15.002 40.5661 14.8867 41.1188 14.8166 41.6783L9.27832 35.8623C9.34833 35.3019 9.46364 34.7482 9.62312 34.2068Z"
        fill="url(#paint8_radial_7703_5830)" />
      <path
        d="M9.27788 35.8623L14.8162 41.6783C14.8162 41.738 14.8027 41.7977 14.7947 41.8574L9.26172 36.0387C9.26172 35.979 9.26172 35.9193 9.28327 35.8623"
        fill="url(#paint9_radial_7703_5830)" />
    </g>
    <path d="M59.3324 5.30347L64.8707 11.12L20.8577 33.2134L15.3193 27.3969L59.3324 5.30347Z"
      fill="url(#paint10_radial_7703_5830)" />
    <mask id="mask1_7703_5830" style="mask-type:luminance" maskUnits="userSpaceOnUse" x="59" y="4" width="16"
      height="8">
      <path
        d="M69.1568 5.64777L74.6979 11.4665C73.2645 10.5567 71.6153 10.0506 69.9219 10.001C68.1722 9.94524 66.4364 10.3295 64.8711 11.1191L59.3301 5.3031C60.8959 4.51242 62.6329 4.12809 64.3835 4.18495C66.0759 4.23319 67.7244 4.73838 69.1568 5.64777Z"
        fill="white" />
    </mask>
    <g mask="url(#mask1_7703_5830)">
      <path
        d="M69.1568 5.64777L74.6979 11.4665C73.2645 10.5567 71.6153 10.0506 69.9219 10.001C68.1722 9.94524 66.4364 10.3295 64.8711 11.1191L59.3301 5.3031C60.8959 4.51242 62.6329 4.12809 64.3835 4.18495C66.0759 4.23319 67.7244 4.73838 69.1568 5.64777Z"
        fill="url(#paint11_radial_7703_5830)" />
    </g>
    <path d="M9.25675 36.0388L14.7951 41.858L9.76587 88.3384L4.22754 82.5192L9.25675 36.0388Z"
      fill="url(#paint12_radial_7703_5830)" />
    <mask id="mask2_7703_5830" style="mask-type:luminance" maskUnits="userSpaceOnUse" x="4" y="82" width="9"
      height="14">
      <path
        d="M12.2623 95.9815L6.72128 90.1623C5.77549 89.1516 5.0616 87.9439 4.6301 86.6246C4.1986 85.3053 4.06003 83.9066 4.22418 82.5273L9.76521 88.3465C9.59993 89.7258 9.73798 91.1249 10.1695 92.4444C10.6011 93.7639 11.3156 94.9715 12.2623 95.9815Z"
        fill="white" />
    </mask>
    <g mask="url(#mask2_7703_5830)">
      <path
        d="M4.2245 82.5192L9.76552 88.3379C9.57942 90.0001 9.82156 91.6826 10.4686 93.223L4.93027 87.4043C4.28 85.86 4.03688 84.1725 4.2245 82.5056"
        fill="url(#paint13_radial_7703_5830)" />
      <path
        d="M4.92957 87.4182L10.4679 93.2369C10.6806 93.7358 10.9357 94.2152 11.2302 94.6699L5.69189 88.8512C5.39577 88.3974 5.14064 87.9179 4.92957 87.4182Z"
        fill="url(#paint14_radial_7703_5830)" />
      <path
        d="M5.69226 88.8513L11.2306 94.67C11.4556 95.0137 11.7031 95.3419 11.9714 95.6525L6.43034 89.8338C6.16374 89.5225 5.91721 89.1944 5.69226 88.8513Z"
        fill="url(#paint15_radial_7703_5830)" />
      <path
        d="M6.43054 89.8337L11.9716 95.6525C12.0658 95.761 12.1628 95.8669 12.2625 95.9727L6.72147 90.154C6.6218 90.0509 6.52482 89.9423 6.43054 89.8337Z"
        fill="url(#paint16_radial_7703_5830)" />
    </g>
    <mask id="mask3_7703_5830" style="mask-type:luminance" maskUnits="userSpaceOnUse" x="6" y="90" width="8" height="8">
      <path
        d="M13.9154 97.3378C13.3152 96.9518 12.7619 96.4964 12.2668 95.9808L6.72852 90.1621C7.22289 90.6785 7.77627 91.134 8.37708 91.5191L13.9154 97.3378Z"
        fill="white" />
    </mask>
    <g mask="url(#mask3_7703_5830)">
      <path
        d="M8.37735 91.5218L13.9157 97.3378C13.3134 96.9525 12.7583 96.497 12.2617 95.9808L6.7207 90.1621C7.2175 90.6791 7.77363 91.1346 8.37735 91.5191"
        fill="url(#paint17_radial_7703_5830)" />
    </g>
    <mask id="mask4_7703_5830" style="mask-type:luminance" maskUnits="userSpaceOnUse" x="3" y="93" width="9" height="8">
      <path
        d="M9.15457 98.9665L3.60547 93.1614C4.30747 93.8962 5.0932 94.5448 5.94633 95.0937L11.4874 100.912C10.6353 100.36 9.85209 99.7069 9.15457 98.9665Z"
        fill="white" />
    </mask>
    <g mask="url(#mask4_7703_5830)">
      <path
        d="M5.95441 95.0937L11.4954 100.912C10.6405 100.361 9.8546 99.7074 9.15457 98.9665L3.60547 93.1614C4.30747 93.8962 5.0932 94.5448 5.94633 95.0937"
        fill="url(#paint18_radial_7703_5830)" />
    </g>
    <path d="M108.074 30.6594L113.612 36.4786L74.6982 11.4674L69.1572 5.64819L108.074 30.6594Z"
      fill="url(#paint19_radial_7703_5830)" />
    <mask id="mask5_7703_5830" style="mask-type:luminance" maskUnits="userSpaceOnUse" x="108" y="30" width="8"
      height="8">
      <path
        d="M109.739 32.0269L115.277 37.8456C114.782 37.3281 114.226 36.8725 113.623 36.4886L108.082 30.6699C108.686 31.0545 109.242 31.5101 109.739 32.0269Z"
        fill="white" />
    </mask>
    <g mask="url(#mask5_7703_5830)">
      <path
        d="M109.739 32.0269L115.277 37.8456C114.782 37.3281 114.227 36.8725 113.623 36.4886L108.082 30.6699C108.686 31.0545 109.242 31.5101 109.739 32.0269Z"
        fill="url(#paint20_radial_7703_5830)" />
    </g>
    <mask id="mask6_7703_5830" style="mask-type:luminance" maskUnits="userSpaceOnUse" x="109" y="32" width="7"
      height="7">
      <path
        d="M115.26 37.8377C115.36 37.9436 115.46 38.0521 115.557 38.1634L110.007 32.3447C109.913 32.2361 109.814 32.1276 109.714 32.0217L115.26 37.8377Z"
        fill="white" />
    </mask>
    <g mask="url(#mask6_7703_5830)">
      <path
        d="M109.738 32.0273L115.279 37.8461C115.379 37.9519 115.476 38.0578 115.57 38.1663L110.008 32.3503C109.913 32.239 109.816 32.1332 109.717 32.0273"
        fill="url(#paint21_radial_7703_5830)" />
    </g>
    <mask id="mask7_7703_5830" style="mask-type:luminance" maskUnits="userSpaceOnUse" x="110" y="32" width="7"
      height="7">
      <path
        d="M116.08 38.8311C114.232 36.8933 112.387 34.9537 110.545 33.0124C110.38 32.7844 110.205 32.5591 110.006 32.3447L110.652 33.0232L111.337 33.7424L112.048 34.4915L112.772 35.2514L113.5 36.014L114.211 36.763C114.418 36.9775 114.693 37.2678 114.898 37.4822C115.102 37.6966 115.35 37.9599 115.547 38.1635C115.744 38.367 115.913 38.6004 116.08 38.8311Z"
        fill="white" />
    </mask>
    <g mask="url(#mask7_7703_5830)">
      <path
        d="M109.737 32.0273L115.278 37.8461C115.378 37.9519 115.475 38.0578 115.569 38.1663L110.007 32.3503C109.912 32.239 109.815 32.1332 109.716 32.0273"
        fill="url(#paint22_radial_7703_5830)" />
      <path
        d="M110.007 32.3503L115.559 38.1691C115.825 38.4803 116.072 38.8085 116.297 39.1515L110.758 33.3328C110.533 32.9901 110.286 32.6628 110.018 32.3531"
        fill="url(#paint23_radial_7703_5830)" />
    </g>
    <mask id="mask8_7703_5830" style="mask-type:luminance" maskUnits="userSpaceOnUse" x="110" y="33" width="7"
      height="8">
      <path
        d="M116.083 38.8312C116.413 39.2968 116.7 39.7919 116.94 40.3103L111.402 34.4916C111.163 33.9731 110.877 33.478 110.548 33.0125L110.982 33.4684C111.119 33.6122 111.302 33.8076 111.442 33.9515L111.916 34.4508L112.404 34.9611L112.889 35.4713L113.366 35.9707L113.823 36.4537L114.257 36.9097L114.47 37.135L114.699 37.3711L114.933 37.618L115.173 37.8704L115.413 38.1228L115.647 38.3698L115.873 38.6059L116.083 38.8312Z"
        fill="white" />
    </mask>
    <g mask="url(#mask8_7703_5830)">
      <path
        d="M110.008 32.3503L115.559 38.1691C115.826 38.4803 116.073 38.8085 116.298 39.1515L110.759 33.3328C110.534 32.9901 110.287 32.6628 110.018 32.3531"
        fill="url(#paint24_radial_7703_5830)" />
      <path
        d="M110.759 33.3301L116.297 39.1488C116.592 39.6031 116.847 40.0826 117.06 40.5818L111.521 34.763C111.309 34.2642 111.053 33.7847 110.759 33.3301Z"
        fill="url(#paint25_radial_7703_5830)" />
    </g>
    <mask id="mask9_7703_5830" style="mask-type:luminance" maskUnits="userSpaceOnUse" x="111" y="34" width="7"
      height="8">
      <path
        d="M117.356 41.3716L111.815 35.5556C111.699 35.1926 111.56 34.8373 111.4 34.4917L112.047 35.1702L112.731 35.8894L113.442 36.6384L114.167 37.3983L114.894 38.161L115.605 38.91C115.813 39.1244 116.088 39.4148 116.292 39.6292L116.939 40.3104C117.1 40.6551 117.239 41.0095 117.356 41.3716Z"
        fill="white" />
    </mask>
    <g mask="url(#mask9_7703_5830)">
      <path
        d="M110.76 33.3301L116.298 39.1488C116.593 39.6031 116.848 40.0826 117.06 40.5818L111.522 34.763C111.309 34.2642 111.054 33.7847 110.76 33.3301Z"
        fill="url(#paint26_radial_7703_5830)" />
      <path
        d="M111.522 34.7629L117.06 40.5817C117.711 42.126 117.954 43.8135 117.766 45.4804L112.225 39.6616C112.414 37.995 112.171 36.3075 111.522 34.7629Z"
        fill="url(#paint27_radial_7703_5830)" />
    </g>
    <mask id="mask10_7703_5830" style="mask-type:luminance" maskUnits="userSpaceOnUse" x="111" y="35" width="7"
      height="8">
      <path
        d="M117.355 41.3717C117.504 41.8344 117.618 42.308 117.694 42.7884L112.161 36.9696C112.083 36.4902 111.969 36.0175 111.819 35.5557C112.85 36.6412 113.88 37.7223 114.909 38.7988L115.195 39.1001L115.496 39.4176L115.811 39.746L116.132 40.0825L116.453 40.4218L116.612 40.5873L116.768 40.7529L117.072 41.0704C117.175 41.1622 117.27 41.263 117.355 41.3717Z"
        fill="white" />
    </mask>
    <g mask="url(#mask10_7703_5830)">
      <path
        d="M111.521 34.7632L117.059 40.5819C117.709 42.1263 117.952 43.8137 117.765 45.4806L112.224 39.6619C112.412 37.9952 112.17 36.3078 111.521 34.7632Z"
        fill="url(#paint28_radial_7703_5830)" />
    </g>
    <mask id="mask11_7703_5830" style="mask-type:luminance" maskUnits="userSpaceOnUse" x="112" y="36" width="6"
      height="10">
      <path
        d="M117.695 42.7833C117.838 43.6734 117.862 44.579 117.765 45.4755L112.224 39.6622C112.322 38.7658 112.299 37.8602 112.156 36.97L112.8 37.6485C113.007 37.8629 113.28 38.1505 113.487 38.3677L114.198 39.114L114.923 39.8766L115.286 40.2566L115.647 40.6365L116.006 41.0138L116.709 41.752L117.048 42.1075C117.293 42.3019 117.511 42.5293 117.695 42.7833Z"
        fill="white" />
    </mask>
    <g mask="url(#mask11_7703_5830)">
      <path
        d="M111.52 34.7634L117.059 40.5822C117.709 42.1265 117.952 43.814 117.764 45.4808L112.223 39.6621C112.412 37.9955 112.17 36.308 111.52 34.7634Z"
        fill="url(#paint29_radial_7703_5830)" />
    </g>
    <mask id="mask12_7703_5830" style="mask-type:luminance" maskUnits="userSpaceOnUse" x="112" y="29" width="10"
      height="17">
      <path
        d="M112.836 29.0227L118.374 34.8392C119.711 36.2666 120.721 37.9726 121.331 39.8364C121.941 41.7003 122.137 43.6766 121.906 45.6253L116.365 39.798C116.596 37.8511 116.4 35.8768 115.79 34.0147C115.18 32.1527 114.172 30.4485 112.836 29.0227Z"
        fill="white" />
    </mask>
    <g mask="url(#mask12_7703_5830)">
      <path
        d="M112.835 29.0225L118.374 34.8385C118.516 34.9877 118.643 35.1397 118.786 35.2917L113.239 29.4838C113.105 29.3291 112.97 29.1772 112.827 29.0306"
        fill="url(#paint30_radial_7703_5830)" />
      <path
        d="M113.239 29.4839L118.778 35.2999C119.157 35.7384 119.506 36.2027 119.823 36.6894L114.285 30.8707C113.967 30.386 113.617 29.9227 113.239 29.4839Z"
        fill="url(#paint31_radial_7703_5830)" />
      <path
        d="M114.293 30.8625L119.831 36.6813C120.25 37.3223 120.611 37.9999 120.909 38.7059L115.371 32.8872C115.069 32.1825 114.709 31.5052 114.293 30.8625Z"
        fill="url(#paint32_radial_7703_5830)" />
      <path
        d="M115.37 32.8873L120.909 38.712C121.827 40.893 122.17 43.2762 121.905 45.6304L116.364 39.7976C116.63 37.4428 116.288 35.0587 115.37 32.8765"
        fill="url(#paint33_radial_7703_5830)" />
    </g>
    <path d="M47.2917 116.533L52.8327 122.352L13.9163 97.3385L8.37793 91.522L47.2917 116.533Z"
      fill="url(#paint34_radial_7703_5830)" />
    <path d="M44.8671 120.105L50.4055 125.924L11.4944 100.91L5.95605 95.094L44.8671 120.105Z"
      fill="url(#paint35_radial_7703_5830)" />
    <mask id="mask13_7703_5830" style="mask-type:luminance" maskUnits="userSpaceOnUse" x="52" y="117" width="3"
      height="4">
      <path
        d="M52.0725 117.999C52.1345 118.026 52.1803 118.113 52.2288 118.164L52.886 118.853L53.2282 119.214L53.581 119.583L54.8417 120.908C53.9178 119.936 52.9884 118.967 52.0645 117.999H52.0725Z"
        fill="white" />
    </mask>
    <g mask="url(#mask13_7703_5830)">
      <path
        d="M57.1178 116.88L62.6561 122.696C61.0913 123.487 59.3551 123.871 57.6053 123.814C55.9129 123.766 54.2645 123.261 52.832 122.351L47.291 116.533C48.7234 117.443 50.3718 117.949 52.0643 117.998C53.8148 118.054 55.5515 117.67 57.1178 116.88Z"
        fill="url(#paint36_radial_7703_5830)" />
    </g>
    <mask id="mask14_7703_5830" style="mask-type:luminance" maskUnits="userSpaceOnUse" x="47" y="116" width="16"
      height="8">
      <path
        d="M57.6044 123.815C55.912 123.767 54.2635 123.261 52.8311 122.352L47.29 116.533C48.7224 117.443 50.3708 117.949 52.0633 117.999L54.8406 120.908C55.7619 121.874 56.6822 122.841 57.6017 123.809L52.0714 117.999C53.8192 118.053 55.553 117.669 57.1168 116.881L62.6551 122.697C61.0903 123.487 59.3541 123.872 57.6044 123.815Z"
        fill="white" />
    </mask>
    <g mask="url(#mask14_7703_5830)">
      <path
        d="M57.1168 116.881L62.6551 122.697C61.0903 123.487 59.3541 123.872 57.6044 123.815C55.912 123.767 54.2635 123.261 52.8311 122.352L47.29 116.533C48.7224 117.443 50.3708 117.949 52.0633 117.999C53.8138 118.054 55.5506 117.67 57.1168 116.881Z"
        fill="url(#paint37_radial_7703_5830)" />
    </g>
    <mask id="mask15_7703_5830" style="mask-type:luminance" maskUnits="userSpaceOnUse" x="44" y="120" width="21"
      height="8">
      <path
        d="M58.7534 120.593L64.2944 126.412C62.0802 127.528 59.6251 128.071 57.1506 127.992C54.7629 127.92 52.4378 127.206 50.4163 125.924L44.8779 120.105C46.8989 121.389 49.2242 122.104 51.6123 122.176C54.0861 122.254 56.5403 121.71 58.7534 120.593Z"
        fill="white" />
    </mask>
    <g mask="url(#mask15_7703_5830)">
      <path
        d="M58.7535 120.593L64.2945 126.412C62.0803 127.528 59.6252 128.071 57.1507 127.992C54.7631 127.92 52.4379 127.206 50.4164 125.924L44.8781 120.105C46.899 121.389 49.2244 122.104 51.6124 122.176C54.0862 122.254 56.5404 121.71 58.7535 120.593Z"
        fill="url(#paint38_radial_7703_5830)" />
    </g>
    <path d="M112.225 39.6621L117.766 45.4786L112.734 91.9589L107.195 86.1424L112.225 39.6621Z"
      fill="url(#paint39_radial_7703_5830)" />
    <path d="M101.131 94.7844L106.672 100.604L62.6565 122.697L57.1182 116.878L101.131 94.7844Z"
      fill="url(#paint40_radial_7703_5830)" />
    <path d="M116.367 39.8086L121.905 45.6251L116.873 92.1054L111.335 86.2889L116.367 39.8086Z"
      fill="url(#paint41_radial_7703_5830)" />
    <path
      d="M64.3836 4.18507C66.076 4.23331 67.7245 4.73855 69.1569 5.64801L108.073 30.6619C111.036 32.5618 112.62 36.0088 112.224 39.6621L107.195 86.1424C106.976 87.9769 106.307 89.7275 105.248 91.2362C104.19 92.745 102.775 93.9644 101.132 94.7844L57.1186 116.881C55.5524 117.67 53.8156 118.055 52.0651 117.999C50.3726 117.949 48.7242 117.443 47.2918 116.533L8.37806 91.522C5.41495 89.622 3.83103 86.1723 4.22431 82.519L9.26161 36.0387C9.48199 34.2046 10.1516 32.4545 11.21 30.946C12.2685 29.4374 13.6827 28.2177 15.3252 27.3967L59.3382 5.30331C60.9014 4.51324 62.6357 4.12888 64.3836 4.18507Z"
      fill="url(#paint42_radial_7703_5830)" />
    <mask id="mask16_7703_5830" style="mask-type:luminance" maskUnits="userSpaceOnUse" x="101" y="86" width="12"
      height="15">
      <path
        d="M107.195 86.1426L112.734 91.9618C112.513 93.7948 111.844 95.5437 110.785 97.0509C109.727 98.5582 108.312 99.7763 106.67 100.596L101.132 94.7764C102.774 93.9571 104.188 92.739 105.247 91.2317C106.305 89.7245 106.975 87.9756 107.195 86.1426Z"
        fill="white" />
    </mask>
    <g mask="url(#mask16_7703_5830)">
      <path
        d="M107.194 86.1426L112.733 91.9613C112.733 92.021 112.733 92.0807 112.711 92.1377L107.173 86.3217C107.173 86.262 107.173 86.2023 107.194 86.1426Z"
        fill="url(#paint43_radial_7703_5830)" />
      <path
        d="M107.174 86.3215L112.701 92.1376C112.631 92.6979 112.516 93.2516 112.357 93.7931L106.829 87.9743C106.987 87.4335 107.102 86.8808 107.174 86.3215Z"
        fill="url(#paint44_radial_7703_5830)" />
      <path
        d="M106.828 87.9746L112.367 93.7934C112.244 94.2098 112.098 94.6185 111.928 95.0174L106.387 89.1959C106.558 88.7972 106.706 88.3885 106.828 87.9719"
        fill="url(#paint45_radial_7703_5830)" />
      <path
        d="M106.387 89.196L111.928 95.0148C111.774 95.3697 111.604 95.7166 111.416 96.0542L105.875 90.2355C106.064 89.8987 106.235 89.5517 106.387 89.196Z"
        fill="url(#paint46_radial_7703_5830)" />
      <path
        d="M105.876 90.2383L111.417 96.057C111.236 96.3773 111.042 96.6866 110.832 96.9879L105.294 91.1719C105.501 90.8706 105.698 90.5585 105.876 90.2383Z"
        fill="url(#paint47_radial_7703_5830)" />
      <path
        d="M105.293 91.1721L110.832 96.9881C110.624 97.2887 110.401 97.5786 110.164 97.8566L104.62 92.0379C104.857 91.7665 105.078 91.4707 105.288 91.1721"
        fill="url(#paint48_radial_7703_5830)" />
      <path
        d="M104.62 92.0378L110.158 97.8566C109.913 98.1415 109.655 98.4184 109.383 98.6708L103.842 92.852C104.115 92.594 104.374 92.3222 104.62 92.0378Z"
        fill="url(#paint49_radial_7703_5830)" />
      <path
        d="M103.847 92.8628L109.388 98.6951C109.087 98.983 108.772 99.2548 108.443 99.5093L102.904 93.6743C103.233 93.4207 103.548 93.1489 103.847 92.8601"
        fill="url(#paint50_radial_7703_5830)" />
      <path
        d="M102.904 93.6746L108.443 99.4933C108.044 99.7986 107.625 100.077 107.19 100.326L101.657 94.5077C102.093 94.2586 102.511 93.9802 102.91 93.6746"
        fill="url(#paint51_radial_7703_5830)" />
      <path
        d="M101.657 94.5078L107.19 100.324C107.02 100.419 106.848 100.514 106.67 100.595L101.132 94.7765C101.307 94.6897 101.482 94.5974 101.652 94.5051"
        fill="url(#paint52_radial_7703_5830)" />
    </g>
    <path d="M102.766 98.5L108.305 104.316L64.2942 126.413L58.7559 120.593L102.766 98.5Z"
      fill="url(#paint53_radial_7703_5830)" />
    <mask id="mask17_7703_5830" style="mask-type:luminance" maskUnits="userSpaceOnUse" x="102" y="86" width="15"
      height="19">
      <path
        d="M111.335 86.2891L116.874 92.1055C116.316 97.2625 113.032 101.947 108.305 104.319L102.767 98.5002C107.491 96.128 110.775 91.4487 111.335 86.2891Z"
        fill="white" />
    </mask>
    <g mask="url(#mask17_7703_5830)">
      <path
        d="M111.337 86.2891L116.875 92.1051C116.875 92.1892 116.856 92.2734 116.845 92.3575L111.307 86.5388C111.307 86.4573 111.326 86.3732 111.337 86.2891Z"
        fill="url(#paint54_radial_7703_5830)" />
      <path
        d="M111.306 86.5388L116.844 92.3575C116.745 93.1475 116.582 93.9281 116.357 94.6915L110.816 88.8755C111.04 88.1111 111.203 87.3297 111.303 86.5388"
        fill="url(#paint55_radial_7703_5830)" />
      <path
        d="M110.816 88.8755L116.355 94.6915C116.183 95.2801 115.975 95.8575 115.732 96.4203L110.197 90.6043C110.438 90.0411 110.646 89.4638 110.819 88.8755"
        fill="url(#paint56_radial_7703_5830)" />
      <path
        d="M110.196 90.6045L115.735 96.4205C115.521 96.923 115.28 97.4132 115.013 97.8888L109.469 92.0727C109.738 91.5951 109.975 91.1039 110.191 90.6045"
        fill="url(#paint57_radial_7703_5830)" />
      <path
        d="M109.469 92.073L115.013 97.8809C114.76 98.335 114.485 98.7747 114.189 99.1999L108.661 93.3893C108.958 92.9632 109.235 92.5235 109.488 92.073"
        fill="url(#paint58_radial_7703_5830)" />
      <path
        d="M108.661 93.3892L114.202 99.2079C113.902 99.6322 113.581 100.041 113.24 100.432L107.704 94.624C108.039 94.2322 108.354 93.8237 108.647 93.4"
        fill="url(#paint59_radial_7703_5830)" />
      <path
        d="M107.705 94.6244L113.24 100.432C112.894 100.839 112.528 101.229 112.144 101.599L106.603 95.7805C106.99 95.4116 107.357 95.0221 107.702 94.6135"
        fill="url(#paint60_radial_7703_5830)" />
      <path
        d="M106.605 95.7805L112.146 101.599C111.719 102.007 111.269 102.39 110.799 102.747L105.261 96.9285C105.731 96.5721 106.181 96.1888 106.608 95.7805"
        fill="url(#paint61_radial_7703_5830)" />
      <path
        d="M105.272 96.9287L110.816 102.747C110.253 103.179 109.662 103.572 109.046 103.923L103.508 98.1066C104.123 97.7536 104.714 97.3601 105.278 96.9287"
        fill="url(#paint62_radial_7703_5830)" />
      <path
        d="M103.502 98.1067L109.041 103.923C108.801 104.061 108.556 104.194 108.305 104.319L102.767 98.5002C103.015 98.3754 103.26 98.2424 103.502 98.1067Z"
        fill="url(#paint63_radial_7703_5830)" />
    </g>
    <path
      d="M110.495 27.0874C114.673 29.7744 116.925 34.6491 116.365 39.8088L111.335 86.2891C110.775 91.446 107.491 96.128 102.767 98.5029L58.7536 120.596C56.5405 121.713 54.0863 122.257 51.6125 122.179C49.2245 122.107 46.8991 121.392 44.8782 120.108L5.95362 95.0939C1.77563 92.4096 -0.473644 87.5349 0.08396 82.3752L5.11586 35.8949C5.67347 30.738 8.95715 26.0533 13.6847 23.6811L57.695 1.58767C59.9074 0.469403 62.3622 -0.0736237 64.8361 0.00801621C67.2279 0.075809 69.5579 0.788102 71.5839 2.07079L110.495 27.0874ZM107.195 86.1425L112.224 39.6622C112.62 36.0089 111.028 32.5619 108.071 30.6592L69.1568 5.64808C67.7244 4.73862 66.0759 4.23338 64.3835 4.18514C62.6329 4.12827 60.8959 4.51264 59.3301 5.30338L15.3198 27.3968C13.6775 28.2175 12.2638 29.4372 11.2061 30.9459C10.1485 32.4546 9.4802 34.2048 9.26153 36.0388L4.22424 82.5191C3.82826 86.1724 5.42026 89.6221 8.37799 91.522L47.2918 116.533C48.7241 117.443 50.3725 117.949 52.0651 117.999C53.8156 118.055 55.5523 117.67 57.1185 116.881L101.132 94.7845C102.775 93.9645 104.19 92.7451 105.248 91.2363C106.307 89.7276 106.976 87.977 107.195 86.1425Z"
      fill="url(#paint64_radial_7703_5830)" />
  </g>
  <defs>
    <radialGradient id="paint0_radial_7703_5830" cx="0" cy="0" r="1" gradientUnits="userSpaceOnUse"
      gradientTransform="translate(17.4504 28.407) rotate(45.8191) scale(6.02651 7.8865)">
      <stop stop-color="#A6FFD4" />
      <stop offset="0.48193" stop-color="#83EAE4" stop-opacity="0.31" />
      <stop offset="1" stop-color="#C037C2" stop-opacity="0.96" />
    </radialGradient>
    <radialGradient id="paint1_radial_7703_5830" cx="0" cy="0" r="1" gradientUnits="userSpaceOnUse"
      gradientTransform="translate(16.5189 28.7793) rotate(45.0646) scale(6.66562 8.72642)">
      <stop stop-color="#A6FFD4" />
      <stop offset="0.48193" stop-color="#83EAE4" stop-opacity="0.31" />
      <stop offset="1" stop-color="#C037C2" stop-opacity="0.96" />
    </radialGradient>
    <radialGradient id="paint2_radial_7703_5830" cx="0" cy="0" r="1" gradientUnits="userSpaceOnUse"
      gradientTransform="translate(15.4385 29.6072) rotate(46.3195) scale(6.50863 8.51188)">
      <stop stop-color="#A6FFD4" />
      <stop offset="0.48193" stop-color="#83EAE4" stop-opacity="0.31" />
      <stop offset="1" stop-color="#C037C2" stop-opacity="0.96" />
    </radialGradient>
    <radialGradient id="paint3_radial_7703_5830" cx="0" cy="0" r="1" gradientUnits="userSpaceOnUse"
      gradientTransform="translate(14.5977 30.4209) rotate(47.0541) scale(6.4278 8.39347)">
      <stop stop-color="#A6FFD4" />
      <stop offset="0.48193" stop-color="#83EAE4" stop-opacity="0.31" />
      <stop offset="1" stop-color="#C037C2" stop-opacity="0.96" />
    </radialGradient>
    <radialGradient id="paint4_radial_7703_5830" cx="0" cy="0" r="1" gradientUnits="userSpaceOnUse"
      gradientTransform="translate(13.8666 31.2547) rotate(47.7293) scale(6.40795 8.35107)">
      <stop stop-color="#A6FFD4" />
      <stop offset="0.48193" stop-color="#83EAE4" stop-opacity="0.31" />
      <stop offset="1" stop-color="#C037C2" stop-opacity="0.96" />
    </radialGradient>
    <radialGradient id="paint5_radial_7703_5830" cx="0" cy="0" r="1" gradientUnits="userSpaceOnUse"
      gradientTransform="translate(13.2414 32.1317) rotate(48.4522) scale(6.40013 8.3181)">
      <stop stop-color="#A6FFD4" />
      <stop offset="0.48193" stop-color="#83EAE4" stop-opacity="0.31" />
      <stop offset="1" stop-color="#C037C2" stop-opacity="0.96" />
    </radialGradient>
    <radialGradient id="paint6_radial_7703_5830" cx="0" cy="0" r="1" gradientUnits="userSpaceOnUse"
      gradientTransform="translate(12.715 33.0808) rotate(49.2696) scale(6.42252 8.31496)">
      <stop stop-color="#A6FFD4" />
      <stop offset="0.48193" stop-color="#83EAE4" stop-opacity="0.31" />
      <stop offset="1" stop-color="#C037C2" stop-opacity="0.96" />
    </radialGradient>
    <radialGradient id="paint7_radial_7703_5830" cx="0" cy="0" r="1" gradientUnits="userSpaceOnUse"
      gradientTransform="translate(12.242 34.151) rotate(50.2853) scale(6.49719 8.36159)">
      <stop stop-color="#A6FFD4" />
      <stop offset="0.48193" stop-color="#83EAE4" stop-opacity="0.31" />
      <stop offset="1" stop-color="#C037C2" stop-opacity="0.96" />
    </radialGradient>
    <radialGradient id="paint8_radial_7703_5830" cx="0" cy="0" r="1" gradientUnits="userSpaceOnUse"
      gradientTransform="translate(11.8523 35.4462) rotate(52.4311) scale(6.68943 8.46462)">
      <stop stop-color="#A6FFD4" />
      <stop offset="0.48193" stop-color="#83EAE4" stop-opacity="0.31" />
      <stop offset="1" stop-color="#C037C2" stop-opacity="0.96" />
    </radialGradient>
    <radialGradient id="paint9_radial_7703_5830" cx="0" cy="0" r="1" gradientUnits="userSpaceOnUse"
      gradientTransform="translate(11.6919 36.8568) rotate(47.851) scale(5.73839 7.47536)">
      <stop stop-color="#A6FFD4" />
      <stop offset="0.48193" stop-color="#83EAE4" stop-opacity="0.31" />
      <stop offset="1" stop-color="#C037C2" stop-opacity="0.96" />
    </radialGradient>
    <radialGradient id="paint10_radial_7703_5830" cx="0" cy="0" r="1" gradientUnits="userSpaceOnUse"
      gradientTransform="translate(36.999 9.93345) rotate(29.9658) scale(39.6536 44.9273)">
      <stop stop-color="#A6FFD4" />
      <stop offset="0.48193" stop-color="#83EAE4" stop-opacity="0.31" />
      <stop offset="1" stop-color="#C037C2" stop-opacity="0.96" />
    </radialGradient>
    <radialGradient id="paint11_radial_7703_5830" cx="0" cy="0" r="1" gradientUnits="userSpaceOnUse"
      gradientTransform="translate(66.0538 5.38829) rotate(25.8908) scale(11.8428 12.1811)">
      <stop stop-color="#A6FFD4" />
      <stop offset="0.48193" stop-color="#83EAE4" stop-opacity="0.31" />
      <stop offset="1" stop-color="#C037C2" stop-opacity="0.96" />
    </radialGradient>
    <radialGradient id="paint12_radial_7703_5830" cx="0" cy="0" r="1" gradientUnits="userSpaceOnUse"
      gradientTransform="translate(8.85103 44.7148) rotate(78.8336) scale(37.8306 18.8195)">
      <stop stop-color="#A6FFD4" />
      <stop offset="0.48193" stop-color="#83EAE4" stop-opacity="0.31" />
      <stop offset="1" stop-color="#C037C2" stop-opacity="0.96" />
    </radialGradient>
    <radialGradient id="paint13_radial_7703_5830" cx="0" cy="0" r="1" gradientUnits="userSpaceOnUse"
      gradientTransform="translate(6.92179 84.2835) rotate(60.1107) scale(8.77248 9.92376)">
      <stop stop-color="#A6FFD4" />
      <stop offset="0.48193" stop-color="#83EAE4" stop-opacity="0.31" />
      <stop offset="1" stop-color="#C037C2" stop-opacity="0.96" />
    </radialGradient>
    <radialGradient id="paint14_radial_7703_5830" cx="0" cy="0" r="1" gradientUnits="userSpaceOnUse"
      gradientTransform="translate(7.68622 88.6212) rotate(49.6752) scale(6.75007 8.71958)">
      <stop stop-color="#A6FFD4" />
      <stop offset="0.48193" stop-color="#83EAE4" stop-opacity="0.31" />
      <stop offset="1" stop-color="#C037C2" stop-opacity="0.96" />
    </radialGradient>
    <radialGradient id="paint15_radial_7703_5830" cx="0" cy="0" r="1" gradientUnits="userSpaceOnUse"
      gradientTransform="translate(8.43949 89.9796) rotate(47.9516) scale(6.4996 8.46397)">
      <stop stop-color="#A6FFD4" />
      <stop offset="0.48193" stop-color="#83EAE4" stop-opacity="0.31" />
      <stop offset="1" stop-color="#C037C2" stop-opacity="0.96" />
    </radialGradient>
    <radialGradient id="paint16_radial_7703_5830" cx="0" cy="0" r="1" gradientUnits="userSpaceOnUse"
      gradientTransform="translate(8.98213 90.8521) rotate(47.1365) scale(5.94361 7.75958)">
      <stop stop-color="#A6FFD4" />
      <stop offset="0.48193" stop-color="#83EAE4" stop-opacity="0.31" />
      <stop offset="1" stop-color="#C037C2" stop-opacity="0.96" />
    </radialGradient>
    <radialGradient id="paint17_radial_7703_5830" cx="0" cy="0" r="1" gradientUnits="userSpaceOnUse"
      gradientTransform="translate(9.86864 91.3525) rotate(45.5919) scale(7.12828 9.33014)">
      <stop stop-color="#A6FFD4" />
      <stop offset="0.48193" stop-color="#83EAE4" stop-opacity="0.31" />
      <stop offset="1" stop-color="#C037C2" stop-opacity="0.96" />
    </radialGradient>
    <radialGradient id="paint18_radial_7703_5830" cx="0" cy="0" r="1" gradientUnits="userSpaceOnUse"
      gradientTransform="translate(7.05747 94.4472) rotate(45.1599) scale(7.75734 10.1555)">
      <stop stop-color="#A6FFD4" />
      <stop offset="0.48193" stop-color="#83EAE4" stop-opacity="0.31" />
      <stop offset="1" stop-color="#C037C2" stop-opacity="0.96" />
    </radialGradient>
    <radialGradient id="paint19_radial_7703_5830" cx="0" cy="0" r="1" gradientUnits="userSpaceOnUse"
      gradientTransform="translate(88.607 10.7626) rotate(35.371) scale(37.7959 46.7124)">
      <stop stop-color="#A6FFD4" />
      <stop offset="0.48193" stop-color="#83EAE4" stop-opacity="0.31" />
      <stop offset="1" stop-color="#C037C2" stop-opacity="0.96" />
    </radialGradient>
    <radialGradient id="paint20_radial_7703_5830" cx="0" cy="0" r="1" gradientUnits="userSpaceOnUse"
      gradientTransform="translate(111.23 31.8603) rotate(45.5918) scale(7.12828 9.33015)">
      <stop stop-color="#A6FFD4" />
      <stop offset="0.48193" stop-color="#83EAE4" stop-opacity="0.31" />
      <stop offset="1" stop-color="#C037C2" stop-opacity="0.96" />
    </radialGradient>
    <radialGradient id="paint21_radial_7703_5830" cx="0" cy="0" r="1" gradientUnits="userSpaceOnUse"
      gradientTransform="translate(112.278 33.0457) rotate(47.0311) scale(5.95379 7.77495)">
      <stop stop-color="#A6FFD4" />
      <stop offset="0.48193" stop-color="#83EAE4" stop-opacity="0.31" />
      <stop offset="1" stop-color="#C037C2" stop-opacity="0.96" />
    </radialGradient>
    <radialGradient id="paint22_radial_7703_5830" cx="0" cy="0" r="1" gradientUnits="userSpaceOnUse"
      gradientTransform="translate(112.277 33.0457) rotate(47.0311) scale(5.95379 7.77495)">
      <stop stop-color="#A6FFD4" />
      <stop offset="0.48193" stop-color="#83EAE4" stop-opacity="0.31" />
      <stop offset="1" stop-color="#C037C2" stop-opacity="0.96" />
    </radialGradient>
    <radialGradient id="paint23_radial_7703_5830" cx="0" cy="0" r="1" gradientUnits="userSpaceOnUse"
      gradientTransform="translate(112.759 33.4786) rotate(47.9027) scale(6.50461 8.47197)">
      <stop stop-color="#A6FFD4" />
      <stop offset="0.48193" stop-color="#83EAE4" stop-opacity="0.31" />
      <stop offset="1" stop-color="#C037C2" stop-opacity="0.96" />
    </radialGradient>
    <radialGradient id="paint24_radial_7703_5830" cx="0" cy="0" r="1" gradientUnits="userSpaceOnUse"
      gradientTransform="translate(112.76 33.4786) rotate(47.9027) scale(6.50461 8.47197)">
      <stop stop-color="#A6FFD4" />
      <stop offset="0.48193" stop-color="#83EAE4" stop-opacity="0.31" />
      <stop offset="1" stop-color="#C037C2" stop-opacity="0.96" />
    </radialGradient>
    <radialGradient id="paint25_radial_7703_5830" cx="0" cy="0" r="1" gradientUnits="userSpaceOnUse"
      gradientTransform="translate(113.516 34.5331) rotate(49.6752) scale(6.75008 8.71959)">
      <stop stop-color="#A6FFD4" />
      <stop offset="0.48193" stop-color="#83EAE4" stop-opacity="0.31" />
      <stop offset="1" stop-color="#C037C2" stop-opacity="0.96" />
    </radialGradient>
    <radialGradient id="paint26_radial_7703_5830" cx="0" cy="0" r="1" gradientUnits="userSpaceOnUse"
      gradientTransform="translate(113.516 34.5331) rotate(49.6752) scale(6.75008 8.71959)">
      <stop stop-color="#A6FFD4" />
      <stop offset="0.48193" stop-color="#83EAE4" stop-opacity="0.31" />
      <stop offset="1" stop-color="#C037C2" stop-opacity="0.96" />
    </radialGradient>
    <radialGradient id="paint27_radial_7703_5830" cx="0" cy="0" r="1" gradientUnits="userSpaceOnUse"
      gradientTransform="translate(114.281 36.5409) rotate(60.1107) scale(8.77246 9.92375)">
      <stop stop-color="#A6FFD4" />
      <stop offset="0.48193" stop-color="#83EAE4" stop-opacity="0.31" />
      <stop offset="1" stop-color="#C037C2" stop-opacity="0.96" />
    </radialGradient>
    <radialGradient id="paint28_radial_7703_5830" cx="0" cy="0" r="1" gradientUnits="userSpaceOnUse"
      gradientTransform="translate(114.279 36.5411) rotate(60.1107) scale(8.77246 9.92375)">
      <stop stop-color="#A6FFD4" />
      <stop offset="0.48193" stop-color="#83EAE4" stop-opacity="0.31" />
      <stop offset="1" stop-color="#C037C2" stop-opacity="0.96" />
    </radialGradient>
    <radialGradient id="paint29_radial_7703_5830" cx="0" cy="0" r="1" gradientUnits="userSpaceOnUse"
      gradientTransform="translate(114.279 36.5413) rotate(60.1107) scale(8.77246 9.92375)">
      <stop stop-color="#A6FFD4" />
      <stop offset="0.48193" stop-color="#83EAE4" stop-opacity="0.31" />
      <stop offset="1" stop-color="#C037C2" stop-opacity="0.96" />
    </radialGradient>
    <radialGradient id="paint30_radial_7703_5830" cx="0" cy="0" r="1" gradientUnits="userSpaceOnUse"
      gradientTransform="translate(115.434 30.0625) rotate(47.1228) scale(6.07109 7.92628)">
      <stop stop-color="#A6FFD4" />
      <stop offset="0.48193" stop-color="#83EAE4" stop-opacity="0.31" />
      <stop offset="1" stop-color="#C037C2" stop-opacity="0.96" />
    </radialGradient>
    <radialGradient id="paint31_radial_7703_5830" cx="0" cy="0" r="1" gradientUnits="userSpaceOnUse"
      gradientTransform="translate(116.12 30.6792) rotate(48.2483) scale(6.85413 8.91561)">
      <stop stop-color="#A6FFD4" />
      <stop offset="0.48193" stop-color="#83EAE4" stop-opacity="0.31" />
      <stop offset="1" stop-color="#C037C2" stop-opacity="0.96" />
    </radialGradient>
    <radialGradient id="paint32_radial_7703_5830" cx="0" cy="0" r="1" gradientUnits="userSpaceOnUse"
      gradientTransform="translate(117.188 32.1637) rotate(50.5103) scale(7.21234 9.26805)">
      <stop stop-color="#A6FFD4" />
      <stop offset="0.48193" stop-color="#83EAE4" stop-opacity="0.31" />
      <stop offset="1" stop-color="#C037C2" stop-opacity="0.96" />
    </radialGradient>
    <radialGradient id="paint33_radial_7703_5830" cx="0" cy="0" r="1" gradientUnits="userSpaceOnUse"
      gradientTransform="translate(118.267 34.9922) rotate(63.1044) scale(10.1486 10.7203)">
      <stop stop-color="#A6FFD4" />
      <stop offset="0.48193" stop-color="#83EAE4" stop-opacity="0.31" />
      <stop offset="1" stop-color="#C037C2" stop-opacity="0.96" />
    </radialGradient>
    <radialGradient id="paint34_radial_7703_5830" cx="0" cy="0" r="1" gradientUnits="userSpaceOnUse"
      gradientTransform="translate(27.8277 96.6364) rotate(35.371) scale(37.7958 46.7124)">
      <stop stop-color="#A6FFD4" />
      <stop offset="0.48193" stop-color="#83EAE4" stop-opacity="0.31" />
      <stop offset="1" stop-color="#C037C2" stop-opacity="0.96" />
    </radialGradient>
    <radialGradient id="paint35_radial_7703_5830" cx="0" cy="0" r="1" gradientUnits="userSpaceOnUse"
      gradientTransform="translate(25.4035 100.208) rotate(35.3743) scale(37.7928 46.7105)">
      <stop stop-color="#A6FFD4" />
      <stop offset="0.48193" stop-color="#83EAE4" stop-opacity="0.31" />
      <stop offset="1" stop-color="#C037C2" stop-opacity="0.96" />
    </radialGradient>
    <radialGradient id="paint36_radial_7703_5830" cx="0" cy="0" r="1" gradientUnits="userSpaceOnUse"
      gradientTransform="translate(54.0135 117.742) rotate(25.8949) scale(11.8412 12.1808)">
      <stop stop-color="#A6FFD4" />
      <stop offset="0.48193" stop-color="#83EAE4" stop-opacity="0.31" />
      <stop offset="1" stop-color="#C037C2" stop-opacity="0.96" />
    </radialGradient>
    <radialGradient id="paint37_radial_7703_5830" cx="0" cy="0" r="1" gradientUnits="userSpaceOnUse"
      gradientTransform="translate(54.0125 117.742) rotate(25.8949) scale(11.8412 12.1808)">
      <stop stop-color="#A6FFD4" />
      <stop offset="0.48193" stop-color="#83EAE4" stop-opacity="0.31" />
      <stop offset="1" stop-color="#C037C2" stop-opacity="0.96" />
    </radialGradient>
    <radialGradient id="paint38_radial_7703_5830" cx="0" cy="0" r="1" gradientUnits="userSpaceOnUse"
      gradientTransform="translate(53.3731 121.415) rotate(22.5961) scale(14.5802 13.5425)">
      <stop stop-color="#A6FFD4" />
      <stop offset="0.48193" stop-color="#83EAE4" stop-opacity="0.31" />
      <stop offset="1" stop-color="#C037C2" stop-opacity="0.96" />
    </radialGradient>
    <radialGradient id="paint39_radial_7703_5830" cx="0" cy="0" r="1" gradientUnits="userSpaceOnUse"
      gradientTransform="translate(111.82 48.3376) rotate(78.8303) scale(37.8291 18.824)">
      <stop stop-color="#A6FFD4" />
      <stop offset="0.48193" stop-color="#83EAE4" stop-opacity="0.31" />
      <stop offset="1" stop-color="#C037C2" stop-opacity="0.96" />
    </radialGradient>
    <radialGradient id="paint40_radial_7703_5830" cx="0" cy="0" r="1" gradientUnits="userSpaceOnUse"
      gradientTransform="translate(78.799 99.4149) rotate(29.9669) scale(39.6562 44.9312)">
      <stop stop-color="#A6FFD4" />
      <stop offset="0.48193" stop-color="#83EAE4" stop-opacity="0.31" />
      <stop offset="1" stop-color="#C037C2" stop-opacity="0.96" />
    </radialGradient>
    <radialGradient id="paint41_radial_7703_5830" cx="0" cy="0" r="1" gradientUnits="userSpaceOnUse"
      gradientTransform="translate(115.96 48.4841) rotate(78.8303) scale(37.8291 18.824)">
      <stop stop-color="#A6FFD4" />
      <stop offset="0.48193" stop-color="#83EAE4" stop-opacity="0.31" />
      <stop offset="1" stop-color="#C037C2" stop-opacity="0.96" />
    </radialGradient>
    <radialGradient id="paint42_radial_7703_5830" cx="0" cy="0" r="1" gradientUnits="userSpaceOnUse"
      gradientTransform="translate(51.4693 23.062) rotate(47.1399) scale(110.196 143.864)">
      <stop stop-color="#A6FFD4" />
      <stop offset="0.48193" stop-color="#83EAE4" stop-opacity="0.31" />
      <stop offset="1" stop-color="#C037C2" stop-opacity="0.96" />
    </radialGradient>
    <radialGradient id="paint43_radial_7703_5830" cx="0" cy="0" r="1" gradientUnits="userSpaceOnUse"
      gradientTransform="translate(109.605 87.1371) rotate(47.8234) scale(5.7409 7.47935)">
      <stop stop-color="#A6FFD4" />
      <stop offset="0.48193" stop-color="#83EAE4" stop-opacity="0.31" />
      <stop offset="1" stop-color="#C037C2" stop-opacity="0.96" />
    </radialGradient>
    <radialGradient id="paint44_radial_7703_5830" cx="0" cy="0" r="1" gradientUnits="userSpaceOnUse"
      gradientTransform="translate(109.398 87.561) rotate(52.4819) scale(6.68488 8.45487)">
      <stop stop-color="#A6FFD4" />
      <stop offset="0.48193" stop-color="#83EAE4" stop-opacity="0.31" />
      <stop offset="1" stop-color="#C037C2" stop-opacity="0.96" />
    </radialGradient>
    <radialGradient id="paint45_radial_7703_5830" cx="0" cy="0" r="1" gradientUnits="userSpaceOnUse"
      gradientTransform="translate(109.003 89.1407) rotate(50.3343) scale(6.4951 8.35622)">
      <stop stop-color="#A6FFD4" />
      <stop offset="0.48193" stop-color="#83EAE4" stop-opacity="0.31" />
      <stop offset="1" stop-color="#C037C2" stop-opacity="0.96" />
    </radialGradient>
    <radialGradient id="paint46_radial_7703_5830" cx="0" cy="0" r="1" gradientUnits="userSpaceOnUse"
      gradientTransform="translate(108.523 90.3337) rotate(49.2318) scale(6.42618 8.32135)">
      <stop stop-color="#A6FFD4" />
      <stop offset="0.48193" stop-color="#83EAE4" stop-opacity="0.31" />
      <stop offset="1" stop-color="#C037C2" stop-opacity="0.96" />
    </radialGradient>
    <radialGradient id="paint47_radial_7703_5830" cx="0" cy="0" r="1" gradientUnits="userSpaceOnUse"
      gradientTransform="translate(107.973 91.358) rotate(48.4522) scale(6.40013 8.3181)">
      <stop stop-color="#A6FFD4" />
      <stop offset="0.48193" stop-color="#83EAE4" stop-opacity="0.31" />
      <stop offset="1" stop-color="#C037C2" stop-opacity="0.96" />
    </radialGradient>
    <radialGradient id="paint48_radial_7703_5830" cx="0" cy="0" r="1" gradientUnits="userSpaceOnUse"
      gradientTransform="translate(107.338 92.281) rotate(47.7655) scale(6.40686 8.34863)">
      <stop stop-color="#A6FFD4" />
      <stop offset="0.48193" stop-color="#83EAE4" stop-opacity="0.31" />
      <stop offset="1" stop-color="#C037C2" stop-opacity="0.96" />
    </radialGradient>
    <radialGradient id="paint49_radial_7703_5830" cx="0" cy="0" r="1" gradientUnits="userSpaceOnUse"
      gradientTransform="translate(106.605 93.1382) rotate(47.0658) scale(6.42921 8.39507)">
      <stop stop-color="#A6FFD4" />
      <stop offset="0.48193" stop-color="#83EAE4" stop-opacity="0.31" />
      <stop offset="1" stop-color="#C037C2" stop-opacity="0.96" />
    </radialGradient>
    <radialGradient id="paint50_radial_7703_5830" cx="0" cy="0" r="1" gradientUnits="userSpaceOnUse"
      gradientTransform="translate(105.741 93.9631) rotate(46.3897) scale(6.517 8.52183)">
      <stop stop-color="#A6FFD4" />
      <stop offset="0.48193" stop-color="#83EAE4" stop-opacity="0.31" />
      <stop offset="1" stop-color="#C037C2" stop-opacity="0.96" />
    </radialGradient>
    <radialGradient id="paint51_radial_7703_5830" cx="0" cy="0" r="1" gradientUnits="userSpaceOnUse"
      gradientTransform="translate(104.626 94.778) rotate(45.099) scale(6.66435 8.72472)">
      <stop stop-color="#A6FFD4" />
      <stop offset="0.48193" stop-color="#83EAE4" stop-opacity="0.31" />
      <stop offset="1" stop-color="#C037C2" stop-opacity="0.96" />
    </radialGradient>
    <radialGradient id="paint52_radial_7703_5830" cx="0" cy="0" r="1" gradientUnits="userSpaceOnUse"
      gradientTransform="translate(103.782 95.5154) rotate(45.8191) scale(6.02651 7.8865)">
      <stop stop-color="#A6FFD4" />
      <stop offset="0.48193" stop-color="#83EAE4" stop-opacity="0.31" />
      <stop offset="1" stop-color="#C037C2" stop-opacity="0.96" />
    </radialGradient>
    <radialGradient id="paint53_radial_7703_5830" cx="0" cy="0" r="1" gradientUnits="userSpaceOnUse"
      gradientTransform="translate(80.4343 103.13) rotate(29.9696) scale(39.653 44.93)">
      <stop stop-color="#A6FFD4" />
      <stop offset="0.48193" stop-color="#83EAE4" stop-opacity="0.31" />
      <stop offset="1" stop-color="#C037C2" stop-opacity="0.96" />
    </radialGradient>
    <radialGradient id="paint54_radial_7703_5830" cx="0" cy="0" r="1" gradientUnits="userSpaceOnUse"
      gradientTransform="translate(113.743 87.2958) rotate(48.1283) scale(5.78328 7.52621)">
      <stop stop-color="#A6FFD4" />
      <stop offset="0.48193" stop-color="#83EAE4" stop-opacity="0.31" />
      <stop offset="1" stop-color="#C037C2" stop-opacity="0.96" />
    </radialGradient>
    <radialGradient id="paint55_radial_7703_5830" cx="0" cy="0" r="1" gradientUnits="userSpaceOnUse"
      gradientTransform="translate(113.453 87.8913) rotate(54.1558) scale(7.13731 8.8708)">
      <stop stop-color="#A6FFD4" />
      <stop offset="0.48193" stop-color="#83EAE4" stop-opacity="0.31" />
      <stop offset="1" stop-color="#C037C2" stop-opacity="0.96" />
    </radialGradient>
    <radialGradient id="paint56_radial_7703_5830" cx="0" cy="0" r="1" gradientUnits="userSpaceOnUse"
      gradientTransform="translate(112.891 90.1271) rotate(51.4331) scale(6.84782 8.73989)">
      <stop stop-color="#A6FFD4" />
      <stop offset="0.48193" stop-color="#83EAE4" stop-opacity="0.31" />
      <stop offset="1" stop-color="#C037C2" stop-opacity="0.96" />
    </radialGradient>
    <radialGradient id="paint57_radial_7703_5830" cx="0" cy="0" r="1" gradientUnits="userSpaceOnUse"
      gradientTransform="translate(112.21 91.8129) rotate(49.9592) scale(6.75207 8.7075)">
      <stop stop-color="#A6FFD4" />
      <stop offset="0.48193" stop-color="#83EAE4" stop-opacity="0.31" />
      <stop offset="1" stop-color="#C037C2" stop-opacity="0.96" />
    </radialGradient>
    <radialGradient id="paint58_radial_7703_5830" cx="0" cy="0" r="1" gradientUnits="userSpaceOnUse"
      gradientTransform="translate(111.44 93.2553) rotate(48.9542) scale(6.70603 8.69584)">
      <stop stop-color="#A6FFD4" />
      <stop offset="0.48193" stop-color="#83EAE4" stop-opacity="0.31" />
      <stop offset="1" stop-color="#C037C2" stop-opacity="0.96" />
    </radialGradient>
    <radialGradient id="paint59_radial_7703_5830" cx="0" cy="0" r="1" gradientUnits="userSpaceOnUse"
      gradientTransform="translate(110.547 94.5575) rotate(47.9727) scale(6.7282 8.76099)">
      <stop stop-color="#A6FFD4" />
      <stop offset="0.48193" stop-color="#83EAE4" stop-opacity="0.31" />
      <stop offset="1" stop-color="#C037C2" stop-opacity="0.96" />
    </radialGradient>
    <radialGradient id="paint60_radial_7703_5830" cx="0" cy="0" r="1" gradientUnits="userSpaceOnUse"
      gradientTransform="translate(109.507 95.7724) rotate(47.1322) scale(6.7639 8.83059)">
      <stop stop-color="#A6FFD4" />
      <stop offset="0.48193" stop-color="#83EAE4" stop-opacity="0.31" />
      <stop offset="1" stop-color="#C037C2" stop-opacity="0.96" />
    </radialGradient>
    <radialGradient id="paint61_radial_7703_5830" cx="0" cy="0" r="1" gradientUnits="userSpaceOnUse"
      gradientTransform="translate(108.273 96.9362) rotate(46.0058) scale(6.87223 8.99138)">
      <stop stop-color="#A6FFD4" />
      <stop offset="0.48193" stop-color="#83EAE4" stop-opacity="0.31" />
      <stop offset="1" stop-color="#C037C2" stop-opacity="0.96" />
    </radialGradient>
    <radialGradient id="paint62_radial_7703_5830" cx="0" cy="0" r="1" gradientUnits="userSpaceOnUse"
      gradientTransform="translate(106.705 98.0889) rotate(44.4097) scale(7.0925 9.28332)">
      <stop stop-color="#A6FFD4" />
      <stop offset="0.48193" stop-color="#83EAE4" stop-opacity="0.31" />
      <stop offset="1" stop-color="#C037C2" stop-opacity="0.96" />
    </radialGradient>
    <radialGradient id="paint63_radial_7703_5830" cx="0" cy="0" r="1" gradientUnits="userSpaceOnUse"
      gradientTransform="translate(105.512 99.1372) rotate(45.3866) scale(6.19295 8.10689)">
      <stop stop-color="#A6FFD4" />
      <stop offset="0.48193" stop-color="#83EAE4" stop-opacity="0.31" />
      <stop offset="1" stop-color="#C037C2" stop-opacity="0.96" />
    </radialGradient>
    <radialGradient id="paint64_radial_7703_5830" cx="0" cy="0" r="1" gradientUnits="userSpaceOnUse"
      gradientTransform="translate(50.9487 20.2695) rotate(47.0447) scale(118.474 154.708)">
      <stop stop-color="#A6FFD4" />
      <stop offset="0.48193" stop-color="#83EAE4" stop-opacity="0.31" />
      <stop offset="1" stop-color="#C037C2" stop-opacity="0.96" />
    </radialGradient>
  </defs>
</svg>