<svg width="18" height="18" viewBox="0 0 18 18" fill="none" xmlns="http://www.w3.org/2000/svg">
  <path d="M3.6 0H0V3.6H3.6V0Z" fill="#997EA4" />
  <path
    d="M10.8 0.180417C10.2458 0.0677145 9.68219 0.00731028 9.11667 0H5.85V3.6H9.05C10.118 3.6 11.1621 3.9167 12.0501 4.51006C12.9381 5.10342 13.6302 5.94679 14.0389 6.93351C14.4477 7.92023 14.5546 9.00599 14.3462 10.0535C14.1379 11.101 13.6236 12.0632 12.8684 12.8184C12.1132 13.5736 11.151 14.0879 10.1035 14.2962C9.05599 14.5046 7.97023 14.3977 6.98351 13.989C5.99679 13.5802 5.15342 12.8881 4.56006 12.0001C3.9667 11.1121 3.65 10.068 3.65 9V5.85H0.0500002V9C0.0495628 9.62158 0.113374 10.2415 0.240417 10.85C1.08583 14.8967 4.64917 17.945 8.93333 18H9.11667C14.0333 17.9375 18 13.9321 18 9C18 4.64583 14.9079 1.01417 10.8 0.180417Z"
    fill="#997EA4" />
  <path
    d="M8.53265 12.1411C8.03838 12.0673 7.56851 11.8779 7.16125 11.5883C6.74782 11.2951 6.41072 10.9071 6.17822 10.4567C5.94572 10.0064 5.82459 9.50684 5.825 9V5.82584H9C9.49973 5.82565 9.99245 5.94342 10.4381 6.16958C10.8837 6.39573 11.2697 6.72389 11.5645 7.12735C11.8594 7.53081 12.0549 7.99818 12.1351 8.49144C12.2153 8.9847 12.1779 9.48991 12.026 9.966C11.874 10.4421 11.6119 10.8756 11.2608 11.2312C10.9098 11.5869 10.4797 11.8547 10.0057 12.0128C9.5316 12.1709 9.02691 12.2148 8.53265 12.1411Z"
    fill="#997EA4" />
</svg>