<svg width="68" height="68" viewBox="0 0 68 68" fill="none" xmlns="http://www.w3.org/2000/svg">
  <path
    d="M0.78994 32.9971C4.62032 15.506 21.2586 0.807179 38.0929 0.0318984C54.9341 -0.743382 65.3991 12.7068 61.5687 30.198C57.7383 47.6891 41.107 62.3834 24.2657 63.1609C7.42451 63.9385 -3.04044 50.4882 0.78994 32.9971Z"
    fill="url(#paint0_radial_7703_5680)" />
  <path fill-rule="evenodd" clip-rule="evenodd"
    d="M0.78994 32.9971C4.62032 15.506 21.2586 0.807179 38.0929 0.0318984C54.9341 -0.743382 65.3991 12.7068 61.5687 30.198C57.7383 47.6891 41.1069 62.3834 24.2657 63.1609C7.42451 63.9385 -3.04044 50.4883 0.78994 32.9971ZM10.8813 25.8934C4.34359 38.5615 8.01716 51.552 19.1831 54.9326L19.1785 54.9349C19.2674 55.048 19.4788 55.0452 19.6129 55.0434C19.6284 55.0432 19.6428 55.043 19.6559 55.043C19.9081 54.9699 20.1345 54.8295 20.3097 54.6376C20.4848 54.4457 20.6018 54.21 20.6475 53.9567L21.0511 52.1154C21.194 51.4596 21.0257 51.0742 20.5783 50.8353C15.8186 49.1135 12.5647 45.0861 11.8729 39.6478C10.4178 29.6909 17.9886 18.0166 28.6703 13.8788C29.1108 13.5948 29.6043 13.0517 29.7196 12.5265L30.1231 10.683C30.1923 10.4216 30.2223 10.2908 30.1231 10.1646C30.1304 10.0853 30.1199 10.0054 30.0924 9.9304C30.0648 9.85544 30.0208 9.78725 29.9635 9.73061C29.9062 9.67396 29.8369 9.63021 29.7606 9.60242C29.6842 9.57462 29.6025 9.56344 29.5213 9.56966C29.3731 9.57913 29.2289 9.6207 29.0992 9.69136C21.6137 12.371 14.8016 18.2916 10.8813 25.8934ZM32.4961 51.3266L32.0925 53.1702L32.0948 53.1769L32.0925 53.1881C32.0386 53.4422 32.0109 53.5731 32.1087 53.6953C32.101 53.7747 32.1112 53.8548 32.1386 53.93C32.166 54.0051 32.21 54.0735 32.2674 54.1302C32.3248 54.187 32.3942 54.2307 32.4708 54.2583C32.5473 54.286 32.6292 54.2969 32.7106 54.2903C32.8585 54.2814 33.0026 54.2406 33.1326 54.1708C40.7403 51.4664 47.4256 45.5594 51.3113 38.0928C57.849 25.4246 54.1754 12.4319 43.0094 9.0513C42.9218 8.93906 42.7055 8.94139 42.5712 8.94283C42.5572 8.94298 42.5441 8.94312 42.5321 8.94312C42.2796 9.01645 42.0529 9.15717 41.8778 9.34947C41.7026 9.54177 41.5858 9.77803 41.5405 10.0317L41.1369 11.8707C40.9939 12.5288 41.1623 12.9119 41.6097 13.1531C46.3694 14.8862 49.6233 18.9001 50.3151 24.3383C51.7702 34.2952 44.1994 45.9718 33.5177 50.1096C33.0772 50.3891 32.5837 50.9345 32.4961 51.3266ZM26.5326 43.6685L25.8408 46.8237L25.8339 46.8214C25.8177 47.4728 26.1106 47.8514 26.6156 47.8266L28.5158 47.7387C28.5218 47.7373 28.5277 47.7358 28.5336 47.7343L26.6336 47.8222C26.1286 47.847 25.8357 47.4706 25.8519 46.8171L26.5437 43.6618C22.8909 43.1796 20.9607 40.5337 21.7379 36.9818C22.2229 34.7646 23.1711 33.2198 24.6332 32.1133C23.1648 33.2209 22.213 34.7678 21.7267 36.9885C20.9496 40.5403 22.8775 43.1839 26.5326 43.6685ZM34.7797 28.652C35.851 28.0213 36.2762 27.2103 36.5063 26.148C36.9053 24.3068 35.8998 23.1821 33.3678 23.2993C32.2496 23.3502 31.3337 23.5802 30.5648 24.0381C31.336 23.5758 32.2554 23.3438 33.3789 23.2927C35.9156 23.1755 36.921 24.3001 36.5174 26.1414C36.2839 27.2069 35.8573 28.0203 34.7797 28.652ZM28.1012 26.7648C27.9359 26.8646 27.75 26.9281 27.5565 26.9504L25.5294 27.0428C25.0244 27.0676 24.7292 26.6912 24.8376 26.1638L24.8653 26.0331C25.1436 25.3292 25.516 24.6588 25.9624 24.0411C25.5195 24.6569 25.1509 25.3251 24.8764 26.0265L24.8487 26.1572C24.7334 26.6846 25.0286 27.0587 25.5406 27.0361L27.5676 26.9437C27.7568 26.9219 27.9387 26.8608 28.1012 26.7648ZM31.7478 20.3732L32.4384 17.2233C32.5166 16.8671 32.755 16.5628 33.1076 16.3539C32.7611 16.5626 32.5269 16.8642 32.4495 17.2167L31.7577 20.3719C31.7544 20.3723 31.7511 20.3728 31.7478 20.3732ZM33.1886 32.8893C32.5595 33.0426 31.8879 33.1765 31.1724 33.2946C30.9523 33.3437 30.7406 33.3928 30.537 33.4423C30.7461 33.3913 30.9638 33.3407 31.1904 33.2902C31.8991 33.1733 32.5647 33.0408 33.1886 32.8893ZM30.8323 40.1862C32.9462 39.6684 34.0191 38.3842 34.673 36.7811C34.7552 36.5615 34.8973 36.3679 35.0838 36.2213C35.2379 36.1003 35.4175 36.0151 35.609 35.9715C35.4241 36.0164 35.2508 36.1001 35.1013 36.2173C34.9144 36.3638 34.7718 36.5572 34.6887 36.7767C34.0348 38.3844 32.9581 39.6713 30.8323 40.1862Z"
    fill="url(#paint1_radial_7703_5680)" />
  <path
    d="M7.67126 57.9565L13.3165 62.7615C17.502 66.3246 23.2003 68.2741 29.9202 67.9653C46.7522 67.19 63.3836 52.4935 67.2093 35.0114C69.5154 24.4887 66.6444 15.4288 60.3257 10.0491L54.6805 5.24194C60.9991 10.6238 63.8701 19.6838 61.5641 30.2064C57.7337 47.6976 41.1023 62.3941 24.2611 63.1694C17.5505 63.4804 11.8522 61.5309 7.65742 57.9678"
    fill="url(#paint2_linear_7703_5680)" />
  <defs>
    <radialGradient id="paint0_radial_7703_5680" cx="0" cy="0" r="1" gradientUnits="userSpaceOnUse"
      gradientTransform="translate(27.2831 10.4831) rotate(46.0493) scale(62.2902 81.4939)">
      <stop stop-color="#A6FFD4" />
      <stop offset="0.48193" stop-color="#83EAE4" stop-opacity="0.31" />
      <stop offset="1" stop-color="#C037C2" stop-opacity="0.96" />
    </radialGradient>
    <radialGradient id="paint1_radial_7703_5680" cx="0" cy="0" r="1" gradientUnits="userSpaceOnUse"
      gradientTransform="translate(27.2831 10.4831) rotate(46.0493) scale(62.2902 81.4939)">
      <stop stop-color="#A6FFD4" />
      <stop offset="0.48193" stop-color="#83EAE4" stop-opacity="0.31" />
      <stop offset="1" stop-color="#C037C2" stop-opacity="0.96" />
    </radialGradient>
    <linearGradient id="paint2_linear_7703_5680" x1="71.5868" y1="36.6195" x2="-0.0854905" y2="38.2443"
      gradientUnits="userSpaceOnUse">
      <stop stop-color="#4BF2A2" stop-opacity="0" />
      <stop offset="0.522948" stop-color="#A89FE7" stop-opacity="0.68" />
      <stop offset="0.669499" stop-color="#E1C4F4" />
      <stop offset="1" stop-color="#DD40CD" />
    </linearGradient>
  </defs>
</svg>