<svg width="24" height="18" viewBox="0 0 24 18" fill="none" xmlns="http://www.w3.org/2000/svg">
  <path
    d="M20.3302 1.50753C18.7563 0.794024 17.0912 0.287046 15.3789 0C15.1656 0.37359 14.9165 0.87607 14.7446 1.27582C12.8985 1.00687 11.0693 1.00687 9.25715 1.27582C9.0854 0.876161 8.83058 0.37359 8.61533 0C6.90139 0.287178 5.23486 0.795447 3.66018 1.51126C0.526681 6.09907 -0.322788 10.5728 0.1019 14.9832C2.18024 16.4869 4.19437 17.4004 6.17455 17.9982C6.66668 17.3425 7.10171 16.6483 7.47515 15.9228C6.76417 15.6605 6.07877 15.3373 5.42709 14.9571C5.59858 14.8339 5.76604 14.7055 5.92921 14.5722C9.87815 16.3618 14.1689 16.3618 18.0708 14.5722C18.2346 14.7047 18.4021 14.833 18.5728 14.9571C17.9201 15.3383 17.2334 15.6622 16.521 15.9247C16.8965 16.6531 17.3308 17.348 17.8216 18C19.8036 17.4023 21.8196 16.4888 23.898 14.9832C24.3964 9.87048 23.0467 5.43781 20.3302 1.50753ZM8.01318 12.2709C6.82771 12.2709 5.85552 11.1986 5.85552 9.89292C5.85552 8.58722 6.80699 7.51313 8.01318 7.51313C9.21946 7.51313 10.1916 8.58531 10.1708 9.89292C10.1727 11.1986 9.21946 12.2709 8.01318 12.2709ZM15.9867 12.2709C14.8012 12.2709 13.8291 11.1986 13.8291 9.89292C13.8291 8.58722 14.7805 7.51313 15.9867 7.51313C17.193 7.51313 18.1651 8.58531 18.1444 9.89292C18.1444 11.1986 17.193 12.2709 15.9867 12.2709Z"
    fill="#997EA4" />
</svg>