<svg width="25" height="26" viewBox="0 0 25 26" fill="none" xmlns="http://www.w3.org/2000/svg">
  <path
    d="M7.28145 18.2154C6.34446 16.5727 6.34973 14.6436 7.12182 13.0644L3.42099 10.9022C3.32938 10.8492 3.24563 10.7883 3.15664 10.73C3.10953 11.0214 3.07812 11.3155 3.07812 11.6203V20.2717C3.07812 23.2844 5.48863 25.7248 8.46445 25.7248C11.333 25.7248 13.6728 23.4513 13.8351 20.587C11.4115 21.5117 8.61365 20.5605 7.27624 18.2128L7.28145 18.2154Z"
    fill="#6F3FF5" />
  <path
    d="M8.46971 6.16697C10.3437 6.16697 11.9899 7.13678 12.9557 8.60472L16.6565 6.44256C16.7481 6.38956 16.8424 6.3445 16.9366 6.29678C16.7115 6.11132 16.4733 5.93644 16.2142 5.78276L8.81257 1.45575C6.23718 -0.0492975 2.94204 0.84366 1.45543 3.45099C0.0211652 5.96559 0.795877 9.15322 3.16451 10.7272C3.58588 8.141 5.79748 6.16432 8.47234 6.16432L8.46971 6.16697Z"
    fill="#FFCC00" />
  <path
    d="M7.12466 13.0642C7.58007 12.1341 8.29981 11.3233 9.25513 10.7669L12.9559 8.60208C11.9901 7.13414 10.3413 6.16431 8.46992 6.16431C5.79509 6.16431 3.58087 8.14102 3.16211 10.7271C3.24848 10.7854 3.33485 10.8464 3.42645 10.8994L7.1273 13.0615L7.12466 13.0642Z"
    fill="#8C65F7" />
  <path
    d="M24.0138 8.43521C22.5796 5.92063 19.465 5.00647 16.9342 6.29427C18.9363 7.9556 19.52 10.8862 18.1826 13.2313C17.2456 14.8741 15.5941 15.8333 13.8536 15.9472V20.2716C13.8536 20.3776 13.8432 20.4836 13.8379 20.5896C14.1101 20.4862 14.3797 20.3643 14.6388 20.2133L22.0404 15.8863C24.6158 14.3812 25.5005 11.0452 24.0112 8.43788L24.0138 8.43521Z"
    fill="#02E2AC" />
  <path
    d="M13.8556 15.9462C12.8322 16.0124 11.7801 15.7845 10.8248 15.2281L7.12398 13.0632C6.34925 14.6425 6.34662 16.5741 7.28361 18.2143C8.62102 20.5593 11.4189 21.5132 13.8425 20.5885C13.8477 20.4825 13.8582 20.3791 13.8582 20.2705V15.9462H13.8556Z"
    fill="#5BF1CD" />
  <path
    d="M12.9551 8.60133C13.523 9.46516 13.8555 10.5012 13.8555 11.6167V15.9437C15.5933 15.8324 17.2474 14.8706 18.1844 13.2278C19.5218 10.8828 18.9381 7.95483 16.936 6.29077C16.8418 6.33849 16.7475 6.38088 16.6559 6.43649L12.9551 8.59872V8.60133Z"
    fill="#FFDB4C" />
  <path
    d="M12.9563 8.60229L9.25546 10.7671C8.30015 11.3262 7.58041 12.1344 7.125 13.0645L10.8258 15.2292C11.7811 15.7884 12.8333 16.0136 13.8566 15.9474V11.6204C13.8566 10.5048 13.5242 9.46874 12.9563 8.60496V8.60229Z"
    fill="white" />
</svg>