<svg width="79" height="68" viewBox="0 0 79 68" fill="none" xmlns="http://www.w3.org/2000/svg">
  <path
    d="M37.1173 0.150164L56.3293 0.62302L58.7151 2.56913L42.6958 3.76339L23.6567 2.90977L21.1117 1.57214L37.1173 0.150164Z"
    fill="url(#paint0_radial_7703_5692)" stroke="url(#paint1_radial_7703_5692)" stroke-width="0.3" />
  <mask id="path-2-inside-1_7703_5692" fill="white">
    <path fill-rule="evenodd" clip-rule="evenodd"
      d="M0.000238512 23.6038L0 23.604L0.000197644 23.6038L0 23.6038L0.00115345 23.6028L20.5927 1.46753L23.6182 3.05773L23.6184 3.05759L23.6184 3.05782L25.1312 26.6619L0.000238512 23.6038Z" />
  </mask>
  <path fill-rule="evenodd" clip-rule="evenodd"
    d="M0.000238512 23.6038L0 23.604L0.000197644 23.6038L0 23.6038L0.00115345 23.6028L20.5927 1.46753L23.6182 3.05773L23.6184 3.05759L23.6184 3.05782L25.1312 26.6619L0.000238512 23.6038Z"
    fill="url(#paint2_radial_7703_5692)" />
  <path
    d="M0 23.604L-0.219295 23.3993L0.197123 23.8301L0 23.604ZM0.000238512 23.6038L0.036477 23.306L-0.096161 23.2898L-0.196884 23.3776L0.000238512 23.6038ZM0.000197644 23.6038L0.219492 23.8085L0.620242 23.3792L0.0375417 23.3061L0.000197644 23.6038ZM0 23.6038L-0.196883 23.3774L-0.703297 23.8179L-0.037344 23.9014L0 23.6038ZM0.00115345 23.6028L0.198036 23.8291L0.210004 23.8187L0.220807 23.8071L0.00115345 23.6028ZM20.5927 1.46753L20.7322 1.20197L20.5292 1.09527L20.373 1.26319L20.5927 1.46753ZM23.6182 3.05773L23.4786 3.32329L23.6602 3.41873L23.815 3.28414L23.6182 3.05773ZM23.6184 3.05759L23.9184 3.06001L23.9238 2.39458L23.4215 2.83118L23.6184 3.05759ZM23.6184 3.05782L23.3184 3.05539L23.3183 3.06621L23.319 3.07701L23.6184 3.05782ZM25.1312 26.6619L25.095 26.9597L25.4537 27.0033L25.4306 26.6427L25.1312 26.6619ZM0.197123 23.8301L0.197361 23.8299L-0.196884 23.3776L-0.197123 23.3779L0.197123 23.8301ZM-0.219097 23.3991L-0.219295 23.3993L0.219295 23.8087L0.219492 23.8085L-0.219097 23.3991ZM-0.037344 23.9014L-0.0371464 23.9015L0.0375417 23.3061L0.037344 23.3061L-0.037344 23.9014ZM-0.195729 23.3764L-0.196883 23.3774L0.196883 23.8301L0.198036 23.8291L-0.195729 23.3764ZM20.373 1.26319L-0.2185 23.3984L0.220807 23.8071L20.8123 1.67186L20.373 1.26319ZM23.7578 2.79218L20.7322 1.20197L20.4531 1.73308L23.4786 3.32329L23.7578 2.79218ZM23.4215 2.83118L23.4214 2.83133L23.815 3.28414L23.8152 3.28399L23.4215 2.83118ZM23.9184 3.06025L23.9184 3.06001L23.3184 3.05516L23.3184 3.05539L23.9184 3.06025ZM25.4306 26.6427L23.9178 3.03863L23.319 3.07701L24.8319 26.6811L25.4306 26.6427ZM-0.036 23.9016L25.095 26.9597L25.1675 26.3641L0.036477 23.306L-0.036 23.9016Z"
    fill="url(#paint3_radial_7703_5692)" mask="url(#path-2-inside-1_7703_5692)" />
  <path d="M23.7786 3.21471L42.4043 4.0498L25.2553 26.2554L23.7786 3.21471Z" fill="url(#paint4_linear_7703_5692)"
    stroke="url(#paint5_radial_7703_5692)" stroke-width="0.3" />
  <path d="M25.4382 26.5078L42.7115 4.14141L63.9872 26.0261L25.4382 26.5078Z" fill="url(#paint6_radial_7703_5692)"
    stroke="url(#paint7_radial_7703_5692)" stroke-width="0.3" />
  <path d="M43.0305 4.03904L58.9845 2.84966L64.0769 25.6879L43.0305 4.03904Z" fill="url(#paint8_linear_7703_5692)"
    stroke="url(#paint9_radial_7703_5692)" stroke-width="0.3" />
  <path d="M59.3631 3.16217L78.7048 22.543L64.4534 25.9906L59.3631 3.16217Z" fill="url(#paint10_radial_7703_5692)"
    stroke="url(#paint11_radial_7703_5692)" stroke-width="0.3" />
  <path d="M25.0201 26.8L39.0529 67.3369L0.375481 23.801L25.0201 26.8Z" fill="url(#paint12_radial_7703_5692)"
    stroke="url(#paint13_radial_7703_5692)" stroke-width="0.3" />
  <path d="M25.3396 26.8096L64.0721 26.3257L39.4759 67.6455L25.3396 26.8096Z" fill="url(#paint14_radial_7703_5692)"
    stroke="url(#paint15_radial_7703_5692)" stroke-width="0.3" />
  <path d="M64.4372 26.3042L78.5773 22.8835L40.421 66.6496L64.4372 26.3042Z" fill="url(#paint16_radial_7703_5692)"
    stroke="url(#paint17_radial_7703_5692)" stroke-width="0.3" />
  <defs>
    <radialGradient id="paint0_radial_7703_5692" cx="0" cy="0" r="1" gradientUnits="userSpaceOnUse"
      gradientTransform="translate(37.44 0.649234) rotate(5.93883) scale(26.8427 7.23295)">
      <stop stop-color="#A6FFD4" />
      <stop offset="0.48193" stop-color="#83EAE4" stop-opacity="0.31" />
      <stop offset="1" stop-color="#C037C2" stop-opacity="0.96" />
    </radialGradient>
    <radialGradient id="paint1_radial_7703_5692" cx="0" cy="0" r="1" gradientUnits="userSpaceOnUse"
      gradientTransform="translate(37.44 0.649234) rotate(5.93883) scale(26.8427 7.23295)">
      <stop stop-color="#A6FFD4" />
      <stop offset="0.48193" stop-color="#83EAE4" stop-opacity="0.31" />
      <stop offset="1" stop-color="#C037C2" stop-opacity="0.96" />
    </radialGradient>
    <radialGradient id="paint2_radial_7703_5692" cx="0" cy="0" r="1" gradientUnits="userSpaceOnUse"
      gradientTransform="translate(10.9954 5.64703) rotate(45.7405) scale(24.9645 32.6719)">
      <stop stop-color="#A6FFD4" />
      <stop offset="0.48193" stop-color="#83EAE4" stop-opacity="0.31" />
      <stop offset="1" stop-color="#C037C2" stop-opacity="0.96" />
    </radialGradient>
    <radialGradient id="paint3_radial_7703_5692" cx="0" cy="0" r="1" gradientUnits="userSpaceOnUse"
      gradientTransform="translate(10.9954 5.64703) rotate(45.7405) scale(24.9645 32.6719)">
      <stop stop-color="#A6FFD4" />
      <stop offset="0.48193" stop-color="#83EAE4" stop-opacity="0.31" />
      <stop offset="1" stop-color="#C037C2" stop-opacity="0.96" />
    </radialGradient>
    <linearGradient id="paint4_linear_7703_5692" x1="22.484" y1="14.8595" x2="45.1515" y2="15.2915"
      gradientUnits="userSpaceOnUse">
      <stop stop-color="#4BF2A2" stop-opacity="0" />
      <stop offset="0.522948" stop-color="#A89FE7" stop-opacity="0.68" />
      <stop offset="0.669499" stop-color="#E1C4F4" />
      <stop offset="1" stop-color="#DD40CD" />
    </linearGradient>
    <radialGradient id="paint5_radial_7703_5692" cx="0" cy="0" r="1" gradientUnits="userSpaceOnUse"
      gradientTransform="translate(31.9666 6.97309) rotate(51.7006) scale(21.3446 27.1828)">
      <stop stop-color="#A6FFD4" />
      <stop offset="0.48193" stop-color="#83EAE4" stop-opacity="0.31" />
      <stop offset="1" stop-color="#C037C2" stop-opacity="0.96" />
    </radialGradient>
    <radialGradient id="paint6_radial_7703_5692" cx="0" cy="0" r="1" gradientUnits="userSpaceOnUse"
      gradientTransform="translate(42.2841 7.68664) rotate(30.7065) scale(31.6146 36.3433)">
      <stop stop-color="#A6FFD4" />
      <stop offset="0.48193" stop-color="#83EAE4" stop-opacity="0.31" />
      <stop offset="1" stop-color="#C037C2" stop-opacity="0.96" />
    </radialGradient>
    <radialGradient id="paint7_radial_7703_5692" cx="0" cy="0" r="1" gradientUnits="userSpaceOnUse"
      gradientTransform="translate(42.2841 7.68664) rotate(30.7065) scale(31.6146 36.3433)">
      <stop stop-color="#A6FFD4" />
      <stop offset="0.48193" stop-color="#83EAE4" stop-opacity="0.31" />
      <stop offset="1" stop-color="#C037C2" stop-opacity="0.96" />
    </radialGradient>
    <linearGradient id="paint8_linear_7703_5692" x1="41.4128" y1="14.4313" x2="67.1164" y2="14.9898"
      gradientUnits="userSpaceOnUse">
      <stop stop-color="#4BF2A2" stop-opacity="0" />
      <stop offset="0.522948" stop-color="#A89FE7" stop-opacity="0.68" />
      <stop offset="0.669499" stop-color="#E1C4F4" />
      <stop offset="1" stop-color="#DD40CD" />
    </linearGradient>
    <radialGradient id="paint9_radial_7703_5692" cx="0" cy="0" r="1" gradientUnits="userSpaceOnUse"
      gradientTransform="translate(52.1668 6.58584) rotate(48.0039) scale(22.4221 29.1932)">
      <stop stop-color="#A6FFD4" />
      <stop offset="0.48193" stop-color="#83EAE4" stop-opacity="0.31" />
      <stop offset="1" stop-color="#C037C2" stop-opacity="0.96" />
    </radialGradient>
    <radialGradient id="paint10_radial_7703_5692" cx="0" cy="0" r="1" gradientUnits="userSpaceOnUse"
      gradientTransform="translate(67.8088 6.58584) rotate(50.385) scale(21.6317 27.8208)">
      <stop stop-color="#A6FFD4" />
      <stop offset="0.48193" stop-color="#83EAE4" stop-opacity="0.31" />
      <stop offset="1" stop-color="#C037C2" stop-opacity="0.96" />
    </radialGradient>
    <radialGradient id="paint11_radial_7703_5692" cx="0" cy="0" r="1" gradientUnits="userSpaceOnUse"
      gradientTransform="translate(67.8088 6.58584) rotate(50.385) scale(21.6317 27.8208)">
      <stop stop-color="#A6FFD4" />
      <stop offset="0.48193" stop-color="#83EAE4" stop-opacity="0.31" />
      <stop offset="1" stop-color="#C037C2" stop-opacity="0.96" />
    </radialGradient>
    <radialGradient id="paint12_radial_7703_5692" cx="0" cy="0" r="1" gradientUnits="userSpaceOnUse"
      gradientTransform="translate(17.2562 30.969) rotate(49.0451) scale(41.7164 54.0704)">
      <stop stop-color="#A6FFD4" />
      <stop offset="0.48193" stop-color="#83EAE4" stop-opacity="0.31" />
      <stop offset="1" stop-color="#C037C2" stop-opacity="0.96" />
    </radialGradient>
    <radialGradient id="paint13_radial_7703_5692" cx="0" cy="0" r="1" gradientUnits="userSpaceOnUse"
      gradientTransform="translate(17.2562 30.969) rotate(49.0451) scale(41.7164 54.0704)">
      <stop stop-color="#A6FFD4" />
      <stop offset="0.48193" stop-color="#83EAE4" stop-opacity="0.31" />
      <stop offset="1" stop-color="#C037C2" stop-opacity="0.96" />
    </radialGradient>
    <radialGradient id="paint14_radial_7703_5692" cx="0" cy="0" r="1" gradientUnits="userSpaceOnUse"
      gradientTransform="translate(42.2841 33.1111) rotate(47.5179) scale(40.2483 52.4886)">
      <stop stop-color="#A6FFD4" />
      <stop offset="0.48193" stop-color="#83EAE4" stop-opacity="0.31" />
      <stop offset="1" stop-color="#C037C2" stop-opacity="0.96" />
    </radialGradient>
    <radialGradient id="paint15_radial_7703_5692" cx="0" cy="0" r="1" gradientUnits="userSpaceOnUse"
      gradientTransform="translate(42.2841 33.1111) rotate(47.5179) scale(40.2483 52.4886)">
      <stop stop-color="#A6FFD4" />
      <stop offset="0.48193" stop-color="#83EAE4" stop-opacity="0.31" />
      <stop offset="1" stop-color="#C037C2" stop-opacity="0.96" />
    </radialGradient>
    <radialGradient id="paint16_radial_7703_5692" cx="0" cy="0" r="1" gradientUnits="userSpaceOnUse"
      gradientTransform="translate(56.7496 30.154) rotate(49.5787) scale(42.2953 54.6661)">
      <stop stop-color="#A6FFD4" />
      <stop offset="0.48193" stop-color="#83EAE4" stop-opacity="0.31" />
      <stop offset="1" stop-color="#C037C2" stop-opacity="0.96" />
    </radialGradient>
    <radialGradient id="paint17_radial_7703_5692" cx="0" cy="0" r="1" gradientUnits="userSpaceOnUse"
      gradientTransform="translate(56.7496 30.154) rotate(49.5787) scale(42.2953 54.6661)">
      <stop stop-color="#A6FFD4" />
      <stop offset="0.48193" stop-color="#83EAE4" stop-opacity="0.31" />
      <stop offset="1" stop-color="#C037C2" stop-opacity="0.96" />
    </radialGradient>
  </defs>
</svg>