<svg xmlns="http://www.w3.org/2000/svg" width="16" height="18" viewBox="0 0 16 18" fill="none">
  <path
    d="M5.3 0C5.13431 0 5 0.134315 5 0.3V1H0.3C0.134315 1 0 1.13431 0 1.3V2.7C0 2.86569 0.134315 3 0.3 3H1V16C1 16.5304 1.21071 17.0391 1.58579 17.4142C1.96086 17.7893 2.46957 18 3 18H13C13.5304 18 14.0391 17.7893 14.4142 17.4142C14.7893 17.0391 15 16.5304 15 16V3H15.7C15.8657 3 16 2.86569 16 2.7V1.3C16 1.13431 15.8657 1 15.7 1H11V0.3C11 0.134315 10.8657 0 10.7 0H5.3ZM5 5.3C5 5.13432 5.13431 5 5.3 5H6.7C6.86569 5 7 5.13431 7 5.3V13.7C7 13.8657 6.86569 14 6.7 14H5.3C5.13431 14 5 13.8657 5 13.7V5.3ZM9 5.3C9 5.13431 9.13431 5 9.3 5H10.7C10.8657 5 11 5.13431 11 5.3V13.7C11 13.8657 10.8657 14 10.7 14H9.3C9.13431 14 9 13.8657 9 13.7V6.5V5.3Z"
    fill="#B5B5C6" />
</svg>