<svg width="24" height="19" viewBox="0 0 24 19" fill="none" xmlns="http://www.w3.org/2000/svg">
  <path
    d="M24 2.24918C23.1013 2.63702 22.148 2.89159 21.1719 3.00444C22.1887 2.41082 22.9693 1.4708 23.3369 0.350783C22.3704 0.909502 21.3129 1.30315 20.2103 1.51473C19.312 0.582568 18.0324 0 16.6162 0C13.8968 0 11.6921 2.14762 11.6921 4.79644C11.6921 5.17243 11.7357 5.53846 11.8196 5.88961C7.72744 5.68952 4.09931 3.77998 1.67072 0.878008C1.24697 1.58642 1.00416 2.41046 1.00416 3.28938C1.00416 4.95352 1.8735 6.42159 3.19462 7.28178C2.4127 7.25793 1.64798 7.0522 0.964313 6.68177C0.964031 6.70186 0.964031 6.72196 0.964031 6.74214C0.964031 9.06611 2.66128 11.0048 4.91372 11.4454C4.18864 11.6375 3.42809 11.6656 2.69016 11.5276C3.31669 13.4332 5.13516 14.8199 7.28972 14.8587C5.60456 16.1452 3.48141 16.912 1.17459 16.912C0.777094 16.912 0.385219 16.8893 0 16.845C2.17903 18.2059 4.76719 19 7.54781 19C16.6047 19 21.5573 11.6911 21.5573 5.35271C21.5573 5.14467 21.5526 4.93781 21.543 4.73215C22.507 4.05331 23.339 3.2125 24 2.24918Z"
    fill="#997EA4" />
</svg>