<svg width="28" height="28" viewBox="0 0 28 28" fill="none" xmlns="http://www.w3.org/2000/svg">
<path fill-rule="evenodd" clip-rule="evenodd" d="M11.25 7.95V4.65H16.75V7.95H11.25ZM9.59995 4.1C9.59995 3.49249 10.0924 3 10.7 3H17.3C17.9075 3 18.4 3.49249 18.4 4.1V5.2H20.6C21.815 5.2 22.8 6.18497 22.8 7.4V22.8C22.8 24.015 21.815 25 20.6 25H7.39995C6.18492 25 5.19995 24.015 5.19995 22.8V7.4C5.19995 6.18497 6.18492 5.2 7.39995 5.2H9.59995V4.1ZM18.4 6.85V8.5C18.4 9.10751 17.9075 9.6 17.3 9.6H10.7C10.0924 9.6 9.59995 9.10751 9.59995 8.5V6.85H7.39995C7.09619 6.85 6.84995 7.09624 6.84995 7.4V22.8C6.84995 23.1038 7.09619 23.35 7.39995 23.35H20.6C20.9037 23.35 21.15 23.1038 21.15 22.8V7.4C21.15 7.09624 20.9037 6.85 20.6 6.85H18.4ZM12.35 19.775C12.0462 19.775 11.8 19.5288 11.8 19.225V18.675C11.8 18.3712 12.0462 18.125 12.35 18.125H15.65C15.9537 18.125 16.2 18.3712 16.2 18.675V19.225C16.2 19.5288 15.9537 19.775 15.65 19.775H12.35ZM17.85 14.825C18.1537 14.825 18.4 14.5788 18.4 14.275V13.725C18.4 13.4212 18.1537 13.175 17.85 13.175H10.15C9.8462 13.175 9.59995 13.4212 9.59995 13.725V14.275C9.59995 14.5788 9.8462 14.825 10.15 14.825H17.85Z" fill="url(#paint0_radial_10910_17901)"/>
<defs>
<radialGradient id="paint0_radial_10910_17901" cx="0" cy="0" r="1" gradientUnits="userSpaceOnUse" gradientTransform="translate(7.18305 10.5699) rotate(65.9095) scale(21.2151 21.6423)">
<stop stop-color="#CCCCD7"/>
<stop offset="0.485" stop-color="#75759B"/>
<stop offset="1" stop-color="#44446E"/>
</radialGradient>
</defs>
</svg>
