<svg width="24" height="24" viewBox="0 0 24 24" fill="none" xmlns="http://www.w3.org/2000/svg">
<path d="M4.8 0H0V4.8H4.8V0Z" fill="#FB8A61"/>
<path d="M14.4 0.240556C13.661 0.0902859 12.9096 0.00974704 12.1556 0H7.8V4.8H12.0667C13.4907 4.8 14.8827 5.22227 16.0668 6.01342C17.2508 6.80456 18.1736 7.92905 18.7186 9.24468C19.2635 10.5603 19.4061 12.008 19.1283 13.4046C18.8505 14.8013 18.1648 16.0842 17.1578 17.0912C16.1509 18.0981 14.868 18.7838 13.4713 19.0617C12.0747 19.3395 10.627 19.1969 9.31135 18.6519C7.99572 18.107 6.87123 17.1841 6.08009 16.0001C5.28894 14.8161 4.86667 13.424 4.86667 12V7.8H0.0666669V12C0.0660838 12.8288 0.151166 13.6554 0.320556 14.4667C1.44778 19.8622 6.19889 23.9267 11.9111 24H12.1556C18.7111 23.9167 24 18.5761 24 12C24 6.19444 19.8772 1.35222 14.4 0.240556Z" fill="#FB8A61"/>
<path d="M11.3769 16.1881C10.7178 16.0898 10.0913 15.8373 9.54833 15.4511C8.9971 15.0602 8.54763 14.5428 8.23763 13.9423C7.92762 13.3418 7.76612 12.6758 7.76666 12V7.76778H12C12.6663 7.76753 13.3233 7.92456 13.9174 8.2261C14.5116 8.52765 15.0262 8.96519 15.4194 9.50313C15.8126 10.0411 16.0732 10.6642 16.1801 11.3219C16.287 11.9796 16.2372 12.6532 16.0346 13.288C15.8321 13.9228 15.4825 14.5008 15.0145 14.975C14.5464 15.4492 13.973 15.8062 13.3409 16.017C12.7088 16.2278 12.0359 16.2864 11.3769 16.1881Z" fill="#FB8A61"/>
</svg>
