<svg width="32" height="32" viewBox="0 0 32 32" fill="none" xmlns="http://www.w3.org/2000/svg">
<rect width="32" height="32" fill="#1E1E2C"/>
<path fill-rule="evenodd" clip-rule="evenodd" d="M10.6667 3.33317C10.6667 2.96498 10.3683 2.6665 10.0001 2.6665H5.33341C3.86066 2.6665 2.66675 3.86041 2.66675 5.33317V9.99984C2.66675 10.368 2.96522 10.6665 3.33341 10.6665H4.00008C4.36827 10.6665 4.66675 10.368 4.66675 9.99984V5.33317C4.66675 4.96498 4.96523 4.6665 5.33341 4.6665H10.0001C10.3683 4.6665 10.6667 4.36803 10.6667 3.99984V3.33317ZM10.6667 27.9998C10.6667 27.6316 10.3683 27.3332 10.0001 27.3332H5.33342C4.96522 27.3332 4.66675 27.0347 4.66675 26.6665V21.9998C4.66675 21.6316 4.36827 21.3332 4.00008 21.3332H3.33341C2.96522 21.3332 2.66675 21.6316 2.66675 21.9998V26.6665C2.66675 28.1393 3.86066 29.3332 5.33342 29.3332H10.0001C10.3683 29.3332 10.6667 29.0347 10.6667 28.6665V27.9998ZM22.0001 29.3332C21.6319 29.3332 21.3334 29.0347 21.3334 28.6665V27.9998C21.3334 27.6316 21.6319 27.3332 22.0001 27.3332H26.6667C27.0349 27.3332 27.3334 27.0347 27.3334 26.6665V21.9998C27.3334 21.6316 27.6319 21.3332 28.0001 21.3332H28.6667C29.0349 21.3332 29.3334 21.6316 29.3334 21.9998V26.6665C29.3334 28.1393 28.1395 29.3332 26.6667 29.3332H22.0001ZM22.0001 4.6665C21.6319 4.6665 21.3334 4.36803 21.3334 3.99984V3.33317C21.3334 2.96498 21.6319 2.6665 22.0001 2.6665H26.6667C28.1395 2.6665 29.3334 3.86041 29.3334 5.33317V9.99984C29.3334 10.368 29.0349 10.6665 28.6667 10.6665H28.0001C27.6319 10.6665 27.3334 10.368 27.3334 9.99984V5.33317C27.3334 4.96498 27.0349 4.6665 26.6667 4.6665H22.0001ZM14.0001 9.99984H10.0001V13.9998H14.0001V9.99984ZM10.0001 7.99984C8.89551 7.99984 8.00008 8.89527 8.00008 9.99984V13.9998C8.00008 15.1044 8.89551 15.9998 10.0001 15.9998H14.0001C15.1047 15.9998 16.0001 15.1044 16.0001 13.9998V9.99984C16.0001 8.89527 15.1047 7.99984 14.0001 7.99984H10.0001ZM18.0001 17.9998H22.0001V21.9998H18.0001V17.9998ZM16.0001 17.9998C16.0001 16.8953 16.8955 15.9998 18.0001 15.9998H22.0001C23.1047 15.9998 24.0001 16.8953 24.0001 17.9998V21.9998C24.0001 23.1044 23.1047 23.9998 22.0001 23.9998H18.0001C16.8955 23.9998 16.0001 23.1044 16.0001 21.9998V17.9998ZM22.0001 9.99984H19.3334V12.6665H22.0001V9.99984ZM19.3334 7.99984C18.2288 7.99984 17.3334 8.89527 17.3334 9.99984V12.6665C17.3334 13.7711 18.2288 14.6665 19.3334 14.6665H22.0001C23.1046 14.6665 24.0001 13.7711 24.0001 12.6665V9.99984C24.0001 8.89527 23.1046 7.99984 22.0001 7.99984H19.3334ZM10.0001 19.3332H12.6667V21.9998H10.0001V19.3332ZM8.00008 19.3332C8.00008 18.2286 8.89551 17.3332 10.0001 17.3332H12.6667C13.7713 17.3332 14.6667 18.2286 14.6667 19.3332V21.9998C14.6667 23.1044 13.7713 23.9998 12.6667 23.9998H10.0001C8.89551 23.9998 8.00008 23.1044 8.00008 21.9998V19.3332Z" fill="#B5B5C6"/>
</svg>
