<svg width="32" height="33" viewBox="0 0 32 33" fill="none" xmlns="http://www.w3.org/2000/svg">
<path d="M28.8801 14.134L27.5734 19.7074C26.4534 24.5207 24.2401 26.4674 20.0801 26.0674C19.4134 26.014 18.6934 25.894 17.9201 25.7074L15.6801 25.174C10.1201 23.854 8.40008 21.1074 9.70674 15.534L11.0134 9.94737C11.2801 8.81404 11.6001 7.82737 12.0001 7.01404C13.5601 3.78737 16.2134 2.92071 20.6667 3.97404L22.8934 4.49404C28.4801 5.80071 30.1867 8.56071 28.8801 14.134Z" stroke="#B5B5C6" stroke-width="1.5" stroke-linecap="round" stroke-linejoin="round"/>
<path d="M20.08 26.0675C19.2533 26.6275 18.2133 27.0942 16.9466 27.5075L14.84 28.2008C9.54663 29.9075 6.75997 28.4808 5.03997 23.1875L3.3333 17.9208C1.62663 12.6275 3.03997 9.82749 8.3333 8.12083L10.44 7.42749C10.9866 7.25416 11.5066 7.10749 12 7.01416C11.6 7.82749 11.28 8.81416 11.0133 9.94749L9.70663 15.5342C8.39997 21.1075 10.12 23.8542 15.68 25.1742L17.92 25.7075C18.6933 25.8942 19.4133 26.0142 20.08 26.0675Z" stroke="#B5B5C6" stroke-width="1.5" stroke-linecap="round" stroke-linejoin="round"/>
<path d="M16.8533 11.5884L23.3199 13.2284" stroke="#B5B5C6" stroke-width="1.5" stroke-linecap="round" stroke-linejoin="round"/>
<path d="M15.5466 16.7485L19.4133 17.7352" stroke="#B5B5C6" stroke-width="1.5" stroke-linecap="round" stroke-linejoin="round"/>
</svg>
