<svg xmlns="http://www.w3.org/2000/svg" xmlns:xlink="http://www.w3.org/1999/xlink" viewBox="0 0 32 29"><path d="M 5.507 0.072 L 26.097 0.072 L 26.097 4.167 L 31.952 4.167 L 30.725 8.263 L 29.686 8.263 L 29.686 24.833 C 30.207 24.833 30.63 25.249 30.63 25.763 L 30.63 26.88 L 30.819 26.88 C 31.341 26.88 31.764 27.297 31.764 27.811 L 31.764 28.928 L 21.185 28.928 L 21.185 27.811 C 21.185 27.297 21.608 26.88 22.13 26.88 L 22.319 26.88 L 22.319 25.763 C 22.319 25.316 22.639 24.943 23.065 24.853 L 23.045 15.71 C 22.711 12.057 19.596 9.194 15.802 9.194 C 12.008 9.194 8.893 12.057 8.559 15.71 L 8.539 24.845 C 9.043 24.919 9.663 25.302 9.663 25.763 L 9.663 26.88 L 9.852 26.88 C 10.373 26.88 10.796 27.297 10.796 27.811 L 10.796 28.928 L 0.218 28.928 L 0.218 27.811 C 0.218 27.297 0.641 26.88 1.162 26.88 L 1.351 26.88 L 1.351 25.763 C 1.351 25.249 1.774 24.833 2.296 24.833 L 2.296 8.263 L 1.257 8.263 L 0.029 4.167 L 5.507 4.167 L 5.507 0.072 Z" fill="#8a63d2"/><path d="M 26.097 0.072 L 26.166 0.072 L 26.166 0.004 L 26.097 0.004 Z M 5.507 0.072 L 5.507 0.004 L 5.438 0.004 L 5.438 0.072 Z M 26.097 4.167 L 26.028 4.167 L 26.028 4.235 L 26.097 4.235 Z M 31.952 4.167 L 32.019 4.187 L 32.045 4.099 L 31.952 4.099 L 31.952 4.167 Z M 30.725 8.263 L 30.725 8.331 L 30.776 8.331 L 30.791 8.282 Z M 29.686 8.263 L 29.686 8.195 L 29.617 8.195 L 29.617 8.263 Z M 29.686 24.833 L 29.617 24.833 L 29.617 24.901 L 29.686 24.901 Z M 30.63 26.88 L 30.561 26.88 L 30.561 26.948 L 30.63 26.948 Z M 31.764 28.928 L 31.764 28.996 L 31.832 28.996 L 31.832 28.928 Z M 21.185 28.928 L 21.116 28.928 L 21.116 28.996 L 21.185 28.996 Z M 22.319 26.88 L 22.319 26.948 L 22.388 26.948 L 22.388 26.88 Z M 23.065 24.853 L 23.08 24.919 L 23.134 24.908 L 23.134 24.853 Z M 23.045 15.71 L 23.114 15.71 L 23.114 15.707 L 23.113 15.704 Z M 8.559 15.71 L 8.49 15.704 L 8.49 15.707 L 8.49 15.71 Z M 8.539 24.845 L 8.47 24.845 L 8.469 24.904 L 8.528 24.913 Z M 9.663 26.88 L 9.594 26.88 L 9.594 26.948 L 9.663 26.948 Z M 10.796 28.928 L 10.796 28.996 L 10.865 28.996 L 10.865 28.928 Z M 0.218 28.928 L 0.149 28.928 L 0.149 28.996 L 0.218 28.996 Z M 1.351 26.88 L 1.351 26.948 L 1.42 26.948 L 1.42 26.88 Z M 2.296 24.833 L 2.296 24.901 L 2.365 24.901 L 2.365 24.833 Z M 2.296 8.263 L 2.365 8.263 L 2.365 8.195 L 2.296 8.195 Z M 1.257 8.263 L 1.191 8.282 L 1.205 8.331 L 1.257 8.331 Z M 0.029 4.167 L 0.029 4.1 L -0.063 4.1 L -0.037 4.187 L 0.029 4.167 Z M 5.507 4.167 L 5.507 4.235 L 5.576 4.235 L 5.576 4.167 Z M 26.097 0.004 L 5.507 0.004 L 5.507 0.139 L 26.097 0.139 Z M 26.166 4.167 L 26.166 0.072 L 26.028 0.072 L 26.028 4.167 L 26.166 4.167 Z M 31.952 4.099 L 26.097 4.099 L 26.097 4.235 L 31.952 4.235 Z M 30.791 8.282 L 32.019 4.187 L 31.886 4.148 L 30.658 8.244 Z M 29.686 8.331 L 30.725 8.331 L 30.725 8.195 L 29.686 8.195 Z M 29.755 24.833 L 29.755 8.263 L 29.617 8.263 L 29.617 24.833 Z M 30.699 25.763 C 30.699 25.212 30.245 24.765 29.686 24.765 L 29.686 24.9 C 30.169 24.9 30.561 25.287 30.561 25.763 Z M 30.699 26.88 L 30.699 25.763 L 30.561 25.763 L 30.561 26.88 Z M 30.819 26.813 L 30.63 26.813 L 30.63 26.948 L 30.819 26.948 Z M 31.832 27.811 C 31.832 27.26 31.379 26.813 30.819 26.813 L 30.819 26.948 C 31.303 26.948 31.695 27.335 31.695 27.811 Z M 31.832 28.928 L 31.832 27.811 L 31.695 27.811 L 31.695 28.928 Z M 26.097 28.996 L 31.764 28.996 L 31.764 28.86 L 26.097 28.86 Z M 23.074 28.996 L 26.097 28.996 L 26.097 28.86 L 23.074 28.86 Z M 21.185 28.996 L 23.074 28.996 L 23.074 28.86 L 21.185 28.86 Z M 21.116 27.811 L 21.116 28.928 L 21.254 28.928 L 21.254 27.811 Z M 22.13 26.813 C 21.57 26.813 21.116 27.26 21.116 27.811 L 21.254 27.811 C 21.254 27.335 21.646 26.948 22.13 26.948 Z M 22.319 26.813 L 22.13 26.813 L 22.13 26.948 L 22.319 26.948 Z M 22.25 25.763 L 22.25 26.88 L 22.388 26.88 L 22.388 25.763 Z M 23.051 24.787 C 22.593 24.883 22.25 25.284 22.25 25.763 L 22.388 25.763 C 22.388 25.349 22.684 25.003 23.08 24.919 Z M 22.976 15.71 L 22.996 24.853 L 23.134 24.853 L 23.114 15.71 Z M 15.802 9.262 C 19.559 9.262 22.645 12.098 22.976 15.716 L 23.113 15.704 C 22.776 12.016 19.632 9.126 15.802 9.126 Z M 8.628 15.716 C 8.959 12.098 12.044 9.262 15.802 9.262 L 15.802 9.126 C 11.972 9.126 8.828 12.016 8.49 15.704 Z M 8.608 24.845 L 8.628 15.71 L 8.49 15.71 L 8.47 24.845 Z M 9.732 25.763 C 9.732 25.502 9.557 25.273 9.331 25.105 C 9.104 24.935 8.812 24.817 8.549 24.778 L 8.528 24.912 C 8.769 24.948 9.039 25.057 9.248 25.213 C 9.459 25.37 9.594 25.563 9.594 25.763 Z M 9.732 26.88 L 9.732 25.763 L 9.594 25.763 L 9.594 26.88 Z M 9.852 26.813 L 9.663 26.813 L 9.663 26.948 L 9.852 26.948 Z M 10.865 27.811 C 10.865 27.26 10.411 26.813 9.852 26.813 L 9.852 26.948 C 10.335 26.948 10.727 27.335 10.727 27.811 Z M 10.865 28.928 L 10.865 27.811 L 10.727 27.811 L 10.727 28.928 Z M 8.529 28.996 L 10.796 28.996 L 10.796 28.86 L 8.529 28.86 Z M 8.372 28.996 L 8.529 28.996 L 8.529 28.86 L 8.372 28.86 Z M 5.507 28.996 L 8.372 28.996 L 8.372 28.86 L 5.507 28.86 Z M 0.218 28.996 L 5.507 28.996 L 5.507 28.86 L 0.218 28.86 Z M 0.149 27.811 L 0.149 28.928 L 0.287 28.928 L 0.287 27.811 Z M 1.162 26.813 C 0.603 26.813 0.149 27.26 0.149 27.811 L 0.287 27.811 C 0.287 27.335 0.679 26.948 1.162 26.948 Z M 1.351 26.813 L 1.162 26.813 L 1.162 26.948 L 1.351 26.948 Z M 1.282 25.763 L 1.282 26.88 L 1.42 26.88 L 1.42 25.763 Z M 2.296 24.765 C 1.736 24.765 1.282 25.212 1.282 25.763 L 1.42 25.763 C 1.42 25.287 1.812 24.9 2.296 24.9 Z M 2.227 8.263 L 2.227 24.833 L 2.365 24.833 L 2.365 8.263 Z M 1.257 8.331 L 2.296 8.331 L 2.296 8.195 L 1.257 8.195 Z M -0.037 4.187 L 1.191 8.282 L 1.323 8.244 L 0.095 4.148 Z M 5.507 4.099 L 0.029 4.099 L 0.029 4.235 L 5.507 4.235 L 5.507 4.099 Z M 5.438 0.072 L 5.438 4.167 L 5.576 4.167 L 5.576 0.072 Z" fill="rgb(255,255,255)"/></svg>