<svg width="32" height="33" viewBox="0 0 32 33" fill="none" xmlns="http://www.w3.org/2000/svg">
<path d="M4.66675 29.839V7.17236C4.66675 4.5057 6.45341 3.17236 8.66675 3.17236H19.3334C21.5467 3.17236 23.3334 4.5057 23.3334 7.17236V29.839H4.66675Z" stroke="#B5B5C6" stroke-width="1.5" stroke-linecap="round" stroke-linejoin="round"/>
<path d="M2.66675 29.8394H25.3334" stroke="#B5B5C6" stroke-width="1.5" stroke-linecap="round" stroke-linejoin="round"/>
<path d="M11.1867 13.8392H16.8267C18.2134 13.8392 19.3467 13.1725 19.3467 11.3192V9.67918C19.3467 7.82585 18.2134 7.15918 16.8267 7.15918H11.1867C9.80008 7.15918 8.66675 7.82585 8.66675 9.67918V11.3192C8.66675 13.1725 9.80008 13.8392 11.1867 13.8392Z" stroke="#B5B5C6" stroke-width="1.5" stroke-linecap="round" stroke-linejoin="round"/>
<path d="M8.66675 17.8394H12.6667" stroke="#B5B5C6" stroke-width="1.5" stroke-linecap="round" stroke-linejoin="round"/>
<path d="M23.3333 21.8525L29.3333 21.8392V13.8392L26.6666 12.5059" stroke="#B5B5C6" stroke-width="1.5" stroke-linecap="round" stroke-linejoin="round"/>
</svg>
