<svg width="28" height="28" viewBox="0 0 28 28" fill="none" xmlns="http://www.w3.org/2000/svg">
<path fill-rule="evenodd" clip-rule="evenodd" d="M13.2181 5.54408C13.7043 5.27398 14.2955 5.27398 14.7816 5.54408L21.2207 9.12132C21.7317 9.40524 22.0487 9.9439 22.0487 10.5285V17.4715C22.0487 18.0561 21.7317 18.5948 21.2207 18.8787L14.7816 22.4559C14.2955 22.726 13.7043 22.726 13.2181 22.4559L6.77906 18.8787C6.26802 18.5948 5.95107 18.0561 5.95107 17.4715V10.5285C5.95107 9.9439 6.26802 9.40524 6.77906 9.12132L13.2181 5.54408ZM22.8305 8.17414C23.3415 8.45805 23.6584 8.99671 23.6584 9.58132V18.4187C23.6584 19.0033 23.3415 19.542 22.8304 19.8259L14.7816 24.2974C14.2955 24.5675 13.7043 24.5675 13.2181 24.2974L5.1693 19.8259C4.65826 19.542 4.34131 19.0033 4.34131 18.4187V9.58132C4.34131 8.99671 4.65826 8.45805 5.1693 8.17414L13.2181 3.70258C13.7043 3.43247 14.2955 3.43247 14.7816 3.70258L22.8305 8.17414ZM8.23604 11.2753C8.03145 11.0152 7.79075 11.0867 7.4753 11.1935L7.42838 11.2093C7.13902 11.3064 6.94797 11.3705 6.94797 11.6833V16.3128C6.94797 16.6001 7.1809 16.833 7.46824 16.833H7.98851C8.27584 16.833 8.50877 16.6001 8.50877 16.3128V14.1711L10.5262 16.6883C10.7307 16.9484 10.955 16.9398 11.2705 16.833C11.312 16.819 11.3517 16.8065 11.3894 16.7946C11.638 16.7164 11.7978 16.6662 11.7978 16.3802V11.7138C11.7978 11.4264 11.5649 11.1935 11.2775 11.1935H10.7573C10.4699 11.1935 10.237 11.4264 10.237 11.7138V13.8555L8.23604 11.2753ZM12.4986 11.6969C12.4986 11.2647 12.6683 11.0968 13.0993 11.0968H15.8684C16.1557 11.0968 16.3887 11.3297 16.3887 11.6171V12.1416C16.3887 12.4289 16.1557 12.6618 15.8684 12.6618H14.0594V13.2416H15.5479C15.8352 13.2416 16.0681 13.4745 16.0681 13.7619V14.2864C16.0681 14.5737 15.8352 14.8067 15.5479 14.8067H14.0594V16.2995C14.0594 16.5868 13.8265 16.8198 13.5392 16.8198H13.0189C12.7316 16.8198 12.4986 16.5868 12.4986 16.2995V11.6969ZM17.6098 12.6576H18.424V16.3038C18.424 16.5911 18.6569 16.8241 18.9443 16.8241H19.4645C19.7519 16.8241 19.9848 16.5911 19.9848 16.3038V12.6576H20.837C21.1243 12.6576 21.3572 12.4247 21.3572 12.1373V11.6171C21.3572 11.3297 21.1243 11.0968 20.837 11.0968H17.6098C17.3224 11.0968 17.0895 11.3297 17.0895 11.6171V12.1373C17.0895 12.4247 17.3224 12.6576 17.6098 12.6576Z" fill="url(#paint0_radial_10910_18719)"/>
<defs>
<radialGradient id="paint0_radial_10910_18719" cx="0" cy="0" r="1" gradientUnits="userSpaceOnUse" gradientTransform="translate(6.51789 10.7258) rotate(62.7917) scale(20.787 23.141)">
<stop stop-color="#CCCCD7"/>
<stop offset="0.485" stop-color="#75759B"/>
<stop offset="1" stop-color="#44446E"/>
</radialGradient>
</defs>
</svg>
