<svg width="28" height="28" viewBox="0 0 28 28" fill="none" xmlns="http://www.w3.org/2000/svg">
<path fill-rule="evenodd" clip-rule="evenodd" d="M22.925 14C22.925 18.9291 18.9291 22.925 14 22.925C9.07086 22.925 5.075 18.9291 5.075 14C5.075 9.07086 9.07086 5.075 14 5.075C18.9291 5.075 22.925 9.07086 22.925 14ZM24.5 14C24.5 19.799 19.799 24.5 14 24.5C8.20101 24.5 3.5 19.799 3.5 14C3.5 8.20101 8.20101 3.5 14 3.5C19.799 3.5 24.5 8.20101 24.5 14ZM13.8872 6.94839C13.5973 6.94839 13.3622 7.18344 13.3622 7.47339V9.16626C12.8276 9.25632 12.3109 9.41824 11.868 9.66913C11.1696 10.0648 10.5621 10.6046 10.1341 11.3423C9.70648 12.0793 9.48597 12.9658 9.48597 14.0121C9.48597 16.1545 10.474 17.6445 11.8496 18.474C12.2792 18.7331 12.8124 18.8894 13.3622 18.973V20.5266C13.3622 20.8166 13.5973 21.0516 13.8872 21.0516H14.4122C14.7022 21.0516 14.9372 20.8166 14.9372 20.5266V19.0386C15.7689 18.9902 16.6298 18.813 17.1948 18.4761L17.4203 18.3417C17.6693 18.1932 17.7508 17.8709 17.6023 17.6219L17.3334 17.1709C17.1849 16.9219 16.8627 16.8404 16.6136 16.9889L16.3882 17.1234C16.1021 17.2939 15.4175 17.4602 14.5891 17.4762C13.7638 17.4921 13.0412 17.3534 12.6629 17.1253C11.7625 16.5823 11.061 15.6054 11.061 14.0121C11.061 13.1907 11.2324 12.5878 11.4964 12.1327C11.76 11.6783 12.1439 11.323 12.6444 11.0395C13.083 10.791 13.7589 10.6461 14.507 10.652C15.251 10.6579 15.9567 10.8122 16.4333 11.0557L16.6671 11.1751C16.9253 11.3069 17.2415 11.2045 17.3734 10.9463L17.6122 10.4788C17.7441 10.2205 17.6417 9.9043 17.3835 9.77242L17.1497 9.65302C16.5124 9.32753 15.7224 9.14481 14.9372 9.0926V7.47339C14.9372 7.18344 14.7022 6.94839 14.4122 6.94839H13.8872Z" fill="url(#paint0_radial_10910_16687)"/>
<defs>
<radialGradient id="paint0_radial_10910_16687" cx="0" cy="0" r="1" gradientUnits="userSpaceOnUse" gradientTransform="translate(5.8662 10.7258) rotate(60.7991) scale(21.1784 24.6921)">
<stop stop-color="#CCCCD7"/>
<stop offset="0.485" stop-color="#75759B"/>
<stop offset="1" stop-color="#44446E"/>
</radialGradient>
</defs>
</svg>
