<svg width="28" height="28" viewBox="0 0 28 28" fill="none" xmlns="http://www.w3.org/2000/svg">
<path fill-rule="evenodd" clip-rule="evenodd" d="M19.6782 4.14556C19.4838 3.95148 19.1731 3.95148 18.9788 4.14556L18.6228 4.501C18.4224 4.7011 18.4224 5.03017 18.6228 5.23026L21.1883 7.79218C21.3164 7.92009 21.2277 8.14211 21.0484 8.14211H4.9375C4.66136 8.14211 4.4375 8.37053 4.4375 8.6523V9.14414C4.4375 9.42591 4.66136 9.65433 4.9375 9.65433H21.0484C21.2277 9.65433 21.3164 9.87634 21.1883 10.0043L18.6228 12.5662C18.4224 12.7663 18.4224 13.0953 18.6228 13.2954L18.9788 13.6509C19.1731 13.845 19.4838 13.845 19.6782 13.6509L24.0724 9.26285C24.2727 9.06275 24.2727 8.73368 24.0724 8.53359L19.6782 4.14556ZM9.19681 23.8544C9.39116 24.0485 9.70189 24.0485 9.89625 23.8544L10.2522 23.499C10.4526 23.2989 10.4526 22.9698 10.2522 22.7697L7.68668 20.2078C7.55859 20.0799 7.64735 19.8579 7.82657 19.8579H23.9375C24.2136 19.8579 24.4375 19.6295 24.4375 19.3477V18.8559C24.4375 18.5741 24.2136 18.3457 23.9375 18.3457H7.82657C7.64735 18.3457 7.55859 18.1237 7.68668 17.9957L10.2522 15.4338C10.4526 15.2337 10.4526 14.9047 10.2522 14.7046L9.89625 14.3491C9.70189 14.155 9.39116 14.155 9.19681 14.3491L4.80264 18.7372C4.60227 18.9372 4.60227 19.2663 4.80264 19.4664L9.19681 23.8544Z" fill="url(#paint0_radial_12011_893)"/>
<defs>
<radialGradient id="paint0_radial_12011_893" cx="0" cy="0" r="1" gradientUnits="userSpaceOnUse" gradientTransform="translate(6.69102 10.8817) rotate(60.7991) scale(20.1699 23.5163)">
<stop stop-color="#CCCCD7"/>
<stop offset="0.485" stop-color="#75759B"/>
<stop offset="1" stop-color="#44446E"/>
</radialGradient>
</defs>
</svg>
