<svg width="28" height="28" viewBox="0 0 28 28" fill="none" xmlns="http://www.w3.org/2000/svg">
<path d="M15.4076 8.29909C15.4133 8.3075 15.4162 8.31591 15.422 8.32432C15.4882 8.44768 15.5458 8.55702 15.5891 8.64393C15.6323 8.73085 15.664 8.79533 15.6784 8.83178C17.6459 13.0232 11.6165 19.3117 11.5935 19.3313C11.5215 19.393 11.484 19.4771 11.484 19.564C11.484 19.6369 11.5099 19.7098 11.5618 19.7686C11.5676 19.7743 11.5704 19.7799 11.5762 19.7855L12.8581 21.0331C12.982 21.1536 13.1808 21.1648 13.319 21.0527C14.624 19.9004 15.7245 18.5491 16.58 17.052C17.3233 15.7483 17.7467 14.5652 17.9167 13.7605V13.7577C18.1097 13.0792 18.078 12.4344 18.7002 13.5867C18.7809 13.7437 18.8587 13.9007 18.9307 14.0577L18.9336 14.0605L18.9422 14.0801C19.0315 14.2736 19.1151 14.4698 19.1929 14.6689C19.2044 14.6969 19.213 14.7222 19.2245 14.7474C19.2505 14.8119 19.2735 14.8764 19.2966 14.9408C19.2966 14.9408 19.334 15.0418 19.3686 15.1483C19.4031 15.2548 19.4838 15.5184 19.5818 15.88C19.6019 15.9529 19.6797 15.9978 19.7546 15.9782C19.792 15.967 19.8266 15.9417 19.8439 15.9081C20.1118 15.4034 20.4373 14.8203 20.8176 14.0941C20.855 14.0269 20.8608 13.9484 20.832 13.8755C20.688 13.5166 20.469 13.0428 20.0196 12.2634C19.4464 11.2681 18.7867 10.3233 18.1644 9.35605C17.6632 8.57665 17.1792 7.78883 16.7183 6.9842C16.629 6.8272 16.5397 6.66739 16.4504 6.50758C16.4129 6.4403 16.3265 6.41507 16.2603 6.45151C16.2343 6.46273 16.2142 6.48516 16.2027 6.51039L15.396 8.03275C15.3586 8.11966 15.3615 8.21779 15.4076 8.29909Z" fill="url(#paint0_radial_12011_898)"/>
<path d="M21.5839 16.6565C21.5464 16.3537 21.4917 16.0537 21.4254 15.7537C21.4197 15.7229 21.3188 15.3276 21.241 15.022C21.2238 14.9463 21.146 14.9014 21.0711 14.9211C21.0308 14.9323 20.9991 14.9575 20.9789 14.9911L19.9246 16.9817C19.9044 17.0182 19.8957 17.0602 19.8929 17.0995C19.8468 18.6667 19.3686 19.8975 19.0632 20.4273C18.441 21.5039 17.5451 22.2973 16.3813 22.774C14.7709 23.4356 13.1462 23.4244 11.5589 22.7067C11.4062 22.6366 11.2593 22.5637 11.1182 22.4852C10.398 22.0927 9.77862 21.5404 9.30906 20.8787C8.95185 20.3741 8.6753 19.8021 8.47365 19.1685C8.15389 18.1592 8.20574 17.1471 8.4362 16.1266C8.79053 14.5566 9.53952 13.166 10.4325 11.8315C11.6021 10.0876 12.7285 8.31856 13.6964 6.46257C13.7598 6.34202 13.8232 6.21866 13.8837 6.0953L13.8894 6.08128C13.9038 6.05324 13.9211 6.02521 13.9384 5.99717C14.0047 5.90465 14.0709 5.90185 14.1343 5.99437C14.1775 6.06446 14.2178 6.13735 14.2553 6.21305C14.287 6.27473 14.5347 6.77658 14.8458 7.41019C14.8804 7.48028 14.9639 7.50832 15.0331 7.47748C15.0619 7.46626 15.0849 7.44383 15.0993 7.4158L15.9463 5.81494C15.9866 5.73644 15.9866 5.64392 15.9463 5.56261C15.7878 5.25702 15.6323 4.94582 15.4796 4.63462C15.3154 4.28978 15.1627 3.92531 14.9841 3.57766C14.7969 3.21319 14.4886 3.00572 14.0594 3.00012C13.633 2.99451 13.3248 3.19356 13.1203 3.54962C13.0828 3.61691 13.0482 3.6898 13.0137 3.75989C12.7832 4.22249 12.5614 4.68789 12.3338 5.15048C12.1639 5.49533 11.991 5.83737 11.8067 6.171C11.7577 6.25791 11.7116 6.34482 11.6597 6.43173C10.9597 7.65691 10.2078 8.85405 9.4531 10.0484C8.79053 11.1025 8.06746 12.1203 7.53741 13.2529C7.01888 14.3575 6.64726 15.5042 6.49747 16.707C6.35919 17.8256 6.45426 18.9302 6.84315 20.0012C7.04481 20.5619 7.30983 21.1002 7.63247 21.6049C7.93207 22.0703 8.2864 22.4992 8.69258 22.8805C8.8395 23.0179 8.9893 23.1496 9.14198 23.2758C10.5305 24.4085 12.1783 24.9944 14.287 24.9944C14.7882 25.0281 15.5343 24.9075 16.2631 24.6888C17.957 24.1842 19.3167 23.2225 20.3163 21.7955C21.0999 20.6769 21.5522 19.4405 21.6357 18.0863C21.6616 17.6097 21.6444 17.1331 21.5839 16.6565Z" fill="url(#paint1_radial_12011_898)"/>
<defs>
<radialGradient id="paint0_radial_12011_898" cx="0" cy="0" r="1" gradientUnits="userSpaceOnUse" gradientTransform="translate(8.15129 10.5699) rotate(68.8734) scale(20.7628 19.1106)">
<stop stop-color="#CCCCD7"/>
<stop offset="0.485" stop-color="#75759B"/>
<stop offset="1" stop-color="#44446E"/>
</radialGradient>
<radialGradient id="paint1_radial_12011_898" cx="0" cy="0" r="1" gradientUnits="userSpaceOnUse" gradientTransform="translate(8.15129 10.5699) rotate(68.8734) scale(20.7628 19.1106)">
<stop stop-color="#CCCCD7"/>
<stop offset="0.485" stop-color="#75759B"/>
<stop offset="1" stop-color="#44446E"/>
</radialGradient>
</defs>
</svg>
