<svg width="28" height="28" viewBox="0 0 28 28" fill="none" xmlns="http://www.w3.org/2000/svg">
<path fill-rule="evenodd" clip-rule="evenodd" d="M7.15163 7.8207L19.2685 5.44454C19.5249 5.39426 19.7779 5.58416 19.8337 5.86869L20.5328 9.43329H6.98578L6.78843 8.42692C6.73263 8.14239 6.89524 7.87097 7.15163 7.8207ZM21.2265 5.59557L21.979 9.43329H22.4C23.5598 9.43329 24.5 10.3735 24.5 11.5333V13.7733V15.3483V18.2179V19.7929V22.0333C24.5 23.1931 23.5598 24.1333 22.4 24.1333H5.6C4.4402 24.1333 3.5 23.1931 3.5 22.0333V11.5333C3.5 10.3937 4.40778 9.46606 5.53968 9.43414L5.39572 8.70004C5.17253 7.56192 5.82298 6.47625 6.84854 6.27513L18.9654 3.89898C19.9909 3.69786 21.0033 4.45745 21.2265 5.59557ZM5.6 11.0083H22.4C22.6899 11.0083 22.925 11.2433 22.925 11.5333V13.7733H18.0006C16.8408 13.7733 15.9006 14.7135 15.9006 15.8733V17.6929C15.9006 18.8527 16.8408 19.7929 18.0006 19.7929H22.925V22.0333C22.925 22.3232 22.6899 22.5583 22.4 22.5583H5.6C5.31005 22.5583 5.075 22.3232 5.075 22.0333V11.5333C5.075 11.2433 5.31005 11.0083 5.6 11.0083ZM22.925 18.2179V15.3483H18.0006C17.7106 15.3483 17.4756 15.5833 17.4756 15.8733V17.6929C17.4756 17.9828 17.7106 18.2179 18.0006 18.2179H22.925ZM13.112 15.7449C13.3249 15.548 13.3379 15.2158 13.141 15.003L12.7845 14.6175C12.5876 14.4047 12.2555 14.3917 12.0426 14.5886L9.44254 16.9933L8.41511 15.9659C8.21008 15.7609 7.87767 15.7609 7.67265 15.9659L7.30142 16.3371C7.09639 16.5422 7.09639 16.8746 7.30142 17.0796L8.86439 18.6426C9.16348 18.9416 9.64541 18.951 9.95594 18.6638L13.112 15.7449Z" fill="url(#paint0_radial_10910_19351)"/>
<defs>
<radialGradient id="paint0_radial_10910_19351" cx="0" cy="0" r="1" gradientUnits="userSpaceOnUse" gradientTransform="translate(5.8662 10.8401) rotate(59.9237) scale(20.6172 24.4783)">
<stop stop-color="#CCCCD7"/>
<stop offset="0.485" stop-color="#75759B"/>
<stop offset="1" stop-color="#44446E"/>
</radialGradient>
</defs>
</svg>
