<svg width="24" height="24" viewBox="0 0 24 24" fill="none" xmlns="http://www.w3.org/2000/svg">
<path d="M23.6381 14.9029C22.0353 21.3315 15.5243 25.2438 9.09496 23.6407C2.66827 22.038 -1.24407 15.5266 0.359419 9.09838C1.9614 2.66907 8.47247 -1.24364 14.8999 0.359095C21.3288 1.96183 25.2408 8.47401 23.6381 14.9029Z" fill="url(#paint0_linear_6784_13263)"/>
<path d="M17.2861 10.2927C17.525 8.69592 16.3092 7.83756 14.6469 7.26494L15.1861 5.10196L13.8695 4.77384L13.3445 6.87982C12.9984 6.79357 12.6429 6.71219 12.2896 6.63157L12.8184 4.51172L11.5025 4.18359L10.9629 6.34582C10.6764 6.28057 10.3951 6.21607 10.1221 6.1482L10.1236 6.14145L8.30791 5.68808L7.95767 7.09432C7.95767 7.09432 8.93453 7.31819 8.91391 7.33206C9.44715 7.46519 9.54353 7.81806 9.5274 8.0978L8.91316 10.5619C8.94991 10.5713 8.99753 10.5848 9.05003 10.6058C9.00616 10.5949 8.95928 10.5829 8.91091 10.5713L8.04992 14.0231C7.98467 14.1851 7.81929 14.4281 7.44655 14.3359C7.45967 14.355 6.48956 14.097 6.48956 14.097L5.83594 15.6041L7.5493 16.0312C7.86804 16.1111 8.18042 16.1947 8.48791 16.2735L7.94304 18.4612L9.25815 18.7893L9.79778 16.6248C10.157 16.7223 10.5058 16.8123 10.847 16.8971L10.3093 19.0514L11.6259 19.3796L12.1708 17.196C14.4159 17.6208 16.1041 17.4495 16.8147 15.4189C17.3873 13.7839 16.7862 12.8408 15.605 12.2258C16.4652 12.0274 17.1132 11.4615 17.2861 10.2927ZM14.2779 14.511C13.871 16.146 11.1181 15.2621 10.2256 15.0405L10.9486 12.1421C11.8411 12.3649 14.7031 12.8059 14.2779 14.511ZM14.6851 10.269C14.3139 11.7563 12.0226 11.0007 11.2794 10.8154L11.9349 8.18668C12.6781 8.37193 15.0717 8.71767 14.6851 10.269Z" fill="white"/>
<defs>
<linearGradient id="paint0_linear_6784_13263" x1="0" y1="0" x2="0" y2="2400" gradientUnits="userSpaceOnUse">
<stop stop-color="#F9AA4B"/>
<stop offset="1" stop-color="#F7931A"/>
</linearGradient>
</defs>
</svg>
