<svg width="36" height="36" viewBox="0 0 36 36" fill="none" xmlns="http://www.w3.org/2000/svg">
<g id="btc_lightning_logo 1" clip-path="url(#clip0_7019_2112)">
<path id="Ellipse" d="M0.899902 18.0642C0.899902 8.58449 8.58449 0.899902 18.0642 0.899902C27.5439 0.899902 35.2285 8.58449 35.2285 18.0642C35.2285 27.5439 27.5439 35.2285 18.0642 35.2285C8.58449 35.2285 0.899902 27.5439 0.899902 18.0642Z" fill="#F7931A"/>
<path id="Vector" d="M20.725 6.62134C19.7016 9.27771 18.6783 12.1384 17.4503 14.9991C17.4503 14.9991 17.4503 15.4078 17.8596 15.4078H26.251C26.251 15.4078 26.251 15.6122 26.4557 15.8165L14.1756 29.5071C13.9709 29.3027 13.9709 29.0984 13.9709 28.894L18.269 19.6989V18.8815H9.67285V18.0642L20.111 6.62134H20.725Z" fill="white"/>
</g>
<defs>
<clipPath id="clip0_7019_2112">
<rect width="36" height="36" fill="white"/>
</clipPath>
</defs>
</svg>
