<svg width="16" height="17" viewBox="0 0 16 17" fill="none" xmlns="http://www.w3.org/2000/svg">
<g id="is check=true">
<g id="Subtract">
<mask id="path-1-inside-1_6784_17510" fill="white">
<path fill-rule="evenodd" clip-rule="evenodd" d="M10.4 16.9863H5.6C1.6 16.9863 0 15.3863 0 11.3863V6.58633C0 2.58633 1.6 0.986328 5.6 0.986328H10.4C14.4 0.986328 16 2.58633 16 6.58633V11.3863C16 15.3863 14.4 16.9863 10.4 16.9863ZM12.1066 7.43039C12.4974 7.04021 12.498 6.40704 12.1078 6.01617C11.7176 5.62531 11.0845 5.62475 10.6936 6.01493L6.86472 9.83707L5.3072 8.27955C4.91668 7.88903 4.28351 7.88903 3.89299 8.27955C3.50247 8.67007 3.50247 9.30324 3.89299 9.69376L6.15699 11.9578C6.54727 12.348 7.17996 12.3483 7.57058 11.9584L12.1066 7.43039Z"/>
</mask>
<path fill-rule="evenodd" clip-rule="evenodd" d="M10.4 16.9863H5.6C1.6 16.9863 0 15.3863 0 11.3863V6.58633C0 2.58633 1.6 0.986328 5.6 0.986328H10.4C14.4 0.986328 16 2.58633 16 6.58633V11.3863C16 15.3863 14.4 16.9863 10.4 16.9863ZM12.1066 7.43039C12.4974 7.04021 12.498 6.40704 12.1078 6.01617C11.7176 5.62531 11.0845 5.62475 10.6936 6.01493L6.86472 9.83707L5.3072 8.27955C4.91668 7.88903 4.28351 7.88903 3.89299 8.27955C3.50247 8.67007 3.50247 9.30324 3.89299 9.69376L6.15699 11.9578C6.54727 12.348 7.17996 12.3483 7.57058 11.9584L12.1066 7.43039Z" fill="#B5B5C6"/>
<path d="M12.1078 6.01617L11.0462 7.0759L11.0462 7.0759L12.1078 6.01617ZM12.1066 7.43039L13.1663 8.49198L13.1663 8.49198L12.1066 7.43039ZM10.6936 6.01493L9.63389 4.95333L9.63389 4.95333L10.6936 6.01493ZM6.86472 9.83707L5.80406 10.8977C6.38948 11.4831 7.33851 11.4836 7.92445 10.8987L6.86472 9.83707ZM5.3072 8.27955L4.24654 9.34021L4.24654 9.34021L5.3072 8.27955ZM3.89299 8.27955L4.95365 9.34021L4.95365 9.34021L3.89299 8.27955ZM3.89299 9.69376L4.95365 8.6331L4.95365 8.6331L3.89299 9.69376ZM6.15699 11.9578L5.09633 13.0184H5.09633L6.15699 11.9578ZM7.57058 11.9584L8.6303 13.02L8.6303 13.02L7.57058 11.9584ZM5.6 18.4863H10.4V15.4863H5.6V18.4863ZM-1.5 11.3863C-1.5 13.5343 -1.0796 15.4281 0.23934 16.747C1.55828 18.0659 3.45206 18.4863 5.6 18.4863V15.4863C3.74794 15.4863 2.84172 15.1067 2.36066 14.6257C1.8796 14.1446 1.5 13.2384 1.5 11.3863H-1.5ZM-1.5 6.58633V11.3863H1.5V6.58633H-1.5ZM5.6 -0.513672C3.45206 -0.513672 1.55828 -0.0932695 0.23934 1.22567C-1.0796 2.54461 -1.5 4.43838 -1.5 6.58633H1.5C1.5 4.73427 1.8796 3.82805 2.36066 3.34699C2.84172 2.86593 3.74794 2.48633 5.6 2.48633V-0.513672ZM10.4 -0.513672H5.6V2.48633H10.4V-0.513672ZM17.5 6.58633C17.5 4.43838 17.0796 2.54461 15.7607 1.22567C14.4417 -0.0932695 12.5479 -0.513672 10.4 -0.513672V2.48633C12.2521 2.48633 13.1583 2.86593 13.6393 3.34699C14.1204 3.82805 14.5 4.73427 14.5 6.58633H17.5ZM17.5 11.3863V6.58633H14.5V11.3863H17.5ZM10.4 18.4863C12.5479 18.4863 14.4417 18.0659 15.7607 16.747C17.0796 15.4281 17.5 13.5343 17.5 11.3863H14.5C14.5 13.2384 14.1204 14.1446 13.6393 14.6257C13.1583 15.1067 12.2521 15.4863 10.4 15.4863V18.4863ZM11.0462 7.0759C10.8511 6.88046 10.8514 6.56388 11.0469 6.36879L13.1663 8.49198C14.1435 7.51653 14.1449 5.93362 13.1694 4.95645L11.0462 7.0759ZM11.7533 7.07652C11.5579 7.27161 11.2413 7.27133 11.0462 7.0759L13.1694 4.95645C12.194 3.97928 10.6111 3.97788 9.63389 4.95333L11.7533 7.07652ZM7.92445 10.8987L11.7533 7.07652L9.63389 4.95333L5.805 8.77547L7.92445 10.8987ZM4.24654 9.34021L5.80406 10.8977L7.92538 8.77641L6.36786 7.21889L4.24654 9.34021ZM4.95365 9.34021C4.75839 9.53547 4.44181 9.53547 4.24654 9.34021L6.36787 7.21889C5.39155 6.24258 3.80864 6.24258 2.83233 7.21889L4.95365 9.34021ZM4.95365 8.6331C5.14891 8.82836 5.14891 9.14495 4.95365 9.34021L2.83233 7.21889C1.85602 8.1952 1.85602 9.77811 2.83233 10.7544L4.95365 8.6331ZM7.21765 10.8971L4.95365 8.6331L2.83233 10.7544L5.09633 13.0184L7.21765 10.8971ZM6.51086 10.8968C6.70617 10.7018 7.02251 10.702 7.21765 10.8971L5.09633 13.0184C6.07203 13.9941 7.65374 13.9948 8.6303 13.02L6.51086 10.8968ZM11.0469 6.36879L6.51086 10.8968L8.6303 13.02L13.1663 8.49198L11.0469 6.36879Z" fill="#B5B5C6" mask="url(#path-1-inside-1_6784_17510)"/>
</g>
</g>
</svg>
