<svg width="24" height="23" viewBox="0 0 24 23" fill="none" xmlns="http://www.w3.org/2000/svg">
<path fill-rule="evenodd" clip-rule="evenodd" d="M15.7966 19.1993C14.9039 20.9158 13.7907 21.9697 12.6133 22.2322V17.2875H16.5953C16.3685 17.9719 16.1015 18.6128 15.7966 19.1993ZM16.9319 16.1228H12.6133V11.8118H17.4973C17.458 13.3288 17.2647 14.7884 16.9319 16.1228ZM17.8165 17.2875C17.5471 18.1696 17.2168 18.9924 16.8299 19.7366C16.4173 20.53 15.955 21.2057 15.4544 21.7549C17.8682 20.9676 19.9199 19.3712 21.2875 17.2875H17.8165ZM21.9546 16.1228H18.1288C18.4429 14.7737 18.6251 13.317 18.6623 11.8118H23.0802C23.0003 13.3525 22.6038 14.8108 21.9546 16.1228ZM11.4486 16.1228V11.8118H6.56409C6.60338 13.3288 6.79669 14.7884 7.1295 16.1228H11.4486ZM5.93259 16.1228C5.61841 14.7737 5.43631 13.317 5.39907 11.8118H0.980914C1.06079 13.3525 1.45729 14.8108 2.10644 16.1228H5.93259ZM2.77362 17.2875H6.24489C6.51425 18.1696 6.84451 18.9924 7.23149 19.7366C7.64412 20.5301 8.10644 21.2058 8.60713 21.755C6.19311 20.9678 4.14131 19.3713 2.77362 17.2875ZM7.4661 17.2875H11.4486V22.2323C10.271 21.97 9.15758 20.9161 8.26481 19.1993C7.95985 18.6128 7.69282 17.9719 7.4661 17.2875ZM17.4971 10.6471H12.6133V6.80778H17.0413C17.3068 8.01146 17.4621 9.30683 17.4971 10.6471ZM12.6133 0.232365V5.64308H16.7415C16.4862 4.78236 16.1698 3.983 15.7966 3.26527C14.9039 1.54871 13.7907 0.494856 12.6133 0.232365ZM18.6622 10.6471C18.6289 9.31565 18.4823 8.02226 18.2312 6.80778H22.1627L22.1718 6.8077C22.6914 7.99411 23.0087 9.28853 23.0799 10.6471H18.6622ZM17.9516 5.64308H21.5771C20.2187 3.33187 18.0452 1.5548 15.4545 0.709764C15.9551 1.2589 16.4173 1.93455 16.8299 2.72793C17.2842 3.60168 17.6604 4.58381 17.9516 5.64308ZM7.31991 5.64308H11.4486V0.232251C10.271 0.49455 9.15758 1.54846 8.26481 3.26527C7.89158 3.983 7.57517 4.78236 7.31991 5.64308ZM11.4486 6.80778H7.02005C6.75457 8.01146 6.59929 9.30683 6.56424 10.6471H11.4486V6.80778ZM7.23149 2.72793C6.77713 3.60168 6.40097 4.58381 6.10975 5.64308H2.48404C3.84245 3.33175 6.01607 1.55462 8.60696 0.709637C8.10634 1.2588 7.64407 1.93449 7.23149 2.72793ZM1.89699 6.80778L1.8893 6.80772C1.36968 7.99413 1.05235 9.28854 0.981216 10.6471H5.39921C5.43248 9.31565 5.57908 8.02226 5.83019 6.80778H1.89699Z" fill="#B5B5C6"/>
</svg>
