<svg width="218" height="223" viewBox="0 0 218 223" fill="none" xmlns="http://www.w3.org/2000/svg">
<rect width="218" height="223" fill="#151515"/>
<g clip-path="url(#clip0_6001_4739)">
<rect width="1440" height="1392" transform="translate(-617 -341)" fill="#10101B"/>
<path d="M-393 -23C-393 -29.6274 -387.627 -35 -381 -35H585C591.627 -35 597 -29.6274 597 -23V373C597 379.627 591.627 385 585 385H-381C-387.627 385 -393 379.627 -393 373V-23Z" fill="#161623"/>
<ellipse cx="101.959" cy="128.095" rx="98.5" ry="98.5864" transform="rotate(-180 101.959 128.095)" fill="#10101B"/>
<g opacity="0.6">
<g clip-path="url(#clip1_6001_4739)">
<path d="M126.894 69.8203L85.4751 69.6801C72.8642 69.6374 62.6161 79.8004 62.5854 92.3799L62.4554 145.532C62.4247 158.112 72.6228 168.344 85.2337 168.387L126.653 168.527C139.263 168.569 149.511 158.407 149.543 145.827L149.672 92.6748C149.703 80.0953 139.505 69.863 126.894 69.8203Z" fill="#242431"/>
<path d="M123.228 70.806L85.8888 70.6796C73.2779 70.6369 63.0299 80.8 62.9991 93.3795L62.8804 141.906C62.8496 154.486 73.0479 164.718 85.6587 164.761L122.999 164.887C135.609 164.93 145.857 154.767 145.888 142.187L146.007 93.6605C146.037 81.081 135.84 70.8487 123.228 70.806Z" fill="#4C4C5C"/>
<path d="M38.4993 133.256C32.1235 128.321 27.9723 123.704 24.4363 118.46C22.4691 115.543 22.0644 111.792 23.5804 108.617C26.0319 103.481 28.7053 101.04 32.6378 99.1569C34.7791 98.1316 37.2442 98.0142 39.5281 98.6625C43.6172 99.8233 45.6724 100.917 47.9816 102.756C53.5912 94.9582 59.0469 92.1031 70.4993 90.2561H139.999C153.15 93.1622 159.873 96.6335 163.487 102.756C171.595 100.648 176.858 99.5507 180.27 99.0262C184.321 98.4036 187.716 101.419 189.725 104.991L192.376 109.704C194.329 113.176 194.447 117.43 191.941 120.527C188.376 124.934 182.037 130.872 172.499 133.256L172.224 133.32C165.993 134.758 165.734 134.818 161.499 133.256L141.499 123.256C146.647 163.335 147.999 205.756 147.999 205.756C148.582 208.132 142.021 220.759 134.499 221.256C124.209 220.107 119.875 214.753 119.499 206.478V177.256C119.499 169.756 115.92 169.987 104.499 170.256L104.214 170.258C94.9908 170.303 89.9993 170.327 89.9993 177.256C89.9993 184.256 90.0119 200.789 89.9993 205.756C89.9867 210.724 84.027 221.621 76.4993 220.756C68.9715 219.891 61.6269 218.308 59.9993 217.256C53.9993 211.756 56.116 207.109 61.9993 195.256C61.2582 169.883 63.7361 153.047 68.9993 122.256C63.1499 126.83 55.9993 131.256 50.4993 133.256C44.9993 135.256 43.0751 135.043 38.4993 133.256Z" fill="#B5B5C6"/>
<path fill-rule="evenodd" clip-rule="evenodd" d="M116.462 170.911C116.11 170.771 115.723 170.654 115.299 170.559C116.034 169.694 116.36 169.537 116.462 170.911ZM120.393 211.654C122.153 216.97 126.548 220.368 134.499 221.256C142.021 220.759 148.582 208.132 147.999 205.756C147.999 205.756 146.647 163.335 141.499 123.256L161.499 132.756C161.84 132.882 162.154 133 162.449 133.11C165.868 134.394 166.514 134.637 172.499 133.256C183.772 130.438 190.081 123.152 192.825 119.093C194.036 117.302 194.38 115.121 194.153 112.971L194.023 111.728C193.59 112.566 193.029 113.352 192.335 114.057C187.533 118.939 179.373 125.788 169.499 128.256L169.224 128.32C162.993 129.758 162.734 129.818 158.499 128.256L138.499 118.256C143.647 158.335 144.999 200.756 144.999 200.756C145.582 203.132 139.021 215.759 131.499 216.256C126.433 215.69 122.81 214.105 120.393 211.654Z" fill="#67677B"/>
<path d="M115.553 170.473L95.1076 170.542C94.1425 170.539 92.7916 171.364 92.1076 172.043C91.4235 172.721 91.0318 173.937 90.4983 174.41L89.9948 206.433C89.6929 214.081 83.5069 220.771 75.8086 221.136L70.3934 220.235L63.3131 219.053C61.7477 218.793 60.2881 218.095 59.1041 217.04C57.92 215.986 57.0602 214.617 56.6245 213.095C56.4971 212.312 56.3897 211.589 56.3064 210.952C55.969 208.37 56.6076 209.075 56.7459 208.131C59.8116 212.605 75.363 214.859 82.004 212.176C88.645 209.492 84.7815 185.714 87.5266 172.488C89.9983 163.901 115.553 170.473 115.553 170.473Z" fill="#67677B"/>
<path d="M139.972 90.4794C139.972 90.4794 108.093 112.147 70.2402 90.2432C73.147 87.573 76.6002 85.5636 80.3617 84.3536C86.929 90.8938 95.8192 94.5816 105.095 94.6129C114.371 94.6444 123.279 91.0169 129.879 84.5213C133.634 85.7568 137.078 87.7895 139.972 90.4794Z" fill="#B5B5C6" stroke="#242431" stroke-width="1.10085" stroke-miterlimit="10"/>
<path d="M105.094 94.6127C95.8217 94.5875 86.9319 90.9075 80.3613 84.3748C83.1053 83.4956 85.9718 83.0548 88.8546 83.0687L121.416 83.179C124.299 83.1845 127.163 83.6447 129.902 84.5425C123.304 91.0387 114.395 94.666 105.119 94.6329L105.094 94.6127Z" fill="#B5B5C6" stroke="#242431" stroke-width="1.10085" stroke-miterlimit="10"/>
<path d="M147.59 43.5702C148.288 52.8395 145.584 66.2444 139.506 73.2889L131.658 82.4022L131.576 82.4973C125.499 89.4853 116.899 93.7932 107.649 94.4824C98.3998 95.1713 89.2501 92.1857 82.1951 86.1761L82.0998 86.0942L72.9623 78.2463C69.4296 75.2136 66.4907 70.4828 64.3528 65.3525C62.2953 60.4801 61.0015 55.3213 60.517 50.057C60.3717 45.4739 60.9322 40.896 62.1787 36.483C67.9118 16.2971 86.0859 7.71661 87.5798 7.04321C89.8889 6.00062 92.2834 5.15658 94.7367 4.52042C96.7263 4.00613 98.7482 3.62583 100.789 3.38211C105.384 3.23905 109.974 3.8 114.399 5.04524C115.977 5.48977 135.233 11.2818 143.925 30.3929C145.816 34.5729 147.051 39.017 147.59 43.5702Z" fill="#B5B5C6" stroke="#242431" stroke-width="1.10085" stroke-miterlimit="10"/>
<path d="M143.847 42.3258C143.407 39.024 142.333 35.8376 140.684 32.9408C133.009 19.383 115.451 15.5269 114.031 15.2284C109.94 14.3968 105.764 14.0656 101.595 14.242C97.4421 14.6849 93.3592 15.6313 89.4368 17.0605C88.0599 17.5675 71.3078 23.9796 65.7378 38.5242C64.5416 41.6334 63.9554 44.9431 64.011 48.2734C64.5101 54.9007 68.6039 64.0384 74.9801 68.2745L83.2302 73.7582C89.6067 77.9983 97.9732 80.0239 106.493 79.3892C115.011 78.7546 122.985 75.5117 128.656 70.374L135.993 63.7292C141.671 58.5949 144.346 48.953 143.847 42.3258Z" fill="#504C57" stroke="#242431" stroke-width="1.10085" stroke-miterlimit="10"/>
<path d="M142.462 45.5192C142.29 42.4255 141.524 39.3931 140.204 36.5869C134.063 23.4554 118.069 18.6062 116.751 18.2267C113.017 17.1609 109.168 16.552 105.286 16.4135C101.405 16.5257 97.5521 17.1085 93.8127 18.1491C92.4978 18.5196 76.4764 23.2604 70.2749 36.3501C68.9403 39.1484 68.1574 42.1769 67.9688 45.2709C67.9537 51.4571 71.0937 60.2271 76.7026 64.6217L83.9659 70.2923C89.5748 74.695 97.1891 77.1727 105.138 77.1997C113.086 77.2266 120.717 74.7964 126.351 70.4399L133.642 64.8186C139.269 60.4539 142.447 51.7056 142.462 45.5192Z" fill="#10101B"/>
<path d="M85.6845 142.208C84.3966 140.381 83.5343 138.291 83.1606 136.089L83.1805 127.963C83.3871 126.144 83.9751 123.764 85.7344 121.862C88.6448 118.71 92.3057 119.537 105.033 119.399C111.041 119.33 121.513 119.023 124.324 121.992C125.271 123.017 125.999 124.225 126.462 125.541C126.723 126.373 126.856 127.239 126.859 128.111L126.839 136.237C126.455 138.434 125.583 140.519 124.29 142.338C116.602 152.874 93.2998 152.795 85.6845 142.208Z" fill="#67677B" stroke="#242431" stroke-width="0.623025" stroke-miterlimit="10"/>
<path d="M88.6023 141.089C87.5077 139.538 86.7756 137.761 86.4602 135.891L86.4771 128.987C86.6507 127.443 87.1488 125.42 88.6447 123.804C91.1173 121.127 94.2246 121.827 105.039 121.71C110.146 121.655 119.036 121.395 121.428 123.915C122.235 124.785 122.853 125.811 123.245 126.93C123.462 127.637 123.572 128.373 123.57 129.113L123.553 136.017C123.225 137.884 122.485 139.654 121.386 141.199C114.859 150.15 95.049 150.084 88.6023 141.089Z" stroke="#242431" stroke-width="0.623025" stroke-miterlimit="10"/>
<path d="M91.4971 139.968C90.5963 138.692 89.9934 137.23 89.7327 135.692L89.7465 130.009C89.8735 128.435 90.4986 126.941 91.5318 125.744C93.5587 123.542 96.1246 124.119 105.024 124.019C109.224 123.978 116.542 123.76 118.509 125.836C119.172 126.553 119.68 127.397 120.004 128.317C120.184 128.899 120.273 129.504 120.27 130.112L120.256 135.795C119.988 137.331 119.38 138.788 118.475 140.06C113.113 147.426 96.8239 147.37 91.4971 139.968Z" stroke="#242431" stroke-width="0.623025" stroke-miterlimit="10"/>
<path d="M94.4014 138.865C93.6955 137.863 93.2231 136.716 93.0188 135.509L93.0298 131.032C93.1278 129.797 93.6177 128.625 94.4287 127.686C96.0264 125.957 98.034 126.411 105.016 126.335C108.312 126.297 114.057 126.131 115.597 127.758C116.119 128.32 116.518 128.982 116.772 129.705C116.914 130.161 116.985 130.636 116.984 131.114L116.973 135.573C116.761 136.779 116.282 137.923 115.57 138.92C111.364 144.7 98.5799 144.657 94.4014 138.865Z" stroke="#242431" stroke-width="0.623025" stroke-miterlimit="10"/>
<path d="M97.3073 137.728C96.797 137.004 96.4538 136.177 96.3025 135.305L96.3104 132.079C96.3856 131.187 96.7416 130.34 97.3271 129.663C98.4862 128.409 99.945 128.736 105.012 128.681C107.405 128.656 111.574 128.533 112.69 129.715C113.07 130.122 113.361 130.604 113.544 131.129C113.646 131.46 113.697 131.804 113.695 132.15L113.687 135.375C113.532 136.246 113.185 137.072 112.67 137.792C109.624 141.971 100.326 141.94 97.3073 137.728Z" stroke="#242431" stroke-width="0.623025" stroke-miterlimit="10"/>
<path d="M100.214 136.609C99.8944 136.157 99.6808 135.64 99.5908 135.095L99.5958 133.079C99.6393 132.522 99.8608 131.992 100.226 131.568C100.948 130.789 101.845 130.993 105.006 130.959C106.494 130.945 109.089 130.869 109.783 131.601C110.019 131.855 110.2 132.155 110.314 132.482C110.378 132.687 110.41 132.901 110.41 133.115L110.405 135.131C110.308 135.676 110.092 136.191 109.77 136.642C107.873 139.249 102.099 139.229 100.214 136.609Z" stroke="#242431" stroke-width="0.623025" stroke-miterlimit="10"/>
<path d="M125.769 189.42C125.208 188.367 124.845 187.22 124.698 186.037L124.709 181.541C124.77 180.34 125.145 179.176 125.796 178.165C127.014 176.419 128.589 176.872 134.003 176.79C136.558 176.754 141.01 176.579 142.207 178.221C142.919 179.205 143.294 180.391 143.278 181.603L143.267 186.1C143.112 187.282 142.744 188.426 142.179 189.475C138.915 195.312 129.005 195.278 125.769 189.42Z" fill="#67677B" stroke="#242431" stroke-width="0.275184" stroke-miterlimit="10"/>
<path d="M126.954 188.828C126.474 187.926 126.165 186.943 126.039 185.93L126.049 182.082C126.102 181.055 126.422 180.06 126.978 179.194C128.037 177.702 129.37 178.089 134 178.009C136.186 177.975 139.995 177.827 141.018 179.242C141.373 179.753 141.636 180.322 141.795 180.922C141.889 181.319 141.935 181.725 141.933 182.132L141.923 185.979C141.792 186.991 141.477 187.971 140.995 188.872C138.202 193.858 129.711 193.83 126.954 188.828Z" fill="#67677B" stroke="#242431" stroke-width="0.275184" stroke-miterlimit="10"/>
<path d="M128.141 188.232C127.742 187.477 127.484 186.656 127.378 185.81L127.386 182.612C127.429 181.752 127.696 180.919 128.161 180.195C129.041 178.952 130.148 179.279 133.997 179.219C135.817 179.188 138.982 179.066 139.828 180.235C140.125 180.658 140.343 181.13 140.476 181.628C140.554 181.96 140.592 182.3 140.59 182.64L140.582 185.838C140.477 186.685 140.215 187.504 139.808 188.255C137.49 192.417 130.443 192.393 128.141 188.232Z" fill="#67677B" stroke="#242431" stroke-width="0.275184" stroke-miterlimit="10"/>
<path d="M129.321 187.635C129.005 187.037 128.799 186.387 128.715 185.717L128.722 183.168C128.758 182.488 128.97 181.829 129.337 181.255C130.038 180.265 130.924 180.526 133.988 180.463C135.435 180.445 137.958 180.344 138.636 181.286C139.039 181.844 139.252 182.516 139.241 183.203L139.235 185.753C139.148 186.422 138.939 187.07 138.62 187.665C136.776 190.97 131.161 190.952 129.321 187.635Z" fill="#67677B" stroke="#242431" stroke-width="0.275184" stroke-miterlimit="10"/>
<path d="M130.512 187.039C130.276 186.594 130.124 186.109 130.063 185.61L130.068 183.71C130.095 183.206 130.252 182.715 130.524 182.288C131.048 181.552 131.706 181.744 133.991 181.707C135.07 181.711 136.95 181.616 137.454 182.312C137.627 182.557 137.757 182.83 137.836 183.12C137.884 183.315 137.908 183.515 137.907 183.717L137.902 185.616C137.836 186.115 137.681 186.598 137.442 187.042C136.066 189.526 131.881 189.512 130.512 187.039Z" fill="#67677B" stroke="#242431" stroke-width="0.275184" stroke-miterlimit="10"/>
<path d="M131.701 186.442C131.544 186.151 131.443 185.833 131.405 185.506L131.408 184.255C131.423 183.921 131.526 183.597 131.709 183.317C132.051 182.834 132.483 182.96 133.987 182.921C134.698 182.924 135.931 182.859 136.266 183.332C136.38 183.498 136.466 183.682 136.519 183.877C136.548 184.01 136.563 184.145 136.562 184.281L136.559 185.53C136.516 185.858 136.414 186.174 136.258 186.465C135.353 188.08 132.6 188.07 131.701 186.442Z" fill="#67677B" stroke="#242431" stroke-width="0.275184" stroke-miterlimit="10"/>
<path d="M64.3833 186.947C63.9223 185.817 63.6625 184.616 63.6157 183.396L63.999 178.792C64.1576 177.574 64.6175 176.415 65.3373 175.418C66.6958 173.728 68.17 174.314 73.4694 174.639C75.9675 174.796 80.3415 174.965 81.364 176.738C81.7207 177.388 81.9664 178.092 82.0907 178.822C82.1573 179.307 82.1711 179.8 82.1315 180.29L81.7483 184.894C81.5026 186.088 81.0482 187.23 80.4059 188.268C76.7492 194.002 67.0484 193.216 64.3833 186.947Z" fill="#67677B" stroke="#242431" stroke-width="0.275184" stroke-miterlimit="10"/>
<path d="M65.6058 186.423C65.2121 185.459 64.9901 184.433 64.9502 183.393L65.2751 179.457C65.4135 178.418 65.8076 177.429 66.4223 176.578C67.578 175.135 68.8504 175.635 73.3655 175.924C75.4999 176.061 79.223 176.206 80.1047 177.722C80.6287 178.641 80.8576 179.7 80.7603 180.752L80.4353 184.683C80.2226 185.703 79.8344 186.679 79.2882 187.567C76.1552 192.439 67.8931 191.758 65.6058 186.423Z" fill="#67677B" stroke="#242431" stroke-width="0.275184" stroke-miterlimit="10"/>
<path d="M66.8283 185.899C66.5016 185.1 66.3176 184.25 66.2847 183.388L66.5554 180.127C66.6658 179.264 66.9917 178.443 67.5033 177.738C68.4643 176.532 69.5267 176.939 73.2616 177.198C75.0281 177.308 78.1125 177.428 78.8452 178.685C79.0993 179.143 79.273 179.641 79.3591 180.158C79.4079 180.503 79.4178 180.852 79.3889 181.198L79.1182 184.456C78.9457 185.302 78.6248 186.11 78.1704 186.844C75.573 190.892 68.7217 190.321 66.8283 185.899Z" fill="#67677B" stroke="#242431" stroke-width="0.275184" stroke-miterlimit="10"/>
<path d="M68.0509 185.373C67.7908 184.739 67.6446 184.064 67.6191 183.379L67.8317 180.791C67.9224 180.108 68.1825 179.458 68.5883 178.898C69.3466 177.95 70.1786 178.279 73.1538 178.466C74.5605 178.556 77.0102 178.653 77.5981 179.647C77.9407 180.253 78.0912 180.948 78.0299 181.64L77.8133 184.228C77.6753 184.9 77.4205 185.542 77.0607 186.126C74.991 189.337 69.5544 188.883 68.0509 185.373Z" fill="#67677B" stroke="#242431" stroke-width="0.275184" stroke-miterlimit="10"/>
<path d="M69.2713 184.851C69.0777 184.383 68.9694 183.884 68.9514 183.378L69.1098 181.463C69.175 180.956 69.3667 180.472 69.667 180.058C70.2308 179.358 70.8446 179.602 73.0477 179.742C74.0866 179.807 75.9016 179.877 76.3284 180.616C76.4782 180.885 76.5801 181.177 76.6294 181.48C76.6515 181.683 76.6509 181.887 76.6279 182.09L76.4697 184.004C76.3664 184.501 76.178 184.977 75.9123 185.41C74.4066 187.784 70.3848 187.451 69.2713 184.851Z" fill="#67677B" stroke="#242431" stroke-width="0.275184" stroke-miterlimit="10"/>
<path d="M70.4898 184.325C70.3656 184.021 70.2967 183.696 70.2859 183.368L70.386 182.127C70.432 181.798 70.5561 181.487 70.748 181.216C71.113 180.761 71.5129 180.92 72.9438 181.01C73.6148 181.052 74.7911 181.101 75.069 181.578C75.1657 181.753 75.2323 181.942 75.2657 182.139C75.2824 182.273 75.2819 182.408 75.2647 182.542L75.1607 183.785C75.096 184.106 74.9748 184.414 74.8027 184.694C73.8246 186.232 71.2133 186.013 70.4898 184.325Z" fill="#67677B" stroke="#242431" stroke-width="0.275184" stroke-miterlimit="10"/>
<path d="M133.82 194.511L133.756 220.796C133.77 220.988 133.855 221.167 133.995 221.298C134.136 221.428 134.321 221.501 134.513 221.502C134.705 221.502 134.889 221.431 135.031 221.301C135.171 221.171 135.257 220.993 135.272 220.802L135.337 194.516C135.323 194.325 135.238 194.146 135.097 194.015C134.957 193.884 134.772 193.812 134.58 193.811C134.388 193.81 134.203 193.882 134.062 194.011C133.921 194.141 133.835 194.32 133.82 194.511Z" fill="#242431"/>
<path d="M155.421 101.726C153.894 108.247 151.779 114.614 149.103 120.751C148.348 122.498 147.542 124.222 146.685 125.921C146.251 126.793 147.642 127.396 148.075 126.525C151.111 120.442 153.583 114.093 155.457 107.557C155.993 105.691 156.481 103.815 156.922 101.929C157.146 100.985 155.658 100.779 155.424 101.719L155.421 101.726Z" fill="#242431"/>
<path d="M150.344 93.3834L149.417 94.0914L150.883 98.7588L156.949 102.708L161.937 102.421L162.738 100.981C159.865 98.1728 157.827 95.9042 153.499 94.8383L150.344 93.3834Z" fill="#242431"/>
<path d="M70.9993 90.7561C59.5469 92.6031 53.5912 94.9582 47.9816 102.756M45.9993 105.756C46.6609 104.675 47.3188 103.677 47.9816 102.756M139.499 90.2561C152.65 93.1622 159.873 96.6335 163.487 102.756M164.999 105.756C164.531 104.677 164.033 103.681 163.487 102.756M163.487 102.756C170.763 100.864 175.791 99.6549 179.265 98.8892C183.959 97.8547 188.555 100.459 190.954 104.624L193.18 108.491C195.245 112.077 195.332 116.504 192.722 119.716C188.892 124.427 182.151 130.843 172.499 133.256C165.999 134.756 164.296 133.841 159.999 132.256L141.499 123.256C146.647 163.335 147.999 205.756 147.999 205.756C148.582 208.132 142.022 220.759 134.499 221.256C124.209 220.107 119.875 214.753 119.499 206.478C119.499 206.478 119.499 184.756 119.499 177.256C119.499 169.756 115.92 169.987 104.499 170.256C95.0939 170.303 89.9993 170.256 89.9993 177.256C89.9993 184.256 90.0119 200.789 89.9993 205.756C89.9867 210.724 84.027 221.621 76.4993 220.756C68.9715 219.891 61.6269 218.308 59.9993 217.256C53.9993 211.756 56.116 207.109 61.9993 195.256C61.2582 169.883 63.7361 153.047 68.9993 122.256C63.1499 126.83 55.9993 131.256 50.4993 133.256C44.9993 135.256 43.0751 135.043 38.4993 133.256C32.1235 128.321 27.9723 123.704 24.4363 118.46C22.4691 115.543 22.0644 111.792 23.5804 108.617C26.0319 103.481 28.7053 101.04 32.6378 99.1569C34.7791 98.1316 37.2442 98.0142 39.5281 98.6625C43.6172 99.8233 45.6724 100.917 47.9816 102.756" stroke="#242431"/>
<path d="M29.8836 97.2329L29.9509 97.2014C30.3609 97.0141 30.805 96.9125 31.2562 96.9027C31.7073 96.893 32.1559 96.9753 32.5745 97.1446C32.9931 97.3141 33.3728 97.567 33.6903 97.8879C34.008 98.2087 34.2567 98.5908 34.4214 99.0107L34.5395 99.3115C34.7292 99.7957 34.8024 100.317 34.7533 100.834C34.7042 101.351 34.5341 101.849 34.2566 102.288L28.0972 112.005C27.8638 112.372 27.5598 112.69 27.2025 112.94C26.8456 113.189 26.4425 113.366 26.0162 113.46L25.5676 113.565C25.0664 113.676 24.5457 113.669 24.0471 113.544C23.5485 113.42 23.085 113.182 22.6939 112.848C22.3025 112.515 21.9939 112.096 21.7919 111.624C21.5903 111.152 21.5012 110.639 21.5314 110.127C21.5647 109.566 21.7409 109.023 22.0437 108.549L28.4729 98.4643C28.8126 97.9249 29.3028 97.4971 29.8836 97.2329Z" fill="#B5B5C6" stroke="#242431" stroke-width="1.10085" stroke-miterlimit="10"/>
<path d="M30.3632 100.85L25.2411 109.475C24.8265 110.173 24.2588 110.752 23.5999 111.145C22.941 111.54 22.2165 111.735 21.5047 111.71L16.3479 111.521C16.0001 111.509 15.6604 111.443 15.3379 111.327L9.71952 109.315C9.54084 109.249 9.3673 109.169 9.20011 109.077L4.51181 106.412C4.04826 106.151 3.64976 105.776 3.34122 105.316C3.03295 104.854 2.82153 104.316 2.72101 103.735L2.52222 102.604L2.20534 100.805C2.07027 100.028 2.13552 99.2031 2.3941 98.4192L4.79634 91.1446C5.07398 90.2991 5.56597 89.54 6.20815 88.9662L7.46104 87.8436C8.06893 87.3005 8.78506 86.9456 9.5263 86.82C10.2675 86.6945 11.0035 86.8034 11.6489 87.1341L14.3299 88.5202C14.8072 88.7706 15.3375 88.899 15.8859 88.8972C16.4343 88.8955 16.9884 88.7636 17.5118 88.5101C18.0351 88.2565 18.5157 87.8872 18.9222 87.4264C19.3285 86.9656 19.6513 86.4239 19.8694 85.8368L19.9601 85.6026C20.2777 84.7628 20.8063 84.0231 21.4765 83.4801C22.1468 82.9371 22.9277 82.6161 23.7174 82.5588L24.3491 82.5141C25.2031 82.4502 26.0231 82.6983 26.6847 83.2209C27.3462 83.7435 27.8132 84.5118 28.0147 85.4094L28.8872 89.4241L30.9187 97.0706C31.0841 97.6768 31.1201 98.3315 31.0238 98.9859C30.9276 99.6402 30.7019 100.277 30.3632 100.85Z" fill="#B5B5C6"/>
<path d="M30.3632 100.85L25.2411 109.475C24.8265 110.173 24.2588 110.752 23.5999 111.145C22.941 111.54 22.2165 111.735 21.5046 111.71L16.3479 111.521C16.0001 111.509 15.6604 111.443 15.3379 111.327L9.71952 109.315C9.54084 109.249 9.3673 109.169 9.20011 109.077L4.51181 106.412C4.04826 106.151 3.64976 105.776 3.34122 105.316C3.03295 104.854 2.82153 104.316 2.72101 103.735L2.52222 102.604L2.20534 100.805C2.07027 100.028 2.13552 99.2031 2.3941 98.4192L4.79634 91.1446C5.07398 90.2991 5.56597 89.54 6.20815 88.9662L7.46104 87.8436C8.06893 87.3005 8.78506 86.9456 9.5263 86.82C10.2675 86.6945 11.0035 86.8034 11.6489 87.1341L14.3299 88.5202C14.8072 88.7706 15.3375 88.899 15.8859 88.8972C16.4343 88.8955 16.9884 88.7636 17.5118 88.5101C18.0351 88.2565 18.5157 87.8872 18.9222 87.4264C19.3285 86.9656 19.6513 86.4239 19.8694 85.8368L19.9601 85.6026C20.2777 84.7628 20.8063 84.0231 21.4765 83.4801C22.1468 82.9371 22.9277 82.6161 23.7174 82.5588L24.3491 82.5141C25.2031 82.4502 26.0231 82.6983 26.6847 83.2209C27.3462 83.7435 27.8132 84.5118 28.0147 85.4094L28.8872 89.4241L30.9187 97.0706C31.0841 97.6768 31.1201 98.3315 31.0238 98.9859C30.9276 99.6402 30.7019 100.277 30.3632 100.85Z" stroke="#242431" stroke-width="1.10085" stroke-miterlimit="10"/>
<path d="M15.1456 102.611L16.7859 103.544L19.0683 104.461L19.0744 104.461L22.2434 102.446C22.975 101.674 24.6263 99.9306 25.3789 99.1362" stroke="#242431" stroke-width="1.10284"/>
<path d="M4.92041 90.6135L7.73143 92.1687C8.75694 92.4394 11.0719 93.0502 12.1267 93.3287" stroke="#242431" stroke-width="1.10284"/>
<path d="M3.32837 95.1265L6.13938 96.6816C7.16489 96.9523 9.47983 97.5632 10.5347 97.8416" stroke="#242431" stroke-width="1.10284"/>
<path d="M2.26685 98.9985L5.07786 100.554C6.10337 100.824 8.41831 101.435 9.47313 101.714" stroke="#242431" stroke-width="1.10284"/>
<path d="M187.913 98.2345L187.846 98.203C187.436 98.0158 186.992 97.9142 186.54 97.9046C186.089 97.8949 185.64 97.9773 185.222 98.1467C184.803 98.3163 184.423 98.5692 184.106 98.8901C183.788 99.211 183.539 99.5931 183.374 100.013L183.256 100.314C183.066 100.798 182.993 101.32 183.042 101.837C183.091 102.354 183.261 102.852 183.538 103.29L189.697 113.006C189.93 113.373 190.234 113.691 190.592 113.941C190.949 114.19 191.352 114.366 191.778 114.46L192.227 114.565C192.728 114.676 193.249 114.669 193.748 114.544C194.246 114.419 194.71 114.182 195.101 113.848C195.493 113.515 195.801 113.095 196.004 112.623C196.205 112.151 196.294 111.638 196.264 111.127C196.231 110.565 196.055 110.023 195.752 109.549L189.324 99.4655C188.984 98.9263 188.494 98.4985 187.913 98.2345Z" fill="#B5B5C6" stroke="#242431" stroke-width="1.10085" stroke-miterlimit="10"/>
<path d="M187.43 101.852L192.551 110.476C192.965 111.174 193.533 111.752 194.192 112.146C194.851 112.54 195.575 112.735 196.287 112.71L201.445 112.52C201.792 112.508 202.132 112.442 202.455 112.326L208.074 110.313C208.253 110.246 208.426 110.167 208.594 110.074L213.283 107.409C213.747 107.148 214.145 106.774 214.454 106.313C214.762 105.851 214.974 105.313 215.075 104.732L215.274 103.601L215.591 101.802C215.726 101.026 215.661 100.201 215.403 99.4169L213.001 92.1435C212.724 91.2981 212.232 90.5392 211.59 89.9656L210.337 88.8434C209.729 88.3004 209.013 87.9457 208.272 87.8202C207.53 87.6949 206.794 87.8039 206.149 88.1347L203.467 89.5211C202.99 89.7716 202.459 89.9001 201.911 89.8984C201.362 89.8968 200.808 89.765 200.285 89.5116C199.761 89.2582 199.281 88.889 198.874 88.4284C198.468 87.9677 198.145 87.4261 197.927 86.8391L197.837 86.6049C197.519 85.7652 196.991 85.0257 196.321 84.4829C195.65 83.9401 194.869 83.6193 194.08 83.5621L193.448 83.5175C192.594 83.4538 191.774 83.7021 191.112 84.2247C190.45 84.7473 189.983 85.5157 189.781 86.4132L188.908 90.4277L186.875 98.0738C186.709 98.68 186.673 99.3346 186.769 99.9889C186.865 100.643 187.091 101.28 187.43 101.852Z" fill="#B5B5C6"/>
<path d="M187.43 101.852L192.551 110.476C192.965 111.174 193.533 111.752 194.192 112.146C194.851 112.54 195.575 112.735 196.287 112.71L201.445 112.52C201.792 112.508 202.132 112.442 202.455 112.326L208.074 110.313C208.253 110.246 208.426 110.167 208.594 110.074L213.283 107.409C213.747 107.148 214.145 106.774 214.454 106.313C214.762 105.851 214.974 105.313 215.075 104.732L215.274 103.601L215.591 101.802C215.726 101.026 215.661 100.201 215.403 99.4169L213.001 92.1435C212.724 91.2981 212.232 90.5392 211.59 89.9656L210.337 88.8434C209.729 88.3004 209.013 87.9457 208.272 87.8202C207.53 87.6949 206.794 87.8039 206.149 88.1347L203.467 89.5211C202.99 89.7716 202.459 89.9001 201.911 89.8984C201.362 89.8968 200.808 89.765 200.285 89.5116C199.761 89.2582 199.281 88.889 198.874 88.4284C198.468 87.9677 198.145 87.4261 197.927 86.8391L197.837 86.6049C197.519 85.7652 196.991 85.0257 196.321 84.4829C195.65 83.9401 194.869 83.6193 194.08 83.5621L193.448 83.5175C192.594 83.4538 191.774 83.7021 191.112 84.2247C190.45 84.7473 189.983 85.5157 189.781 86.4132L188.908 90.4277L186.875 98.0738C186.709 98.68 186.673 99.3346 186.769 99.9889C186.865 100.643 187.091 101.28 187.43 101.852Z" stroke="#242431" stroke-width="1.10085" stroke-miterlimit="10"/>
<path d="M202.65 103.611L201.009 104.544L198.726 105.462L198.72 105.461L195.551 103.448C194.82 102.675 193.169 100.932 192.416 100.138" stroke="#242431" stroke-width="1.10284"/>
<path d="M212.875 91.6144L210.064 93.1697C209.039 93.4404 206.724 94.0514 205.669 94.3299" stroke="#242431" stroke-width="1.10284"/>
<path d="M214.467 96.1273L211.656 97.6826C210.631 97.9534 208.316 98.5643 207.261 98.8428" stroke="#242431" stroke-width="1.10284"/>
<path d="M215.529 99.9994L212.718 101.555C211.692 101.825 209.377 102.436 208.323 102.715" stroke="#242431" stroke-width="1.10284"/>
<path d="M148.821 92.6412C148.59 93.9409 148.672 95.2777 149.062 96.5417C149.451 97.8051 150.136 98.9589 151.058 99.9065C153.22 102.041 156.044 103.372 159.061 103.681C160.538 103.766 161.955 103.373 162.894 102.189C163 102.018 163.036 101.813 162.992 101.618C162.949 101.421 162.83 101.249 162.662 101.139C162.491 101.036 162.288 101.002 162.093 101.045C161.899 101.088 161.728 101.204 161.618 101.37C160.85 102.338 159.318 102.289 158.229 102.069C156.636 101.756 155.118 101.132 153.763 100.234C151.468 98.7035 149.7 95.9503 150.263 93.1019C150.317 92.911 150.295 92.7057 150.202 92.5293C150.11 92.3534 149.953 92.219 149.764 92.1546C149.573 92.0965 149.365 92.1162 149.188 92.2094C149.01 92.3025 148.877 92.4622 148.818 92.6537L148.821 92.6412Z" fill="#242431"/>
<path d="M57.3482 99.7617C58.5682 106.483 60.3839 113.084 62.7732 119.486C63.4464 121.309 64.1708 123.11 64.9494 124.89C65.3419 125.803 63.9202 126.33 63.5281 125.418C60.7768 119.049 58.6027 112.444 57.036 105.685C56.5872 103.756 56.1872 101.819 55.835 99.8753C55.6561 98.9013 57.1553 98.784 57.3453 99.7538L57.3482 99.7617Z" fill="#242431"/>
<path d="M61.8065 93.0286C62.4534 93.1172 62.6863 93.2424 62.6668 93.8167C62.2077 95.6561 61.8389 96.5785 60.7902 98.3344C58.617 99.9641 57.2512 100.717 54.3959 101.726C52.3966 101.943 51.2968 101.884 49.454 100.994L49.454 100.344C52.5051 97.9667 54.0032 96.4981 57.9479 94.7059L61.8065 93.0286Z" fill="#242431"/>
<path d="M63.6931 93.0922C63.7653 94.2789 63.5305 95.495 63.0063 96.6406C62.4831 97.7856 61.6863 98.8268 60.6834 99.6769C58.3432 101.59 55.4564 102.764 52.5016 103.004C51.063 103.061 49.7372 102.683 48.9662 101.592C48.8836 101.436 48.8732 101.249 48.9377 101.071C49.003 100.893 49.1374 100.738 49.3127 100.64C49.4901 100.548 49.6911 100.52 49.8746 100.562C50.0572 100.604 50.2091 100.712 50.2964 100.864C50.9268 101.756 52.4152 101.733 53.4943 101.548C55.072 101.284 56.613 100.737 58.0283 99.9377C60.4271 98.5759 62.4574 96.0933 62.2444 93.4919C62.2138 93.3174 62.2589 93.1308 62.3693 92.9714C62.4789 92.8125 62.6467 92.6923 62.8368 92.6363C63.029 92.586 63.2271 92.6068 63.3881 92.694C63.549 92.7813 63.6593 92.9285 63.6948 93.1037L63.6931 93.0922Z" fill="#242431"/>
<path d="M70.6886 192.296C70.0888 196.19 69.5011 200.083 68.8893 203.985C68.3389 207.496 67.7556 211.261 65.9893 214.4C65.1773 215.822 64.0743 217.144 62.4762 217.655C61.5496 217.955 61.9422 219.416 62.8768 219.116C66.1866 218.051 67.816 214.653 68.798 211.579C70.0201 207.768 70.4545 203.732 71.0584 199.794C71.4226 197.433 71.7856 195.072 72.1471 192.712C72.1947 192.52 72.1666 192.315 72.0686 192.142C71.9707 191.968 71.8101 191.839 71.6198 191.78C71.4265 191.726 71.2202 191.752 71.0458 191.85C70.8714 191.948 70.7431 192.112 70.6887 192.304L70.6886 192.296Z" fill="#242431"/>
</g>
</g>
<path d="M141.084 42.6358C140.673 39.5648 139.673 36.601 138.14 33.9058C130.999 21.2909 114.677 17.6986 113.335 17.4226C109.529 16.65 105.644 16.3419 101.763 16.5053C97.9029 16.9186 94.1066 17.7989 90.4591 19.1268C89.177 19.5983 73.5714 25.5692 68.4035 39.1011C67.29 41.9946 66.7442 45.0748 66.7961 48.1741C67.2606 54.3429 71.0711 62.8425 77.0038 66.7883L84.6849 71.8775C90.6182 75.8313 98.4017 77.7102 106.328 77.1197C114.255 76.5292 121.675 73.5136 126.954 68.7326L133.787 62.562C139.058 57.7735 141.549 48.8047 141.084 42.6358Z" fill="#10101B"/>
<path opacity="0.6" d="M125.825 27.0977C124.236 24.64 136.247 33.6003 137.065 44.458C137.882 55.3157 132.229 59.3766 132.229 59.3766C132.229 59.3766 139.313 47.9301 125.825 27.0977Z" fill="#B5B5C6"/>
</g>
<defs>
<clipPath id="clip0_6001_4739">
<rect width="1440" height="1392" fill="white" transform="translate(-617 -341)"/>
</clipPath>
<clipPath id="clip1_6001_4739">
<rect width="217.795" height="222.952" fill="white"/>
</clipPath>
</defs>
</svg>
