<svg width="22" height="18" viewBox="0 0 22 18" fill="none" xmlns="http://www.w3.org/2000/svg">
<g id="Group 3574">
<path id="Vector" d="M18.6239 1.47776C17.2217 0.793769 15.7181 0.289835 14.1459 0.00121074C14.1173 -0.00435961 14.0887 0.009561 14.0739 0.0374029C13.8805 0.403054 13.6663 0.880075 13.5163 1.25501C11.8254 0.985882 10.1431 0.985882 8.48679 1.25501C8.33676 0.871741 8.11478 0.403054 7.92053 0.0374029C7.90578 0.0104899 7.87718 -0.00343067 7.84855 0.00121074C6.27725 0.288912 4.7736 0.792847 3.37052 1.47776C3.35838 1.48333 3.34797 1.49262 3.34106 1.50467C0.488942 6.03455 -0.292371 10.4531 0.0909151 14.8168C0.0926494 14.8382 0.103922 14.8586 0.119532 14.8716C2.00127 16.3407 3.82406 17.2326 5.61301 17.8237C5.64164 17.833 5.67197 17.8219 5.69019 17.7968C6.11337 17.1825 6.49059 16.5347 6.81402 15.8535C6.83311 15.8136 6.81489 15.7662 6.77588 15.7504C6.17754 15.5092 5.6078 15.215 5.05975 14.8809C5.0164 14.854 5.01293 14.788 5.05281 14.7565C5.16814 14.6646 5.2835 14.569 5.39363 14.4725C5.41355 14.4549 5.44131 14.4511 5.46474 14.4623C9.06518 16.2098 12.9631 16.2098 16.521 14.4623C16.5445 14.4502 16.5722 14.4539 16.593 14.4716C16.7032 14.5681 16.8185 14.6646 16.9347 14.7565C16.9746 14.788 16.972 14.854 16.9286 14.8809C16.3806 15.2214 15.8108 15.5092 15.2116 15.7495C15.1726 15.7653 15.1553 15.8136 15.1744 15.8535C15.5047 16.5337 15.882 17.1815 16.2973 17.7959C16.3147 17.8219 16.3459 17.833 16.3745 17.8237C18.1721 17.2326 19.9949 16.3407 21.8766 14.8716C21.8931 14.8586 21.9035 14.8391 21.9053 14.8178C22.364 9.77278 21.1369 5.39048 18.6525 1.50559C18.6465 1.49262 18.6361 1.48333 18.6239 1.47776ZM7.35169 12.1598C6.26771 12.1598 5.37454 11.1018 5.37454 9.80249C5.37454 8.50319 6.25039 7.44522 7.35169 7.44522C8.46163 7.44522 9.34616 8.51248 9.32881 9.80249C9.32881 11.1018 8.45296 12.1598 7.35169 12.1598ZM14.6619 12.1598C13.5779 12.1598 12.6847 11.1018 12.6847 9.80249C12.6847 8.50319 13.5606 7.44522 14.6619 7.44522C15.7718 7.44522 16.6563 8.51248 16.639 9.80249C16.639 11.1018 15.7718 12.1598 14.6619 12.1598Z" fill="#B5B5C6"/>
</g>
</svg>
