<svg width="22" height="18" viewBox="0 0 22 18" fill="none" xmlns="http://www.w3.org/2000/svg">
<path id="Vector" d="M19.8 0H2.2C0.99 0 0.011 0.99 0.011 2.2L0 15.4C0 16.61 0.99 17.6 2.2 17.6H19.8C21.01 17.6 22 16.61 22 15.4V2.2C22 0.99 21.01 0 19.8 0ZM19.36 4.675L11.583 9.537C11.231 9.757 10.769 9.757 10.417 9.537L2.64 4.675C2.5297 4.61308 2.43311 4.52943 2.35608 4.4291C2.27904 4.32877 2.22317 4.21386 2.19183 4.09131C2.1605 3.96876 2.15435 3.84113 2.17377 3.71614C2.19319 3.59115 2.23777 3.4714 2.30481 3.36413C2.37185 3.25687 2.45996 3.16432 2.5638 3.09209C2.66764 3.01987 2.78506 2.96946 2.90895 2.94393C3.03283 2.91839 3.16061 2.91826 3.28455 2.94354C3.40849 2.96882 3.52601 3.01899 3.63 3.091L11 7.7L18.37 3.091C18.474 3.01899 18.5915 2.96882 18.7155 2.94354C18.8394 2.91826 18.9672 2.91839 19.0911 2.94393C19.2149 2.96946 19.3324 3.01987 19.4362 3.09209C19.54 3.16432 19.6282 3.25687 19.6952 3.36413C19.7622 3.4714 19.8068 3.59115 19.8262 3.71614C19.8456 3.84113 19.8395 3.96876 19.8082 4.09131C19.7768 4.21386 19.721 4.32877 19.6439 4.4291C19.5669 4.52943 19.4703 4.61308 19.36 4.675Z" fill="#B5B5C6"/>
</svg>
