<svg width="16" height="16" viewBox="0 0 16 16" fill="none" xmlns="http://www.w3.org/2000/svg">
<path fill-rule="evenodd" clip-rule="evenodd" d="M3.2002 5.60078C3.2002 5.38861 3.28448 5.18513 3.43451 5.0351C3.58454 4.88507 3.78802 4.80078 4.0002 4.80078H12.0002C12.2124 4.80078 12.4159 4.88507 12.5659 5.0351C12.7159 5.18513 12.8002 5.38861 12.8002 5.60078C12.8002 5.81295 12.7159 6.01644 12.5659 6.16647C12.4159 6.3165 12.2124 6.40078 12.0002 6.40078H4.0002C3.78802 6.40078 3.58454 6.3165 3.43451 6.16647C3.28448 6.01644 3.2002 5.81295 3.2002 5.60078ZM3.2002 10.4008C3.2002 10.1886 3.28448 9.98513 3.43451 9.8351C3.58454 9.68507 3.78802 9.60078 4.0002 9.60078H12.0002C12.2124 9.60078 12.4159 9.68507 12.5659 9.8351C12.7159 9.98513 12.8002 10.1886 12.8002 10.4008C12.8002 10.613 12.7159 10.8164 12.5659 10.9665C12.4159 11.1165 12.2124 11.2008 12.0002 11.2008H4.0002C3.78802 11.2008 3.58454 11.1165 3.43451 10.9665C3.28448 10.8164 3.2002 10.613 3.2002 10.4008Z" fill="#B5B5C6"/>
</svg>
