<svg width="20" height="20" viewBox="0 0 20 20" fill="none" xmlns="http://www.w3.org/2000/svg">
<path d="M9.99984 18.3346C14.5832 18.3346 18.3332 14.5846 18.3332 10.0013C18.3332 5.41797 14.5832 1.66797 9.99984 1.66797C5.4165 1.66797 1.6665 5.41797 1.6665 10.0013C1.6665 14.5846 5.4165 18.3346 9.99984 18.3346Z" stroke="#67677B" stroke-width="2" stroke-linecap="round" stroke-linejoin="round"/>
<path fill-rule="evenodd" clip-rule="evenodd" d="M10 8.66797C10.5523 8.66797 11 9.11568 11 9.66797V13.8346C11 14.3869 10.5523 14.8346 10 14.8346C9.44772 14.8346 9 14.3869 9 13.8346V9.66797C9 9.11568 9.44772 8.66797 10 8.66797Z" fill="#67677B"/>
<path fill-rule="evenodd" clip-rule="evenodd" d="M8.99561 6.66797C8.99561 6.11568 9.44332 5.66797 9.99561 5.66797H10.0031C10.5554 5.66797 11.0031 6.11568 11.0031 6.66797C11.0031 7.22025 10.5554 7.66797 10.0031 7.66797H9.99561C9.44332 7.66797 8.99561 7.22025 8.99561 6.66797Z" fill="#67677B"/>
</svg>
