<svg width="137" height="78" viewBox="0 0 137 78" fill="none" xmlns="http://www.w3.org/2000/svg">
<g opacity="0.1">
<path d="M126.532 12.2226L75.9094 -6.42199C73.8642 -7.17524 71.5805 -7.02232 69.5605 -5.99694C67.5405 -4.97157 65.9498 -3.15769 65.1383 -0.954352L63.3152 3.99581C62.5653 6.0319 61.0979 7.7097 59.2335 8.66264C57.3692 9.61558 55.2594 9.76617 53.3654 9.08149C48.067 7.13009 42.1505 7.5262 36.9174 10.1826C31.6843 12.839 27.5634 17.5381 25.461 23.2463L3.48781 82.9068C2.64687 85.1901 2.68228 87.6899 3.58625 89.8564C4.49022 92.0228 6.18872 93.6784 8.30806 94.459L87.2591 123.537C89.3784 124.318 91.745 124.159 93.8382 123.097C95.9314 122.034 97.5799 120.154 98.4208 117.871L132.173 26.228C133.195 23.4873 133.177 20.483 132.121 17.863C131.066 15.243 129.059 13.2172 126.532 12.2226ZM79.9354 18.8674L86.163 9.96655C87.0391 8.69191 88.2723 7.73634 89.6739 7.2461C91.0754 6.75585 92.5682 6.75795 93.9236 7.25203L102.873 10.5483C101.44 14.4413 98.6292 17.6461 95.0602 19.4578C91.4913 21.2695 87.4562 21.5396 83.8427 20.2087L79.9354 18.8674Z" fill="url(#paint0_radial_6928_10275)" stroke="#4C4C5C" stroke-width="0.3" stroke-miterlimit="10"/>
<path d="M126.53 12.2224L89.5322 -1.40423C88.5202 -1.78345 87.4373 -1.94267 86.3463 -1.87265C85.2553 -1.80263 84.1778 -1.50474 83.1762 -0.996278C82.1745 -0.487814 81.2686 0.221192 80.5107 1.08967C79.7529 1.95814 79.1582 2.96888 78.7611 4.06341L76.938 9.01358C76.5653 10.0254 76.0113 10.9592 75.3076 11.7616C74.6038 12.5641 73.7642 13.2195 72.8366 13.6904C71.9089 14.1612 70.9114 14.4384 69.9011 14.5061C68.8908 14.5737 67.8874 14.4305 66.9482 14.0845C61.6499 12.1331 55.7333 12.5292 50.5003 15.1857C45.2672 17.8421 41.1462 22.5412 39.0439 28.2493L17.0706 87.9099C16.2297 90.1932 16.2651 92.693 17.1691 94.8594C18.0731 97.0259 19.7716 98.6815 21.8909 99.462L87.2172 123.522C89.3366 124.303 91.7032 124.144 93.7964 123.082C95.8897 122.019 97.538 120.139 98.379 117.856L132.132 26.213C133.151 23.4797 133.135 20.4837 132.088 17.8681C131.041 15.2524 129.046 13.2255 126.53 12.2224ZM79.9336 18.8671L86.1611 9.96629C87.0372 8.69166 88.2704 7.73609 89.672 7.24584C91.0736 6.7556 92.5663 6.75769 93.9217 7.25178L102.872 10.5481C101.438 14.441 98.6273 17.6459 95.0584 19.4575C91.4894 21.2692 87.4544 21.5393 83.8409 20.2085L79.9336 18.8671Z" fill="url(#paint1_linear_6928_10275)"/>
<rect x="64.6487" y="36.5956" width="9.19701" height="54.0963" rx="0.5" transform="rotate(20.219 64.6487 36.5956)" fill="url(#paint2_radial_6928_10275)" stroke="#4C4C5C" stroke-width="0.5"/>
<rect x="77.5942" y="41.3632" width="9.19701" height="54.0963" rx="0.5" transform="rotate(20.219 77.5942 41.3632)" fill="url(#paint3_radial_6928_10275)" stroke="#4C4C5C" stroke-width="0.5"/>
<rect x="90.5388" y="46.1308" width="9.19701" height="54.0963" rx="0.5" transform="rotate(20.219 90.5388 46.1308)" fill="url(#paint4_radial_6928_10275)" stroke="#4C4C5C" stroke-width="0.5"/>
<path d="M122.331 17.7166C120.897 21.6095 118.087 24.8144 114.518 26.626C110.949 28.4377 106.914 28.7078 103.3 27.377L83.8424 20.2105C87.4559 21.5413 91.4909 21.2712 95.0599 19.4596C98.6289 17.6479 101.439 14.443 102.873 10.5501L122.331 17.7166Z" fill="#4CE6A1" stroke="#4C4C5C" stroke-width="0.3" stroke-miterlimit="10"/>
<path d="M50.2408 13.9916C46.2435 14.8659 42.8853 12.8958 42.8092 11.2546L42.0087 7.39121L55.7435 5.70376L56.9118 9.80036L56.6423 10.5321C55.8273 11.5214 54.8409 12.3372 53.7414 12.9314C52.6419 13.5256 51.4517 13.8861 50.2408 13.9916Z" fill="#4CE6A1" stroke="#4C4C5C" stroke-width="0.3" stroke-miterlimit="10"/>
<path d="M48.8329 9.8297C52.7017 9.55 55.8115 7.92121 55.7787 6.1917C55.7459 4.46219 52.583 3.28688 48.7141 3.56658C44.8452 3.84628 41.7355 5.47507 41.7683 7.20458C41.8011 8.93409 44.964 10.1094 48.8329 9.8297Z" fill="#4CE6A1" stroke="#4C4C5C" stroke-width="0.3" stroke-miterlimit="10"/>
</g>
<defs>
<radialGradient id="paint0_radial_6928_10275" cx="0" cy="0" r="1" gradientUnits="userSpaceOnUse" gradientTransform="translate(42.1918 27.7246) rotate(87.3374) scale(222.964 1638.89)">
<stop stop-color="#33B375"/>
<stop offset="0.421875" stop-color="#564D8F"/>
<stop offset="1" stop-color="#DD40CD"/>
</radialGradient>
<linearGradient id="paint1_linear_6928_10275" x1="29.4627" y1="39.3612" x2="125.442" y2="76.6095" gradientUnits="userSpaceOnUse">
<stop stop-color="#4BF2A2"/>
<stop offset="0.522948" stop-color="#A0E79F"/>
<stop offset="0.669499" stop-color="#C4F4D7"/>
<stop offset="1" stop-color="#7BDD40"/>
</linearGradient>
<radialGradient id="paint2_radial_6928_10275" cx="0" cy="0" r="1" gradientUnits="userSpaceOnUse" gradientTransform="translate(66.2166 56.6228) rotate(85.2149) scale(94.4799 161.152)">
<stop stop-color="#2A3837"/>
<stop offset="0.421875" stop-color="#3F2B44"/>
<stop offset="1" stop-color="#322837"/>
</radialGradient>
<radialGradient id="paint3_radial_6928_10275" cx="0" cy="0" r="1" gradientUnits="userSpaceOnUse" gradientTransform="translate(79.1622 61.3904) rotate(85.2149) scale(94.4799 161.152)">
<stop stop-color="#2A3837"/>
<stop offset="0.421875" stop-color="#3F2B44"/>
<stop offset="1" stop-color="#322837"/>
</radialGradient>
<radialGradient id="paint4_radial_6928_10275" cx="0" cy="0" r="1" gradientUnits="userSpaceOnUse" gradientTransform="translate(92.1068 66.1579) rotate(85.2149) scale(94.4799 161.152)">
<stop stop-color="#2A3837"/>
<stop offset="0.421875" stop-color="#3F2B44"/>
<stop offset="1" stop-color="#322837"/>
</radialGradient>
</defs>
</svg>
