<svg width="37" height="36" viewBox="0 0 37 36" fill="none" xmlns="http://www.w3.org/2000/svg">
<g clip-path="url(#clip0_6928_10297)">
<path d="M26.8145 12.7209C26.2607 12.3985 25.5488 12.3985 24.916 12.7209L20.4863 15.3806L17.4805 17.0731L13.1299 19.7328C12.5762 20.0552 11.8643 20.0552 11.2314 19.7328L7.83008 17.6373C7.27637 17.3149 6.88086 16.6702 6.88086 15.9448V11.9149C6.88086 11.2702 7.19727 10.6254 7.83008 10.2224L11.2314 8.20746C11.7852 7.88507 12.4971 7.88507 13.1299 8.20746L16.5312 10.303C17.085 10.6254 17.4805 11.2702 17.4805 11.9955V14.6552L20.4863 12.8821V10.1418C20.4863 9.49702 20.1699 8.85224 19.5371 8.44925L13.209 4.66119C12.6553 4.33881 11.9434 4.33881 11.3105 4.66119L4.82422 8.52985C4.19141 8.85224 3.875 9.49702 3.875 10.1418V17.7179C3.875 18.3627 4.19141 19.0075 4.82422 19.4104L11.2314 23.1985C11.7852 23.5209 12.4971 23.5209 13.1299 23.1985L17.4805 20.6194L20.4863 18.8463L24.8369 16.2672C25.3906 15.9448 26.1025 15.9448 26.7353 16.2672L30.1367 18.2821C30.6904 18.6045 31.0859 19.2493 31.0859 19.9746V24.0045C31.0859 24.6493 30.7695 25.294 30.1367 25.697L26.8145 27.7119C26.2607 28.0343 25.5488 28.0343 24.916 27.7119L21.5146 25.697C20.9609 25.3746 20.5654 24.7299 20.5654 24.0045V21.4254L17.5596 23.1985V25.8582C17.5596 26.503 17.876 27.1478 18.5088 27.5507L24.916 31.3388C25.4697 31.6612 26.1816 31.6612 26.8145 31.3388L33.2217 27.5507C33.7754 27.2284 34.1709 26.5836 34.1709 25.8582V18.2015C34.1709 17.5567 33.8545 16.9119 33.2217 16.509L26.8145 12.7209Z" fill="#B690F4"/>
</g>
<defs>
<clipPath id="clip0_6928_10297">
<rect width="30.375" height="27" fill="white" transform="translate(3.875 4.5)"/>
</clipPath>
</defs>
</svg>
