<svg width="24" height="24" viewBox="0 0 24 24" fill="none" xmlns="http://www.w3.org/2000/svg">
<rect width="24" height="24" fill="#151515"/>
<rect x="-20.5" y="-11.5" width="375" height="47" rx="11.5" fill="#1E1E2C" stroke="#303043"/>
<circle cx="12" cy="12" r="12" fill="#ABFD2C"/>
<mask id="mask0_6001_4739" style="mask-type:alpha" maskUnits="userSpaceOnUse" x="0" y="0" width="24" height="24">
<circle cx="12" cy="12" r="12" fill="#D9D9D9"/>
</mask>
<g mask="url(#mask0_6001_4739)">
<rect width="18.1895" height="17.6842" transform="translate(2.77905 3.28418)" fill="#ABFD2C"/>
<path d="M10.321 3.64614C9.53315 4.06684 9.02211 4.67687 8.724 5.51827L8.48978 6.17037L7.65934 5.7707C6.40303 5.16068 5.25318 5.4131 4.10334 6.52797C2.46375 8.16871 2.61281 9.91464 4.61438 11.7026C6.25397 13.1751 8.29814 14.1427 10.7043 14.5424C11.4283 14.6476 11.4921 14.7317 11.4921 15.3628C11.4921 16.7932 9.91643 18.2236 8.34072 18.2236C7.95744 18.2236 7.29735 18.0763 6.87148 17.908C6.31785 17.6766 6.01975 17.6556 5.87069 17.8028C5.35965 18.3077 7.46769 18.9598 8.93694 18.7705C9.83126 18.6653 9.87385 18.6653 9.46927 18.9808C8.04262 20.0957 5.65776 20.5585 3.97558 20.0536C3.03867 19.7591 2.57022 19.8643 2.86833 20.306C3.08126 20.6636 5.35965 21.0002 6.46691 20.874C8.00003 20.6847 9.63962 19.8222 10.5978 18.7284C11.0663 18.2236 11.4708 17.8028 11.5134 17.8028C11.556 17.8028 11.5986 18.476 11.6199 19.2753C11.6199 20.0957 11.7051 20.8109 11.7902 20.895C12.1309 21.2316 12.3439 20.3691 12.2587 19.107C12.2161 18.3918 12.2161 17.8028 12.28 17.8028C12.3439 17.8028 12.7697 18.2236 13.2382 18.7284C13.6854 19.2543 14.601 19.9274 15.2824 20.264C16.3257 20.7688 16.7516 20.853 18.1996 20.8319C20.0734 20.8109 21.138 20.5164 20.9464 20.0326C20.8612 19.7802 20.6909 19.7802 19.8391 20.0536C18.1783 20.5585 15.7721 20.0957 14.3667 18.9808C13.9622 18.6653 14.0048 18.6653 14.8991 18.7705C16.3683 18.9598 18.4764 18.3077 17.9653 17.8028C17.8163 17.6556 17.4969 17.6766 16.922 17.9291C14.8139 18.7915 12.6846 17.5925 12.2587 15.3207C12.1735 14.7738 12.2161 14.6476 12.5142 14.6476C12.7272 14.6476 13.4724 14.5003 14.1538 14.332C17.9866 13.3434 20.8612 11.0295 20.8612 8.94702C20.8612 6.4859 18.2208 4.6979 16.1341 5.7707L15.3462 6.17037L15.2185 5.66552C14.7287 3.75132 12.1522 2.67852 10.321 3.64614ZM13.8983 4.71894C14.4306 5.24482 14.5584 5.58138 14.6436 6.549L14.75 7.72697L15.4101 7.09592C17.2839 5.30792 19.9243 6.23347 20.1798 8.73666C20.265 9.74636 20.2437 9.80946 19.2855 10.8192C17.6672 12.523 14.2816 13.9955 11.9393 14.0165C9.21375 14.0165 4.8912 11.8709 3.933 9.99878C3.14514 8.52631 4.03946 6.67521 5.76423 6.23347C6.74372 5.96001 7.51028 6.21244 8.46848 7.13799L9.14987 7.79008V7.01178C9.14987 5.0555 10.3849 3.83546 12.1948 3.9827C13.004 4.04581 13.3873 4.21409 13.8983 4.71894Z" fill="#034D00"/>
<path d="M8.8517 9.40999C8.5323 9.49414 8.08514 9.72552 7.87221 9.91484C7.36116 10.3776 7.19082 11.0718 7.5741 11.0718C7.74445 11.0718 7.87221 10.9456 7.87221 10.7983C7.87221 10.3776 8.57489 9.80966 9.06463 9.80966C9.38404 9.80966 9.4905 9.95691 9.46921 10.3776C9.46921 11.0718 10.1506 11.3032 10.5765 10.7562C10.8107 10.3987 10.8533 10.3987 10.981 10.7142C11.1301 11.1349 11.4921 11.177 11.4921 10.7773C11.4921 10.3776 10.4913 9.45206 9.93766 9.34689C9.68214 9.30482 9.19239 9.32585 8.8517 9.40999Z" fill="#034D00"/>
<path d="M13.6216 9.40999C13.0467 9.64138 12.3653 10.3776 12.344 10.7983C12.344 11.198 12.7699 11.1349 12.9189 10.6931C13.2596 9.8307 14.4095 9.4731 14.3882 10.2514C14.3669 10.9456 14.9844 11.2401 15.4954 10.7983C15.8574 10.4618 15.9213 10.4618 16.0277 10.7562C16.1129 10.9245 16.262 11.0718 16.3897 11.0718C17.1563 11.0718 15.6871 9.43103 14.7927 9.30482C14.452 9.26275 13.9197 9.30482 13.6216 9.40999Z" fill="#034D00"/>
<path d="M10.7683 12.0811C10.5766 12.3967 11.2367 12.8174 11.9181 12.8174C12.5995 12.8174 13.2596 12.3967 13.0679 12.0811C12.9828 11.9549 12.855 11.9549 12.7059 12.1022C12.5782 12.2284 12.2162 12.3336 11.9181 12.3336C11.62 12.3336 11.258 12.2284 11.1302 12.1022C10.9812 11.9549 10.8534 11.9549 10.7683 12.0811Z" fill="#034D00"/>
</g>
</svg>
