<svg width="24" height="24" viewBox="0 0 24 24" fill="none" xmlns="http://www.w3.org/2000/svg">
<g id="Group 2865">
<path id="Vector" d="M12 24C18.6274 24 24 18.6274 24 12C24 5.37258 18.6274 0 12 0C5.37258 0 0 5.37258 0 12C0 18.6274 5.37258 24 12 24Z" fill="#FF0420"/>
<path id="Vector_2" d="M8.50074 15.1874C7.78554 15.1874 7.19994 15.0194 6.74394 14.6834C6.29274 14.3426 6.06714 13.853 6.06714 13.2242C6.06714 13.0898 6.08154 12.9314 6.11034 12.7394C6.18714 12.3074 6.29754 11.789 6.44154 11.1794C6.84954 9.52824 7.90554 8.70264 9.60474 8.70264C10.0655 8.70264 10.4831 8.77944 10.8479 8.93784C11.2127 9.08664 11.5007 9.31704 11.7119 9.62424C11.9231 9.92664 12.0287 10.2866 12.0287 10.7042C12.0287 10.829 12.0143 10.9874 11.9855 11.1794C11.8943 11.7122 11.7887 12.2354 11.6591 12.7394C11.4479 13.5602 11.0879 14.1794 10.5695 14.5874C10.0559 14.9906 9.36474 15.1874 8.50074 15.1874ZM8.63034 13.8914C8.96634 13.8914 9.24954 13.7906 9.48474 13.5938C9.72474 13.397 9.89754 13.0946 9.99834 12.6818C10.1375 12.1154 10.2431 11.6258 10.3151 11.2034C10.3391 11.0786 10.3535 10.949 10.3535 10.8146C10.3535 10.2674 10.0703 9.99384 9.49914 9.99384C9.16314 9.99384 8.87514 10.0946 8.63514 10.2914C8.39994 10.4882 8.23194 10.7906 8.13114 11.2034C8.02074 11.6066 7.91514 12.0962 7.80474 12.6818C7.78074 12.8018 7.76634 12.9266 7.76634 13.061C7.76154 13.6178 8.05434 13.8914 8.63034 13.8914Z" fill="white"/>
<path id="Vector_3" d="M12.4465 15.1007C12.3793 15.1007 12.3313 15.0815 12.2929 15.0383C12.2641 14.9903 12.2545 14.9375 12.2641 14.8751L13.5073 9.01906C13.5169 8.95186 13.5505 8.89906 13.6081 8.85586C13.6609 8.81266 13.7185 8.79346 13.7809 8.79346H16.1761C16.8433 8.79346 17.3761 8.93266 17.7793 9.20626C18.1873 9.48466 18.3937 9.88306 18.3937 10.4063C18.3937 10.5551 18.3745 10.7135 18.3409 10.8767C18.1921 11.5679 17.8897 12.0767 17.4289 12.4079C16.9777 12.7391 16.3585 12.9023 15.5713 12.9023H14.3569L13.9441 14.8751C13.9297 14.9423 13.9009 14.9951 13.8433 15.0383C13.7905 15.0815 13.7329 15.1007 13.6705 15.1007H12.4465ZM15.6337 11.6591C15.8881 11.6591 16.1041 11.5919 16.2913 11.4527C16.4833 11.3135 16.6081 11.1167 16.6705 10.8575C16.6897 10.7567 16.6993 10.6655 16.6993 10.5887C16.6993 10.4159 16.6465 10.2815 16.5457 10.1903C16.4449 10.0943 16.2673 10.0463 16.0225 10.0463H14.9425L14.6017 11.6591H15.6337Z" fill="white"/>
</g>
</svg>
