<svg width="19" height="24" viewBox="0 0 19 24" fill="none" xmlns="http://www.w3.org/2000/svg">
<g id="app-Mobile">
<g id="m-05">
<g id="Header">
<g id="Logo">
<path id="Fill-1" fill-rule="evenodd" clip-rule="evenodd" d="M14.4205 16.5981C14.7303 17.3248 15.0405 18.0512 15.3496 18.7782C15.7008 19.6048 16.0472 20.4335 16.4037 21.258C16.5265 21.5422 16.549 21.8147 16.3307 22.0519C16.1182 22.2826 15.8482 22.2923 15.5612 22.1917C14.8766 21.9515 14.1881 21.7223 13.5053 21.477C13.3379 21.4168 13.2691 21.4604 13.1987 21.6133C12.8847 22.2946 12.5608 22.9715 12.2356 23.6477C12.1058 23.9175 11.8778 24.0185 11.5832 23.9969C11.3215 23.9777 11.1602 23.8317 11.0638 23.6039C10.5563 22.4034 10.0509 21.2019 9.54414 20.0011C9.5208 19.9457 9.49141 19.8928 9.44974 19.808C9.27542 20.2166 9.11089 20.5978 8.94984 20.9805C8.58312 21.8518 8.21938 22.7244 7.85159 23.5952C7.7416 23.8557 7.55038 23.9962 7.25382 23.9991C6.95563 24.002 6.77449 23.8582 6.65315 23.6016C6.33231 22.9233 6.00354 22.2487 5.68413 21.5697C5.62511 21.4442 5.56487 21.425 5.43254 21.4717C4.71 21.7266 3.98387 21.9716 3.25761 22.2158C3.0039 22.3012 2.76101 22.2565 2.58359 22.0602C2.40597 21.8635 2.35454 21.6263 2.46596 21.3635C3.05908 19.9647 3.6471 18.5637 4.23802 17.1639C4.26679 17.0957 4.30634 17.032 4.34083 16.9663C4.43152 17.0039 4.51646 17.0497 4.57454 17.1327C4.2823 17.837 3.99203 18.5422 3.69722 19.2454C3.3943 19.968 3.0861 20.6883 2.78212 21.4103C2.71583 21.5678 2.69326 21.7289 2.82799 21.8637C2.95215 21.9878 3.09557 21.9506 3.24361 21.8991C3.99925 21.6359 4.75845 21.3826 5.51205 21.1139C5.70457 21.0452 5.79849 21.0811 5.88538 21.2705C6.22064 22.0017 6.57315 22.725 6.91832 23.4517C6.98657 23.5953 7.08322 23.7071 7.25423 23.7046C7.41496 23.7023 7.5145 23.5996 7.57352 23.4595C8.11354 22.1774 8.64756 20.8928 9.19656 19.6145C9.28211 19.4152 9.26778 19.2617 9.1482 19.0966C9.09277 19.1295 9.08367 19.1772 9.06567 19.2197C8.53145 20.4823 7.9973 21.7451 7.4621 23.0073C7.42651 23.0912 7.41565 23.2102 7.29541 23.2126C7.16787 23.2152 7.14501 23.092 7.10085 23.0048C6.73413 22.2802 6.36565 21.5565 6.00709 20.828C5.94293 20.6976 5.882 20.667 5.74363 20.7151C5.34671 20.8531 4.94509 20.9778 4.54478 21.106C4.13798 21.2362 3.73028 21.3637 3.3236 21.4944C3.25573 21.5162 3.19018 21.5356 3.13557 21.4747C3.08851 21.4223 3.10259 21.3624 3.12724 21.3034C3.1481 21.2536 3.16537 21.2023 3.18634 21.1525C3.73494 19.8519 4.28381 18.5514 4.83261 17.2509C5.29108 17.3709 5.76082 17.3587 6.2246 17.3301C6.83776 17.2922 7.36121 17.4864 7.85959 17.8179C8.26378 18.0867 8.67981 18.3462 9.19313 18.3568C9.90013 20.0372 10.6081 21.7172 11.3126 23.3987C11.3791 23.5576 11.4568 23.6991 11.6485 23.7042C11.84 23.7094 11.9314 23.5728 12.0045 23.4182C12.3307 22.7276 12.6548 22.036 12.9886 21.349C13.1444 21.0284 13.0676 21.0079 13.4844 21.1506C14.2156 21.4012 14.9473 21.6503 15.6769 21.9053C15.8373 21.9614 15.9809 21.973 16.1047 21.839C16.2301 21.7032 16.1943 21.5608 16.1295 21.4079C15.4866 19.8909 14.8474 18.3724 14.2071 16.8544C14.2726 16.7643 14.3257 16.664 14.4205 16.5981Z" fill="#FCCDD3"/>
<g id="Group-5">
<g id="Mask group">
<mask id="mask0_6831_15190" style="mask-type:luminance" maskUnits="userSpaceOnUse" x="0" y="0" width="19" height="19">
<g id="Group">
<path id="Vector" d="M0 0H18.4539V18.3632H0V0Z" fill="#6534FF"/>
</g>
</mask>
<g mask="url(#mask0_6831_15190)">
<path id="Fill-3" fill-rule="evenodd" clip-rule="evenodd" d="M6.18889 1.38561C5.8587 1.38561 5.63385 1.37656 5.41002 1.38756C5.00269 1.40761 4.66315 1.55861 4.42035 1.90388C4.23252 2.17097 4.07718 2.45568 3.92984 2.74453C3.66527 3.26328 3.27606 3.65069 2.75347 3.91181C2.52303 4.02697 2.30125 4.15926 2.07668 4.28582C1.60699 4.55048 1.38651 4.95599 1.39116 5.48895C1.39414 5.8339 1.3912 6.17888 1.39659 6.52375C1.40259 6.90579 1.30439 7.25861 1.10974 7.58574C0.954073 7.84735 0.798772 8.10933 0.637391 8.36749C0.303853 8.90106 0.286996 9.43277 0.632493 9.96789C0.713225 10.0929 0.778406 10.2284 0.865464 10.3486C1.27545 10.9146 1.45834 11.54 1.39826 12.2381C1.37973 12.4531 1.39014 12.6707 1.39201 12.8871C1.39593 13.3485 1.55621 13.7328 1.96003 13.9898C2.11431 14.0881 2.26716 14.1937 2.43344 14.2673C3.17852 14.5973 3.73678 15.1102 4.06914 15.8591C4.13738 16.0129 4.23129 16.1556 4.31615 16.3019C4.58206 16.7603 4.9889 16.9716 5.5139 16.9714C5.87433 16.9713 6.23481 16.9704 6.59524 16.9669C6.9798 16.9632 7.33191 17.0726 7.6601 17.2646C7.9236 17.4188 8.18677 17.5738 8.44631 17.7344C8.9647 18.0553 9.48109 18.0593 10.0005 17.7387C10.1968 17.6175 10.3992 17.506 10.5926 17.3805C11.0377 17.0916 11.5165 16.935 12.0548 16.9646C12.3464 16.9806 12.6395 16.9707 12.9319 16.9716C13.4651 16.9731 13.8776 16.7604 14.1443 16.292C14.2715 16.0687 14.405 15.8483 14.5207 15.6191C14.783 15.0996 15.1674 14.7077 15.6924 14.448C15.9294 14.3308 16.1589 14.1978 16.3864 14.063C16.7557 13.8442 17.0034 13.5421 17.0457 13.0975C17.0848 12.6854 17.0577 12.2732 17.0565 11.8613C17.0553 11.4434 17.1602 11.0608 17.3774 10.7054C17.5361 10.4456 17.6913 10.1836 17.8491 9.92319C18.1413 9.44093 18.156 8.95432 17.8695 8.46511C17.7431 8.24908 17.6157 8.03326 17.4793 7.82344C17.187 7.37422 17.0247 6.89288 17.0563 6.34993C17.0736 6.05329 17.0667 5.75486 17.0626 5.45737C17.0562 5.00518 16.8986 4.62882 16.5048 4.36879C16.2381 4.19258 15.9577 4.04122 15.6735 3.89687C15.1725 3.64229 14.7965 3.26791 14.5389 2.77046C14.4114 2.5244 14.2728 2.28369 14.1319 2.04485C13.9126 1.6732 13.5965 1.43659 13.1554 1.39649C12.9866 1.38114 12.816 1.38682 12.6461 1.38382C12.2793 1.37725 11.9107 1.41398 11.5459 1.3645C11.0951 1.30337 10.7086 1.07695 10.3542 0.816922C9.59745 0.261469 8.8665 0.253675 8.10963 0.814324C7.51211 1.25693 6.84474 1.49776 6.18889 1.38561ZM4.57459 17.133C4.51651 17.0499 4.43157 17.0042 4.34088 16.9666C3.95053 16.5101 3.71282 15.9595 3.39847 15.4562C3.20121 15.1404 2.89816 14.9485 2.57883 14.7754C2.26888 14.6074 1.94959 14.4549 1.66596 14.2418C1.2539 13.9322 1.04174 13.519 1.02583 13.0082C1.01827 12.765 1.0064 12.5195 1.0295 12.2782C1.09117 11.6343 0.912972 11.0657 0.544007 10.5414C0.40438 10.3429 0.285364 10.1277 0.177776 9.90996C-0.0656024 9.41747 -0.0546233 8.92055 0.183327 8.42614C0.318709 8.14472 0.490988 7.88494 0.658166 7.62268C0.912482 7.22379 1.05831 6.80062 1.03068 6.32079C1.01399 6.0308 1.02668 5.73928 1.02309 5.44848C1.01493 4.79321 1.30822 4.30798 1.8662 3.97538C2.08166 3.84695 2.29945 3.72059 2.52487 3.61099C3.01995 3.37032 3.38402 3.00926 3.62862 2.5166C3.79658 2.17819 3.97098 1.84133 4.22297 1.55138C4.53218 1.1956 4.92763 1.034 5.39064 1.02077C5.62842 1.01399 5.86866 0.999136 6.10412 1.02337C6.76854 1.09164 7.34877 0.895182 7.88609 0.521579C8.06351 0.398262 8.25755 0.296946 8.45003 0.197132C8.97021 -0.0726794 9.49162 -0.0591219 10.0143 0.198593C10.2831 0.331124 10.5348 0.491825 10.7857 0.652567C11.1926 0.913123 11.629 1.04679 12.1156 1.02572C12.4075 1.01306 12.7003 1.02146 12.9926 1.0189C13.6529 1.0131 14.1354 1.31315 14.4655 1.86974C14.6 2.09657 14.7343 2.3244 14.8518 2.56016C15.081 3.0199 15.4252 3.35693 15.8855 3.58566C16.1709 3.72749 16.4522 3.87832 16.7159 4.05879C17.1877 4.38174 17.425 4.82893 17.4311 5.39729C17.4334 5.62047 17.4481 5.84538 17.4265 6.06652C17.3627 6.71737 17.542 7.2936 17.918 7.82178C18.0353 7.98658 18.1323 8.1666 18.2292 8.34472C18.5517 8.93768 18.5194 9.52373 18.1813 10.0995C18.0134 10.3854 17.8425 10.6694 17.6722 10.9539C17.5011 11.2399 17.4228 11.5494 17.4266 11.8816C17.4306 12.2197 17.4266 12.558 17.4324 12.8961C17.4436 13.5519 17.1516 14.0382 16.5968 14.3738C16.3589 14.5177 16.1142 14.6511 15.8672 14.7788C15.465 14.9866 15.1346 15.2645 14.9221 15.6709C14.7593 15.9823 14.5883 16.2894 14.4208 16.5984C14.3258 16.6643 14.2726 16.7645 14.2071 16.8546C14.1209 16.903 14.0551 16.974 13.9919 17.0478C13.6278 17.2907 13.2215 17.3543 12.7923 17.3396C12.4872 17.3291 12.1815 17.3373 11.8761 17.3365C11.6636 17.3359 11.4589 17.375 11.2645 17.4598C10.6604 17.7238 10.1531 18.1742 9.50987 18.3632C9.40481 18.3334 9.29881 18.3567 9.19318 18.3571C8.67986 18.3465 8.26383 18.087 7.85968 17.8181C7.36125 17.4866 6.83781 17.2925 6.22465 17.3304C5.76087 17.3591 5.29113 17.3711 4.83262 17.2512C4.75495 17.1937 4.67262 17.1464 4.57459 17.133Z" fill="#6534FF"/>
</g>
</g>
</g>
<path id="Fill-10" fill-rule="evenodd" clip-rule="evenodd" d="M11.8355 11.0887C12.0007 11.0936 12.112 10.9576 12.0637 10.7893C11.7696 9.76541 11.4714 8.74275 11.174 7.71981C11.1281 7.56224 11.0073 7.53037 10.8686 7.56313C10.7553 7.58984 10.7254 7.69615 10.696 7.79491C10.5053 8.43454 10.3144 9.07414 10.1232 9.71366C10.0189 10.0625 9.90971 10.4099 9.81127 10.7603C9.7707 10.9047 9.8016 11.0389 9.96979 11.0807C10.1164 11.117 10.2173 11.0585 10.2567 10.9014C10.2945 10.7513 10.3514 10.6058 10.3894 10.4557C10.4156 10.3521 10.4697 10.3151 10.576 10.3178C10.8135 10.324 11.0514 10.3238 11.2889 10.3179C11.4009 10.3151 11.4625 10.3447 11.4862 10.465C11.5148 10.6098 11.5654 10.7507 11.6105 10.892C11.6452 11.0007 11.7004 11.0911 11.8355 11.0887ZM6.4947 9.33056C6.47862 9.4984 6.52748 9.65704 6.60641 9.8108C6.75771 10.1054 6.90848 10.4005 7.05211 10.699C7.1677 10.9392 7.34255 11.0818 7.61858 11.0912C7.9091 11.1011 8.08705 10.9498 8.20631 10.7043C8.36279 10.3822 8.52565 10.0629 8.67813 9.73895C8.80935 9.46017 8.80845 9.17664 8.67209 8.89822C8.50262 8.55218 8.33528 8.205 8.1575 7.86322C7.94444 7.45373 7.35242 7.42427 7.12121 7.82555C6.90567 8.19968 6.72996 8.59667 6.5425 8.98638C6.49238 9.09062 6.4838 9.20785 6.4947 9.33056ZM13.1045 9.26119C13.1045 9.77495 13.1065 10.2888 13.1033 10.8025C13.1024 10.9699 13.162 11.0847 13.3422 11.0868C13.5479 11.0892 13.5792 10.9339 13.5826 10.7783C13.5888 10.4877 13.5895 10.1968 13.5823 9.90631C13.5792 9.78214 13.6211 9.74187 13.7455 9.74459C14.0648 9.75161 14.3845 9.75214 14.7039 9.74524C15.084 9.73708 15.3727 9.45347 15.3844 9.07487C15.3931 8.79122 15.3936 8.50684 15.3842 8.22319C15.3713 7.837 15.0714 7.55574 14.6837 7.55469C14.2215 7.55339 13.7591 7.56012 13.2971 7.55103C13.1484 7.54807 13.0976 7.58355 13.1007 7.74019C13.1109 8.24701 13.1045 8.75416 13.1045 9.26119ZM3.18654 9.26748C3.18654 9.76773 3.18626 10.268 3.18691 10.7683C3.18699 10.8221 3.1796 10.8805 3.19756 10.9288C3.23944 11.0412 3.32491 11.0997 3.4509 11.0881C3.60816 11.0738 3.65661 10.9584 3.66097 10.8327C3.67134 10.5356 3.6733 10.2377 3.66338 9.94061C3.65844 9.79314 3.69575 9.73724 3.85431 9.74333C4.16651 9.75543 4.47968 9.75251 4.7922 9.74492C5.16186 9.73595 5.4514 9.45623 5.46564 9.08884C5.47686 8.79857 5.47654 8.50724 5.46584 8.21693C5.45164 7.83172 5.15043 7.5555 4.75938 7.5546C4.29715 7.55359 3.83476 7.56134 3.37278 7.5505C3.21426 7.54681 3.18075 7.59958 3.18324 7.74644C3.19181 8.2533 3.18654 8.76045 3.18654 9.26748ZM6.1888 1.38552C6.84465 1.49768 7.51201 1.25685 8.10954 0.8142C8.86637 0.253552 9.59736 0.261386 10.3541 0.816839C10.7085 1.07683 11.0949 1.30325 11.5458 1.36442C11.9106 1.41386 12.2792 1.37716 12.646 1.3837C12.8159 1.38674 12.9865 1.38106 13.1553 1.3964C13.5964 1.43651 13.9125 1.67311 14.1318 2.04477C14.2727 2.28361 14.4113 2.52428 14.5387 2.77038C14.7964 3.26783 15.1724 3.6422 15.6735 3.89675C15.9576 4.04113 16.238 4.1925 16.5047 4.36867C16.8985 4.62874 17.0561 5.0051 17.0624 5.45725C17.0666 5.75478 17.0735 6.05317 17.0562 6.34985C17.0246 6.89276 17.1869 7.37409 17.4791 7.82336C17.6156 8.03314 17.743 8.249 17.8694 8.46503C18.1558 8.95424 18.1412 9.44081 17.849 9.92307C17.6912 10.1835 17.536 10.4454 17.3773 10.7053C17.1601 11.0607 17.0552 11.4433 17.0564 11.8612C17.0576 12.2731 17.0847 12.6853 17.0456 13.0974C17.0033 13.542 16.7556 13.8441 16.3863 14.0629C16.1588 14.1977 15.9293 14.3307 15.6923 14.4479C15.1673 14.7077 14.7829 15.0995 14.5206 15.619C14.4049 15.8482 14.2714 16.0686 14.1442 16.2919C13.8775 16.7602 13.465 16.973 12.9318 16.9714C12.6394 16.9706 12.3463 16.9805 12.0547 16.9645C11.5164 16.935 11.0376 17.0915 10.5925 17.3804C10.3991 17.5059 10.1967 17.6174 10.0004 17.7386C9.48096 18.0592 8.96461 18.0552 8.44622 17.7343C8.18668 17.5737 7.9235 17.4188 7.66 17.2646C7.33181 17.0725 6.9797 16.963 6.59511 16.9668C6.23471 16.9703 5.87424 16.9712 5.5138 16.9713C4.9888 16.9715 4.58196 16.7602 4.31605 16.3018C4.2312 16.1556 4.13728 16.0128 4.06904 15.859C3.73669 15.1101 3.17842 14.5972 2.43335 14.2672C2.26703 14.1936 2.11422 14.088 1.95994 13.9897C1.55612 13.7327 1.39584 13.3483 1.39192 12.887C1.39004 12.6706 1.37963 12.453 1.39816 12.238C1.45824 11.5399 1.27535 10.9145 0.865367 10.3485C0.778309 10.2283 0.713128 10.0928 0.632397 9.96776C0.2869 9.43269 0.303715 8.90098 0.637294 8.36737C0.798676 8.10925 0.953976 7.84727 1.10964 7.58566C1.30429 7.25849 1.40249 6.90567 1.39649 6.52366C1.3911 6.1788 1.39404 5.83381 1.39106 5.48887C1.38641 4.9559 1.60689 4.55039 2.07659 4.2857C2.30115 4.15917 2.52294 4.02685 2.75334 3.91173C3.27597 3.6506 3.66518 3.26316 3.92974 2.74444C4.07708 2.45555 4.23242 2.17089 4.42025 1.90375C4.66306 1.55848 5.00256 1.40748 5.40989 1.38747C5.63376 1.37647 5.8586 1.38552 6.1888 1.38552Z" fill="#FEFEFE"/>
<path id="Fill-12" fill-rule="evenodd" clip-rule="evenodd" d="M13.992 17.0479C14.4944 18.2425 14.9967 19.4371 15.499 20.6317C15.5854 20.8371 15.6743 21.0414 15.7571 21.2482C15.7861 21.3206 15.8368 21.4003 15.768 21.4759C15.6978 21.5531 15.6177 21.5054 15.5415 21.481C14.754 21.2292 13.9649 20.9818 13.1802 20.7216C13.024 20.6698 12.96 20.7031 12.8893 20.8472C12.5322 21.5759 12.163 22.2987 11.7972 23.0233C11.7585 23.0999 11.7333 23.1901 11.6171 23.1894C11.4962 23.1886 11.4808 23.0893 11.4488 23.0136C10.8151 21.5155 10.1837 20.0163 9.55299 18.5169C9.5325 18.4682 9.52405 18.4145 9.51001 18.3632C10.1532 18.1742 10.6605 17.7238 11.2646 17.4599C11.459 17.375 11.6637 17.336 11.8762 17.3365C12.1816 17.3373 12.4873 17.3291 12.7924 17.3396C13.2216 17.3544 13.6279 17.2908 13.992 17.0479Z" fill="#FCCDD3"/>
<path id="Fill-14" fill-rule="evenodd" clip-rule="evenodd" d="M3.64669 8.64348C3.64669 8.81218 3.64987 8.98092 3.64546 9.14949C3.64293 9.24691 3.66628 9.29911 3.78011 9.29708C4.09887 9.29148 4.4178 9.29599 4.73664 9.29461C4.91064 9.29384 5.00288 9.19552 5.00872 9.03137C5.01757 8.78202 5.019 8.5319 5.00921 8.28266C5.00259 8.11251 4.91325 8.00875 4.72448 8.01099C4.41923 8.0146 4.11381 8.01598 3.80864 8.01009C3.6826 8.00762 3.64012 8.05783 3.64518 8.17802C3.65167 8.33292 3.64673 8.4883 3.64669 8.64348ZM3.18654 9.26745C3.18654 8.76038 3.19177 8.25328 3.18323 7.74641C3.1807 7.59955 3.21425 7.54674 3.37278 7.55048C3.83472 7.56131 4.29715 7.55352 4.75938 7.55458C5.15042 7.55543 5.45164 7.83169 5.4658 8.21691C5.47653 8.50722 5.47686 8.79854 5.46564 9.08881C5.45139 9.4562 5.16185 9.73592 4.79215 9.74489C4.47967 9.75248 4.1665 9.7554 3.85427 9.74331C3.69575 9.73718 3.65844 9.79311 3.66338 9.94058C3.6733 10.2376 3.67134 10.5356 3.66097 10.8327C3.6566 10.9584 3.60816 11.0737 3.4509 11.0881C3.3249 11.0996 3.23944 11.0411 3.19756 10.9287C3.1796 10.8805 3.18695 10.822 3.18687 10.7682C3.18626 10.2679 3.18654 9.7677 3.18654 9.26745Z" fill="#6534FF"/>
<path id="Fill-16" fill-rule="evenodd" clip-rule="evenodd" d="M13.5647 8.6517C13.5647 8.8204 13.5692 8.98922 13.5632 9.15767C13.5593 9.26467 13.6023 9.29836 13.7065 9.29682C14.0184 9.29219 14.3306 9.29463 14.6426 9.2952C14.8263 9.29552 14.9222 9.19757 14.9276 9.02307C14.9352 8.77368 14.9378 8.52351 14.9264 8.2744C14.9186 8.10238 14.8207 8.00739 14.6342 8.01056C14.3358 8.01559 14.0371 8.01673 13.7387 8.00971C13.6052 8.00654 13.5559 8.05464 13.5628 8.18624C13.5708 8.34101 13.5647 8.49652 13.5647 8.6517ZM13.1046 9.2611C13.1046 8.75407 13.111 8.24692 13.1007 7.7401C13.0976 7.5835 13.1484 7.54802 13.297 7.55094C13.7591 7.56004 14.2215 7.5533 14.6837 7.5546C15.0714 7.55565 15.3714 7.83691 15.3842 8.2231C15.3937 8.50675 15.3931 8.79113 15.3844 9.07479C15.3728 9.45338 15.084 9.73699 14.7039 9.74515C14.3846 9.75205 14.0648 9.75153 13.7455 9.7445C13.6212 9.74178 13.5792 9.78205 13.5823 9.90622C13.5895 10.1967 13.5889 10.4876 13.5826 10.7782C13.5792 10.9338 13.548 11.0891 13.3423 11.0867C13.162 11.0846 13.1024 10.9698 13.1034 10.8024C13.1065 10.2887 13.1046 9.77487 13.1046 9.2611Z" fill="#6534FF"/>
<path id="Fill-18" fill-rule="evenodd" clip-rule="evenodd" d="M8.30065 9.32541C8.28742 9.25981 8.28697 9.18813 8.25881 9.12964C8.09465 8.78875 7.9289 8.44839 7.75324 8.11327C7.67675 7.96734 7.55614 7.96876 7.479 8.11773C7.31121 8.44165 7.15395 8.77105 6.99784 9.10078C6.91723 9.27102 6.9387 9.44349 7.02057 9.60849C7.16775 9.90518 7.31783 10.2004 7.46623 10.4966C7.50023 10.5643 7.53463 10.6366 7.62439 10.6326C7.70153 10.6292 7.73618 10.5666 7.7676 10.5041C7.92262 10.1962 8.07935 9.88914 8.23432 9.58126C8.27436 9.50174 8.29775 9.41739 8.30065 9.32541ZM6.49488 9.33077C6.48402 9.20806 6.49259 9.09083 6.54271 8.98659C6.73013 8.59691 6.90588 8.19989 7.12138 7.8258C7.3526 7.42447 7.94462 7.45394 8.15767 7.86343C8.33546 8.20521 8.5028 8.55243 8.67226 8.89843C8.80863 9.17684 8.80956 9.46038 8.6783 9.73916C8.52582 10.0632 8.36297 10.3824 8.20649 10.7045C8.08723 10.95 7.90931 11.1013 7.61875 11.0914C7.34272 11.082 7.16791 10.9394 7.05229 10.6992C6.9087 10.4008 6.75793 10.1057 6.60659 9.811C6.52765 9.65724 6.47884 9.49865 6.49488 9.33077Z" fill="#6534FF"/>
<path id="Fill-20" fill-rule="evenodd" clip-rule="evenodd" d="M10.9703 8.70206C10.9528 8.70246 10.9352 8.70283 10.9177 8.70323C10.8552 8.91386 10.7875 9.12315 10.7317 9.33548C10.6862 9.50893 10.5151 9.74152 10.6338 9.84081C10.7496 9.93766 11.0081 9.86439 11.204 9.86861C11.2891 9.87048 11.3054 9.84223 11.2804 9.76015C11.1734 9.40855 11.0731 9.05492 10.9703 8.70206ZM11.8357 11.0888C11.7006 11.0913 11.6454 11.0009 11.6107 10.8922C11.5655 10.7509 11.515 10.6101 11.4864 10.4652C11.4627 10.3449 11.4011 10.3154 11.2891 10.3181C11.0516 10.324 10.8137 10.3242 10.5762 10.3181C10.4698 10.3153 10.4158 10.3524 10.3895 10.4559C10.3515 10.606 10.2946 10.7515 10.2569 10.9017C10.2174 11.0587 10.1165 11.1172 9.96994 11.0809C9.80174 11.0392 9.77084 10.905 9.81141 10.7605C9.9099 10.4101 10.019 10.0627 10.1233 9.71388C10.3145 9.07436 10.5054 8.4348 10.6962 7.79512C10.7256 7.6964 10.7555 7.59005 10.8688 7.56335C11.0074 7.53063 11.1283 7.56245 11.1741 7.72003C11.4715 8.74297 11.7698 9.76563 12.0639 10.7895C12.1122 10.9578 12.0009 11.0938 11.8357 11.0888Z" fill="#6534FF"/>
<path id="Fill-22" fill-rule="evenodd" clip-rule="evenodd" d="M3.64672 8.64373C3.64676 8.48855 3.65166 8.33316 3.64517 8.17827C3.64015 8.05808 3.68264 8.00786 3.80867 8.01034C4.11384 8.01623 4.41922 8.01485 4.72447 8.01123C4.91328 8.009 5.00259 8.11275 5.00924 8.28291C5.01899 8.53214 5.01756 8.78227 5.00871 9.03162C5.00291 9.19577 4.91067 9.29408 4.73668 9.29486C4.41783 9.29624 4.09887 9.29173 3.78014 9.29733C3.66627 9.29936 3.64292 9.24716 3.64545 9.14974C3.6499 8.98117 3.64672 8.81243 3.64672 8.64373Z" fill="#FEFEFE"/>
<path id="Fill-24" fill-rule="evenodd" clip-rule="evenodd" d="M13.5648 8.6519C13.5648 8.49672 13.5709 8.34122 13.5629 8.18644C13.556 8.05485 13.6053 8.00675 13.7388 8.00991C14.0371 8.01693 14.3359 8.0158 14.6343 8.01076C14.8207 8.0076 14.9187 8.10258 14.9265 8.27461C14.9379 8.52372 14.9353 8.77388 14.9276 9.02328C14.9223 9.19778 14.8264 9.29573 14.6427 9.2954C14.3306 9.29483 14.0185 9.2924 13.7065 9.29702C13.6024 9.29857 13.5594 9.26488 13.5632 9.15788C13.5693 8.98942 13.5648 8.8206 13.5648 8.6519Z" fill="#FEFEFE"/>
<path id="Fill-26" fill-rule="evenodd" clip-rule="evenodd" d="M8.30051 9.32539C8.29761 9.41737 8.27422 9.50172 8.23418 9.58123C8.07921 9.88912 7.92248 10.1962 7.76747 10.504C7.73604 10.5666 7.70139 10.6292 7.62425 10.6326C7.5345 10.6365 7.50009 10.5643 7.46609 10.4965C7.31769 10.2004 7.16761 9.90515 7.02043 9.60847C6.93856 9.44347 6.91709 9.271 6.9977 9.10075C7.15382 8.77103 7.31108 8.44163 7.47887 8.11771C7.55601 7.96874 7.67661 7.96732 7.7531 8.11325C7.92877 8.44837 8.09452 8.78873 8.25867 9.12962C8.28683 9.18811 8.28728 9.25979 8.30051 9.32539Z" fill="#FEFEFE"/>
<path id="Fill-28" fill-rule="evenodd" clip-rule="evenodd" d="M10.9702 8.70166C11.073 9.05452 11.1734 9.40815 11.2803 9.75976C11.3053 9.84183 11.289 9.87008 11.2039 9.86822C11.0081 9.86399 10.7495 9.93726 10.6337 9.84041C10.515 9.74112 10.6861 9.50854 10.7317 9.33509C10.7875 9.12276 10.8551 8.91347 10.9176 8.70284C10.9352 8.70243 10.9527 8.70207 10.9702 8.70166Z" fill="#FEFEFE"/>
</g>
</g>
</g>
</g>
</svg>
