<svg width="28" height="24" viewBox="0 0 28 24" fill="none" xmlns="http://www.w3.org/2000/svg">
<g opacity="0.2">
<path d="M13.1595 0.150162L19.9305 0.316111L20.5608 0.82804L15.1322 1.23104L8.41126 0.930977L7.82166 0.622391L13.1595 0.150162Z" fill="url(#paint0_radial_6928_10243)" stroke="url(#paint1_radial_6928_10243)" stroke-width="0.3"/>
<mask id="path-2-inside-1_6928_10243" fill="white">
<path fill-rule="evenodd" clip-rule="evenodd" d="M0.00024918 8.33074L0 8.33095L0.000206484 8.33073L0 8.33071L0.00120504 8.32966L7.29878 0.518066L8.37103 1.07926L8.37121 1.0791L8.90742 9.41005L0.00024918 8.33074Z"/>
</mask>
<path fill-rule="evenodd" clip-rule="evenodd" d="M0.00024918 8.33074L0 8.33095L0.000206484 8.33073L0 8.33071L0.00120504 8.32966L7.29878 0.518066L8.37103 1.07926L8.37121 1.0791L8.90742 9.41005L0.00024918 8.33074Z" fill="url(#paint2_radial_6928_10243)"/>
<path d="M0 8.33095L-0.219326 8.12627L0.196506 8.55764L0 8.33095ZM0.00024918 8.33074L0.0363371 8.03292L-0.0957327 8.01691L-0.196256 8.10405L0.00024918 8.33074ZM0.000206484 8.33073L0.219532 8.53542L0.622771 8.10334L0.0359749 8.03287L0.000206484 8.33073ZM0 8.33071L-0.196417 8.10395L-0.708779 8.54775L-0.0357685 8.62857L0 8.33071ZM0.00120504 8.32966L0.197622 8.55642L0.209605 8.54604L0.220427 8.53446L0.00120504 8.32966ZM7.29878 0.518066L7.43789 0.252269L7.2355 0.146343L7.07956 0.31327L7.29878 0.518066ZM8.37103 1.07926L8.23192 1.34505L8.41295 1.4398L8.56741 1.30604L8.37103 1.07926ZM8.37121 1.0791L8.67059 1.05983L8.63176 0.456635L8.17482 0.852312L8.37121 1.0791ZM8.90742 9.41005L8.87133 9.70787L9.23001 9.75133L9.2068 9.39078L8.90742 9.41005ZM0.196506 8.55764L0.196755 8.55742L-0.196256 8.10405L-0.196506 8.10427L0.196506 8.55764ZM-0.219119 8.12605L-0.219326 8.12627L0.219326 8.53564L0.219532 8.53542L-0.219119 8.12605ZM-0.0357685 8.62857L-0.035562 8.62859L0.0359749 8.03287L0.0357685 8.03285L-0.0357685 8.62857ZM-0.195212 8.1029L-0.196417 8.10395L0.196417 8.55747L0.197622 8.55642L-0.195212 8.1029ZM7.07956 0.31327L-0.218017 8.12487L0.220427 8.53446L7.518 0.722863L7.07956 0.31327ZM8.51014 0.813458L7.43789 0.252269L7.15967 0.783863L8.23192 1.34505L8.51014 0.813458ZM8.17482 0.852312L8.17465 0.852465L8.56741 1.30604L8.56759 1.30589L8.17482 0.852312ZM9.2068 9.39078L8.67059 1.05983L8.07183 1.09837L8.60804 9.42932L9.2068 9.39078ZM-0.0358388 8.62856L8.87133 9.70787L8.94351 9.11223L0.0363371 8.03292L-0.0358388 8.62856Z" fill="url(#paint3_radial_6928_10243)" mask="url(#path-2-inside-1_6928_10243)"/>
<path d="M8.53177 1.23651L14.8385 1.51807L9.0318 9.00518L8.53177 1.23651Z" fill="url(#paint4_radial_6928_10243)" stroke="url(#paint5_radial_6928_10243)" stroke-width="0.3"/>
<path d="M9.21638 9.25636L15.1471 1.60924L22.4522 9.09169L9.21638 9.25636Z" fill="url(#paint6_radial_6928_10243)" stroke="url(#paint7_radial_6928_10243)" stroke-width="0.3"/>
<path d="M15.4667 1.5071L20.8302 1.10893L22.5422 8.75454L15.4667 1.5071Z" fill="url(#paint8_radial_6928_10243)" stroke="url(#paint9_radial_6928_10243)" stroke-width="0.3"/>
<path d="M21.2073 1.42012L27.7042 7.90278L22.9171 9.05595L21.2073 1.42012Z" fill="url(#paint10_radial_6928_10243)" stroke="url(#paint11_radial_6928_10243)" stroke-width="0.3"/>
<path d="M8.79647 9.54769L13.5908 23.3389L0.376529 8.52742L8.79647 9.54769Z" fill="url(#paint12_radial_6928_10243)" stroke="url(#paint13_radial_6928_10243)" stroke-width="0.3"/>
<path d="M9.11727 9.55759L22.5376 9.39063L14.0153 23.647L9.11727 9.55759Z" fill="url(#paint14_radial_6928_10243)" stroke="url(#paint15_radial_6928_10243)" stroke-width="0.3"/>
<path d="M22.9007 9.36848L27.5763 8.24218L14.9595 22.6529L22.9007 9.36848Z" fill="url(#paint16_radial_6928_10243)" stroke="url(#paint17_radial_6928_10243)" stroke-width="0.3"/>
</g>
<defs>
<radialGradient id="paint0_radial_6928_10243" cx="0" cy="0" r="1" gradientUnits="userSpaceOnUse" gradientTransform="translate(9.62589 0.51137) rotate(11.6141) scale(11.9414 48.3179)">
<stop stop-color="#BABABA"/>
<stop offset="0.421875" stop-color="#ADADAD"/>
<stop offset="1" stop-color="#9C9C9C"/>
</radialGradient>
<radialGradient id="paint1_radial_6928_10243" cx="0" cy="0" r="1" gradientUnits="userSpaceOnUse" gradientTransform="translate(9.62589 0.51137) rotate(11.6141) scale(11.9414 48.3179)">
<stop stop-color="#9F9F9F"/>
<stop offset="0.421875" stop-color="#6E6E6E"/>
<stop offset="1" stop-color="#8E8E8E"/>
</radialGradient>
<radialGradient id="paint2_radial_6928_10243" cx="0" cy="0" r="1" gradientUnits="userSpaceOnUse" gradientTransform="translate(1.51859 4.16333) rotate(62.2356) scale(16.3859 138.592)">
<stop stop-color="#B9B9B9"/>
<stop offset="0.666667" stop-color="#C4C4C4"/>
<stop offset="1" stop-color="#D7D7D7"/>
</radialGradient>
<radialGradient id="paint3_radial_6928_10243" cx="0" cy="0" r="1" gradientUnits="userSpaceOnUse" gradientTransform="translate(1.51859 3.80999) rotate(63.746) scale(17.2559 140.467)">
<stop stop-color="#9F9F9F"/>
<stop offset="0.421875" stop-color="#6E6E6E"/>
<stop offset="1" stop-color="#8E8E8E"/>
</radialGradient>
<radialGradient id="paint4_radial_6928_10243" cx="0" cy="0" r="1" gradientUnits="userSpaceOnUse" gradientTransform="translate(12.4951 4.32193) rotate(143.212) scale(6.14202 4.66473)">
<stop stop-color="#B6B6B6"/>
<stop offset="1" stop-color="#B3B3B3"/>
</radialGradient>
<radialGradient id="paint5_radial_6928_10243" cx="0" cy="0" r="1" gradientUnits="userSpaceOnUse" gradientTransform="translate(9.52436 4.16342) rotate(68.2126) scale(15.6148 110.425)">
<stop stop-color="#9F9F9F"/>
<stop offset="0.421875" stop-color="#6E6E6E"/>
<stop offset="1" stop-color="#8E8E8E"/>
</radialGradient>
<radialGradient id="paint6_radial_6928_10243" cx="0" cy="0" r="1" gradientUnits="userSpaceOnUse" gradientTransform="translate(11.2764 4.35366) rotate(49.5619) scale(18.3599 185.979)">
<stop stop-color="#B9B9B9"/>
<stop offset="0.421875" stop-color="#C4C4C4"/>
<stop offset="1" stop-color="#8E8E8E"/>
</radialGradient>
<radialGradient id="paint7_radial_6928_10243" cx="0" cy="0" r="1" gradientUnits="userSpaceOnUse" gradientTransform="translate(11.2764 4.35366) rotate(49.5619) scale(18.3599 185.979)">
<stop stop-color="#9F9F9F"/>
<stop offset="0.421875" stop-color="#6E6E6E"/>
<stop offset="1" stop-color="#8E8E8E"/>
</radialGradient>
<radialGradient id="paint8_radial_6928_10243" cx="0" cy="0" r="1" gradientUnits="userSpaceOnUse" gradientTransform="translate(19.8108 4.17566) rotate(63.9618) scale(11.7438 9.716)">
<stop stop-color="#B6B6B6"/>
<stop offset="1" stop-color="#B3B3B3"/>
</radialGradient>
<radialGradient id="paint9_radial_6928_10243" cx="0" cy="0" r="1" gradientUnits="userSpaceOnUse" gradientTransform="translate(16.4419 4.01797) rotate(65.5028) scale(15.8511 122.722)">
<stop stop-color="#9F9F9F"/>
<stop offset="0.421875" stop-color="#6E6E6E"/>
<stop offset="1" stop-color="#8E8E8E"/>
</radialGradient>
<radialGradient id="paint10_radial_6928_10243" cx="0" cy="0" r="1" gradientUnits="userSpaceOnUse" gradientTransform="translate(22.1504 4.01797) rotate(67.2693) scale(15.6388 114.362)">
<stop stop-color="#BABABA"/>
<stop offset="0.421875" stop-color="#ADADAD"/>
<stop offset="1" stop-color="#9C9C9C"/>
</radialGradient>
<radialGradient id="paint11_radial_6928_10243" cx="0" cy="0" r="1" gradientUnits="userSpaceOnUse" gradientTransform="translate(22.1504 4.01797) rotate(67.2693) scale(15.6388 114.362)">
<stop stop-color="#9F9F9F"/>
<stop offset="0.421875" stop-color="#6E6E6E"/>
<stop offset="1" stop-color="#8E8E8E"/>
</radialGradient>
<radialGradient id="paint12_radial_6928_10243" cx="0" cy="0" r="1" gradientUnits="userSpaceOnUse" gradientTransform="translate(2.38328 14.1316) rotate(66.285) scale(29.7859 225.049)">
<stop stop-color="#B9B9B9"/>
<stop offset="0.421875" stop-color="#C4C4C4"/>
<stop offset="1" stop-color="#8E8E8E"/>
</radialGradient>
<radialGradient id="paint13_radial_6928_10243" cx="0" cy="0" r="1" gradientUnits="userSpaceOnUse" gradientTransform="translate(2.38328 14.1316) rotate(66.285) scale(29.7859 225.049)">
<stop stop-color="#9F9F9F"/>
<stop offset="0.421875" stop-color="#6E6E6E"/>
<stop offset="1" stop-color="#8E8E8E"/>
</radialGradient>
<radialGradient id="paint14_radial_6928_10243" cx="0" cy="0" r="1" gradientUnits="userSpaceOnUse" gradientTransform="translate(14.076 12.5) rotate(77.4712) scale(9.21954 13.9016)">
<stop stop-color="#B9B9B9"/>
<stop offset="0.421875" stop-color="#7E7E7E"/>
<stop offset="0.760417" stop-color="#BEBEBE"/>
<stop offset="1" stop-color="#CCCCCC"/>
</radialGradient>
<radialGradient id="paint15_radial_6928_10243" cx="0" cy="0" r="1" gradientUnits="userSpaceOnUse" gradientTransform="translate(11.2764 14.7026) rotate(65.1323) scale(28.3188 221.697)">
<stop stop-color="#9F9F9F"/>
<stop offset="0.421875" stop-color="#6E6E6E"/>
<stop offset="1" stop-color="#8E8E8E"/>
</radialGradient>
<radialGradient id="paint16_radial_6928_10243" cx="0" cy="0" r="1" gradientUnits="userSpaceOnUse" gradientTransform="translate(16.3698 13.9144) rotate(66.68) scale(30.3509 226.392)">
<stop stop-color="#BABABA"/>
<stop offset="0.421875" stop-color="#ADADAD"/>
<stop offset="1" stop-color="#9C9C9C"/>
</radialGradient>
<radialGradient id="paint17_radial_6928_10243" cx="0" cy="0" r="1" gradientUnits="userSpaceOnUse" gradientTransform="translate(16.3698 13.9144) rotate(66.68) scale(30.3509 226.392)">
<stop stop-color="#9F9F9F"/>
<stop offset="0.421875" stop-color="#6E6E6E"/>
<stop offset="1" stop-color="#8E8E8E"/>
</radialGradient>
</defs>
</svg>
