<svg width="26" height="26" viewBox="0 0 26 26" fill="none" xmlns="http://www.w3.org/2000/svg">
<rect width="26" height="26" fill="#151515"/>
<g id="Components">
<path d="M-4699 -1900C-4699 -1901.1 -4698.1 -1902 -4697 -1902H5918C5919.1 -1902 5920 -1901.1 5920 -1900V1778C5920 1779.1 5919.1 1780 5918 1780H-4697C-4698.1 1780 -4699 1779.1 -4699 1778V-1900Z" fill="#1C1C1C"/>
<g id="offer a prize progress">
<g id="Property 1=1. Prize Info">
<g id="Group 3553">
<g id="Group 3526">
<circle id="Ellipse 165" cx="13" cy="13" r="12.5" fill="#212130" stroke="url(#paint0_linear_6001_4739)"/>
<g id="info-circle">
<g id="Group 3491">
<path id="Vector" d="M12.4612 6.15016L16.7926 6.25632L17.0789 6.48887L13.7268 6.73772L9.42132 6.5455L9.21472 6.43737L12.4612 6.15016Z" fill="url(#paint1_radial_6001_4739)" stroke="url(#paint2_radial_6001_4739)" stroke-width="0.3"/>
<g id="Union">
<mask id="path-6-inside-1_6001_4739" fill="white">
<path fill-rule="evenodd" clip-rule="evenodd" d="M4.00015 11.3554L4 11.3556L4.00013 11.3554L4 11.3554L4.00074 11.3548L8.69205 6.33301L9.38136 6.69377L9.38147 6.69368L9.72617 12.0493L4.00015 11.3554Z"/>
</mask>
<path fill-rule="evenodd" clip-rule="evenodd" d="M4.00015 11.3554L4 11.3556L4.00013 11.3554L4 11.3554L4.00074 11.3548L8.69205 6.33301L9.38136 6.69377L9.38147 6.69368L9.72617 12.0493L4.00015 11.3554Z" fill="url(#paint3_radial_6001_4739)"/>
<path d="M4 11.3556L3.78069 11.1508L4.19639 11.5823L4 11.3556ZM4.00015 11.3554L4.03624 11.0576L3.90427 11.0416L3.80377 11.1286L4.00015 11.3554ZM4.00013 11.3554L4.21943 11.5601L4.62266 11.1281L4.03596 11.0576L4.00013 11.3554ZM4 11.3554L3.80357 11.1287L3.29143 11.5723L3.96417 11.6533L4 11.3554ZM4.00074 11.3548L4.19717 11.5815L4.20915 11.5711L4.21996 11.5596L4.00074 11.3548ZM8.69205 6.33301L8.83117 6.06721L8.62877 5.96128L8.47283 6.12821L8.69205 6.33301ZM9.38136 6.69377L9.24225 6.95957L9.42335 7.05435L9.57782 6.92049L9.38136 6.69377ZM9.38147 6.69368L9.68085 6.67441L9.642 6.07093L9.185 6.46696L9.38147 6.69368ZM9.72617 12.0493L9.69009 12.3471L10.0488 12.3905L10.0256 12.03L9.72617 12.0493ZM4.19639 11.5823L4.19654 11.5822L3.80377 11.1286L3.80361 11.1288L4.19639 11.5823ZM3.78082 11.1507L3.78069 11.1508L4.21931 11.5603L4.21943 11.5601L3.78082 11.1507ZM3.96417 11.6533L3.9643 11.6533L4.03596 11.0576L4.03583 11.0576L3.96417 11.6533ZM3.80431 11.128L3.80357 11.1287L4.19643 11.5821L4.19717 11.5815L3.80431 11.128ZM8.47283 6.12821L3.78152 11.15L4.21996 11.5596L8.91128 6.5378L8.47283 6.12821ZM9.52047 6.42797L8.83117 6.06721L8.55294 6.5988L9.24225 6.95957L9.52047 6.42797ZM9.185 6.46696L9.18489 6.46705L9.57782 6.92049L9.57793 6.92039L9.185 6.46696ZM10.0256 12.03L9.68085 6.67441L9.08209 6.71295L9.42679 12.0685L10.0256 12.03ZM3.96407 11.6532L9.69009 12.3471L9.76226 11.7514L4.03624 11.0576L3.96407 11.6532Z" fill="url(#paint4_radial_6001_4739)" mask="url(#path-6-inside-1_6001_4739)"/>
</g>
<path id="Vector_2" d="M9.54203 6.85116L13.4333 7.02489L9.85054 11.6445L9.54203 6.85116Z" fill="url(#paint5_radial_6001_4739)" stroke="url(#paint6_radial_6001_4739)" stroke-width="0.3"/>
<path id="Vector_3" d="M10.0352 11.8956L13.7421 7.11596L18.3079 11.7926L10.0352 11.8956Z" fill="url(#paint7_radial_6001_4739)" stroke="url(#paint8_radial_6001_4739)" stroke-width="0.3"/>
<path id="Vector_4" d="M14.0616 7.0138L17.3487 6.76977L18.398 11.4555L14.0616 7.0138Z" fill="url(#paint9_radial_6001_4739)" stroke="url(#paint10_radial_6001_4739)" stroke-width="0.3"/>
<path id="Vector_5" d="M17.7258 7.08097L21.7043 11.0507L18.7729 11.7569L17.7258 7.08097Z" fill="url(#paint11_radial_6001_4739)" stroke="url(#paint12_radial_6001_4739)" stroke-width="0.3"/>
<path id="Vector_6" d="M9.61547 12.1872L12.5984 20.7678L4.37677 11.5524L9.61547 12.1872Z" fill="url(#paint13_radial_6001_4739)" stroke="url(#paint14_radial_6001_4739)" stroke-width="0.3"/>
<path id="Vector_7" d="M9.93612 12.1968L18.3933 12.0916L13.0227 21.0756L9.93612 12.1968Z" fill="url(#paint15_radial_6001_4739)" stroke="url(#paint16_radial_6001_4739)" stroke-width="0.3"/>
<path id="Vector_8" d="M18.7563 12.0695L21.5762 11.3902L13.9668 20.0815L18.7563 12.0695Z" fill="url(#paint17_radial_6001_4739)" stroke="url(#paint18_radial_6001_4739)" stroke-width="0.3"/>
</g>
</g>
</g>
</g>
</g>
<rect x="-19.5" y="-31.5" width="2226" height="431" rx="4.5" stroke="#9747FF" stroke-dasharray="10 5"/>
</g>
<path d="M-4697 -1901H5918V-1903H-4697V-1901ZM5919 -1900V1778H5921V-1900H5919ZM5918 1779H-4697V1781H5918V1779ZM-4698 1778V-1900H-4700V1778H-4698ZM-4697 1779C-4697.55 1779 -4698 1778.55 -4698 1778H-4700C-4700 1779.66 -4698.66 1781 -4697 1781V1779ZM5919 1778C5919 1778.55 5918.55 1779 5918 1779V1781C5919.66 1781 5921 1779.66 5921 1778H5919ZM5918 -1901C5918.55 -1901 5919 -1900.55 5919 -1900H5921C5921 -1901.66 5919.66 -1903 5918 -1903V-1901ZM-4697 -1903C-4698.66 -1903 -4700 -1901.66 -4700 -1900H-4698C-4698 -1900.55 -4697.55 -1901 -4697 -1901V-1903Z" fill="white" fill-opacity="0.1"/>
</g>
<defs>
<linearGradient id="paint0_linear_6001_4739" x1="-1.54545" y1="13" x2="29.3349" y2="13.728" gradientUnits="userSpaceOnUse">
<stop stop-color="#4BF2A2"/>
<stop offset="0.522948" stop-color="#A89FE7"/>
<stop offset="0.669499" stop-color="#E1C4F4"/>
<stop offset="1" stop-color="#DD40CD"/>
</linearGradient>
<radialGradient id="paint1_radial_6001_4739" cx="0" cy="0" r="1" gradientUnits="userSpaceOnUse" gradientTransform="translate(10.1879 6.32874) rotate(11.6141) scale(7.6766 31.0614)">
<stop stop-color="#89EABB"/>
<stop offset="0.421875" stop-color="#9084D7"/>
<stop offset="1" stop-color="#E059D3"/>
</radialGradient>
<radialGradient id="paint2_radial_6001_4739" cx="0" cy="0" r="1" gradientUnits="userSpaceOnUse" gradientTransform="translate(10.1879 6.32874) rotate(11.6141) scale(7.6766 31.0614)">
<stop stop-color="#4BF2A2"/>
<stop offset="0.421875" stop-color="#564D8F"/>
<stop offset="1" stop-color="#DD40CD"/>
</radialGradient>
<radialGradient id="paint3_radial_6001_4739" cx="0" cy="0" r="1" gradientUnits="userSpaceOnUse" gradientTransform="translate(4.97625 8.67645) rotate(62.2358) scale(10.534 89.0959)">
<stop stop-color="#81F0BB"/>
<stop offset="0.666667" stop-color="#AAA0E8"/>
<stop offset="1" stop-color="#EAAFFF"/>
</radialGradient>
<radialGradient id="paint4_radial_6001_4739" cx="0" cy="0" r="1" gradientUnits="userSpaceOnUse" gradientTransform="translate(4.97625 8.4493) rotate(63.7463) scale(11.0933 90.3013)">
<stop stop-color="#4BF2A2"/>
<stop offset="0.421875" stop-color="#564D8F"/>
<stop offset="1" stop-color="#DD40CD"/>
</radialGradient>
<radialGradient id="paint5_radial_6001_4739" cx="0" cy="0" r="1" gradientUnits="userSpaceOnUse" gradientTransform="translate(12.0325 8.77845) rotate(143.212) scale(3.94842 2.99875)">
<stop stop-color="#8877F5"/>
<stop offset="1" stop-color="#7AECB5"/>
</radialGradient>
<radialGradient id="paint6_radial_6001_4739" cx="0" cy="0" r="1" gradientUnits="userSpaceOnUse" gradientTransform="translate(10.1228 8.67655) rotate(68.2126) scale(10.038 70.9872)">
<stop stop-color="#4BF2A2"/>
<stop offset="0.421875" stop-color="#564D8F"/>
<stop offset="1" stop-color="#DD40CD"/>
</radialGradient>
<radialGradient id="paint7_radial_6001_4739" cx="0" cy="0" r="1" gradientUnits="userSpaceOnUse" gradientTransform="translate(11.2491 8.79879) rotate(49.5618) scale(11.8028 119.557)">
<stop stop-color="#81F0BB"/>
<stop offset="0.421875" stop-color="#AAA0E8"/>
<stop offset="1" stop-color="#DD40CD"/>
</radialGradient>
<radialGradient id="paint8_radial_6001_4739" cx="0" cy="0" r="1" gradientUnits="userSpaceOnUse" gradientTransform="translate(11.2491 8.79879) rotate(49.5618) scale(11.8028 119.557)">
<stop stop-color="#4BF2A2"/>
<stop offset="0.421875" stop-color="#564D8F"/>
<stop offset="1" stop-color="#DD40CD"/>
</radialGradient>
<radialGradient id="paint9_radial_6001_4739" cx="0" cy="0" r="1" gradientUnits="userSpaceOnUse" gradientTransform="translate(16.7356 8.68439) rotate(63.9618) scale(7.54953 6.24597)">
<stop stop-color="#8877F5"/>
<stop offset="1" stop-color="#7AECB5"/>
</radialGradient>
<radialGradient id="paint10_radial_6001_4739" cx="0" cy="0" r="1" gradientUnits="userSpaceOnUse" gradientTransform="translate(14.5698 8.58302) rotate(65.5028) scale(10.1899 78.8925)">
<stop stop-color="#4BF2A2"/>
<stop offset="0.421875" stop-color="#564D8F"/>
<stop offset="1" stop-color="#DD40CD"/>
</radialGradient>
<radialGradient id="paint11_radial_6001_4739" cx="0" cy="0" r="1" gradientUnits="userSpaceOnUse" gradientTransform="translate(18.2396 8.58302) rotate(67.2693) scale(10.0535 73.5179)">
<stop stop-color="#89EABB"/>
<stop offset="0.421875" stop-color="#9084D7"/>
<stop offset="1" stop-color="#E059D3"/>
</radialGradient>
<radialGradient id="paint12_radial_6001_4739" cx="0" cy="0" r="1" gradientUnits="userSpaceOnUse" gradientTransform="translate(18.2396 8.58302) rotate(67.2693) scale(10.0535 73.5179)">
<stop stop-color="#4BF2A2"/>
<stop offset="0.421875" stop-color="#564D8F"/>
<stop offset="1" stop-color="#DD40CD"/>
</radialGradient>
<radialGradient id="paint13_radial_6001_4739" cx="0" cy="0" r="1" gradientUnits="userSpaceOnUse" gradientTransform="translate(5.53235 15.0848) rotate(66.285) scale(19.148 144.674)">
<stop stop-color="#81F0BB"/>
<stop offset="0.421875" stop-color="#AAA0E8"/>
<stop offset="1" stop-color="#DD40CD"/>
</radialGradient>
<radialGradient id="paint14_radial_6001_4739" cx="0" cy="0" r="1" gradientUnits="userSpaceOnUse" gradientTransform="translate(5.53235 15.0848) rotate(66.285) scale(19.148 144.674)">
<stop stop-color="#4BF2A2"/>
<stop offset="0.421875" stop-color="#564D8F"/>
<stop offset="1" stop-color="#DD40CD"/>
</radialGradient>
<radialGradient id="paint15_radial_6001_4739" cx="0" cy="0" r="1" gradientUnits="userSpaceOnUse" gradientTransform="translate(13.0489 14.0357) rotate(77.4712) scale(5.92682 8.93668)">
<stop stop-color="#81F0BB"/>
<stop offset="0.421875" stop-color="#4EAE9D"/>
<stop offset="0.760417" stop-color="#9D8FEC"/>
<stop offset="1" stop-color="#F2A6EB"/>
</radialGradient>
<radialGradient id="paint16_radial_6001_4739" cx="0" cy="0" r="1" gradientUnits="userSpaceOnUse" gradientTransform="translate(11.2491 15.4516) rotate(65.1323) scale(18.2049 142.519)">
<stop stop-color="#4BF2A2"/>
<stop offset="0.421875" stop-color="#564D8F"/>
<stop offset="1" stop-color="#DD40CD"/>
</radialGradient>
<radialGradient id="paint17_radial_6001_4739" cx="0" cy="0" r="1" gradientUnits="userSpaceOnUse" gradientTransform="translate(14.5234 14.945) rotate(66.68) scale(19.5112 145.537)">
<stop stop-color="#89EABB"/>
<stop offset="0.421875" stop-color="#9084D7"/>
<stop offset="1" stop-color="#E059D3"/>
</radialGradient>
<radialGradient id="paint18_radial_6001_4739" cx="0" cy="0" r="1" gradientUnits="userSpaceOnUse" gradientTransform="translate(14.5234 14.945) rotate(66.68) scale(19.5112 145.537)">
<stop stop-color="#4BF2A2"/>
<stop offset="0.421875" stop-color="#564D8F"/>
<stop offset="1" stop-color="#DD40CD"/>
</radialGradient>
</defs>
</svg>
