<svg width="12" height="13" viewBox="0 0 12 13" fill="none" xmlns="http://www.w3.org/2000/svg">
<path id="Subtract" fill-rule="evenodd" clip-rule="evenodd" d="M12 6.02441C12 9.33812 9.31371 12.0244 6 12.0244C2.68629 12.0244 0 9.33812 0 6.02441C0 2.71071 2.68629 0.0244141 6 0.0244141C9.31371 0.0244141 12 2.71071 12 6.02441ZM5.4375 2.74805C5.4375 2.4719 5.66136 2.24805 5.9375 2.24805H6.0625C6.33864 2.24805 6.5625 2.4719 6.5625 2.74805V7.05106C6.5625 7.3272 6.33864 7.55106 6.0625 7.55106H5.9375C5.66136 7.55106 5.4375 7.3272 5.4375 7.05106V2.74805ZM5.9375 8.30096C5.66136 8.30096 5.4375 8.52482 5.4375 8.80096V9.30096C5.4375 9.57711 5.66136 9.80096 5.9375 9.80096H6.0625C6.33864 9.80096 6.5625 9.57711 6.5625 9.30096V8.80096C6.5625 8.52482 6.33864 8.30096 6.0625 8.30096H5.9375Z" fill="#EA5365"/>
</svg>
