<svg width="26" height="26" viewBox="0 0 26 26" fill="none" xmlns="http://www.w3.org/2000/svg">
<rect width="26" height="26" fill="#151515"/>
<path d="M-4699 -2250C-4699 -2251.1 -4698.1 -2252 -4697 -2252H5918C5919.1 -2252 5920 -2251.1 5920 -2250V1428C5920 1429.1 5919.1 1430 5918 1430H-4697C-4698.1 1430 -4699 1429.1 -4699 1428V-2250Z" fill="#1C1C1C"/>
<rect x="12" y="-48" width="2" height="55" rx="1" fill="#303043"/>
<circle cx="13" cy="13" r="12.5" fill="#1B1B29" stroke="#67677B"/>
<path d="M15.3027 13.0601C15.3027 14.3027 14.2954 15.3101 13.0527 15.3101C11.8101 15.3101 10.8027 14.3027 10.8027 13.0601C10.8027 11.8174 11.8101 10.8101 13.0527 10.8101C14.2954 10.8101 15.3027 11.8174 15.3027 13.0601Z" fill="#67677B"/>
<circle cx="19.4253" cy="13.0601" r="2.25" fill="#67677B"/>
<circle cx="6.68018" cy="13.0601" r="2.25" fill="#67677B"/>
<rect x="-19.5" y="-381.5" width="2226" height="431" rx="4.5" stroke="#9747FF" stroke-dasharray="10 5"/>
<path d="M-4697 -2251H5918V-2253H-4697V-2251ZM5919 -2250V1428H5921V-2250H5919ZM5918 1429H-4697V1431H5918V1429ZM-4698 1428V-2250H-4700V1428H-4698ZM-4697 1429C-4697.55 1429 -4698 1428.55 -4698 1428H-4700C-4700 1429.66 -4698.66 1431 -4697 1431V1429ZM5919 1428C5919 1428.55 5918.55 1429 5918 1429V1431C5919.66 1431 5921 1429.66 5921 1428H5919ZM5918 -2251C5918.55 -2251 5919 -2250.55 5919 -2250H5921C5921 -2251.66 5919.66 -2253 5918 -2253V-2251ZM-4697 -2253C-4698.66 -2253 -4700 -2251.66 -4700 -2250H-4698C-4698 -2250.55 -4697.55 -2251 -4697 -2251V-2253Z" fill="white" fill-opacity="0.1"/>
</svg>
