<svg width="26" height="26" viewBox="0 0 26 26" fill="none" xmlns="http://www.w3.org/2000/svg">
<rect width="26" height="26" fill="#151515"/>
<g clip-path="url(#clip0_6001_4739)">
<rect width="1440" height="1392" transform="translate(-261 -722)" fill="#10101B"/>
<path d="M-36 -330C-36 -337.732 -29.732 -344 -22 -344H312C319.732 -344 326 -337.732 326 -330V146C326 153.732 319.732 160 312 160H-22C-29.732 160 -36 153.732 -36 146V-330Z" fill="#161623"/>
<path d="M-36 -330C-36 -337.732 -29.732 -344 -22 -344H312C319.732 -344 326 -337.732 326 -330V146C326 153.732 319.732 160 312 160H-22C-29.732 160 -36 153.732 -36 146V-330Z" fill="#161623"/>
<mask id="mask0_6001_4739" style="mask-type:alpha" maskUnits="userSpaceOnUse" x="-36" y="-344" width="362" height="504">
<path d="M-36 -330C-36 -337.732 -29.732 -344 -22 -344H312C319.732 -344 326 -337.732 326 -330V146C326 153.732 319.732 160 312 160H-22C-29.732 160 -36 153.732 -36 146V-330Z" fill="#161623"/>
</mask>
<g mask="url(#mask0_6001_4739)">
<rect opacity="0.8" x="-350.822" y="-659" width="1047.2" height="847.242" rx="14" fill="url(#paint0_radial_6001_4739)"/>
</g>
<rect x="12" y="-52" width="2" height="55" rx="1" fill="#274641"/>
<rect x="12" y="22" width="2" height="55" rx="1" fill="#303043"/>
<circle cx="13" cy="13" r="12.5" fill="#1B1B29" stroke="url(#paint1_linear_6001_4739)"/>
<path fill-rule="evenodd" clip-rule="evenodd" d="M13.75 7V6.25H12.25V7V7.58984H11.6119C10.0961 7.58984 8.92188 8.86796 8.92188 10.3698C8.92188 11.0872 9.07866 11.6822 9.44537 12.15C9.80512 12.609 10.2922 12.8476 10.7413 13.0068L10.7413 13.0068L10.7458 13.0083L12.25 13.5309V16.9098H11.8919C11.11 16.9098 10.4219 16.2404 10.4219 15.3298V14.5798H8.92188V15.3298C8.92188 16.9993 10.2137 18.4098 11.8919 18.4098H12.25V19V19.75H13.75V19V18.4098H14.4019C15.9177 18.4098 17.0919 17.1317 17.0919 15.6298C17.0919 14.9125 16.9351 14.3174 16.5684 13.8496C16.2086 13.3907 15.7216 13.1521 15.2724 12.9929L15.2724 12.9929L15.268 12.9914L13.75 12.464V9.08984H14.1219C14.9037 9.08984 15.5919 9.75926 15.5919 10.6698V11.4198H17.0919V10.6698C17.0919 9.00043 15.8 7.58984 14.1219 7.58984H13.75V7ZM12.25 9.08984H11.6119C10.9877 9.08984 10.4219 9.63173 10.4219 10.3698C10.4219 10.8725 10.5301 11.1024 10.6259 11.2246C10.7284 11.3554 10.9009 11.4716 11.2403 11.5922L12.25 11.9429V9.08984ZM13.75 14.052V16.9098H14.4019C15.0261 16.9098 15.5919 16.368 15.5919 15.6298C15.5919 15.1272 15.4837 14.8972 15.3879 14.775C15.2853 14.6442 15.1129 14.5281 14.7735 14.4075L13.75 14.052Z" fill="white"/>
</g>
<defs>
<radialGradient id="paint0_radial_6001_4739" cx="0" cy="0" r="1" gradientUnits="userSpaceOnUse" gradientTransform="translate(-2.10944 -250.509) rotate(36.6144) scale(846.963 950.917)">
<stop stop-color="#1F343E"/>
<stop offset="0.3308" stop-color="#171B25" stop-opacity="0.71"/>
<stop offset="0.752684" stop-color="#161623"/>
</radialGradient>
<linearGradient id="paint1_linear_6001_4739" x1="-1.54545" y1="13" x2="29.3349" y2="13.728" gradientUnits="userSpaceOnUse">
<stop stop-color="#4BF2A2"/>
<stop offset="0.522948" stop-color="#A89FE7"/>
<stop offset="0.669499" stop-color="#E1C4F4"/>
<stop offset="1" stop-color="#DD40CD"/>
</linearGradient>
<clipPath id="clip0_6001_4739">
<rect width="1440" height="1392" fill="white" transform="translate(-261 -722)"/>
</clipPath>
</defs>
</svg>
