<svg width="26" height="26" viewBox="0 0 26 26" fill="none" xmlns="http://www.w3.org/2000/svg">
<rect width="26" height="26" fill="#151515"/>
<g clip-path="url(#clip0_6001_4739)">
<rect width="1440" height="1392" transform="translate(-261 -512)" fill="#10101B"/>
<rect x="-36" y="-134" width="362" height="504" rx="12" fill="#161623"/>
<rect x="-36" y="-134" width="362" height="504" rx="12" fill="#161623"/>
<mask id="mask0_6001_4739" style="mask-type:alpha" maskUnits="userSpaceOnUse" x="-36" y="-134" width="362" height="504">
<rect x="-36" y="-134" width="362" height="504" rx="12" fill="#161623"/>
</mask>
<g mask="url(#mask0_6001_4739)">
<rect opacity="0.8" x="-350.822" y="-449" width="1047.2" height="847.242" rx="12" fill="url(#paint0_radial_6001_4739)"/>
</g>
<rect x="12" y="-51" width="2" height="54" rx="1" fill="#274641"/>
<rect x="12" y="24" width="2" height="49" rx="1" fill="#303043"/>
<circle cx="13" cy="13" r="12.5" fill="#1B1B29" stroke="url(#paint1_linear_6001_4739)"/>
<mask id="path-8-outside-1_6001_4739" maskUnits="userSpaceOnUse" x="11.2673" y="4.3689" width="7" height="15" fill="black">
<rect fill="white" x="11.2673" y="4.3689" width="7" height="15"/>
<path fill-rule="evenodd" clip-rule="evenodd" d="M13.5673 5.7589C13.5673 5.54351 13.3927 5.3689 13.1773 5.3689H12.6573C12.4419 5.3689 12.2673 5.54351 12.2673 5.7589V13.938C12.2673 14.0778 12.3409 14.2004 12.4514 14.2692L16.6992 18.517C16.8515 18.6693 17.0984 18.6693 17.2507 18.517L17.6184 18.1493C17.7707 17.997 17.7707 17.7501 17.6184 17.5978L13.5673 13.5467L13.5673 5.7589Z"/>
</mask>
<path fill-rule="evenodd" clip-rule="evenodd" d="M13.5673 5.7589C13.5673 5.54351 13.3927 5.3689 13.1773 5.3689H12.6573C12.4419 5.3689 12.2673 5.54351 12.2673 5.7589V13.938C12.2673 14.0778 12.3409 14.2004 12.4514 14.2692L16.6992 18.517C16.8515 18.6693 17.0984 18.6693 17.2507 18.517L17.6184 18.1493C17.7707 17.997 17.7707 17.7501 17.6184 17.5978L13.5673 13.5467L13.5673 5.7589Z" fill="white"/>
<path d="M13.5673 5.7589L14.0673 5.7589V5.7589L13.5673 5.7589ZM12.4514 14.2692L12.8049 13.9157L12.7644 13.8752L12.7158 13.8449L12.4514 14.2692ZM16.6992 18.517L16.3456 18.8706L16.6992 18.517ZM17.2507 18.517L16.8972 18.1635L17.2507 18.517ZM17.6184 18.1493L17.972 18.5029L17.972 18.5029L17.6184 18.1493ZM17.6184 17.5978L17.972 17.2442L17.6184 17.5978ZM13.5673 13.5467H13.0673V13.7538L13.2138 13.9003L13.5673 13.5467ZM13.1773 5.8689C13.1166 5.8689 13.0673 5.81965 13.0673 5.7589L14.0673 5.7589C14.0673 5.26736 13.6689 4.8689 13.1773 4.8689V5.8689ZM12.6573 5.8689H13.1773V4.8689H12.6573V5.8689ZM12.7673 5.7589C12.7673 5.81965 12.7181 5.8689 12.6573 5.8689V4.8689C12.1658 4.8689 11.7673 5.26736 11.7673 5.7589H12.7673ZM12.7673 13.938V5.7589H11.7673V13.938H12.7673ZM12.7158 13.8449C12.7457 13.8635 12.7673 13.898 12.7673 13.938H11.7673C11.7673 14.2575 11.9361 14.5373 12.187 14.6936L12.7158 13.8449ZM17.0527 18.1635L12.8049 13.9157L12.0978 14.6228L16.3456 18.8706L17.0527 18.1635ZM16.8972 18.1635C16.9401 18.1205 17.0098 18.1205 17.0527 18.1635L16.3456 18.8706C16.6932 19.2182 17.2567 19.2182 17.6043 18.8706L16.8972 18.1635ZM17.2649 17.7958L16.8972 18.1635L17.6043 18.8706L17.972 18.5029L17.2649 17.7958ZM17.2649 17.9514C17.2219 17.9084 17.2219 17.8387 17.2649 17.7958L17.972 18.5029C18.3196 18.1553 18.3196 17.5918 17.972 17.2442L17.2649 17.9514ZM13.2138 13.9003L17.2649 17.9514L17.972 17.2442L13.9209 13.1931L13.2138 13.9003ZM13.0673 5.7589L13.0673 13.5467H14.0673L14.0673 5.7589L13.0673 5.7589Z" fill="white" mask="url(#path-8-outside-1_6001_4739)"/>
</g>
<defs>
<radialGradient id="paint0_radial_6001_4739" cx="0" cy="0" r="1" gradientUnits="userSpaceOnUse" gradientTransform="translate(-2.10932 -40.5085) rotate(36.6144) scale(846.963 950.917)">
<stop stop-color="#1F343E"/>
<stop offset="0.3308" stop-color="#171B25" stop-opacity="0.71"/>
<stop offset="0.752684" stop-color="#161623"/>
</radialGradient>
<linearGradient id="paint1_linear_6001_4739" x1="-1.54545" y1="13" x2="29.3349" y2="13.728" gradientUnits="userSpaceOnUse">
<stop stop-color="#4BF2A2"/>
<stop offset="0.522948" stop-color="#A89FE7"/>
<stop offset="0.669499" stop-color="#E1C4F4"/>
<stop offset="1" stop-color="#DD40CD"/>
</linearGradient>
<clipPath id="clip0_6001_4739">
<rect width="1440" height="1392" fill="white" transform="translate(-261 -512)"/>
</clipPath>
</defs>
</svg>
