<svg width="26" height="26" viewBox="0 0 26 26" fill="none" xmlns="http://www.w3.org/2000/svg">
<rect width="26" height="26" fill="#151515"/>
<g clip-path="url(#clip0_6001_4739)">
<rect width="1440" height="1392" transform="translate(-261 -512)" fill="#10101B"/>
<rect x="-36" y="-134" width="362" height="504" rx="12" fill="#161623"/>
<rect x="-36" y="-134" width="362" height="504" rx="12" fill="#161623"/>
<mask id="mask0_6001_4739" style="mask-type:alpha" maskUnits="userSpaceOnUse" x="-36" y="-134" width="362" height="504">
<rect x="-36" y="-134" width="362" height="504" rx="12" fill="#161623"/>
</mask>
<g mask="url(#mask0_6001_4739)">
<rect opacity="0.8" x="-350.822" y="-449" width="1047.2" height="847.242" rx="12" fill="url(#paint0_radial_6001_4739)"/>
</g>
<rect x="12" y="-44" width="2" height="47" rx="1" fill="#303043"/>
<rect x="12" y="24" width="2" height="49" rx="1" fill="#303043"/>
<circle cx="13" cy="13" r="12.5" fill="#1B1B29" stroke="#67677B"/>
<mask id="path-8-outside-1_6001_4739" maskUnits="userSpaceOnUse" x="11" y="4" width="7" height="15" fill="black">
<rect fill="white" x="11" y="4" width="7" height="15"/>
<path fill-rule="evenodd" clip-rule="evenodd" d="M13.3 5.39C13.3 5.17461 13.1254 5 12.91 5H12.39C12.1746 5 12 5.17461 12 5.39V13.5691C12 13.7089 12.0735 13.8315 12.184 13.9003L16.4319 18.1481C16.5842 18.3004 16.8311 18.3004 16.9834 18.1481L17.3511 17.7804C17.5034 17.6281 17.5034 17.3812 17.3511 17.2289L13.3 13.1778L13.3 5.39Z"/>
</mask>
<path fill-rule="evenodd" clip-rule="evenodd" d="M13.3 5.39C13.3 5.17461 13.1254 5 12.91 5H12.39C12.1746 5 12 5.17461 12 5.39V13.5691C12 13.7089 12.0735 13.8315 12.184 13.9003L16.4319 18.1481C16.5842 18.3004 16.8311 18.3004 16.9834 18.1481L17.3511 17.7804C17.5034 17.6281 17.5034 17.3812 17.3511 17.2289L13.3 13.1778L13.3 5.39Z" fill="#67677B"/>
<path d="M13.3 5.39L13.8 5.39V5.39L13.3 5.39ZM12.184 13.9003L12.5376 13.5468L12.4971 13.5063L12.4485 13.476L12.184 13.9003ZM16.4319 18.1481L16.0783 18.5017L16.4319 18.1481ZM16.9834 18.1481L16.6298 17.7946L16.9834 18.1481ZM17.3511 17.7804L17.7047 18.134L17.7047 18.134L17.3511 17.7804ZM17.3511 17.2289L17.7047 16.8753L17.3511 17.2289ZM13.3 13.1778H12.8V13.3849L12.9464 13.5314L13.3 13.1778ZM12.91 5.5C12.8492 5.5 12.8 5.45075 12.8 5.39L13.8 5.39C13.8 4.89847 13.4015 4.5 12.91 4.5V5.5ZM12.39 5.5H12.91V4.5H12.39V5.5ZM12.5 5.39C12.5 5.45075 12.4508 5.5 12.39 5.5V4.5C11.8985 4.5 11.5 4.89847 11.5 5.39H12.5ZM12.5 13.5691V5.39H11.5V13.5691H12.5ZM12.4485 13.476C12.4783 13.4946 12.5 13.5291 12.5 13.5691H11.5C11.5 13.8886 11.6688 14.1684 11.9196 14.3247L12.4485 13.476ZM16.7854 17.7946L12.5376 13.5468L11.8305 14.2539L16.0783 18.5017L16.7854 17.7946ZM16.6298 17.7946C16.6728 17.7516 16.7425 17.7516 16.7854 17.7946L16.0783 18.5017C16.4259 18.8493 16.9894 18.8493 17.337 18.5017L16.6298 17.7946ZM16.9975 17.4269L16.6298 17.7946L17.337 18.5017L17.7047 18.134L16.9975 17.4269ZM16.9975 17.5825C16.9546 17.5395 16.9546 17.4699 16.9975 17.4269L17.7047 18.134C18.0522 17.7864 18.0522 17.2229 17.7047 16.8753L16.9975 17.5825ZM12.9464 13.5314L16.9975 17.5825L17.7047 16.8753L13.6536 12.8243L12.9464 13.5314ZM12.8 5.39L12.8 13.1778H13.8L13.8 5.39L12.8 5.39Z" fill="#67677B" mask="url(#path-8-outside-1_6001_4739)"/>
</g>
<defs>
<radialGradient id="paint0_radial_6001_4739" cx="0" cy="0" r="1" gradientUnits="userSpaceOnUse" gradientTransform="translate(-2.10935 -40.5085) rotate(36.6144) scale(846.963 950.917)">
<stop stop-color="#1F343E"/>
<stop offset="0.3308" stop-color="#171B25" stop-opacity="0.71"/>
<stop offset="0.752684" stop-color="#161623"/>
</radialGradient>
<clipPath id="clip0_6001_4739">
<rect width="1440" height="1392" fill="white" transform="translate(-261 -512)"/>
</clipPath>
</defs>
</svg>
