<svg width="68" height="77" viewBox="0 0 68 77" fill="none" xmlns="http://www.w3.org/2000/svg">
<g id="Subtract">
<mask id="path-1-inside-1_7059_2458" fill="white">
<path fill-rule="evenodd" clip-rule="evenodd" d="M30.8592 0.846229C32.8027 -0.282077 35.1973 -0.282076 37.1408 0.84623L64.8592 16.9381C66.8027 18.0664 68 20.1516 68 22.4082V54.5918C68 56.8484 66.8027 58.9336 64.8592 60.0619L37.1408 76.1538C35.1973 77.2821 32.8027 77.2821 30.8592 76.1538L3.14078 60.0619C1.19726 58.9336 0 56.8484 0 54.5918V22.4082C0 20.1516 1.19726 18.0664 3.14079 16.9381L30.8592 0.846229ZM58.5729 21.8267L35.5228 8.26787C34.5786 7.71247 33.4209 7.71247 32.4767 8.26787L9.42664 21.8267C8.47763 22.385 7.87344 23.4313 7.87344 24.5849V51.7026C7.87344 52.8563 8.47764 53.9026 9.42664 54.4608L32.4767 68.0197C33.4209 68.5751 34.5786 68.5751 35.5228 68.0197L58.5729 54.4608C59.5219 53.9026 60.1261 52.8563 60.1261 51.7026V24.5849C60.1261 23.4313 59.5219 22.385 58.5729 21.8267ZM36.6116 6.41698C34.9954 5.46627 33.0041 5.46627 31.388 6.41698L8.33788 19.9758C6.72169 20.9265 5.72607 22.6835 5.72607 24.5849V51.7026C5.72607 53.604 6.72169 55.361 8.33788 56.3117L31.3879 69.8706C33.0041 70.8213 34.9954 70.8213 36.6116 69.8706L59.6616 56.3117C61.2778 55.361 62.2734 53.604 62.2734 51.7026V24.5849C62.2734 22.6835 61.2778 20.9265 59.6616 19.9758L36.6116 6.41698ZM23.4858 24.7499C23.4858 23.8604 22.7647 23.1393 21.8753 23.1393C20.9858 23.1393 20.2648 23.8604 20.2648 24.7499V41.7442L16.5807 28.8063C16.3607 28.0336 15.6048 27.5412 14.8091 27.6523C14.0134 27.7634 13.4212 28.4439 13.4212 29.2474V49.6969C13.4212 50.5864 14.1423 51.3074 15.0317 51.3074C15.9212 51.3074 16.6423 50.5864 16.6423 49.6969V40.784L20.3263 53.7219C20.5464 54.4946 21.3022 54.987 22.098 54.8759C22.8937 54.7648 23.4858 54.0843 23.4858 53.2808V24.7499ZM33.3416 14.2932C33.8488 13.9981 34.4764 14.0021 34.9798 14.3039L42.5994 18.8716C43.3623 19.329 43.61 20.3182 43.1526 21.0811C42.6953 21.8439 41.7061 22.0916 40.9432 21.6343L34.1395 17.5557L29.4831 20.2656V36.9487H40.2897C41.1792 36.9487 41.9002 37.6697 41.9002 38.5592C41.9002 39.4487 41.1792 40.1697 40.2897 40.1697H29.4831V57.779C29.4831 58.6684 28.762 59.3895 27.8726 59.3895C26.9831 59.3895 26.262 58.6684 26.262 57.779V38.5592V19.3394C26.262 18.766 26.5669 18.2359 27.0625 17.9475L33.3416 14.2932ZM46.3055 21.0734C45.5553 20.5957 44.5597 20.8165 44.082 21.5668C43.6042 22.3171 43.8251 23.3126 44.5753 23.7904L48.1336 26.0563V53.2819C48.1336 54.1714 48.8546 54.8924 49.7441 54.8924C50.6336 54.8924 51.3546 54.1714 51.3546 53.2819V27.9893L53.5836 29.3012C54.3502 29.7524 55.3373 29.4967 55.7885 28.7301C56.2397 27.9636 55.984 26.9764 55.2175 26.5253L50.5854 23.7989L46.3055 21.0734Z"/>
</mask>
<path fill-rule="evenodd" clip-rule="evenodd" d="M30.8592 0.846229C32.8027 -0.282077 35.1973 -0.282076 37.1408 0.84623L64.8592 16.9381C66.8027 18.0664 68 20.1516 68 22.4082V54.5918C68 56.8484 66.8027 58.9336 64.8592 60.0619L37.1408 76.1538C35.1973 77.2821 32.8027 77.2821 30.8592 76.1538L3.14078 60.0619C1.19726 58.9336 0 56.8484 0 54.5918V22.4082C0 20.1516 1.19726 18.0664 3.14079 16.9381L30.8592 0.846229ZM58.5729 21.8267L35.5228 8.26787C34.5786 7.71247 33.4209 7.71247 32.4767 8.26787L9.42664 21.8267C8.47763 22.385 7.87344 23.4313 7.87344 24.5849V51.7026C7.87344 52.8563 8.47764 53.9026 9.42664 54.4608L32.4767 68.0197C33.4209 68.5751 34.5786 68.5751 35.5228 68.0197L58.5729 54.4608C59.5219 53.9026 60.1261 52.8563 60.1261 51.7026V24.5849C60.1261 23.4313 59.5219 22.385 58.5729 21.8267ZM36.6116 6.41698C34.9954 5.46627 33.0041 5.46627 31.388 6.41698L8.33788 19.9758C6.72169 20.9265 5.72607 22.6835 5.72607 24.5849V51.7026C5.72607 53.604 6.72169 55.361 8.33788 56.3117L31.3879 69.8706C33.0041 70.8213 34.9954 70.8213 36.6116 69.8706L59.6616 56.3117C61.2778 55.361 62.2734 53.604 62.2734 51.7026V24.5849C62.2734 22.6835 61.2778 20.9265 59.6616 19.9758L36.6116 6.41698ZM23.4858 24.7499C23.4858 23.8604 22.7647 23.1393 21.8753 23.1393C20.9858 23.1393 20.2648 23.8604 20.2648 24.7499V41.7442L16.5807 28.8063C16.3607 28.0336 15.6048 27.5412 14.8091 27.6523C14.0134 27.7634 13.4212 28.4439 13.4212 29.2474V49.6969C13.4212 50.5864 14.1423 51.3074 15.0317 51.3074C15.9212 51.3074 16.6423 50.5864 16.6423 49.6969V40.784L20.3263 53.7219C20.5464 54.4946 21.3022 54.987 22.098 54.8759C22.8937 54.7648 23.4858 54.0843 23.4858 53.2808V24.7499ZM33.3416 14.2932C33.8488 13.9981 34.4764 14.0021 34.9798 14.3039L42.5994 18.8716C43.3623 19.329 43.61 20.3182 43.1526 21.0811C42.6953 21.8439 41.7061 22.0916 40.9432 21.6343L34.1395 17.5557L29.4831 20.2656V36.9487H40.2897C41.1792 36.9487 41.9002 37.6697 41.9002 38.5592C41.9002 39.4487 41.1792 40.1697 40.2897 40.1697H29.4831V57.779C29.4831 58.6684 28.762 59.3895 27.8726 59.3895C26.9831 59.3895 26.262 58.6684 26.262 57.779V38.5592V19.3394C26.262 18.766 26.5669 18.2359 27.0625 17.9475L33.3416 14.2932ZM46.3055 21.0734C45.5553 20.5957 44.5597 20.8165 44.082 21.5668C43.6042 22.3171 43.8251 23.3126 44.5753 23.7904L48.1336 26.0563V53.2819C48.1336 54.1714 48.8546 54.8924 49.7441 54.8924C50.6336 54.8924 51.3546 54.1714 51.3546 53.2819V27.9893L53.5836 29.3012C54.3502 29.7524 55.3373 29.4967 55.7885 28.7301C56.2397 27.9636 55.984 26.9764 55.2175 26.5253L50.5854 23.7989L46.3055 21.0734Z" fill="url(#paint0_linear_7059_2458)"/>
<path d="M37.1408 0.84623L36.3877 2.14347V2.14347L37.1408 0.84623ZM30.8592 0.846229L30.1061 -0.45101V-0.45101L30.8592 0.846229ZM64.8592 16.9381L65.6123 15.6408V15.6408L64.8592 16.9381ZM64.8592 60.0619L65.6123 61.3592L65.6123 61.3592L64.8592 60.0619ZM37.1408 76.1538L36.3877 74.8565H36.3877L37.1408 76.1538ZM30.8592 76.1538L31.6123 74.8565H31.6123L30.8592 76.1538ZM3.14078 60.0619L2.38768 61.3592H2.38768L3.14078 60.0619ZM3.14079 16.9381L3.89389 18.2353H3.89389L3.14079 16.9381ZM35.5228 8.26787L34.7623 9.56077H34.7623L35.5228 8.26787ZM58.5729 21.8267L57.8123 23.1196L57.8123 23.1196L58.5729 21.8267ZM32.4767 8.26787L33.2372 9.56077L32.4767 8.26787ZM9.42664 21.8267L10.1872 23.1196H10.1872L9.42664 21.8267ZM9.42664 54.4608L10.1872 53.1679H10.1872L9.42664 54.4608ZM32.4767 68.0197L31.7162 69.3126L32.4767 68.0197ZM35.5228 68.0197L36.2833 69.3126L35.5228 68.0197ZM58.5729 54.4608L57.8123 53.1679L57.8123 53.1679L58.5729 54.4608ZM31.388 6.41698L32.1485 7.70988L32.1485 7.70988L31.388 6.41698ZM36.6116 6.41698L37.3721 5.12408L36.6116 6.41698ZM8.33788 19.9758L7.57735 18.6829H7.57735L8.33788 19.9758ZM8.33788 56.3117L7.57735 57.6046H7.57735L8.33788 56.3117ZM31.3879 69.8706L30.6274 71.1635H30.6274L31.3879 69.8706ZM36.6116 69.8706L37.3721 71.1635L36.6116 69.8706ZM59.6616 56.3117L58.9011 55.0188L59.6616 56.3117ZM59.6616 19.9758L58.9011 21.2687L59.6616 19.9758ZM20.2648 41.7442L18.8221 42.155L21.7648 41.7442H20.2648ZM16.5807 28.8063L18.0233 28.3955L18.0233 28.3955L16.5807 28.8063ZM16.6423 40.784L18.0849 40.3732L15.1423 40.784H16.6423ZM20.3263 53.7219L21.769 53.3111V53.3111L20.3263 53.7219ZM22.098 54.8759L22.3053 56.3615L22.3053 56.3615L22.098 54.8759ZM23.4858 53.2808L24.9858 53.2808V53.2808H23.4858ZM34.9798 14.3039L34.2085 15.5904V15.5904L34.9798 14.3039ZM33.3416 14.2932L34.0961 15.5897L34.0961 15.5897L33.3416 14.2932ZM42.5994 18.8716L41.8281 20.1582H41.8281L42.5994 18.8716ZM43.1526 21.0811L44.4392 21.8523L44.4392 21.8523L43.1526 21.0811ZM40.9432 21.6343L40.172 22.9208H40.172L40.9432 21.6343ZM34.1395 17.5557L34.9108 16.2691L34.1508 15.8136L33.3851 16.2592L34.1395 17.5557ZM29.4831 20.2656L28.7286 18.9691L27.9831 19.403V20.2656H29.4831ZM29.4831 36.9487H27.9831V38.4487H29.4831V36.9487ZM29.4831 40.1697V38.6697H27.9831V40.1697H29.4831ZM27.0625 17.9475L26.308 16.651L26.308 16.651L27.0625 17.9475ZM44.082 21.5668L42.8167 20.7611L42.8167 20.7611L44.082 21.5668ZM46.3055 21.0734L45.4998 22.3387L46.3055 21.0734ZM44.5753 23.7904L43.7696 25.0556L44.5753 23.7904ZM48.1336 26.0563H49.6336V25.2332L48.9393 24.7911L48.1336 26.0563ZM51.3546 27.9893L52.1155 26.6965L49.8546 25.3659V27.9893H51.3546ZM53.5836 29.3012L54.3445 28.0085L54.3445 28.0085L53.5836 29.3012ZM55.7885 28.7301L54.4958 27.9693L55.7885 28.7301ZM55.2175 26.5253L55.9783 25.2326L55.2175 26.5253ZM50.5854 23.7989L49.7796 25.0642L49.8018 25.0783L49.8245 25.0916L50.5854 23.7989ZM37.8939 -0.451009C35.4847 -1.84966 32.5153 -1.84966 30.1061 -0.45101L31.6123 2.14347C33.0902 1.28551 34.9098 1.28551 36.3877 2.14347L37.8939 -0.451009ZM65.6123 15.6408L37.8939 -0.451009L36.3877 2.14347L64.1061 18.2353L65.6123 15.6408ZM69.5 22.4082C69.5 19.6197 68.0206 17.0389 65.6123 15.6408L64.1061 18.2353C65.5849 19.0938 66.5 20.6834 66.5 22.4082H69.5ZM69.5 54.5918V22.4082H66.5V54.5918H69.5ZM65.6123 61.3592C68.0206 59.9611 69.5 57.3803 69.5 54.5918H66.5C66.5 56.3166 65.5849 57.9062 64.1061 58.7647L65.6123 61.3592ZM37.8939 77.451L65.6123 61.3592L64.1061 58.7647L36.3877 74.8565L37.8939 77.451ZM30.1061 77.451C32.5153 78.8497 35.4847 78.8497 37.8939 77.451L36.3877 74.8565C34.9098 75.7145 33.0902 75.7145 31.6123 74.8565L30.1061 77.451ZM2.38768 61.3592L30.1061 77.451L31.6123 74.8565L3.89389 58.7647L2.38768 61.3592ZM-1.5 54.5918C-1.5 57.3803 -0.0205717 59.9611 2.38768 61.3592L3.89389 58.7647C2.41509 57.9062 1.5 56.3166 1.5 54.5918H-1.5ZM-1.5 22.4082V54.5918H1.5V22.4082H-1.5ZM2.38768 15.6408C-0.020569 17.0389 -1.5 19.6197 -1.5 22.4082H1.5C1.5 20.6834 2.41509 19.0938 3.89389 18.2353L2.38768 15.6408ZM30.1061 -0.45101L2.38768 15.6408L3.89389 18.2353L31.6123 2.14347L30.1061 -0.45101ZM34.7623 9.56077L57.8123 23.1196L59.3334 20.5338L36.2833 6.97497L34.7623 9.56077ZM33.2372 9.56077C33.712 9.2815 34.2875 9.2815 34.7623 9.56077L36.2833 6.97497C34.8697 6.14344 33.1298 6.14344 31.7162 6.97496L33.2372 9.56077ZM10.1872 23.1196L33.2372 9.56077L31.7162 6.97496L8.66611 20.5338L10.1872 23.1196ZM9.37344 24.5849C9.37344 23.9543 9.70362 23.4041 10.1872 23.1196L8.66612 20.5338C7.25165 21.3659 6.37344 22.9082 6.37344 24.5849H9.37344ZM9.37344 51.7026V24.5849H6.37344V51.7026H9.37344ZM10.1872 53.1679C9.70362 52.8835 9.37344 52.3332 9.37344 51.7026H6.37344C6.37344 53.3793 7.25165 54.9217 8.66611 55.7537L10.1872 53.1679ZM33.2372 66.7268L10.1872 53.1679L8.66611 55.7537L31.7162 69.3126L33.2372 66.7268ZM34.7623 66.7268C34.2875 67.006 33.712 67.006 33.2372 66.7268L31.7162 69.3126C33.1298 70.1441 34.8697 70.1441 36.2833 69.3126L34.7623 66.7268ZM57.8123 53.1679L34.7623 66.7268L36.2833 69.3126L59.3334 55.7537L57.8123 53.1679ZM58.6261 51.7026C58.6261 52.3332 58.2959 52.8835 57.8123 53.1679L59.3334 55.7537C60.7479 54.9217 61.6261 53.3793 61.6261 51.7026H58.6261ZM58.6261 24.5849V51.7026H61.6261V24.5849H58.6261ZM57.8123 23.1196C58.2959 23.4041 58.6261 23.9543 58.6261 24.5849H61.6261C61.6261 22.9082 60.7479 21.3659 59.3334 20.5338L57.8123 23.1196ZM32.1485 7.70988C33.2952 7.03531 34.7043 7.03531 35.851 7.70988L37.3721 5.12408C35.2865 3.89724 32.713 3.89724 30.6274 5.12407L32.1485 7.70988ZM9.09842 21.2687L32.1485 7.70988L30.6274 5.12407L7.57735 18.6829L9.09842 21.2687ZM7.22607 24.5849C7.22607 23.2058 7.94827 21.9453 9.09842 21.2687L7.57735 18.6829C5.49511 19.9078 4.22607 22.1612 4.22607 24.5849H7.22607ZM7.22607 51.7026V24.5849H4.22607V51.7026H7.22607ZM9.09841 55.0188C7.94827 54.3422 7.22607 53.0817 7.22607 51.7026H4.22607C4.22607 54.1264 5.49511 56.3798 7.57735 57.6046L9.09841 55.0188ZM32.1485 68.5777L9.09841 55.0188L7.57735 57.6046L30.6274 71.1635L32.1485 68.5777ZM35.851 68.5777C34.7043 69.2522 33.2952 69.2522 32.1485 68.5777L30.6274 71.1635C32.713 72.3903 35.2865 72.3903 37.3721 71.1635L35.851 68.5777ZM58.9011 55.0188L35.851 68.5777L37.3721 71.1635L60.4222 57.6046L58.9011 55.0188ZM60.7734 51.7026C60.7734 53.0817 60.0513 54.3422 58.9011 55.0188L60.4222 57.6046C62.5044 56.3798 63.7734 54.1264 63.7734 51.7026H60.7734ZM60.7734 24.5849V51.7026H63.7734V24.5849H60.7734ZM58.9011 21.2687C60.0513 21.9453 60.7734 23.2058 60.7734 24.5849H63.7734C63.7734 22.1612 62.5044 19.9078 60.4222 18.6829L58.9011 21.2687ZM35.851 7.70988L58.9011 21.2687L60.4222 18.6829L37.3721 5.12408L35.851 7.70988ZM21.8753 24.6393C21.9363 24.6393 21.9858 24.6888 21.9858 24.7499H24.9858C24.9858 23.032 23.5932 21.6393 21.8753 21.6393V24.6393ZM21.7648 24.7499C21.7648 24.6888 21.8142 24.6393 21.8753 24.6393V21.6393C20.1574 21.6393 18.7648 23.032 18.7648 24.7499H21.7648ZM21.7648 41.7442V24.7499H18.7648V41.7442H21.7648ZM15.138 29.2171L18.8221 42.155L21.7074 41.3334L18.0233 28.3955L15.138 29.2171ZM15.0165 29.1379C15.0711 29.1303 15.1229 29.1641 15.138 29.2171L18.0233 28.3955C17.5984 26.9031 16.1385 25.9522 14.6017 26.1667L15.0165 29.1379ZM14.9212 29.2474C14.9212 29.1922 14.9618 29.1455 15.0165 29.1379L14.6017 26.1667C13.0649 26.3812 11.9212 27.6956 11.9212 29.2474H14.9212ZM14.9212 49.6969V29.2474H11.9212V49.6969H14.9212ZM15.0317 49.8074C14.9707 49.8074 14.9212 49.7579 14.9212 49.6969H11.9212C11.9212 51.4148 13.3138 52.8074 15.0317 52.8074V49.8074ZM15.1423 49.6969C15.1423 49.7579 15.0928 49.8074 15.0317 49.8074V52.8074C16.7496 52.8074 18.1423 51.4148 18.1423 49.6969H15.1423ZM15.1423 40.784V49.6969H18.1423V40.784H15.1423ZM21.769 53.3111L18.0849 40.3732L15.1996 41.1948L18.8837 54.1327L21.769 53.3111ZM21.8906 53.3903C21.836 53.3979 21.7841 53.3641 21.769 53.3111L18.8837 54.1327C19.3086 55.6251 20.7685 56.576 22.3053 56.3615L21.8906 53.3903ZM21.9858 53.2808C21.9858 53.336 21.9452 53.3827 21.8906 53.3903L22.3053 56.3615C23.8422 56.147 24.9858 54.8326 24.9858 53.2808L21.9858 53.2808ZM21.9858 24.7499V53.2808H24.9858V24.7499H21.9858ZM35.751 13.0173C34.7789 12.4346 33.5667 12.4267 32.5871 12.9968L34.0961 15.5897C34.1309 15.5694 34.174 15.5697 34.2085 15.5904L35.751 13.0173ZM43.3706 17.5851L35.751 13.0173L34.2085 15.5904L41.8281 20.1582L43.3706 17.5851ZM44.4392 21.8523C45.3225 20.3789 44.844 18.4684 43.3706 17.5851L41.8281 20.1582C41.8805 20.1896 41.8975 20.2575 41.8661 20.3098L44.4392 21.8523ZM40.172 22.9208C41.6454 23.8041 43.5559 23.3257 44.4392 21.8523L41.8661 20.3098C41.8347 20.3622 41.7668 20.3792 41.7145 20.3478L40.172 22.9208ZM33.3683 18.8422L40.172 22.9208L41.7145 20.3478L34.9108 16.2691L33.3683 18.8422ZM30.2376 21.562L34.894 18.8521L33.3851 16.2592L28.7286 18.9691L30.2376 21.562ZM30.9831 36.9487V20.2656H27.9831V36.9487H30.9831ZM40.2897 35.4487H29.4831V38.4487H40.2897V35.4487ZM43.4002 38.5592C43.4002 36.8413 42.0076 35.4487 40.2897 35.4487V38.4487C40.3507 38.4487 40.4002 38.4981 40.4002 38.5592H43.4002ZM40.2897 41.6697C42.0076 41.6697 43.4002 40.2771 43.4002 38.5592H40.4002C40.4002 38.6202 40.3507 38.6697 40.2897 38.6697V41.6697ZM29.4831 41.6697H40.2897V38.6697H29.4831V41.6697ZM30.9831 57.779V40.1697H27.9831V57.779H30.9831ZM27.8726 60.8895C29.5905 60.8895 30.9831 59.4969 30.9831 57.779H27.9831C27.9831 57.84 27.9336 57.8895 27.8726 57.8895V60.8895ZM24.762 57.779C24.762 59.4969 26.1547 60.8895 27.8726 60.8895V57.8895C27.8115 57.8895 27.762 57.84 27.762 57.779H24.762ZM24.762 38.5592V57.779H27.762V38.5592H24.762ZM24.762 19.3394V38.5592H27.762V19.3394H24.762ZM26.308 16.651C25.3508 17.208 24.762 18.232 24.762 19.3394H27.762C27.762 19.3001 27.783 19.2637 27.817 19.2439L26.308 16.651ZM32.5871 12.9968L26.308 16.651L27.817 19.2439L34.0961 15.5897L32.5871 12.9968ZM45.3472 22.3725C45.38 22.321 45.4483 22.3059 45.4998 22.3387L47.1112 19.8082C45.6622 18.8854 43.7395 19.3121 42.8167 20.7611L45.3472 22.3725ZM45.3811 22.5251C45.3296 22.4923 45.3144 22.424 45.3472 22.3725L42.8167 20.7611C41.894 22.2101 42.3206 24.1328 43.7696 25.0556L45.3811 22.5251ZM48.9393 24.7911L45.3811 22.5251L43.7696 25.0556L47.3279 27.3215L48.9393 24.7911ZM49.6336 53.2819V26.0563H46.6336V53.2819H49.6336ZM49.7441 53.3924C49.6831 53.3924 49.6336 53.343 49.6336 53.2819H46.6336C46.6336 54.9998 48.0262 56.3924 49.7441 56.3924V53.3924ZM49.8546 53.2819C49.8546 53.3429 49.8051 53.3924 49.7441 53.3924V56.3924C51.462 56.3924 52.8546 54.9998 52.8546 53.2819H49.8546ZM49.8546 27.9893V53.2819H52.8546V27.9893H49.8546ZM54.3445 28.0085L52.1155 26.6965L50.5938 29.282L52.8228 30.5939L54.3445 28.0085ZM54.4958 27.9693C54.4648 28.0219 54.3971 28.0394 54.3445 28.0085L52.8228 30.5939C54.3032 31.4653 56.2098 30.9715 57.0812 29.491L54.4958 27.9693ZM54.4566 27.818C54.5092 27.8489 54.5267 27.9167 54.4958 27.9693L57.0812 29.491C57.9526 28.0105 57.4588 26.1039 55.9783 25.2326L54.4566 27.818ZM49.8245 25.0916L54.4566 27.818L55.9783 25.2326L51.3462 22.5062L49.8245 25.0916ZM45.4998 22.3387L49.7796 25.0642L51.3911 22.5337L47.1112 19.8082L45.4998 22.3387Z" fill="url(#paint1_linear_7059_2458)" mask="url(#path-1-inside-1_7059_2458)"/>
</g>
<defs>
<linearGradient id="paint0_linear_7059_2458" x1="-4.04196" y1="38.5" x2="76.732" y2="40.1817" gradientUnits="userSpaceOnUse">
<stop stop-color="#4BF2A2"/>
<stop offset="0.522948" stop-color="#A89FE7"/>
<stop offset="0.669499" stop-color="#E1C4F4"/>
<stop offset="1" stop-color="#DD40CD"/>
</linearGradient>
<linearGradient id="paint1_linear_7059_2458" x1="87" y1="59.7631" x2="-19.1544" y2="44.7296" gradientUnits="userSpaceOnUse">
<stop stop-color="#4BF2A2"/>
<stop offset="0.522948" stop-color="#A89FE7"/>
<stop offset="0.669499" stop-color="#E1C4F4"/>
<stop offset="1" stop-color="#DD40CD"/>
</linearGradient>
</defs>
</svg>
