<svg width="22" height="22" viewBox="0 0 22 22" fill="none" xmlns="http://www.w3.org/2000/svg">
<g id="Group 3575">
<path id="Subtract" fill-rule="evenodd" clip-rule="evenodd" d="M3.22266 3.2218C5.28344 1.15964 8.08328 0 11 0C13.9167 0 16.7166 1.15964 18.7773 3.2218C20.8398 5.28395 22 8.0838 22 11C22 13.9162 20.8398 16.716 18.7773 18.7782C16.7166 20.8404 13.9167 22 11 22C8.08328 22 5.28344 20.8404 3.22266 18.7782C1.16016 16.716 0 13.9162 0 11C0.000571433 8.08256 1.15975 5.28477 3.22266 3.2218ZM11.3936 8.12097C10.3246 8.56596 8.18646 9.48703 4.97927 10.884C4.45849 11.0911 4.18521 11.2938 4.16115 11.4918C4.11883 11.8263 4.53772 11.9582 5.10692 12.1374C5.18498 12.162 5.26588 12.1875 5.3488 12.2145C5.91083 12.397 6.66708 12.6107 7.05896 12.6191C7.41646 12.6268 7.81349 12.4799 8.25177 12.1784C11.2493 10.156 12.7944 9.13366 12.8924 9.11166C12.9611 9.09619 13.0557 9.0766 13.1193 9.13383C13.1846 9.19089 13.1777 9.29917 13.1708 9.32822C13.1303 9.50488 11.491 11.029 10.638 11.8221C10.3698 12.0714 10.1793 12.2485 10.1407 12.2888C10.0543 12.3785 9.96632 12.4633 9.88173 12.5448C9.36014 13.0477 8.96882 13.4249 9.90349 14.0407C10.3567 14.3392 10.7184 14.5856 11.08 14.8319C11.4684 15.0965 11.8567 15.3609 12.3579 15.6897C12.4868 15.7741 12.6098 15.8619 12.7297 15.9473C13.1853 16.2721 13.5945 16.5638 14.1007 16.5172C14.3946 16.4903 14.6988 16.2139 14.8518 15.3896C15.2161 13.4414 15.9329 9.22046 16.0979 7.48108C16.1133 7.3288 16.0944 7.13372 16.0807 7.04813C16.0652 6.96245 16.0343 6.84042 15.9243 6.75018C15.7919 6.64319 15.5891 6.62067 15.498 6.62214C15.0838 6.62961 14.4496 6.8503 11.3936 8.12097Z" fill="#B5B5C6"/>
</g>
</svg>
