<svg width="24" height="24" viewBox="0 0 24 24" fill="none" xmlns="http://www.w3.org/2000/svg">
<g opacity="0.2">
<path d="M4.71779 18.2839L6.71023 19.9798C4.44268 18.0493 3.98608 14.407 5.82795 10.8323C7.21159 8.15013 9.61587 6.05974 12.2578 5.11397L10.2654 3.41811C7.62424 4.36706 5.21915 6.45347 3.83551 9.13647C1.99364 12.7087 2.45187 16.351 4.71779 18.2839Z" fill="url(#paint0_linear_6928_9980)"/>
<path d="M4.71779 18.2839L6.71023 19.9798C4.44268 18.0493 3.98608 14.407 5.82795 10.8323C7.21159 8.15013 9.61587 6.05974 12.2578 5.11397L10.2654 3.41811C7.62424 4.36706 5.21915 6.45347 3.83551 9.13647C1.99364 12.7087 2.45187 16.351 4.71779 18.2839Z" fill="url(#paint1_linear_6928_9980)"/>
<path d="M4.71779 18.2839L6.71023 19.9798C4.44268 18.0493 3.98608 14.407 5.82795 10.8323C7.21159 8.15013 9.61587 6.05974 12.2578 5.11397L10.2654 3.41811C7.62424 4.36706 5.21915 6.45347 3.83551 9.13647C1.99364 12.7087 2.45187 16.351 4.71779 18.2839Z" fill="url(#paint2_linear_6928_9980)"/>
<path d="M4.71779 18.2839L6.71023 19.9798C4.44268 18.0493 3.98608 14.407 5.82795 10.8323C7.21159 8.15013 9.61587 6.05974 12.2578 5.11397L10.2654 3.41811C7.62424 4.36706 5.21915 6.45347 3.83551 9.13647C1.99364 12.7087 2.45187 16.351 4.71779 18.2839Z" fill="url(#paint3_linear_6928_9980)"/>
<path d="M4.71779 18.2839L6.71023 19.9798C4.44268 18.0493 3.98608 14.407 5.82795 10.8323C7.21159 8.15013 9.61587 6.05974 12.2578 5.11397L10.2654 3.41811C7.62424 4.36706 5.21915 6.45347 3.83551 9.13647C1.99364 12.7087 2.45187 16.351 4.71779 18.2839Z" fill="url(#paint4_linear_6928_9980)"/>
<path d="M10.2648 3.42055L12.2572 5.11959C12.3031 5.09501 12.3539 5.08036 12.4062 5.07664C12.4577 5.07287 12.5088 5.08884 12.5486 5.12118L10.5561 3.42533C10.5367 3.40897 10.514 3.3966 10.4895 3.38895C10.4651 3.3813 10.4393 3.37852 10.4137 3.38078C10.3614 3.38413 10.3105 3.3988 10.2648 3.42373" fill="url(#paint5_linear_6928_9980)"/>
<path d="M10.2648 3.42055L12.2572 5.11959C12.3031 5.09501 12.3539 5.08036 12.4062 5.07664C12.4577 5.07287 12.5088 5.08884 12.5486 5.12118L10.5561 3.42533C10.5367 3.40897 10.514 3.3966 10.4895 3.38895C10.4651 3.3813 10.4393 3.37852 10.4137 3.38078C10.3614 3.38413 10.3105 3.3988 10.2648 3.42373" fill="url(#paint6_linear_6928_9980)"/>
<path d="M10.6261 3.58732L12.6185 5.28318C12.6196 5.25233 12.6139 5.22161 12.6018 5.19308C12.5897 5.16455 12.5716 5.13887 12.5485 5.11774L10.5561 3.42188C10.5792 3.44297 10.5973 3.46865 10.6094 3.49719C10.6215 3.52573 10.6272 3.55646 10.6261 3.58732Z" fill="url(#paint7_linear_6928_9980)"/>
<path d="M10.63 3.76721L12.6224 5.46387C12.6428 5.3716 12.6533 5.32467 12.6224 5.28013L10.63 3.58427C10.665 3.62881 10.6544 3.67494 10.63 3.76721Z" fill="url(#paint8_linear_6928_9980)"/>
<path d="M10.4877 4.42121L12.4801 6.11787L12.6226 5.46721L10.6301 3.77135L10.4877 4.42121Z" fill="url(#paint9_linear_6928_9980)"/>
<path d="M10.1172 4.89736L12.1097 6.59402C12.2651 6.49459 12.4352 6.30289 12.48 6.11676L10.4875 4.4209C10.4468 4.60623 10.2727 4.79793 10.1172 4.89816" fill="url(#paint10_linear_6928_9980)"/>
<path d="M4.71779 18.2839L6.71023 19.9798C4.44268 18.0493 3.98608 14.407 5.82795 10.8323C7.21159 8.15013 9.61587 6.05974 12.2578 5.11397L10.2654 3.41811C7.62424 4.36706 5.21915 6.45347 3.83551 9.13647C1.99364 12.7087 2.45187 16.351 4.71779 18.2839Z" fill="url(#paint11_linear_6928_9980)"/>
<path d="M5.80534 17.1001L7.79778 18.8007C6.92283 18.0554 6.34496 16.9887 6.18137 15.693C5.66779 12.1788 8.33985 8.05684 12.1099 6.59802L10.1174 4.90137C6.3474 6.36178 3.67535 10.4821 4.18892 13.9963C4.3517 15.2921 4.93039 16.3596 5.80534 17.1041" fill="url(#paint12_linear_6928_9980)"/>
<path d="M11.4529 6.0739L13.4453 7.77055C13.486 7.58442 13.6496 7.43966 13.884 7.38238L11.8916 5.68652C11.6572 5.743 11.4936 5.88856 11.4529 6.0739Z" fill="url(#paint13_linear_6928_9980)"/>
<path d="M8.78003 9.1867L10.7725 10.8826C11.1794 9.85407 12.1561 9.02761 13.2012 8.88682L11.2087 7.18778C10.1596 7.32777 9.18291 8.15423 8.78003 9.18352" fill="url(#paint14_linear_6928_9980)"/>
<path d="M8.77025 9.23359L10.7627 10.9295L10.7725 10.8833L8.78002 9.18666L8.77025 9.23359Z" fill="url(#paint15_linear_6928_9980)"/>
<path d="M8.83715 9.48963L10.8296 11.1863C10.7955 11.1535 10.7712 11.1123 10.7594 11.0669C10.7477 11.0216 10.7488 10.974 10.7628 10.9294L8.77041 9.2327C8.7564 9.27739 8.75522 9.32499 8.76699 9.37029C8.77876 9.4156 8.80303 9.45687 8.83715 9.48963Z" fill="url(#paint16_linear_6928_9980)"/>
<path d="M8.83696 9.49428L10.8294 11.1901C10.8784 11.2294 10.9412 11.2485 11.0044 11.2434L9.01195 9.54678C8.94886 9.55212 8.88612 9.53329 8.83696 9.49428Z" fill="url(#paint17_linear_6928_9980)"/>
<path d="M11.8917 5.68909L13.8841 7.38574L14.554 7.35472L12.5615 5.65807L11.8917 5.68909Z" fill="url(#paint18_linear_6928_9980)"/>
<path d="M8.78003 9.1867L10.7725 10.8826C11.1794 9.85407 12.1561 9.02761 13.2012 8.88682L11.2087 7.18778C10.1596 7.32777 9.18291 8.15423 8.78003 9.18352" fill="url(#paint19_linear_6928_9980)"/>
<path d="M11.2087 7.19103L13.2011 8.88769L13.4453 7.77329L11.4529 6.07743L11.2087 7.19103Z" fill="url(#paint20_linear_6928_9980)"/>
<path d="M14.6622 3.53989L16.6547 5.23575C16.6705 5.14627 16.7117 5.06292 16.7736 4.99516C16.8354 4.92739 16.9155 4.87792 17.0046 4.85235L15.0122 3.15569C14.9231 3.18157 14.8431 3.23124 14.7813 3.29911C14.7194 3.36698 14.6782 3.45037 14.6622 3.53989Z" fill="url(#paint21_linear_6928_9980)"/>
<path d="M12.5616 5.65797L14.554 7.35463C14.5853 7.35175 14.6169 7.35498 14.647 7.36412C14.677 7.37327 14.7049 7.38816 14.729 7.40792L12.7333 5.71206C12.6844 5.67248 12.6216 5.65307 12.5583 5.65797" fill="url(#paint22_linear_6928_9980)"/>
<path d="M15.012 3.15568L17.0045 4.85234C17.0604 4.84356 17.1177 4.85336 17.1672 4.88018L15.1748 3.18432C15.1256 3.15656 15.068 3.14643 15.012 3.15568Z" fill="url(#paint23_linear_6928_9980)"/>
<path d="M15.1807 3.1937L17.1731 4.88955L17.1641 4.88001L15.175 3.18415C15.1785 3.18675 15.1816 3.18999 15.1839 3.1937" fill="url(#paint24_linear_6928_9980)"/>
<path d="M12.8373 6.01272L14.8298 7.70938C14.8365 7.65498 14.8309 7.5998 14.8135 7.54772C14.796 7.49564 14.7671 7.44792 14.7288 7.40791L12.7331 5.71205C12.7715 5.75185 12.8005 5.79942 12.8179 5.85139C12.8354 5.90335 12.8409 5.95844 12.8341 6.01272" fill="url(#paint25_linear_6928_9980)"/>
<path d="M9.0121 9.54359L11.0045 11.2395L11.72 11.2068L9.72753 9.51019L9.0121 9.54359Z" fill="url(#paint26_linear_6928_9980)"/>
<path d="M14.5197 4.18977L16.5121 5.88563L16.6545 5.23656L14.6621 3.5399L14.5197 4.18977Z" fill="url(#paint27_linear_6928_9980)"/>
<path d="M14.6116 4.59073L16.604 6.28738C16.5031 6.20148 16.4705 6.07659 16.512 5.88569L14.5196 4.18903C14.4781 4.37994 14.5106 4.50721 14.6116 4.59073Z" fill="url(#paint28_linear_6928_9980)"/>
<path d="M14.6116 4.59082L16.6041 6.28747C16.6272 6.3067 16.6523 6.3235 16.679 6.33759L14.6865 4.64252C14.6599 4.62797 14.6348 4.61092 14.6116 4.59161" fill="url(#paint29_linear_6928_9980)"/>
<path d="M12.6038 7.08124L14.5962 8.77789L14.8298 7.70963L12.8382 6.01297L12.6038 7.08124Z" fill="url(#paint30_linear_6928_9980)"/>
<path d="M8.2004 14.9298L10.1928 16.6257C9.69392 16.2009 9.488 15.5383 9.66055 14.7477C10.0162 13.1234 11.0767 12.5205 13.0049 12.2023C14.3885 11.9549 14.7361 11.5715 14.8769 10.9208C14.9509 10.5804 14.8891 10.3084 14.6832 10.1342L12.6907 8.4375C12.8966 8.61249 12.9593 8.88374 12.8844 9.22498C12.742 9.87484 12.3961 10.259 11.0124 10.5056C9.08512 10.8238 8.02378 11.4251 7.66811 13.051C7.49556 13.8409 7.70148 14.5035 8.2004 14.929" fill="url(#paint31_linear_6928_9980)"/>
<path d="M9.72755 9.51044L11.72 11.2063C11.7965 11.1977 11.8697 11.1708 11.933 11.1279C11.9963 11.085 12.0479 11.0275 12.083 10.9605C12.459 10.2534 12.9669 9.95508 13.771 9.9177C14.1959 9.89861 14.4995 9.97735 14.6851 10.1364L12.6926 8.43978C12.507 8.2807 12.2043 8.20116 11.7786 8.22184C10.9745 8.25843 10.4666 8.55751 10.0906 9.26465C10.0553 9.33152 10.0037 9.3889 9.9404 9.43176C9.87711 9.47461 9.80402 9.50163 9.72755 9.51044Z" fill="url(#paint32_linear_6928_9980)"/>
<path d="M12.6037 7.08105L14.5961 8.77851C15.1007 8.82703 15.5061 8.99009 15.7991 9.23986L13.8066 7.5432C13.5136 7.29343 13.1083 7.13037 12.6037 7.08264" fill="url(#paint33_linear_6928_9980)"/>
<path d="M14.6867 4.6423L16.6791 6.33816C17.2126 6.53038 17.7061 6.81521 18.136 7.17893L16.1435 5.48307C15.7141 5.11873 15.2205 4.83383 14.6867 4.6423Z" fill="url(#paint34_linear_6928_9980)"/>
<path d="M15.1806 3.19378L17.1731 4.88964C17.9274 5.11397 18.6253 5.49035 19.2217 5.99449L17.2292 4.29784C16.633 3.79365 15.9351 3.4175 15.1806 3.19378Z" fill="url(#paint35_linear_6928_9980)"/>
<path d="M8.2004 14.9298L10.1928 16.6257C9.69392 16.2009 9.488 15.5383 9.66055 14.7477C10.0162 13.1234 11.0767 12.5205 13.0049 12.2023C14.3885 11.9549 14.7361 11.5715 14.8769 10.9208C14.9509 10.5804 14.8891 10.3084 14.6832 10.1342L12.6907 8.4375C12.8966 8.61249 12.9593 8.88374 12.8844 9.22498C12.742 9.87484 12.3961 10.259 11.0124 10.5056C9.08512 10.8238 8.02378 11.4251 7.66811 13.051C7.49556 13.8409 7.70148 14.5035 8.2004 14.929" fill="url(#paint36_linear_6928_9980)"/>
<path d="M8.2004 14.9298L10.1928 16.6257C9.69392 16.2009 9.488 15.5383 9.66055 14.7477C10.0162 13.1234 11.0767 12.5205 13.0049 12.2023C14.3885 11.9549 14.7361 11.5715 14.8769 10.9208C14.9509 10.5804 14.8891 10.3084 14.6832 10.1342L12.6907 8.4375C12.8966 8.61249 12.9593 8.88374 12.8844 9.22498C12.742 9.87484 12.3961 10.259 11.0124 10.5056C9.08512 10.8238 8.02378 11.4251 7.66811 13.051C7.49556 13.8409 7.70148 14.5035 8.2004 14.929" fill="url(#paint37_linear_6928_9980)"/>
<path d="M8.2004 14.9298L10.1928 16.6257C9.69392 16.2009 9.488 15.5383 9.66055 14.7477C10.0162 13.1234 11.0767 12.5205 13.0049 12.2023C14.3885 11.9549 14.7361 11.5715 14.8769 10.9208C14.9509 10.5804 14.8891 10.3084 14.6832 10.1342L12.6907 8.4375C12.8966 8.61249 12.9593 8.88374 12.8844 9.22498C12.742 9.87484 12.3961 10.259 11.0124 10.5056C9.08512 10.8238 8.02378 11.4251 7.66811 13.051C7.49556 13.8409 7.70148 14.5035 8.2004 14.929" fill="url(#paint38_linear_6928_9980)"/>
<path d="M9.34084 14.0019L11.3333 15.6986C11.0891 15.4902 10.9841 15.1696 11.0704 14.7751C11.2332 14.0322 11.6963 13.7347 12.9985 13.4451L11.0061 11.7485C9.70384 12.0388 9.24073 12.3355 9.07795 13.0784C8.99167 13.4761 9.09667 13.7943 9.34084 14.0019Z" fill="url(#paint39_linear_6928_9980)"/>
<path d="M11.8308 17.6871L13.8232 19.383C17.5932 17.9233 20.2653 13.8022 19.7517 10.2872C19.5889 8.99223 19.0102 7.92556 18.1361 7.18024L16.1437 5.48438C17.0186 6.2289 17.5957 7.29557 17.7593 8.59133C18.2728 12.1055 15.6008 16.2275 11.8308 17.6871Z" fill="url(#paint40_linear_6928_9980)"/>
<path d="M8.2006 14.9297L10.193 16.6255C10.5246 16.893 10.9294 17.059 11.3569 17.1028L9.36449 15.4069C8.93712 15.3625 8.53246 15.1966 8.2006 14.9297Z" fill="url(#paint41_linear_6928_9980)"/>
<path d="M5.80514 17.1002L7.79758 18.8008C8.2271 19.1646 8.7204 19.4494 9.25366 19.6416L7.26122 17.9449C6.72781 17.753 6.23446 17.4682 5.80514 17.1041" fill="url(#paint42_linear_6928_9980)"/>
<path d="M7.26146 17.941L9.2539 19.6376C9.28084 19.6517 9.30621 19.6685 9.32959 19.6878L7.33715 17.9919C7.314 17.9721 7.2886 17.9551 7.26146 17.941Z" fill="url(#paint43_linear_6928_9980)"/>
<path d="M11.0062 11.7485L12.9986 13.4451C14.9267 13.127 15.9523 12.4827 16.2876 10.9507C16.4439 10.2403 16.2624 9.63183 15.7992 9.23809L13.8068 7.54144C14.2699 7.93517 14.4514 8.54368 14.2951 9.254C13.959 10.786 12.9335 11.4303 11.0053 11.7485" fill="url(#paint44_linear_6928_9980)"/>
<path d="M7.42795 18.3931L9.42039 20.0898C9.4619 19.8997 9.42935 19.7716 9.32924 19.6921L7.3368 17.9954C7.43691 18.0805 7.46946 18.2062 7.42795 18.3931Z" fill="url(#paint45_linear_6928_9980)"/>
<path d="M9.12032 16.5237L11.1128 18.2196L11.3569 17.106L9.36449 15.4093L9.12032 16.5237Z" fill="url(#paint46_linear_6928_9980)"/>
<path d="M9.34076 14.0019L11.3332 15.6985C11.5489 15.8823 11.8728 15.9777 12.2708 15.9594C13.4331 15.9061 13.9475 15.3772 14.2332 14.6748L12.2448 12.9789C11.9583 13.6813 11.4439 14.2103 10.2816 14.2636C9.88445 14.2819 9.5597 14.184 9.34402 14.0019" fill="url(#paint47_linear_6928_9980)"/>
<path d="M12.2448 12.9791L14.2364 14.6749C14.2658 14.5975 14.3162 14.5294 14.3821 14.4778C14.4481 14.4263 14.5271 14.3932 14.6108 14.3822L12.6184 12.6855C12.5347 12.6966 12.4556 12.7298 12.3898 12.7815C12.324 12.8332 12.2738 12.9015 12.2448 12.9791Z" fill="url(#paint48_linear_6928_9980)"/>
<path d="M4.71791 18.2842L6.71035 19.98C7.30713 20.484 8.00524 20.8604 8.75977 21.0849L6.76732 19.3882C6.0127 19.1643 5.31453 18.7882 4.71791 18.2842Z" fill="url(#paint49_linear_6928_9980)"/>
<path d="M6.77709 19.3982L8.76953 21.0948L8.75976 21.0845L6.76732 19.3878L6.77709 19.3982Z" fill="url(#paint50_linear_6928_9980)"/>
<path d="M9.34076 14.0019L11.3332 15.6985C11.5489 15.8823 11.8728 15.9777 12.2708 15.9594C13.4331 15.9061 13.9475 15.3772 14.2332 14.6748L12.2448 12.9789C11.9583 13.6813 11.4439 14.2103 10.2816 14.2636C9.88445 14.2819 9.5597 14.184 9.34402 14.0019" fill="url(#paint51_linear_6928_9980)"/>
<path d="M9.22199 16.8237L11.2136 18.5203C11.1755 18.4804 11.1467 18.4328 11.1292 18.3809C11.1118 18.329 11.1062 18.2739 11.1127 18.2197L9.12025 16.523C9.11355 16.5774 9.11919 16.6325 9.13678 16.6845C9.15436 16.7364 9.18346 16.784 9.22199 16.8237Z" fill="url(#paint52_linear_6928_9980)"/>
<path d="M6.77715 19.3983L8.76959 21.095C8.81909 21.1219 8.87645 21.1317 8.93237 21.1228L6.93993 19.4261C6.88533 19.4347 6.82937 19.4249 6.78122 19.3983" fill="url(#paint53_linear_6928_9980)"/>
<path d="M7.28553 19.0429L9.27798 20.7396L9.42041 20.0897L7.42797 18.3938L7.28553 19.0429Z" fill="url(#paint54_linear_6928_9980)"/>
<path d="M3.83549 9.13882C1.5297 13.6099 2.82625 18.1916 6.76556 19.388C6.80056 19.4325 6.88927 19.4285 6.93404 19.4261C7.02306 19.4003 7.10296 19.3508 7.16478 19.2831C7.2266 19.2153 7.26789 19.1321 7.28402 19.0427L7.42645 18.3929C7.47691 18.1614 7.4175 18.0254 7.2596 17.9411C5.58132 17.3294 4.43127 15.9119 4.1871 13.9925C3.67353 10.4783 6.34559 6.3564 10.1156 4.89758C10.2711 4.79815 10.4412 4.60645 10.4859 4.42032L10.63 3.76727C10.6503 3.675 10.6609 3.62887 10.63 3.58433C10.6326 3.55632 10.6289 3.52811 10.6191 3.50165C10.6094 3.47519 10.5939 3.45113 10.5737 3.43114C10.5534 3.41115 10.529 3.3957 10.502 3.38589C10.4751 3.37608 10.4462 3.37214 10.4176 3.37433C10.3653 3.37767 10.3144 3.39235 10.2686 3.41729C7.62341 4.36942 5.21995 6.45583 3.83549 9.13882Z" fill="url(#paint55_radial_6928_9980)"/>
<path d="M6.9359 19.4262L8.92834 21.1229C9.01737 21.097 9.09727 21.0475 9.15909 20.9798C9.2209 20.912 9.26219 20.8288 9.27832 20.7395L7.28588 19.0396C7.26975 19.129 7.22846 19.2122 7.16664 19.2799C7.10483 19.3477 7.02492 19.3972 6.9359 19.423" fill="url(#paint56_linear_6928_9980)"/>
<path d="M9.22205 16.8235L11.2137 18.5202C11.2626 18.5598 11.3254 18.5792 11.3887 18.5743L9.39623 16.8776C9.36498 16.8804 9.33347 16.877 9.30357 16.8677C9.27366 16.8584 9.24595 16.8434 9.22205 16.8235Z" fill="url(#paint57_linear_6928_9980)"/>
<path d="M12.6151 12.6866L14.6076 14.3825L15.3669 14.3475L13.3745 12.6516L12.6151 12.6866Z" fill="url(#paint58_linear_6928_9980)"/>
<path d="M13.3746 12.6508L15.367 14.3466C15.4302 14.3415 15.493 14.3606 15.542 14.3999L13.5471 12.7041C13.4981 12.6648 13.4353 12.6457 13.3721 12.6508" fill="url(#paint59_linear_6928_9980)"/>
<path d="M9.39704 16.8784L11.3887 18.5743L12.0593 18.544L10.0669 16.8474L9.39704 16.8784Z" fill="url(#paint60_linear_6928_9980)"/>
<path d="M13.617 12.9609L15.6094 14.6575C15.623 14.6128 15.624 14.5652 15.6121 14.5199C15.6002 14.4747 15.5759 14.4334 15.5419 14.4006L13.547 12.704C13.5812 12.7367 13.6055 12.7779 13.6174 12.8232C13.6294 12.8685 13.6283 12.9161 13.6145 12.9609" fill="url(#paint61_linear_6928_9980)"/>
<path d="M10.5056 16.4593L12.498 18.156L12.7422 17.0424L10.7497 15.3457L10.5056 16.4593Z" fill="url(#paint62_linear_6928_9980)"/>
<path d="M13.6066 13.0079L15.599 14.7046L15.6096 14.6576L13.6172 12.9618L13.6066 13.0079Z" fill="url(#paint63_linear_6928_9980)"/>
<path d="M10.0669 16.8464L12.0594 18.543C12.2929 18.4865 12.4574 18.341 12.498 18.1556L10.5056 16.459C10.4649 16.6443 10.3005 16.7899 10.0669 16.8464Z" fill="url(#paint64_linear_6928_9980)"/>
<path d="M10.7499 15.3456L12.7423 17.0414C14.2676 16.7416 15.1661 15.873 15.5991 14.7037L13.6067 13.0078C13.1737 14.1763 12.2751 15.0449 10.7499 15.3456Z" fill="url(#paint65_linear_6928_9980)"/>
<path d="M11.4699 18.1145L13.4656 19.8112C13.4965 19.672 13.6707 19.4803 13.8262 19.3808L11.8305 17.6874C11.675 17.786 11.5049 17.9785 11.4699 18.1169" fill="url(#paint66_linear_6928_9980)"/>
<path d="M11.3275 18.7654L13.32 20.462L13.4624 19.8114L11.47 18.1155L11.3275 18.7654Z" fill="url(#paint67_linear_6928_9980)"/>
<path d="M11.3325 18.948L13.325 20.6447C13.29 20.6001 13.3005 20.554 13.3201 20.4609L11.3276 18.7651C11.3081 18.8573 11.2975 18.9043 11.3325 18.948Z" fill="url(#paint68_linear_6928_9980)"/>
<path d="M11.4016 19.1142L13.394 20.8101C13.3712 20.7888 13.3533 20.7631 13.3414 20.7346C13.3294 20.7061 13.3238 20.6754 13.3249 20.6446L11.3324 18.948C11.3315 18.9789 11.3371 19.0096 11.349 19.0382C11.361 19.0669 11.3789 19.0927 11.4016 19.1142Z" fill="url(#paint69_linear_6928_9980)"/>
<path d="M11.8308 17.6871L13.8232 19.383C17.5932 17.9233 20.2653 13.8022 19.7517 10.2872C19.5889 8.99223 19.0102 7.92556 18.1361 7.18024L16.1437 5.48438C17.0186 6.2289 17.5957 7.29557 17.7593 8.59133C18.2728 12.1055 15.6008 16.2275 11.8308 17.6871Z" fill="url(#paint70_linear_6928_9980)"/>
<path d="M11.4016 19.1145L13.3941 20.8104C13.4341 20.8428 13.4855 20.8588 13.5373 20.8549C13.5895 20.8511 13.6403 20.8365 13.6863 20.812L11.6938 19.1193C11.648 19.1439 11.5971 19.1583 11.5449 19.1615C11.4931 19.1659 11.4416 19.1502 11.4016 19.1177" fill="url(#paint71_linear_6928_9980)"/>
<path d="M11.8308 17.6871L13.8232 19.383C17.5932 17.9233 20.2653 13.8022 19.7517 10.2872C19.5889 8.99223 19.0102 7.92556 18.1361 7.18024L16.1437 5.48438C17.0186 6.2289 17.5957 7.29557 17.7593 8.59133C18.2728 12.1055 15.6008 16.2275 11.8308 17.6871Z" fill="url(#paint72_linear_6928_9980)"/>
<path d="M11.6939 19.1192L13.6863 20.8151C16.3722 19.8645 18.7326 17.7797 20.1048 15.1436C21.9475 11.5714 21.4884 7.92828 19.2217 5.99618L17.2293 4.29952C19.4976 6.23083 19.955 9.87311 18.1124 13.447C16.7385 16.0799 14.379 18.1647 11.6939 19.1192Z" fill="url(#paint73_linear_6928_9980)"/>
<path fill-rule="evenodd" clip-rule="evenodd" d="M0.278908 11.646C1.63081 5.47269 7.50314 0.284887 13.4447 0.0112583C19.3886 -0.26237 23.0821 4.48477 21.7302 10.6581C20.3783 16.8315 14.5084 22.0177 8.56448 22.2921C2.62052 22.5665 -1.07299 17.8194 0.278908 11.646ZM3.84056 9.13884C1.53314 13.61 2.82969 18.1948 6.77063 19.388L6.769 19.3888C6.80038 19.4287 6.87496 19.4277 6.92231 19.4271C6.92776 19.427 6.93285 19.427 6.93748 19.427C7.0265 19.4011 7.10641 19.3516 7.16823 19.2839C7.23004 19.2161 7.27133 19.1329 7.28746 19.0436L7.42989 18.3937C7.48036 18.1622 7.42094 18.0262 7.26304 17.9419C5.58314 17.3342 4.43471 15.9127 4.19054 13.9934C3.67697 10.4791 6.34902 6.3588 10.119 4.89839C10.2745 4.79817 10.4487 4.60647 10.4894 4.42113L10.6318 3.77047C10.6562 3.6782 10.6668 3.63206 10.6318 3.58752C10.6344 3.55952 10.6307 3.5313 10.6209 3.50485C10.6112 3.47839 10.5957 3.45432 10.5755 3.43433C10.5552 3.41434 10.5308 3.3989 10.5038 3.38909C10.4769 3.37928 10.4481 3.37533 10.4194 3.37753C10.3671 3.38087 10.3162 3.39554 10.2704 3.42048C7.62848 4.36625 5.2242 6.45585 3.84056 9.13884ZM11.4693 18.1153L11.3269 18.7659L11.3277 18.7683L11.3269 18.7723C11.3079 18.8619 11.2981 18.9082 11.3326 18.9513C11.3299 18.9793 11.3335 19.0076 11.3431 19.0341C11.3528 19.0606 11.3683 19.0848 11.3886 19.1048C11.4088 19.1248 11.4333 19.1402 11.4604 19.15C11.4874 19.1598 11.5163 19.1636 11.545 19.1613C11.5972 19.1581 11.6481 19.1437 11.6939 19.1191C14.379 18.1646 16.7385 16.0798 18.11 13.4445C20.4174 8.97339 19.1208 4.38772 15.1799 3.19458C15.149 3.15496 15.0726 3.15578 15.0252 3.15629C15.0203 3.15635 15.0157 3.1564 15.0114 3.1564C14.9223 3.18227 14.8423 3.23194 14.7805 3.29981C14.7187 3.36769 14.6774 3.45107 14.6615 3.54059L14.519 4.18966C14.4686 4.42193 14.528 4.55715 14.6859 4.64226C16.3658 5.25395 17.5142 6.67061 17.7584 8.58999C18.2719 12.1042 15.5999 16.2253 11.8299 17.6858C11.6744 17.7844 11.5002 17.9769 11.4693 18.1153ZM9.36455 15.4124L9.12037 16.526L9.11794 16.5252C9.11224 16.7551 9.2156 16.8887 9.39385 16.88L10.0645 16.849C10.0682 16.8481 10.072 16.8471 10.0757 16.8462C10.0741 16.8466 10.0724 16.847 10.0708 16.8474L9.40017 16.8784C9.22193 16.8871 9.11856 16.7543 9.12426 16.5236L9.36843 15.41C8.0792 15.2398 7.39797 14.306 7.67225 13.0524C7.84019 12.2847 8.16546 11.7454 8.66493 11.3565C8.16326 11.7458 7.83674 12.2858 7.66837 13.0547C7.39408 14.3083 8.0745 15.2414 9.36455 15.4124ZM12.3012 10.0969C12.6603 9.87659 12.8053 9.59497 12.8847 9.22872C13.0255 8.57885 12.6706 8.18193 11.777 8.22329C11.3743 8.24162 11.0459 8.32577 10.7711 8.49402C11.0467 8.32417 11.3763 8.23932 11.7809 8.22091C12.6761 8.17954 13.031 8.57646 12.8886 9.22633C12.8081 9.59372 12.6625 9.87621 12.3012 10.0969ZM9.92336 9.44322C9.86373 9.48029 9.79626 9.50379 9.72592 9.5119L9.0105 9.54451C8.83225 9.55326 8.72807 9.42042 8.76633 9.23429L8.77609 9.18815C8.87117 8.94769 8.99733 8.7183 9.1482 8.50615C8.99859 8.71763 8.87374 8.94621 8.77998 9.18576L8.77021 9.2319C8.72952 9.41803 8.8337 9.55007 9.01438 9.54212L9.7298 9.50951C9.79862 9.50158 9.86469 9.47891 9.92336 9.44322ZM11.2052 7.19049L11.449 6.07881C11.476 5.95545 11.5576 5.84971 11.6782 5.77614C11.5597 5.84961 11.4796 5.95439 11.4528 6.07642L11.2087 7.19003C11.2075 7.19018 11.2064 7.19034 11.2052 7.19049ZM11.7753 11.5927C11.5356 11.6533 11.2781 11.7055 11.0021 11.751C10.8955 11.7748 10.7946 11.7986 10.6989 11.8227C10.7965 11.7981 10.8995 11.7737 11.0085 11.7494C11.282 11.7043 11.5374 11.6526 11.7753 11.5927ZM10.9039 14.1779C11.6356 13.9918 12.0091 13.5418 12.2376 12.9816C12.2667 12.904 12.3168 12.8357 12.3826 12.784C12.436 12.7421 12.4981 12.7123 12.5643 12.6967C12.5004 12.7127 12.4405 12.7419 12.3887 12.7825C12.3228 12.8342 12.2725 12.9025 12.2431 12.98C12.0146 13.5419 11.6397 13.9927 10.9039 14.1779ZM11.0119 15.2886C10.9279 15.3099 10.8418 15.3293 10.7536 15.3467L10.7537 15.3464C10.8418 15.329 10.9279 15.3097 11.0119 15.2886Z" fill="url(#paint74_linear_6928_9980)"/>
<path d="M15.0122 3.15572C14.923 3.1816 14.8431 3.23127 14.7812 3.29914C14.7194 3.36701 14.6782 3.4504 14.6622 3.53992L14.5198 4.18899C14.4693 4.42125 14.5287 4.55648 14.6866 4.64159C16.3665 5.25327 17.5166 6.66994 17.7591 8.58931C18.2727 12.1035 15.6006 16.2255 11.8306 17.6851C11.6752 17.7837 11.5051 17.9762 11.4701 18.1146L11.3276 18.7653C11.3081 18.8575 11.2975 18.9045 11.3325 18.949C11.3299 18.977 11.3336 19.0052 11.3434 19.0316C11.3531 19.058 11.3686 19.082 11.3889 19.102C11.4091 19.1219 11.4336 19.1373 11.4605 19.147C11.4875 19.1567 11.5163 19.1605 11.5449 19.1582C11.5972 19.1551 11.648 19.1407 11.6939 19.1161C14.3798 18.1615 16.7401 16.0799 18.1123 13.4438C20.4181 8.97271 19.1216 4.39103 15.1823 3.1939C15.1457 3.15015 15.0569 3.15413 15.0122 3.15572Z" fill="url(#paint75_radial_6928_9980)"/>
<path d="M2.7075 20.4563L4.69995 22.1522C6.17719 23.4097 8.18835 24.0978 10.5601 23.9888C16.5008 23.7152 22.3707 18.5282 23.7209 12.358C24.5348 8.64413 23.5215 5.44649 21.2914 3.5478L19.299 1.85114C21.5291 3.75063 22.5424 6.94827 21.7285 10.6621C20.3766 16.8355 14.5067 22.0225 8.56275 22.2961C6.19428 22.4059 4.18312 21.7178 2.70262 20.4603" fill="url(#paint76_radial_6928_9980)"/>
</g>
<defs>
<linearGradient id="paint0_linear_6928_9980" x1="12.8262" y1="11.6989" x2="1.46475" y2="11.8536" gradientUnits="userSpaceOnUse">
<stop stop-color="#9F9F9F"/>
<stop offset="0.522948" stop-color="#C3C3C3"/>
<stop offset="0.669499" stop-color="#DCDCDC"/>
<stop offset="1" stop-color="#8E8E8E"/>
</linearGradient>
<linearGradient id="paint1_linear_6928_9980" x1="12.8262" y1="11.6989" x2="1.46475" y2="11.8536" gradientUnits="userSpaceOnUse">
<stop stop-color="#9F9F9F"/>
<stop offset="0.522948" stop-color="#C3C3C3"/>
<stop offset="0.669499" stop-color="#DCDCDC"/>
<stop offset="1" stop-color="#8E8E8E"/>
</linearGradient>
<linearGradient id="paint2_linear_6928_9980" x1="12.8262" y1="11.6989" x2="1.46475" y2="11.8536" gradientUnits="userSpaceOnUse">
<stop stop-color="#9F9F9F"/>
<stop offset="0.522948" stop-color="#C3C3C3"/>
<stop offset="0.669499" stop-color="#DCDCDC"/>
<stop offset="1" stop-color="#8E8E8E"/>
</linearGradient>
<linearGradient id="paint3_linear_6928_9980" x1="12.8262" y1="11.6989" x2="1.46475" y2="11.8536" gradientUnits="userSpaceOnUse">
<stop stop-color="#9F9F9F"/>
<stop offset="0.522948" stop-color="#C3C3C3"/>
<stop offset="0.669499" stop-color="#DCDCDC"/>
<stop offset="1" stop-color="#8E8E8E"/>
</linearGradient>
<linearGradient id="paint4_linear_6928_9980" x1="12.8262" y1="11.6989" x2="1.46475" y2="11.8536" gradientUnits="userSpaceOnUse">
<stop stop-color="#9F9F9F"/>
<stop offset="0.522948" stop-color="#C3C3C3"/>
<stop offset="0.669499" stop-color="#DCDCDC"/>
<stop offset="1" stop-color="#8E8E8E"/>
</linearGradient>
<linearGradient id="paint5_linear_6928_9980" x1="12.6843" y1="4.2506" x2="9.97291" y2="4.33445" gradientUnits="userSpaceOnUse">
<stop stop-color="#9F9F9F"/>
<stop offset="0.522948" stop-color="#C3C3C3"/>
<stop offset="0.669499" stop-color="#DCDCDC"/>
<stop offset="1" stop-color="#8E8E8E"/>
</linearGradient>
<linearGradient id="paint6_linear_6928_9980" x1="12.6843" y1="4.2506" x2="9.97291" y2="4.33445" gradientUnits="userSpaceOnUse">
<stop stop-color="#9F9F9F"/>
<stop offset="0.522948" stop-color="#C3C3C3"/>
<stop offset="0.669499" stop-color="#DCDCDC"/>
<stop offset="1" stop-color="#8E8E8E"/>
</linearGradient>
<linearGradient id="paint7_linear_6928_9980" x1="12.7413" y1="4.35253" x2="10.2918" y2="4.41652" gradientUnits="userSpaceOnUse">
<stop stop-color="#9F9F9F"/>
<stop offset="0.522948" stop-color="#C3C3C3"/>
<stop offset="0.669499" stop-color="#DCDCDC"/>
<stop offset="1" stop-color="#8E8E8E"/>
</linearGradient>
<linearGradient id="paint8_linear_6928_9980" x1="12.7614" y1="4.52407" x2="10.3721" y2="4.58436" gradientUnits="userSpaceOnUse">
<stop stop-color="#9F9F9F"/>
<stop offset="0.522948" stop-color="#C3C3C3"/>
<stop offset="0.669499" stop-color="#DCDCDC"/>
<stop offset="1" stop-color="#8E8E8E"/>
</linearGradient>
<linearGradient id="paint9_linear_6928_9980" x1="12.7495" y1="4.94461" x2="10.2136" y2="4.999" gradientUnits="userSpaceOnUse">
<stop stop-color="#9F9F9F"/>
<stop offset="0.522948" stop-color="#C3C3C3"/>
<stop offset="0.669499" stop-color="#DCDCDC"/>
<stop offset="1" stop-color="#8E8E8E"/>
</linearGradient>
<linearGradient id="paint10_linear_6928_9980" x1="12.6204" y1="5.50746" x2="9.81443" y2="5.57938" gradientUnits="userSpaceOnUse">
<stop stop-color="#9F9F9F"/>
<stop offset="0.522948" stop-color="#C3C3C3"/>
<stop offset="0.669499" stop-color="#DCDCDC"/>
<stop offset="1" stop-color="#8E8E8E"/>
</linearGradient>
<linearGradient id="paint11_linear_6928_9980" x1="12.8262" y1="11.6989" x2="1.46475" y2="11.8536" gradientUnits="userSpaceOnUse">
<stop stop-color="#9F9F9F"/>
<stop offset="0.522948" stop-color="#C3C3C3"/>
<stop offset="0.669499" stop-color="#DCDCDC"/>
<stop offset="1" stop-color="#8E8E8E"/>
</linearGradient>
<linearGradient id="paint12_linear_6928_9980" x1="12.5844" y1="11.851" x2="3.09806" y2="11.9795" gradientUnits="userSpaceOnUse">
<stop stop-color="#9F9F9F"/>
<stop offset="0.522948" stop-color="#C3C3C3"/>
<stop offset="0.669499" stop-color="#DCDCDC"/>
<stop offset="1" stop-color="#8E8E8E"/>
</linearGradient>
<linearGradient id="paint13_linear_6928_9980" x1="14.0285" y1="6.72854" x2="11.1416" y2="6.80793" gradientUnits="userSpaceOnUse">
<stop stop-color="#9F9F9F"/>
<stop offset="0.522948" stop-color="#C3C3C3"/>
<stop offset="0.669499" stop-color="#DCDCDC"/>
<stop offset="1" stop-color="#8E8E8E"/>
</linearGradient>
<linearGradient id="paint14_linear_6928_9980" x1="13.464" y1="9.03517" x2="8.21421" y2="9.18326" gradientUnits="userSpaceOnUse">
<stop stop-color="#9F9F9F"/>
<stop offset="0.522948" stop-color="#C3C3C3"/>
<stop offset="0.669499" stop-color="#DCDCDC"/>
<stop offset="1" stop-color="#8E8E8E"/>
</linearGradient>
<linearGradient id="paint15_linear_6928_9980" x1="10.8915" y1="10.0581" x2="8.51386" y2="10.1225" gradientUnits="userSpaceOnUse">
<stop stop-color="#9F9F9F"/>
<stop offset="0.522948" stop-color="#C3C3C3"/>
<stop offset="0.669499" stop-color="#DCDCDC"/>
<stop offset="1" stop-color="#8E8E8E"/>
</linearGradient>
<linearGradient id="paint16_linear_6928_9980" x1="10.9527" y1="10.2095" x2="8.49353" y2="10.2709" gradientUnits="userSpaceOnUse">
<stop stop-color="#9F9F9F"/>
<stop offset="0.522948" stop-color="#C3C3C3"/>
<stop offset="0.669499" stop-color="#DCDCDC"/>
<stop offset="1" stop-color="#8E8E8E"/>
</linearGradient>
<linearGradient id="paint17_linear_6928_9980" x1="11.1332" y1="10.3693" x2="8.55972" y2="10.4444" gradientUnits="userSpaceOnUse">
<stop stop-color="#9F9F9F"/>
<stop offset="0.522948" stop-color="#C3C3C3"/>
<stop offset="0.669499" stop-color="#DCDCDC"/>
<stop offset="1" stop-color="#8E8E8E"/>
</linearGradient>
<linearGradient id="paint18_linear_6928_9980" x1="14.7122" y1="6.5219" x2="11.5526" y2="6.63669" gradientUnits="userSpaceOnUse">
<stop stop-color="#9F9F9F"/>
<stop offset="0.522948" stop-color="#C3C3C3"/>
<stop offset="0.669499" stop-color="#DCDCDC"/>
<stop offset="1" stop-color="#8E8E8E"/>
</linearGradient>
<linearGradient id="paint19_linear_6928_9980" x1="13.464" y1="9.03517" x2="8.21421" y2="9.18326" gradientUnits="userSpaceOnUse">
<stop stop-color="#9F9F9F"/>
<stop offset="0.522948" stop-color="#C3C3C3"/>
<stop offset="0.669499" stop-color="#DCDCDC"/>
<stop offset="1" stop-color="#8E8E8E"/>
</linearGradient>
<linearGradient id="paint20_linear_6928_9980" x1="13.5783" y1="7.48256" x2="10.9213" y2="7.53241" gradientUnits="userSpaceOnUse">
<stop stop-color="#9F9F9F"/>
<stop offset="0.522948" stop-color="#C3C3C3"/>
<stop offset="0.669499" stop-color="#DCDCDC"/>
<stop offset="1" stop-color="#8E8E8E"/>
</linearGradient>
<linearGradient id="paint21_linear_6928_9980" x1="17.1439" y1="4.19572" x2="14.3622" y2="4.26957" gradientUnits="userSpaceOnUse">
<stop stop-color="#9F9F9F"/>
<stop offset="0.522948" stop-color="#C3C3C3"/>
<stop offset="0.669499" stop-color="#DCDCDC"/>
<stop offset="1" stop-color="#8E8E8E"/>
</linearGradient>
<linearGradient id="paint22_linear_6928_9980" x1="14.858" y1="6.53257" x2="12.2807" y2="6.60791" gradientUnits="userSpaceOnUse">
<stop stop-color="#9F9F9F"/>
<stop offset="0.522948" stop-color="#C3C3C3"/>
<stop offset="0.669499" stop-color="#DCDCDC"/>
<stop offset="1" stop-color="#8E8E8E"/>
</linearGradient>
<linearGradient id="paint23_linear_6928_9980" x1="17.2953" y1="4.01626" x2="14.7364" y2="4.09151" gradientUnits="userSpaceOnUse">
<stop stop-color="#9F9F9F"/>
<stop offset="0.522948" stop-color="#C3C3C3"/>
<stop offset="0.669499" stop-color="#DCDCDC"/>
<stop offset="1" stop-color="#8E8E8E"/>
</linearGradient>
<linearGradient id="paint24_linear_6928_9980" x1="17.2919" y1="4.03685" x2="14.9192" y2="4.10239" gradientUnits="userSpaceOnUse">
<stop stop-color="#9F9F9F"/>
<stop offset="0.522948" stop-color="#C3C3C3"/>
<stop offset="0.669499" stop-color="#DCDCDC"/>
<stop offset="1" stop-color="#8E8E8E"/>
</linearGradient>
<linearGradient id="paint25_linear_6928_9980" x1="14.9573" y1="6.71071" x2="12.464" y2="6.7725" gradientUnits="userSpaceOnUse">
<stop stop-color="#9F9F9F"/>
<stop offset="0.522948" stop-color="#C3C3C3"/>
<stop offset="0.669499" stop-color="#DCDCDC"/>
<stop offset="1" stop-color="#8E8E8E"/>
</linearGradient>
<linearGradient id="paint26_linear_6928_9980" x1="11.8809" y1="10.3748" x2="8.66737" y2="10.4935" gradientUnits="userSpaceOnUse">
<stop stop-color="#9F9F9F"/>
<stop offset="0.522948" stop-color="#C3C3C3"/>
<stop offset="0.669499" stop-color="#DCDCDC"/>
<stop offset="1" stop-color="#8E8E8E"/>
</linearGradient>
<linearGradient id="paint27_linear_6928_9980" x1="16.7814" y1="4.71276" x2="14.2456" y2="4.76717" gradientUnits="userSpaceOnUse">
<stop stop-color="#9F9F9F"/>
<stop offset="0.522948" stop-color="#C3C3C3"/>
<stop offset="0.669499" stop-color="#DCDCDC"/>
<stop offset="1" stop-color="#8E8E8E"/>
</linearGradient>
<linearGradient id="paint28_linear_6928_9980" x1="16.7289" y1="5.23821" x2="14.2324" y2="5.29717" gradientUnits="userSpaceOnUse">
<stop stop-color="#9F9F9F"/>
<stop offset="0.522948" stop-color="#C3C3C3"/>
<stop offset="0.669499" stop-color="#DCDCDC"/>
<stop offset="1" stop-color="#8E8E8E"/>
</linearGradient>
<linearGradient id="paint29_linear_6928_9980" x1="16.8018" y1="5.4642" x2="14.347" y2="5.5327" gradientUnits="userSpaceOnUse">
<stop stop-color="#9F9F9F"/>
<stop offset="0.522948" stop-color="#C3C3C3"/>
<stop offset="0.669499" stop-color="#DCDCDC"/>
<stop offset="1" stop-color="#8E8E8E"/>
</linearGradient>
<linearGradient id="paint30_linear_6928_9980" x1="14.9622" y1="7.39543" x2="12.3178" y2="7.44562" gradientUnits="userSpaceOnUse">
<stop stop-color="#9F9F9F"/>
<stop offset="0.522948" stop-color="#C3C3C3"/>
<stop offset="0.669499" stop-color="#DCDCDC"/>
<stop offset="1" stop-color="#8E8E8E"/>
</linearGradient>
<linearGradient id="paint31_linear_6928_9980" x1="15.3408" y1="12.5316" x2="6.67086" y2="12.7138" gradientUnits="userSpaceOnUse">
<stop stop-color="#9F9F9F"/>
<stop offset="0.522948" stop-color="#C3C3C3"/>
<stop offset="0.669499" stop-color="#DCDCDC"/>
<stop offset="1" stop-color="#8E8E8E"/>
</linearGradient>
<linearGradient id="paint32_linear_6928_9980" x1="14.9797" y1="9.71245" x2="9.0974" y2="9.94256" gradientUnits="userSpaceOnUse">
<stop stop-color="#9F9F9F"/>
<stop offset="0.522948" stop-color="#C3C3C3"/>
<stop offset="0.669499" stop-color="#DCDCDC"/>
<stop offset="1" stop-color="#8E8E8E"/>
</linearGradient>
<linearGradient id="paint33_linear_6928_9980" x1="15.989" y1="8.16045" x2="12.1963" y2="8.2928" gradientUnits="userSpaceOnUse">
<stop stop-color="#9F9F9F"/>
<stop offset="0.522948" stop-color="#C3C3C3"/>
<stop offset="0.669499" stop-color="#DCDCDC"/>
<stop offset="1" stop-color="#8E8E8E"/>
</linearGradient>
<linearGradient id="paint34_linear_6928_9980" x1="18.341" y1="5.91061" x2="14.2461" y2="6.04188" gradientUnits="userSpaceOnUse">
<stop stop-color="#9F9F9F"/>
<stop offset="0.522948" stop-color="#C3C3C3"/>
<stop offset="0.669499" stop-color="#DCDCDC"/>
<stop offset="1" stop-color="#8E8E8E"/>
</linearGradient>
<linearGradient id="paint35_linear_6928_9980" x1="19.4619" y1="4.59414" x2="14.6652" y2="4.7573" gradientUnits="userSpaceOnUse">
<stop stop-color="#9F9F9F"/>
<stop offset="0.522948" stop-color="#C3C3C3"/>
<stop offset="0.669499" stop-color="#DCDCDC"/>
<stop offset="1" stop-color="#8E8E8E"/>
</linearGradient>
<linearGradient id="paint36_linear_6928_9980" x1="15.3408" y1="12.5316" x2="6.67086" y2="12.7138" gradientUnits="userSpaceOnUse">
<stop stop-color="#9F9F9F"/>
<stop offset="0.522948" stop-color="#C3C3C3"/>
<stop offset="0.669499" stop-color="#DCDCDC"/>
<stop offset="1" stop-color="#8E8E8E"/>
</linearGradient>
<linearGradient id="paint37_linear_6928_9980" x1="15.3408" y1="12.5316" x2="6.67086" y2="12.7138" gradientUnits="userSpaceOnUse">
<stop stop-color="#9F9F9F"/>
<stop offset="0.522948" stop-color="#C3C3C3"/>
<stop offset="0.669499" stop-color="#DCDCDC"/>
<stop offset="1" stop-color="#8E8E8E"/>
</linearGradient>
<linearGradient id="paint38_linear_6928_9980" x1="15.3408" y1="12.5316" x2="6.67086" y2="12.7138" gradientUnits="userSpaceOnUse">
<stop stop-color="#9F9F9F"/>
<stop offset="0.522948" stop-color="#C3C3C3"/>
<stop offset="0.669499" stop-color="#DCDCDC"/>
<stop offset="1" stop-color="#8E8E8E"/>
</linearGradient>
<linearGradient id="paint39_linear_6928_9980" x1="13.2333" y1="13.7235" x2="8.54143" y2="13.8341" gradientUnits="userSpaceOnUse">
<stop stop-color="#9F9F9F"/>
<stop offset="0.522948" stop-color="#C3C3C3"/>
<stop offset="0.669499" stop-color="#DCDCDC"/>
<stop offset="1" stop-color="#8E8E8E"/>
</linearGradient>
<linearGradient id="paint40_linear_6928_9980" x1="20.2895" y1="12.4337" x2="10.8031" y2="12.5621" gradientUnits="userSpaceOnUse">
<stop stop-color="#9F9F9F"/>
<stop offset="0.522948" stop-color="#C3C3C3"/>
<stop offset="0.669499" stop-color="#DCDCDC"/>
<stop offset="1" stop-color="#8E8E8E"/>
</linearGradient>
<linearGradient id="paint41_linear_6928_9980" x1="11.5445" y1="16.0162" x2="7.79806" y2="16.1445" gradientUnits="userSpaceOnUse">
<stop stop-color="#9F9F9F"/>
<stop offset="0.522948" stop-color="#C3C3C3"/>
<stop offset="0.669499" stop-color="#DCDCDC"/>
<stop offset="1" stop-color="#8E8E8E"/>
</linearGradient>
<linearGradient id="paint42_linear_6928_9980" x1="9.45864" y1="18.3709" x2="5.36472" y2="18.5018" gradientUnits="userSpaceOnUse">
<stop stop-color="#9F9F9F"/>
<stop offset="0.522948" stop-color="#C3C3C3"/>
<stop offset="0.669499" stop-color="#DCDCDC"/>
<stop offset="1" stop-color="#8E8E8E"/>
</linearGradient>
<linearGradient id="paint43_linear_6928_9980" x1="9.45252" y1="18.8144" x2="6.99673" y2="18.8829" gradientUnits="userSpaceOnUse">
<stop stop-color="#9F9F9F"/>
<stop offset="0.522948" stop-color="#C3C3C3"/>
<stop offset="0.669499" stop-color="#DCDCDC"/>
<stop offset="1" stop-color="#8E8E8E"/>
</linearGradient>
<linearGradient id="paint44_linear_6928_9980" x1="16.6598" y1="10.4933" x2="10.3201" y2="10.6284" gradientUnits="userSpaceOnUse">
<stop stop-color="#9F9F9F"/>
<stop offset="0.522948" stop-color="#C3C3C3"/>
<stop offset="0.669499" stop-color="#DCDCDC"/>
<stop offset="1" stop-color="#8E8E8E"/>
</linearGradient>
<linearGradient id="paint45_linear_6928_9980" x1="9.56288" y1="19.0426" x2="7.06729" y2="19.1016" gradientUnits="userSpaceOnUse">
<stop stop-color="#9F9F9F"/>
<stop offset="0.522948" stop-color="#C3C3C3"/>
<stop offset="0.669499" stop-color="#DCDCDC"/>
<stop offset="1" stop-color="#8E8E8E"/>
</linearGradient>
<linearGradient id="paint46_linear_6928_9980" x1="11.4899" y1="16.8144" x2="8.8329" y2="16.8643" gradientUnits="userSpaceOnUse">
<stop stop-color="#9F9F9F"/>
<stop offset="0.522948" stop-color="#C3C3C3"/>
<stop offset="0.669499" stop-color="#DCDCDC"/>
<stop offset="1" stop-color="#8E8E8E"/>
</linearGradient>
<linearGradient id="paint47_linear_6928_9980" x1="14.524" y1="14.4703" x2="8.71869" y2="14.6948" gradientUnits="userSpaceOnUse">
<stop stop-color="#9F9F9F"/>
<stop offset="0.522948" stop-color="#C3C3C3"/>
<stop offset="0.669499" stop-color="#DCDCDC"/>
<stop offset="1" stop-color="#8E8E8E"/>
</linearGradient>
<linearGradient id="paint48_linear_6928_9980" x1="14.7515" y1="13.6802" x2="11.942" y2="13.759" gradientUnits="userSpaceOnUse">
<stop stop-color="#9F9F9F"/>
<stop offset="0.522948" stop-color="#C3C3C3"/>
<stop offset="0.669499" stop-color="#DCDCDC"/>
<stop offset="1" stop-color="#8E8E8E"/>
</linearGradient>
<linearGradient id="paint49_linear_6928_9980" x1="9.00002" y1="19.6845" x2="4.20236" y2="19.8478" gradientUnits="userSpaceOnUse">
<stop stop-color="#9F9F9F"/>
<stop offset="0.522948" stop-color="#C3C3C3"/>
<stop offset="0.669499" stop-color="#DCDCDC"/>
<stop offset="1" stop-color="#8E8E8E"/>
</linearGradient>
<linearGradient id="paint50_linear_6928_9980" x1="8.88854" y1="20.2413" x2="6.511" y2="20.3071" gradientUnits="userSpaceOnUse">
<stop stop-color="#9F9F9F"/>
<stop offset="0.522948" stop-color="#C3C3C3"/>
<stop offset="0.669499" stop-color="#DCDCDC"/>
<stop offset="1" stop-color="#8E8E8E"/>
</linearGradient>
<linearGradient id="paint51_linear_6928_9980" x1="14.524" y1="14.4703" x2="8.71869" y2="14.6948" gradientUnits="userSpaceOnUse">
<stop stop-color="#9F9F9F"/>
<stop offset="0.522948" stop-color="#C3C3C3"/>
<stop offset="0.669499" stop-color="#DCDCDC"/>
<stop offset="1" stop-color="#8E8E8E"/>
</linearGradient>
<linearGradient id="paint52_linear_6928_9980" x1="11.3382" y1="17.5217" x2="8.84879" y2="17.5833" gradientUnits="userSpaceOnUse">
<stop stop-color="#9F9F9F"/>
<stop offset="0.522948" stop-color="#C3C3C3"/>
<stop offset="0.669499" stop-color="#DCDCDC"/>
<stop offset="1" stop-color="#8E8E8E"/>
</linearGradient>
<linearGradient id="paint53_linear_6928_9980" x1="9.06048" y1="20.2621" x2="6.5015" y2="20.3374" gradientUnits="userSpaceOnUse">
<stop stop-color="#9F9F9F"/>
<stop offset="0.522948" stop-color="#C3C3C3"/>
<stop offset="0.669499" stop-color="#DCDCDC"/>
<stop offset="1" stop-color="#8E8E8E"/>
</linearGradient>
<linearGradient id="paint54_linear_6928_9980" x1="9.54731" y1="19.5667" x2="7.01146" y2="19.6211" gradientUnits="userSpaceOnUse">
<stop stop-color="#9F9F9F"/>
<stop offset="0.522948" stop-color="#C3C3C3"/>
<stop offset="0.669499" stop-color="#DCDCDC"/>
<stop offset="1" stop-color="#8E8E8E"/>
</linearGradient>
<radialGradient id="paint55_radial_6928_9980" cx="0" cy="0" r="1" gradientUnits="userSpaceOnUse" gradientTransform="translate(9.29328 9.31703) rotate(103.711) scale(28.7598 135.882)">
<stop stop-color="#9F9F9F"/>
<stop offset="0.421875" stop-color="#6E6E6E"/>
<stop offset="1" stop-color="#8E8E8E"/>
</radialGradient>
<linearGradient id="paint56_linear_6928_9980" x1="9.41756" y1="20.0812" x2="6.63586" y2="20.155" gradientUnits="userSpaceOnUse">
<stop stop-color="#9F9F9F"/>
<stop offset="0.522948" stop-color="#C3C3C3"/>
<stop offset="0.669499" stop-color="#DCDCDC"/>
<stop offset="1" stop-color="#8E8E8E"/>
</linearGradient>
<linearGradient id="paint57_linear_6928_9980" x1="11.5175" y1="17.6993" x2="8.94491" y2="17.7743" gradientUnits="userSpaceOnUse">
<stop stop-color="#9F9F9F"/>
<stop offset="0.522948" stop-color="#C3C3C3"/>
<stop offset="0.669499" stop-color="#DCDCDC"/>
<stop offset="1" stop-color="#8E8E8E"/>
</linearGradient>
<linearGradient id="paint58_linear_6928_9980" x1="15.5305" y1="13.5171" x2="12.2649" y2="13.6395" gradientUnits="userSpaceOnUse">
<stop stop-color="#9F9F9F"/>
<stop offset="0.522948" stop-color="#C3C3C3"/>
<stop offset="0.669499" stop-color="#DCDCDC"/>
<stop offset="1" stop-color="#8E8E8E"/>
</linearGradient>
<linearGradient id="paint59_linear_6928_9980" x1="15.671" y1="13.525" x2="13.0946" y2="13.6003" gradientUnits="userSpaceOnUse">
<stop stop-color="#9F9F9F"/>
<stop offset="0.522948" stop-color="#C3C3C3"/>
<stop offset="0.669499" stop-color="#DCDCDC"/>
<stop offset="1" stop-color="#8E8E8E"/>
</linearGradient>
<linearGradient id="paint60_linear_6928_9980" x1="12.2176" y1="17.7108" x2="9.05797" y2="17.8257" gradientUnits="userSpaceOnUse">
<stop stop-color="#9F9F9F"/>
<stop offset="0.522948" stop-color="#C3C3C3"/>
<stop offset="0.669499" stop-color="#DCDCDC"/>
<stop offset="1" stop-color="#8E8E8E"/>
</linearGradient>
<linearGradient id="paint61_linear_6928_9980" x1="15.7436" y1="13.6808" x2="13.2812" y2="13.7424" gradientUnits="userSpaceOnUse">
<stop stop-color="#9F9F9F"/>
<stop offset="0.522948" stop-color="#C3C3C3"/>
<stop offset="0.669499" stop-color="#DCDCDC"/>
<stop offset="1" stop-color="#8E8E8E"/>
</linearGradient>
<linearGradient id="paint62_linear_6928_9980" x1="12.8751" y1="16.7508" x2="10.2181" y2="16.8007" gradientUnits="userSpaceOnUse">
<stop stop-color="#9F9F9F"/>
<stop offset="0.522948" stop-color="#C3C3C3"/>
<stop offset="0.669499" stop-color="#DCDCDC"/>
<stop offset="1" stop-color="#8E8E8E"/>
</linearGradient>
<linearGradient id="paint63_linear_6928_9980" x1="15.7287" y1="13.8332" x2="13.3501" y2="13.8976" gradientUnits="userSpaceOnUse">
<stop stop-color="#9F9F9F"/>
<stop offset="0.522948" stop-color="#C3C3C3"/>
<stop offset="0.669499" stop-color="#DCDCDC"/>
<stop offset="1" stop-color="#8E8E8E"/>
</linearGradient>
<linearGradient id="paint64_linear_6928_9980" x1="12.6426" y1="17.501" x2="9.75565" y2="17.5804" gradientUnits="userSpaceOnUse">
<stop stop-color="#9F9F9F"/>
<stop offset="0.522948" stop-color="#C3C3C3"/>
<stop offset="0.669499" stop-color="#DCDCDC"/>
<stop offset="1" stop-color="#8E8E8E"/>
</linearGradient>
<linearGradient id="paint65_linear_6928_9980" x1="15.8874" y1="15.0246" x2="10.1293" y2="15.1878" gradientUnits="userSpaceOnUse">
<stop stop-color="#9F9F9F"/>
<stop offset="0.522948" stop-color="#C3C3C3"/>
<stop offset="0.669499" stop-color="#DCDCDC"/>
<stop offset="1" stop-color="#8E8E8E"/>
</linearGradient>
<linearGradient id="paint66_linear_6928_9980" x1="13.9662" y1="18.7493" x2="11.168" y2="18.8225" gradientUnits="userSpaceOnUse">
<stop stop-color="#9F9F9F"/>
<stop offset="0.522948" stop-color="#C3C3C3"/>
<stop offset="0.669499" stop-color="#DCDCDC"/>
<stop offset="1" stop-color="#8E8E8E"/>
</linearGradient>
<linearGradient id="paint67_linear_6928_9980" x1="13.5893" y1="19.2888" x2="11.0535" y2="19.3432" gradientUnits="userSpaceOnUse">
<stop stop-color="#9F9F9F"/>
<stop offset="0.522948" stop-color="#C3C3C3"/>
<stop offset="0.669499" stop-color="#DCDCDC"/>
<stop offset="1" stop-color="#8E8E8E"/>
</linearGradient>
<linearGradient id="paint68_linear_6928_9980" x1="13.4447" y1="19.7049" x2="11.0513" y2="19.7654" gradientUnits="userSpaceOnUse">
<stop stop-color="#9F9F9F"/>
<stop offset="0.522948" stop-color="#C3C3C3"/>
<stop offset="0.669499" stop-color="#DCDCDC"/>
<stop offset="1" stop-color="#8E8E8E"/>
</linearGradient>
<linearGradient id="paint69_linear_6928_9980" x1="13.5166" y1="19.879" x2="11.0682" y2="19.9429" gradientUnits="userSpaceOnUse">
<stop stop-color="#9F9F9F"/>
<stop offset="0.522948" stop-color="#C3C3C3"/>
<stop offset="0.669499" stop-color="#DCDCDC"/>
<stop offset="1" stop-color="#8E8E8E"/>
</linearGradient>
<linearGradient id="paint70_linear_6928_9980" x1="20.2895" y1="12.4337" x2="10.8031" y2="12.5621" gradientUnits="userSpaceOnUse">
<stop stop-color="#9F9F9F"/>
<stop offset="0.522948" stop-color="#C3C3C3"/>
<stop offset="0.669499" stop-color="#DCDCDC"/>
<stop offset="1" stop-color="#8E8E8E"/>
</linearGradient>
<linearGradient id="paint71_linear_6928_9980" x1="13.8221" y1="19.985" x2="11.1097" y2="20.0689" gradientUnits="userSpaceOnUse">
<stop stop-color="#9F9F9F"/>
<stop offset="0.522948" stop-color="#C3C3C3"/>
<stop offset="0.669499" stop-color="#DCDCDC"/>
<stop offset="1" stop-color="#8E8E8E"/>
</linearGradient>
<linearGradient id="paint72_linear_6928_9980" x1="20.2895" y1="12.4337" x2="10.8031" y2="12.5621" gradientUnits="userSpaceOnUse">
<stop stop-color="#9F9F9F"/>
<stop offset="0.522948" stop-color="#C3C3C3"/>
<stop offset="0.669499" stop-color="#DCDCDC"/>
<stop offset="1" stop-color="#8E8E8E"/>
</linearGradient>
<linearGradient id="paint73_linear_6928_9980" x1="21.8128" y1="12.5573" x2="10.4646" y2="12.712" gradientUnits="userSpaceOnUse">
<stop stop-color="#9F9F9F"/>
<stop offset="0.522948" stop-color="#C3C3C3"/>
<stop offset="0.669499" stop-color="#DCDCDC"/>
<stop offset="1" stop-color="#8E8E8E"/>
</linearGradient>
<linearGradient id="paint74_linear_6928_9980" x1="23.3173" y1="11.1517" x2="-2.82328" y2="11.7598" gradientUnits="userSpaceOnUse">
<stop stop-color="#9F9F9F"/>
<stop offset="0.522948" stop-color="#C3C3C3"/>
<stop offset="0.669499" stop-color="#DCDCDC"/>
<stop offset="1" stop-color="#8E8E8E"/>
</linearGradient>
<radialGradient id="paint75_radial_6928_9980" cx="0" cy="0" r="1" gradientUnits="userSpaceOnUse" gradientTransform="translate(17.8987 9.07975) rotate(103.733) scale(28.6735 135.679)">
<stop stop-color="#9F9F9F"/>
<stop offset="0.421875" stop-color="#6E6E6E"/>
<stop offset="1" stop-color="#8E8E8E"/>
</radialGradient>
<radialGradient id="paint76_radial_6928_9980" cx="0" cy="0" r="1" gradientUnits="userSpaceOnUse" gradientTransform="translate(20.3691 10.051) rotate(115.335) scale(42.6506 338.465)">
<stop stop-color="#9F9F9F"/>
<stop offset="0.421875" stop-color="#6E6E6E"/>
<stop offset="1" stop-color="#8E8E8E"/>
</radialGradient>
</defs>
</svg>
