<svg width="24" height="24" viewBox="0 0 24 24" fill="none" xmlns="http://www.w3.org/2000/svg">
<g id="Group">
<g id="Group_2">
<g id="Group_3">
<g id="Group_4">
<path id="Vector" d="M4.71779 18.284L6.71023 19.9799C4.44268 18.0494 3.98608 14.4071 5.82795 10.8324C7.21159 8.15024 9.61587 6.05984 12.2578 5.11407L10.2654 3.41821C7.62424 4.36716 5.21915 6.45358 3.83551 9.13657C1.99364 12.7089 2.45187 16.3511 4.71779 18.284Z" fill="url(#paint0_linear_6784_11599)"/>
</g>
</g>
</g>
<g id="Group_5">
<g id="Group_6">
<g id="Group_7">
<path id="Vector_2" d="M4.71779 18.284L6.71023 19.9799C4.44268 18.0494 3.98608 14.4071 5.82795 10.8324C7.21159 8.15024 9.61587 6.05984 12.2578 5.11407L10.2654 3.41821C7.62424 4.36716 5.21915 6.45358 3.83551 9.13657C1.99364 12.7089 2.45187 16.3511 4.71779 18.284Z" fill="url(#paint1_linear_6784_11599)"/>
</g>
</g>
</g>
<g id="Group_8">
<g id="Group_9">
<g id="Group_10">
<path id="Vector_3" d="M4.71779 18.284L6.71023 19.9799C4.44268 18.0494 3.98608 14.4071 5.82795 10.8324C7.21159 8.15024 9.61587 6.05984 12.2578 5.11407L10.2654 3.41821C7.62424 4.36716 5.21915 6.45358 3.83551 9.13657C1.99364 12.7089 2.45187 16.3511 4.71779 18.284Z" fill="url(#paint2_linear_6784_11599)"/>
</g>
</g>
</g>
<g id="Group_11">
<g id="Group_12">
<g id="Group_13">
<path id="Vector_4" d="M4.71779 18.284L6.71023 19.9799C4.44268 18.0494 3.98608 14.4071 5.82795 10.8324C7.21159 8.15024 9.61587 6.05984 12.2578 5.11407L10.2654 3.41821C7.62424 4.36716 5.21915 6.45358 3.83551 9.13657C1.99364 12.7089 2.45187 16.3511 4.71779 18.284Z" fill="url(#paint3_linear_6784_11599)"/>
</g>
</g>
</g>
<g id="Group_14">
<g id="Group_15">
<g id="Group_16">
<path id="Vector_5" d="M4.71779 18.284L6.71023 19.9799C4.44268 18.0494 3.98608 14.4071 5.82795 10.8324C7.21159 8.15024 9.61587 6.05984 12.2578 5.11407L10.2654 3.41821C7.62424 4.36716 5.21915 6.45358 3.83551 9.13657C1.99364 12.7089 2.45187 16.3511 4.71779 18.284Z" fill="url(#paint4_linear_6784_11599)"/>
</g>
</g>
</g>
<g id="Group_17">
<g id="Group_18">
<g id="Group_19">
<path id="Vector_6" d="M10.2645 3.42066L12.257 5.1197C12.3029 5.09512 12.3537 5.08047 12.4059 5.07675C12.4575 5.07298 12.5086 5.08895 12.5483 5.12129L10.5559 3.42543C10.5364 3.40908 10.5138 3.39671 10.4893 3.38906C10.4648 3.38141 10.439 3.37863 10.4135 3.38089C10.3612 3.38423 10.3103 3.3989 10.2645 3.42384" fill="url(#paint5_linear_6784_11599)"/>
</g>
</g>
</g>
<g id="Group_20">
<g id="Group_21">
<g id="Group_22">
<path id="Vector_7" d="M10.2645 3.42066L12.257 5.1197C12.3029 5.09512 12.3537 5.08047 12.4059 5.07675C12.4575 5.07298 12.5086 5.08895 12.5483 5.12129L10.5559 3.42543C10.5364 3.40908 10.5138 3.39671 10.4893 3.38906C10.4648 3.38141 10.439 3.37863 10.4135 3.38089C10.3612 3.38423 10.3103 3.3989 10.2645 3.42384" fill="url(#paint6_linear_6784_11599)"/>
</g>
</g>
</g>
<g id="Group_23">
<g id="Group_24">
<g id="Group_25">
<path id="Vector_8" d="M10.6261 3.58732L12.6185 5.28318C12.6196 5.25233 12.6139 5.22161 12.6018 5.19308C12.5897 5.16455 12.5716 5.13887 12.5485 5.11774L10.5561 3.42188C10.5792 3.44297 10.5973 3.46865 10.6094 3.49719C10.6215 3.52573 10.6272 3.55646 10.6261 3.58732Z" fill="url(#paint7_linear_6784_11599)"/>
</g>
</g>
</g>
<g id="Group_26">
<g id="Group_27">
<g id="Group_28">
<path id="Vector_9" d="M10.6297 3.76718L12.6222 5.46383C12.6425 5.37156 12.6531 5.32463 12.6222 5.28009L10.6297 3.58423C10.6647 3.62877 10.6541 3.67491 10.6297 3.76718Z" fill="url(#paint8_linear_6784_11599)"/>
</g>
</g>
</g>
<path id="Vector_10" d="M10.4877 4.42111L12.4801 6.11776L12.6226 5.4671L10.6301 3.77124L10.4877 4.42111Z" fill="url(#paint9_linear_6784_11599)"/>
<g id="Group_29">
<g id="Group_30">
<g id="Group_31">
<path id="Vector_11" d="M10.1172 4.89736L12.1097 6.59402C12.2651 6.49459 12.4352 6.30289 12.48 6.11676L10.4875 4.4209C10.4468 4.60623 10.2727 4.79793 10.1172 4.89816" fill="url(#paint10_linear_6784_11599)"/>
</g>
</g>
</g>
<g id="Group_32">
<g id="Group_33">
<g id="Group_34">
<path id="Vector_12" d="M4.71779 18.284L6.71023 19.9799C4.44268 18.0494 3.98608 14.4071 5.82795 10.8324C7.21159 8.15024 9.61587 6.05984 12.2578 5.11407L10.2654 3.41821C7.62424 4.36716 5.21915 6.45358 3.83551 9.13657C1.99364 12.7089 2.45187 16.3511 4.71779 18.284Z" fill="url(#paint11_linear_6784_11599)"/>
</g>
</g>
</g>
<g id="Group_35">
<g id="Group_36">
<g id="Group_37">
<path id="Vector_13" d="M5.80534 17.1001L7.79778 18.8007C6.92283 18.0554 6.34496 16.9887 6.18137 15.693C5.66779 12.1788 8.33985 8.05684 12.1099 6.59802L10.1174 4.90137C6.3474 6.36178 3.67535 10.4821 4.18892 13.9963C4.3517 15.2921 4.93039 16.3596 5.80534 17.1041" fill="url(#paint12_linear_6784_11599)"/>
</g>
</g>
</g>
<g id="Group_38">
<g id="Group_39">
<g id="Group_40">
<path id="Vector_14" d="M11.4527 6.0739L13.4451 7.77055C13.4858 7.58442 13.6494 7.43966 13.8838 7.38238L11.8913 5.68652C11.6569 5.743 11.4933 5.88856 11.4527 6.0739Z" fill="url(#paint13_linear_6784_11599)"/>
</g>
</g>
</g>
<g id="Group_41">
<g id="Group_42">
<g id="Group_43">
<path id="Vector_15" d="M8.78003 9.18666L10.7725 10.8825C11.1794 9.85403 12.1561 9.02758 13.2012 8.88679L11.2087 7.18774C10.1596 7.32774 9.18291 8.15419 8.78003 9.18348" fill="url(#paint14_linear_6784_11599)"/>
</g>
</g>
</g>
<path id="Vector_16" d="M8.77025 9.2337L10.7627 10.9296L10.7725 10.8834L8.78002 9.18677L8.77025 9.2337Z" fill="url(#paint15_linear_6784_11599)"/>
<g id="Group_44">
<g id="Group_45">
<g id="Group_46">
<path id="Vector_17" d="M8.83715 9.48959L10.8296 11.1862C10.7955 11.1535 10.7712 11.1122 10.7594 11.0669C10.7477 11.0216 10.7488 10.974 10.7628 10.9293L8.77041 9.23267C8.7564 9.27736 8.75522 9.32495 8.76699 9.37026C8.77876 9.41556 8.80303 9.45684 8.83715 9.48959Z" fill="url(#paint16_linear_6784_11599)"/>
</g>
</g>
</g>
<g id="Group_47">
<g id="Group_48">
<g id="Group_49">
<path id="Vector_18" d="M8.83696 9.49438L10.8294 11.1902C10.8784 11.2295 10.9412 11.2487 11.0044 11.2435L9.01195 9.54688C8.94886 9.55222 8.88612 9.5334 8.83696 9.49438Z" fill="url(#paint17_linear_6784_11599)"/>
</g>
</g>
</g>
<path id="Vector_19" d="M11.8914 5.68898L13.8839 7.38564L14.5537 7.35461L12.5613 5.65796L11.8914 5.68898Z" fill="url(#paint18_linear_6784_11599)"/>
<g id="Group_50">
<g id="Group_51">
<g id="Group_52">
<path id="Vector_20" d="M8.78003 9.18666L10.7725 10.8825C11.1794 9.85403 12.1561 9.02758 13.2012 8.88679L11.2087 7.18774C10.1596 7.32774 9.18291 8.15419 8.78003 9.18348" fill="url(#paint19_linear_6784_11599)"/>
</g>
</g>
</g>
<path id="Vector_21" d="M11.2087 7.191L13.2011 8.88765L13.4453 7.77325L11.4529 6.07739L11.2087 7.191Z" fill="url(#paint20_linear_6784_11599)"/>
<g id="Group_53">
<g id="Group_54">
<g id="Group_55">
<path id="Vector_22" d="M14.662 3.53996L16.6544 5.23582C16.6703 5.14634 16.7115 5.06299 16.7733 4.99522C16.8352 4.92746 16.9152 4.87799 17.0044 4.85242L15.012 3.15576C14.9228 3.18164 14.8428 3.23131 14.781 3.29918C14.7192 3.36705 14.678 3.45044 14.662 3.53996Z" fill="url(#paint21_linear_6784_11599)"/>
</g>
</g>
</g>
<g id="Group_56">
<g id="Group_57">
<g id="Group_58">
<path id="Vector_23" d="M12.5616 5.65797L14.554 7.35463C14.5853 7.35175 14.6169 7.35498 14.647 7.36412C14.677 7.37327 14.7049 7.38816 14.729 7.40792L12.7333 5.71206C12.6844 5.67248 12.6216 5.65307 12.5583 5.65797" fill="url(#paint22_linear_6784_11599)"/>
</g>
</g>
</g>
<g id="Group_59">
<g id="Group_60">
<g id="Group_61">
<path id="Vector_24" d="M15.0123 3.15568L17.0047 4.85234C17.0606 4.84356 17.1179 4.85336 17.1675 4.88018L15.175 3.18432C15.1258 3.15656 15.0683 3.14643 15.0123 3.15568Z" fill="url(#paint23_linear_6784_11599)"/>
</g>
</g>
</g>
<g id="Group_62">
<g id="Group_63">
<g id="Group_64">
<path id="Vector_25" d="M15.1804 3.19363L17.1729 4.88949L17.1639 4.87994L15.1747 3.18408C15.1783 3.18668 15.1813 3.18992 15.1837 3.19363" fill="url(#paint24_linear_6784_11599)"/>
</g>
</g>
</g>
<g id="Group_65">
<g id="Group_66">
<g id="Group_67">
<path id="Vector_26" d="M12.8373 6.01283L14.8298 7.70949C14.8365 7.65508 14.8309 7.5999 14.8135 7.54782C14.796 7.49574 14.7671 7.44802 14.7288 7.40802L12.7331 5.71216C12.7715 5.75195 12.8005 5.79952 12.8179 5.85149C12.8354 5.90346 12.8409 5.95855 12.8341 6.01283" fill="url(#paint25_linear_6784_11599)"/>
</g>
</g>
</g>
<path id="Vector_27" d="M9.01235 9.54366L11.0048 11.2395L11.7202 11.2069L9.72777 9.51025L9.01235 9.54366Z" fill="url(#paint26_linear_6784_11599)"/>
<path id="Vector_28" d="M14.5194 4.18966L16.5119 5.88552L16.6543 5.23645L14.6619 3.53979L14.5194 4.18966Z" fill="url(#paint27_linear_6784_11599)"/>
<g id="Group_68">
<g id="Group_69">
<g id="Group_70">
<path id="Vector_29" d="M14.6116 4.59066L16.604 6.28731C16.5031 6.20141 16.4705 6.07653 16.512 5.88562L14.5196 4.18896C14.4781 4.37987 14.5106 4.50714 14.6116 4.59066Z" fill="url(#paint28_linear_6784_11599)"/>
</g>
</g>
</g>
<g id="Group_71">
<g id="Group_72">
<g id="Group_73">
<path id="Vector_30" d="M14.6114 4.59082L16.6038 6.28747C16.6269 6.3067 16.652 6.3235 16.6787 6.33759L14.6863 4.64252C14.6597 4.62797 14.6346 4.61092 14.6114 4.59161" fill="url(#paint29_linear_6784_11599)"/>
</g>
</g>
</g>
<path id="Vector_31" d="M12.604 7.0812L14.5965 8.77786L14.8301 7.7096L12.8384 6.01294L12.604 7.0812Z" fill="url(#paint30_linear_6784_11599)"/>
<g id="Group_74">
<g id="Group_75">
<g id="Group_76">
<path id="Vector_32" d="M8.20064 14.9298L10.1931 16.6257C9.69416 16.2009 9.48825 15.5383 9.66079 14.7477C10.0165 13.1234 11.077 12.5205 13.0051 12.2023C14.3888 11.9549 14.7363 11.5715 14.8771 10.9208C14.9512 10.5804 14.8893 10.3084 14.6834 10.1342L12.691 8.4375C12.8969 8.61249 12.9596 8.88374 12.8847 9.22498C12.7422 9.87484 12.3963 10.259 11.0127 10.5056C9.08536 10.8238 8.02403 11.4251 7.66835 13.051C7.4958 13.8409 7.70172 14.5035 8.20064 14.929" fill="url(#paint31_linear_6784_11599)"/>
</g>
</g>
</g>
<g id="Group_77">
<g id="Group_78">
<g id="Group_79">
<path id="Vector_33" d="M9.72755 9.51033L11.72 11.2062C11.7965 11.1976 11.8697 11.1706 11.933 11.1278C11.9963 11.0849 12.0479 11.0274 12.083 10.9604C12.459 10.2533 12.9669 9.95498 13.771 9.91759C14.1959 9.8985 14.4995 9.97725 14.6851 10.1363L12.6926 8.43968C12.507 8.28059 12.2043 8.20105 11.7786 8.22173C10.9745 8.25832 10.4666 8.5574 10.0906 9.26454C10.0553 9.33141 10.0037 9.38879 9.9404 9.43165C9.87711 9.4745 9.80402 9.50152 9.72755 9.51033Z" fill="url(#paint32_linear_6784_11599)"/>
</g>
</g>
</g>
<g id="Group_80">
<g id="Group_81">
<g id="Group_82">
<path id="Vector_34" d="M12.6039 7.08105L14.5964 8.77851C15.101 8.82703 15.5063 8.99009 15.7993 9.23986L13.8069 7.5432C13.5139 7.29343 13.1085 7.13037 12.6039 7.08264" fill="url(#paint33_linear_6784_11599)"/>
</g>
</g>
</g>
<g id="Group_83">
<g id="Group_84">
<g id="Group_85">
<path id="Vector_35" d="M14.6869 4.64233L16.6793 6.33819C17.2128 6.53042 17.7064 6.81525 18.1362 7.17897L16.1438 5.48311C15.7144 5.11877 15.2207 4.83387 14.6869 4.64233Z" fill="url(#paint34_linear_6784_11599)"/>
</g>
</g>
</g>
<g id="Group_86">
<g id="Group_87">
<g id="Group_88">
<path id="Vector_36" d="M15.1806 3.19385L17.1731 4.88971C17.9274 5.11404 18.6253 5.49042 19.2217 5.99456L17.2292 4.29791C16.633 3.79372 15.9351 3.41757 15.1806 3.19385Z" fill="url(#paint35_linear_6784_11599)"/>
</g>
</g>
</g>
<g id="Group_89">
<g id="Group_90">
<g id="Group_91">
<path id="Vector_37" d="M8.20064 14.9298L10.1931 16.6257C9.69416 16.2009 9.48825 15.5383 9.66079 14.7477C10.0165 13.1234 11.077 12.5205 13.0051 12.2023C14.3888 11.9549 14.7363 11.5715 14.8771 10.9208C14.9512 10.5804 14.8893 10.3084 14.6834 10.1342L12.691 8.4375C12.8969 8.61249 12.9596 8.88374 12.8847 9.22498C12.7422 9.87484 12.3963 10.259 11.0127 10.5056C9.08536 10.8238 8.02403 11.4251 7.66835 13.051C7.4958 13.8409 7.70172 14.5035 8.20064 14.929" fill="url(#paint36_linear_6784_11599)"/>
</g>
</g>
</g>
<g id="Group_92">
<g id="Group_93">
<g id="Group_94">
<path id="Vector_38" d="M8.20064 14.9298L10.1931 16.6257C9.69416 16.2009 9.48825 15.5383 9.66079 14.7477C10.0165 13.1234 11.077 12.5205 13.0051 12.2023C14.3888 11.9549 14.7363 11.5715 14.8771 10.9208C14.9512 10.5804 14.8893 10.3084 14.6834 10.1342L12.691 8.4375C12.8969 8.61249 12.9596 8.88374 12.8847 9.22498C12.7422 9.87484 12.3963 10.259 11.0127 10.5056C9.08536 10.8238 8.02403 11.4251 7.66835 13.051C7.4958 13.8409 7.70172 14.5035 8.20064 14.929" fill="url(#paint37_linear_6784_11599)"/>
</g>
</g>
</g>
<g id="Group_95">
<g id="Group_96">
<g id="Group_97">
<path id="Vector_39" d="M8.20064 14.9298L10.1931 16.6257C9.69416 16.2009 9.48825 15.5383 9.66079 14.7477C10.0165 13.1234 11.077 12.5205 13.0051 12.2023C14.3888 11.9549 14.7363 11.5715 14.8771 10.9208C14.9512 10.5804 14.8893 10.3084 14.6834 10.1342L12.691 8.4375C12.8969 8.61249 12.9596 8.88374 12.8847 9.22498C12.7422 9.87484 12.3963 10.259 11.0127 10.5056C9.08536 10.8238 8.02403 11.4251 7.66835 13.051C7.4958 13.8409 7.70172 14.5035 8.20064 14.929" fill="url(#paint38_linear_6784_11599)"/>
</g>
</g>
</g>
<g id="Group_98">
<g id="Group_99">
<g id="Group_100">
<path id="Vector_40" d="M9.34084 14.002L11.3333 15.6986C11.0891 15.4902 10.9841 15.1697 11.0704 14.7752C11.2332 14.0322 11.6963 13.7347 12.9985 13.4452L11.0061 11.7485C9.70384 12.0389 9.24073 12.3356 9.07795 13.0785C8.99167 13.4762 9.09667 13.7944 9.34084 14.002Z" fill="url(#paint39_linear_6784_11599)"/>
</g>
</g>
</g>
<g id="Group_101">
<g id="Group_102">
<g id="Group_103">
<path id="Vector_41" d="M11.8308 17.6871L13.8232 19.383C17.5932 17.9233 20.2653 13.8022 19.7517 10.2872C19.5889 8.99223 19.0102 7.92556 18.1361 7.18024L16.1437 5.48438C17.0186 6.2289 17.5957 7.29557 17.7593 8.59133C18.2728 12.1055 15.6008 16.2275 11.8308 17.6871Z" fill="url(#paint40_linear_6784_11599)"/>
</g>
</g>
</g>
<g id="Group_104">
<g id="Group_105">
<g id="Group_106">
<path id="Vector_42" d="M8.2006 14.9297L10.193 16.6255C10.5246 16.893 10.9294 17.059 11.3569 17.1028L9.36449 15.4069C8.93712 15.3625 8.53246 15.1966 8.2006 14.9297Z" fill="url(#paint41_linear_6784_11599)"/>
</g>
</g>
</g>
<g id="Group_107">
<g id="Group_108">
<g id="Group_109">
<path id="Vector_43" d="M5.8049 17.1001L7.79734 18.8007C8.22686 19.1645 8.72016 19.4493 9.25342 19.6415L7.26098 17.9448C6.72757 17.753 6.23422 17.4681 5.8049 17.1041" fill="url(#paint42_linear_6784_11599)"/>
</g>
</g>
</g>
<g id="Group_110">
<g id="Group_111">
<g id="Group_112">
<path id="Vector_44" d="M7.26146 17.9409L9.2539 19.6376C9.28084 19.6517 9.30621 19.6685 9.32959 19.6877L7.33715 17.9918C7.314 17.9721 7.2886 17.955 7.26146 17.9409Z" fill="url(#paint43_linear_6784_11599)"/>
</g>
</g>
</g>
<g id="Group_113">
<g id="Group_114">
<g id="Group_115">
<path id="Vector_45" d="M11.0059 11.7485L12.9983 13.4452C14.9265 13.127 15.952 12.4827 16.2873 10.9507C16.4436 10.2404 16.2621 9.6319 15.799 9.23816L13.8066 7.5415C14.2697 7.93524 14.4512 8.54375 14.2949 9.25407C13.9588 10.7861 12.9332 11.4304 11.0051 11.7485" fill="url(#paint44_linear_6784_11599)"/>
</g>
</g>
</g>
<g id="Group_116">
<g id="Group_117">
<g id="Group_118">
<path id="Vector_46" d="M7.42795 18.3931L9.42039 20.0897C9.4619 19.8996 9.42935 19.7716 9.32924 19.692L7.3368 17.9954C7.43691 18.0805 7.46946 18.2062 7.42795 18.3931Z" fill="url(#paint45_linear_6784_11599)"/>
</g>
</g>
</g>
<path id="Vector_47" d="M9.12032 16.5238L11.1128 18.2197L11.3569 17.1061L9.36449 15.4094L9.12032 16.5238Z" fill="url(#paint46_linear_6784_11599)"/>
<g id="Group_119">
<g id="Group_120">
<g id="Group_121">
<path id="Vector_48" d="M9.34101 14.0019L11.3334 15.6986C11.5491 15.8823 11.8731 15.9778 12.2711 15.9595C13.4333 15.9062 13.9477 15.3772 14.2334 14.6749L12.245 12.979C11.9585 13.6814 11.4441 14.2103 10.2819 14.2636C9.8847 14.2819 9.55995 14.1841 9.34426 14.0019" fill="url(#paint47_linear_6784_11599)"/>
</g>
</g>
</g>
<g id="Group_122">
<g id="Group_123">
<g id="Group_124">
<path id="Vector_49" d="M12.2448 12.9791L14.2364 14.6749C14.2658 14.5975 14.3162 14.5294 14.3821 14.4778C14.4481 14.4263 14.5271 14.3932 14.6108 14.3822L12.6184 12.6855C12.5347 12.6966 12.4556 12.7298 12.3898 12.7815C12.324 12.8332 12.2738 12.9015 12.2448 12.9791Z" fill="url(#paint48_linear_6784_11599)"/>
</g>
</g>
</g>
<g id="Group_125">
<g id="Group_126">
<g id="Group_127">
<path id="Vector_50" d="M4.71791 18.2842L6.71035 19.98C7.30713 20.484 8.00524 20.8604 8.75977 21.0849L6.76732 19.3882C6.0127 19.1643 5.31453 18.7882 4.71791 18.2842Z" fill="url(#paint49_linear_6784_11599)"/>
</g>
</g>
</g>
<g id="Group_128">
<g id="Group_129">
<g id="Group_130">
<path id="Vector_51" d="M6.77709 19.3983L8.76953 21.0949L8.75976 21.0846L6.76732 19.3879L6.77709 19.3983Z" fill="url(#paint50_linear_6784_11599)"/>
</g>
</g>
</g>
<g id="Group_131">
<g id="Group_132">
<g id="Group_133">
<path id="Vector_52" d="M9.34101 14.0019L11.3334 15.6986C11.5491 15.8823 11.8731 15.9778 12.2711 15.9595C13.4333 15.9062 13.9477 15.3772 14.2334 14.6749L12.245 12.979C11.9585 13.6814 11.4441 14.2103 10.2819 14.2636C9.8847 14.2819 9.55995 14.1841 9.34426 14.0019" fill="url(#paint51_linear_6784_11599)"/>
</g>
</g>
</g>
<g id="Group_134">
<g id="Group_135">
<g id="Group_136">
<path id="Vector_53" d="M9.22175 16.8236L11.2134 18.5203C11.1752 18.4803 11.1464 18.4327 11.129 18.3808C11.1116 18.3289 11.1059 18.2739 11.1125 18.2196L9.12001 16.5229C9.1133 16.5773 9.11895 16.6324 9.13653 16.6844C9.15412 16.7364 9.18321 16.7839 9.22175 16.8236Z" fill="url(#paint52_linear_6784_11599)"/>
</g>
</g>
</g>
<g id="Group_137">
<g id="Group_138">
<g id="Group_139">
<path id="Vector_54" d="M6.77739 19.3982L8.76984 21.0949C8.81934 21.1218 8.8767 21.1316 8.93262 21.1227L6.94018 19.426C6.88557 19.4346 6.82961 19.4248 6.78146 19.3982" fill="url(#paint53_linear_6784_11599)"/>
</g>
</g>
</g>
<path id="Vector_55" d="M7.28553 19.0429L9.27798 20.7395L9.42041 20.0897L7.42797 18.3938L7.28553 19.0429Z" fill="url(#paint54_linear_6784_11599)"/>
<path id="Vector_56" d="M3.83549 9.13886C1.5297 13.61 2.82625 18.1917 6.76556 19.388C6.80056 19.4325 6.88927 19.4286 6.93404 19.4262C7.02306 19.4004 7.10296 19.3508 7.16478 19.2831C7.2266 19.2154 7.26789 19.1322 7.28402 19.0428L7.42645 18.3929C7.47691 18.1614 7.4175 18.0254 7.2596 17.9411C5.58132 17.3294 4.43127 15.912 4.1871 13.9926C3.67353 10.4784 6.34559 6.35644 10.1156 4.89762C10.2711 4.79819 10.4412 4.60649 10.4859 4.42036L10.63 3.76731C10.6503 3.67504 10.6609 3.62891 10.63 3.58436C10.6326 3.55636 10.6289 3.52815 10.6191 3.50169C10.6094 3.47523 10.5939 3.45117 10.5737 3.43118C10.5534 3.41118 10.529 3.39574 10.502 3.38593C10.4751 3.37612 10.4462 3.37217 10.4176 3.37437C10.3653 3.37771 10.3144 3.39239 10.2686 3.41732C7.62341 4.36946 5.21995 6.45587 3.83549 9.13886Z" fill="url(#paint55_radial_6784_11599)"/>
<g id="Group_140">
<g id="Group_141">
<g id="Group_142">
<path id="Vector_57" d="M6.9359 19.4261L8.92834 21.1228C9.01737 21.097 9.09727 21.0474 9.15909 20.9797C9.2209 20.912 9.26219 20.8288 9.27832 20.7394L7.28588 19.0396C7.26975 19.1289 7.22846 19.2121 7.16664 19.2799C7.10483 19.3476 7.02492 19.3971 6.9359 19.4229" fill="url(#paint56_linear_6784_11599)"/>
</g>
</g>
</g>
<g id="Group_143">
<g id="Group_144">
<g id="Group_145">
<path id="Vector_58" d="M9.22205 16.8235L11.2137 18.5201C11.2626 18.5597 11.3254 18.5791 11.3887 18.5742L9.39623 16.8776C9.36498 16.8803 9.33347 16.877 9.30357 16.8677C9.27366 16.8584 9.24595 16.8434 9.22205 16.8235Z" fill="url(#paint57_linear_6784_11599)"/>
</g>
</g>
</g>
<path id="Vector_59" d="M12.6154 12.6866L14.6078 14.3825L15.3672 14.3475L13.3747 12.6516L12.6154 12.6866Z" fill="url(#paint58_linear_6784_11599)"/>
<g id="Group_146">
<g id="Group_147">
<g id="Group_148">
<path id="Vector_60" d="M13.3746 12.6507L15.367 14.3466C15.4302 14.3415 15.493 14.3606 15.542 14.3999L13.5471 12.704C13.4981 12.6647 13.4353 12.6456 13.3721 12.6507" fill="url(#paint59_linear_6784_11599)"/>
</g>
</g>
</g>
<path id="Vector_61" d="M9.39728 16.8784L11.3889 18.5743L12.0596 18.5441L10.0671 16.8474L9.39728 16.8784Z" fill="url(#paint60_linear_6784_11599)"/>
<g id="Group_149">
<g id="Group_150">
<g id="Group_151">
<path id="Vector_62" d="M13.6172 12.9608L15.6097 14.6574C15.6233 14.6127 15.6242 14.5651 15.6123 14.5198C15.6004 14.4746 15.5761 14.4333 15.5421 14.4005L13.5472 12.7039C13.5814 12.7366 13.6058 12.7778 13.6177 12.8231C13.6296 12.8684 13.6286 12.916 13.6148 12.9608" fill="url(#paint61_linear_6784_11599)"/>
</g>
</g>
</g>
<path id="Vector_63" d="M10.5056 16.4593L12.498 18.156L12.7422 17.0424L10.7497 15.3457L10.5056 16.4593Z" fill="url(#paint62_linear_6784_11599)"/>
<path id="Vector_64" d="M13.6064 13.0078L15.5988 14.7045L15.6094 14.6575L13.6169 12.9617L13.6064 13.0078Z" fill="url(#paint63_linear_6784_11599)"/>
<g id="Group_152">
<g id="Group_153">
<g id="Group_154">
<path id="Vector_65" d="M10.0669 16.8464L12.0594 18.543C12.2929 18.4865 12.4574 18.341 12.498 18.1556L10.5056 16.459C10.4649 16.6443 10.3005 16.7899 10.0669 16.8464Z" fill="url(#paint64_linear_6784_11599)"/>
</g>
</g>
</g>
<g id="Group_155">
<g id="Group_156">
<g id="Group_157">
<path id="Vector_66" d="M10.7499 15.3456L12.7423 17.0414C14.2676 16.7416 15.1661 15.873 15.5991 14.7037L13.6067 13.0078C13.1737 14.1763 12.2751 15.0449 10.7499 15.3456Z" fill="url(#paint65_linear_6784_11599)"/>
</g>
</g>
</g>
<g id="Group_158">
<g id="Group_159">
<g id="Group_160">
<path id="Vector_67" d="M11.4699 18.1144L13.4656 19.8111C13.4965 19.6719 13.6707 19.4802 13.8262 19.3807L11.8305 17.6873C11.675 17.7859 11.5049 17.9784 11.4699 18.1168" fill="url(#paint66_linear_6784_11599)"/>
</g>
</g>
</g>
<path id="Vector_68" d="M11.3275 18.7653L13.32 20.462L13.4624 19.8113L11.47 18.1155L11.3275 18.7653Z" fill="url(#paint67_linear_6784_11599)"/>
<g id="Group_161">
<g id="Group_162">
<g id="Group_163">
<path id="Vector_69" d="M11.3327 18.9481L13.3252 20.6447C13.2902 20.6002 13.3008 20.5541 13.3203 20.461L11.3279 18.7651C11.3083 18.8574 11.2978 18.9043 11.3327 18.9481Z" fill="url(#paint68_linear_6784_11599)"/>
</g>
</g>
</g>
<g id="Group_164">
<g id="Group_165">
<g id="Group_166">
<path id="Vector_70" d="M11.4016 19.1142L13.394 20.8101C13.3712 20.7888 13.3533 20.7631 13.3414 20.7346C13.3294 20.7061 13.3238 20.6754 13.3249 20.6447L11.3324 18.948C11.3315 18.9789 11.3371 19.0096 11.349 19.0383C11.361 19.0669 11.3789 19.0928 11.4016 19.1142Z" fill="url(#paint69_linear_6784_11599)"/>
</g>
</g>
</g>
<g id="Group_167">
<g id="Group_168">
<g id="Group_169">
<path id="Vector_71" d="M11.8308 17.6871L13.8232 19.383C17.5932 17.9233 20.2653 13.8022 19.7517 10.2872C19.5889 8.99223 19.0102 7.92556 18.1361 7.18024L16.1437 5.48438C17.0186 6.2289 17.5957 7.29557 17.7593 8.59133C18.2728 12.1055 15.6008 16.2275 11.8308 17.6871Z" fill="url(#paint70_linear_6784_11599)"/>
</g>
</g>
</g>
<g id="Group_170">
<g id="Group_171">
<g id="Group_172">
<path id="Vector_72" d="M11.4014 19.1145L13.3938 20.8104C13.4339 20.8428 13.4852 20.8587 13.5371 20.8549C13.5893 20.8511 13.6401 20.8364 13.686 20.812L11.6936 19.1193C11.6477 19.1439 11.5969 19.1583 11.5446 19.1614C11.4929 19.1659 11.4414 19.1502 11.4014 19.1177" fill="url(#paint71_linear_6784_11599)"/>
</g>
</g>
</g>
<g id="Group_173">
<g id="Group_174">
<g id="Group_175">
<path id="Vector_73" d="M11.8308 17.6871L13.8232 19.383C17.5932 17.9233 20.2653 13.8022 19.7517 10.2872C19.5889 8.99223 19.0102 7.92556 18.1361 7.18024L16.1437 5.48438C17.0186 6.2289 17.5957 7.29557 17.7593 8.59133C18.2728 12.1055 15.6008 16.2275 11.8308 17.6871Z" fill="url(#paint72_linear_6784_11599)"/>
</g>
</g>
</g>
<g id="Group_176">
<g id="Group_177">
<g id="Group_178">
<path id="Vector_74" d="M11.6939 19.1192L13.6863 20.8151C16.3722 19.8646 18.7326 17.7797 20.1048 15.1437C21.9475 11.5714 21.4884 7.92832 19.2217 5.99622L17.2293 4.29956C19.4976 6.23087 19.955 9.87315 18.1124 13.447C16.7385 16.0799 14.379 18.1647 11.6939 19.1192Z" fill="url(#paint73_linear_6784_11599)"/>
</g>
</g>
</g>
<path id="Union" fill-rule="evenodd" clip-rule="evenodd" d="M0.279152 11.646C1.63105 5.47269 7.50339 0.284887 13.4449 0.0112583C19.3889 -0.26237 23.0824 4.48477 21.7305 10.6581C20.3786 16.8315 14.5087 22.0177 8.56472 22.2921C2.62076 22.5665 -1.07275 17.8194 0.279152 11.646ZM3.84081 9.13884C1.53338 13.61 2.82994 18.1948 6.77087 19.388L6.76924 19.3888C6.80063 19.4287 6.87521 19.4277 6.92256 19.4271C6.92801 19.427 6.9331 19.427 6.93772 19.427C7.02674 19.4011 7.10665 19.3516 7.16847 19.2839C7.23029 19.2161 7.27158 19.1329 7.2877 19.0436L7.43014 18.3937C7.4806 18.1622 7.42118 18.0262 7.26328 17.9419C5.58338 17.3342 4.43496 15.9127 4.19079 13.9934C3.67721 10.4791 6.34927 6.3588 10.1193 4.89839C10.2747 4.79817 10.4489 4.60647 10.4896 4.42113L10.632 3.77047C10.6565 3.6782 10.667 3.63206 10.632 3.58752C10.6346 3.55952 10.6309 3.5313 10.6212 3.50485C10.6114 3.47839 10.5959 3.45432 10.5757 3.43433C10.5555 3.41434 10.531 3.3989 10.5041 3.38909C10.4771 3.37928 10.4483 3.37533 10.4196 3.37753C10.3673 3.38087 10.3164 3.39554 10.2707 3.42048C7.62873 4.36625 5.22445 6.45585 3.84081 9.13884ZM11.4696 18.1153L11.3271 18.7659L11.3279 18.7683L11.3271 18.7723C11.3081 18.8619 11.2983 18.9082 11.3328 18.9513C11.3301 18.9793 11.3337 19.0076 11.3434 19.0341C11.3531 19.0606 11.3686 19.0848 11.3888 19.1048C11.4091 19.1248 11.4336 19.1402 11.4606 19.15C11.4876 19.1598 11.5165 19.1636 11.5452 19.1613C11.5975 19.1581 11.6483 19.1437 11.6942 19.1191C14.3793 18.1646 16.7388 16.0798 18.1102 13.4445C20.4176 8.97339 19.1211 4.38772 15.1802 3.19458C15.1492 3.15496 15.0729 3.15578 15.0255 3.15629C15.0205 3.15635 15.0159 3.1564 15.0117 3.1564C14.9225 3.18227 14.8426 3.23194 14.7807 3.29981C14.7189 3.36769 14.6777 3.45107 14.6617 3.54059L14.5193 4.18966C14.4688 4.42193 14.5282 4.55715 14.6861 4.64226C16.366 5.25395 17.5144 6.67061 17.7586 8.58999C18.2722 12.1042 15.6001 16.2253 11.8301 17.6858C11.6747 17.7844 11.5005 17.9769 11.4696 18.1153ZM9.36479 15.4124L9.12062 16.526L9.11818 16.5252C9.11248 16.7551 9.21584 16.8887 9.39409 16.88L10.0648 16.849C10.0685 16.8481 10.0722 16.8471 10.0759 16.8462C10.0743 16.8466 10.0727 16.847 10.0711 16.8474L9.40042 16.8784C9.22217 16.8871 9.1188 16.7543 9.1245 16.5236L9.36867 15.41C8.07945 15.2398 7.39821 14.306 7.6725 13.0524C7.84044 12.2847 8.1657 11.7454 8.66518 11.3565C8.16351 11.7458 7.83699 12.2858 7.66861 13.0547C7.39433 14.3083 8.07475 15.2414 9.36479 15.4124ZM12.3014 10.0969C12.6606 9.87659 12.8056 9.59497 12.8849 9.22872C13.0257 8.57885 12.6709 8.18193 11.7772 8.22329C11.3745 8.24162 11.0461 8.32577 10.7714 8.49402C11.0469 8.32417 11.3765 8.23932 11.7811 8.22091C12.6764 8.17954 13.0313 8.57646 12.8888 9.22633C12.8083 9.59372 12.6627 9.87621 12.3014 10.0969ZM9.9236 9.44322C9.86398 9.48029 9.7965 9.50379 9.72616 9.5119L9.01074 9.54451C8.8325 9.55326 8.72832 9.42042 8.76657 9.23429L8.77634 9.18815C8.87141 8.94769 8.99758 8.7183 9.14844 8.50615C8.99883 8.71763 8.87399 8.94621 8.78022 9.18576L8.77046 9.2319C8.72976 9.41803 8.83394 9.55007 9.01463 9.54212L9.73005 9.50951C9.79886 9.50158 9.86494 9.47891 9.9236 9.44322ZM11.2055 7.19049L11.4492 6.07881C11.4763 5.95545 11.5578 5.84971 11.6784 5.77614C11.56 5.84961 11.4799 5.95439 11.4531 6.07642L11.2089 7.19003C11.2078 7.19018 11.2066 7.19034 11.2055 7.19049ZM11.7755 11.5927C11.5359 11.6533 11.2784 11.7055 11.0024 11.751C10.8958 11.7748 10.7948 11.7986 10.6992 11.8227C10.7967 11.7981 10.8998 11.7737 11.0087 11.7494C11.2823 11.7043 11.5377 11.6526 11.7755 11.5927ZM10.9041 14.1779C11.6358 13.9918 12.0093 13.5418 12.2379 12.9816C12.2669 12.904 12.317 12.8357 12.3829 12.784C12.4363 12.7421 12.4984 12.7123 12.5646 12.6967C12.5007 12.7127 12.4408 12.7419 12.389 12.7825C12.323 12.8342 12.2727 12.9025 12.2434 12.98C12.0149 13.5419 11.64 13.9927 10.9041 14.1779ZM11.0121 15.2886C10.9281 15.3099 10.842 15.3293 10.7539 15.3467L10.7539 15.3464C10.8421 15.329 10.9281 15.3097 11.0121 15.2886Z" fill="url(#paint74_linear_6784_11599)"/>
<path id="Vector_75" d="M15.0122 3.15565C14.923 3.18153 14.8431 3.2312 14.7812 3.29907C14.7194 3.36694 14.6782 3.45033 14.6622 3.53985L14.5198 4.18892C14.4693 4.42118 14.5287 4.55641 14.6866 4.64152C16.3665 5.2532 17.5166 6.66987 17.7591 8.58925C18.2727 12.1035 15.6006 16.2254 11.8306 17.685C11.6752 17.7836 11.5051 17.9761 11.4701 18.1145L11.3276 18.7652C11.3081 18.8575 11.2975 18.9044 11.3325 18.9489C11.3299 18.9769 11.3336 19.0051 11.3434 19.0315C11.3531 19.0579 11.3686 19.082 11.3889 19.1019C11.4091 19.1218 11.4336 19.1372 11.4605 19.1469C11.4875 19.1566 11.5163 19.1605 11.5449 19.1581C11.5972 19.155 11.648 19.1406 11.6939 19.116C14.3798 18.1615 16.7401 16.0798 18.1123 13.4438C20.4181 8.97265 19.1216 4.39096 15.1823 3.19383C15.1457 3.15008 15.0569 3.15406 15.0122 3.15565Z" fill="url(#paint75_radial_6784_11599)"/>
<g id="Group_179">
<g id="Group_180">
<g id="Group_181">
<path id="Vector_76" d="M2.7075 20.4562L4.69995 22.1521C6.17719 23.4097 8.18835 24.0977 10.5601 23.9887C16.5008 23.7151 22.3707 18.5281 23.7209 12.3579C24.5348 8.64406 23.5215 5.44642 21.2914 3.54773L19.299 1.85107C21.5291 3.75057 22.5424 6.9482 21.7285 10.6621C20.3766 16.8354 14.5067 22.0224 8.56275 22.2961C6.19428 22.4058 4.18312 21.7178 2.70262 20.4602" fill="url(#paint76_radial_6784_11599)"/>
</g>
</g>
</g>
</g>
<defs>
<linearGradient id="paint0_linear_6784_11599" x1="12.8262" y1="11.699" x2="1.46475" y2="11.8537" gradientUnits="userSpaceOnUse">
<stop stop-color="#9F9F9F"/>
<stop offset="0.522948" stop-color="#C3C3C3"/>
<stop offset="0.669499" stop-color="#DCDCDC"/>
<stop offset="1" stop-color="#8E8E8E"/>
</linearGradient>
<linearGradient id="paint1_linear_6784_11599" x1="12.8262" y1="11.699" x2="1.46475" y2="11.8537" gradientUnits="userSpaceOnUse">
<stop stop-color="#9F9F9F"/>
<stop offset="0.522948" stop-color="#C3C3C3"/>
<stop offset="0.669499" stop-color="#DCDCDC"/>
<stop offset="1" stop-color="#8E8E8E"/>
</linearGradient>
<linearGradient id="paint2_linear_6784_11599" x1="12.8262" y1="11.699" x2="1.46475" y2="11.8537" gradientUnits="userSpaceOnUse">
<stop stop-color="#9F9F9F"/>
<stop offset="0.522948" stop-color="#C3C3C3"/>
<stop offset="0.669499" stop-color="#DCDCDC"/>
<stop offset="1" stop-color="#8E8E8E"/>
</linearGradient>
<linearGradient id="paint3_linear_6784_11599" x1="12.8262" y1="11.699" x2="1.46475" y2="11.8537" gradientUnits="userSpaceOnUse">
<stop stop-color="#9F9F9F"/>
<stop offset="0.522948" stop-color="#C3C3C3"/>
<stop offset="0.669499" stop-color="#DCDCDC"/>
<stop offset="1" stop-color="#8E8E8E"/>
</linearGradient>
<linearGradient id="paint4_linear_6784_11599" x1="12.8262" y1="11.699" x2="1.46475" y2="11.8537" gradientUnits="userSpaceOnUse">
<stop stop-color="#9F9F9F"/>
<stop offset="0.522948" stop-color="#C3C3C3"/>
<stop offset="0.669499" stop-color="#DCDCDC"/>
<stop offset="1" stop-color="#8E8E8E"/>
</linearGradient>
<linearGradient id="paint5_linear_6784_11599" x1="12.6841" y1="4.25071" x2="9.97267" y2="4.33455" gradientUnits="userSpaceOnUse">
<stop stop-color="#9F9F9F"/>
<stop offset="0.522948" stop-color="#C3C3C3"/>
<stop offset="0.669499" stop-color="#DCDCDC"/>
<stop offset="1" stop-color="#8E8E8E"/>
</linearGradient>
<linearGradient id="paint6_linear_6784_11599" x1="12.6841" y1="4.25071" x2="9.97267" y2="4.33455" gradientUnits="userSpaceOnUse">
<stop stop-color="#9F9F9F"/>
<stop offset="0.522948" stop-color="#C3C3C3"/>
<stop offset="0.669499" stop-color="#DCDCDC"/>
<stop offset="1" stop-color="#8E8E8E"/>
</linearGradient>
<linearGradient id="paint7_linear_6784_11599" x1="12.7413" y1="4.35253" x2="10.2918" y2="4.41652" gradientUnits="userSpaceOnUse">
<stop stop-color="#9F9F9F"/>
<stop offset="0.522948" stop-color="#C3C3C3"/>
<stop offset="0.669499" stop-color="#DCDCDC"/>
<stop offset="1" stop-color="#8E8E8E"/>
</linearGradient>
<linearGradient id="paint8_linear_6784_11599" x1="12.7612" y1="4.52403" x2="10.3719" y2="4.58432" gradientUnits="userSpaceOnUse">
<stop stop-color="#9F9F9F"/>
<stop offset="0.522948" stop-color="#C3C3C3"/>
<stop offset="0.669499" stop-color="#DCDCDC"/>
<stop offset="1" stop-color="#8E8E8E"/>
</linearGradient>
<linearGradient id="paint9_linear_6784_11599" x1="12.7495" y1="4.9445" x2="10.2136" y2="4.99889" gradientUnits="userSpaceOnUse">
<stop stop-color="#9F9F9F"/>
<stop offset="0.522948" stop-color="#C3C3C3"/>
<stop offset="0.669499" stop-color="#DCDCDC"/>
<stop offset="1" stop-color="#8E8E8E"/>
</linearGradient>
<linearGradient id="paint10_linear_6784_11599" x1="12.6204" y1="5.50746" x2="9.81443" y2="5.57938" gradientUnits="userSpaceOnUse">
<stop stop-color="#9F9F9F"/>
<stop offset="0.522948" stop-color="#C3C3C3"/>
<stop offset="0.669499" stop-color="#DCDCDC"/>
<stop offset="1" stop-color="#8E8E8E"/>
</linearGradient>
<linearGradient id="paint11_linear_6784_11599" x1="12.8262" y1="11.699" x2="1.46475" y2="11.8537" gradientUnits="userSpaceOnUse">
<stop stop-color="#9F9F9F"/>
<stop offset="0.522948" stop-color="#C3C3C3"/>
<stop offset="0.669499" stop-color="#DCDCDC"/>
<stop offset="1" stop-color="#8E8E8E"/>
</linearGradient>
<linearGradient id="paint12_linear_6784_11599" x1="12.5844" y1="11.851" x2="3.09806" y2="11.9795" gradientUnits="userSpaceOnUse">
<stop stop-color="#9F9F9F"/>
<stop offset="0.522948" stop-color="#C3C3C3"/>
<stop offset="0.669499" stop-color="#DCDCDC"/>
<stop offset="1" stop-color="#8E8E8E"/>
</linearGradient>
<linearGradient id="paint13_linear_6784_11599" x1="14.0283" y1="6.72854" x2="11.1414" y2="6.80793" gradientUnits="userSpaceOnUse">
<stop stop-color="#9F9F9F"/>
<stop offset="0.522948" stop-color="#C3C3C3"/>
<stop offset="0.669499" stop-color="#DCDCDC"/>
<stop offset="1" stop-color="#8E8E8E"/>
</linearGradient>
<linearGradient id="paint14_linear_6784_11599" x1="13.464" y1="9.03513" x2="8.21421" y2="9.18323" gradientUnits="userSpaceOnUse">
<stop stop-color="#9F9F9F"/>
<stop offset="0.522948" stop-color="#C3C3C3"/>
<stop offset="0.669499" stop-color="#DCDCDC"/>
<stop offset="1" stop-color="#8E8E8E"/>
</linearGradient>
<linearGradient id="paint15_linear_6784_11599" x1="10.8915" y1="10.0582" x2="8.51386" y2="10.1226" gradientUnits="userSpaceOnUse">
<stop stop-color="#9F9F9F"/>
<stop offset="0.522948" stop-color="#C3C3C3"/>
<stop offset="0.669499" stop-color="#DCDCDC"/>
<stop offset="1" stop-color="#8E8E8E"/>
</linearGradient>
<linearGradient id="paint16_linear_6784_11599" x1="10.9527" y1="10.2095" x2="8.49353" y2="10.2709" gradientUnits="userSpaceOnUse">
<stop stop-color="#9F9F9F"/>
<stop offset="0.522948" stop-color="#C3C3C3"/>
<stop offset="0.669499" stop-color="#DCDCDC"/>
<stop offset="1" stop-color="#8E8E8E"/>
</linearGradient>
<linearGradient id="paint17_linear_6784_11599" x1="11.1332" y1="10.3694" x2="8.55972" y2="10.4445" gradientUnits="userSpaceOnUse">
<stop stop-color="#9F9F9F"/>
<stop offset="0.522948" stop-color="#C3C3C3"/>
<stop offset="0.669499" stop-color="#DCDCDC"/>
<stop offset="1" stop-color="#8E8E8E"/>
</linearGradient>
<linearGradient id="paint18_linear_6784_11599" x1="14.712" y1="6.5218" x2="11.5524" y2="6.63658" gradientUnits="userSpaceOnUse">
<stop stop-color="#9F9F9F"/>
<stop offset="0.522948" stop-color="#C3C3C3"/>
<stop offset="0.669499" stop-color="#DCDCDC"/>
<stop offset="1" stop-color="#8E8E8E"/>
</linearGradient>
<linearGradient id="paint19_linear_6784_11599" x1="13.464" y1="9.03513" x2="8.21421" y2="9.18323" gradientUnits="userSpaceOnUse">
<stop stop-color="#9F9F9F"/>
<stop offset="0.522948" stop-color="#C3C3C3"/>
<stop offset="0.669499" stop-color="#DCDCDC"/>
<stop offset="1" stop-color="#8E8E8E"/>
</linearGradient>
<linearGradient id="paint20_linear_6784_11599" x1="13.5783" y1="7.48252" x2="10.9213" y2="7.53237" gradientUnits="userSpaceOnUse">
<stop stop-color="#9F9F9F"/>
<stop offset="0.522948" stop-color="#C3C3C3"/>
<stop offset="0.669499" stop-color="#DCDCDC"/>
<stop offset="1" stop-color="#8E8E8E"/>
</linearGradient>
<linearGradient id="paint21_linear_6784_11599" x1="17.1436" y1="4.19579" x2="14.3619" y2="4.26964" gradientUnits="userSpaceOnUse">
<stop stop-color="#9F9F9F"/>
<stop offset="0.522948" stop-color="#C3C3C3"/>
<stop offset="0.669499" stop-color="#DCDCDC"/>
<stop offset="1" stop-color="#8E8E8E"/>
</linearGradient>
<linearGradient id="paint22_linear_6784_11599" x1="14.858" y1="6.53257" x2="12.2807" y2="6.60791" gradientUnits="userSpaceOnUse">
<stop stop-color="#9F9F9F"/>
<stop offset="0.522948" stop-color="#C3C3C3"/>
<stop offset="0.669499" stop-color="#DCDCDC"/>
<stop offset="1" stop-color="#8E8E8E"/>
</linearGradient>
<linearGradient id="paint23_linear_6784_11599" x1="17.2956" y1="4.01626" x2="14.7366" y2="4.09151" gradientUnits="userSpaceOnUse">
<stop stop-color="#9F9F9F"/>
<stop offset="0.522948" stop-color="#C3C3C3"/>
<stop offset="0.669499" stop-color="#DCDCDC"/>
<stop offset="1" stop-color="#8E8E8E"/>
</linearGradient>
<linearGradient id="paint24_linear_6784_11599" x1="17.2916" y1="4.03678" x2="14.9189" y2="4.10232" gradientUnits="userSpaceOnUse">
<stop stop-color="#9F9F9F"/>
<stop offset="0.522948" stop-color="#C3C3C3"/>
<stop offset="0.669499" stop-color="#DCDCDC"/>
<stop offset="1" stop-color="#8E8E8E"/>
</linearGradient>
<linearGradient id="paint25_linear_6784_11599" x1="14.9573" y1="6.71082" x2="12.464" y2="6.7726" gradientUnits="userSpaceOnUse">
<stop stop-color="#9F9F9F"/>
<stop offset="0.522948" stop-color="#C3C3C3"/>
<stop offset="0.669499" stop-color="#DCDCDC"/>
<stop offset="1" stop-color="#8E8E8E"/>
</linearGradient>
<linearGradient id="paint26_linear_6784_11599" x1="11.8812" y1="10.3749" x2="8.66761" y2="10.4935" gradientUnits="userSpaceOnUse">
<stop stop-color="#9F9F9F"/>
<stop offset="0.522948" stop-color="#C3C3C3"/>
<stop offset="0.669499" stop-color="#DCDCDC"/>
<stop offset="1" stop-color="#8E8E8E"/>
</linearGradient>
<linearGradient id="paint27_linear_6784_11599" x1="16.7812" y1="4.71266" x2="14.2453" y2="4.76707" gradientUnits="userSpaceOnUse">
<stop stop-color="#9F9F9F"/>
<stop offset="0.522948" stop-color="#C3C3C3"/>
<stop offset="0.669499" stop-color="#DCDCDC"/>
<stop offset="1" stop-color="#8E8E8E"/>
</linearGradient>
<linearGradient id="paint28_linear_6784_11599" x1="16.7289" y1="5.23814" x2="14.2324" y2="5.2971" gradientUnits="userSpaceOnUse">
<stop stop-color="#9F9F9F"/>
<stop offset="0.522948" stop-color="#C3C3C3"/>
<stop offset="0.669499" stop-color="#DCDCDC"/>
<stop offset="1" stop-color="#8E8E8E"/>
</linearGradient>
<linearGradient id="paint29_linear_6784_11599" x1="16.8016" y1="5.4642" x2="14.3468" y2="5.5327" gradientUnits="userSpaceOnUse">
<stop stop-color="#9F9F9F"/>
<stop offset="0.522948" stop-color="#C3C3C3"/>
<stop offset="0.669499" stop-color="#DCDCDC"/>
<stop offset="1" stop-color="#8E8E8E"/>
</linearGradient>
<linearGradient id="paint30_linear_6784_11599" x1="14.9624" y1="7.3954" x2="12.318" y2="7.44559" gradientUnits="userSpaceOnUse">
<stop stop-color="#9F9F9F"/>
<stop offset="0.522948" stop-color="#C3C3C3"/>
<stop offset="0.669499" stop-color="#DCDCDC"/>
<stop offset="1" stop-color="#8E8E8E"/>
</linearGradient>
<linearGradient id="paint31_linear_6784_11599" x1="15.3411" y1="12.5316" x2="6.6711" y2="12.7138" gradientUnits="userSpaceOnUse">
<stop stop-color="#9F9F9F"/>
<stop offset="0.522948" stop-color="#C3C3C3"/>
<stop offset="0.669499" stop-color="#DCDCDC"/>
<stop offset="1" stop-color="#8E8E8E"/>
</linearGradient>
<linearGradient id="paint32_linear_6784_11599" x1="14.9797" y1="9.71235" x2="9.0974" y2="9.94246" gradientUnits="userSpaceOnUse">
<stop stop-color="#9F9F9F"/>
<stop offset="0.522948" stop-color="#C3C3C3"/>
<stop offset="0.669499" stop-color="#DCDCDC"/>
<stop offset="1" stop-color="#8E8E8E"/>
</linearGradient>
<linearGradient id="paint33_linear_6784_11599" x1="15.9893" y1="8.16045" x2="12.1966" y2="8.2928" gradientUnits="userSpaceOnUse">
<stop stop-color="#9F9F9F"/>
<stop offset="0.522948" stop-color="#C3C3C3"/>
<stop offset="0.669499" stop-color="#DCDCDC"/>
<stop offset="1" stop-color="#8E8E8E"/>
</linearGradient>
<linearGradient id="paint34_linear_6784_11599" x1="18.3413" y1="5.91065" x2="14.2464" y2="6.04192" gradientUnits="userSpaceOnUse">
<stop stop-color="#9F9F9F"/>
<stop offset="0.522948" stop-color="#C3C3C3"/>
<stop offset="0.669499" stop-color="#DCDCDC"/>
<stop offset="1" stop-color="#8E8E8E"/>
</linearGradient>
<linearGradient id="paint35_linear_6784_11599" x1="19.4619" y1="4.5942" x2="14.6652" y2="4.75737" gradientUnits="userSpaceOnUse">
<stop stop-color="#9F9F9F"/>
<stop offset="0.522948" stop-color="#C3C3C3"/>
<stop offset="0.669499" stop-color="#DCDCDC"/>
<stop offset="1" stop-color="#8E8E8E"/>
</linearGradient>
<linearGradient id="paint36_linear_6784_11599" x1="15.3411" y1="12.5316" x2="6.6711" y2="12.7138" gradientUnits="userSpaceOnUse">
<stop stop-color="#9F9F9F"/>
<stop offset="0.522948" stop-color="#C3C3C3"/>
<stop offset="0.669499" stop-color="#DCDCDC"/>
<stop offset="1" stop-color="#8E8E8E"/>
</linearGradient>
<linearGradient id="paint37_linear_6784_11599" x1="15.3411" y1="12.5316" x2="6.6711" y2="12.7138" gradientUnits="userSpaceOnUse">
<stop stop-color="#9F9F9F"/>
<stop offset="0.522948" stop-color="#C3C3C3"/>
<stop offset="0.669499" stop-color="#DCDCDC"/>
<stop offset="1" stop-color="#8E8E8E"/>
</linearGradient>
<linearGradient id="paint38_linear_6784_11599" x1="15.3411" y1="12.5316" x2="6.6711" y2="12.7138" gradientUnits="userSpaceOnUse">
<stop stop-color="#9F9F9F"/>
<stop offset="0.522948" stop-color="#C3C3C3"/>
<stop offset="0.669499" stop-color="#DCDCDC"/>
<stop offset="1" stop-color="#8E8E8E"/>
</linearGradient>
<linearGradient id="paint39_linear_6784_11599" x1="13.2333" y1="13.7236" x2="8.54143" y2="13.8342" gradientUnits="userSpaceOnUse">
<stop stop-color="#9F9F9F"/>
<stop offset="0.522948" stop-color="#C3C3C3"/>
<stop offset="0.669499" stop-color="#DCDCDC"/>
<stop offset="1" stop-color="#8E8E8E"/>
</linearGradient>
<linearGradient id="paint40_linear_6784_11599" x1="20.2895" y1="12.4337" x2="10.8031" y2="12.5621" gradientUnits="userSpaceOnUse">
<stop stop-color="#9F9F9F"/>
<stop offset="0.522948" stop-color="#C3C3C3"/>
<stop offset="0.669499" stop-color="#DCDCDC"/>
<stop offset="1" stop-color="#8E8E8E"/>
</linearGradient>
<linearGradient id="paint41_linear_6784_11599" x1="11.5445" y1="16.0162" x2="7.79806" y2="16.1445" gradientUnits="userSpaceOnUse">
<stop stop-color="#9F9F9F"/>
<stop offset="0.522948" stop-color="#C3C3C3"/>
<stop offset="0.669499" stop-color="#DCDCDC"/>
<stop offset="1" stop-color="#8E8E8E"/>
</linearGradient>
<linearGradient id="paint42_linear_6784_11599" x1="9.4584" y1="18.3708" x2="5.36448" y2="18.5018" gradientUnits="userSpaceOnUse">
<stop stop-color="#9F9F9F"/>
<stop offset="0.522948" stop-color="#C3C3C3"/>
<stop offset="0.669499" stop-color="#DCDCDC"/>
<stop offset="1" stop-color="#8E8E8E"/>
</linearGradient>
<linearGradient id="paint43_linear_6784_11599" x1="9.45252" y1="18.8143" x2="6.99673" y2="18.8828" gradientUnits="userSpaceOnUse">
<stop stop-color="#9F9F9F"/>
<stop offset="0.522948" stop-color="#C3C3C3"/>
<stop offset="0.669499" stop-color="#DCDCDC"/>
<stop offset="1" stop-color="#8E8E8E"/>
</linearGradient>
<linearGradient id="paint44_linear_6784_11599" x1="16.6595" y1="10.4933" x2="10.3199" y2="10.6285" gradientUnits="userSpaceOnUse">
<stop stop-color="#9F9F9F"/>
<stop offset="0.522948" stop-color="#C3C3C3"/>
<stop offset="0.669499" stop-color="#DCDCDC"/>
<stop offset="1" stop-color="#8E8E8E"/>
</linearGradient>
<linearGradient id="paint45_linear_6784_11599" x1="9.56288" y1="19.0425" x2="7.06729" y2="19.1016" gradientUnits="userSpaceOnUse">
<stop stop-color="#9F9F9F"/>
<stop offset="0.522948" stop-color="#C3C3C3"/>
<stop offset="0.669499" stop-color="#DCDCDC"/>
<stop offset="1" stop-color="#8E8E8E"/>
</linearGradient>
<linearGradient id="paint46_linear_6784_11599" x1="11.4899" y1="16.8146" x2="8.8329" y2="16.8644" gradientUnits="userSpaceOnUse">
<stop stop-color="#9F9F9F"/>
<stop offset="0.522948" stop-color="#C3C3C3"/>
<stop offset="0.669499" stop-color="#DCDCDC"/>
<stop offset="1" stop-color="#8E8E8E"/>
</linearGradient>
<linearGradient id="paint47_linear_6784_11599" x1="14.5242" y1="14.4704" x2="8.71893" y2="14.6948" gradientUnits="userSpaceOnUse">
<stop stop-color="#9F9F9F"/>
<stop offset="0.522948" stop-color="#C3C3C3"/>
<stop offset="0.669499" stop-color="#DCDCDC"/>
<stop offset="1" stop-color="#8E8E8E"/>
</linearGradient>
<linearGradient id="paint48_linear_6784_11599" x1="14.7515" y1="13.6802" x2="11.942" y2="13.759" gradientUnits="userSpaceOnUse">
<stop stop-color="#9F9F9F"/>
<stop offset="0.522948" stop-color="#C3C3C3"/>
<stop offset="0.669499" stop-color="#DCDCDC"/>
<stop offset="1" stop-color="#8E8E8E"/>
</linearGradient>
<linearGradient id="paint49_linear_6784_11599" x1="9.00002" y1="19.6845" x2="4.20236" y2="19.8478" gradientUnits="userSpaceOnUse">
<stop stop-color="#9F9F9F"/>
<stop offset="0.522948" stop-color="#C3C3C3"/>
<stop offset="0.669499" stop-color="#DCDCDC"/>
<stop offset="1" stop-color="#8E8E8E"/>
</linearGradient>
<linearGradient id="paint50_linear_6784_11599" x1="8.88854" y1="20.2414" x2="6.511" y2="20.3072" gradientUnits="userSpaceOnUse">
<stop stop-color="#9F9F9F"/>
<stop offset="0.522948" stop-color="#C3C3C3"/>
<stop offset="0.669499" stop-color="#DCDCDC"/>
<stop offset="1" stop-color="#8E8E8E"/>
</linearGradient>
<linearGradient id="paint51_linear_6784_11599" x1="14.5242" y1="14.4704" x2="8.71893" y2="14.6948" gradientUnits="userSpaceOnUse">
<stop stop-color="#9F9F9F"/>
<stop offset="0.522948" stop-color="#C3C3C3"/>
<stop offset="0.669499" stop-color="#DCDCDC"/>
<stop offset="1" stop-color="#8E8E8E"/>
</linearGradient>
<linearGradient id="paint52_linear_6784_11599" x1="11.338" y1="17.5216" x2="8.84855" y2="17.5832" gradientUnits="userSpaceOnUse">
<stop stop-color="#9F9F9F"/>
<stop offset="0.522948" stop-color="#C3C3C3"/>
<stop offset="0.669499" stop-color="#DCDCDC"/>
<stop offset="1" stop-color="#8E8E8E"/>
</linearGradient>
<linearGradient id="paint53_linear_6784_11599" x1="9.06072" y1="20.262" x2="6.50174" y2="20.3373" gradientUnits="userSpaceOnUse">
<stop stop-color="#9F9F9F"/>
<stop offset="0.522948" stop-color="#C3C3C3"/>
<stop offset="0.669499" stop-color="#DCDCDC"/>
<stop offset="1" stop-color="#8E8E8E"/>
</linearGradient>
<linearGradient id="paint54_linear_6784_11599" x1="9.54731" y1="19.5667" x2="7.01146" y2="19.6211" gradientUnits="userSpaceOnUse">
<stop stop-color="#9F9F9F"/>
<stop offset="0.522948" stop-color="#C3C3C3"/>
<stop offset="0.669499" stop-color="#DCDCDC"/>
<stop offset="1" stop-color="#8E8E8E"/>
</linearGradient>
<radialGradient id="paint55_radial_6784_11599" cx="0" cy="0" r="1" gradientUnits="userSpaceOnUse" gradientTransform="translate(9.29328 9.31707) rotate(103.711) scale(28.7598 135.882)">
<stop stop-color="#9F9F9F"/>
<stop offset="0.421875" stop-color="#6E6E6E"/>
<stop offset="1" stop-color="#8E8E8E"/>
</radialGradient>
<linearGradient id="paint56_linear_6784_11599" x1="9.41756" y1="20.0812" x2="6.63586" y2="20.1549" gradientUnits="userSpaceOnUse">
<stop stop-color="#9F9F9F"/>
<stop offset="0.522948" stop-color="#C3C3C3"/>
<stop offset="0.669499" stop-color="#DCDCDC"/>
<stop offset="1" stop-color="#8E8E8E"/>
</linearGradient>
<linearGradient id="paint57_linear_6784_11599" x1="11.5175" y1="17.6992" x2="8.94491" y2="17.7743" gradientUnits="userSpaceOnUse">
<stop stop-color="#9F9F9F"/>
<stop offset="0.522948" stop-color="#C3C3C3"/>
<stop offset="0.669499" stop-color="#DCDCDC"/>
<stop offset="1" stop-color="#8E8E8E"/>
</linearGradient>
<linearGradient id="paint58_linear_6784_11599" x1="15.5308" y1="13.517" x2="12.2652" y2="13.6394" gradientUnits="userSpaceOnUse">
<stop stop-color="#9F9F9F"/>
<stop offset="0.522948" stop-color="#C3C3C3"/>
<stop offset="0.669499" stop-color="#DCDCDC"/>
<stop offset="1" stop-color="#8E8E8E"/>
</linearGradient>
<linearGradient id="paint59_linear_6784_11599" x1="15.671" y1="13.5249" x2="13.0946" y2="13.6002" gradientUnits="userSpaceOnUse">
<stop stop-color="#9F9F9F"/>
<stop offset="0.522948" stop-color="#C3C3C3"/>
<stop offset="0.669499" stop-color="#DCDCDC"/>
<stop offset="1" stop-color="#8E8E8E"/>
</linearGradient>
<linearGradient id="paint60_linear_6784_11599" x1="12.2178" y1="17.7109" x2="9.05822" y2="17.8257" gradientUnits="userSpaceOnUse">
<stop stop-color="#9F9F9F"/>
<stop offset="0.522948" stop-color="#C3C3C3"/>
<stop offset="0.669499" stop-color="#DCDCDC"/>
<stop offset="1" stop-color="#8E8E8E"/>
</linearGradient>
<linearGradient id="paint61_linear_6784_11599" x1="15.7438" y1="13.6806" x2="13.2815" y2="13.7423" gradientUnits="userSpaceOnUse">
<stop stop-color="#9F9F9F"/>
<stop offset="0.522948" stop-color="#C3C3C3"/>
<stop offset="0.669499" stop-color="#DCDCDC"/>
<stop offset="1" stop-color="#8E8E8E"/>
</linearGradient>
<linearGradient id="paint62_linear_6784_11599" x1="12.8751" y1="16.7508" x2="10.2181" y2="16.8007" gradientUnits="userSpaceOnUse">
<stop stop-color="#9F9F9F"/>
<stop offset="0.522948" stop-color="#C3C3C3"/>
<stop offset="0.669499" stop-color="#DCDCDC"/>
<stop offset="1" stop-color="#8E8E8E"/>
</linearGradient>
<linearGradient id="paint63_linear_6784_11599" x1="15.7284" y1="13.8331" x2="13.3499" y2="13.8975" gradientUnits="userSpaceOnUse">
<stop stop-color="#9F9F9F"/>
<stop offset="0.522948" stop-color="#C3C3C3"/>
<stop offset="0.669499" stop-color="#DCDCDC"/>
<stop offset="1" stop-color="#8E8E8E"/>
</linearGradient>
<linearGradient id="paint64_linear_6784_11599" x1="12.6426" y1="17.501" x2="9.75565" y2="17.5804" gradientUnits="userSpaceOnUse">
<stop stop-color="#9F9F9F"/>
<stop offset="0.522948" stop-color="#C3C3C3"/>
<stop offset="0.669499" stop-color="#DCDCDC"/>
<stop offset="1" stop-color="#8E8E8E"/>
</linearGradient>
<linearGradient id="paint65_linear_6784_11599" x1="15.8874" y1="15.0246" x2="10.1293" y2="15.1878" gradientUnits="userSpaceOnUse">
<stop stop-color="#9F9F9F"/>
<stop offset="0.522948" stop-color="#C3C3C3"/>
<stop offset="0.669499" stop-color="#DCDCDC"/>
<stop offset="1" stop-color="#8E8E8E"/>
</linearGradient>
<linearGradient id="paint66_linear_6784_11599" x1="13.9662" y1="18.7492" x2="11.168" y2="18.8223" gradientUnits="userSpaceOnUse">
<stop stop-color="#9F9F9F"/>
<stop offset="0.522948" stop-color="#C3C3C3"/>
<stop offset="0.669499" stop-color="#DCDCDC"/>
<stop offset="1" stop-color="#8E8E8E"/>
</linearGradient>
<linearGradient id="paint67_linear_6784_11599" x1="13.5893" y1="19.2887" x2="11.0535" y2="19.3431" gradientUnits="userSpaceOnUse">
<stop stop-color="#9F9F9F"/>
<stop offset="0.522948" stop-color="#C3C3C3"/>
<stop offset="0.669499" stop-color="#DCDCDC"/>
<stop offset="1" stop-color="#8E8E8E"/>
</linearGradient>
<linearGradient id="paint68_linear_6784_11599" x1="13.445" y1="19.7049" x2="11.0515" y2="19.7654" gradientUnits="userSpaceOnUse">
<stop stop-color="#9F9F9F"/>
<stop offset="0.522948" stop-color="#C3C3C3"/>
<stop offset="0.669499" stop-color="#DCDCDC"/>
<stop offset="1" stop-color="#8E8E8E"/>
</linearGradient>
<linearGradient id="paint69_linear_6784_11599" x1="13.5166" y1="19.8791" x2="11.0682" y2="19.943" gradientUnits="userSpaceOnUse">
<stop stop-color="#9F9F9F"/>
<stop offset="0.522948" stop-color="#C3C3C3"/>
<stop offset="0.669499" stop-color="#DCDCDC"/>
<stop offset="1" stop-color="#8E8E8E"/>
</linearGradient>
<linearGradient id="paint70_linear_6784_11599" x1="20.2895" y1="12.4337" x2="10.8031" y2="12.5621" gradientUnits="userSpaceOnUse">
<stop stop-color="#9F9F9F"/>
<stop offset="0.522948" stop-color="#C3C3C3"/>
<stop offset="0.669499" stop-color="#DCDCDC"/>
<stop offset="1" stop-color="#8E8E8E"/>
</linearGradient>
<linearGradient id="paint71_linear_6784_11599" x1="13.8218" y1="19.985" x2="11.1094" y2="20.0689" gradientUnits="userSpaceOnUse">
<stop stop-color="#9F9F9F"/>
<stop offset="0.522948" stop-color="#C3C3C3"/>
<stop offset="0.669499" stop-color="#DCDCDC"/>
<stop offset="1" stop-color="#8E8E8E"/>
</linearGradient>
<linearGradient id="paint72_linear_6784_11599" x1="20.2895" y1="12.4337" x2="10.8031" y2="12.5621" gradientUnits="userSpaceOnUse">
<stop stop-color="#9F9F9F"/>
<stop offset="0.522948" stop-color="#C3C3C3"/>
<stop offset="0.669499" stop-color="#DCDCDC"/>
<stop offset="1" stop-color="#8E8E8E"/>
</linearGradient>
<linearGradient id="paint73_linear_6784_11599" x1="21.8128" y1="12.5573" x2="10.4646" y2="12.712" gradientUnits="userSpaceOnUse">
<stop stop-color="#9F9F9F"/>
<stop offset="0.522948" stop-color="#C3C3C3"/>
<stop offset="0.669499" stop-color="#DCDCDC"/>
<stop offset="1" stop-color="#8E8E8E"/>
</linearGradient>
<linearGradient id="paint74_linear_6784_11599" x1="23.3175" y1="11.1517" x2="-2.82303" y2="11.7598" gradientUnits="userSpaceOnUse">
<stop stop-color="#9F9F9F"/>
<stop offset="0.522948" stop-color="#C3C3C3"/>
<stop offset="0.669499" stop-color="#DCDCDC"/>
<stop offset="1" stop-color="#8E8E8E"/>
</linearGradient>
<radialGradient id="paint75_radial_6784_11599" cx="0" cy="0" r="1" gradientUnits="userSpaceOnUse" gradientTransform="translate(17.8987 9.07968) rotate(103.733) scale(28.6735 135.679)">
<stop stop-color="#9F9F9F"/>
<stop offset="0.421875" stop-color="#6E6E6E"/>
<stop offset="1" stop-color="#8E8E8E"/>
</radialGradient>
<radialGradient id="paint76_radial_6784_11599" cx="0" cy="0" r="1" gradientUnits="userSpaceOnUse" gradientTransform="translate(20.3691 10.0509) rotate(115.335) scale(42.6506 338.465)">
<stop stop-color="#9F9F9F"/>
<stop offset="0.421875" stop-color="#6E6E6E"/>
<stop offset="1" stop-color="#8E8E8E"/>
</radialGradient>
</defs>
</svg>
