<svg width="26" height="26" viewBox="0 0 26 26" fill="none" xmlns="http://www.w3.org/2000/svg">
<circle cx="13" cy="13.0001" r="12.5" fill="#1B1B29" stroke="#67677B"/>
<g opacity="0.5">
<path d="M7.94762 16.4373L9.19315 17.4974C7.77565 16.2906 7.49021 14.0137 8.64161 11.7791C9.30783 10.4876 10.3526 9.41565 11.5522 8.72106C12.0238 8.44796 12.1432 7.76363 11.7282 7.41038V7.41038C11.5348 7.24579 11.267 7.19451 11.0339 7.29516C9.53491 7.94228 8.19388 9.17199 7.39609 10.719C6.24468 12.9521 6.53114 15.229 7.94762 16.4373Z" fill="url(#paint0_linear_1_1074)"/>
<path d="M7.94762 16.4373L9.19315 17.4974C7.77565 16.2906 7.49021 14.0137 8.64161 11.7791C9.30783 10.4876 10.3526 9.41565 11.5522 8.72106C12.0238 8.44796 12.1432 7.76363 11.7282 7.41038V7.41038C11.5348 7.24579 11.267 7.19451 11.0339 7.29516C9.53491 7.94228 8.19388 9.17199 7.39609 10.719C6.24468 12.9521 6.53114 15.229 7.94762 16.4373Z" fill="url(#paint1_linear_1_1074)"/>
<path d="M7.94762 16.4373L9.19315 17.4974C7.77565 16.2906 7.49021 14.0137 8.64161 11.7791C9.30783 10.4876 10.3526 9.41565 11.5522 8.72106C12.0238 8.44796 12.1432 7.76363 11.7282 7.41038V7.41038C11.5348 7.24579 11.267 7.19451 11.0339 7.29516C9.53491 7.94228 8.19388 9.17199 7.39609 10.719C6.24468 12.9521 6.53114 15.229 7.94762 16.4373Z" fill="url(#paint2_linear_1_1074)"/>
<path d="M7.94762 16.4373L9.19315 17.4974C7.77565 16.2906 7.49021 14.0137 8.64161 11.7791C9.30783 10.4876 10.3526 9.41565 11.5522 8.72106C12.0238 8.44796 12.1432 7.76363 11.7282 7.41038V7.41038C11.5348 7.24579 11.267 7.19451 11.0339 7.29516C9.53491 7.94228 8.19388 9.17199 7.39609 10.719C6.24468 12.9521 6.53114 15.229 7.94762 16.4373Z" fill="url(#paint3_linear_1_1074)"/>
<path d="M7.94762 16.4373L9.19315 17.4974C7.77565 16.2906 7.49021 14.0137 8.64161 11.7791C9.30783 10.4876 10.3526 9.41565 11.5522 8.72106C12.0238 8.44796 12.1432 7.76363 11.7282 7.41038V7.41038C11.5348 7.24579 11.267 7.19451 11.0339 7.29516C9.53491 7.94228 8.19388 9.17199 7.39609 10.719C6.24468 12.9521 6.53114 15.229 7.94762 16.4373Z" fill="url(#paint4_linear_1_1074)"/>
<path d="M11.4156 7.13266L12.5869 8.13143C12.6317 8.16964 12.6955 8.17211 12.7542 8.16792V8.16792C12.7865 8.16556 12.8184 8.17555 12.8433 8.19577L11.5978 7.13564C11.5856 7.12542 11.5714 7.11768 11.5561 7.1129C11.5408 7.10812 11.5247 7.10638 11.5087 7.10779C11.476 7.10988 11.4442 7.11905 11.4156 7.13464" fill="url(#paint5_linear_1_1074)"/>
<path d="M11.4156 7.13266L12.5869 8.13143C12.6317 8.16964 12.6955 8.17211 12.7542 8.16792V8.16792C12.7865 8.16556 12.8184 8.17555 12.8433 8.19577L11.5978 7.13564C11.5856 7.12542 11.5714 7.11768 11.5561 7.1129C11.5408 7.10812 11.5247 7.10638 11.5087 7.10779C11.476 7.10988 11.4442 7.11905 11.4156 7.13464" fill="url(#paint6_linear_1_1074)"/>
<path d="M11.6417 7.24374L12.8432 8.26644C12.861 8.28156 12.8858 8.26902 12.8767 8.24754V8.24754C12.8692 8.2297 12.8578 8.21365 12.8434 8.20044L11.5979 7.14031C11.6123 7.1535 11.6237 7.16955 11.6312 7.18739C11.6388 7.20523 11.6423 7.22444 11.6417 7.24374" fill="url(#paint7_linear_1_1074)"/>
<path d="M11.6469 7.34152C11.6458 7.3457 11.6463 7.35327 11.6496 7.35607L12.8061 8.34087C12.844 8.37317 12.9178 8.34688 12.8936 8.30334V8.30334C12.8908 8.29836 12.8876 8.29538 12.8832 8.29168L11.7296 7.30974C11.7193 7.30097 11.6503 7.32842 11.6469 7.34152V7.34152Z" fill="url(#paint8_linear_1_1074)"/>
<path d="M11.5796 7.65577C11.5651 7.72201 11.5883 7.79085 11.6399 7.83482L12.5685 8.62554C12.6741 8.71544 12.8374 8.66043 12.867 8.52497V8.52497C12.8815 8.45868 12.8583 8.38979 12.8067 8.34581L11.8779 7.55529C11.7724 7.46551 11.6093 7.52046 11.5796 7.65577V7.65577Z" fill="url(#paint9_linear_1_1074)"/>
<path d="M11.3233 8.05857L12.4084 8.98256C12.5037 9.06374 12.6465 9.07538 12.7221 8.97559V8.97559C12.7869 8.8901 12.7489 8.77703 12.6672 8.70749L11.8487 8.01088C11.7155 7.89751 11.4703 7.96429 11.3233 8.05907V8.05907" fill="url(#paint10_linear_1_1074)"/>
<path d="M7.94762 16.4373L9.19315 17.4974C7.77565 16.2906 7.49021 14.0137 8.64161 11.7791C9.30783 10.4876 10.3526 9.41565 11.5522 8.72106C12.0238 8.44796 12.1432 7.76363 11.7282 7.41038V7.41038C11.5348 7.24579 11.267 7.19451 11.0339 7.29516C9.53491 7.94228 8.19388 9.17199 7.39609 10.719C6.24468 12.9521 6.53114 15.229 7.94762 16.4373Z" fill="url(#paint11_linear_1_1074)"/>
<path d="M8.62778 15.6918L9.87331 16.7549C9.32636 16.289 8.96511 15.6222 8.86284 14.8122C8.59298 12.9656 9.73013 10.8507 11.4992 9.68157C11.9539 9.38112 12.0647 8.69728 11.6498 8.34397V8.34397C11.4487 8.17274 11.1682 8.1221 10.9302 8.23661C8.78399 9.26925 7.31443 11.679 7.61731 13.7516C7.71907 14.5616 8.08083 15.2289 8.62778 15.6943" fill="url(#paint12_linear_1_1074)"/>
<path d="M12.2628 8.63305C12.1628 8.71374 12.2203 8.8465 12.3181 8.92982L13.2694 9.73991C13.3307 9.79206 13.4276 9.7697 13.4854 9.71371V9.71371C13.5478 9.65321 13.5863 9.53361 13.5201 9.47725L12.5682 8.667C12.4835 8.59492 12.3494 8.56323 12.2628 8.63305V8.63305Z" fill="url(#paint13_linear_1_1074)"/>
<path d="M10.4889 10.7481L11.1334 11.2966C11.4282 11.5476 11.8993 11.4193 12.1676 11.1402V11.1402C12.5061 10.788 12.6618 10.0568 12.2901 9.73984L12.2139 9.67483C12.0823 9.56259 11.9073 9.50594 11.7421 9.55746C11.1914 9.72926 10.7064 10.1904 10.4889 10.7461" fill="url(#paint14_linear_1_1074)"/>
<path d="M10.4841 10.7651C10.4831 10.7698 10.4848 10.7746 10.4884 10.7777L11.7115 11.8187C11.7189 11.8251 11.7305 11.8211 11.7325 11.8115V11.8115C11.7335 11.8069 11.7319 11.8021 11.7283 11.799L10.5055 10.7577C10.4979 10.7513 10.4861 10.7553 10.4841 10.7651V10.7651Z" fill="url(#paint15_linear_1_1074)"/>
<path d="M10.5233 10.9367L11.7689 11.9973C11.7475 11.9768 11.7324 11.951 11.725 11.9227V11.9227C11.7117 11.8716 11.701 11.8144 11.6608 11.7802L10.548 10.8326C10.5165 10.8058 10.4691 10.8221 10.4795 10.8621V10.8621C10.4868 10.8904 10.502 10.9162 10.5233 10.9367" fill="url(#paint16_linear_1_1074)"/>
<path d="M10.5238 10.9395L11.7693 11.9996V11.9996C11.8031 12.0266 11.8225 11.985 11.7896 11.957L10.7222 11.0481C10.6653 10.9996 10.5824 10.986 10.5238 10.9395V10.9395Z" fill="url(#paint17_linear_1_1074)"/>
<path d="M12.7958 8.53981C12.6661 8.54582 12.6108 8.70756 12.7096 8.79175L13.636 9.5806C13.6636 9.60413 13.6992 9.61628 13.7354 9.6146V9.6146C13.8651 9.6086 13.9204 9.44685 13.8216 9.36267L12.8952 8.57381C12.8676 8.55029 12.832 8.53813 12.7958 8.53981V8.53981Z" fill="url(#paint18_linear_1_1074)"/>
<path d="M10.4889 10.7481L11.1334 11.2966C11.4282 11.5476 11.8993 11.4193 12.1676 11.1402V11.1402C12.5061 10.788 12.6618 10.0568 12.2901 9.73984L12.2139 9.67483C12.0823 9.56259 11.9073 9.50594 11.7421 9.55746C11.1914 9.72926 10.7064 10.1904 10.4889 10.7461" fill="url(#paint19_linear_1_1074)"/>
<path d="M12.0472 9.31015C12.0223 9.42367 12.062 9.54166 12.1505 9.617L12.8531 10.2153C13.0339 10.3693 13.3136 10.2751 13.3645 10.0431V10.0431C13.3894 9.92952 13.3496 9.81149 13.261 9.73613L12.5583 9.13799C12.3775 8.98413 12.098 9.07829 12.0472 9.31015V9.31015Z" fill="url(#paint20_linear_1_1074)"/>
<path d="M14.1645 7.20913L15.2806 8.15906C15.3379 8.20786 15.4336 8.17447 15.4844 8.11886V8.11886V8.11886C15.534 8.0645 15.5539 7.96581 15.4979 7.91809L14.5143 7.08053C14.4325 7.01088 14.3113 6.97919 14.2389 7.05862V7.05862C14.2003 7.10105 14.1745 7.15317 14.1645 7.20913" fill="url(#paint21_linear_1_1074)"/>
<path d="M12.8538 8.53207L14.0545 9.55459C14.0832 9.57896 14.1214 9.58768 14.1574 9.59864V9.59864C14.1762 9.60435 14.1936 9.61366 14.2087 9.62601L12.9611 8.56589C12.9305 8.54114 12.8913 8.52901 12.8517 8.53207" fill="url(#paint22_linear_1_1074)"/>
<path d="M14.481 6.98659C14.4457 6.96804 14.4296 7.01039 14.4599 7.03621L15.625 8.02834C15.6274 8.03033 15.6305 8.03117 15.6335 8.03079V8.03079C15.6461 8.02921 15.6637 7.99208 15.6541 7.9839L14.4884 6.99166C14.4861 6.98972 14.4836 6.98798 14.481 6.98659V6.98659Z" fill="url(#paint23_linear_1_1074)"/>
<path d="M14.4901 6.99183L15.7356 8.05195L15.73 8.04599L14.4865 6.98586C14.4887 6.98748 14.4906 6.98951 14.4921 6.99183" fill="url(#paint24_linear_1_1074)"/>
<path d="M13.0253 8.75693L14.1929 9.75116C14.2263 9.77964 14.2746 9.75815 14.2607 9.7165V9.7165C14.2498 9.68394 14.2317 9.65411 14.2078 9.6291L12.9602 8.56898C12.9842 8.59385 13.0023 8.62359 13.0132 8.65608C13.0241 8.68856 13.0276 8.723 13.0233 8.75693" fill="url(#paint25_linear_1_1074)"/>
<path d="M11.0201 10.9468C10.8815 10.9533 10.8225 11.1261 10.9281 11.216L11.8328 11.986C11.8623 12.0111 11.9002 12.024 11.9388 12.0223V12.0223C12.0773 12.016 12.1364 11.8433 12.0309 11.7534L11.1263 10.9831C11.0968 10.958 11.0588 10.945 11.0201 10.9468V10.9468Z" fill="url(#paint26_linear_1_1074)"/>
<path d="M14.0997 7.51075C14.0852 7.57698 14.1083 7.64582 14.16 7.68977L15.0891 8.4806C15.1945 8.57028 15.3574 8.51541 15.3871 8.38027V8.38027C15.4016 8.31409 15.3784 8.24529 15.3268 8.20137L14.3979 7.41032C14.2924 7.32053 14.1293 7.37546 14.0997 7.51075V7.51075Z" fill="url(#paint27_linear_1_1074)"/>
<path d="M14.133 7.87307L15.3786 8.9337V8.9337C15.251 8.82511 15.2415 8.61478 15.1139 8.50617L14.2829 7.79849C14.189 7.71859 14.0381 7.7945 14.133 7.87307V7.87307Z" fill="url(#paint28_linear_1_1074)"/>
<path d="M14.1333 7.86548L15.3789 8.9261V8.9261C15.3846 8.93085 15.3884 8.92567 15.3827 8.92087L14.194 7.90962C14.1848 7.90176 14.1747 7.89502 14.1644 7.88856C14.1536 7.88171 14.1432 7.87417 14.1333 7.86598" fill="url(#paint29_linear_1_1074)"/>
<path d="M12.9176 9.2496C12.8937 9.35848 12.9318 9.47166 13.0167 9.54393L13.7416 10.1612C13.9149 10.3088 14.1831 10.2185 14.2317 9.99603V9.99603C14.2555 9.88726 14.2174 9.77424 14.1326 9.70204L13.4079 9.08462C13.2346 8.93697 12.9664 9.0272 12.9176 9.2496V9.2496Z" fill="url(#paint30_linear_1_1074)"/>
<path d="M10.1272 14.3362L11.3728 15.3964C11.0609 15.1308 10.9321 14.7166 11.04 14.2224C11.2624 13.207 11.9253 12.8301 13.1307 12.6312C13.9956 12.4765 14.2129 12.2369 14.3009 11.8301C14.3472 11.6173 14.3085 11.4472 14.1798 11.3383L12.9343 10.2777C13.063 10.3871 13.1022 10.5567 13.0553 10.77C12.9663 11.1762 12.7501 11.4164 11.8851 11.5706C10.6803 11.7695 10.0168 12.1454 9.79448 13.1617C9.68662 13.6555 9.81534 14.0697 10.1272 14.3357" fill="url(#paint31_linear_1_1074)"/>
<path d="M11.0814 10.9511L12.2178 11.9183C12.2874 11.9776 12.3844 12.0135 12.4601 11.9622V11.9622C12.4997 11.9354 12.5319 11.8995 12.5538 11.8576C12.7889 11.4155 13.1064 11.2291 13.6091 11.2057C13.8747 11.1938 14.0644 11.243 14.1805 11.3424L12.9349 10.2818C12.8189 10.1824 12.6296 10.1326 12.3635 10.1456C11.8609 10.1684 11.5434 10.3554 11.3083 10.7974C11.2862 10.8392 11.254 10.8751 11.2144 10.9019C11.1749 10.9287 11.1292 10.9456 11.0814 10.9511" fill="url(#paint32_linear_1_1074)"/>
<path d="M12.8784 9.42355L13.5012 9.95417C13.9065 10.2995 14.4707 10.4276 14.8759 10.7731V10.7731L13.6304 9.71245C13.4472 9.55631 13.1938 9.45438 12.8784 9.42454" fill="url(#paint33_linear_1_1074)"/>
<path d="M14.1814 7.90285L14.622 8.27781C15.1543 8.73088 15.8041 9.03705 16.3377 9.48856V9.48856L15.0922 8.42844C14.8237 8.20068 14.5151 8.02258 14.1814 7.90285" fill="url(#paint34_linear_1_1074)"/>
<path d="M14.4902 7.00195L14.6198 7.11229C15.3556 7.73858 16.2784 8.12894 17.0164 8.75276V8.75276L15.7708 7.69213C15.3981 7.37695 14.9618 7.14181 14.4902 7.00195" fill="url(#paint35_linear_1_1074)"/>
<path d="M10.1272 14.3362L11.3728 15.3964C11.0609 15.1308 10.9321 14.7166 11.04 14.2224C11.2624 13.207 11.9253 12.8301 13.1307 12.6312C13.9956 12.4765 14.2129 12.2369 14.3009 11.8301C14.3472 11.6173 14.3085 11.4472 14.1798 11.3383L12.9343 10.2777C13.063 10.3871 13.1022 10.5567 13.0553 10.77C12.9663 11.1762 12.7501 11.4164 11.8851 11.5706C10.6803 11.7695 10.0168 12.1454 9.79448 13.1617C9.68662 13.6555 9.81534 14.0697 10.1272 14.3357" fill="url(#paint36_linear_1_1074)"/>
<path d="M10.1272 14.3362L11.3728 15.3964C11.0609 15.1308 10.9321 14.7166 11.04 14.2224C11.2624 13.207 11.9253 12.8301 13.1307 12.6312C13.9956 12.4765 14.2129 12.2369 14.3009 11.8301C14.3472 11.6173 14.3085 11.4472 14.1798 11.3383L12.9343 10.2777C13.063 10.3871 13.1022 10.5567 13.0553 10.77C12.9663 11.1762 12.7501 11.4164 11.8851 11.5706C10.6803 11.7695 10.0168 12.1454 9.79448 13.1617C9.68662 13.6555 9.81534 14.0697 10.1272 14.3357" fill="url(#paint37_linear_1_1074)"/>
<path d="M10.1272 14.3362L11.3728 15.3964C11.0609 15.1308 10.9321 14.7166 11.04 14.2224C11.2624 13.207 11.9253 12.8301 13.1307 12.6312C13.9956 12.4765 14.2129 12.2369 14.3009 11.8301C14.3472 11.6173 14.3085 11.4472 14.1798 11.3383L12.9343 10.2777C13.063 10.3871 13.1022 10.5567 13.0553 10.77C12.9663 11.1762 12.7501 11.4164 11.8851 11.5706C10.6803 11.7695 10.0168 12.1454 9.79448 13.1617C9.68662 13.6555 9.81534 14.0697 10.1272 14.3357" fill="url(#paint38_linear_1_1074)"/>
<path d="M10.8384 13.7558L12.084 14.8164C11.9313 14.6861 11.8657 14.4857 11.9196 14.2391C11.9393 14.1491 11.9661 14.0695 12.0024 13.9984C12.2474 13.5185 12.5374 12.9073 12.1271 12.558V12.558C11.9711 12.4252 11.7607 12.3702 11.5634 12.4254C10.9869 12.5869 10.7614 12.78 10.6741 13.1785C10.6202 13.4271 10.6858 13.626 10.8384 13.7558" fill="url(#paint39_linear_1_1074)"/>
<path d="M13.4654 15.5037C13.0109 15.8041 12.9003 16.4879 13.3152 16.8411V16.8411C13.5162 17.0122 13.7966 17.0628 14.0345 16.9484C16.1807 15.9162 17.6504 13.5059 17.3475 11.4328C17.2458 10.6233 16.884 9.95647 16.3376 9.49055L15.092 8.43042C15.639 8.89584 15.9997 9.56265 16.102 10.3727C16.3718 12.2193 15.2346 14.3343 13.4654 15.5037Z" fill="url(#paint40_linear_1_1074)"/>
<path d="M10.1261 14.3322L11.3716 15.3923V15.3923C11.5611 15.5452 11.6774 15.3316 11.492 15.1739L10.9632 14.7238C10.8919 14.6631 10.8033 14.6276 10.7115 14.6084C10.4973 14.5636 10.2963 14.4691 10.1261 14.3322Z" fill="url(#paint41_linear_1_1074)"/>
<path d="M8.62866 15.6861L9.87419 16.7492V16.7492C10.0373 16.8873 10.1426 16.7282 9.97992 16.5897L9.57877 16.2481C9.5524 16.2256 9.52214 16.2083 9.48976 16.196C9.17513 16.0765 8.88381 15.9049 8.62866 15.6885" fill="url(#paint42_linear_1_1074)"/>
<path d="M9.54067 16.2136L10.7429 17.2374C10.7717 17.2619 10.8043 17.2816 10.8335 17.3056V17.3056L9.58799 16.2454C9.57352 16.2331 9.55764 16.2224 9.54067 16.2136" fill="url(#paint43_linear_1_1074)"/>
<path d="M11.8803 12.3425V12.3425C12.6702 13.0152 13.848 13.5001 14.6343 12.8233C14.91 12.586 15.0886 12.2698 15.1818 11.8438C15.2795 11.3997 15.1661 11.0193 14.8765 10.7732L13.631 9.71258C13.9205 9.95872 14.034 10.3391 13.9363 10.7832C13.7262 11.7408 13.0851 12.1436 11.8797 12.3425" fill="url(#paint44_linear_1_1074)"/>
<path d="M9.64403 16.4998L10.684 17.3854C10.7771 17.4647 10.9283 17.3879 10.8326 17.3118V17.3118L9.58705 16.2512C9.64963 16.3044 9.66998 16.383 9.64403 16.4998" fill="url(#paint45_linear_1_1074)"/>
<path d="M10.7417 15.1443C10.7168 15.2579 10.7566 15.3759 10.8451 15.4513L11.5479 16.0494C11.7286 16.2033 12.0082 16.1091 12.059 15.8772V15.8772C12.0839 15.7637 12.0442 15.6457 11.9557 15.5704L11.2531 14.9721C11.0722 14.8181 10.7925 14.9123 10.7417 15.1443V15.1443Z" fill="url(#paint46_linear_1_1074)"/>
<path d="M10.8387 13.7529L12.0842 14.8135C12.2191 14.9284 12.4216 14.988 12.6704 14.9766C13.1037 14.9567 13.393 14.8311 13.5938 14.6397C13.836 14.4089 13.7252 14.027 13.4707 13.8099V13.8099C13.0685 13.4668 12.414 13.6722 11.9111 13.8351C11.7734 13.8797 11.6135 13.9079 11.4269 13.9165C11.1786 13.9279 10.9756 13.8667 10.8408 13.7529" fill="url(#paint47_linear_1_1074)"/>
<path d="M12.6533 13.117L13.7802 14.0765C13.8378 14.1255 13.9299 14.1005 13.9894 14.0539V14.0539V14.0539C14.037 14.0167 14.059 13.9316 14.013 13.8924L13.0063 13.0352C12.9303 12.9704 12.8225 12.9318 12.744 12.9935V12.9935C12.7028 13.0258 12.6715 13.0685 12.6533 13.117" fill="url(#paint48_linear_1_1074)"/>
<path d="M7.94784 16.4313L9.19337 17.4914V17.4914C9.44903 17.7073 9.61329 17.4487 9.35852 17.2318L9.28224 17.1668C9.24713 17.1369 9.20607 17.1149 9.16212 17.1009C8.716 16.959 8.30312 16.7314 7.94784 16.4313" fill="url(#paint49_linear_1_1074)"/>
<path d="M9.23718 17.1329L10.4827 18.1935L10.4766 18.1871L9.23108 17.1264L9.23718 17.1329" fill="url(#paint50_linear_1_1074)"/>
<path d="M10.8387 13.7529L12.0842 14.8135C12.2191 14.9284 12.4216 14.988 12.6704 14.9766C13.1037 14.9567 13.393 14.8311 13.5938 14.6397C13.836 14.4089 13.7252 14.027 13.4707 13.8099V13.8099C13.0685 13.4668 12.414 13.6722 11.9111 13.8351C11.7734 13.8797 11.6135 13.9079 11.4269 13.9165C11.1786 13.9279 10.9756 13.8667 10.8408 13.7529" fill="url(#paint51_linear_1_1074)"/>
<path d="M10.7647 15.5176L12.0097 16.5782C11.9858 16.5532 11.9678 16.5235 11.9569 16.491V16.491C11.9366 16.4306 11.9174 16.3654 11.8688 16.324L10.7789 15.396C10.7455 15.3675 10.6973 15.389 10.7114 15.4305V15.4305C10.7224 15.463 10.7406 15.4928 10.7647 15.5176Z" fill="url(#paint52_linear_1_1074)"/>
<path d="M9.23606 17.1306L10.4779 18.1881C10.4804 18.1902 10.483 18.192 10.4859 18.1935V18.1935C10.5211 18.2113 10.537 18.1692 10.507 18.1436L9.41592 17.2145C9.36634 17.1723 9.29561 17.1621 9.2386 17.1306V17.1306" fill="url(#paint53_linear_1_1074)"/>
<path d="M9.57761 16.7978C9.56308 16.864 9.58624 16.9328 9.63783 16.9767L10.5668 17.7678C10.6722 17.8576 10.8353 17.8027 10.865 17.6674V17.6674C10.8795 17.6011 10.8563 17.5323 10.8047 17.4883L9.87555 16.6975C9.77019 16.6078 9.60726 16.6627 9.57761 16.7978V16.7978Z" fill="url(#paint54_linear_1_1074)"/>
<path d="M7.39759 10.7137C5.97163 13.4788 6.74956 16.3114 9.1506 17.0959C9.20125 17.1125 9.2541 17.1451 9.30738 17.1454V17.1454C9.32725 17.1455 9.34438 17.1422 9.36286 17.1349C9.40714 17.1174 9.44685 17.0902 9.47882 17.0551C9.51746 17.0128 9.54328 16.9608 9.55336 16.9049L9.6424 16.4987C9.67394 16.354 9.6368 16.2689 9.53809 16.2162C8.48896 15.8339 7.77003 14.9478 7.61739 13.7479C7.31269 11.6629 8.80182 9.2357 10.9691 8.21434C11.201 8.10501 11.495 8.01339 11.555 7.76405V7.76405L11.645 7.35581C11.6509 7.32911 11.6555 7.30859 11.6568 7.29149C11.6594 7.25764 11.6499 7.22162 11.6382 7.18976V7.18976C11.6321 7.17322 11.6224 7.15818 11.6098 7.14568C11.5972 7.13319 11.5819 7.12353 11.565 7.1174C11.5482 7.11127 11.5301 7.1088 11.5122 7.11017V7.11017C11.4473 7.11432 11.3884 7.14783 11.3275 7.17077C9.71017 7.7806 8.24705 9.06752 7.39759 10.7137Z" fill="url(#paint55_radial_1_1074)"/>
<path d="M9.33378 17.1502L10.4485 18.0994C10.5301 18.169 10.6512 18.2007 10.7236 18.1214V18.1214V18.1214C10.7945 18.0437 10.7489 17.9292 10.6688 17.8609L9.68183 17.0189C9.62451 16.97 9.52881 17.0032 9.47802 17.0588V17.0588C9.43938 17.1011 9.38943 17.1321 9.33378 17.1482" fill="url(#paint56_linear_1_1074)"/>
<path d="M10.7651 15.5183L12.0102 16.5789V16.5789C12.0437 16.6061 12.0631 16.5647 12.0303 16.5367L10.9187 15.5901C10.8901 15.5658 10.8519 15.557 10.8161 15.5459V15.5459C10.7974 15.5401 10.7801 15.5307 10.7651 15.5183" fill="url(#paint57_linear_1_1074)"/>
<path d="M13.2969 12.9127C13.1499 12.9195 13.0872 13.1028 13.1993 13.1982L14.0829 13.9503C14.1142 13.977 14.1544 13.9907 14.1955 13.9888V13.9888C14.3425 13.9821 14.4052 13.7987 14.2931 13.7033L13.4095 12.9512C13.3782 12.9246 13.338 12.9108 13.2969 12.9127V12.9127Z" fill="url(#paint58_linear_1_1074)"/>
<path d="M13.3598 12.9089L14.5161 13.8932C14.5732 13.9418 14.6562 13.9555 14.7147 14.0024V14.0024L13.4676 12.9423C13.437 12.9177 13.3977 12.9057 13.3582 12.9089" fill="url(#paint59_linear_1_1074)"/>
<path d="M11.2365 15.5347C11.1068 15.5408 11.0515 15.7025 11.1504 15.7867L12.0763 16.5751C12.1039 16.5986 12.1394 16.6107 12.1755 16.6091V16.6091C12.3053 16.6033 12.3608 16.4414 12.2619 16.3572L11.3359 15.5687C11.3083 15.5452 11.2728 15.5331 11.2365 15.5347V15.5347Z" fill="url(#paint60_linear_1_1074)"/>
<path d="M13.5134 13.1066L14.6926 14.1107C14.724 14.1374 14.7711 14.121 14.7606 14.0812V14.0812C14.7532 14.0529 14.738 14.0271 14.7168 14.0066L13.4697 12.946C13.4911 12.9665 13.5063 12.9922 13.5137 13.0206C13.5212 13.0489 13.5206 13.0786 13.5119 13.1066" fill="url(#paint61_linear_1_1074)"/>
<path d="M11.6076 15.1042C11.5827 15.2177 11.6225 15.3357 11.7109 15.411L12.4138 16.0096C12.5946 16.1634 12.8741 16.0693 12.9249 15.8375V15.8375C12.9498 15.724 12.9101 15.606 12.8216 15.5307L12.1187 14.9321C11.938 14.7782 11.6585 14.8723 11.6076 15.1042V15.1042Z" fill="url(#paint62_linear_1_1074)"/>
<path d="M13.5072 13.1236C13.5061 13.1283 13.5077 13.1333 13.5115 13.1365L14.7342 14.1777C14.7418 14.1842 14.7536 14.1802 14.7558 14.1705V14.1705C14.7569 14.1656 14.7552 14.1606 14.7514 14.1574L13.5285 13.1165C13.521 13.1101 13.5094 13.114 13.5072 13.1236V13.1236Z" fill="url(#paint63_linear_1_1074)"/>
<path d="M11.4867 15.4287C11.4243 15.4892 11.3858 15.609 11.4519 15.6653L12.4038 16.4759C12.4885 16.548 12.6224 16.5797 12.709 16.5098V16.5098C12.809 16.4292 12.7517 16.2965 12.654 16.2132L11.7021 15.4027C11.641 15.3507 11.5443 15.3729 11.4867 15.4287V15.4287Z" fill="url(#paint64_linear_1_1074)"/>
<path d="M12.9061 14.0331C12.5066 14.3905 12.3227 15.1044 12.7309 15.4518V15.4518C12.8797 15.5784 13.0796 15.6345 13.2665 15.5778C13.8366 15.4048 14.2427 15.0866 14.5133 14.6706C14.6891 14.4002 14.5888 14.0518 14.3432 13.8427L14.2599 13.7718C13.894 13.4604 13.3244 13.6224 12.9831 13.9606C12.9582 13.9853 12.9325 14.0095 12.9061 14.0331Z" fill="url(#paint65_linear_1_1074)"/>
<path d="M12.1693 16.3216L13.2668 17.2547C13.335 17.3126 13.4532 17.2898 13.5134 17.2237V17.2237C13.5672 17.1647 13.5807 17.0609 13.5198 17.0093L12.6668 16.2855C12.505 16.1482 12.2214 16.1173 12.1693 16.3231V16.3231" fill="url(#paint66_linear_1_1074)"/>
<path d="M12.1043 16.6224C12.0898 16.6887 12.113 16.7575 12.1646 16.8015L13.0932 17.5922C13.1988 17.6821 13.3621 17.6271 13.3918 17.4916V17.4916C13.4063 17.4253 13.383 17.3565 13.3314 17.3125L12.4026 16.522C12.2971 16.4322 12.134 16.4871 12.1043 16.6224V16.6224Z" fill="url(#paint67_linear_1_1074)"/>
<path d="M12.0813 16.8388C12.0837 16.8423 12.0862 16.8446 12.0894 16.8474L13.2445 17.831C13.2548 17.8398 13.3223 17.8118 13.325 17.7985V17.7985C13.3259 17.7945 13.3251 17.7873 13.322 17.7847L12.167 16.8016C12.1284 16.7688 12.0527 16.797 12.0813 16.8388V16.8388Z" fill="url(#paint68_linear_1_1074)"/>
<path d="M12.1266 16.9539L13.3721 18.014C13.3579 18.0007 13.3467 17.9846 13.3392 17.9668V17.9668C13.3252 17.9332 13.3128 17.8968 13.285 17.8732L12.1274 16.8874C12.1096 16.8723 12.0848 16.8848 12.0938 16.9064V16.9064C12.1012 16.9243 12.1124 16.9404 12.1266 16.9539" fill="url(#paint69_linear_1_1074)"/>
<path d="M13.4654 15.5037C13.0109 15.8041 12.9003 16.4879 13.3152 16.8411V16.8411C13.5162 17.0122 13.7966 17.0628 14.0345 16.9484C16.1807 15.9162 17.6504 13.5059 17.3475 11.4328C17.2458 10.6233 16.884 9.95647 16.3376 9.49055L15.092 8.43042C15.639 8.89584 15.9997 9.56265 16.102 10.3727C16.3718 12.2193 15.2346 14.3343 13.4654 15.5037Z" fill="url(#paint70_linear_1_1074)"/>
<path d="M12.1281 16.9467L13.3737 18.0069C13.3987 18.0271 13.4308 18.0371 13.4632 18.0347V18.0347C13.5099 18.0313 13.5176 17.975 13.4819 17.9447L12.3851 17.0129C12.3403 16.9748 12.2764 16.9725 12.2177 16.9761V16.9761C12.1853 16.9789 12.1531 16.969 12.1281 16.9487" fill="url(#paint71_linear_1_1074)"/>
<path d="M13.4654 15.5037C13.0109 15.8041 12.9003 16.4879 13.3152 16.8411V16.8411C13.5162 17.0122 13.7966 17.0628 14.0345 16.9484C16.1807 15.9162 17.6504 13.5059 17.3475 11.4328C17.2458 10.6233 16.884 9.95647 16.3376 9.49055L15.092 8.43042C15.639 8.89584 15.9997 9.56265 16.102 10.3727C16.3718 12.2193 15.2346 14.3343 13.4654 15.5037Z" fill="url(#paint72_linear_1_1074)"/>
<path d="M13.4233 16.4307C12.9505 16.7028 12.8301 17.3875 13.2454 17.741V17.741C13.4378 17.9047 13.7039 17.9564 13.9363 17.8575C15.4565 17.2107 16.7761 15.9824 17.5685 14.4602C18.7204 12.227 18.4335 9.94964 17.0165 8.74183L15.771 7.68121C17.189 8.88852 17.4749 11.1654 16.323 13.3995C15.6602 14.6698 14.6304 15.7359 13.4233 16.4307Z" fill="url(#paint73_linear_1_1074)"/>
<path fill-rule="evenodd" clip-rule="evenodd" d="M5.17429 12.2803C6.0194 8.42113 9.69035 5.17809 13.4046 5.00704C17.1203 4.83599 19.4292 7.80355 18.5841 11.6627C17.739 15.5218 14.0696 18.7638 10.3538 18.9354C6.63809 19.1069 4.32918 16.1394 5.17429 12.2803ZM7.40077 10.7129C5.95848 13.5077 6.76869 16.3735 9.2317 17.1197C9.23196 17.1198 9.23199 17.1202 9.23175 17.1203V17.1203C9.23158 17.1204 9.23153 17.1206 9.23165 17.1207C9.2514 17.1454 9.29777 17.1448 9.32726 17.1444V17.1444C9.33355 17.1443 9.33982 17.1435 9.3458 17.1415C9.39781 17.1248 9.44445 17.0949 9.48099 17.0549C9.51963 17.0125 9.54544 16.9605 9.55552 16.9046L9.64456 16.4984V16.4984C9.69115 16.2847 9.43437 16.1839 9.2378 16.0881C8.35325 15.6567 7.75705 14.8285 7.61955 13.7476C7.31486 11.6627 8.80387 9.23649 10.971 8.2143C11.2031 8.10482 11.5021 8.01443 11.5571 7.76377V7.76377L11.6462 7.35702C11.6533 7.32995 11.6586 7.30923 11.6599 7.29198C11.6624 7.25833 11.651 7.22265 11.6394 7.19097V7.19097C11.6333 7.17443 11.6236 7.15939 11.6109 7.14689C11.5983 7.13439 11.583 7.12474 11.5662 7.11861C11.5493 7.11248 11.5313 7.11001 11.5134 7.11138V7.11138C11.4485 7.11553 11.3895 7.14899 11.3286 7.17183C9.71323 7.77799 8.2497 9.0668 7.40077 10.7129ZM12.1697 16.3244L12.0808 16.7303C12.0807 16.7308 12.0808 16.7314 12.0809 16.7319V16.7319C12.0811 16.7323 12.0811 16.7329 12.081 16.7334L12.0807 16.735C12.0752 16.7608 12.0709 16.7809 12.0701 16.7976C12.0683 16.8313 12.0793 16.867 12.0908 16.8987V16.8987C12.0969 16.9153 12.1066 16.9304 12.1193 16.9429C12.1319 16.9554 12.1472 16.9651 12.1641 16.9712C12.181 16.9773 12.1991 16.9797 12.217 16.9782V16.9782C12.2818 16.9743 12.3409 16.9412 12.4017 16.9185C14.0422 16.3075 15.4793 15.0219 16.321 13.4045C17.744 10.6472 16.9743 7.8201 14.588 7.0283C14.5244 7.00723 14.4595 6.97236 14.3926 6.97308V6.97308V6.97308C14.3869 6.97315 14.3812 6.97392 14.3757 6.97567C14.3233 6.99244 14.2763 7.02248 14.2396 7.0628C14.201 7.10523 14.1752 7.15736 14.1652 7.21332L14.0762 7.61907V7.61907C14.0297 7.83303 14.2864 7.93431 14.4831 8.03053C15.3675 8.46325 15.9637 9.28905 16.1012 10.3698C16.4071 12.4631 14.9049 14.9008 12.7238 15.9158C12.5083 16.0161 12.2215 16.0925 12.1697 16.3244V16.3244ZM10.5106 14.5529C10.6896 14.6174 10.819 14.7942 10.7782 14.98L10.7015 15.3301C10.7014 15.3305 10.701 15.3308 10.7006 15.3306V15.3306C10.7002 15.3305 10.6998 15.3308 10.6998 15.3312C10.6965 15.4744 10.7611 15.5576 10.8723 15.5521L11.2653 15.534C11.2827 15.5331 11.3002 15.5309 11.3169 15.5259V15.5259V15.5259C11.3025 15.5301 11.2877 15.532 11.2727 15.5327L10.8759 15.5511C10.7803 15.5558 10.7192 15.4953 10.706 15.3869C10.7014 15.3488 10.7076 15.3104 10.7158 15.2729V15.2729C10.7913 14.9287 10.5379 14.6112 10.2429 14.4184C9.84949 14.1613 9.67537 13.7096 9.79577 13.1593C9.88777 12.7388 10.0553 12.4279 10.3054 12.1938C10.0541 12.4282 9.8859 12.7395 9.79364 13.1609C9.64847 13.8244 9.9311 14.3442 10.5106 14.5529ZM12.7817 11.2475C12.9404 11.1203 13.0123 10.9639 13.0545 10.7691C13.1425 10.3629 12.9207 10.1147 12.362 10.1406C12.0769 10.1536 11.8513 10.2194 11.6666 10.3545C11.8517 10.2183 12.0779 10.1521 12.3642 10.139C12.9238 10.1132 13.1457 10.3613 13.0566 10.7676C13.0138 10.963 12.9415 11.12 12.7817 11.2475ZM11.2231 10.8897C11.2198 10.8922 11.2164 10.8946 11.2129 10.897C11.1734 10.9237 11.1277 10.9406 11.0799 10.9461L10.6326 10.9665C10.5212 10.972 10.4561 10.889 10.48 10.7726V10.7726C10.4841 10.7534 10.4897 10.7346 10.4972 10.7164C10.5417 10.6087 10.5962 10.5047 10.6591 10.4059C10.5969 10.5042 10.5431 10.6077 10.4992 10.7148C10.4918 10.733 10.4862 10.7518 10.4821 10.771V10.771C10.4567 10.8874 10.5218 10.9699 10.6348 10.965L11.082 10.9446C11.1298 10.9391 11.1755 10.9222 11.2151 10.8954C11.2178 10.8935 11.2205 10.8917 11.2231 10.8897ZM12.0059 9.49469C12.0053 9.49477 12.0048 9.49423 12.0049 9.49364L12.157 8.80003C12.1719 8.732 12.2133 8.67255 12.2747 8.6279C12.2145 8.67237 12.1739 8.73123 12.1591 8.79846L12.0066 9.49401C12.0065 9.49437 12.0062 9.49464 12.0059 9.49469V9.49469ZM12.5123 12.2057C12.3211 12.2617 12.1098 12.3076 11.8777 12.3459C11.7451 12.3754 11.6264 12.4051 11.5202 12.4361C11.6273 12.4047 11.7472 12.3747 11.8813 12.3448C12.112 12.3068 12.3221 12.2612 12.5123 12.2057ZM11.8689 13.8486C12.2918 13.7245 12.5127 13.4517 12.65 13.1151C12.6682 13.0667 12.6995 13.024 12.7407 12.9916C12.7713 12.9675 12.8065 12.9499 12.8441 12.9396C12.8079 12.9501 12.7739 12.9673 12.7442 12.9906C12.703 13.023 12.6715 13.0656 12.6532 13.1141C12.5159 13.4516 12.2941 13.725 11.8689 13.8486ZM11.9936 14.5273C11.9069 14.5528 11.8165 14.575 11.7222 14.5937C11.7221 14.5937 11.722 14.5936 11.722 14.5935V14.5935C11.7221 14.5934 11.7221 14.5934 11.7222 14.5933C11.8164 14.5748 11.9069 14.5527 11.9936 14.5273Z" fill="url(#paint74_linear_1_1074)"/>
<path d="M14.4145 6.97181C14.3926 6.97133 14.3733 6.97485 14.353 6.98314C14.3098 7.00072 14.2711 7.0276 14.2398 7.06193C14.2012 7.10436 14.1754 7.15648 14.1654 7.21244L14.0764 7.6182V7.6182C14.0299 7.83216 14.2866 7.93344 14.4833 8.02965C15.3679 8.46237 15.9648 9.28817 16.1014 10.369C16.4073 12.4623 14.905 14.9006 12.7237 15.9152C12.5085 16.0153 12.2281 16.0934 12.1699 16.3235V16.3235L12.0809 16.7302C12.0751 16.7575 12.0706 16.7784 12.0698 16.7959C12.0681 16.8295 12.0791 16.8651 12.0907 16.8967V16.8967C12.0968 16.9132 12.1065 16.9282 12.1192 16.9407C12.1318 16.9532 12.1471 16.9628 12.164 16.9688C12.1808 16.9749 12.1988 16.9773 12.2167 16.9759V16.9759C12.2816 16.972 12.3406 16.9388 12.4015 16.9162C14.0425 16.3053 15.48 15.0215 16.3222 13.4037C17.7486 10.6377 16.9697 7.80404 14.5668 7.02016C14.5176 7.00411 14.4663 6.97292 14.4145 6.97181V6.97181Z" fill="url(#paint75_radial_1_1074)"/>
<path d="M6.69248 17.7829L7.93801 18.8431C8.86147 19.6292 10.1187 20.0593 11.6013 19.9912C15.315 19.8202 18.9845 16.5776 19.8285 12.7205C20.3373 10.3988 19.7039 8.39991 18.3098 7.21298L17.0643 6.15236C18.4584 7.33978 19.0918 9.33871 18.583 11.6603C17.7379 15.5195 14.0685 18.762 10.3528 18.9331C8.87216 19.0017 7.61493 18.5716 6.68943 17.7854" fill="url(#paint76_radial_1_1074)"/>
</g>
<defs>
<linearGradient id="paint0_linear_1_1074" x1="13.0164" y1="12.3209" x2="5.91406" y2="12.4175" gradientUnits="userSpaceOnUse">
<stop stop-color="#9F9F9F"/>
<stop offset="0.522948" stop-color="#C3C3C3"/>
<stop offset="0.669499" stop-color="#DCDCDC"/>
<stop offset="1" stop-color="#8E8E8E"/>
</linearGradient>
<linearGradient id="paint1_linear_1_1074" x1="13.0164" y1="12.3209" x2="5.91406" y2="12.4175" gradientUnits="userSpaceOnUse">
<stop stop-color="#9F9F9F"/>
<stop offset="0.522948" stop-color="#C3C3C3"/>
<stop offset="0.669499" stop-color="#DCDCDC"/>
<stop offset="1" stop-color="#8E8E8E"/>
</linearGradient>
<linearGradient id="paint2_linear_1_1074" x1="13.0164" y1="12.3209" x2="5.91406" y2="12.4175" gradientUnits="userSpaceOnUse">
<stop stop-color="#9F9F9F"/>
<stop offset="0.522948" stop-color="#C3C3C3"/>
<stop offset="0.669499" stop-color="#DCDCDC"/>
<stop offset="1" stop-color="#8E8E8E"/>
</linearGradient>
<linearGradient id="paint3_linear_1_1074" x1="13.0164" y1="12.3209" x2="5.91406" y2="12.4175" gradientUnits="userSpaceOnUse">
<stop stop-color="#9F9F9F"/>
<stop offset="0.522948" stop-color="#C3C3C3"/>
<stop offset="0.669499" stop-color="#DCDCDC"/>
<stop offset="1" stop-color="#8E8E8E"/>
</linearGradient>
<linearGradient id="paint4_linear_1_1074" x1="13.0164" y1="12.3209" x2="5.91406" y2="12.4175" gradientUnits="userSpaceOnUse">
<stop stop-color="#9F9F9F"/>
<stop offset="0.522948" stop-color="#C3C3C3"/>
<stop offset="0.669499" stop-color="#DCDCDC"/>
<stop offset="1" stop-color="#8E8E8E"/>
</linearGradient>
<linearGradient id="paint5_linear_1_1074" x1="12.9281" y1="7.65154" x2="11.2332" y2="7.70395" gradientUnits="userSpaceOnUse">
<stop stop-color="#9F9F9F"/>
<stop offset="0.522948" stop-color="#C3C3C3"/>
<stop offset="0.669499" stop-color="#DCDCDC"/>
<stop offset="1" stop-color="#8E8E8E"/>
</linearGradient>
<linearGradient id="paint6_linear_1_1074" x1="12.9281" y1="7.65154" x2="11.2332" y2="7.70395" gradientUnits="userSpaceOnUse">
<stop stop-color="#9F9F9F"/>
<stop offset="0.522948" stop-color="#C3C3C3"/>
<stop offset="0.669499" stop-color="#DCDCDC"/>
<stop offset="1" stop-color="#8E8E8E"/>
</linearGradient>
<linearGradient id="paint7_linear_1_1074" x1="12.9639" y1="7.72209" x2="11.4327" y2="7.76209" gradientUnits="userSpaceOnUse">
<stop stop-color="#9F9F9F"/>
<stop offset="0.522948" stop-color="#C3C3C3"/>
<stop offset="0.669499" stop-color="#DCDCDC"/>
<stop offset="1" stop-color="#8E8E8E"/>
</linearGradient>
<linearGradient id="paint8_linear_1_1074" x1="12.9767" y1="7.82462" x2="11.483" y2="7.86231" gradientUnits="userSpaceOnUse">
<stop stop-color="#9F9F9F"/>
<stop offset="0.522948" stop-color="#C3C3C3"/>
<stop offset="0.669499" stop-color="#DCDCDC"/>
<stop offset="1" stop-color="#8E8E8E"/>
</linearGradient>
<linearGradient id="paint9_linear_1_1074" x1="12.9699" y1="8.09058" x2="11.3847" y2="8.12458" gradientUnits="userSpaceOnUse">
<stop stop-color="#9F9F9F"/>
<stop offset="0.522948" stop-color="#C3C3C3"/>
<stop offset="0.669499" stop-color="#DCDCDC"/>
<stop offset="1" stop-color="#8E8E8E"/>
</linearGradient>
<linearGradient id="paint10_linear_1_1074" x1="12.8881" y1="8.43996" x2="11.134" y2="8.48492" gradientUnits="userSpaceOnUse">
<stop stop-color="#9F9F9F"/>
<stop offset="0.522948" stop-color="#C3C3C3"/>
<stop offset="0.669499" stop-color="#DCDCDC"/>
<stop offset="1" stop-color="#8E8E8E"/>
</linearGradient>
<linearGradient id="paint11_linear_1_1074" x1="13.0164" y1="12.3209" x2="5.91406" y2="12.4175" gradientUnits="userSpaceOnUse">
<stop stop-color="#9F9F9F"/>
<stop offset="0.522948" stop-color="#C3C3C3"/>
<stop offset="0.669499" stop-color="#DCDCDC"/>
<stop offset="1" stop-color="#8E8E8E"/>
</linearGradient>
<linearGradient id="paint12_linear_1_1074" x1="12.8656" y1="12.4105" x2="6.93538" y2="12.4908" gradientUnits="userSpaceOnUse">
<stop stop-color="#9F9F9F"/>
<stop offset="0.522948" stop-color="#C3C3C3"/>
<stop offset="0.669499" stop-color="#DCDCDC"/>
<stop offset="1" stop-color="#8E8E8E"/>
</linearGradient>
<linearGradient id="paint13_linear_1_1074" x1="13.7693" y1="9.20367" x2="11.9646" y2="9.2533" gradientUnits="userSpaceOnUse">
<stop stop-color="#9F9F9F"/>
<stop offset="0.522948" stop-color="#C3C3C3"/>
<stop offset="0.669499" stop-color="#DCDCDC"/>
<stop offset="1" stop-color="#8E8E8E"/>
</linearGradient>
<linearGradient id="paint14_linear_1_1074" x1="13.4169" y1="10.6533" x2="10.1351" y2="10.7459" gradientUnits="userSpaceOnUse">
<stop stop-color="#9F9F9F"/>
<stop offset="0.522948" stop-color="#C3C3C3"/>
<stop offset="0.669499" stop-color="#DCDCDC"/>
<stop offset="1" stop-color="#8E8E8E"/>
</linearGradient>
<linearGradient id="paint15_linear_1_1074" x1="11.8085" y1="11.2881" x2="10.3222" y2="11.3283" gradientUnits="userSpaceOnUse">
<stop stop-color="#9F9F9F"/>
<stop offset="0.522948" stop-color="#C3C3C3"/>
<stop offset="0.669499" stop-color="#DCDCDC"/>
<stop offset="1" stop-color="#8E8E8E"/>
</linearGradient>
<linearGradient id="paint16_linear_1_1074" x1="11.8458" y1="11.3867" x2="10.3085" y2="11.4251" gradientUnits="userSpaceOnUse">
<stop stop-color="#9F9F9F"/>
<stop offset="0.522948" stop-color="#C3C3C3"/>
<stop offset="0.669499" stop-color="#DCDCDC"/>
<stop offset="1" stop-color="#8E8E8E"/>
</linearGradient>
<linearGradient id="paint17_linear_1_1074" x1="11.9593" y1="11.4865" x2="10.3505" y2="11.5334" gradientUnits="userSpaceOnUse">
<stop stop-color="#9F9F9F"/>
<stop offset="0.522948" stop-color="#C3C3C3"/>
<stop offset="0.669499" stop-color="#DCDCDC"/>
<stop offset="1" stop-color="#8E8E8E"/>
</linearGradient>
<linearGradient id="paint18_linear_1_1074" x1="14.1967" y1="9.07721" x2="12.2215" y2="9.14896" gradientUnits="userSpaceOnUse">
<stop stop-color="#9F9F9F"/>
<stop offset="0.522948" stop-color="#C3C3C3"/>
<stop offset="0.669499" stop-color="#DCDCDC"/>
<stop offset="1" stop-color="#8E8E8E"/>
</linearGradient>
<linearGradient id="paint19_linear_1_1074" x1="13.4169" y1="10.6533" x2="10.1351" y2="10.7459" gradientUnits="userSpaceOnUse">
<stop stop-color="#9F9F9F"/>
<stop offset="0.522948" stop-color="#C3C3C3"/>
<stop offset="0.669499" stop-color="#DCDCDC"/>
<stop offset="1" stop-color="#8E8E8E"/>
</linearGradient>
<linearGradient id="paint20_linear_1_1074" x1="13.488" y1="9.67682" x2="11.8271" y2="9.70799" gradientUnits="userSpaceOnUse">
<stop stop-color="#9F9F9F"/>
<stop offset="0.522948" stop-color="#C3C3C3"/>
<stop offset="0.669499" stop-color="#DCDCDC"/>
<stop offset="1" stop-color="#8E8E8E"/>
</linearGradient>
<linearGradient id="paint21_linear_1_1074" x1="15.7159" y1="7.61911" x2="13.977" y2="7.66528" gradientUnits="userSpaceOnUse">
<stop stop-color="#9F9F9F"/>
<stop offset="0.522948" stop-color="#C3C3C3"/>
<stop offset="0.669499" stop-color="#DCDCDC"/>
<stop offset="1" stop-color="#8E8E8E"/>
</linearGradient>
<linearGradient id="paint22_linear_1_1074" x1="14.2893" y1="9.07881" x2="12.6782" y2="9.12591" gradientUnits="userSpaceOnUse">
<stop stop-color="#9F9F9F"/>
<stop offset="0.522948" stop-color="#C3C3C3"/>
<stop offset="0.669499" stop-color="#DCDCDC"/>
<stop offset="1" stop-color="#8E8E8E"/>
</linearGradient>
<linearGradient id="paint23_linear_1_1074" x1="15.8106" y1="7.50882" x2="14.2109" y2="7.55586" gradientUnits="userSpaceOnUse">
<stop stop-color="#9F9F9F"/>
<stop offset="0.522948" stop-color="#C3C3C3"/>
<stop offset="0.669499" stop-color="#DCDCDC"/>
<stop offset="1" stop-color="#8E8E8E"/>
</linearGradient>
<linearGradient id="paint24_linear_1_1074" x1="15.8098" y1="7.51891" x2="14.3266" y2="7.55988" gradientUnits="userSpaceOnUse">
<stop stop-color="#9F9F9F"/>
<stop offset="0.522948" stop-color="#C3C3C3"/>
<stop offset="0.669499" stop-color="#DCDCDC"/>
<stop offset="1" stop-color="#8E8E8E"/>
</linearGradient>
<linearGradient id="paint25_linear_1_1074" x1="14.3506" y1="9.19327" x2="12.792" y2="9.23189" gradientUnits="userSpaceOnUse">
<stop stop-color="#9F9F9F"/>
<stop offset="0.522948" stop-color="#C3C3C3"/>
<stop offset="0.669499" stop-color="#DCDCDC"/>
<stop offset="1" stop-color="#8E8E8E"/>
</linearGradient>
<linearGradient id="paint26_linear_1_1074" x1="12.4265" y1="11.4845" x2="10.4176" y2="11.5587" gradientUnits="userSpaceOnUse">
<stop stop-color="#9F9F9F"/>
<stop offset="0.522948" stop-color="#C3C3C3"/>
<stop offset="0.669499" stop-color="#DCDCDC"/>
<stop offset="1" stop-color="#8E8E8E"/>
</linearGradient>
<linearGradient id="paint27_linear_1_1074" x1="15.49" y1="7.9453" x2="13.9048" y2="7.97932" gradientUnits="userSpaceOnUse">
<stop stop-color="#9F9F9F"/>
<stop offset="0.522948" stop-color="#C3C3C3"/>
<stop offset="0.669499" stop-color="#DCDCDC"/>
<stop offset="1" stop-color="#8E8E8E"/>
</linearGradient>
<linearGradient id="paint28_linear_1_1074" x1="15.4567" y1="8.27783" x2="13.896" y2="8.31469" gradientUnits="userSpaceOnUse">
<stop stop-color="#9F9F9F"/>
<stop offset="0.522948" stop-color="#C3C3C3"/>
<stop offset="0.669499" stop-color="#DCDCDC"/>
<stop offset="1" stop-color="#8E8E8E"/>
</linearGradient>
<linearGradient id="paint29_linear_1_1074" x1="15.5025" y1="8.41145" x2="13.9679" y2="8.45427" gradientUnits="userSpaceOnUse">
<stop stop-color="#9F9F9F"/>
<stop offset="0.522948" stop-color="#C3C3C3"/>
<stop offset="0.669499" stop-color="#DCDCDC"/>
<stop offset="1" stop-color="#8E8E8E"/>
</linearGradient>
<linearGradient id="paint30_linear_1_1074" x1="14.353" y1="9.62292" x2="12.7" y2="9.6543" gradientUnits="userSpaceOnUse">
<stop stop-color="#9F9F9F"/>
<stop offset="0.522948" stop-color="#C3C3C3"/>
<stop offset="0.669499" stop-color="#DCDCDC"/>
<stop offset="1" stop-color="#8E8E8E"/>
</linearGradient>
<linearGradient id="paint31_linear_1_1074" x1="14.5909" y1="12.837" x2="9.17108" y2="12.9509" gradientUnits="userSpaceOnUse">
<stop stop-color="#9F9F9F"/>
<stop offset="0.522948" stop-color="#C3C3C3"/>
<stop offset="0.669499" stop-color="#DCDCDC"/>
<stop offset="1" stop-color="#8E8E8E"/>
</linearGradient>
<linearGradient id="paint32_linear_1_1074" x1="14.3647" y1="11.0774" x2="10.6875" y2="11.2212" gradientUnits="userSpaceOnUse">
<stop stop-color="#9F9F9F"/>
<stop offset="0.522948" stop-color="#C3C3C3"/>
<stop offset="0.669499" stop-color="#DCDCDC"/>
<stop offset="1" stop-color="#8E8E8E"/>
</linearGradient>
<linearGradient id="paint33_linear_1_1074" x1="14.9946" y1="10.0983" x2="12.6237" y2="10.181" gradientUnits="userSpaceOnUse">
<stop stop-color="#9F9F9F"/>
<stop offset="0.522948" stop-color="#C3C3C3"/>
<stop offset="0.669499" stop-color="#DCDCDC"/>
<stop offset="1" stop-color="#8E8E8E"/>
</linearGradient>
<linearGradient id="paint34_linear_1_1074" x1="16.4659" y1="8.69571" x2="13.9061" y2="8.77777" gradientUnits="userSpaceOnUse">
<stop stop-color="#9F9F9F"/>
<stop offset="0.522948" stop-color="#C3C3C3"/>
<stop offset="0.669499" stop-color="#DCDCDC"/>
<stop offset="1" stop-color="#8E8E8E"/>
</linearGradient>
<linearGradient id="paint35_linear_1_1074" x1="17.1665" y1="7.87735" x2="14.168" y2="7.97935" gradientUnits="userSpaceOnUse">
<stop stop-color="#9F9F9F"/>
<stop offset="0.522948" stop-color="#C3C3C3"/>
<stop offset="0.669499" stop-color="#DCDCDC"/>
<stop offset="1" stop-color="#8E8E8E"/>
</linearGradient>
<linearGradient id="paint36_linear_1_1074" x1="14.5909" y1="12.837" x2="9.17108" y2="12.9509" gradientUnits="userSpaceOnUse">
<stop stop-color="#9F9F9F"/>
<stop offset="0.522948" stop-color="#C3C3C3"/>
<stop offset="0.669499" stop-color="#DCDCDC"/>
<stop offset="1" stop-color="#8E8E8E"/>
</linearGradient>
<linearGradient id="paint37_linear_1_1074" x1="14.5909" y1="12.837" x2="9.17108" y2="12.9509" gradientUnits="userSpaceOnUse">
<stop stop-color="#9F9F9F"/>
<stop offset="0.522948" stop-color="#C3C3C3"/>
<stop offset="0.669499" stop-color="#DCDCDC"/>
<stop offset="1" stop-color="#8E8E8E"/>
</linearGradient>
<linearGradient id="paint38_linear_1_1074" x1="14.5909" y1="12.837" x2="9.17108" y2="12.9509" gradientUnits="userSpaceOnUse">
<stop stop-color="#9F9F9F"/>
<stop offset="0.522948" stop-color="#C3C3C3"/>
<stop offset="0.669499" stop-color="#DCDCDC"/>
<stop offset="1" stop-color="#8E8E8E"/>
</linearGradient>
<linearGradient id="paint39_linear_1_1074" x1="13.2717" y1="13.5817" x2="10.3387" y2="13.6509" gradientUnits="userSpaceOnUse">
<stop stop-color="#9F9F9F"/>
<stop offset="0.522948" stop-color="#C3C3C3"/>
<stop offset="0.669499" stop-color="#DCDCDC"/>
<stop offset="1" stop-color="#8E8E8E"/>
</linearGradient>
<linearGradient id="paint40_linear_1_1074" x1="17.6837" y1="12.7746" x2="11.7535" y2="12.8549" gradientUnits="userSpaceOnUse">
<stop stop-color="#9F9F9F"/>
<stop offset="0.522948" stop-color="#C3C3C3"/>
<stop offset="0.669499" stop-color="#DCDCDC"/>
<stop offset="1" stop-color="#8E8E8E"/>
</linearGradient>
<linearGradient id="paint41_linear_1_1074" x1="12.2165" y1="15.0114" x2="9.87444" y2="15.0916" gradientUnits="userSpaceOnUse">
<stop stop-color="#9F9F9F"/>
<stop offset="0.522948" stop-color="#C3C3C3"/>
<stop offset="0.669499" stop-color="#DCDCDC"/>
<stop offset="1" stop-color="#8E8E8E"/>
</linearGradient>
<linearGradient id="paint42_linear_1_1074" x1="10.9126" y1="16.4804" x2="8.35334" y2="16.5623" gradientUnits="userSpaceOnUse">
<stop stop-color="#9F9F9F"/>
<stop offset="0.522948" stop-color="#C3C3C3"/>
<stop offset="0.669499" stop-color="#DCDCDC"/>
<stop offset="1" stop-color="#8E8E8E"/>
</linearGradient>
<linearGradient id="paint43_linear_1_1074" x1="10.9104" y1="16.7596" x2="9.37519" y2="16.8025" gradientUnits="userSpaceOnUse">
<stop stop-color="#9F9F9F"/>
<stop offset="0.522948" stop-color="#C3C3C3"/>
<stop offset="0.669499" stop-color="#DCDCDC"/>
<stop offset="1" stop-color="#8E8E8E"/>
</linearGradient>
<linearGradient id="paint44_linear_1_1074" x1="15.4145" y1="11.5579" x2="11.4514" y2="11.6423" gradientUnits="userSpaceOnUse">
<stop stop-color="#9F9F9F"/>
<stop offset="0.522948" stop-color="#C3C3C3"/>
<stop offset="0.669499" stop-color="#DCDCDC"/>
<stop offset="1" stop-color="#8E8E8E"/>
</linearGradient>
<linearGradient id="paint45_linear_1_1074" x1="10.9786" y1="16.9058" x2="9.41857" y2="16.9427" gradientUnits="userSpaceOnUse">
<stop stop-color="#9F9F9F"/>
<stop offset="0.522948" stop-color="#C3C3C3"/>
<stop offset="0.669499" stop-color="#DCDCDC"/>
<stop offset="1" stop-color="#8E8E8E"/>
</linearGradient>
<linearGradient id="paint46_linear_1_1074" x1="12.1825" y1="15.5106" x2="10.5216" y2="15.5417" gradientUnits="userSpaceOnUse">
<stop stop-color="#9F9F9F"/>
<stop offset="0.522948" stop-color="#C3C3C3"/>
<stop offset="0.669499" stop-color="#DCDCDC"/>
<stop offset="1" stop-color="#8E8E8E"/>
</linearGradient>
<linearGradient id="paint47_linear_1_1074" x1="14.0789" y1="14.0457" x2="10.4498" y2="14.186" gradientUnits="userSpaceOnUse">
<stop stop-color="#9F9F9F"/>
<stop offset="0.522948" stop-color="#C3C3C3"/>
<stop offset="0.669499" stop-color="#DCDCDC"/>
<stop offset="1" stop-color="#8E8E8E"/>
</linearGradient>
<linearGradient id="paint48_linear_1_1074" x1="14.2203" y1="13.5553" x2="12.464" y2="13.6045" gradientUnits="userSpaceOnUse">
<stop stop-color="#9F9F9F"/>
<stop offset="0.522948" stop-color="#C3C3C3"/>
<stop offset="0.669499" stop-color="#DCDCDC"/>
<stop offset="1" stop-color="#8E8E8E"/>
</linearGradient>
<linearGradient id="paint49_linear_1_1074" x1="10.6247" y1="17.3067" x2="7.62556" y2="17.4087" gradientUnits="userSpaceOnUse">
<stop stop-color="#9F9F9F"/>
<stop offset="0.522948" stop-color="#C3C3C3"/>
<stop offset="0.669499" stop-color="#DCDCDC"/>
<stop offset="1" stop-color="#8E8E8E"/>
</linearGradient>
<linearGradient id="paint50_linear_1_1074" x1="10.5571" y1="17.66" x2="9.07085" y2="17.7011" gradientUnits="userSpaceOnUse">
<stop stop-color="#9F9F9F"/>
<stop offset="0.522948" stop-color="#C3C3C3"/>
<stop offset="0.669499" stop-color="#DCDCDC"/>
<stop offset="1" stop-color="#8E8E8E"/>
</linearGradient>
<linearGradient id="paint51_linear_1_1074" x1="14.0789" y1="14.0457" x2="10.4498" y2="14.186" gradientUnits="userSpaceOnUse">
<stop stop-color="#9F9F9F"/>
<stop offset="0.522948" stop-color="#C3C3C3"/>
<stop offset="0.669499" stop-color="#DCDCDC"/>
<stop offset="1" stop-color="#8E8E8E"/>
</linearGradient>
<linearGradient id="paint52_linear_1_1074" x1="12.0876" y1="15.9539" x2="10.5314" y2="15.9924" gradientUnits="userSpaceOnUse">
<stop stop-color="#9F9F9F"/>
<stop offset="0.522948" stop-color="#C3C3C3"/>
<stop offset="0.669499" stop-color="#DCDCDC"/>
<stop offset="1" stop-color="#8E8E8E"/>
</linearGradient>
<linearGradient id="paint53_linear_1_1074" x1="10.6634" y1="17.6706" x2="9.06374" y2="17.7177" gradientUnits="userSpaceOnUse">
<stop stop-color="#9F9F9F"/>
<stop offset="0.522948" stop-color="#C3C3C3"/>
<stop offset="0.669499" stop-color="#DCDCDC"/>
<stop offset="1" stop-color="#8E8E8E"/>
</linearGradient>
<linearGradient id="paint54_linear_1_1074" x1="10.9679" y1="17.2328" x2="9.38268" y2="17.2668" gradientUnits="userSpaceOnUse">
<stop stop-color="#9F9F9F"/>
<stop offset="0.522948" stop-color="#C3C3C3"/>
<stop offset="0.669499" stop-color="#DCDCDC"/>
<stop offset="1" stop-color="#8E8E8E"/>
</linearGradient>
<radialGradient id="paint55_radial_1_1074" cx="0" cy="0" r="1" gradientUnits="userSpaceOnUse" gradientTransform="translate(10.8094 10.8251) rotate(103.711) scale(17.9785 84.9437)">
<stop stop-color="#9F9F9F"/>
<stop offset="0.421875" stop-color="#6E6E6E"/>
<stop offset="1" stop-color="#8E8E8E"/>
</radialGradient>
<linearGradient id="paint56_linear_1_1074" x1="10.8851" y1="17.5597" x2="9.14621" y2="17.6058" gradientUnits="userSpaceOnUse">
<stop stop-color="#9F9F9F"/>
<stop offset="0.522948" stop-color="#C3C3C3"/>
<stop offset="0.669499" stop-color="#DCDCDC"/>
<stop offset="1" stop-color="#8E8E8E"/>
</linearGradient>
<linearGradient id="paint57_linear_1_1074" x1="12.2001" y1="16.0657" x2="10.5919" y2="16.1126" gradientUnits="userSpaceOnUse">
<stop stop-color="#9F9F9F"/>
<stop offset="0.522948" stop-color="#C3C3C3"/>
<stop offset="0.669499" stop-color="#DCDCDC"/>
<stop offset="1" stop-color="#8E8E8E"/>
</linearGradient>
<linearGradient id="paint58_linear_1_1074" x1="14.7086" y1="13.4508" x2="12.6672" y2="13.5273" gradientUnits="userSpaceOnUse">
<stop stop-color="#9F9F9F"/>
<stop offset="0.522948" stop-color="#C3C3C3"/>
<stop offset="0.669499" stop-color="#DCDCDC"/>
<stop offset="1" stop-color="#8E8E8E"/>
</linearGradient>
<linearGradient id="paint59_linear_1_1074" x1="14.7953" y1="13.4554" x2="13.1847" y2="13.5025" gradientUnits="userSpaceOnUse">
<stop stop-color="#9F9F9F"/>
<stop offset="0.522948" stop-color="#C3C3C3"/>
<stop offset="0.669499" stop-color="#DCDCDC"/>
<stop offset="1" stop-color="#8E8E8E"/>
</linearGradient>
<linearGradient id="paint60_linear_1_1074" x1="12.6374" y1="16.0719" x2="10.6623" y2="16.1437" gradientUnits="userSpaceOnUse">
<stop stop-color="#9F9F9F"/>
<stop offset="0.522948" stop-color="#C3C3C3"/>
<stop offset="0.669499" stop-color="#DCDCDC"/>
<stop offset="1" stop-color="#8E8E8E"/>
</linearGradient>
<linearGradient id="paint61_linear_1_1074" x1="14.8429" y1="13.5566" x2="13.3036" y2="13.5951" gradientUnits="userSpaceOnUse">
<stop stop-color="#9F9F9F"/>
<stop offset="0.522948" stop-color="#C3C3C3"/>
<stop offset="0.669499" stop-color="#DCDCDC"/>
<stop offset="1" stop-color="#8E8E8E"/>
</linearGradient>
<linearGradient id="paint62_linear_1_1074" x1="13.0485" y1="15.4708" x2="11.3875" y2="15.502" gradientUnits="userSpaceOnUse">
<stop stop-color="#9F9F9F"/>
<stop offset="0.522948" stop-color="#C3C3C3"/>
<stop offset="0.669499" stop-color="#DCDCDC"/>
<stop offset="1" stop-color="#8E8E8E"/>
</linearGradient>
<linearGradient id="paint63_linear_1_1074" x1="14.832" y1="13.6472" x2="13.3451" y2="13.6875" gradientUnits="userSpaceOnUse">
<stop stop-color="#9F9F9F"/>
<stop offset="0.522948" stop-color="#C3C3C3"/>
<stop offset="0.669499" stop-color="#DCDCDC"/>
<stop offset="1" stop-color="#8E8E8E"/>
</linearGradient>
<linearGradient id="paint64_linear_1_1074" x1="12.9032" y1="15.9393" x2="11.0985" y2="15.9889" gradientUnits="userSpaceOnUse">
<stop stop-color="#9F9F9F"/>
<stop offset="0.522948" stop-color="#C3C3C3"/>
<stop offset="0.669499" stop-color="#DCDCDC"/>
<stop offset="1" stop-color="#8E8E8E"/>
</linearGradient>
<linearGradient id="paint65_linear_1_1074" x1="14.9324" y1="14.3914" x2="11.3329" y2="14.4935" gradientUnits="userSpaceOnUse">
<stop stop-color="#9F9F9F"/>
<stop offset="0.522948" stop-color="#C3C3C3"/>
<stop offset="0.669499" stop-color="#DCDCDC"/>
<stop offset="1" stop-color="#8E8E8E"/>
</linearGradient>
<linearGradient id="paint66_linear_1_1074" x1="13.7298" y1="16.7184" x2="11.9806" y2="16.7642" gradientUnits="userSpaceOnUse">
<stop stop-color="#9F9F9F"/>
<stop offset="0.522948" stop-color="#C3C3C3"/>
<stop offset="0.669499" stop-color="#DCDCDC"/>
<stop offset="1" stop-color="#8E8E8E"/>
</linearGradient>
<linearGradient id="paint67_linear_1_1074" x1="13.4947" y1="17.0572" x2="11.9094" y2="17.0912" gradientUnits="userSpaceOnUse">
<stop stop-color="#9F9F9F"/>
<stop offset="0.522948" stop-color="#C3C3C3"/>
<stop offset="0.669499" stop-color="#DCDCDC"/>
<stop offset="1" stop-color="#8E8E8E"/>
</linearGradient>
<linearGradient id="paint68_linear_1_1074" x1="13.405" y1="17.3164" x2="11.9087" y2="17.3542" gradientUnits="userSpaceOnUse">
<stop stop-color="#9F9F9F"/>
<stop offset="0.522948" stop-color="#C3C3C3"/>
<stop offset="0.669499" stop-color="#DCDCDC"/>
<stop offset="1" stop-color="#8E8E8E"/>
</linearGradient>
<linearGradient id="paint69_linear_1_1074" x1="13.4488" y1="17.432" x2="11.9182" y2="17.4719" gradientUnits="userSpaceOnUse">
<stop stop-color="#9F9F9F"/>
<stop offset="0.522948" stop-color="#C3C3C3"/>
<stop offset="0.669499" stop-color="#DCDCDC"/>
<stop offset="1" stop-color="#8E8E8E"/>
</linearGradient>
<linearGradient id="paint70_linear_1_1074" x1="17.6837" y1="12.7746" x2="11.7535" y2="12.8549" gradientUnits="userSpaceOnUse">
<stop stop-color="#9F9F9F"/>
<stop offset="0.522948" stop-color="#C3C3C3"/>
<stop offset="0.669499" stop-color="#DCDCDC"/>
<stop offset="1" stop-color="#8E8E8E"/>
</linearGradient>
<linearGradient id="paint71_linear_1_1074" x1="13.6412" y1="17.4909" x2="11.9456" y2="17.5434" gradientUnits="userSpaceOnUse">
<stop stop-color="#9F9F9F"/>
<stop offset="0.522948" stop-color="#C3C3C3"/>
<stop offset="0.669499" stop-color="#DCDCDC"/>
<stop offset="1" stop-color="#8E8E8E"/>
</linearGradient>
<linearGradient id="paint72_linear_1_1074" x1="17.6837" y1="12.7746" x2="11.7535" y2="12.8549" gradientUnits="userSpaceOnUse">
<stop stop-color="#9F9F9F"/>
<stop offset="0.522948" stop-color="#C3C3C3"/>
<stop offset="0.669499" stop-color="#DCDCDC"/>
<stop offset="1" stop-color="#8E8E8E"/>
</linearGradient>
<linearGradient id="paint73_linear_1_1074" x1="18.6363" y1="12.8434" x2="11.5422" y2="12.9401" gradientUnits="userSpaceOnUse">
<stop stop-color="#9F9F9F"/>
<stop offset="0.522948" stop-color="#C3C3C3"/>
<stop offset="0.669499" stop-color="#DCDCDC"/>
<stop offset="1" stop-color="#8E8E8E"/>
</linearGradient>
<linearGradient id="paint74_linear_1_1074" x1="19.5762" y1="11.9712" x2="3.23503" y2="12.3514" gradientUnits="userSpaceOnUse">
<stop stop-color="#9F9F9F"/>
<stop offset="0.522948" stop-color="#C3C3C3"/>
<stop offset="0.669499" stop-color="#DCDCDC"/>
<stop offset="1" stop-color="#8E8E8E"/>
</linearGradient>
<radialGradient id="paint75_radial_1_1074" cx="0" cy="0" r="1" gradientUnits="userSpaceOnUse" gradientTransform="translate(16.1887 10.6755) rotate(103.733) scale(17.9246 84.8168)">
<stop stop-color="#9F9F9F"/>
<stop offset="0.421875" stop-color="#6E6E6E"/>
<stop offset="1" stop-color="#8E8E8E"/>
</radialGradient>
<radialGradient id="paint76_radial_1_1074" cx="0" cy="0" r="1" gradientUnits="userSpaceOnUse" gradientTransform="translate(17.7332 11.2783) rotate(115.335) scale(26.6621 211.584)">
<stop stop-color="#9F9F9F"/>
<stop offset="0.421875" stop-color="#6E6E6E"/>
<stop offset="1" stop-color="#8E8E8E"/>
</radialGradient>
</defs>
</svg>
