<svg width="26" height="26" viewBox="0 0 26 26" fill="none" xmlns="http://www.w3.org/2000/svg">
<rect width="26" height="26" fill="#151515"/>
<path d="M-7038 -1278C-7038 -1279.1 -7037.1 -1280 -7036 -1280H5250C5251.1 -1280 5252 -1279.1 5252 -1278V3432C5252 3433.1 5251.1 3434 5250 3434H-7036C-7037.1 3434 -7038 3433.1 -7038 3432V-1278Z" fill="#404040"/>
<path d="M-7036 -1279H5250V-1281H-7036V-1279ZM5251 -1278V3432H5253V-1278H5251ZM5250 3433H-7036V3435H5250V3433ZM-7037 3432V-1278H-7039V3432H-7037ZM-7036 3433C-7036.55 3433 -7037 3432.55 -7037 3432H-7039C-7039 3433.66 -7037.66 3435 -7036 3435V3433ZM5251 3432C5251 3432.55 5250.55 3433 5250 3433V3435C5251.66 3435 5253 3433.66 5253 3432H5251ZM5250 -1279C5250.55 -1279 5251 -1278.55 5251 -1278H5253C5253 -1279.66 5251.66 -1281 5250 -1281V-1279ZM-7036 -1281C-7037.66 -1281 -7039 -1279.66 -7039 -1278H-7037C-7037 -1278.55 -7036.55 -1279 -7036 -1279V-1281Z" fill="white" fill-opacity="0.1"/>
<g clip-path="url(#clip0_6001_4739)">
<rect width="1440" height="1392" transform="translate(-261 -432)" fill="#10101B"/>
<g clip-path="url(#clip1_6001_4739)">
<rect x="-36" y="-54" width="362" height="350.44" fill="#161623"/>
<rect x="-36" y="-54" width="362" height="484" fill="#161623"/>
<mask id="mask0_6001_4739" style="mask-type:alpha" maskUnits="userSpaceOnUse" x="-36" y="-54" width="362" height="484">
<rect x="-36" y="-54" width="362" height="484" fill="#161623"/>
</mask>
<g mask="url(#mask0_6001_4739)">
<rect opacity="0.8" x="-430.822" y="-356.5" width="1047.2" height="813.621" fill="url(#paint0_radial_6001_4739)"/>
</g>
<rect x="12" y="19" width="2" height="54" rx="1" fill="#274641"/>
<circle cx="13" cy="13" r="12.5" fill="#212130" stroke="#2C6E59"/>
<g opacity="0.8">
<path d="M8.94766 16.4376L10.1932 17.4977C8.77569 16.2909 8.49025 14.014 9.64165 11.7794C10.5066 10.1026 12.0096 8.79588 13.6611 8.20466L12.4156 7.14453C10.7646 7.73775 9.26108 9.04202 8.39612 10.7192C7.24472 12.9524 7.53117 15.2293 8.94766 16.4376Z" fill="url(#paint1_linear_6001_4739)"/>
<path d="M8.94766 16.4376L10.1932 17.4977C8.77569 16.2909 8.49025 14.014 9.64165 11.7794C10.5066 10.1026 12.0096 8.79588 13.6611 8.20466L12.4156 7.14453C10.7646 7.73775 9.26108 9.04202 8.39612 10.7192C7.24472 12.9524 7.53117 15.2293 8.94766 16.4376Z" fill="url(#paint2_linear_6001_4739)"/>
<path d="M8.94766 16.4376L10.1932 17.4977C8.77569 16.2909 8.49025 14.014 9.64165 11.7794C10.5066 10.1026 12.0096 8.79588 13.6611 8.20466L12.4156 7.14453C10.7646 7.73775 9.26108 9.04202 8.39612 10.7192C7.24472 12.9524 7.53117 15.2293 8.94766 16.4376Z" fill="url(#paint3_linear_6001_4739)"/>
<path d="M8.94766 16.4376L10.1932 17.4977C8.77569 16.2909 8.49025 14.014 9.64165 11.7794C10.5066 10.1026 12.0096 8.79588 13.6611 8.20466L12.4156 7.14453C10.7646 7.73775 9.26108 9.04202 8.39612 10.7192C7.24472 12.9524 7.53117 15.2293 8.94766 16.4376Z" fill="url(#paint4_linear_6001_4739)"/>
<path d="M8.94766 16.4376L10.1932 17.4977C8.77569 16.2909 8.49025 14.014 9.64165 11.7794C10.5066 10.1026 12.0096 8.79588 13.6611 8.20466L12.4156 7.14453C10.7646 7.73775 9.26108 9.04202 8.39612 10.7192C7.24472 12.9524 7.53117 15.2293 8.94766 16.4376Z" fill="url(#paint5_linear_6001_4739)"/>
<path d="M12.4151 7.13081L13.6606 8.19292C13.6893 8.17756 13.7211 8.1684 13.7537 8.16607C13.786 8.16371 13.8179 8.1737 13.8428 8.19392L12.5972 7.13379C12.5851 7.12357 12.5709 7.11583 12.5556 7.11105C12.5403 7.10627 12.5242 7.10453 12.5082 7.10595C12.4755 7.10803 12.4437 7.11721 12.4151 7.1328" fill="url(#paint6_linear_6001_4739)"/>
<path d="M12.4151 7.13081L13.6606 8.19292C13.6893 8.17756 13.7211 8.1684 13.7537 8.16607C13.786 8.16371 13.8179 8.1737 13.8428 8.19392L12.5972 7.13379C12.5851 7.12357 12.5709 7.11583 12.5556 7.11105C12.5403 7.10627 12.5242 7.10453 12.5082 7.10595C12.4755 7.10803 12.4437 7.11721 12.4151 7.1328" fill="url(#paint7_linear_6001_4739)"/>
<path d="M12.6411 7.24405L13.8866 8.30418C13.8873 8.28489 13.8837 8.26569 13.8762 8.24785C13.8686 8.23002 13.8573 8.21396 13.8429 8.20075L12.5974 7.14062C12.6118 7.15381 12.6231 7.16987 12.6307 7.18771C12.6382 7.20555 12.6418 7.22476 12.6411 7.24405Z" fill="url(#paint8_linear_6001_4739)"/>
<path d="M12.6447 7.35265L13.8902 8.41327C13.9029 8.35559 13.9095 8.32625 13.8902 8.29841L12.6447 7.23828C12.6665 7.26613 12.6599 7.29497 12.6447 7.35265Z" fill="url(#paint9_linear_6001_4739)"/>
<path d="M12.5561 7.76172L13.8016 8.82234L13.8906 8.4156L12.6451 7.35547L12.5561 7.76172Z" fill="url(#paint10_linear_6001_4739)"/>
<path d="M12.3228 8.05957L13.5683 9.12019C13.6655 9.05804 13.7718 8.9382 13.7998 8.82185L12.5543 7.76172C12.5288 7.87758 12.42 7.99741 12.3228 8.06007" fill="url(#paint11_linear_6001_4739)"/>
<path d="M8.94766 16.4376L10.1932 17.4977C8.77569 16.2909 8.49025 14.014 9.64165 11.7794C10.5066 10.1026 12.0096 8.79588 13.6611 8.20466L12.4156 7.14453C10.7646 7.73775 9.26108 9.04202 8.39612 10.7192C7.24472 12.9524 7.53117 15.2293 8.94766 16.4376Z" fill="url(#paint12_linear_6001_4739)"/>
<path d="M9.62723 15.6922L10.8728 16.7553C10.3258 16.2894 9.96456 15.6226 9.8623 14.8125C9.54125 12.6157 11.2116 10.039 13.5684 9.12703L12.3228 8.06641C9.96609 8.97935 8.29572 11.5551 8.61677 13.7519C8.71853 14.5619 9.08028 15.2292 9.62723 15.6947" fill="url(#paint13_linear_6001_4739)"/>
<path d="M13.1589 8.79294L14.4045 9.85356C14.4299 9.73721 14.5322 9.64671 14.6787 9.61091L13.4332 8.55078C13.2866 8.58609 13.1844 8.67708 13.1589 8.79294Z" fill="url(#paint14_linear_6001_4739)"/>
<path d="M11.4892 10.7496L12.7347 11.8097C12.9891 11.1668 13.5996 10.6501 14.2529 10.5621L13.0074 9.5C12.3516 9.58752 11.741 10.1042 11.4892 10.7476" fill="url(#paint15_linear_6001_4739)"/>
<path d="M11.4827 10.7715L12.7283 11.8317L12.7344 11.8028L11.4888 10.7422L11.4827 10.7715Z" fill="url(#paint16_linear_6001_4739)"/>
<path d="M11.523 10.938L12.7686 11.9986C12.7472 11.9781 12.7321 11.9523 12.7247 11.924C12.7173 11.8957 12.7181 11.8659 12.7268 11.838L11.4813 10.7773C11.4726 10.8053 11.4718 10.835 11.4792 10.8634C11.4865 10.8917 11.5017 10.9175 11.523 10.938Z" fill="url(#paint17_linear_6001_4739)"/>
<path d="M11.524 10.9414L12.7695 12.0015C12.8002 12.0261 12.8394 12.038 12.8789 12.0348L11.6334 10.9742C11.5939 10.9776 11.5547 10.9658 11.524 10.9414Z" fill="url(#paint18_linear_6001_4739)"/>
<path d="M13.4334 8.55846L14.6789 9.61908L15.0977 9.59969L13.8521 8.53906L13.4334 8.55846Z" fill="url(#paint19_linear_6001_4739)"/>
<path d="M11.4892 10.7496L12.7347 11.8097C12.9891 11.1668 13.5996 10.6501 14.2529 10.5621L13.0074 9.5C12.3516 9.58752 11.741 10.1042 11.4892 10.7476" fill="url(#paint20_linear_6001_4739)"/>
<path d="M13.0071 9.49302L14.2526 10.5536L14.4053 9.857L13.1597 8.79688L13.0071 9.49302Z" fill="url(#paint21_linear_6001_4739)"/>
<path d="M15.1646 7.2091L16.4101 8.26923C16.42 8.21329 16.4458 8.16119 16.4845 8.11883C16.5231 8.07647 16.5732 8.04554 16.6289 8.02956L15.3834 6.96893C15.3277 6.98511 15.2777 7.01616 15.239 7.05859C15.2004 7.10102 15.1746 7.15314 15.1646 7.2091Z" fill="url(#paint22_linear_6001_4739)"/>
<path d="M13.8541 8.53172L15.0996 9.59234C15.1192 9.59054 15.1389 9.59256 15.1577 9.59828C15.1765 9.604 15.1939 9.6133 15.209 9.62566L13.9614 8.56553C13.9308 8.54078 13.8916 8.52865 13.852 8.53172" fill="url(#paint23_linear_6001_4739)"/>
<path d="M15.3832 6.97084L16.6287 8.03146C16.6637 8.02597 16.6995 8.0321 16.7305 8.04886L15.4849 6.98874C15.4542 6.97138 15.4182 6.96505 15.3832 6.97084Z" fill="url(#paint24_linear_6001_4739)"/>
<path d="M15.4898 6.99034L16.7354 8.05047L16.7298 8.0445L15.4863 6.98438C15.4885 6.986 15.4904 6.98802 15.4919 6.99034" fill="url(#paint25_linear_6001_4739)"/>
<path d="M14.0252 8.75827L15.2707 9.8189C15.2749 9.78489 15.2715 9.75039 15.2606 9.71784C15.2497 9.68528 15.2316 9.65545 15.2076 9.63044L13.9601 8.57031C13.9841 8.59519 14.0022 8.62493 14.0131 8.65741C14.024 8.6899 14.0274 8.72434 14.0232 8.75827" fill="url(#paint26_linear_6001_4739)"/>
<path d="M11.6334 10.9662L12.8789 12.0263L13.3262 12.0059L12.0806 10.9453L11.6334 10.9662Z" fill="url(#paint27_linear_6001_4739)"/>
<path d="M15.0756 7.61719L16.3211 8.67732L16.4102 8.27156L15.1646 7.21094L15.0756 7.61719Z" fill="url(#paint28_linear_6001_4739)"/>
<path d="M15.1334 7.8722L16.3789 8.93283C16.3158 8.87913 16.2955 8.80106 16.3214 8.68172L15.0759 7.62109C15.0499 7.74043 15.0703 7.81999 15.1334 7.8722Z" fill="url(#paint29_linear_6001_4739)"/>
<path d="M15.1334 7.86719L16.379 8.92781C16.3934 8.93983 16.4091 8.95033 16.4258 8.95914L15.1803 7.89951C15.1636 7.89041 15.1479 7.87975 15.1334 7.86768" fill="url(#paint30_linear_6001_4739)"/>
<path d="M13.879 9.42561L15.1245 10.4862L15.2705 9.81844L14.0255 8.75781L13.879 9.42561Z" fill="url(#paint31_linear_6001_4739)"/>
<path d="M11.1269 14.3359L12.3724 15.396C12.0605 15.1305 11.9318 14.7163 12.0396 14.222C12.262 13.2066 12.925 12.8297 14.1303 12.6308C14.9952 12.4762 15.2125 12.2365 15.3005 11.8297C15.3468 11.6169 15.3081 11.4469 15.1794 11.338L13.9339 10.2773C14.0626 10.3867 14.1018 10.5563 14.055 10.7696C13.9659 11.1759 13.7497 11.416 12.8848 11.5702C11.6799 11.7691 11.0165 12.145 10.7941 13.1614C10.6863 13.6551 10.815 14.0693 11.1269 14.3354" fill="url(#paint32_linear_6001_4739)"/>
<path d="M12.0816 10.9521L13.3271 12.0122C13.375 12.0068 13.4207 11.99 13.4603 11.9632C13.4999 11.9364 13.5321 11.9004 13.554 11.8586C13.7891 11.4165 14.1066 11.23 14.6093 11.2067C14.8749 11.1947 15.0647 11.244 15.1807 11.3434L13.9351 10.2828C13.8191 10.1833 13.6299 10.1336 13.3638 10.1465C12.8611 10.1694 12.5436 10.3564 12.3085 10.7984C12.2864 10.8402 12.2542 10.8761 12.2146 10.9029C12.1751 10.9297 12.1294 10.9466 12.0816 10.9521Z" fill="url(#paint33_linear_6001_4739)"/>
<path d="M13.8784 9.42188L15.124 10.483C15.4394 10.5133 15.6928 10.6153 15.876 10.7714L14.6304 9.71077C14.4473 9.55464 14.1939 9.4527 13.8784 9.42287" fill="url(#paint34_linear_6001_4739)"/>
<path d="M15.1816 7.90234L16.4271 8.96247C16.7606 9.08264 17.0692 9.26069 17.3379 9.48806L16.0924 8.42793C15.8239 8.20018 15.5153 8.02208 15.1816 7.90234Z" fill="url(#paint35_linear_6001_4739)"/>
<path d="M15.4904 7.00391L16.736 8.06403C17.2075 8.20427 17.6438 8.43955 18.0166 8.75471L16.7711 7.69408C16.3984 7.3789 15.9621 7.14376 15.4904 7.00391Z" fill="url(#paint36_linear_6001_4739)"/>
<path d="M11.1269 14.3359L12.3724 15.396C12.0605 15.1305 11.9318 14.7163 12.0396 14.222C12.262 13.2066 12.925 12.8297 14.1303 12.6308C14.9952 12.4762 15.2125 12.2365 15.3005 11.8297C15.3468 11.6169 15.3081 11.4469 15.1794 11.338L13.9339 10.2773C14.0626 10.3867 14.1018 10.5563 14.055 10.7696C13.9659 11.1759 13.7497 11.416 12.8848 11.5702C11.6799 11.7691 11.0165 12.145 10.7941 13.1614C10.6863 13.6551 10.815 14.0693 11.1269 14.3354" fill="url(#paint37_linear_6001_4739)"/>
<path d="M11.1269 14.3359L12.3724 15.396C12.0605 15.1305 11.9318 14.7163 12.0396 14.222C12.262 13.2066 12.925 12.8297 14.1303 12.6308C14.9952 12.4762 15.2125 12.2365 15.3005 11.8297C15.3468 11.6169 15.3081 11.4469 15.1794 11.338L13.9339 10.2773C14.0626 10.3867 14.1018 10.5563 14.055 10.7696C13.9659 11.1759 13.7497 11.416 12.8848 11.5702C11.6799 11.7691 11.0165 12.145 10.7941 13.1614C10.6863 13.6551 10.815 14.0693 11.1269 14.3354" fill="url(#paint38_linear_6001_4739)"/>
<path d="M11.1269 14.3359L12.3724 15.396C12.0605 15.1305 11.9318 14.7163 12.0396 14.222C12.262 13.2066 12.925 12.8297 14.1303 12.6308C14.9952 12.4762 15.2125 12.2365 15.3005 11.8297C15.3468 11.6169 15.3081 11.4469 15.1794 11.338L13.9339 10.2773C14.0626 10.3867 14.1018 10.5563 14.055 10.7696C13.9659 11.1759 13.7497 11.416 12.8848 11.5702C11.6799 11.7691 11.0165 12.145 10.7941 13.1614C10.6863 13.6551 10.815 14.0693 11.1269 14.3354" fill="url(#paint39_linear_6001_4739)"/>
<path d="M11.8385 13.7564L13.084 14.817C12.9314 14.6867 12.8657 14.4863 12.9197 14.2397C13.0214 13.7752 13.3109 13.5893 14.125 13.4083L12.8795 12.3477C12.0654 12.5292 11.7759 12.7146 11.6741 13.179C11.6202 13.4277 11.6858 13.6266 11.8385 13.7564Z" fill="url(#paint40_linear_6001_4739)"/>
<path d="M13.3956 16.0579L14.6411 17.1181C16.9979 16.2056 18.6682 13.6294 18.3472 11.4321C18.2454 10.6225 17.8837 9.95574 17.3372 9.48982L16.0917 8.42969C16.6387 8.89511 16.9994 9.56192 17.1017 10.3719C17.4227 12.5688 15.7523 15.1455 13.3956 16.0579Z" fill="url(#paint41_linear_6001_4739)"/>
<path d="M11.1255 14.332L12.3711 15.3922C12.5783 15.5593 12.8314 15.6631 13.0986 15.6905L11.8531 14.6304C11.5859 14.6026 11.333 14.4989 11.1255 14.332Z" fill="url(#paint42_linear_6001_4739)"/>
<path d="M9.62842 15.6875L10.8739 16.7506C11.1424 16.978 11.4508 17.1561 11.7842 17.2762L10.5387 16.2156C10.2052 16.0956 9.8968 15.9176 9.62842 15.69" fill="url(#paint43_linear_6001_4739)"/>
<path d="M10.5402 16.2148L11.7857 17.2755C11.8025 17.2843 11.8184 17.2948 11.833 17.3068L10.5875 16.2467C10.573 16.2343 10.5571 16.2236 10.5402 16.2148Z" fill="url(#paint44_linear_6001_4739)"/>
<path d="M12.8799 12.3409L14.1254 13.4015C15.3308 13.2026 15.9719 12.7998 16.1815 11.8421C16.2792 11.3981 16.1657 11.0177 15.8762 10.7716L14.6307 9.71094C14.9202 9.95707 15.0336 10.3375 14.9359 10.7815C14.7258 11.7392 14.0847 12.142 12.8794 12.3409" fill="url(#paint45_linear_6001_4739)"/>
<path d="M10.6439 16.4986L11.8894 17.5592C11.9153 17.4404 11.895 17.3604 11.8324 17.3106L10.5869 16.25C10.6495 16.3032 10.6698 16.3818 10.6439 16.4986Z" fill="url(#paint46_linear_6001_4739)"/>
<path d="M11.7014 15.3295L12.947 16.3896L13.0996 15.6934L11.8541 14.6328L11.7014 15.3295Z" fill="url(#paint47_linear_6001_4739)"/>
<path d="M11.8391 13.7527L13.0846 14.8134C13.2195 14.9282 13.422 14.9879 13.6708 14.9765C14.3973 14.9431 14.7189 14.6125 14.8975 14.1734L13.6545 13.1133C13.4754 13.5523 13.1538 13.883 12.4273 13.9163C12.179 13.9278 11.976 13.8666 11.8411 13.7527" fill="url(#paint48_linear_6001_4739)"/>
<path d="M13.6537 13.1171L14.8988 14.1772C14.9171 14.1288 14.9486 14.0862 14.9898 14.054C15.0311 14.0218 15.0805 14.0011 15.1328 13.9942L13.8873 12.9336C13.835 12.9405 13.7855 12.9612 13.7444 12.9936C13.7032 13.0259 13.6719 13.0686 13.6537 13.1171Z" fill="url(#paint49_linear_6001_4739)"/>
<path d="M8.94794 16.4297L10.1935 17.4898C10.5665 17.8049 11.0029 18.0401 11.4746 18.1805L10.2291 17.1199C9.75735 16.9799 9.3209 16.7448 8.94794 16.4297Z" fill="url(#paint50_linear_6001_4739)"/>
<path d="M10.2369 17.1315L11.4824 18.1921L11.4763 18.1856L10.2308 17.125L10.2369 17.1315Z" fill="url(#paint51_linear_6001_4739)"/>
<path d="M11.8391 13.7527L13.0846 14.8134C13.2195 14.9282 13.422 14.9879 13.6708 14.9765C14.3973 14.9431 14.7189 14.6125 14.8975 14.1734L13.6545 13.1133C13.4754 13.5523 13.1538 13.883 12.4273 13.9163C12.179 13.9278 11.976 13.8666 11.8411 13.7527" fill="url(#paint52_linear_6001_4739)"/>
<path d="M11.7647 15.5161L13.0098 16.5767C12.9859 16.5517 12.9679 16.522 12.957 16.4895C12.9461 16.4571 12.9426 16.4227 12.9467 16.3888L11.7011 15.3281C11.697 15.3621 11.7005 15.3966 11.7115 15.429C11.7225 15.4615 11.7407 15.4913 11.7647 15.5161Z" fill="url(#paint53_linear_6001_4739)"/>
<path d="M10.2357 17.1289L11.4812 18.1895C11.5122 18.2064 11.5481 18.2125 11.583 18.2069L10.3375 17.1463C10.3033 17.1517 10.2684 17.1455 10.2383 17.1289" fill="url(#paint54_linear_6001_4739)"/>
<path d="M10.5541 16.9058L11.7996 17.9664L11.8887 17.5601L10.6431 16.5L10.5541 16.9058Z" fill="url(#paint55_linear_6001_4739)"/>
<path d="M8.39766 10.7133C6.95625 13.5083 7.76676 16.3724 10.2293 17.1203C10.2512 17.1481 10.3067 17.1457 10.3346 17.1442C10.3903 17.128 10.4402 17.0971 10.4789 17.0547C10.5175 17.0124 10.5433 16.9604 10.5534 16.9045L10.6425 16.4982C10.674 16.3535 10.6369 16.2685 10.5382 16.2158C9.48903 15.8334 8.7701 14.9473 8.61746 13.7475C8.29641 11.5506 9.96679 8.97392 12.3235 8.06197C12.4207 7.99981 12.527 7.87998 12.555 7.76362L12.6451 7.35538C12.6578 7.2977 12.6644 7.26886 12.6451 7.24102C12.6467 7.22351 12.6444 7.20587 12.6383 7.18934C12.6322 7.1728 12.6225 7.15775 12.6099 7.14526C12.5972 7.13276 12.5819 7.1231 12.5651 7.11697C12.5482 7.11084 12.5302 7.10837 12.5123 7.10974C12.4796 7.11183 12.4478 7.12101 12.4192 7.1366C10.7656 7.7318 9.26312 9.03607 8.39766 10.7133Z" fill="url(#paint56_radial_6001_4739)"/>
<path d="M10.3335 17.1518L11.5791 18.2124C11.6347 18.1963 11.6847 18.1653 11.7233 18.123C11.762 18.0807 11.7878 18.0286 11.7979 17.9728L10.5523 16.9102C10.5422 16.966 10.5164 17.018 10.4778 17.0604C10.4391 17.1027 10.3892 17.1337 10.3335 17.1498" fill="url(#paint57_linear_6001_4739)"/>
<path d="M11.7647 15.5195L13.0098 16.5802C13.0403 16.6049 13.0796 16.617 13.1191 16.614L11.8736 15.5533C11.8541 15.5551 11.8344 15.553 11.8157 15.5472C11.797 15.5413 11.7797 15.532 11.7647 15.5195Z" fill="url(#paint58_linear_6001_4739)"/>
<path d="M13.8862 12.932L15.1317 13.9922L15.6064 13.9703L14.3609 12.9102L13.8862 12.932Z" fill="url(#paint59_linear_6001_4739)"/>
<path d="M14.3599 12.9107L15.6055 13.9708C15.645 13.9676 15.6842 13.9795 15.7148 14.0041L14.4678 12.944C14.4371 12.9194 14.3979 12.9075 14.3584 12.9107" fill="url(#paint60_linear_6001_4739)"/>
<path d="M11.8738 15.5506L13.1188 16.6108L13.5381 16.5919L12.2926 15.5312L11.8738 15.5506Z" fill="url(#paint61_linear_6001_4739)"/>
<path d="M14.5133 13.1059L15.7588 14.1665C15.7673 14.1386 15.7679 14.1088 15.7604 14.0805C15.753 14.0522 15.7378 14.0265 15.7166 14.0059L14.4695 12.9453C14.4909 12.9658 14.5061 12.9915 14.5135 13.0199C14.521 13.0482 14.5204 13.0779 14.5117 13.1059" fill="url(#paint62_linear_6001_4739)"/>
<path d="M12.5667 15.2899L13.8122 16.3505L13.9648 15.6544L12.7193 14.5938L12.5667 15.2899Z" fill="url(#paint63_linear_6001_4739)"/>
<path d="M14.5057 13.1304L15.7512 14.191L15.7578 14.1617L14.5123 13.1016L14.5057 13.1304Z" fill="url(#paint64_linear_6001_4739)"/>
<path d="M12.2927 15.5312L13.5383 16.5918C13.6843 16.5565 13.7871 16.4655 13.8125 16.3497L12.567 15.2891C12.5415 15.4049 12.4388 15.4959 12.2927 15.5312Z" fill="url(#paint65_linear_6001_4739)"/>
<path d="M12.7206 14.5903L13.9661 15.6504C14.9196 15.463 15.4813 14.92 15.752 14.189L14.5064 13.1289C14.2357 13.8594 13.674 14.4024 12.7206 14.5903Z" fill="url(#paint66_linear_6001_4739)"/>
<path d="M13.1696 16.3217L14.4172 17.3823C14.4365 17.2953 14.5454 17.1755 14.6426 17.1133L13.395 16.0547C13.2978 16.1163 13.1915 16.2367 13.1696 16.3232" fill="url(#paint67_linear_6001_4739)"/>
<path d="M13.0805 16.7305L14.326 17.7911L14.415 17.3843L13.1695 16.3242L13.0805 16.7305Z" fill="url(#paint68_linear_6001_4739)"/>
<path d="M13.0845 16.8448L14.3301 17.9055C14.3082 17.8776 14.3148 17.8488 14.327 17.7906L13.0815 16.7305C13.0693 16.7881 13.0627 16.8175 13.0845 16.8448Z" fill="url(#paint69_linear_6001_4739)"/>
<path d="M13.1265 16.9555L14.3721 18.0156C14.3578 18.0023 14.3466 17.9862 14.3391 17.9684C14.3317 17.9506 14.3282 17.9314 14.3288 17.9122L13.0833 16.8516C13.0827 16.8709 13.0862 16.8901 13.0937 16.908C13.1011 16.9259 13.1123 16.9421 13.1265 16.9555Z" fill="url(#paint70_linear_6001_4739)"/>
<path d="M13.3956 16.0579L14.6411 17.1181C16.9979 16.2056 18.6682 13.6294 18.3472 11.4321C18.2454 10.6225 17.8837 9.95574 17.3372 9.48982L16.0917 8.42969C16.6387 8.89511 16.9994 9.56192 17.1017 10.3719C17.4227 12.5688 15.7523 15.1455 13.3956 16.0579Z" fill="url(#paint71_linear_6001_4739)"/>
<path d="M13.1285 16.9453L14.374 18.0054C14.399 18.0257 14.4311 18.0357 14.4635 18.0333C14.4962 18.0309 14.5279 18.0217 14.5566 18.0064L13.3111 16.9483C13.2824 16.9637 13.2506 16.9727 13.218 16.9747C13.1856 16.9774 13.1534 16.9676 13.1285 16.9473" fill="url(#paint72_linear_6001_4739)"/>
<path d="M13.3956 16.0579L14.6411 17.1181C16.9979 16.2056 18.6682 13.6294 18.3472 11.4321C18.2454 10.6225 17.8837 9.95574 17.3372 9.48982L16.0917 8.42969C16.6387 8.89511 16.9994 9.56192 17.1017 10.3719C17.4227 12.5688 15.7523 15.1455 13.3956 16.0579Z" fill="url(#paint73_linear_6001_4739)"/>
<path d="M13.3105 16.9439L14.5561 18.004C16.2351 17.4098 17.7106 16.1065 18.5684 14.4586C19.7203 12.2255 19.4334 9.94812 18.0164 8.74031L16.7708 7.67969C18.1888 8.887 18.4748 11.1639 17.3229 13.398C16.464 15.0439 14.989 16.3472 13.3105 16.9439Z" fill="url(#paint74_linear_6001_4739)"/>
<path fill-rule="evenodd" clip-rule="evenodd" d="M6.1747 12.2803C7.01981 8.42113 10.6908 5.17809 14.405 5.00704C18.1207 4.83599 20.4296 7.80355 19.5845 11.6627C18.7394 15.5218 15.07 18.7638 11.3542 18.9354C7.63851 19.1069 5.32959 16.1394 6.1747 12.2803ZM8.40119 10.7129C6.95875 13.508 7.76926 16.3741 10.2328 17.1199L10.2318 17.1204C10.2514 17.1454 10.2981 17.1448 10.3277 17.1444C10.3311 17.1444 10.3343 17.1443 10.3372 17.1443C10.3928 17.1282 10.4428 17.0972 10.4814 17.0549C10.52 17.0125 10.5459 16.9605 10.5559 16.9046L10.645 16.4984C10.6765 16.3537 10.6394 16.2687 10.5407 16.216C9.49052 15.8361 8.77261 14.9475 8.61997 13.7476C8.29892 11.5508 9.96929 8.97506 12.326 8.06212C12.4232 7.99946 12.5321 7.87963 12.5575 7.76377L12.6466 7.35702C12.6618 7.29934 12.6685 7.2705 12.6466 7.24265C12.6482 7.22515 12.6459 7.20751 12.6398 7.19097C12.6337 7.17443 12.624 7.15939 12.6114 7.14689C12.5987 7.13439 12.5834 7.12474 12.5666 7.11861C12.5497 7.11248 12.5317 7.11001 12.5138 7.11138C12.4811 7.11347 12.4493 7.12264 12.4207 7.13823C10.7691 7.72946 9.26614 9.03572 8.40119 10.7129ZM13.1701 16.3244L13.0811 16.7311L13.0816 16.7326L13.0811 16.735C13.0692 16.7911 13.0631 16.82 13.0846 16.847C13.0829 16.8645 13.0852 16.8822 13.0913 16.8987C13.0973 16.9153 13.107 16.9304 13.1197 16.9429C13.1323 16.9554 13.1476 16.9651 13.1645 16.9712C13.1814 16.9773 13.1995 16.9797 13.2174 16.9782C13.2501 16.9763 13.2819 16.9673 13.3105 16.9519C14.9891 16.3552 16.4641 15.0519 17.3214 13.4045C18.7638 10.6095 17.9533 7.74288 15.4897 6.99701C15.4704 6.97225 15.4227 6.97277 15.393 6.97308C15.3899 6.97312 15.387 6.97315 15.3844 6.97315C15.3287 6.98933 15.2787 7.02037 15.24 7.0628C15.2014 7.10523 15.1756 7.15736 15.1656 7.21332L15.0766 7.61907C15.045 7.76427 15.0822 7.8488 15.1809 7.902C16.231 8.28438 16.9489 9.16998 17.1016 10.3698C17.4226 12.5667 15.7523 15.1429 13.3955 16.0558C13.2983 16.1175 13.1895 16.2378 13.1701 16.3244ZM11.8544 14.6347L11.7017 15.3309L11.7002 15.3304C11.6972 15.4537 11.7443 15.5327 11.8282 15.5492C11.7468 15.5311 11.7012 15.453 11.7042 15.3312L11.8568 14.635C11.0509 14.5286 10.625 13.9448 10.7965 13.1612C11.0188 12.1448 11.6823 11.7689 12.8871 11.57C13.7521 11.4158 13.9683 11.1757 14.0574 10.7694C14.1339 10.4203 13.9808 10.1879 13.581 10.1459C13.9781 10.1887 14.1304 10.4208 14.0549 10.7691C13.9669 11.1754 13.7496 11.415 12.8847 11.5697C11.6799 11.7686 11.0164 12.1455 10.7941 13.1609C10.6226 13.9445 11.0479 14.5278 11.8544 14.6347ZM11.6063 10.9661C11.5114 10.958 11.4585 10.8793 11.4804 10.7726L11.4865 10.7438C11.7409 10.1003 12.3515 9.58369 13.0048 9.49617L13.1574 8.80003C13.1828 8.68417 13.2851 8.59317 13.4316 8.55787L13.8504 8.53848C13.8672 8.53773 13.8829 8.53896 13.8975 8.54208C13.884 8.53955 13.8696 8.5386 13.8544 8.53927L13.4341 8.55817C13.2876 8.59347 13.1853 8.68447 13.1599 8.80033L13.0072 9.49647C12.3514 9.58399 11.7408 10.1006 11.489 10.7441L11.4829 10.7729C11.4597 10.8788 11.5116 10.9567 11.6063 10.9661ZM13.8809 9.42844C13.9504 9.43517 14.017 9.4454 14.0804 9.45895C14.0169 9.44554 13.9504 9.43544 13.8808 9.42885L13.8809 9.42844ZM12.1555 13.9001C12.237 13.9163 12.3266 13.9226 12.4232 13.9182C13.1498 13.8849 13.4713 13.5542 13.6504 13.1151C13.6686 13.0667 13.6999 13.024 13.7411 12.9916C13.7822 12.9593 13.8316 12.9386 13.884 12.9316L14.3587 12.9098C14.3748 12.909 14.39 12.9102 14.4041 12.913C14.3912 12.9108 14.3773 12.9099 14.3626 12.9106L13.8879 12.9324C13.8356 12.9394 13.7861 12.9602 13.7449 12.9925C13.7037 13.0248 13.6722 13.0675 13.6539 13.1159C13.4753 13.555 13.1537 13.8857 12.4272 13.919C12.329 13.9235 12.238 13.9169 12.1555 13.9001Z" fill="url(#paint75_linear_6001_4739)"/>
<path d="M15.3841 6.9732C15.3284 6.98938 15.2784 7.02042 15.2398 7.06285C15.2011 7.10528 15.1754 7.15741 15.1654 7.21337L15.0763 7.61912C15.0448 7.76432 15.0819 7.84885 15.1806 7.90205C16.2308 8.28443 16.9497 9.17003 17.1013 10.3699C17.4224 12.5667 15.752 15.1434 13.3953 16.0559C13.2981 16.1175 13.1918 16.2379 13.1699 16.3244L13.0808 16.7311C13.0686 16.7888 13.062 16.8182 13.0839 16.846C13.0823 16.8635 13.0846 16.8811 13.0907 16.8976C13.0968 16.9142 13.1065 16.9292 13.1191 16.9416C13.1318 16.9541 13.1471 16.9637 13.1639 16.9698C13.1808 16.9758 13.1988 16.9782 13.2167 16.9768C13.2493 16.9748 13.2811 16.9658 13.3098 16.9504C14.9888 16.3537 16.4643 15.0524 17.3221 13.4046C18.7636 10.6096 17.9531 7.74542 15.4905 6.99707C15.4676 6.96972 15.4121 6.9722 15.3841 6.9732Z" fill="url(#paint76_radial_6001_4739)"/>
<path d="M7.69242 17.7829L8.93795 18.8431C9.86141 19.6292 11.1186 20.0593 12.6013 19.9912C16.315 19.8201 19.9844 16.5776 20.8285 12.7205C21.3373 10.3988 20.7038 8.39989 19.3097 7.21297L18.0642 6.15234C19.4583 7.33977 20.0917 9.33869 19.583 11.6603C18.7378 15.5195 15.0684 18.762 11.3527 18.9331C9.87209 19.0017 8.61486 18.5716 7.68936 17.7854" fill="url(#paint77_radial_6001_4739)"/>
</g>
</g>
</g>
<defs>
<radialGradient id="paint0_radial_6001_4739" cx="0" cy="0" r="1" gradientUnits="userSpaceOnUse" gradientTransform="translate(-82.1094 35.7814) rotate(35.5105) scale(835.162 926.086)">
<stop stop-color="#1F343E"/>
<stop offset="0.3308" stop-color="#171B25" stop-opacity="0.71"/>
<stop offset="0.752684" stop-color="#161623"/>
</radialGradient>
<linearGradient id="paint1_linear_6001_4739" x1="14.0164" y1="12.3211" x2="6.9141" y2="12.4178" gradientUnits="userSpaceOnUse">
<stop stop-color="#38BC7C"/>
<stop offset="0.522948" stop-color="#2C6E59"/>
<stop offset="0.669499" stop-color="#4B8673"/>
<stop offset="1" stop-color="#2C6E59"/>
</linearGradient>
<linearGradient id="paint2_linear_6001_4739" x1="14.0164" y1="12.3211" x2="6.9141" y2="12.4178" gradientUnits="userSpaceOnUse">
<stop stop-color="#38BC7C"/>
<stop offset="0.522948" stop-color="#2C6E59"/>
<stop offset="0.669499" stop-color="#4B8673"/>
<stop offset="1" stop-color="#2C6E59"/>
</linearGradient>
<linearGradient id="paint3_linear_6001_4739" x1="14.0164" y1="12.3211" x2="6.9141" y2="12.4178" gradientUnits="userSpaceOnUse">
<stop stop-color="#38BC7C"/>
<stop offset="0.522948" stop-color="#2C6E59"/>
<stop offset="0.669499" stop-color="#4B8673"/>
<stop offset="1" stop-color="#2C6E59"/>
</linearGradient>
<linearGradient id="paint4_linear_6001_4739" x1="14.0164" y1="12.3211" x2="6.9141" y2="12.4178" gradientUnits="userSpaceOnUse">
<stop stop-color="#38BC7C"/>
<stop offset="0.522948" stop-color="#2C6E59"/>
<stop offset="0.669499" stop-color="#4B8673"/>
<stop offset="1" stop-color="#2C6E59"/>
</linearGradient>
<linearGradient id="paint5_linear_6001_4739" x1="14.0164" y1="12.3211" x2="6.9141" y2="12.4178" gradientUnits="userSpaceOnUse">
<stop stop-color="#38BC7C"/>
<stop offset="0.522948" stop-color="#2C6E59"/>
<stop offset="0.669499" stop-color="#4B8673"/>
<stop offset="1" stop-color="#2C6E59"/>
</linearGradient>
<linearGradient id="paint6_linear_6001_4739" x1="13.9276" y1="7.64969" x2="12.2327" y2="7.70211" gradientUnits="userSpaceOnUse">
<stop stop-color="#38BC7C"/>
<stop offset="0.522948" stop-color="#2C6E59"/>
<stop offset="0.669499" stop-color="#4B8673"/>
<stop offset="1" stop-color="#2C6E59"/>
</linearGradient>
<linearGradient id="paint7_linear_6001_4739" x1="13.9276" y1="7.64969" x2="12.2327" y2="7.70211" gradientUnits="userSpaceOnUse">
<stop stop-color="#38BC7C"/>
<stop offset="0.522948" stop-color="#2C6E59"/>
<stop offset="0.669499" stop-color="#4B8673"/>
<stop offset="1" stop-color="#2C6E59"/>
</linearGradient>
<linearGradient id="paint8_linear_6001_4739" x1="13.9634" y1="7.7224" x2="12.4322" y2="7.7624" gradientUnits="userSpaceOnUse">
<stop stop-color="#38BC7C"/>
<stop offset="0.522948" stop-color="#2C6E59"/>
<stop offset="0.669499" stop-color="#4B8673"/>
<stop offset="1" stop-color="#2C6E59"/>
</linearGradient>
<linearGradient id="paint9_linear_6001_4739" x1="13.9771" y1="7.82578" x2="12.4835" y2="7.86347" gradientUnits="userSpaceOnUse">
<stop stop-color="#38BC7C"/>
<stop offset="0.522948" stop-color="#2C6E59"/>
<stop offset="0.669499" stop-color="#4B8673"/>
<stop offset="1" stop-color="#2C6E59"/>
</linearGradient>
<linearGradient id="paint10_linear_6001_4739" x1="13.97" y1="8.08891" x2="12.3847" y2="8.12291" gradientUnits="userSpaceOnUse">
<stop stop-color="#38BC7C"/>
<stop offset="0.522948" stop-color="#2C6E59"/>
<stop offset="0.669499" stop-color="#4B8673"/>
<stop offset="1" stop-color="#2C6E59"/>
</linearGradient>
<linearGradient id="paint11_linear_6001_4739" x1="13.8876" y1="8.44096" x2="12.1335" y2="8.48592" gradientUnits="userSpaceOnUse">
<stop stop-color="#38BC7C"/>
<stop offset="0.522948" stop-color="#2C6E59"/>
<stop offset="0.669499" stop-color="#4B8673"/>
<stop offset="1" stop-color="#2C6E59"/>
</linearGradient>
<linearGradient id="paint12_linear_6001_4739" x1="14.0164" y1="12.3211" x2="6.9141" y2="12.4178" gradientUnits="userSpaceOnUse">
<stop stop-color="#38BC7C"/>
<stop offset="0.522948" stop-color="#2C6E59"/>
<stop offset="0.669499" stop-color="#4B8673"/>
<stop offset="1" stop-color="#2C6E59"/>
</linearGradient>
<linearGradient id="paint13_linear_6001_4739" x1="13.865" y1="12.4108" x2="7.93484" y2="12.4911" gradientUnits="userSpaceOnUse">
<stop stop-color="#38BC7C"/>
<stop offset="0.522948" stop-color="#2C6E59"/>
<stop offset="0.669499" stop-color="#4B8673"/>
<stop offset="1" stop-color="#2C6E59"/>
</linearGradient>
<linearGradient id="paint14_linear_6001_4739" x1="14.769" y1="9.20217" x2="12.9644" y2="9.2518" gradientUnits="userSpaceOnUse">
<stop stop-color="#38BC7C"/>
<stop offset="0.522948" stop-color="#2C6E59"/>
<stop offset="0.669499" stop-color="#4B8673"/>
<stop offset="1" stop-color="#2C6E59"/>
</linearGradient>
<linearGradient id="paint15_linear_6001_4739" x1="14.4172" y1="10.6549" x2="11.1354" y2="10.7474" gradientUnits="userSpaceOnUse">
<stop stop-color="#38BC7C"/>
<stop offset="0.522948" stop-color="#2C6E59"/>
<stop offset="0.669499" stop-color="#4B8673"/>
<stop offset="1" stop-color="#2C6E59"/>
</linearGradient>
<linearGradient id="paint16_linear_6001_4739" x1="12.8088" y1="11.2869" x2="11.3225" y2="11.3272" gradientUnits="userSpaceOnUse">
<stop stop-color="#38BC7C"/>
<stop offset="0.522948" stop-color="#2C6E59"/>
<stop offset="0.669499" stop-color="#4B8673"/>
<stop offset="1" stop-color="#2C6E59"/>
</linearGradient>
<linearGradient id="paint17_linear_6001_4739" x1="12.8455" y1="11.388" x2="11.3082" y2="11.4264" gradientUnits="userSpaceOnUse">
<stop stop-color="#38BC7C"/>
<stop offset="0.522948" stop-color="#2C6E59"/>
<stop offset="0.669499" stop-color="#4B8673"/>
<stop offset="1" stop-color="#2C6E59"/>
</linearGradient>
<linearGradient id="paint18_linear_6001_4739" x1="12.9594" y1="11.4884" x2="11.3507" y2="11.5354" gradientUnits="userSpaceOnUse">
<stop stop-color="#38BC7C"/>
<stop offset="0.522948" stop-color="#2C6E59"/>
<stop offset="0.669499" stop-color="#4B8673"/>
<stop offset="1" stop-color="#2C6E59"/>
</linearGradient>
<linearGradient id="paint19_linear_6001_4739" x1="15.1966" y1="9.07907" x2="13.2214" y2="9.15083" gradientUnits="userSpaceOnUse">
<stop stop-color="#38BC7C"/>
<stop offset="0.522948" stop-color="#2C6E59"/>
<stop offset="0.669499" stop-color="#4B8673"/>
<stop offset="1" stop-color="#2C6E59"/>
</linearGradient>
<linearGradient id="paint20_linear_6001_4739" x1="14.4172" y1="10.6549" x2="11.1354" y2="10.7474" gradientUnits="userSpaceOnUse">
<stop stop-color="#38BC7C"/>
<stop offset="0.522948" stop-color="#2C6E59"/>
<stop offset="0.669499" stop-color="#4B8673"/>
<stop offset="1" stop-color="#2C6E59"/>
</linearGradient>
<linearGradient id="paint21_linear_6001_4739" x1="14.4884" y1="9.67526" x2="12.8274" y2="9.70642" gradientUnits="userSpaceOnUse">
<stop stop-color="#38BC7C"/>
<stop offset="0.522948" stop-color="#2C6E59"/>
<stop offset="0.669499" stop-color="#4B8673"/>
<stop offset="1" stop-color="#2C6E59"/>
</linearGradient>
<linearGradient id="paint22_linear_6001_4739" x1="16.7159" y1="7.61908" x2="14.977" y2="7.66525" gradientUnits="userSpaceOnUse">
<stop stop-color="#38BC7C"/>
<stop offset="0.522948" stop-color="#2C6E59"/>
<stop offset="0.669499" stop-color="#4B8673"/>
<stop offset="1" stop-color="#2C6E59"/>
</linearGradient>
<linearGradient id="paint23_linear_6001_4739" x1="15.2896" y1="9.07845" x2="13.6785" y2="9.12555" gradientUnits="userSpaceOnUse">
<stop stop-color="#38BC7C"/>
<stop offset="0.522948" stop-color="#2C6E59"/>
<stop offset="0.669499" stop-color="#4B8673"/>
<stop offset="1" stop-color="#2C6E59"/>
</linearGradient>
<linearGradient id="paint24_linear_6001_4739" x1="16.8106" y1="7.50881" x2="15.2109" y2="7.55585" gradientUnits="userSpaceOnUse">
<stop stop-color="#38BC7C"/>
<stop offset="0.522948" stop-color="#2C6E59"/>
<stop offset="0.669499" stop-color="#4B8673"/>
<stop offset="1" stop-color="#2C6E59"/>
</linearGradient>
<linearGradient id="paint25_linear_6001_4739" x1="16.8096" y1="7.51742" x2="15.3264" y2="7.55839" gradientUnits="userSpaceOnUse">
<stop stop-color="#38BC7C"/>
<stop offset="0.522948" stop-color="#2C6E59"/>
<stop offset="0.669499" stop-color="#4B8673"/>
<stop offset="1" stop-color="#2C6E59"/>
</linearGradient>
<linearGradient id="paint26_linear_6001_4739" x1="15.3505" y1="9.1946" x2="13.7918" y2="9.23323" gradientUnits="userSpaceOnUse">
<stop stop-color="#38BC7C"/>
<stop offset="0.522948" stop-color="#2C6E59"/>
<stop offset="0.669499" stop-color="#4B8673"/>
<stop offset="1" stop-color="#2C6E59"/>
</linearGradient>
<linearGradient id="paint27_linear_6001_4739" x1="13.4268" y1="11.4858" x2="11.4179" y2="11.56" gradientUnits="userSpaceOnUse">
<stop stop-color="#38BC7C"/>
<stop offset="0.522948" stop-color="#2C6E59"/>
<stop offset="0.669499" stop-color="#4B8673"/>
<stop offset="1" stop-color="#2C6E59"/>
</linearGradient>
<linearGradient id="paint28_linear_6001_4739" x1="16.4895" y1="7.94413" x2="14.9043" y2="7.97814" gradientUnits="userSpaceOnUse">
<stop stop-color="#38BC7C"/>
<stop offset="0.522948" stop-color="#2C6E59"/>
<stop offset="0.669499" stop-color="#4B8673"/>
<stop offset="1" stop-color="#2C6E59"/>
</linearGradient>
<linearGradient id="paint29_linear_6001_4739" x1="16.457" y1="8.27696" x2="14.8964" y2="8.31382" gradientUnits="userSpaceOnUse">
<stop stop-color="#38BC7C"/>
<stop offset="0.522948" stop-color="#2C6E59"/>
<stop offset="0.669499" stop-color="#4B8673"/>
<stop offset="1" stop-color="#2C6E59"/>
</linearGradient>
<linearGradient id="paint30_linear_6001_4739" x1="16.5026" y1="8.41316" x2="14.968" y2="8.45598" gradientUnits="userSpaceOnUse">
<stop stop-color="#38BC7C"/>
<stop offset="0.522948" stop-color="#2C6E59"/>
<stop offset="0.669499" stop-color="#4B8673"/>
<stop offset="1" stop-color="#2C6E59"/>
</linearGradient>
<linearGradient id="paint31_linear_6001_4739" x1="15.3532" y1="9.62203" x2="13.7001" y2="9.6534" gradientUnits="userSpaceOnUse">
<stop stop-color="#38BC7C"/>
<stop offset="0.522948" stop-color="#2C6E59"/>
<stop offset="0.669499" stop-color="#4B8673"/>
<stop offset="1" stop-color="#2C6E59"/>
</linearGradient>
<linearGradient id="paint32_linear_6001_4739" x1="15.5905" y1="12.8367" x2="10.1707" y2="12.9506" gradientUnits="userSpaceOnUse">
<stop stop-color="#38BC7C"/>
<stop offset="0.522948" stop-color="#2C6E59"/>
<stop offset="0.669499" stop-color="#4B8673"/>
<stop offset="1" stop-color="#2C6E59"/>
</linearGradient>
<linearGradient id="paint33_linear_6001_4739" x1="15.3649" y1="11.0784" x2="11.6877" y2="11.2222" gradientUnits="userSpaceOnUse">
<stop stop-color="#38BC7C"/>
<stop offset="0.522948" stop-color="#2C6E59"/>
<stop offset="0.669499" stop-color="#4B8673"/>
<stop offset="1" stop-color="#2C6E59"/>
</linearGradient>
<linearGradient id="paint34_linear_6001_4739" x1="15.9947" y1="10.0966" x2="13.6238" y2="10.1794" gradientUnits="userSpaceOnUse">
<stop stop-color="#38BC7C"/>
<stop offset="0.522948" stop-color="#2C6E59"/>
<stop offset="0.669499" stop-color="#4B8673"/>
<stop offset="1" stop-color="#2C6E59"/>
</linearGradient>
<linearGradient id="paint35_linear_6001_4739" x1="17.4661" y1="8.6952" x2="14.9062" y2="8.77726" gradientUnits="userSpaceOnUse">
<stop stop-color="#38BC7C"/>
<stop offset="0.522948" stop-color="#2C6E59"/>
<stop offset="0.669499" stop-color="#4B8673"/>
<stop offset="1" stop-color="#2C6E59"/>
</linearGradient>
<linearGradient id="paint36_linear_6001_4739" x1="18.1668" y1="7.87931" x2="15.1682" y2="7.9813" gradientUnits="userSpaceOnUse">
<stop stop-color="#38BC7C"/>
<stop offset="0.522948" stop-color="#2C6E59"/>
<stop offset="0.669499" stop-color="#4B8673"/>
<stop offset="1" stop-color="#2C6E59"/>
</linearGradient>
<linearGradient id="paint37_linear_6001_4739" x1="15.5905" y1="12.8367" x2="10.1707" y2="12.9506" gradientUnits="userSpaceOnUse">
<stop stop-color="#38BC7C"/>
<stop offset="0.522948" stop-color="#2C6E59"/>
<stop offset="0.669499" stop-color="#4B8673"/>
<stop offset="1" stop-color="#2C6E59"/>
</linearGradient>
<linearGradient id="paint38_linear_6001_4739" x1="15.5905" y1="12.8367" x2="10.1707" y2="12.9506" gradientUnits="userSpaceOnUse">
<stop stop-color="#38BC7C"/>
<stop offset="0.522948" stop-color="#2C6E59"/>
<stop offset="0.669499" stop-color="#4B8673"/>
<stop offset="1" stop-color="#2C6E59"/>
</linearGradient>
<linearGradient id="paint39_linear_6001_4739" x1="15.5905" y1="12.8367" x2="10.1707" y2="12.9506" gradientUnits="userSpaceOnUse">
<stop stop-color="#38BC7C"/>
<stop offset="0.522948" stop-color="#2C6E59"/>
<stop offset="0.669499" stop-color="#4B8673"/>
<stop offset="1" stop-color="#2C6E59"/>
</linearGradient>
<linearGradient id="paint40_linear_6001_4739" x1="14.2718" y1="13.5823" x2="11.3387" y2="13.6515" gradientUnits="userSpaceOnUse">
<stop stop-color="#38BC7C"/>
<stop offset="0.522948" stop-color="#2C6E59"/>
<stop offset="0.669499" stop-color="#4B8673"/>
<stop offset="1" stop-color="#2C6E59"/>
</linearGradient>
<linearGradient id="paint41_linear_6001_4739" x1="18.6834" y1="12.7739" x2="12.7532" y2="12.8542" gradientUnits="userSpaceOnUse">
<stop stop-color="#38BC7C"/>
<stop offset="0.522948" stop-color="#2C6E59"/>
<stop offset="0.669499" stop-color="#4B8673"/>
<stop offset="1" stop-color="#2C6E59"/>
</linearGradient>
<linearGradient id="paint42_linear_6001_4739" x1="13.2159" y1="15.0113" x2="10.8739" y2="15.0915" gradientUnits="userSpaceOnUse">
<stop stop-color="#38BC7C"/>
<stop offset="0.522948" stop-color="#2C6E59"/>
<stop offset="0.669499" stop-color="#4B8673"/>
<stop offset="1" stop-color="#2C6E59"/>
</linearGradient>
<linearGradient id="paint43_linear_6001_4739" x1="11.9123" y1="16.4818" x2="9.3531" y2="16.5637" gradientUnits="userSpaceOnUse">
<stop stop-color="#38BC7C"/>
<stop offset="0.522948" stop-color="#2C6E59"/>
<stop offset="0.669499" stop-color="#4B8673"/>
<stop offset="1" stop-color="#2C6E59"/>
</linearGradient>
<linearGradient id="paint44_linear_6001_4739" x1="11.9099" y1="16.7608" x2="10.3747" y2="16.8037" gradientUnits="userSpaceOnUse">
<stop stop-color="#38BC7C"/>
<stop offset="0.522948" stop-color="#2C6E59"/>
<stop offset="0.669499" stop-color="#4B8673"/>
<stop offset="1" stop-color="#2C6E59"/>
</linearGradient>
<linearGradient id="paint45_linear_6001_4739" x1="16.4141" y1="11.5562" x2="12.451" y2="11.6407" gradientUnits="userSpaceOnUse">
<stop stop-color="#38BC7C"/>
<stop offset="0.522948" stop-color="#2C6E59"/>
<stop offset="0.669499" stop-color="#4B8673"/>
<stop offset="1" stop-color="#2C6E59"/>
</linearGradient>
<linearGradient id="paint46_linear_6001_4739" x1="11.9785" y1="16.9046" x2="10.4184" y2="16.9415" gradientUnits="userSpaceOnUse">
<stop stop-color="#38BC7C"/>
<stop offset="0.522948" stop-color="#2C6E59"/>
<stop offset="0.669499" stop-color="#4B8673"/>
<stop offset="1" stop-color="#2C6E59"/>
</linearGradient>
<linearGradient id="paint47_linear_6001_4739" x1="13.1827" y1="15.5112" x2="11.5218" y2="15.5424" gradientUnits="userSpaceOnUse">
<stop stop-color="#38BC7C"/>
<stop offset="0.522948" stop-color="#2C6E59"/>
<stop offset="0.669499" stop-color="#4B8673"/>
<stop offset="1" stop-color="#2C6E59"/>
</linearGradient>
<linearGradient id="paint48_linear_6001_4739" x1="15.0793" y1="14.0456" x2="11.4502" y2="14.1859" gradientUnits="userSpaceOnUse">
<stop stop-color="#38BC7C"/>
<stop offset="0.522948" stop-color="#2C6E59"/>
<stop offset="0.669499" stop-color="#4B8673"/>
<stop offset="1" stop-color="#2C6E59"/>
</linearGradient>
<linearGradient id="paint49_linear_6001_4739" x1="15.2207" y1="13.5554" x2="13.4644" y2="13.6046" gradientUnits="userSpaceOnUse">
<stop stop-color="#38BC7C"/>
<stop offset="0.522948" stop-color="#2C6E59"/>
<stop offset="0.669499" stop-color="#4B8673"/>
<stop offset="1" stop-color="#2C6E59"/>
</linearGradient>
<linearGradient id="paint50_linear_6001_4739" x1="11.6248" y1="17.3051" x2="8.62565" y2="17.4071" gradientUnits="userSpaceOnUse">
<stop stop-color="#38BC7C"/>
<stop offset="0.522948" stop-color="#2C6E59"/>
<stop offset="0.669499" stop-color="#4B8673"/>
<stop offset="1" stop-color="#2C6E59"/>
</linearGradient>
<linearGradient id="paint51_linear_6001_4739" x1="11.5568" y1="17.6585" x2="10.0706" y2="17.6996" gradientUnits="userSpaceOnUse">
<stop stop-color="#38BC7C"/>
<stop offset="0.522948" stop-color="#2C6E59"/>
<stop offset="0.669499" stop-color="#4B8673"/>
<stop offset="1" stop-color="#2C6E59"/>
</linearGradient>
<linearGradient id="paint52_linear_6001_4739" x1="15.0793" y1="14.0456" x2="11.4502" y2="14.1859" gradientUnits="userSpaceOnUse">
<stop stop-color="#38BC7C"/>
<stop offset="0.522948" stop-color="#2C6E59"/>
<stop offset="0.669499" stop-color="#4B8673"/>
<stop offset="1" stop-color="#2C6E59"/>
</linearGradient>
<linearGradient id="paint53_linear_6001_4739" x1="13.0877" y1="15.9524" x2="11.5314" y2="15.9909" gradientUnits="userSpaceOnUse">
<stop stop-color="#38BC7C"/>
<stop offset="0.522948" stop-color="#2C6E59"/>
<stop offset="0.669499" stop-color="#4B8673"/>
<stop offset="1" stop-color="#2C6E59"/>
</linearGradient>
<linearGradient id="paint54_linear_6001_4739" x1="11.6631" y1="17.6689" x2="10.0634" y2="17.716" gradientUnits="userSpaceOnUse">
<stop stop-color="#38BC7C"/>
<stop offset="0.522948" stop-color="#2C6E59"/>
<stop offset="0.669499" stop-color="#4B8673"/>
<stop offset="1" stop-color="#2C6E59"/>
</linearGradient>
<linearGradient id="paint55_linear_6001_4739" x1="11.968" y1="17.2332" x2="10.3828" y2="17.2672" gradientUnits="userSpaceOnUse">
<stop stop-color="#38BC7C"/>
<stop offset="0.522948" stop-color="#2C6E59"/>
<stop offset="0.669499" stop-color="#4B8673"/>
<stop offset="1" stop-color="#2C6E59"/>
</linearGradient>
<radialGradient id="paint56_radial_6001_4739" cx="0" cy="0" r="1" gradientUnits="userSpaceOnUse" gradientTransform="translate(11.8095 10.8247) rotate(103.711) scale(17.9785 84.9437)">
<stop stop-color="#4BF2A2"/>
<stop offset="0.421875" stop-color="#153329"/>
<stop offset="1" stop-color="#2C6E59"/>
</radialGradient>
<linearGradient id="paint57_linear_6001_4739" x1="11.8849" y1="17.5613" x2="10.146" y2="17.6074" gradientUnits="userSpaceOnUse">
<stop stop-color="#38BC7C"/>
<stop offset="0.522948" stop-color="#2C6E59"/>
<stop offset="0.669499" stop-color="#4B8673"/>
<stop offset="1" stop-color="#2C6E59"/>
</linearGradient>
<linearGradient id="paint58_linear_6001_4739" x1="13.1996" y1="16.067" x2="11.5915" y2="16.1139" gradientUnits="userSpaceOnUse">
<stop stop-color="#38BC7C"/>
<stop offset="0.522948" stop-color="#2C6E59"/>
<stop offset="0.669499" stop-color="#4B8673"/>
<stop offset="1" stop-color="#2C6E59"/>
</linearGradient>
<linearGradient id="paint59_linear_6001_4739" x1="15.7087" y1="13.4512" x2="13.6673" y2="13.5277" gradientUnits="userSpaceOnUse">
<stop stop-color="#38BC7C"/>
<stop offset="0.522948" stop-color="#2C6E59"/>
<stop offset="0.669499" stop-color="#4B8673"/>
<stop offset="1" stop-color="#2C6E59"/>
</linearGradient>
<linearGradient id="paint60_linear_6001_4739" x1="15.7955" y1="13.4571" x2="14.1849" y2="13.5042" gradientUnits="userSpaceOnUse">
<stop stop-color="#38BC7C"/>
<stop offset="0.522948" stop-color="#2C6E59"/>
<stop offset="0.669499" stop-color="#4B8673"/>
<stop offset="1" stop-color="#2C6E59"/>
</linearGradient>
<linearGradient id="paint61_linear_6001_4739" x1="13.637" y1="16.071" x2="11.6619" y2="16.1428" gradientUnits="userSpaceOnUse">
<stop stop-color="#38BC7C"/>
<stop offset="0.522948" stop-color="#2C6E59"/>
<stop offset="0.669499" stop-color="#4B8673"/>
<stop offset="1" stop-color="#2C6E59"/>
</linearGradient>
<linearGradient id="paint62_linear_6001_4739" x1="15.8427" y1="13.5559" x2="14.3034" y2="13.5944" gradientUnits="userSpaceOnUse">
<stop stop-color="#38BC7C"/>
<stop offset="0.522948" stop-color="#2C6E59"/>
<stop offset="0.669499" stop-color="#4B8673"/>
<stop offset="1" stop-color="#2C6E59"/>
</linearGradient>
<linearGradient id="paint63_linear_6001_4739" x1="14.048" y1="15.4721" x2="12.387" y2="15.5033" gradientUnits="userSpaceOnUse">
<stop stop-color="#38BC7C"/>
<stop offset="0.522948" stop-color="#2C6E59"/>
<stop offset="0.669499" stop-color="#4B8673"/>
<stop offset="1" stop-color="#2C6E59"/>
</linearGradient>
<linearGradient id="paint64_linear_6001_4739" x1="15.8322" y1="13.6463" x2="14.3453" y2="13.6866" gradientUnits="userSpaceOnUse">
<stop stop-color="#38BC7C"/>
<stop offset="0.522948" stop-color="#2C6E59"/>
<stop offset="0.669499" stop-color="#4B8673"/>
<stop offset="1" stop-color="#2C6E59"/>
</linearGradient>
<linearGradient id="paint65_linear_6001_4739" x1="13.9028" y1="15.9405" x2="12.0982" y2="15.9901" gradientUnits="userSpaceOnUse">
<stop stop-color="#38BC7C"/>
<stop offset="0.522948" stop-color="#2C6E59"/>
<stop offset="0.669499" stop-color="#4B8673"/>
<stop offset="1" stop-color="#2C6E59"/>
</linearGradient>
<linearGradient id="paint66_linear_6001_4739" x1="15.9321" y1="14.3897" x2="12.3326" y2="14.4917" gradientUnits="userSpaceOnUse">
<stop stop-color="#38BC7C"/>
<stop offset="0.522948" stop-color="#2C6E59"/>
<stop offset="0.669499" stop-color="#4B8673"/>
<stop offset="1" stop-color="#2C6E59"/>
</linearGradient>
<linearGradient id="paint67_linear_6001_4739" x1="14.7301" y1="16.7185" x2="12.9809" y2="16.7643" gradientUnits="userSpaceOnUse">
<stop stop-color="#38BC7C"/>
<stop offset="0.522948" stop-color="#2C6E59"/>
<stop offset="0.669499" stop-color="#4B8673"/>
<stop offset="1" stop-color="#2C6E59"/>
</linearGradient>
<linearGradient id="paint68_linear_6001_4739" x1="14.4944" y1="17.0577" x2="12.9091" y2="17.0917" gradientUnits="userSpaceOnUse">
<stop stop-color="#38BC7C"/>
<stop offset="0.522948" stop-color="#2C6E59"/>
<stop offset="0.669499" stop-color="#4B8673"/>
<stop offset="1" stop-color="#2C6E59"/>
</linearGradient>
<linearGradient id="paint69_linear_6001_4739" x1="14.405" y1="17.318" x2="12.9087" y2="17.3558" gradientUnits="userSpaceOnUse">
<stop stop-color="#38BC7C"/>
<stop offset="0.522948" stop-color="#2C6E59"/>
<stop offset="0.669499" stop-color="#4B8673"/>
<stop offset="1" stop-color="#2C6E59"/>
</linearGradient>
<linearGradient id="paint70_linear_6001_4739" x1="14.4487" y1="17.4336" x2="12.9181" y2="17.4735" gradientUnits="userSpaceOnUse">
<stop stop-color="#38BC7C"/>
<stop offset="0.522948" stop-color="#2C6E59"/>
<stop offset="0.669499" stop-color="#4B8673"/>
<stop offset="1" stop-color="#2C6E59"/>
</linearGradient>
<linearGradient id="paint71_linear_6001_4739" x1="18.6834" y1="12.7739" x2="12.7532" y2="12.8542" gradientUnits="userSpaceOnUse">
<stop stop-color="#38BC7C"/>
<stop offset="0.522948" stop-color="#2C6E59"/>
<stop offset="0.669499" stop-color="#4B8673"/>
<stop offset="1" stop-color="#2C6E59"/>
</linearGradient>
<linearGradient id="paint72_linear_6001_4739" x1="14.6415" y1="17.4895" x2="12.9459" y2="17.5419" gradientUnits="userSpaceOnUse">
<stop stop-color="#38BC7C"/>
<stop offset="0.522948" stop-color="#2C6E59"/>
<stop offset="0.669499" stop-color="#4B8673"/>
<stop offset="1" stop-color="#2C6E59"/>
</linearGradient>
<linearGradient id="paint73_linear_6001_4739" x1="18.6834" y1="12.7739" x2="12.7532" y2="12.8542" gradientUnits="userSpaceOnUse">
<stop stop-color="#38BC7C"/>
<stop offset="0.522948" stop-color="#2C6E59"/>
<stop offset="0.669499" stop-color="#4B8673"/>
<stop offset="1" stop-color="#2C6E59"/>
</linearGradient>
<linearGradient id="paint74_linear_6001_4739" x1="19.6362" y1="12.8418" x2="12.5421" y2="12.9386" gradientUnits="userSpaceOnUse">
<stop stop-color="#38BC7C"/>
<stop offset="0.522948" stop-color="#2C6E59"/>
<stop offset="0.669499" stop-color="#4B8673"/>
<stop offset="1" stop-color="#2C6E59"/>
</linearGradient>
<linearGradient id="paint75_linear_6001_4739" x1="20.5766" y1="11.9712" x2="4.23544" y2="12.3514" gradientUnits="userSpaceOnUse">
<stop stop-color="#38BC7C"/>
<stop offset="0.522948" stop-color="#2C6E59"/>
<stop offset="0.669499" stop-color="#4B8673"/>
<stop offset="1" stop-color="#2C6E59"/>
</linearGradient>
<radialGradient id="paint76_radial_6001_4739" cx="0" cy="0" r="1" gradientUnits="userSpaceOnUse" gradientTransform="translate(17.1886 10.6765) rotate(103.733) scale(17.9246 84.8168)">
<stop stop-color="#4BF2A2"/>
<stop offset="0.421875" stop-color="#153329"/>
<stop offset="1" stop-color="#2C6E59"/>
</radialGradient>
<radialGradient id="paint77_radial_6001_4739" cx="0" cy="0" r="1" gradientUnits="userSpaceOnUse" gradientTransform="translate(18.7332 11.2783) rotate(115.335) scale(26.6621 211.584)">
<stop stop-color="#4BF2A2"/>
<stop offset="0.421875" stop-color="#153329"/>
<stop offset="1" stop-color="#2C6E59"/>
</radialGradient>
<clipPath id="clip0_6001_4739">
<rect width="1440" height="1392" fill="white" transform="translate(-261 -432)"/>
</clipPath>
<clipPath id="clip1_6001_4739">
<rect x="-36" y="-54" width="362" height="484" rx="16" fill="white"/>
</clipPath>
</defs>
</svg>
