<svg width="24" height="20" viewBox="0 0 24 20" fill="none" xmlns="http://www.w3.org/2000/svg">
<path id="Vector" d="M21.543 4.85476C21.5576 5.06645 21.5576 5.27795 21.5576 5.49151C21.5576 11.9978 16.6044 19.5015 7.54763 19.5015V19.4978C4.87202 19.5015 2.25186 18.7351 0 17.2901C0.389063 17.337 0.78 17.3604 1.17188 17.3614C3.38946 17.3632 5.54326 16.6194 7.28719 15.2496C6.25968 15.2302 5.26393 14.8901 4.43914 14.277C3.61436 13.664 3.00178 12.8084 2.68706 11.8301C3.42525 11.9726 4.18575 11.9432 4.91025 11.7452C2.613 11.2811 0.960375 9.26288 0.960375 6.91895V6.85651C1.64518 7.23801 2.41163 7.44938 3.19519 7.47282C1.03125 6.02682 0.364688 3.14851 1.67119 0.898322C2.90736 2.41944 4.44967 3.66352 6.19797 4.54975C7.94626 5.43598 9.86142 5.94453 11.8191 6.04238C11.6239 5.20215 11.6528 4.32542 11.9028 3.49985C12.1528 2.67428 12.6152 1.92882 13.2437 1.33801C15.2269 -0.526304 18.3459 -0.430678 20.2101 1.55157C21.3128 1.33383 22.3703 0.929533 23.337 0.356072C22.9694 1.4962 22.2002 2.46401 21.1725 3.07951C22.1486 2.96443 23.1017 2.70306 24 2.3042C23.3392 3.29375 22.5072 4.15747 21.543 4.85476Z" fill="#1D9BF0"/>
</svg>
