<svg width="22" height="18" viewBox="0 0 22 18" fill="none" xmlns="http://www.w3.org/2000/svg">
<g id="Group 3514">
<path id="Vector" d="M22 2.17863C21.1819 2.5375 20.3101 2.77537 19.4012 2.89087C20.3363 2.33262 21.0499 1.45537 21.3854 0.398C20.5136 0.91775 19.5511 1.28488 18.5254 1.48975C17.6976 0.608375 16.5179 0.0625 15.2309 0.0625C12.7339 0.0625 10.7236 2.08925 10.7236 4.57388C10.7236 4.93138 10.7539 5.27512 10.8281 5.60237C7.0785 5.4195 3.76063 3.62238 1.53175 0.88475C1.14262 1.55988 0.914375 2.33262 0.914375 3.1645C0.914375 4.7265 1.71875 6.11112 2.91775 6.91275C2.19313 6.899 1.48225 6.68862 0.88 6.35725C0.88 6.371 0.88 6.38888 0.88 6.40675C0.88 8.5985 2.44337 10.419 4.4935 10.8384C4.12637 10.9388 3.72625 10.9869 3.311 10.9869C3.02225 10.9869 2.73075 10.9704 2.45712 10.9099C3.0415 12.696 4.69975 14.0091 6.6715 14.0518C5.137 15.2521 3.18863 15.9754 1.07938 15.9754C0.7095 15.9754 0.35475 15.9589 0 15.9135C1.99787 17.2019 4.36562 17.9375 6.919 17.9375C15.2185 17.9375 19.756 11.0625 19.756 5.10325C19.756 4.90387 19.7491 4.71138 19.7395 4.52025C20.6346 3.885 21.3867 3.09162 22 2.17863Z" fill="#B5B5C6"/>
</g>
</svg>
