<svg width="18" height="18" viewBox="0 0 18 18" fill="none" xmlns="http://www.w3.org/2000/svg">
<g id="Group 3648">
<path id="Vector" d="M16.9858 10.8305L16.6554 14.8366C16.5316 16.0624 16.4324 16.9999 14.1941 16.9999H3.80357C1.56523 16.9999 1.46612 16.0624 1.34222 14.8366L1.01184 10.8305C0.945765 10.1655 1.16051 9.54858 1.54871 9.07587C1.55697 9.06786 1.55697 9.06786 1.56523 9.05985C2.01951 8.52303 2.70505 8.18652 3.47319 8.18652H14.5245C15.2926 8.18652 15.9699 8.52303 16.4159 9.04382C16.4242 9.05183 16.4324 9.05985 16.4324 9.06786C16.8372 9.54057 17.0602 10.1575 16.9858 10.8305Z" stroke="#B5B5C6" stroke-width="1.5" stroke-miterlimit="10"/>
<path id="Vector_2" d="M1.97827 8.5314V4.40515C1.97827 1.68103 2.68033 1 5.48858 1H6.53755C7.58651 1 7.82604 1.30446 8.2225 1.81724L9.27146 3.1793C9.53577 3.51581 9.6927 3.72412 10.3948 3.72412H12.5009C15.3092 3.72412 16.0113 4.40515 16.0113 7.12928V8.56345" stroke="#B5B5C6" stroke-width="1.5" stroke-miterlimit="10" stroke-linecap="round" stroke-linejoin="round"/>
<path id="Vector_3" d="M6.87598 12.9941H11.1214" stroke="#B5B5C6" stroke-width="1.5" stroke-miterlimit="10" stroke-linecap="round" stroke-linejoin="round"/>
</g>
</svg>
